%TF.GenerationSoftware,KiCad,Pcbnew,7.0.2*%
%TF.CreationDate,2023-08-10T02:19:43+09:00*%
%TF.ProjectId,Pmod_7LED_8digit,506d6f64-5f37-44c4-9544-5f3864696769,rev?*%
%TF.SameCoordinates,Original*%
%TF.FileFunction,Soldermask,Bot*%
%TF.FilePolarity,Negative*%
%FSLAX46Y46*%
G04 Gerber Fmt 4.6, Leading zero omitted, Abs format (unit mm)*
G04 Created by KiCad (PCBNEW 7.0.2) date 2023-08-10 02:19:43*
%MOMM*%
%LPD*%
G01*
G04 APERTURE LIST*
G04 Aperture macros list*
%AMRoundRect*
0 Rectangle with rounded corners*
0 $1 Rounding radius*
0 $2 $3 $4 $5 $6 $7 $8 $9 X,Y pos of 4 corners*
0 Add a 4 corners polygon primitive as box body*
4,1,4,$2,$3,$4,$5,$6,$7,$8,$9,$2,$3,0*
0 Add four circle primitives for the rounded corners*
1,1,$1+$1,$2,$3*
1,1,$1+$1,$4,$5*
1,1,$1+$1,$6,$7*
1,1,$1+$1,$8,$9*
0 Add four rect primitives between the rounded corners*
20,1,$1+$1,$2,$3,$4,$5,0*
20,1,$1+$1,$4,$5,$6,$7,0*
20,1,$1+$1,$6,$7,$8,$9,0*
20,1,$1+$1,$8,$9,$2,$3,0*%
G04 Aperture macros list end*
%ADD10R,1.100000X1.100000*%
%ADD11C,1.100000*%
%ADD12R,1.700000X1.700000*%
%ADD13O,1.700000X1.700000*%
%ADD14R,1.500000X0.600000*%
%ADD15RoundRect,0.237500X-0.237500X0.300000X-0.237500X-0.300000X0.237500X-0.300000X0.237500X0.300000X0*%
G04 APERTURE END LIST*
D10*
%TO.C,DS2*%
X83185000Y-82169000D03*
D11*
X85725000Y-82169000D03*
X88265000Y-82169000D03*
X90805000Y-82169000D03*
X93345000Y-82169000D03*
X95885000Y-82169000D03*
X95885000Y-66929000D03*
X93345000Y-66929000D03*
X90805000Y-66929000D03*
X88265000Y-66929000D03*
X85725000Y-66929000D03*
X83185000Y-66929000D03*
%TD*%
D12*
%TO.C,J1*%
X56642000Y-68326000D03*
D13*
X56642000Y-70866000D03*
X56642000Y-73406000D03*
X56642000Y-75946000D03*
X56642000Y-78486000D03*
X56642000Y-81026000D03*
X54102000Y-68326000D03*
X54102000Y-70866000D03*
X54102000Y-73406000D03*
X54102000Y-75946000D03*
X54102000Y-78486000D03*
X54102000Y-81026000D03*
%TD*%
D10*
%TO.C,DS1*%
X134112000Y-82169000D03*
D11*
X136652000Y-82169000D03*
X139192000Y-82169000D03*
X141732000Y-82169000D03*
X144272000Y-82169000D03*
X146812000Y-82169000D03*
X146812000Y-66929000D03*
X144272000Y-66929000D03*
X141732000Y-66929000D03*
X139192000Y-66929000D03*
X136652000Y-66929000D03*
X134112000Y-66929000D03*
%TD*%
D14*
%TO.C,U2*%
X75432000Y-70231000D03*
X75432000Y-71501000D03*
X75432000Y-72771000D03*
X75432000Y-74041000D03*
X75432000Y-75311000D03*
X75432000Y-76581000D03*
X75432000Y-77851000D03*
X75432000Y-79121000D03*
X68332000Y-79121000D03*
X68332000Y-77851000D03*
X68332000Y-76581000D03*
X68332000Y-75311000D03*
X68332000Y-74041000D03*
X68332000Y-72771000D03*
X68332000Y-71501000D03*
X68332000Y-70231000D03*
%TD*%
D15*
%TO.C,C2*%
X67945000Y-66193500D03*
X67945000Y-67918500D03*
%TD*%
M02*
