%TF.GenerationSoftware,KiCad,Pcbnew,7.0.2*%
%TF.CreationDate,2023-08-10T02:19:42+09:00*%
%TF.ProjectId,Pmod_7LED_8digit,506d6f64-5f37-44c4-9544-5f3864696769,rev?*%
%TF.SameCoordinates,Original*%
%TF.FileFunction,Copper,L2,Bot*%
%TF.FilePolarity,Positive*%
%FSLAX46Y46*%
G04 Gerber Fmt 4.6, Leading zero omitted, Abs format (unit mm)*
G04 Created by KiCad (PCBNEW 7.0.2) date 2023-08-10 02:19:42*
%MOMM*%
%LPD*%
G01*
G04 APERTURE LIST*
G04 Aperture macros list*
%AMRoundRect*
0 Rectangle with rounded corners*
0 $1 Rounding radius*
0 $2 $3 $4 $5 $6 $7 $8 $9 X,Y pos of 4 corners*
0 Add a 4 corners polygon primitive as box body*
4,1,4,$2,$3,$4,$5,$6,$7,$8,$9,$2,$3,0*
0 Add four circle primitives for the rounded corners*
1,1,$1+$1,$2,$3*
1,1,$1+$1,$4,$5*
1,1,$1+$1,$6,$7*
1,1,$1+$1,$8,$9*
0 Add four rect primitives between the rounded corners*
20,1,$1+$1,$2,$3,$4,$5,0*
20,1,$1+$1,$4,$5,$6,$7,0*
20,1,$1+$1,$6,$7,$8,$9,0*
20,1,$1+$1,$8,$9,$2,$3,0*%
G04 Aperture macros list end*
%TA.AperFunction,ComponentPad*%
%ADD10R,1.100000X1.100000*%
%TD*%
%TA.AperFunction,ComponentPad*%
%ADD11C,1.100000*%
%TD*%
%TA.AperFunction,ComponentPad*%
%ADD12R,1.700000X1.700000*%
%TD*%
%TA.AperFunction,ComponentPad*%
%ADD13O,1.700000X1.700000*%
%TD*%
%TA.AperFunction,SMDPad,CuDef*%
%ADD14R,1.500000X0.600000*%
%TD*%
%TA.AperFunction,SMDPad,CuDef*%
%ADD15RoundRect,0.237500X-0.237500X0.300000X-0.237500X-0.300000X0.237500X-0.300000X0.237500X0.300000X0*%
%TD*%
%TA.AperFunction,ViaPad*%
%ADD16C,0.800000*%
%TD*%
%TA.AperFunction,ViaPad*%
%ADD17C,1.000000*%
%TD*%
%TA.AperFunction,Conductor*%
%ADD18C,0.500000*%
%TD*%
%TA.AperFunction,Conductor*%
%ADD19C,0.250000*%
%TD*%
G04 APERTURE END LIST*
D10*
%TO.P,DS2,1,ANODE_E_DIG_1234*%
%TO.N,Net-(DS1-ANODE_E_DIG_1234)*%
X83185000Y-82169000D03*
D11*
%TO.P,DS2,2,ANODE_D_DIG_1234*%
%TO.N,Net-(DS1-ANODE_D_DIG_1234)*%
X85725000Y-82169000D03*
%TO.P,DS2,3,ANODE_DP_DIG_1234*%
%TO.N,Net-(DS1-ANODE_DP_DIG_1234)*%
X88265000Y-82169000D03*
%TO.P,DS2,4,ANODE_C_DIG_1234*%
%TO.N,Net-(DS1-ANODE_C_DIG_1234)*%
X90805000Y-82169000D03*
%TO.P,DS2,5,ANODE_G_DIG_1234*%
%TO.N,Net-(DS1-ANODE_G_DIG_1234)*%
X93345000Y-82169000D03*
%TO.P,DS2,6,COMMON_CATHODE_DIG_4*%
%TO.N,Net-(DS2-COMMON_CATHODE_DIG_4)*%
X95885000Y-82169000D03*
%TO.P,DS2,7,ANODE_B_DIG_1234*%
%TO.N,Net-(DS1-ANODE_B_DIG_1234)*%
X95885000Y-66929000D03*
%TO.P,DS2,8,COMMON_CATHODE_DIG_3*%
%TO.N,Net-(DS2-COMMON_CATHODE_DIG_3)*%
X93345000Y-66929000D03*
%TO.P,DS2,9,COMMON_CATHODE_DIG_2*%
%TO.N,Net-(DS2-COMMON_CATHODE_DIG_2)*%
X90805000Y-66929000D03*
%TO.P,DS2,10,ANODE_F_DIG_1234*%
%TO.N,Net-(DS1-ANODE_F_DIG_1234)*%
X88265000Y-66929000D03*
%TO.P,DS2,11,ANODE_A_DIG_1234*%
%TO.N,Net-(DS1-ANODE_A_DIG_1234)*%
X85725000Y-66929000D03*
%TO.P,DS2,12,COMMON_CATHODE_DIG_1*%
%TO.N,Net-(DS2-COMMON_CATHODE_DIG_1)*%
X83185000Y-66929000D03*
%TD*%
D12*
%TO.P,J1,1,Pin_1*%
%TO.N,Net-(J1-Pin_1)*%
X56642000Y-68326000D03*
D13*
%TO.P,J1,2,Pin_2*%
%TO.N,Net-(J1-Pin_2)*%
X56642000Y-70866000D03*
%TO.P,J1,3,Pin_3*%
%TO.N,Net-(J1-Pin_3)*%
X56642000Y-73406000D03*
%TO.P,J1,4,Pin_4*%
%TO.N,Net-(J1-Pin_4)*%
X56642000Y-75946000D03*
%TO.P,J1,5,Pin_5*%
%TO.N,GND*%
X56642000Y-78486000D03*
%TO.P,J1,6,Pin_6*%
%TO.N,VCC*%
X56642000Y-81026000D03*
%TO.P,J1,7,Pin_7*%
%TO.N,unconnected-(J1-Pin_7-Pad7)*%
X54102000Y-68326000D03*
%TO.P,J1,8,Pin_8*%
%TO.N,unconnected-(J1-Pin_8-Pad8)*%
X54102000Y-70866000D03*
%TO.P,J1,9,Pin_9*%
%TO.N,unconnected-(J1-Pin_9-Pad9)*%
X54102000Y-73406000D03*
%TO.P,J1,10,Pin_10*%
%TO.N,unconnected-(J1-Pin_10-Pad10)*%
X54102000Y-75946000D03*
%TO.P,J1,11,Pin_11*%
%TO.N,GND*%
X54102000Y-78486000D03*
%TO.P,J1,12,Pin_12*%
%TO.N,VCC*%
X54102000Y-81026000D03*
%TD*%
D10*
%TO.P,DS1,1,ANODE_E_DIG_1234*%
%TO.N,Net-(DS1-ANODE_E_DIG_1234)*%
X134112000Y-82169000D03*
D11*
%TO.P,DS1,2,ANODE_D_DIG_1234*%
%TO.N,Net-(DS1-ANODE_D_DIG_1234)*%
X136652000Y-82169000D03*
%TO.P,DS1,3,ANODE_DP_DIG_1234*%
%TO.N,Net-(DS1-ANODE_DP_DIG_1234)*%
X139192000Y-82169000D03*
%TO.P,DS1,4,ANODE_C_DIG_1234*%
%TO.N,Net-(DS1-ANODE_C_DIG_1234)*%
X141732000Y-82169000D03*
%TO.P,DS1,5,ANODE_G_DIG_1234*%
%TO.N,Net-(DS1-ANODE_G_DIG_1234)*%
X144272000Y-82169000D03*
%TO.P,DS1,6,COMMON_CATHODE_DIG_4*%
%TO.N,Net-(DS1-COMMON_CATHODE_DIG_4)*%
X146812000Y-82169000D03*
%TO.P,DS1,7,ANODE_B_DIG_1234*%
%TO.N,Net-(DS1-ANODE_B_DIG_1234)*%
X146812000Y-66929000D03*
%TO.P,DS1,8,COMMON_CATHODE_DIG_3*%
%TO.N,Net-(DS1-COMMON_CATHODE_DIG_3)*%
X144272000Y-66929000D03*
%TO.P,DS1,9,COMMON_CATHODE_DIG_2*%
%TO.N,Net-(DS1-COMMON_CATHODE_DIG_2)*%
X141732000Y-66929000D03*
%TO.P,DS1,10,ANODE_F_DIG_1234*%
%TO.N,Net-(DS1-ANODE_F_DIG_1234)*%
X139192000Y-66929000D03*
%TO.P,DS1,11,ANODE_A_DIG_1234*%
%TO.N,Net-(DS1-ANODE_A_DIG_1234)*%
X136652000Y-66929000D03*
%TO.P,DS1,12,COMMON_CATHODE_DIG_1*%
%TO.N,Net-(DS1-COMMON_CATHODE_DIG_1)*%
X134112000Y-66929000D03*
%TD*%
D14*
%TO.P,U2,1,QB*%
%TO.N,Net-(DS1-COMMON_CATHODE_DIG_2)*%
X75432000Y-70231000D03*
%TO.P,U2,2,QC*%
%TO.N,Net-(DS1-COMMON_CATHODE_DIG_3)*%
X75432000Y-71501000D03*
%TO.P,U2,3,QD*%
%TO.N,Net-(DS1-COMMON_CATHODE_DIG_4)*%
X75432000Y-72771000D03*
%TO.P,U2,4,QE*%
%TO.N,Net-(DS2-COMMON_CATHODE_DIG_1)*%
X75432000Y-74041000D03*
%TO.P,U2,5,QF*%
%TO.N,Net-(DS2-COMMON_CATHODE_DIG_2)*%
X75432000Y-75311000D03*
%TO.P,U2,6,QG*%
%TO.N,Net-(DS2-COMMON_CATHODE_DIG_3)*%
X75432000Y-76581000D03*
%TO.P,U2,7,QH*%
%TO.N,Net-(DS2-COMMON_CATHODE_DIG_4)*%
X75432000Y-77851000D03*
%TO.P,U2,8,GND*%
%TO.N,GND*%
X75432000Y-79121000D03*
%TO.P,U2,9,QH'*%
%TO.N,unconnected-(U2-QH'-Pad9)*%
X68332000Y-79121000D03*
%TO.P,U2,10,~{SRCLR}*%
%TO.N,Net-(J1-Pin_1)*%
X68332000Y-77851000D03*
%TO.P,U2,11,SRCLK*%
%TO.N,Net-(J1-Pin_2)*%
X68332000Y-76581000D03*
%TO.P,U2,12,RCLK*%
%TO.N,Net-(J1-Pin_3)*%
X68332000Y-75311000D03*
%TO.P,U2,13,~{OE}*%
%TO.N,GND*%
X68332000Y-74041000D03*
%TO.P,U2,14,SER*%
%TO.N,Net-(U1-QH')*%
X68332000Y-72771000D03*
%TO.P,U2,15,QA*%
%TO.N,Net-(DS1-COMMON_CATHODE_DIG_1)*%
X68332000Y-71501000D03*
%TO.P,U2,16,VCC*%
%TO.N,VCC*%
X68332000Y-70231000D03*
%TD*%
D15*
%TO.P,C2,1*%
%TO.N,GND*%
X67945000Y-66193500D03*
%TO.P,C2,2*%
%TO.N,VCC*%
X67945000Y-67918500D03*
%TD*%
D16*
%TO.N,GND*%
X71374000Y-82296000D03*
D17*
X59182000Y-73152000D03*
D16*
X142748000Y-76200000D03*
X103251000Y-75057000D03*
X123444000Y-75057000D03*
X85344000Y-76708000D03*
X67818000Y-82042000D03*
X123444000Y-82042000D03*
X146304000Y-72263000D03*
X78232000Y-82296000D03*
X137541000Y-69977000D03*
X83566000Y-77470000D03*
X103251000Y-82042000D03*
X65786000Y-81788000D03*
%TO.N,Net-(DS1-ANODE_E_DIG_1234)*%
X132715000Y-75819000D03*
%TO.N,Net-(DS1-ANODE_D_DIG_1234)*%
X79629000Y-74295000D03*
X136652000Y-76835000D03*
X94742000Y-76708000D03*
%TO.N,Net-(DS1-ANODE_DP_DIG_1234)*%
X78740000Y-80518000D03*
X139192000Y-77597000D03*
%TO.N,Net-(DS1-ANODE_C_DIG_1234)*%
X77978000Y-75692000D03*
X141732000Y-78994000D03*
%TO.N,Net-(DS1-ANODE_G_DIG_1234)*%
X81026000Y-77978000D03*
%TO.N,Net-(DS1-COMMON_CATHODE_DIG_4)*%
X84328000Y-71882000D03*
%TO.N,Net-(DS1-ANODE_B_DIG_1234)*%
X82042000Y-74422000D03*
%TO.N,Net-(DS1-COMMON_CATHODE_DIG_3)*%
X89154000Y-72771000D03*
%TO.N,Net-(DS1-COMMON_CATHODE_DIG_2)*%
X90932000Y-71374000D03*
%TO.N,Net-(DS1-ANODE_F_DIG_1234)*%
X94488000Y-68707000D03*
%TO.N,Net-(DS1-ANODE_A_DIG_1234)*%
X98425000Y-69977000D03*
X92710000Y-69977000D03*
%TO.N,Net-(DS1-COMMON_CATHODE_DIG_1)*%
X70993000Y-66167000D03*
%TO.N,Net-(DS2-COMMON_CATHODE_DIG_2)*%
X81534000Y-71882000D03*
%TO.N,Net-(J1-Pin_2)*%
X64262000Y-74422000D03*
%TO.N,Net-(J1-Pin_3)*%
X62611000Y-71374000D03*
%TO.N,Net-(U1-QH')*%
X63627000Y-68072000D03*
%TD*%
D18*
%TO.N,VCC*%
X67945000Y-69844000D02*
X68332000Y-70231000D01*
X62484000Y-65659000D02*
X64643000Y-65659000D01*
X56577000Y-81026000D02*
X60198000Y-81026000D01*
X61087000Y-80137000D02*
X61087000Y-67056000D01*
X67945000Y-67918500D02*
X67945000Y-69844000D01*
X61087000Y-67056000D02*
X62484000Y-65659000D01*
X64643000Y-65659000D02*
X66902500Y-67918500D01*
X66902500Y-67918500D02*
X67945000Y-67918500D01*
X60198000Y-81026000D02*
X61087000Y-80137000D01*
D19*
%TO.N,Net-(DS1-ANODE_E_DIG_1234)*%
X132715000Y-75819000D02*
X134112000Y-77216000D01*
X134112000Y-77216000D02*
X134112000Y-82169000D01*
%TO.N,Net-(DS1-ANODE_D_DIG_1234)*%
X82804000Y-76454000D02*
X83820000Y-75438000D01*
X79629000Y-74295000D02*
X81788000Y-76454000D01*
X81788000Y-76454000D02*
X82804000Y-76454000D01*
X83820000Y-75438000D02*
X93472000Y-75438000D01*
X93472000Y-75438000D02*
X94742000Y-76708000D01*
X136652000Y-82169000D02*
X136652000Y-76835000D01*
%TO.N,Net-(DS1-ANODE_DP_DIG_1234)*%
X78740000Y-80518000D02*
X87630000Y-80518000D01*
X88265000Y-81153000D02*
X88265000Y-82169000D01*
X139192000Y-82169000D02*
X139192000Y-77597000D01*
X87630000Y-80518000D02*
X88265000Y-81153000D01*
%TO.N,Net-(DS1-ANODE_C_DIG_1234)*%
X80518000Y-79756000D02*
X90043000Y-79756000D01*
X141732000Y-82169000D02*
X141732000Y-78994000D01*
X90043000Y-79756000D02*
X90805000Y-80518000D01*
X90805000Y-80518000D02*
X90805000Y-82169000D01*
X77978000Y-75692000D02*
X77978000Y-77216000D01*
X77978000Y-77216000D02*
X80518000Y-79756000D01*
%TO.N,Net-(DS1-ANODE_G_DIG_1234)*%
X81026000Y-77978000D02*
X82042000Y-78994000D01*
X82042000Y-78994000D02*
X92710000Y-78994000D01*
X92710000Y-78994000D02*
X93345000Y-79629000D01*
X93345000Y-79629000D02*
X93345000Y-82169000D01*
%TO.N,Net-(DS1-COMMON_CATHODE_DIG_4)*%
X79375000Y-70358000D02*
X77216000Y-72517000D01*
X82804000Y-70358000D02*
X79375000Y-70358000D01*
X76073000Y-72517000D02*
X75819000Y-72771000D01*
X84328000Y-71882000D02*
X82804000Y-70358000D01*
X77216000Y-72517000D02*
X76073000Y-72517000D01*
X75819000Y-72771000D02*
X75432000Y-72771000D01*
%TO.N,Net-(DS1-ANODE_B_DIG_1234)*%
X146050000Y-65405000D02*
X130302000Y-65405000D01*
X130302000Y-65405000D02*
X128778000Y-66929000D01*
X90424000Y-74422000D02*
X92583000Y-72263000D01*
X146812000Y-66167000D02*
X146050000Y-65405000D01*
X95885000Y-71247000D02*
X95885000Y-66929000D01*
X146812000Y-66929000D02*
X146812000Y-66167000D01*
X128778000Y-66929000D02*
X95885000Y-66929000D01*
X92583000Y-72263000D02*
X94869000Y-72263000D01*
X82042000Y-74422000D02*
X90424000Y-74422000D01*
X94869000Y-72263000D02*
X95885000Y-71247000D01*
%TO.N,Net-(DS1-COMMON_CATHODE_DIG_3)*%
X83820000Y-69342000D02*
X78613000Y-69342000D01*
X89154000Y-72771000D02*
X87249000Y-72771000D01*
X87249000Y-72771000D02*
X83820000Y-69342000D01*
X78613000Y-69342000D02*
X76454000Y-71501000D01*
X76454000Y-71501000D02*
X75432000Y-71501000D01*
%TO.N,Net-(DS1-COMMON_CATHODE_DIG_2)*%
X77337000Y-68326000D02*
X75432000Y-70231000D01*
X84582000Y-68326000D02*
X77337000Y-68326000D01*
X87630000Y-71374000D02*
X84582000Y-68326000D01*
X90932000Y-71374000D02*
X87630000Y-71374000D01*
%TO.N,Net-(DS1-ANODE_F_DIG_1234)*%
X88900000Y-68707000D02*
X88265000Y-68072000D01*
X94488000Y-68707000D02*
X88900000Y-68707000D01*
X88265000Y-68072000D02*
X88265000Y-66929000D01*
%TO.N,Net-(DS1-ANODE_A_DIG_1234)*%
X85725000Y-67818000D02*
X85725000Y-66929000D01*
X92710000Y-69977000D02*
X87884000Y-69977000D01*
X134493000Y-69977000D02*
X136652000Y-67818000D01*
X98425000Y-69977000D02*
X134493000Y-69977000D01*
X136652000Y-67818000D02*
X136652000Y-66929000D01*
X87884000Y-69977000D02*
X85725000Y-67818000D01*
%TO.N,Net-(DS1-COMMON_CATHODE_DIG_1)*%
X70231000Y-71501000D02*
X68332000Y-71501000D01*
X70993000Y-66167000D02*
X70993000Y-70739000D01*
X70993000Y-70739000D02*
X70231000Y-71501000D01*
%TO.N,Net-(DS2-COMMON_CATHODE_DIG_4)*%
X94996000Y-83820000D02*
X95885000Y-82931000D01*
X69596000Y-83312000D02*
X70104000Y-83820000D01*
X73787000Y-77851000D02*
X69596000Y-82042000D01*
X69596000Y-82042000D02*
X69596000Y-83312000D01*
X75432000Y-77851000D02*
X73787000Y-77851000D01*
X70104000Y-83820000D02*
X94996000Y-83820000D01*
X95885000Y-82931000D02*
X95885000Y-82169000D01*
%TO.N,Net-(DS2-COMMON_CATHODE_DIG_3)*%
X72009000Y-75565000D02*
X73025000Y-76581000D01*
X92583000Y-65405000D02*
X74422000Y-65405000D01*
X93345000Y-66929000D02*
X93345000Y-66167000D01*
X74422000Y-65405000D02*
X72009000Y-67818000D01*
X93345000Y-66167000D02*
X92583000Y-65405000D01*
X72009000Y-67818000D02*
X72009000Y-75565000D01*
X73025000Y-76581000D02*
X75432000Y-76581000D01*
%TO.N,Net-(DS2-COMMON_CATHODE_DIG_2)*%
X76073000Y-75311000D02*
X75432000Y-75311000D01*
X79502000Y-71882000D02*
X76073000Y-75311000D01*
X81534000Y-71882000D02*
X79502000Y-71882000D01*
%TO.N,Net-(DS2-COMMON_CATHODE_DIG_1)*%
X73152000Y-73533000D02*
X73660000Y-74041000D01*
X83185000Y-66929000D02*
X75057000Y-66929000D01*
X75057000Y-66929000D02*
X73152000Y-68834000D01*
X73152000Y-68834000D02*
X73152000Y-73533000D01*
X73660000Y-74041000D02*
X75432000Y-74041000D01*
%TO.N,Net-(J1-Pin_1)*%
X52119213Y-66498787D02*
X51893786Y-66724214D01*
X55051573Y-65913000D02*
X53533427Y-65913000D01*
X56577000Y-66610000D02*
X56465786Y-66498786D01*
X66487427Y-77851000D02*
X68332000Y-77851000D01*
X60783787Y-82726213D02*
X65073214Y-78436786D01*
X53406427Y-83312000D02*
X59369573Y-83312000D01*
X51893787Y-82627787D02*
X51992214Y-82726214D01*
X51308000Y-68138427D02*
X51308000Y-81213573D01*
X56577000Y-68326000D02*
X56577000Y-66610000D01*
X59369573Y-83311980D02*
G75*
G03*
X60783786Y-82726212I27J1999980D01*
G01*
X51992200Y-82726228D02*
G75*
G03*
X53406427Y-83312000I1414200J1414228D01*
G01*
X66487427Y-77851020D02*
G75*
G03*
X65073215Y-78436787I-27J-1999980D01*
G01*
X51308020Y-81213573D02*
G75*
G03*
X51893788Y-82627786I1999980J-27D01*
G01*
X53533427Y-65913020D02*
G75*
G03*
X52119214Y-66498788I-27J-1999980D01*
G01*
X56465800Y-66498772D02*
G75*
G03*
X55051573Y-65913000I-1414200J-1414228D01*
G01*
X51893772Y-66724200D02*
G75*
G03*
X51308000Y-68138427I1414228J-1414200D01*
G01*
%TO.N,Net-(J1-Pin_2)*%
X68332000Y-76581000D02*
X66421000Y-76581000D01*
X66421000Y-76581000D02*
X64262000Y-74422000D01*
%TO.N,Net-(J1-Pin_3)*%
X63500000Y-71374000D02*
X67437000Y-75311000D01*
X62611000Y-71374000D02*
X63500000Y-71374000D01*
X67437000Y-75311000D02*
X68332000Y-75311000D01*
%TO.N,Net-(U1-QH')*%
X63627000Y-68072000D02*
X65786000Y-70231000D01*
X65786000Y-71374000D02*
X67183000Y-72771000D01*
X65786000Y-70231000D02*
X65786000Y-71374000D01*
X67183000Y-72771000D02*
X68332000Y-72771000D01*
%TD*%
%TA.AperFunction,Conductor*%
%TO.N,GND*%
G36*
X149295039Y-64535685D02*
G01*
X149340794Y-64588489D01*
X149352000Y-64640000D01*
X149352000Y-84458000D01*
X149332315Y-84525039D01*
X149279511Y-84570794D01*
X149228000Y-84582000D01*
X95392993Y-84582000D01*
X95325954Y-84562315D01*
X95280199Y-84509511D01*
X95270255Y-84440353D01*
X95299280Y-84376797D01*
X95320104Y-84357685D01*
X95335060Y-84346818D01*
X95344830Y-84340400D01*
X95382418Y-84318171D01*
X95382417Y-84318171D01*
X95382420Y-84318170D01*
X95396585Y-84304004D01*
X95411373Y-84291373D01*
X95427587Y-84279594D01*
X95455438Y-84245926D01*
X95463279Y-84237309D01*
X96268788Y-83431801D01*
X96284885Y-83418906D01*
X96286873Y-83416787D01*
X96286877Y-83416786D01*
X96332949Y-83367723D01*
X96335534Y-83365055D01*
X96355120Y-83345471D01*
X96357585Y-83342292D01*
X96365167Y-83333416D01*
X96377886Y-83319872D01*
X96395062Y-83301582D01*
X96404712Y-83284027D01*
X96415400Y-83267757D01*
X96427671Y-83251938D01*
X96427673Y-83251936D01*
X96445026Y-83211832D01*
X96450157Y-83201362D01*
X96471197Y-83163092D01*
X96476175Y-83143699D01*
X96482481Y-83125282D01*
X96487015Y-83114805D01*
X96490438Y-83106896D01*
X96496862Y-83066332D01*
X96526789Y-83003199D01*
X96540661Y-82989884D01*
X96631410Y-82915410D01*
X96762685Y-82755450D01*
X96860232Y-82572954D01*
X96920300Y-82374934D01*
X96940583Y-82169000D01*
X96920300Y-81963066D01*
X96860232Y-81765046D01*
X96762685Y-81582550D01*
X96686454Y-81489662D01*
X96631410Y-81422589D01*
X96520724Y-81331753D01*
X96471450Y-81291315D01*
X96288954Y-81193768D01*
X96188134Y-81163185D01*
X96090932Y-81133699D01*
X95885000Y-81113417D01*
X95679067Y-81133699D01*
X95481043Y-81193769D01*
X95298551Y-81291314D01*
X95138589Y-81422589D01*
X95007314Y-81582551D01*
X94909769Y-81765043D01*
X94849699Y-81963067D01*
X94829417Y-82169000D01*
X94849699Y-82374932D01*
X94909769Y-82572956D01*
X94915935Y-82584492D01*
X95007315Y-82755450D01*
X95012034Y-82761200D01*
X95039347Y-82825510D01*
X95027556Y-82894377D01*
X95003862Y-82927546D01*
X94773228Y-83158181D01*
X94711905Y-83191666D01*
X94685547Y-83194500D01*
X94097895Y-83194500D01*
X94030856Y-83174815D01*
X93985101Y-83122011D01*
X93975157Y-83052853D01*
X94004182Y-82989297D01*
X94019231Y-82974646D01*
X94091410Y-82915410D01*
X94146668Y-82848077D01*
X94222685Y-82755450D01*
X94320232Y-82572954D01*
X94380300Y-82374934D01*
X94400583Y-82169000D01*
X94380300Y-81963066D01*
X94320232Y-81765046D01*
X94222685Y-81582550D01*
X94091410Y-81422590D01*
X94091409Y-81422589D01*
X94015835Y-81360567D01*
X93976501Y-81302821D01*
X93970500Y-81264714D01*
X93970500Y-79711743D01*
X93972764Y-79691239D01*
X93970703Y-79625648D01*
X93970561Y-79621112D01*
X93970500Y-79617218D01*
X93970500Y-79593541D01*
X93970500Y-79589650D01*
X93969998Y-79585683D01*
X93969081Y-79574027D01*
X93967710Y-79530373D01*
X93962118Y-79511126D01*
X93958174Y-79492085D01*
X93955664Y-79472208D01*
X93939579Y-79431583D01*
X93935808Y-79420568D01*
X93923618Y-79378610D01*
X93913414Y-79361355D01*
X93904861Y-79343895D01*
X93897486Y-79325269D01*
X93897486Y-79325268D01*
X93871808Y-79289925D01*
X93865401Y-79280171D01*
X93843169Y-79242579D01*
X93829006Y-79228416D01*
X93816367Y-79213617D01*
X93804595Y-79197413D01*
X93770941Y-79169573D01*
X93762299Y-79161709D01*
X93210802Y-78610211D01*
X93197906Y-78594113D01*
X93146775Y-78546098D01*
X93143978Y-78543387D01*
X93127227Y-78526636D01*
X93124471Y-78523880D01*
X93121290Y-78521412D01*
X93112422Y-78513837D01*
X93080582Y-78483938D01*
X93063024Y-78474285D01*
X93046764Y-78463604D01*
X93030936Y-78451327D01*
X92990851Y-78433980D01*
X92980361Y-78428841D01*
X92942091Y-78407802D01*
X92922691Y-78402821D01*
X92904284Y-78396519D01*
X92885897Y-78388562D01*
X92842758Y-78381729D01*
X92831324Y-78379361D01*
X92789019Y-78368500D01*
X92768984Y-78368500D01*
X92749586Y-78366973D01*
X92742162Y-78365797D01*
X92729805Y-78363840D01*
X92729804Y-78363840D01*
X92696751Y-78366964D01*
X92686325Y-78367950D01*
X92674656Y-78368500D01*
X82352452Y-78368500D01*
X82285413Y-78348815D01*
X82264771Y-78332181D01*
X81964960Y-78032369D01*
X81931475Y-77971046D01*
X81929323Y-77957668D01*
X81911674Y-77789744D01*
X81881332Y-77696363D01*
X81853179Y-77609715D01*
X81758533Y-77445783D01*
X81631871Y-77305112D01*
X81630090Y-77303818D01*
X81626415Y-77299052D01*
X81623150Y-77295426D01*
X81623426Y-77295176D01*
X81587425Y-77248488D01*
X81581446Y-77178874D01*
X81614052Y-77117079D01*
X81674891Y-77082722D01*
X81702976Y-77079500D01*
X81708981Y-77079500D01*
X81729016Y-77079500D01*
X81748415Y-77081027D01*
X81768196Y-77084160D01*
X81811674Y-77080050D01*
X81823344Y-77079500D01*
X82721256Y-77079500D01*
X82741762Y-77081764D01*
X82744665Y-77081672D01*
X82744667Y-77081673D01*
X82811872Y-77079561D01*
X82815768Y-77079500D01*
X82839448Y-77079500D01*
X82843350Y-77079500D01*
X82847313Y-77078999D01*
X82858962Y-77078080D01*
X82902627Y-77076709D01*
X82921859Y-77071120D01*
X82940918Y-77067174D01*
X82947196Y-77066381D01*
X82960792Y-77064664D01*
X83001407Y-77048582D01*
X83012444Y-77044803D01*
X83054390Y-77032618D01*
X83071629Y-77022422D01*
X83089102Y-77013862D01*
X83090885Y-77013156D01*
X83107732Y-77006486D01*
X83143064Y-76980814D01*
X83152830Y-76974400D01*
X83154622Y-76973340D01*
X83190420Y-76952170D01*
X83204585Y-76938004D01*
X83219373Y-76925373D01*
X83235587Y-76913594D01*
X83263438Y-76879926D01*
X83271279Y-76871309D01*
X84042771Y-76099819D01*
X84104095Y-76066334D01*
X84130453Y-76063500D01*
X93161548Y-76063500D01*
X93228587Y-76083185D01*
X93249229Y-76099819D01*
X93803038Y-76653629D01*
X93836523Y-76714952D01*
X93838678Y-76728348D01*
X93856326Y-76896257D01*
X93914820Y-77076284D01*
X94009466Y-77240216D01*
X94136129Y-77380889D01*
X94289269Y-77492151D01*
X94462197Y-77569144D01*
X94647352Y-77608500D01*
X94647354Y-77608500D01*
X94836648Y-77608500D01*
X94960084Y-77582262D01*
X95021803Y-77569144D01*
X95194730Y-77492151D01*
X95230187Y-77466390D01*
X95347870Y-77380889D01*
X95421839Y-77298739D01*
X95474533Y-77240216D01*
X95569179Y-77076284D01*
X95627674Y-76896256D01*
X95647460Y-76708000D01*
X95627674Y-76519744D01*
X95585741Y-76390687D01*
X95569179Y-76339715D01*
X95474533Y-76175783D01*
X95347870Y-76035110D01*
X95194730Y-75923848D01*
X95021802Y-75846855D01*
X94890752Y-75819000D01*
X131809540Y-75819000D01*
X131829326Y-76007257D01*
X131887820Y-76187284D01*
X131982466Y-76351216D01*
X132109129Y-76491889D01*
X132262269Y-76603151D01*
X132435197Y-76680144D01*
X132620352Y-76719500D01*
X132620354Y-76719500D01*
X132679548Y-76719500D01*
X132746587Y-76739185D01*
X132767229Y-76755819D01*
X133450181Y-77438771D01*
X133483666Y-77500094D01*
X133486500Y-77526452D01*
X133486500Y-81026885D01*
X133466815Y-81093924D01*
X133414011Y-81139679D01*
X133405833Y-81143067D01*
X133319669Y-81175204D01*
X133204454Y-81261454D01*
X133118204Y-81376668D01*
X133067910Y-81511515D01*
X133067909Y-81511517D01*
X133061500Y-81571127D01*
X133061500Y-81574448D01*
X133061500Y-81574449D01*
X133061500Y-82763560D01*
X133061500Y-82763578D01*
X133061501Y-82766872D01*
X133067909Y-82826483D01*
X133118204Y-82961331D01*
X133204454Y-83076546D01*
X133319669Y-83162796D01*
X133454517Y-83213091D01*
X133514127Y-83219500D01*
X134709872Y-83219499D01*
X134769483Y-83213091D01*
X134904331Y-83162796D01*
X135019546Y-83076546D01*
X135105796Y-82961331D01*
X135156091Y-82826483D01*
X135162500Y-82766873D01*
X135162499Y-82169000D01*
X135596417Y-82169000D01*
X135616699Y-82374932D01*
X135676769Y-82572956D01*
X135682935Y-82584492D01*
X135774315Y-82755450D01*
X135825609Y-82817952D01*
X135905589Y-82915410D01*
X135970014Y-82968281D01*
X136065550Y-83046685D01*
X136248046Y-83144232D01*
X136446066Y-83204300D01*
X136652000Y-83224583D01*
X136857934Y-83204300D01*
X137055954Y-83144232D01*
X137238450Y-83046685D01*
X137398410Y-82915410D01*
X137529685Y-82755450D01*
X137627232Y-82572954D01*
X137687300Y-82374934D01*
X137707583Y-82169000D01*
X138136417Y-82169000D01*
X138156699Y-82374932D01*
X138216769Y-82572956D01*
X138222935Y-82584492D01*
X138314315Y-82755450D01*
X138365608Y-82817952D01*
X138445589Y-82915410D01*
X138510014Y-82968281D01*
X138605550Y-83046685D01*
X138788046Y-83144232D01*
X138986066Y-83204300D01*
X139192000Y-83224583D01*
X139397934Y-83204300D01*
X139595954Y-83144232D01*
X139778450Y-83046685D01*
X139938410Y-82915410D01*
X140069685Y-82755450D01*
X140167232Y-82572954D01*
X140227300Y-82374934D01*
X140247583Y-82169000D01*
X140247583Y-82168999D01*
X140676417Y-82168999D01*
X140696699Y-82374932D01*
X140756769Y-82572956D01*
X140762935Y-82584492D01*
X140854315Y-82755450D01*
X140905609Y-82817952D01*
X140985589Y-82915410D01*
X141050014Y-82968281D01*
X141145550Y-83046685D01*
X141328046Y-83144232D01*
X141526066Y-83204300D01*
X141732000Y-83224583D01*
X141937934Y-83204300D01*
X142135954Y-83144232D01*
X142318450Y-83046685D01*
X142478410Y-82915410D01*
X142609685Y-82755450D01*
X142707232Y-82572954D01*
X142767300Y-82374934D01*
X142787583Y-82169000D01*
X142787583Y-82168999D01*
X143216417Y-82168999D01*
X143236699Y-82374932D01*
X143296769Y-82572956D01*
X143302935Y-82584492D01*
X143394315Y-82755450D01*
X143445609Y-82817952D01*
X143525589Y-82915410D01*
X143590014Y-82968281D01*
X143685550Y-83046685D01*
X143868046Y-83144232D01*
X144066066Y-83204300D01*
X144272000Y-83224583D01*
X144477934Y-83204300D01*
X144675954Y-83144232D01*
X144858450Y-83046685D01*
X145018410Y-82915410D01*
X145149685Y-82755450D01*
X145247232Y-82572954D01*
X145307300Y-82374934D01*
X145327583Y-82169000D01*
X145327583Y-82168999D01*
X145756417Y-82168999D01*
X145776699Y-82374932D01*
X145836769Y-82572956D01*
X145842935Y-82584492D01*
X145934315Y-82755450D01*
X145985609Y-82817952D01*
X146065589Y-82915410D01*
X146130014Y-82968281D01*
X146225550Y-83046685D01*
X146408046Y-83144232D01*
X146606066Y-83204300D01*
X146812000Y-83224583D01*
X147017934Y-83204300D01*
X147215954Y-83144232D01*
X147398450Y-83046685D01*
X147558410Y-82915410D01*
X147689685Y-82755450D01*
X147787232Y-82572954D01*
X147847300Y-82374934D01*
X147867583Y-82169000D01*
X147847300Y-81963066D01*
X147787232Y-81765046D01*
X147689685Y-81582550D01*
X147613454Y-81489662D01*
X147558410Y-81422589D01*
X147447724Y-81331753D01*
X147398450Y-81291315D01*
X147215954Y-81193768D01*
X147115134Y-81163185D01*
X147017932Y-81133699D01*
X146812000Y-81113417D01*
X146606067Y-81133699D01*
X146408043Y-81193769D01*
X146225551Y-81291314D01*
X146065589Y-81422589D01*
X145934314Y-81582551D01*
X145836769Y-81765043D01*
X145776699Y-81963067D01*
X145756417Y-82168999D01*
X145327583Y-82168999D01*
X145307300Y-81963066D01*
X145247232Y-81765046D01*
X145149685Y-81582550D01*
X145073454Y-81489662D01*
X145018410Y-81422589D01*
X144907724Y-81331753D01*
X144858450Y-81291315D01*
X144675954Y-81193768D01*
X144575134Y-81163185D01*
X144477932Y-81133699D01*
X144272000Y-81113417D01*
X144066067Y-81133699D01*
X143868043Y-81193769D01*
X143685551Y-81291314D01*
X143525589Y-81422589D01*
X143394314Y-81582551D01*
X143296769Y-81765043D01*
X143236699Y-81963067D01*
X143216417Y-82168999D01*
X142787583Y-82168999D01*
X142767300Y-81963066D01*
X142707232Y-81765046D01*
X142609685Y-81582550D01*
X142478410Y-81422590D01*
X142478409Y-81422589D01*
X142402835Y-81360567D01*
X142363501Y-81302821D01*
X142357500Y-81264714D01*
X142357500Y-79692687D01*
X142377185Y-79625648D01*
X142389350Y-79609714D01*
X142464533Y-79526216D01*
X142465750Y-79524109D01*
X142559179Y-79362284D01*
X142598073Y-79242580D01*
X142617674Y-79182256D01*
X142637460Y-78994000D01*
X142617674Y-78805744D01*
X142581965Y-78695844D01*
X142559179Y-78625715D01*
X142464533Y-78461783D01*
X142337870Y-78321110D01*
X142184730Y-78209848D01*
X142011802Y-78132855D01*
X141826648Y-78093500D01*
X141826646Y-78093500D01*
X141637354Y-78093500D01*
X141637352Y-78093500D01*
X141452197Y-78132855D01*
X141279269Y-78209848D01*
X141126129Y-78321110D01*
X140999466Y-78461783D01*
X140904820Y-78625715D01*
X140846326Y-78805742D01*
X140826540Y-78994000D01*
X140846326Y-79182257D01*
X140904820Y-79362284D01*
X140999464Y-79526213D01*
X140999467Y-79526216D01*
X141060087Y-79593541D01*
X141074650Y-79609714D01*
X141104880Y-79672706D01*
X141106500Y-79692687D01*
X141106500Y-81264714D01*
X141086815Y-81331753D01*
X141061165Y-81360567D01*
X140985590Y-81422589D01*
X140854314Y-81582551D01*
X140756769Y-81765043D01*
X140696699Y-81963067D01*
X140676417Y-82168999D01*
X140247583Y-82168999D01*
X140227300Y-81963066D01*
X140167232Y-81765046D01*
X140069685Y-81582550D01*
X139938410Y-81422590D01*
X139938409Y-81422589D01*
X139862835Y-81360567D01*
X139823501Y-81302821D01*
X139817500Y-81264714D01*
X139817500Y-78295687D01*
X139837185Y-78228648D01*
X139849350Y-78212714D01*
X139864805Y-78195550D01*
X139924533Y-78129216D01*
X140019179Y-77965284D01*
X140077674Y-77785256D01*
X140097460Y-77597000D01*
X140077674Y-77408744D01*
X140038294Y-77287546D01*
X140019179Y-77228715D01*
X139924533Y-77064783D01*
X139797870Y-76924110D01*
X139644730Y-76812848D01*
X139471802Y-76735855D01*
X139286648Y-76696500D01*
X139286646Y-76696500D01*
X139097354Y-76696500D01*
X139097352Y-76696500D01*
X138912197Y-76735855D01*
X138739269Y-76812848D01*
X138586129Y-76924110D01*
X138459466Y-77064783D01*
X138364820Y-77228715D01*
X138306326Y-77408742D01*
X138286540Y-77597000D01*
X138306326Y-77785257D01*
X138364820Y-77965284D01*
X138459464Y-78129213D01*
X138482865Y-78155202D01*
X138504489Y-78179218D01*
X138534650Y-78212714D01*
X138564880Y-78275706D01*
X138566500Y-78295687D01*
X138566500Y-81264714D01*
X138546815Y-81331753D01*
X138521165Y-81360567D01*
X138445590Y-81422589D01*
X138314314Y-81582551D01*
X138216769Y-81765043D01*
X138156699Y-81963067D01*
X138136417Y-82169000D01*
X137707583Y-82169000D01*
X137687300Y-81963066D01*
X137627232Y-81765046D01*
X137529685Y-81582550D01*
X137398410Y-81422590D01*
X137398409Y-81422589D01*
X137322835Y-81360567D01*
X137283501Y-81302821D01*
X137277500Y-81264714D01*
X137277500Y-77533687D01*
X137297185Y-77466648D01*
X137309350Y-77450714D01*
X137313790Y-77445783D01*
X137384533Y-77367216D01*
X137395543Y-77348147D01*
X137479179Y-77203284D01*
X137499193Y-77141687D01*
X137537674Y-77023256D01*
X137557460Y-76835000D01*
X137537674Y-76646744D01*
X137479179Y-76466716D01*
X137479179Y-76466715D01*
X137384533Y-76302783D01*
X137257870Y-76162110D01*
X137104730Y-76050848D01*
X136931802Y-75973855D01*
X136746648Y-75934500D01*
X136746646Y-75934500D01*
X136557354Y-75934500D01*
X136557352Y-75934500D01*
X136372197Y-75973855D01*
X136199269Y-76050848D01*
X136046129Y-76162110D01*
X135919466Y-76302783D01*
X135824820Y-76466715D01*
X135766326Y-76646742D01*
X135759888Y-76708000D01*
X135746540Y-76835000D01*
X135752132Y-76888205D01*
X135766326Y-77023257D01*
X135824820Y-77203284D01*
X135919464Y-77367213D01*
X135925480Y-77373894D01*
X135988169Y-77443517D01*
X135994650Y-77450714D01*
X136024880Y-77513706D01*
X136026500Y-77533687D01*
X136026500Y-81264714D01*
X136006815Y-81331753D01*
X135981165Y-81360567D01*
X135905590Y-81422589D01*
X135774314Y-81582551D01*
X135676769Y-81765043D01*
X135616699Y-81963067D01*
X135596417Y-82169000D01*
X135162499Y-82169000D01*
X135162499Y-81571128D01*
X135156091Y-81511517D01*
X135105796Y-81376669D01*
X135019546Y-81261454D01*
X134904331Y-81175204D01*
X134818166Y-81143066D01*
X134762233Y-81101196D01*
X134737816Y-81035731D01*
X134737500Y-81026885D01*
X134737500Y-77298739D01*
X134739763Y-77278238D01*
X134739169Y-77259343D01*
X134737561Y-77208144D01*
X134737500Y-77204250D01*
X134737500Y-77180544D01*
X134737500Y-77176650D01*
X134736998Y-77172681D01*
X134736080Y-77161024D01*
X134734709Y-77117373D01*
X134729120Y-77098137D01*
X134725176Y-77079093D01*
X134722664Y-77059208D01*
X134706582Y-77018591D01*
X134702798Y-77007540D01*
X134702492Y-77006486D01*
X134690617Y-76965610D01*
X134682669Y-76952170D01*
X134680421Y-76948369D01*
X134671863Y-76930902D01*
X134664486Y-76912268D01*
X134638798Y-76876912D01*
X134632409Y-76867184D01*
X134610170Y-76829579D01*
X134596006Y-76815415D01*
X134583369Y-76800620D01*
X134571595Y-76784414D01*
X134571594Y-76784413D01*
X134537935Y-76756568D01*
X134529305Y-76748714D01*
X133653960Y-75873369D01*
X133620475Y-75812046D01*
X133618323Y-75798668D01*
X133600674Y-75630744D01*
X133555163Y-75490675D01*
X133542179Y-75450715D01*
X133447533Y-75286783D01*
X133320870Y-75146110D01*
X133167730Y-75034848D01*
X132994802Y-74957855D01*
X132809648Y-74918500D01*
X132809646Y-74918500D01*
X132620354Y-74918500D01*
X132620352Y-74918500D01*
X132435197Y-74957855D01*
X132262269Y-75034848D01*
X132109129Y-75146110D01*
X131982466Y-75286783D01*
X131887820Y-75450715D01*
X131829326Y-75630742D01*
X131809540Y-75819000D01*
X94890752Y-75819000D01*
X94836648Y-75807500D01*
X94836646Y-75807500D01*
X94777453Y-75807500D01*
X94710414Y-75787815D01*
X94689772Y-75771181D01*
X93972802Y-75054211D01*
X93959906Y-75038113D01*
X93908775Y-74990098D01*
X93905978Y-74987387D01*
X93889227Y-74970636D01*
X93886471Y-74967880D01*
X93883290Y-74965412D01*
X93874422Y-74957837D01*
X93842582Y-74927938D01*
X93825024Y-74918285D01*
X93808764Y-74907604D01*
X93792936Y-74895327D01*
X93752851Y-74877980D01*
X93742361Y-74872841D01*
X93704091Y-74851802D01*
X93684691Y-74846821D01*
X93666284Y-74840519D01*
X93647897Y-74832562D01*
X93604758Y-74825729D01*
X93593324Y-74823361D01*
X93551019Y-74812500D01*
X93530984Y-74812500D01*
X93511586Y-74810973D01*
X93497935Y-74808811D01*
X93491805Y-74807840D01*
X93491804Y-74807840D01*
X93458751Y-74810964D01*
X93448325Y-74811950D01*
X93436656Y-74812500D01*
X91217452Y-74812500D01*
X91150413Y-74792815D01*
X91104658Y-74740011D01*
X91094714Y-74670853D01*
X91123739Y-74607297D01*
X91129771Y-74600819D01*
X91882630Y-73847961D01*
X92805771Y-72924819D01*
X92867095Y-72891334D01*
X92893453Y-72888500D01*
X94786256Y-72888500D01*
X94806762Y-72890764D01*
X94809665Y-72890672D01*
X94809667Y-72890673D01*
X94876872Y-72888561D01*
X94880768Y-72888500D01*
X94904448Y-72888500D01*
X94908350Y-72888500D01*
X94912313Y-72887999D01*
X94923962Y-72887080D01*
X94967627Y-72885709D01*
X94986859Y-72880120D01*
X95005918Y-72876174D01*
X95012196Y-72875381D01*
X95025792Y-72873664D01*
X95066407Y-72857582D01*
X95077444Y-72853803D01*
X95119390Y-72841618D01*
X95136629Y-72831422D01*
X95154102Y-72822862D01*
X95172732Y-72815486D01*
X95208064Y-72789814D01*
X95217830Y-72783400D01*
X95255418Y-72761171D01*
X95255417Y-72761171D01*
X95255420Y-72761170D01*
X95269585Y-72747004D01*
X95284373Y-72734373D01*
X95300587Y-72722594D01*
X95328438Y-72688926D01*
X95336279Y-72680309D01*
X96268788Y-71747801D01*
X96284885Y-71734906D01*
X96286873Y-71732787D01*
X96286877Y-71732786D01*
X96332949Y-71683723D01*
X96335534Y-71681055D01*
X96355120Y-71661471D01*
X96357585Y-71658292D01*
X96365167Y-71649416D01*
X96395062Y-71617582D01*
X96404712Y-71600027D01*
X96415400Y-71583757D01*
X96416413Y-71582451D01*
X96427673Y-71567936D01*
X96445026Y-71527832D01*
X96450157Y-71517362D01*
X96471197Y-71479092D01*
X96476175Y-71459699D01*
X96482481Y-71441282D01*
X96484018Y-71437728D01*
X96490438Y-71422896D01*
X96497272Y-71379745D01*
X96499635Y-71368331D01*
X96510500Y-71326019D01*
X96510500Y-71305982D01*
X96512027Y-71286584D01*
X96515160Y-71266804D01*
X96511050Y-71223324D01*
X96510500Y-71211655D01*
X96510500Y-69533545D01*
X96510500Y-67833281D01*
X96530184Y-67766246D01*
X96555831Y-67737434D01*
X96631410Y-67675410D01*
X96693432Y-67599835D01*
X96751179Y-67560501D01*
X96789286Y-67554500D01*
X128695256Y-67554500D01*
X128715762Y-67556764D01*
X128718665Y-67556672D01*
X128718667Y-67556673D01*
X128785872Y-67554561D01*
X128789768Y-67554500D01*
X128813448Y-67554500D01*
X128817350Y-67554500D01*
X128821313Y-67553999D01*
X128832962Y-67553080D01*
X128876627Y-67551709D01*
X128895859Y-67546120D01*
X128914918Y-67542174D01*
X128921196Y-67541381D01*
X128934792Y-67539664D01*
X128975407Y-67523582D01*
X128986444Y-67519803D01*
X129028390Y-67507618D01*
X129045629Y-67497422D01*
X129063102Y-67488862D01*
X129081732Y-67481486D01*
X129117064Y-67455814D01*
X129126830Y-67449400D01*
X129162800Y-67428128D01*
X129164420Y-67427170D01*
X129178585Y-67413004D01*
X129193373Y-67400373D01*
X129209587Y-67388594D01*
X129237438Y-67354926D01*
X129245279Y-67346309D01*
X130524771Y-66066819D01*
X130586095Y-66033334D01*
X130612453Y-66030500D01*
X133228231Y-66030500D01*
X133295270Y-66050185D01*
X133341025Y-66102989D01*
X133350969Y-66172147D01*
X133324085Y-66233164D01*
X133234314Y-66342551D01*
X133136769Y-66525043D01*
X133076699Y-66723067D01*
X133056417Y-66929000D01*
X133076699Y-67134932D01*
X133086277Y-67166505D01*
X133136768Y-67332954D01*
X133234315Y-67515450D01*
X133268688Y-67557334D01*
X133365589Y-67675410D01*
X133426429Y-67725339D01*
X133525550Y-67806685D01*
X133708046Y-67904232D01*
X133906066Y-67964300D01*
X134112000Y-67984583D01*
X134317934Y-67964300D01*
X134515954Y-67904232D01*
X134698450Y-67806685D01*
X134858410Y-67675410D01*
X134989685Y-67515450D01*
X135087232Y-67332954D01*
X135147300Y-67134934D01*
X135167583Y-66929000D01*
X135147300Y-66723066D01*
X135087232Y-66525046D01*
X134989685Y-66342550D01*
X134910138Y-66245621D01*
X134899915Y-66233164D01*
X134872603Y-66168854D01*
X134884394Y-66099987D01*
X134931547Y-66048427D01*
X134995769Y-66030500D01*
X135768231Y-66030500D01*
X135835270Y-66050185D01*
X135881025Y-66102989D01*
X135890969Y-66172147D01*
X135864085Y-66233164D01*
X135774314Y-66342551D01*
X135676769Y-66525043D01*
X135616699Y-66723067D01*
X135596417Y-66929000D01*
X135616699Y-67134932D01*
X135626277Y-67166505D01*
X135676768Y-67332954D01*
X135774315Y-67515450D01*
X135794285Y-67539784D01*
X135836280Y-67590956D01*
X135863592Y-67655266D01*
X135851800Y-67724134D01*
X135828107Y-67757301D01*
X134270228Y-69315181D01*
X134208905Y-69348666D01*
X134182547Y-69351500D01*
X99128747Y-69351500D01*
X99061708Y-69331815D01*
X99036599Y-69310473D01*
X99030871Y-69304112D01*
X98877730Y-69192849D01*
X98877729Y-69192848D01*
X98877727Y-69192847D01*
X98704802Y-69115855D01*
X98519648Y-69076500D01*
X98519646Y-69076500D01*
X98330354Y-69076500D01*
X98330352Y-69076500D01*
X98145197Y-69115855D01*
X97972269Y-69192848D01*
X97819129Y-69304110D01*
X97692466Y-69444783D01*
X97597820Y-69608715D01*
X97539326Y-69788742D01*
X97520538Y-69967500D01*
X97519540Y-69977000D01*
X97521390Y-69994598D01*
X97539326Y-70165257D01*
X97597820Y-70345284D01*
X97692466Y-70509216D01*
X97819129Y-70649889D01*
X97972269Y-70761151D01*
X98145197Y-70838144D01*
X98330352Y-70877500D01*
X98330354Y-70877500D01*
X98519648Y-70877500D01*
X98650977Y-70849585D01*
X98704803Y-70838144D01*
X98877730Y-70761151D01*
X99030871Y-70649888D01*
X99036598Y-70643527D01*
X99096084Y-70606879D01*
X99128747Y-70602500D01*
X134410256Y-70602500D01*
X134430762Y-70604764D01*
X134433665Y-70604672D01*
X134433667Y-70604673D01*
X134500872Y-70602561D01*
X134504768Y-70602500D01*
X134528448Y-70602500D01*
X134532350Y-70602500D01*
X134536313Y-70601999D01*
X134547962Y-70601080D01*
X134591627Y-70599709D01*
X134610859Y-70594120D01*
X134629918Y-70590174D01*
X134636196Y-70589381D01*
X134649792Y-70587664D01*
X134690407Y-70571582D01*
X134701444Y-70567803D01*
X134743390Y-70555618D01*
X134760629Y-70545422D01*
X134778102Y-70536862D01*
X134796732Y-70529486D01*
X134832064Y-70503814D01*
X134841830Y-70497400D01*
X134854191Y-70490090D01*
X134879420Y-70475170D01*
X134893585Y-70461004D01*
X134908373Y-70448373D01*
X134924587Y-70436594D01*
X134952438Y-70402926D01*
X134960279Y-70394309D01*
X137035789Y-68318800D01*
X137051885Y-68305906D01*
X137053873Y-68303787D01*
X137053877Y-68303786D01*
X137099949Y-68254723D01*
X137102534Y-68252055D01*
X137122120Y-68232471D01*
X137124585Y-68229292D01*
X137132167Y-68220416D01*
X137137843Y-68214372D01*
X137162062Y-68188582D01*
X137171717Y-68171018D01*
X137182394Y-68154764D01*
X137194673Y-68138936D01*
X137212018Y-68098852D01*
X137217160Y-68088356D01*
X137220757Y-68081814D01*
X137238197Y-68050092D01*
X137243179Y-68030684D01*
X137249481Y-68012280D01*
X137257437Y-67993896D01*
X137264269Y-67950752D01*
X137266633Y-67939338D01*
X137277500Y-67897019D01*
X137277500Y-67876983D01*
X137279027Y-67857584D01*
X137284611Y-67822331D01*
X137286121Y-67822570D01*
X137295779Y-67772716D01*
X137327275Y-67733787D01*
X137398410Y-67675410D01*
X137529685Y-67515450D01*
X137627232Y-67332954D01*
X137687300Y-67134934D01*
X137707583Y-66929000D01*
X137687300Y-66723066D01*
X137627232Y-66525046D01*
X137529685Y-66342550D01*
X137450138Y-66245621D01*
X137439915Y-66233164D01*
X137412603Y-66168854D01*
X137424394Y-66099987D01*
X137471547Y-66048427D01*
X137535769Y-66030500D01*
X138308231Y-66030500D01*
X138375270Y-66050185D01*
X138421025Y-66102989D01*
X138430969Y-66172147D01*
X138404085Y-66233164D01*
X138314314Y-66342551D01*
X138216769Y-66525043D01*
X138156699Y-66723067D01*
X138136417Y-66929000D01*
X138156699Y-67134932D01*
X138166277Y-67166505D01*
X138216768Y-67332954D01*
X138314315Y-67515450D01*
X138348688Y-67557334D01*
X138445589Y-67675410D01*
X138506429Y-67725339D01*
X138605550Y-67806685D01*
X138788046Y-67904232D01*
X138986066Y-67964300D01*
X139192000Y-67984583D01*
X139397934Y-67964300D01*
X139595954Y-67904232D01*
X139778450Y-67806685D01*
X139938410Y-67675410D01*
X140069685Y-67515450D01*
X140167232Y-67332954D01*
X140227300Y-67134934D01*
X140247583Y-66929000D01*
X140227300Y-66723066D01*
X140167232Y-66525046D01*
X140069685Y-66342550D01*
X139990138Y-66245621D01*
X139979915Y-66233164D01*
X139952603Y-66168854D01*
X139964394Y-66099987D01*
X140011547Y-66048427D01*
X140075769Y-66030500D01*
X140848231Y-66030500D01*
X140915270Y-66050185D01*
X140961025Y-66102989D01*
X140970969Y-66172147D01*
X140944085Y-66233164D01*
X140854314Y-66342551D01*
X140756769Y-66525043D01*
X140696699Y-66723067D01*
X140676417Y-66929000D01*
X140696699Y-67134932D01*
X140706277Y-67166505D01*
X140756768Y-67332954D01*
X140854315Y-67515450D01*
X140888688Y-67557334D01*
X140985589Y-67675410D01*
X141046429Y-67725339D01*
X141145550Y-67806685D01*
X141328046Y-67904232D01*
X141526066Y-67964300D01*
X141732000Y-67984583D01*
X141937934Y-67964300D01*
X142135954Y-67904232D01*
X142318450Y-67806685D01*
X142478410Y-67675410D01*
X142609685Y-67515450D01*
X142707232Y-67332954D01*
X142767300Y-67134934D01*
X142787583Y-66929000D01*
X142767300Y-66723066D01*
X142707232Y-66525046D01*
X142609685Y-66342550D01*
X142530138Y-66245621D01*
X142519915Y-66233164D01*
X142492603Y-66168854D01*
X142504394Y-66099987D01*
X142551547Y-66048427D01*
X142615769Y-66030500D01*
X143388231Y-66030500D01*
X143455270Y-66050185D01*
X143501025Y-66102989D01*
X143510969Y-66172147D01*
X143484085Y-66233164D01*
X143394314Y-66342551D01*
X143296769Y-66525043D01*
X143236699Y-66723067D01*
X143216417Y-66929000D01*
X143236699Y-67134932D01*
X143246277Y-67166505D01*
X143296768Y-67332954D01*
X143394315Y-67515450D01*
X143428688Y-67557334D01*
X143525589Y-67675410D01*
X143586429Y-67725339D01*
X143685550Y-67806685D01*
X143868046Y-67904232D01*
X144066066Y-67964300D01*
X144272000Y-67984583D01*
X144477934Y-67964300D01*
X144675954Y-67904232D01*
X144858450Y-67806685D01*
X145018410Y-67675410D01*
X145149685Y-67515450D01*
X145247232Y-67332954D01*
X145307300Y-67134934D01*
X145327583Y-66929000D01*
X145307300Y-66723066D01*
X145247232Y-66525046D01*
X145149685Y-66342550D01*
X145070138Y-66245621D01*
X145059915Y-66233164D01*
X145032603Y-66168854D01*
X145044394Y-66099987D01*
X145091547Y-66048427D01*
X145155769Y-66030500D01*
X145739548Y-66030500D01*
X145806587Y-66050185D01*
X145827229Y-66066819D01*
X145930862Y-66170452D01*
X145964347Y-66231775D01*
X145959363Y-66301467D01*
X145939039Y-66336792D01*
X145934315Y-66342547D01*
X145836769Y-66525043D01*
X145776699Y-66723067D01*
X145756417Y-66929000D01*
X145776699Y-67134932D01*
X145786277Y-67166505D01*
X145836768Y-67332954D01*
X145934315Y-67515450D01*
X145968688Y-67557334D01*
X146065589Y-67675410D01*
X146126429Y-67725339D01*
X146225550Y-67806685D01*
X146408046Y-67904232D01*
X146606066Y-67964300D01*
X146812000Y-67984583D01*
X147017934Y-67964300D01*
X147215954Y-67904232D01*
X147398450Y-67806685D01*
X147558410Y-67675410D01*
X147689685Y-67515450D01*
X147787232Y-67332954D01*
X147847300Y-67134934D01*
X147867583Y-66929000D01*
X147847300Y-66723066D01*
X147787232Y-66525046D01*
X147689685Y-66342550D01*
X147558410Y-66182590D01*
X147539413Y-66167000D01*
X147470194Y-66110193D01*
X147469425Y-66109562D01*
X147430092Y-66051818D01*
X147425070Y-66029258D01*
X147422664Y-66010208D01*
X147406579Y-65969583D01*
X147402808Y-65958568D01*
X147390618Y-65916610D01*
X147380414Y-65899355D01*
X147371861Y-65881895D01*
X147364486Y-65863269D01*
X147364486Y-65863268D01*
X147338808Y-65827925D01*
X147332401Y-65818171D01*
X147310170Y-65780580D01*
X147296006Y-65766416D01*
X147283367Y-65751617D01*
X147271595Y-65735413D01*
X147237941Y-65707573D01*
X147229299Y-65699709D01*
X146550802Y-65021211D01*
X146537906Y-65005113D01*
X146486775Y-64957098D01*
X146483978Y-64954387D01*
X146467227Y-64937636D01*
X146464471Y-64934880D01*
X146461290Y-64932412D01*
X146452422Y-64924837D01*
X146420582Y-64894938D01*
X146403024Y-64885285D01*
X146386764Y-64874604D01*
X146370936Y-64862327D01*
X146330851Y-64844980D01*
X146320361Y-64839841D01*
X146282091Y-64818802D01*
X146262691Y-64813821D01*
X146244284Y-64807519D01*
X146225897Y-64799562D01*
X146182758Y-64792729D01*
X146171324Y-64790361D01*
X146129019Y-64779500D01*
X146108984Y-64779500D01*
X146089586Y-64777973D01*
X146082162Y-64776797D01*
X146069805Y-64774840D01*
X146069804Y-64774840D01*
X146043484Y-64777328D01*
X146026325Y-64778950D01*
X146014656Y-64779500D01*
X130384740Y-64779500D01*
X130364236Y-64777236D01*
X130294144Y-64779439D01*
X130290250Y-64779500D01*
X130262650Y-64779500D01*
X130258789Y-64779987D01*
X130258778Y-64779988D01*
X130258645Y-64780005D01*
X130247029Y-64780918D01*
X130203368Y-64782290D01*
X130184129Y-64787880D01*
X130165080Y-64791825D01*
X130145208Y-64794335D01*
X130104593Y-64810415D01*
X130093549Y-64814196D01*
X130051611Y-64826382D01*
X130034364Y-64836581D01*
X130016900Y-64845136D01*
X129998267Y-64852514D01*
X129962926Y-64878189D01*
X129953168Y-64884599D01*
X129915579Y-64906829D01*
X129901410Y-64920998D01*
X129886622Y-64933628D01*
X129870413Y-64945405D01*
X129842572Y-64979058D01*
X129834711Y-64987696D01*
X128555228Y-66267181D01*
X128493905Y-66300666D01*
X128467547Y-66303500D01*
X96789286Y-66303500D01*
X96722247Y-66283815D01*
X96693433Y-66258165D01*
X96631410Y-66182590D01*
X96616620Y-66170452D01*
X96471450Y-66051315D01*
X96288954Y-65953768D01*
X96189943Y-65923733D01*
X96090932Y-65893699D01*
X95885000Y-65873417D01*
X95679067Y-65893699D01*
X95514895Y-65943500D01*
X95493300Y-65950051D01*
X95481043Y-65953769D01*
X95298551Y-66051314D01*
X95138589Y-66182589D01*
X95007314Y-66342551D01*
X94909769Y-66525043D01*
X94849699Y-66723067D01*
X94829417Y-66929000D01*
X94849699Y-67134932D01*
X94859277Y-67166505D01*
X94909768Y-67332954D01*
X95007315Y-67515450D01*
X95138590Y-67675410D01*
X95208027Y-67732395D01*
X95214164Y-67737431D01*
X95253499Y-67795177D01*
X95259500Y-67833285D01*
X95259500Y-67911084D01*
X95239815Y-67978123D01*
X95187011Y-68023878D01*
X95117853Y-68033822D01*
X95062615Y-68011402D01*
X94940730Y-67922848D01*
X94767802Y-67845855D01*
X94582648Y-67806500D01*
X94582646Y-67806500D01*
X94393354Y-67806500D01*
X94393352Y-67806500D01*
X94243403Y-67838372D01*
X94173735Y-67833056D01*
X94118002Y-67790919D01*
X94093897Y-67725339D01*
X94109074Y-67657137D01*
X94121769Y-67638417D01*
X94136789Y-67620115D01*
X94222685Y-67515450D01*
X94320232Y-67332954D01*
X94380300Y-67134934D01*
X94400583Y-66929000D01*
X94380300Y-66723066D01*
X94320232Y-66525046D01*
X94222685Y-66342550D01*
X94091410Y-66182590D01*
X94072413Y-66167000D01*
X94003194Y-66110193D01*
X94002425Y-66109562D01*
X93963092Y-66051818D01*
X93958070Y-66029258D01*
X93955664Y-66010208D01*
X93939579Y-65969583D01*
X93935808Y-65958568D01*
X93923618Y-65916610D01*
X93913414Y-65899355D01*
X93904861Y-65881895D01*
X93897486Y-65863269D01*
X93897486Y-65863268D01*
X93871808Y-65827925D01*
X93865401Y-65818171D01*
X93843170Y-65780580D01*
X93829006Y-65766416D01*
X93816367Y-65751617D01*
X93804595Y-65735413D01*
X93770941Y-65707573D01*
X93762299Y-65699709D01*
X93083802Y-65021211D01*
X93070906Y-65005113D01*
X93019775Y-64957098D01*
X93016978Y-64954387D01*
X93000227Y-64937636D01*
X92997471Y-64934880D01*
X92994290Y-64932412D01*
X92985422Y-64924837D01*
X92953582Y-64894938D01*
X92936024Y-64885285D01*
X92919764Y-64874604D01*
X92903936Y-64862327D01*
X92863851Y-64844980D01*
X92853361Y-64839841D01*
X92815091Y-64818802D01*
X92795691Y-64813821D01*
X92777284Y-64807519D01*
X92758897Y-64799562D01*
X92715758Y-64792729D01*
X92704324Y-64790361D01*
X92662019Y-64779500D01*
X92641984Y-64779500D01*
X92622586Y-64777973D01*
X92615162Y-64776797D01*
X92602805Y-64774840D01*
X92602804Y-64774840D01*
X92576484Y-64777328D01*
X92559325Y-64778950D01*
X92547656Y-64779500D01*
X74504740Y-64779500D01*
X74484236Y-64777236D01*
X74414144Y-64779439D01*
X74410250Y-64779500D01*
X74382650Y-64779500D01*
X74378799Y-64779986D01*
X74378768Y-64779988D01*
X74378640Y-64780005D01*
X74367028Y-64780918D01*
X74323372Y-64782290D01*
X74304135Y-64787879D01*
X74285094Y-64791822D01*
X74265208Y-64794335D01*
X74224582Y-64810419D01*
X74213537Y-64814200D01*
X74171613Y-64826381D01*
X74154365Y-64836581D01*
X74136903Y-64845135D01*
X74124915Y-64849881D01*
X74118265Y-64852515D01*
X74082926Y-64878189D01*
X74073168Y-64884599D01*
X74035579Y-64906829D01*
X74021410Y-64920998D01*
X74006622Y-64933628D01*
X73990413Y-64945405D01*
X73962572Y-64979058D01*
X73954711Y-64987696D01*
X71830181Y-67112227D01*
X71768858Y-67145712D01*
X71699166Y-67140728D01*
X71643233Y-67098856D01*
X71618816Y-67033392D01*
X71618500Y-67024546D01*
X71618500Y-66865687D01*
X71638185Y-66798648D01*
X71650350Y-66782714D01*
X71687974Y-66740929D01*
X71725533Y-66699216D01*
X71729273Y-66692739D01*
X71820179Y-66535284D01*
X71823506Y-66525046D01*
X71878674Y-66355256D01*
X71898460Y-66167000D01*
X71878674Y-65978744D01*
X71833990Y-65841222D01*
X71820179Y-65798715D01*
X71725533Y-65634783D01*
X71598870Y-65494110D01*
X71445730Y-65382848D01*
X71272802Y-65305855D01*
X71087648Y-65266500D01*
X71087646Y-65266500D01*
X70898354Y-65266500D01*
X70898352Y-65266500D01*
X70713197Y-65305855D01*
X70540269Y-65382848D01*
X70387129Y-65494110D01*
X70260466Y-65634783D01*
X70165820Y-65798715D01*
X70107326Y-65978742D01*
X70087540Y-66167000D01*
X70107326Y-66355257D01*
X70165820Y-66535284D01*
X70260464Y-66699213D01*
X70335650Y-66782714D01*
X70365880Y-66845706D01*
X70367500Y-66865687D01*
X70367500Y-70428546D01*
X70347815Y-70495585D01*
X70331181Y-70516227D01*
X70008228Y-70839181D01*
X69946905Y-70872666D01*
X69920547Y-70875500D01*
X69666283Y-70875500D01*
X69599244Y-70855815D01*
X69553489Y-70803011D01*
X69543545Y-70733853D01*
X69550101Y-70708167D01*
X69576090Y-70638485D01*
X69576089Y-70638485D01*
X69576091Y-70638483D01*
X69582500Y-70578873D01*
X69582499Y-69883128D01*
X69576091Y-69823517D01*
X69525796Y-69688669D01*
X69439546Y-69573454D01*
X69324331Y-69487204D01*
X69189483Y-69436909D01*
X69129873Y-69430500D01*
X69126551Y-69430500D01*
X68819500Y-69430500D01*
X68752461Y-69410815D01*
X68706706Y-69358011D01*
X68695500Y-69306500D01*
X68695500Y-68800552D01*
X68715185Y-68733513D01*
X68731820Y-68712870D01*
X68765338Y-68679352D01*
X68765340Y-68679350D01*
X68855908Y-68532516D01*
X68910174Y-68368753D01*
X68920500Y-68267677D01*
X68920499Y-67569324D01*
X68910174Y-67468247D01*
X68855908Y-67304484D01*
X68765340Y-67157650D01*
X68751019Y-67143329D01*
X68717532Y-67082007D01*
X68722515Y-67012315D01*
X68751019Y-66967963D01*
X68764945Y-66954036D01*
X68855452Y-66807304D01*
X68909681Y-66643651D01*
X68919680Y-66545777D01*
X68920000Y-66539499D01*
X68920000Y-66443500D01*
X66970001Y-66443500D01*
X66970001Y-66539497D01*
X66970321Y-66545779D01*
X66978041Y-66621352D01*
X66965271Y-66690044D01*
X66917390Y-66740929D01*
X66849600Y-66757849D01*
X66783424Y-66735433D01*
X66767002Y-66721634D01*
X65988868Y-65943500D01*
X66970000Y-65943500D01*
X67695000Y-65943500D01*
X67695000Y-65156000D01*
X68195000Y-65156000D01*
X68195000Y-65943500D01*
X68919999Y-65943500D01*
X68919999Y-65847502D01*
X68919678Y-65841220D01*
X68909681Y-65743349D01*
X68855453Y-65579698D01*
X68764943Y-65432959D01*
X68643040Y-65311056D01*
X68496301Y-65220546D01*
X68332651Y-65166318D01*
X68234777Y-65156319D01*
X68228500Y-65156000D01*
X68195000Y-65156000D01*
X67695000Y-65156000D01*
X67661504Y-65156000D01*
X67655219Y-65156321D01*
X67557349Y-65166318D01*
X67393698Y-65220546D01*
X67246959Y-65311056D01*
X67125056Y-65432959D01*
X67034546Y-65579698D01*
X66980318Y-65743348D01*
X66970319Y-65841222D01*
X66970000Y-65847500D01*
X66970000Y-65943500D01*
X65988868Y-65943500D01*
X65218728Y-65173360D01*
X65206946Y-65159727D01*
X65204410Y-65156321D01*
X65192610Y-65140470D01*
X65154667Y-65108631D01*
X65146691Y-65101323D01*
X65145329Y-65099961D01*
X65142777Y-65097409D01*
X65118444Y-65078169D01*
X65115647Y-65075890D01*
X65057251Y-65026890D01*
X65040821Y-65016422D01*
X64971691Y-64984186D01*
X64968447Y-64982615D01*
X64900306Y-64948394D01*
X64881903Y-64941997D01*
X64807211Y-64926574D01*
X64803692Y-64925794D01*
X64729490Y-64908208D01*
X64710121Y-64906229D01*
X64633869Y-64908448D01*
X64630263Y-64908500D01*
X62547706Y-64908500D01*
X62529736Y-64907191D01*
X62515853Y-64905157D01*
X62505977Y-64903711D01*
X62505976Y-64903711D01*
X62456634Y-64908028D01*
X62445827Y-64908500D01*
X62440291Y-64908500D01*
X62436730Y-64908916D01*
X62436715Y-64908917D01*
X62409484Y-64912100D01*
X62405900Y-64912466D01*
X62329950Y-64919111D01*
X62310922Y-64923329D01*
X62239270Y-64949407D01*
X62235869Y-64950589D01*
X62163480Y-64974578D01*
X62145927Y-64983076D01*
X62082236Y-65024965D01*
X62079196Y-65026902D01*
X62014280Y-65066943D01*
X61999165Y-65079255D01*
X61946848Y-65134708D01*
X61944336Y-65137294D01*
X60601358Y-66480272D01*
X60587727Y-66492053D01*
X60568468Y-66506391D01*
X60536635Y-66544328D01*
X60529338Y-66552292D01*
X60527972Y-66553657D01*
X60527950Y-66553681D01*
X60525409Y-66556223D01*
X60523173Y-66559050D01*
X60523171Y-66559053D01*
X60506176Y-66580546D01*
X60503902Y-66583337D01*
X60454894Y-66641744D01*
X60444418Y-66658187D01*
X60412192Y-66727294D01*
X60410622Y-66730536D01*
X60376393Y-66798692D01*
X60369996Y-66817098D01*
X60354573Y-66891788D01*
X60353793Y-66895305D01*
X60336208Y-66969506D01*
X60334229Y-66988879D01*
X60336448Y-67065129D01*
X60336500Y-67068735D01*
X60336499Y-79774770D01*
X60316814Y-79841809D01*
X60300180Y-79862451D01*
X59923451Y-80239181D01*
X59862128Y-80272666D01*
X59835770Y-80275500D01*
X57829701Y-80275500D01*
X57762662Y-80255815D01*
X57728126Y-80222623D01*
X57680494Y-80154598D01*
X57513404Y-79987508D01*
X57513403Y-79987507D01*
X57513401Y-79987505D01*
X57327402Y-79857267D01*
X57283780Y-79802692D01*
X57276587Y-79733193D01*
X57308109Y-79670839D01*
X57327405Y-79654119D01*
X57513078Y-79524109D01*
X57680106Y-79357081D01*
X57815600Y-79163576D01*
X57915430Y-78949492D01*
X57972636Y-78736000D01*
X57075686Y-78736000D01*
X57101493Y-78695844D01*
X57142000Y-78557889D01*
X57142000Y-78414111D01*
X57101493Y-78276156D01*
X57075686Y-78236000D01*
X57972636Y-78236000D01*
X57972635Y-78235999D01*
X57915430Y-78022507D01*
X57815599Y-77808421D01*
X57680109Y-77614921D01*
X57513081Y-77447893D01*
X57327404Y-77317880D01*
X57283780Y-77263303D01*
X57276587Y-77193804D01*
X57308109Y-77131450D01*
X57327399Y-77114734D01*
X57513401Y-76984495D01*
X57680495Y-76817401D01*
X57816035Y-76623830D01*
X57915903Y-76409663D01*
X57977063Y-76181408D01*
X57997659Y-75946000D01*
X57991304Y-75873369D01*
X57977063Y-75710592D01*
X57964087Y-75662165D01*
X57915903Y-75482337D01*
X57816035Y-75268171D01*
X57680495Y-75074599D01*
X57513401Y-74907505D01*
X57327839Y-74777573D01*
X57284216Y-74722998D01*
X57277022Y-74653500D01*
X57308545Y-74591145D01*
X57327837Y-74574428D01*
X57513401Y-74444495D01*
X57680495Y-74277401D01*
X57816035Y-74083830D01*
X57915903Y-73869663D01*
X57977063Y-73641408D01*
X57997659Y-73406000D01*
X57977063Y-73170592D01*
X57915903Y-72942337D01*
X57816035Y-72728171D01*
X57680495Y-72534599D01*
X57513401Y-72367505D01*
X57327839Y-72237573D01*
X57284216Y-72182998D01*
X57277022Y-72113500D01*
X57308545Y-72051145D01*
X57327837Y-72034428D01*
X57513401Y-71904495D01*
X57680495Y-71737401D01*
X57816035Y-71543830D01*
X57915903Y-71329663D01*
X57977063Y-71101408D01*
X57997659Y-70866000D01*
X57994625Y-70831327D01*
X57977063Y-70630592D01*
X57969536Y-70602500D01*
X57915903Y-70402337D01*
X57816035Y-70188171D01*
X57680495Y-69994599D01*
X57558569Y-69872673D01*
X57525084Y-69811350D01*
X57530068Y-69741658D01*
X57571940Y-69685725D01*
X57602915Y-69668810D01*
X57734331Y-69619796D01*
X57849546Y-69533546D01*
X57935796Y-69418331D01*
X57986091Y-69283483D01*
X57992500Y-69223873D01*
X57992499Y-67428128D01*
X57986091Y-67368517D01*
X57935796Y-67233669D01*
X57849546Y-67118454D01*
X57734331Y-67032204D01*
X57599483Y-66981909D01*
X57539873Y-66975500D01*
X57536551Y-66975500D01*
X57326500Y-66975500D01*
X57259461Y-66955815D01*
X57213706Y-66903011D01*
X57202500Y-66851500D01*
X57202500Y-66692739D01*
X57204763Y-66672238D01*
X57204357Y-66659323D01*
X57202561Y-66602144D01*
X57202500Y-66598250D01*
X57202500Y-66574544D01*
X57202500Y-66570650D01*
X57201998Y-66566681D01*
X57201080Y-66555024D01*
X57199709Y-66511373D01*
X57194120Y-66492137D01*
X57190176Y-66473093D01*
X57187664Y-66453208D01*
X57171582Y-66412591D01*
X57167798Y-66401540D01*
X57155617Y-66359610D01*
X57150159Y-66350381D01*
X57145421Y-66342369D01*
X57136863Y-66324902D01*
X57129486Y-66306268D01*
X57103798Y-66270912D01*
X57097409Y-66261184D01*
X57075170Y-66223579D01*
X57061006Y-66209415D01*
X57048369Y-66194620D01*
X57036595Y-66178414D01*
X57036594Y-66178413D01*
X57002935Y-66150568D01*
X56994305Y-66142714D01*
X56976012Y-66124421D01*
X56976008Y-66124415D01*
X56944409Y-66092816D01*
X56944380Y-66092763D01*
X56861824Y-66010208D01*
X56803830Y-65952214D01*
X56573273Y-65768355D01*
X56323579Y-65611466D01*
X56320464Y-65609966D01*
X56320457Y-65609962D01*
X56061027Y-65485030D01*
X56061017Y-65485025D01*
X56057890Y-65483520D01*
X56054598Y-65482368D01*
X55782831Y-65387276D01*
X55782824Y-65387274D01*
X55779546Y-65386127D01*
X55776160Y-65385354D01*
X55776149Y-65385351D01*
X55495531Y-65321306D01*
X55492048Y-65320511D01*
X55488609Y-65320123D01*
X55488594Y-65320121D01*
X55202455Y-65287886D01*
X55202453Y-65287885D01*
X55199010Y-65287498D01*
X55195538Y-65287498D01*
X55051565Y-65287500D01*
X53494077Y-65287500D01*
X53493980Y-65287511D01*
X53493765Y-65287518D01*
X53389464Y-65287518D01*
X53389463Y-65287518D01*
X53385991Y-65287518D01*
X53382549Y-65287905D01*
X53382544Y-65287906D01*
X53096408Y-65320141D01*
X53096390Y-65320143D01*
X53092955Y-65320531D01*
X53089560Y-65321305D01*
X53089559Y-65321306D01*
X52808855Y-65385371D01*
X52808839Y-65385375D01*
X52805459Y-65386147D01*
X52802185Y-65387292D01*
X52802173Y-65387296D01*
X52530398Y-65482390D01*
X52530382Y-65482396D01*
X52527117Y-65483539D01*
X52523997Y-65485041D01*
X52523986Y-65485046D01*
X52264554Y-65609978D01*
X52264538Y-65609986D01*
X52261429Y-65611484D01*
X52258500Y-65613324D01*
X52258488Y-65613331D01*
X52014683Y-65766521D01*
X52014675Y-65766526D01*
X52011738Y-65768372D01*
X52009032Y-65770529D01*
X52009022Y-65770537D01*
X51783891Y-65950069D01*
X51783883Y-65950075D01*
X51781182Y-65952230D01*
X51778735Y-65954676D01*
X51778727Y-65954684D01*
X51732795Y-66000615D01*
X51676922Y-66056488D01*
X51623217Y-66110192D01*
X51513876Y-66219533D01*
X51513866Y-66219541D01*
X51505188Y-66228218D01*
X51505190Y-66228218D01*
X51487817Y-66245590D01*
X51487761Y-66245621D01*
X51349666Y-66383717D01*
X51349657Y-66383726D01*
X51347214Y-66386170D01*
X51345053Y-66388878D01*
X51345051Y-66388882D01*
X51165520Y-66614011D01*
X51165512Y-66614021D01*
X51163355Y-66616727D01*
X51161511Y-66619661D01*
X51161508Y-66619666D01*
X51008309Y-66863487D01*
X51008305Y-66863493D01*
X51006466Y-66866421D01*
X51004970Y-66869527D01*
X51004962Y-66869542D01*
X50880030Y-67128972D01*
X50880022Y-67128988D01*
X50878520Y-67132110D01*
X50877371Y-67135393D01*
X50877368Y-67135401D01*
X50782276Y-67407168D01*
X50782272Y-67407180D01*
X50781127Y-67410454D01*
X50780355Y-67413834D01*
X50780351Y-67413850D01*
X50716286Y-67694556D01*
X50715511Y-67697952D01*
X50715123Y-67701387D01*
X50715121Y-67701405D01*
X50683220Y-67984582D01*
X50682498Y-67990990D01*
X50682498Y-67994459D01*
X50682498Y-67994461D01*
X50682499Y-68023878D01*
X50682500Y-68104228D01*
X50682500Y-81252923D01*
X50682511Y-81253018D01*
X50682518Y-81253232D01*
X50682518Y-81323362D01*
X50682518Y-81361009D01*
X50682905Y-81364451D01*
X50682906Y-81364455D01*
X50715141Y-81650591D01*
X50715143Y-81650606D01*
X50715531Y-81654045D01*
X50718765Y-81668216D01*
X50780371Y-81938144D01*
X50780374Y-81938155D01*
X50781147Y-81941541D01*
X50782294Y-81944819D01*
X50782296Y-81944826D01*
X50877390Y-82216601D01*
X50877394Y-82216610D01*
X50878539Y-82219883D01*
X50880044Y-82223008D01*
X50880046Y-82223013D01*
X51004978Y-82482445D01*
X51004982Y-82482453D01*
X51006484Y-82485571D01*
X51008328Y-82488507D01*
X51008331Y-82488511D01*
X51019291Y-82505954D01*
X51163372Y-82735262D01*
X51165536Y-82737975D01*
X51165537Y-82737977D01*
X51188580Y-82766873D01*
X51347230Y-82965818D01*
X51349693Y-82968281D01*
X51386933Y-83005522D01*
X51386939Y-83005529D01*
X51451488Y-83070078D01*
X51487532Y-83106123D01*
X51487543Y-83106136D01*
X51513590Y-83132183D01*
X51513618Y-83132235D01*
X51549910Y-83168526D01*
X51549910Y-83168527D01*
X51654170Y-83272786D01*
X51884727Y-83456645D01*
X52134421Y-83613534D01*
X52137541Y-83615036D01*
X52137542Y-83615037D01*
X52354433Y-83719484D01*
X52400110Y-83741480D01*
X52678454Y-83838873D01*
X52965952Y-83904489D01*
X53258990Y-83937502D01*
X53406435Y-83937500D01*
X59369565Y-83937500D01*
X59408923Y-83937500D01*
X59409025Y-83937486D01*
X59409233Y-83937480D01*
X59517009Y-83937482D01*
X59810045Y-83904469D01*
X60097541Y-83838853D01*
X60375883Y-83741461D01*
X60641571Y-83613516D01*
X60891262Y-83456628D01*
X61121818Y-83272770D01*
X61159996Y-83234592D01*
X61160001Y-83234588D01*
X61170205Y-83224383D01*
X61170207Y-83224383D01*
X61251439Y-83143151D01*
X61279783Y-83114808D01*
X61279783Y-83114806D01*
X61289987Y-83104603D01*
X61289990Y-83104598D01*
X65512642Y-78881947D01*
X65518551Y-78876414D01*
X65644570Y-78765902D01*
X65657428Y-78756034D01*
X65793426Y-78665165D01*
X65807455Y-78657066D01*
X65954135Y-78584734D01*
X65969116Y-78578528D01*
X66123987Y-78525959D01*
X66139633Y-78521767D01*
X66300053Y-78489860D01*
X66316107Y-78487746D01*
X66483689Y-78476764D01*
X66491779Y-78476500D01*
X66563368Y-78476501D01*
X66563372Y-78476500D01*
X66997717Y-78476500D01*
X67064756Y-78496185D01*
X67110511Y-78548989D01*
X67120455Y-78618147D01*
X67113899Y-78643833D01*
X67087909Y-78713514D01*
X67083338Y-78756028D01*
X67081500Y-78773127D01*
X67081500Y-78776448D01*
X67081500Y-78776449D01*
X67081500Y-79465560D01*
X67081500Y-79465578D01*
X67081501Y-79468872D01*
X67081853Y-79472152D01*
X67081854Y-79472159D01*
X67083995Y-79492072D01*
X67087909Y-79528483D01*
X67138204Y-79663331D01*
X67224454Y-79778546D01*
X67339669Y-79864796D01*
X67474517Y-79915091D01*
X67534127Y-79921500D01*
X69129872Y-79921499D01*
X69189483Y-79915091D01*
X69324331Y-79864796D01*
X69439546Y-79778546D01*
X69525796Y-79663331D01*
X69576091Y-79528483D01*
X69582500Y-79468873D01*
X69582499Y-78773128D01*
X69576091Y-78713517D01*
X69525796Y-78578669D01*
X69512052Y-78560310D01*
X69487635Y-78494847D01*
X69502486Y-78426574D01*
X69512044Y-78411700D01*
X69525796Y-78393331D01*
X69576091Y-78258483D01*
X69582500Y-78198873D01*
X69582499Y-77503128D01*
X69576091Y-77443517D01*
X69525796Y-77308669D01*
X69512053Y-77290311D01*
X69487635Y-77224850D01*
X69502485Y-77156576D01*
X69512050Y-77141691D01*
X69525796Y-77123331D01*
X69576091Y-76988483D01*
X69582500Y-76928873D01*
X69582499Y-76233128D01*
X69576091Y-76173517D01*
X69525796Y-76038669D01*
X69512053Y-76020311D01*
X69487635Y-75954850D01*
X69502485Y-75886576D01*
X69512050Y-75871691D01*
X69525796Y-75853331D01*
X69576091Y-75718483D01*
X69582500Y-75658873D01*
X69582499Y-74963128D01*
X69576091Y-74903517D01*
X69525796Y-74768669D01*
X69511740Y-74749892D01*
X69487323Y-74684430D01*
X69502174Y-74616157D01*
X69511742Y-74601270D01*
X69525353Y-74583088D01*
X69575599Y-74448373D01*
X69581645Y-74392132D01*
X69582000Y-74385518D01*
X69582000Y-74291000D01*
X68206000Y-74291000D01*
X68138961Y-74271315D01*
X68093206Y-74218511D01*
X68082000Y-74167000D01*
X68082000Y-73915000D01*
X68101685Y-73847961D01*
X68154489Y-73802206D01*
X68206000Y-73791000D01*
X69582000Y-73791000D01*
X69582000Y-73696481D01*
X69581645Y-73689867D01*
X69575599Y-73633628D01*
X69525351Y-73498908D01*
X69511740Y-73480726D01*
X69487323Y-73415262D01*
X69502175Y-73346989D01*
X69511736Y-73332111D01*
X69525796Y-73313331D01*
X69576091Y-73178483D01*
X69582500Y-73118873D01*
X69582499Y-72423128D01*
X69576091Y-72363517D01*
X69550101Y-72293833D01*
X69545117Y-72224141D01*
X69578602Y-72162818D01*
X69639926Y-72129334D01*
X69666283Y-72126500D01*
X70148256Y-72126500D01*
X70168762Y-72128764D01*
X70171665Y-72128672D01*
X70171667Y-72128673D01*
X70238872Y-72126561D01*
X70242768Y-72126500D01*
X70266448Y-72126500D01*
X70270350Y-72126500D01*
X70274313Y-72125999D01*
X70285962Y-72125080D01*
X70329627Y-72123709D01*
X70348859Y-72118120D01*
X70367918Y-72114174D01*
X70374196Y-72113381D01*
X70387792Y-72111664D01*
X70428407Y-72095582D01*
X70439444Y-72091803D01*
X70481390Y-72079618D01*
X70498629Y-72069422D01*
X70516102Y-72060862D01*
X70534732Y-72053486D01*
X70570064Y-72027814D01*
X70579830Y-72021400D01*
X70608982Y-72004160D01*
X70617420Y-71999170D01*
X70631585Y-71985004D01*
X70646373Y-71972373D01*
X70662587Y-71960594D01*
X70690438Y-71926926D01*
X70698279Y-71918309D01*
X71171820Y-71444769D01*
X71233142Y-71411285D01*
X71302834Y-71416269D01*
X71358767Y-71458141D01*
X71383184Y-71523605D01*
X71383500Y-71532451D01*
X71383500Y-75482256D01*
X71381235Y-75502766D01*
X71383439Y-75572872D01*
X71383500Y-75576767D01*
X71383500Y-75604350D01*
X71383988Y-75608219D01*
X71383989Y-75608225D01*
X71384004Y-75608343D01*
X71384918Y-75619967D01*
X71386290Y-75663626D01*
X71391879Y-75682860D01*
X71395825Y-75701916D01*
X71398335Y-75721792D01*
X71414414Y-75762404D01*
X71418197Y-75773451D01*
X71430382Y-75815391D01*
X71440580Y-75832635D01*
X71449136Y-75850100D01*
X71456514Y-75868732D01*
X71456515Y-75868733D01*
X71482180Y-75904059D01*
X71488593Y-75913822D01*
X71510826Y-75951416D01*
X71510829Y-75951419D01*
X71510830Y-75951420D01*
X71524995Y-75965585D01*
X71537627Y-75980375D01*
X71549406Y-75996587D01*
X71583058Y-76024426D01*
X71591699Y-76032289D01*
X72524196Y-76964787D01*
X72537096Y-76980888D01*
X72539213Y-76982876D01*
X72539214Y-76982877D01*
X72572209Y-77013862D01*
X72588223Y-77028900D01*
X72591020Y-77031611D01*
X72610529Y-77051120D01*
X72613709Y-77053587D01*
X72622571Y-77061155D01*
X72654418Y-77091062D01*
X72670473Y-77099888D01*
X72671972Y-77100712D01*
X72688236Y-77111396D01*
X72695942Y-77117373D01*
X72704064Y-77123673D01*
X72722036Y-77131450D01*
X72744152Y-77141021D01*
X72754631Y-77146154D01*
X72792908Y-77167197D01*
X72812306Y-77172177D01*
X72830708Y-77178477D01*
X72849104Y-77186438D01*
X72892261Y-77193273D01*
X72903664Y-77195634D01*
X72945981Y-77206500D01*
X72966016Y-77206500D01*
X72985413Y-77208026D01*
X73005196Y-77211160D01*
X73048674Y-77207050D01*
X73060344Y-77206500D01*
X73244867Y-77206500D01*
X73311906Y-77226185D01*
X73357661Y-77278989D01*
X73367605Y-77348147D01*
X73340407Y-77409544D01*
X73327570Y-77425060D01*
X73319711Y-77433697D01*
X69212208Y-81541199D01*
X69196110Y-81554096D01*
X69148096Y-81605225D01*
X69145392Y-81608016D01*
X69128628Y-81624780D01*
X69128621Y-81624787D01*
X69125880Y-81627529D01*
X69123499Y-81630597D01*
X69123490Y-81630608D01*
X69123411Y-81630711D01*
X69115842Y-81639572D01*
X69085935Y-81671420D01*
X69076285Y-81688974D01*
X69065609Y-81705228D01*
X69053326Y-81721063D01*
X69035975Y-81761158D01*
X69030838Y-81771644D01*
X69009802Y-81809907D01*
X69004821Y-81829309D01*
X68998520Y-81847711D01*
X68990561Y-81866102D01*
X68983728Y-81909242D01*
X68981360Y-81920674D01*
X68970499Y-81962977D01*
X68970500Y-81983016D01*
X68968972Y-82002414D01*
X68965840Y-82022196D01*
X68968499Y-82050320D01*
X68969950Y-82065673D01*
X68970500Y-82077343D01*
X68970500Y-83229256D01*
X68968235Y-83249766D01*
X68970439Y-83319872D01*
X68970500Y-83323767D01*
X68970500Y-83351350D01*
X68970988Y-83355219D01*
X68970989Y-83355225D01*
X68971004Y-83355343D01*
X68971918Y-83366967D01*
X68973290Y-83410626D01*
X68978879Y-83429860D01*
X68982825Y-83448916D01*
X68985335Y-83468792D01*
X69001414Y-83509404D01*
X69005197Y-83520451D01*
X69017382Y-83562391D01*
X69027580Y-83579635D01*
X69036136Y-83597100D01*
X69043514Y-83615732D01*
X69043515Y-83615733D01*
X69069180Y-83651059D01*
X69075593Y-83660822D01*
X69097826Y-83698416D01*
X69097829Y-83698419D01*
X69097830Y-83698420D01*
X69111995Y-83712585D01*
X69124627Y-83727375D01*
X69136406Y-83743587D01*
X69170058Y-83771426D01*
X69178699Y-83779289D01*
X69603194Y-84203784D01*
X69616094Y-84219886D01*
X69667223Y-84267900D01*
X69670020Y-84270611D01*
X69689529Y-84290120D01*
X69692709Y-84292587D01*
X69701571Y-84300155D01*
X69733418Y-84330062D01*
X69750970Y-84339711D01*
X69767238Y-84350397D01*
X69779647Y-84360023D01*
X69820552Y-84416667D01*
X69824340Y-84486434D01*
X69789807Y-84547173D01*
X69727918Y-84579601D01*
X69703644Y-84582000D01*
X50162000Y-84582000D01*
X50094961Y-84562315D01*
X50049206Y-84509511D01*
X50038000Y-84458000D01*
X50038000Y-64640000D01*
X50057685Y-64572961D01*
X50110489Y-64527206D01*
X50162000Y-64516000D01*
X149228000Y-64516000D01*
X149295039Y-64535685D01*
G37*
%TD.AperFunction*%
%TA.AperFunction,Conductor*%
G36*
X77015741Y-75355361D02*
G01*
X77071674Y-75397233D01*
X77096091Y-75462697D01*
X77092680Y-75490675D01*
X77093689Y-75490782D01*
X77092326Y-75503741D01*
X77092326Y-75503744D01*
X77072540Y-75692000D01*
X77072833Y-75694787D01*
X77092326Y-75880257D01*
X77150820Y-76060284D01*
X77245464Y-76224213D01*
X77320650Y-76307714D01*
X77350880Y-76370706D01*
X77352500Y-76390687D01*
X77352500Y-77133256D01*
X77350235Y-77153766D01*
X77352439Y-77223872D01*
X77352500Y-77227767D01*
X77352500Y-77255350D01*
X77352988Y-77259219D01*
X77352989Y-77259225D01*
X77353004Y-77259343D01*
X77353918Y-77270967D01*
X77355290Y-77314626D01*
X77360879Y-77333860D01*
X77364825Y-77352916D01*
X77367335Y-77372792D01*
X77383414Y-77413404D01*
X77387197Y-77424451D01*
X77399382Y-77466391D01*
X77409580Y-77483635D01*
X77418136Y-77501100D01*
X77425514Y-77519732D01*
X77425515Y-77519733D01*
X77451180Y-77555059D01*
X77457593Y-77564822D01*
X77479826Y-77602416D01*
X77479829Y-77602419D01*
X77479830Y-77602420D01*
X77493995Y-77616585D01*
X77506627Y-77631375D01*
X77518406Y-77647587D01*
X77552058Y-77675426D01*
X77560699Y-77683289D01*
X79558228Y-79680819D01*
X79591713Y-79742142D01*
X79586729Y-79811834D01*
X79544857Y-79867767D01*
X79479393Y-79892184D01*
X79470547Y-79892500D01*
X79443747Y-79892500D01*
X79376708Y-79872815D01*
X79351599Y-79851473D01*
X79345871Y-79845112D01*
X79192730Y-79733849D01*
X79192729Y-79733848D01*
X79192727Y-79733847D01*
X79019802Y-79656855D01*
X78834648Y-79617500D01*
X78834646Y-79617500D01*
X78645354Y-79617500D01*
X78645352Y-79617500D01*
X78460197Y-79656855D01*
X78287269Y-79733848D01*
X78134129Y-79845110D01*
X78007466Y-79985783D01*
X77912820Y-80149715D01*
X77854326Y-80329742D01*
X77834540Y-80518000D01*
X77854326Y-80706257D01*
X77912820Y-80886284D01*
X78007466Y-81050216D01*
X78134129Y-81190889D01*
X78287269Y-81302151D01*
X78460197Y-81379144D01*
X78645352Y-81418500D01*
X78645354Y-81418500D01*
X78834648Y-81418500D01*
X78958083Y-81392262D01*
X79019803Y-81379144D01*
X79192730Y-81302151D01*
X79345871Y-81190888D01*
X79351598Y-81184527D01*
X79411084Y-81147879D01*
X79443747Y-81143500D01*
X82118032Y-81143500D01*
X82185071Y-81163185D01*
X82230826Y-81215989D01*
X82240770Y-81285147D01*
X82217299Y-81341810D01*
X82191205Y-81376666D01*
X82140910Y-81511515D01*
X82140909Y-81511517D01*
X82134500Y-81571127D01*
X82134500Y-81574448D01*
X82134500Y-81574449D01*
X82134500Y-82763560D01*
X82134500Y-82763578D01*
X82134501Y-82766872D01*
X82134853Y-82770152D01*
X82134854Y-82770159D01*
X82140909Y-82826484D01*
X82191204Y-82961332D01*
X82217299Y-82996190D01*
X82241716Y-83061654D01*
X82226864Y-83129927D01*
X82177459Y-83179332D01*
X82118032Y-83194500D01*
X70414453Y-83194500D01*
X70347414Y-83174815D01*
X70326772Y-83158181D01*
X70257819Y-83089228D01*
X70224334Y-83027905D01*
X70221500Y-83001547D01*
X70221500Y-82352452D01*
X70241185Y-82285413D01*
X70257819Y-82264771D01*
X73151591Y-79371000D01*
X74182000Y-79371000D01*
X74182000Y-79465518D01*
X74182354Y-79472132D01*
X74188400Y-79528371D01*
X74238647Y-79663089D01*
X74324811Y-79778188D01*
X74439910Y-79864352D01*
X74574628Y-79914599D01*
X74630867Y-79920645D01*
X74637482Y-79921000D01*
X75182000Y-79921000D01*
X75182000Y-79371000D01*
X75682000Y-79371000D01*
X75682000Y-79921000D01*
X76226518Y-79921000D01*
X76233132Y-79920645D01*
X76289371Y-79914599D01*
X76424089Y-79864352D01*
X76539188Y-79778188D01*
X76625352Y-79663089D01*
X76675599Y-79528371D01*
X76681645Y-79472132D01*
X76682000Y-79465518D01*
X76682000Y-79371000D01*
X75682000Y-79371000D01*
X75182000Y-79371000D01*
X74182000Y-79371000D01*
X73151591Y-79371000D01*
X74009772Y-78512819D01*
X74071095Y-78479334D01*
X74097453Y-78476500D01*
X74098251Y-78476500D01*
X74165290Y-78496185D01*
X74211045Y-78548989D01*
X74220989Y-78618147D01*
X74214433Y-78643834D01*
X74188400Y-78713628D01*
X74182354Y-78769867D01*
X74182000Y-78776481D01*
X74182000Y-78871000D01*
X76682000Y-78871000D01*
X76682000Y-78776481D01*
X76681645Y-78769867D01*
X76675599Y-78713628D01*
X76625351Y-78578908D01*
X76611740Y-78560726D01*
X76587323Y-78495262D01*
X76602175Y-78426989D01*
X76611736Y-78412111D01*
X76625796Y-78393331D01*
X76676091Y-78258483D01*
X76682500Y-78198873D01*
X76682499Y-77503128D01*
X76676091Y-77443517D01*
X76625796Y-77308669D01*
X76612053Y-77290311D01*
X76587635Y-77224850D01*
X76602485Y-77156576D01*
X76612050Y-77141691D01*
X76625796Y-77123331D01*
X76676091Y-76988483D01*
X76682500Y-76928873D01*
X76682499Y-76233128D01*
X76676091Y-76173517D01*
X76625796Y-76038669D01*
X76612052Y-76020310D01*
X76587635Y-75954847D01*
X76602486Y-75886574D01*
X76612044Y-75871700D01*
X76625796Y-75853331D01*
X76676091Y-75718483D01*
X76682500Y-75658873D01*
X76682499Y-75637454D01*
X76702180Y-75570416D01*
X76718813Y-75549775D01*
X76884728Y-75383860D01*
X76946049Y-75350377D01*
X77015741Y-75355361D01*
G37*
%TD.AperFunction*%
%TA.AperFunction,Conductor*%
G36*
X54975632Y-66538501D02*
G01*
X55047516Y-66538500D01*
X55055624Y-66538765D01*
X55073368Y-66539927D01*
X55222887Y-66549725D01*
X55238955Y-66551841D01*
X55399368Y-66583747D01*
X55415021Y-66587941D01*
X55569888Y-66640508D01*
X55584869Y-66646714D01*
X55731547Y-66719045D01*
X55745595Y-66727156D01*
X55781403Y-66751082D01*
X55826209Y-66804694D01*
X55834916Y-66874019D01*
X55804762Y-66937046D01*
X55745319Y-66973766D01*
X55725769Y-66977473D01*
X55684519Y-66981907D01*
X55549669Y-67032204D01*
X55434454Y-67118454D01*
X55348204Y-67233669D01*
X55299189Y-67365083D01*
X55257317Y-67421016D01*
X55191852Y-67445433D01*
X55123580Y-67430581D01*
X55095326Y-67409430D01*
X54973404Y-67287508D01*
X54973403Y-67287508D01*
X54973401Y-67287505D01*
X54779830Y-67151965D01*
X54565663Y-67052097D01*
X54495854Y-67033392D01*
X54337407Y-66990936D01*
X54102000Y-66970340D01*
X53866592Y-66990936D01*
X53638336Y-67052097D01*
X53424170Y-67151965D01*
X53230598Y-67287505D01*
X53063505Y-67454598D01*
X52927965Y-67648170D01*
X52828097Y-67862336D01*
X52766936Y-68090592D01*
X52746340Y-68326000D01*
X52766936Y-68561407D01*
X52801040Y-68688685D01*
X52828097Y-68789663D01*
X52927965Y-69003830D01*
X53063505Y-69197401D01*
X53230599Y-69364495D01*
X53416160Y-69494426D01*
X53459783Y-69549002D01*
X53466976Y-69618501D01*
X53435454Y-69680855D01*
X53416158Y-69697575D01*
X53236295Y-69823517D01*
X53230595Y-69827508D01*
X53063505Y-69994598D01*
X52927965Y-70188170D01*
X52828097Y-70402336D01*
X52766936Y-70630592D01*
X52746340Y-70866000D01*
X52766936Y-71101407D01*
X52794172Y-71203052D01*
X52828097Y-71329663D01*
X52927965Y-71543830D01*
X53063505Y-71737401D01*
X53230599Y-71904495D01*
X53416160Y-72034426D01*
X53459783Y-72089002D01*
X53466976Y-72158501D01*
X53435454Y-72220855D01*
X53416158Y-72237575D01*
X53236295Y-72363517D01*
X53230595Y-72367508D01*
X53063505Y-72534598D01*
X52927965Y-72728170D01*
X52828097Y-72942336D01*
X52766936Y-73170592D01*
X52746340Y-73406000D01*
X52766936Y-73641407D01*
X52807734Y-73793666D01*
X52828097Y-73869663D01*
X52927965Y-74083830D01*
X53063505Y-74277401D01*
X53230599Y-74444495D01*
X53416160Y-74574426D01*
X53459783Y-74629002D01*
X53466976Y-74698501D01*
X53435454Y-74760855D01*
X53416158Y-74777575D01*
X53236295Y-74903517D01*
X53230595Y-74907508D01*
X53063505Y-75074598D01*
X52927965Y-75268170D01*
X52828097Y-75482336D01*
X52766936Y-75710592D01*
X52746340Y-75945999D01*
X52766936Y-76181407D01*
X52768511Y-76187284D01*
X52828097Y-76409663D01*
X52927965Y-76623830D01*
X53063505Y-76817401D01*
X53230599Y-76984495D01*
X53416596Y-77114732D01*
X53460219Y-77169307D01*
X53467412Y-77238806D01*
X53435890Y-77301160D01*
X53416595Y-77317880D01*
X53230919Y-77447892D01*
X53063890Y-77614921D01*
X52928400Y-77808421D01*
X52828569Y-78022507D01*
X52771364Y-78235999D01*
X52771364Y-78236000D01*
X53668314Y-78236000D01*
X53642507Y-78276156D01*
X53602000Y-78414111D01*
X53602000Y-78557889D01*
X53642507Y-78695844D01*
X53668314Y-78736000D01*
X52771364Y-78736000D01*
X52828569Y-78949492D01*
X52928399Y-79163576D01*
X53063893Y-79357081D01*
X53230918Y-79524106D01*
X53416595Y-79654119D01*
X53460219Y-79708696D01*
X53467412Y-79778195D01*
X53435890Y-79840549D01*
X53416595Y-79857269D01*
X53324864Y-79921500D01*
X53233059Y-79985783D01*
X53230595Y-79987508D01*
X53063505Y-80154598D01*
X52927965Y-80348170D01*
X52828097Y-80562336D01*
X52766936Y-80790592D01*
X52746340Y-81025999D01*
X52766936Y-81261407D01*
X52798484Y-81379144D01*
X52828097Y-81489663D01*
X52927965Y-81703830D01*
X53063505Y-81897401D01*
X53230599Y-82064495D01*
X53424170Y-82200035D01*
X53638337Y-82299903D01*
X53834455Y-82352452D01*
X53866592Y-82361063D01*
X54101999Y-82381659D01*
X54101999Y-82381658D01*
X54102000Y-82381659D01*
X54337408Y-82361063D01*
X54565663Y-82299903D01*
X54779830Y-82200035D01*
X54973401Y-82064495D01*
X55140495Y-81897401D01*
X55270426Y-81711839D01*
X55325002Y-81668216D01*
X55394500Y-81661022D01*
X55456855Y-81692545D01*
X55473571Y-81711837D01*
X55603505Y-81897401D01*
X55770599Y-82064495D01*
X55964170Y-82200035D01*
X56178337Y-82299903D01*
X56406592Y-82361063D01*
X56642000Y-82381659D01*
X56877408Y-82361063D01*
X57105663Y-82299903D01*
X57319830Y-82200035D01*
X57513401Y-82064495D01*
X57680495Y-81897401D01*
X57728127Y-81829374D01*
X57782703Y-81785751D01*
X57829701Y-81776500D01*
X60134294Y-81776500D01*
X60152264Y-81777809D01*
X60156320Y-81778402D01*
X60176023Y-81781289D01*
X60225368Y-81776972D01*
X60236176Y-81776500D01*
X60238100Y-81776500D01*
X60241709Y-81776500D01*
X60272550Y-81772894D01*
X60276031Y-81772539D01*
X60350797Y-81765999D01*
X60350797Y-81765998D01*
X60352052Y-81765889D01*
X60371062Y-81761674D01*
X60372250Y-81761241D01*
X60372255Y-81761241D01*
X60442820Y-81735557D01*
X60446095Y-81734419D01*
X60517334Y-81710814D01*
X60517336Y-81710812D01*
X60518536Y-81710415D01*
X60536063Y-81701929D01*
X60537112Y-81701238D01*
X60537117Y-81701237D01*
X60599806Y-81660005D01*
X60602767Y-81658118D01*
X60651113Y-81628298D01*
X60718502Y-81609860D01*
X60785165Y-81630783D01*
X60829935Y-81684425D01*
X60838596Y-81753755D01*
X60808400Y-81816763D01*
X60803887Y-81821520D01*
X60344370Y-82281037D01*
X60338448Y-82286584D01*
X60212429Y-82397099D01*
X60199559Y-82406974D01*
X60063588Y-82497824D01*
X60049541Y-82505934D01*
X59902863Y-82578265D01*
X59887878Y-82584472D01*
X59733022Y-82637037D01*
X59717354Y-82641235D01*
X59556960Y-82673137D01*
X59540880Y-82675254D01*
X59373328Y-82686234D01*
X59365219Y-82686499D01*
X59278372Y-82686499D01*
X59278364Y-82686500D01*
X53497636Y-82686500D01*
X53497628Y-82686499D01*
X53410483Y-82686499D01*
X53402375Y-82686234D01*
X53235119Y-82675274D01*
X53219037Y-82673157D01*
X53058636Y-82641253D01*
X53042969Y-82637055D01*
X52888115Y-82584492D01*
X52873130Y-82578285D01*
X52726452Y-82505954D01*
X52712404Y-82497844D01*
X52689357Y-82482445D01*
X52576425Y-82406987D01*
X52563557Y-82397113D01*
X52437769Y-82286803D01*
X52431846Y-82281255D01*
X52338966Y-82188375D01*
X52333418Y-82182452D01*
X52321621Y-82169000D01*
X52222895Y-82056423D01*
X52213029Y-82043564D01*
X52122172Y-81907583D01*
X52114065Y-81893541D01*
X52041734Y-81746863D01*
X52035527Y-81731878D01*
X52022176Y-81692545D01*
X51982960Y-81577017D01*
X51978764Y-81561354D01*
X51977742Y-81556214D01*
X51946860Y-81400951D01*
X51944746Y-81384890D01*
X51933764Y-81217311D01*
X51933500Y-81209218D01*
X51933500Y-81175995D01*
X51933501Y-81137632D01*
X51933500Y-81137627D01*
X51933500Y-68214372D01*
X51933501Y-68214368D01*
X51933500Y-68142482D01*
X51933765Y-68134375D01*
X51935530Y-68107446D01*
X51944726Y-67967110D01*
X51946840Y-67951046D01*
X51978748Y-67790627D01*
X51982940Y-67774982D01*
X52035510Y-67620105D01*
X52041714Y-67605130D01*
X52059371Y-67569324D01*
X52114048Y-67458445D01*
X52122147Y-67444416D01*
X52213018Y-67308416D01*
X52222879Y-67295565D01*
X52333193Y-67169772D01*
X52338736Y-67163855D01*
X52374860Y-67127730D01*
X52450493Y-67052097D01*
X52558630Y-66943959D01*
X52564538Y-66938427D01*
X52630592Y-66880500D01*
X52690574Y-66827897D01*
X52703427Y-66818034D01*
X52839422Y-66727168D01*
X52853451Y-66719068D01*
X53000135Y-66646734D01*
X53015116Y-66640528D01*
X53169986Y-66587959D01*
X53185636Y-66583766D01*
X53346050Y-66551860D01*
X53362107Y-66549746D01*
X53529689Y-66538764D01*
X53537779Y-66538500D01*
X53609368Y-66538501D01*
X53609372Y-66538500D01*
X54975628Y-66538500D01*
X54975632Y-66538501D01*
G37*
%TD.AperFunction*%
%TA.AperFunction,Conductor*%
G36*
X56182507Y-78276156D02*
G01*
X56142000Y-78414111D01*
X56142000Y-78557889D01*
X56182507Y-78695844D01*
X56208314Y-78736000D01*
X54535686Y-78736000D01*
X54561493Y-78695844D01*
X54602000Y-78557889D01*
X54602000Y-78414111D01*
X54561493Y-78276156D01*
X54535686Y-78236000D01*
X56208314Y-78236000D01*
X56182507Y-78276156D01*
G37*
%TD.AperFunction*%
%TD*%
M02*
