%TF.GenerationSoftware,KiCad,Pcbnew,7.0.2*%
%TF.CreationDate,2023-08-10T02:19:43+09:00*%
%TF.ProjectId,Pmod_7LED_8digit,506d6f64-5f37-44c4-9544-5f3864696769,rev?*%
%TF.SameCoordinates,Original*%
%TF.FileFunction,Soldermask,Top*%
%TF.FilePolarity,Negative*%
%FSLAX46Y46*%
G04 Gerber Fmt 4.6, Leading zero omitted, Abs format (unit mm)*
G04 Created by KiCad (PCBNEW 7.0.2) date 2023-08-10 02:19:43*
%MOMM*%
%LPD*%
G01*
G04 APERTURE LIST*
G04 Aperture macros list*
%AMRoundRect*
0 Rectangle with rounded corners*
0 $1 Rounding radius*
0 $2 $3 $4 $5 $6 $7 $8 $9 X,Y pos of 4 corners*
0 Add a 4 corners polygon primitive as box body*
4,1,4,$2,$3,$4,$5,$6,$7,$8,$9,$2,$3,0*
0 Add four circle primitives for the rounded corners*
1,1,$1+$1,$2,$3*
1,1,$1+$1,$4,$5*
1,1,$1+$1,$6,$7*
1,1,$1+$1,$8,$9*
0 Add four rect primitives between the rounded corners*
20,1,$1+$1,$2,$3,$4,$5,0*
20,1,$1+$1,$4,$5,$6,$7,0*
20,1,$1+$1,$6,$7,$8,$9,0*
20,1,$1+$1,$8,$9,$2,$3,0*%
G04 Aperture macros list end*
%ADD10RoundRect,0.237500X-0.250000X-0.237500X0.250000X-0.237500X0.250000X0.237500X-0.250000X0.237500X0*%
%ADD11R,1.100000X1.100000*%
%ADD12C,1.100000*%
%ADD13R,1.500000X0.600000*%
%ADD14R,1.700000X1.700000*%
%ADD15O,1.700000X1.700000*%
%ADD16RoundRect,0.237500X0.300000X0.237500X-0.300000X0.237500X-0.300000X-0.237500X0.300000X-0.237500X0*%
G04 APERTURE END LIST*
D10*
%TO.C,R4*%
X73382500Y-71882000D03*
X75207500Y-71882000D03*
%TD*%
D11*
%TO.C,DS2*%
X83185000Y-82169000D03*
D12*
X85725000Y-82169000D03*
X88265000Y-82169000D03*
X90805000Y-82169000D03*
X93345000Y-82169000D03*
X95885000Y-82169000D03*
X95885000Y-66929000D03*
X93345000Y-66929000D03*
X90805000Y-66929000D03*
X88265000Y-66929000D03*
X85725000Y-66929000D03*
X83185000Y-66929000D03*
%TD*%
D13*
%TO.C,U1*%
X68193000Y-76454000D03*
X68193000Y-75184000D03*
X68193000Y-73914000D03*
X68193000Y-72644000D03*
X68193000Y-71374000D03*
X68193000Y-70104000D03*
X68193000Y-68834000D03*
X68193000Y-67564000D03*
X61093000Y-67564000D03*
X61093000Y-68834000D03*
X61093000Y-70104000D03*
X61093000Y-71374000D03*
X61093000Y-72644000D03*
X61093000Y-73914000D03*
X61093000Y-75184000D03*
X61093000Y-76454000D03*
%TD*%
D14*
%TO.C,J1*%
X56642000Y-68326000D03*
D15*
X56642000Y-70866000D03*
X56642000Y-73406000D03*
X56642000Y-75946000D03*
X56642000Y-78486000D03*
X56642000Y-81026000D03*
X54102000Y-68326000D03*
X54102000Y-70866000D03*
X54102000Y-73406000D03*
X54102000Y-75946000D03*
X54102000Y-78486000D03*
X54102000Y-81026000D03*
%TD*%
D10*
%TO.C,R7*%
X73382500Y-78486000D03*
X75207500Y-78486000D03*
%TD*%
D16*
%TO.C,C1*%
X61060500Y-78359000D03*
X59335500Y-78359000D03*
%TD*%
D10*
%TO.C,R1*%
X73382500Y-82804000D03*
X75207500Y-82804000D03*
%TD*%
%TO.C,R2*%
X73382500Y-76327000D03*
X75207500Y-76327000D03*
%TD*%
%TO.C,R6*%
X73382500Y-67183000D03*
X75207500Y-67183000D03*
%TD*%
%TO.C,R5*%
X73382500Y-69596000D03*
X75207500Y-69596000D03*
%TD*%
%TO.C,R3*%
X73382500Y-74168000D03*
X75207500Y-74168000D03*
%TD*%
D11*
%TO.C,DS1*%
X134112000Y-82169000D03*
D12*
X136652000Y-82169000D03*
X139192000Y-82169000D03*
X141732000Y-82169000D03*
X144272000Y-82169000D03*
X146812000Y-82169000D03*
X146812000Y-66929000D03*
X144272000Y-66929000D03*
X141732000Y-66929000D03*
X139192000Y-66929000D03*
X136652000Y-66929000D03*
X134112000Y-66929000D03*
%TD*%
D10*
%TO.C,R8*%
X73382500Y-80518000D03*
X75207500Y-80518000D03*
%TD*%
M02*
