%TF.GenerationSoftware,KiCad,Pcbnew,7.0.2*%
%TF.CreationDate,2023-08-10T02:19:42+09:00*%
%TF.ProjectId,Pmod_7LED_8digit,506d6f64-5f37-44c4-9544-5f3864696769,rev?*%
%TF.SameCoordinates,Original*%
%TF.FileFunction,Copper,L1,Top*%
%TF.FilePolarity,Positive*%
%FSLAX46Y46*%
G04 Gerber Fmt 4.6, Leading zero omitted, Abs format (unit mm)*
G04 Created by KiCad (PCBNEW 7.0.2) date 2023-08-10 02:19:42*
%MOMM*%
%LPD*%
G01*
G04 APERTURE LIST*
G04 Aperture macros list*
%AMRoundRect*
0 Rectangle with rounded corners*
0 $1 Rounding radius*
0 $2 $3 $4 $5 $6 $7 $8 $9 X,Y pos of 4 corners*
0 Add a 4 corners polygon primitive as box body*
4,1,4,$2,$3,$4,$5,$6,$7,$8,$9,$2,$3,0*
0 Add four circle primitives for the rounded corners*
1,1,$1+$1,$2,$3*
1,1,$1+$1,$4,$5*
1,1,$1+$1,$6,$7*
1,1,$1+$1,$8,$9*
0 Add four rect primitives between the rounded corners*
20,1,$1+$1,$2,$3,$4,$5,0*
20,1,$1+$1,$4,$5,$6,$7,0*
20,1,$1+$1,$6,$7,$8,$9,0*
20,1,$1+$1,$8,$9,$2,$3,0*%
G04 Aperture macros list end*
%TA.AperFunction,SMDPad,CuDef*%
%ADD10RoundRect,0.237500X-0.250000X-0.237500X0.250000X-0.237500X0.250000X0.237500X-0.250000X0.237500X0*%
%TD*%
%TA.AperFunction,ComponentPad*%
%ADD11R,1.100000X1.100000*%
%TD*%
%TA.AperFunction,ComponentPad*%
%ADD12C,1.100000*%
%TD*%
%TA.AperFunction,SMDPad,CuDef*%
%ADD13R,1.500000X0.600000*%
%TD*%
%TA.AperFunction,ComponentPad*%
%ADD14R,1.700000X1.700000*%
%TD*%
%TA.AperFunction,ComponentPad*%
%ADD15O,1.700000X1.700000*%
%TD*%
%TA.AperFunction,SMDPad,CuDef*%
%ADD16RoundRect,0.237500X0.300000X0.237500X-0.300000X0.237500X-0.300000X-0.237500X0.300000X-0.237500X0*%
%TD*%
%TA.AperFunction,ViaPad*%
%ADD17C,0.800000*%
%TD*%
%TA.AperFunction,ViaPad*%
%ADD18C,1.000000*%
%TD*%
%TA.AperFunction,Conductor*%
%ADD19C,0.500000*%
%TD*%
%TA.AperFunction,Conductor*%
%ADD20C,0.250000*%
%TD*%
G04 APERTURE END LIST*
D10*
%TO.P,R4,1*%
%TO.N,Net-(U1-QD)*%
X73382500Y-71882000D03*
%TO.P,R4,2*%
%TO.N,Net-(DS1-ANODE_D_DIG_1234)*%
X75207500Y-71882000D03*
%TD*%
D11*
%TO.P,DS2,1,ANODE_E_DIG_1234*%
%TO.N,Net-(DS1-ANODE_E_DIG_1234)*%
X83185000Y-82169000D03*
D12*
%TO.P,DS2,2,ANODE_D_DIG_1234*%
%TO.N,Net-(DS1-ANODE_D_DIG_1234)*%
X85725000Y-82169000D03*
%TO.P,DS2,3,ANODE_DP_DIG_1234*%
%TO.N,Net-(DS1-ANODE_DP_DIG_1234)*%
X88265000Y-82169000D03*
%TO.P,DS2,4,ANODE_C_DIG_1234*%
%TO.N,Net-(DS1-ANODE_C_DIG_1234)*%
X90805000Y-82169000D03*
%TO.P,DS2,5,ANODE_G_DIG_1234*%
%TO.N,Net-(DS1-ANODE_G_DIG_1234)*%
X93345000Y-82169000D03*
%TO.P,DS2,6,COMMON_CATHODE_DIG_4*%
%TO.N,Net-(DS2-COMMON_CATHODE_DIG_4)*%
X95885000Y-82169000D03*
%TO.P,DS2,7,ANODE_B_DIG_1234*%
%TO.N,Net-(DS1-ANODE_B_DIG_1234)*%
X95885000Y-66929000D03*
%TO.P,DS2,8,COMMON_CATHODE_DIG_3*%
%TO.N,Net-(DS2-COMMON_CATHODE_DIG_3)*%
X93345000Y-66929000D03*
%TO.P,DS2,9,COMMON_CATHODE_DIG_2*%
%TO.N,Net-(DS2-COMMON_CATHODE_DIG_2)*%
X90805000Y-66929000D03*
%TO.P,DS2,10,ANODE_F_DIG_1234*%
%TO.N,Net-(DS1-ANODE_F_DIG_1234)*%
X88265000Y-66929000D03*
%TO.P,DS2,11,ANODE_A_DIG_1234*%
%TO.N,Net-(DS1-ANODE_A_DIG_1234)*%
X85725000Y-66929000D03*
%TO.P,DS2,12,COMMON_CATHODE_DIG_1*%
%TO.N,Net-(DS2-COMMON_CATHODE_DIG_1)*%
X83185000Y-66929000D03*
%TD*%
D13*
%TO.P,U1,1,QB*%
%TO.N,Net-(U1-QB)*%
X68193000Y-76454000D03*
%TO.P,U1,2,QC*%
%TO.N,Net-(U1-QC)*%
X68193000Y-75184000D03*
%TO.P,U1,3,QD*%
%TO.N,Net-(U1-QD)*%
X68193000Y-73914000D03*
%TO.P,U1,4,QE*%
%TO.N,Net-(U1-QE)*%
X68193000Y-72644000D03*
%TO.P,U1,5,QF*%
%TO.N,Net-(U1-QF)*%
X68193000Y-71374000D03*
%TO.P,U1,6,QG*%
%TO.N,Net-(U1-QG)*%
X68193000Y-70104000D03*
%TO.P,U1,7,QH*%
%TO.N,Net-(U1-QH)*%
X68193000Y-68834000D03*
%TO.P,U1,8,GND*%
%TO.N,GND*%
X68193000Y-67564000D03*
%TO.P,U1,9,QH'*%
%TO.N,Net-(U1-QH')*%
X61093000Y-67564000D03*
%TO.P,U1,10,~{SRCLR}*%
%TO.N,Net-(J1-Pin_1)*%
X61093000Y-68834000D03*
%TO.P,U1,11,SRCLK*%
%TO.N,Net-(J1-Pin_2)*%
X61093000Y-70104000D03*
%TO.P,U1,12,RCLK*%
%TO.N,Net-(J1-Pin_3)*%
X61093000Y-71374000D03*
%TO.P,U1,13,~{OE}*%
%TO.N,GND*%
X61093000Y-72644000D03*
%TO.P,U1,14,SER*%
%TO.N,Net-(J1-Pin_4)*%
X61093000Y-73914000D03*
%TO.P,U1,15,QA*%
%TO.N,Net-(U1-QA)*%
X61093000Y-75184000D03*
%TO.P,U1,16,VCC*%
%TO.N,VCC*%
X61093000Y-76454000D03*
%TD*%
D14*
%TO.P,J1,1,Pin_1*%
%TO.N,Net-(J1-Pin_1)*%
X56642000Y-68326000D03*
D15*
%TO.P,J1,2,Pin_2*%
%TO.N,Net-(J1-Pin_2)*%
X56642000Y-70866000D03*
%TO.P,J1,3,Pin_3*%
%TO.N,Net-(J1-Pin_3)*%
X56642000Y-73406000D03*
%TO.P,J1,4,Pin_4*%
%TO.N,Net-(J1-Pin_4)*%
X56642000Y-75946000D03*
%TO.P,J1,5,Pin_5*%
%TO.N,GND*%
X56642000Y-78486000D03*
%TO.P,J1,6,Pin_6*%
%TO.N,VCC*%
X56642000Y-81026000D03*
%TO.P,J1,7,Pin_7*%
%TO.N,unconnected-(J1-Pin_7-Pad7)*%
X54102000Y-68326000D03*
%TO.P,J1,8,Pin_8*%
%TO.N,unconnected-(J1-Pin_8-Pad8)*%
X54102000Y-70866000D03*
%TO.P,J1,9,Pin_9*%
%TO.N,unconnected-(J1-Pin_9-Pad9)*%
X54102000Y-73406000D03*
%TO.P,J1,10,Pin_10*%
%TO.N,unconnected-(J1-Pin_10-Pad10)*%
X54102000Y-75946000D03*
%TO.P,J1,11,Pin_11*%
%TO.N,GND*%
X54102000Y-78486000D03*
%TO.P,J1,12,Pin_12*%
%TO.N,VCC*%
X54102000Y-81026000D03*
%TD*%
D10*
%TO.P,R7,1*%
%TO.N,Net-(U1-QG)*%
X73382500Y-78486000D03*
%TO.P,R7,2*%
%TO.N,Net-(DS1-ANODE_G_DIG_1234)*%
X75207500Y-78486000D03*
%TD*%
D16*
%TO.P,C1,1*%
%TO.N,VCC*%
X61060500Y-78359000D03*
%TO.P,C1,2*%
%TO.N,GND*%
X59335500Y-78359000D03*
%TD*%
D10*
%TO.P,R1,1*%
%TO.N,Net-(U1-QA)*%
X73382500Y-82804000D03*
%TO.P,R1,2*%
%TO.N,Net-(DS1-ANODE_A_DIG_1234)*%
X75207500Y-82804000D03*
%TD*%
%TO.P,R2,1*%
%TO.N,Net-(U1-QB)*%
X73382500Y-76327000D03*
%TO.P,R2,2*%
%TO.N,Net-(DS1-ANODE_B_DIG_1234)*%
X75207500Y-76327000D03*
%TD*%
%TO.P,R6,1*%
%TO.N,Net-(U1-QF)*%
X73382500Y-67183000D03*
%TO.P,R6,2*%
%TO.N,Net-(DS1-ANODE_F_DIG_1234)*%
X75207500Y-67183000D03*
%TD*%
%TO.P,R5,1*%
%TO.N,Net-(U1-QE)*%
X73382500Y-69596000D03*
%TO.P,R5,2*%
%TO.N,Net-(DS1-ANODE_E_DIG_1234)*%
X75207500Y-69596000D03*
%TD*%
%TO.P,R3,1*%
%TO.N,Net-(U1-QC)*%
X73382500Y-74168000D03*
%TO.P,R3,2*%
%TO.N,Net-(DS1-ANODE_C_DIG_1234)*%
X75207500Y-74168000D03*
%TD*%
D11*
%TO.P,DS1,1,ANODE_E_DIG_1234*%
%TO.N,Net-(DS1-ANODE_E_DIG_1234)*%
X134112000Y-82169000D03*
D12*
%TO.P,DS1,2,ANODE_D_DIG_1234*%
%TO.N,Net-(DS1-ANODE_D_DIG_1234)*%
X136652000Y-82169000D03*
%TO.P,DS1,3,ANODE_DP_DIG_1234*%
%TO.N,Net-(DS1-ANODE_DP_DIG_1234)*%
X139192000Y-82169000D03*
%TO.P,DS1,4,ANODE_C_DIG_1234*%
%TO.N,Net-(DS1-ANODE_C_DIG_1234)*%
X141732000Y-82169000D03*
%TO.P,DS1,5,ANODE_G_DIG_1234*%
%TO.N,Net-(DS1-ANODE_G_DIG_1234)*%
X144272000Y-82169000D03*
%TO.P,DS1,6,COMMON_CATHODE_DIG_4*%
%TO.N,Net-(DS1-COMMON_CATHODE_DIG_4)*%
X146812000Y-82169000D03*
%TO.P,DS1,7,ANODE_B_DIG_1234*%
%TO.N,Net-(DS1-ANODE_B_DIG_1234)*%
X146812000Y-66929000D03*
%TO.P,DS1,8,COMMON_CATHODE_DIG_3*%
%TO.N,Net-(DS1-COMMON_CATHODE_DIG_3)*%
X144272000Y-66929000D03*
%TO.P,DS1,9,COMMON_CATHODE_DIG_2*%
%TO.N,Net-(DS1-COMMON_CATHODE_DIG_2)*%
X141732000Y-66929000D03*
%TO.P,DS1,10,ANODE_F_DIG_1234*%
%TO.N,Net-(DS1-ANODE_F_DIG_1234)*%
X139192000Y-66929000D03*
%TO.P,DS1,11,ANODE_A_DIG_1234*%
%TO.N,Net-(DS1-ANODE_A_DIG_1234)*%
X136652000Y-66929000D03*
%TO.P,DS1,12,COMMON_CATHODE_DIG_1*%
%TO.N,Net-(DS1-COMMON_CATHODE_DIG_1)*%
X134112000Y-66929000D03*
%TD*%
D10*
%TO.P,R8,1*%
%TO.N,Net-(U1-QH)*%
X73382500Y-80518000D03*
%TO.P,R8,2*%
%TO.N,Net-(DS1-ANODE_DP_DIG_1234)*%
X75207500Y-80518000D03*
%TD*%
D17*
%TO.N,GND*%
X71374000Y-82296000D03*
D18*
X59182000Y-73152000D03*
D17*
X142748000Y-76200000D03*
X103251000Y-75057000D03*
X123444000Y-75057000D03*
X85344000Y-76708000D03*
X67818000Y-82042000D03*
X123444000Y-82042000D03*
X146304000Y-72263000D03*
X78232000Y-82296000D03*
X137541000Y-69977000D03*
X83566000Y-77470000D03*
X103251000Y-82042000D03*
X65786000Y-81788000D03*
%TO.N,Net-(DS1-ANODE_E_DIG_1234)*%
X132715000Y-75819000D03*
%TO.N,Net-(DS1-ANODE_D_DIG_1234)*%
X79629000Y-74295000D03*
X136652000Y-76835000D03*
X94742000Y-76708000D03*
%TO.N,Net-(DS1-ANODE_DP_DIG_1234)*%
X78740000Y-80518000D03*
X139192000Y-77597000D03*
%TO.N,Net-(DS1-ANODE_C_DIG_1234)*%
X77978000Y-75692000D03*
X141732000Y-78994000D03*
%TO.N,Net-(DS1-ANODE_G_DIG_1234)*%
X81026000Y-77978000D03*
%TO.N,Net-(DS1-COMMON_CATHODE_DIG_4)*%
X84328000Y-71882000D03*
%TO.N,Net-(DS1-ANODE_B_DIG_1234)*%
X82042000Y-74422000D03*
%TO.N,Net-(DS1-COMMON_CATHODE_DIG_3)*%
X89154000Y-72771000D03*
%TO.N,Net-(DS1-COMMON_CATHODE_DIG_2)*%
X90932000Y-71374000D03*
%TO.N,Net-(DS1-ANODE_F_DIG_1234)*%
X94488000Y-68707000D03*
%TO.N,Net-(DS1-ANODE_A_DIG_1234)*%
X98425000Y-69977000D03*
X92710000Y-69977000D03*
%TO.N,Net-(DS1-COMMON_CATHODE_DIG_1)*%
X70993000Y-66167000D03*
%TO.N,Net-(DS2-COMMON_CATHODE_DIG_2)*%
X81534000Y-71882000D03*
%TO.N,Net-(J1-Pin_2)*%
X64262000Y-74422000D03*
%TO.N,Net-(J1-Pin_3)*%
X62611000Y-71374000D03*
%TO.N,Net-(U1-QH')*%
X63627000Y-68072000D03*
%TD*%
D19*
%TO.N,VCC*%
X61087000Y-80264000D02*
X61087000Y-78385500D01*
X56577000Y-81026000D02*
X60325000Y-81026000D01*
X61087000Y-78385500D02*
X61060500Y-78359000D01*
X61060500Y-78359000D02*
X61060500Y-76486500D01*
X60325000Y-81026000D02*
X61087000Y-80264000D01*
X61060500Y-76486500D02*
X61093000Y-76454000D01*
D20*
%TO.N,Net-(DS1-ANODE_E_DIG_1234)*%
X86868000Y-74930000D02*
X97028000Y-74930000D01*
X132080000Y-76454000D02*
X132715000Y-75819000D01*
X76708000Y-69596000D02*
X75207500Y-69596000D01*
X97028000Y-74930000D02*
X98552000Y-76454000D01*
X86106000Y-74930000D02*
X85090000Y-74930000D01*
X80264000Y-73152000D02*
X76708000Y-69596000D01*
X98552000Y-76454000D02*
X132080000Y-76454000D01*
X86868000Y-77216000D02*
X86868000Y-74930000D01*
X83312000Y-73152000D02*
X80264000Y-73152000D01*
X83185000Y-82169000D02*
X84582000Y-80772000D01*
X85090000Y-74930000D02*
X83312000Y-73152000D01*
X84582000Y-79502000D02*
X86868000Y-77216000D01*
X84582000Y-80772000D02*
X84582000Y-79502000D01*
X86106000Y-74930000D02*
X86868000Y-74930000D01*
%TO.N,Net-(DS1-ANODE_D_DIG_1234)*%
X86614000Y-81280000D02*
X85725000Y-82169000D01*
X89154000Y-76708000D02*
X86614000Y-79248000D01*
X77216000Y-71882000D02*
X75207500Y-71882000D01*
X86614000Y-79248000D02*
X86614000Y-81280000D01*
X94742000Y-76708000D02*
X89154000Y-76708000D01*
X94742000Y-76708000D02*
X95504000Y-77470000D01*
X95504000Y-77470000D02*
X135001000Y-77470000D01*
X135001000Y-77470000D02*
X135636000Y-76835000D01*
X135636000Y-76835000D02*
X136652000Y-76835000D01*
X79629000Y-74295000D02*
X77216000Y-71882000D01*
%TO.N,Net-(DS1-ANODE_DP_DIG_1234)*%
X88265000Y-80518000D02*
X88265000Y-82169000D01*
X139192000Y-77597000D02*
X138557000Y-77597000D01*
X88265000Y-80264000D02*
X88265000Y-80518000D01*
X90170000Y-78359000D02*
X88265000Y-80264000D01*
X138557000Y-77597000D02*
X137795000Y-78359000D01*
X75207500Y-80518000D02*
X78740000Y-80518000D01*
X137795000Y-78359000D02*
X90170000Y-78359000D01*
%TO.N,Net-(DS1-ANODE_C_DIG_1234)*%
X76454000Y-74168000D02*
X75207500Y-74168000D01*
X141732000Y-78994000D02*
X139827000Y-78994000D01*
X91948000Y-79375000D02*
X90932000Y-80391000D01*
X90805000Y-80518000D02*
X90805000Y-82169000D01*
X90932000Y-80391000D02*
X90805000Y-80518000D01*
X139446000Y-79375000D02*
X91948000Y-79375000D01*
X139827000Y-78994000D02*
X139446000Y-79375000D01*
X77978000Y-75692000D02*
X76454000Y-74168000D01*
%TO.N,Net-(DS1-ANODE_G_DIG_1234)*%
X75946000Y-78486000D02*
X75207500Y-78486000D01*
X76454000Y-78994000D02*
X75946000Y-78486000D01*
X80010000Y-78994000D02*
X76454000Y-78994000D01*
X93853000Y-80391000D02*
X93345000Y-80899000D01*
X143256000Y-80391000D02*
X93853000Y-80391000D01*
X81026000Y-77978000D02*
X80010000Y-78994000D01*
X144272000Y-82169000D02*
X144272000Y-81407000D01*
X144272000Y-81407000D02*
X143256000Y-80391000D01*
X93345000Y-80899000D02*
X93345000Y-82169000D01*
%TO.N,Net-(DS1-COMMON_CATHODE_DIG_4)*%
X146812000Y-76835000D02*
X146812000Y-82169000D01*
X96774000Y-73914000D02*
X97028000Y-73660000D01*
X84328000Y-71882000D02*
X86360000Y-73914000D01*
X86360000Y-73914000D02*
X96774000Y-73914000D01*
X143637000Y-73660000D02*
X146812000Y-76835000D01*
X97028000Y-73660000D02*
X143637000Y-73660000D01*
%TO.N,Net-(DS1-ANODE_B_DIG_1234)*%
X82042000Y-74422000D02*
X78740000Y-77724000D01*
X78740000Y-77724000D02*
X77216000Y-77724000D01*
X77216000Y-77724000D02*
X75819000Y-76327000D01*
X75819000Y-76327000D02*
X75207500Y-76327000D01*
%TO.N,Net-(DS1-COMMON_CATHODE_DIG_3)*%
X95758000Y-72517000D02*
X142240000Y-72517000D01*
X144272000Y-70485000D02*
X144272000Y-66929000D01*
X142240000Y-72517000D02*
X144272000Y-70485000D01*
X95504000Y-72771000D02*
X95758000Y-72517000D01*
X89154000Y-72771000D02*
X95504000Y-72771000D01*
%TO.N,Net-(DS1-COMMON_CATHODE_DIG_2)*%
X140335000Y-71374000D02*
X141732000Y-69977000D01*
X141732000Y-69977000D02*
X141732000Y-66929000D01*
X90932000Y-71374000D02*
X140335000Y-71374000D01*
%TO.N,Net-(DS1-ANODE_F_DIG_1234)*%
X139192000Y-68072000D02*
X139192000Y-66929000D01*
X88265000Y-66929000D02*
X88265000Y-67945000D01*
X87503000Y-68707000D02*
X79248000Y-68707000D01*
X77724000Y-67183000D02*
X75207500Y-67183000D01*
X138557000Y-68707000D02*
X139192000Y-68072000D01*
X94488000Y-68707000D02*
X138557000Y-68707000D01*
X88265000Y-67945000D02*
X87503000Y-68707000D01*
X79248000Y-68707000D02*
X77724000Y-67183000D01*
%TO.N,Net-(DS1-ANODE_A_DIG_1234)*%
X148463000Y-66421000D02*
X147447000Y-65405000D01*
X147447000Y-65405000D02*
X137033000Y-65405000D01*
X136652000Y-65786000D02*
X136652000Y-66929000D01*
X147828000Y-83820000D02*
X148463000Y-83185000D01*
X148463000Y-83185000D02*
X148463000Y-66421000D01*
X76223500Y-83820000D02*
X147828000Y-83820000D01*
X75207500Y-82804000D02*
X76223500Y-83820000D01*
X137033000Y-65405000D02*
X136652000Y-65786000D01*
X92710000Y-69977000D02*
X98425000Y-69977000D01*
%TO.N,Net-(DS1-COMMON_CATHODE_DIG_1)*%
X97409000Y-65405000D02*
X98933000Y-66929000D01*
X71755000Y-65405000D02*
X97409000Y-65405000D01*
X70993000Y-66167000D02*
X71755000Y-65405000D01*
X98933000Y-66929000D02*
X134112000Y-66929000D01*
%TO.N,Net-(DS2-COMMON_CATHODE_DIG_2)*%
X90805000Y-68580000D02*
X90805000Y-66929000D01*
X89408000Y-69977000D02*
X90805000Y-68580000D01*
X83439000Y-69977000D02*
X89408000Y-69977000D01*
X81534000Y-71882000D02*
X83439000Y-69977000D01*
%TO.N,Net-(J1-Pin_1)*%
X57404000Y-68834000D02*
X61093000Y-68834000D01*
X56577000Y-68326000D02*
X56896000Y-68326000D01*
X56896000Y-68326000D02*
X57404000Y-68834000D01*
%TO.N,Net-(J1-Pin_2)*%
X56577000Y-70866000D02*
X57531000Y-70866000D01*
X64262000Y-74422000D02*
X64262000Y-70739000D01*
X64262000Y-70739000D02*
X63627000Y-70104000D01*
X57531000Y-70866000D02*
X58293000Y-70104000D01*
X63627000Y-70104000D02*
X61093000Y-70104000D01*
X58293000Y-70104000D02*
X61093000Y-70104000D01*
%TO.N,Net-(J1-Pin_3)*%
X56642000Y-73406000D02*
X58674000Y-71374000D01*
X58674000Y-71374000D02*
X61093000Y-71374000D01*
X62611000Y-71374000D02*
X61093000Y-71374000D01*
%TO.N,Net-(J1-Pin_4)*%
X56577000Y-75946000D02*
X58166000Y-75946000D01*
X58166000Y-75946000D02*
X60198000Y-73914000D01*
X60198000Y-73914000D02*
X61093000Y-73914000D01*
%TO.N,Net-(U1-QA)*%
X62738000Y-76200000D02*
X62738000Y-81153000D01*
X65151000Y-83566000D02*
X72620500Y-83566000D01*
X62738000Y-81153000D02*
X65151000Y-83566000D01*
X61722000Y-75184000D02*
X62738000Y-76200000D01*
X72620500Y-83566000D02*
X73382500Y-82804000D01*
X61093000Y-75184000D02*
X61722000Y-75184000D01*
%TO.N,Net-(U1-QB)*%
X68193000Y-76454000D02*
X73255500Y-76454000D01*
X73255500Y-76454000D02*
X73382500Y-76327000D01*
%TO.N,Net-(U1-QC)*%
X72366500Y-75184000D02*
X73382500Y-74168000D01*
X68193000Y-75184000D02*
X72366500Y-75184000D01*
%TO.N,Net-(U1-QD)*%
X71350500Y-73914000D02*
X73382500Y-71882000D01*
X68193000Y-73914000D02*
X71350500Y-73914000D01*
%TO.N,Net-(U1-QE)*%
X73382500Y-69746500D02*
X73382500Y-69596000D01*
X68193000Y-72644000D02*
X70485000Y-72644000D01*
X70485000Y-72644000D02*
X73382500Y-69746500D01*
%TO.N,Net-(U1-QF)*%
X69342000Y-71374000D02*
X70358000Y-70358000D01*
X70358000Y-69596000D02*
X72771000Y-67183000D01*
X70358000Y-70358000D02*
X70358000Y-69596000D01*
X68193000Y-71374000D02*
X69342000Y-71374000D01*
X72771000Y-67183000D02*
X73382500Y-67183000D01*
%TO.N,Net-(U1-QG)*%
X68193000Y-70104000D02*
X67183000Y-70104000D01*
X66421000Y-77597000D02*
X67310000Y-78486000D01*
X67183000Y-70104000D02*
X66421000Y-70866000D01*
X66421000Y-70866000D02*
X66421000Y-77597000D01*
X67310000Y-78486000D02*
X73382500Y-78486000D01*
%TO.N,Net-(U1-QH)*%
X65532000Y-79375000D02*
X66675000Y-80518000D01*
X66294000Y-68834000D02*
X65532000Y-69596000D01*
X65532000Y-69596000D02*
X65532000Y-79375000D01*
X66675000Y-80518000D02*
X73382500Y-80518000D01*
X68193000Y-68834000D02*
X66294000Y-68834000D01*
%TO.N,Net-(U1-QH')*%
X63119000Y-67564000D02*
X61093000Y-67564000D01*
X63627000Y-68072000D02*
X63119000Y-67564000D01*
%TD*%
%TA.AperFunction,Conductor*%
%TO.N,GND*%
G36*
X149295039Y-64535685D02*
G01*
X149340794Y-64588489D01*
X149352000Y-64640000D01*
X149352000Y-84458000D01*
X149332315Y-84525039D01*
X149279511Y-84570794D01*
X149228000Y-84582000D01*
X148224993Y-84582000D01*
X148157954Y-84562315D01*
X148112199Y-84509511D01*
X148102255Y-84440353D01*
X148131280Y-84376797D01*
X148152104Y-84357685D01*
X148167060Y-84346818D01*
X148176830Y-84340400D01*
X148214418Y-84318171D01*
X148214417Y-84318171D01*
X148214420Y-84318170D01*
X148228585Y-84304004D01*
X148243373Y-84291373D01*
X148259587Y-84279594D01*
X148287438Y-84245926D01*
X148295279Y-84237309D01*
X148846786Y-83685802D01*
X148862886Y-83672905D01*
X148864874Y-83670787D01*
X148864877Y-83670786D01*
X148910964Y-83621707D01*
X148913549Y-83619039D01*
X148933120Y-83599470D01*
X148935565Y-83596316D01*
X148943154Y-83587429D01*
X148973062Y-83555582D01*
X148982713Y-83538026D01*
X148993393Y-83521767D01*
X149005674Y-83505936D01*
X149023018Y-83465851D01*
X149028160Y-83455356D01*
X149049197Y-83417092D01*
X149054178Y-83397688D01*
X149060480Y-83379283D01*
X149068438Y-83360895D01*
X149075270Y-83317748D01*
X149077639Y-83306316D01*
X149088500Y-83264020D01*
X149088500Y-83243983D01*
X149090027Y-83224584D01*
X149093160Y-83204803D01*
X149089050Y-83161335D01*
X149088499Y-83149662D01*
X149088499Y-74827216D01*
X149088499Y-66503733D01*
X149090764Y-66483238D01*
X149090556Y-66476628D01*
X149088561Y-66413126D01*
X149088500Y-66409231D01*
X149088500Y-66385540D01*
X149088500Y-66381650D01*
X149087998Y-66377677D01*
X149087080Y-66366018D01*
X149085709Y-66322373D01*
X149080120Y-66303140D01*
X149076174Y-66284082D01*
X149073664Y-66264206D01*
X149057588Y-66223604D01*
X149053804Y-66212553D01*
X149045098Y-66182589D01*
X149041618Y-66170610D01*
X149031414Y-66153355D01*
X149022861Y-66135895D01*
X149015486Y-66117269D01*
X149015486Y-66117268D01*
X148989808Y-66081925D01*
X148983401Y-66072171D01*
X148971066Y-66051314D01*
X148961170Y-66034580D01*
X148947006Y-66020416D01*
X148934367Y-66005617D01*
X148922595Y-65989413D01*
X148888941Y-65961573D01*
X148880299Y-65953709D01*
X147947802Y-65021211D01*
X147934906Y-65005113D01*
X147883775Y-64957098D01*
X147880978Y-64954387D01*
X147864227Y-64937636D01*
X147861471Y-64934880D01*
X147858290Y-64932412D01*
X147849422Y-64924837D01*
X147817582Y-64894938D01*
X147800024Y-64885285D01*
X147783764Y-64874604D01*
X147767936Y-64862327D01*
X147727851Y-64844980D01*
X147717361Y-64839841D01*
X147679091Y-64818802D01*
X147659691Y-64813821D01*
X147641284Y-64807519D01*
X147622897Y-64799562D01*
X147579758Y-64792729D01*
X147568324Y-64790361D01*
X147526019Y-64779500D01*
X147505984Y-64779500D01*
X147486586Y-64777973D01*
X147479162Y-64776797D01*
X147466805Y-64774840D01*
X147466804Y-64774840D01*
X147440495Y-64777327D01*
X147423325Y-64778950D01*
X147411656Y-64779500D01*
X137115740Y-64779500D01*
X137095236Y-64777236D01*
X137025144Y-64779439D01*
X137021250Y-64779500D01*
X136993650Y-64779500D01*
X136989789Y-64779987D01*
X136989778Y-64779988D01*
X136989645Y-64780005D01*
X136978029Y-64780918D01*
X136934368Y-64782290D01*
X136915129Y-64787880D01*
X136896080Y-64791825D01*
X136876208Y-64794335D01*
X136835593Y-64810415D01*
X136824549Y-64814196D01*
X136782611Y-64826382D01*
X136765364Y-64836581D01*
X136747900Y-64845136D01*
X136729267Y-64852514D01*
X136693926Y-64878189D01*
X136684168Y-64884599D01*
X136646579Y-64906829D01*
X136632410Y-64920998D01*
X136617622Y-64933628D01*
X136601413Y-64945405D01*
X136573572Y-64979058D01*
X136565711Y-64987696D01*
X136268208Y-65285199D01*
X136252110Y-65298096D01*
X136204096Y-65349225D01*
X136201392Y-65352016D01*
X136184628Y-65368780D01*
X136184621Y-65368787D01*
X136181880Y-65371529D01*
X136179499Y-65374597D01*
X136179490Y-65374608D01*
X136179411Y-65374711D01*
X136171842Y-65383572D01*
X136141935Y-65415420D01*
X136132285Y-65432974D01*
X136121609Y-65449228D01*
X136109326Y-65465063D01*
X136091975Y-65505158D01*
X136086838Y-65515644D01*
X136065802Y-65553907D01*
X136060821Y-65573309D01*
X136054520Y-65591711D01*
X136046561Y-65610102D01*
X136039728Y-65653242D01*
X136037360Y-65664674D01*
X136026500Y-65706977D01*
X136026500Y-65727016D01*
X136024973Y-65746414D01*
X136021840Y-65766194D01*
X136025950Y-65809673D01*
X136026500Y-65821343D01*
X136026500Y-66024714D01*
X136006815Y-66091753D01*
X135981165Y-66120567D01*
X135905590Y-66182589D01*
X135774314Y-66342551D01*
X135676769Y-66525043D01*
X135616699Y-66723067D01*
X135596417Y-66929000D01*
X135616699Y-67134932D01*
X135626500Y-67167240D01*
X135676768Y-67332954D01*
X135774315Y-67515450D01*
X135810186Y-67559159D01*
X135905589Y-67675410D01*
X135966040Y-67725020D01*
X136065550Y-67806685D01*
X136115315Y-67833285D01*
X136143110Y-67848142D01*
X136192955Y-67897104D01*
X136208415Y-67965242D01*
X136184583Y-68030922D01*
X136129026Y-68073290D01*
X136084657Y-68081500D01*
X134679343Y-68081500D01*
X134612304Y-68061815D01*
X134566549Y-68009011D01*
X134556605Y-67939853D01*
X134585630Y-67876297D01*
X134620890Y-67848142D01*
X134648685Y-67833285D01*
X134698450Y-67806685D01*
X134858410Y-67675410D01*
X134989685Y-67515450D01*
X135087232Y-67332954D01*
X135147300Y-67134934D01*
X135167583Y-66929000D01*
X135147300Y-66723066D01*
X135087232Y-66525046D01*
X134989685Y-66342550D01*
X134920432Y-66258165D01*
X134858410Y-66182589D01*
X134747724Y-66091753D01*
X134698450Y-66051315D01*
X134515954Y-65953768D01*
X134416944Y-65923733D01*
X134317932Y-65893699D01*
X134112000Y-65873417D01*
X133906067Y-65893699D01*
X133730692Y-65946898D01*
X133708241Y-65953709D01*
X133708043Y-65953769D01*
X133525551Y-66051314D01*
X133365589Y-66182590D01*
X133303567Y-66258165D01*
X133245821Y-66297499D01*
X133207714Y-66303500D01*
X99243453Y-66303500D01*
X99176414Y-66283815D01*
X99155772Y-66267181D01*
X97909802Y-65021211D01*
X97896906Y-65005113D01*
X97845775Y-64957098D01*
X97842978Y-64954387D01*
X97826227Y-64937636D01*
X97823471Y-64934880D01*
X97820290Y-64932412D01*
X97811422Y-64924837D01*
X97779582Y-64894938D01*
X97762024Y-64885285D01*
X97745764Y-64874604D01*
X97729936Y-64862327D01*
X97689851Y-64844980D01*
X97679361Y-64839841D01*
X97641091Y-64818802D01*
X97621691Y-64813821D01*
X97603284Y-64807519D01*
X97584897Y-64799562D01*
X97541758Y-64792729D01*
X97530324Y-64790361D01*
X97488019Y-64779500D01*
X97467984Y-64779500D01*
X97448586Y-64777973D01*
X97441162Y-64776797D01*
X97428805Y-64774840D01*
X97428804Y-64774840D01*
X97402495Y-64777327D01*
X97385325Y-64778950D01*
X97373656Y-64779500D01*
X71837744Y-64779500D01*
X71817236Y-64777235D01*
X71747113Y-64779439D01*
X71743219Y-64779500D01*
X71715650Y-64779500D01*
X71711794Y-64779986D01*
X71711791Y-64779987D01*
X71711735Y-64779994D01*
X71711662Y-64780003D01*
X71700043Y-64780917D01*
X71656372Y-64782289D01*
X71637128Y-64787880D01*
X71618084Y-64791824D01*
X71598208Y-64794335D01*
X71557600Y-64810413D01*
X71546554Y-64814194D01*
X71504610Y-64826382D01*
X71504607Y-64826383D01*
X71487365Y-64836579D01*
X71469904Y-64845133D01*
X71451267Y-64852512D01*
X71415931Y-64878185D01*
X71406174Y-64884595D01*
X71368580Y-64906829D01*
X71354413Y-64920996D01*
X71339624Y-64933626D01*
X71323413Y-64945404D01*
X71295572Y-64979058D01*
X71287713Y-64987696D01*
X71045227Y-65230182D01*
X70983907Y-65263666D01*
X70957548Y-65266500D01*
X70898352Y-65266500D01*
X70713197Y-65305855D01*
X70540269Y-65382848D01*
X70387129Y-65494110D01*
X70260466Y-65634783D01*
X70165820Y-65798715D01*
X70107326Y-65978742D01*
X70087540Y-66167000D01*
X70107326Y-66355257D01*
X70165820Y-66535284D01*
X70260466Y-66699216D01*
X70387129Y-66839889D01*
X70540269Y-66951151D01*
X70713197Y-67028144D01*
X70898352Y-67067500D01*
X70898354Y-67067500D01*
X71087648Y-67067500D01*
X71218977Y-67039585D01*
X71272803Y-67028144D01*
X71445730Y-66951151D01*
X71506759Y-66906811D01*
X71598870Y-66839889D01*
X71667333Y-66763854D01*
X71725533Y-66699216D01*
X71820179Y-66535284D01*
X71878674Y-66355256D01*
X71896321Y-66187344D01*
X71922904Y-66122734D01*
X71931962Y-66112627D01*
X71977774Y-66066817D01*
X72039098Y-66033333D01*
X72065453Y-66030500D01*
X72779136Y-66030500D01*
X72846175Y-66050185D01*
X72891930Y-66102989D01*
X72901874Y-66172147D01*
X72872849Y-66235703D01*
X72830496Y-66263961D01*
X72830819Y-66264484D01*
X72671647Y-66362661D01*
X72549659Y-66484649D01*
X72466388Y-66619653D01*
X72433760Y-66654856D01*
X72431951Y-66656171D01*
X72422163Y-66662602D01*
X72384580Y-66684828D01*
X72370410Y-66698998D01*
X72355622Y-66711628D01*
X72339413Y-66723405D01*
X72311572Y-66757058D01*
X72303711Y-66765696D01*
X69974208Y-69095199D01*
X69958110Y-69108096D01*
X69910096Y-69159225D01*
X69907392Y-69162016D01*
X69890628Y-69178780D01*
X69890621Y-69178787D01*
X69887880Y-69181529D01*
X69885499Y-69184597D01*
X69885490Y-69184608D01*
X69885411Y-69184711D01*
X69877842Y-69193572D01*
X69847935Y-69225420D01*
X69838285Y-69242974D01*
X69827609Y-69259228D01*
X69815326Y-69275063D01*
X69797975Y-69315158D01*
X69792838Y-69325644D01*
X69771802Y-69363907D01*
X69766821Y-69383309D01*
X69760520Y-69401711D01*
X69752561Y-69420102D01*
X69745728Y-69463242D01*
X69743360Y-69474674D01*
X69732499Y-69516977D01*
X69732500Y-69537016D01*
X69730973Y-69556414D01*
X69728251Y-69573604D01*
X69727840Y-69576196D01*
X69728605Y-69584288D01*
X69731950Y-69619673D01*
X69732500Y-69631343D01*
X69732500Y-70047546D01*
X69712815Y-70114585D01*
X69696181Y-70135227D01*
X69655180Y-70176228D01*
X69593857Y-70209713D01*
X69524165Y-70204729D01*
X69468232Y-70162857D01*
X69443815Y-70097393D01*
X69443499Y-70088547D01*
X69443499Y-69759439D01*
X69443499Y-69756128D01*
X69437091Y-69696517D01*
X69386796Y-69561669D01*
X69373053Y-69543311D01*
X69348635Y-69477850D01*
X69363485Y-69409576D01*
X69373050Y-69394691D01*
X69386796Y-69376331D01*
X69437091Y-69241483D01*
X69443500Y-69181873D01*
X69443499Y-68486128D01*
X69437091Y-68426517D01*
X69386796Y-68291669D01*
X69372740Y-68272892D01*
X69348323Y-68207430D01*
X69363174Y-68139157D01*
X69372742Y-68124270D01*
X69386353Y-68106088D01*
X69436599Y-67971373D01*
X69442645Y-67915132D01*
X69443000Y-67908518D01*
X69443000Y-67814000D01*
X66943000Y-67814000D01*
X66943000Y-67908518D01*
X66943354Y-67915132D01*
X66949400Y-67971373D01*
X66975432Y-68041167D01*
X66980416Y-68110859D01*
X66946931Y-68172182D01*
X66885607Y-68205666D01*
X66859250Y-68208500D01*
X66376744Y-68208500D01*
X66356236Y-68206235D01*
X66286113Y-68208439D01*
X66282219Y-68208500D01*
X66254650Y-68208500D01*
X66250794Y-68208986D01*
X66250791Y-68208987D01*
X66250735Y-68208994D01*
X66250662Y-68209003D01*
X66239043Y-68209917D01*
X66195372Y-68211289D01*
X66176128Y-68216880D01*
X66157084Y-68220824D01*
X66137208Y-68223335D01*
X66096600Y-68239413D01*
X66085554Y-68243194D01*
X66043610Y-68255382D01*
X66043607Y-68255383D01*
X66026365Y-68265579D01*
X66008904Y-68274133D01*
X65990267Y-68281512D01*
X65954931Y-68307185D01*
X65945174Y-68313595D01*
X65907580Y-68335829D01*
X65893413Y-68349996D01*
X65878624Y-68362626D01*
X65862413Y-68374404D01*
X65834572Y-68408058D01*
X65826711Y-68416697D01*
X65148208Y-69095199D01*
X65132110Y-69108096D01*
X65084096Y-69159225D01*
X65081392Y-69162016D01*
X65064628Y-69178780D01*
X65064621Y-69178787D01*
X65061880Y-69181529D01*
X65059499Y-69184597D01*
X65059490Y-69184608D01*
X65059411Y-69184711D01*
X65051842Y-69193572D01*
X65021935Y-69225420D01*
X65012285Y-69242974D01*
X65001609Y-69259228D01*
X64989326Y-69275063D01*
X64971975Y-69315158D01*
X64966838Y-69325644D01*
X64945802Y-69363907D01*
X64940821Y-69383309D01*
X64934520Y-69401711D01*
X64926561Y-69420102D01*
X64919728Y-69463242D01*
X64917360Y-69474674D01*
X64906500Y-69516977D01*
X64906500Y-69537016D01*
X64904973Y-69556414D01*
X64902251Y-69573604D01*
X64901840Y-69576196D01*
X64902605Y-69584288D01*
X64905950Y-69619673D01*
X64906500Y-69631343D01*
X64906500Y-70196866D01*
X64886815Y-70263905D01*
X64834011Y-70309660D01*
X64764853Y-70319604D01*
X64703464Y-70292413D01*
X64687944Y-70279575D01*
X64679299Y-70271709D01*
X64127802Y-69720211D01*
X64114906Y-69704113D01*
X64063775Y-69656098D01*
X64060978Y-69653387D01*
X64044227Y-69636636D01*
X64041471Y-69633880D01*
X64038290Y-69631412D01*
X64029422Y-69623837D01*
X63997582Y-69593938D01*
X63980024Y-69584285D01*
X63963764Y-69573604D01*
X63947936Y-69561327D01*
X63907851Y-69543980D01*
X63897361Y-69538841D01*
X63859091Y-69517802D01*
X63839691Y-69512821D01*
X63821284Y-69506519D01*
X63802897Y-69498562D01*
X63759758Y-69491729D01*
X63748324Y-69489361D01*
X63706019Y-69478500D01*
X63685984Y-69478500D01*
X63666586Y-69476973D01*
X63652070Y-69474674D01*
X63646805Y-69473840D01*
X63646804Y-69473840D01*
X63620495Y-69476327D01*
X63603325Y-69477950D01*
X63591656Y-69478500D01*
X62427283Y-69478500D01*
X62360244Y-69458815D01*
X62314489Y-69406011D01*
X62304545Y-69336853D01*
X62311101Y-69311167D01*
X62330377Y-69259485D01*
X62337091Y-69241483D01*
X62343500Y-69181873D01*
X62343499Y-68486128D01*
X62337091Y-68426517D01*
X62317654Y-68374404D01*
X62311101Y-68356833D01*
X62306117Y-68287141D01*
X62339602Y-68225818D01*
X62400926Y-68192334D01*
X62427283Y-68189500D01*
X62628245Y-68189500D01*
X62695284Y-68209185D01*
X62741039Y-68261989D01*
X62746174Y-68275178D01*
X62750062Y-68287141D01*
X62799820Y-68440284D01*
X62894466Y-68604216D01*
X63021129Y-68744889D01*
X63174269Y-68856151D01*
X63347197Y-68933144D01*
X63532352Y-68972500D01*
X63532354Y-68972500D01*
X63721648Y-68972500D01*
X63845084Y-68946262D01*
X63906803Y-68933144D01*
X64079730Y-68856151D01*
X64180091Y-68783235D01*
X64232870Y-68744889D01*
X64359533Y-68604216D01*
X64454179Y-68440284D01*
X64473189Y-68381777D01*
X64512674Y-68260256D01*
X64532460Y-68072000D01*
X64512674Y-67883744D01*
X64461101Y-67725020D01*
X64454179Y-67703715D01*
X64359533Y-67539783D01*
X64232870Y-67399110D01*
X64115725Y-67314000D01*
X66943000Y-67314000D01*
X67943000Y-67314000D01*
X67943000Y-66764000D01*
X68443000Y-66764000D01*
X68443000Y-67314000D01*
X69443000Y-67314000D01*
X69443000Y-67219481D01*
X69442645Y-67212867D01*
X69436599Y-67156628D01*
X69386352Y-67021910D01*
X69300188Y-66906811D01*
X69185089Y-66820647D01*
X69050371Y-66770400D01*
X68994132Y-66764354D01*
X68987518Y-66764000D01*
X68443000Y-66764000D01*
X67943000Y-66764000D01*
X67398482Y-66764000D01*
X67391867Y-66764354D01*
X67335628Y-66770400D01*
X67200910Y-66820647D01*
X67085811Y-66906811D01*
X66999647Y-67021910D01*
X66949400Y-67156628D01*
X66943354Y-67212867D01*
X66943000Y-67219481D01*
X66943000Y-67314000D01*
X64115725Y-67314000D01*
X64079730Y-67287848D01*
X63906802Y-67210855D01*
X63721648Y-67171500D01*
X63721646Y-67171500D01*
X63663867Y-67171500D01*
X63596828Y-67151815D01*
X63578983Y-67137892D01*
X63555775Y-67116098D01*
X63552978Y-67113387D01*
X63536227Y-67096636D01*
X63533471Y-67093880D01*
X63530290Y-67091412D01*
X63521422Y-67083837D01*
X63489582Y-67053938D01*
X63472024Y-67044285D01*
X63455764Y-67033604D01*
X63439936Y-67021327D01*
X63399851Y-67003980D01*
X63389361Y-66998841D01*
X63351091Y-66977802D01*
X63331691Y-66972821D01*
X63313284Y-66966519D01*
X63294897Y-66958562D01*
X63251758Y-66951729D01*
X63240324Y-66949361D01*
X63198019Y-66938500D01*
X63177984Y-66938500D01*
X63158586Y-66936973D01*
X63151162Y-66935797D01*
X63138805Y-66933840D01*
X63138804Y-66933840D01*
X63105751Y-66936964D01*
X63095325Y-66937950D01*
X63083656Y-66938500D01*
X62284625Y-66938500D01*
X62217586Y-66918815D01*
X62210314Y-66913767D01*
X62200547Y-66906455D01*
X62200546Y-66906454D01*
X62085331Y-66820204D01*
X61950483Y-66769909D01*
X61898816Y-66764354D01*
X61894166Y-66763854D01*
X61894165Y-66763853D01*
X61890873Y-66763500D01*
X61887550Y-66763500D01*
X60298439Y-66763500D01*
X60298420Y-66763500D01*
X60295128Y-66763501D01*
X60291848Y-66763853D01*
X60291840Y-66763854D01*
X60235515Y-66769909D01*
X60100669Y-66820204D01*
X59985454Y-66906454D01*
X59899204Y-67021668D01*
X59850607Y-67151965D01*
X59848909Y-67156517D01*
X59842500Y-67216127D01*
X59842500Y-67219448D01*
X59842500Y-67219449D01*
X59842500Y-67908560D01*
X59842500Y-67908578D01*
X59842501Y-67911872D01*
X59842853Y-67915152D01*
X59842854Y-67915159D01*
X59843681Y-67922849D01*
X59848909Y-67971483D01*
X59874900Y-68041169D01*
X59879884Y-68110858D01*
X59846400Y-68172181D01*
X59785076Y-68205666D01*
X59758718Y-68208500D01*
X58116499Y-68208500D01*
X58049460Y-68188815D01*
X58003705Y-68136011D01*
X57992499Y-68084500D01*
X57992499Y-67431439D01*
X57992499Y-67428128D01*
X57986091Y-67368517D01*
X57935796Y-67233669D01*
X57849546Y-67118454D01*
X57734331Y-67032204D01*
X57599483Y-66981909D01*
X57539873Y-66975500D01*
X57536550Y-66975500D01*
X55747439Y-66975500D01*
X55747420Y-66975500D01*
X55744128Y-66975501D01*
X55740848Y-66975853D01*
X55740840Y-66975854D01*
X55684515Y-66981909D01*
X55549669Y-67032204D01*
X55434454Y-67118454D01*
X55348204Y-67233669D01*
X55299189Y-67365083D01*
X55257317Y-67421016D01*
X55191852Y-67445433D01*
X55123580Y-67430581D01*
X55095326Y-67409430D01*
X54973404Y-67287508D01*
X54973403Y-67287508D01*
X54973401Y-67287505D01*
X54779830Y-67151965D01*
X54565663Y-67052097D01*
X54496645Y-67033604D01*
X54337407Y-66990936D01*
X54102000Y-66970340D01*
X53866592Y-66990936D01*
X53638336Y-67052097D01*
X53424170Y-67151965D01*
X53230598Y-67287505D01*
X53063505Y-67454598D01*
X52927965Y-67648170D01*
X52828097Y-67862336D01*
X52766936Y-68090592D01*
X52746340Y-68326000D01*
X52766936Y-68561407D01*
X52805948Y-68707000D01*
X52828097Y-68789663D01*
X52927965Y-69003830D01*
X53063505Y-69197401D01*
X53230599Y-69364495D01*
X53416160Y-69494426D01*
X53459783Y-69549002D01*
X53466976Y-69618501D01*
X53435454Y-69680855D01*
X53416158Y-69697575D01*
X53243073Y-69818771D01*
X53230595Y-69827508D01*
X53063505Y-69994598D01*
X52927965Y-70188170D01*
X52828097Y-70402336D01*
X52766936Y-70630592D01*
X52746340Y-70866000D01*
X52766936Y-71101407D01*
X52795795Y-71209110D01*
X52828097Y-71329663D01*
X52927965Y-71543830D01*
X53063505Y-71737401D01*
X53230599Y-71904495D01*
X53416160Y-72034426D01*
X53459783Y-72089002D01*
X53466976Y-72158501D01*
X53435454Y-72220855D01*
X53416158Y-72237575D01*
X53252449Y-72352206D01*
X53230595Y-72367508D01*
X53063505Y-72534598D01*
X52927965Y-72728170D01*
X52828097Y-72942336D01*
X52766936Y-73170592D01*
X52746340Y-73406000D01*
X52766936Y-73641407D01*
X52800354Y-73766123D01*
X52828097Y-73869663D01*
X52927965Y-74083830D01*
X53063505Y-74277401D01*
X53230599Y-74444495D01*
X53416160Y-74574426D01*
X53459783Y-74629002D01*
X53466976Y-74698501D01*
X53435454Y-74760855D01*
X53416159Y-74777575D01*
X53230595Y-74907508D01*
X53063505Y-75074598D01*
X52927965Y-75268170D01*
X52828097Y-75482336D01*
X52766936Y-75710592D01*
X52746340Y-75945999D01*
X52766936Y-76181407D01*
X52794027Y-76282512D01*
X52828097Y-76409663D01*
X52927965Y-76623830D01*
X53063505Y-76817401D01*
X53230599Y-76984495D01*
X53416596Y-77114732D01*
X53460219Y-77169307D01*
X53467412Y-77238806D01*
X53435890Y-77301160D01*
X53416595Y-77317880D01*
X53230919Y-77447892D01*
X53063890Y-77614921D01*
X52928400Y-77808421D01*
X52828569Y-78022507D01*
X52771364Y-78235999D01*
X52771364Y-78236000D01*
X53668314Y-78236000D01*
X53642507Y-78276156D01*
X53602000Y-78414111D01*
X53602000Y-78557889D01*
X53642507Y-78695844D01*
X53668314Y-78736000D01*
X52771364Y-78736000D01*
X52828569Y-78949492D01*
X52928399Y-79163576D01*
X53063893Y-79357081D01*
X53230918Y-79524106D01*
X53416595Y-79654119D01*
X53460219Y-79708696D01*
X53467412Y-79778195D01*
X53435890Y-79840549D01*
X53416595Y-79857269D01*
X53294019Y-79943098D01*
X53233059Y-79985783D01*
X53230595Y-79987508D01*
X53063505Y-80154598D01*
X52927965Y-80348170D01*
X52828097Y-80562336D01*
X52766936Y-80790592D01*
X52746340Y-81025999D01*
X52766936Y-81261407D01*
X52804981Y-81403391D01*
X52828097Y-81489663D01*
X52927965Y-81703830D01*
X53063505Y-81897401D01*
X53230599Y-82064495D01*
X53424170Y-82200035D01*
X53638337Y-82299903D01*
X53866592Y-82361063D01*
X54101999Y-82381659D01*
X54101999Y-82381658D01*
X54102000Y-82381659D01*
X54337408Y-82361063D01*
X54565663Y-82299903D01*
X54779830Y-82200035D01*
X54973401Y-82064495D01*
X55140495Y-81897401D01*
X55270426Y-81711839D01*
X55325002Y-81668216D01*
X55394500Y-81661022D01*
X55456855Y-81692545D01*
X55473571Y-81711837D01*
X55603505Y-81897401D01*
X55770599Y-82064495D01*
X55964170Y-82200035D01*
X56178337Y-82299903D01*
X56406592Y-82361063D01*
X56642000Y-82381659D01*
X56877408Y-82361063D01*
X57105663Y-82299903D01*
X57319830Y-82200035D01*
X57513401Y-82064495D01*
X57680495Y-81897401D01*
X57728127Y-81829374D01*
X57782703Y-81785751D01*
X57829701Y-81776500D01*
X60261294Y-81776500D01*
X60279264Y-81777809D01*
X60283320Y-81778402D01*
X60303023Y-81781289D01*
X60352368Y-81776972D01*
X60363176Y-81776500D01*
X60365100Y-81776500D01*
X60368709Y-81776500D01*
X60399550Y-81772894D01*
X60403031Y-81772539D01*
X60477797Y-81765999D01*
X60477797Y-81765998D01*
X60479052Y-81765889D01*
X60498062Y-81761674D01*
X60499250Y-81761241D01*
X60499255Y-81761241D01*
X60569820Y-81735557D01*
X60573095Y-81734419D01*
X60644334Y-81710814D01*
X60644336Y-81710812D01*
X60645536Y-81710415D01*
X60663063Y-81701929D01*
X60664112Y-81701238D01*
X60664117Y-81701237D01*
X60726806Y-81660005D01*
X60729798Y-81658099D01*
X60793656Y-81618712D01*
X60793656Y-81618711D01*
X60794729Y-81618050D01*
X60809824Y-81605753D01*
X60810692Y-81604832D01*
X60810696Y-81604830D01*
X60862184Y-81550254D01*
X60864630Y-81547736D01*
X61572642Y-80839724D01*
X61586260Y-80827954D01*
X61605530Y-80813610D01*
X61637366Y-80775667D01*
X61644680Y-80767688D01*
X61645264Y-80767103D01*
X61648591Y-80763777D01*
X61667833Y-80739439D01*
X61670090Y-80736670D01*
X61684853Y-80719075D01*
X61718302Y-80679214D01*
X61718303Y-80679211D01*
X61719115Y-80678244D01*
X61729573Y-80661827D01*
X61730106Y-80660682D01*
X61730111Y-80660677D01*
X61761833Y-80592646D01*
X61763362Y-80589488D01*
X61797040Y-80522433D01*
X61797040Y-80522432D01*
X61797612Y-80521294D01*
X61804000Y-80502915D01*
X61804255Y-80501675D01*
X61804257Y-80501673D01*
X61819435Y-80428157D01*
X61820200Y-80424708D01*
X61837500Y-80351721D01*
X61837500Y-80351718D01*
X61837791Y-80350491D01*
X61839770Y-80331114D01*
X61839733Y-80329857D01*
X61839734Y-80329855D01*
X61837551Y-80254902D01*
X61837499Y-80251294D01*
X61837499Y-79708696D01*
X61837499Y-79214548D01*
X61857184Y-79147513D01*
X61873813Y-79126875D01*
X61900821Y-79099868D01*
X61962144Y-79066385D01*
X62031836Y-79071371D01*
X62087768Y-79113243D01*
X62112184Y-79178708D01*
X62112500Y-79187552D01*
X62112500Y-81070256D01*
X62110235Y-81090766D01*
X62112439Y-81160872D01*
X62112500Y-81164767D01*
X62112500Y-81192350D01*
X62112988Y-81196219D01*
X62112989Y-81196225D01*
X62113004Y-81196343D01*
X62113918Y-81207967D01*
X62115290Y-81251626D01*
X62120879Y-81270860D01*
X62124825Y-81289916D01*
X62127335Y-81309792D01*
X62143414Y-81350404D01*
X62147197Y-81361451D01*
X62159382Y-81403391D01*
X62169580Y-81420635D01*
X62178136Y-81438100D01*
X62185514Y-81456732D01*
X62185515Y-81456733D01*
X62211180Y-81492059D01*
X62217593Y-81501822D01*
X62239826Y-81539416D01*
X62239829Y-81539419D01*
X62239830Y-81539420D01*
X62253995Y-81553585D01*
X62266627Y-81568375D01*
X62278406Y-81584587D01*
X62312058Y-81612426D01*
X62320699Y-81620289D01*
X64650196Y-83949787D01*
X64663096Y-83965888D01*
X64714223Y-84013900D01*
X64717020Y-84016611D01*
X64736529Y-84036120D01*
X64739709Y-84038587D01*
X64748571Y-84046155D01*
X64780418Y-84076062D01*
X64797970Y-84085711D01*
X64814238Y-84096397D01*
X64830064Y-84108673D01*
X64870146Y-84126017D01*
X64880633Y-84131155D01*
X64918907Y-84152197D01*
X64927410Y-84154379D01*
X64938308Y-84157178D01*
X64956713Y-84163478D01*
X64975104Y-84171437D01*
X65018250Y-84178270D01*
X65029668Y-84180635D01*
X65071981Y-84191500D01*
X65092016Y-84191500D01*
X65111415Y-84193027D01*
X65131196Y-84196160D01*
X65174674Y-84192050D01*
X65186344Y-84191500D01*
X72537756Y-84191500D01*
X72558262Y-84193764D01*
X72561165Y-84193672D01*
X72561167Y-84193673D01*
X72628372Y-84191561D01*
X72632268Y-84191500D01*
X72655948Y-84191500D01*
X72659850Y-84191500D01*
X72663813Y-84190999D01*
X72675462Y-84190080D01*
X72719127Y-84188709D01*
X72738359Y-84183120D01*
X72757418Y-84179174D01*
X72764599Y-84178267D01*
X72777292Y-84176664D01*
X72817907Y-84160582D01*
X72828944Y-84156803D01*
X72870890Y-84144618D01*
X72888129Y-84134422D01*
X72905602Y-84125862D01*
X72924232Y-84118486D01*
X72959564Y-84092814D01*
X72969330Y-84086400D01*
X73006918Y-84064171D01*
X73006917Y-84064171D01*
X73006920Y-84064170D01*
X73021085Y-84050004D01*
X73035873Y-84037373D01*
X73052087Y-84025594D01*
X73079938Y-83991926D01*
X73087769Y-83983319D01*
X73255273Y-83815815D01*
X73316594Y-83782333D01*
X73342952Y-83779499D01*
X73678527Y-83779499D01*
X73681676Y-83779499D01*
X73782753Y-83769174D01*
X73946516Y-83714908D01*
X74093350Y-83624340D01*
X74130273Y-83587417D01*
X74207319Y-83510372D01*
X74268642Y-83476887D01*
X74338334Y-83481871D01*
X74382681Y-83510372D01*
X74496647Y-83624338D01*
X74643484Y-83714908D01*
X74807246Y-83769174D01*
X74905190Y-83779180D01*
X74905191Y-83779180D01*
X74908323Y-83779500D01*
X75247046Y-83779499D01*
X75314085Y-83799183D01*
X75334727Y-83815818D01*
X75722696Y-84203787D01*
X75735596Y-84219888D01*
X75786723Y-84267900D01*
X75789520Y-84270611D01*
X75809029Y-84290120D01*
X75812209Y-84292587D01*
X75821071Y-84300155D01*
X75852918Y-84330062D01*
X75870472Y-84339712D01*
X75886738Y-84350397D01*
X75899146Y-84360022D01*
X75940052Y-84416666D01*
X75943840Y-84486433D01*
X75909308Y-84547172D01*
X75847420Y-84579601D01*
X75823144Y-84582000D01*
X50162000Y-84582000D01*
X50094961Y-84562315D01*
X50049206Y-84509511D01*
X50038000Y-84458000D01*
X50038000Y-64640000D01*
X50057685Y-64572961D01*
X50110489Y-64527206D01*
X50162000Y-64516000D01*
X149228000Y-64516000D01*
X149295039Y-64535685D01*
G37*
%TD.AperFunction*%
%TA.AperFunction,Conductor*%
G36*
X63589151Y-71764085D02*
G01*
X63629680Y-71820999D01*
X63636500Y-71861556D01*
X63636499Y-73723312D01*
X63616814Y-73790352D01*
X63604650Y-73806284D01*
X63529464Y-73889786D01*
X63434820Y-74053715D01*
X63376326Y-74233742D01*
X63360184Y-74387327D01*
X63356540Y-74422000D01*
X63362254Y-74476368D01*
X63376326Y-74610257D01*
X63434820Y-74790284D01*
X63529466Y-74954216D01*
X63656129Y-75094889D01*
X63809269Y-75206151D01*
X63982197Y-75283144D01*
X64167352Y-75322500D01*
X64167354Y-75322500D01*
X64356648Y-75322500D01*
X64480084Y-75296262D01*
X64541803Y-75283144D01*
X64620955Y-75247903D01*
X64726636Y-75200851D01*
X64727767Y-75203392D01*
X64775416Y-75186389D01*
X64843471Y-75202211D01*
X64892167Y-75252315D01*
X64906500Y-75310186D01*
X64906500Y-79292256D01*
X64904235Y-79312766D01*
X64906439Y-79382872D01*
X64906500Y-79386767D01*
X64906500Y-79414350D01*
X64906988Y-79418219D01*
X64906989Y-79418225D01*
X64907004Y-79418343D01*
X64907918Y-79429967D01*
X64909290Y-79473626D01*
X64913068Y-79486627D01*
X64914678Y-79492170D01*
X64914879Y-79492860D01*
X64918825Y-79511916D01*
X64921335Y-79531792D01*
X64937414Y-79572404D01*
X64941197Y-79583451D01*
X64953382Y-79625391D01*
X64963580Y-79642635D01*
X64972136Y-79660100D01*
X64979514Y-79678732D01*
X64979515Y-79678733D01*
X65005180Y-79714059D01*
X65011593Y-79723822D01*
X65033826Y-79761416D01*
X65033829Y-79761419D01*
X65033830Y-79761420D01*
X65047995Y-79775585D01*
X65060627Y-79790375D01*
X65072406Y-79806587D01*
X65106058Y-79834426D01*
X65114699Y-79842289D01*
X66174196Y-80901787D01*
X66187096Y-80917888D01*
X66238223Y-80965900D01*
X66241020Y-80968611D01*
X66260529Y-80988120D01*
X66263709Y-80990587D01*
X66272571Y-80998155D01*
X66302221Y-81025999D01*
X66304418Y-81028062D01*
X66321970Y-81037711D01*
X66338238Y-81048397D01*
X66354064Y-81060673D01*
X66394146Y-81078017D01*
X66404633Y-81083155D01*
X66442907Y-81104197D01*
X66451410Y-81106379D01*
X66462308Y-81109178D01*
X66480713Y-81115478D01*
X66499104Y-81123437D01*
X66542250Y-81130270D01*
X66553668Y-81132635D01*
X66595981Y-81143500D01*
X66616016Y-81143500D01*
X66635415Y-81145027D01*
X66655196Y-81148160D01*
X66698674Y-81144050D01*
X66710344Y-81143500D01*
X72435519Y-81143500D01*
X72502558Y-81163185D01*
X72541058Y-81202404D01*
X72544489Y-81207967D01*
X72549661Y-81216352D01*
X72671647Y-81338338D01*
X72671649Y-81338339D01*
X72671650Y-81338340D01*
X72691209Y-81350404D01*
X72818484Y-81428908D01*
X72982246Y-81483174D01*
X73080190Y-81493180D01*
X73080191Y-81493180D01*
X73083323Y-81493500D01*
X73681676Y-81493499D01*
X73782753Y-81483174D01*
X73946516Y-81428908D01*
X74093350Y-81338340D01*
X74141774Y-81289916D01*
X74207319Y-81224372D01*
X74268642Y-81190887D01*
X74338334Y-81195871D01*
X74382681Y-81224372D01*
X74496647Y-81338338D01*
X74496649Y-81338339D01*
X74496650Y-81338340D01*
X74516209Y-81350404D01*
X74643484Y-81428908D01*
X74807246Y-81483174D01*
X74905190Y-81493180D01*
X74905191Y-81493180D01*
X74908323Y-81493500D01*
X75506676Y-81493499D01*
X75607753Y-81483174D01*
X75771516Y-81428908D01*
X75918350Y-81338340D01*
X76040340Y-81216350D01*
X76048941Y-81202404D01*
X76100889Y-81155679D01*
X76154481Y-81143500D01*
X78036253Y-81143500D01*
X78103292Y-81163185D01*
X78128400Y-81184526D01*
X78134129Y-81190888D01*
X78287270Y-81302151D01*
X78287271Y-81302151D01*
X78287272Y-81302152D01*
X78460197Y-81379144D01*
X78645352Y-81418500D01*
X78645354Y-81418500D01*
X78834648Y-81418500D01*
X78958083Y-81392262D01*
X79019803Y-81379144D01*
X79192730Y-81302151D01*
X79222898Y-81280233D01*
X79345870Y-81190889D01*
X79351598Y-81184528D01*
X79472533Y-81050216D01*
X79567179Y-80886284D01*
X79625674Y-80706256D01*
X79645460Y-80518000D01*
X79625674Y-80329744D01*
X79590868Y-80222623D01*
X79567179Y-80149715D01*
X79472533Y-79985783D01*
X79345871Y-79845112D01*
X79344090Y-79843818D01*
X79340415Y-79839052D01*
X79337150Y-79835426D01*
X79337426Y-79835176D01*
X79301425Y-79788488D01*
X79295446Y-79718874D01*
X79328052Y-79657079D01*
X79388891Y-79622722D01*
X79416976Y-79619500D01*
X79927256Y-79619500D01*
X79947762Y-79621764D01*
X79950665Y-79621672D01*
X79950667Y-79621673D01*
X80017872Y-79619561D01*
X80021768Y-79619500D01*
X80045448Y-79619500D01*
X80049350Y-79619500D01*
X80053313Y-79618999D01*
X80064962Y-79618080D01*
X80108627Y-79616709D01*
X80127859Y-79611120D01*
X80146918Y-79607174D01*
X80154099Y-79606267D01*
X80166792Y-79604664D01*
X80207407Y-79588582D01*
X80218444Y-79584803D01*
X80260390Y-79572618D01*
X80277629Y-79562422D01*
X80295102Y-79553862D01*
X80313732Y-79546486D01*
X80349064Y-79520814D01*
X80358830Y-79514400D01*
X80396418Y-79492171D01*
X80396417Y-79492171D01*
X80396420Y-79492170D01*
X80410585Y-79478004D01*
X80425373Y-79465373D01*
X80441587Y-79453594D01*
X80469438Y-79419926D01*
X80477269Y-79411319D01*
X80973773Y-78914816D01*
X81035095Y-78881334D01*
X81061453Y-78878500D01*
X81120648Y-78878500D01*
X81295570Y-78841319D01*
X81305803Y-78839144D01*
X81478730Y-78762151D01*
X81551637Y-78709181D01*
X81631870Y-78650889D01*
X81758533Y-78510216D01*
X81853179Y-78346284D01*
X81861358Y-78321112D01*
X81911674Y-78166256D01*
X81931460Y-77978000D01*
X81911674Y-77789744D01*
X81871357Y-77665661D01*
X81853179Y-77609715D01*
X81758533Y-77445783D01*
X81631870Y-77305110D01*
X81478730Y-77193848D01*
X81305802Y-77116855D01*
X81120648Y-77077500D01*
X81120646Y-77077500D01*
X80931354Y-77077500D01*
X80931352Y-77077500D01*
X80746197Y-77116855D01*
X80573269Y-77193848D01*
X80420129Y-77305110D01*
X80293466Y-77445783D01*
X80198820Y-77609715D01*
X80140326Y-77789742D01*
X80135504Y-77835622D01*
X80125264Y-77933058D01*
X80122679Y-77957650D01*
X80096094Y-78022264D01*
X80087039Y-78032369D01*
X79787228Y-78332181D01*
X79725905Y-78365666D01*
X79699547Y-78368500D01*
X79282133Y-78368500D01*
X79215094Y-78348815D01*
X79169339Y-78296011D01*
X79159395Y-78226853D01*
X79186583Y-78165467D01*
X79195074Y-78155202D01*
X79199431Y-78149934D01*
X79207279Y-78141309D01*
X81989771Y-75358819D01*
X82051095Y-75325334D01*
X82077453Y-75322500D01*
X82136648Y-75322500D01*
X82260084Y-75296262D01*
X82321803Y-75283144D01*
X82494730Y-75206151D01*
X82580962Y-75143500D01*
X82647870Y-75094889D01*
X82701931Y-75034849D01*
X82774533Y-74954216D01*
X82869179Y-74790284D01*
X82927674Y-74610256D01*
X82947460Y-74422000D01*
X82927674Y-74233744D01*
X82886408Y-74106742D01*
X82869179Y-74053715D01*
X82817093Y-73963500D01*
X82800620Y-73895600D01*
X82823472Y-73829573D01*
X82878394Y-73786382D01*
X82924480Y-73777500D01*
X83001548Y-73777500D01*
X83068587Y-73797185D01*
X83089229Y-73813819D01*
X84589197Y-75313787D01*
X84602098Y-75329889D01*
X84604212Y-75331874D01*
X84604214Y-75331877D01*
X84640306Y-75365770D01*
X84653240Y-75377916D01*
X84656036Y-75380626D01*
X84675530Y-75400120D01*
X84678615Y-75402513D01*
X84678701Y-75402580D01*
X84687573Y-75410158D01*
X84719418Y-75440062D01*
X84736974Y-75449714D01*
X84753231Y-75460392D01*
X84769064Y-75472674D01*
X84785185Y-75479649D01*
X84809156Y-75490023D01*
X84819643Y-75495160D01*
X84857908Y-75516197D01*
X84877316Y-75521180D01*
X84895710Y-75527478D01*
X84914105Y-75535438D01*
X84957254Y-75542271D01*
X84968680Y-75544638D01*
X84984222Y-75548629D01*
X85010980Y-75555500D01*
X85010981Y-75555500D01*
X85031016Y-75555500D01*
X85050413Y-75557026D01*
X85070196Y-75560160D01*
X85113674Y-75556050D01*
X85125344Y-75555500D01*
X86026981Y-75555500D01*
X86118500Y-75555500D01*
X86185539Y-75575185D01*
X86231294Y-75627989D01*
X86242500Y-75679500D01*
X86242500Y-76905546D01*
X86222815Y-76972585D01*
X86206181Y-76993227D01*
X84198208Y-79001199D01*
X84182110Y-79014096D01*
X84134096Y-79065225D01*
X84131392Y-79068016D01*
X84114628Y-79084780D01*
X84114621Y-79084787D01*
X84111880Y-79087529D01*
X84109499Y-79090597D01*
X84109490Y-79090608D01*
X84109411Y-79090711D01*
X84101842Y-79099572D01*
X84071935Y-79131420D01*
X84062285Y-79148974D01*
X84051609Y-79165228D01*
X84039326Y-79181063D01*
X84021975Y-79221158D01*
X84016838Y-79231644D01*
X83995802Y-79269907D01*
X83990821Y-79289309D01*
X83984520Y-79307711D01*
X83976561Y-79326102D01*
X83969728Y-79369242D01*
X83967360Y-79380674D01*
X83956499Y-79422977D01*
X83956500Y-79443016D01*
X83954973Y-79462414D01*
X83952503Y-79478012D01*
X83951840Y-79482196D01*
X83954819Y-79513711D01*
X83955950Y-79525673D01*
X83956500Y-79537343D01*
X83956500Y-80461546D01*
X83936815Y-80528585D01*
X83920181Y-80549227D01*
X83387226Y-81082181D01*
X83325903Y-81115666D01*
X83299545Y-81118500D01*
X82590439Y-81118500D01*
X82590420Y-81118500D01*
X82587128Y-81118501D01*
X82583848Y-81118853D01*
X82583840Y-81118854D01*
X82527515Y-81124909D01*
X82392669Y-81175204D01*
X82277454Y-81261454D01*
X82191204Y-81376668D01*
X82140909Y-81511516D01*
X82136498Y-81552548D01*
X82134500Y-81571127D01*
X82134500Y-81574448D01*
X82134500Y-81574449D01*
X82134500Y-82763560D01*
X82134500Y-82763578D01*
X82134501Y-82766872D01*
X82134853Y-82770152D01*
X82134854Y-82770159D01*
X82140909Y-82826484D01*
X82191204Y-82961332D01*
X82217299Y-82996190D01*
X82241716Y-83061654D01*
X82226864Y-83129927D01*
X82177459Y-83179332D01*
X82118032Y-83194500D01*
X76533952Y-83194500D01*
X76466913Y-83174815D01*
X76446271Y-83158181D01*
X76231818Y-82943728D01*
X76198333Y-82882405D01*
X76195499Y-82856047D01*
X76195499Y-82520472D01*
X76195499Y-82520471D01*
X76195499Y-82517324D01*
X76185174Y-82416247D01*
X76130908Y-82252484D01*
X76040340Y-82105650D01*
X76040339Y-82105649D01*
X76040338Y-82105647D01*
X75918352Y-81983661D01*
X75771515Y-81893091D01*
X75607753Y-81838825D01*
X75509809Y-81828819D01*
X75509790Y-81828818D01*
X75506677Y-81828500D01*
X75503528Y-81828500D01*
X74911473Y-81828500D01*
X74911453Y-81828500D01*
X74908324Y-81828501D01*
X74905192Y-81828820D01*
X74905190Y-81828821D01*
X74807247Y-81838825D01*
X74643484Y-81893091D01*
X74496647Y-81983661D01*
X74382681Y-82097628D01*
X74321358Y-82131113D01*
X74251666Y-82126129D01*
X74207319Y-82097628D01*
X74093352Y-81983661D01*
X73946515Y-81893091D01*
X73782753Y-81838825D01*
X73684809Y-81828819D01*
X73684790Y-81828818D01*
X73681677Y-81828500D01*
X73678528Y-81828500D01*
X73086473Y-81828500D01*
X73086453Y-81828500D01*
X73083324Y-81828501D01*
X73080192Y-81828820D01*
X73080190Y-81828821D01*
X72982247Y-81838825D01*
X72818484Y-81893091D01*
X72671647Y-81983661D01*
X72549661Y-82105647D01*
X72459091Y-82252484D01*
X72404825Y-82416246D01*
X72394819Y-82514190D01*
X72394817Y-82514210D01*
X72394500Y-82517323D01*
X72394500Y-82520470D01*
X72394500Y-82520471D01*
X72394500Y-82816500D01*
X72374815Y-82883539D01*
X72322011Y-82929294D01*
X72270500Y-82940500D01*
X65461453Y-82940500D01*
X65394414Y-82920815D01*
X65373772Y-82904181D01*
X63399818Y-80930227D01*
X63366333Y-80868904D01*
X63363499Y-80842546D01*
X63363499Y-78607853D01*
X63363499Y-76282733D01*
X63365764Y-76262238D01*
X63365329Y-76248406D01*
X63363561Y-76192126D01*
X63363500Y-76188231D01*
X63363500Y-76164540D01*
X63363500Y-76160650D01*
X63362998Y-76156677D01*
X63362080Y-76145018D01*
X63361589Y-76129383D01*
X63360709Y-76101373D01*
X63355120Y-76082140D01*
X63351174Y-76063082D01*
X63348664Y-76043206D01*
X63332588Y-76002604D01*
X63328804Y-75991553D01*
X63322881Y-75971168D01*
X63316618Y-75949610D01*
X63306414Y-75932355D01*
X63297861Y-75914895D01*
X63296584Y-75911669D01*
X63290486Y-75896268D01*
X63264808Y-75860925D01*
X63258401Y-75851171D01*
X63255833Y-75846829D01*
X63236170Y-75813580D01*
X63222006Y-75799416D01*
X63209367Y-75784617D01*
X63197595Y-75768413D01*
X63163941Y-75740573D01*
X63155299Y-75732709D01*
X62379818Y-74957227D01*
X62346333Y-74895904D01*
X62343499Y-74869546D01*
X62343499Y-74839439D01*
X62343499Y-74836128D01*
X62337091Y-74776517D01*
X62286796Y-74641669D01*
X62273053Y-74623311D01*
X62248635Y-74557850D01*
X62263485Y-74489576D01*
X62273050Y-74474691D01*
X62286796Y-74456331D01*
X62337091Y-74321483D01*
X62343500Y-74261873D01*
X62343499Y-73566128D01*
X62337091Y-73506517D01*
X62286796Y-73371669D01*
X62272740Y-73352892D01*
X62248323Y-73287430D01*
X62263174Y-73219157D01*
X62272742Y-73204270D01*
X62286353Y-73186088D01*
X62336599Y-73051373D01*
X62342645Y-72995132D01*
X62343000Y-72988518D01*
X62343000Y-72894000D01*
X59843000Y-72894000D01*
X59843000Y-72988518D01*
X59843354Y-72995132D01*
X59849400Y-73051373D01*
X59899646Y-73186088D01*
X59907431Y-73196487D01*
X59931848Y-73261951D01*
X59916997Y-73330224D01*
X59881048Y-73371117D01*
X59858933Y-73387184D01*
X59849174Y-73393595D01*
X59811580Y-73415829D01*
X59797413Y-73429996D01*
X59782624Y-73442626D01*
X59766413Y-73454404D01*
X59738572Y-73488058D01*
X59730711Y-73496697D01*
X57979505Y-75247903D01*
X57918182Y-75281388D01*
X57848490Y-75276404D01*
X57792557Y-75234532D01*
X57790249Y-75231345D01*
X57770676Y-75203392D01*
X57680495Y-75074599D01*
X57513401Y-74907505D01*
X57327839Y-74777573D01*
X57284216Y-74722998D01*
X57277022Y-74653500D01*
X57308545Y-74591145D01*
X57327837Y-74574428D01*
X57513401Y-74444495D01*
X57680495Y-74277401D01*
X57816035Y-74083830D01*
X57915903Y-73869663D01*
X57977063Y-73641408D01*
X57997659Y-73406000D01*
X57977063Y-73170592D01*
X57950143Y-73070125D01*
X57951806Y-73000276D01*
X57982235Y-72950353D01*
X58896771Y-72035819D01*
X58958095Y-72002334D01*
X58984453Y-71999500D01*
X59759251Y-71999500D01*
X59826290Y-72019185D01*
X59872045Y-72071989D01*
X59881989Y-72141147D01*
X59875433Y-72166834D01*
X59849400Y-72236628D01*
X59843354Y-72292867D01*
X59843000Y-72299481D01*
X59843000Y-72394000D01*
X62343000Y-72394000D01*
X62343000Y-72390779D01*
X62362685Y-72323740D01*
X62415489Y-72277985D01*
X62484647Y-72268041D01*
X62492757Y-72269484D01*
X62516354Y-72274500D01*
X62516356Y-72274500D01*
X62705648Y-72274500D01*
X62829083Y-72248262D01*
X62890803Y-72235144D01*
X63063730Y-72158151D01*
X63158906Y-72089002D01*
X63216870Y-72046889D01*
X63224434Y-72038489D01*
X63343533Y-71906216D01*
X63405113Y-71799555D01*
X63455679Y-71751341D01*
X63524286Y-71738117D01*
X63589151Y-71764085D01*
G37*
%TD.AperFunction*%
%TA.AperFunction,Conductor*%
G36*
X133226152Y-81036185D02*
G01*
X133271907Y-81088989D01*
X133281851Y-81158147D01*
X133252826Y-81221703D01*
X133233424Y-81239767D01*
X133204454Y-81261453D01*
X133118204Y-81376668D01*
X133067909Y-81511516D01*
X133063498Y-81552548D01*
X133061500Y-81571127D01*
X133061500Y-81574448D01*
X133061500Y-81574449D01*
X133061500Y-82763560D01*
X133061500Y-82763578D01*
X133061501Y-82766872D01*
X133061853Y-82770152D01*
X133061854Y-82770159D01*
X133067909Y-82826484D01*
X133118204Y-82961332D01*
X133144299Y-82996190D01*
X133168716Y-83061654D01*
X133153864Y-83129927D01*
X133104459Y-83179332D01*
X133045032Y-83194500D01*
X96637895Y-83194500D01*
X96570856Y-83174815D01*
X96525101Y-83122011D01*
X96515157Y-83052853D01*
X96544182Y-82989297D01*
X96559231Y-82974646D01*
X96631410Y-82915410D01*
X96640625Y-82904181D01*
X96762685Y-82755450D01*
X96860232Y-82572954D01*
X96920300Y-82374934D01*
X96940583Y-82169000D01*
X96920300Y-81963066D01*
X96860232Y-81765046D01*
X96762685Y-81582550D01*
X96689340Y-81493178D01*
X96631410Y-81422589D01*
X96517645Y-81329226D01*
X96471450Y-81291315D01*
X96393889Y-81249857D01*
X96344045Y-81200896D01*
X96328585Y-81132758D01*
X96352417Y-81067078D01*
X96407974Y-81024710D01*
X96452343Y-81016500D01*
X133159113Y-81016500D01*
X133226152Y-81036185D01*
G37*
%TD.AperFunction*%
%TA.AperFunction,Conductor*%
G36*
X143393587Y-74305185D02*
G01*
X143414229Y-74321819D01*
X146150182Y-77057772D01*
X146183666Y-77119093D01*
X146186500Y-77145451D01*
X146186500Y-81264714D01*
X146166815Y-81331753D01*
X146141165Y-81360567D01*
X146065590Y-81422589D01*
X145934314Y-81582551D01*
X145836769Y-81765043D01*
X145836768Y-81765045D01*
X145836768Y-81765046D01*
X145834925Y-81771121D01*
X145776699Y-81963067D01*
X145756417Y-82168999D01*
X145776699Y-82374932D01*
X145789232Y-82416247D01*
X145836768Y-82572954D01*
X145934315Y-82755450D01*
X145984417Y-82816500D01*
X146065589Y-82915410D01*
X146137769Y-82974646D01*
X146177104Y-83032392D01*
X146178975Y-83102237D01*
X146142788Y-83162005D01*
X146080032Y-83192721D01*
X146059105Y-83194500D01*
X145024895Y-83194500D01*
X144957856Y-83174815D01*
X144912101Y-83122011D01*
X144902157Y-83052853D01*
X144931182Y-82989297D01*
X144946231Y-82974646D01*
X145018410Y-82915410D01*
X145027625Y-82904181D01*
X145149685Y-82755450D01*
X145247232Y-82572954D01*
X145307300Y-82374934D01*
X145327583Y-82169000D01*
X145307300Y-81963066D01*
X145247232Y-81765046D01*
X145149685Y-81582550D01*
X145018410Y-81422590D01*
X145013426Y-81418500D01*
X144943912Y-81361451D01*
X144929425Y-81349562D01*
X144890092Y-81291818D01*
X144885068Y-81269245D01*
X144884496Y-81264713D01*
X144882664Y-81250208D01*
X144871378Y-81221703D01*
X144866588Y-81209604D01*
X144862804Y-81198553D01*
X144856020Y-81175204D01*
X144850618Y-81156610D01*
X144840414Y-81139355D01*
X144831861Y-81121895D01*
X144829395Y-81115666D01*
X144824486Y-81103268D01*
X144798808Y-81067925D01*
X144792401Y-81058171D01*
X144770170Y-81020580D01*
X144756005Y-81006416D01*
X144743367Y-80991617D01*
X144731595Y-80975413D01*
X144697941Y-80947573D01*
X144689299Y-80939709D01*
X143756802Y-80007211D01*
X143743906Y-79991113D01*
X143692775Y-79943098D01*
X143689978Y-79940387D01*
X143673227Y-79923636D01*
X143670471Y-79920880D01*
X143667290Y-79918412D01*
X143658422Y-79910837D01*
X143626582Y-79880938D01*
X143609024Y-79871285D01*
X143592764Y-79860604D01*
X143576936Y-79848327D01*
X143536851Y-79830980D01*
X143526361Y-79825841D01*
X143488091Y-79804802D01*
X143468691Y-79799821D01*
X143450284Y-79793519D01*
X143431897Y-79785562D01*
X143388758Y-79778729D01*
X143377324Y-79776361D01*
X143335019Y-79765500D01*
X143314984Y-79765500D01*
X143295586Y-79763973D01*
X143288162Y-79762797D01*
X143275805Y-79760840D01*
X143275804Y-79760840D01*
X143250849Y-79763199D01*
X143232325Y-79764950D01*
X143220656Y-79765500D01*
X142527590Y-79765500D01*
X142460551Y-79745815D01*
X142414796Y-79693011D01*
X142404852Y-79623853D01*
X142433877Y-79560297D01*
X142435440Y-79558528D01*
X142464533Y-79526216D01*
X142559179Y-79362284D01*
X142571722Y-79323681D01*
X142617674Y-79182256D01*
X142637460Y-78994000D01*
X142617674Y-78805744D01*
X142565665Y-78645677D01*
X142559179Y-78625715D01*
X142464533Y-78461783D01*
X142337870Y-78321110D01*
X142184730Y-78209848D01*
X142011802Y-78132855D01*
X141826648Y-78093500D01*
X141826646Y-78093500D01*
X141637354Y-78093500D01*
X141637352Y-78093500D01*
X141452197Y-78132855D01*
X141279272Y-78209847D01*
X141201058Y-78266673D01*
X141126129Y-78321112D01*
X141120401Y-78327472D01*
X141060916Y-78364121D01*
X141028253Y-78368500D01*
X139987590Y-78368500D01*
X139920551Y-78348815D01*
X139874796Y-78296011D01*
X139864852Y-78226853D01*
X139893877Y-78163297D01*
X139895440Y-78161528D01*
X139924533Y-78129216D01*
X140019179Y-77965284D01*
X140044122Y-77888518D01*
X140077674Y-77785256D01*
X140097460Y-77597000D01*
X140077674Y-77408744D01*
X140044755Y-77307431D01*
X140019179Y-77228715D01*
X139924533Y-77064783D01*
X139797870Y-76924110D01*
X139644730Y-76812848D01*
X139471802Y-76735855D01*
X139286648Y-76696500D01*
X139286646Y-76696500D01*
X139097354Y-76696500D01*
X139097352Y-76696500D01*
X138912197Y-76735855D01*
X138739272Y-76812847D01*
X138695706Y-76844500D01*
X138586129Y-76924112D01*
X138586128Y-76924113D01*
X138586124Y-76924116D01*
X138578740Y-76932317D01*
X138519252Y-76968963D01*
X138490491Y-76973280D01*
X138458372Y-76974289D01*
X138439128Y-76979880D01*
X138420084Y-76983824D01*
X138400208Y-76986335D01*
X138359600Y-77002413D01*
X138348554Y-77006194D01*
X138306610Y-77018382D01*
X138306607Y-77018383D01*
X138289365Y-77028579D01*
X138271904Y-77037133D01*
X138253267Y-77044512D01*
X138217931Y-77070185D01*
X138208174Y-77076595D01*
X138170580Y-77098829D01*
X138156413Y-77112996D01*
X138141624Y-77125626D01*
X138125413Y-77137404D01*
X138097572Y-77171058D01*
X138089711Y-77179697D01*
X137572228Y-77697181D01*
X137510905Y-77730666D01*
X137484547Y-77733500D01*
X137328976Y-77733500D01*
X137261937Y-77713815D01*
X137216182Y-77661011D01*
X137206238Y-77591853D01*
X137235263Y-77528297D01*
X137256090Y-77509182D01*
X137256146Y-77509140D01*
X137257871Y-77507888D01*
X137384533Y-77367216D01*
X137479179Y-77203284D01*
X137537674Y-77023256D01*
X137557460Y-76835000D01*
X137537674Y-76646744D01*
X137493065Y-76509453D01*
X137479179Y-76466715D01*
X137384533Y-76302783D01*
X137257870Y-76162110D01*
X137104730Y-76050848D01*
X136931802Y-75973855D01*
X136746648Y-75934500D01*
X136746646Y-75934500D01*
X136557354Y-75934500D01*
X136557352Y-75934500D01*
X136372197Y-75973855D01*
X136199272Y-76050847D01*
X136107951Y-76117196D01*
X136046129Y-76162112D01*
X136040401Y-76168472D01*
X135980916Y-76205121D01*
X135948253Y-76209500D01*
X135718744Y-76209500D01*
X135698236Y-76207235D01*
X135628113Y-76209439D01*
X135624219Y-76209500D01*
X135596650Y-76209500D01*
X135592794Y-76209986D01*
X135592791Y-76209987D01*
X135592735Y-76209994D01*
X135592662Y-76210003D01*
X135581043Y-76210917D01*
X135537372Y-76212289D01*
X135518128Y-76217880D01*
X135499084Y-76221824D01*
X135479208Y-76224335D01*
X135438600Y-76240413D01*
X135427554Y-76244194D01*
X135413062Y-76248406D01*
X135385607Y-76256383D01*
X135368365Y-76266579D01*
X135350904Y-76275133D01*
X135332267Y-76282512D01*
X135296931Y-76308185D01*
X135287174Y-76314595D01*
X135249580Y-76336829D01*
X135235413Y-76350996D01*
X135220624Y-76363626D01*
X135204413Y-76375404D01*
X135176572Y-76409058D01*
X135168711Y-76417697D01*
X134778228Y-76808181D01*
X134716905Y-76841666D01*
X134690547Y-76844500D01*
X133209027Y-76844500D01*
X133141988Y-76824815D01*
X133096233Y-76772011D01*
X133086289Y-76702853D01*
X133115314Y-76639297D01*
X133158591Y-76607221D01*
X133167730Y-76603151D01*
X133320870Y-76491889D01*
X133343821Y-76466400D01*
X133447533Y-76351216D01*
X133542179Y-76187284D01*
X133600674Y-76007256D01*
X133620460Y-75819000D01*
X133600674Y-75630744D01*
X133560357Y-75506661D01*
X133542179Y-75450715D01*
X133447533Y-75286783D01*
X133320870Y-75146110D01*
X133167730Y-75034848D01*
X132994802Y-74957855D01*
X132809648Y-74918500D01*
X132809646Y-74918500D01*
X132620354Y-74918500D01*
X132620352Y-74918500D01*
X132435197Y-74957855D01*
X132262269Y-75034848D01*
X132109129Y-75146110D01*
X131982466Y-75286783D01*
X131887820Y-75450715D01*
X131829326Y-75630742D01*
X131820212Y-75717462D01*
X131793627Y-75782076D01*
X131736330Y-75822061D01*
X131696891Y-75828500D01*
X98862453Y-75828500D01*
X98795414Y-75808815D01*
X98774772Y-75792181D01*
X97528802Y-74546211D01*
X97515906Y-74530114D01*
X97513786Y-74528123D01*
X97483722Y-74499891D01*
X97448329Y-74439651D01*
X97451121Y-74369837D01*
X97491215Y-74312616D01*
X97555880Y-74286155D01*
X97568607Y-74285500D01*
X143326548Y-74285500D01*
X143393587Y-74305185D01*
G37*
%TD.AperFunction*%
%TA.AperFunction,Conductor*%
G36*
X140915270Y-66050185D02*
G01*
X140961025Y-66102989D01*
X140970969Y-66172147D01*
X140944085Y-66233164D01*
X140854314Y-66342551D01*
X140756769Y-66525043D01*
X140696699Y-66723067D01*
X140676417Y-66929000D01*
X140696699Y-67134932D01*
X140706500Y-67167240D01*
X140756768Y-67332954D01*
X140854315Y-67515450D01*
X140985590Y-67675410D01*
X141046429Y-67725339D01*
X141061164Y-67737431D01*
X141100499Y-67795177D01*
X141106500Y-67833285D01*
X141106500Y-69666546D01*
X141086815Y-69733585D01*
X141070181Y-69754227D01*
X140112228Y-70712181D01*
X140050905Y-70745666D01*
X140024547Y-70748500D01*
X99220590Y-70748500D01*
X99153551Y-70728815D01*
X99107796Y-70676011D01*
X99097852Y-70606853D01*
X99126877Y-70543297D01*
X99128440Y-70541528D01*
X99157533Y-70509216D01*
X99252179Y-70345284D01*
X99268728Y-70294352D01*
X99310674Y-70165256D01*
X99330460Y-69977000D01*
X99310674Y-69788744D01*
X99274710Y-69678060D01*
X99252179Y-69608715D01*
X99200093Y-69518500D01*
X99183620Y-69450600D01*
X99206472Y-69384573D01*
X99261394Y-69341382D01*
X99307480Y-69332500D01*
X138474256Y-69332500D01*
X138494762Y-69334764D01*
X138497665Y-69334672D01*
X138497667Y-69334673D01*
X138564872Y-69332561D01*
X138568768Y-69332500D01*
X138592448Y-69332500D01*
X138596350Y-69332500D01*
X138600313Y-69331999D01*
X138611962Y-69331080D01*
X138655627Y-69329709D01*
X138674859Y-69324120D01*
X138693918Y-69320174D01*
X138701099Y-69319267D01*
X138713792Y-69317664D01*
X138754407Y-69301582D01*
X138765444Y-69297803D01*
X138807390Y-69285618D01*
X138824629Y-69275422D01*
X138842102Y-69266862D01*
X138860732Y-69259486D01*
X138896064Y-69233814D01*
X138905830Y-69227400D01*
X138935501Y-69209853D01*
X138943420Y-69205170D01*
X138957585Y-69191004D01*
X138972373Y-69178373D01*
X138988587Y-69166594D01*
X139016438Y-69132926D01*
X139024279Y-69124309D01*
X139575786Y-68572802D01*
X139591886Y-68559905D01*
X139593874Y-68557787D01*
X139593877Y-68557786D01*
X139639964Y-68508707D01*
X139642549Y-68506039D01*
X139662120Y-68486470D01*
X139664565Y-68483316D01*
X139672154Y-68474429D01*
X139702062Y-68442582D01*
X139711713Y-68425026D01*
X139722393Y-68408767D01*
X139734674Y-68392936D01*
X139752018Y-68352851D01*
X139757160Y-68342356D01*
X139760748Y-68335830D01*
X139778197Y-68304092D01*
X139783178Y-68284688D01*
X139789480Y-68266283D01*
X139797438Y-68247895D01*
X139804270Y-68204748D01*
X139806639Y-68193316D01*
X139817500Y-68151020D01*
X139817500Y-68130983D01*
X139819027Y-68111584D01*
X139819859Y-68106331D01*
X139822160Y-68091804D01*
X139818050Y-68048324D01*
X139817500Y-68036655D01*
X139817500Y-67833285D01*
X139837185Y-67766246D01*
X139862836Y-67737431D01*
X139866233Y-67734643D01*
X139938410Y-67675410D01*
X140069685Y-67515450D01*
X140167232Y-67332954D01*
X140227300Y-67134934D01*
X140247583Y-66929000D01*
X140227300Y-66723066D01*
X140167232Y-66525046D01*
X140069685Y-66342550D01*
X140000046Y-66257694D01*
X139979915Y-66233164D01*
X139952603Y-66168854D01*
X139964394Y-66099987D01*
X140011547Y-66048427D01*
X140075769Y-66030500D01*
X140848231Y-66030500D01*
X140915270Y-66050185D01*
G37*
%TD.AperFunction*%
%TA.AperFunction,Conductor*%
G36*
X145995270Y-66050185D02*
G01*
X146041025Y-66102989D01*
X146050969Y-66172147D01*
X146024085Y-66233164D01*
X145934314Y-66342551D01*
X145836769Y-66525043D01*
X145776699Y-66723067D01*
X145756417Y-66929000D01*
X145776699Y-67134932D01*
X145786500Y-67167240D01*
X145836768Y-67332954D01*
X145934315Y-67515450D01*
X145970186Y-67559159D01*
X146065589Y-67675410D01*
X146126040Y-67725020D01*
X146225550Y-67806685D01*
X146408046Y-67904232D01*
X146606066Y-67964300D01*
X146812000Y-67984583D01*
X147017934Y-67964300D01*
X147215954Y-67904232D01*
X147398450Y-67806685D01*
X147558410Y-67675410D01*
X147617646Y-67603229D01*
X147675391Y-67563895D01*
X147745236Y-67562024D01*
X147805005Y-67598211D01*
X147835721Y-67660966D01*
X147837500Y-67681894D01*
X147837500Y-81416105D01*
X147817815Y-81483144D01*
X147765011Y-81528899D01*
X147695853Y-81538843D01*
X147632297Y-81509818D01*
X147617647Y-81494770D01*
X147558410Y-81422590D01*
X147482835Y-81360567D01*
X147443501Y-81302821D01*
X147437500Y-81264714D01*
X147437500Y-76917740D01*
X147439763Y-76897239D01*
X147437561Y-76827144D01*
X147437500Y-76823250D01*
X147437500Y-76799544D01*
X147437500Y-76795650D01*
X147436998Y-76791681D01*
X147436080Y-76780024D01*
X147434709Y-76736373D01*
X147429120Y-76717140D01*
X147425174Y-76698082D01*
X147422664Y-76678206D01*
X147406588Y-76637604D01*
X147402804Y-76626553D01*
X147392910Y-76592500D01*
X147390618Y-76584610D01*
X147380414Y-76567355D01*
X147371861Y-76549895D01*
X147367323Y-76538433D01*
X147364486Y-76531268D01*
X147338808Y-76495925D01*
X147332401Y-76486171D01*
X147326475Y-76476151D01*
X147310170Y-76448580D01*
X147296006Y-76434416D01*
X147283367Y-76419617D01*
X147271595Y-76403413D01*
X147237941Y-76375573D01*
X147229299Y-76367709D01*
X144137802Y-73276211D01*
X144124906Y-73260113D01*
X144073775Y-73212098D01*
X144070978Y-73209387D01*
X144054227Y-73192636D01*
X144051471Y-73189880D01*
X144048290Y-73187412D01*
X144039422Y-73179837D01*
X144007582Y-73149938D01*
X143990024Y-73140285D01*
X143973764Y-73129604D01*
X143957936Y-73117327D01*
X143917851Y-73099980D01*
X143907361Y-73094841D01*
X143869091Y-73073802D01*
X143849691Y-73068821D01*
X143831284Y-73062519D01*
X143812897Y-73054562D01*
X143769758Y-73047729D01*
X143758324Y-73045361D01*
X143716019Y-73034500D01*
X143695984Y-73034500D01*
X143676586Y-73032973D01*
X143669162Y-73031797D01*
X143656805Y-73029840D01*
X143656804Y-73029840D01*
X143623751Y-73032964D01*
X143613325Y-73033950D01*
X143601656Y-73034500D01*
X142906452Y-73034500D01*
X142839413Y-73014815D01*
X142793658Y-72962011D01*
X142783714Y-72892853D01*
X142812739Y-72829297D01*
X142818771Y-72822819D01*
X143737099Y-71904491D01*
X144655789Y-70985800D01*
X144671885Y-70972906D01*
X144673873Y-70970787D01*
X144673877Y-70970786D01*
X144719949Y-70921723D01*
X144722534Y-70919055D01*
X144742120Y-70899471D01*
X144744585Y-70896292D01*
X144752167Y-70887416D01*
X144782062Y-70855582D01*
X144791712Y-70838027D01*
X144802400Y-70821757D01*
X144814671Y-70805938D01*
X144814673Y-70805936D01*
X144832026Y-70765832D01*
X144837157Y-70755362D01*
X144858197Y-70717092D01*
X144863175Y-70697699D01*
X144869481Y-70679282D01*
X144871830Y-70673855D01*
X144877438Y-70660896D01*
X144884272Y-70617745D01*
X144886635Y-70606331D01*
X144897500Y-70564019D01*
X144897500Y-70543983D01*
X144899027Y-70524584D01*
X144902160Y-70504804D01*
X144898504Y-70466132D01*
X144898050Y-70461324D01*
X144897500Y-70449655D01*
X144897500Y-67833285D01*
X144917185Y-67766246D01*
X144942836Y-67737431D01*
X144946233Y-67734643D01*
X145018410Y-67675410D01*
X145149685Y-67515450D01*
X145247232Y-67332954D01*
X145307300Y-67134934D01*
X145327583Y-66929000D01*
X145307300Y-66723066D01*
X145247232Y-66525046D01*
X145149685Y-66342550D01*
X145080046Y-66257694D01*
X145059915Y-66233164D01*
X145032603Y-66168854D01*
X145044394Y-66099987D01*
X145091547Y-66048427D01*
X145155769Y-66030500D01*
X145928231Y-66030500D01*
X145995270Y-66050185D01*
G37*
%TD.AperFunction*%
%TA.AperFunction,Conductor*%
G36*
X59761834Y-75337269D02*
G01*
X59817767Y-75379141D01*
X59842184Y-75444605D01*
X59842500Y-75453449D01*
X59842500Y-75528559D01*
X59842500Y-75528577D01*
X59842501Y-75531872D01*
X59842853Y-75535152D01*
X59842854Y-75535159D01*
X59848909Y-75591484D01*
X59899204Y-75726332D01*
X59912947Y-75744690D01*
X59937364Y-75810155D01*
X59922512Y-75878427D01*
X59912947Y-75893310D01*
X59899205Y-75911666D01*
X59848909Y-76046516D01*
X59843847Y-76093602D01*
X59842500Y-76106127D01*
X59842500Y-76109448D01*
X59842500Y-76109449D01*
X59842500Y-76798560D01*
X59842500Y-76798578D01*
X59842501Y-76801872D01*
X59842853Y-76805152D01*
X59842854Y-76805159D01*
X59848909Y-76861484D01*
X59862245Y-76897239D01*
X59899204Y-76996331D01*
X59985454Y-77111546D01*
X60100669Y-77197796D01*
X60229332Y-77245784D01*
X60285266Y-77287655D01*
X60309683Y-77353120D01*
X60309999Y-77361966D01*
X60309999Y-77453653D01*
X60290314Y-77520692D01*
X60237510Y-77566447D01*
X60168352Y-77576391D01*
X60104796Y-77547366D01*
X60098318Y-77541334D01*
X60096040Y-77539056D01*
X59949301Y-77448546D01*
X59785651Y-77394318D01*
X59687777Y-77384319D01*
X59681500Y-77384000D01*
X59585500Y-77384000D01*
X59585500Y-79333999D01*
X59681497Y-79333999D01*
X59687779Y-79333678D01*
X59785650Y-79323681D01*
X59949304Y-79269452D01*
X60096036Y-79178945D01*
X60109963Y-79165019D01*
X60171285Y-79131532D01*
X60240977Y-79136515D01*
X60285327Y-79165017D01*
X60300181Y-79179871D01*
X60333666Y-79241194D01*
X60336500Y-79267552D01*
X60336500Y-79901769D01*
X60316815Y-79968808D01*
X60300181Y-79989450D01*
X60050451Y-80239181D01*
X59989128Y-80272666D01*
X59962770Y-80275500D01*
X57829701Y-80275500D01*
X57762662Y-80255815D01*
X57728126Y-80222623D01*
X57693747Y-80173525D01*
X57680495Y-80154599D01*
X57513401Y-79987505D01*
X57327402Y-79857267D01*
X57283780Y-79802692D01*
X57276587Y-79733193D01*
X57308109Y-79670839D01*
X57327405Y-79654119D01*
X57513078Y-79524109D01*
X57680106Y-79357081D01*
X57815600Y-79163576D01*
X57915430Y-78949492D01*
X57972636Y-78736000D01*
X57075686Y-78736000D01*
X57101493Y-78695844D01*
X57126993Y-78609000D01*
X58298001Y-78609000D01*
X58298001Y-78642497D01*
X58298321Y-78648779D01*
X58308318Y-78746650D01*
X58362546Y-78910301D01*
X58453056Y-79057040D01*
X58574959Y-79178943D01*
X58721698Y-79269453D01*
X58885348Y-79323681D01*
X58983222Y-79333680D01*
X58989500Y-79333999D01*
X59085500Y-79333998D01*
X59085500Y-78609000D01*
X58298001Y-78609000D01*
X57126993Y-78609000D01*
X57142000Y-78557889D01*
X57142000Y-78414111D01*
X57101493Y-78276156D01*
X57075686Y-78236000D01*
X57972636Y-78236000D01*
X57972635Y-78235999D01*
X57938606Y-78109000D01*
X58298000Y-78109000D01*
X59085500Y-78109000D01*
X59085500Y-77383999D01*
X58989504Y-77384000D01*
X58983219Y-77384321D01*
X58885349Y-77394318D01*
X58721698Y-77448546D01*
X58574959Y-77539056D01*
X58453056Y-77660959D01*
X58362546Y-77807698D01*
X58308318Y-77971348D01*
X58298319Y-78069222D01*
X58298000Y-78075500D01*
X58298000Y-78109000D01*
X57938606Y-78109000D01*
X57915430Y-78022507D01*
X57815599Y-77808421D01*
X57680109Y-77614921D01*
X57513081Y-77447893D01*
X57327404Y-77317880D01*
X57283780Y-77263303D01*
X57276587Y-77193804D01*
X57308109Y-77131450D01*
X57327399Y-77114734D01*
X57513401Y-76984495D01*
X57680495Y-76817401D01*
X57815653Y-76624374D01*
X57870229Y-76580752D01*
X57917227Y-76571500D01*
X58083256Y-76571500D01*
X58103762Y-76573764D01*
X58106665Y-76573672D01*
X58106667Y-76573673D01*
X58173872Y-76571561D01*
X58177768Y-76571500D01*
X58201448Y-76571500D01*
X58205350Y-76571500D01*
X58209313Y-76570999D01*
X58220962Y-76570080D01*
X58264627Y-76568709D01*
X58283859Y-76563120D01*
X58302918Y-76559174D01*
X58309196Y-76558381D01*
X58322792Y-76556664D01*
X58363407Y-76540582D01*
X58374444Y-76536803D01*
X58416390Y-76524618D01*
X58433629Y-76514422D01*
X58451102Y-76505862D01*
X58469732Y-76498486D01*
X58505064Y-76472814D01*
X58514830Y-76466400D01*
X58544963Y-76448580D01*
X58552420Y-76444170D01*
X58566585Y-76430004D01*
X58581373Y-76417373D01*
X58597587Y-76405594D01*
X58625438Y-76371926D01*
X58633279Y-76363309D01*
X59630820Y-75365769D01*
X59692142Y-75332285D01*
X59761834Y-75337269D01*
G37*
%TD.AperFunction*%
%TA.AperFunction,Conductor*%
G36*
X56182507Y-78276156D02*
G01*
X56142000Y-78414111D01*
X56142000Y-78557889D01*
X56182507Y-78695844D01*
X56208314Y-78736000D01*
X54535686Y-78736000D01*
X54561493Y-78695844D01*
X54602000Y-78557889D01*
X54602000Y-78414111D01*
X54561493Y-78276156D01*
X54535686Y-78236000D01*
X56208314Y-78236000D01*
X56182507Y-78276156D01*
G37*
%TD.AperFunction*%
%TD*%
M02*
