M48
; DRILL file {KiCad 8.0.0} date 2024-03-09T01:11:32+0900
; FORMAT={-:-/ absolute / metric / decimal}
; #@! TF.CreationDate,2024-03-09T01:11:32+09:00
; #@! TF.GenerationSoftware,Kicad,Pcbnew,8.0.0
; #@! TF.FileFunction,Plated,1,2,PTH
FMAT,2
METRIC
; #@! TA.AperFunction,Plated,PTH,ViaDrill
T1C0.300
; #@! TA.AperFunction,Plated,PTH,ViaDrill
T2C0.400
; #@! TA.AperFunction,Plated,PTH,ViaDrill
T3C0.600
; #@! TA.AperFunction,Plated,PTH,ComponentDrill
T4C1.000
; #@! TA.AperFunction,Plated,PTH,ComponentDrill
T5C1.100
%
G90
G05
T1
X149.987Y-103.378
X153.162Y-99.568
T2
X149.479Y-91.948
X155.575Y-97.663
X155.829Y-91.948
X161.544Y-96.901
X161.544Y-106.045
X166.497Y-89.662
X166.497Y-105.918
X166.751Y-96.647
T3
X148.336Y-101.092
X157.797Y-105.6
X162.306Y-92.202
T4
X133.096Y-91.821
X133.096Y-94.361
X133.096Y-96.901
X133.096Y-99.441
X133.096Y-101.981
X133.096Y-104.521
X137.033Y-91.821
X137.033Y-94.361
X137.033Y-96.901
X137.033Y-99.441
X137.033Y-101.981
X137.033Y-104.521
X139.573Y-91.821
X139.573Y-94.361
X139.573Y-96.901
X139.573Y-99.441
X139.573Y-101.981
X139.573Y-104.521
X170.434Y-100.198
X170.434Y-102.738
T5
X166.751Y-100.243
X166.751Y-102.743
M30
