%TF.GenerationSoftware,KiCad,Pcbnew,8.0.0*%
%TF.CreationDate,2024-03-09T01:11:29+09:00*%
%TF.ProjectId,Pmod_CAN,506d6f64-5f43-4414-9e2e-6b696361645f,rev?*%
%TF.SameCoordinates,Original*%
%TF.FileFunction,Copper,L2,Bot*%
%TF.FilePolarity,Positive*%
%FSLAX46Y46*%
G04 Gerber Fmt 4.6, Leading zero omitted, Abs format (unit mm)*
G04 Created by KiCad (PCBNEW 8.0.0) date 2024-03-09 01:11:29*
%MOMM*%
%LPD*%
G01*
G04 APERTURE LIST*
%TA.AperFunction,ComponentPad*%
%ADD10R,1.700000X1.700000*%
%TD*%
%TA.AperFunction,ComponentPad*%
%ADD11O,1.700000X1.700000*%
%TD*%
%TA.AperFunction,ComponentPad*%
%ADD12C,1.700000*%
%TD*%
%TA.AperFunction,ComponentPad*%
%ADD13R,1.650000X1.650000*%
%TD*%
%TA.AperFunction,ComponentPad*%
%ADD14C,1.650000*%
%TD*%
%TA.AperFunction,ViaPad*%
%ADD15C,1.000000*%
%TD*%
%TA.AperFunction,ViaPad*%
%ADD16C,0.500000*%
%TD*%
%TA.AperFunction,ViaPad*%
%ADD17C,0.800000*%
%TD*%
%TA.AperFunction,Conductor*%
%ADD18C,0.600000*%
%TD*%
%TA.AperFunction,Conductor*%
%ADD19C,0.250000*%
%TD*%
%TA.AperFunction,Conductor*%
%ADD20C,0.500000*%
%TD*%
G04 APERTURE END LIST*
D10*
%TO.P,J2,1,Pin_1*%
%TO.N,unconnected-(J2-Pin_1-Pad1)*%
X139573000Y-91821000D03*
D11*
%TO.P,J2,2,Pin_2*%
%TO.N,unconnected-(J2-Pin_2-Pad2)*%
X139573000Y-94361000D03*
%TO.P,J2,3,Pin_3*%
%TO.N,unconnected-(J2-Pin_3-Pad3)*%
X139573000Y-96901000D03*
%TO.P,J2,4,Pin_4*%
%TO.N,unconnected-(J2-Pin_4-Pad4)*%
X139573000Y-99441000D03*
%TO.P,J2,5,Pin_5*%
%TO.N,GND*%
X139573000Y-101981000D03*
%TO.P,J2,6,Pin_6*%
%TO.N,+3V3*%
X139573000Y-104521000D03*
%TO.P,J2,7,Pin_7*%
%TO.N,Net-(J2-Pin_7)*%
X137033000Y-91821000D03*
%TO.P,J2,8,Pin_8*%
%TO.N,Net-(IC1-S)*%
X137033000Y-94361000D03*
%TO.P,J2,9,Pin_9*%
%TO.N,Net-(IC1-TXD)*%
X137033000Y-96901000D03*
%TO.P,J2,10,Pin_10*%
%TO.N,Net-(IC1-RXD)*%
X137033000Y-99441000D03*
%TO.P,J2,11,Pin_11*%
%TO.N,GND*%
X137033000Y-101981000D03*
%TO.P,J2,12,Pin_12*%
%TO.N,+3V3*%
X137033000Y-104521000D03*
%TD*%
D12*
%TO.P,J4,1,Pin_1*%
%TO.N,Net-(J4-Pin_1)*%
X170434000Y-100198000D03*
D11*
%TO.P,J4,2,Pin_2*%
%TO.N,Net-(J4-Pin_2)*%
X170434000Y-102738000D03*
%TD*%
D13*
%TO.P,J1,1,1*%
%TO.N,Net-(J4-Pin_1)*%
X166751000Y-100243000D03*
D14*
%TO.P,J1,2,2*%
%TO.N,Net-(J4-Pin_2)*%
X166751000Y-102743000D03*
%TD*%
D12*
%TO.P,J3,1,Pin_1*%
%TO.N,Net-(J2-Pin_7)*%
X133096000Y-91821000D03*
D11*
%TO.P,J3,2,Pin_2*%
%TO.N,Net-(IC1-S)*%
X133096000Y-94361000D03*
%TO.P,J3,3,Pin_3*%
%TO.N,Net-(IC1-TXD)*%
X133096000Y-96901000D03*
%TO.P,J3,4,Pin_4*%
%TO.N,Net-(IC1-RXD)*%
X133096000Y-99441000D03*
%TO.P,J3,5,Pin_5*%
%TO.N,GND*%
X133096000Y-101981000D03*
%TO.P,J3,6,Pin_6*%
%TO.N,+3V3*%
X133096000Y-104521000D03*
%TD*%
D15*
%TO.N,/+5V*%
X162306000Y-92202000D03*
X148336000Y-101092000D03*
D16*
%TO.N,Net-(IC1-RXD)*%
X149987000Y-103378000D03*
D17*
%TO.N,GND*%
X155829000Y-91948000D03*
X149479000Y-91948000D03*
X166497000Y-89662000D03*
X166497000Y-105918000D03*
D16*
%TO.N,Net-(IC1-TXD)*%
X153162000Y-99568000D03*
D15*
%TO.N,+3V3*%
X157797500Y-105600500D03*
D17*
%TO.N,Net-(IC1-S)*%
X155575000Y-97663000D03*
%TO.N,Net-(C2-Pad1)*%
X161544000Y-96901000D03*
X161544000Y-106045000D03*
%TO.N,Net-(J4-Pin_2)*%
X166751000Y-96647000D03*
%TD*%
D18*
%TO.N,/+5V*%
X158369000Y-96139000D02*
X162306000Y-92202000D01*
X158369000Y-98933000D02*
X158369000Y-96139000D01*
X156210000Y-101092000D02*
X158369000Y-98933000D01*
X148336000Y-101092000D02*
X156210000Y-101092000D01*
D19*
%TO.N,Net-(IC1-RXD)*%
X138303000Y-100711000D02*
X137033000Y-99441000D01*
X141224000Y-100711000D02*
X138303000Y-100711000D01*
X143891000Y-103378000D02*
X141224000Y-100711000D01*
X149987000Y-103378000D02*
X143891000Y-103378000D01*
D20*
%TO.N,+3V3*%
X141732000Y-106680000D02*
X139573000Y-104521000D01*
X156718000Y-106680000D02*
X141732000Y-106680000D01*
X157797500Y-105600500D02*
X156718000Y-106680000D01*
D19*
%TO.N,Net-(IC1-S)*%
X151003000Y-93091000D02*
X155575000Y-97663000D01*
X138303000Y-93091000D02*
X151003000Y-93091000D01*
X137033000Y-94361000D02*
X138303000Y-93091000D01*
%TO.N,Net-(IC1-TXD)*%
X153162000Y-99568000D02*
X151765000Y-98171000D01*
X138303000Y-98171000D02*
X137033000Y-96901000D01*
X151765000Y-98171000D02*
X138303000Y-98171000D01*
%TO.N,Net-(C2-Pad1)*%
X161544000Y-106045000D02*
X161544000Y-96901000D01*
%TO.N,Net-(J4-Pin_2)*%
X166751000Y-96647000D02*
X164719000Y-98679000D01*
X164719000Y-101854000D02*
X165608000Y-102743000D01*
X164719000Y-98679000D02*
X164719000Y-101854000D01*
X165608000Y-102743000D02*
X166751000Y-102743000D01*
%TD*%
%TA.AperFunction,Conductor*%
%TO.N,GND*%
G36*
X139107075Y-101788007D02*
G01*
X139073000Y-101915174D01*
X139073000Y-102046826D01*
X139107075Y-102173993D01*
X139139988Y-102231000D01*
X137466012Y-102231000D01*
X137498925Y-102173993D01*
X137533000Y-102046826D01*
X137533000Y-101915174D01*
X137498925Y-101788007D01*
X137466012Y-101731000D01*
X139139988Y-101731000D01*
X139107075Y-101788007D01*
G37*
%TD.AperFunction*%
%TA.AperFunction,Conductor*%
G36*
X167401677Y-88030685D02*
G01*
X167422319Y-88047319D01*
X170270681Y-90895681D01*
X170304166Y-90957004D01*
X170307000Y-90983362D01*
X170307000Y-98739827D01*
X170287315Y-98806866D01*
X170234511Y-98852621D01*
X170203703Y-98860764D01*
X170203921Y-98861998D01*
X170198586Y-98862938D01*
X169970344Y-98924094D01*
X169970335Y-98924098D01*
X169756171Y-99023964D01*
X169756169Y-99023965D01*
X169562597Y-99159505D01*
X169395505Y-99326597D01*
X169259965Y-99520169D01*
X169259964Y-99520171D01*
X169160098Y-99734335D01*
X169160094Y-99734344D01*
X169098938Y-99962586D01*
X169098936Y-99962596D01*
X169078341Y-100197999D01*
X169078341Y-100198000D01*
X169098936Y-100433403D01*
X169098938Y-100433413D01*
X169160094Y-100661655D01*
X169160096Y-100661659D01*
X169160097Y-100661663D01*
X169230611Y-100812880D01*
X169259965Y-100875830D01*
X169259967Y-100875834D01*
X169395501Y-101069395D01*
X169395506Y-101069402D01*
X169562597Y-101236493D01*
X169562603Y-101236498D01*
X169748158Y-101366425D01*
X169791783Y-101421002D01*
X169798977Y-101490500D01*
X169767454Y-101552855D01*
X169748158Y-101569575D01*
X169562597Y-101699505D01*
X169395505Y-101866597D01*
X169259965Y-102060169D01*
X169259964Y-102060171D01*
X169160098Y-102274335D01*
X169160094Y-102274344D01*
X169098938Y-102502586D01*
X169098936Y-102502596D01*
X169078341Y-102737999D01*
X169078341Y-102738000D01*
X169098936Y-102973403D01*
X169098938Y-102973413D01*
X169160094Y-103201655D01*
X169160096Y-103201659D01*
X169160097Y-103201663D01*
X169251103Y-103396825D01*
X169259965Y-103415830D01*
X169259967Y-103415834D01*
X169306651Y-103482505D01*
X169395505Y-103609401D01*
X169562599Y-103776495D01*
X169646378Y-103835158D01*
X169756165Y-103912032D01*
X169756167Y-103912033D01*
X169756170Y-103912035D01*
X169970337Y-104011903D01*
X170198592Y-104073063D01*
X170198597Y-104073063D01*
X170203920Y-104074002D01*
X170203490Y-104076439D01*
X170258845Y-104098072D01*
X170299842Y-104154650D01*
X170307000Y-104196172D01*
X170307000Y-105358638D01*
X170287315Y-105425677D01*
X170270681Y-105446319D01*
X167422319Y-108294681D01*
X167360996Y-108328166D01*
X167334638Y-108331000D01*
X133347000Y-108331000D01*
X133279961Y-108311315D01*
X133234206Y-108258511D01*
X133223000Y-108207000D01*
X133223000Y-105979172D01*
X133242685Y-105912133D01*
X133295489Y-105866378D01*
X133326301Y-105858257D01*
X133326080Y-105857002D01*
X133331400Y-105856063D01*
X133331408Y-105856063D01*
X133559663Y-105794903D01*
X133773830Y-105695035D01*
X133967401Y-105559495D01*
X134134495Y-105392401D01*
X134270035Y-105198830D01*
X134369903Y-104984663D01*
X134431063Y-104756408D01*
X134451659Y-104521000D01*
X135677341Y-104521000D01*
X135697936Y-104756403D01*
X135697938Y-104756413D01*
X135759094Y-104984655D01*
X135759096Y-104984659D01*
X135759097Y-104984663D01*
X135839004Y-105156023D01*
X135858965Y-105198830D01*
X135858967Y-105198834D01*
X135962233Y-105346312D01*
X135994505Y-105392401D01*
X136161599Y-105559495D01*
X136220160Y-105600500D01*
X136355165Y-105695032D01*
X136355167Y-105695033D01*
X136355170Y-105695035D01*
X136569337Y-105794903D01*
X136569343Y-105794904D01*
X136569344Y-105794905D01*
X136624285Y-105809626D01*
X136797592Y-105856063D01*
X136985918Y-105872539D01*
X137032999Y-105876659D01*
X137033000Y-105876659D01*
X137033001Y-105876659D01*
X137072234Y-105873226D01*
X137268408Y-105856063D01*
X137496663Y-105794903D01*
X137710830Y-105695035D01*
X137904401Y-105559495D01*
X138071495Y-105392401D01*
X138201425Y-105206842D01*
X138256002Y-105163217D01*
X138325500Y-105156023D01*
X138387855Y-105187546D01*
X138404575Y-105206842D01*
X138534500Y-105392395D01*
X138534505Y-105392401D01*
X138701599Y-105559495D01*
X138760160Y-105600500D01*
X138895165Y-105695032D01*
X138895167Y-105695033D01*
X138895170Y-105695035D01*
X139109337Y-105794903D01*
X139109343Y-105794904D01*
X139109344Y-105794905D01*
X139164285Y-105809626D01*
X139337592Y-105856063D01*
X139525918Y-105872539D01*
X139572999Y-105876659D01*
X139573000Y-105876659D01*
X139573001Y-105876659D01*
X139608284Y-105873571D01*
X139786013Y-105858022D01*
X139854512Y-105871788D01*
X139884501Y-105893869D01*
X141253586Y-107262954D01*
X141283058Y-107282645D01*
X141327270Y-107312186D01*
X141376505Y-107345084D01*
X141376506Y-107345084D01*
X141376507Y-107345085D01*
X141376509Y-107345086D01*
X141513082Y-107401656D01*
X141513087Y-107401658D01*
X141513091Y-107401658D01*
X141513092Y-107401659D01*
X141658079Y-107430500D01*
X141658082Y-107430500D01*
X156791920Y-107430500D01*
X156889462Y-107411096D01*
X156936913Y-107401658D01*
X157073495Y-107345084D01*
X157122729Y-107312186D01*
X157122734Y-107312183D01*
X157147071Y-107295921D01*
X157196416Y-107262952D01*
X157828275Y-106631091D01*
X157889596Y-106597608D01*
X157903795Y-106595371D01*
X157993632Y-106586524D01*
X158182227Y-106529314D01*
X158356038Y-106436410D01*
X158508383Y-106311383D01*
X158633410Y-106159038D01*
X158694365Y-106045000D01*
X160638540Y-106045000D01*
X160658326Y-106233256D01*
X160658327Y-106233259D01*
X160716818Y-106413277D01*
X160716821Y-106413284D01*
X160811467Y-106577216D01*
X160938129Y-106717888D01*
X161091265Y-106829148D01*
X161091270Y-106829151D01*
X161264192Y-106906142D01*
X161264197Y-106906144D01*
X161449354Y-106945500D01*
X161449355Y-106945500D01*
X161638644Y-106945500D01*
X161638646Y-106945500D01*
X161823803Y-106906144D01*
X161996730Y-106829151D01*
X162149871Y-106717888D01*
X162276533Y-106577216D01*
X162371179Y-106413284D01*
X162429674Y-106233256D01*
X162449460Y-106045000D01*
X162429674Y-105856744D01*
X162371179Y-105676716D01*
X162276533Y-105512784D01*
X162216688Y-105446319D01*
X162201350Y-105429284D01*
X162171120Y-105366292D01*
X162169500Y-105346312D01*
X162169500Y-101915611D01*
X164093500Y-101915611D01*
X164117535Y-102036444D01*
X164117540Y-102036461D01*
X164164685Y-102150281D01*
X164164688Y-102150286D01*
X164190347Y-102188686D01*
X164190348Y-102188689D01*
X164190349Y-102188689D01*
X164233141Y-102252733D01*
X164324586Y-102344178D01*
X164324608Y-102344198D01*
X165119016Y-103138606D01*
X165119045Y-103138637D01*
X165209264Y-103228856D01*
X165209267Y-103228858D01*
X165286190Y-103280256D01*
X165311710Y-103297309D01*
X165311713Y-103297311D01*
X165311715Y-103297312D01*
X165357782Y-103316393D01*
X165357783Y-103316394D01*
X165357784Y-103316394D01*
X165425548Y-103344463D01*
X165485971Y-103356481D01*
X165525974Y-103364438D01*
X165587884Y-103396825D01*
X165603353Y-103414929D01*
X165731730Y-103598269D01*
X165895731Y-103762270D01*
X166085718Y-103895301D01*
X166295921Y-103993320D01*
X166519950Y-104053349D01*
X166684985Y-104067787D01*
X166750998Y-104073563D01*
X166751000Y-104073563D01*
X166751002Y-104073563D01*
X166808762Y-104068509D01*
X166982050Y-104053349D01*
X167206079Y-103993320D01*
X167416282Y-103895301D01*
X167606269Y-103762270D01*
X167770270Y-103598269D01*
X167903301Y-103408282D01*
X168001320Y-103198079D01*
X168061349Y-102974050D01*
X168081563Y-102743000D01*
X168081125Y-102737999D01*
X168061349Y-102511955D01*
X168061349Y-102511950D01*
X168001320Y-102287921D01*
X167903301Y-102077719D01*
X167903299Y-102077716D01*
X167903298Y-102077714D01*
X167770273Y-101887735D01*
X167770268Y-101887729D01*
X167645951Y-101763412D01*
X167612466Y-101702089D01*
X167617450Y-101632397D01*
X167659322Y-101576464D01*
X167690299Y-101559549D01*
X167803019Y-101517507D01*
X167818331Y-101511796D01*
X167933546Y-101425546D01*
X168019796Y-101310331D01*
X168070091Y-101175483D01*
X168076500Y-101115873D01*
X168076499Y-99370128D01*
X168070091Y-99310517D01*
X168030954Y-99205586D01*
X168019797Y-99175671D01*
X168019793Y-99175664D01*
X167933547Y-99060455D01*
X167933544Y-99060452D01*
X167818335Y-98974206D01*
X167818328Y-98974202D01*
X167683482Y-98923908D01*
X167683483Y-98923908D01*
X167623883Y-98917501D01*
X167623881Y-98917500D01*
X167623873Y-98917500D01*
X167623864Y-98917500D01*
X165878129Y-98917500D01*
X165878123Y-98917501D01*
X165818516Y-98923908D01*
X165683671Y-98974202D01*
X165683668Y-98974204D01*
X165578881Y-99052648D01*
X165513417Y-99077065D01*
X165445144Y-99062213D01*
X165395738Y-99012808D01*
X165380886Y-98944535D01*
X165405303Y-98879071D01*
X165416882Y-98865707D01*
X166698771Y-97583819D01*
X166760094Y-97550334D01*
X166786452Y-97547500D01*
X166845644Y-97547500D01*
X166845646Y-97547500D01*
X167030803Y-97508144D01*
X167203730Y-97431151D01*
X167356871Y-97319888D01*
X167483533Y-97179216D01*
X167578179Y-97015284D01*
X167636674Y-96835256D01*
X167656460Y-96647000D01*
X167636674Y-96458744D01*
X167578179Y-96278716D01*
X167483533Y-96114784D01*
X167356871Y-95974112D01*
X167356870Y-95974111D01*
X167203734Y-95862851D01*
X167203729Y-95862848D01*
X167030807Y-95785857D01*
X167030802Y-95785855D01*
X166885001Y-95754865D01*
X166845646Y-95746500D01*
X166656354Y-95746500D01*
X166623897Y-95753398D01*
X166471197Y-95785855D01*
X166471192Y-95785857D01*
X166298270Y-95862848D01*
X166298265Y-95862851D01*
X166145129Y-95974111D01*
X166018466Y-96114785D01*
X165923821Y-96278715D01*
X165923818Y-96278722D01*
X165872279Y-96437344D01*
X165865326Y-96458744D01*
X165858684Y-96521939D01*
X165847678Y-96626651D01*
X165821093Y-96691266D01*
X165812038Y-96701370D01*
X165040398Y-97473011D01*
X164320270Y-98193139D01*
X164320267Y-98193142D01*
X164295411Y-98217998D01*
X164233140Y-98280268D01*
X164212468Y-98311208D01*
X164212466Y-98311211D01*
X164164690Y-98382710D01*
X164164685Y-98382719D01*
X164140753Y-98440499D01*
X164140753Y-98440500D01*
X164117538Y-98496545D01*
X164117535Y-98496555D01*
X164093500Y-98617389D01*
X164093500Y-101915611D01*
X162169500Y-101915611D01*
X162169500Y-97599687D01*
X162189185Y-97532648D01*
X162201350Y-97516715D01*
X162219891Y-97496122D01*
X162276533Y-97433216D01*
X162371179Y-97269284D01*
X162429674Y-97089256D01*
X162449460Y-96901000D01*
X162429674Y-96712744D01*
X162371179Y-96532716D01*
X162276533Y-96368784D01*
X162149871Y-96228112D01*
X162149870Y-96228111D01*
X161996734Y-96116851D01*
X161996729Y-96116848D01*
X161823807Y-96039857D01*
X161823802Y-96039855D01*
X161678001Y-96008865D01*
X161638646Y-96000500D01*
X161449354Y-96000500D01*
X161416897Y-96007398D01*
X161264197Y-96039855D01*
X161264192Y-96039857D01*
X161091270Y-96116848D01*
X161091265Y-96116851D01*
X160938129Y-96228111D01*
X160811466Y-96368785D01*
X160716821Y-96532715D01*
X160716818Y-96532722D01*
X160658327Y-96712740D01*
X160658326Y-96712744D01*
X160638540Y-96901000D01*
X160658326Y-97089256D01*
X160658327Y-97089259D01*
X160716818Y-97269277D01*
X160716821Y-97269284D01*
X160811467Y-97433216D01*
X160847299Y-97473011D01*
X160886650Y-97516715D01*
X160916880Y-97579706D01*
X160918500Y-97599687D01*
X160918500Y-105346312D01*
X160898815Y-105413351D01*
X160886650Y-105429284D01*
X160811466Y-105512784D01*
X160716821Y-105676715D01*
X160716818Y-105676722D01*
X160658547Y-105856063D01*
X160658326Y-105856744D01*
X160638540Y-106045000D01*
X158694365Y-106045000D01*
X158726314Y-105985227D01*
X158783524Y-105796632D01*
X158802841Y-105600500D01*
X158783524Y-105404368D01*
X158726314Y-105215773D01*
X158726311Y-105215769D01*
X158726311Y-105215766D01*
X158633413Y-105041967D01*
X158633409Y-105041960D01*
X158508383Y-104889616D01*
X158356039Y-104764590D01*
X158356032Y-104764586D01*
X158182233Y-104671688D01*
X158182227Y-104671686D01*
X157993632Y-104614476D01*
X157993629Y-104614475D01*
X157797500Y-104595159D01*
X157601370Y-104614475D01*
X157412766Y-104671688D01*
X157238967Y-104764586D01*
X157238960Y-104764590D01*
X157086616Y-104889616D01*
X156961590Y-105041960D01*
X156961586Y-105041967D01*
X156868688Y-105215766D01*
X156811475Y-105404370D01*
X156802627Y-105494200D01*
X156776465Y-105558987D01*
X156766905Y-105569725D01*
X156443449Y-105893182D01*
X156382128Y-105926666D01*
X156355770Y-105929500D01*
X142094230Y-105929500D01*
X142027191Y-105909815D01*
X142006549Y-105893181D01*
X140945869Y-104832501D01*
X140912384Y-104771178D01*
X140910022Y-104734012D01*
X140928659Y-104521000D01*
X140928659Y-104520999D01*
X140908063Y-104285596D01*
X140908063Y-104285592D01*
X140851117Y-104073063D01*
X140846905Y-104057344D01*
X140846904Y-104057343D01*
X140846903Y-104057337D01*
X140747035Y-103843171D01*
X140741425Y-103835158D01*
X140611494Y-103649597D01*
X140444402Y-103482506D01*
X140444401Y-103482505D01*
X140258405Y-103352269D01*
X140214781Y-103297692D01*
X140207588Y-103228193D01*
X140239110Y-103165839D01*
X140258405Y-103149119D01*
X140444082Y-103019105D01*
X140611105Y-102852082D01*
X140746600Y-102658578D01*
X140846429Y-102444492D01*
X140846432Y-102444486D01*
X140903636Y-102231000D01*
X140006012Y-102231000D01*
X140038925Y-102173993D01*
X140073000Y-102046826D01*
X140073000Y-101915174D01*
X140038925Y-101788007D01*
X140006012Y-101731000D01*
X140903636Y-101731000D01*
X140903635Y-101730999D01*
X140856585Y-101555406D01*
X140858248Y-101485556D01*
X140897410Y-101427693D01*
X140961638Y-101400189D01*
X141030541Y-101411775D01*
X141064041Y-101435631D01*
X143492263Y-103863855D01*
X143492267Y-103863858D01*
X143594710Y-103932309D01*
X143594711Y-103932309D01*
X143594715Y-103932312D01*
X143661396Y-103959931D01*
X143661398Y-103959933D01*
X143708543Y-103979461D01*
X143708548Y-103979463D01*
X143728597Y-103983451D01*
X143762196Y-103990134D01*
X143829392Y-104003501D01*
X143829394Y-104003501D01*
X143958721Y-104003501D01*
X143958741Y-104003500D01*
X149536124Y-104003500D01*
X149602095Y-104022505D01*
X149659310Y-104058456D01*
X149759915Y-104093659D01*
X149818943Y-104114314D01*
X149986997Y-104133249D01*
X149987000Y-104133249D01*
X149987003Y-104133249D01*
X150155056Y-104114314D01*
X150201473Y-104098072D01*
X150314690Y-104058456D01*
X150314692Y-104058454D01*
X150314694Y-104058454D01*
X150314697Y-104058452D01*
X150457884Y-103968481D01*
X150457885Y-103968480D01*
X150457890Y-103968477D01*
X150577477Y-103848890D01*
X150581072Y-103843169D01*
X150667452Y-103705697D01*
X150667454Y-103705694D01*
X150667454Y-103705692D01*
X150667456Y-103705690D01*
X150723313Y-103546059D01*
X150723313Y-103546058D01*
X150723314Y-103546056D01*
X150742249Y-103378002D01*
X150742249Y-103377997D01*
X150723314Y-103209943D01*
X150667454Y-103050305D01*
X150667452Y-103050302D01*
X150577481Y-102907115D01*
X150577476Y-102907109D01*
X150457890Y-102787523D01*
X150457884Y-102787518D01*
X150314697Y-102697547D01*
X150314694Y-102697545D01*
X150155056Y-102641685D01*
X149987003Y-102622751D01*
X149986997Y-102622751D01*
X149818943Y-102641685D01*
X149659307Y-102697545D01*
X149602096Y-102733494D01*
X149536124Y-102752500D01*
X144201453Y-102752500D01*
X144134414Y-102732815D01*
X144113772Y-102716181D01*
X141716928Y-100319338D01*
X141716925Y-100319334D01*
X141716925Y-100319335D01*
X141709858Y-100312268D01*
X141709858Y-100312267D01*
X141622733Y-100225142D01*
X141556215Y-100180696D01*
X141556216Y-100180696D01*
X141556214Y-100180694D01*
X141520290Y-100156690D01*
X141520286Y-100156688D01*
X141428887Y-100118830D01*
X141428885Y-100118828D01*
X141406455Y-100109538D01*
X141406453Y-100109537D01*
X141406452Y-100109537D01*
X141346029Y-100097518D01*
X141285610Y-100085500D01*
X141285607Y-100085500D01*
X141285606Y-100085500D01*
X140957218Y-100085500D01*
X140890179Y-100065815D01*
X140844424Y-100013011D01*
X140834480Y-99943853D01*
X140844837Y-99909094D01*
X140846900Y-99904669D01*
X140846903Y-99904663D01*
X140908063Y-99676408D01*
X140928659Y-99441000D01*
X140908063Y-99205592D01*
X140856149Y-99011844D01*
X140846905Y-98977344D01*
X140846900Y-98977330D01*
X140844837Y-98972906D01*
X140834344Y-98903829D01*
X140862863Y-98840045D01*
X140921339Y-98801804D01*
X140957218Y-98796500D01*
X151454548Y-98796500D01*
X151521587Y-98816185D01*
X151542229Y-98832819D01*
X152395025Y-99685615D01*
X152424386Y-99732341D01*
X152481545Y-99895694D01*
X152481547Y-99895697D01*
X152571518Y-100038884D01*
X152571523Y-100038890D01*
X152612452Y-100079819D01*
X152645937Y-100141142D01*
X152640953Y-100210834D01*
X152599081Y-100266767D01*
X152533617Y-100291184D01*
X152524771Y-100291500D01*
X148982053Y-100291500D01*
X148915014Y-100271815D01*
X148903392Y-100263356D01*
X148894538Y-100256090D01*
X148894537Y-100256089D01*
X148894534Y-100256087D01*
X148894532Y-100256086D01*
X148720733Y-100163188D01*
X148720727Y-100163186D01*
X148574499Y-100118828D01*
X148532129Y-100105975D01*
X148336000Y-100086659D01*
X148139870Y-100105975D01*
X147951266Y-100163188D01*
X147777467Y-100256086D01*
X147777460Y-100256090D01*
X147625116Y-100381116D01*
X147500090Y-100533460D01*
X147500086Y-100533467D01*
X147407188Y-100707266D01*
X147349975Y-100895870D01*
X147330659Y-101092000D01*
X147349975Y-101288129D01*
X147349976Y-101288132D01*
X147393587Y-101431899D01*
X147407188Y-101476733D01*
X147500086Y-101650532D01*
X147500090Y-101650539D01*
X147625116Y-101802883D01*
X147777460Y-101927909D01*
X147777467Y-101927913D01*
X147951266Y-102020811D01*
X147951269Y-102020811D01*
X147951273Y-102020814D01*
X148139868Y-102078024D01*
X148336000Y-102097341D01*
X148532132Y-102078024D01*
X148720727Y-102020814D01*
X148894538Y-101927910D01*
X148903387Y-101920647D01*
X148967696Y-101893334D01*
X148982053Y-101892500D01*
X156288844Y-101892500D01*
X156288845Y-101892499D01*
X156443497Y-101861737D01*
X156589179Y-101801394D01*
X156720289Y-101713789D01*
X158990789Y-99443289D01*
X159078394Y-99312179D01*
X159079083Y-99310517D01*
X159138735Y-99166501D01*
X159138737Y-99166497D01*
X159169500Y-99011842D01*
X159169500Y-98854158D01*
X159169500Y-96521939D01*
X159189185Y-96454900D01*
X159205814Y-96434263D01*
X162415210Y-93224866D01*
X162476531Y-93191383D01*
X162490737Y-93189146D01*
X162502132Y-93188024D01*
X162690727Y-93130814D01*
X162864538Y-93037910D01*
X163016883Y-92912883D01*
X163141910Y-92760538D01*
X163234814Y-92586727D01*
X163292024Y-92398132D01*
X163311341Y-92202000D01*
X163292024Y-92005868D01*
X163234814Y-91817273D01*
X163234811Y-91817269D01*
X163234811Y-91817266D01*
X163141913Y-91643467D01*
X163141909Y-91643460D01*
X163016883Y-91491116D01*
X162864539Y-91366090D01*
X162864532Y-91366086D01*
X162690733Y-91273188D01*
X162690727Y-91273186D01*
X162502132Y-91215976D01*
X162502129Y-91215975D01*
X162306000Y-91196659D01*
X162109870Y-91215975D01*
X161921266Y-91273188D01*
X161747467Y-91366086D01*
X161747460Y-91366090D01*
X161595116Y-91491116D01*
X161470090Y-91643460D01*
X161470086Y-91643467D01*
X161377186Y-91817271D01*
X161319976Y-92005864D01*
X161318853Y-92017266D01*
X161292690Y-92082052D01*
X161283131Y-92092789D01*
X158551267Y-94824655D01*
X157858711Y-95517211D01*
X157829777Y-95546145D01*
X157747209Y-95628712D01*
X157659609Y-95759814D01*
X157659602Y-95759827D01*
X157599264Y-95905498D01*
X157599261Y-95905510D01*
X157568500Y-96060153D01*
X157568500Y-98550060D01*
X157548815Y-98617099D01*
X157532181Y-98637741D01*
X155914741Y-100255181D01*
X155853418Y-100288666D01*
X155827060Y-100291500D01*
X153799229Y-100291500D01*
X153732190Y-100271815D01*
X153686435Y-100219011D01*
X153676491Y-100149853D01*
X153705516Y-100086297D01*
X153711548Y-100079819D01*
X153725552Y-100065815D01*
X153752477Y-100038890D01*
X153800416Y-99962596D01*
X153842452Y-99895697D01*
X153842454Y-99895694D01*
X153842454Y-99895692D01*
X153842456Y-99895690D01*
X153898313Y-99736059D01*
X153898313Y-99736058D01*
X153898314Y-99736056D01*
X153917249Y-99568002D01*
X153917249Y-99567997D01*
X153898314Y-99399943D01*
X153842454Y-99240305D01*
X153842452Y-99240302D01*
X153752481Y-99097115D01*
X153752476Y-99097109D01*
X153632890Y-98977523D01*
X153632884Y-98977518D01*
X153489697Y-98887547D01*
X153489694Y-98887545D01*
X153326341Y-98830386D01*
X153279615Y-98801025D01*
X152257928Y-97779338D01*
X152257925Y-97779334D01*
X152257925Y-97779335D01*
X152250858Y-97772268D01*
X152250858Y-97772267D01*
X152163733Y-97685142D01*
X152163732Y-97685141D01*
X152163731Y-97685140D01*
X152112509Y-97650915D01*
X152102332Y-97644115D01*
X152061286Y-97616688D01*
X152041829Y-97608629D01*
X152020241Y-97599687D01*
X151969887Y-97578830D01*
X151969885Y-97578828D01*
X151947455Y-97569538D01*
X151947453Y-97569537D01*
X151947452Y-97569537D01*
X151887029Y-97557518D01*
X151826610Y-97545500D01*
X151826607Y-97545500D01*
X151826606Y-97545500D01*
X140957218Y-97545500D01*
X140890179Y-97525815D01*
X140844424Y-97473011D01*
X140834480Y-97403853D01*
X140844837Y-97369094D01*
X140846900Y-97364669D01*
X140846903Y-97364663D01*
X140908063Y-97136408D01*
X140928659Y-96901000D01*
X140908063Y-96665592D01*
X140846903Y-96437337D01*
X140747035Y-96223171D01*
X140741425Y-96215158D01*
X140611494Y-96029597D01*
X140444402Y-95862506D01*
X140444396Y-95862501D01*
X140258842Y-95732575D01*
X140215217Y-95677998D01*
X140208023Y-95608500D01*
X140239546Y-95546145D01*
X140258842Y-95529425D01*
X140281026Y-95513891D01*
X140444401Y-95399495D01*
X140611495Y-95232401D01*
X140747035Y-95038830D01*
X140846903Y-94824663D01*
X140908063Y-94596408D01*
X140928659Y-94361000D01*
X140908063Y-94125592D01*
X140846903Y-93897337D01*
X140844837Y-93892906D01*
X140834344Y-93823829D01*
X140862863Y-93760045D01*
X140921339Y-93721804D01*
X140957218Y-93716500D01*
X150692548Y-93716500D01*
X150759587Y-93736185D01*
X150780229Y-93752819D01*
X154636038Y-97608629D01*
X154669523Y-97669952D01*
X154671678Y-97683348D01*
X154671867Y-97685142D01*
X154689326Y-97851256D01*
X154689327Y-97851259D01*
X154747818Y-98031277D01*
X154747821Y-98031284D01*
X154842467Y-98195216D01*
X154946907Y-98311208D01*
X154969129Y-98335888D01*
X155122265Y-98447148D01*
X155122270Y-98447151D01*
X155295192Y-98524142D01*
X155295197Y-98524144D01*
X155480354Y-98563500D01*
X155480355Y-98563500D01*
X155669644Y-98563500D01*
X155669646Y-98563500D01*
X155854803Y-98524144D01*
X156027730Y-98447151D01*
X156180871Y-98335888D01*
X156307533Y-98195216D01*
X156402179Y-98031284D01*
X156460674Y-97851256D01*
X156480460Y-97663000D01*
X156460674Y-97474744D01*
X156402179Y-97294716D01*
X156307533Y-97130784D01*
X156180871Y-96990112D01*
X156180870Y-96990111D01*
X156027734Y-96878851D01*
X156027729Y-96878848D01*
X155854807Y-96801857D01*
X155854802Y-96801855D01*
X155709001Y-96770865D01*
X155669646Y-96762500D01*
X155669645Y-96762500D01*
X155610453Y-96762500D01*
X155543414Y-96742815D01*
X155522772Y-96726181D01*
X151495928Y-92699338D01*
X151495925Y-92699334D01*
X151495925Y-92699335D01*
X151488858Y-92692268D01*
X151488858Y-92692267D01*
X151401733Y-92605142D01*
X151401732Y-92605141D01*
X151401731Y-92605140D01*
X151350509Y-92570915D01*
X151299286Y-92536688D01*
X151207887Y-92498830D01*
X151207885Y-92498828D01*
X151185455Y-92489538D01*
X151185453Y-92489537D01*
X151185452Y-92489537D01*
X151125029Y-92477518D01*
X151064610Y-92465500D01*
X151064607Y-92465500D01*
X151064606Y-92465500D01*
X141047500Y-92465500D01*
X140980461Y-92445815D01*
X140934706Y-92393011D01*
X140923500Y-92341500D01*
X140923499Y-90923129D01*
X140923498Y-90923123D01*
X140920548Y-90895681D01*
X140917091Y-90863517D01*
X140915810Y-90860083D01*
X140866797Y-90728671D01*
X140866793Y-90728664D01*
X140780547Y-90613455D01*
X140780544Y-90613452D01*
X140665335Y-90527206D01*
X140665328Y-90527202D01*
X140530482Y-90476908D01*
X140530483Y-90476908D01*
X140470883Y-90470501D01*
X140470881Y-90470500D01*
X140470873Y-90470500D01*
X140470864Y-90470500D01*
X138675129Y-90470500D01*
X138675123Y-90470501D01*
X138615516Y-90476908D01*
X138480671Y-90527202D01*
X138480664Y-90527206D01*
X138365455Y-90613452D01*
X138365452Y-90613455D01*
X138279206Y-90728664D01*
X138279203Y-90728669D01*
X138230189Y-90860083D01*
X138188317Y-90916016D01*
X138122853Y-90940433D01*
X138054580Y-90925581D01*
X138026326Y-90904430D01*
X137904402Y-90782506D01*
X137904395Y-90782501D01*
X137710834Y-90646967D01*
X137710830Y-90646965D01*
X137710828Y-90646964D01*
X137496663Y-90547097D01*
X137496659Y-90547096D01*
X137496655Y-90547094D01*
X137268413Y-90485938D01*
X137268403Y-90485936D01*
X137033001Y-90465341D01*
X137032999Y-90465341D01*
X136797596Y-90485936D01*
X136797586Y-90485938D01*
X136569344Y-90547094D01*
X136569335Y-90547098D01*
X136355171Y-90646964D01*
X136355169Y-90646965D01*
X136161597Y-90782505D01*
X135994505Y-90949597D01*
X135858965Y-91143169D01*
X135858964Y-91143171D01*
X135759098Y-91357335D01*
X135759094Y-91357344D01*
X135697938Y-91585586D01*
X135697936Y-91585596D01*
X135677341Y-91820999D01*
X135677341Y-91821000D01*
X135697936Y-92056403D01*
X135697938Y-92056413D01*
X135759094Y-92284655D01*
X135759096Y-92284659D01*
X135759097Y-92284663D01*
X135854632Y-92489537D01*
X135858965Y-92498830D01*
X135858967Y-92498834D01*
X135994501Y-92692395D01*
X135994506Y-92692402D01*
X136161597Y-92859493D01*
X136161603Y-92859498D01*
X136347158Y-92989425D01*
X136390783Y-93044002D01*
X136397977Y-93113500D01*
X136366454Y-93175855D01*
X136347158Y-93192575D01*
X136161597Y-93322505D01*
X135994505Y-93489597D01*
X135858965Y-93683169D01*
X135858964Y-93683171D01*
X135759098Y-93897335D01*
X135759094Y-93897344D01*
X135697938Y-94125586D01*
X135697936Y-94125596D01*
X135677341Y-94360999D01*
X135677341Y-94361000D01*
X135697936Y-94596403D01*
X135697938Y-94596413D01*
X135759094Y-94824655D01*
X135759096Y-94824659D01*
X135759097Y-94824663D01*
X135763000Y-94833032D01*
X135858965Y-95038830D01*
X135858967Y-95038834D01*
X135967281Y-95193521D01*
X135994501Y-95232396D01*
X135994506Y-95232402D01*
X136161597Y-95399493D01*
X136161603Y-95399498D01*
X136347158Y-95529425D01*
X136390783Y-95584002D01*
X136397977Y-95653500D01*
X136366454Y-95715855D01*
X136347158Y-95732575D01*
X136161597Y-95862505D01*
X135994505Y-96029597D01*
X135858965Y-96223169D01*
X135858964Y-96223171D01*
X135759098Y-96437335D01*
X135759094Y-96437344D01*
X135697938Y-96665586D01*
X135697936Y-96665596D01*
X135677341Y-96900999D01*
X135677341Y-96901000D01*
X135697936Y-97136403D01*
X135697938Y-97136413D01*
X135759094Y-97364655D01*
X135759096Y-97364659D01*
X135759097Y-97364663D01*
X135854632Y-97569537D01*
X135858965Y-97578830D01*
X135858967Y-97578834D01*
X135994501Y-97772395D01*
X135994506Y-97772402D01*
X136161597Y-97939493D01*
X136161603Y-97939498D01*
X136347158Y-98069425D01*
X136390783Y-98124002D01*
X136397977Y-98193500D01*
X136366454Y-98255855D01*
X136347158Y-98272575D01*
X136161597Y-98402505D01*
X135994505Y-98569597D01*
X135858965Y-98763169D01*
X135858964Y-98763171D01*
X135759098Y-98977335D01*
X135759094Y-98977344D01*
X135697938Y-99205586D01*
X135697936Y-99205596D01*
X135677341Y-99440999D01*
X135677341Y-99441000D01*
X135697936Y-99676403D01*
X135697938Y-99676413D01*
X135759094Y-99904655D01*
X135759096Y-99904659D01*
X135759097Y-99904663D01*
X135852971Y-100105975D01*
X135858965Y-100118830D01*
X135858967Y-100118834D01*
X135994501Y-100312395D01*
X135994506Y-100312402D01*
X136161597Y-100479493D01*
X136161603Y-100479498D01*
X136347594Y-100609730D01*
X136391219Y-100664307D01*
X136398413Y-100733805D01*
X136366890Y-100796160D01*
X136347595Y-100812880D01*
X136161922Y-100942890D01*
X136161920Y-100942891D01*
X135994891Y-101109920D01*
X135994886Y-101109926D01*
X135859400Y-101303420D01*
X135859399Y-101303422D01*
X135759570Y-101517507D01*
X135759567Y-101517513D01*
X135702364Y-101730999D01*
X135702364Y-101731000D01*
X136599988Y-101731000D01*
X136567075Y-101788007D01*
X136533000Y-101915174D01*
X136533000Y-102046826D01*
X136567075Y-102173993D01*
X136599988Y-102231000D01*
X135702364Y-102231000D01*
X135759567Y-102444486D01*
X135759570Y-102444492D01*
X135859399Y-102658578D01*
X135994894Y-102852082D01*
X136161917Y-103019105D01*
X136347595Y-103149119D01*
X136391219Y-103203696D01*
X136398412Y-103273195D01*
X136366890Y-103335549D01*
X136347595Y-103352269D01*
X136161594Y-103482508D01*
X135994505Y-103649597D01*
X135858965Y-103843169D01*
X135858964Y-103843171D01*
X135759098Y-104057335D01*
X135759094Y-104057344D01*
X135697938Y-104285586D01*
X135697936Y-104285596D01*
X135677341Y-104520999D01*
X135677341Y-104521000D01*
X134451659Y-104521000D01*
X134431063Y-104285592D01*
X134374117Y-104073063D01*
X134369905Y-104057344D01*
X134369904Y-104057343D01*
X134369903Y-104057337D01*
X134270035Y-103843171D01*
X134264425Y-103835158D01*
X134134494Y-103649597D01*
X133967402Y-103482506D01*
X133967401Y-103482505D01*
X133781405Y-103352269D01*
X133737781Y-103297692D01*
X133730588Y-103228193D01*
X133762110Y-103165839D01*
X133781405Y-103149119D01*
X133967082Y-103019105D01*
X134134105Y-102852082D01*
X134269600Y-102658578D01*
X134369429Y-102444492D01*
X134369432Y-102444486D01*
X134426636Y-102231000D01*
X133529012Y-102231000D01*
X133561925Y-102173993D01*
X133596000Y-102046826D01*
X133596000Y-101915174D01*
X133561925Y-101788007D01*
X133529012Y-101731000D01*
X134426636Y-101731000D01*
X134426635Y-101730999D01*
X134369432Y-101517513D01*
X134369429Y-101517507D01*
X134269600Y-101303422D01*
X134269599Y-101303420D01*
X134134113Y-101109926D01*
X134134108Y-101109920D01*
X133967078Y-100942890D01*
X133781405Y-100812879D01*
X133737780Y-100758302D01*
X133730588Y-100688804D01*
X133762110Y-100626449D01*
X133781406Y-100609730D01*
X133890331Y-100533460D01*
X133967401Y-100479495D01*
X134134495Y-100312401D01*
X134270035Y-100118830D01*
X134369903Y-99904663D01*
X134431063Y-99676408D01*
X134451659Y-99441000D01*
X134431063Y-99205592D01*
X134379149Y-99011844D01*
X134369905Y-98977344D01*
X134369904Y-98977343D01*
X134369903Y-98977337D01*
X134270035Y-98763171D01*
X134253690Y-98739827D01*
X134134494Y-98569597D01*
X133967402Y-98402506D01*
X133967396Y-98402501D01*
X133781842Y-98272575D01*
X133738217Y-98217998D01*
X133731023Y-98148500D01*
X133762546Y-98086145D01*
X133781842Y-98069425D01*
X133836323Y-98031277D01*
X133967401Y-97939495D01*
X134134495Y-97772401D01*
X134270035Y-97578830D01*
X134369903Y-97364663D01*
X134431063Y-97136408D01*
X134451659Y-96901000D01*
X134431063Y-96665592D01*
X134369903Y-96437337D01*
X134270035Y-96223171D01*
X134264425Y-96215158D01*
X134134494Y-96029597D01*
X133967402Y-95862506D01*
X133967396Y-95862501D01*
X133781842Y-95732575D01*
X133738217Y-95677998D01*
X133731023Y-95608500D01*
X133762546Y-95546145D01*
X133781842Y-95529425D01*
X133804026Y-95513891D01*
X133967401Y-95399495D01*
X134134495Y-95232401D01*
X134270035Y-95038830D01*
X134369903Y-94824663D01*
X134431063Y-94596408D01*
X134451659Y-94361000D01*
X134431063Y-94125592D01*
X134369903Y-93897337D01*
X134270035Y-93683171D01*
X134134495Y-93489599D01*
X134134494Y-93489597D01*
X133967402Y-93322506D01*
X133967396Y-93322501D01*
X133781842Y-93192575D01*
X133738217Y-93137998D01*
X133731023Y-93068500D01*
X133762546Y-93006145D01*
X133781842Y-92989425D01*
X133891155Y-92912883D01*
X133967401Y-92859495D01*
X134134495Y-92692401D01*
X134270035Y-92498830D01*
X134369903Y-92284663D01*
X134431063Y-92056408D01*
X134451659Y-91821000D01*
X134431063Y-91585592D01*
X134369903Y-91357337D01*
X134270035Y-91143171D01*
X134134495Y-90949599D01*
X134134494Y-90949597D01*
X133967402Y-90782506D01*
X133967395Y-90782501D01*
X133773834Y-90646967D01*
X133773830Y-90646965D01*
X133773828Y-90646964D01*
X133559663Y-90547097D01*
X133559659Y-90547096D01*
X133559655Y-90547094D01*
X133331413Y-90485938D01*
X133331409Y-90485937D01*
X133331408Y-90485937D01*
X133331406Y-90485936D01*
X133326079Y-90484998D01*
X133326502Y-90482595D01*
X133271009Y-90460814D01*
X133230097Y-90404175D01*
X133223000Y-90362827D01*
X133223000Y-88135000D01*
X133242685Y-88067961D01*
X133295489Y-88022206D01*
X133347000Y-88011000D01*
X167334638Y-88011000D01*
X167401677Y-88030685D01*
G37*
%TD.AperFunction*%
%TD*%
M02*
