M48
; DRILL file {KiCad 8.0.0} date 2024-03-06T18:55:47+0900
; FORMAT={-:-/ absolute / inch / decimal}
; #@! TF.CreationDate,2024-03-06T18:55:47+09:00
; #@! TF.GenerationSoftware,Kicad,Pcbnew,8.0.0
; #@! TF.FileFunction,Plated,1,2,PTH
FMAT,2
INCH
; #@! TA.AperFunction,Plated,PTH,ViaDrill
T1C0.0157
; #@! TA.AperFunction,Plated,PTH,ViaDrill
T2C0.0236
; #@! TA.AperFunction,Plated,PTH,ComponentDrill
T3C0.0394
; #@! TA.AperFunction,Plated,PTH,ComponentDrill
T4C0.0433
%
G90
G05
T1
X5.74Y-3.995
X5.885Y-3.62
X6.03Y-3.92
X6.125Y-3.845
X6.135Y-3.62
X6.36Y-3.815
X6.36Y-4.175
X6.555Y-3.53
X6.555Y-4.17
X6.565Y-3.805
T2
X6.2125Y-4.1575
T3
X5.24Y-3.615
X5.24Y-3.715
X5.24Y-3.815
X5.24Y-3.915
X5.24Y-4.015
X5.24Y-4.115
X5.395Y-3.615
X5.395Y-3.715
X5.395Y-3.815
X5.395Y-3.915
X5.395Y-4.015
X5.395Y-4.115
X5.495Y-3.615
X5.495Y-3.715
X5.495Y-3.815
X5.495Y-3.915
X5.495Y-4.015
X5.495Y-4.115
X6.71Y-3.9448
X6.71Y-4.0448
T4
X6.565Y-3.9466
X6.565Y-4.045
M30
