%TF.GenerationSoftware,KiCad,Pcbnew,8.0.0*%
%TF.CreationDate,2024-03-09T01:11:29+09:00*%
%TF.ProjectId,Pmod_CAN,506d6f64-5f43-4414-9e2e-6b696361645f,rev?*%
%TF.SameCoordinates,Original*%
%TF.FileFunction,Legend,Bot*%
%TF.FilePolarity,Positive*%
%FSLAX46Y46*%
G04 Gerber Fmt 4.6, Leading zero omitted, Abs format (unit mm)*
G04 Created by KiCad (PCBNEW 8.0.0) date 2024-03-09 01:11:29*
%MOMM*%
%LPD*%
G01*
G04 APERTURE LIST*
%ADD10C,0.150000*%
%ADD11C,0.000000*%
G04 APERTURE END LIST*
D10*
X143624058Y-104076619D02*
X143005011Y-104076619D01*
X143005011Y-104076619D02*
X143338344Y-104457571D01*
X143338344Y-104457571D02*
X143195487Y-104457571D01*
X143195487Y-104457571D02*
X143100249Y-104505190D01*
X143100249Y-104505190D02*
X143052630Y-104552809D01*
X143052630Y-104552809D02*
X143005011Y-104648047D01*
X143005011Y-104648047D02*
X143005011Y-104886142D01*
X143005011Y-104886142D02*
X143052630Y-104981380D01*
X143052630Y-104981380D02*
X143100249Y-105029000D01*
X143100249Y-105029000D02*
X143195487Y-105076619D01*
X143195487Y-105076619D02*
X143481201Y-105076619D01*
X143481201Y-105076619D02*
X143576439Y-105029000D01*
X143576439Y-105029000D02*
X143624058Y-104981380D01*
X142719296Y-104076619D02*
X142385963Y-105076619D01*
X142385963Y-105076619D02*
X142052630Y-104076619D01*
X141814534Y-104076619D02*
X141195487Y-104076619D01*
X141195487Y-104076619D02*
X141528820Y-104457571D01*
X141528820Y-104457571D02*
X141385963Y-104457571D01*
X141385963Y-104457571D02*
X141290725Y-104505190D01*
X141290725Y-104505190D02*
X141243106Y-104552809D01*
X141243106Y-104552809D02*
X141195487Y-104648047D01*
X141195487Y-104648047D02*
X141195487Y-104886142D01*
X141195487Y-104886142D02*
X141243106Y-104981380D01*
X141243106Y-104981380D02*
X141290725Y-105029000D01*
X141290725Y-105029000D02*
X141385963Y-105076619D01*
X141385963Y-105076619D02*
X141671677Y-105076619D01*
X141671677Y-105076619D02*
X141766915Y-105029000D01*
X141766915Y-105029000D02*
X141814534Y-104981380D01*
X148634220Y-107692819D02*
X148634220Y-106692819D01*
X148634220Y-106692819D02*
X148253268Y-106692819D01*
X148253268Y-106692819D02*
X148158030Y-106740438D01*
X148158030Y-106740438D02*
X148110411Y-106788057D01*
X148110411Y-106788057D02*
X148062792Y-106883295D01*
X148062792Y-106883295D02*
X148062792Y-107026152D01*
X148062792Y-107026152D02*
X148110411Y-107121390D01*
X148110411Y-107121390D02*
X148158030Y-107169009D01*
X148158030Y-107169009D02*
X148253268Y-107216628D01*
X148253268Y-107216628D02*
X148634220Y-107216628D01*
X147634220Y-107692819D02*
X147634220Y-107026152D01*
X147634220Y-107121390D02*
X147586601Y-107073771D01*
X147586601Y-107073771D02*
X147491363Y-107026152D01*
X147491363Y-107026152D02*
X147348506Y-107026152D01*
X147348506Y-107026152D02*
X147253268Y-107073771D01*
X147253268Y-107073771D02*
X147205649Y-107169009D01*
X147205649Y-107169009D02*
X147205649Y-107692819D01*
X147205649Y-107169009D02*
X147158030Y-107073771D01*
X147158030Y-107073771D02*
X147062792Y-107026152D01*
X147062792Y-107026152D02*
X146919935Y-107026152D01*
X146919935Y-107026152D02*
X146824696Y-107073771D01*
X146824696Y-107073771D02*
X146777077Y-107169009D01*
X146777077Y-107169009D02*
X146777077Y-107692819D01*
X146158030Y-107692819D02*
X146253268Y-107645200D01*
X146253268Y-107645200D02*
X146300887Y-107597580D01*
X146300887Y-107597580D02*
X146348506Y-107502342D01*
X146348506Y-107502342D02*
X146348506Y-107216628D01*
X146348506Y-107216628D02*
X146300887Y-107121390D01*
X146300887Y-107121390D02*
X146253268Y-107073771D01*
X146253268Y-107073771D02*
X146158030Y-107026152D01*
X146158030Y-107026152D02*
X146015173Y-107026152D01*
X146015173Y-107026152D02*
X145919935Y-107073771D01*
X145919935Y-107073771D02*
X145872316Y-107121390D01*
X145872316Y-107121390D02*
X145824697Y-107216628D01*
X145824697Y-107216628D02*
X145824697Y-107502342D01*
X145824697Y-107502342D02*
X145872316Y-107597580D01*
X145872316Y-107597580D02*
X145919935Y-107645200D01*
X145919935Y-107645200D02*
X146015173Y-107692819D01*
X146015173Y-107692819D02*
X146158030Y-107692819D01*
X144967554Y-107692819D02*
X144967554Y-106692819D01*
X144967554Y-107645200D02*
X145062792Y-107692819D01*
X145062792Y-107692819D02*
X145253268Y-107692819D01*
X145253268Y-107692819D02*
X145348506Y-107645200D01*
X145348506Y-107645200D02*
X145396125Y-107597580D01*
X145396125Y-107597580D02*
X145443744Y-107502342D01*
X145443744Y-107502342D02*
X145443744Y-107216628D01*
X145443744Y-107216628D02*
X145396125Y-107121390D01*
X145396125Y-107121390D02*
X145348506Y-107073771D01*
X145348506Y-107073771D02*
X145253268Y-107026152D01*
X145253268Y-107026152D02*
X145062792Y-107026152D01*
X145062792Y-107026152D02*
X144967554Y-107073771D01*
X144729459Y-107788057D02*
X143967554Y-107788057D01*
X143158030Y-107597580D02*
X143205649Y-107645200D01*
X143205649Y-107645200D02*
X143348506Y-107692819D01*
X143348506Y-107692819D02*
X143443744Y-107692819D01*
X143443744Y-107692819D02*
X143586601Y-107645200D01*
X143586601Y-107645200D02*
X143681839Y-107549961D01*
X143681839Y-107549961D02*
X143729458Y-107454723D01*
X143729458Y-107454723D02*
X143777077Y-107264247D01*
X143777077Y-107264247D02*
X143777077Y-107121390D01*
X143777077Y-107121390D02*
X143729458Y-106930914D01*
X143729458Y-106930914D02*
X143681839Y-106835676D01*
X143681839Y-106835676D02*
X143586601Y-106740438D01*
X143586601Y-106740438D02*
X143443744Y-106692819D01*
X143443744Y-106692819D02*
X143348506Y-106692819D01*
X143348506Y-106692819D02*
X143205649Y-106740438D01*
X143205649Y-106740438D02*
X143158030Y-106788057D01*
X142777077Y-107407104D02*
X142300887Y-107407104D01*
X142872315Y-107692819D02*
X142538982Y-106692819D01*
X142538982Y-106692819D02*
X142205649Y-107692819D01*
X141872315Y-107692819D02*
X141872315Y-106692819D01*
X141872315Y-106692819D02*
X141300887Y-107692819D01*
X141300887Y-107692819D02*
X141300887Y-106692819D01*
X140205648Y-106692819D02*
X139872315Y-107692819D01*
X139872315Y-107692819D02*
X139538982Y-106692819D01*
X138824696Y-107645200D02*
X138919934Y-107692819D01*
X138919934Y-107692819D02*
X139110410Y-107692819D01*
X139110410Y-107692819D02*
X139205648Y-107645200D01*
X139205648Y-107645200D02*
X139253267Y-107549961D01*
X139253267Y-107549961D02*
X139253267Y-107169009D01*
X139253267Y-107169009D02*
X139205648Y-107073771D01*
X139205648Y-107073771D02*
X139110410Y-107026152D01*
X139110410Y-107026152D02*
X138919934Y-107026152D01*
X138919934Y-107026152D02*
X138824696Y-107073771D01*
X138824696Y-107073771D02*
X138777077Y-107169009D01*
X138777077Y-107169009D02*
X138777077Y-107264247D01*
X138777077Y-107264247D02*
X139253267Y-107359485D01*
X138348505Y-107692819D02*
X138348505Y-107026152D01*
X138348505Y-107216628D02*
X138300886Y-107121390D01*
X138300886Y-107121390D02*
X138253267Y-107073771D01*
X138253267Y-107073771D02*
X138158029Y-107026152D01*
X138158029Y-107026152D02*
X138062791Y-107026152D01*
X136777076Y-106692819D02*
X136681838Y-106692819D01*
X136681838Y-106692819D02*
X136586600Y-106740438D01*
X136586600Y-106740438D02*
X136538981Y-106788057D01*
X136538981Y-106788057D02*
X136491362Y-106883295D01*
X136491362Y-106883295D02*
X136443743Y-107073771D01*
X136443743Y-107073771D02*
X136443743Y-107311866D01*
X136443743Y-107311866D02*
X136491362Y-107502342D01*
X136491362Y-107502342D02*
X136538981Y-107597580D01*
X136538981Y-107597580D02*
X136586600Y-107645200D01*
X136586600Y-107645200D02*
X136681838Y-107692819D01*
X136681838Y-107692819D02*
X136777076Y-107692819D01*
X136777076Y-107692819D02*
X136872314Y-107645200D01*
X136872314Y-107645200D02*
X136919933Y-107597580D01*
X136919933Y-107597580D02*
X136967552Y-107502342D01*
X136967552Y-107502342D02*
X137015171Y-107311866D01*
X137015171Y-107311866D02*
X137015171Y-107073771D01*
X137015171Y-107073771D02*
X136967552Y-106883295D01*
X136967552Y-106883295D02*
X136919933Y-106788057D01*
X136919933Y-106788057D02*
X136872314Y-106740438D01*
X136872314Y-106740438D02*
X136777076Y-106692819D01*
X136015171Y-107597580D02*
X135967552Y-107645200D01*
X135967552Y-107645200D02*
X136015171Y-107692819D01*
X136015171Y-107692819D02*
X136062790Y-107645200D01*
X136062790Y-107645200D02*
X136015171Y-107597580D01*
X136015171Y-107597580D02*
X136015171Y-107692819D01*
X135586600Y-106788057D02*
X135538981Y-106740438D01*
X135538981Y-106740438D02*
X135443743Y-106692819D01*
X135443743Y-106692819D02*
X135205648Y-106692819D01*
X135205648Y-106692819D02*
X135110410Y-106740438D01*
X135110410Y-106740438D02*
X135062791Y-106788057D01*
X135062791Y-106788057D02*
X135015172Y-106883295D01*
X135015172Y-106883295D02*
X135015172Y-106978533D01*
X135015172Y-106978533D02*
X135062791Y-107121390D01*
X135062791Y-107121390D02*
X135634219Y-107692819D01*
X135634219Y-107692819D02*
X135015172Y-107692819D01*
X141798439Y-94818200D02*
X141655582Y-94865819D01*
X141655582Y-94865819D02*
X141417487Y-94865819D01*
X141417487Y-94865819D02*
X141322249Y-94818200D01*
X141322249Y-94818200D02*
X141274630Y-94770580D01*
X141274630Y-94770580D02*
X141227011Y-94675342D01*
X141227011Y-94675342D02*
X141227011Y-94580104D01*
X141227011Y-94580104D02*
X141274630Y-94484866D01*
X141274630Y-94484866D02*
X141322249Y-94437247D01*
X141322249Y-94437247D02*
X141417487Y-94389628D01*
X141417487Y-94389628D02*
X141607963Y-94342009D01*
X141607963Y-94342009D02*
X141703201Y-94294390D01*
X141703201Y-94294390D02*
X141750820Y-94246771D01*
X141750820Y-94246771D02*
X141798439Y-94151533D01*
X141798439Y-94151533D02*
X141798439Y-94056295D01*
X141798439Y-94056295D02*
X141750820Y-93961057D01*
X141750820Y-93961057D02*
X141703201Y-93913438D01*
X141703201Y-93913438D02*
X141607963Y-93865819D01*
X141607963Y-93865819D02*
X141369868Y-93865819D01*
X141369868Y-93865819D02*
X141227011Y-93913438D01*
X147713458Y-91198819D02*
X147475363Y-92198819D01*
X147475363Y-92198819D02*
X147284887Y-91484533D01*
X147284887Y-91484533D02*
X147094411Y-92198819D01*
X147094411Y-92198819D02*
X146856316Y-91198819D01*
X146522982Y-92151200D02*
X146380125Y-92198819D01*
X146380125Y-92198819D02*
X146142030Y-92198819D01*
X146142030Y-92198819D02*
X146046792Y-92151200D01*
X146046792Y-92151200D02*
X145999173Y-92103580D01*
X145999173Y-92103580D02*
X145951554Y-92008342D01*
X145951554Y-92008342D02*
X145951554Y-91913104D01*
X145951554Y-91913104D02*
X145999173Y-91817866D01*
X145999173Y-91817866D02*
X146046792Y-91770247D01*
X146046792Y-91770247D02*
X146142030Y-91722628D01*
X146142030Y-91722628D02*
X146332506Y-91675009D01*
X146332506Y-91675009D02*
X146427744Y-91627390D01*
X146427744Y-91627390D02*
X146475363Y-91579771D01*
X146475363Y-91579771D02*
X146522982Y-91484533D01*
X146522982Y-91484533D02*
X146522982Y-91389295D01*
X146522982Y-91389295D02*
X146475363Y-91294057D01*
X146475363Y-91294057D02*
X146427744Y-91246438D01*
X146427744Y-91246438D02*
X146332506Y-91198819D01*
X146332506Y-91198819D02*
X146094411Y-91198819D01*
X146094411Y-91198819D02*
X145951554Y-91246438D01*
X145570601Y-91294057D02*
X145522982Y-91246438D01*
X145522982Y-91246438D02*
X145427744Y-91198819D01*
X145427744Y-91198819D02*
X145189649Y-91198819D01*
X145189649Y-91198819D02*
X145094411Y-91246438D01*
X145094411Y-91246438D02*
X145046792Y-91294057D01*
X145046792Y-91294057D02*
X144999173Y-91389295D01*
X144999173Y-91389295D02*
X144999173Y-91484533D01*
X144999173Y-91484533D02*
X145046792Y-91627390D01*
X145046792Y-91627390D02*
X145618220Y-92198819D01*
X145618220Y-92198819D02*
X144999173Y-92198819D01*
X144427744Y-91627390D02*
X144522982Y-91579771D01*
X144522982Y-91579771D02*
X144570601Y-91532152D01*
X144570601Y-91532152D02*
X144618220Y-91436914D01*
X144618220Y-91436914D02*
X144618220Y-91389295D01*
X144618220Y-91389295D02*
X144570601Y-91294057D01*
X144570601Y-91294057D02*
X144522982Y-91246438D01*
X144522982Y-91246438D02*
X144427744Y-91198819D01*
X144427744Y-91198819D02*
X144237268Y-91198819D01*
X144237268Y-91198819D02*
X144142030Y-91246438D01*
X144142030Y-91246438D02*
X144094411Y-91294057D01*
X144094411Y-91294057D02*
X144046792Y-91389295D01*
X144046792Y-91389295D02*
X144046792Y-91436914D01*
X144046792Y-91436914D02*
X144094411Y-91532152D01*
X144094411Y-91532152D02*
X144142030Y-91579771D01*
X144142030Y-91579771D02*
X144237268Y-91627390D01*
X144237268Y-91627390D02*
X144427744Y-91627390D01*
X144427744Y-91627390D02*
X144522982Y-91675009D01*
X144522982Y-91675009D02*
X144570601Y-91722628D01*
X144570601Y-91722628D02*
X144618220Y-91817866D01*
X144618220Y-91817866D02*
X144618220Y-92008342D01*
X144618220Y-92008342D02*
X144570601Y-92103580D01*
X144570601Y-92103580D02*
X144522982Y-92151200D01*
X144522982Y-92151200D02*
X144427744Y-92198819D01*
X144427744Y-92198819D02*
X144237268Y-92198819D01*
X144237268Y-92198819D02*
X144142030Y-92151200D01*
X144142030Y-92151200D02*
X144094411Y-92103580D01*
X144094411Y-92103580D02*
X144046792Y-92008342D01*
X144046792Y-92008342D02*
X144046792Y-91817866D01*
X144046792Y-91817866D02*
X144094411Y-91722628D01*
X144094411Y-91722628D02*
X144142030Y-91675009D01*
X144142030Y-91675009D02*
X144237268Y-91627390D01*
X143094411Y-92198819D02*
X143665839Y-92198819D01*
X143380125Y-92198819D02*
X143380125Y-91198819D01*
X143380125Y-91198819D02*
X143475363Y-91341676D01*
X143475363Y-91341676D02*
X143570601Y-91436914D01*
X143570601Y-91436914D02*
X143665839Y-91484533D01*
X142713458Y-91294057D02*
X142665839Y-91246438D01*
X142665839Y-91246438D02*
X142570601Y-91198819D01*
X142570601Y-91198819D02*
X142332506Y-91198819D01*
X142332506Y-91198819D02*
X142237268Y-91246438D01*
X142237268Y-91246438D02*
X142189649Y-91294057D01*
X142189649Y-91294057D02*
X142142030Y-91389295D01*
X142142030Y-91389295D02*
X142142030Y-91484533D01*
X142142030Y-91484533D02*
X142189649Y-91627390D01*
X142189649Y-91627390D02*
X142761077Y-92198819D01*
X142761077Y-92198819D02*
X142142030Y-92198819D01*
X141380125Y-91675009D02*
X141237268Y-91722628D01*
X141237268Y-91722628D02*
X141189649Y-91770247D01*
X141189649Y-91770247D02*
X141142030Y-91865485D01*
X141142030Y-91865485D02*
X141142030Y-92008342D01*
X141142030Y-92008342D02*
X141189649Y-92103580D01*
X141189649Y-92103580D02*
X141237268Y-92151200D01*
X141237268Y-92151200D02*
X141332506Y-92198819D01*
X141332506Y-92198819D02*
X141713458Y-92198819D01*
X141713458Y-92198819D02*
X141713458Y-91198819D01*
X141713458Y-91198819D02*
X141380125Y-91198819D01*
X141380125Y-91198819D02*
X141284887Y-91246438D01*
X141284887Y-91246438D02*
X141237268Y-91294057D01*
X141237268Y-91294057D02*
X141189649Y-91389295D01*
X141189649Y-91389295D02*
X141189649Y-91484533D01*
X141189649Y-91484533D02*
X141237268Y-91579771D01*
X141237268Y-91579771D02*
X141284887Y-91627390D01*
X141284887Y-91627390D02*
X141380125Y-91675009D01*
X141380125Y-91675009D02*
X141713458Y-91675009D01*
X142982792Y-99945819D02*
X143316125Y-99469628D01*
X143554220Y-99945819D02*
X143554220Y-98945819D01*
X143554220Y-98945819D02*
X143173268Y-98945819D01*
X143173268Y-98945819D02*
X143078030Y-98993438D01*
X143078030Y-98993438D02*
X143030411Y-99041057D01*
X143030411Y-99041057D02*
X142982792Y-99136295D01*
X142982792Y-99136295D02*
X142982792Y-99279152D01*
X142982792Y-99279152D02*
X143030411Y-99374390D01*
X143030411Y-99374390D02*
X143078030Y-99422009D01*
X143078030Y-99422009D02*
X143173268Y-99469628D01*
X143173268Y-99469628D02*
X143554220Y-99469628D01*
X142649458Y-98945819D02*
X141982792Y-99945819D01*
X141982792Y-98945819D02*
X142649458Y-99945819D01*
X141601839Y-99945819D02*
X141601839Y-98945819D01*
X141601839Y-98945819D02*
X141363744Y-98945819D01*
X141363744Y-98945819D02*
X141220887Y-98993438D01*
X141220887Y-98993438D02*
X141125649Y-99088676D01*
X141125649Y-99088676D02*
X141078030Y-99183914D01*
X141078030Y-99183914D02*
X141030411Y-99374390D01*
X141030411Y-99374390D02*
X141030411Y-99517247D01*
X141030411Y-99517247D02*
X141078030Y-99707723D01*
X141078030Y-99707723D02*
X141125649Y-99802961D01*
X141125649Y-99802961D02*
X141220887Y-99898200D01*
X141220887Y-99898200D02*
X141363744Y-99945819D01*
X141363744Y-99945819D02*
X141601839Y-99945819D01*
X143570077Y-96405819D02*
X142998649Y-96405819D01*
X143284363Y-97405819D02*
X143284363Y-96405819D01*
X142760553Y-96405819D02*
X142093887Y-97405819D01*
X142093887Y-96405819D02*
X142760553Y-97405819D01*
X141712934Y-97405819D02*
X141712934Y-96405819D01*
X141712934Y-96405819D02*
X141474839Y-96405819D01*
X141474839Y-96405819D02*
X141331982Y-96453438D01*
X141331982Y-96453438D02*
X141236744Y-96548676D01*
X141236744Y-96548676D02*
X141189125Y-96643914D01*
X141189125Y-96643914D02*
X141141506Y-96834390D01*
X141141506Y-96834390D02*
X141141506Y-96977247D01*
X141141506Y-96977247D02*
X141189125Y-97167723D01*
X141189125Y-97167723D02*
X141236744Y-97262961D01*
X141236744Y-97262961D02*
X141331982Y-97358200D01*
X141331982Y-97358200D02*
X141474839Y-97405819D01*
X141474839Y-97405819D02*
X141712934Y-97405819D01*
X143157411Y-101533438D02*
X143252649Y-101485819D01*
X143252649Y-101485819D02*
X143395506Y-101485819D01*
X143395506Y-101485819D02*
X143538363Y-101533438D01*
X143538363Y-101533438D02*
X143633601Y-101628676D01*
X143633601Y-101628676D02*
X143681220Y-101723914D01*
X143681220Y-101723914D02*
X143728839Y-101914390D01*
X143728839Y-101914390D02*
X143728839Y-102057247D01*
X143728839Y-102057247D02*
X143681220Y-102247723D01*
X143681220Y-102247723D02*
X143633601Y-102342961D01*
X143633601Y-102342961D02*
X143538363Y-102438200D01*
X143538363Y-102438200D02*
X143395506Y-102485819D01*
X143395506Y-102485819D02*
X143300268Y-102485819D01*
X143300268Y-102485819D02*
X143157411Y-102438200D01*
X143157411Y-102438200D02*
X143109792Y-102390580D01*
X143109792Y-102390580D02*
X143109792Y-102057247D01*
X143109792Y-102057247D02*
X143300268Y-102057247D01*
X142681220Y-102485819D02*
X142681220Y-101485819D01*
X142681220Y-101485819D02*
X142109792Y-102485819D01*
X142109792Y-102485819D02*
X142109792Y-101485819D01*
X141633601Y-102485819D02*
X141633601Y-101485819D01*
X141633601Y-101485819D02*
X141395506Y-101485819D01*
X141395506Y-101485819D02*
X141252649Y-101533438D01*
X141252649Y-101533438D02*
X141157411Y-101628676D01*
X141157411Y-101628676D02*
X141109792Y-101723914D01*
X141109792Y-101723914D02*
X141062173Y-101914390D01*
X141062173Y-101914390D02*
X141062173Y-102057247D01*
X141062173Y-102057247D02*
X141109792Y-102247723D01*
X141109792Y-102247723D02*
X141157411Y-102342961D01*
X141157411Y-102342961D02*
X141252649Y-102438200D01*
X141252649Y-102438200D02*
X141395506Y-102485819D01*
X141395506Y-102485819D02*
X141633601Y-102485819D01*
D11*
%TO.C,G\u002A\u002A\u002A*%
G36*
X155950292Y-94500258D02*
G01*
X156197895Y-94531499D01*
X156230104Y-94536186D01*
X156483746Y-94564028D01*
X156800846Y-94586710D01*
X157160181Y-94602967D01*
X157540529Y-94611533D01*
X157749220Y-94614489D01*
X158033064Y-94621790D01*
X158237506Y-94632664D01*
X158367941Y-94647862D01*
X158429767Y-94668135D01*
X158428380Y-94694235D01*
X158369176Y-94726914D01*
X158342923Y-94734740D01*
X158222118Y-94749226D01*
X158036662Y-94755806D01*
X157800437Y-94755303D01*
X157527322Y-94748538D01*
X157231198Y-94736333D01*
X156925946Y-94719511D01*
X156625446Y-94698894D01*
X156343578Y-94675304D01*
X156094222Y-94649562D01*
X155891260Y-94622491D01*
X155748571Y-94594913D01*
X155680036Y-94567650D01*
X155663341Y-94546009D01*
X155679681Y-94507746D01*
X155776443Y-94492418D01*
X155950292Y-94500258D01*
G37*
G36*
X155659980Y-101024223D02*
G01*
X155855602Y-101034261D01*
X155983229Y-101052744D01*
X156033041Y-101079674D01*
X156016989Y-101091345D01*
X155923797Y-101108831D01*
X155753440Y-101125576D01*
X155512467Y-101140988D01*
X155207427Y-101154473D01*
X154958989Y-101164852D01*
X154679923Y-101179285D01*
X154427606Y-101195141D01*
X154222457Y-101211122D01*
X154084896Y-101225927D01*
X153932054Y-101244859D01*
X153716813Y-101263064D01*
X153518929Y-101271045D01*
X153355907Y-101268675D01*
X153245255Y-101255824D01*
X153204480Y-101232365D01*
X153204536Y-101227798D01*
X153209100Y-101206853D01*
X153228452Y-101189691D01*
X153273020Y-101174780D01*
X153353227Y-101160588D01*
X153479500Y-101145585D01*
X153662265Y-101128237D01*
X153911946Y-101107014D01*
X154238969Y-101080384D01*
X154393920Y-101068436D01*
X154763331Y-101044736D01*
X155104025Y-101029464D01*
X155406180Y-101022626D01*
X155659980Y-101024223D01*
G37*
G36*
X154792578Y-98250174D02*
G01*
X154852178Y-98279366D01*
X154855800Y-98324388D01*
X154794266Y-98375131D01*
X154656631Y-98427119D01*
X154437063Y-98483219D01*
X154248129Y-98527316D01*
X154018175Y-98583847D01*
X153820772Y-98635130D01*
X153683676Y-98671295D01*
X153467958Y-98725524D01*
X153279465Y-98770171D01*
X153273873Y-98771435D01*
X153100822Y-98817735D01*
X153015098Y-98858515D01*
X153016201Y-98894213D01*
X153103633Y-98925271D01*
X153138176Y-98933408D01*
X153274616Y-98969660D01*
X153424584Y-99013594D01*
X153455274Y-99022858D01*
X153593739Y-99062844D01*
X153788471Y-99117502D01*
X154018031Y-99180851D01*
X154260980Y-99246910D01*
X154520157Y-99322815D01*
X154806378Y-99420026D01*
X155071158Y-99523253D01*
X155301776Y-99626736D01*
X155485512Y-99724715D01*
X155609647Y-99811429D01*
X155661459Y-99881118D01*
X155661278Y-99909338D01*
X155607569Y-99988200D01*
X155488809Y-100061019D01*
X155321776Y-100119275D01*
X155123248Y-100154446D01*
X155089168Y-100157653D01*
X154925114Y-100170772D01*
X154704988Y-100186097D01*
X154453398Y-100201977D01*
X154194948Y-100216759D01*
X154039568Y-100225155D01*
X153763448Y-100239951D01*
X153559664Y-100250136D01*
X153417559Y-100255636D01*
X153326477Y-100256376D01*
X153275763Y-100252282D01*
X153254762Y-100243282D01*
X153252817Y-100229300D01*
X153259274Y-100210263D01*
X153279022Y-100185712D01*
X153339011Y-100159006D01*
X153445977Y-100135494D01*
X153608129Y-100114140D01*
X153833674Y-100093908D01*
X154130820Y-100073761D01*
X154507778Y-100052664D01*
X154721988Y-100040250D01*
X155027222Y-100016130D01*
X155250932Y-99988118D01*
X155397227Y-99955449D01*
X155470218Y-99917361D01*
X155474015Y-99873088D01*
X155438058Y-99837736D01*
X155318412Y-99767511D01*
X155132125Y-99683732D01*
X154890811Y-99590770D01*
X154606083Y-99492996D01*
X154289553Y-99394781D01*
X153952834Y-99300496D01*
X153722273Y-99238675D01*
X153411226Y-99151568D01*
X153173834Y-99078941D01*
X153002471Y-99017971D01*
X152889511Y-98965833D01*
X152827327Y-98919706D01*
X152808293Y-98876765D01*
X152814620Y-98849378D01*
X152886489Y-98775440D01*
X153028101Y-98703642D01*
X153226491Y-98641285D01*
X153276778Y-98628803D01*
X153585802Y-98551995D01*
X153877302Y-98479372D01*
X154128631Y-98416582D01*
X154317140Y-98369274D01*
X154388334Y-98349503D01*
X154497571Y-98310416D01*
X154550847Y-98278315D01*
X154595759Y-98253074D01*
X154692201Y-98241358D01*
X154792578Y-98250174D01*
G37*
G36*
X155027494Y-92323321D02*
G01*
X155002427Y-92360748D01*
X155025336Y-92417269D01*
X155109840Y-92507991D01*
X155251448Y-92644855D01*
X155537583Y-92554208D01*
X155706489Y-92501150D01*
X155887133Y-92447472D01*
X156024193Y-92413600D01*
X156141006Y-92395009D01*
X156260910Y-92387173D01*
X156407241Y-92385567D01*
X156701699Y-92399508D01*
X157069972Y-92462074D01*
X157446310Y-92580573D01*
X157854478Y-92761171D01*
X158034270Y-92852921D01*
X158416334Y-93073953D01*
X158744157Y-93308972D01*
X159041111Y-93575893D01*
X159330572Y-93892635D01*
X159372958Y-93946398D01*
X159485380Y-94121606D01*
X159582154Y-94315237D01*
X159649974Y-94498384D01*
X159675538Y-94642142D01*
X159681508Y-94689846D01*
X159716202Y-94695349D01*
X159803475Y-94654771D01*
X159920657Y-94602260D01*
X160154918Y-94522187D01*
X160431079Y-94448297D01*
X160724322Y-94385668D01*
X161009832Y-94339378D01*
X161262790Y-94314507D01*
X161458380Y-94316131D01*
X161507239Y-94324877D01*
X161646638Y-94390743D01*
X161748842Y-94497187D01*
X161787472Y-94617529D01*
X161788536Y-94620844D01*
X161783698Y-94649131D01*
X161726062Y-94755274D01*
X161613072Y-94895159D01*
X161457005Y-95056611D01*
X161270135Y-95227454D01*
X161064740Y-95395514D01*
X160853094Y-95548614D01*
X160770682Y-95604857D01*
X160637747Y-95699922D01*
X160546090Y-95771439D01*
X160511933Y-95807116D01*
X160512402Y-95810438D01*
X160545300Y-95865408D01*
X160614156Y-95948843D01*
X160628575Y-95965465D01*
X160723084Y-96105257D01*
X160822399Y-96295812D01*
X160920007Y-96518731D01*
X161009392Y-96755617D01*
X161084042Y-96988073D01*
X161137443Y-97197700D01*
X161163081Y-97366100D01*
X161154443Y-97474876D01*
X161127350Y-97502566D01*
X161021128Y-97529792D01*
X160848590Y-97533388D01*
X160621276Y-97513427D01*
X160350727Y-97469976D01*
X160328293Y-97465744D01*
X160140817Y-97434451D01*
X159970678Y-97412333D01*
X159852268Y-97403945D01*
X159698843Y-97403938D01*
X160057178Y-97762273D01*
X160240828Y-97666550D01*
X160241192Y-97666360D01*
X160360846Y-97609226D01*
X160443861Y-97590677D01*
X160497315Y-97620602D01*
X160528282Y-97708892D01*
X160543839Y-97865435D01*
X160551063Y-98100121D01*
X160551556Y-98125474D01*
X160553930Y-98345174D01*
X160545512Y-98493195D01*
X160544370Y-98497000D01*
X160518127Y-98584449D01*
X160463598Y-98633852D01*
X160373749Y-98656317D01*
X160240401Y-98666759D01*
X160212390Y-98668753D01*
X160054388Y-98685688D01*
X159855031Y-98713008D01*
X159650642Y-98745844D01*
X159480652Y-98774292D01*
X159281353Y-98801846D01*
X159151323Y-98809603D01*
X159080606Y-98797925D01*
X159059247Y-98767168D01*
X159067907Y-98711761D01*
X159120009Y-98581230D01*
X159202440Y-98442567D01*
X159295688Y-98331706D01*
X159382307Y-98239579D01*
X159407419Y-98174480D01*
X159356387Y-98150900D01*
X159311592Y-98137251D01*
X159210449Y-98066879D01*
X159093336Y-97952940D01*
X158980805Y-97813878D01*
X158881082Y-97673559D01*
X158665772Y-97885496D01*
X158549732Y-97989672D01*
X158399403Y-98103767D01*
X158271761Y-98179888D01*
X158198657Y-98216721D01*
X158111616Y-98286355D01*
X158104061Y-98359111D01*
X158171213Y-98447717D01*
X158198679Y-98476704D01*
X158285076Y-98579988D01*
X158377813Y-98702551D01*
X158412895Y-98750739D01*
X158514027Y-98883569D01*
X158599728Y-98988686D01*
X158672069Y-99101537D01*
X158721536Y-99238566D01*
X158729985Y-99276331D01*
X158774589Y-99419525D01*
X158834312Y-99568722D01*
X158874973Y-99667965D01*
X158958655Y-99947691D01*
X159023140Y-100271404D01*
X159065798Y-100613931D01*
X159077336Y-100827066D01*
X159083996Y-100950097D01*
X159075103Y-101254729D01*
X159036487Y-101502653D01*
X158972206Y-101707450D01*
X158873449Y-101957683D01*
X158760693Y-102199886D01*
X158650751Y-102395160D01*
X158590138Y-102477349D01*
X158407043Y-102664047D01*
X158174609Y-102847224D01*
X157917693Y-103010295D01*
X157661150Y-103136677D01*
X157429834Y-103209785D01*
X157288803Y-103237858D01*
X157117299Y-103273470D01*
X156990269Y-103301491D01*
X156982353Y-103303209D01*
X156863993Y-103317262D01*
X156673882Y-103328137D01*
X156426661Y-103335836D01*
X156136973Y-103340362D01*
X155819461Y-103341718D01*
X155488766Y-103339906D01*
X155159532Y-103334928D01*
X154846399Y-103326788D01*
X154564012Y-103315487D01*
X154327011Y-103301028D01*
X154297313Y-103298653D01*
X154078798Y-103277561D01*
X153794020Y-103245577D01*
X153460670Y-103204917D01*
X153096436Y-103157794D01*
X152719008Y-103106425D01*
X152346075Y-103053022D01*
X152268816Y-103041682D01*
X151899431Y-102988197D01*
X151533636Y-102936336D01*
X151188125Y-102888394D01*
X150879593Y-102846665D01*
X150624734Y-102813446D01*
X150440243Y-102791030D01*
X150244744Y-102765899D01*
X149985480Y-102725119D01*
X149745824Y-102680002D01*
X149559827Y-102636523D01*
X149352172Y-102580137D01*
X149137823Y-102524820D01*
X148933336Y-102476383D01*
X148697427Y-102424683D01*
X148677049Y-102419919D01*
X148483490Y-102346756D01*
X148254307Y-102222027D01*
X148008753Y-102059386D01*
X147766077Y-101872487D01*
X147545529Y-101674985D01*
X147366358Y-101480533D01*
X147366125Y-101480244D01*
X147275878Y-101351198D01*
X147164369Y-101166293D01*
X147045746Y-100950179D01*
X146934159Y-100727508D01*
X146924740Y-100707660D01*
X146824935Y-100494091D01*
X146755843Y-100331764D01*
X146710288Y-100194775D01*
X146681092Y-100057217D01*
X146661079Y-99893184D01*
X146643072Y-99676770D01*
X146635570Y-99568485D01*
X146631007Y-99341775D01*
X146761532Y-99341775D01*
X146777604Y-99663139D01*
X146780713Y-99703264D01*
X146797492Y-99894048D01*
X146818131Y-100043254D01*
X146849584Y-100175019D01*
X146898806Y-100313481D01*
X146972752Y-100482780D01*
X147078377Y-100707053D01*
X147143630Y-100841179D01*
X147301269Y-101134035D01*
X147459592Y-101371777D01*
X147636127Y-101575742D01*
X147848401Y-101767268D01*
X148113941Y-101967690D01*
X148162402Y-102001921D01*
X148346690Y-102124333D01*
X148500101Y-102207211D01*
X148652318Y-102264730D01*
X148833024Y-102311064D01*
X148844940Y-102313717D01*
X149041757Y-102359563D01*
X149231515Y-102406919D01*
X149374671Y-102445936D01*
X149456863Y-102470010D01*
X149688303Y-102533124D01*
X149891004Y-102577848D01*
X150103849Y-102611916D01*
X150365721Y-102643062D01*
X150378853Y-102644502D01*
X150546759Y-102665144D01*
X150783886Y-102697031D01*
X151074200Y-102737875D01*
X151401672Y-102785385D01*
X151750269Y-102837274D01*
X152103961Y-102891252D01*
X152133016Y-102895736D01*
X152490101Y-102949587D01*
X152843455Y-103000740D01*
X153176442Y-103046938D01*
X153472421Y-103085922D01*
X153714754Y-103115435D01*
X153886803Y-103133218D01*
X154025756Y-103143328D01*
X154269145Y-103156326D01*
X154556558Y-103167739D01*
X154874795Y-103177401D01*
X155210653Y-103185144D01*
X155550934Y-103190804D01*
X155882436Y-103194214D01*
X156191958Y-103195208D01*
X156466302Y-103193620D01*
X156692265Y-103189285D01*
X156856647Y-103182035D01*
X156946248Y-103171705D01*
X157041180Y-103149574D01*
X157206838Y-103113903D01*
X157383222Y-103078273D01*
X157509165Y-103044984D01*
X157766610Y-102936357D01*
X158029394Y-102782191D01*
X158268917Y-102600331D01*
X158456578Y-102408619D01*
X158674605Y-102076169D01*
X158842309Y-101677557D01*
X158935274Y-101254782D01*
X158947534Y-100827066D01*
X158941249Y-100747393D01*
X158902271Y-100414748D01*
X158846251Y-100098944D01*
X158777980Y-99823703D01*
X158702250Y-99612743D01*
X158681360Y-99564617D01*
X158624712Y-99411393D01*
X158589473Y-99282587D01*
X158544964Y-99156696D01*
X158465910Y-99032707D01*
X158381662Y-98931228D01*
X158306639Y-98829869D01*
X158270490Y-98780620D01*
X158181446Y-98671248D01*
X158075469Y-98549836D01*
X157906076Y-98362589D01*
X157613250Y-98430690D01*
X157485220Y-98456467D01*
X157271930Y-98491432D01*
X157027905Y-98525322D01*
X156784711Y-98553458D01*
X156613507Y-98570407D01*
X156428625Y-98584759D01*
X156285434Y-98586711D01*
X156157160Y-98574870D01*
X156017028Y-98547844D01*
X155838264Y-98504240D01*
X155741274Y-98480314D01*
X155557397Y-98438214D01*
X155407638Y-98408080D01*
X155317479Y-98395244D01*
X155281805Y-98389884D01*
X155156031Y-98348771D01*
X154997679Y-98279413D01*
X154835647Y-98196206D01*
X154698831Y-98113547D01*
X154616127Y-98045831D01*
X154576813Y-98006312D01*
X154521715Y-97976208D01*
X154504199Y-97973165D01*
X154474890Y-97956585D01*
X154425466Y-97916989D01*
X154345028Y-97844941D01*
X154222674Y-97731006D01*
X154047504Y-97565748D01*
X154039637Y-97558349D01*
X153923713Y-97458791D01*
X153830433Y-97394941D01*
X153779351Y-97380320D01*
X153740973Y-97386924D01*
X153623868Y-97395699D01*
X153441151Y-97404756D01*
X153205163Y-97413581D01*
X152928240Y-97421660D01*
X152622721Y-97428480D01*
X152436067Y-97432321D01*
X151846959Y-97449073D01*
X151337596Y-97471955D01*
X150901656Y-97501872D01*
X150532814Y-97539732D01*
X150224748Y-97586441D01*
X149971135Y-97642904D01*
X149765652Y-97710030D01*
X149601976Y-97788724D01*
X149473783Y-97879892D01*
X149358372Y-97995796D01*
X149266651Y-98150276D01*
X149259389Y-98291110D01*
X149337306Y-98415472D01*
X149429375Y-98489090D01*
X149594311Y-98579776D01*
X149812380Y-98662204D01*
X150090564Y-98738208D01*
X150435842Y-98809623D01*
X150855197Y-98878284D01*
X151355607Y-98946026D01*
X151395101Y-98951071D01*
X151645330Y-98989910D01*
X151815839Y-99030349D01*
X151903855Y-99071550D01*
X151906606Y-99112673D01*
X151858403Y-99123567D01*
X151739202Y-99133319D01*
X151568077Y-99140237D01*
X151363581Y-99143275D01*
X151304200Y-99143616D01*
X151071905Y-99149255D01*
X150902859Y-99163358D01*
X150776756Y-99188382D01*
X150673285Y-99226784D01*
X150649589Y-99237774D01*
X150481461Y-99315517D01*
X150318618Y-99390519D01*
X150281536Y-99408429D01*
X150146729Y-99485720D01*
X150045328Y-99560767D01*
X149973738Y-99622299D01*
X149931174Y-99648998D01*
X149914138Y-99659153D01*
X149848607Y-99715653D01*
X149755549Y-99805174D01*
X149676657Y-99889792D01*
X149580026Y-100034215D01*
X149564085Y-100151468D01*
X149629051Y-100247411D01*
X149775146Y-100327900D01*
X149856084Y-100357580D01*
X149981914Y-100387145D01*
X150117878Y-100391789D01*
X150288727Y-100371450D01*
X150519212Y-100326067D01*
X150519632Y-100325976D01*
X150728738Y-100289348D01*
X150951843Y-100264420D01*
X151176236Y-100250706D01*
X151389205Y-100247718D01*
X151578039Y-100254969D01*
X151730024Y-100271972D01*
X151832450Y-100298238D01*
X151872605Y-100333282D01*
X151837776Y-100376615D01*
X151836885Y-100377137D01*
X151769256Y-100395200D01*
X151633460Y-100417657D01*
X151448472Y-100442431D01*
X151233264Y-100467448D01*
X151006812Y-100490632D01*
X150788088Y-100509909D01*
X150596067Y-100523201D01*
X150449723Y-100528435D01*
X150338290Y-100534350D01*
X150184630Y-100573884D01*
X150022713Y-100664172D01*
X149879274Y-100767584D01*
X149689591Y-100947054D01*
X149580617Y-101118969D01*
X149552667Y-101278580D01*
X149606058Y-101421136D01*
X149741105Y-101541886D01*
X149958124Y-101636079D01*
X150311752Y-101733208D01*
X150790340Y-101833724D01*
X151245555Y-101896280D01*
X151362363Y-101906724D01*
X151725151Y-101933659D01*
X152132537Y-101957105D01*
X152575054Y-101977015D01*
X153043235Y-101993347D01*
X153527612Y-102006056D01*
X154018718Y-102015097D01*
X154507085Y-102020426D01*
X154983246Y-102021998D01*
X155437733Y-102019770D01*
X155861080Y-102013697D01*
X156243818Y-102003734D01*
X156576481Y-101989836D01*
X156849600Y-101971961D01*
X157053708Y-101950063D01*
X157179339Y-101924098D01*
X157283702Y-101878130D01*
X157427047Y-101798373D01*
X157585427Y-101699222D01*
X157740514Y-101593237D01*
X157873981Y-101492975D01*
X157967501Y-101410996D01*
X158002747Y-101359859D01*
X158018407Y-101321435D01*
X158074006Y-101228718D01*
X158155967Y-101108723D01*
X158187182Y-101062019D01*
X158297708Y-100835541D01*
X158378104Y-100572613D01*
X158419692Y-100307984D01*
X158413792Y-100076404D01*
X158391794Y-99968321D01*
X158274017Y-99644724D01*
X158085932Y-99328526D01*
X157839001Y-99040389D01*
X157723001Y-98923217D01*
X157631734Y-98817889D01*
X157594894Y-98750099D01*
X157605086Y-98709383D01*
X157643287Y-98700406D01*
X157709411Y-98736462D01*
X157812018Y-98825994D01*
X157960809Y-98976278D01*
X158047850Y-99071386D01*
X158293639Y-99401187D01*
X158462958Y-99738670D01*
X158550449Y-100073864D01*
X158555628Y-100121924D01*
X158549920Y-100382440D01*
X158499264Y-100662672D01*
X158412021Y-100927459D01*
X158296551Y-101141636D01*
X158238138Y-101225939D01*
X158164580Y-101341059D01*
X158124597Y-101415901D01*
X158090493Y-101465324D01*
X157991240Y-101560237D01*
X157848488Y-101674695D01*
X157681381Y-101795078D01*
X157509060Y-101907770D01*
X157350668Y-101999153D01*
X157225348Y-102055610D01*
X157173071Y-102070735D01*
X157090402Y-102087029D01*
X156981036Y-102100556D01*
X156836211Y-102111723D01*
X156647162Y-102120938D01*
X156405126Y-102128609D01*
X156101339Y-102135143D01*
X155727037Y-102140948D01*
X155273458Y-102146433D01*
X155023274Y-102148697D01*
X154331586Y-102149765D01*
X153668750Y-102143234D01*
X153042149Y-102129459D01*
X152459165Y-102108796D01*
X151927181Y-102081600D01*
X151453580Y-102048226D01*
X151045743Y-102009029D01*
X150711055Y-101964366D01*
X150456897Y-101914591D01*
X150281922Y-101870482D01*
X150043172Y-101804752D01*
X149865439Y-101745244D01*
X149732693Y-101685394D01*
X149628904Y-101618639D01*
X149538040Y-101538418D01*
X149482577Y-101482165D01*
X149418328Y-101401066D01*
X149394513Y-101320831D01*
X149405836Y-101212986D01*
X149446998Y-101049062D01*
X149448223Y-101045269D01*
X149494303Y-100976064D01*
X149586895Y-100872248D01*
X149707451Y-100754779D01*
X149728719Y-100735145D01*
X149834370Y-100630500D01*
X149900779Y-100552235D01*
X149914346Y-100516042D01*
X149905215Y-100511553D01*
X149828864Y-100482115D01*
X149714273Y-100443225D01*
X149703223Y-100439565D01*
X149536090Y-100349434D01*
X149446208Y-100224295D01*
X149434335Y-100072361D01*
X149501229Y-99901847D01*
X149647647Y-99720968D01*
X149737629Y-99638562D01*
X149879735Y-99521866D01*
X150033082Y-99406408D01*
X150178127Y-99306178D01*
X150295327Y-99235166D01*
X150365139Y-99207361D01*
X150399530Y-99198620D01*
X150498177Y-99160810D01*
X150627556Y-99103562D01*
X150845952Y-99001471D01*
X150627556Y-98970630D01*
X150487083Y-98949435D01*
X150216788Y-98901136D01*
X149975266Y-98848455D01*
X149782115Y-98795889D01*
X149656934Y-98747933D01*
X149652947Y-98745865D01*
X149550983Y-98699959D01*
X149482320Y-98680812D01*
X149454070Y-98670216D01*
X149371767Y-98614218D01*
X149267454Y-98526253D01*
X149201745Y-98464150D01*
X149135761Y-98382643D01*
X149114599Y-98301271D01*
X149123518Y-98185092D01*
X149135667Y-98115789D01*
X149174437Y-98014816D01*
X149250483Y-97915558D01*
X149381052Y-97791661D01*
X149396084Y-97778401D01*
X149524851Y-97674101D01*
X149645570Y-97602549D01*
X149789927Y-97548358D01*
X149989610Y-97496140D01*
X150060539Y-97480008D01*
X150240910Y-97444775D01*
X150442200Y-97413958D01*
X150671870Y-97387107D01*
X150937376Y-97363773D01*
X151246176Y-97343506D01*
X151605727Y-97325856D01*
X152023489Y-97310375D01*
X152506918Y-97296612D01*
X153063472Y-97284119D01*
X153700609Y-97272445D01*
X153708249Y-97265614D01*
X153696043Y-97207903D01*
X153652460Y-97110527D01*
X153589845Y-96996751D01*
X153520540Y-96889842D01*
X153456890Y-96813066D01*
X153432695Y-96791380D01*
X153387299Y-96763655D01*
X153324570Y-96749635D01*
X153226972Y-96748357D01*
X153076963Y-96758861D01*
X152857006Y-96780186D01*
X152726037Y-96793827D01*
X152425787Y-96826954D01*
X152113824Y-96863316D01*
X151839836Y-96897199D01*
X151784242Y-96904238D01*
X151532168Y-96934188D01*
X151233855Y-96967330D01*
X150921991Y-97000107D01*
X150629264Y-97028961D01*
X150468762Y-97044531D01*
X149902676Y-97107992D01*
X149412524Y-97179456D01*
X148988759Y-97262234D01*
X148621835Y-97359638D01*
X148302205Y-97474980D01*
X148020322Y-97611572D01*
X147766641Y-97772725D01*
X147531613Y-97961752D01*
X147305694Y-98181964D01*
X147270995Y-98218781D01*
X147063690Y-98453953D01*
X146917121Y-98661313D01*
X146823259Y-98863387D01*
X146774073Y-99082699D01*
X146761532Y-99341775D01*
X146631007Y-99341775D01*
X146628968Y-99240441D01*
X146658189Y-98966969D01*
X146731076Y-98727944D01*
X146855472Y-98503240D01*
X147039219Y-98272734D01*
X147290160Y-98016300D01*
X147397145Y-97915722D01*
X147628175Y-97717352D01*
X147859531Y-97549902D01*
X148102177Y-97409515D01*
X148367078Y-97292337D01*
X148665198Y-97194512D01*
X149007502Y-97112186D01*
X149404954Y-97041502D01*
X149868518Y-96978606D01*
X150409160Y-96919643D01*
X150621376Y-96897980D01*
X150947678Y-96863292D01*
X151270999Y-96827513D01*
X151563119Y-96793783D01*
X151795815Y-96765247D01*
X151977701Y-96742448D01*
X152283982Y-96705848D01*
X152593232Y-96670631D01*
X152860344Y-96642020D01*
X153074021Y-96618733D01*
X153222413Y-96597711D01*
X153307611Y-96576909D01*
X153342172Y-96553217D01*
X153338655Y-96523522D01*
X153317553Y-96476089D01*
X153273713Y-96307162D01*
X153241751Y-96080677D01*
X153222350Y-95817814D01*
X153218854Y-95659934D01*
X153341902Y-95659934D01*
X153359641Y-95947080D01*
X153397206Y-96197387D01*
X153413066Y-96269631D01*
X153452911Y-96424719D01*
X153491413Y-96515066D01*
X153537642Y-96557174D01*
X153600668Y-96567542D01*
X153629712Y-96569395D01*
X153699924Y-96599576D01*
X153709176Y-96647057D01*
X153647358Y-96686152D01*
X153616594Y-96695002D01*
X153578916Y-96724835D01*
X153615789Y-96782236D01*
X153632392Y-96803103D01*
X153698250Y-96903944D01*
X153768128Y-97029761D01*
X153822803Y-97117136D01*
X153954965Y-97279127D01*
X154130935Y-97462619D01*
X154332917Y-97651270D01*
X154543114Y-97828739D01*
X154743732Y-97978681D01*
X154916974Y-98084756D01*
X154938357Y-98095647D01*
X155027756Y-98135157D01*
X155074662Y-98132117D01*
X155108486Y-98086851D01*
X155110575Y-98083155D01*
X155144542Y-98043883D01*
X155190140Y-98056910D01*
X155271472Y-98128378D01*
X155356583Y-98190248D01*
X155506703Y-98268122D01*
X155674240Y-98332332D01*
X155881789Y-98383601D01*
X156263490Y-98427939D01*
X156692968Y-98426616D01*
X157153552Y-98380005D01*
X157628571Y-98288480D01*
X157649383Y-98283366D01*
X157911430Y-98196313D01*
X158165964Y-98074181D01*
X158397364Y-97928087D01*
X158590009Y-97769151D01*
X158728278Y-97608489D01*
X158756489Y-97545980D01*
X159009997Y-97545980D01*
X159011204Y-97608029D01*
X159048112Y-97675162D01*
X159155149Y-97818034D01*
X159321873Y-97973645D01*
X159485641Y-98046681D01*
X159495797Y-98048676D01*
X159601038Y-98080326D01*
X159658950Y-98117044D01*
X159659643Y-98118422D01*
X159639688Y-98169814D01*
X159568392Y-98259103D01*
X159460370Y-98367833D01*
X159457143Y-98370821D01*
X159345280Y-98481611D01*
X159265659Y-98573971D01*
X159235330Y-98628174D01*
X159237384Y-98646068D01*
X159268345Y-98676568D01*
X159269620Y-98676404D01*
X159331124Y-98666245D01*
X159452736Y-98644915D01*
X159609506Y-98616787D01*
X159770945Y-98589045D01*
X159989247Y-98554831D01*
X160175263Y-98528990D01*
X160432875Y-98497000D01*
X160417210Y-98152063D01*
X160415269Y-98113244D01*
X160403176Y-97952495D01*
X160387732Y-97832694D01*
X160371791Y-97777372D01*
X160342754Y-97777047D01*
X160258029Y-97813783D01*
X160143923Y-97883923D01*
X160118661Y-97901164D01*
X159979605Y-97987087D01*
X159897308Y-98015029D01*
X159863852Y-97985419D01*
X159871321Y-97898686D01*
X159878136Y-97846842D01*
X159861808Y-97774846D01*
X159802474Y-97690758D01*
X159687730Y-97572547D01*
X159576586Y-97472830D01*
X159465337Y-97389497D01*
X159389402Y-97351242D01*
X159339443Y-97328639D01*
X159307475Y-97259183D01*
X159297874Y-97195547D01*
X159253488Y-97193295D01*
X159183093Y-97256426D01*
X159096387Y-97379413D01*
X159049385Y-97459042D01*
X159009997Y-97545980D01*
X158756489Y-97545980D01*
X158796549Y-97457219D01*
X158826968Y-97377227D01*
X158892852Y-97350211D01*
X158922867Y-97343509D01*
X158984333Y-97283342D01*
X159067468Y-97155966D01*
X159155425Y-96994626D01*
X159323371Y-96994626D01*
X159331029Y-97013410D01*
X159390922Y-97077632D01*
X159490815Y-97155836D01*
X159520237Y-97175472D01*
X159684003Y-97250773D01*
X159875997Y-97273422D01*
X159993729Y-97279897D01*
X160188846Y-97303404D01*
X160379870Y-97337906D01*
X160521943Y-97365197D01*
X160708340Y-97391582D01*
X160856060Y-97402391D01*
X160859712Y-97402419D01*
X160976193Y-97397634D01*
X161024839Y-97375341D01*
X161024982Y-97326901D01*
X161022005Y-97315501D01*
X160999479Y-97211976D01*
X160975215Y-97080599D01*
X160965262Y-97035483D01*
X160915699Y-96881076D01*
X160839493Y-96685683D01*
X160747718Y-96474146D01*
X160651442Y-96271309D01*
X160561739Y-96102014D01*
X160489679Y-95991104D01*
X160397060Y-95876884D01*
X160256951Y-95993853D01*
X160198877Y-96045925D01*
X160151594Y-96112920D01*
X160167675Y-96161656D01*
X160192755Y-96203737D01*
X160147688Y-96239666D01*
X160068912Y-96255868D01*
X159966100Y-96239579D01*
X159907671Y-96185493D01*
X159908909Y-96171583D01*
X159957294Y-96103405D01*
X160062447Y-95998705D01*
X160212834Y-95867277D01*
X160396924Y-95718917D01*
X160603183Y-95563420D01*
X160820078Y-95410580D01*
X160873456Y-95373492D01*
X161055702Y-95235810D01*
X161235494Y-95085505D01*
X161399149Y-94935551D01*
X161532986Y-94798922D01*
X161623321Y-94688590D01*
X161656474Y-94617529D01*
X161649997Y-94579041D01*
X161582058Y-94496152D01*
X161458380Y-94450616D01*
X161305740Y-94446285D01*
X161094787Y-94465144D01*
X160848708Y-94503030D01*
X160587965Y-94555387D01*
X160333021Y-94617656D01*
X160104337Y-94685278D01*
X159922376Y-94753696D01*
X159807600Y-94818351D01*
X159807380Y-94818533D01*
X159775543Y-94868395D01*
X159753601Y-94964972D01*
X159739601Y-95122007D01*
X159731589Y-95353246D01*
X159726980Y-95456532D01*
X159722908Y-95547793D01*
X159683675Y-95907777D01*
X159618378Y-96245916D01*
X159531686Y-96540421D01*
X159428264Y-96769504D01*
X159396487Y-96826152D01*
X159344073Y-96932248D01*
X159323371Y-96994626D01*
X159155425Y-96994626D01*
X159177560Y-96954024D01*
X159273701Y-96765114D01*
X159369883Y-96560468D01*
X159438926Y-96385252D01*
X159490955Y-96213010D01*
X159536097Y-96017283D01*
X159550803Y-95943339D01*
X159610652Y-95456532D01*
X159601279Y-95002711D01*
X159523852Y-94588597D01*
X159379537Y-94220909D01*
X159169501Y-93906369D01*
X158818686Y-93547260D01*
X158404530Y-93218842D01*
X157952413Y-92940061D01*
X157481831Y-92722909D01*
X157012279Y-92579379D01*
X156863101Y-92552640D01*
X156622929Y-92528130D01*
X156379724Y-92520717D01*
X156163164Y-92530986D01*
X156002926Y-92559519D01*
X155959452Y-92572522D01*
X155813041Y-92613277D01*
X155654986Y-92654304D01*
X155578074Y-92676064D01*
X155540419Y-92694271D01*
X155461003Y-92732671D01*
X155402956Y-92810508D01*
X155393026Y-92833218D01*
X155343129Y-92897996D01*
X155295008Y-92913972D01*
X155273458Y-92869796D01*
X155273245Y-92863190D01*
X155254589Y-92831869D01*
X155197627Y-92838847D01*
X155090838Y-92887828D01*
X154922700Y-92982513D01*
X154910566Y-92989683D01*
X154785415Y-93071676D01*
X154703229Y-93140294D01*
X154681269Y-93181325D01*
X154691237Y-93193173D01*
X154746041Y-93199437D01*
X154757735Y-93197339D01*
X154806746Y-93232086D01*
X154855290Y-93302201D01*
X154877271Y-93373141D01*
X154855946Y-93397874D01*
X154784746Y-93396440D01*
X154693825Y-93365315D01*
X154615089Y-93311947D01*
X154607230Y-93304131D01*
X154571414Y-93274627D01*
X154534319Y-93268623D01*
X154484172Y-93294278D01*
X154409199Y-93359751D01*
X154297626Y-93473201D01*
X154137681Y-93642786D01*
X154095181Y-93688453D01*
X153895187Y-93917428D01*
X153758239Y-94101893D01*
X153687755Y-94237330D01*
X153672867Y-94279798D01*
X153627204Y-94385269D01*
X153590178Y-94439017D01*
X153588416Y-94440158D01*
X153534634Y-94516594D01*
X153471332Y-94679712D01*
X153398351Y-94929916D01*
X153365784Y-95103592D01*
X153343959Y-95368066D01*
X153341902Y-95659934D01*
X153218854Y-95659934D01*
X153216193Y-95539752D01*
X153223960Y-95267670D01*
X153246334Y-95022747D01*
X153283997Y-94826161D01*
X153368115Y-94583712D01*
X153543232Y-94230736D01*
X153773142Y-93880634D01*
X154043568Y-93557261D01*
X154171593Y-93418885D01*
X154286501Y-93287970D01*
X154364377Y-93191312D01*
X154393042Y-93143338D01*
X154393008Y-93142617D01*
X154362374Y-93097317D01*
X154286601Y-93017789D01*
X154183649Y-92920051D01*
X154071480Y-92820120D01*
X153968057Y-92734013D01*
X153891340Y-92677750D01*
X153859290Y-92667346D01*
X153852649Y-92704683D01*
X153860312Y-92787304D01*
X153921734Y-92825775D01*
X153998562Y-92860101D01*
X154001851Y-92897729D01*
X153934245Y-92928490D01*
X153932660Y-92929211D01*
X153798761Y-92946892D01*
X153736541Y-92950643D01*
X153565488Y-92965684D01*
X153424787Y-92983929D01*
X153270916Y-93009901D01*
X153446797Y-93096444D01*
X153449092Y-93097572D01*
X153573412Y-93149519D01*
X153673588Y-93158340D01*
X153798761Y-93128514D01*
X153834644Y-93116912D01*
X153954996Y-93070936D01*
X154031736Y-93031011D01*
X154065415Y-93013419D01*
X154136628Y-93035981D01*
X154149023Y-93050070D01*
X154165970Y-93126446D01*
X154108918Y-93194094D01*
X153989231Y-93237477D01*
X153822510Y-93266769D01*
X153670868Y-93290123D01*
X153568448Y-93296743D01*
X153494188Y-93285596D01*
X153427026Y-93255646D01*
X153345901Y-93205859D01*
X153295639Y-93175603D01*
X153161844Y-93106183D01*
X153055871Y-93065327D01*
X152974000Y-93034117D01*
X152894578Y-92977731D01*
X152866258Y-92952108D01*
X152850521Y-92941731D01*
X153080205Y-92941731D01*
X153116439Y-92957837D01*
X153139743Y-92954660D01*
X153145786Y-92928490D01*
X153139334Y-92923221D01*
X153087092Y-92928490D01*
X153080205Y-92941731D01*
X152850521Y-92941731D01*
X152769245Y-92888138D01*
X152641614Y-92819672D01*
X152600979Y-92796595D01*
X152484234Y-92712366D01*
X152338070Y-92591465D01*
X152181300Y-92451598D01*
X152302834Y-92451598D01*
X152544559Y-92601594D01*
X152616327Y-92646207D01*
X152777842Y-92746271D01*
X152883996Y-92808128D01*
X152949811Y-92836914D01*
X152990312Y-92837760D01*
X153020522Y-92815800D01*
X153055463Y-92776168D01*
X153073410Y-92757801D01*
X153199327Y-92666257D01*
X153358057Y-92588692D01*
X153516045Y-92539147D01*
X153639737Y-92531664D01*
X153754381Y-92553580D01*
X153644509Y-92466228D01*
X153547384Y-92387636D01*
X153438580Y-92297071D01*
X153408527Y-92272708D01*
X153343256Y-92241924D01*
X153294860Y-92272697D01*
X153293710Y-92274051D01*
X153223233Y-92317249D01*
X153087221Y-92355480D01*
X152878170Y-92390344D01*
X152588579Y-92423442D01*
X152302834Y-92451598D01*
X152181300Y-92451598D01*
X152176351Y-92447183D01*
X152012943Y-92292809D01*
X151861711Y-92141634D01*
X151736522Y-92006947D01*
X151651240Y-91902039D01*
X151619732Y-91840199D01*
X151622040Y-91818353D01*
X151684652Y-91726652D01*
X151828988Y-91642902D01*
X152049986Y-91570276D01*
X152114757Y-91555133D01*
X152304232Y-91524953D01*
X152485725Y-91513584D01*
X152639633Y-91520561D01*
X152746353Y-91545420D01*
X152786283Y-91587699D01*
X152785515Y-91594979D01*
X152749781Y-91627232D01*
X152651531Y-91646916D01*
X152478137Y-91656862D01*
X152476483Y-91656909D01*
X152284945Y-91671002D01*
X152101045Y-91699189D01*
X151944848Y-91736665D01*
X151836417Y-91778625D01*
X151795815Y-91820264D01*
X151802045Y-91844314D01*
X151852237Y-91919595D01*
X151957639Y-92038222D01*
X152124120Y-92207109D01*
X152211992Y-92291440D01*
X152277121Y-92339954D01*
X152318221Y-92339395D01*
X152355366Y-92297619D01*
X152362391Y-92288589D01*
X152449894Y-92220040D01*
X152570571Y-92164013D01*
X152577698Y-92161639D01*
X152720636Y-92107577D01*
X152845564Y-92050864D01*
X152860865Y-92042988D01*
X152980787Y-91996604D01*
X153062973Y-92009758D01*
X153134941Y-92085770D01*
X153188849Y-92143613D01*
X153231617Y-92153000D01*
X153232562Y-92151905D01*
X153223539Y-92101497D01*
X153174296Y-92015623D01*
X153104522Y-91921092D01*
X153033905Y-91844714D01*
X152982136Y-91813296D01*
X152972027Y-91812843D01*
X152934978Y-91783112D01*
X152954687Y-91731534D01*
X153113498Y-91731534D01*
X153294026Y-91947155D01*
X153378089Y-92041518D01*
X153524678Y-92188485D01*
X153658668Y-92305211D01*
X153709144Y-92345282D01*
X153847233Y-92459695D01*
X153957093Y-92553580D01*
X154012305Y-92600763D01*
X154178770Y-92746762D01*
X154280450Y-92836545D01*
X154405103Y-92944247D01*
X154493449Y-93017612D01*
X154530936Y-93044344D01*
X154542738Y-93041228D01*
X154616467Y-93005827D01*
X154728318Y-92942521D01*
X154855313Y-92865512D01*
X154974473Y-92788999D01*
X155062819Y-92727185D01*
X155097375Y-92694271D01*
X155074417Y-92660239D01*
X154998513Y-92576915D01*
X154882123Y-92459329D01*
X154738287Y-92321034D01*
X154558146Y-92156554D01*
X154329996Y-91966682D01*
X154279601Y-91929654D01*
X154560301Y-91929654D01*
X154572710Y-91965746D01*
X154636334Y-92044518D01*
X154737659Y-92143452D01*
X154934847Y-92319536D01*
X154904079Y-92121442D01*
X154899199Y-92089782D01*
X154871917Y-91906912D01*
X154847423Y-91735087D01*
X154843518Y-91709358D01*
X154795528Y-91561675D01*
X154700835Y-91460879D01*
X154580134Y-91374932D01*
X154632502Y-91527261D01*
X154639159Y-91546190D01*
X154681711Y-91651054D01*
X154715039Y-91709759D01*
X154723914Y-91721170D01*
X154728476Y-91739985D01*
X154744385Y-91805598D01*
X154733967Y-91905368D01*
X154696266Y-91970411D01*
X154670730Y-91978166D01*
X154613727Y-91946299D01*
X154595281Y-91924964D01*
X154560301Y-91929654D01*
X154279601Y-91929654D01*
X154085425Y-91786982D01*
X153813078Y-91606557D01*
X154044089Y-91606557D01*
X154047604Y-91609224D01*
X154101148Y-91649817D01*
X154189880Y-91717064D01*
X154205797Y-91728906D01*
X154297445Y-91788874D01*
X154354958Y-91813296D01*
X154370831Y-91806472D01*
X154390680Y-91739985D01*
X154384072Y-91620224D01*
X154351241Y-91468871D01*
X154332292Y-91351811D01*
X154348548Y-91220261D01*
X154350562Y-91214822D01*
X154361181Y-91139815D01*
X154327291Y-91059766D01*
X154238108Y-90948104D01*
X154088561Y-90778808D01*
X154086974Y-90954891D01*
X154086986Y-90968132D01*
X154101145Y-91138639D01*
X154133548Y-91304441D01*
X154158919Y-91416631D01*
X154151101Y-91485656D01*
X154103501Y-91535095D01*
X154059100Y-91573633D01*
X154044089Y-91606557D01*
X153813078Y-91606557D01*
X153792990Y-91593249D01*
X153710171Y-91526272D01*
X153660755Y-91434610D01*
X153690230Y-91354722D01*
X153740875Y-91337583D01*
X153805786Y-91395099D01*
X153825221Y-91419041D01*
X153850140Y-91434188D01*
X153862202Y-91399798D01*
X153863931Y-91303090D01*
X153857849Y-91131281D01*
X153854831Y-91046467D01*
X153855663Y-90890278D01*
X153869547Y-90805057D01*
X153897808Y-90779115D01*
X153938178Y-90768550D01*
X153931325Y-90720967D01*
X153852958Y-90632732D01*
X153701245Y-90501259D01*
X153669343Y-90475411D01*
X153566817Y-90397851D01*
X153502003Y-90367151D01*
X153471972Y-90390933D01*
X153473795Y-90476819D01*
X153504543Y-90632429D01*
X153561285Y-90865384D01*
X153582239Y-90950137D01*
X153617703Y-91125043D01*
X153617795Y-91249740D01*
X153573983Y-91349316D01*
X153477739Y-91448858D01*
X153320532Y-91573451D01*
X153113498Y-91731534D01*
X152954687Y-91731534D01*
X152960868Y-91715358D01*
X153042211Y-91621447D01*
X153171517Y-91513242D01*
X153264831Y-91444102D01*
X153389145Y-91344330D01*
X153457785Y-91262013D01*
X153480110Y-91173855D01*
X153465482Y-91056566D01*
X153423263Y-90886850D01*
X153379697Y-90689311D01*
X153349947Y-90489035D01*
X153337756Y-90314931D01*
X153344466Y-90186726D01*
X153371418Y-90124148D01*
X153379873Y-90122121D01*
X153449139Y-90149934D01*
X153567549Y-90228074D01*
X153724131Y-90347553D01*
X153907914Y-90499382D01*
X154107923Y-90674574D01*
X154313188Y-90864139D01*
X154512736Y-91059089D01*
X154611022Y-91159172D01*
X154776863Y-91335712D01*
X154886925Y-91467301D01*
X154948314Y-91562873D01*
X154968139Y-91631359D01*
X154974640Y-91704033D01*
X154996854Y-91848627D01*
X155028860Y-92011390D01*
X155045491Y-92090408D01*
X155064019Y-92211904D01*
X155058054Y-92281959D01*
X155030291Y-92319536D01*
X155027494Y-92323321D01*
G37*
%TD*%
M02*
