M48
; DRILL file {KiCad 7.0.2} date Tue Oct 31 00:41:01 2023
; FORMAT={-:-/ absolute / inch / decimal}
; #@! TF.CreationDate,2023-10-31T00:41:01+09:00
; #@! TF.GenerationSoftware,Kicad,Pcbnew,7.0.2
; #@! TF.FileFunction,Plated,1,2,PTH
FMAT,2
INCH
; #@! TA.AperFunction,Plated,PTH,ViaDrill
T1C0.0157
; #@! TA.AperFunction,Plated,PTH,ComponentDrill
T2C0.0394
; #@! TA.AperFunction,Plated,PTH,ComponentDrill
T3C0.0472
%
G90
G05
T1
X4.18Y-4.21
X4.29Y-3.87
X4.39Y-3.87
X4.39Y-4.09
X4.65Y-4.16
X5.2Y-3.78
X5.2Y-4.1
X5.505Y-4.2
X5.86Y-3.78
X5.86Y-4.18
X6.16Y-4.2
T2
X3.76Y-3.74
X3.76Y-3.84
X3.76Y-3.94
X3.76Y-4.04
X3.76Y-4.14
X3.76Y-4.24
X3.86Y-3.74
X3.86Y-3.84
X3.86Y-3.94
X3.86Y-4.04
X3.86Y-4.14
X3.86Y-4.24
X4.0Y-3.74
X4.0Y-3.84
X4.0Y-3.94
X4.0Y-4.04
X4.0Y-4.14
X4.0Y-4.24
X7.4Y-3.74
X7.4Y-3.84
X7.4Y-3.94
X7.4Y-4.04
X7.4Y-4.14
X7.4Y-4.24
T3
X4.67Y-4.0
X5.0637Y-4.0
X5.3313Y-4.0
X5.725Y-4.0
X5.9931Y-4.0
X6.3869Y-4.0
T0
M30
