%TF.GenerationSoftware,KiCad,Pcbnew,7.0.2*%
%TF.CreationDate,2023-10-28T17:31:32+09:00*%
%TF.ProjectId,Pmod_US_Speaker,506d6f64-5f55-4535-9f53-7065616b6572,rev?*%
%TF.SameCoordinates,Original*%
%TF.FileFunction,Copper,L1,Top*%
%TF.FilePolarity,Positive*%
%FSLAX46Y46*%
G04 Gerber Fmt 4.6, Leading zero omitted, Abs format (unit mm)*
G04 Created by KiCad (PCBNEW 7.0.2) date 2023-10-28 17:31:32*
%MOMM*%
%LPD*%
G01*
G04 APERTURE LIST*
G04 Aperture macros list*
%AMRoundRect*
0 Rectangle with rounded corners*
0 $1 Rounding radius*
0 $2 $3 $4 $5 $6 $7 $8 $9 X,Y pos of 4 corners*
0 Add a 4 corners polygon primitive as box body*
4,1,4,$2,$3,$4,$5,$6,$7,$8,$9,$2,$3,0*
0 Add four circle primitives for the rounded corners*
1,1,$1+$1,$2,$3*
1,1,$1+$1,$4,$5*
1,1,$1+$1,$6,$7*
1,1,$1+$1,$8,$9*
0 Add four rect primitives between the rounded corners*
20,1,$1+$1,$2,$3,$4,$5,0*
20,1,$1+$1,$4,$5,$6,$7,0*
20,1,$1+$1,$6,$7,$8,$9,0*
20,1,$1+$1,$8,$9,$2,$3,0*%
%AMFreePoly0*
4,1,6,1.000000,0.000000,0.500000,-0.750000,-0.500000,-0.750000,-0.500000,0.750000,0.500000,0.750000,1.000000,0.000000,1.000000,0.000000,$1*%
%AMFreePoly1*
4,1,6,0.500000,-0.750000,-0.650000,-0.750000,-0.150000,0.000000,-0.650000,0.750000,0.500000,0.750000,0.500000,-0.750000,0.500000,-0.750000,$1*%
G04 Aperture macros list end*
%TA.AperFunction,ComponentPad*%
%ADD10C,1.800000*%
%TD*%
%TA.AperFunction,SMDPad,CuDef*%
%ADD11R,0.700000X1.525000*%
%TD*%
%TA.AperFunction,SMDPad,CuDef*%
%ADD12RoundRect,0.250000X-0.475000X0.337500X-0.475000X-0.337500X0.475000X-0.337500X0.475000X0.337500X0*%
%TD*%
%TA.AperFunction,ComponentPad*%
%ADD13R,1.700000X1.700000*%
%TD*%
%TA.AperFunction,ComponentPad*%
%ADD14O,1.700000X1.700000*%
%TD*%
%TA.AperFunction,SMDPad,CuDef*%
%ADD15RoundRect,0.237500X-0.300000X-0.237500X0.300000X-0.237500X0.300000X0.237500X-0.300000X0.237500X0*%
%TD*%
%TA.AperFunction,SMDPad,CuDef*%
%ADD16R,3.300000X4.400000*%
%TD*%
%TA.AperFunction,SMDPad,CuDef*%
%ADD17R,3.900000X6.200000*%
%TD*%
%TA.AperFunction,ComponentPad*%
%ADD18C,1.700000*%
%TD*%
%TA.AperFunction,SMDPad,CuDef*%
%ADD19FreePoly0,180.000000*%
%TD*%
%TA.AperFunction,SMDPad,CuDef*%
%ADD20FreePoly1,180.000000*%
%TD*%
%TA.AperFunction,ViaPad*%
%ADD21C,0.800000*%
%TD*%
%TA.AperFunction,Conductor*%
%ADD22C,0.250000*%
%TD*%
%TA.AperFunction,Conductor*%
%ADD23C,0.500000*%
%TD*%
%TA.AperFunction,Conductor*%
%ADD24C,1.000000*%
%TD*%
G04 APERTURE END LIST*
D10*
%TO.P,U1,1,1*%
%TO.N,Net-(IC1-OUTA)*%
X118618000Y-101600000D03*
%TO.P,U1,2,2*%
%TO.N,Net-(IC1-OUTB)*%
X128618000Y-101600000D03*
%TD*%
D11*
%TO.P,IC1,1,NC_1*%
%TO.N,unconnected-(IC1-NC_1-Pad1)*%
X121713000Y-104312000D03*
%TO.P,IC1,2,INA*%
%TO.N,Net-(IC1-INA)*%
X122983000Y-104312000D03*
%TO.P,IC1,3,GND*%
%TO.N,GND*%
X124253000Y-104312000D03*
%TO.P,IC1,4,INB*%
%TO.N,Net-(IC1-INB)*%
X125523000Y-104312000D03*
%TO.P,IC1,5,OUTB*%
%TO.N,Net-(IC1-OUTB)*%
X125523000Y-98888000D03*
%TO.P,IC1,6,VS*%
%TO.N,Net-(IC1-VS)*%
X124253000Y-98888000D03*
%TO.P,IC1,7,OUTA*%
%TO.N,Net-(IC1-OUTA)*%
X122983000Y-98888000D03*
%TO.P,IC1,8,NC_2*%
%TO.N,unconnected-(IC1-NC_2-Pad8)*%
X121713000Y-98888000D03*
%TD*%
D12*
%TO.P,C2,1*%
%TO.N,Net-(IC1-VS)*%
X166370000Y-93704500D03*
%TO.P,C2,2*%
%TO.N,GND*%
X166370000Y-95779500D03*
%TD*%
D11*
%TO.P,IC2,1,NC_1*%
%TO.N,unconnected-(IC2-NC_1-Pad1)*%
X138557000Y-104312000D03*
%TO.P,IC2,2,INA*%
%TO.N,Net-(IC2-INA)*%
X139827000Y-104312000D03*
%TO.P,IC2,3,GND*%
%TO.N,GND*%
X141097000Y-104312000D03*
%TO.P,IC2,4,INB*%
%TO.N,Net-(IC2-INB)*%
X142367000Y-104312000D03*
%TO.P,IC2,5,OUTB*%
%TO.N,Net-(IC2-OUTB)*%
X142367000Y-98888000D03*
%TO.P,IC2,6,VS*%
%TO.N,Net-(IC1-VS)*%
X141097000Y-98888000D03*
%TO.P,IC2,7,OUTA*%
%TO.N,Net-(IC2-OUTA)*%
X139827000Y-98888000D03*
%TO.P,IC2,8,NC_2*%
%TO.N,unconnected-(IC2-NC_2-Pad8)*%
X138557000Y-98888000D03*
%TD*%
D13*
%TO.P,REF\u002A\u002A,1*%
%TO.N,Net-(IC1-VS)*%
X187960000Y-94996000D03*
D14*
%TO.P,REF\u002A\u002A,2*%
%TO.N,N/C*%
X187960000Y-97536000D03*
%TO.P,REF\u002A\u002A,3*%
X187960000Y-100076000D03*
%TO.P,REF\u002A\u002A,4*%
X187960000Y-102616000D03*
%TO.P,REF\u002A\u002A,5*%
X187960000Y-105156000D03*
%TO.P,REF\u002A\u002A,6*%
%TO.N,GND*%
X187960000Y-107696000D03*
%TD*%
D15*
%TO.P,C3,1*%
%TO.N,Net-(IC1-VS)*%
X140996500Y-96520000D03*
%TO.P,C3,2*%
%TO.N,GND*%
X142721500Y-96520000D03*
%TD*%
D16*
%TO.P,J2,1*%
%TO.N,Net-(IC1-VS)*%
X176114000Y-94632000D03*
D17*
%TO.P,J2,2*%
%TO.N,GND*%
X168964000Y-103632000D03*
%TO.P,J2,3*%
X181864000Y-103632000D03*
%TD*%
D15*
%TO.P,C5,1*%
%TO.N,Net-(IC1-VS)*%
X157887500Y-96520000D03*
%TO.P,C5,2*%
%TO.N,GND*%
X159612500Y-96520000D03*
%TD*%
D11*
%TO.P,IC3,1,NC_1*%
%TO.N,unconnected-(IC3-NC_1-Pad1)*%
X155321000Y-104312000D03*
%TO.P,IC3,2,INA*%
%TO.N,Net-(IC3-INA)*%
X156591000Y-104312000D03*
%TO.P,IC3,3,GND*%
%TO.N,GND*%
X157861000Y-104312000D03*
%TO.P,IC3,4,INB*%
%TO.N,Net-(IC3-INB)*%
X159131000Y-104312000D03*
%TO.P,IC3,5,OUTB*%
%TO.N,Net-(IC3-OUTB)*%
X159131000Y-98888000D03*
%TO.P,IC3,6,VS*%
%TO.N,Net-(IC1-VS)*%
X157861000Y-98888000D03*
%TO.P,IC3,7,OUTA*%
%TO.N,Net-(IC3-OUTA)*%
X156591000Y-98888000D03*
%TO.P,IC3,8,NC_2*%
%TO.N,unconnected-(IC3-NC_2-Pad8)*%
X155321000Y-98888000D03*
%TD*%
D10*
%TO.P,U3,1,1*%
%TO.N,Net-(IC3-OUTA)*%
X152226000Y-101600000D03*
%TO.P,U3,2,2*%
%TO.N,Net-(IC3-OUTB)*%
X162226000Y-101600000D03*
%TD*%
%TO.P,U2,1,1*%
%TO.N,Net-(IC2-OUTA)*%
X135415000Y-101600000D03*
%TO.P,U2,2,2*%
%TO.N,Net-(IC2-OUTB)*%
X145415000Y-101600000D03*
%TD*%
D18*
%TO.P,REF\u002A\u002A,1*%
%TO.N,unconnected-(J1-Pin_4-Pad4)*%
X101600000Y-102616000D03*
D14*
%TO.P,REF\u002A\u002A,2*%
%TO.N,GND*%
X101600000Y-105156000D03*
%TO.P,REF\u002A\u002A,3*%
%TO.N,VCC*%
X101600000Y-107696000D03*
%TD*%
D13*
%TO.P,J3,1,Pin_1*%
%TO.N,Net-(IC1-INA)*%
X101600000Y-94996000D03*
D14*
%TO.P,J3,2,Pin_2*%
%TO.N,Net-(IC2-INA)*%
X101600000Y-97536000D03*
%TO.P,J3,3,Pin_3*%
%TO.N,Net-(IC3-INA)*%
X101600000Y-100076000D03*
%TD*%
D13*
%TO.P,J1,1,Pin_1*%
%TO.N,Net-(IC1-INA)*%
X98043000Y-94996000D03*
D14*
%TO.P,J1,2,Pin_2*%
%TO.N,Net-(IC2-INA)*%
X98043000Y-97536000D03*
%TO.P,J1,3,Pin_3*%
%TO.N,Net-(IC3-INA)*%
X98043000Y-100076000D03*
%TO.P,J1,4,Pin_4*%
%TO.N,unconnected-(J1-Pin_4-Pad4)*%
X98043000Y-102616000D03*
%TO.P,J1,5,Pin_5*%
%TO.N,GND*%
X98043000Y-105156000D03*
%TO.P,J1,6,Pin_6*%
%TO.N,VCC*%
X98043000Y-107696000D03*
D18*
%TO.P,J1,7,Pin_7*%
%TO.N,Net-(IC1-INB)*%
X95503000Y-94996000D03*
D14*
%TO.P,J1,8,Pin_8*%
%TO.N,Net-(IC2-INB)*%
X95503000Y-97536000D03*
%TO.P,J1,9,Pin_9*%
%TO.N,Net-(IC3-INB)*%
X95503000Y-100076000D03*
%TO.P,J1,10,Pin_10*%
%TO.N,unconnected-(J1-Pin_10-Pad10)*%
X95503000Y-102616000D03*
%TO.P,J1,11,Pin_11*%
%TO.N,GND*%
X95503000Y-105156000D03*
%TO.P,J1,12,Pin_12*%
%TO.N,VCC*%
X95503000Y-107696000D03*
%TD*%
D15*
%TO.P,C1,1*%
%TO.N,Net-(IC1-VS)*%
X124359500Y-96520000D03*
%TO.P,C1,2*%
%TO.N,GND*%
X126084500Y-96520000D03*
%TD*%
D19*
%TO.P,JP2,1,A*%
%TO.N,Net-(IC2-INB)*%
X110490000Y-100838000D03*
D20*
%TO.P,JP2,2,B*%
%TO.N,Net-(IC2-INA)*%
X109040000Y-100838000D03*
%TD*%
D19*
%TO.P,JP1,1,A*%
%TO.N,Net-(IC3-INB)*%
X110490000Y-106934000D03*
D20*
%TO.P,JP1,2,B*%
%TO.N,Net-(IC3-INA)*%
X109040000Y-106934000D03*
%TD*%
D19*
%TO.P,JP3,1,A*%
%TO.N,Net-(IC1-INB)*%
X110490000Y-94996000D03*
D20*
%TO.P,JP3,2,B*%
%TO.N,Net-(IC1-INA)*%
X109040000Y-94996000D03*
%TD*%
D21*
%TO.N,Net-(IC1-INA)*%
X118110000Y-105664000D03*
X111506000Y-98298000D03*
%TO.N,Net-(IC2-INA)*%
X139827000Y-106680000D03*
X111506000Y-103886000D03*
%TO.N,Net-(IC2-INB)*%
X108966000Y-98298000D03*
%TO.N,Net-(IC3-INA)*%
X156464000Y-106680000D03*
X106172000Y-106934000D03*
%TD*%
D22*
%TO.N,unconnected-(J1-Pin_4-Pad4)*%
X98043000Y-102616000D02*
X101600000Y-102616000D01*
D23*
%TO.N,VCC*%
X98043000Y-107696000D02*
X101600000Y-107696000D01*
X95503000Y-107696000D02*
X98043000Y-107696000D01*
%TO.N,Net-(IC1-VS)*%
X157861000Y-98888000D02*
X157861000Y-96546500D01*
X124253000Y-98888000D02*
X124253000Y-96626500D01*
X141097000Y-96620500D02*
X140996500Y-96520000D01*
D24*
X124359500Y-94842500D02*
X124359500Y-96520000D01*
X176114000Y-94632000D02*
X174896000Y-94632000D01*
X159025500Y-93704500D02*
X142134500Y-93704500D01*
X176406000Y-94996000D02*
X187960000Y-94996000D01*
D23*
X124253000Y-96626500D02*
X124359500Y-96520000D01*
D24*
X125497500Y-93704500D02*
X124359500Y-94842500D01*
D23*
X157861000Y-96546500D02*
X157887500Y-96520000D01*
D24*
X166391500Y-93726000D02*
X166370000Y-93704500D01*
X142134500Y-93704500D02*
X125497500Y-93704500D01*
X173990000Y-93726000D02*
X166391500Y-93726000D01*
D23*
X141097000Y-98888000D02*
X141097000Y-96620500D01*
D24*
X166370000Y-93704500D02*
X159025500Y-93704500D01*
X142134500Y-93704500D02*
X140996500Y-94842500D01*
X140996500Y-94842500D02*
X140996500Y-96520000D01*
X174896000Y-94632000D02*
X173990000Y-93726000D01*
X157887500Y-96520000D02*
X157887500Y-94842500D01*
X159025500Y-93704500D02*
X157887500Y-94842500D01*
D23*
%TO.N,GND*%
X125730000Y-96620500D02*
X125629500Y-96520000D01*
D24*
X183515000Y-107696000D02*
X187960000Y-107696000D01*
X181864000Y-103632000D02*
X181864000Y-106045000D01*
X181864000Y-106045000D02*
X183515000Y-107696000D01*
D22*
%TO.N,Net-(IC1-INA)*%
X98044000Y-94996000D02*
X102108000Y-94996000D01*
X109040000Y-95832000D02*
X109040000Y-94996000D01*
X102108000Y-94996000D02*
X109040000Y-94996000D01*
X118110000Y-105664000D02*
X122043500Y-105664000D01*
X111506000Y-98298000D02*
X109040000Y-95832000D01*
X122043500Y-105664000D02*
X122983000Y-104724500D01*
X122983000Y-104724500D02*
X122983000Y-104312000D01*
%TO.N,Net-(IC1-INB)*%
X96520000Y-92964000D02*
X109982000Y-92964000D01*
X115570000Y-105410000D02*
X117348000Y-107188000D01*
X110490000Y-94996000D02*
X114046000Y-94996000D01*
X95504000Y-94996000D02*
X95504000Y-93980000D01*
X124460000Y-107188000D02*
X125523000Y-106125000D01*
X95504000Y-93980000D02*
X96520000Y-92964000D01*
X109982000Y-92964000D02*
X110490000Y-93472000D01*
X114046000Y-94996000D02*
X115570000Y-96520000D01*
X125523000Y-106125000D02*
X125523000Y-104312000D01*
X110490000Y-93472000D02*
X110490000Y-94996000D01*
X115570000Y-96520000D02*
X115570000Y-105410000D01*
X117348000Y-107188000D02*
X124460000Y-107188000D01*
D23*
%TO.N,Net-(IC1-OUTB)*%
X128618000Y-99916000D02*
X127590000Y-98888000D01*
X128618000Y-101600000D02*
X128618000Y-99916000D01*
X127590000Y-98888000D02*
X125523000Y-98888000D01*
%TO.N,Net-(IC1-OUTA)*%
X122983000Y-100537000D02*
X122983000Y-98888000D01*
X121920000Y-101600000D02*
X122983000Y-100537000D01*
X118618000Y-101600000D02*
X121920000Y-101600000D01*
D22*
%TO.N,Net-(IC2-INA)*%
X107696000Y-100076000D02*
X108458000Y-100838000D01*
X107696000Y-99314000D02*
X107696000Y-100076000D01*
X109040000Y-100838000D02*
X109040000Y-102182000D01*
X109040000Y-102182000D02*
X109220000Y-102362000D01*
X108458000Y-100838000D02*
X109040000Y-100838000D01*
X98044000Y-97536000D02*
X105918000Y-97536000D01*
X105918000Y-97536000D02*
X107696000Y-99314000D01*
X110744000Y-103886000D02*
X111506000Y-103886000D01*
X139827000Y-106680000D02*
X139827000Y-104312000D01*
X109220000Y-102362000D02*
X110744000Y-103886000D01*
%TO.N,Net-(IC2-INB)*%
X116332000Y-108458000D02*
X141097000Y-108458000D01*
X108966000Y-98298000D02*
X110490000Y-99822000D01*
X112522000Y-100838000D02*
X114046000Y-102362000D01*
X141097000Y-108458000D02*
X142367000Y-107188000D01*
X142367000Y-107188000D02*
X142367000Y-104312000D01*
X110490000Y-100838000D02*
X112522000Y-100838000D01*
X114046000Y-102362000D02*
X114046000Y-106172000D01*
X110490000Y-99822000D02*
X110490000Y-100838000D01*
X114046000Y-106172000D02*
X116332000Y-108458000D01*
D23*
%TO.N,Net-(IC2-OUTB)*%
X145415000Y-99568000D02*
X144735000Y-98888000D01*
X144735000Y-98888000D02*
X142367000Y-98888000D01*
X145415000Y-101600000D02*
X145415000Y-99568000D01*
%TO.N,Net-(IC2-OUTA)*%
X139827000Y-101092000D02*
X139827000Y-98888000D01*
X135415000Y-101600000D02*
X139319000Y-101600000D01*
X139319000Y-101600000D02*
X139827000Y-101092000D01*
D22*
%TO.N,Net-(IC3-INA)*%
X109040000Y-106500000D02*
X109040000Y-106934000D01*
X106426000Y-100838000D02*
X106426000Y-103886000D01*
X105664000Y-100076000D02*
X106426000Y-100838000D01*
X109040000Y-106934000D02*
X106172000Y-106934000D01*
X156464000Y-104439000D02*
X156591000Y-104312000D01*
X106426000Y-103886000D02*
X109040000Y-106500000D01*
X156464000Y-106680000D02*
X156464000Y-104439000D01*
X98044000Y-100076000D02*
X105664000Y-100076000D01*
%TO.N,Net-(IC3-INB)*%
X93218000Y-100838000D02*
X93218000Y-109093000D01*
X93980000Y-100076000D02*
X93218000Y-100838000D01*
X159131000Y-108077000D02*
X159131000Y-104312000D01*
X110490000Y-108966000D02*
X110490000Y-106934000D01*
X95504000Y-100076000D02*
X93980000Y-100076000D01*
X94107000Y-109982000D02*
X109474000Y-109982000D01*
X110490000Y-106934000D02*
X112776000Y-106934000D01*
X109474000Y-109982000D02*
X110490000Y-108966000D01*
X112776000Y-106934000D02*
X115316000Y-109474000D01*
X115316000Y-109474000D02*
X157734000Y-109474000D01*
X93218000Y-109093000D02*
X94107000Y-109982000D01*
X157734000Y-109474000D02*
X159131000Y-108077000D01*
D23*
%TO.N,Net-(IC3-OUTB)*%
X162226000Y-101600000D02*
X162226000Y-99488000D01*
X161626000Y-98888000D02*
X159131000Y-98888000D01*
X162226000Y-99488000D02*
X161626000Y-98888000D01*
%TO.N,Net-(IC3-OUTA)*%
X156210000Y-101600000D02*
X156591000Y-101219000D01*
X152226000Y-101600000D02*
X156210000Y-101600000D01*
X156591000Y-101219000D02*
X156591000Y-98888000D01*
%TD*%
%TA.AperFunction,Conductor*%
%TO.N,GND*%
G36*
X105420587Y-100721185D02*
G01*
X105441229Y-100737819D01*
X105764181Y-101060771D01*
X105797666Y-101122094D01*
X105800500Y-101148452D01*
X105800500Y-103803256D01*
X105798235Y-103823766D01*
X105800439Y-103893872D01*
X105800500Y-103897767D01*
X105800500Y-103925350D01*
X105800988Y-103929219D01*
X105800989Y-103929225D01*
X105801004Y-103929343D01*
X105801918Y-103940967D01*
X105803290Y-103984626D01*
X105808879Y-104003860D01*
X105812825Y-104022916D01*
X105815335Y-104042792D01*
X105831414Y-104083404D01*
X105835197Y-104094451D01*
X105847382Y-104136391D01*
X105857580Y-104153635D01*
X105866136Y-104171100D01*
X105873514Y-104189732D01*
X105873515Y-104189733D01*
X105899180Y-104225059D01*
X105905593Y-104234822D01*
X105927826Y-104272416D01*
X105927829Y-104272419D01*
X105927830Y-104272420D01*
X105941995Y-104286585D01*
X105954627Y-104301375D01*
X105966406Y-104317587D01*
X106000058Y-104345426D01*
X106008699Y-104353289D01*
X107752228Y-106096819D01*
X107785713Y-106158142D01*
X107780729Y-106227834D01*
X107738857Y-106283767D01*
X107673393Y-106308184D01*
X107664547Y-106308500D01*
X107100236Y-106308500D01*
X107056390Y-106300489D01*
X106876336Y-106232425D01*
X106531435Y-106102045D01*
X106529533Y-106101326D01*
X106515691Y-106096093D01*
X106515665Y-106096084D01*
X106514393Y-106095603D01*
X106477045Y-106083380D01*
X106465187Y-106078813D01*
X106451805Y-106072856D01*
X106266648Y-106033500D01*
X106266646Y-106033500D01*
X106077354Y-106033500D01*
X106077352Y-106033500D01*
X105892197Y-106072855D01*
X105719269Y-106149848D01*
X105566129Y-106261110D01*
X105439466Y-106401783D01*
X105344820Y-106565715D01*
X105286326Y-106745742D01*
X105266540Y-106933999D01*
X105286326Y-107122257D01*
X105344820Y-107302284D01*
X105439466Y-107466216D01*
X105566129Y-107606889D01*
X105719269Y-107718151D01*
X105892197Y-107795144D01*
X106077352Y-107834500D01*
X106077354Y-107834500D01*
X106266648Y-107834500D01*
X106451803Y-107795144D01*
X106455634Y-107793438D01*
X106480059Y-107782562D01*
X106503605Y-107774791D01*
X106514400Y-107772394D01*
X106526318Y-107767889D01*
X107025506Y-107579185D01*
X107056388Y-107567510D01*
X107100234Y-107559500D01*
X107910353Y-107559500D01*
X107977392Y-107579185D01*
X108023147Y-107631989D01*
X108034343Y-107683455D01*
X108034274Y-107679573D01*
X108034353Y-107681785D01*
X108034353Y-107684000D01*
X108034510Y-107686208D01*
X108034511Y-107686210D01*
X108039499Y-107755960D01*
X108062292Y-107833585D01*
X108080047Y-107894053D01*
X108120741Y-107957374D01*
X108157858Y-108015129D01*
X108266625Y-108109376D01*
X108397542Y-108169165D01*
X108540000Y-108189647D01*
X109687527Y-108189647D01*
X109690000Y-108189647D01*
X109730615Y-108186398D01*
X109799008Y-108200674D01*
X109848828Y-108249661D01*
X109864500Y-108310003D01*
X109864499Y-108655547D01*
X109844814Y-108722587D01*
X109828180Y-108743228D01*
X109251228Y-109320181D01*
X109189905Y-109353666D01*
X109163547Y-109356500D01*
X94417452Y-109356500D01*
X94350413Y-109336815D01*
X94329771Y-109320181D01*
X93879819Y-108870228D01*
X93846334Y-108808905D01*
X93843500Y-108782547D01*
X93843500Y-101148451D01*
X93863185Y-101081412D01*
X93879810Y-101060779D01*
X93985025Y-100955564D01*
X94046343Y-100922082D01*
X94116035Y-100927066D01*
X94124799Y-100930723D01*
X94790325Y-101238961D01*
X94842883Y-101284996D01*
X94862209Y-101352140D01*
X94842167Y-101419073D01*
X94809335Y-101453053D01*
X94687012Y-101538704D01*
X94676495Y-101546069D01*
X94631595Y-101577508D01*
X94464505Y-101744598D01*
X94328965Y-101938170D01*
X94229097Y-102152336D01*
X94167936Y-102380592D01*
X94147340Y-102616000D01*
X94167936Y-102851407D01*
X94203866Y-102985500D01*
X94229097Y-103079663D01*
X94328965Y-103293830D01*
X94464505Y-103487401D01*
X94631599Y-103654495D01*
X94817596Y-103784732D01*
X94861219Y-103839307D01*
X94868412Y-103908806D01*
X94836890Y-103971160D01*
X94817595Y-103987880D01*
X94631919Y-104117892D01*
X94464890Y-104284921D01*
X94329400Y-104478421D01*
X94229569Y-104692507D01*
X94172364Y-104905999D01*
X94172364Y-104906000D01*
X95069314Y-104906000D01*
X95043507Y-104946156D01*
X95003000Y-105084111D01*
X95003000Y-105227889D01*
X95043507Y-105365844D01*
X95069314Y-105406000D01*
X94172364Y-105406000D01*
X94229569Y-105619492D01*
X94329399Y-105833576D01*
X94464893Y-106027081D01*
X94631918Y-106194106D01*
X94817595Y-106324119D01*
X94861219Y-106378696D01*
X94868412Y-106448195D01*
X94836890Y-106510549D01*
X94817595Y-106527269D01*
X94631595Y-106657508D01*
X94464505Y-106824598D01*
X94328965Y-107018170D01*
X94229097Y-107232336D01*
X94167936Y-107460592D01*
X94147340Y-107695999D01*
X94167936Y-107931407D01*
X94193496Y-108026798D01*
X94229097Y-108159663D01*
X94328965Y-108373830D01*
X94464505Y-108567401D01*
X94631599Y-108734495D01*
X94825170Y-108870035D01*
X95039337Y-108969903D01*
X95267592Y-109031063D01*
X95503000Y-109051659D01*
X95738408Y-109031063D01*
X95907319Y-108985804D01*
X95966660Y-108969904D01*
X95966660Y-108969903D01*
X95966663Y-108969903D01*
X95992396Y-108957902D01*
X96016716Y-108949507D01*
X96022361Y-108948195D01*
X96728008Y-108673424D01*
X96797618Y-108667443D01*
X96817987Y-108673424D01*
X97523637Y-108948195D01*
X97549491Y-108956858D01*
X97562500Y-108962052D01*
X97579335Y-108969903D01*
X97806472Y-109030763D01*
X97807592Y-109031063D01*
X98043000Y-109051659D01*
X98278408Y-109031063D01*
X98447319Y-108985804D01*
X98506660Y-108969904D01*
X98506660Y-108969903D01*
X98506663Y-108969903D01*
X98532396Y-108957902D01*
X98556716Y-108949507D01*
X98562361Y-108948195D01*
X99776508Y-108475420D01*
X99846118Y-108469439D01*
X99866487Y-108475419D01*
X101080637Y-108948195D01*
X101106491Y-108956858D01*
X101119500Y-108962052D01*
X101136335Y-108969903D01*
X101363472Y-109030763D01*
X101364592Y-109031063D01*
X101600000Y-109051659D01*
X101835408Y-109031063D01*
X102063663Y-108969903D01*
X102277830Y-108870035D01*
X102471401Y-108734495D01*
X102638495Y-108567401D01*
X102774035Y-108373830D01*
X102873903Y-108159663D01*
X102935063Y-107931408D01*
X102955659Y-107696000D01*
X102935063Y-107460592D01*
X102873903Y-107232337D01*
X102774035Y-107018171D01*
X102638495Y-106824599D01*
X102471401Y-106657505D01*
X102285402Y-106527267D01*
X102241780Y-106472692D01*
X102234587Y-106403193D01*
X102266109Y-106340839D01*
X102285405Y-106324119D01*
X102471078Y-106194109D01*
X102638106Y-106027081D01*
X102773600Y-105833576D01*
X102873430Y-105619492D01*
X102930636Y-105406000D01*
X102033686Y-105406000D01*
X102059493Y-105365844D01*
X102100000Y-105227889D01*
X102100000Y-105084111D01*
X102059493Y-104946156D01*
X102033686Y-104906000D01*
X102930636Y-104906000D01*
X102930635Y-104905999D01*
X102873430Y-104692507D01*
X102773599Y-104478421D01*
X102638109Y-104284921D01*
X102471081Y-104117893D01*
X102285404Y-103987880D01*
X102241780Y-103933303D01*
X102234587Y-103863804D01*
X102266109Y-103801450D01*
X102285399Y-103784734D01*
X102471401Y-103654495D01*
X102638495Y-103487401D01*
X102774035Y-103293830D01*
X102873903Y-103079663D01*
X102935063Y-102851408D01*
X102955659Y-102616000D01*
X102935063Y-102380592D01*
X102873903Y-102152337D01*
X102774035Y-101938171D01*
X102638495Y-101744599D01*
X102471401Y-101577505D01*
X102285839Y-101447573D01*
X102242215Y-101392997D01*
X102235023Y-101323498D01*
X102266545Y-101261144D01*
X102285831Y-101244432D01*
X102471401Y-101114495D01*
X102638495Y-100947401D01*
X102773653Y-100754374D01*
X102828229Y-100710752D01*
X102875227Y-100701500D01*
X105353548Y-100701500D01*
X105420587Y-100721185D01*
G37*
%TD.AperFunction*%
%TA.AperFunction,Conductor*%
G36*
X99875182Y-103289865D02*
G01*
X100891902Y-103778211D01*
X100943810Y-103824980D01*
X100962192Y-103892389D01*
X100941212Y-103959034D01*
X100909339Y-103991561D01*
X100728918Y-104117893D01*
X100561890Y-104284921D01*
X100426400Y-104478421D01*
X100326569Y-104692507D01*
X100269364Y-104905999D01*
X100269364Y-104906000D01*
X101166314Y-104906000D01*
X101140507Y-104946156D01*
X101100000Y-105084111D01*
X101100000Y-105227889D01*
X101140507Y-105365844D01*
X101166314Y-105406000D01*
X100269364Y-105406000D01*
X100326569Y-105619492D01*
X100426399Y-105833576D01*
X100561893Y-106027081D01*
X100728918Y-106194106D01*
X100893844Y-106309589D01*
X100937468Y-106364166D01*
X100944661Y-106433665D01*
X100913139Y-106496019D01*
X100867713Y-106526713D01*
X99866491Y-106916576D01*
X99796878Y-106922558D01*
X99776505Y-106916576D01*
X99652415Y-106868257D01*
X98775284Y-106526713D01*
X98719957Y-106484046D01*
X98696480Y-106418238D01*
X98712308Y-106350185D01*
X98749155Y-106309590D01*
X98914078Y-106194109D01*
X99081106Y-106027081D01*
X99216600Y-105833576D01*
X99316430Y-105619492D01*
X99373636Y-105406000D01*
X98476686Y-105406000D01*
X98502493Y-105365844D01*
X98543000Y-105227889D01*
X98543000Y-105084111D01*
X98502493Y-104946156D01*
X98476686Y-104906000D01*
X99373636Y-104906000D01*
X99373635Y-104905999D01*
X99316430Y-104692507D01*
X99216599Y-104478421D01*
X99081109Y-104284921D01*
X98914081Y-104117893D01*
X98733660Y-103991560D01*
X98690035Y-103936983D01*
X98682843Y-103867484D01*
X98714365Y-103805130D01*
X98751091Y-103778213D01*
X99767814Y-103289866D01*
X99836765Y-103278585D01*
X99875182Y-103289865D01*
G37*
%TD.AperFunction*%
%TA.AperFunction,Conductor*%
G36*
X97583507Y-104946156D02*
G01*
X97543000Y-105084111D01*
X97543000Y-105227889D01*
X97583507Y-105365844D01*
X97609314Y-105406000D01*
X95936686Y-105406000D01*
X95962493Y-105365844D01*
X96003000Y-105227889D01*
X96003000Y-105084111D01*
X95962493Y-104946156D01*
X95936686Y-104906000D01*
X97609314Y-104906000D01*
X97583507Y-104946156D01*
G37*
%TD.AperFunction*%
%TA.AperFunction,Conductor*%
G36*
X190697039Y-91459685D02*
G01*
X190742794Y-91512489D01*
X190754000Y-91564000D01*
X190754000Y-111128000D01*
X190734315Y-111195039D01*
X190681511Y-111240794D01*
X190630000Y-111252000D01*
X92072000Y-111252000D01*
X92004961Y-111232315D01*
X91959206Y-111179511D01*
X91948000Y-111128000D01*
X91948000Y-100818196D01*
X92587840Y-100818196D01*
X92589739Y-100838294D01*
X92591949Y-100861672D01*
X92592499Y-100873338D01*
X92592499Y-109010256D01*
X92590235Y-109030763D01*
X92592439Y-109100872D01*
X92592500Y-109104767D01*
X92592500Y-109132350D01*
X92592988Y-109136219D01*
X92592989Y-109136225D01*
X92593004Y-109136343D01*
X92593918Y-109147967D01*
X92595290Y-109191626D01*
X92600879Y-109210860D01*
X92604825Y-109229916D01*
X92607335Y-109249792D01*
X92623414Y-109290404D01*
X92627197Y-109301451D01*
X92639382Y-109343391D01*
X92649580Y-109360635D01*
X92658136Y-109378100D01*
X92665514Y-109396732D01*
X92669918Y-109402793D01*
X92691180Y-109432059D01*
X92697593Y-109441822D01*
X92719826Y-109479416D01*
X92719829Y-109479419D01*
X92719830Y-109479420D01*
X92733995Y-109493585D01*
X92746627Y-109508375D01*
X92758406Y-109524587D01*
X92792058Y-109552426D01*
X92800699Y-109560289D01*
X93606196Y-110365787D01*
X93619096Y-110381888D01*
X93670223Y-110429900D01*
X93673020Y-110432611D01*
X93692529Y-110452120D01*
X93695709Y-110454587D01*
X93704571Y-110462155D01*
X93736418Y-110492062D01*
X93753972Y-110501712D01*
X93770236Y-110512396D01*
X93781972Y-110521499D01*
X93786064Y-110524673D01*
X93810909Y-110535424D01*
X93826152Y-110542021D01*
X93836631Y-110547154D01*
X93874908Y-110568197D01*
X93894306Y-110573177D01*
X93912708Y-110579477D01*
X93931104Y-110587438D01*
X93974261Y-110594273D01*
X93985664Y-110596634D01*
X94027981Y-110607500D01*
X94048016Y-110607500D01*
X94067413Y-110609026D01*
X94087196Y-110612160D01*
X94130674Y-110608050D01*
X94142344Y-110607500D01*
X109391256Y-110607500D01*
X109411762Y-110609764D01*
X109414665Y-110609672D01*
X109414667Y-110609673D01*
X109481872Y-110607561D01*
X109485768Y-110607500D01*
X109509448Y-110607500D01*
X109513350Y-110607500D01*
X109517313Y-110606999D01*
X109528962Y-110606080D01*
X109572627Y-110604709D01*
X109591859Y-110599120D01*
X109610918Y-110595174D01*
X109618091Y-110594268D01*
X109630792Y-110592664D01*
X109671407Y-110576582D01*
X109682444Y-110572803D01*
X109724390Y-110560618D01*
X109741629Y-110550422D01*
X109759102Y-110541862D01*
X109777732Y-110534486D01*
X109813064Y-110508814D01*
X109822830Y-110502400D01*
X109860418Y-110480171D01*
X109860417Y-110480171D01*
X109860420Y-110480170D01*
X109874585Y-110466004D01*
X109889373Y-110453373D01*
X109905587Y-110441594D01*
X109933438Y-110407926D01*
X109941279Y-110399309D01*
X110873788Y-109466801D01*
X110889885Y-109453906D01*
X110891873Y-109451787D01*
X110891877Y-109451786D01*
X110937949Y-109402723D01*
X110940534Y-109400055D01*
X110960120Y-109380471D01*
X110962585Y-109377292D01*
X110970167Y-109368416D01*
X110981357Y-109356500D01*
X111000062Y-109336582D01*
X111009712Y-109319027D01*
X111020400Y-109302757D01*
X111025768Y-109295837D01*
X111032673Y-109286936D01*
X111050026Y-109246832D01*
X111055157Y-109236362D01*
X111058701Y-109229916D01*
X111076197Y-109198092D01*
X111081175Y-109178699D01*
X111087481Y-109160282D01*
X111089018Y-109156728D01*
X111095438Y-109141896D01*
X111102272Y-109098745D01*
X111104635Y-109087331D01*
X111115500Y-109045019D01*
X111115500Y-109024983D01*
X111117027Y-109005584D01*
X111120160Y-108985804D01*
X111116050Y-108942324D01*
X111115500Y-108930655D01*
X111115500Y-108261605D01*
X111135185Y-108194566D01*
X111187989Y-108148811D01*
X111198730Y-108144804D01*
X111321127Y-108066144D01*
X111365332Y-108015129D01*
X111415377Y-107957373D01*
X111475165Y-107826457D01*
X111495647Y-107684000D01*
X111495647Y-107683500D01*
X111495787Y-107683020D01*
X111496909Y-107675222D01*
X111498030Y-107675383D01*
X111515332Y-107616461D01*
X111568136Y-107570706D01*
X111619647Y-107559500D01*
X112465548Y-107559500D01*
X112532587Y-107579185D01*
X112553228Y-107595818D01*
X113691515Y-108734106D01*
X114815196Y-109857787D01*
X114828096Y-109873888D01*
X114879223Y-109921900D01*
X114882020Y-109924611D01*
X114901529Y-109944120D01*
X114904709Y-109946587D01*
X114913571Y-109954155D01*
X114945418Y-109984062D01*
X114962970Y-109993711D01*
X114979238Y-110004397D01*
X114995064Y-110016673D01*
X115035146Y-110034017D01*
X115045633Y-110039155D01*
X115083907Y-110060197D01*
X115092410Y-110062379D01*
X115103308Y-110065178D01*
X115121713Y-110071478D01*
X115140104Y-110079437D01*
X115183250Y-110086270D01*
X115194668Y-110088635D01*
X115236981Y-110099500D01*
X115257016Y-110099500D01*
X115276415Y-110101027D01*
X115296196Y-110104160D01*
X115339674Y-110100050D01*
X115351344Y-110099500D01*
X157651256Y-110099500D01*
X157671762Y-110101764D01*
X157674665Y-110101672D01*
X157674667Y-110101673D01*
X157741872Y-110099561D01*
X157745768Y-110099500D01*
X157769448Y-110099500D01*
X157773350Y-110099500D01*
X157777313Y-110098999D01*
X157788962Y-110098080D01*
X157832627Y-110096709D01*
X157851859Y-110091120D01*
X157870918Y-110087174D01*
X157878099Y-110086267D01*
X157890792Y-110084664D01*
X157931407Y-110068582D01*
X157942444Y-110064803D01*
X157984390Y-110052618D01*
X158001629Y-110042422D01*
X158019102Y-110033862D01*
X158037732Y-110026486D01*
X158073064Y-110000814D01*
X158082830Y-109994400D01*
X158120418Y-109972171D01*
X158120417Y-109972171D01*
X158120420Y-109972170D01*
X158134585Y-109958004D01*
X158149373Y-109945373D01*
X158165587Y-109933594D01*
X158193438Y-109899926D01*
X158201279Y-109891309D01*
X159514788Y-108577801D01*
X159530885Y-108564906D01*
X159532873Y-108562787D01*
X159532877Y-108562786D01*
X159578949Y-108513723D01*
X159581534Y-108511055D01*
X159601120Y-108491471D01*
X159603585Y-108488292D01*
X159611167Y-108479416D01*
X159620536Y-108469439D01*
X159641062Y-108447582D01*
X159650717Y-108430018D01*
X159661394Y-108413764D01*
X159673673Y-108397936D01*
X159691018Y-108357852D01*
X159696160Y-108347356D01*
X159717197Y-108309092D01*
X159722179Y-108289684D01*
X159728481Y-108271280D01*
X159736437Y-108252896D01*
X159743269Y-108209752D01*
X159745633Y-108198338D01*
X159756500Y-108156019D01*
X159756500Y-108135982D01*
X159758027Y-108116584D01*
X159761160Y-108096804D01*
X159757050Y-108053324D01*
X159756500Y-108041655D01*
X159756500Y-107488328D01*
X174159709Y-107488328D01*
X174189925Y-107711388D01*
X174249276Y-107894052D01*
X174259483Y-107925464D01*
X174366148Y-108123681D01*
X174506492Y-108299666D01*
X174676004Y-108447765D01*
X174722293Y-108475421D01*
X174869237Y-108563216D01*
X174987214Y-108607493D01*
X175079976Y-108642307D01*
X175301453Y-108682500D01*
X175467378Y-108682500D01*
X175470155Y-108682500D01*
X175638188Y-108667377D01*
X175855170Y-108607493D01*
X176057973Y-108509829D01*
X176240078Y-108377522D01*
X176395632Y-108214825D01*
X176519635Y-108026968D01*
X176608103Y-107819988D01*
X176658191Y-107600537D01*
X176667855Y-107385335D01*
X176668290Y-107375671D01*
X176665204Y-107352888D01*
X176638075Y-107152613D01*
X176568517Y-106938536D01*
X176461852Y-106740319D01*
X176322610Y-106565716D01*
X176321509Y-106564335D01*
X176319409Y-106562500D01*
X176151996Y-106416235D01*
X176151993Y-106416233D01*
X175958762Y-106300783D01*
X175748025Y-106221693D01*
X175526547Y-106181500D01*
X175357845Y-106181500D01*
X175355097Y-106181747D01*
X175355081Y-106181748D01*
X175189809Y-106196623D01*
X174972828Y-106256507D01*
X174770027Y-106354170D01*
X174587925Y-106486475D01*
X174587922Y-106486477D01*
X174587922Y-106486478D01*
X174549453Y-106526714D01*
X174432365Y-106649178D01*
X174308365Y-106837031D01*
X174219896Y-107044012D01*
X174169809Y-107263462D01*
X174159709Y-107488328D01*
X159756500Y-107488328D01*
X159756500Y-105617161D01*
X159776185Y-105550122D01*
X159776186Y-105550118D01*
X159902754Y-105353236D01*
X159915417Y-105330980D01*
X159923924Y-105317995D01*
X159924796Y-105316831D01*
X159924797Y-105316825D01*
X159925115Y-105316402D01*
X159930965Y-105303441D01*
X159930512Y-105304317D01*
X159928061Y-105309574D01*
X159929549Y-105306143D01*
X159929751Y-105305790D01*
X159930877Y-105303536D01*
X159968634Y-105201966D01*
X159968634Y-105201963D01*
X159972822Y-105190698D01*
X159974505Y-105183554D01*
X159975091Y-105181983D01*
X159981500Y-105122373D01*
X159981499Y-105087277D01*
X159982192Y-105074183D01*
X159983816Y-105058888D01*
X159983545Y-105051585D01*
X159983484Y-105049940D01*
X159982009Y-105033719D01*
X159981499Y-105022489D01*
X159981499Y-103882000D01*
X166514000Y-103882000D01*
X166514000Y-106776518D01*
X166514354Y-106783132D01*
X166520400Y-106839371D01*
X166570647Y-106974089D01*
X166656811Y-107089188D01*
X166771910Y-107175352D01*
X166906628Y-107225599D01*
X166962867Y-107231645D01*
X166969482Y-107232000D01*
X168714000Y-107232000D01*
X168714000Y-103882000D01*
X169214000Y-103882000D01*
X169214000Y-107232000D01*
X170958518Y-107232000D01*
X170965132Y-107231645D01*
X171021371Y-107225599D01*
X171156089Y-107175352D01*
X171271188Y-107089188D01*
X171357352Y-106974089D01*
X171407599Y-106839371D01*
X171413645Y-106783132D01*
X171414000Y-106776518D01*
X171414000Y-103882000D01*
X179414000Y-103882000D01*
X179414000Y-106776518D01*
X179414354Y-106783132D01*
X179420400Y-106839371D01*
X179470647Y-106974089D01*
X179556811Y-107089188D01*
X179671910Y-107175352D01*
X179806628Y-107225599D01*
X179862867Y-107231645D01*
X179869482Y-107232000D01*
X181614000Y-107232000D01*
X181614000Y-103882000D01*
X182114000Y-103882000D01*
X182114000Y-107232000D01*
X183858518Y-107232000D01*
X183865132Y-107231645D01*
X183921371Y-107225599D01*
X184056089Y-107175352D01*
X184171188Y-107089188D01*
X184257352Y-106974089D01*
X184307599Y-106839371D01*
X184313645Y-106783132D01*
X184314000Y-106776518D01*
X184314000Y-103882000D01*
X182114000Y-103882000D01*
X181614000Y-103882000D01*
X179414000Y-103882000D01*
X171414000Y-103882000D01*
X169214000Y-103882000D01*
X168714000Y-103882000D01*
X166514000Y-103882000D01*
X159981499Y-103882000D01*
X159981499Y-103504939D01*
X159981499Y-103504938D01*
X159981499Y-103501628D01*
X159975091Y-103442017D01*
X159952706Y-103382000D01*
X166514000Y-103382000D01*
X168714000Y-103382000D01*
X168714000Y-100032000D01*
X169214000Y-100032000D01*
X169214000Y-103382000D01*
X171414000Y-103382000D01*
X179414000Y-103382000D01*
X181614000Y-103382000D01*
X181614000Y-100032000D01*
X182114000Y-100032000D01*
X182114000Y-103382000D01*
X184314000Y-103382000D01*
X184314000Y-100487481D01*
X184313645Y-100480867D01*
X184307599Y-100424628D01*
X184257352Y-100289910D01*
X184171188Y-100174811D01*
X184056089Y-100088647D01*
X183921371Y-100038400D01*
X183865132Y-100032354D01*
X183858518Y-100032000D01*
X182114000Y-100032000D01*
X181614000Y-100032000D01*
X179869482Y-100032000D01*
X179862867Y-100032354D01*
X179806628Y-100038400D01*
X179671910Y-100088647D01*
X179556811Y-100174811D01*
X179470647Y-100289910D01*
X179420400Y-100424628D01*
X179414354Y-100480867D01*
X179414000Y-100487481D01*
X179414000Y-103382000D01*
X171414000Y-103382000D01*
X171414000Y-100487481D01*
X171413645Y-100480867D01*
X171407599Y-100424628D01*
X171357352Y-100289910D01*
X171271188Y-100174811D01*
X171156089Y-100088647D01*
X171021371Y-100038400D01*
X170965132Y-100032354D01*
X170958518Y-100032000D01*
X169214000Y-100032000D01*
X168714000Y-100032000D01*
X166969482Y-100032000D01*
X166962867Y-100032354D01*
X166906628Y-100038400D01*
X166771910Y-100088647D01*
X166656811Y-100174811D01*
X166570647Y-100289910D01*
X166520400Y-100424628D01*
X166514354Y-100480867D01*
X166514000Y-100487481D01*
X166514000Y-103382000D01*
X159952706Y-103382000D01*
X159924796Y-103307169D01*
X159838546Y-103191954D01*
X159723331Y-103105704D01*
X159588483Y-103055409D01*
X159536816Y-103049854D01*
X159532166Y-103049354D01*
X159532165Y-103049353D01*
X159528873Y-103049000D01*
X159525550Y-103049000D01*
X158736439Y-103049000D01*
X158736420Y-103049000D01*
X158733128Y-103049001D01*
X158729848Y-103049353D01*
X158729840Y-103049354D01*
X158673515Y-103055409D01*
X158538618Y-103105723D01*
X158468926Y-103110707D01*
X158451952Y-103105723D01*
X158318373Y-103055900D01*
X158262132Y-103049854D01*
X158255518Y-103049500D01*
X158111000Y-103049500D01*
X158111000Y-105574500D01*
X158255518Y-105574500D01*
X158262132Y-105574145D01*
X158318373Y-105568099D01*
X158338165Y-105560717D01*
X158407857Y-105555731D01*
X158469180Y-105589216D01*
X158502666Y-105650539D01*
X158505500Y-105676898D01*
X158505500Y-107766546D01*
X158485815Y-107833585D01*
X158469181Y-107854227D01*
X157511228Y-108812181D01*
X157449905Y-108845666D01*
X157423547Y-108848500D01*
X141890452Y-108848500D01*
X141823413Y-108828815D01*
X141777658Y-108776011D01*
X141767714Y-108706853D01*
X141796739Y-108643297D01*
X141802771Y-108636819D01*
X142276381Y-108163209D01*
X142750789Y-107688800D01*
X142766885Y-107675906D01*
X142768873Y-107673787D01*
X142768877Y-107673786D01*
X142814949Y-107624723D01*
X142817534Y-107622055D01*
X142837120Y-107602471D01*
X142839585Y-107599292D01*
X142847167Y-107590416D01*
X142864661Y-107571787D01*
X142877062Y-107558582D01*
X142886717Y-107541018D01*
X142897394Y-107524764D01*
X142909673Y-107508936D01*
X142927018Y-107468852D01*
X142932160Y-107458356D01*
X142938953Y-107446000D01*
X142953197Y-107420092D01*
X142958179Y-107400684D01*
X142964481Y-107382280D01*
X142972437Y-107363896D01*
X142979269Y-107320752D01*
X142981633Y-107309338D01*
X142992500Y-107267019D01*
X142992500Y-107246982D01*
X142994027Y-107227584D01*
X142994341Y-107225599D01*
X142997160Y-107207804D01*
X142993050Y-107164324D01*
X142992500Y-107152655D01*
X142992500Y-105617161D01*
X143012185Y-105550122D01*
X143012186Y-105550118D01*
X143138754Y-105353236D01*
X143151417Y-105330980D01*
X143159924Y-105317995D01*
X143160796Y-105316831D01*
X143160797Y-105316825D01*
X143161115Y-105316402D01*
X143166965Y-105303441D01*
X143166512Y-105304317D01*
X143164061Y-105309574D01*
X143165549Y-105306143D01*
X143165751Y-105305790D01*
X143166877Y-105303536D01*
X143204634Y-105201966D01*
X143204634Y-105201963D01*
X143208822Y-105190698D01*
X143210505Y-105183554D01*
X143211091Y-105181983D01*
X143217500Y-105122373D01*
X143217500Y-105119078D01*
X154470500Y-105119078D01*
X154470501Y-105122372D01*
X154470853Y-105125652D01*
X154470854Y-105125659D01*
X154476909Y-105181984D01*
X154491971Y-105222367D01*
X154527204Y-105316831D01*
X154613454Y-105432046D01*
X154728669Y-105518296D01*
X154863517Y-105568591D01*
X154923127Y-105575000D01*
X155714500Y-105574999D01*
X155781539Y-105594683D01*
X155827294Y-105647487D01*
X155838500Y-105698999D01*
X155838500Y-105751761D01*
X155830489Y-105795607D01*
X155626104Y-106336278D01*
X155626093Y-106336307D01*
X155625605Y-106337600D01*
X155625176Y-106338908D01*
X155625166Y-106338939D01*
X155611417Y-106380949D01*
X155610979Y-106384345D01*
X155605933Y-106406776D01*
X155578326Y-106491743D01*
X155558540Y-106680000D01*
X155578326Y-106868257D01*
X155636820Y-107048284D01*
X155731466Y-107212216D01*
X155858129Y-107352889D01*
X156011269Y-107464151D01*
X156184197Y-107541144D01*
X156369352Y-107580500D01*
X156369354Y-107580500D01*
X156558648Y-107580500D01*
X156682083Y-107554262D01*
X156743803Y-107541144D01*
X156916730Y-107464151D01*
X157017091Y-107391235D01*
X157069870Y-107352889D01*
X157196533Y-107212216D01*
X157291179Y-107048284D01*
X157300964Y-107018170D01*
X157349674Y-106868256D01*
X157369460Y-106680000D01*
X157349674Y-106491744D01*
X157310287Y-106370526D01*
X157307171Y-106359105D01*
X157306769Y-106357297D01*
X157302394Y-106337600D01*
X157299064Y-106328792D01*
X157097511Y-105795610D01*
X157089500Y-105751764D01*
X157089500Y-105643864D01*
X157109185Y-105576825D01*
X157114935Y-105568625D01*
X157115337Y-105568099D01*
X157119713Y-105562365D01*
X157174945Y-105521423D01*
X157183331Y-105518296D01*
X157183331Y-105518295D01*
X157183384Y-105518276D01*
X157253076Y-105513293D01*
X157270048Y-105518277D01*
X157403626Y-105568099D01*
X157459867Y-105574145D01*
X157466482Y-105574500D01*
X157611000Y-105574500D01*
X157611000Y-103049500D01*
X157466482Y-103049500D01*
X157459867Y-103049854D01*
X157403624Y-103055901D01*
X157270046Y-103105722D01*
X157200355Y-103110706D01*
X157183381Y-103105722D01*
X157048485Y-103055409D01*
X156992166Y-103049354D01*
X156992165Y-103049353D01*
X156988873Y-103049000D01*
X156985550Y-103049000D01*
X156196439Y-103049000D01*
X156196420Y-103049000D01*
X156193128Y-103049001D01*
X156189848Y-103049353D01*
X156189840Y-103049354D01*
X156133515Y-103055409D01*
X155999333Y-103105456D01*
X155929641Y-103110440D01*
X155912667Y-103105456D01*
X155778485Y-103055409D01*
X155722166Y-103049354D01*
X155722165Y-103049353D01*
X155718873Y-103049000D01*
X155715550Y-103049000D01*
X154926439Y-103049000D01*
X154926420Y-103049000D01*
X154923128Y-103049001D01*
X154919848Y-103049353D01*
X154919840Y-103049354D01*
X154863515Y-103055409D01*
X154728669Y-103105704D01*
X154613454Y-103191954D01*
X154527204Y-103307168D01*
X154476909Y-103442016D01*
X154472030Y-103487401D01*
X154470500Y-103501627D01*
X154470500Y-103504948D01*
X154470500Y-103504949D01*
X154470500Y-105119060D01*
X154470500Y-105119078D01*
X143217500Y-105119078D01*
X143217499Y-105087277D01*
X143218192Y-105074183D01*
X143219816Y-105058888D01*
X143219545Y-105051585D01*
X143219484Y-105049940D01*
X143218009Y-105033719D01*
X143217499Y-105022489D01*
X143217499Y-103504939D01*
X143217499Y-103504938D01*
X143217499Y-103501628D01*
X143211091Y-103442017D01*
X143160796Y-103307169D01*
X143074546Y-103191954D01*
X142959331Y-103105704D01*
X142824483Y-103055409D01*
X142772816Y-103049854D01*
X142768166Y-103049354D01*
X142768165Y-103049353D01*
X142764873Y-103049000D01*
X142761550Y-103049000D01*
X141972439Y-103049000D01*
X141972420Y-103049000D01*
X141969128Y-103049001D01*
X141965848Y-103049353D01*
X141965840Y-103049354D01*
X141909515Y-103055409D01*
X141774618Y-103105723D01*
X141704926Y-103110707D01*
X141687952Y-103105723D01*
X141554373Y-103055900D01*
X141498132Y-103049854D01*
X141491518Y-103049500D01*
X141347000Y-103049500D01*
X141347000Y-105574500D01*
X141491518Y-105574500D01*
X141498132Y-105574145D01*
X141554373Y-105568099D01*
X141574165Y-105560717D01*
X141643857Y-105555731D01*
X141705180Y-105589216D01*
X141738666Y-105650539D01*
X141741500Y-105676898D01*
X141741500Y-106877546D01*
X141721815Y-106944585D01*
X141705181Y-106965227D01*
X140874228Y-107796181D01*
X140812905Y-107829666D01*
X140786547Y-107832500D01*
X125002133Y-107832500D01*
X124935094Y-107812815D01*
X124889339Y-107760011D01*
X124879395Y-107690853D01*
X124906583Y-107629467D01*
X124917341Y-107616461D01*
X124919431Y-107613934D01*
X124927279Y-107605309D01*
X125906788Y-106625801D01*
X125922885Y-106612906D01*
X125924873Y-106610787D01*
X125924877Y-106610786D01*
X125970949Y-106561723D01*
X125973534Y-106559055D01*
X125993120Y-106539471D01*
X125995585Y-106536292D01*
X126003167Y-106527416D01*
X126017964Y-106511659D01*
X126033062Y-106495582D01*
X126042712Y-106478027D01*
X126053400Y-106461757D01*
X126059550Y-106453829D01*
X126065673Y-106445936D01*
X126083026Y-106405832D01*
X126088157Y-106395362D01*
X126109197Y-106357092D01*
X126114175Y-106337699D01*
X126120481Y-106319282D01*
X126125808Y-106306973D01*
X126128438Y-106300896D01*
X126135272Y-106257745D01*
X126137635Y-106246331D01*
X126148500Y-106204019D01*
X126148500Y-106183982D01*
X126150027Y-106164584D01*
X126151047Y-106158142D01*
X126153160Y-106144804D01*
X126149047Y-106101303D01*
X126148500Y-106089676D01*
X126148500Y-105617161D01*
X126168184Y-105550122D01*
X126294754Y-105353236D01*
X126307417Y-105330980D01*
X126315924Y-105317995D01*
X126316796Y-105316831D01*
X126316797Y-105316825D01*
X126317115Y-105316402D01*
X126322965Y-105303441D01*
X126322512Y-105304317D01*
X126320061Y-105309574D01*
X126321549Y-105306143D01*
X126321751Y-105305790D01*
X126322877Y-105303536D01*
X126360634Y-105201966D01*
X126360634Y-105201963D01*
X126364822Y-105190698D01*
X126366505Y-105183554D01*
X126367091Y-105181983D01*
X126373500Y-105122373D01*
X126373500Y-105119078D01*
X137706500Y-105119078D01*
X137706501Y-105122372D01*
X137706853Y-105125652D01*
X137706854Y-105125659D01*
X137712909Y-105181984D01*
X137727971Y-105222367D01*
X137763204Y-105316831D01*
X137849454Y-105432046D01*
X137964669Y-105518296D01*
X138099517Y-105568591D01*
X138159127Y-105575000D01*
X138954872Y-105574999D01*
X139014483Y-105568591D01*
X139034165Y-105561249D01*
X139103857Y-105556265D01*
X139165180Y-105589749D01*
X139198666Y-105651072D01*
X139201500Y-105677431D01*
X139201500Y-105751761D01*
X139193489Y-105795607D01*
X138989104Y-106336278D01*
X138989093Y-106336307D01*
X138988605Y-106337600D01*
X138988176Y-106338908D01*
X138988166Y-106338939D01*
X138974417Y-106380949D01*
X138973979Y-106384345D01*
X138968933Y-106406776D01*
X138941326Y-106491743D01*
X138921540Y-106680000D01*
X138941326Y-106868257D01*
X138999820Y-107048284D01*
X139094466Y-107212216D01*
X139221129Y-107352889D01*
X139374269Y-107464151D01*
X139547197Y-107541144D01*
X139732352Y-107580500D01*
X139732354Y-107580500D01*
X139921648Y-107580500D01*
X140045084Y-107554262D01*
X140106803Y-107541144D01*
X140279730Y-107464151D01*
X140380091Y-107391235D01*
X140432870Y-107352889D01*
X140559533Y-107212216D01*
X140654179Y-107048284D01*
X140663964Y-107018170D01*
X140712674Y-106868256D01*
X140732460Y-106680000D01*
X140712674Y-106491744D01*
X140673287Y-106370526D01*
X140670171Y-106359105D01*
X140669769Y-106357297D01*
X140665394Y-106337600D01*
X140662064Y-106328792D01*
X140460511Y-105795610D01*
X140452500Y-105751764D01*
X140452500Y-105676898D01*
X140472185Y-105609859D01*
X140524989Y-105564104D01*
X140594147Y-105554160D01*
X140619835Y-105560717D01*
X140639626Y-105568099D01*
X140695867Y-105574145D01*
X140702482Y-105574500D01*
X140847000Y-105574500D01*
X140847000Y-103049500D01*
X140702482Y-103049500D01*
X140695867Y-103049854D01*
X140639624Y-103055901D01*
X140506046Y-103105722D01*
X140436355Y-103110706D01*
X140419381Y-103105722D01*
X140284485Y-103055409D01*
X140228166Y-103049354D01*
X140228165Y-103049353D01*
X140224873Y-103049000D01*
X140221550Y-103049000D01*
X139432439Y-103049000D01*
X139432420Y-103049000D01*
X139429128Y-103049001D01*
X139425848Y-103049353D01*
X139425840Y-103049354D01*
X139369515Y-103055409D01*
X139235333Y-103105456D01*
X139165641Y-103110440D01*
X139148667Y-103105456D01*
X139014485Y-103055409D01*
X138958166Y-103049354D01*
X138958165Y-103049353D01*
X138954873Y-103049000D01*
X138951550Y-103049000D01*
X138162439Y-103049000D01*
X138162420Y-103049000D01*
X138159128Y-103049001D01*
X138155848Y-103049353D01*
X138155840Y-103049354D01*
X138099515Y-103055409D01*
X137964669Y-103105704D01*
X137849454Y-103191954D01*
X137763204Y-103307168D01*
X137712909Y-103442016D01*
X137708030Y-103487401D01*
X137706500Y-103501627D01*
X137706500Y-103504948D01*
X137706500Y-103504949D01*
X137706500Y-105119060D01*
X137706500Y-105119078D01*
X126373500Y-105119078D01*
X126373499Y-105087277D01*
X126374192Y-105074183D01*
X126375816Y-105058888D01*
X126375545Y-105051585D01*
X126375484Y-105049940D01*
X126374009Y-105033719D01*
X126373499Y-105022489D01*
X126373499Y-103504939D01*
X126373499Y-103501628D01*
X126367091Y-103442017D01*
X126316796Y-103307169D01*
X126230546Y-103191954D01*
X126115331Y-103105704D01*
X125980483Y-103055409D01*
X125928816Y-103049854D01*
X125924166Y-103049354D01*
X125924165Y-103049353D01*
X125920873Y-103049000D01*
X125917550Y-103049000D01*
X125128439Y-103049000D01*
X125128420Y-103049000D01*
X125125128Y-103049001D01*
X125121848Y-103049353D01*
X125121840Y-103049354D01*
X125065515Y-103055409D01*
X124930618Y-103105723D01*
X124860926Y-103110707D01*
X124843952Y-103105723D01*
X124710373Y-103055900D01*
X124654132Y-103049854D01*
X124647518Y-103049500D01*
X124503000Y-103049500D01*
X124503000Y-105574500D01*
X124647518Y-105574500D01*
X124654132Y-105574145D01*
X124710373Y-105568099D01*
X124730165Y-105560717D01*
X124799857Y-105555731D01*
X124861180Y-105589216D01*
X124894666Y-105650539D01*
X124897500Y-105676899D01*
X124897499Y-105814548D01*
X124877814Y-105881587D01*
X124861180Y-105902228D01*
X124237228Y-106526181D01*
X124175905Y-106559666D01*
X124149547Y-106562500D01*
X118972100Y-106562500D01*
X118905061Y-106542815D01*
X118859306Y-106490011D01*
X118849362Y-106420853D01*
X118878387Y-106357297D01*
X118928253Y-106322511D01*
X118930322Y-106321729D01*
X118994388Y-106297510D01*
X119038233Y-106289500D01*
X121960756Y-106289500D01*
X121981262Y-106291764D01*
X121984165Y-106291672D01*
X121984167Y-106291673D01*
X122051372Y-106289561D01*
X122055268Y-106289500D01*
X122078948Y-106289500D01*
X122082850Y-106289500D01*
X122086813Y-106288999D01*
X122098462Y-106288080D01*
X122142127Y-106286709D01*
X122161359Y-106281120D01*
X122180418Y-106277174D01*
X122186696Y-106276381D01*
X122200292Y-106274664D01*
X122240907Y-106258582D01*
X122251944Y-106254803D01*
X122293890Y-106242618D01*
X122311129Y-106232422D01*
X122328602Y-106223862D01*
X122334080Y-106221693D01*
X122347232Y-106216486D01*
X122382564Y-106190814D01*
X122392330Y-106184400D01*
X122429918Y-106162171D01*
X122429917Y-106162171D01*
X122429920Y-106162170D01*
X122444085Y-106148004D01*
X122458873Y-106135373D01*
X122475087Y-106123594D01*
X122502938Y-106089926D01*
X122510779Y-106081309D01*
X122980771Y-105611318D01*
X123042094Y-105577833D01*
X123068452Y-105574999D01*
X123377561Y-105574999D01*
X123380872Y-105574999D01*
X123440483Y-105568591D01*
X123575331Y-105518296D01*
X123575334Y-105518293D01*
X123575381Y-105518276D01*
X123645073Y-105513292D01*
X123662049Y-105518276D01*
X123795628Y-105568099D01*
X123851867Y-105574145D01*
X123858482Y-105574500D01*
X124003000Y-105574500D01*
X124003000Y-103049500D01*
X123858482Y-103049500D01*
X123851867Y-103049854D01*
X123795624Y-103055901D01*
X123662046Y-103105722D01*
X123592355Y-103110706D01*
X123575381Y-103105722D01*
X123440485Y-103055409D01*
X123384166Y-103049354D01*
X123384165Y-103049353D01*
X123380873Y-103049000D01*
X123377550Y-103049000D01*
X122588439Y-103049000D01*
X122588420Y-103049000D01*
X122585128Y-103049001D01*
X122581848Y-103049353D01*
X122581840Y-103049354D01*
X122525515Y-103055409D01*
X122391333Y-103105456D01*
X122321641Y-103110440D01*
X122304667Y-103105456D01*
X122170485Y-103055409D01*
X122114166Y-103049354D01*
X122114165Y-103049353D01*
X122110873Y-103049000D01*
X122107550Y-103049000D01*
X121318439Y-103049000D01*
X121318420Y-103049000D01*
X121315128Y-103049001D01*
X121311848Y-103049353D01*
X121311840Y-103049354D01*
X121255515Y-103055409D01*
X121120669Y-103105704D01*
X121005454Y-103191954D01*
X120919204Y-103307168D01*
X120868909Y-103442016D01*
X120864030Y-103487401D01*
X120862500Y-103501627D01*
X120862500Y-104269787D01*
X120862501Y-104914500D01*
X120842816Y-104981539D01*
X120790013Y-105027294D01*
X120738501Y-105038500D01*
X119038236Y-105038500D01*
X118994390Y-105030489D01*
X118469435Y-104832045D01*
X118453691Y-104826093D01*
X118453665Y-104826084D01*
X118452393Y-104825603D01*
X118415045Y-104813380D01*
X118403187Y-104808813D01*
X118389805Y-104802856D01*
X118204648Y-104763500D01*
X118204646Y-104763500D01*
X118015354Y-104763500D01*
X118015352Y-104763500D01*
X117830197Y-104802855D01*
X117657269Y-104879848D01*
X117504129Y-104991110D01*
X117377466Y-105131783D01*
X117282820Y-105295715D01*
X117224326Y-105475742D01*
X117213931Y-105574645D01*
X117204540Y-105664000D01*
X117224326Y-105852256D01*
X117224326Y-105852258D01*
X117225689Y-105865218D01*
X117222891Y-105865512D01*
X117224334Y-105915975D01*
X117188254Y-105975808D01*
X117125554Y-106006637D01*
X117056140Y-105998674D01*
X117016726Y-105972135D01*
X116231819Y-105187228D01*
X116198334Y-105125905D01*
X116195500Y-105099547D01*
X116195500Y-101599999D01*
X117212699Y-101599999D01*
X117231865Y-101831299D01*
X117231865Y-101831301D01*
X117231866Y-101831305D01*
X117279196Y-102018204D01*
X117288844Y-102056303D01*
X117347432Y-102189870D01*
X117382076Y-102268849D01*
X117509021Y-102463153D01*
X117666216Y-102633913D01*
X117849374Y-102776470D01*
X118053497Y-102886936D01*
X118097051Y-102901888D01*
X118273015Y-102962297D01*
X118273017Y-102962297D01*
X118273019Y-102962298D01*
X118501951Y-103000500D01*
X118501952Y-103000500D01*
X118734048Y-103000500D01*
X118734049Y-103000500D01*
X118962981Y-102962298D01*
X119133483Y-102903763D01*
X119144576Y-102900526D01*
X119160664Y-102896637D01*
X120505599Y-102359348D01*
X120551601Y-102350500D01*
X121856294Y-102350500D01*
X121874264Y-102351809D01*
X121876948Y-102352202D01*
X121898023Y-102355289D01*
X121947368Y-102350972D01*
X121958176Y-102350500D01*
X121960100Y-102350500D01*
X121963709Y-102350500D01*
X121994550Y-102346894D01*
X121998031Y-102346539D01*
X122072797Y-102339999D01*
X122072797Y-102339998D01*
X122074052Y-102339889D01*
X122093062Y-102335674D01*
X122094250Y-102335241D01*
X122094255Y-102335241D01*
X122164820Y-102309557D01*
X122168095Y-102308419D01*
X122239334Y-102284814D01*
X122239336Y-102284812D01*
X122240536Y-102284415D01*
X122258063Y-102275929D01*
X122259112Y-102275238D01*
X122259117Y-102275237D01*
X122321806Y-102234005D01*
X122324798Y-102232099D01*
X122388656Y-102192712D01*
X122388656Y-102192711D01*
X122389729Y-102192050D01*
X122404824Y-102179753D01*
X122405692Y-102178832D01*
X122405696Y-102178830D01*
X122457184Y-102124254D01*
X122459630Y-102121736D01*
X123468642Y-101112724D01*
X123482260Y-101100954D01*
X123501530Y-101086610D01*
X123533366Y-101048667D01*
X123540680Y-101040688D01*
X123541264Y-101040103D01*
X123544591Y-101036777D01*
X123563833Y-101012439D01*
X123566090Y-101009670D01*
X123611488Y-100955567D01*
X123614302Y-100952214D01*
X123614303Y-100952211D01*
X123615115Y-100951244D01*
X123625573Y-100934827D01*
X123626106Y-100933682D01*
X123626111Y-100933677D01*
X123657833Y-100865646D01*
X123659362Y-100862488D01*
X123693040Y-100795433D01*
X123693040Y-100795432D01*
X123693612Y-100794294D01*
X123700000Y-100775914D01*
X123700255Y-100774675D01*
X123700257Y-100774673D01*
X123715454Y-100701072D01*
X123716186Y-100697770D01*
X123733500Y-100624721D01*
X123733500Y-100624716D01*
X123733791Y-100623489D01*
X123735770Y-100604121D01*
X123735733Y-100602859D01*
X123735734Y-100602856D01*
X123733552Y-100527869D01*
X123733500Y-100524263D01*
X123733500Y-100401225D01*
X123733500Y-100274995D01*
X123753183Y-100207960D01*
X123805987Y-100162205D01*
X123857494Y-100150999D01*
X124650872Y-100150999D01*
X124710483Y-100144591D01*
X124844669Y-100094542D01*
X124914358Y-100089559D01*
X124931321Y-100094539D01*
X125065517Y-100144591D01*
X125125127Y-100151000D01*
X125920872Y-100150999D01*
X125980483Y-100144591D01*
X126115331Y-100094296D01*
X126230546Y-100008046D01*
X126316796Y-99892831D01*
X126367091Y-99757983D01*
X126368030Y-99749246D01*
X126394767Y-99684695D01*
X126452159Y-99644846D01*
X126491320Y-99638500D01*
X127227770Y-99638500D01*
X127294809Y-99658185D01*
X127315451Y-99674819D01*
X127512902Y-99872270D01*
X127694008Y-100053375D01*
X127727493Y-100114698D01*
X127722509Y-100184389D01*
X127718978Y-100192881D01*
X127332337Y-101033309D01*
X127328519Y-101041839D01*
X127328507Y-101041866D01*
X127328051Y-101042888D01*
X127327890Y-101043258D01*
X127327242Y-101045042D01*
X127327238Y-101045053D01*
X127305214Y-101105720D01*
X127302215Y-101113211D01*
X127288843Y-101143698D01*
X127231865Y-101368699D01*
X127212699Y-101600000D01*
X127231865Y-101831299D01*
X127231865Y-101831301D01*
X127231866Y-101831305D01*
X127279196Y-102018204D01*
X127288844Y-102056303D01*
X127347432Y-102189870D01*
X127382076Y-102268849D01*
X127509021Y-102463153D01*
X127666216Y-102633913D01*
X127849374Y-102776470D01*
X128053497Y-102886936D01*
X128097051Y-102901888D01*
X128273015Y-102962297D01*
X128273017Y-102962297D01*
X128273019Y-102962298D01*
X128501951Y-103000500D01*
X128501952Y-103000500D01*
X128734048Y-103000500D01*
X128734049Y-103000500D01*
X128962981Y-102962298D01*
X129182503Y-102886936D01*
X129386626Y-102776470D01*
X129569784Y-102633913D01*
X129726979Y-102463153D01*
X129853924Y-102268849D01*
X129947157Y-102056300D01*
X130004134Y-101831305D01*
X130023300Y-101600000D01*
X130022224Y-101587020D01*
X130012253Y-101466684D01*
X130004134Y-101368695D01*
X129947157Y-101143700D01*
X129916920Y-101074768D01*
X129911628Y-101060325D01*
X129903483Y-101032942D01*
X129376754Y-99890184D01*
X129366207Y-99852681D01*
X129364893Y-99841435D01*
X129364537Y-99837951D01*
X129357999Y-99763203D01*
X129357998Y-99763201D01*
X129357889Y-99761949D01*
X129353672Y-99742930D01*
X129327592Y-99671274D01*
X129326408Y-99667868D01*
X129314425Y-99631706D01*
X129302814Y-99596666D01*
X129302812Y-99596663D01*
X129302415Y-99595464D01*
X129293929Y-99577936D01*
X129293237Y-99576884D01*
X129293237Y-99576883D01*
X129252001Y-99514188D01*
X129250086Y-99511181D01*
X129249876Y-99510841D01*
X129210712Y-99447345D01*
X129210711Y-99447344D01*
X129210048Y-99446269D01*
X129197748Y-99431170D01*
X129142273Y-99378832D01*
X129139686Y-99376319D01*
X128165728Y-98402360D01*
X128153946Y-98388727D01*
X128139609Y-98369469D01*
X128101666Y-98337631D01*
X128093691Y-98330323D01*
X128092329Y-98328961D01*
X128089777Y-98326409D01*
X128065444Y-98307169D01*
X128062647Y-98304890D01*
X128004251Y-98255890D01*
X127987821Y-98245422D01*
X127918691Y-98213186D01*
X127915447Y-98211615D01*
X127847306Y-98177394D01*
X127828903Y-98170997D01*
X127754211Y-98155574D01*
X127750692Y-98154794D01*
X127676490Y-98137208D01*
X127657121Y-98135229D01*
X127580869Y-98137448D01*
X127577263Y-98137500D01*
X126491320Y-98137500D01*
X126424281Y-98117815D01*
X126378526Y-98065011D01*
X126368030Y-98026754D01*
X126367091Y-98018017D01*
X126316796Y-97883169D01*
X126230546Y-97767954D01*
X126164170Y-97718265D01*
X126122300Y-97662332D01*
X126117316Y-97592641D01*
X126150801Y-97531317D01*
X126212124Y-97497833D01*
X126238482Y-97494999D01*
X126430497Y-97494999D01*
X126436779Y-97494678D01*
X126534650Y-97484681D01*
X126698301Y-97430453D01*
X126845040Y-97339943D01*
X126966943Y-97218040D01*
X127057453Y-97071301D01*
X127111681Y-96907651D01*
X127121680Y-96809777D01*
X127122000Y-96803499D01*
X127122000Y-96770000D01*
X125958500Y-96770000D01*
X125891461Y-96750315D01*
X125845706Y-96697511D01*
X125834500Y-96646000D01*
X125834500Y-95545000D01*
X126334500Y-95545000D01*
X126334500Y-96270000D01*
X127121999Y-96270000D01*
X127121999Y-96236502D01*
X127121678Y-96230220D01*
X127111681Y-96132349D01*
X127057453Y-95968698D01*
X126966943Y-95821959D01*
X126845040Y-95700056D01*
X126698301Y-95609546D01*
X126534651Y-95555318D01*
X126436777Y-95545319D01*
X126430500Y-95545000D01*
X126334500Y-95545000D01*
X125834500Y-95545000D01*
X125834500Y-95544999D01*
X125738504Y-95545000D01*
X125732219Y-95545321D01*
X125634347Y-95555318D01*
X125523003Y-95592214D01*
X125453175Y-95594615D01*
X125393133Y-95558883D01*
X125361941Y-95496363D01*
X125360000Y-95474508D01*
X125360000Y-95308282D01*
X125379685Y-95241243D01*
X125396319Y-95220601D01*
X125875601Y-94741319D01*
X125936924Y-94707834D01*
X125963282Y-94705000D01*
X139869772Y-94705000D01*
X139936811Y-94724685D01*
X139982566Y-94777489D01*
X139993414Y-94838414D01*
X139991163Y-94867977D01*
X139995006Y-94898151D01*
X139996000Y-94913817D01*
X139996000Y-96030230D01*
X139989706Y-96069234D01*
X139968825Y-96132246D01*
X139958819Y-96230190D01*
X139958817Y-96230210D01*
X139958500Y-96233323D01*
X139958500Y-96236470D01*
X139958500Y-96236471D01*
X139958500Y-96803526D01*
X139958500Y-96803545D01*
X139958501Y-96806676D01*
X139958820Y-96809808D01*
X139958821Y-96809809D01*
X139968825Y-96907752D01*
X140023091Y-97071515D01*
X140113661Y-97218352D01*
X140148035Y-97252725D01*
X140169331Y-97281243D01*
X140256518Y-97441836D01*
X140271204Y-97510145D01*
X140246629Y-97575550D01*
X140190595Y-97617286D01*
X140147542Y-97625000D01*
X139432439Y-97625000D01*
X139432420Y-97625000D01*
X139429128Y-97625001D01*
X139425848Y-97625353D01*
X139425840Y-97625354D01*
X139369515Y-97631409D01*
X139235333Y-97681456D01*
X139165641Y-97686440D01*
X139148667Y-97681456D01*
X139014485Y-97631409D01*
X138958166Y-97625354D01*
X138958165Y-97625353D01*
X138954873Y-97625000D01*
X138951550Y-97625000D01*
X138162439Y-97625000D01*
X138162420Y-97625000D01*
X138159128Y-97625001D01*
X138155848Y-97625353D01*
X138155840Y-97625354D01*
X138099515Y-97631409D01*
X137964669Y-97681704D01*
X137849454Y-97767954D01*
X137763204Y-97883168D01*
X137712910Y-98018015D01*
X137712909Y-98018017D01*
X137706500Y-98077627D01*
X137706500Y-98080948D01*
X137706500Y-98080949D01*
X137706500Y-99695060D01*
X137706500Y-99695078D01*
X137706501Y-99698372D01*
X137706853Y-99701652D01*
X137706854Y-99701659D01*
X137712909Y-99757984D01*
X137737914Y-99825025D01*
X137763204Y-99892831D01*
X137849454Y-100008046D01*
X137964669Y-100094296D01*
X138099517Y-100144591D01*
X138159127Y-100151000D01*
X138952500Y-100150999D01*
X139019539Y-100170683D01*
X139065294Y-100223487D01*
X139076500Y-100274999D01*
X139076500Y-100725500D01*
X139056815Y-100792539D01*
X139004011Y-100838294D01*
X138952500Y-100849500D01*
X137348602Y-100849500D01*
X137302600Y-100840651D01*
X137271360Y-100828171D01*
X135957663Y-100303362D01*
X135918381Y-100289910D01*
X135908389Y-100286488D01*
X135887813Y-100281586D01*
X135759979Y-100237701D01*
X135576901Y-100207151D01*
X135531049Y-100199500D01*
X135298951Y-100199500D01*
X135253164Y-100207140D01*
X135070015Y-100237702D01*
X134850501Y-100313062D01*
X134850497Y-100313063D01*
X134850497Y-100313064D01*
X134788014Y-100346878D01*
X134646372Y-100423531D01*
X134463215Y-100566087D01*
X134306020Y-100736848D01*
X134179076Y-100931150D01*
X134085844Y-101143696D01*
X134085842Y-101143700D01*
X134085843Y-101143700D01*
X134033059Y-101352140D01*
X134028865Y-101368700D01*
X134009699Y-101599999D01*
X134028865Y-101831299D01*
X134028865Y-101831301D01*
X134028866Y-101831305D01*
X134076196Y-102018204D01*
X134085844Y-102056303D01*
X134144432Y-102189870D01*
X134179076Y-102268849D01*
X134306021Y-102463153D01*
X134463216Y-102633913D01*
X134646374Y-102776470D01*
X134850497Y-102886936D01*
X134894051Y-102901888D01*
X135070015Y-102962297D01*
X135070017Y-102962297D01*
X135070019Y-102962298D01*
X135298951Y-103000500D01*
X135298952Y-103000500D01*
X135531048Y-103000500D01*
X135531049Y-103000500D01*
X135759981Y-102962298D01*
X135930483Y-102903763D01*
X135941576Y-102900526D01*
X135957664Y-102896637D01*
X137302599Y-102359348D01*
X137348601Y-102350500D01*
X139255294Y-102350500D01*
X139273264Y-102351809D01*
X139275948Y-102352202D01*
X139297023Y-102355289D01*
X139346368Y-102350972D01*
X139357176Y-102350500D01*
X139359100Y-102350500D01*
X139362709Y-102350500D01*
X139393550Y-102346894D01*
X139397031Y-102346539D01*
X139471797Y-102339999D01*
X139471797Y-102339998D01*
X139473052Y-102339889D01*
X139492062Y-102335674D01*
X139493250Y-102335241D01*
X139493255Y-102335241D01*
X139563820Y-102309557D01*
X139567095Y-102308419D01*
X139638334Y-102284814D01*
X139638336Y-102284812D01*
X139639536Y-102284415D01*
X139657063Y-102275929D01*
X139658112Y-102275238D01*
X139658117Y-102275237D01*
X139720806Y-102234005D01*
X139723798Y-102232099D01*
X139787656Y-102192712D01*
X139787656Y-102192711D01*
X139788729Y-102192050D01*
X139803824Y-102179753D01*
X139804692Y-102178832D01*
X139804696Y-102178830D01*
X139856186Y-102124252D01*
X139858632Y-102121734D01*
X140312641Y-101667724D01*
X140326260Y-101655954D01*
X140345530Y-101641610D01*
X140377372Y-101603661D01*
X140384686Y-101595681D01*
X140385267Y-101595099D01*
X140388590Y-101591777D01*
X140407832Y-101567438D01*
X140410054Y-101564711D01*
X140458302Y-101507214D01*
X140458302Y-101507212D01*
X140459117Y-101506242D01*
X140469566Y-101489840D01*
X140470105Y-101488682D01*
X140470110Y-101488677D01*
X140501832Y-101420647D01*
X140503348Y-101417516D01*
X140537040Y-101350433D01*
X140537040Y-101350429D01*
X140537610Y-101349296D01*
X140543999Y-101330917D01*
X140545531Y-101323498D01*
X140559431Y-101256171D01*
X140560186Y-101252767D01*
X140577500Y-101179721D01*
X140577500Y-101179717D01*
X140577790Y-101178494D01*
X140579769Y-101159123D01*
X140579732Y-101157859D01*
X140579733Y-101157856D01*
X140577552Y-101082888D01*
X140577500Y-101079283D01*
X140577500Y-100274999D01*
X140597185Y-100207960D01*
X140649989Y-100162205D01*
X140701495Y-100150999D01*
X141494872Y-100150999D01*
X141554483Y-100144591D01*
X141688669Y-100094542D01*
X141758357Y-100089559D01*
X141775324Y-100094540D01*
X141909517Y-100144591D01*
X141969127Y-100151000D01*
X142764872Y-100150999D01*
X142824483Y-100144591D01*
X142959331Y-100094296D01*
X143074546Y-100008046D01*
X143160796Y-99892831D01*
X143211091Y-99757983D01*
X143212030Y-99749246D01*
X143238767Y-99684695D01*
X143296159Y-99644846D01*
X143335320Y-99638500D01*
X144372770Y-99638500D01*
X144439809Y-99658185D01*
X144460451Y-99674819D01*
X144552868Y-99767236D01*
X144586353Y-99828559D01*
X144581369Y-99898251D01*
X144580338Y-99900919D01*
X144121822Y-101048676D01*
X144118362Y-101057336D01*
X144117855Y-101058813D01*
X144117854Y-101058819D01*
X144100946Y-101108192D01*
X144097191Y-101117825D01*
X144085843Y-101143695D01*
X144028865Y-101368699D01*
X144009699Y-101600000D01*
X144028865Y-101831299D01*
X144028865Y-101831301D01*
X144028866Y-101831305D01*
X144076196Y-102018204D01*
X144085844Y-102056303D01*
X144144432Y-102189870D01*
X144179076Y-102268849D01*
X144306021Y-102463153D01*
X144463216Y-102633913D01*
X144646374Y-102776470D01*
X144850497Y-102886936D01*
X144894051Y-102901888D01*
X145070015Y-102962297D01*
X145070017Y-102962297D01*
X145070019Y-102962298D01*
X145298951Y-103000500D01*
X145298952Y-103000500D01*
X145531048Y-103000500D01*
X145531049Y-103000500D01*
X145759981Y-102962298D01*
X145979503Y-102886936D01*
X146183626Y-102776470D01*
X146366784Y-102633913D01*
X146523979Y-102463153D01*
X146650924Y-102268849D01*
X146744157Y-102056300D01*
X146801134Y-101831305D01*
X146820300Y-101600000D01*
X146819224Y-101587020D01*
X146809253Y-101466684D01*
X146801134Y-101368695D01*
X146744157Y-101143700D01*
X146722622Y-101094608D01*
X146715653Y-101073945D01*
X146712467Y-101060770D01*
X146711637Y-101057335D01*
X146711636Y-101057334D01*
X146711636Y-101057331D01*
X146174349Y-99712400D01*
X146165500Y-99666398D01*
X146165500Y-99631706D01*
X146166809Y-99613733D01*
X146167014Y-99612337D01*
X146170289Y-99589977D01*
X146170155Y-99588451D01*
X146166719Y-99549185D01*
X146165970Y-99540626D01*
X146165499Y-99529806D01*
X146165500Y-99524291D01*
X146161894Y-99493443D01*
X146161537Y-99489956D01*
X146156319Y-99430304D01*
X146154888Y-99413943D01*
X146150674Y-99394936D01*
X146149188Y-99390853D01*
X146124569Y-99323211D01*
X146123422Y-99319913D01*
X146099814Y-99248665D01*
X146099812Y-99248662D01*
X146099415Y-99247463D01*
X146090929Y-99229936D01*
X146090237Y-99228884D01*
X146090237Y-99228883D01*
X146049025Y-99166224D01*
X146047106Y-99163212D01*
X146007048Y-99098267D01*
X145994750Y-99083172D01*
X145939290Y-99030848D01*
X145936703Y-99028335D01*
X145310728Y-98402360D01*
X145298946Y-98388727D01*
X145284609Y-98369469D01*
X145246666Y-98337631D01*
X145238691Y-98330323D01*
X145237329Y-98328961D01*
X145234777Y-98326409D01*
X145210444Y-98307169D01*
X145207647Y-98304890D01*
X145149251Y-98255890D01*
X145132821Y-98245422D01*
X145063691Y-98213186D01*
X145060447Y-98211615D01*
X144992306Y-98177394D01*
X144973903Y-98170997D01*
X144899211Y-98155574D01*
X144895692Y-98154794D01*
X144821490Y-98137208D01*
X144802121Y-98135229D01*
X144725869Y-98137448D01*
X144722263Y-98137500D01*
X143335320Y-98137500D01*
X143268281Y-98117815D01*
X143222526Y-98065011D01*
X143212030Y-98026754D01*
X143211091Y-98018017D01*
X143160796Y-97883169D01*
X143074546Y-97767954D01*
X143007415Y-97717699D01*
X142965545Y-97661767D01*
X142960561Y-97592076D01*
X142994046Y-97530753D01*
X143055369Y-97497268D01*
X143074766Y-97494684D01*
X143070646Y-97494999D01*
X143171650Y-97484681D01*
X143335301Y-97430453D01*
X143482040Y-97339943D01*
X143603943Y-97218040D01*
X143694453Y-97071301D01*
X143748681Y-96907651D01*
X143758680Y-96809777D01*
X143759000Y-96803499D01*
X143759000Y-96770000D01*
X142595500Y-96770000D01*
X142528461Y-96750315D01*
X142482706Y-96697511D01*
X142471500Y-96646000D01*
X142471500Y-95545000D01*
X142971500Y-95545000D01*
X142971500Y-96270000D01*
X143758999Y-96270000D01*
X143758999Y-96236502D01*
X143758678Y-96230220D01*
X143748681Y-96132349D01*
X143694453Y-95968698D01*
X143603943Y-95821959D01*
X143482040Y-95700056D01*
X143335301Y-95609546D01*
X143171651Y-95555318D01*
X143073777Y-95545319D01*
X143067500Y-95545000D01*
X142971500Y-95545000D01*
X142471500Y-95545000D01*
X142471500Y-95544999D01*
X142375504Y-95545000D01*
X142369219Y-95545321D01*
X142271347Y-95555318D01*
X142160003Y-95592214D01*
X142090175Y-95594615D01*
X142030133Y-95558883D01*
X141998941Y-95496363D01*
X141997000Y-95474508D01*
X141997000Y-95308282D01*
X142016685Y-95241243D01*
X142033319Y-95220601D01*
X142512601Y-94741319D01*
X142573924Y-94707834D01*
X142600282Y-94705000D01*
X156760772Y-94705000D01*
X156827811Y-94724685D01*
X156873566Y-94777489D01*
X156884414Y-94838414D01*
X156882163Y-94867977D01*
X156886006Y-94898151D01*
X156887000Y-94913817D01*
X156887000Y-96030230D01*
X156880706Y-96069234D01*
X156859825Y-96132246D01*
X156849819Y-96230190D01*
X156849817Y-96230210D01*
X156849500Y-96233323D01*
X156849500Y-96236470D01*
X156849500Y-96236471D01*
X156849500Y-96803526D01*
X156849500Y-96803545D01*
X156849501Y-96806676D01*
X156849820Y-96809808D01*
X156849821Y-96809809D01*
X156859825Y-96907752D01*
X156914092Y-97071517D01*
X156938484Y-97111063D01*
X156949378Y-97133506D01*
X157068378Y-97458347D01*
X157072955Y-97528066D01*
X157039112Y-97589193D01*
X156977594Y-97622318D01*
X156951945Y-97625000D01*
X156196439Y-97625000D01*
X156196420Y-97625000D01*
X156193128Y-97625001D01*
X156189848Y-97625353D01*
X156189840Y-97625354D01*
X156133515Y-97631409D01*
X155999332Y-97681456D01*
X155929640Y-97686440D01*
X155912666Y-97681456D01*
X155778485Y-97631409D01*
X155722166Y-97625354D01*
X155722165Y-97625353D01*
X155718873Y-97625000D01*
X155715550Y-97625000D01*
X154926439Y-97625000D01*
X154926420Y-97625000D01*
X154923128Y-97625001D01*
X154919848Y-97625353D01*
X154919840Y-97625354D01*
X154863515Y-97631409D01*
X154728669Y-97681704D01*
X154613454Y-97767954D01*
X154527204Y-97883168D01*
X154476910Y-98018015D01*
X154476909Y-98018017D01*
X154470500Y-98077627D01*
X154470500Y-98080948D01*
X154470500Y-98080949D01*
X154470500Y-99695060D01*
X154470500Y-99695078D01*
X154470501Y-99698372D01*
X154470853Y-99701652D01*
X154470854Y-99701659D01*
X154476909Y-99757984D01*
X154501914Y-99825025D01*
X154527204Y-99892831D01*
X154613454Y-100008046D01*
X154728669Y-100094296D01*
X154863517Y-100144591D01*
X154923127Y-100151000D01*
X155716500Y-100150999D01*
X155783539Y-100170683D01*
X155829294Y-100223487D01*
X155840500Y-100274999D01*
X155840500Y-100725500D01*
X155820815Y-100792539D01*
X155768011Y-100838294D01*
X155716500Y-100849500D01*
X154159602Y-100849500D01*
X154113600Y-100840651D01*
X154082360Y-100828171D01*
X152768663Y-100303362D01*
X152729381Y-100289910D01*
X152719389Y-100286488D01*
X152698813Y-100281586D01*
X152570979Y-100237701D01*
X152387901Y-100207151D01*
X152342049Y-100199500D01*
X152109951Y-100199500D01*
X152064164Y-100207140D01*
X151881015Y-100237702D01*
X151661501Y-100313062D01*
X151661497Y-100313063D01*
X151661497Y-100313064D01*
X151599014Y-100346878D01*
X151457372Y-100423531D01*
X151274215Y-100566087D01*
X151117020Y-100736848D01*
X150990076Y-100931150D01*
X150896844Y-101143696D01*
X150896842Y-101143700D01*
X150896843Y-101143700D01*
X150844059Y-101352140D01*
X150839865Y-101368700D01*
X150820699Y-101599999D01*
X150839865Y-101831299D01*
X150839865Y-101831301D01*
X150839866Y-101831305D01*
X150887196Y-102018204D01*
X150896844Y-102056303D01*
X150955432Y-102189870D01*
X150990076Y-102268849D01*
X151117021Y-102463153D01*
X151274216Y-102633913D01*
X151457374Y-102776470D01*
X151661497Y-102886936D01*
X151705051Y-102901888D01*
X151881015Y-102962297D01*
X151881017Y-102962297D01*
X151881019Y-102962298D01*
X152109951Y-103000500D01*
X152109952Y-103000500D01*
X152342048Y-103000500D01*
X152342049Y-103000500D01*
X152570981Y-102962298D01*
X152741483Y-102903763D01*
X152752576Y-102900526D01*
X152768664Y-102896637D01*
X154113599Y-102359348D01*
X154159601Y-102350500D01*
X156146294Y-102350500D01*
X156164264Y-102351809D01*
X156166948Y-102352202D01*
X156188023Y-102355289D01*
X156237368Y-102350972D01*
X156248176Y-102350500D01*
X156250100Y-102350500D01*
X156253709Y-102350500D01*
X156284550Y-102346894D01*
X156288031Y-102346539D01*
X156362797Y-102339999D01*
X156362797Y-102339998D01*
X156364052Y-102339889D01*
X156383062Y-102335674D01*
X156384250Y-102335241D01*
X156384255Y-102335241D01*
X156454820Y-102309557D01*
X156458095Y-102308419D01*
X156529334Y-102284814D01*
X156529336Y-102284812D01*
X156530536Y-102284415D01*
X156548063Y-102275929D01*
X156549112Y-102275238D01*
X156549117Y-102275237D01*
X156611806Y-102234005D01*
X156614798Y-102232099D01*
X156678656Y-102192712D01*
X156678656Y-102192711D01*
X156679729Y-102192050D01*
X156694824Y-102179753D01*
X156695692Y-102178832D01*
X156695696Y-102178830D01*
X156747187Y-102124251D01*
X156749633Y-102121733D01*
X157076641Y-101794724D01*
X157090260Y-101782954D01*
X157109530Y-101768610D01*
X157141370Y-101730662D01*
X157148686Y-101722681D01*
X157149266Y-101722099D01*
X157152590Y-101718777D01*
X157171837Y-101694433D01*
X157174031Y-101691738D01*
X157222302Y-101634214D01*
X157222303Y-101634210D01*
X157223119Y-101633239D01*
X157233575Y-101616825D01*
X157234109Y-101615679D01*
X157234111Y-101615677D01*
X157265816Y-101547682D01*
X157267369Y-101544475D01*
X157301040Y-101477433D01*
X157301040Y-101477429D01*
X157301610Y-101476296D01*
X157307999Y-101457917D01*
X157308256Y-101456673D01*
X157323431Y-101383171D01*
X157324186Y-101379767D01*
X157341500Y-101306721D01*
X157341500Y-101306717D01*
X157341790Y-101305494D01*
X157343769Y-101286123D01*
X157343732Y-101284859D01*
X157343733Y-101284856D01*
X157341552Y-101209888D01*
X157341500Y-101206283D01*
X157341500Y-100274999D01*
X157361185Y-100207960D01*
X157413989Y-100162205D01*
X157465495Y-100150999D01*
X158258872Y-100150999D01*
X158318483Y-100144591D01*
X158452669Y-100094542D01*
X158522357Y-100089559D01*
X158539324Y-100094540D01*
X158673517Y-100144591D01*
X158733127Y-100151000D01*
X159528872Y-100150999D01*
X159588483Y-100144591D01*
X159723331Y-100094296D01*
X159838546Y-100008046D01*
X159924796Y-99892831D01*
X159975091Y-99757983D01*
X159976030Y-99749246D01*
X160002767Y-99684695D01*
X160060159Y-99644846D01*
X160099320Y-99638500D01*
X161263769Y-99638500D01*
X161330808Y-99658185D01*
X161351450Y-99674819D01*
X161386704Y-99710073D01*
X161420189Y-99771396D01*
X161415205Y-99841088D01*
X161414174Y-99843756D01*
X160929947Y-101055871D01*
X160929362Y-101057336D01*
X160928855Y-101058813D01*
X160928854Y-101058819D01*
X160911946Y-101108192D01*
X160908191Y-101117825D01*
X160896843Y-101143695D01*
X160839865Y-101368699D01*
X160820699Y-101599999D01*
X160839865Y-101831299D01*
X160839865Y-101831301D01*
X160839866Y-101831305D01*
X160887196Y-102018204D01*
X160896844Y-102056303D01*
X160955432Y-102189870D01*
X160990076Y-102268849D01*
X161117021Y-102463153D01*
X161274216Y-102633913D01*
X161457374Y-102776470D01*
X161661497Y-102886936D01*
X161705051Y-102901888D01*
X161881015Y-102962297D01*
X161881017Y-102962297D01*
X161881019Y-102962298D01*
X162109951Y-103000500D01*
X162109952Y-103000500D01*
X162342048Y-103000500D01*
X162342049Y-103000500D01*
X162570981Y-102962298D01*
X162790503Y-102886936D01*
X162994626Y-102776470D01*
X163177784Y-102633913D01*
X163334979Y-102463153D01*
X163461924Y-102268849D01*
X163555157Y-102056300D01*
X163612134Y-101831305D01*
X163631300Y-101600000D01*
X163630224Y-101587020D01*
X163620253Y-101466684D01*
X163612134Y-101368695D01*
X163555157Y-101143700D01*
X163533622Y-101094608D01*
X163526653Y-101073945D01*
X163523467Y-101060770D01*
X163522637Y-101057335D01*
X163522636Y-101057334D01*
X163522636Y-101057331D01*
X162985349Y-99712400D01*
X162976500Y-99666398D01*
X162976500Y-99551705D01*
X162977809Y-99533735D01*
X162978384Y-99529806D01*
X162981289Y-99509977D01*
X162976971Y-99460633D01*
X162976500Y-99449827D01*
X162976500Y-99447901D01*
X162976500Y-99444291D01*
X162972894Y-99413443D01*
X162972537Y-99409956D01*
X162965998Y-99335203D01*
X162965888Y-99333943D01*
X162961674Y-99314935D01*
X162957756Y-99304171D01*
X162935567Y-99243207D01*
X162934399Y-99239844D01*
X162910814Y-99168666D01*
X162910811Y-99168662D01*
X162910416Y-99167468D01*
X162901929Y-99149936D01*
X162901237Y-99148884D01*
X162901237Y-99148883D01*
X162859999Y-99086184D01*
X162858087Y-99083181D01*
X162858081Y-99083172D01*
X162818712Y-99019344D01*
X162818050Y-99018270D01*
X162805750Y-99003172D01*
X162750290Y-98950848D01*
X162747703Y-98948335D01*
X162201728Y-98402360D01*
X162189946Y-98388727D01*
X162175609Y-98369469D01*
X162137666Y-98337631D01*
X162129691Y-98330323D01*
X162128329Y-98328961D01*
X162125777Y-98326409D01*
X162101444Y-98307169D01*
X162098647Y-98304890D01*
X162040251Y-98255890D01*
X162023821Y-98245422D01*
X161954691Y-98213186D01*
X161951447Y-98211615D01*
X161883306Y-98177394D01*
X161864903Y-98170997D01*
X161790211Y-98155574D01*
X161786692Y-98154794D01*
X161712490Y-98137208D01*
X161693121Y-98135229D01*
X161616869Y-98137448D01*
X161613263Y-98137500D01*
X160099320Y-98137500D01*
X160032281Y-98117815D01*
X159986526Y-98065011D01*
X159976030Y-98026754D01*
X159975091Y-98018017D01*
X159924796Y-97883169D01*
X159838546Y-97767954D01*
X159772170Y-97718265D01*
X159730300Y-97662332D01*
X159725316Y-97592641D01*
X159758801Y-97531317D01*
X159820124Y-97497833D01*
X159846482Y-97494999D01*
X159958497Y-97494999D01*
X159964779Y-97494678D01*
X160062650Y-97484681D01*
X160226301Y-97430453D01*
X160373040Y-97339943D01*
X160494943Y-97218040D01*
X160585453Y-97071301D01*
X160639681Y-96907651D01*
X160649680Y-96809777D01*
X160650000Y-96803499D01*
X160650000Y-96770000D01*
X159486500Y-96770000D01*
X159419461Y-96750315D01*
X159373706Y-96697511D01*
X159362500Y-96646000D01*
X159362500Y-95545000D01*
X159862500Y-95545000D01*
X159862500Y-96270000D01*
X160649999Y-96270000D01*
X160649999Y-96236502D01*
X160649678Y-96230220D01*
X160639681Y-96132349D01*
X160605601Y-96029500D01*
X165145001Y-96029500D01*
X165145001Y-96163829D01*
X165145321Y-96170111D01*
X165155493Y-96269695D01*
X165210642Y-96436122D01*
X165302683Y-96585345D01*
X165426654Y-96709316D01*
X165575877Y-96801357D01*
X165742303Y-96856506D01*
X165841890Y-96866680D01*
X165848168Y-96866999D01*
X166119999Y-96866999D01*
X166120000Y-96866998D01*
X166120000Y-96029500D01*
X166620000Y-96029500D01*
X166620000Y-96866999D01*
X166891829Y-96866999D01*
X166898111Y-96866678D01*
X166997695Y-96856506D01*
X167164122Y-96801357D01*
X167313345Y-96709316D01*
X167437316Y-96585345D01*
X167529357Y-96436122D01*
X167584506Y-96269696D01*
X167594680Y-96170109D01*
X167595000Y-96163831D01*
X167595000Y-96029500D01*
X166620000Y-96029500D01*
X166120000Y-96029500D01*
X165145001Y-96029500D01*
X160605601Y-96029500D01*
X160585453Y-95968698D01*
X160494943Y-95821959D01*
X160373040Y-95700056D01*
X160226301Y-95609546D01*
X160062651Y-95555318D01*
X159964777Y-95545319D01*
X159958500Y-95545000D01*
X159862500Y-95545000D01*
X159362500Y-95545000D01*
X159362500Y-95544999D01*
X159266504Y-95545000D01*
X159260219Y-95545321D01*
X159162347Y-95555318D01*
X159051003Y-95592214D01*
X158981175Y-95594615D01*
X158921133Y-95558883D01*
X158889941Y-95496363D01*
X158888000Y-95474508D01*
X158888000Y-95308282D01*
X158907685Y-95241243D01*
X158924319Y-95220601D01*
X159403601Y-94741319D01*
X159464924Y-94707834D01*
X159491282Y-94705000D01*
X164986748Y-94705000D01*
X165006632Y-94707467D01*
X165006636Y-94707436D01*
X165015454Y-94708357D01*
X165015457Y-94708358D01*
X165256947Y-94733588D01*
X165321575Y-94760131D01*
X165361595Y-94817404D01*
X165364299Y-94887221D01*
X165331741Y-94944596D01*
X165302683Y-94973653D01*
X165210642Y-95122877D01*
X165155493Y-95289303D01*
X165145319Y-95388890D01*
X165145000Y-95395168D01*
X165145000Y-95529500D01*
X167594999Y-95529500D01*
X167594999Y-95395170D01*
X167594678Y-95388888D01*
X167584506Y-95289304D01*
X167529357Y-95122877D01*
X167437316Y-94973654D01*
X167422383Y-94958721D01*
X167388898Y-94897398D01*
X167393882Y-94827706D01*
X167435754Y-94771773D01*
X167500320Y-94747423D01*
X167689232Y-94732536D01*
X167711433Y-94730787D01*
X167713510Y-94730570D01*
X167742413Y-94727285D01*
X167756341Y-94726500D01*
X173381803Y-94726500D01*
X173448842Y-94746185D01*
X173472525Y-94765969D01*
X173652114Y-94958721D01*
X173930224Y-95257215D01*
X173961522Y-95319683D01*
X173963500Y-95341744D01*
X173963500Y-96876560D01*
X173963500Y-96876578D01*
X173963501Y-96879872D01*
X173963853Y-96883152D01*
X173963854Y-96883159D01*
X173969909Y-96939484D01*
X173989991Y-96993327D01*
X174020204Y-97074331D01*
X174106454Y-97189546D01*
X174221669Y-97275796D01*
X174356517Y-97326091D01*
X174416127Y-97332500D01*
X177811872Y-97332499D01*
X177871483Y-97326091D01*
X178006331Y-97275796D01*
X178121546Y-97189546D01*
X178207796Y-97074331D01*
X178258091Y-96939483D01*
X178264500Y-96879873D01*
X178264499Y-96307374D01*
X178284183Y-96240336D01*
X178336987Y-96194581D01*
X178345242Y-96191165D01*
X178847511Y-96004283D01*
X178890752Y-95996500D01*
X186123327Y-95996500D01*
X186170539Y-96005839D01*
X186910323Y-96310457D01*
X186973260Y-96329448D01*
X186980746Y-96331970D01*
X186999084Y-96338810D01*
X187055015Y-96380678D01*
X187079434Y-96446142D01*
X187064584Y-96514415D01*
X187043432Y-96542672D01*
X186921503Y-96664601D01*
X186785965Y-96858170D01*
X186686097Y-97072336D01*
X186624936Y-97300592D01*
X186604340Y-97536000D01*
X186624936Y-97771407D01*
X186667355Y-97929715D01*
X186686097Y-97999663D01*
X186785965Y-98213830D01*
X186921505Y-98407401D01*
X187088599Y-98574495D01*
X187274160Y-98704426D01*
X187317783Y-98759002D01*
X187324976Y-98828501D01*
X187293454Y-98890855D01*
X187274158Y-98907575D01*
X187125696Y-99011530D01*
X187088595Y-99037508D01*
X186921505Y-99204598D01*
X186785965Y-99398170D01*
X186686097Y-99612336D01*
X186624936Y-99840592D01*
X186604340Y-100075999D01*
X186624936Y-100311407D01*
X186665400Y-100462420D01*
X186686097Y-100539663D01*
X186785965Y-100753830D01*
X186921505Y-100947401D01*
X187088599Y-101114495D01*
X187274160Y-101244426D01*
X187317783Y-101299002D01*
X187324976Y-101368501D01*
X187293454Y-101430855D01*
X187274160Y-101447574D01*
X187131180Y-101547690D01*
X187088595Y-101577508D01*
X186921505Y-101744598D01*
X186785965Y-101938170D01*
X186686097Y-102152336D01*
X186624936Y-102380592D01*
X186604340Y-102616000D01*
X186624936Y-102851407D01*
X186660866Y-102985500D01*
X186686097Y-103079663D01*
X186785965Y-103293830D01*
X186921505Y-103487401D01*
X187088599Y-103654495D01*
X187274160Y-103784426D01*
X187317783Y-103839002D01*
X187324976Y-103908501D01*
X187293454Y-103970855D01*
X187274158Y-103987575D01*
X187129542Y-104088837D01*
X187088595Y-104117508D01*
X186921505Y-104284598D01*
X186785965Y-104478170D01*
X186686097Y-104692336D01*
X186624936Y-104920592D01*
X186604340Y-105156000D01*
X186624936Y-105391407D01*
X186667464Y-105550122D01*
X186686097Y-105619663D01*
X186785965Y-105833830D01*
X186921505Y-106027401D01*
X187088599Y-106194495D01*
X187274596Y-106324732D01*
X187318219Y-106379307D01*
X187325412Y-106448806D01*
X187293890Y-106511160D01*
X187274595Y-106527880D01*
X187088919Y-106657892D01*
X186921890Y-106824921D01*
X186786400Y-107018421D01*
X186686569Y-107232507D01*
X186629364Y-107445999D01*
X186629364Y-107446000D01*
X187526314Y-107446000D01*
X187500507Y-107486156D01*
X187460000Y-107624111D01*
X187460000Y-107767889D01*
X187500507Y-107905844D01*
X187526314Y-107946000D01*
X186629364Y-107946000D01*
X186686569Y-108159492D01*
X186786399Y-108373576D01*
X186921893Y-108567081D01*
X187088918Y-108734106D01*
X187282423Y-108869600D01*
X187496509Y-108969430D01*
X187710000Y-109026634D01*
X187710000Y-108131501D01*
X187817685Y-108180680D01*
X187924237Y-108196000D01*
X187995763Y-108196000D01*
X188102315Y-108180680D01*
X188210000Y-108131501D01*
X188210000Y-109026633D01*
X188423490Y-108969430D01*
X188637576Y-108869600D01*
X188831081Y-108734106D01*
X188998106Y-108567081D01*
X189133600Y-108373576D01*
X189233430Y-108159492D01*
X189290636Y-107946000D01*
X188393686Y-107946000D01*
X188419493Y-107905844D01*
X188460000Y-107767889D01*
X188460000Y-107624111D01*
X188419493Y-107486156D01*
X188393686Y-107446000D01*
X189290636Y-107446000D01*
X189290635Y-107445999D01*
X189233430Y-107232507D01*
X189133599Y-107018421D01*
X188998109Y-106824921D01*
X188831081Y-106657893D01*
X188645404Y-106527880D01*
X188601780Y-106473303D01*
X188594587Y-106403804D01*
X188626109Y-106341450D01*
X188645399Y-106324734D01*
X188831401Y-106194495D01*
X188998495Y-106027401D01*
X189134035Y-105833830D01*
X189233903Y-105619663D01*
X189295063Y-105391408D01*
X189315659Y-105156000D01*
X189313004Y-105125659D01*
X189295063Y-104920592D01*
X189269611Y-104825603D01*
X189233903Y-104692337D01*
X189134035Y-104478171D01*
X188998495Y-104284599D01*
X188831401Y-104117505D01*
X188645839Y-103987573D01*
X188602216Y-103932998D01*
X188595022Y-103863500D01*
X188626545Y-103801145D01*
X188645837Y-103784428D01*
X188831401Y-103654495D01*
X188998495Y-103487401D01*
X189134035Y-103293830D01*
X189233903Y-103079663D01*
X189295063Y-102851408D01*
X189315659Y-102616000D01*
X189295063Y-102380592D01*
X189233903Y-102152337D01*
X189134035Y-101938171D01*
X188998495Y-101744599D01*
X188831401Y-101577505D01*
X188645839Y-101447573D01*
X188602215Y-101392997D01*
X188595023Y-101323498D01*
X188626545Y-101261144D01*
X188645831Y-101244432D01*
X188831401Y-101114495D01*
X188998495Y-100947401D01*
X189134035Y-100753830D01*
X189233903Y-100539663D01*
X189295063Y-100311408D01*
X189315659Y-100076000D01*
X189295063Y-99840592D01*
X189233903Y-99612337D01*
X189134035Y-99398171D01*
X188998495Y-99204599D01*
X188831401Y-99037505D01*
X188645839Y-98907573D01*
X188602216Y-98852998D01*
X188595022Y-98783500D01*
X188626545Y-98721145D01*
X188645837Y-98704428D01*
X188831401Y-98574495D01*
X188998495Y-98407401D01*
X189134035Y-98213830D01*
X189233903Y-97999663D01*
X189295063Y-97771408D01*
X189315659Y-97536000D01*
X189295063Y-97300592D01*
X189233903Y-97072337D01*
X189134035Y-96858171D01*
X188998495Y-96664599D01*
X188876568Y-96542672D01*
X188843084Y-96481350D01*
X188848068Y-96411658D01*
X188889940Y-96355725D01*
X188920915Y-96338810D01*
X189052331Y-96289796D01*
X189167546Y-96203546D01*
X189253796Y-96088331D01*
X189304091Y-95953483D01*
X189310500Y-95893873D01*
X189310499Y-94098128D01*
X189304091Y-94038517D01*
X189253796Y-93903669D01*
X189167546Y-93788454D01*
X189052331Y-93702204D01*
X188917483Y-93651909D01*
X188882809Y-93648181D01*
X188861166Y-93645854D01*
X188861165Y-93645853D01*
X188857873Y-93645500D01*
X188854551Y-93645500D01*
X187135615Y-93645500D01*
X187117715Y-93644201D01*
X187112820Y-93643487D01*
X187112787Y-93643486D01*
X187105514Y-93643471D01*
X187105495Y-93643471D01*
X187103867Y-93643468D01*
X187102218Y-93643552D01*
X187102212Y-93643553D01*
X187067041Y-93645362D01*
X187067033Y-93645363D01*
X187064378Y-93645500D01*
X187062128Y-93645501D01*
X187060059Y-93645723D01*
X187057550Y-93645852D01*
X187047201Y-93646385D01*
X187037184Y-93648181D01*
X187002518Y-93651908D01*
X186956289Y-93669150D01*
X186943376Y-93673179D01*
X186910325Y-93681542D01*
X186170537Y-93986160D01*
X186123324Y-93995500D01*
X178957543Y-93995500D01*
X178890504Y-93975815D01*
X178890207Y-93975624D01*
X178321163Y-93607629D01*
X178275558Y-93554695D01*
X178264499Y-93503505D01*
X178264499Y-92387439D01*
X178264499Y-92387438D01*
X178264499Y-92384128D01*
X178258091Y-92324517D01*
X178207796Y-92189669D01*
X178121546Y-92074454D01*
X178006331Y-91988204D01*
X177871483Y-91937909D01*
X177811873Y-91931500D01*
X177808550Y-91931500D01*
X174419439Y-91931500D01*
X174419420Y-91931500D01*
X174416128Y-91931501D01*
X174412848Y-91931853D01*
X174412840Y-91931854D01*
X174356515Y-91937909D01*
X174221669Y-91988204D01*
X174106454Y-92074454D01*
X174020204Y-92189668D01*
X173969909Y-92324516D01*
X173964716Y-92372821D01*
X173963500Y-92384127D01*
X173963500Y-92387449D01*
X173963500Y-92502055D01*
X173943815Y-92569094D01*
X173891011Y-92614849D01*
X173878900Y-92619629D01*
X173582147Y-92719074D01*
X173542747Y-92725500D01*
X167760816Y-92725500D01*
X167744632Y-92723312D01*
X167744506Y-92724314D01*
X167023714Y-92633135D01*
X167000278Y-92627823D01*
X166997796Y-92627000D01*
X166898140Y-92616819D01*
X166898123Y-92616818D01*
X166895009Y-92616500D01*
X166891860Y-92616500D01*
X165880029Y-92616500D01*
X165875234Y-92616407D01*
X165836165Y-92614895D01*
X165836164Y-92614895D01*
X165836162Y-92614895D01*
X165015454Y-92700639D01*
X165015455Y-92700640D01*
X165013755Y-92700853D01*
X164998201Y-92702926D01*
X164981914Y-92704000D01*
X159039762Y-92704000D01*
X159036621Y-92703960D01*
X159035428Y-92703929D01*
X158949140Y-92701742D01*
X158948083Y-92701931D01*
X158947394Y-92702055D01*
X158925519Y-92704000D01*
X142148762Y-92704000D01*
X142145621Y-92703960D01*
X142144428Y-92703929D01*
X142058140Y-92701742D01*
X142057083Y-92701931D01*
X142056394Y-92702055D01*
X142034519Y-92704000D01*
X125511762Y-92704000D01*
X125508621Y-92703960D01*
X125507339Y-92703927D01*
X125421137Y-92701742D01*
X125363080Y-92712148D01*
X125353751Y-92713457D01*
X125295062Y-92719426D01*
X125266027Y-92728535D01*
X125250790Y-92732274D01*
X125220850Y-92737641D01*
X125166067Y-92759522D01*
X125157198Y-92762679D01*
X125100910Y-92780341D01*
X125074309Y-92795105D01*
X125060139Y-92801835D01*
X125031885Y-92813122D01*
X124982621Y-92845587D01*
X124974570Y-92850464D01*
X124922998Y-92879090D01*
X124899914Y-92898907D01*
X124887387Y-92908353D01*
X124861981Y-92925098D01*
X124820275Y-92966803D01*
X124813368Y-92973204D01*
X124768603Y-93011635D01*
X124749980Y-93035693D01*
X124739608Y-93047469D01*
X123662145Y-94124933D01*
X123659898Y-94127124D01*
X123596448Y-94187440D01*
X123562744Y-94235862D01*
X123557073Y-94243382D01*
X123519801Y-94289093D01*
X123505710Y-94316066D01*
X123497582Y-94329483D01*
X123480205Y-94354450D01*
X123456939Y-94408665D01*
X123452899Y-94417171D01*
X123425590Y-94469452D01*
X123417220Y-94498701D01*
X123411959Y-94513478D01*
X123399960Y-94541442D01*
X123388087Y-94599213D01*
X123385842Y-94608360D01*
X123369613Y-94665080D01*
X123367302Y-94695425D01*
X123365122Y-94710966D01*
X123359000Y-94740758D01*
X123359000Y-94799741D01*
X123358642Y-94809155D01*
X123354163Y-94867977D01*
X123358006Y-94898151D01*
X123359000Y-94913817D01*
X123359000Y-96030230D01*
X123352706Y-96069234D01*
X123331825Y-96132246D01*
X123321819Y-96230190D01*
X123321817Y-96230210D01*
X123321500Y-96233323D01*
X123321500Y-96236470D01*
X123321500Y-96236471D01*
X123321500Y-96803526D01*
X123321500Y-96803545D01*
X123321501Y-96806676D01*
X123321820Y-96809808D01*
X123321821Y-96809809D01*
X123331825Y-96907750D01*
X123351525Y-96967202D01*
X123354365Y-96980209D01*
X123354431Y-96980193D01*
X123480916Y-97469996D01*
X123478619Y-97539828D01*
X123438933Y-97597332D01*
X123374457Y-97624252D01*
X123360855Y-97625000D01*
X122588439Y-97625000D01*
X122588420Y-97625000D01*
X122585128Y-97625001D01*
X122581848Y-97625353D01*
X122581840Y-97625354D01*
X122525515Y-97631409D01*
X122391333Y-97681456D01*
X122321641Y-97686440D01*
X122304667Y-97681456D01*
X122170485Y-97631409D01*
X122114166Y-97625354D01*
X122114165Y-97625353D01*
X122110873Y-97625000D01*
X122107550Y-97625000D01*
X121318439Y-97625000D01*
X121318420Y-97625000D01*
X121315128Y-97625001D01*
X121311848Y-97625353D01*
X121311840Y-97625354D01*
X121255515Y-97631409D01*
X121120669Y-97681704D01*
X121005454Y-97767954D01*
X120919204Y-97883168D01*
X120868910Y-98018015D01*
X120868909Y-98018017D01*
X120862500Y-98077627D01*
X120862500Y-98080948D01*
X120862500Y-98080949D01*
X120862500Y-99695060D01*
X120862500Y-99695078D01*
X120862501Y-99698372D01*
X120862853Y-99701652D01*
X120862854Y-99701659D01*
X120868909Y-99757984D01*
X120893914Y-99825025D01*
X120919204Y-99892831D01*
X121005454Y-100008046D01*
X121120669Y-100094296D01*
X121255517Y-100144591D01*
X121315127Y-100151000D01*
X122008270Y-100150999D01*
X122075309Y-100170683D01*
X122121064Y-100223487D01*
X122131008Y-100292646D01*
X122101983Y-100356202D01*
X122095951Y-100362680D01*
X121645451Y-100813181D01*
X121584128Y-100846666D01*
X121557770Y-100849500D01*
X120551602Y-100849500D01*
X120505600Y-100840651D01*
X120474360Y-100828171D01*
X119160663Y-100303362D01*
X119121381Y-100289910D01*
X119111389Y-100286488D01*
X119090813Y-100281586D01*
X118962979Y-100237701D01*
X118779901Y-100207151D01*
X118734049Y-100199500D01*
X118501951Y-100199500D01*
X118456164Y-100207140D01*
X118273015Y-100237702D01*
X118053501Y-100313062D01*
X118053497Y-100313063D01*
X118053497Y-100313064D01*
X117991014Y-100346878D01*
X117849372Y-100423531D01*
X117666215Y-100566087D01*
X117509020Y-100736848D01*
X117382076Y-100931150D01*
X117288844Y-101143696D01*
X117288842Y-101143700D01*
X117288843Y-101143700D01*
X117236059Y-101352140D01*
X117231865Y-101368700D01*
X117212699Y-101599999D01*
X116195500Y-101599999D01*
X116195500Y-96602739D01*
X116197763Y-96582238D01*
X116196234Y-96533580D01*
X116195561Y-96512143D01*
X116195500Y-96508249D01*
X116195500Y-96484544D01*
X116195500Y-96480650D01*
X116194998Y-96476681D01*
X116194080Y-96465024D01*
X116193172Y-96436122D01*
X116192709Y-96421372D01*
X116187119Y-96402134D01*
X116183174Y-96383082D01*
X116180664Y-96363208D01*
X116175773Y-96350855D01*
X116164578Y-96322581D01*
X116160805Y-96311560D01*
X116148617Y-96269610D01*
X116138421Y-96252369D01*
X116129863Y-96234902D01*
X116122486Y-96216268D01*
X116096798Y-96180912D01*
X116090409Y-96171184D01*
X116068170Y-96133579D01*
X116054006Y-96119415D01*
X116041369Y-96104620D01*
X116029595Y-96088414D01*
X116029495Y-96088331D01*
X115995935Y-96060568D01*
X115987305Y-96052714D01*
X114546802Y-94612211D01*
X114533906Y-94596113D01*
X114482775Y-94548098D01*
X114479978Y-94545387D01*
X114463227Y-94528636D01*
X114460471Y-94525880D01*
X114457290Y-94523412D01*
X114448422Y-94515837D01*
X114416582Y-94485938D01*
X114399024Y-94476285D01*
X114382764Y-94465604D01*
X114366936Y-94453327D01*
X114326851Y-94435980D01*
X114316361Y-94430841D01*
X114278091Y-94409802D01*
X114258691Y-94404821D01*
X114240284Y-94398519D01*
X114221897Y-94390562D01*
X114178758Y-94383729D01*
X114167324Y-94381361D01*
X114125019Y-94370500D01*
X114104984Y-94370500D01*
X114085586Y-94368973D01*
X114078162Y-94367797D01*
X114065805Y-94365840D01*
X114065804Y-94365840D01*
X114032751Y-94368964D01*
X114022325Y-94369950D01*
X114010656Y-94370500D01*
X111619647Y-94370500D01*
X111552608Y-94350815D01*
X111506853Y-94298011D01*
X111495656Y-94246544D01*
X111495726Y-94250427D01*
X111495647Y-94248223D01*
X111495647Y-94246000D01*
X111490500Y-94174039D01*
X111449953Y-94035947D01*
X111372143Y-93914872D01*
X111359214Y-93903669D01*
X111263374Y-93820623D01*
X111187988Y-93786195D01*
X111135184Y-93740440D01*
X111115500Y-93673401D01*
X111115500Y-93554739D01*
X111117763Y-93534238D01*
X111115561Y-93464143D01*
X111115500Y-93460249D01*
X111115500Y-93436544D01*
X111115500Y-93432650D01*
X111114998Y-93428681D01*
X111114080Y-93417024D01*
X111112709Y-93373372D01*
X111107119Y-93354134D01*
X111103174Y-93335082D01*
X111100664Y-93315208D01*
X111100664Y-93315207D01*
X111084578Y-93274581D01*
X111080805Y-93263560D01*
X111068617Y-93221610D01*
X111058421Y-93204369D01*
X111049863Y-93186902D01*
X111042486Y-93168268D01*
X111016798Y-93132912D01*
X111010409Y-93123184D01*
X110988170Y-93085579D01*
X110974006Y-93071415D01*
X110961369Y-93056620D01*
X110949595Y-93040414D01*
X110943888Y-93035693D01*
X110915935Y-93012568D01*
X110907305Y-93004714D01*
X110482802Y-92580211D01*
X110469906Y-92564113D01*
X110418775Y-92516098D01*
X110415978Y-92513387D01*
X110399227Y-92496636D01*
X110396471Y-92493880D01*
X110393290Y-92491412D01*
X110384422Y-92483837D01*
X110352582Y-92453938D01*
X110335024Y-92444285D01*
X110318764Y-92433604D01*
X110302936Y-92421327D01*
X110262851Y-92403980D01*
X110252361Y-92398841D01*
X110214091Y-92377802D01*
X110194691Y-92372821D01*
X110176284Y-92366519D01*
X110157897Y-92358562D01*
X110114758Y-92351729D01*
X110103324Y-92349361D01*
X110061019Y-92338500D01*
X110040984Y-92338500D01*
X110021586Y-92336973D01*
X110014162Y-92335797D01*
X110001805Y-92333840D01*
X110001804Y-92333840D01*
X109976468Y-92336235D01*
X109958325Y-92337950D01*
X109946656Y-92338500D01*
X96602744Y-92338500D01*
X96582237Y-92336235D01*
X96512127Y-92338439D01*
X96508232Y-92338500D01*
X96480650Y-92338500D01*
X96476805Y-92338985D01*
X96476780Y-92338987D01*
X96476653Y-92339004D01*
X96465033Y-92339918D01*
X96421369Y-92341290D01*
X96402129Y-92346880D01*
X96383081Y-92350825D01*
X96363209Y-92353335D01*
X96322599Y-92369413D01*
X96311554Y-92373194D01*
X96269610Y-92385381D01*
X96252365Y-92395579D01*
X96234904Y-92404133D01*
X96216267Y-92411512D01*
X96180931Y-92437185D01*
X96171174Y-92443595D01*
X96133580Y-92465829D01*
X96119413Y-92479996D01*
X96104624Y-92492626D01*
X96088413Y-92504404D01*
X96060572Y-92538058D01*
X96052711Y-92546697D01*
X95569327Y-93030081D01*
X95555443Y-93042049D01*
X95535278Y-93056982D01*
X94555905Y-94026234D01*
X94555878Y-94026262D01*
X94554693Y-94027435D01*
X94553578Y-94028668D01*
X94553564Y-94028683D01*
X94509228Y-94077726D01*
X94501706Y-94087396D01*
X94464505Y-94124597D01*
X94328965Y-94318170D01*
X94229097Y-94532336D01*
X94167936Y-94760592D01*
X94147340Y-94995999D01*
X94167936Y-95231407D01*
X94188535Y-95308282D01*
X94229097Y-95459663D01*
X94328965Y-95673830D01*
X94464505Y-95867401D01*
X94631599Y-96034495D01*
X94817160Y-96164426D01*
X94860783Y-96219002D01*
X94867976Y-96288501D01*
X94836454Y-96350855D01*
X94817160Y-96367574D01*
X94650110Y-96484544D01*
X94631595Y-96497508D01*
X94464505Y-96664598D01*
X94328965Y-96858170D01*
X94229097Y-97072336D01*
X94167936Y-97300592D01*
X94147340Y-97536000D01*
X94167936Y-97771407D01*
X94210355Y-97929715D01*
X94229097Y-97999663D01*
X94328965Y-98213830D01*
X94464505Y-98407401D01*
X94631599Y-98574495D01*
X94817160Y-98704426D01*
X94860783Y-98759002D01*
X94867976Y-98828501D01*
X94836454Y-98890855D01*
X94817157Y-98907576D01*
X94752191Y-98953064D01*
X94743483Y-98958635D01*
X93920332Y-99438124D01*
X93892509Y-99450055D01*
X93862129Y-99458880D01*
X93843084Y-99462824D01*
X93823208Y-99465335D01*
X93782600Y-99481413D01*
X93771554Y-99485194D01*
X93755303Y-99489917D01*
X93729607Y-99497383D01*
X93712365Y-99507579D01*
X93694904Y-99516133D01*
X93676267Y-99523512D01*
X93640931Y-99549185D01*
X93631174Y-99555595D01*
X93593580Y-99577829D01*
X93579413Y-99591996D01*
X93564624Y-99604626D01*
X93548413Y-99616404D01*
X93520572Y-99650058D01*
X93512711Y-99658697D01*
X92834208Y-100337199D01*
X92818110Y-100350096D01*
X92770096Y-100401225D01*
X92767392Y-100404016D01*
X92750628Y-100420780D01*
X92750621Y-100420787D01*
X92747880Y-100423529D01*
X92745499Y-100426597D01*
X92745490Y-100426608D01*
X92745411Y-100426711D01*
X92737842Y-100435572D01*
X92707935Y-100467420D01*
X92698285Y-100484974D01*
X92687609Y-100501228D01*
X92675326Y-100517063D01*
X92657975Y-100557158D01*
X92652838Y-100567644D01*
X92631802Y-100605907D01*
X92626821Y-100625309D01*
X92620520Y-100643711D01*
X92612561Y-100662102D01*
X92605728Y-100705243D01*
X92603361Y-100716675D01*
X92598182Y-100736848D01*
X92593823Y-100753830D01*
X92592500Y-100758982D01*
X92592499Y-100779021D01*
X92590974Y-100798402D01*
X92587840Y-100818196D01*
X91948000Y-100818196D01*
X91948000Y-91564000D01*
X91967685Y-91496961D01*
X92020489Y-91451206D01*
X92072000Y-91440000D01*
X190630000Y-91440000D01*
X190697039Y-91459685D01*
G37*
%TD.AperFunction*%
%TD*%
%TA.AperFunction,Conductor*%
%TO.N,unconnected-(J1-Pin_4-Pad4)*%
G36*
X101279199Y-101841530D02*
G01*
X101279457Y-101842107D01*
X101599134Y-102611510D01*
X101599143Y-102620465D01*
X101599134Y-102620488D01*
X101279457Y-103389892D01*
X101273118Y-103396217D01*
X101264163Y-103396208D01*
X101263586Y-103395950D01*
X99906634Y-102744186D01*
X99900661Y-102737515D01*
X99900000Y-102733639D01*
X99900000Y-102498360D01*
X99903427Y-102490087D01*
X99906631Y-102487814D01*
X101263586Y-101836048D01*
X101272528Y-101835557D01*
X101279199Y-101841530D01*
G37*
%TD.AperFunction*%
%TD*%
%TA.AperFunction,Conductor*%
%TO.N,unconnected-(J1-Pin_4-Pad4)*%
G36*
X98378836Y-101835791D02*
G01*
X98379413Y-101836049D01*
X99736366Y-102487814D01*
X99742339Y-102494484D01*
X99743000Y-102498360D01*
X99743000Y-102733639D01*
X99739573Y-102741912D01*
X99736366Y-102744186D01*
X98379413Y-103395950D01*
X98370471Y-103396442D01*
X98363800Y-103390469D01*
X98363542Y-103389892D01*
X98043865Y-102620489D01*
X98043856Y-102611534D01*
X98043865Y-102611511D01*
X98363542Y-101842107D01*
X98369881Y-101835782D01*
X98378836Y-101835791D01*
G37*
%TD.AperFunction*%
%TD*%
%TA.AperFunction,Conductor*%
%TO.N,VCC*%
G36*
X101273010Y-106915045D02*
G01*
X101279108Y-106921267D01*
X101599134Y-107691510D01*
X101599143Y-107700465D01*
X101599134Y-107700488D01*
X101279108Y-108470732D01*
X101272769Y-108477057D01*
X101264058Y-108477146D01*
X99907455Y-107948902D01*
X99900989Y-107942706D01*
X99900000Y-107937999D01*
X99900000Y-107454000D01*
X99903427Y-107445727D01*
X99907455Y-107443097D01*
X101264058Y-106914853D01*
X101273010Y-106915045D01*
G37*
%TD.AperFunction*%
%TD*%
%TA.AperFunction,Conductor*%
%TO.N,VCC*%
G36*
X99735545Y-107443097D02*
G01*
X99742011Y-107449293D01*
X99743000Y-107454000D01*
X99743000Y-107937999D01*
X99739573Y-107946272D01*
X99735545Y-107948902D01*
X98378941Y-108477146D01*
X98369989Y-108476954D01*
X98363891Y-108470732D01*
X98043865Y-107700489D01*
X98043856Y-107691534D01*
X98043865Y-107691511D01*
X98142548Y-107454000D01*
X98363891Y-106921266D01*
X98370230Y-106914942D01*
X98378941Y-106914853D01*
X99735545Y-107443097D01*
G37*
%TD.AperFunction*%
%TD*%
%TA.AperFunction,Conductor*%
%TO.N,VCC*%
G36*
X97716010Y-106915045D02*
G01*
X97722108Y-106921267D01*
X98042134Y-107691510D01*
X98042143Y-107700465D01*
X98042134Y-107700488D01*
X97722108Y-108470732D01*
X97715769Y-108477057D01*
X97707058Y-108477146D01*
X96350455Y-107948902D01*
X96343989Y-107942706D01*
X96343000Y-107937999D01*
X96343000Y-107454000D01*
X96346427Y-107445727D01*
X96350455Y-107443097D01*
X97707058Y-106914853D01*
X97716010Y-106915045D01*
G37*
%TD.AperFunction*%
%TD*%
%TA.AperFunction,Conductor*%
%TO.N,VCC*%
G36*
X97195545Y-107443097D02*
G01*
X97202011Y-107449293D01*
X97203000Y-107454000D01*
X97203000Y-107937999D01*
X97199573Y-107946272D01*
X97195545Y-107948902D01*
X95838941Y-108477146D01*
X95829989Y-108476954D01*
X95823891Y-108470732D01*
X95503865Y-107700488D01*
X95503856Y-107691533D01*
X95503856Y-107691532D01*
X95823891Y-106921266D01*
X95830230Y-106914942D01*
X95838941Y-106914853D01*
X97195545Y-107443097D01*
G37*
%TD.AperFunction*%
%TD*%
%TA.AperFunction,Conductor*%
%TO.N,Net-(IC1-VS)*%
G36*
X157894789Y-96525431D02*
G01*
X158344849Y-96922540D01*
X158348785Y-96930583D01*
X158347803Y-96936056D01*
X158114085Y-97463043D01*
X158107599Y-97469217D01*
X158103390Y-97470000D01*
X157619174Y-97470000D01*
X157610901Y-97466573D01*
X157608188Y-97462325D01*
X157404662Y-96906750D01*
X157405034Y-96897805D01*
X157408439Y-96893512D01*
X157879843Y-96524985D01*
X157888470Y-96522591D01*
X157894789Y-96525431D01*
G37*
%TD.AperFunction*%
%TD*%
%TA.AperFunction,Conductor*%
%TO.N,Net-(IC1-VS)*%
G36*
X158110448Y-97778927D02*
G01*
X158113425Y-97783986D01*
X158209811Y-98121341D01*
X158209197Y-98129431D01*
X157871636Y-98865798D01*
X157865073Y-98871890D01*
X157856124Y-98871558D01*
X157850364Y-98865798D01*
X157512802Y-98129431D01*
X157512188Y-98121341D01*
X157608575Y-97783986D01*
X157614143Y-97776972D01*
X157619825Y-97775500D01*
X158102175Y-97775500D01*
X158110448Y-97778927D01*
G37*
%TD.AperFunction*%
%TD*%
%TA.AperFunction,Conductor*%
%TO.N,Net-(IC1-VS)*%
G36*
X124502448Y-97778927D02*
G01*
X124505425Y-97783986D01*
X124601811Y-98121341D01*
X124601197Y-98129431D01*
X124263636Y-98865798D01*
X124257073Y-98871890D01*
X124248124Y-98871558D01*
X124242364Y-98865798D01*
X123904802Y-98129431D01*
X123904188Y-98121341D01*
X124000575Y-97783986D01*
X124006143Y-97776972D01*
X124011825Y-97775500D01*
X124494175Y-97775500D01*
X124502448Y-97778927D01*
G37*
%TD.AperFunction*%
%TD*%
%TA.AperFunction,Conductor*%
%TO.N,Net-(IC1-VS)*%
G36*
X124366203Y-96525742D02*
G01*
X124700911Y-96862384D01*
X124782900Y-96944846D01*
X124786303Y-96953129D01*
X124784849Y-96958744D01*
X124506336Y-97463949D01*
X124499341Y-97469539D01*
X124496090Y-97470000D01*
X124012062Y-97470000D01*
X124003789Y-97466573D01*
X124000734Y-97461225D01*
X123867386Y-96944846D01*
X123846091Y-96862382D01*
X123847340Y-96853517D01*
X123851039Y-96849652D01*
X124351530Y-96524182D01*
X124360331Y-96522545D01*
X124366203Y-96525742D01*
G37*
%TD.AperFunction*%
%TD*%
%TA.AperFunction,Conductor*%
%TO.N,Net-(IC1-VS)*%
G36*
X187111747Y-94148986D02*
G01*
X187115513Y-94151506D01*
X187457424Y-94493016D01*
X187952712Y-94987722D01*
X187956144Y-94995993D01*
X187952722Y-95004268D01*
X187952712Y-95004278D01*
X187115515Y-95840491D01*
X187107240Y-95843913D01*
X187102792Y-95843032D01*
X186267245Y-95498983D01*
X186260900Y-95492664D01*
X186260000Y-95488164D01*
X186260000Y-94503835D01*
X186263427Y-94495562D01*
X186267242Y-94493017D01*
X187102794Y-94148967D01*
X187111747Y-94148986D01*
G37*
%TD.AperFunction*%
%TD*%
%TA.AperFunction,Conductor*%
%TO.N,Net-(IC1-VS)*%
G36*
X177769470Y-93852847D02*
G01*
X178758653Y-94492542D01*
X178763740Y-94499913D01*
X178764000Y-94502367D01*
X178764000Y-95487869D01*
X178760573Y-95496142D01*
X178756380Y-95498835D01*
X177769982Y-95865850D01*
X177761033Y-95865523D01*
X177758890Y-95864250D01*
X176128530Y-94643627D01*
X176123961Y-94635925D01*
X176126176Y-94627249D01*
X176130528Y-94623690D01*
X177758110Y-93852101D01*
X177767052Y-93851654D01*
X177769470Y-93852847D01*
G37*
%TD.AperFunction*%
%TD*%
%TA.AperFunction,Conductor*%
%TO.N,Net-(IC1-VS)*%
G36*
X166893339Y-93126173D02*
G01*
X167672269Y-93224705D01*
X167680046Y-93229144D01*
X167682500Y-93236313D01*
X167682500Y-94215185D01*
X167679073Y-94223458D01*
X167671719Y-94226849D01*
X166851135Y-94291516D01*
X166842618Y-94288750D01*
X166841125Y-94287217D01*
X166375272Y-93712241D01*
X166372727Y-93703656D01*
X166375644Y-93697075D01*
X166883158Y-93129979D01*
X166891227Y-93126100D01*
X166893339Y-93126173D01*
G37*
%TD.AperFunction*%
%TD*%
%TA.AperFunction,Conductor*%
%TO.N,Net-(IC1-VS)*%
G36*
X141346448Y-97778927D02*
G01*
X141349425Y-97783986D01*
X141445811Y-98121341D01*
X141445197Y-98129431D01*
X141107636Y-98865798D01*
X141101073Y-98871890D01*
X141092124Y-98871558D01*
X141086364Y-98865798D01*
X140748802Y-98129431D01*
X140748188Y-98121341D01*
X140844575Y-97783986D01*
X140850143Y-97776972D01*
X140855825Y-97775500D01*
X141338175Y-97775500D01*
X141346448Y-97778927D01*
G37*
%TD.AperFunction*%
%TD*%
%TA.AperFunction,Conductor*%
%TO.N,Net-(IC1-VS)*%
G36*
X141004448Y-96524238D02*
G01*
X141502872Y-96852753D01*
X141507894Y-96860167D01*
X141507740Y-96865529D01*
X141349312Y-97461307D01*
X141343874Y-97468421D01*
X141338005Y-97470000D01*
X140853961Y-97470000D01*
X140845688Y-97466573D01*
X140843679Y-97463882D01*
X140725518Y-97246236D01*
X140568507Y-96957031D01*
X140567572Y-96948128D01*
X140570532Y-96943163D01*
X140989754Y-96525716D01*
X140998035Y-96522308D01*
X141004448Y-96524238D01*
G37*
%TD.AperFunction*%
%TD*%
%TA.AperFunction,Conductor*%
%TO.N,Net-(IC1-VS)*%
G36*
X165897273Y-93120208D02*
G01*
X165898995Y-93121931D01*
X166365032Y-93697135D01*
X166367577Y-93705720D01*
X166365032Y-93711865D01*
X165898995Y-94287068D01*
X165891124Y-94291339D01*
X165888688Y-94291340D01*
X165067984Y-94205595D01*
X165060112Y-94201327D01*
X165057500Y-94193958D01*
X165057500Y-93215041D01*
X165060927Y-93206768D01*
X165067982Y-93203404D01*
X165888689Y-93117659D01*
X165897273Y-93120208D01*
G37*
%TD.AperFunction*%
%TD*%
%TA.AperFunction,Conductor*%
%TO.N,Net-(IC1-VS)*%
G36*
X174466009Y-92959626D02*
G01*
X174469126Y-92961887D01*
X176101023Y-94617818D01*
X176104390Y-94626116D01*
X176100902Y-94634363D01*
X176095808Y-94637307D01*
X174470840Y-95086675D01*
X174461953Y-95085577D01*
X174459162Y-95083374D01*
X173663477Y-94229370D01*
X173660337Y-94221394D01*
X173660337Y-93234419D01*
X173663764Y-93226146D01*
X173668319Y-93223325D01*
X174457076Y-92959005D01*
X174466009Y-92959626D01*
G37*
%TD.AperFunction*%
%TD*%
%TA.AperFunction,Conductor*%
%TO.N,Net-(IC1-INA)*%
G36*
X100757642Y-94153633D02*
G01*
X101592712Y-94987722D01*
X101596144Y-94995993D01*
X101592722Y-95004268D01*
X101592712Y-95004278D01*
X100757642Y-95838366D01*
X100749367Y-95841788D01*
X100741781Y-95838990D01*
X100741049Y-95838366D01*
X99904107Y-95124503D01*
X99900037Y-95116527D01*
X99900000Y-95115601D01*
X99900000Y-94876398D01*
X99903427Y-94868125D01*
X99904093Y-94867508D01*
X100741783Y-94153008D01*
X100750300Y-94150248D01*
X100757642Y-94153633D01*
G37*
%TD.AperFunction*%
%TD*%
%TA.AperFunction,Conductor*%
%TO.N,Net-(IC1-INA)*%
G36*
X98901217Y-94153008D02*
G01*
X99738893Y-94867497D01*
X99742963Y-94875472D01*
X99743000Y-94876398D01*
X99743000Y-95115601D01*
X99739573Y-95123874D01*
X99738893Y-95124503D01*
X98901218Y-95838990D01*
X98892699Y-95841751D01*
X98885357Y-95838366D01*
X98170024Y-95123874D01*
X98050286Y-95004276D01*
X98046855Y-94996007D01*
X98050276Y-94987733D01*
X98885358Y-94153632D01*
X98893632Y-94150211D01*
X98901217Y-94153008D01*
G37*
%TD.AperFunction*%
%TD*%
%TA.AperFunction,Conductor*%
%TO.N,Net-(IC1-INA)*%
G36*
X102458217Y-94153008D02*
G01*
X103295893Y-94867497D01*
X103299963Y-94875472D01*
X103300000Y-94876398D01*
X103300000Y-95115601D01*
X103296573Y-95123874D01*
X103295893Y-95124503D01*
X102458218Y-95838990D01*
X102449699Y-95841751D01*
X102442357Y-95838366D01*
X101727024Y-95123874D01*
X101607286Y-95004276D01*
X101603855Y-94996007D01*
X101607276Y-94987733D01*
X102442358Y-94153632D01*
X102450632Y-94150211D01*
X102458217Y-94153008D01*
G37*
%TD.AperFunction*%
%TD*%
%TA.AperFunction,Conductor*%
%TO.N,Net-(IC1-INA)*%
G36*
X118290696Y-105304890D02*
G01*
X118902436Y-105536141D01*
X118908963Y-105542272D01*
X118909999Y-105547085D01*
X118909999Y-105780914D01*
X118906572Y-105789187D01*
X118902436Y-105791858D01*
X118273655Y-106029551D01*
X118264705Y-106029271D01*
X118258719Y-106023109D01*
X118162306Y-105791858D01*
X118110875Y-105668499D01*
X118110855Y-105659550D01*
X118258719Y-105304889D01*
X118265066Y-105298572D01*
X118273654Y-105298448D01*
X118290696Y-105304890D01*
G37*
%TD.AperFunction*%
%TD*%
%TA.AperFunction,Conductor*%
%TO.N,Net-(IC1-INA)*%
G36*
X111036071Y-97647252D02*
G01*
X111648760Y-97923793D01*
X111654891Y-97930320D01*
X111654767Y-97938909D01*
X111508563Y-98294195D01*
X111502245Y-98300542D01*
X111502195Y-98300563D01*
X111146909Y-98446767D01*
X111137955Y-98446746D01*
X111131793Y-98440760D01*
X111067676Y-98298707D01*
X110905279Y-97938909D01*
X110855252Y-97828071D01*
X110854972Y-97819121D01*
X110857641Y-97814987D01*
X111022986Y-97649642D01*
X111031258Y-97646216D01*
X111036071Y-97647252D01*
G37*
%TD.AperFunction*%
%TD*%
%TA.AperFunction,Conductor*%
%TO.N,Net-(IC1-INB)*%
G36*
X95907361Y-93416322D02*
G01*
X96073386Y-93582347D01*
X96076594Y-93588366D01*
X96350262Y-94982057D01*
X96348493Y-94990835D01*
X96341035Y-94995792D01*
X96338791Y-94996011D01*
X95507153Y-94996702D01*
X95498877Y-94993282D01*
X95498860Y-94993265D01*
X94910255Y-94403274D01*
X94906838Y-94394997D01*
X94910274Y-94386729D01*
X95890858Y-93416278D01*
X95899149Y-93412895D01*
X95907361Y-93416322D01*
G37*
%TD.AperFunction*%
%TD*%
%TA.AperFunction,Conductor*%
%TO.N,Net-(IC1-INB)*%
G36*
X125527876Y-104328441D02*
G01*
X125533636Y-104334201D01*
X125870332Y-105068681D01*
X125870664Y-105077630D01*
X125869538Y-105079884D01*
X125651454Y-105419127D01*
X125644097Y-105424233D01*
X125641612Y-105424500D01*
X125404388Y-105424500D01*
X125396115Y-105421073D01*
X125394546Y-105419127D01*
X125176461Y-105079884D01*
X125174870Y-105071072D01*
X125175665Y-105068685D01*
X125512364Y-104334200D01*
X125518927Y-104328109D01*
X125527876Y-104328441D01*
G37*
%TD.AperFunction*%
%TD*%
%TA.AperFunction,Conductor*%
%TO.N,Net-(IC1-OUTB)*%
G36*
X128717426Y-99669070D02*
G01*
X128719779Y-99672445D01*
X129444403Y-101244545D01*
X129444754Y-101253493D01*
X129438675Y-101260069D01*
X129438265Y-101260248D01*
X128623190Y-101598844D01*
X128614236Y-101598853D01*
X128614220Y-101598846D01*
X127797734Y-101260240D01*
X127791405Y-101253906D01*
X127791409Y-101244951D01*
X127791570Y-101244581D01*
X128358325Y-100012649D01*
X128360676Y-100009274D01*
X128700881Y-99669069D01*
X128709153Y-99665643D01*
X128717426Y-99669070D01*
G37*
%TD.AperFunction*%
%TD*%
%TA.AperFunction,Conductor*%
%TO.N,Net-(IC1-OUTB)*%
G36*
X125879608Y-98539888D02*
G01*
X126214514Y-98635575D01*
X126221528Y-98641143D01*
X126223000Y-98646825D01*
X126223000Y-99129174D01*
X126219573Y-99137447D01*
X126214514Y-99140424D01*
X125879608Y-99236111D01*
X125870712Y-99235089D01*
X125868133Y-99233146D01*
X125677597Y-99043153D01*
X125530307Y-98896283D01*
X125526869Y-98888017D01*
X125530283Y-98879740D01*
X125868133Y-98542852D01*
X125876411Y-98539438D01*
X125879608Y-98539888D01*
G37*
%TD.AperFunction*%
%TD*%
%TA.AperFunction,Conductor*%
%TO.N,Net-(IC1-OUTA)*%
G36*
X122987876Y-98904441D02*
G01*
X122993636Y-98910201D01*
X123331197Y-99646568D01*
X123331811Y-99654658D01*
X123235425Y-99992014D01*
X123229857Y-99999028D01*
X123224175Y-100000500D01*
X122741825Y-100000500D01*
X122733552Y-99997073D01*
X122730575Y-99992014D01*
X122634188Y-99654658D01*
X122634802Y-99646568D01*
X122972364Y-98910201D01*
X122978927Y-98904109D01*
X122987876Y-98904441D01*
G37*
%TD.AperFunction*%
%TD*%
%TA.AperFunction,Conductor*%
%TO.N,Net-(IC1-OUTA)*%
G36*
X120410641Y-101347060D02*
G01*
X120417052Y-101353310D01*
X120418000Y-101357924D01*
X120418000Y-101842075D01*
X120414573Y-101850348D01*
X120410640Y-101852940D01*
X118973132Y-102427210D01*
X118964178Y-102427097D01*
X118957987Y-102420833D01*
X118722075Y-101852940D01*
X118618863Y-101604487D01*
X118618855Y-101595534D01*
X118618864Y-101595512D01*
X118720854Y-101350000D01*
X118957987Y-100779165D01*
X118964326Y-100772840D01*
X118973131Y-100772789D01*
X120410641Y-101347060D01*
G37*
%TD.AperFunction*%
%TD*%
%TA.AperFunction,Conductor*%
%TO.N,Net-(IC2-INA)*%
G36*
X98378836Y-96755791D02*
G01*
X98379413Y-96756049D01*
X99736366Y-97407814D01*
X99742339Y-97414484D01*
X99743000Y-97418360D01*
X99743000Y-97653639D01*
X99739573Y-97661912D01*
X99736366Y-97664186D01*
X98379413Y-98315950D01*
X98370471Y-98316442D01*
X98363800Y-98310469D01*
X98363542Y-98309892D01*
X98043865Y-97540489D01*
X98043856Y-97531534D01*
X98043865Y-97531511D01*
X98363542Y-96762107D01*
X98369881Y-96755782D01*
X98378836Y-96755791D01*
G37*
%TD.AperFunction*%
%TD*%
%TA.AperFunction,Conductor*%
%TO.N,Net-(IC2-INA)*%
G36*
X111357409Y-103527266D02*
G01*
X111357603Y-103527707D01*
X111504839Y-103882210D01*
X111504848Y-103891165D01*
X111504833Y-103891200D01*
X111357462Y-104244674D01*
X111351115Y-104250992D01*
X111342161Y-104250971D01*
X111342083Y-104250939D01*
X110644691Y-103954301D01*
X110638420Y-103947909D01*
X110638504Y-103938954D01*
X110640995Y-103935264D01*
X110804055Y-103772204D01*
X110807393Y-103769870D01*
X111341871Y-103521583D01*
X111350816Y-103521206D01*
X111357409Y-103527266D01*
G37*
%TD.AperFunction*%
%TD*%
%TA.AperFunction,Conductor*%
%TO.N,Net-(IC2-INA)*%
G36*
X139952188Y-105883427D02*
G01*
X139954859Y-105887563D01*
X140192551Y-106516344D01*
X140192271Y-106525294D01*
X140186109Y-106531280D01*
X139831502Y-106679123D01*
X139822548Y-106679144D01*
X139822498Y-106679123D01*
X139467890Y-106531280D01*
X139461572Y-106524933D01*
X139461448Y-106516345D01*
X139699141Y-105887562D01*
X139705272Y-105881036D01*
X139710085Y-105880000D01*
X139943915Y-105880000D01*
X139952188Y-105883427D01*
G37*
%TD.AperFunction*%
%TD*%
%TA.AperFunction,Conductor*%
%TO.N,Net-(IC2-INA)*%
G36*
X139831876Y-104328441D02*
G01*
X139837636Y-104334201D01*
X140174332Y-105068681D01*
X140174664Y-105077630D01*
X140173538Y-105079884D01*
X139955454Y-105419127D01*
X139948097Y-105424233D01*
X139945612Y-105424500D01*
X139708388Y-105424500D01*
X139700115Y-105421073D01*
X139698546Y-105419127D01*
X139480461Y-105079884D01*
X139478870Y-105071072D01*
X139479665Y-105068685D01*
X139816364Y-104334200D01*
X139822927Y-104328109D01*
X139831876Y-104328441D01*
G37*
%TD.AperFunction*%
%TD*%
%TA.AperFunction,Conductor*%
%TO.N,Net-(IC2-INB)*%
G36*
X109334044Y-98149253D02*
G01*
X109340206Y-98155239D01*
X109616747Y-98767928D01*
X109617027Y-98776878D01*
X109614356Y-98781014D01*
X109449014Y-98946356D01*
X109440741Y-98949783D01*
X109435928Y-98948747D01*
X108823239Y-98672206D01*
X108817108Y-98665679D01*
X108817232Y-98657090D01*
X108963437Y-98301802D01*
X108969753Y-98295457D01*
X109325090Y-98149232D01*
X109334044Y-98149253D01*
G37*
%TD.AperFunction*%
%TD*%
%TA.AperFunction,Conductor*%
%TO.N,Net-(IC2-INB)*%
G36*
X142371876Y-104328441D02*
G01*
X142377636Y-104334201D01*
X142714332Y-105068681D01*
X142714664Y-105077630D01*
X142713538Y-105079884D01*
X142495454Y-105419127D01*
X142488097Y-105424233D01*
X142485612Y-105424500D01*
X142248388Y-105424500D01*
X142240115Y-105421073D01*
X142238546Y-105419127D01*
X142020461Y-105079884D01*
X142018870Y-105071072D01*
X142019665Y-105068685D01*
X142356364Y-104334200D01*
X142362927Y-104328109D01*
X142371876Y-104328441D01*
G37*
%TD.AperFunction*%
%TD*%
%TA.AperFunction,Conductor*%
%TO.N,Net-(IC2-OUTB)*%
G36*
X142723608Y-98539888D02*
G01*
X143058514Y-98635575D01*
X143065528Y-98641143D01*
X143067000Y-98646825D01*
X143067000Y-99129174D01*
X143063573Y-99137447D01*
X143058514Y-99140424D01*
X142723608Y-99236111D01*
X142714712Y-99235089D01*
X142712133Y-99233146D01*
X142521597Y-99043153D01*
X142374307Y-98896283D01*
X142370869Y-98888017D01*
X142374283Y-98879740D01*
X142712133Y-98542852D01*
X142720411Y-98539438D01*
X142723608Y-98539888D01*
G37*
%TD.AperFunction*%
%TD*%
%TA.AperFunction,Conductor*%
%TO.N,Net-(IC2-OUTB)*%
G36*
X145665348Y-99803427D02*
G01*
X145667940Y-99807360D01*
X146242210Y-101244867D01*
X146242097Y-101253821D01*
X146235833Y-101260012D01*
X145419488Y-101599135D01*
X145410534Y-101599144D01*
X145410512Y-101599135D01*
X144594166Y-101260012D01*
X144587840Y-101253673D01*
X144587789Y-101244868D01*
X145162060Y-99807358D01*
X145168311Y-99800948D01*
X145172925Y-99800000D01*
X145657075Y-99800000D01*
X145665348Y-99803427D01*
G37*
%TD.AperFunction*%
%TD*%
%TA.AperFunction,Conductor*%
%TO.N,Net-(IC2-OUTA)*%
G36*
X139831876Y-98904441D02*
G01*
X139837636Y-98910201D01*
X140175197Y-99646568D01*
X140175811Y-99654658D01*
X140079425Y-99992014D01*
X140073857Y-99999028D01*
X140068175Y-100000500D01*
X139585825Y-100000500D01*
X139577552Y-99997073D01*
X139574575Y-99992014D01*
X139478188Y-99654658D01*
X139478802Y-99646568D01*
X139816364Y-98910201D01*
X139822927Y-98904109D01*
X139831876Y-98904441D01*
G37*
%TD.AperFunction*%
%TD*%
%TA.AperFunction,Conductor*%
%TO.N,Net-(IC2-OUTA)*%
G36*
X137207641Y-101347060D02*
G01*
X137214052Y-101353310D01*
X137215000Y-101357924D01*
X137215000Y-101842075D01*
X137211573Y-101850348D01*
X137207640Y-101852940D01*
X135770132Y-102427210D01*
X135761178Y-102427097D01*
X135754987Y-102420833D01*
X135519075Y-101852940D01*
X135415863Y-101604487D01*
X135415855Y-101595534D01*
X135415864Y-101595512D01*
X135517854Y-101350000D01*
X135754987Y-100779165D01*
X135761326Y-100772840D01*
X135770131Y-100772789D01*
X137207641Y-101347060D01*
G37*
%TD.AperFunction*%
%TD*%
%TA.AperFunction,Conductor*%
%TO.N,Net-(IC3-INA)*%
G36*
X106352696Y-106574890D02*
G01*
X106964437Y-106806141D01*
X106970964Y-106812272D01*
X106972000Y-106817085D01*
X106972000Y-107050914D01*
X106968573Y-107059187D01*
X106964437Y-107061858D01*
X106335655Y-107299551D01*
X106326705Y-107299271D01*
X106320719Y-107293109D01*
X106224306Y-107061858D01*
X106172875Y-106938499D01*
X106172855Y-106929550D01*
X106320719Y-106574889D01*
X106327066Y-106568572D01*
X106335654Y-106568448D01*
X106352696Y-106574890D01*
G37*
%TD.AperFunction*%
%TD*%
%TA.AperFunction,Conductor*%
%TO.N,Net-(IC3-INA)*%
G36*
X156589188Y-105883427D02*
G01*
X156591859Y-105887563D01*
X156829551Y-106516344D01*
X156829271Y-106525294D01*
X156823109Y-106531280D01*
X156468502Y-106679123D01*
X156459548Y-106679144D01*
X156459498Y-106679123D01*
X156104890Y-106531280D01*
X156098572Y-106524933D01*
X156098448Y-106516345D01*
X156336141Y-105887562D01*
X156342272Y-105881036D01*
X156347085Y-105880000D01*
X156580915Y-105880000D01*
X156589188Y-105883427D01*
G37*
%TD.AperFunction*%
%TD*%
%TA.AperFunction,Conductor*%
%TO.N,Net-(IC3-INA)*%
G36*
X156594377Y-104331709D02*
G01*
X156600469Y-104338272D01*
X156600553Y-104338506D01*
X156854124Y-105068559D01*
X156853602Y-105077499D01*
X156852372Y-105079497D01*
X156592512Y-105419899D01*
X156584768Y-105424396D01*
X156583212Y-105424500D01*
X156347874Y-105424500D01*
X156339601Y-105421073D01*
X156336607Y-105415955D01*
X156242156Y-105078629D01*
X156242786Y-105070602D01*
X156578867Y-104337467D01*
X156585428Y-104331377D01*
X156594377Y-104331709D01*
G37*
%TD.AperFunction*%
%TD*%
%TA.AperFunction,Conductor*%
%TO.N,Net-(IC3-INA)*%
G36*
X98378836Y-99295791D02*
G01*
X98379413Y-99296049D01*
X99736366Y-99947814D01*
X99742339Y-99954484D01*
X99743000Y-99958360D01*
X99743000Y-100193639D01*
X99739573Y-100201912D01*
X99736366Y-100204186D01*
X98379413Y-100855950D01*
X98370471Y-100856442D01*
X98363800Y-100850469D01*
X98363542Y-100849892D01*
X98043865Y-100080488D01*
X98043856Y-100071533D01*
X98043856Y-100071532D01*
X98363542Y-99302106D01*
X98369881Y-99295782D01*
X98378836Y-99295791D01*
G37*
%TD.AperFunction*%
%TD*%
%TA.AperFunction,Conductor*%
%TO.N,Net-(IC3-INB)*%
G36*
X159135876Y-104328441D02*
G01*
X159141636Y-104334201D01*
X159478332Y-105068681D01*
X159478664Y-105077630D01*
X159477538Y-105079884D01*
X159259454Y-105419127D01*
X159252097Y-105424233D01*
X159249612Y-105424500D01*
X159012388Y-105424500D01*
X159004115Y-105421073D01*
X159002546Y-105419127D01*
X158784461Y-105079884D01*
X158782870Y-105071072D01*
X158783665Y-105068685D01*
X159120364Y-104334200D01*
X159126927Y-104328109D01*
X159135876Y-104328441D01*
G37*
%TD.AperFunction*%
%TD*%
%TA.AperFunction,Conductor*%
%TO.N,Net-(IC3-INB)*%
G36*
X95182157Y-99301657D02*
G01*
X95182852Y-99303057D01*
X95501844Y-100070809D01*
X95501853Y-100079764D01*
X95501846Y-100079780D01*
X95182387Y-100850042D01*
X95176053Y-100856371D01*
X95167098Y-100856367D01*
X95166663Y-100856177D01*
X93945116Y-100290419D01*
X93941760Y-100288075D01*
X93777192Y-100123507D01*
X93773765Y-100115234D01*
X93777192Y-100106961D01*
X93779568Y-100105129D01*
X95166158Y-99297435D01*
X95175032Y-99296233D01*
X95182157Y-99301657D01*
G37*
%TD.AperFunction*%
%TD*%
%TA.AperFunction,Conductor*%
%TO.N,Net-(IC3-OUTB)*%
G36*
X162476348Y-99803427D02*
G01*
X162478940Y-99807360D01*
X163053210Y-101244867D01*
X163053097Y-101253821D01*
X163046833Y-101260012D01*
X162230488Y-101599135D01*
X162221534Y-101599144D01*
X162221512Y-101599135D01*
X161405166Y-101260012D01*
X161398840Y-101253673D01*
X161398789Y-101244868D01*
X161973060Y-99807358D01*
X161979311Y-99800948D01*
X161983925Y-99800000D01*
X162468075Y-99800000D01*
X162476348Y-99803427D01*
G37*
%TD.AperFunction*%
%TD*%
%TA.AperFunction,Conductor*%
%TO.N,Net-(IC3-OUTB)*%
G36*
X159487608Y-98539888D02*
G01*
X159822514Y-98635575D01*
X159829528Y-98641143D01*
X159831000Y-98646825D01*
X159831000Y-99129174D01*
X159827573Y-99137447D01*
X159822514Y-99140424D01*
X159487608Y-99236111D01*
X159478712Y-99235089D01*
X159476133Y-99233146D01*
X159285597Y-99043153D01*
X159138307Y-98896283D01*
X159134869Y-98888017D01*
X159138283Y-98879740D01*
X159476133Y-98542852D01*
X159484411Y-98539438D01*
X159487608Y-98539888D01*
G37*
%TD.AperFunction*%
%TD*%
%TA.AperFunction,Conductor*%
%TO.N,Net-(IC3-OUTA)*%
G36*
X154018641Y-101347060D02*
G01*
X154025052Y-101353310D01*
X154026000Y-101357924D01*
X154026000Y-101842075D01*
X154022573Y-101850348D01*
X154018640Y-101852940D01*
X152581132Y-102427210D01*
X152572178Y-102427097D01*
X152565987Y-102420833D01*
X152330075Y-101852940D01*
X152226863Y-101604487D01*
X152226855Y-101595534D01*
X152226864Y-101595512D01*
X152328854Y-101350000D01*
X152565987Y-100779165D01*
X152572326Y-100772840D01*
X152581131Y-100772789D01*
X154018641Y-101347060D01*
G37*
%TD.AperFunction*%
%TD*%
%TA.AperFunction,Conductor*%
%TO.N,Net-(IC3-OUTA)*%
G36*
X156595876Y-98904441D02*
G01*
X156601636Y-98910201D01*
X156939197Y-99646568D01*
X156939811Y-99654658D01*
X156843425Y-99992014D01*
X156837857Y-99999028D01*
X156832175Y-100000500D01*
X156349825Y-100000500D01*
X156341552Y-99997073D01*
X156338575Y-99992014D01*
X156242188Y-99654658D01*
X156242802Y-99646568D01*
X156580364Y-98910201D01*
X156586927Y-98904109D01*
X156595876Y-98904441D01*
G37*
%TD.AperFunction*%
%TD*%
M02*
