%TF.GenerationSoftware,KiCad,Pcbnew,7.0.2*%
%TF.CreationDate,2023-10-28T17:31:33+09:00*%
%TF.ProjectId,Pmod_US_Speaker,506d6f64-5f55-4535-9f53-7065616b6572,rev?*%
%TF.SameCoordinates,Original*%
%TF.FileFunction,Legend,Top*%
%TF.FilePolarity,Positive*%
%FSLAX46Y46*%
G04 Gerber Fmt 4.6, Leading zero omitted, Abs format (unit mm)*
G04 Created by KiCad (PCBNEW 7.0.2) date 2023-10-28 17:31:33*
%MOMM*%
%LPD*%
G01*
G04 APERTURE LIST*
%ADD10C,0.150000*%
%ADD11C,0.187500*%
%ADD12C,0.254000*%
%ADD13C,0.200000*%
%ADD14C,0.120000*%
G04 APERTURE END LIST*
D10*
X105664000Y-95758000D02*
X105664000Y-93980000D01*
X104648000Y-101092000D02*
X104648000Y-93980000D01*
X105664000Y-101092000D02*
X105664000Y-99314000D01*
X105664000Y-98044000D02*
X105664000Y-97028000D01*
D11*
X183006857Y-108115857D02*
X182864000Y-108044428D01*
X182864000Y-108044428D02*
X182649714Y-108044428D01*
X182649714Y-108044428D02*
X182435428Y-108115857D01*
X182435428Y-108115857D02*
X182292571Y-108258714D01*
X182292571Y-108258714D02*
X182221142Y-108401571D01*
X182221142Y-108401571D02*
X182149714Y-108687285D01*
X182149714Y-108687285D02*
X182149714Y-108901571D01*
X182149714Y-108901571D02*
X182221142Y-109187285D01*
X182221142Y-109187285D02*
X182292571Y-109330142D01*
X182292571Y-109330142D02*
X182435428Y-109473000D01*
X182435428Y-109473000D02*
X182649714Y-109544428D01*
X182649714Y-109544428D02*
X182792571Y-109544428D01*
X182792571Y-109544428D02*
X183006857Y-109473000D01*
X183006857Y-109473000D02*
X183078285Y-109401571D01*
X183078285Y-109401571D02*
X183078285Y-108901571D01*
X183078285Y-108901571D02*
X182792571Y-108901571D01*
X183721142Y-109544428D02*
X183721142Y-108044428D01*
X183721142Y-108044428D02*
X184578285Y-109544428D01*
X184578285Y-109544428D02*
X184578285Y-108044428D01*
X185292571Y-109544428D02*
X185292571Y-108044428D01*
X185292571Y-108044428D02*
X185649714Y-108044428D01*
X185649714Y-108044428D02*
X185864000Y-108115857D01*
X185864000Y-108115857D02*
X186006857Y-108258714D01*
X186006857Y-108258714D02*
X186078286Y-108401571D01*
X186078286Y-108401571D02*
X186149714Y-108687285D01*
X186149714Y-108687285D02*
X186149714Y-108901571D01*
X186149714Y-108901571D02*
X186078286Y-109187285D01*
X186078286Y-109187285D02*
X186006857Y-109330142D01*
X186006857Y-109330142D02*
X185864000Y-109473000D01*
X185864000Y-109473000D02*
X185649714Y-109544428D01*
X185649714Y-109544428D02*
X185292571Y-109544428D01*
X186252428Y-102766857D02*
X184752428Y-102766857D01*
X184752428Y-102766857D02*
X186252428Y-101909714D01*
X186252428Y-101909714D02*
X184752428Y-101909714D01*
X186109571Y-100338285D02*
X186181000Y-100409713D01*
X186181000Y-100409713D02*
X186252428Y-100623999D01*
X186252428Y-100623999D02*
X186252428Y-100766856D01*
X186252428Y-100766856D02*
X186181000Y-100981142D01*
X186181000Y-100981142D02*
X186038142Y-101123999D01*
X186038142Y-101123999D02*
X185895285Y-101195428D01*
X185895285Y-101195428D02*
X185609571Y-101266856D01*
X185609571Y-101266856D02*
X185395285Y-101266856D01*
X185395285Y-101266856D02*
X185109571Y-101195428D01*
X185109571Y-101195428D02*
X184966714Y-101123999D01*
X184966714Y-101123999D02*
X184823857Y-100981142D01*
X184823857Y-100981142D02*
X184752428Y-100766856D01*
X184752428Y-100766856D02*
X184752428Y-100623999D01*
X184752428Y-100623999D02*
X184823857Y-100409713D01*
X184823857Y-100409713D02*
X184895285Y-100338285D01*
D10*
X123321619Y-107711904D02*
X122321619Y-107711904D01*
X123321619Y-107235714D02*
X122321619Y-107235714D01*
X122321619Y-107235714D02*
X123321619Y-106664286D01*
X123321619Y-106664286D02*
X122321619Y-106664286D01*
X123035904Y-106235714D02*
X123035904Y-105759524D01*
X123321619Y-106330952D02*
X122321619Y-105997619D01*
X122321619Y-105997619D02*
X123321619Y-105664286D01*
D11*
X182895857Y-93947428D02*
X183395857Y-95447428D01*
X183395857Y-95447428D02*
X183895857Y-93947428D01*
X185038714Y-95376000D02*
X184895856Y-95447428D01*
X184895856Y-95447428D02*
X184610142Y-95447428D01*
X184610142Y-95447428D02*
X184467285Y-95376000D01*
X184467285Y-95376000D02*
X184395856Y-95304571D01*
X184395856Y-95304571D02*
X184324428Y-95161714D01*
X184324428Y-95161714D02*
X184324428Y-94733142D01*
X184324428Y-94733142D02*
X184395856Y-94590285D01*
X184395856Y-94590285D02*
X184467285Y-94518857D01*
X184467285Y-94518857D02*
X184610142Y-94447428D01*
X184610142Y-94447428D02*
X184895856Y-94447428D01*
X184895856Y-94447428D02*
X185038714Y-94518857D01*
X186324428Y-95376000D02*
X186181570Y-95447428D01*
X186181570Y-95447428D02*
X185895856Y-95447428D01*
X185895856Y-95447428D02*
X185752999Y-95376000D01*
X185752999Y-95376000D02*
X185681570Y-95304571D01*
X185681570Y-95304571D02*
X185610142Y-95161714D01*
X185610142Y-95161714D02*
X185610142Y-94733142D01*
X185610142Y-94733142D02*
X185681570Y-94590285D01*
X185681570Y-94590285D02*
X185752999Y-94518857D01*
X185752999Y-94518857D02*
X185895856Y-94447428D01*
X185895856Y-94447428D02*
X186181570Y-94447428D01*
X186181570Y-94447428D02*
X186324428Y-94518857D01*
D10*
X126369619Y-107711904D02*
X125369619Y-107711904D01*
X126369619Y-107235714D02*
X125369619Y-107235714D01*
X125369619Y-107235714D02*
X126369619Y-106664286D01*
X126369619Y-106664286D02*
X125369619Y-106664286D01*
X125845809Y-105854762D02*
X125893428Y-105711905D01*
X125893428Y-105711905D02*
X125941047Y-105664286D01*
X125941047Y-105664286D02*
X126036285Y-105616667D01*
X126036285Y-105616667D02*
X126179142Y-105616667D01*
X126179142Y-105616667D02*
X126274380Y-105664286D01*
X126274380Y-105664286D02*
X126322000Y-105711905D01*
X126322000Y-105711905D02*
X126369619Y-105807143D01*
X126369619Y-105807143D02*
X126369619Y-106188095D01*
X126369619Y-106188095D02*
X125369619Y-106188095D01*
X125369619Y-106188095D02*
X125369619Y-105854762D01*
X125369619Y-105854762D02*
X125417238Y-105759524D01*
X125417238Y-105759524D02*
X125464857Y-105711905D01*
X125464857Y-105711905D02*
X125560095Y-105664286D01*
X125560095Y-105664286D02*
X125655333Y-105664286D01*
X125655333Y-105664286D02*
X125750571Y-105711905D01*
X125750571Y-105711905D02*
X125798190Y-105759524D01*
X125798190Y-105759524D02*
X125845809Y-105854762D01*
X125845809Y-105854762D02*
X125845809Y-106188095D01*
X93456095Y-110621619D02*
X93456095Y-109621619D01*
X93456095Y-109621619D02*
X93837047Y-109621619D01*
X93837047Y-109621619D02*
X93932285Y-109669238D01*
X93932285Y-109669238D02*
X93979904Y-109716857D01*
X93979904Y-109716857D02*
X94027523Y-109812095D01*
X94027523Y-109812095D02*
X94027523Y-109954952D01*
X94027523Y-109954952D02*
X93979904Y-110050190D01*
X93979904Y-110050190D02*
X93932285Y-110097809D01*
X93932285Y-110097809D02*
X93837047Y-110145428D01*
X93837047Y-110145428D02*
X93456095Y-110145428D01*
X94456095Y-110621619D02*
X94456095Y-109954952D01*
X94456095Y-110050190D02*
X94503714Y-110002571D01*
X94503714Y-110002571D02*
X94598952Y-109954952D01*
X94598952Y-109954952D02*
X94741809Y-109954952D01*
X94741809Y-109954952D02*
X94837047Y-110002571D01*
X94837047Y-110002571D02*
X94884666Y-110097809D01*
X94884666Y-110097809D02*
X94884666Y-110621619D01*
X94884666Y-110097809D02*
X94932285Y-110002571D01*
X94932285Y-110002571D02*
X95027523Y-109954952D01*
X95027523Y-109954952D02*
X95170380Y-109954952D01*
X95170380Y-109954952D02*
X95265619Y-110002571D01*
X95265619Y-110002571D02*
X95313238Y-110097809D01*
X95313238Y-110097809D02*
X95313238Y-110621619D01*
X95932285Y-110621619D02*
X95837047Y-110574000D01*
X95837047Y-110574000D02*
X95789428Y-110526380D01*
X95789428Y-110526380D02*
X95741809Y-110431142D01*
X95741809Y-110431142D02*
X95741809Y-110145428D01*
X95741809Y-110145428D02*
X95789428Y-110050190D01*
X95789428Y-110050190D02*
X95837047Y-110002571D01*
X95837047Y-110002571D02*
X95932285Y-109954952D01*
X95932285Y-109954952D02*
X96075142Y-109954952D01*
X96075142Y-109954952D02*
X96170380Y-110002571D01*
X96170380Y-110002571D02*
X96217999Y-110050190D01*
X96217999Y-110050190D02*
X96265618Y-110145428D01*
X96265618Y-110145428D02*
X96265618Y-110431142D01*
X96265618Y-110431142D02*
X96217999Y-110526380D01*
X96217999Y-110526380D02*
X96170380Y-110574000D01*
X96170380Y-110574000D02*
X96075142Y-110621619D01*
X96075142Y-110621619D02*
X95932285Y-110621619D01*
X97122761Y-110621619D02*
X97122761Y-109621619D01*
X97122761Y-110574000D02*
X97027523Y-110621619D01*
X97027523Y-110621619D02*
X96837047Y-110621619D01*
X96837047Y-110621619D02*
X96741809Y-110574000D01*
X96741809Y-110574000D02*
X96694190Y-110526380D01*
X96694190Y-110526380D02*
X96646571Y-110431142D01*
X96646571Y-110431142D02*
X96646571Y-110145428D01*
X96646571Y-110145428D02*
X96694190Y-110050190D01*
X96694190Y-110050190D02*
X96741809Y-110002571D01*
X96741809Y-110002571D02*
X96837047Y-109954952D01*
X96837047Y-109954952D02*
X97027523Y-109954952D01*
X97027523Y-109954952D02*
X97122761Y-110002571D01*
X97360857Y-110716857D02*
X98122761Y-110716857D01*
X98360857Y-109621619D02*
X98360857Y-110431142D01*
X98360857Y-110431142D02*
X98408476Y-110526380D01*
X98408476Y-110526380D02*
X98456095Y-110574000D01*
X98456095Y-110574000D02*
X98551333Y-110621619D01*
X98551333Y-110621619D02*
X98741809Y-110621619D01*
X98741809Y-110621619D02*
X98837047Y-110574000D01*
X98837047Y-110574000D02*
X98884666Y-110526380D01*
X98884666Y-110526380D02*
X98932285Y-110431142D01*
X98932285Y-110431142D02*
X98932285Y-109621619D01*
X99551333Y-110621619D02*
X99456095Y-110574000D01*
X99456095Y-110574000D02*
X99408476Y-110478761D01*
X99408476Y-110478761D02*
X99408476Y-109621619D01*
X99789429Y-109954952D02*
X100170381Y-109954952D01*
X99932286Y-109621619D02*
X99932286Y-110478761D01*
X99932286Y-110478761D02*
X99979905Y-110574000D01*
X99979905Y-110574000D02*
X100075143Y-110621619D01*
X100075143Y-110621619D02*
X100170381Y-110621619D01*
X100503715Y-110621619D02*
X100503715Y-109954952D01*
X100503715Y-110145428D02*
X100551334Y-110050190D01*
X100551334Y-110050190D02*
X100598953Y-110002571D01*
X100598953Y-110002571D02*
X100694191Y-109954952D01*
X100694191Y-109954952D02*
X100789429Y-109954952D01*
X101551334Y-110621619D02*
X101551334Y-110097809D01*
X101551334Y-110097809D02*
X101503715Y-110002571D01*
X101503715Y-110002571D02*
X101408477Y-109954952D01*
X101408477Y-109954952D02*
X101218001Y-109954952D01*
X101218001Y-109954952D02*
X101122763Y-110002571D01*
X101551334Y-110574000D02*
X101456096Y-110621619D01*
X101456096Y-110621619D02*
X101218001Y-110621619D01*
X101218001Y-110621619D02*
X101122763Y-110574000D01*
X101122763Y-110574000D02*
X101075144Y-110478761D01*
X101075144Y-110478761D02*
X101075144Y-110383523D01*
X101075144Y-110383523D02*
X101122763Y-110288285D01*
X101122763Y-110288285D02*
X101218001Y-110240666D01*
X101218001Y-110240666D02*
X101456096Y-110240666D01*
X101456096Y-110240666D02*
X101551334Y-110193047D01*
X101979906Y-110574000D02*
X102122763Y-110621619D01*
X102122763Y-110621619D02*
X102360858Y-110621619D01*
X102360858Y-110621619D02*
X102456096Y-110574000D01*
X102456096Y-110574000D02*
X102503715Y-110526380D01*
X102503715Y-110526380D02*
X102551334Y-110431142D01*
X102551334Y-110431142D02*
X102551334Y-110335904D01*
X102551334Y-110335904D02*
X102503715Y-110240666D01*
X102503715Y-110240666D02*
X102456096Y-110193047D01*
X102456096Y-110193047D02*
X102360858Y-110145428D01*
X102360858Y-110145428D02*
X102170382Y-110097809D01*
X102170382Y-110097809D02*
X102075144Y-110050190D01*
X102075144Y-110050190D02*
X102027525Y-110002571D01*
X102027525Y-110002571D02*
X101979906Y-109907333D01*
X101979906Y-109907333D02*
X101979906Y-109812095D01*
X101979906Y-109812095D02*
X102027525Y-109716857D01*
X102027525Y-109716857D02*
X102075144Y-109669238D01*
X102075144Y-109669238D02*
X102170382Y-109621619D01*
X102170382Y-109621619D02*
X102408477Y-109621619D01*
X102408477Y-109621619D02*
X102551334Y-109669238D01*
X103122763Y-110621619D02*
X103027525Y-110574000D01*
X103027525Y-110574000D02*
X102979906Y-110526380D01*
X102979906Y-110526380D02*
X102932287Y-110431142D01*
X102932287Y-110431142D02*
X102932287Y-110145428D01*
X102932287Y-110145428D02*
X102979906Y-110050190D01*
X102979906Y-110050190D02*
X103027525Y-110002571D01*
X103027525Y-110002571D02*
X103122763Y-109954952D01*
X103122763Y-109954952D02*
X103265620Y-109954952D01*
X103265620Y-109954952D02*
X103360858Y-110002571D01*
X103360858Y-110002571D02*
X103408477Y-110050190D01*
X103408477Y-110050190D02*
X103456096Y-110145428D01*
X103456096Y-110145428D02*
X103456096Y-110431142D01*
X103456096Y-110431142D02*
X103408477Y-110526380D01*
X103408477Y-110526380D02*
X103360858Y-110574000D01*
X103360858Y-110574000D02*
X103265620Y-110621619D01*
X103265620Y-110621619D02*
X103122763Y-110621619D01*
X103884668Y-109954952D02*
X103884668Y-110621619D01*
X103884668Y-110050190D02*
X103932287Y-110002571D01*
X103932287Y-110002571D02*
X104027525Y-109954952D01*
X104027525Y-109954952D02*
X104170382Y-109954952D01*
X104170382Y-109954952D02*
X104265620Y-110002571D01*
X104265620Y-110002571D02*
X104313239Y-110097809D01*
X104313239Y-110097809D02*
X104313239Y-110621619D01*
X104789430Y-110621619D02*
X104789430Y-109954952D01*
X104789430Y-109621619D02*
X104741811Y-109669238D01*
X104741811Y-109669238D02*
X104789430Y-109716857D01*
X104789430Y-109716857D02*
X104837049Y-109669238D01*
X104837049Y-109669238D02*
X104789430Y-109621619D01*
X104789430Y-109621619D02*
X104789430Y-109716857D01*
X105694191Y-110574000D02*
X105598953Y-110621619D01*
X105598953Y-110621619D02*
X105408477Y-110621619D01*
X105408477Y-110621619D02*
X105313239Y-110574000D01*
X105313239Y-110574000D02*
X105265620Y-110526380D01*
X105265620Y-110526380D02*
X105218001Y-110431142D01*
X105218001Y-110431142D02*
X105218001Y-110145428D01*
X105218001Y-110145428D02*
X105265620Y-110050190D01*
X105265620Y-110050190D02*
X105313239Y-110002571D01*
X105313239Y-110002571D02*
X105408477Y-109954952D01*
X105408477Y-109954952D02*
X105598953Y-109954952D01*
X105598953Y-109954952D02*
X105694191Y-110002571D01*
X106027525Y-109621619D02*
X106646572Y-109621619D01*
X106646572Y-109621619D02*
X106313239Y-110002571D01*
X106313239Y-110002571D02*
X106456096Y-110002571D01*
X106456096Y-110002571D02*
X106551334Y-110050190D01*
X106551334Y-110050190D02*
X106598953Y-110097809D01*
X106598953Y-110097809D02*
X106646572Y-110193047D01*
X106646572Y-110193047D02*
X106646572Y-110431142D01*
X106646572Y-110431142D02*
X106598953Y-110526380D01*
X106598953Y-110526380D02*
X106551334Y-110574000D01*
X106551334Y-110574000D02*
X106456096Y-110621619D01*
X106456096Y-110621619D02*
X106170382Y-110621619D01*
X106170382Y-110621619D02*
X106075144Y-110574000D01*
X106075144Y-110574000D02*
X106027525Y-110526380D01*
X107694192Y-109621619D02*
X108027525Y-110621619D01*
X108027525Y-110621619D02*
X108360858Y-109621619D01*
X109075144Y-110574000D02*
X108979906Y-110621619D01*
X108979906Y-110621619D02*
X108789430Y-110621619D01*
X108789430Y-110621619D02*
X108694192Y-110574000D01*
X108694192Y-110574000D02*
X108646573Y-110478761D01*
X108646573Y-110478761D02*
X108646573Y-110097809D01*
X108646573Y-110097809D02*
X108694192Y-110002571D01*
X108694192Y-110002571D02*
X108789430Y-109954952D01*
X108789430Y-109954952D02*
X108979906Y-109954952D01*
X108979906Y-109954952D02*
X109075144Y-110002571D01*
X109075144Y-110002571D02*
X109122763Y-110097809D01*
X109122763Y-110097809D02*
X109122763Y-110193047D01*
X109122763Y-110193047D02*
X108646573Y-110288285D01*
X109551335Y-110621619D02*
X109551335Y-109954952D01*
X109551335Y-110145428D02*
X109598954Y-110050190D01*
X109598954Y-110050190D02*
X109646573Y-110002571D01*
X109646573Y-110002571D02*
X109741811Y-109954952D01*
X109741811Y-109954952D02*
X109837049Y-109954952D01*
X111122764Y-109621619D02*
X111218002Y-109621619D01*
X111218002Y-109621619D02*
X111313240Y-109669238D01*
X111313240Y-109669238D02*
X111360859Y-109716857D01*
X111360859Y-109716857D02*
X111408478Y-109812095D01*
X111408478Y-109812095D02*
X111456097Y-110002571D01*
X111456097Y-110002571D02*
X111456097Y-110240666D01*
X111456097Y-110240666D02*
X111408478Y-110431142D01*
X111408478Y-110431142D02*
X111360859Y-110526380D01*
X111360859Y-110526380D02*
X111313240Y-110574000D01*
X111313240Y-110574000D02*
X111218002Y-110621619D01*
X111218002Y-110621619D02*
X111122764Y-110621619D01*
X111122764Y-110621619D02*
X111027526Y-110574000D01*
X111027526Y-110574000D02*
X110979907Y-110526380D01*
X110979907Y-110526380D02*
X110932288Y-110431142D01*
X110932288Y-110431142D02*
X110884669Y-110240666D01*
X110884669Y-110240666D02*
X110884669Y-110002571D01*
X110884669Y-110002571D02*
X110932288Y-109812095D01*
X110932288Y-109812095D02*
X110979907Y-109716857D01*
X110979907Y-109716857D02*
X111027526Y-109669238D01*
X111027526Y-109669238D02*
X111122764Y-109621619D01*
X111884669Y-110526380D02*
X111932288Y-110574000D01*
X111932288Y-110574000D02*
X111884669Y-110621619D01*
X111884669Y-110621619D02*
X111837050Y-110574000D01*
X111837050Y-110574000D02*
X111884669Y-110526380D01*
X111884669Y-110526380D02*
X111884669Y-110621619D01*
X112884668Y-110621619D02*
X112313240Y-110621619D01*
X112598954Y-110621619D02*
X112598954Y-109621619D01*
X112598954Y-109621619D02*
X112503716Y-109764476D01*
X112503716Y-109764476D02*
X112408478Y-109859714D01*
X112408478Y-109859714D02*
X112313240Y-109907333D01*
X107018000Y-99917333D02*
X107065619Y-100012571D01*
X107065619Y-100012571D02*
X107065619Y-100203047D01*
X107065619Y-100203047D02*
X107018000Y-100298285D01*
X107018000Y-100298285D02*
X106970380Y-100345904D01*
X106970380Y-100345904D02*
X106875142Y-100393523D01*
X106875142Y-100393523D02*
X106589428Y-100393523D01*
X106589428Y-100393523D02*
X106494190Y-100345904D01*
X106494190Y-100345904D02*
X106446571Y-100298285D01*
X106446571Y-100298285D02*
X106398952Y-100203047D01*
X106398952Y-100203047D02*
X106398952Y-100012571D01*
X106398952Y-100012571D02*
X106446571Y-99917333D01*
X106398952Y-99060190D02*
X107065619Y-99060190D01*
X106398952Y-99488761D02*
X106922761Y-99488761D01*
X106922761Y-99488761D02*
X107018000Y-99441142D01*
X107018000Y-99441142D02*
X107065619Y-99345904D01*
X107065619Y-99345904D02*
X107065619Y-99203047D01*
X107065619Y-99203047D02*
X107018000Y-99107809D01*
X107018000Y-99107809D02*
X106970380Y-99060190D01*
X106398952Y-98726856D02*
X106398952Y-98345904D01*
X106065619Y-98583999D02*
X106922761Y-98583999D01*
X106922761Y-98583999D02*
X107018000Y-98536380D01*
X107018000Y-98536380D02*
X107065619Y-98441142D01*
X107065619Y-98441142D02*
X107065619Y-98345904D01*
X107065619Y-97107808D02*
X107018000Y-97203046D01*
X107018000Y-97203046D02*
X106922761Y-97250665D01*
X106922761Y-97250665D02*
X106065619Y-97250665D01*
X107065619Y-96726855D02*
X106398952Y-96726855D01*
X106065619Y-96726855D02*
X106113238Y-96774474D01*
X106113238Y-96774474D02*
X106160857Y-96726855D01*
X106160857Y-96726855D02*
X106113238Y-96679236D01*
X106113238Y-96679236D02*
X106065619Y-96726855D01*
X106065619Y-96726855D02*
X106160857Y-96726855D01*
X106398952Y-96250665D02*
X107065619Y-96250665D01*
X106494190Y-96250665D02*
X106446571Y-96203046D01*
X106446571Y-96203046D02*
X106398952Y-96107808D01*
X106398952Y-96107808D02*
X106398952Y-95964951D01*
X106398952Y-95964951D02*
X106446571Y-95869713D01*
X106446571Y-95869713D02*
X106541809Y-95822094D01*
X106541809Y-95822094D02*
X107065619Y-95822094D01*
X107018000Y-94964951D02*
X107065619Y-95060189D01*
X107065619Y-95060189D02*
X107065619Y-95250665D01*
X107065619Y-95250665D02*
X107018000Y-95345903D01*
X107018000Y-95345903D02*
X106922761Y-95393522D01*
X106922761Y-95393522D02*
X106541809Y-95393522D01*
X106541809Y-95393522D02*
X106446571Y-95345903D01*
X106446571Y-95345903D02*
X106398952Y-95250665D01*
X106398952Y-95250665D02*
X106398952Y-95060189D01*
X106398952Y-95060189D02*
X106446571Y-94964951D01*
X106446571Y-94964951D02*
X106541809Y-94917332D01*
X106541809Y-94917332D02*
X106637047Y-94917332D01*
X106637047Y-94917332D02*
X106732285Y-95393522D01*
D12*
%TO.C,U1*%
X122935526Y-102567619D02*
X123963621Y-102567619D01*
X123963621Y-102567619D02*
X124084573Y-102507142D01*
X124084573Y-102507142D02*
X124145050Y-102446666D01*
X124145050Y-102446666D02*
X124205526Y-102325714D01*
X124205526Y-102325714D02*
X124205526Y-102083809D01*
X124205526Y-102083809D02*
X124145050Y-101962857D01*
X124145050Y-101962857D02*
X124084573Y-101902380D01*
X124084573Y-101902380D02*
X123963621Y-101841904D01*
X123963621Y-101841904D02*
X122935526Y-101841904D01*
X124205526Y-100571904D02*
X124205526Y-101297619D01*
X124205526Y-100934762D02*
X122935526Y-100934762D01*
X122935526Y-100934762D02*
X123116954Y-101055714D01*
X123116954Y-101055714D02*
X123237907Y-101176666D01*
X123237907Y-101176666D02*
X123298383Y-101297619D01*
%TO.C,IC1*%
X131143526Y-109443762D02*
X129873526Y-109443762D01*
X131022573Y-108113285D02*
X131083050Y-108173761D01*
X131083050Y-108173761D02*
X131143526Y-108355190D01*
X131143526Y-108355190D02*
X131143526Y-108476142D01*
X131143526Y-108476142D02*
X131083050Y-108657571D01*
X131083050Y-108657571D02*
X130962097Y-108778523D01*
X130962097Y-108778523D02*
X130841145Y-108839000D01*
X130841145Y-108839000D02*
X130599240Y-108899476D01*
X130599240Y-108899476D02*
X130417811Y-108899476D01*
X130417811Y-108899476D02*
X130175907Y-108839000D01*
X130175907Y-108839000D02*
X130054954Y-108778523D01*
X130054954Y-108778523D02*
X129934002Y-108657571D01*
X129934002Y-108657571D02*
X129873526Y-108476142D01*
X129873526Y-108476142D02*
X129873526Y-108355190D01*
X129873526Y-108355190D02*
X129934002Y-108173761D01*
X129934002Y-108173761D02*
X129994478Y-108113285D01*
X131143526Y-106903761D02*
X131143526Y-107629476D01*
X131143526Y-107266619D02*
X129873526Y-107266619D01*
X129873526Y-107266619D02*
X130054954Y-107387571D01*
X130054954Y-107387571D02*
X130175907Y-107508523D01*
X130175907Y-107508523D02*
X130236383Y-107629476D01*
D10*
%TO.C,C2*%
X168417380Y-94908666D02*
X168465000Y-94956285D01*
X168465000Y-94956285D02*
X168512619Y-95099142D01*
X168512619Y-95099142D02*
X168512619Y-95194380D01*
X168512619Y-95194380D02*
X168465000Y-95337237D01*
X168465000Y-95337237D02*
X168369761Y-95432475D01*
X168369761Y-95432475D02*
X168274523Y-95480094D01*
X168274523Y-95480094D02*
X168084047Y-95527713D01*
X168084047Y-95527713D02*
X167941190Y-95527713D01*
X167941190Y-95527713D02*
X167750714Y-95480094D01*
X167750714Y-95480094D02*
X167655476Y-95432475D01*
X167655476Y-95432475D02*
X167560238Y-95337237D01*
X167560238Y-95337237D02*
X167512619Y-95194380D01*
X167512619Y-95194380D02*
X167512619Y-95099142D01*
X167512619Y-95099142D02*
X167560238Y-94956285D01*
X167560238Y-94956285D02*
X167607857Y-94908666D01*
X167607857Y-94527713D02*
X167560238Y-94480094D01*
X167560238Y-94480094D02*
X167512619Y-94384856D01*
X167512619Y-94384856D02*
X167512619Y-94146761D01*
X167512619Y-94146761D02*
X167560238Y-94051523D01*
X167560238Y-94051523D02*
X167607857Y-94003904D01*
X167607857Y-94003904D02*
X167703095Y-93956285D01*
X167703095Y-93956285D02*
X167798333Y-93956285D01*
X167798333Y-93956285D02*
X167941190Y-94003904D01*
X167941190Y-94003904D02*
X168512619Y-94575332D01*
X168512619Y-94575332D02*
X168512619Y-93956285D01*
D12*
%TO.C,IC2*%
X147907526Y-109443762D02*
X146637526Y-109443762D01*
X147786573Y-108113285D02*
X147847050Y-108173761D01*
X147847050Y-108173761D02*
X147907526Y-108355190D01*
X147907526Y-108355190D02*
X147907526Y-108476142D01*
X147907526Y-108476142D02*
X147847050Y-108657571D01*
X147847050Y-108657571D02*
X147726097Y-108778523D01*
X147726097Y-108778523D02*
X147605145Y-108839000D01*
X147605145Y-108839000D02*
X147363240Y-108899476D01*
X147363240Y-108899476D02*
X147181811Y-108899476D01*
X147181811Y-108899476D02*
X146939907Y-108839000D01*
X146939907Y-108839000D02*
X146818954Y-108778523D01*
X146818954Y-108778523D02*
X146698002Y-108657571D01*
X146698002Y-108657571D02*
X146637526Y-108476142D01*
X146637526Y-108476142D02*
X146637526Y-108355190D01*
X146637526Y-108355190D02*
X146698002Y-108173761D01*
X146698002Y-108173761D02*
X146758478Y-108113285D01*
X146758478Y-107629476D02*
X146698002Y-107569000D01*
X146698002Y-107569000D02*
X146637526Y-107448047D01*
X146637526Y-107448047D02*
X146637526Y-107145666D01*
X146637526Y-107145666D02*
X146698002Y-107024714D01*
X146698002Y-107024714D02*
X146758478Y-106964238D01*
X146758478Y-106964238D02*
X146879430Y-106903761D01*
X146879430Y-106903761D02*
X147000383Y-106903761D01*
X147000383Y-106903761D02*
X147181811Y-106964238D01*
X147181811Y-106964238D02*
X147907526Y-107689952D01*
X147907526Y-107689952D02*
X147907526Y-106903761D01*
D10*
%TO.C,C3*%
X141692333Y-95457380D02*
X141644714Y-95505000D01*
X141644714Y-95505000D02*
X141501857Y-95552619D01*
X141501857Y-95552619D02*
X141406619Y-95552619D01*
X141406619Y-95552619D02*
X141263762Y-95505000D01*
X141263762Y-95505000D02*
X141168524Y-95409761D01*
X141168524Y-95409761D02*
X141120905Y-95314523D01*
X141120905Y-95314523D02*
X141073286Y-95124047D01*
X141073286Y-95124047D02*
X141073286Y-94981190D01*
X141073286Y-94981190D02*
X141120905Y-94790714D01*
X141120905Y-94790714D02*
X141168524Y-94695476D01*
X141168524Y-94695476D02*
X141263762Y-94600238D01*
X141263762Y-94600238D02*
X141406619Y-94552619D01*
X141406619Y-94552619D02*
X141501857Y-94552619D01*
X141501857Y-94552619D02*
X141644714Y-94600238D01*
X141644714Y-94600238D02*
X141692333Y-94647857D01*
X142025667Y-94552619D02*
X142644714Y-94552619D01*
X142644714Y-94552619D02*
X142311381Y-94933571D01*
X142311381Y-94933571D02*
X142454238Y-94933571D01*
X142454238Y-94933571D02*
X142549476Y-94981190D01*
X142549476Y-94981190D02*
X142597095Y-95028809D01*
X142597095Y-95028809D02*
X142644714Y-95124047D01*
X142644714Y-95124047D02*
X142644714Y-95362142D01*
X142644714Y-95362142D02*
X142597095Y-95457380D01*
X142597095Y-95457380D02*
X142549476Y-95505000D01*
X142549476Y-95505000D02*
X142454238Y-95552619D01*
X142454238Y-95552619D02*
X142168524Y-95552619D01*
X142168524Y-95552619D02*
X142073286Y-95505000D01*
X142073286Y-95505000D02*
X142025667Y-95457380D01*
%TO.C,J2*%
X169338666Y-109190619D02*
X169338666Y-109904904D01*
X169338666Y-109904904D02*
X169291047Y-110047761D01*
X169291047Y-110047761D02*
X169195809Y-110143000D01*
X169195809Y-110143000D02*
X169052952Y-110190619D01*
X169052952Y-110190619D02*
X168957714Y-110190619D01*
X169767238Y-109285857D02*
X169814857Y-109238238D01*
X169814857Y-109238238D02*
X169910095Y-109190619D01*
X169910095Y-109190619D02*
X170148190Y-109190619D01*
X170148190Y-109190619D02*
X170243428Y-109238238D01*
X170243428Y-109238238D02*
X170291047Y-109285857D01*
X170291047Y-109285857D02*
X170338666Y-109381095D01*
X170338666Y-109381095D02*
X170338666Y-109476333D01*
X170338666Y-109476333D02*
X170291047Y-109619190D01*
X170291047Y-109619190D02*
X169719619Y-110190619D01*
X169719619Y-110190619D02*
X170338666Y-110190619D01*
%TO.C,C5*%
X158583333Y-95457380D02*
X158535714Y-95505000D01*
X158535714Y-95505000D02*
X158392857Y-95552619D01*
X158392857Y-95552619D02*
X158297619Y-95552619D01*
X158297619Y-95552619D02*
X158154762Y-95505000D01*
X158154762Y-95505000D02*
X158059524Y-95409761D01*
X158059524Y-95409761D02*
X158011905Y-95314523D01*
X158011905Y-95314523D02*
X157964286Y-95124047D01*
X157964286Y-95124047D02*
X157964286Y-94981190D01*
X157964286Y-94981190D02*
X158011905Y-94790714D01*
X158011905Y-94790714D02*
X158059524Y-94695476D01*
X158059524Y-94695476D02*
X158154762Y-94600238D01*
X158154762Y-94600238D02*
X158297619Y-94552619D01*
X158297619Y-94552619D02*
X158392857Y-94552619D01*
X158392857Y-94552619D02*
X158535714Y-94600238D01*
X158535714Y-94600238D02*
X158583333Y-94647857D01*
X159488095Y-94552619D02*
X159011905Y-94552619D01*
X159011905Y-94552619D02*
X158964286Y-95028809D01*
X158964286Y-95028809D02*
X159011905Y-94981190D01*
X159011905Y-94981190D02*
X159107143Y-94933571D01*
X159107143Y-94933571D02*
X159345238Y-94933571D01*
X159345238Y-94933571D02*
X159440476Y-94981190D01*
X159440476Y-94981190D02*
X159488095Y-95028809D01*
X159488095Y-95028809D02*
X159535714Y-95124047D01*
X159535714Y-95124047D02*
X159535714Y-95362142D01*
X159535714Y-95362142D02*
X159488095Y-95457380D01*
X159488095Y-95457380D02*
X159440476Y-95505000D01*
X159440476Y-95505000D02*
X159345238Y-95552619D01*
X159345238Y-95552619D02*
X159107143Y-95552619D01*
X159107143Y-95552619D02*
X159011905Y-95505000D01*
X159011905Y-95505000D02*
X158964286Y-95457380D01*
D12*
%TO.C,IC3*%
X165179526Y-109443762D02*
X163909526Y-109443762D01*
X165058573Y-108113285D02*
X165119050Y-108173761D01*
X165119050Y-108173761D02*
X165179526Y-108355190D01*
X165179526Y-108355190D02*
X165179526Y-108476142D01*
X165179526Y-108476142D02*
X165119050Y-108657571D01*
X165119050Y-108657571D02*
X164998097Y-108778523D01*
X164998097Y-108778523D02*
X164877145Y-108839000D01*
X164877145Y-108839000D02*
X164635240Y-108899476D01*
X164635240Y-108899476D02*
X164453811Y-108899476D01*
X164453811Y-108899476D02*
X164211907Y-108839000D01*
X164211907Y-108839000D02*
X164090954Y-108778523D01*
X164090954Y-108778523D02*
X163970002Y-108657571D01*
X163970002Y-108657571D02*
X163909526Y-108476142D01*
X163909526Y-108476142D02*
X163909526Y-108355190D01*
X163909526Y-108355190D02*
X163970002Y-108173761D01*
X163970002Y-108173761D02*
X164030478Y-108113285D01*
X163909526Y-107689952D02*
X163909526Y-106903761D01*
X163909526Y-106903761D02*
X164393335Y-107327095D01*
X164393335Y-107327095D02*
X164393335Y-107145666D01*
X164393335Y-107145666D02*
X164453811Y-107024714D01*
X164453811Y-107024714D02*
X164514288Y-106964238D01*
X164514288Y-106964238D02*
X164635240Y-106903761D01*
X164635240Y-106903761D02*
X164937621Y-106903761D01*
X164937621Y-106903761D02*
X165058573Y-106964238D01*
X165058573Y-106964238D02*
X165119050Y-107024714D01*
X165119050Y-107024714D02*
X165179526Y-107145666D01*
X165179526Y-107145666D02*
X165179526Y-107508523D01*
X165179526Y-107508523D02*
X165119050Y-107629476D01*
X165119050Y-107629476D02*
X165058573Y-107689952D01*
%TO.C,U3*%
X156543526Y-102567619D02*
X157571621Y-102567619D01*
X157571621Y-102567619D02*
X157692573Y-102507142D01*
X157692573Y-102507142D02*
X157753050Y-102446666D01*
X157753050Y-102446666D02*
X157813526Y-102325714D01*
X157813526Y-102325714D02*
X157813526Y-102083809D01*
X157813526Y-102083809D02*
X157753050Y-101962857D01*
X157753050Y-101962857D02*
X157692573Y-101902380D01*
X157692573Y-101902380D02*
X157571621Y-101841904D01*
X157571621Y-101841904D02*
X156543526Y-101841904D01*
X156543526Y-101358095D02*
X156543526Y-100571904D01*
X156543526Y-100571904D02*
X157027335Y-100995238D01*
X157027335Y-100995238D02*
X157027335Y-100813809D01*
X157027335Y-100813809D02*
X157087811Y-100692857D01*
X157087811Y-100692857D02*
X157148288Y-100632381D01*
X157148288Y-100632381D02*
X157269240Y-100571904D01*
X157269240Y-100571904D02*
X157571621Y-100571904D01*
X157571621Y-100571904D02*
X157692573Y-100632381D01*
X157692573Y-100632381D02*
X157753050Y-100692857D01*
X157753050Y-100692857D02*
X157813526Y-100813809D01*
X157813526Y-100813809D02*
X157813526Y-101176666D01*
X157813526Y-101176666D02*
X157753050Y-101297619D01*
X157753050Y-101297619D02*
X157692573Y-101358095D01*
%TO.C,U2*%
X139732526Y-102567619D02*
X140760621Y-102567619D01*
X140760621Y-102567619D02*
X140881573Y-102507142D01*
X140881573Y-102507142D02*
X140942050Y-102446666D01*
X140942050Y-102446666D02*
X141002526Y-102325714D01*
X141002526Y-102325714D02*
X141002526Y-102083809D01*
X141002526Y-102083809D02*
X140942050Y-101962857D01*
X140942050Y-101962857D02*
X140881573Y-101902380D01*
X140881573Y-101902380D02*
X140760621Y-101841904D01*
X140760621Y-101841904D02*
X139732526Y-101841904D01*
X139853478Y-101297619D02*
X139793002Y-101237143D01*
X139793002Y-101237143D02*
X139732526Y-101116190D01*
X139732526Y-101116190D02*
X139732526Y-100813809D01*
X139732526Y-100813809D02*
X139793002Y-100692857D01*
X139793002Y-100692857D02*
X139853478Y-100632381D01*
X139853478Y-100632381D02*
X139974430Y-100571904D01*
X139974430Y-100571904D02*
X140095383Y-100571904D01*
X140095383Y-100571904D02*
X140276811Y-100632381D01*
X140276811Y-100632381D02*
X141002526Y-101358095D01*
X141002526Y-101358095D02*
X141002526Y-100571904D01*
D10*
%TO.C,J3*%
X101266666Y-92128619D02*
X101266666Y-92842904D01*
X101266666Y-92842904D02*
X101219047Y-92985761D01*
X101219047Y-92985761D02*
X101123809Y-93081000D01*
X101123809Y-93081000D02*
X100980952Y-93128619D01*
X100980952Y-93128619D02*
X100885714Y-93128619D01*
X101647619Y-92128619D02*
X102266666Y-92128619D01*
X102266666Y-92128619D02*
X101933333Y-92509571D01*
X101933333Y-92509571D02*
X102076190Y-92509571D01*
X102076190Y-92509571D02*
X102171428Y-92557190D01*
X102171428Y-92557190D02*
X102219047Y-92604809D01*
X102219047Y-92604809D02*
X102266666Y-92700047D01*
X102266666Y-92700047D02*
X102266666Y-92938142D01*
X102266666Y-92938142D02*
X102219047Y-93033380D01*
X102219047Y-93033380D02*
X102171428Y-93081000D01*
X102171428Y-93081000D02*
X102076190Y-93128619D01*
X102076190Y-93128619D02*
X101790476Y-93128619D01*
X101790476Y-93128619D02*
X101695238Y-93081000D01*
X101695238Y-93081000D02*
X101647619Y-93033380D01*
%TO.C,J1*%
X96439666Y-92128619D02*
X96439666Y-92842904D01*
X96439666Y-92842904D02*
X96392047Y-92985761D01*
X96392047Y-92985761D02*
X96296809Y-93081000D01*
X96296809Y-93081000D02*
X96153952Y-93128619D01*
X96153952Y-93128619D02*
X96058714Y-93128619D01*
X97439666Y-93128619D02*
X96868238Y-93128619D01*
X97153952Y-93128619D02*
X97153952Y-92128619D01*
X97153952Y-92128619D02*
X97058714Y-92271476D01*
X97058714Y-92271476D02*
X96963476Y-92366714D01*
X96963476Y-92366714D02*
X96868238Y-92414333D01*
%TO.C,C1*%
X125055333Y-95457380D02*
X125007714Y-95505000D01*
X125007714Y-95505000D02*
X124864857Y-95552619D01*
X124864857Y-95552619D02*
X124769619Y-95552619D01*
X124769619Y-95552619D02*
X124626762Y-95505000D01*
X124626762Y-95505000D02*
X124531524Y-95409761D01*
X124531524Y-95409761D02*
X124483905Y-95314523D01*
X124483905Y-95314523D02*
X124436286Y-95124047D01*
X124436286Y-95124047D02*
X124436286Y-94981190D01*
X124436286Y-94981190D02*
X124483905Y-94790714D01*
X124483905Y-94790714D02*
X124531524Y-94695476D01*
X124531524Y-94695476D02*
X124626762Y-94600238D01*
X124626762Y-94600238D02*
X124769619Y-94552619D01*
X124769619Y-94552619D02*
X124864857Y-94552619D01*
X124864857Y-94552619D02*
X125007714Y-94600238D01*
X125007714Y-94600238D02*
X125055333Y-94647857D01*
X126007714Y-95552619D02*
X125436286Y-95552619D01*
X125722000Y-95552619D02*
X125722000Y-94552619D01*
X125722000Y-94552619D02*
X125626762Y-94695476D01*
X125626762Y-94695476D02*
X125531524Y-94790714D01*
X125531524Y-94790714D02*
X125436286Y-94838333D01*
%TO.C,JP2*%
X108931666Y-102100619D02*
X108931666Y-102814904D01*
X108931666Y-102814904D02*
X108884047Y-102957761D01*
X108884047Y-102957761D02*
X108788809Y-103053000D01*
X108788809Y-103053000D02*
X108645952Y-103100619D01*
X108645952Y-103100619D02*
X108550714Y-103100619D01*
X109407857Y-103100619D02*
X109407857Y-102100619D01*
X109407857Y-102100619D02*
X109788809Y-102100619D01*
X109788809Y-102100619D02*
X109884047Y-102148238D01*
X109884047Y-102148238D02*
X109931666Y-102195857D01*
X109931666Y-102195857D02*
X109979285Y-102291095D01*
X109979285Y-102291095D02*
X109979285Y-102433952D01*
X109979285Y-102433952D02*
X109931666Y-102529190D01*
X109931666Y-102529190D02*
X109884047Y-102576809D01*
X109884047Y-102576809D02*
X109788809Y-102624428D01*
X109788809Y-102624428D02*
X109407857Y-102624428D01*
X110360238Y-102195857D02*
X110407857Y-102148238D01*
X110407857Y-102148238D02*
X110503095Y-102100619D01*
X110503095Y-102100619D02*
X110741190Y-102100619D01*
X110741190Y-102100619D02*
X110836428Y-102148238D01*
X110836428Y-102148238D02*
X110884047Y-102195857D01*
X110884047Y-102195857D02*
X110931666Y-102291095D01*
X110931666Y-102291095D02*
X110931666Y-102386333D01*
X110931666Y-102386333D02*
X110884047Y-102529190D01*
X110884047Y-102529190D02*
X110312619Y-103100619D01*
X110312619Y-103100619D02*
X110931666Y-103100619D01*
%TO.C,JP1*%
X108931666Y-108196619D02*
X108931666Y-108910904D01*
X108931666Y-108910904D02*
X108884047Y-109053761D01*
X108884047Y-109053761D02*
X108788809Y-109149000D01*
X108788809Y-109149000D02*
X108645952Y-109196619D01*
X108645952Y-109196619D02*
X108550714Y-109196619D01*
X109407857Y-109196619D02*
X109407857Y-108196619D01*
X109407857Y-108196619D02*
X109788809Y-108196619D01*
X109788809Y-108196619D02*
X109884047Y-108244238D01*
X109884047Y-108244238D02*
X109931666Y-108291857D01*
X109931666Y-108291857D02*
X109979285Y-108387095D01*
X109979285Y-108387095D02*
X109979285Y-108529952D01*
X109979285Y-108529952D02*
X109931666Y-108625190D01*
X109931666Y-108625190D02*
X109884047Y-108672809D01*
X109884047Y-108672809D02*
X109788809Y-108720428D01*
X109788809Y-108720428D02*
X109407857Y-108720428D01*
X110931666Y-109196619D02*
X110360238Y-109196619D01*
X110645952Y-109196619D02*
X110645952Y-108196619D01*
X110645952Y-108196619D02*
X110550714Y-108339476D01*
X110550714Y-108339476D02*
X110455476Y-108434714D01*
X110455476Y-108434714D02*
X110360238Y-108482333D01*
%TO.C,JP3*%
X108931666Y-96258619D02*
X108931666Y-96972904D01*
X108931666Y-96972904D02*
X108884047Y-97115761D01*
X108884047Y-97115761D02*
X108788809Y-97211000D01*
X108788809Y-97211000D02*
X108645952Y-97258619D01*
X108645952Y-97258619D02*
X108550714Y-97258619D01*
X109407857Y-97258619D02*
X109407857Y-96258619D01*
X109407857Y-96258619D02*
X109788809Y-96258619D01*
X109788809Y-96258619D02*
X109884047Y-96306238D01*
X109884047Y-96306238D02*
X109931666Y-96353857D01*
X109931666Y-96353857D02*
X109979285Y-96449095D01*
X109979285Y-96449095D02*
X109979285Y-96591952D01*
X109979285Y-96591952D02*
X109931666Y-96687190D01*
X109931666Y-96687190D02*
X109884047Y-96734809D01*
X109884047Y-96734809D02*
X109788809Y-96782428D01*
X109788809Y-96782428D02*
X109407857Y-96782428D01*
X110312619Y-96258619D02*
X110931666Y-96258619D01*
X110931666Y-96258619D02*
X110598333Y-96639571D01*
X110598333Y-96639571D02*
X110741190Y-96639571D01*
X110741190Y-96639571D02*
X110836428Y-96687190D01*
X110836428Y-96687190D02*
X110884047Y-96734809D01*
X110884047Y-96734809D02*
X110931666Y-96830047D01*
X110931666Y-96830047D02*
X110931666Y-97068142D01*
X110931666Y-97068142D02*
X110884047Y-97163380D01*
X110884047Y-97163380D02*
X110836428Y-97211000D01*
X110836428Y-97211000D02*
X110741190Y-97258619D01*
X110741190Y-97258619D02*
X110455476Y-97258619D01*
X110455476Y-97258619D02*
X110360238Y-97211000D01*
X110360238Y-97211000D02*
X110312619Y-97163380D01*
D13*
%TO.C,U1*%
X123618000Y-109600000D02*
X123618000Y-109600000D01*
X115018000Y-101600000D02*
X115018000Y-101600000D01*
X115018000Y-101600000D02*
X115018000Y-101600000D01*
X115118000Y-101600000D02*
X115118000Y-101600000D01*
X123618000Y-93600000D02*
X123618000Y-93600000D01*
X123618000Y-93600000D02*
G75*
G03*
X123618000Y-109600000I0J-8000000D01*
G01*
X115118000Y-101600000D02*
G75*
G03*
X115018000Y-101600000I-50000J0D01*
G01*
X115018000Y-101600000D02*
G75*
G03*
X115118000Y-101600000I50000J0D01*
G01*
X115018000Y-101600000D02*
G75*
G03*
X115118000Y-101600000I50000J0D01*
G01*
X123618000Y-109600000D02*
G75*
G03*
X123618000Y-93600000I0J8000000D01*
G01*
%TO.C,IC1*%
X121013000Y-105075000D02*
X121013000Y-103550000D01*
X121168000Y-103200000D02*
X121168000Y-100000000D01*
X126068000Y-103200000D02*
X121168000Y-103200000D01*
X121168000Y-100000000D02*
X126068000Y-100000000D01*
X126068000Y-100000000D02*
X126068000Y-103200000D01*
D14*
%TO.C,C2*%
X167105000Y-94480748D02*
X167105000Y-95003252D01*
X165635000Y-94480748D02*
X165635000Y-95003252D01*
D13*
%TO.C,IC2*%
X137857000Y-105075000D02*
X137857000Y-103550000D01*
X138012000Y-103200000D02*
X138012000Y-100000000D01*
X142912000Y-103200000D02*
X138012000Y-103200000D01*
X138012000Y-100000000D02*
X142912000Y-100000000D01*
X142912000Y-100000000D02*
X142912000Y-103200000D01*
D14*
%TO.C,REF\u002A\u002A*%
X186630000Y-96266000D02*
X186630000Y-109026000D01*
X186630000Y-96266000D02*
X189290000Y-96266000D01*
X186630000Y-109026000D02*
X189290000Y-109026000D01*
X187960000Y-93666000D02*
X189290000Y-93666000D01*
X189290000Y-93666000D02*
X189290000Y-94996000D01*
X189290000Y-96266000D02*
X189290000Y-109026000D01*
%TO.C,C3*%
X141712733Y-96010000D02*
X142005267Y-96010000D01*
X141712733Y-97030000D02*
X142005267Y-97030000D01*
%TO.C,J2*%
X170814000Y-97832000D02*
X171214000Y-97832000D01*
X170814000Y-100282000D02*
X170814000Y-97832000D01*
X170814000Y-110532000D02*
X170814000Y-106982000D01*
X171214000Y-95832000D02*
X174214000Y-95832000D01*
X171214000Y-97832000D02*
X171214000Y-95832000D01*
X174224000Y-92192000D02*
X175964000Y-92192000D01*
X174224000Y-93932000D02*
X174224000Y-92192000D01*
X178014000Y-95832000D02*
X179614000Y-95832000D01*
X179614000Y-95832000D02*
X179614000Y-97832000D01*
X179614000Y-97832000D02*
X180014000Y-97832000D01*
X180014000Y-97832000D02*
X180014000Y-100282000D01*
X180014000Y-106982000D02*
X180014000Y-110532000D01*
X180014000Y-110532000D02*
X170814000Y-110532000D01*
%TO.C,C5*%
X158603733Y-96010000D02*
X158896267Y-96010000D01*
X158603733Y-97030000D02*
X158896267Y-97030000D01*
D13*
%TO.C,IC3*%
X154621000Y-105075000D02*
X154621000Y-103550000D01*
X154776000Y-103200000D02*
X154776000Y-100000000D01*
X159676000Y-103200000D02*
X154776000Y-103200000D01*
X154776000Y-100000000D02*
X159676000Y-100000000D01*
X159676000Y-100000000D02*
X159676000Y-103200000D01*
%TO.C,U3*%
X157226000Y-109600000D02*
X157226000Y-109600000D01*
X148626000Y-101600000D02*
X148626000Y-101600000D01*
X148626000Y-101600000D02*
X148626000Y-101600000D01*
X148726000Y-101600000D02*
X148726000Y-101600000D01*
X157226000Y-93600000D02*
X157226000Y-93600000D01*
X157226000Y-93600000D02*
G75*
G03*
X157226000Y-109600000I0J-8000000D01*
G01*
X148726000Y-101600000D02*
G75*
G03*
X148626000Y-101600000I-50000J0D01*
G01*
X148626000Y-101600000D02*
G75*
G03*
X148726000Y-101600000I50000J0D01*
G01*
X148626000Y-101600000D02*
G75*
G03*
X148726000Y-101600000I50000J0D01*
G01*
X157226000Y-109600000D02*
G75*
G03*
X157226000Y-93600000I0J8000000D01*
G01*
%TO.C,U2*%
X140415000Y-109600000D02*
X140415000Y-109600000D01*
X131815000Y-101600000D02*
X131815000Y-101600000D01*
X131815000Y-101600000D02*
X131815000Y-101600000D01*
X131915000Y-101600000D02*
X131915000Y-101600000D01*
X140415000Y-93600000D02*
X140415000Y-93600000D01*
X140415000Y-93600000D02*
G75*
G03*
X140415000Y-109600000I0J-8000000D01*
G01*
X131915000Y-101600000D02*
G75*
G03*
X131815000Y-101600000I-50000J0D01*
G01*
X131815000Y-101600000D02*
G75*
G03*
X131915000Y-101600000I50000J0D01*
G01*
X131815000Y-101600000D02*
G75*
G03*
X131915000Y-101600000I50000J0D01*
G01*
X140415000Y-109600000D02*
G75*
G03*
X140415000Y-93600000I0J8000000D01*
G01*
D14*
%TO.C,J3*%
X100270000Y-93666000D02*
X101600000Y-93666000D01*
X100270000Y-94996000D02*
X100270000Y-93666000D01*
X100270000Y-96266000D02*
X100270000Y-101406000D01*
X100270000Y-96266000D02*
X102930000Y-96266000D01*
X100270000Y-101406000D02*
X102930000Y-101406000D01*
X102930000Y-96266000D02*
X102930000Y-101406000D01*
%TO.C,J1*%
X94173000Y-93666000D02*
X95503000Y-93666000D01*
X94173000Y-94996000D02*
X94173000Y-93666000D01*
X94173000Y-96266000D02*
X94173000Y-109026000D01*
X94173000Y-96266000D02*
X96773000Y-96266000D01*
X94173000Y-109026000D02*
X99373000Y-109026000D01*
X96773000Y-93666000D02*
X99373000Y-93666000D01*
X96773000Y-96266000D02*
X96773000Y-93666000D01*
X99373000Y-93666000D02*
X99373000Y-109026000D01*
%TO.C,C1*%
X125075733Y-96010000D02*
X125368267Y-96010000D01*
X125075733Y-97030000D02*
X125368267Y-97030000D01*
%TO.C,JP2*%
X111165000Y-101838000D02*
X108365000Y-101838000D01*
X111165000Y-99838000D02*
X111165000Y-101838000D01*
X108365000Y-101838000D02*
X108365000Y-99838000D01*
X108365000Y-99838000D02*
X111165000Y-99838000D01*
%TO.C,JP1*%
X111165000Y-107934000D02*
X108365000Y-107934000D01*
X111165000Y-105934000D02*
X111165000Y-107934000D01*
X108365000Y-107934000D02*
X108365000Y-105934000D01*
X108365000Y-105934000D02*
X111165000Y-105934000D01*
%TO.C,JP3*%
X111165000Y-95996000D02*
X108365000Y-95996000D01*
X111165000Y-93996000D02*
X111165000Y-95996000D01*
X108365000Y-95996000D02*
X108365000Y-93996000D01*
X108365000Y-93996000D02*
X111165000Y-93996000D01*
%TD*%
M02*
