%TF.GenerationSoftware,KiCad,Pcbnew,7.0.2*%
%TF.CreationDate,2023-10-28T17:31:33+09:00*%
%TF.ProjectId,Pmod_US_Speaker,506d6f64-5f55-4535-9f53-7065616b6572,rev?*%
%TF.SameCoordinates,Original*%
%TF.FileFunction,Legend,Bot*%
%TF.FilePolarity,Positive*%
%FSLAX46Y46*%
G04 Gerber Fmt 4.6, Leading zero omitted, Abs format (unit mm)*
G04 Created by KiCad (PCBNEW 7.0.2) date 2023-10-28 17:31:33*
%MOMM*%
%LPD*%
G01*
G04 APERTURE LIST*
%ADD10C,0.150000*%
G04 APERTURE END LIST*
D10*
X148066190Y-98254952D02*
X148304285Y-98254952D01*
X148304285Y-98254952D02*
X148304285Y-96826380D01*
X148304285Y-96826380D02*
X148066190Y-96826380D01*
X146923332Y-97921619D02*
X146923332Y-96921619D01*
X145875714Y-97921619D02*
X146209047Y-97445428D01*
X146447142Y-97921619D02*
X146447142Y-96921619D01*
X146447142Y-96921619D02*
X146066190Y-96921619D01*
X146066190Y-96921619D02*
X145970952Y-96969238D01*
X145970952Y-96969238D02*
X145923333Y-97016857D01*
X145923333Y-97016857D02*
X145875714Y-97112095D01*
X145875714Y-97112095D02*
X145875714Y-97254952D01*
X145875714Y-97254952D02*
X145923333Y-97350190D01*
X145923333Y-97350190D02*
X145970952Y-97397809D01*
X145970952Y-97397809D02*
X146066190Y-97445428D01*
X146066190Y-97445428D02*
X146447142Y-97445428D01*
X145018571Y-97254952D02*
X145018571Y-97921619D01*
X145256666Y-96874000D02*
X145494761Y-97588285D01*
X145494761Y-97588285D02*
X144875714Y-97588285D01*
X144066190Y-97254952D02*
X144066190Y-97921619D01*
X144304285Y-96874000D02*
X144542380Y-97588285D01*
X144542380Y-97588285D02*
X143923333Y-97588285D01*
X143589999Y-97016857D02*
X143542380Y-96969238D01*
X143542380Y-96969238D02*
X143447142Y-96921619D01*
X143447142Y-96921619D02*
X143209047Y-96921619D01*
X143209047Y-96921619D02*
X143113809Y-96969238D01*
X143113809Y-96969238D02*
X143066190Y-97016857D01*
X143066190Y-97016857D02*
X143018571Y-97112095D01*
X143018571Y-97112095D02*
X143018571Y-97207333D01*
X143018571Y-97207333D02*
X143066190Y-97350190D01*
X143066190Y-97350190D02*
X143637618Y-97921619D01*
X143637618Y-97921619D02*
X143018571Y-97921619D01*
X142685237Y-96921619D02*
X142018571Y-96921619D01*
X142018571Y-96921619D02*
X142447142Y-97921619D01*
X140161428Y-96874000D02*
X141018570Y-98159714D01*
X139066189Y-97921619D02*
X139066189Y-96921619D01*
X138018571Y-97921619D02*
X138351904Y-97445428D01*
X138589999Y-97921619D02*
X138589999Y-96921619D01*
X138589999Y-96921619D02*
X138209047Y-96921619D01*
X138209047Y-96921619D02*
X138113809Y-96969238D01*
X138113809Y-96969238D02*
X138066190Y-97016857D01*
X138066190Y-97016857D02*
X138018571Y-97112095D01*
X138018571Y-97112095D02*
X138018571Y-97254952D01*
X138018571Y-97254952D02*
X138066190Y-97350190D01*
X138066190Y-97350190D02*
X138113809Y-97397809D01*
X138113809Y-97397809D02*
X138209047Y-97445428D01*
X138209047Y-97445428D02*
X138589999Y-97445428D01*
X137161428Y-97254952D02*
X137161428Y-97921619D01*
X137399523Y-96874000D02*
X137637618Y-97588285D01*
X137637618Y-97588285D02*
X137018571Y-97588285D01*
X136209047Y-97254952D02*
X136209047Y-97921619D01*
X136447142Y-96874000D02*
X136685237Y-97588285D01*
X136685237Y-97588285D02*
X136066190Y-97588285D01*
X135732856Y-97016857D02*
X135685237Y-96969238D01*
X135685237Y-96969238D02*
X135589999Y-96921619D01*
X135589999Y-96921619D02*
X135351904Y-96921619D01*
X135351904Y-96921619D02*
X135256666Y-96969238D01*
X135256666Y-96969238D02*
X135209047Y-97016857D01*
X135209047Y-97016857D02*
X135161428Y-97112095D01*
X135161428Y-97112095D02*
X135161428Y-97207333D01*
X135161428Y-97207333D02*
X135209047Y-97350190D01*
X135209047Y-97350190D02*
X135780475Y-97921619D01*
X135780475Y-97921619D02*
X135161428Y-97921619D01*
X134589999Y-97350190D02*
X134685237Y-97302571D01*
X134685237Y-97302571D02*
X134732856Y-97254952D01*
X134732856Y-97254952D02*
X134780475Y-97159714D01*
X134780475Y-97159714D02*
X134780475Y-97112095D01*
X134780475Y-97112095D02*
X134732856Y-97016857D01*
X134732856Y-97016857D02*
X134685237Y-96969238D01*
X134685237Y-96969238D02*
X134589999Y-96921619D01*
X134589999Y-96921619D02*
X134399523Y-96921619D01*
X134399523Y-96921619D02*
X134304285Y-96969238D01*
X134304285Y-96969238D02*
X134256666Y-97016857D01*
X134256666Y-97016857D02*
X134209047Y-97112095D01*
X134209047Y-97112095D02*
X134209047Y-97159714D01*
X134209047Y-97159714D02*
X134256666Y-97254952D01*
X134256666Y-97254952D02*
X134304285Y-97302571D01*
X134304285Y-97302571D02*
X134399523Y-97350190D01*
X134399523Y-97350190D02*
X134589999Y-97350190D01*
X134589999Y-97350190D02*
X134685237Y-97397809D01*
X134685237Y-97397809D02*
X134732856Y-97445428D01*
X134732856Y-97445428D02*
X134780475Y-97540666D01*
X134780475Y-97540666D02*
X134780475Y-97731142D01*
X134780475Y-97731142D02*
X134732856Y-97826380D01*
X134732856Y-97826380D02*
X134685237Y-97874000D01*
X134685237Y-97874000D02*
X134589999Y-97921619D01*
X134589999Y-97921619D02*
X134399523Y-97921619D01*
X134399523Y-97921619D02*
X134304285Y-97874000D01*
X134304285Y-97874000D02*
X134256666Y-97826380D01*
X134256666Y-97826380D02*
X134209047Y-97731142D01*
X134209047Y-97731142D02*
X134209047Y-97540666D01*
X134209047Y-97540666D02*
X134256666Y-97445428D01*
X134256666Y-97445428D02*
X134304285Y-97397809D01*
X134304285Y-97397809D02*
X134399523Y-97350190D01*
X133113808Y-98254952D02*
X132875713Y-98254952D01*
X132875713Y-98254952D02*
X132875713Y-96826380D01*
X132875713Y-96826380D02*
X133113808Y-96826380D01*
X130794190Y-98254952D02*
X131032285Y-98254952D01*
X131032285Y-98254952D02*
X131032285Y-96826380D01*
X131032285Y-96826380D02*
X130794190Y-96826380D01*
X129651332Y-97921619D02*
X129651332Y-96921619D01*
X128603714Y-97921619D02*
X128937047Y-97445428D01*
X129175142Y-97921619D02*
X129175142Y-96921619D01*
X129175142Y-96921619D02*
X128794190Y-96921619D01*
X128794190Y-96921619D02*
X128698952Y-96969238D01*
X128698952Y-96969238D02*
X128651333Y-97016857D01*
X128651333Y-97016857D02*
X128603714Y-97112095D01*
X128603714Y-97112095D02*
X128603714Y-97254952D01*
X128603714Y-97254952D02*
X128651333Y-97350190D01*
X128651333Y-97350190D02*
X128698952Y-97397809D01*
X128698952Y-97397809D02*
X128794190Y-97445428D01*
X128794190Y-97445428D02*
X129175142Y-97445428D01*
X127746571Y-97254952D02*
X127746571Y-97921619D01*
X127984666Y-96874000D02*
X128222761Y-97588285D01*
X128222761Y-97588285D02*
X127603714Y-97588285D01*
X126794190Y-97254952D02*
X126794190Y-97921619D01*
X127032285Y-96874000D02*
X127270380Y-97588285D01*
X127270380Y-97588285D02*
X126651333Y-97588285D01*
X126317999Y-97016857D02*
X126270380Y-96969238D01*
X126270380Y-96969238D02*
X126175142Y-96921619D01*
X126175142Y-96921619D02*
X125937047Y-96921619D01*
X125937047Y-96921619D02*
X125841809Y-96969238D01*
X125841809Y-96969238D02*
X125794190Y-97016857D01*
X125794190Y-97016857D02*
X125746571Y-97112095D01*
X125746571Y-97112095D02*
X125746571Y-97207333D01*
X125746571Y-97207333D02*
X125794190Y-97350190D01*
X125794190Y-97350190D02*
X126365618Y-97921619D01*
X126365618Y-97921619D02*
X125746571Y-97921619D01*
X125413237Y-96921619D02*
X124746571Y-96921619D01*
X124746571Y-96921619D02*
X125175142Y-97921619D01*
X122889428Y-96874000D02*
X123746570Y-98159714D01*
X121794189Y-97921619D02*
X121794189Y-96921619D01*
X120746571Y-97921619D02*
X121079904Y-97445428D01*
X121317999Y-97921619D02*
X121317999Y-96921619D01*
X121317999Y-96921619D02*
X120937047Y-96921619D01*
X120937047Y-96921619D02*
X120841809Y-96969238D01*
X120841809Y-96969238D02*
X120794190Y-97016857D01*
X120794190Y-97016857D02*
X120746571Y-97112095D01*
X120746571Y-97112095D02*
X120746571Y-97254952D01*
X120746571Y-97254952D02*
X120794190Y-97350190D01*
X120794190Y-97350190D02*
X120841809Y-97397809D01*
X120841809Y-97397809D02*
X120937047Y-97445428D01*
X120937047Y-97445428D02*
X121317999Y-97445428D01*
X119889428Y-97254952D02*
X119889428Y-97921619D01*
X120127523Y-96874000D02*
X120365618Y-97588285D01*
X120365618Y-97588285D02*
X119746571Y-97588285D01*
X118937047Y-97254952D02*
X118937047Y-97921619D01*
X119175142Y-96874000D02*
X119413237Y-97588285D01*
X119413237Y-97588285D02*
X118794190Y-97588285D01*
X118460856Y-97016857D02*
X118413237Y-96969238D01*
X118413237Y-96969238D02*
X118317999Y-96921619D01*
X118317999Y-96921619D02*
X118079904Y-96921619D01*
X118079904Y-96921619D02*
X117984666Y-96969238D01*
X117984666Y-96969238D02*
X117937047Y-97016857D01*
X117937047Y-97016857D02*
X117889428Y-97112095D01*
X117889428Y-97112095D02*
X117889428Y-97207333D01*
X117889428Y-97207333D02*
X117937047Y-97350190D01*
X117937047Y-97350190D02*
X118508475Y-97921619D01*
X118508475Y-97921619D02*
X117889428Y-97921619D01*
X117317999Y-97350190D02*
X117413237Y-97302571D01*
X117413237Y-97302571D02*
X117460856Y-97254952D01*
X117460856Y-97254952D02*
X117508475Y-97159714D01*
X117508475Y-97159714D02*
X117508475Y-97112095D01*
X117508475Y-97112095D02*
X117460856Y-97016857D01*
X117460856Y-97016857D02*
X117413237Y-96969238D01*
X117413237Y-96969238D02*
X117317999Y-96921619D01*
X117317999Y-96921619D02*
X117127523Y-96921619D01*
X117127523Y-96921619D02*
X117032285Y-96969238D01*
X117032285Y-96969238D02*
X116984666Y-97016857D01*
X116984666Y-97016857D02*
X116937047Y-97112095D01*
X116937047Y-97112095D02*
X116937047Y-97159714D01*
X116937047Y-97159714D02*
X116984666Y-97254952D01*
X116984666Y-97254952D02*
X117032285Y-97302571D01*
X117032285Y-97302571D02*
X117127523Y-97350190D01*
X117127523Y-97350190D02*
X117317999Y-97350190D01*
X117317999Y-97350190D02*
X117413237Y-97397809D01*
X117413237Y-97397809D02*
X117460856Y-97445428D01*
X117460856Y-97445428D02*
X117508475Y-97540666D01*
X117508475Y-97540666D02*
X117508475Y-97731142D01*
X117508475Y-97731142D02*
X117460856Y-97826380D01*
X117460856Y-97826380D02*
X117413237Y-97874000D01*
X117413237Y-97874000D02*
X117317999Y-97921619D01*
X117317999Y-97921619D02*
X117127523Y-97921619D01*
X117127523Y-97921619D02*
X117032285Y-97874000D01*
X117032285Y-97874000D02*
X116984666Y-97826380D01*
X116984666Y-97826380D02*
X116937047Y-97731142D01*
X116937047Y-97731142D02*
X116937047Y-97540666D01*
X116937047Y-97540666D02*
X116984666Y-97445428D01*
X116984666Y-97445428D02*
X117032285Y-97397809D01*
X117032285Y-97397809D02*
X117127523Y-97350190D01*
X115841808Y-98254952D02*
X115603713Y-98254952D01*
X115603713Y-98254952D02*
X115603713Y-96826380D01*
X115603713Y-96826380D02*
X115841808Y-96826380D01*
X164830190Y-98254952D02*
X165068285Y-98254952D01*
X165068285Y-98254952D02*
X165068285Y-96826380D01*
X165068285Y-96826380D02*
X164830190Y-96826380D01*
X163687332Y-97921619D02*
X163687332Y-96921619D01*
X162639714Y-97921619D02*
X162973047Y-97445428D01*
X163211142Y-97921619D02*
X163211142Y-96921619D01*
X163211142Y-96921619D02*
X162830190Y-96921619D01*
X162830190Y-96921619D02*
X162734952Y-96969238D01*
X162734952Y-96969238D02*
X162687333Y-97016857D01*
X162687333Y-97016857D02*
X162639714Y-97112095D01*
X162639714Y-97112095D02*
X162639714Y-97254952D01*
X162639714Y-97254952D02*
X162687333Y-97350190D01*
X162687333Y-97350190D02*
X162734952Y-97397809D01*
X162734952Y-97397809D02*
X162830190Y-97445428D01*
X162830190Y-97445428D02*
X163211142Y-97445428D01*
X161782571Y-97254952D02*
X161782571Y-97921619D01*
X162020666Y-96874000D02*
X162258761Y-97588285D01*
X162258761Y-97588285D02*
X161639714Y-97588285D01*
X160830190Y-97254952D02*
X160830190Y-97921619D01*
X161068285Y-96874000D02*
X161306380Y-97588285D01*
X161306380Y-97588285D02*
X160687333Y-97588285D01*
X160353999Y-97016857D02*
X160306380Y-96969238D01*
X160306380Y-96969238D02*
X160211142Y-96921619D01*
X160211142Y-96921619D02*
X159973047Y-96921619D01*
X159973047Y-96921619D02*
X159877809Y-96969238D01*
X159877809Y-96969238D02*
X159830190Y-97016857D01*
X159830190Y-97016857D02*
X159782571Y-97112095D01*
X159782571Y-97112095D02*
X159782571Y-97207333D01*
X159782571Y-97207333D02*
X159830190Y-97350190D01*
X159830190Y-97350190D02*
X160401618Y-97921619D01*
X160401618Y-97921619D02*
X159782571Y-97921619D01*
X159449237Y-96921619D02*
X158782571Y-96921619D01*
X158782571Y-96921619D02*
X159211142Y-97921619D01*
X156925428Y-96874000D02*
X157782570Y-98159714D01*
X155830189Y-97921619D02*
X155830189Y-96921619D01*
X154782571Y-97921619D02*
X155115904Y-97445428D01*
X155353999Y-97921619D02*
X155353999Y-96921619D01*
X155353999Y-96921619D02*
X154973047Y-96921619D01*
X154973047Y-96921619D02*
X154877809Y-96969238D01*
X154877809Y-96969238D02*
X154830190Y-97016857D01*
X154830190Y-97016857D02*
X154782571Y-97112095D01*
X154782571Y-97112095D02*
X154782571Y-97254952D01*
X154782571Y-97254952D02*
X154830190Y-97350190D01*
X154830190Y-97350190D02*
X154877809Y-97397809D01*
X154877809Y-97397809D02*
X154973047Y-97445428D01*
X154973047Y-97445428D02*
X155353999Y-97445428D01*
X153925428Y-97254952D02*
X153925428Y-97921619D01*
X154163523Y-96874000D02*
X154401618Y-97588285D01*
X154401618Y-97588285D02*
X153782571Y-97588285D01*
X152973047Y-97254952D02*
X152973047Y-97921619D01*
X153211142Y-96874000D02*
X153449237Y-97588285D01*
X153449237Y-97588285D02*
X152830190Y-97588285D01*
X152496856Y-97016857D02*
X152449237Y-96969238D01*
X152449237Y-96969238D02*
X152353999Y-96921619D01*
X152353999Y-96921619D02*
X152115904Y-96921619D01*
X152115904Y-96921619D02*
X152020666Y-96969238D01*
X152020666Y-96969238D02*
X151973047Y-97016857D01*
X151973047Y-97016857D02*
X151925428Y-97112095D01*
X151925428Y-97112095D02*
X151925428Y-97207333D01*
X151925428Y-97207333D02*
X151973047Y-97350190D01*
X151973047Y-97350190D02*
X152544475Y-97921619D01*
X152544475Y-97921619D02*
X151925428Y-97921619D01*
X151353999Y-97350190D02*
X151449237Y-97302571D01*
X151449237Y-97302571D02*
X151496856Y-97254952D01*
X151496856Y-97254952D02*
X151544475Y-97159714D01*
X151544475Y-97159714D02*
X151544475Y-97112095D01*
X151544475Y-97112095D02*
X151496856Y-97016857D01*
X151496856Y-97016857D02*
X151449237Y-96969238D01*
X151449237Y-96969238D02*
X151353999Y-96921619D01*
X151353999Y-96921619D02*
X151163523Y-96921619D01*
X151163523Y-96921619D02*
X151068285Y-96969238D01*
X151068285Y-96969238D02*
X151020666Y-97016857D01*
X151020666Y-97016857D02*
X150973047Y-97112095D01*
X150973047Y-97112095D02*
X150973047Y-97159714D01*
X150973047Y-97159714D02*
X151020666Y-97254952D01*
X151020666Y-97254952D02*
X151068285Y-97302571D01*
X151068285Y-97302571D02*
X151163523Y-97350190D01*
X151163523Y-97350190D02*
X151353999Y-97350190D01*
X151353999Y-97350190D02*
X151449237Y-97397809D01*
X151449237Y-97397809D02*
X151496856Y-97445428D01*
X151496856Y-97445428D02*
X151544475Y-97540666D01*
X151544475Y-97540666D02*
X151544475Y-97731142D01*
X151544475Y-97731142D02*
X151496856Y-97826380D01*
X151496856Y-97826380D02*
X151449237Y-97874000D01*
X151449237Y-97874000D02*
X151353999Y-97921619D01*
X151353999Y-97921619D02*
X151163523Y-97921619D01*
X151163523Y-97921619D02*
X151068285Y-97874000D01*
X151068285Y-97874000D02*
X151020666Y-97826380D01*
X151020666Y-97826380D02*
X150973047Y-97731142D01*
X150973047Y-97731142D02*
X150973047Y-97540666D01*
X150973047Y-97540666D02*
X151020666Y-97445428D01*
X151020666Y-97445428D02*
X151068285Y-97397809D01*
X151068285Y-97397809D02*
X151163523Y-97350190D01*
X149877808Y-98254952D02*
X149639713Y-98254952D01*
X149639713Y-98254952D02*
X149639713Y-96826380D01*
X149639713Y-96826380D02*
X149877808Y-96826380D01*
M02*
