M48
; DRILL file {KiCad 7.0.2} date Sun Jun 18 21:37:34 2023
; FORMAT={-:-/ absolute / inch / decimal}
; #@! TF.CreationDate,2023-06-18T21:37:34+09:00
; #@! TF.GenerationSoftware,Kicad,Pcbnew,7.0.2
; #@! TF.FileFunction,NonPlated,1,2,NPTH
FMAT,2
INCH
; #@! TA.AperFunction,NonPlated,NPTH,ComponentDrill
T1C0.0394
%
G90
G05
T1
X4.2101Y-0.9843
X4.2101Y-4.4437
X4.2757Y-0.9843
X4.2757Y-4.4437
X4.365Y-1.3015
X4.365Y-1.3566
X4.365Y-1.4118
X4.365Y-1.4669
X4.365Y-2.1881
X4.365Y-2.2432
X4.365Y-2.2983
X4.365Y-2.3534
X4.365Y-3.0746
X4.365Y-3.1297
X4.365Y-3.1848
X4.365Y-3.2399
X4.365Y-3.9611
X4.365Y-4.0162
X4.365Y-4.0713
X4.365Y-4.1265
X4.3807Y-0.8136
X4.3807Y-0.8793
X4.3807Y-4.5487
X4.3807Y-4.6143
X5.7283Y-0.9686
X5.7283Y-1.7999
X5.7283Y-1.8551
X5.7283Y-2.6864
X5.7283Y-2.7416
X5.7283Y-3.573
X5.7283Y-3.6282
X5.7283Y-4.4595
X5.7874Y-0.9686
X5.7874Y-1.7999
X5.7874Y-1.8551
X5.7874Y-2.6864
X5.7874Y-2.7416
X5.7874Y-3.573
X5.7874Y-3.6282
X5.7874Y-4.4595
X5.8465Y-0.9686
X5.8465Y-1.7999
X5.8465Y-1.8551
X5.8465Y-2.6864
X5.8465Y-2.7416
X5.8465Y-3.573
X5.8465Y-3.6282
X5.8465Y-4.4595
X5.9055Y-0.9686
X5.9055Y-1.7999
X5.9055Y-1.8551
X5.9055Y-2.6864
X5.9055Y-2.7416
X5.9055Y-3.573
X5.9055Y-3.6282
X5.9055Y-4.4595
X5.9646Y-0.9686
X5.9646Y-1.7999
X5.9646Y-1.8551
X5.9646Y-2.6864
X5.9646Y-2.7416
X5.9646Y-3.573
X5.9646Y-3.6282
X5.9646Y-4.4595
X7.3122Y-0.8136
X7.3122Y-0.8793
X7.3122Y-4.5487
X7.3122Y-4.6143
X7.3279Y-1.3015
X7.3279Y-2.1881
X7.3279Y-3.0746
X7.3279Y-3.9611
X7.3279Y-1.3566
X7.3279Y-2.2432
X7.3279Y-3.1297
X7.3279Y-4.0162
X7.3279Y-1.4118
X7.3279Y-2.2983
X7.3279Y-3.1848
X7.3279Y-4.0713
X7.3279Y-1.4669
X7.3279Y-2.3534
X7.3279Y-3.2399
X7.3279Y-4.1265
X7.4172Y-0.9843
X7.4172Y-4.4437
X7.4828Y-0.9843
X7.4828Y-4.4437
T0
M30
