M48
; DRILL file {KiCad 7.0.2} date Thu Jun  1 00:55:01 2023
; FORMAT={-:-/ absolute / inch / decimal}
; #@! TF.CreationDate,2023-06-01T00:55:01+09:00
; #@! TF.GenerationSoftware,Kicad,Pcbnew,7.0.2
; #@! TF.FileFunction,Plated,1,2,PTH
FMAT,2
INCH
; #@! TA.AperFunction,Plated,PTH,ViaDrill
T1C0.0157
; #@! TA.AperFunction,Plated,PTH,ComponentDrill
T2C0.0315
; #@! TA.AperFunction,Plated,PTH,ComponentDrill
T3C0.0394
; #@! TA.AperFunction,Plated,PTH,ComponentDrill
T4C0.0500
%
G90
G05
T1
X5.9139Y-1.754
X5.9139Y-2.6326
X5.9139Y-3.5113
X5.9139Y-4.3899
X6.0689Y-1.754
X6.0689Y-2.6326
X6.0689Y-3.5113
X6.0689Y-4.3899
X6.5589Y-1.209
X6.5589Y-2.0876
X6.5589Y-2.9663
X6.5589Y-3.8449
T2
X4.6689Y-1.119
X4.6689Y-1.419
X4.6689Y-1.9976
X4.6689Y-2.2976
X4.6689Y-2.8763
X4.6689Y-3.1763
X4.6689Y-3.7549
X4.6689Y-4.0549
X4.7689Y-1.119
X4.7689Y-1.419
X4.7689Y-1.9976
X4.7689Y-2.2976
X4.7689Y-2.8763
X4.7689Y-3.1763
X4.7689Y-3.7549
X4.7689Y-4.0549
X4.8689Y-1.119
X4.8689Y-1.419
X4.8689Y-1.9976
X4.8689Y-2.2976
X4.8689Y-2.8763
X4.8689Y-3.1763
X4.8689Y-3.7549
X4.8689Y-4.0549
X4.9689Y-1.119
X4.9689Y-1.419
X4.9689Y-1.9976
X4.9689Y-2.2976
X4.9689Y-2.8763
X4.9689Y-3.1763
X4.9689Y-3.7549
X4.9689Y-4.0549
X5.0689Y-1.119
X5.0689Y-1.419
X5.0689Y-1.9976
X5.0689Y-2.2976
X5.0689Y-2.8763
X5.0689Y-3.1763
X5.0689Y-3.7549
X5.0689Y-4.0549
X5.1689Y-1.119
X5.1689Y-1.419
X5.1689Y-1.9976
X5.1689Y-2.2976
X5.1689Y-2.8763
X5.1689Y-3.1763
X5.1689Y-3.7549
X5.1689Y-4.0549
X5.2689Y-1.119
X5.2689Y-1.419
X5.2689Y-1.9976
X5.2689Y-2.2976
X5.2689Y-2.8763
X5.2689Y-3.1763
X5.2689Y-3.7549
X5.2689Y-4.0549
X5.3689Y-1.119
X5.3689Y-1.419
X5.3689Y-1.9976
X5.3689Y-2.2976
X5.3689Y-2.8763
X5.3689Y-3.1763
X5.3689Y-3.7549
X5.3689Y-4.0549
T3
X4.5439Y-1.174
X4.5439Y-1.274
X4.5439Y-1.374
X4.5439Y-1.474
X4.5439Y-1.574
X4.5439Y-1.674
X4.5439Y-2.0526
X4.5439Y-2.1526
X4.5439Y-2.2526
X4.5439Y-2.3526
X4.5439Y-2.4526
X4.5439Y-2.5526
X4.5439Y-2.9313
X4.5439Y-3.0313
X4.5439Y-3.1313
X4.5439Y-3.2313
X4.5439Y-3.3313
X4.5439Y-3.4313
X4.5439Y-3.8099
X4.5439Y-3.9099
X4.5439Y-4.0099
X4.5439Y-4.1099
X4.5439Y-4.2099
X4.5439Y-4.3099
X5.3189Y-1.559
X5.3189Y-2.4376
X5.3189Y-3.3163
X5.3189Y-4.1949
X6.1789Y-1.114
X6.1789Y-1.9926
X6.1789Y-2.8713
X6.1789Y-3.7499
X6.2789Y-1.114
X6.2789Y-1.9926
X6.2789Y-2.8713
X6.2789Y-3.7499
X6.3789Y-1.114
X6.3789Y-1.9926
X6.3789Y-2.8713
X6.3789Y-3.7499
T4
X7.2339Y-1.139
X7.2339Y-1.239
X7.2339Y-1.339
X7.2339Y-2.0176
X7.2339Y-2.1176
X7.2339Y-2.2176
X7.2339Y-2.8963
X7.2339Y-2.9963
X7.2339Y-3.0963
X7.2339Y-3.7749
X7.2339Y-3.8749
X7.2339Y-3.9749
T3
G00X6.7626Y-1.686
M15
G01X6.7626Y-1.6073
M16
G05
G00X6.7626Y-2.5647
M15
G01X6.7626Y-2.486
M16
G05
G00X6.7626Y-3.4433
M15
G01X6.7626Y-3.3646
M16
G05
G00X6.7626Y-4.322
M15
G01X6.7626Y-4.2433
M16
G05
G00X6.9201Y-1.4616
M15
G01X6.8414Y-1.4616
M16
G05
G00X6.9201Y-2.3403
M15
G01X6.8414Y-2.3403
M16
G05
G00X6.9201Y-3.2189
M15
G01X6.8414Y-3.2189
M16
G05
G00X6.9201Y-4.0976
M15
G01X6.8414Y-4.0976
M16
G05
G00X6.9989Y-1.686
M15
G01X6.9989Y-1.6073
M16
G05
G00X6.9989Y-2.5647
M15
G01X6.9989Y-2.486
M16
G05
G00X6.9989Y-3.4433
M15
G01X6.9989Y-3.3646
M16
G05
G00X6.9989Y-4.322
M15
G01X6.9989Y-4.2433
M16
G05
T0
M30
