%TF.GenerationSoftware,KiCad,Pcbnew,7.0.2*%
%TF.CreationDate,2023-06-01T19:50:00+09:00*%
%TF.ProjectId,PmodPLED_kikit,506d6f64-504c-4454-945f-6b696b69742e,rev?*%
%TF.SameCoordinates,Original*%
%TF.FileFunction,Paste,Top*%
%TF.FilePolarity,Positive*%
%FSLAX46Y46*%
G04 Gerber Fmt 4.6, Leading zero omitted, Abs format (unit mm)*
G04 Created by KiCad (PCBNEW 7.0.2) date 2023-06-01 19:50:00*
%MOMM*%
%LPD*%
G01*
G04 APERTURE LIST*
G04 Aperture macros list*
%AMFreePoly0*
4,1,5,2.000000,-1.100000,-2.000000,-1.100000,-2.000000,1.100000,2.000000,1.100000,2.000000,-1.100000,2.000000,-1.100000,$1*%
%AMFreePoly1*
4,1,5,2.200000,-2.420000,-2.200000,-2.420000,-2.200000,2.420000,2.200000,2.420000,2.200000,-2.420000,2.200000,-2.420000,$1*%
G04 Aperture macros list end*
%ADD10FreePoly0,0.000000*%
%ADD11FreePoly1,0.000000*%
%ADD12R,1.400000X1.400000*%
%ADD13R,1.300000X1.400000*%
G04 APERTURE END LIST*
D10*
%TO.C,D1*%
X140765024Y-76479493D03*
D11*
X140765024Y-80979493D03*
D10*
X140765024Y-85479493D03*
X161465024Y-85479493D03*
D11*
X161565024Y-80979493D03*
D10*
X161465024Y-76479493D03*
%TD*%
%TO.C,D1*%
X140765024Y-98797191D03*
D11*
X140765024Y-103297191D03*
D10*
X140765024Y-107797191D03*
X161465024Y-107797191D03*
D11*
X161565024Y-103297191D03*
D10*
X161465024Y-98797191D03*
%TD*%
D12*
%TO.C,D3*%
X160142018Y-66487789D03*
D13*
X163192018Y-66487789D03*
%TD*%
D12*
%TO.C,D3*%
X160142018Y-44170091D03*
D13*
X163192018Y-44170091D03*
%TD*%
D10*
%TO.C,D1*%
X140765024Y-54161795D03*
D11*
X140765024Y-58661795D03*
D10*
X140765024Y-63161795D03*
X161465024Y-63161795D03*
D11*
X161565024Y-58661795D03*
D10*
X161465024Y-54161795D03*
%TD*%
D12*
%TO.C,D3*%
X160142018Y-111123185D03*
D13*
X163192018Y-111123185D03*
%TD*%
D12*
%TO.C,D3*%
X160142018Y-88805487D03*
D13*
X163192018Y-88805487D03*
%TD*%
D10*
%TO.C,D1*%
X140765024Y-31844097D03*
D11*
X140765024Y-36344097D03*
D10*
X140765024Y-40844097D03*
X161465024Y-40844097D03*
D11*
X161565024Y-36344097D03*
D10*
X161465024Y-31844097D03*
%TD*%
M02*
