%TF.GenerationSoftware,KiCad,Pcbnew,7.0.2*%
%TF.CreationDate,2023-06-18T21:37:11+09:00*%
%TF.ProjectId,PmodPLED_kikit,506d6f64-504c-4454-945f-6b696b69742e,rev?*%
%TF.SameCoordinates,Original*%
%TF.FileFunction,Legend,Top*%
%TF.FilePolarity,Positive*%
%FSLAX46Y46*%
G04 Gerber Fmt 4.6, Leading zero omitted, Abs format (unit mm)*
G04 Created by KiCad (PCBNEW 7.0.2) date 2023-06-18 21:37:11*
%MOMM*%
%LPD*%
G01*
G04 APERTURE LIST*
%ADD10C,0.150000*%
%ADD11C,0.175000*%
%ADD12C,0.125000*%
%ADD13C,0.300000*%
%ADD14C,0.100000*%
%ADD15C,0.254000*%
%ADD16C,0.120000*%
%ADD17C,0.778011*%
%ADD18C,0.200000*%
G04 APERTURE END LIST*
D10*
X122795827Y-58024741D02*
X122557732Y-58024741D01*
X122557732Y-58024741D02*
X122557732Y-56596169D01*
X122557732Y-56596169D02*
X122795827Y-56596169D01*
X123033923Y-56691408D02*
X123605351Y-56691408D01*
X123319637Y-57691408D02*
X123319637Y-56691408D01*
X124272018Y-57167598D02*
X124414875Y-57215217D01*
X124414875Y-57215217D02*
X124462494Y-57262836D01*
X124462494Y-57262836D02*
X124510113Y-57358074D01*
X124510113Y-57358074D02*
X124510113Y-57500931D01*
X124510113Y-57500931D02*
X124462494Y-57596169D01*
X124462494Y-57596169D02*
X124414875Y-57643789D01*
X124414875Y-57643789D02*
X124319637Y-57691408D01*
X124319637Y-57691408D02*
X123938685Y-57691408D01*
X123938685Y-57691408D02*
X123938685Y-56691408D01*
X123938685Y-56691408D02*
X124272018Y-56691408D01*
X124272018Y-56691408D02*
X124367256Y-56739027D01*
X124367256Y-56739027D02*
X124414875Y-56786646D01*
X124414875Y-56786646D02*
X124462494Y-56881884D01*
X124462494Y-56881884D02*
X124462494Y-56977122D01*
X124462494Y-56977122D02*
X124414875Y-57072360D01*
X124414875Y-57072360D02*
X124367256Y-57119979D01*
X124367256Y-57119979D02*
X124272018Y-57167598D01*
X124272018Y-57167598D02*
X123938685Y-57167598D01*
X124938685Y-57691408D02*
X124938685Y-56691408D01*
X124938685Y-56691408D02*
X125176780Y-56691408D01*
X125176780Y-56691408D02*
X125319637Y-56739027D01*
X125319637Y-56739027D02*
X125414875Y-56834265D01*
X125414875Y-56834265D02*
X125462494Y-56929503D01*
X125462494Y-56929503D02*
X125510113Y-57119979D01*
X125510113Y-57119979D02*
X125510113Y-57262836D01*
X125510113Y-57262836D02*
X125462494Y-57453312D01*
X125462494Y-57453312D02*
X125414875Y-57548550D01*
X125414875Y-57548550D02*
X125319637Y-57643789D01*
X125319637Y-57643789D02*
X125176780Y-57691408D01*
X125176780Y-57691408D02*
X124938685Y-57691408D01*
X126367256Y-56691408D02*
X126176780Y-56691408D01*
X126176780Y-56691408D02*
X126081542Y-56739027D01*
X126081542Y-56739027D02*
X126033923Y-56786646D01*
X126033923Y-56786646D02*
X125938685Y-56929503D01*
X125938685Y-56929503D02*
X125891066Y-57119979D01*
X125891066Y-57119979D02*
X125891066Y-57500931D01*
X125891066Y-57500931D02*
X125938685Y-57596169D01*
X125938685Y-57596169D02*
X125986304Y-57643789D01*
X125986304Y-57643789D02*
X126081542Y-57691408D01*
X126081542Y-57691408D02*
X126272018Y-57691408D01*
X126272018Y-57691408D02*
X126367256Y-57643789D01*
X126367256Y-57643789D02*
X126414875Y-57596169D01*
X126414875Y-57596169D02*
X126462494Y-57500931D01*
X126462494Y-57500931D02*
X126462494Y-57262836D01*
X126462494Y-57262836D02*
X126414875Y-57167598D01*
X126414875Y-57167598D02*
X126367256Y-57119979D01*
X126367256Y-57119979D02*
X126272018Y-57072360D01*
X126272018Y-57072360D02*
X126081542Y-57072360D01*
X126081542Y-57072360D02*
X125986304Y-57119979D01*
X125986304Y-57119979D02*
X125938685Y-57167598D01*
X125938685Y-57167598D02*
X125891066Y-57262836D01*
X126843447Y-56786646D02*
X126891066Y-56739027D01*
X126891066Y-56739027D02*
X126986304Y-56691408D01*
X126986304Y-56691408D02*
X127224399Y-56691408D01*
X127224399Y-56691408D02*
X127319637Y-56739027D01*
X127319637Y-56739027D02*
X127367256Y-56786646D01*
X127367256Y-56786646D02*
X127414875Y-56881884D01*
X127414875Y-56881884D02*
X127414875Y-56977122D01*
X127414875Y-56977122D02*
X127367256Y-57119979D01*
X127367256Y-57119979D02*
X126795828Y-57691408D01*
X126795828Y-57691408D02*
X127414875Y-57691408D01*
X128033923Y-56691408D02*
X128129161Y-56691408D01*
X128129161Y-56691408D02*
X128224399Y-56739027D01*
X128224399Y-56739027D02*
X128272018Y-56786646D01*
X128272018Y-56786646D02*
X128319637Y-56881884D01*
X128319637Y-56881884D02*
X128367256Y-57072360D01*
X128367256Y-57072360D02*
X128367256Y-57310455D01*
X128367256Y-57310455D02*
X128319637Y-57500931D01*
X128319637Y-57500931D02*
X128272018Y-57596169D01*
X128272018Y-57596169D02*
X128224399Y-57643789D01*
X128224399Y-57643789D02*
X128129161Y-57691408D01*
X128129161Y-57691408D02*
X128033923Y-57691408D01*
X128033923Y-57691408D02*
X127938685Y-57643789D01*
X127938685Y-57643789D02*
X127891066Y-57596169D01*
X127891066Y-57596169D02*
X127843447Y-57500931D01*
X127843447Y-57500931D02*
X127795828Y-57310455D01*
X127795828Y-57310455D02*
X127795828Y-57072360D01*
X127795828Y-57072360D02*
X127843447Y-56881884D01*
X127843447Y-56881884D02*
X127891066Y-56786646D01*
X127891066Y-56786646D02*
X127938685Y-56739027D01*
X127938685Y-56739027D02*
X128033923Y-56691408D01*
X129224399Y-56691408D02*
X129033923Y-56691408D01*
X129033923Y-56691408D02*
X128938685Y-56739027D01*
X128938685Y-56739027D02*
X128891066Y-56786646D01*
X128891066Y-56786646D02*
X128795828Y-56929503D01*
X128795828Y-56929503D02*
X128748209Y-57119979D01*
X128748209Y-57119979D02*
X128748209Y-57500931D01*
X128748209Y-57500931D02*
X128795828Y-57596169D01*
X128795828Y-57596169D02*
X128843447Y-57643789D01*
X128843447Y-57643789D02*
X128938685Y-57691408D01*
X128938685Y-57691408D02*
X129129161Y-57691408D01*
X129129161Y-57691408D02*
X129224399Y-57643789D01*
X129224399Y-57643789D02*
X129272018Y-57596169D01*
X129272018Y-57596169D02*
X129319637Y-57500931D01*
X129319637Y-57500931D02*
X129319637Y-57262836D01*
X129319637Y-57262836D02*
X129272018Y-57167598D01*
X129272018Y-57167598D02*
X129224399Y-57119979D01*
X129224399Y-57119979D02*
X129129161Y-57072360D01*
X129129161Y-57072360D02*
X128938685Y-57072360D01*
X128938685Y-57072360D02*
X128843447Y-57119979D01*
X128843447Y-57119979D02*
X128795828Y-57167598D01*
X128795828Y-57167598D02*
X128748209Y-57262836D01*
X130176780Y-57024741D02*
X130176780Y-57691408D01*
X129938685Y-56643789D02*
X129700590Y-57358074D01*
X129700590Y-57358074D02*
X130319637Y-57358074D01*
X130652971Y-57405693D02*
X131129161Y-57405693D01*
X130557733Y-57691408D02*
X130891066Y-56691408D01*
X130891066Y-56691408D02*
X131224399Y-57691408D01*
X131557733Y-57691408D02*
X131557733Y-56691408D01*
X131557733Y-56691408D02*
X131938685Y-56691408D01*
X131938685Y-56691408D02*
X132033923Y-56739027D01*
X132033923Y-56739027D02*
X132081542Y-56786646D01*
X132081542Y-56786646D02*
X132129161Y-56881884D01*
X132129161Y-56881884D02*
X132129161Y-57024741D01*
X132129161Y-57024741D02*
X132081542Y-57119979D01*
X132081542Y-57119979D02*
X132033923Y-57167598D01*
X132033923Y-57167598D02*
X131938685Y-57215217D01*
X131938685Y-57215217D02*
X131557733Y-57215217D01*
X133081542Y-56739027D02*
X132986304Y-56691408D01*
X132986304Y-56691408D02*
X132843447Y-56691408D01*
X132843447Y-56691408D02*
X132700590Y-56739027D01*
X132700590Y-56739027D02*
X132605352Y-56834265D01*
X132605352Y-56834265D02*
X132557733Y-56929503D01*
X132557733Y-56929503D02*
X132510114Y-57119979D01*
X132510114Y-57119979D02*
X132510114Y-57262836D01*
X132510114Y-57262836D02*
X132557733Y-57453312D01*
X132557733Y-57453312D02*
X132605352Y-57548550D01*
X132605352Y-57548550D02*
X132700590Y-57643789D01*
X132700590Y-57643789D02*
X132843447Y-57691408D01*
X132843447Y-57691408D02*
X132938685Y-57691408D01*
X132938685Y-57691408D02*
X133081542Y-57643789D01*
X133081542Y-57643789D02*
X133129161Y-57596169D01*
X133129161Y-57596169D02*
X133129161Y-57262836D01*
X133129161Y-57262836D02*
X132938685Y-57262836D01*
X133462495Y-58024741D02*
X133700590Y-58024741D01*
X133700590Y-58024741D02*
X133700590Y-56596169D01*
X133700590Y-56596169D02*
X133462495Y-56596169D01*
D11*
X163626351Y-72187820D02*
X164093018Y-72187820D01*
X164293018Y-72921153D02*
X163626351Y-72921153D01*
X163626351Y-72921153D02*
X163626351Y-71521153D01*
X163626351Y-71521153D02*
X164293018Y-71521153D01*
X164759685Y-72921153D02*
X165493018Y-71987820D01*
X164759685Y-71987820D02*
X165493018Y-72921153D01*
X165826351Y-71521153D02*
X166293018Y-72921153D01*
X166293018Y-72921153D02*
X166759684Y-71521153D01*
X167826351Y-72854487D02*
X167693018Y-72921153D01*
X167693018Y-72921153D02*
X167426351Y-72921153D01*
X167426351Y-72921153D02*
X167293018Y-72854487D01*
X167293018Y-72854487D02*
X167226351Y-72787820D01*
X167226351Y-72787820D02*
X167159684Y-72654487D01*
X167159684Y-72654487D02*
X167159684Y-72254487D01*
X167159684Y-72254487D02*
X167226351Y-72121153D01*
X167226351Y-72121153D02*
X167293018Y-72054487D01*
X167293018Y-72054487D02*
X167426351Y-71987820D01*
X167426351Y-71987820D02*
X167693018Y-71987820D01*
X167693018Y-71987820D02*
X167826351Y-72054487D01*
X169026351Y-72854487D02*
X168893018Y-72921153D01*
X168893018Y-72921153D02*
X168626351Y-72921153D01*
X168626351Y-72921153D02*
X168493018Y-72854487D01*
X168493018Y-72854487D02*
X168426351Y-72787820D01*
X168426351Y-72787820D02*
X168359684Y-72654487D01*
X168359684Y-72654487D02*
X168359684Y-72254487D01*
X168359684Y-72254487D02*
X168426351Y-72121153D01*
X168426351Y-72121153D02*
X168493018Y-72054487D01*
X168493018Y-72054487D02*
X168626351Y-71987820D01*
X168626351Y-71987820D02*
X168893018Y-71987820D01*
X168893018Y-71987820D02*
X169026351Y-72054487D01*
D10*
X182581113Y-50427008D02*
X182581113Y-49760341D01*
X182581113Y-49427008D02*
X182533494Y-49474627D01*
X182533494Y-49474627D02*
X182581113Y-49522246D01*
X182581113Y-49522246D02*
X182628732Y-49474627D01*
X182628732Y-49474627D02*
X182581113Y-49427008D01*
X182581113Y-49427008D02*
X182581113Y-49522246D01*
X183057303Y-49760341D02*
X183057303Y-50427008D01*
X183057303Y-49855579D02*
X183104922Y-49807960D01*
X183104922Y-49807960D02*
X183200160Y-49760341D01*
X183200160Y-49760341D02*
X183343017Y-49760341D01*
X183343017Y-49760341D02*
X183438255Y-49807960D01*
X183438255Y-49807960D02*
X183485874Y-49903198D01*
X183485874Y-49903198D02*
X183485874Y-50427008D01*
D12*
X131019113Y-28823710D02*
X131019113Y-28157043D01*
X131019113Y-27823710D02*
X130971494Y-27871329D01*
X130971494Y-27871329D02*
X131019113Y-27918948D01*
X131019113Y-27918948D02*
X131066732Y-27871329D01*
X131066732Y-27871329D02*
X131019113Y-27823710D01*
X131019113Y-27823710D02*
X131019113Y-27918948D01*
X132019112Y-28823710D02*
X131447684Y-28823710D01*
X131733398Y-28823710D02*
X131733398Y-27823710D01*
X131733398Y-27823710D02*
X131638160Y-27966567D01*
X131638160Y-27966567D02*
X131542922Y-28061805D01*
X131542922Y-28061805D02*
X131447684Y-28109424D01*
X130511113Y-108568804D02*
X130511113Y-107902137D01*
X130511113Y-107568804D02*
X130463494Y-107616423D01*
X130463494Y-107616423D02*
X130511113Y-107664042D01*
X130511113Y-107664042D02*
X130558732Y-107616423D01*
X130558732Y-107616423D02*
X130511113Y-107568804D01*
X130511113Y-107568804D02*
X130511113Y-107664042D01*
X131415874Y-107902137D02*
X131415874Y-108568804D01*
X131177779Y-107521185D02*
X130939684Y-108235470D01*
X130939684Y-108235470D02*
X131558731Y-108235470D01*
D10*
X113604256Y-43317710D02*
X113937589Y-44317710D01*
X113937589Y-44317710D02*
X114270922Y-43317710D01*
X115032827Y-44270091D02*
X114937589Y-44317710D01*
X114937589Y-44317710D02*
X114747113Y-44317710D01*
X114747113Y-44317710D02*
X114651875Y-44270091D01*
X114651875Y-44270091D02*
X114604256Y-44222471D01*
X114604256Y-44222471D02*
X114556637Y-44127233D01*
X114556637Y-44127233D02*
X114556637Y-43841519D01*
X114556637Y-43841519D02*
X114604256Y-43746281D01*
X114604256Y-43746281D02*
X114651875Y-43698662D01*
X114651875Y-43698662D02*
X114747113Y-43651043D01*
X114747113Y-43651043D02*
X114937589Y-43651043D01*
X114937589Y-43651043D02*
X115032827Y-43698662D01*
X115889970Y-44270091D02*
X115794732Y-44317710D01*
X115794732Y-44317710D02*
X115604256Y-44317710D01*
X115604256Y-44317710D02*
X115509018Y-44270091D01*
X115509018Y-44270091D02*
X115461399Y-44222471D01*
X115461399Y-44222471D02*
X115413780Y-44127233D01*
X115413780Y-44127233D02*
X115413780Y-43841519D01*
X115413780Y-43841519D02*
X115461399Y-43746281D01*
X115461399Y-43746281D02*
X115509018Y-43698662D01*
X115509018Y-43698662D02*
X115604256Y-43651043D01*
X115604256Y-43651043D02*
X115794732Y-43651043D01*
X115794732Y-43651043D02*
X115889970Y-43698662D01*
D12*
X130511113Y-41015710D02*
X130511113Y-40349043D01*
X130511113Y-40015710D02*
X130463494Y-40063329D01*
X130463494Y-40063329D02*
X130511113Y-40110948D01*
X130511113Y-40110948D02*
X130558732Y-40063329D01*
X130558732Y-40063329D02*
X130511113Y-40015710D01*
X130511113Y-40015710D02*
X130511113Y-40110948D01*
X131415874Y-40349043D02*
X131415874Y-41015710D01*
X131177779Y-39968091D02*
X130939684Y-40682376D01*
X130939684Y-40682376D02*
X131558731Y-40682376D01*
D11*
X163626351Y-27152424D02*
X164093018Y-27152424D01*
X164293018Y-27885757D02*
X163626351Y-27885757D01*
X163626351Y-27885757D02*
X163626351Y-26485757D01*
X163626351Y-26485757D02*
X164293018Y-26485757D01*
X164759685Y-27885757D02*
X165493018Y-26952424D01*
X164759685Y-26952424D02*
X165493018Y-27885757D01*
X165826351Y-26485757D02*
X166293018Y-27885757D01*
X166293018Y-27885757D02*
X166759684Y-26485757D01*
X167826351Y-27819091D02*
X167693018Y-27885757D01*
X167693018Y-27885757D02*
X167426351Y-27885757D01*
X167426351Y-27885757D02*
X167293018Y-27819091D01*
X167293018Y-27819091D02*
X167226351Y-27752424D01*
X167226351Y-27752424D02*
X167159684Y-27619091D01*
X167159684Y-27619091D02*
X167159684Y-27219091D01*
X167159684Y-27219091D02*
X167226351Y-27085757D01*
X167226351Y-27085757D02*
X167293018Y-27019091D01*
X167293018Y-27019091D02*
X167426351Y-26952424D01*
X167426351Y-26952424D02*
X167693018Y-26952424D01*
X167693018Y-26952424D02*
X167826351Y-27019091D01*
X169026351Y-27819091D02*
X168893018Y-27885757D01*
X168893018Y-27885757D02*
X168626351Y-27885757D01*
X168626351Y-27885757D02*
X168493018Y-27819091D01*
X168493018Y-27819091D02*
X168426351Y-27752424D01*
X168426351Y-27752424D02*
X168359684Y-27619091D01*
X168359684Y-27619091D02*
X168359684Y-27219091D01*
X168359684Y-27219091D02*
X168426351Y-27085757D01*
X168426351Y-27085757D02*
X168493018Y-27019091D01*
X168493018Y-27019091D02*
X168626351Y-26952424D01*
X168626351Y-26952424D02*
X168893018Y-26952424D01*
X168893018Y-26952424D02*
X169026351Y-27019091D01*
D12*
X123145113Y-29077710D02*
X123145113Y-28411043D01*
X123145113Y-28077710D02*
X123097494Y-28125329D01*
X123097494Y-28125329D02*
X123145113Y-28172948D01*
X123145113Y-28172948D02*
X123192732Y-28125329D01*
X123192732Y-28125329D02*
X123145113Y-28077710D01*
X123145113Y-28077710D02*
X123145113Y-28172948D01*
X123573684Y-28172948D02*
X123621303Y-28125329D01*
X123621303Y-28125329D02*
X123716541Y-28077710D01*
X123716541Y-28077710D02*
X123954636Y-28077710D01*
X123954636Y-28077710D02*
X124049874Y-28125329D01*
X124049874Y-28125329D02*
X124097493Y-28172948D01*
X124097493Y-28172948D02*
X124145112Y-28268186D01*
X124145112Y-28268186D02*
X124145112Y-28363424D01*
X124145112Y-28363424D02*
X124097493Y-28506281D01*
X124097493Y-28506281D02*
X123526065Y-29077710D01*
X123526065Y-29077710D02*
X124145112Y-29077710D01*
D10*
X172721037Y-54791236D02*
X172673418Y-54886474D01*
X172673418Y-54886474D02*
X172625798Y-54934093D01*
X172625798Y-54934093D02*
X172530560Y-54981712D01*
X172530560Y-54981712D02*
X172244846Y-54981712D01*
X172244846Y-54981712D02*
X172149608Y-54934093D01*
X172149608Y-54934093D02*
X172101989Y-54886474D01*
X172101989Y-54886474D02*
X172054370Y-54791236D01*
X172054370Y-54791236D02*
X172054370Y-54648379D01*
X172054370Y-54648379D02*
X172101989Y-54553141D01*
X172101989Y-54553141D02*
X172149608Y-54505522D01*
X172149608Y-54505522D02*
X172244846Y-54457903D01*
X172244846Y-54457903D02*
X172530560Y-54457903D01*
X172530560Y-54457903D02*
X172625798Y-54505522D01*
X172625798Y-54505522D02*
X172673418Y-54553141D01*
X172673418Y-54553141D02*
X172721037Y-54648379D01*
X172721037Y-54648379D02*
X172721037Y-54791236D01*
X172054370Y-53600760D02*
X172721037Y-53600760D01*
X172054370Y-54029331D02*
X172578179Y-54029331D01*
X172578179Y-54029331D02*
X172673418Y-53981712D01*
X172673418Y-53981712D02*
X172721037Y-53886474D01*
X172721037Y-53886474D02*
X172721037Y-53743617D01*
X172721037Y-53743617D02*
X172673418Y-53648379D01*
X172673418Y-53648379D02*
X172625798Y-53600760D01*
X172054370Y-53267426D02*
X172054370Y-52886474D01*
X171721037Y-53124569D02*
X172578179Y-53124569D01*
X172578179Y-53124569D02*
X172673418Y-53076950D01*
X172673418Y-53076950D02*
X172721037Y-52981712D01*
X172721037Y-52981712D02*
X172721037Y-52886474D01*
D11*
X151742351Y-93911851D02*
X152209018Y-95311851D01*
X152209018Y-95311851D02*
X152675684Y-93911851D01*
X153742351Y-95245185D02*
X153609018Y-95311851D01*
X153609018Y-95311851D02*
X153342351Y-95311851D01*
X153342351Y-95311851D02*
X153209018Y-95245185D01*
X153209018Y-95245185D02*
X153142351Y-95178518D01*
X153142351Y-95178518D02*
X153075684Y-95045185D01*
X153075684Y-95045185D02*
X153075684Y-94645185D01*
X153075684Y-94645185D02*
X153142351Y-94511851D01*
X153142351Y-94511851D02*
X153209018Y-94445185D01*
X153209018Y-94445185D02*
X153342351Y-94378518D01*
X153342351Y-94378518D02*
X153609018Y-94378518D01*
X153609018Y-94378518D02*
X153742351Y-94445185D01*
X154942351Y-95245185D02*
X154809018Y-95311851D01*
X154809018Y-95311851D02*
X154542351Y-95311851D01*
X154542351Y-95311851D02*
X154409018Y-95245185D01*
X154409018Y-95245185D02*
X154342351Y-95178518D01*
X154342351Y-95178518D02*
X154275684Y-95045185D01*
X154275684Y-95045185D02*
X154275684Y-94645185D01*
X154275684Y-94645185D02*
X154342351Y-94511851D01*
X154342351Y-94511851D02*
X154409018Y-94445185D01*
X154409018Y-94445185D02*
X154542351Y-94378518D01*
X154542351Y-94378518D02*
X154809018Y-94378518D01*
X154809018Y-94378518D02*
X154942351Y-94445185D01*
D12*
X120620970Y-51595408D02*
X120525732Y-51547789D01*
X120525732Y-51547789D02*
X120478113Y-51500169D01*
X120478113Y-51500169D02*
X120430494Y-51404931D01*
X120430494Y-51404931D02*
X120430494Y-51119217D01*
X120430494Y-51119217D02*
X120478113Y-51023979D01*
X120478113Y-51023979D02*
X120525732Y-50976360D01*
X120525732Y-50976360D02*
X120620970Y-50928741D01*
X120620970Y-50928741D02*
X120763827Y-50928741D01*
X120763827Y-50928741D02*
X120859065Y-50976360D01*
X120859065Y-50976360D02*
X120906684Y-51023979D01*
X120906684Y-51023979D02*
X120954303Y-51119217D01*
X120954303Y-51119217D02*
X120954303Y-51404931D01*
X120954303Y-51404931D02*
X120906684Y-51500169D01*
X120906684Y-51500169D02*
X120859065Y-51547789D01*
X120859065Y-51547789D02*
X120763827Y-51595408D01*
X120763827Y-51595408D02*
X120620970Y-51595408D01*
X121335256Y-50690646D02*
X121382875Y-50643027D01*
X121382875Y-50643027D02*
X121478113Y-50595408D01*
X121478113Y-50595408D02*
X121716208Y-50595408D01*
X121716208Y-50595408D02*
X121811446Y-50643027D01*
X121811446Y-50643027D02*
X121859065Y-50690646D01*
X121859065Y-50690646D02*
X121906684Y-50785884D01*
X121906684Y-50785884D02*
X121906684Y-50881122D01*
X121906684Y-50881122D02*
X121859065Y-51023979D01*
X121859065Y-51023979D02*
X121287637Y-51595408D01*
X121287637Y-51595408D02*
X121906684Y-51595408D01*
D11*
X151742351Y-71394153D02*
X152209018Y-72794153D01*
X152209018Y-72794153D02*
X152675684Y-71394153D01*
X153742351Y-72727487D02*
X153609018Y-72794153D01*
X153609018Y-72794153D02*
X153342351Y-72794153D01*
X153342351Y-72794153D02*
X153209018Y-72727487D01*
X153209018Y-72727487D02*
X153142351Y-72660820D01*
X153142351Y-72660820D02*
X153075684Y-72527487D01*
X153075684Y-72527487D02*
X153075684Y-72127487D01*
X153075684Y-72127487D02*
X153142351Y-71994153D01*
X153142351Y-71994153D02*
X153209018Y-71927487D01*
X153209018Y-71927487D02*
X153342351Y-71860820D01*
X153342351Y-71860820D02*
X153609018Y-71860820D01*
X153609018Y-71860820D02*
X153742351Y-71927487D01*
X154942351Y-72727487D02*
X154809018Y-72794153D01*
X154809018Y-72794153D02*
X154542351Y-72794153D01*
X154542351Y-72794153D02*
X154409018Y-72727487D01*
X154409018Y-72727487D02*
X154342351Y-72660820D01*
X154342351Y-72660820D02*
X154275684Y-72527487D01*
X154275684Y-72527487D02*
X154275684Y-72127487D01*
X154275684Y-72127487D02*
X154342351Y-71994153D01*
X154342351Y-71994153D02*
X154409018Y-71927487D01*
X154409018Y-71927487D02*
X154542351Y-71860820D01*
X154542351Y-71860820D02*
X154809018Y-71860820D01*
X154809018Y-71860820D02*
X154942351Y-71927487D01*
D12*
X133447970Y-73859106D02*
X133352732Y-73811487D01*
X133352732Y-73811487D02*
X133305113Y-73763867D01*
X133305113Y-73763867D02*
X133257494Y-73668629D01*
X133257494Y-73668629D02*
X133257494Y-73382915D01*
X133257494Y-73382915D02*
X133305113Y-73287677D01*
X133305113Y-73287677D02*
X133352732Y-73240058D01*
X133352732Y-73240058D02*
X133447970Y-73192439D01*
X133447970Y-73192439D02*
X133590827Y-73192439D01*
X133590827Y-73192439D02*
X133686065Y-73240058D01*
X133686065Y-73240058D02*
X133733684Y-73287677D01*
X133733684Y-73287677D02*
X133781303Y-73382915D01*
X133781303Y-73382915D02*
X133781303Y-73668629D01*
X133781303Y-73668629D02*
X133733684Y-73763867D01*
X133733684Y-73763867D02*
X133686065Y-73811487D01*
X133686065Y-73811487D02*
X133590827Y-73859106D01*
X133590827Y-73859106D02*
X133447970Y-73859106D01*
X134733684Y-73859106D02*
X134162256Y-73859106D01*
X134447970Y-73859106D02*
X134447970Y-72859106D01*
X134447970Y-72859106D02*
X134352732Y-73001963D01*
X134352732Y-73001963D02*
X134257494Y-73097201D01*
X134257494Y-73097201D02*
X134162256Y-73144820D01*
D10*
X122795827Y-80542439D02*
X122557732Y-80542439D01*
X122557732Y-80542439D02*
X122557732Y-79113867D01*
X122557732Y-79113867D02*
X122795827Y-79113867D01*
X123033923Y-79209106D02*
X123605351Y-79209106D01*
X123319637Y-80209106D02*
X123319637Y-79209106D01*
X124272018Y-79685296D02*
X124414875Y-79732915D01*
X124414875Y-79732915D02*
X124462494Y-79780534D01*
X124462494Y-79780534D02*
X124510113Y-79875772D01*
X124510113Y-79875772D02*
X124510113Y-80018629D01*
X124510113Y-80018629D02*
X124462494Y-80113867D01*
X124462494Y-80113867D02*
X124414875Y-80161487D01*
X124414875Y-80161487D02*
X124319637Y-80209106D01*
X124319637Y-80209106D02*
X123938685Y-80209106D01*
X123938685Y-80209106D02*
X123938685Y-79209106D01*
X123938685Y-79209106D02*
X124272018Y-79209106D01*
X124272018Y-79209106D02*
X124367256Y-79256725D01*
X124367256Y-79256725D02*
X124414875Y-79304344D01*
X124414875Y-79304344D02*
X124462494Y-79399582D01*
X124462494Y-79399582D02*
X124462494Y-79494820D01*
X124462494Y-79494820D02*
X124414875Y-79590058D01*
X124414875Y-79590058D02*
X124367256Y-79637677D01*
X124367256Y-79637677D02*
X124272018Y-79685296D01*
X124272018Y-79685296D02*
X123938685Y-79685296D01*
X124938685Y-80209106D02*
X124938685Y-79209106D01*
X124938685Y-79209106D02*
X125176780Y-79209106D01*
X125176780Y-79209106D02*
X125319637Y-79256725D01*
X125319637Y-79256725D02*
X125414875Y-79351963D01*
X125414875Y-79351963D02*
X125462494Y-79447201D01*
X125462494Y-79447201D02*
X125510113Y-79637677D01*
X125510113Y-79637677D02*
X125510113Y-79780534D01*
X125510113Y-79780534D02*
X125462494Y-79971010D01*
X125462494Y-79971010D02*
X125414875Y-80066248D01*
X125414875Y-80066248D02*
X125319637Y-80161487D01*
X125319637Y-80161487D02*
X125176780Y-80209106D01*
X125176780Y-80209106D02*
X124938685Y-80209106D01*
X126367256Y-79209106D02*
X126176780Y-79209106D01*
X126176780Y-79209106D02*
X126081542Y-79256725D01*
X126081542Y-79256725D02*
X126033923Y-79304344D01*
X126033923Y-79304344D02*
X125938685Y-79447201D01*
X125938685Y-79447201D02*
X125891066Y-79637677D01*
X125891066Y-79637677D02*
X125891066Y-80018629D01*
X125891066Y-80018629D02*
X125938685Y-80113867D01*
X125938685Y-80113867D02*
X125986304Y-80161487D01*
X125986304Y-80161487D02*
X126081542Y-80209106D01*
X126081542Y-80209106D02*
X126272018Y-80209106D01*
X126272018Y-80209106D02*
X126367256Y-80161487D01*
X126367256Y-80161487D02*
X126414875Y-80113867D01*
X126414875Y-80113867D02*
X126462494Y-80018629D01*
X126462494Y-80018629D02*
X126462494Y-79780534D01*
X126462494Y-79780534D02*
X126414875Y-79685296D01*
X126414875Y-79685296D02*
X126367256Y-79637677D01*
X126367256Y-79637677D02*
X126272018Y-79590058D01*
X126272018Y-79590058D02*
X126081542Y-79590058D01*
X126081542Y-79590058D02*
X125986304Y-79637677D01*
X125986304Y-79637677D02*
X125938685Y-79685296D01*
X125938685Y-79685296D02*
X125891066Y-79780534D01*
X126843447Y-79304344D02*
X126891066Y-79256725D01*
X126891066Y-79256725D02*
X126986304Y-79209106D01*
X126986304Y-79209106D02*
X127224399Y-79209106D01*
X127224399Y-79209106D02*
X127319637Y-79256725D01*
X127319637Y-79256725D02*
X127367256Y-79304344D01*
X127367256Y-79304344D02*
X127414875Y-79399582D01*
X127414875Y-79399582D02*
X127414875Y-79494820D01*
X127414875Y-79494820D02*
X127367256Y-79637677D01*
X127367256Y-79637677D02*
X126795828Y-80209106D01*
X126795828Y-80209106D02*
X127414875Y-80209106D01*
X128033923Y-79209106D02*
X128129161Y-79209106D01*
X128129161Y-79209106D02*
X128224399Y-79256725D01*
X128224399Y-79256725D02*
X128272018Y-79304344D01*
X128272018Y-79304344D02*
X128319637Y-79399582D01*
X128319637Y-79399582D02*
X128367256Y-79590058D01*
X128367256Y-79590058D02*
X128367256Y-79828153D01*
X128367256Y-79828153D02*
X128319637Y-80018629D01*
X128319637Y-80018629D02*
X128272018Y-80113867D01*
X128272018Y-80113867D02*
X128224399Y-80161487D01*
X128224399Y-80161487D02*
X128129161Y-80209106D01*
X128129161Y-80209106D02*
X128033923Y-80209106D01*
X128033923Y-80209106D02*
X127938685Y-80161487D01*
X127938685Y-80161487D02*
X127891066Y-80113867D01*
X127891066Y-80113867D02*
X127843447Y-80018629D01*
X127843447Y-80018629D02*
X127795828Y-79828153D01*
X127795828Y-79828153D02*
X127795828Y-79590058D01*
X127795828Y-79590058D02*
X127843447Y-79399582D01*
X127843447Y-79399582D02*
X127891066Y-79304344D01*
X127891066Y-79304344D02*
X127938685Y-79256725D01*
X127938685Y-79256725D02*
X128033923Y-79209106D01*
X129224399Y-79209106D02*
X129033923Y-79209106D01*
X129033923Y-79209106D02*
X128938685Y-79256725D01*
X128938685Y-79256725D02*
X128891066Y-79304344D01*
X128891066Y-79304344D02*
X128795828Y-79447201D01*
X128795828Y-79447201D02*
X128748209Y-79637677D01*
X128748209Y-79637677D02*
X128748209Y-80018629D01*
X128748209Y-80018629D02*
X128795828Y-80113867D01*
X128795828Y-80113867D02*
X128843447Y-80161487D01*
X128843447Y-80161487D02*
X128938685Y-80209106D01*
X128938685Y-80209106D02*
X129129161Y-80209106D01*
X129129161Y-80209106D02*
X129224399Y-80161487D01*
X129224399Y-80161487D02*
X129272018Y-80113867D01*
X129272018Y-80113867D02*
X129319637Y-80018629D01*
X129319637Y-80018629D02*
X129319637Y-79780534D01*
X129319637Y-79780534D02*
X129272018Y-79685296D01*
X129272018Y-79685296D02*
X129224399Y-79637677D01*
X129224399Y-79637677D02*
X129129161Y-79590058D01*
X129129161Y-79590058D02*
X128938685Y-79590058D01*
X128938685Y-79590058D02*
X128843447Y-79637677D01*
X128843447Y-79637677D02*
X128795828Y-79685296D01*
X128795828Y-79685296D02*
X128748209Y-79780534D01*
X130176780Y-79542439D02*
X130176780Y-80209106D01*
X129938685Y-79161487D02*
X129700590Y-79875772D01*
X129700590Y-79875772D02*
X130319637Y-79875772D01*
X130652971Y-79923391D02*
X131129161Y-79923391D01*
X130557733Y-80209106D02*
X130891066Y-79209106D01*
X130891066Y-79209106D02*
X131224399Y-80209106D01*
X131557733Y-80209106D02*
X131557733Y-79209106D01*
X131557733Y-79209106D02*
X131938685Y-79209106D01*
X131938685Y-79209106D02*
X132033923Y-79256725D01*
X132033923Y-79256725D02*
X132081542Y-79304344D01*
X132081542Y-79304344D02*
X132129161Y-79399582D01*
X132129161Y-79399582D02*
X132129161Y-79542439D01*
X132129161Y-79542439D02*
X132081542Y-79637677D01*
X132081542Y-79637677D02*
X132033923Y-79685296D01*
X132033923Y-79685296D02*
X131938685Y-79732915D01*
X131938685Y-79732915D02*
X131557733Y-79732915D01*
X133081542Y-79256725D02*
X132986304Y-79209106D01*
X132986304Y-79209106D02*
X132843447Y-79209106D01*
X132843447Y-79209106D02*
X132700590Y-79256725D01*
X132700590Y-79256725D02*
X132605352Y-79351963D01*
X132605352Y-79351963D02*
X132557733Y-79447201D01*
X132557733Y-79447201D02*
X132510114Y-79637677D01*
X132510114Y-79637677D02*
X132510114Y-79780534D01*
X132510114Y-79780534D02*
X132557733Y-79971010D01*
X132557733Y-79971010D02*
X132605352Y-80066248D01*
X132605352Y-80066248D02*
X132700590Y-80161487D01*
X132700590Y-80161487D02*
X132843447Y-80209106D01*
X132843447Y-80209106D02*
X132938685Y-80209106D01*
X132938685Y-80209106D02*
X133081542Y-80161487D01*
X133081542Y-80161487D02*
X133129161Y-80113867D01*
X133129161Y-80113867D02*
X133129161Y-79780534D01*
X133129161Y-79780534D02*
X132938685Y-79780534D01*
X133462495Y-80542439D02*
X133700590Y-80542439D01*
X133700590Y-80542439D02*
X133700590Y-79113867D01*
X133700590Y-79113867D02*
X133462495Y-79113867D01*
D12*
X136241970Y-40507710D02*
X136146732Y-40460091D01*
X136146732Y-40460091D02*
X136099113Y-40412471D01*
X136099113Y-40412471D02*
X136051494Y-40317233D01*
X136051494Y-40317233D02*
X136051494Y-40031519D01*
X136051494Y-40031519D02*
X136099113Y-39936281D01*
X136099113Y-39936281D02*
X136146732Y-39888662D01*
X136146732Y-39888662D02*
X136241970Y-39841043D01*
X136241970Y-39841043D02*
X136384827Y-39841043D01*
X136384827Y-39841043D02*
X136480065Y-39888662D01*
X136480065Y-39888662D02*
X136527684Y-39936281D01*
X136527684Y-39936281D02*
X136575303Y-40031519D01*
X136575303Y-40031519D02*
X136575303Y-40317233D01*
X136575303Y-40317233D02*
X136527684Y-40412471D01*
X136527684Y-40412471D02*
X136480065Y-40460091D01*
X136480065Y-40460091D02*
X136384827Y-40507710D01*
X136384827Y-40507710D02*
X136241970Y-40507710D01*
X137432446Y-39841043D02*
X137432446Y-40507710D01*
X137194351Y-39460091D02*
X136956256Y-40174376D01*
X136956256Y-40174376D02*
X137575303Y-40174376D01*
X130511113Y-63533408D02*
X130511113Y-62866741D01*
X130511113Y-62533408D02*
X130463494Y-62581027D01*
X130463494Y-62581027D02*
X130511113Y-62628646D01*
X130511113Y-62628646D02*
X130558732Y-62581027D01*
X130558732Y-62581027D02*
X130511113Y-62533408D01*
X130511113Y-62533408D02*
X130511113Y-62628646D01*
X131415874Y-62866741D02*
X131415874Y-63533408D01*
X131177779Y-62485789D02*
X130939684Y-63200074D01*
X130939684Y-63200074D02*
X131558731Y-63200074D01*
X131019113Y-96376804D02*
X131019113Y-95710137D01*
X131019113Y-95376804D02*
X130971494Y-95424423D01*
X130971494Y-95424423D02*
X131019113Y-95472042D01*
X131019113Y-95472042D02*
X131066732Y-95424423D01*
X131066732Y-95424423D02*
X131019113Y-95376804D01*
X131019113Y-95376804D02*
X131019113Y-95472042D01*
X132019112Y-96376804D02*
X131447684Y-96376804D01*
X131733398Y-96376804D02*
X131733398Y-95376804D01*
X131733398Y-95376804D02*
X131638160Y-95519661D01*
X131638160Y-95519661D02*
X131542922Y-95614899D01*
X131542922Y-95614899D02*
X131447684Y-95662518D01*
X120620970Y-29077710D02*
X120525732Y-29030091D01*
X120525732Y-29030091D02*
X120478113Y-28982471D01*
X120478113Y-28982471D02*
X120430494Y-28887233D01*
X120430494Y-28887233D02*
X120430494Y-28601519D01*
X120430494Y-28601519D02*
X120478113Y-28506281D01*
X120478113Y-28506281D02*
X120525732Y-28458662D01*
X120525732Y-28458662D02*
X120620970Y-28411043D01*
X120620970Y-28411043D02*
X120763827Y-28411043D01*
X120763827Y-28411043D02*
X120859065Y-28458662D01*
X120859065Y-28458662D02*
X120906684Y-28506281D01*
X120906684Y-28506281D02*
X120954303Y-28601519D01*
X120954303Y-28601519D02*
X120954303Y-28887233D01*
X120954303Y-28887233D02*
X120906684Y-28982471D01*
X120906684Y-28982471D02*
X120859065Y-29030091D01*
X120859065Y-29030091D02*
X120763827Y-29077710D01*
X120763827Y-29077710D02*
X120620970Y-29077710D01*
X121335256Y-28172948D02*
X121382875Y-28125329D01*
X121382875Y-28125329D02*
X121478113Y-28077710D01*
X121478113Y-28077710D02*
X121716208Y-28077710D01*
X121716208Y-28077710D02*
X121811446Y-28125329D01*
X121811446Y-28125329D02*
X121859065Y-28172948D01*
X121859065Y-28172948D02*
X121906684Y-28268186D01*
X121906684Y-28268186D02*
X121906684Y-28363424D01*
X121906684Y-28363424D02*
X121859065Y-28506281D01*
X121859065Y-28506281D02*
X121287637Y-29077710D01*
X121287637Y-29077710D02*
X121906684Y-29077710D01*
D13*
X125804160Y-89545915D02*
X125804160Y-88045915D01*
X125804160Y-88045915D02*
X126375589Y-88045915D01*
X126375589Y-88045915D02*
X126518446Y-88117344D01*
X126518446Y-88117344D02*
X126589875Y-88188772D01*
X126589875Y-88188772D02*
X126661303Y-88331629D01*
X126661303Y-88331629D02*
X126661303Y-88545915D01*
X126661303Y-88545915D02*
X126589875Y-88688772D01*
X126589875Y-88688772D02*
X126518446Y-88760201D01*
X126518446Y-88760201D02*
X126375589Y-88831629D01*
X126375589Y-88831629D02*
X125804160Y-88831629D01*
X127304160Y-89545915D02*
X127304160Y-88545915D01*
X127304160Y-88688772D02*
X127375589Y-88617344D01*
X127375589Y-88617344D02*
X127518446Y-88545915D01*
X127518446Y-88545915D02*
X127732732Y-88545915D01*
X127732732Y-88545915D02*
X127875589Y-88617344D01*
X127875589Y-88617344D02*
X127947018Y-88760201D01*
X127947018Y-88760201D02*
X127947018Y-89545915D01*
X127947018Y-88760201D02*
X128018446Y-88617344D01*
X128018446Y-88617344D02*
X128161303Y-88545915D01*
X128161303Y-88545915D02*
X128375589Y-88545915D01*
X128375589Y-88545915D02*
X128518446Y-88617344D01*
X128518446Y-88617344D02*
X128589875Y-88760201D01*
X128589875Y-88760201D02*
X128589875Y-89545915D01*
X129518446Y-89545915D02*
X129375589Y-89474487D01*
X129375589Y-89474487D02*
X129304160Y-89403058D01*
X129304160Y-89403058D02*
X129232732Y-89260201D01*
X129232732Y-89260201D02*
X129232732Y-88831629D01*
X129232732Y-88831629D02*
X129304160Y-88688772D01*
X129304160Y-88688772D02*
X129375589Y-88617344D01*
X129375589Y-88617344D02*
X129518446Y-88545915D01*
X129518446Y-88545915D02*
X129732732Y-88545915D01*
X129732732Y-88545915D02*
X129875589Y-88617344D01*
X129875589Y-88617344D02*
X129947018Y-88688772D01*
X129947018Y-88688772D02*
X130018446Y-88831629D01*
X130018446Y-88831629D02*
X130018446Y-89260201D01*
X130018446Y-89260201D02*
X129947018Y-89403058D01*
X129947018Y-89403058D02*
X129875589Y-89474487D01*
X129875589Y-89474487D02*
X129732732Y-89545915D01*
X129732732Y-89545915D02*
X129518446Y-89545915D01*
X131304161Y-89545915D02*
X131304161Y-88045915D01*
X131304161Y-89474487D02*
X131161303Y-89545915D01*
X131161303Y-89545915D02*
X130875589Y-89545915D01*
X130875589Y-89545915D02*
X130732732Y-89474487D01*
X130732732Y-89474487D02*
X130661303Y-89403058D01*
X130661303Y-89403058D02*
X130589875Y-89260201D01*
X130589875Y-89260201D02*
X130589875Y-88831629D01*
X130589875Y-88831629D02*
X130661303Y-88688772D01*
X130661303Y-88688772D02*
X130732732Y-88617344D01*
X130732732Y-88617344D02*
X130875589Y-88545915D01*
X130875589Y-88545915D02*
X131161303Y-88545915D01*
X131161303Y-88545915D02*
X131304161Y-88617344D01*
X131661304Y-89688772D02*
X132804161Y-89688772D01*
X134018446Y-89403058D02*
X133947018Y-89474487D01*
X133947018Y-89474487D02*
X133732732Y-89545915D01*
X133732732Y-89545915D02*
X133589875Y-89545915D01*
X133589875Y-89545915D02*
X133375589Y-89474487D01*
X133375589Y-89474487D02*
X133232732Y-89331629D01*
X133232732Y-89331629D02*
X133161303Y-89188772D01*
X133161303Y-89188772D02*
X133089875Y-88903058D01*
X133089875Y-88903058D02*
X133089875Y-88688772D01*
X133089875Y-88688772D02*
X133161303Y-88403058D01*
X133161303Y-88403058D02*
X133232732Y-88260201D01*
X133232732Y-88260201D02*
X133375589Y-88117344D01*
X133375589Y-88117344D02*
X133589875Y-88045915D01*
X133589875Y-88045915D02*
X133732732Y-88045915D01*
X133732732Y-88045915D02*
X133947018Y-88117344D01*
X133947018Y-88117344D02*
X134018446Y-88188772D01*
X134875589Y-89545915D02*
X134732732Y-89474487D01*
X134732732Y-89474487D02*
X134661303Y-89403058D01*
X134661303Y-89403058D02*
X134589875Y-89260201D01*
X134589875Y-89260201D02*
X134589875Y-88831629D01*
X134589875Y-88831629D02*
X134661303Y-88688772D01*
X134661303Y-88688772D02*
X134732732Y-88617344D01*
X134732732Y-88617344D02*
X134875589Y-88545915D01*
X134875589Y-88545915D02*
X135089875Y-88545915D01*
X135089875Y-88545915D02*
X135232732Y-88617344D01*
X135232732Y-88617344D02*
X135304161Y-88688772D01*
X135304161Y-88688772D02*
X135375589Y-88831629D01*
X135375589Y-88831629D02*
X135375589Y-89260201D01*
X135375589Y-89260201D02*
X135304161Y-89403058D01*
X135304161Y-89403058D02*
X135232732Y-89474487D01*
X135232732Y-89474487D02*
X135089875Y-89545915D01*
X135089875Y-89545915D02*
X134875589Y-89545915D01*
X136232732Y-89545915D02*
X136089875Y-89474487D01*
X136089875Y-89474487D02*
X136018446Y-89331629D01*
X136018446Y-89331629D02*
X136018446Y-88045915D01*
X137018446Y-89545915D02*
X136875589Y-89474487D01*
X136875589Y-89474487D02*
X136804160Y-89403058D01*
X136804160Y-89403058D02*
X136732732Y-89260201D01*
X136732732Y-89260201D02*
X136732732Y-88831629D01*
X136732732Y-88831629D02*
X136804160Y-88688772D01*
X136804160Y-88688772D02*
X136875589Y-88617344D01*
X136875589Y-88617344D02*
X137018446Y-88545915D01*
X137018446Y-88545915D02*
X137232732Y-88545915D01*
X137232732Y-88545915D02*
X137375589Y-88617344D01*
X137375589Y-88617344D02*
X137447018Y-88688772D01*
X137447018Y-88688772D02*
X137518446Y-88831629D01*
X137518446Y-88831629D02*
X137518446Y-89260201D01*
X137518446Y-89260201D02*
X137447018Y-89403058D01*
X137447018Y-89403058D02*
X137375589Y-89474487D01*
X137375589Y-89474487D02*
X137232732Y-89545915D01*
X137232732Y-89545915D02*
X137018446Y-89545915D01*
X138161303Y-89545915D02*
X138161303Y-88545915D01*
X138161303Y-88831629D02*
X138232732Y-88688772D01*
X138232732Y-88688772D02*
X138304161Y-88617344D01*
X138304161Y-88617344D02*
X138447018Y-88545915D01*
X138447018Y-88545915D02*
X138589875Y-88545915D01*
X138732732Y-89688772D02*
X139875589Y-89688772D01*
X140947017Y-89545915D02*
X140232731Y-89545915D01*
X140232731Y-89545915D02*
X140232731Y-88045915D01*
X141447017Y-88760201D02*
X141947017Y-88760201D01*
X142161303Y-89545915D02*
X141447017Y-89545915D01*
X141447017Y-89545915D02*
X141447017Y-88045915D01*
X141447017Y-88045915D02*
X142161303Y-88045915D01*
X142804160Y-89545915D02*
X142804160Y-88045915D01*
X142804160Y-88045915D02*
X143161303Y-88045915D01*
X143161303Y-88045915D02*
X143375589Y-88117344D01*
X143375589Y-88117344D02*
X143518446Y-88260201D01*
X143518446Y-88260201D02*
X143589875Y-88403058D01*
X143589875Y-88403058D02*
X143661303Y-88688772D01*
X143661303Y-88688772D02*
X143661303Y-88903058D01*
X143661303Y-88903058D02*
X143589875Y-89188772D01*
X143589875Y-89188772D02*
X143518446Y-89331629D01*
X143518446Y-89331629D02*
X143375589Y-89474487D01*
X143375589Y-89474487D02*
X143161303Y-89545915D01*
X143161303Y-89545915D02*
X142804160Y-89545915D01*
X145232732Y-88045915D02*
X145732732Y-89545915D01*
X145732732Y-89545915D02*
X146232732Y-88045915D01*
X147304160Y-89474487D02*
X147161303Y-89545915D01*
X147161303Y-89545915D02*
X146875589Y-89545915D01*
X146875589Y-89545915D02*
X146732731Y-89474487D01*
X146732731Y-89474487D02*
X146661303Y-89331629D01*
X146661303Y-89331629D02*
X146661303Y-88760201D01*
X146661303Y-88760201D02*
X146732731Y-88617344D01*
X146732731Y-88617344D02*
X146875589Y-88545915D01*
X146875589Y-88545915D02*
X147161303Y-88545915D01*
X147161303Y-88545915D02*
X147304160Y-88617344D01*
X147304160Y-88617344D02*
X147375589Y-88760201D01*
X147375589Y-88760201D02*
X147375589Y-88903058D01*
X147375589Y-88903058D02*
X146661303Y-89045915D01*
X148018445Y-89545915D02*
X148018445Y-88545915D01*
X148018445Y-88831629D02*
X148089874Y-88688772D01*
X148089874Y-88688772D02*
X148161303Y-88617344D01*
X148161303Y-88617344D02*
X148304160Y-88545915D01*
X148304160Y-88545915D02*
X148447017Y-88545915D01*
X148947016Y-89403058D02*
X149018445Y-89474487D01*
X149018445Y-89474487D02*
X148947016Y-89545915D01*
X148947016Y-89545915D02*
X148875588Y-89474487D01*
X148875588Y-89474487D02*
X148947016Y-89403058D01*
X148947016Y-89403058D02*
X148947016Y-89545915D01*
X151089874Y-88045915D02*
X151232731Y-88045915D01*
X151232731Y-88045915D02*
X151375588Y-88117344D01*
X151375588Y-88117344D02*
X151447017Y-88188772D01*
X151447017Y-88188772D02*
X151518445Y-88331629D01*
X151518445Y-88331629D02*
X151589874Y-88617344D01*
X151589874Y-88617344D02*
X151589874Y-88974487D01*
X151589874Y-88974487D02*
X151518445Y-89260201D01*
X151518445Y-89260201D02*
X151447017Y-89403058D01*
X151447017Y-89403058D02*
X151375588Y-89474487D01*
X151375588Y-89474487D02*
X151232731Y-89545915D01*
X151232731Y-89545915D02*
X151089874Y-89545915D01*
X151089874Y-89545915D02*
X150947017Y-89474487D01*
X150947017Y-89474487D02*
X150875588Y-89403058D01*
X150875588Y-89403058D02*
X150804159Y-89260201D01*
X150804159Y-89260201D02*
X150732731Y-88974487D01*
X150732731Y-88974487D02*
X150732731Y-88617344D01*
X150732731Y-88617344D02*
X150804159Y-88331629D01*
X150804159Y-88331629D02*
X150875588Y-88188772D01*
X150875588Y-88188772D02*
X150947017Y-88117344D01*
X150947017Y-88117344D02*
X151089874Y-88045915D01*
X152232730Y-89403058D02*
X152304159Y-89474487D01*
X152304159Y-89474487D02*
X152232730Y-89545915D01*
X152232730Y-89545915D02*
X152161302Y-89474487D01*
X152161302Y-89474487D02*
X152232730Y-89403058D01*
X152232730Y-89403058D02*
X152232730Y-89545915D01*
X152875588Y-88188772D02*
X152947016Y-88117344D01*
X152947016Y-88117344D02*
X153089874Y-88045915D01*
X153089874Y-88045915D02*
X153447016Y-88045915D01*
X153447016Y-88045915D02*
X153589874Y-88117344D01*
X153589874Y-88117344D02*
X153661302Y-88188772D01*
X153661302Y-88188772D02*
X153732731Y-88331629D01*
X153732731Y-88331629D02*
X153732731Y-88474487D01*
X153732731Y-88474487D02*
X153661302Y-88688772D01*
X153661302Y-88688772D02*
X152804159Y-89545915D01*
X152804159Y-89545915D02*
X153732731Y-89545915D01*
D12*
X123399113Y-63533408D02*
X123399113Y-62866741D01*
X123399113Y-62533408D02*
X123351494Y-62581027D01*
X123351494Y-62581027D02*
X123399113Y-62628646D01*
X123399113Y-62628646D02*
X123446732Y-62581027D01*
X123446732Y-62581027D02*
X123399113Y-62533408D01*
X123399113Y-62533408D02*
X123399113Y-62628646D01*
X123780065Y-62533408D02*
X124399112Y-62533408D01*
X124399112Y-62533408D02*
X124065779Y-62914360D01*
X124065779Y-62914360D02*
X124208636Y-62914360D01*
X124208636Y-62914360D02*
X124303874Y-62961979D01*
X124303874Y-62961979D02*
X124351493Y-63009598D01*
X124351493Y-63009598D02*
X124399112Y-63104836D01*
X124399112Y-63104836D02*
X124399112Y-63342931D01*
X124399112Y-63342931D02*
X124351493Y-63438169D01*
X124351493Y-63438169D02*
X124303874Y-63485789D01*
X124303874Y-63485789D02*
X124208636Y-63533408D01*
X124208636Y-63533408D02*
X123922922Y-63533408D01*
X123922922Y-63533408D02*
X123827684Y-63485789D01*
X123827684Y-63485789D02*
X123780065Y-63438169D01*
X136241970Y-63025408D02*
X136146732Y-62977789D01*
X136146732Y-62977789D02*
X136099113Y-62930169D01*
X136099113Y-62930169D02*
X136051494Y-62834931D01*
X136051494Y-62834931D02*
X136051494Y-62549217D01*
X136051494Y-62549217D02*
X136099113Y-62453979D01*
X136099113Y-62453979D02*
X136146732Y-62406360D01*
X136146732Y-62406360D02*
X136241970Y-62358741D01*
X136241970Y-62358741D02*
X136384827Y-62358741D01*
X136384827Y-62358741D02*
X136480065Y-62406360D01*
X136480065Y-62406360D02*
X136527684Y-62453979D01*
X136527684Y-62453979D02*
X136575303Y-62549217D01*
X136575303Y-62549217D02*
X136575303Y-62834931D01*
X136575303Y-62834931D02*
X136527684Y-62930169D01*
X136527684Y-62930169D02*
X136480065Y-62977789D01*
X136480065Y-62977789D02*
X136384827Y-63025408D01*
X136384827Y-63025408D02*
X136241970Y-63025408D01*
X137432446Y-62358741D02*
X137432446Y-63025408D01*
X137194351Y-61977789D02*
X136956256Y-62692074D01*
X136956256Y-62692074D02*
X137575303Y-62692074D01*
D13*
X125804160Y-67028217D02*
X125804160Y-65528217D01*
X125804160Y-65528217D02*
X126375589Y-65528217D01*
X126375589Y-65528217D02*
X126518446Y-65599646D01*
X126518446Y-65599646D02*
X126589875Y-65671074D01*
X126589875Y-65671074D02*
X126661303Y-65813931D01*
X126661303Y-65813931D02*
X126661303Y-66028217D01*
X126661303Y-66028217D02*
X126589875Y-66171074D01*
X126589875Y-66171074D02*
X126518446Y-66242503D01*
X126518446Y-66242503D02*
X126375589Y-66313931D01*
X126375589Y-66313931D02*
X125804160Y-66313931D01*
X127304160Y-67028217D02*
X127304160Y-66028217D01*
X127304160Y-66171074D02*
X127375589Y-66099646D01*
X127375589Y-66099646D02*
X127518446Y-66028217D01*
X127518446Y-66028217D02*
X127732732Y-66028217D01*
X127732732Y-66028217D02*
X127875589Y-66099646D01*
X127875589Y-66099646D02*
X127947018Y-66242503D01*
X127947018Y-66242503D02*
X127947018Y-67028217D01*
X127947018Y-66242503D02*
X128018446Y-66099646D01*
X128018446Y-66099646D02*
X128161303Y-66028217D01*
X128161303Y-66028217D02*
X128375589Y-66028217D01*
X128375589Y-66028217D02*
X128518446Y-66099646D01*
X128518446Y-66099646D02*
X128589875Y-66242503D01*
X128589875Y-66242503D02*
X128589875Y-67028217D01*
X129518446Y-67028217D02*
X129375589Y-66956789D01*
X129375589Y-66956789D02*
X129304160Y-66885360D01*
X129304160Y-66885360D02*
X129232732Y-66742503D01*
X129232732Y-66742503D02*
X129232732Y-66313931D01*
X129232732Y-66313931D02*
X129304160Y-66171074D01*
X129304160Y-66171074D02*
X129375589Y-66099646D01*
X129375589Y-66099646D02*
X129518446Y-66028217D01*
X129518446Y-66028217D02*
X129732732Y-66028217D01*
X129732732Y-66028217D02*
X129875589Y-66099646D01*
X129875589Y-66099646D02*
X129947018Y-66171074D01*
X129947018Y-66171074D02*
X130018446Y-66313931D01*
X130018446Y-66313931D02*
X130018446Y-66742503D01*
X130018446Y-66742503D02*
X129947018Y-66885360D01*
X129947018Y-66885360D02*
X129875589Y-66956789D01*
X129875589Y-66956789D02*
X129732732Y-67028217D01*
X129732732Y-67028217D02*
X129518446Y-67028217D01*
X131304161Y-67028217D02*
X131304161Y-65528217D01*
X131304161Y-66956789D02*
X131161303Y-67028217D01*
X131161303Y-67028217D02*
X130875589Y-67028217D01*
X130875589Y-67028217D02*
X130732732Y-66956789D01*
X130732732Y-66956789D02*
X130661303Y-66885360D01*
X130661303Y-66885360D02*
X130589875Y-66742503D01*
X130589875Y-66742503D02*
X130589875Y-66313931D01*
X130589875Y-66313931D02*
X130661303Y-66171074D01*
X130661303Y-66171074D02*
X130732732Y-66099646D01*
X130732732Y-66099646D02*
X130875589Y-66028217D01*
X130875589Y-66028217D02*
X131161303Y-66028217D01*
X131161303Y-66028217D02*
X131304161Y-66099646D01*
X131661304Y-67171074D02*
X132804161Y-67171074D01*
X134018446Y-66885360D02*
X133947018Y-66956789D01*
X133947018Y-66956789D02*
X133732732Y-67028217D01*
X133732732Y-67028217D02*
X133589875Y-67028217D01*
X133589875Y-67028217D02*
X133375589Y-66956789D01*
X133375589Y-66956789D02*
X133232732Y-66813931D01*
X133232732Y-66813931D02*
X133161303Y-66671074D01*
X133161303Y-66671074D02*
X133089875Y-66385360D01*
X133089875Y-66385360D02*
X133089875Y-66171074D01*
X133089875Y-66171074D02*
X133161303Y-65885360D01*
X133161303Y-65885360D02*
X133232732Y-65742503D01*
X133232732Y-65742503D02*
X133375589Y-65599646D01*
X133375589Y-65599646D02*
X133589875Y-65528217D01*
X133589875Y-65528217D02*
X133732732Y-65528217D01*
X133732732Y-65528217D02*
X133947018Y-65599646D01*
X133947018Y-65599646D02*
X134018446Y-65671074D01*
X134875589Y-67028217D02*
X134732732Y-66956789D01*
X134732732Y-66956789D02*
X134661303Y-66885360D01*
X134661303Y-66885360D02*
X134589875Y-66742503D01*
X134589875Y-66742503D02*
X134589875Y-66313931D01*
X134589875Y-66313931D02*
X134661303Y-66171074D01*
X134661303Y-66171074D02*
X134732732Y-66099646D01*
X134732732Y-66099646D02*
X134875589Y-66028217D01*
X134875589Y-66028217D02*
X135089875Y-66028217D01*
X135089875Y-66028217D02*
X135232732Y-66099646D01*
X135232732Y-66099646D02*
X135304161Y-66171074D01*
X135304161Y-66171074D02*
X135375589Y-66313931D01*
X135375589Y-66313931D02*
X135375589Y-66742503D01*
X135375589Y-66742503D02*
X135304161Y-66885360D01*
X135304161Y-66885360D02*
X135232732Y-66956789D01*
X135232732Y-66956789D02*
X135089875Y-67028217D01*
X135089875Y-67028217D02*
X134875589Y-67028217D01*
X136232732Y-67028217D02*
X136089875Y-66956789D01*
X136089875Y-66956789D02*
X136018446Y-66813931D01*
X136018446Y-66813931D02*
X136018446Y-65528217D01*
X137018446Y-67028217D02*
X136875589Y-66956789D01*
X136875589Y-66956789D02*
X136804160Y-66885360D01*
X136804160Y-66885360D02*
X136732732Y-66742503D01*
X136732732Y-66742503D02*
X136732732Y-66313931D01*
X136732732Y-66313931D02*
X136804160Y-66171074D01*
X136804160Y-66171074D02*
X136875589Y-66099646D01*
X136875589Y-66099646D02*
X137018446Y-66028217D01*
X137018446Y-66028217D02*
X137232732Y-66028217D01*
X137232732Y-66028217D02*
X137375589Y-66099646D01*
X137375589Y-66099646D02*
X137447018Y-66171074D01*
X137447018Y-66171074D02*
X137518446Y-66313931D01*
X137518446Y-66313931D02*
X137518446Y-66742503D01*
X137518446Y-66742503D02*
X137447018Y-66885360D01*
X137447018Y-66885360D02*
X137375589Y-66956789D01*
X137375589Y-66956789D02*
X137232732Y-67028217D01*
X137232732Y-67028217D02*
X137018446Y-67028217D01*
X138161303Y-67028217D02*
X138161303Y-66028217D01*
X138161303Y-66313931D02*
X138232732Y-66171074D01*
X138232732Y-66171074D02*
X138304161Y-66099646D01*
X138304161Y-66099646D02*
X138447018Y-66028217D01*
X138447018Y-66028217D02*
X138589875Y-66028217D01*
X138732732Y-67171074D02*
X139875589Y-67171074D01*
X140947017Y-67028217D02*
X140232731Y-67028217D01*
X140232731Y-67028217D02*
X140232731Y-65528217D01*
X141447017Y-66242503D02*
X141947017Y-66242503D01*
X142161303Y-67028217D02*
X141447017Y-67028217D01*
X141447017Y-67028217D02*
X141447017Y-65528217D01*
X141447017Y-65528217D02*
X142161303Y-65528217D01*
X142804160Y-67028217D02*
X142804160Y-65528217D01*
X142804160Y-65528217D02*
X143161303Y-65528217D01*
X143161303Y-65528217D02*
X143375589Y-65599646D01*
X143375589Y-65599646D02*
X143518446Y-65742503D01*
X143518446Y-65742503D02*
X143589875Y-65885360D01*
X143589875Y-65885360D02*
X143661303Y-66171074D01*
X143661303Y-66171074D02*
X143661303Y-66385360D01*
X143661303Y-66385360D02*
X143589875Y-66671074D01*
X143589875Y-66671074D02*
X143518446Y-66813931D01*
X143518446Y-66813931D02*
X143375589Y-66956789D01*
X143375589Y-66956789D02*
X143161303Y-67028217D01*
X143161303Y-67028217D02*
X142804160Y-67028217D01*
X145232732Y-65528217D02*
X145732732Y-67028217D01*
X145732732Y-67028217D02*
X146232732Y-65528217D01*
X147304160Y-66956789D02*
X147161303Y-67028217D01*
X147161303Y-67028217D02*
X146875589Y-67028217D01*
X146875589Y-67028217D02*
X146732731Y-66956789D01*
X146732731Y-66956789D02*
X146661303Y-66813931D01*
X146661303Y-66813931D02*
X146661303Y-66242503D01*
X146661303Y-66242503D02*
X146732731Y-66099646D01*
X146732731Y-66099646D02*
X146875589Y-66028217D01*
X146875589Y-66028217D02*
X147161303Y-66028217D01*
X147161303Y-66028217D02*
X147304160Y-66099646D01*
X147304160Y-66099646D02*
X147375589Y-66242503D01*
X147375589Y-66242503D02*
X147375589Y-66385360D01*
X147375589Y-66385360D02*
X146661303Y-66528217D01*
X148018445Y-67028217D02*
X148018445Y-66028217D01*
X148018445Y-66313931D02*
X148089874Y-66171074D01*
X148089874Y-66171074D02*
X148161303Y-66099646D01*
X148161303Y-66099646D02*
X148304160Y-66028217D01*
X148304160Y-66028217D02*
X148447017Y-66028217D01*
X148947016Y-66885360D02*
X149018445Y-66956789D01*
X149018445Y-66956789D02*
X148947016Y-67028217D01*
X148947016Y-67028217D02*
X148875588Y-66956789D01*
X148875588Y-66956789D02*
X148947016Y-66885360D01*
X148947016Y-66885360D02*
X148947016Y-67028217D01*
X151089874Y-65528217D02*
X151232731Y-65528217D01*
X151232731Y-65528217D02*
X151375588Y-65599646D01*
X151375588Y-65599646D02*
X151447017Y-65671074D01*
X151447017Y-65671074D02*
X151518445Y-65813931D01*
X151518445Y-65813931D02*
X151589874Y-66099646D01*
X151589874Y-66099646D02*
X151589874Y-66456789D01*
X151589874Y-66456789D02*
X151518445Y-66742503D01*
X151518445Y-66742503D02*
X151447017Y-66885360D01*
X151447017Y-66885360D02*
X151375588Y-66956789D01*
X151375588Y-66956789D02*
X151232731Y-67028217D01*
X151232731Y-67028217D02*
X151089874Y-67028217D01*
X151089874Y-67028217D02*
X150947017Y-66956789D01*
X150947017Y-66956789D02*
X150875588Y-66885360D01*
X150875588Y-66885360D02*
X150804159Y-66742503D01*
X150804159Y-66742503D02*
X150732731Y-66456789D01*
X150732731Y-66456789D02*
X150732731Y-66099646D01*
X150732731Y-66099646D02*
X150804159Y-65813931D01*
X150804159Y-65813931D02*
X150875588Y-65671074D01*
X150875588Y-65671074D02*
X150947017Y-65599646D01*
X150947017Y-65599646D02*
X151089874Y-65528217D01*
X152232730Y-66885360D02*
X152304159Y-66956789D01*
X152304159Y-66956789D02*
X152232730Y-67028217D01*
X152232730Y-67028217D02*
X152161302Y-66956789D01*
X152161302Y-66956789D02*
X152232730Y-66885360D01*
X152232730Y-66885360D02*
X152232730Y-67028217D01*
X152875588Y-65671074D02*
X152947016Y-65599646D01*
X152947016Y-65599646D02*
X153089874Y-65528217D01*
X153089874Y-65528217D02*
X153447016Y-65528217D01*
X153447016Y-65528217D02*
X153589874Y-65599646D01*
X153589874Y-65599646D02*
X153661302Y-65671074D01*
X153661302Y-65671074D02*
X153732731Y-65813931D01*
X153732731Y-65813931D02*
X153732731Y-65956789D01*
X153732731Y-65956789D02*
X153661302Y-66171074D01*
X153661302Y-66171074D02*
X152804159Y-67028217D01*
X152804159Y-67028217D02*
X153732731Y-67028217D01*
D11*
X151742351Y-26358757D02*
X152209018Y-27758757D01*
X152209018Y-27758757D02*
X152675684Y-26358757D01*
X153742351Y-27692091D02*
X153609018Y-27758757D01*
X153609018Y-27758757D02*
X153342351Y-27758757D01*
X153342351Y-27758757D02*
X153209018Y-27692091D01*
X153209018Y-27692091D02*
X153142351Y-27625424D01*
X153142351Y-27625424D02*
X153075684Y-27492091D01*
X153075684Y-27492091D02*
X153075684Y-27092091D01*
X153075684Y-27092091D02*
X153142351Y-26958757D01*
X153142351Y-26958757D02*
X153209018Y-26892091D01*
X153209018Y-26892091D02*
X153342351Y-26825424D01*
X153342351Y-26825424D02*
X153609018Y-26825424D01*
X153609018Y-26825424D02*
X153742351Y-26892091D01*
X154942351Y-27692091D02*
X154809018Y-27758757D01*
X154809018Y-27758757D02*
X154542351Y-27758757D01*
X154542351Y-27758757D02*
X154409018Y-27692091D01*
X154409018Y-27692091D02*
X154342351Y-27625424D01*
X154342351Y-27625424D02*
X154275684Y-27492091D01*
X154275684Y-27492091D02*
X154275684Y-27092091D01*
X154275684Y-27092091D02*
X154342351Y-26958757D01*
X154342351Y-26958757D02*
X154409018Y-26892091D01*
X154409018Y-26892091D02*
X154542351Y-26825424D01*
X154542351Y-26825424D02*
X154809018Y-26825424D01*
X154809018Y-26825424D02*
X154942351Y-26892091D01*
D12*
X133447970Y-51341408D02*
X133352732Y-51293789D01*
X133352732Y-51293789D02*
X133305113Y-51246169D01*
X133305113Y-51246169D02*
X133257494Y-51150931D01*
X133257494Y-51150931D02*
X133257494Y-50865217D01*
X133257494Y-50865217D02*
X133305113Y-50769979D01*
X133305113Y-50769979D02*
X133352732Y-50722360D01*
X133352732Y-50722360D02*
X133447970Y-50674741D01*
X133447970Y-50674741D02*
X133590827Y-50674741D01*
X133590827Y-50674741D02*
X133686065Y-50722360D01*
X133686065Y-50722360D02*
X133733684Y-50769979D01*
X133733684Y-50769979D02*
X133781303Y-50865217D01*
X133781303Y-50865217D02*
X133781303Y-51150931D01*
X133781303Y-51150931D02*
X133733684Y-51246169D01*
X133733684Y-51246169D02*
X133686065Y-51293789D01*
X133686065Y-51293789D02*
X133590827Y-51341408D01*
X133590827Y-51341408D02*
X133447970Y-51341408D01*
X134733684Y-51341408D02*
X134162256Y-51341408D01*
X134447970Y-51341408D02*
X134447970Y-50341408D01*
X134447970Y-50341408D02*
X134352732Y-50484265D01*
X134352732Y-50484265D02*
X134257494Y-50579503D01*
X134257494Y-50579503D02*
X134162256Y-50627122D01*
X120620970Y-74113106D02*
X120525732Y-74065487D01*
X120525732Y-74065487D02*
X120478113Y-74017867D01*
X120478113Y-74017867D02*
X120430494Y-73922629D01*
X120430494Y-73922629D02*
X120430494Y-73636915D01*
X120430494Y-73636915D02*
X120478113Y-73541677D01*
X120478113Y-73541677D02*
X120525732Y-73494058D01*
X120525732Y-73494058D02*
X120620970Y-73446439D01*
X120620970Y-73446439D02*
X120763827Y-73446439D01*
X120763827Y-73446439D02*
X120859065Y-73494058D01*
X120859065Y-73494058D02*
X120906684Y-73541677D01*
X120906684Y-73541677D02*
X120954303Y-73636915D01*
X120954303Y-73636915D02*
X120954303Y-73922629D01*
X120954303Y-73922629D02*
X120906684Y-74017867D01*
X120906684Y-74017867D02*
X120859065Y-74065487D01*
X120859065Y-74065487D02*
X120763827Y-74113106D01*
X120763827Y-74113106D02*
X120620970Y-74113106D01*
X121335256Y-73208344D02*
X121382875Y-73160725D01*
X121382875Y-73160725D02*
X121478113Y-73113106D01*
X121478113Y-73113106D02*
X121716208Y-73113106D01*
X121716208Y-73113106D02*
X121811446Y-73160725D01*
X121811446Y-73160725D02*
X121859065Y-73208344D01*
X121859065Y-73208344D02*
X121906684Y-73303582D01*
X121906684Y-73303582D02*
X121906684Y-73398820D01*
X121906684Y-73398820D02*
X121859065Y-73541677D01*
X121859065Y-73541677D02*
X121287637Y-74113106D01*
X121287637Y-74113106D02*
X121906684Y-74113106D01*
X131019113Y-51341408D02*
X131019113Y-50674741D01*
X131019113Y-50341408D02*
X130971494Y-50389027D01*
X130971494Y-50389027D02*
X131019113Y-50436646D01*
X131019113Y-50436646D02*
X131066732Y-50389027D01*
X131066732Y-50389027D02*
X131019113Y-50341408D01*
X131019113Y-50341408D02*
X131019113Y-50436646D01*
X132019112Y-51341408D02*
X131447684Y-51341408D01*
X131733398Y-51341408D02*
X131733398Y-50341408D01*
X131733398Y-50341408D02*
X131638160Y-50484265D01*
X131638160Y-50484265D02*
X131542922Y-50579503D01*
X131542922Y-50579503D02*
X131447684Y-50627122D01*
D10*
X182581113Y-95462404D02*
X182581113Y-94795737D01*
X182581113Y-94462404D02*
X182533494Y-94510023D01*
X182533494Y-94510023D02*
X182581113Y-94557642D01*
X182581113Y-94557642D02*
X182628732Y-94510023D01*
X182628732Y-94510023D02*
X182581113Y-94462404D01*
X182581113Y-94462404D02*
X182581113Y-94557642D01*
X183057303Y-94795737D02*
X183057303Y-95462404D01*
X183057303Y-94890975D02*
X183104922Y-94843356D01*
X183104922Y-94843356D02*
X183200160Y-94795737D01*
X183200160Y-94795737D02*
X183343017Y-94795737D01*
X183343017Y-94795737D02*
X183438255Y-94843356D01*
X183438255Y-94843356D02*
X183485874Y-94938594D01*
X183485874Y-94938594D02*
X183485874Y-95462404D01*
X113604256Y-88353106D02*
X113937589Y-89353106D01*
X113937589Y-89353106D02*
X114270922Y-88353106D01*
X115032827Y-89305487D02*
X114937589Y-89353106D01*
X114937589Y-89353106D02*
X114747113Y-89353106D01*
X114747113Y-89353106D02*
X114651875Y-89305487D01*
X114651875Y-89305487D02*
X114604256Y-89257867D01*
X114604256Y-89257867D02*
X114556637Y-89162629D01*
X114556637Y-89162629D02*
X114556637Y-88876915D01*
X114556637Y-88876915D02*
X114604256Y-88781677D01*
X114604256Y-88781677D02*
X114651875Y-88734058D01*
X114651875Y-88734058D02*
X114747113Y-88686439D01*
X114747113Y-88686439D02*
X114937589Y-88686439D01*
X114937589Y-88686439D02*
X115032827Y-88734058D01*
X115889970Y-89305487D02*
X115794732Y-89353106D01*
X115794732Y-89353106D02*
X115604256Y-89353106D01*
X115604256Y-89353106D02*
X115509018Y-89305487D01*
X115509018Y-89305487D02*
X115461399Y-89257867D01*
X115461399Y-89257867D02*
X115413780Y-89162629D01*
X115413780Y-89162629D02*
X115413780Y-88876915D01*
X115413780Y-88876915D02*
X115461399Y-88781677D01*
X115461399Y-88781677D02*
X115509018Y-88734058D01*
X115509018Y-88734058D02*
X115604256Y-88686439D01*
X115604256Y-88686439D02*
X115794732Y-88686439D01*
X115794732Y-88686439D02*
X115889970Y-88734058D01*
D12*
X131019113Y-73859106D02*
X131019113Y-73192439D01*
X131019113Y-72859106D02*
X130971494Y-72906725D01*
X130971494Y-72906725D02*
X131019113Y-72954344D01*
X131019113Y-72954344D02*
X131066732Y-72906725D01*
X131066732Y-72906725D02*
X131019113Y-72859106D01*
X131019113Y-72859106D02*
X131019113Y-72954344D01*
X132019112Y-73859106D02*
X131447684Y-73859106D01*
X131733398Y-73859106D02*
X131733398Y-72859106D01*
X131733398Y-72859106D02*
X131638160Y-73001963D01*
X131638160Y-73001963D02*
X131542922Y-73097201D01*
X131542922Y-73097201D02*
X131447684Y-73144820D01*
D10*
X113604256Y-65835408D02*
X113937589Y-66835408D01*
X113937589Y-66835408D02*
X114270922Y-65835408D01*
X115032827Y-66787789D02*
X114937589Y-66835408D01*
X114937589Y-66835408D02*
X114747113Y-66835408D01*
X114747113Y-66835408D02*
X114651875Y-66787789D01*
X114651875Y-66787789D02*
X114604256Y-66740169D01*
X114604256Y-66740169D02*
X114556637Y-66644931D01*
X114556637Y-66644931D02*
X114556637Y-66359217D01*
X114556637Y-66359217D02*
X114604256Y-66263979D01*
X114604256Y-66263979D02*
X114651875Y-66216360D01*
X114651875Y-66216360D02*
X114747113Y-66168741D01*
X114747113Y-66168741D02*
X114937589Y-66168741D01*
X114937589Y-66168741D02*
X115032827Y-66216360D01*
X115889970Y-66787789D02*
X115794732Y-66835408D01*
X115794732Y-66835408D02*
X115604256Y-66835408D01*
X115604256Y-66835408D02*
X115509018Y-66787789D01*
X115509018Y-66787789D02*
X115461399Y-66740169D01*
X115461399Y-66740169D02*
X115413780Y-66644931D01*
X115413780Y-66644931D02*
X115413780Y-66359217D01*
X115413780Y-66359217D02*
X115461399Y-66263979D01*
X115461399Y-66263979D02*
X115509018Y-66216360D01*
X115509018Y-66216360D02*
X115604256Y-66168741D01*
X115604256Y-66168741D02*
X115794732Y-66168741D01*
X115794732Y-66168741D02*
X115889970Y-66216360D01*
D12*
X133447970Y-28823710D02*
X133352732Y-28776091D01*
X133352732Y-28776091D02*
X133305113Y-28728471D01*
X133305113Y-28728471D02*
X133257494Y-28633233D01*
X133257494Y-28633233D02*
X133257494Y-28347519D01*
X133257494Y-28347519D02*
X133305113Y-28252281D01*
X133305113Y-28252281D02*
X133352732Y-28204662D01*
X133352732Y-28204662D02*
X133447970Y-28157043D01*
X133447970Y-28157043D02*
X133590827Y-28157043D01*
X133590827Y-28157043D02*
X133686065Y-28204662D01*
X133686065Y-28204662D02*
X133733684Y-28252281D01*
X133733684Y-28252281D02*
X133781303Y-28347519D01*
X133781303Y-28347519D02*
X133781303Y-28633233D01*
X133781303Y-28633233D02*
X133733684Y-28728471D01*
X133733684Y-28728471D02*
X133686065Y-28776091D01*
X133686065Y-28776091D02*
X133590827Y-28823710D01*
X133590827Y-28823710D02*
X133447970Y-28823710D01*
X134733684Y-28823710D02*
X134162256Y-28823710D01*
X134447970Y-28823710D02*
X134447970Y-27823710D01*
X134447970Y-27823710D02*
X134352732Y-27966567D01*
X134352732Y-27966567D02*
X134257494Y-28061805D01*
X134257494Y-28061805D02*
X134162256Y-28109424D01*
X123145113Y-51595408D02*
X123145113Y-50928741D01*
X123145113Y-50595408D02*
X123097494Y-50643027D01*
X123097494Y-50643027D02*
X123145113Y-50690646D01*
X123145113Y-50690646D02*
X123192732Y-50643027D01*
X123192732Y-50643027D02*
X123145113Y-50595408D01*
X123145113Y-50595408D02*
X123145113Y-50690646D01*
X123573684Y-50690646D02*
X123621303Y-50643027D01*
X123621303Y-50643027D02*
X123716541Y-50595408D01*
X123716541Y-50595408D02*
X123954636Y-50595408D01*
X123954636Y-50595408D02*
X124049874Y-50643027D01*
X124049874Y-50643027D02*
X124097493Y-50690646D01*
X124097493Y-50690646D02*
X124145112Y-50785884D01*
X124145112Y-50785884D02*
X124145112Y-50881122D01*
X124145112Y-50881122D02*
X124097493Y-51023979D01*
X124097493Y-51023979D02*
X123526065Y-51595408D01*
X123526065Y-51595408D02*
X124145112Y-51595408D01*
D10*
X122795827Y-35507043D02*
X122557732Y-35507043D01*
X122557732Y-35507043D02*
X122557732Y-34078471D01*
X122557732Y-34078471D02*
X122795827Y-34078471D01*
X123033923Y-34173710D02*
X123605351Y-34173710D01*
X123319637Y-35173710D02*
X123319637Y-34173710D01*
X124272018Y-34649900D02*
X124414875Y-34697519D01*
X124414875Y-34697519D02*
X124462494Y-34745138D01*
X124462494Y-34745138D02*
X124510113Y-34840376D01*
X124510113Y-34840376D02*
X124510113Y-34983233D01*
X124510113Y-34983233D02*
X124462494Y-35078471D01*
X124462494Y-35078471D02*
X124414875Y-35126091D01*
X124414875Y-35126091D02*
X124319637Y-35173710D01*
X124319637Y-35173710D02*
X123938685Y-35173710D01*
X123938685Y-35173710D02*
X123938685Y-34173710D01*
X123938685Y-34173710D02*
X124272018Y-34173710D01*
X124272018Y-34173710D02*
X124367256Y-34221329D01*
X124367256Y-34221329D02*
X124414875Y-34268948D01*
X124414875Y-34268948D02*
X124462494Y-34364186D01*
X124462494Y-34364186D02*
X124462494Y-34459424D01*
X124462494Y-34459424D02*
X124414875Y-34554662D01*
X124414875Y-34554662D02*
X124367256Y-34602281D01*
X124367256Y-34602281D02*
X124272018Y-34649900D01*
X124272018Y-34649900D02*
X123938685Y-34649900D01*
X124938685Y-35173710D02*
X124938685Y-34173710D01*
X124938685Y-34173710D02*
X125176780Y-34173710D01*
X125176780Y-34173710D02*
X125319637Y-34221329D01*
X125319637Y-34221329D02*
X125414875Y-34316567D01*
X125414875Y-34316567D02*
X125462494Y-34411805D01*
X125462494Y-34411805D02*
X125510113Y-34602281D01*
X125510113Y-34602281D02*
X125510113Y-34745138D01*
X125510113Y-34745138D02*
X125462494Y-34935614D01*
X125462494Y-34935614D02*
X125414875Y-35030852D01*
X125414875Y-35030852D02*
X125319637Y-35126091D01*
X125319637Y-35126091D02*
X125176780Y-35173710D01*
X125176780Y-35173710D02*
X124938685Y-35173710D01*
X126367256Y-34173710D02*
X126176780Y-34173710D01*
X126176780Y-34173710D02*
X126081542Y-34221329D01*
X126081542Y-34221329D02*
X126033923Y-34268948D01*
X126033923Y-34268948D02*
X125938685Y-34411805D01*
X125938685Y-34411805D02*
X125891066Y-34602281D01*
X125891066Y-34602281D02*
X125891066Y-34983233D01*
X125891066Y-34983233D02*
X125938685Y-35078471D01*
X125938685Y-35078471D02*
X125986304Y-35126091D01*
X125986304Y-35126091D02*
X126081542Y-35173710D01*
X126081542Y-35173710D02*
X126272018Y-35173710D01*
X126272018Y-35173710D02*
X126367256Y-35126091D01*
X126367256Y-35126091D02*
X126414875Y-35078471D01*
X126414875Y-35078471D02*
X126462494Y-34983233D01*
X126462494Y-34983233D02*
X126462494Y-34745138D01*
X126462494Y-34745138D02*
X126414875Y-34649900D01*
X126414875Y-34649900D02*
X126367256Y-34602281D01*
X126367256Y-34602281D02*
X126272018Y-34554662D01*
X126272018Y-34554662D02*
X126081542Y-34554662D01*
X126081542Y-34554662D02*
X125986304Y-34602281D01*
X125986304Y-34602281D02*
X125938685Y-34649900D01*
X125938685Y-34649900D02*
X125891066Y-34745138D01*
X126843447Y-34268948D02*
X126891066Y-34221329D01*
X126891066Y-34221329D02*
X126986304Y-34173710D01*
X126986304Y-34173710D02*
X127224399Y-34173710D01*
X127224399Y-34173710D02*
X127319637Y-34221329D01*
X127319637Y-34221329D02*
X127367256Y-34268948D01*
X127367256Y-34268948D02*
X127414875Y-34364186D01*
X127414875Y-34364186D02*
X127414875Y-34459424D01*
X127414875Y-34459424D02*
X127367256Y-34602281D01*
X127367256Y-34602281D02*
X126795828Y-35173710D01*
X126795828Y-35173710D02*
X127414875Y-35173710D01*
X128033923Y-34173710D02*
X128129161Y-34173710D01*
X128129161Y-34173710D02*
X128224399Y-34221329D01*
X128224399Y-34221329D02*
X128272018Y-34268948D01*
X128272018Y-34268948D02*
X128319637Y-34364186D01*
X128319637Y-34364186D02*
X128367256Y-34554662D01*
X128367256Y-34554662D02*
X128367256Y-34792757D01*
X128367256Y-34792757D02*
X128319637Y-34983233D01*
X128319637Y-34983233D02*
X128272018Y-35078471D01*
X128272018Y-35078471D02*
X128224399Y-35126091D01*
X128224399Y-35126091D02*
X128129161Y-35173710D01*
X128129161Y-35173710D02*
X128033923Y-35173710D01*
X128033923Y-35173710D02*
X127938685Y-35126091D01*
X127938685Y-35126091D02*
X127891066Y-35078471D01*
X127891066Y-35078471D02*
X127843447Y-34983233D01*
X127843447Y-34983233D02*
X127795828Y-34792757D01*
X127795828Y-34792757D02*
X127795828Y-34554662D01*
X127795828Y-34554662D02*
X127843447Y-34364186D01*
X127843447Y-34364186D02*
X127891066Y-34268948D01*
X127891066Y-34268948D02*
X127938685Y-34221329D01*
X127938685Y-34221329D02*
X128033923Y-34173710D01*
X129224399Y-34173710D02*
X129033923Y-34173710D01*
X129033923Y-34173710D02*
X128938685Y-34221329D01*
X128938685Y-34221329D02*
X128891066Y-34268948D01*
X128891066Y-34268948D02*
X128795828Y-34411805D01*
X128795828Y-34411805D02*
X128748209Y-34602281D01*
X128748209Y-34602281D02*
X128748209Y-34983233D01*
X128748209Y-34983233D02*
X128795828Y-35078471D01*
X128795828Y-35078471D02*
X128843447Y-35126091D01*
X128843447Y-35126091D02*
X128938685Y-35173710D01*
X128938685Y-35173710D02*
X129129161Y-35173710D01*
X129129161Y-35173710D02*
X129224399Y-35126091D01*
X129224399Y-35126091D02*
X129272018Y-35078471D01*
X129272018Y-35078471D02*
X129319637Y-34983233D01*
X129319637Y-34983233D02*
X129319637Y-34745138D01*
X129319637Y-34745138D02*
X129272018Y-34649900D01*
X129272018Y-34649900D02*
X129224399Y-34602281D01*
X129224399Y-34602281D02*
X129129161Y-34554662D01*
X129129161Y-34554662D02*
X128938685Y-34554662D01*
X128938685Y-34554662D02*
X128843447Y-34602281D01*
X128843447Y-34602281D02*
X128795828Y-34649900D01*
X128795828Y-34649900D02*
X128748209Y-34745138D01*
X130176780Y-34507043D02*
X130176780Y-35173710D01*
X129938685Y-34126091D02*
X129700590Y-34840376D01*
X129700590Y-34840376D02*
X130319637Y-34840376D01*
X130652971Y-34887995D02*
X131129161Y-34887995D01*
X130557733Y-35173710D02*
X130891066Y-34173710D01*
X130891066Y-34173710D02*
X131224399Y-35173710D01*
X131557733Y-35173710D02*
X131557733Y-34173710D01*
X131557733Y-34173710D02*
X131938685Y-34173710D01*
X131938685Y-34173710D02*
X132033923Y-34221329D01*
X132033923Y-34221329D02*
X132081542Y-34268948D01*
X132081542Y-34268948D02*
X132129161Y-34364186D01*
X132129161Y-34364186D02*
X132129161Y-34507043D01*
X132129161Y-34507043D02*
X132081542Y-34602281D01*
X132081542Y-34602281D02*
X132033923Y-34649900D01*
X132033923Y-34649900D02*
X131938685Y-34697519D01*
X131938685Y-34697519D02*
X131557733Y-34697519D01*
X133081542Y-34221329D02*
X132986304Y-34173710D01*
X132986304Y-34173710D02*
X132843447Y-34173710D01*
X132843447Y-34173710D02*
X132700590Y-34221329D01*
X132700590Y-34221329D02*
X132605352Y-34316567D01*
X132605352Y-34316567D02*
X132557733Y-34411805D01*
X132557733Y-34411805D02*
X132510114Y-34602281D01*
X132510114Y-34602281D02*
X132510114Y-34745138D01*
X132510114Y-34745138D02*
X132557733Y-34935614D01*
X132557733Y-34935614D02*
X132605352Y-35030852D01*
X132605352Y-35030852D02*
X132700590Y-35126091D01*
X132700590Y-35126091D02*
X132843447Y-35173710D01*
X132843447Y-35173710D02*
X132938685Y-35173710D01*
X132938685Y-35173710D02*
X133081542Y-35126091D01*
X133081542Y-35126091D02*
X133129161Y-35078471D01*
X133129161Y-35078471D02*
X133129161Y-34745138D01*
X133129161Y-34745138D02*
X132938685Y-34745138D01*
X133462495Y-35507043D02*
X133700590Y-35507043D01*
X133700590Y-35507043D02*
X133700590Y-34078471D01*
X133700590Y-34078471D02*
X133462495Y-34078471D01*
X182581113Y-72944706D02*
X182581113Y-72278039D01*
X182581113Y-71944706D02*
X182533494Y-71992325D01*
X182533494Y-71992325D02*
X182581113Y-72039944D01*
X182581113Y-72039944D02*
X182628732Y-71992325D01*
X182628732Y-71992325D02*
X182581113Y-71944706D01*
X182581113Y-71944706D02*
X182581113Y-72039944D01*
X183057303Y-72278039D02*
X183057303Y-72944706D01*
X183057303Y-72373277D02*
X183104922Y-72325658D01*
X183104922Y-72325658D02*
X183200160Y-72278039D01*
X183200160Y-72278039D02*
X183343017Y-72278039D01*
X183343017Y-72278039D02*
X183438255Y-72325658D01*
X183438255Y-72325658D02*
X183485874Y-72420896D01*
X183485874Y-72420896D02*
X183485874Y-72944706D01*
D13*
X125804160Y-44510519D02*
X125804160Y-43010519D01*
X125804160Y-43010519D02*
X126375589Y-43010519D01*
X126375589Y-43010519D02*
X126518446Y-43081948D01*
X126518446Y-43081948D02*
X126589875Y-43153376D01*
X126589875Y-43153376D02*
X126661303Y-43296233D01*
X126661303Y-43296233D02*
X126661303Y-43510519D01*
X126661303Y-43510519D02*
X126589875Y-43653376D01*
X126589875Y-43653376D02*
X126518446Y-43724805D01*
X126518446Y-43724805D02*
X126375589Y-43796233D01*
X126375589Y-43796233D02*
X125804160Y-43796233D01*
X127304160Y-44510519D02*
X127304160Y-43510519D01*
X127304160Y-43653376D02*
X127375589Y-43581948D01*
X127375589Y-43581948D02*
X127518446Y-43510519D01*
X127518446Y-43510519D02*
X127732732Y-43510519D01*
X127732732Y-43510519D02*
X127875589Y-43581948D01*
X127875589Y-43581948D02*
X127947018Y-43724805D01*
X127947018Y-43724805D02*
X127947018Y-44510519D01*
X127947018Y-43724805D02*
X128018446Y-43581948D01*
X128018446Y-43581948D02*
X128161303Y-43510519D01*
X128161303Y-43510519D02*
X128375589Y-43510519D01*
X128375589Y-43510519D02*
X128518446Y-43581948D01*
X128518446Y-43581948D02*
X128589875Y-43724805D01*
X128589875Y-43724805D02*
X128589875Y-44510519D01*
X129518446Y-44510519D02*
X129375589Y-44439091D01*
X129375589Y-44439091D02*
X129304160Y-44367662D01*
X129304160Y-44367662D02*
X129232732Y-44224805D01*
X129232732Y-44224805D02*
X129232732Y-43796233D01*
X129232732Y-43796233D02*
X129304160Y-43653376D01*
X129304160Y-43653376D02*
X129375589Y-43581948D01*
X129375589Y-43581948D02*
X129518446Y-43510519D01*
X129518446Y-43510519D02*
X129732732Y-43510519D01*
X129732732Y-43510519D02*
X129875589Y-43581948D01*
X129875589Y-43581948D02*
X129947018Y-43653376D01*
X129947018Y-43653376D02*
X130018446Y-43796233D01*
X130018446Y-43796233D02*
X130018446Y-44224805D01*
X130018446Y-44224805D02*
X129947018Y-44367662D01*
X129947018Y-44367662D02*
X129875589Y-44439091D01*
X129875589Y-44439091D02*
X129732732Y-44510519D01*
X129732732Y-44510519D02*
X129518446Y-44510519D01*
X131304161Y-44510519D02*
X131304161Y-43010519D01*
X131304161Y-44439091D02*
X131161303Y-44510519D01*
X131161303Y-44510519D02*
X130875589Y-44510519D01*
X130875589Y-44510519D02*
X130732732Y-44439091D01*
X130732732Y-44439091D02*
X130661303Y-44367662D01*
X130661303Y-44367662D02*
X130589875Y-44224805D01*
X130589875Y-44224805D02*
X130589875Y-43796233D01*
X130589875Y-43796233D02*
X130661303Y-43653376D01*
X130661303Y-43653376D02*
X130732732Y-43581948D01*
X130732732Y-43581948D02*
X130875589Y-43510519D01*
X130875589Y-43510519D02*
X131161303Y-43510519D01*
X131161303Y-43510519D02*
X131304161Y-43581948D01*
X131661304Y-44653376D02*
X132804161Y-44653376D01*
X134018446Y-44367662D02*
X133947018Y-44439091D01*
X133947018Y-44439091D02*
X133732732Y-44510519D01*
X133732732Y-44510519D02*
X133589875Y-44510519D01*
X133589875Y-44510519D02*
X133375589Y-44439091D01*
X133375589Y-44439091D02*
X133232732Y-44296233D01*
X133232732Y-44296233D02*
X133161303Y-44153376D01*
X133161303Y-44153376D02*
X133089875Y-43867662D01*
X133089875Y-43867662D02*
X133089875Y-43653376D01*
X133089875Y-43653376D02*
X133161303Y-43367662D01*
X133161303Y-43367662D02*
X133232732Y-43224805D01*
X133232732Y-43224805D02*
X133375589Y-43081948D01*
X133375589Y-43081948D02*
X133589875Y-43010519D01*
X133589875Y-43010519D02*
X133732732Y-43010519D01*
X133732732Y-43010519D02*
X133947018Y-43081948D01*
X133947018Y-43081948D02*
X134018446Y-43153376D01*
X134875589Y-44510519D02*
X134732732Y-44439091D01*
X134732732Y-44439091D02*
X134661303Y-44367662D01*
X134661303Y-44367662D02*
X134589875Y-44224805D01*
X134589875Y-44224805D02*
X134589875Y-43796233D01*
X134589875Y-43796233D02*
X134661303Y-43653376D01*
X134661303Y-43653376D02*
X134732732Y-43581948D01*
X134732732Y-43581948D02*
X134875589Y-43510519D01*
X134875589Y-43510519D02*
X135089875Y-43510519D01*
X135089875Y-43510519D02*
X135232732Y-43581948D01*
X135232732Y-43581948D02*
X135304161Y-43653376D01*
X135304161Y-43653376D02*
X135375589Y-43796233D01*
X135375589Y-43796233D02*
X135375589Y-44224805D01*
X135375589Y-44224805D02*
X135304161Y-44367662D01*
X135304161Y-44367662D02*
X135232732Y-44439091D01*
X135232732Y-44439091D02*
X135089875Y-44510519D01*
X135089875Y-44510519D02*
X134875589Y-44510519D01*
X136232732Y-44510519D02*
X136089875Y-44439091D01*
X136089875Y-44439091D02*
X136018446Y-44296233D01*
X136018446Y-44296233D02*
X136018446Y-43010519D01*
X137018446Y-44510519D02*
X136875589Y-44439091D01*
X136875589Y-44439091D02*
X136804160Y-44367662D01*
X136804160Y-44367662D02*
X136732732Y-44224805D01*
X136732732Y-44224805D02*
X136732732Y-43796233D01*
X136732732Y-43796233D02*
X136804160Y-43653376D01*
X136804160Y-43653376D02*
X136875589Y-43581948D01*
X136875589Y-43581948D02*
X137018446Y-43510519D01*
X137018446Y-43510519D02*
X137232732Y-43510519D01*
X137232732Y-43510519D02*
X137375589Y-43581948D01*
X137375589Y-43581948D02*
X137447018Y-43653376D01*
X137447018Y-43653376D02*
X137518446Y-43796233D01*
X137518446Y-43796233D02*
X137518446Y-44224805D01*
X137518446Y-44224805D02*
X137447018Y-44367662D01*
X137447018Y-44367662D02*
X137375589Y-44439091D01*
X137375589Y-44439091D02*
X137232732Y-44510519D01*
X137232732Y-44510519D02*
X137018446Y-44510519D01*
X138161303Y-44510519D02*
X138161303Y-43510519D01*
X138161303Y-43796233D02*
X138232732Y-43653376D01*
X138232732Y-43653376D02*
X138304161Y-43581948D01*
X138304161Y-43581948D02*
X138447018Y-43510519D01*
X138447018Y-43510519D02*
X138589875Y-43510519D01*
X138732732Y-44653376D02*
X139875589Y-44653376D01*
X140947017Y-44510519D02*
X140232731Y-44510519D01*
X140232731Y-44510519D02*
X140232731Y-43010519D01*
X141447017Y-43724805D02*
X141947017Y-43724805D01*
X142161303Y-44510519D02*
X141447017Y-44510519D01*
X141447017Y-44510519D02*
X141447017Y-43010519D01*
X141447017Y-43010519D02*
X142161303Y-43010519D01*
X142804160Y-44510519D02*
X142804160Y-43010519D01*
X142804160Y-43010519D02*
X143161303Y-43010519D01*
X143161303Y-43010519D02*
X143375589Y-43081948D01*
X143375589Y-43081948D02*
X143518446Y-43224805D01*
X143518446Y-43224805D02*
X143589875Y-43367662D01*
X143589875Y-43367662D02*
X143661303Y-43653376D01*
X143661303Y-43653376D02*
X143661303Y-43867662D01*
X143661303Y-43867662D02*
X143589875Y-44153376D01*
X143589875Y-44153376D02*
X143518446Y-44296233D01*
X143518446Y-44296233D02*
X143375589Y-44439091D01*
X143375589Y-44439091D02*
X143161303Y-44510519D01*
X143161303Y-44510519D02*
X142804160Y-44510519D01*
X145232732Y-43010519D02*
X145732732Y-44510519D01*
X145732732Y-44510519D02*
X146232732Y-43010519D01*
X147304160Y-44439091D02*
X147161303Y-44510519D01*
X147161303Y-44510519D02*
X146875589Y-44510519D01*
X146875589Y-44510519D02*
X146732731Y-44439091D01*
X146732731Y-44439091D02*
X146661303Y-44296233D01*
X146661303Y-44296233D02*
X146661303Y-43724805D01*
X146661303Y-43724805D02*
X146732731Y-43581948D01*
X146732731Y-43581948D02*
X146875589Y-43510519D01*
X146875589Y-43510519D02*
X147161303Y-43510519D01*
X147161303Y-43510519D02*
X147304160Y-43581948D01*
X147304160Y-43581948D02*
X147375589Y-43724805D01*
X147375589Y-43724805D02*
X147375589Y-43867662D01*
X147375589Y-43867662D02*
X146661303Y-44010519D01*
X148018445Y-44510519D02*
X148018445Y-43510519D01*
X148018445Y-43796233D02*
X148089874Y-43653376D01*
X148089874Y-43653376D02*
X148161303Y-43581948D01*
X148161303Y-43581948D02*
X148304160Y-43510519D01*
X148304160Y-43510519D02*
X148447017Y-43510519D01*
X148947016Y-44367662D02*
X149018445Y-44439091D01*
X149018445Y-44439091D02*
X148947016Y-44510519D01*
X148947016Y-44510519D02*
X148875588Y-44439091D01*
X148875588Y-44439091D02*
X148947016Y-44367662D01*
X148947016Y-44367662D02*
X148947016Y-44510519D01*
X151089874Y-43010519D02*
X151232731Y-43010519D01*
X151232731Y-43010519D02*
X151375588Y-43081948D01*
X151375588Y-43081948D02*
X151447017Y-43153376D01*
X151447017Y-43153376D02*
X151518445Y-43296233D01*
X151518445Y-43296233D02*
X151589874Y-43581948D01*
X151589874Y-43581948D02*
X151589874Y-43939091D01*
X151589874Y-43939091D02*
X151518445Y-44224805D01*
X151518445Y-44224805D02*
X151447017Y-44367662D01*
X151447017Y-44367662D02*
X151375588Y-44439091D01*
X151375588Y-44439091D02*
X151232731Y-44510519D01*
X151232731Y-44510519D02*
X151089874Y-44510519D01*
X151089874Y-44510519D02*
X150947017Y-44439091D01*
X150947017Y-44439091D02*
X150875588Y-44367662D01*
X150875588Y-44367662D02*
X150804159Y-44224805D01*
X150804159Y-44224805D02*
X150732731Y-43939091D01*
X150732731Y-43939091D02*
X150732731Y-43581948D01*
X150732731Y-43581948D02*
X150804159Y-43296233D01*
X150804159Y-43296233D02*
X150875588Y-43153376D01*
X150875588Y-43153376D02*
X150947017Y-43081948D01*
X150947017Y-43081948D02*
X151089874Y-43010519D01*
X152232730Y-44367662D02*
X152304159Y-44439091D01*
X152304159Y-44439091D02*
X152232730Y-44510519D01*
X152232730Y-44510519D02*
X152161302Y-44439091D01*
X152161302Y-44439091D02*
X152232730Y-44367662D01*
X152232730Y-44367662D02*
X152232730Y-44510519D01*
X152875588Y-43153376D02*
X152947016Y-43081948D01*
X152947016Y-43081948D02*
X153089874Y-43010519D01*
X153089874Y-43010519D02*
X153447016Y-43010519D01*
X153447016Y-43010519D02*
X153589874Y-43081948D01*
X153589874Y-43081948D02*
X153661302Y-43153376D01*
X153661302Y-43153376D02*
X153732731Y-43296233D01*
X153732731Y-43296233D02*
X153732731Y-43439091D01*
X153732731Y-43439091D02*
X153661302Y-43653376D01*
X153661302Y-43653376D02*
X152804159Y-44510519D01*
X152804159Y-44510519D02*
X153732731Y-44510519D01*
D10*
X113604256Y-110870804D02*
X113937589Y-111870804D01*
X113937589Y-111870804D02*
X114270922Y-110870804D01*
X115032827Y-111823185D02*
X114937589Y-111870804D01*
X114937589Y-111870804D02*
X114747113Y-111870804D01*
X114747113Y-111870804D02*
X114651875Y-111823185D01*
X114651875Y-111823185D02*
X114604256Y-111775565D01*
X114604256Y-111775565D02*
X114556637Y-111680327D01*
X114556637Y-111680327D02*
X114556637Y-111394613D01*
X114556637Y-111394613D02*
X114604256Y-111299375D01*
X114604256Y-111299375D02*
X114651875Y-111251756D01*
X114651875Y-111251756D02*
X114747113Y-111204137D01*
X114747113Y-111204137D02*
X114937589Y-111204137D01*
X114937589Y-111204137D02*
X115032827Y-111251756D01*
X115889970Y-111823185D02*
X115794732Y-111870804D01*
X115794732Y-111870804D02*
X115604256Y-111870804D01*
X115604256Y-111870804D02*
X115509018Y-111823185D01*
X115509018Y-111823185D02*
X115461399Y-111775565D01*
X115461399Y-111775565D02*
X115413780Y-111680327D01*
X115413780Y-111680327D02*
X115413780Y-111394613D01*
X115413780Y-111394613D02*
X115461399Y-111299375D01*
X115461399Y-111299375D02*
X115509018Y-111251756D01*
X115509018Y-111251756D02*
X115604256Y-111204137D01*
X115604256Y-111204137D02*
X115794732Y-111204137D01*
X115794732Y-111204137D02*
X115889970Y-111251756D01*
X172721037Y-99826632D02*
X172673418Y-99921870D01*
X172673418Y-99921870D02*
X172625798Y-99969489D01*
X172625798Y-99969489D02*
X172530560Y-100017108D01*
X172530560Y-100017108D02*
X172244846Y-100017108D01*
X172244846Y-100017108D02*
X172149608Y-99969489D01*
X172149608Y-99969489D02*
X172101989Y-99921870D01*
X172101989Y-99921870D02*
X172054370Y-99826632D01*
X172054370Y-99826632D02*
X172054370Y-99683775D01*
X172054370Y-99683775D02*
X172101989Y-99588537D01*
X172101989Y-99588537D02*
X172149608Y-99540918D01*
X172149608Y-99540918D02*
X172244846Y-99493299D01*
X172244846Y-99493299D02*
X172530560Y-99493299D01*
X172530560Y-99493299D02*
X172625798Y-99540918D01*
X172625798Y-99540918D02*
X172673418Y-99588537D01*
X172673418Y-99588537D02*
X172721037Y-99683775D01*
X172721037Y-99683775D02*
X172721037Y-99826632D01*
X172054370Y-98636156D02*
X172721037Y-98636156D01*
X172054370Y-99064727D02*
X172578179Y-99064727D01*
X172578179Y-99064727D02*
X172673418Y-99017108D01*
X172673418Y-99017108D02*
X172721037Y-98921870D01*
X172721037Y-98921870D02*
X172721037Y-98779013D01*
X172721037Y-98779013D02*
X172673418Y-98683775D01*
X172673418Y-98683775D02*
X172625798Y-98636156D01*
X172054370Y-98302822D02*
X172054370Y-97921870D01*
X171721037Y-98159965D02*
X172578179Y-98159965D01*
X172578179Y-98159965D02*
X172673418Y-98112346D01*
X172673418Y-98112346D02*
X172721037Y-98017108D01*
X172721037Y-98017108D02*
X172721037Y-97921870D01*
X182581113Y-27909310D02*
X182581113Y-27242643D01*
X182581113Y-26909310D02*
X182533494Y-26956929D01*
X182533494Y-26956929D02*
X182581113Y-27004548D01*
X182581113Y-27004548D02*
X182628732Y-26956929D01*
X182628732Y-26956929D02*
X182581113Y-26909310D01*
X182581113Y-26909310D02*
X182581113Y-27004548D01*
X183057303Y-27242643D02*
X183057303Y-27909310D01*
X183057303Y-27337881D02*
X183104922Y-27290262D01*
X183104922Y-27290262D02*
X183200160Y-27242643D01*
X183200160Y-27242643D02*
X183343017Y-27242643D01*
X183343017Y-27242643D02*
X183438255Y-27290262D01*
X183438255Y-27290262D02*
X183485874Y-27385500D01*
X183485874Y-27385500D02*
X183485874Y-27909310D01*
D12*
X118207970Y-63279408D02*
X118112732Y-63231789D01*
X118112732Y-63231789D02*
X118065113Y-63184169D01*
X118065113Y-63184169D02*
X118017494Y-63088931D01*
X118017494Y-63088931D02*
X118017494Y-62803217D01*
X118017494Y-62803217D02*
X118065113Y-62707979D01*
X118065113Y-62707979D02*
X118112732Y-62660360D01*
X118112732Y-62660360D02*
X118207970Y-62612741D01*
X118207970Y-62612741D02*
X118350827Y-62612741D01*
X118350827Y-62612741D02*
X118446065Y-62660360D01*
X118446065Y-62660360D02*
X118493684Y-62707979D01*
X118493684Y-62707979D02*
X118541303Y-62803217D01*
X118541303Y-62803217D02*
X118541303Y-63088931D01*
X118541303Y-63088931D02*
X118493684Y-63184169D01*
X118493684Y-63184169D02*
X118446065Y-63231789D01*
X118446065Y-63231789D02*
X118350827Y-63279408D01*
X118350827Y-63279408D02*
X118207970Y-63279408D01*
X118874637Y-62279408D02*
X119493684Y-62279408D01*
X119493684Y-62279408D02*
X119160351Y-62660360D01*
X119160351Y-62660360D02*
X119303208Y-62660360D01*
X119303208Y-62660360D02*
X119398446Y-62707979D01*
X119398446Y-62707979D02*
X119446065Y-62755598D01*
X119446065Y-62755598D02*
X119493684Y-62850836D01*
X119493684Y-62850836D02*
X119493684Y-63088931D01*
X119493684Y-63088931D02*
X119446065Y-63184169D01*
X119446065Y-63184169D02*
X119398446Y-63231789D01*
X119398446Y-63231789D02*
X119303208Y-63279408D01*
X119303208Y-63279408D02*
X119017494Y-63279408D01*
X119017494Y-63279408D02*
X118922256Y-63231789D01*
X118922256Y-63231789D02*
X118874637Y-63184169D01*
D10*
X172721037Y-77308934D02*
X172673418Y-77404172D01*
X172673418Y-77404172D02*
X172625798Y-77451791D01*
X172625798Y-77451791D02*
X172530560Y-77499410D01*
X172530560Y-77499410D02*
X172244846Y-77499410D01*
X172244846Y-77499410D02*
X172149608Y-77451791D01*
X172149608Y-77451791D02*
X172101989Y-77404172D01*
X172101989Y-77404172D02*
X172054370Y-77308934D01*
X172054370Y-77308934D02*
X172054370Y-77166077D01*
X172054370Y-77166077D02*
X172101989Y-77070839D01*
X172101989Y-77070839D02*
X172149608Y-77023220D01*
X172149608Y-77023220D02*
X172244846Y-76975601D01*
X172244846Y-76975601D02*
X172530560Y-76975601D01*
X172530560Y-76975601D02*
X172625798Y-77023220D01*
X172625798Y-77023220D02*
X172673418Y-77070839D01*
X172673418Y-77070839D02*
X172721037Y-77166077D01*
X172721037Y-77166077D02*
X172721037Y-77308934D01*
X172054370Y-76118458D02*
X172721037Y-76118458D01*
X172054370Y-76547029D02*
X172578179Y-76547029D01*
X172578179Y-76547029D02*
X172673418Y-76499410D01*
X172673418Y-76499410D02*
X172721037Y-76404172D01*
X172721037Y-76404172D02*
X172721037Y-76261315D01*
X172721037Y-76261315D02*
X172673418Y-76166077D01*
X172673418Y-76166077D02*
X172625798Y-76118458D01*
X172054370Y-75785124D02*
X172054370Y-75404172D01*
X171721037Y-75642267D02*
X172578179Y-75642267D01*
X172578179Y-75642267D02*
X172673418Y-75594648D01*
X172673418Y-75594648D02*
X172721037Y-75499410D01*
X172721037Y-75499410D02*
X172721037Y-75404172D01*
D12*
X133447970Y-96376804D02*
X133352732Y-96329185D01*
X133352732Y-96329185D02*
X133305113Y-96281565D01*
X133305113Y-96281565D02*
X133257494Y-96186327D01*
X133257494Y-96186327D02*
X133257494Y-95900613D01*
X133257494Y-95900613D02*
X133305113Y-95805375D01*
X133305113Y-95805375D02*
X133352732Y-95757756D01*
X133352732Y-95757756D02*
X133447970Y-95710137D01*
X133447970Y-95710137D02*
X133590827Y-95710137D01*
X133590827Y-95710137D02*
X133686065Y-95757756D01*
X133686065Y-95757756D02*
X133733684Y-95805375D01*
X133733684Y-95805375D02*
X133781303Y-95900613D01*
X133781303Y-95900613D02*
X133781303Y-96186327D01*
X133781303Y-96186327D02*
X133733684Y-96281565D01*
X133733684Y-96281565D02*
X133686065Y-96329185D01*
X133686065Y-96329185D02*
X133590827Y-96376804D01*
X133590827Y-96376804D02*
X133447970Y-96376804D01*
X134733684Y-96376804D02*
X134162256Y-96376804D01*
X134447970Y-96376804D02*
X134447970Y-95376804D01*
X134447970Y-95376804D02*
X134352732Y-95519661D01*
X134352732Y-95519661D02*
X134257494Y-95614899D01*
X134257494Y-95614899D02*
X134162256Y-95662518D01*
X123145113Y-96630804D02*
X123145113Y-95964137D01*
X123145113Y-95630804D02*
X123097494Y-95678423D01*
X123097494Y-95678423D02*
X123145113Y-95726042D01*
X123145113Y-95726042D02*
X123192732Y-95678423D01*
X123192732Y-95678423D02*
X123145113Y-95630804D01*
X123145113Y-95630804D02*
X123145113Y-95726042D01*
X123573684Y-95726042D02*
X123621303Y-95678423D01*
X123621303Y-95678423D02*
X123716541Y-95630804D01*
X123716541Y-95630804D02*
X123954636Y-95630804D01*
X123954636Y-95630804D02*
X124049874Y-95678423D01*
X124049874Y-95678423D02*
X124097493Y-95726042D01*
X124097493Y-95726042D02*
X124145112Y-95821280D01*
X124145112Y-95821280D02*
X124145112Y-95916518D01*
X124145112Y-95916518D02*
X124097493Y-96059375D01*
X124097493Y-96059375D02*
X123526065Y-96630804D01*
X123526065Y-96630804D02*
X124145112Y-96630804D01*
D10*
X172721037Y-32273538D02*
X172673418Y-32368776D01*
X172673418Y-32368776D02*
X172625798Y-32416395D01*
X172625798Y-32416395D02*
X172530560Y-32464014D01*
X172530560Y-32464014D02*
X172244846Y-32464014D01*
X172244846Y-32464014D02*
X172149608Y-32416395D01*
X172149608Y-32416395D02*
X172101989Y-32368776D01*
X172101989Y-32368776D02*
X172054370Y-32273538D01*
X172054370Y-32273538D02*
X172054370Y-32130681D01*
X172054370Y-32130681D02*
X172101989Y-32035443D01*
X172101989Y-32035443D02*
X172149608Y-31987824D01*
X172149608Y-31987824D02*
X172244846Y-31940205D01*
X172244846Y-31940205D02*
X172530560Y-31940205D01*
X172530560Y-31940205D02*
X172625798Y-31987824D01*
X172625798Y-31987824D02*
X172673418Y-32035443D01*
X172673418Y-32035443D02*
X172721037Y-32130681D01*
X172721037Y-32130681D02*
X172721037Y-32273538D01*
X172054370Y-31083062D02*
X172721037Y-31083062D01*
X172054370Y-31511633D02*
X172578179Y-31511633D01*
X172578179Y-31511633D02*
X172673418Y-31464014D01*
X172673418Y-31464014D02*
X172721037Y-31368776D01*
X172721037Y-31368776D02*
X172721037Y-31225919D01*
X172721037Y-31225919D02*
X172673418Y-31130681D01*
X172673418Y-31130681D02*
X172625798Y-31083062D01*
X172054370Y-30749728D02*
X172054370Y-30368776D01*
X171721037Y-30606871D02*
X172578179Y-30606871D01*
X172578179Y-30606871D02*
X172673418Y-30559252D01*
X172673418Y-30559252D02*
X172721037Y-30464014D01*
X172721037Y-30464014D02*
X172721037Y-30368776D01*
D12*
X118207970Y-40761710D02*
X118112732Y-40714091D01*
X118112732Y-40714091D02*
X118065113Y-40666471D01*
X118065113Y-40666471D02*
X118017494Y-40571233D01*
X118017494Y-40571233D02*
X118017494Y-40285519D01*
X118017494Y-40285519D02*
X118065113Y-40190281D01*
X118065113Y-40190281D02*
X118112732Y-40142662D01*
X118112732Y-40142662D02*
X118207970Y-40095043D01*
X118207970Y-40095043D02*
X118350827Y-40095043D01*
X118350827Y-40095043D02*
X118446065Y-40142662D01*
X118446065Y-40142662D02*
X118493684Y-40190281D01*
X118493684Y-40190281D02*
X118541303Y-40285519D01*
X118541303Y-40285519D02*
X118541303Y-40571233D01*
X118541303Y-40571233D02*
X118493684Y-40666471D01*
X118493684Y-40666471D02*
X118446065Y-40714091D01*
X118446065Y-40714091D02*
X118350827Y-40761710D01*
X118350827Y-40761710D02*
X118207970Y-40761710D01*
X118874637Y-39761710D02*
X119493684Y-39761710D01*
X119493684Y-39761710D02*
X119160351Y-40142662D01*
X119160351Y-40142662D02*
X119303208Y-40142662D01*
X119303208Y-40142662D02*
X119398446Y-40190281D01*
X119398446Y-40190281D02*
X119446065Y-40237900D01*
X119446065Y-40237900D02*
X119493684Y-40333138D01*
X119493684Y-40333138D02*
X119493684Y-40571233D01*
X119493684Y-40571233D02*
X119446065Y-40666471D01*
X119446065Y-40666471D02*
X119398446Y-40714091D01*
X119398446Y-40714091D02*
X119303208Y-40761710D01*
X119303208Y-40761710D02*
X119017494Y-40761710D01*
X119017494Y-40761710D02*
X118922256Y-40714091D01*
X118922256Y-40714091D02*
X118874637Y-40666471D01*
D11*
X163626351Y-94705518D02*
X164093018Y-94705518D01*
X164293018Y-95438851D02*
X163626351Y-95438851D01*
X163626351Y-95438851D02*
X163626351Y-94038851D01*
X163626351Y-94038851D02*
X164293018Y-94038851D01*
X164759685Y-95438851D02*
X165493018Y-94505518D01*
X164759685Y-94505518D02*
X165493018Y-95438851D01*
X165826351Y-94038851D02*
X166293018Y-95438851D01*
X166293018Y-95438851D02*
X166759684Y-94038851D01*
X167826351Y-95372185D02*
X167693018Y-95438851D01*
X167693018Y-95438851D02*
X167426351Y-95438851D01*
X167426351Y-95438851D02*
X167293018Y-95372185D01*
X167293018Y-95372185D02*
X167226351Y-95305518D01*
X167226351Y-95305518D02*
X167159684Y-95172185D01*
X167159684Y-95172185D02*
X167159684Y-94772185D01*
X167159684Y-94772185D02*
X167226351Y-94638851D01*
X167226351Y-94638851D02*
X167293018Y-94572185D01*
X167293018Y-94572185D02*
X167426351Y-94505518D01*
X167426351Y-94505518D02*
X167693018Y-94505518D01*
X167693018Y-94505518D02*
X167826351Y-94572185D01*
X169026351Y-95372185D02*
X168893018Y-95438851D01*
X168893018Y-95438851D02*
X168626351Y-95438851D01*
X168626351Y-95438851D02*
X168493018Y-95372185D01*
X168493018Y-95372185D02*
X168426351Y-95305518D01*
X168426351Y-95305518D02*
X168359684Y-95172185D01*
X168359684Y-95172185D02*
X168359684Y-94772185D01*
X168359684Y-94772185D02*
X168426351Y-94638851D01*
X168426351Y-94638851D02*
X168493018Y-94572185D01*
X168493018Y-94572185D02*
X168626351Y-94505518D01*
X168626351Y-94505518D02*
X168893018Y-94505518D01*
X168893018Y-94505518D02*
X169026351Y-94572185D01*
D13*
X125804160Y-112063613D02*
X125804160Y-110563613D01*
X125804160Y-110563613D02*
X126375589Y-110563613D01*
X126375589Y-110563613D02*
X126518446Y-110635042D01*
X126518446Y-110635042D02*
X126589875Y-110706470D01*
X126589875Y-110706470D02*
X126661303Y-110849327D01*
X126661303Y-110849327D02*
X126661303Y-111063613D01*
X126661303Y-111063613D02*
X126589875Y-111206470D01*
X126589875Y-111206470D02*
X126518446Y-111277899D01*
X126518446Y-111277899D02*
X126375589Y-111349327D01*
X126375589Y-111349327D02*
X125804160Y-111349327D01*
X127304160Y-112063613D02*
X127304160Y-111063613D01*
X127304160Y-111206470D02*
X127375589Y-111135042D01*
X127375589Y-111135042D02*
X127518446Y-111063613D01*
X127518446Y-111063613D02*
X127732732Y-111063613D01*
X127732732Y-111063613D02*
X127875589Y-111135042D01*
X127875589Y-111135042D02*
X127947018Y-111277899D01*
X127947018Y-111277899D02*
X127947018Y-112063613D01*
X127947018Y-111277899D02*
X128018446Y-111135042D01*
X128018446Y-111135042D02*
X128161303Y-111063613D01*
X128161303Y-111063613D02*
X128375589Y-111063613D01*
X128375589Y-111063613D02*
X128518446Y-111135042D01*
X128518446Y-111135042D02*
X128589875Y-111277899D01*
X128589875Y-111277899D02*
X128589875Y-112063613D01*
X129518446Y-112063613D02*
X129375589Y-111992185D01*
X129375589Y-111992185D02*
X129304160Y-111920756D01*
X129304160Y-111920756D02*
X129232732Y-111777899D01*
X129232732Y-111777899D02*
X129232732Y-111349327D01*
X129232732Y-111349327D02*
X129304160Y-111206470D01*
X129304160Y-111206470D02*
X129375589Y-111135042D01*
X129375589Y-111135042D02*
X129518446Y-111063613D01*
X129518446Y-111063613D02*
X129732732Y-111063613D01*
X129732732Y-111063613D02*
X129875589Y-111135042D01*
X129875589Y-111135042D02*
X129947018Y-111206470D01*
X129947018Y-111206470D02*
X130018446Y-111349327D01*
X130018446Y-111349327D02*
X130018446Y-111777899D01*
X130018446Y-111777899D02*
X129947018Y-111920756D01*
X129947018Y-111920756D02*
X129875589Y-111992185D01*
X129875589Y-111992185D02*
X129732732Y-112063613D01*
X129732732Y-112063613D02*
X129518446Y-112063613D01*
X131304161Y-112063613D02*
X131304161Y-110563613D01*
X131304161Y-111992185D02*
X131161303Y-112063613D01*
X131161303Y-112063613D02*
X130875589Y-112063613D01*
X130875589Y-112063613D02*
X130732732Y-111992185D01*
X130732732Y-111992185D02*
X130661303Y-111920756D01*
X130661303Y-111920756D02*
X130589875Y-111777899D01*
X130589875Y-111777899D02*
X130589875Y-111349327D01*
X130589875Y-111349327D02*
X130661303Y-111206470D01*
X130661303Y-111206470D02*
X130732732Y-111135042D01*
X130732732Y-111135042D02*
X130875589Y-111063613D01*
X130875589Y-111063613D02*
X131161303Y-111063613D01*
X131161303Y-111063613D02*
X131304161Y-111135042D01*
X131661304Y-112206470D02*
X132804161Y-112206470D01*
X134018446Y-111920756D02*
X133947018Y-111992185D01*
X133947018Y-111992185D02*
X133732732Y-112063613D01*
X133732732Y-112063613D02*
X133589875Y-112063613D01*
X133589875Y-112063613D02*
X133375589Y-111992185D01*
X133375589Y-111992185D02*
X133232732Y-111849327D01*
X133232732Y-111849327D02*
X133161303Y-111706470D01*
X133161303Y-111706470D02*
X133089875Y-111420756D01*
X133089875Y-111420756D02*
X133089875Y-111206470D01*
X133089875Y-111206470D02*
X133161303Y-110920756D01*
X133161303Y-110920756D02*
X133232732Y-110777899D01*
X133232732Y-110777899D02*
X133375589Y-110635042D01*
X133375589Y-110635042D02*
X133589875Y-110563613D01*
X133589875Y-110563613D02*
X133732732Y-110563613D01*
X133732732Y-110563613D02*
X133947018Y-110635042D01*
X133947018Y-110635042D02*
X134018446Y-110706470D01*
X134875589Y-112063613D02*
X134732732Y-111992185D01*
X134732732Y-111992185D02*
X134661303Y-111920756D01*
X134661303Y-111920756D02*
X134589875Y-111777899D01*
X134589875Y-111777899D02*
X134589875Y-111349327D01*
X134589875Y-111349327D02*
X134661303Y-111206470D01*
X134661303Y-111206470D02*
X134732732Y-111135042D01*
X134732732Y-111135042D02*
X134875589Y-111063613D01*
X134875589Y-111063613D02*
X135089875Y-111063613D01*
X135089875Y-111063613D02*
X135232732Y-111135042D01*
X135232732Y-111135042D02*
X135304161Y-111206470D01*
X135304161Y-111206470D02*
X135375589Y-111349327D01*
X135375589Y-111349327D02*
X135375589Y-111777899D01*
X135375589Y-111777899D02*
X135304161Y-111920756D01*
X135304161Y-111920756D02*
X135232732Y-111992185D01*
X135232732Y-111992185D02*
X135089875Y-112063613D01*
X135089875Y-112063613D02*
X134875589Y-112063613D01*
X136232732Y-112063613D02*
X136089875Y-111992185D01*
X136089875Y-111992185D02*
X136018446Y-111849327D01*
X136018446Y-111849327D02*
X136018446Y-110563613D01*
X137018446Y-112063613D02*
X136875589Y-111992185D01*
X136875589Y-111992185D02*
X136804160Y-111920756D01*
X136804160Y-111920756D02*
X136732732Y-111777899D01*
X136732732Y-111777899D02*
X136732732Y-111349327D01*
X136732732Y-111349327D02*
X136804160Y-111206470D01*
X136804160Y-111206470D02*
X136875589Y-111135042D01*
X136875589Y-111135042D02*
X137018446Y-111063613D01*
X137018446Y-111063613D02*
X137232732Y-111063613D01*
X137232732Y-111063613D02*
X137375589Y-111135042D01*
X137375589Y-111135042D02*
X137447018Y-111206470D01*
X137447018Y-111206470D02*
X137518446Y-111349327D01*
X137518446Y-111349327D02*
X137518446Y-111777899D01*
X137518446Y-111777899D02*
X137447018Y-111920756D01*
X137447018Y-111920756D02*
X137375589Y-111992185D01*
X137375589Y-111992185D02*
X137232732Y-112063613D01*
X137232732Y-112063613D02*
X137018446Y-112063613D01*
X138161303Y-112063613D02*
X138161303Y-111063613D01*
X138161303Y-111349327D02*
X138232732Y-111206470D01*
X138232732Y-111206470D02*
X138304161Y-111135042D01*
X138304161Y-111135042D02*
X138447018Y-111063613D01*
X138447018Y-111063613D02*
X138589875Y-111063613D01*
X138732732Y-112206470D02*
X139875589Y-112206470D01*
X140947017Y-112063613D02*
X140232731Y-112063613D01*
X140232731Y-112063613D02*
X140232731Y-110563613D01*
X141447017Y-111277899D02*
X141947017Y-111277899D01*
X142161303Y-112063613D02*
X141447017Y-112063613D01*
X141447017Y-112063613D02*
X141447017Y-110563613D01*
X141447017Y-110563613D02*
X142161303Y-110563613D01*
X142804160Y-112063613D02*
X142804160Y-110563613D01*
X142804160Y-110563613D02*
X143161303Y-110563613D01*
X143161303Y-110563613D02*
X143375589Y-110635042D01*
X143375589Y-110635042D02*
X143518446Y-110777899D01*
X143518446Y-110777899D02*
X143589875Y-110920756D01*
X143589875Y-110920756D02*
X143661303Y-111206470D01*
X143661303Y-111206470D02*
X143661303Y-111420756D01*
X143661303Y-111420756D02*
X143589875Y-111706470D01*
X143589875Y-111706470D02*
X143518446Y-111849327D01*
X143518446Y-111849327D02*
X143375589Y-111992185D01*
X143375589Y-111992185D02*
X143161303Y-112063613D01*
X143161303Y-112063613D02*
X142804160Y-112063613D01*
X145232732Y-110563613D02*
X145732732Y-112063613D01*
X145732732Y-112063613D02*
X146232732Y-110563613D01*
X147304160Y-111992185D02*
X147161303Y-112063613D01*
X147161303Y-112063613D02*
X146875589Y-112063613D01*
X146875589Y-112063613D02*
X146732731Y-111992185D01*
X146732731Y-111992185D02*
X146661303Y-111849327D01*
X146661303Y-111849327D02*
X146661303Y-111277899D01*
X146661303Y-111277899D02*
X146732731Y-111135042D01*
X146732731Y-111135042D02*
X146875589Y-111063613D01*
X146875589Y-111063613D02*
X147161303Y-111063613D01*
X147161303Y-111063613D02*
X147304160Y-111135042D01*
X147304160Y-111135042D02*
X147375589Y-111277899D01*
X147375589Y-111277899D02*
X147375589Y-111420756D01*
X147375589Y-111420756D02*
X146661303Y-111563613D01*
X148018445Y-112063613D02*
X148018445Y-111063613D01*
X148018445Y-111349327D02*
X148089874Y-111206470D01*
X148089874Y-111206470D02*
X148161303Y-111135042D01*
X148161303Y-111135042D02*
X148304160Y-111063613D01*
X148304160Y-111063613D02*
X148447017Y-111063613D01*
X148947016Y-111920756D02*
X149018445Y-111992185D01*
X149018445Y-111992185D02*
X148947016Y-112063613D01*
X148947016Y-112063613D02*
X148875588Y-111992185D01*
X148875588Y-111992185D02*
X148947016Y-111920756D01*
X148947016Y-111920756D02*
X148947016Y-112063613D01*
X151089874Y-110563613D02*
X151232731Y-110563613D01*
X151232731Y-110563613D02*
X151375588Y-110635042D01*
X151375588Y-110635042D02*
X151447017Y-110706470D01*
X151447017Y-110706470D02*
X151518445Y-110849327D01*
X151518445Y-110849327D02*
X151589874Y-111135042D01*
X151589874Y-111135042D02*
X151589874Y-111492185D01*
X151589874Y-111492185D02*
X151518445Y-111777899D01*
X151518445Y-111777899D02*
X151447017Y-111920756D01*
X151447017Y-111920756D02*
X151375588Y-111992185D01*
X151375588Y-111992185D02*
X151232731Y-112063613D01*
X151232731Y-112063613D02*
X151089874Y-112063613D01*
X151089874Y-112063613D02*
X150947017Y-111992185D01*
X150947017Y-111992185D02*
X150875588Y-111920756D01*
X150875588Y-111920756D02*
X150804159Y-111777899D01*
X150804159Y-111777899D02*
X150732731Y-111492185D01*
X150732731Y-111492185D02*
X150732731Y-111135042D01*
X150732731Y-111135042D02*
X150804159Y-110849327D01*
X150804159Y-110849327D02*
X150875588Y-110706470D01*
X150875588Y-110706470D02*
X150947017Y-110635042D01*
X150947017Y-110635042D02*
X151089874Y-110563613D01*
X152232730Y-111920756D02*
X152304159Y-111992185D01*
X152304159Y-111992185D02*
X152232730Y-112063613D01*
X152232730Y-112063613D02*
X152161302Y-111992185D01*
X152161302Y-111992185D02*
X152232730Y-111920756D01*
X152232730Y-111920756D02*
X152232730Y-112063613D01*
X152875588Y-110706470D02*
X152947016Y-110635042D01*
X152947016Y-110635042D02*
X153089874Y-110563613D01*
X153089874Y-110563613D02*
X153447016Y-110563613D01*
X153447016Y-110563613D02*
X153589874Y-110635042D01*
X153589874Y-110635042D02*
X153661302Y-110706470D01*
X153661302Y-110706470D02*
X153732731Y-110849327D01*
X153732731Y-110849327D02*
X153732731Y-110992185D01*
X153732731Y-110992185D02*
X153661302Y-111206470D01*
X153661302Y-111206470D02*
X152804159Y-112063613D01*
X152804159Y-112063613D02*
X153732731Y-112063613D01*
D11*
X163626351Y-49670122D02*
X164093018Y-49670122D01*
X164293018Y-50403455D02*
X163626351Y-50403455D01*
X163626351Y-50403455D02*
X163626351Y-49003455D01*
X163626351Y-49003455D02*
X164293018Y-49003455D01*
X164759685Y-50403455D02*
X165493018Y-49470122D01*
X164759685Y-49470122D02*
X165493018Y-50403455D01*
X165826351Y-49003455D02*
X166293018Y-50403455D01*
X166293018Y-50403455D02*
X166759684Y-49003455D01*
X167826351Y-50336789D02*
X167693018Y-50403455D01*
X167693018Y-50403455D02*
X167426351Y-50403455D01*
X167426351Y-50403455D02*
X167293018Y-50336789D01*
X167293018Y-50336789D02*
X167226351Y-50270122D01*
X167226351Y-50270122D02*
X167159684Y-50136789D01*
X167159684Y-50136789D02*
X167159684Y-49736789D01*
X167159684Y-49736789D02*
X167226351Y-49603455D01*
X167226351Y-49603455D02*
X167293018Y-49536789D01*
X167293018Y-49536789D02*
X167426351Y-49470122D01*
X167426351Y-49470122D02*
X167693018Y-49470122D01*
X167693018Y-49470122D02*
X167826351Y-49536789D01*
X169026351Y-50336789D02*
X168893018Y-50403455D01*
X168893018Y-50403455D02*
X168626351Y-50403455D01*
X168626351Y-50403455D02*
X168493018Y-50336789D01*
X168493018Y-50336789D02*
X168426351Y-50270122D01*
X168426351Y-50270122D02*
X168359684Y-50136789D01*
X168359684Y-50136789D02*
X168359684Y-49736789D01*
X168359684Y-49736789D02*
X168426351Y-49603455D01*
X168426351Y-49603455D02*
X168493018Y-49536789D01*
X168493018Y-49536789D02*
X168626351Y-49470122D01*
X168626351Y-49470122D02*
X168893018Y-49470122D01*
X168893018Y-49470122D02*
X169026351Y-49536789D01*
D12*
X130511113Y-86051106D02*
X130511113Y-85384439D01*
X130511113Y-85051106D02*
X130463494Y-85098725D01*
X130463494Y-85098725D02*
X130511113Y-85146344D01*
X130511113Y-85146344D02*
X130558732Y-85098725D01*
X130558732Y-85098725D02*
X130511113Y-85051106D01*
X130511113Y-85051106D02*
X130511113Y-85146344D01*
X131415874Y-85384439D02*
X131415874Y-86051106D01*
X131177779Y-85003487D02*
X130939684Y-85717772D01*
X130939684Y-85717772D02*
X131558731Y-85717772D01*
D11*
X151742351Y-48876455D02*
X152209018Y-50276455D01*
X152209018Y-50276455D02*
X152675684Y-48876455D01*
X153742351Y-50209789D02*
X153609018Y-50276455D01*
X153609018Y-50276455D02*
X153342351Y-50276455D01*
X153342351Y-50276455D02*
X153209018Y-50209789D01*
X153209018Y-50209789D02*
X153142351Y-50143122D01*
X153142351Y-50143122D02*
X153075684Y-50009789D01*
X153075684Y-50009789D02*
X153075684Y-49609789D01*
X153075684Y-49609789D02*
X153142351Y-49476455D01*
X153142351Y-49476455D02*
X153209018Y-49409789D01*
X153209018Y-49409789D02*
X153342351Y-49343122D01*
X153342351Y-49343122D02*
X153609018Y-49343122D01*
X153609018Y-49343122D02*
X153742351Y-49409789D01*
X154942351Y-50209789D02*
X154809018Y-50276455D01*
X154809018Y-50276455D02*
X154542351Y-50276455D01*
X154542351Y-50276455D02*
X154409018Y-50209789D01*
X154409018Y-50209789D02*
X154342351Y-50143122D01*
X154342351Y-50143122D02*
X154275684Y-50009789D01*
X154275684Y-50009789D02*
X154275684Y-49609789D01*
X154275684Y-49609789D02*
X154342351Y-49476455D01*
X154342351Y-49476455D02*
X154409018Y-49409789D01*
X154409018Y-49409789D02*
X154542351Y-49343122D01*
X154542351Y-49343122D02*
X154809018Y-49343122D01*
X154809018Y-49343122D02*
X154942351Y-49409789D01*
D12*
X120620970Y-96630804D02*
X120525732Y-96583185D01*
X120525732Y-96583185D02*
X120478113Y-96535565D01*
X120478113Y-96535565D02*
X120430494Y-96440327D01*
X120430494Y-96440327D02*
X120430494Y-96154613D01*
X120430494Y-96154613D02*
X120478113Y-96059375D01*
X120478113Y-96059375D02*
X120525732Y-96011756D01*
X120525732Y-96011756D02*
X120620970Y-95964137D01*
X120620970Y-95964137D02*
X120763827Y-95964137D01*
X120763827Y-95964137D02*
X120859065Y-96011756D01*
X120859065Y-96011756D02*
X120906684Y-96059375D01*
X120906684Y-96059375D02*
X120954303Y-96154613D01*
X120954303Y-96154613D02*
X120954303Y-96440327D01*
X120954303Y-96440327D02*
X120906684Y-96535565D01*
X120906684Y-96535565D02*
X120859065Y-96583185D01*
X120859065Y-96583185D02*
X120763827Y-96630804D01*
X120763827Y-96630804D02*
X120620970Y-96630804D01*
X121335256Y-95726042D02*
X121382875Y-95678423D01*
X121382875Y-95678423D02*
X121478113Y-95630804D01*
X121478113Y-95630804D02*
X121716208Y-95630804D01*
X121716208Y-95630804D02*
X121811446Y-95678423D01*
X121811446Y-95678423D02*
X121859065Y-95726042D01*
X121859065Y-95726042D02*
X121906684Y-95821280D01*
X121906684Y-95821280D02*
X121906684Y-95916518D01*
X121906684Y-95916518D02*
X121859065Y-96059375D01*
X121859065Y-96059375D02*
X121287637Y-96630804D01*
X121287637Y-96630804D02*
X121906684Y-96630804D01*
X123399113Y-41015710D02*
X123399113Y-40349043D01*
X123399113Y-40015710D02*
X123351494Y-40063329D01*
X123351494Y-40063329D02*
X123399113Y-40110948D01*
X123399113Y-40110948D02*
X123446732Y-40063329D01*
X123446732Y-40063329D02*
X123399113Y-40015710D01*
X123399113Y-40015710D02*
X123399113Y-40110948D01*
X123780065Y-40015710D02*
X124399112Y-40015710D01*
X124399112Y-40015710D02*
X124065779Y-40396662D01*
X124065779Y-40396662D02*
X124208636Y-40396662D01*
X124208636Y-40396662D02*
X124303874Y-40444281D01*
X124303874Y-40444281D02*
X124351493Y-40491900D01*
X124351493Y-40491900D02*
X124399112Y-40587138D01*
X124399112Y-40587138D02*
X124399112Y-40825233D01*
X124399112Y-40825233D02*
X124351493Y-40920471D01*
X124351493Y-40920471D02*
X124303874Y-40968091D01*
X124303874Y-40968091D02*
X124208636Y-41015710D01*
X124208636Y-41015710D02*
X123922922Y-41015710D01*
X123922922Y-41015710D02*
X123827684Y-40968091D01*
X123827684Y-40968091D02*
X123780065Y-40920471D01*
X118207970Y-108314804D02*
X118112732Y-108267185D01*
X118112732Y-108267185D02*
X118065113Y-108219565D01*
X118065113Y-108219565D02*
X118017494Y-108124327D01*
X118017494Y-108124327D02*
X118017494Y-107838613D01*
X118017494Y-107838613D02*
X118065113Y-107743375D01*
X118065113Y-107743375D02*
X118112732Y-107695756D01*
X118112732Y-107695756D02*
X118207970Y-107648137D01*
X118207970Y-107648137D02*
X118350827Y-107648137D01*
X118350827Y-107648137D02*
X118446065Y-107695756D01*
X118446065Y-107695756D02*
X118493684Y-107743375D01*
X118493684Y-107743375D02*
X118541303Y-107838613D01*
X118541303Y-107838613D02*
X118541303Y-108124327D01*
X118541303Y-108124327D02*
X118493684Y-108219565D01*
X118493684Y-108219565D02*
X118446065Y-108267185D01*
X118446065Y-108267185D02*
X118350827Y-108314804D01*
X118350827Y-108314804D02*
X118207970Y-108314804D01*
X118874637Y-107314804D02*
X119493684Y-107314804D01*
X119493684Y-107314804D02*
X119160351Y-107695756D01*
X119160351Y-107695756D02*
X119303208Y-107695756D01*
X119303208Y-107695756D02*
X119398446Y-107743375D01*
X119398446Y-107743375D02*
X119446065Y-107790994D01*
X119446065Y-107790994D02*
X119493684Y-107886232D01*
X119493684Y-107886232D02*
X119493684Y-108124327D01*
X119493684Y-108124327D02*
X119446065Y-108219565D01*
X119446065Y-108219565D02*
X119398446Y-108267185D01*
X119398446Y-108267185D02*
X119303208Y-108314804D01*
X119303208Y-108314804D02*
X119017494Y-108314804D01*
X119017494Y-108314804D02*
X118922256Y-108267185D01*
X118922256Y-108267185D02*
X118874637Y-108219565D01*
X123399113Y-86051106D02*
X123399113Y-85384439D01*
X123399113Y-85051106D02*
X123351494Y-85098725D01*
X123351494Y-85098725D02*
X123399113Y-85146344D01*
X123399113Y-85146344D02*
X123446732Y-85098725D01*
X123446732Y-85098725D02*
X123399113Y-85051106D01*
X123399113Y-85051106D02*
X123399113Y-85146344D01*
X123780065Y-85051106D02*
X124399112Y-85051106D01*
X124399112Y-85051106D02*
X124065779Y-85432058D01*
X124065779Y-85432058D02*
X124208636Y-85432058D01*
X124208636Y-85432058D02*
X124303874Y-85479677D01*
X124303874Y-85479677D02*
X124351493Y-85527296D01*
X124351493Y-85527296D02*
X124399112Y-85622534D01*
X124399112Y-85622534D02*
X124399112Y-85860629D01*
X124399112Y-85860629D02*
X124351493Y-85955867D01*
X124351493Y-85955867D02*
X124303874Y-86003487D01*
X124303874Y-86003487D02*
X124208636Y-86051106D01*
X124208636Y-86051106D02*
X123922922Y-86051106D01*
X123922922Y-86051106D02*
X123827684Y-86003487D01*
X123827684Y-86003487D02*
X123780065Y-85955867D01*
X118207970Y-85797106D02*
X118112732Y-85749487D01*
X118112732Y-85749487D02*
X118065113Y-85701867D01*
X118065113Y-85701867D02*
X118017494Y-85606629D01*
X118017494Y-85606629D02*
X118017494Y-85320915D01*
X118017494Y-85320915D02*
X118065113Y-85225677D01*
X118065113Y-85225677D02*
X118112732Y-85178058D01*
X118112732Y-85178058D02*
X118207970Y-85130439D01*
X118207970Y-85130439D02*
X118350827Y-85130439D01*
X118350827Y-85130439D02*
X118446065Y-85178058D01*
X118446065Y-85178058D02*
X118493684Y-85225677D01*
X118493684Y-85225677D02*
X118541303Y-85320915D01*
X118541303Y-85320915D02*
X118541303Y-85606629D01*
X118541303Y-85606629D02*
X118493684Y-85701867D01*
X118493684Y-85701867D02*
X118446065Y-85749487D01*
X118446065Y-85749487D02*
X118350827Y-85797106D01*
X118350827Y-85797106D02*
X118207970Y-85797106D01*
X118874637Y-84797106D02*
X119493684Y-84797106D01*
X119493684Y-84797106D02*
X119160351Y-85178058D01*
X119160351Y-85178058D02*
X119303208Y-85178058D01*
X119303208Y-85178058D02*
X119398446Y-85225677D01*
X119398446Y-85225677D02*
X119446065Y-85273296D01*
X119446065Y-85273296D02*
X119493684Y-85368534D01*
X119493684Y-85368534D02*
X119493684Y-85606629D01*
X119493684Y-85606629D02*
X119446065Y-85701867D01*
X119446065Y-85701867D02*
X119398446Y-85749487D01*
X119398446Y-85749487D02*
X119303208Y-85797106D01*
X119303208Y-85797106D02*
X119017494Y-85797106D01*
X119017494Y-85797106D02*
X118922256Y-85749487D01*
X118922256Y-85749487D02*
X118874637Y-85701867D01*
D10*
X122795827Y-103060137D02*
X122557732Y-103060137D01*
X122557732Y-103060137D02*
X122557732Y-101631565D01*
X122557732Y-101631565D02*
X122795827Y-101631565D01*
X123033923Y-101726804D02*
X123605351Y-101726804D01*
X123319637Y-102726804D02*
X123319637Y-101726804D01*
X124272018Y-102202994D02*
X124414875Y-102250613D01*
X124414875Y-102250613D02*
X124462494Y-102298232D01*
X124462494Y-102298232D02*
X124510113Y-102393470D01*
X124510113Y-102393470D02*
X124510113Y-102536327D01*
X124510113Y-102536327D02*
X124462494Y-102631565D01*
X124462494Y-102631565D02*
X124414875Y-102679185D01*
X124414875Y-102679185D02*
X124319637Y-102726804D01*
X124319637Y-102726804D02*
X123938685Y-102726804D01*
X123938685Y-102726804D02*
X123938685Y-101726804D01*
X123938685Y-101726804D02*
X124272018Y-101726804D01*
X124272018Y-101726804D02*
X124367256Y-101774423D01*
X124367256Y-101774423D02*
X124414875Y-101822042D01*
X124414875Y-101822042D02*
X124462494Y-101917280D01*
X124462494Y-101917280D02*
X124462494Y-102012518D01*
X124462494Y-102012518D02*
X124414875Y-102107756D01*
X124414875Y-102107756D02*
X124367256Y-102155375D01*
X124367256Y-102155375D02*
X124272018Y-102202994D01*
X124272018Y-102202994D02*
X123938685Y-102202994D01*
X124938685Y-102726804D02*
X124938685Y-101726804D01*
X124938685Y-101726804D02*
X125176780Y-101726804D01*
X125176780Y-101726804D02*
X125319637Y-101774423D01*
X125319637Y-101774423D02*
X125414875Y-101869661D01*
X125414875Y-101869661D02*
X125462494Y-101964899D01*
X125462494Y-101964899D02*
X125510113Y-102155375D01*
X125510113Y-102155375D02*
X125510113Y-102298232D01*
X125510113Y-102298232D02*
X125462494Y-102488708D01*
X125462494Y-102488708D02*
X125414875Y-102583946D01*
X125414875Y-102583946D02*
X125319637Y-102679185D01*
X125319637Y-102679185D02*
X125176780Y-102726804D01*
X125176780Y-102726804D02*
X124938685Y-102726804D01*
X126367256Y-101726804D02*
X126176780Y-101726804D01*
X126176780Y-101726804D02*
X126081542Y-101774423D01*
X126081542Y-101774423D02*
X126033923Y-101822042D01*
X126033923Y-101822042D02*
X125938685Y-101964899D01*
X125938685Y-101964899D02*
X125891066Y-102155375D01*
X125891066Y-102155375D02*
X125891066Y-102536327D01*
X125891066Y-102536327D02*
X125938685Y-102631565D01*
X125938685Y-102631565D02*
X125986304Y-102679185D01*
X125986304Y-102679185D02*
X126081542Y-102726804D01*
X126081542Y-102726804D02*
X126272018Y-102726804D01*
X126272018Y-102726804D02*
X126367256Y-102679185D01*
X126367256Y-102679185D02*
X126414875Y-102631565D01*
X126414875Y-102631565D02*
X126462494Y-102536327D01*
X126462494Y-102536327D02*
X126462494Y-102298232D01*
X126462494Y-102298232D02*
X126414875Y-102202994D01*
X126414875Y-102202994D02*
X126367256Y-102155375D01*
X126367256Y-102155375D02*
X126272018Y-102107756D01*
X126272018Y-102107756D02*
X126081542Y-102107756D01*
X126081542Y-102107756D02*
X125986304Y-102155375D01*
X125986304Y-102155375D02*
X125938685Y-102202994D01*
X125938685Y-102202994D02*
X125891066Y-102298232D01*
X126843447Y-101822042D02*
X126891066Y-101774423D01*
X126891066Y-101774423D02*
X126986304Y-101726804D01*
X126986304Y-101726804D02*
X127224399Y-101726804D01*
X127224399Y-101726804D02*
X127319637Y-101774423D01*
X127319637Y-101774423D02*
X127367256Y-101822042D01*
X127367256Y-101822042D02*
X127414875Y-101917280D01*
X127414875Y-101917280D02*
X127414875Y-102012518D01*
X127414875Y-102012518D02*
X127367256Y-102155375D01*
X127367256Y-102155375D02*
X126795828Y-102726804D01*
X126795828Y-102726804D02*
X127414875Y-102726804D01*
X128033923Y-101726804D02*
X128129161Y-101726804D01*
X128129161Y-101726804D02*
X128224399Y-101774423D01*
X128224399Y-101774423D02*
X128272018Y-101822042D01*
X128272018Y-101822042D02*
X128319637Y-101917280D01*
X128319637Y-101917280D02*
X128367256Y-102107756D01*
X128367256Y-102107756D02*
X128367256Y-102345851D01*
X128367256Y-102345851D02*
X128319637Y-102536327D01*
X128319637Y-102536327D02*
X128272018Y-102631565D01*
X128272018Y-102631565D02*
X128224399Y-102679185D01*
X128224399Y-102679185D02*
X128129161Y-102726804D01*
X128129161Y-102726804D02*
X128033923Y-102726804D01*
X128033923Y-102726804D02*
X127938685Y-102679185D01*
X127938685Y-102679185D02*
X127891066Y-102631565D01*
X127891066Y-102631565D02*
X127843447Y-102536327D01*
X127843447Y-102536327D02*
X127795828Y-102345851D01*
X127795828Y-102345851D02*
X127795828Y-102107756D01*
X127795828Y-102107756D02*
X127843447Y-101917280D01*
X127843447Y-101917280D02*
X127891066Y-101822042D01*
X127891066Y-101822042D02*
X127938685Y-101774423D01*
X127938685Y-101774423D02*
X128033923Y-101726804D01*
X129224399Y-101726804D02*
X129033923Y-101726804D01*
X129033923Y-101726804D02*
X128938685Y-101774423D01*
X128938685Y-101774423D02*
X128891066Y-101822042D01*
X128891066Y-101822042D02*
X128795828Y-101964899D01*
X128795828Y-101964899D02*
X128748209Y-102155375D01*
X128748209Y-102155375D02*
X128748209Y-102536327D01*
X128748209Y-102536327D02*
X128795828Y-102631565D01*
X128795828Y-102631565D02*
X128843447Y-102679185D01*
X128843447Y-102679185D02*
X128938685Y-102726804D01*
X128938685Y-102726804D02*
X129129161Y-102726804D01*
X129129161Y-102726804D02*
X129224399Y-102679185D01*
X129224399Y-102679185D02*
X129272018Y-102631565D01*
X129272018Y-102631565D02*
X129319637Y-102536327D01*
X129319637Y-102536327D02*
X129319637Y-102298232D01*
X129319637Y-102298232D02*
X129272018Y-102202994D01*
X129272018Y-102202994D02*
X129224399Y-102155375D01*
X129224399Y-102155375D02*
X129129161Y-102107756D01*
X129129161Y-102107756D02*
X128938685Y-102107756D01*
X128938685Y-102107756D02*
X128843447Y-102155375D01*
X128843447Y-102155375D02*
X128795828Y-102202994D01*
X128795828Y-102202994D02*
X128748209Y-102298232D01*
X130176780Y-102060137D02*
X130176780Y-102726804D01*
X129938685Y-101679185D02*
X129700590Y-102393470D01*
X129700590Y-102393470D02*
X130319637Y-102393470D01*
X130652971Y-102441089D02*
X131129161Y-102441089D01*
X130557733Y-102726804D02*
X130891066Y-101726804D01*
X130891066Y-101726804D02*
X131224399Y-102726804D01*
X131557733Y-102726804D02*
X131557733Y-101726804D01*
X131557733Y-101726804D02*
X131938685Y-101726804D01*
X131938685Y-101726804D02*
X132033923Y-101774423D01*
X132033923Y-101774423D02*
X132081542Y-101822042D01*
X132081542Y-101822042D02*
X132129161Y-101917280D01*
X132129161Y-101917280D02*
X132129161Y-102060137D01*
X132129161Y-102060137D02*
X132081542Y-102155375D01*
X132081542Y-102155375D02*
X132033923Y-102202994D01*
X132033923Y-102202994D02*
X131938685Y-102250613D01*
X131938685Y-102250613D02*
X131557733Y-102250613D01*
X133081542Y-101774423D02*
X132986304Y-101726804D01*
X132986304Y-101726804D02*
X132843447Y-101726804D01*
X132843447Y-101726804D02*
X132700590Y-101774423D01*
X132700590Y-101774423D02*
X132605352Y-101869661D01*
X132605352Y-101869661D02*
X132557733Y-101964899D01*
X132557733Y-101964899D02*
X132510114Y-102155375D01*
X132510114Y-102155375D02*
X132510114Y-102298232D01*
X132510114Y-102298232D02*
X132557733Y-102488708D01*
X132557733Y-102488708D02*
X132605352Y-102583946D01*
X132605352Y-102583946D02*
X132700590Y-102679185D01*
X132700590Y-102679185D02*
X132843447Y-102726804D01*
X132843447Y-102726804D02*
X132938685Y-102726804D01*
X132938685Y-102726804D02*
X133081542Y-102679185D01*
X133081542Y-102679185D02*
X133129161Y-102631565D01*
X133129161Y-102631565D02*
X133129161Y-102298232D01*
X133129161Y-102298232D02*
X132938685Y-102298232D01*
X133462495Y-103060137D02*
X133700590Y-103060137D01*
X133700590Y-103060137D02*
X133700590Y-101631565D01*
X133700590Y-101631565D02*
X133462495Y-101631565D01*
D12*
X123399113Y-108568804D02*
X123399113Y-107902137D01*
X123399113Y-107568804D02*
X123351494Y-107616423D01*
X123351494Y-107616423D02*
X123399113Y-107664042D01*
X123399113Y-107664042D02*
X123446732Y-107616423D01*
X123446732Y-107616423D02*
X123399113Y-107568804D01*
X123399113Y-107568804D02*
X123399113Y-107664042D01*
X123780065Y-107568804D02*
X124399112Y-107568804D01*
X124399112Y-107568804D02*
X124065779Y-107949756D01*
X124065779Y-107949756D02*
X124208636Y-107949756D01*
X124208636Y-107949756D02*
X124303874Y-107997375D01*
X124303874Y-107997375D02*
X124351493Y-108044994D01*
X124351493Y-108044994D02*
X124399112Y-108140232D01*
X124399112Y-108140232D02*
X124399112Y-108378327D01*
X124399112Y-108378327D02*
X124351493Y-108473565D01*
X124351493Y-108473565D02*
X124303874Y-108521185D01*
X124303874Y-108521185D02*
X124208636Y-108568804D01*
X124208636Y-108568804D02*
X123922922Y-108568804D01*
X123922922Y-108568804D02*
X123827684Y-108521185D01*
X123827684Y-108521185D02*
X123780065Y-108473565D01*
X123145113Y-74113106D02*
X123145113Y-73446439D01*
X123145113Y-73113106D02*
X123097494Y-73160725D01*
X123097494Y-73160725D02*
X123145113Y-73208344D01*
X123145113Y-73208344D02*
X123192732Y-73160725D01*
X123192732Y-73160725D02*
X123145113Y-73113106D01*
X123145113Y-73113106D02*
X123145113Y-73208344D01*
X123573684Y-73208344D02*
X123621303Y-73160725D01*
X123621303Y-73160725D02*
X123716541Y-73113106D01*
X123716541Y-73113106D02*
X123954636Y-73113106D01*
X123954636Y-73113106D02*
X124049874Y-73160725D01*
X124049874Y-73160725D02*
X124097493Y-73208344D01*
X124097493Y-73208344D02*
X124145112Y-73303582D01*
X124145112Y-73303582D02*
X124145112Y-73398820D01*
X124145112Y-73398820D02*
X124097493Y-73541677D01*
X124097493Y-73541677D02*
X123526065Y-74113106D01*
X123526065Y-74113106D02*
X124145112Y-74113106D01*
X136241970Y-108060804D02*
X136146732Y-108013185D01*
X136146732Y-108013185D02*
X136099113Y-107965565D01*
X136099113Y-107965565D02*
X136051494Y-107870327D01*
X136051494Y-107870327D02*
X136051494Y-107584613D01*
X136051494Y-107584613D02*
X136099113Y-107489375D01*
X136099113Y-107489375D02*
X136146732Y-107441756D01*
X136146732Y-107441756D02*
X136241970Y-107394137D01*
X136241970Y-107394137D02*
X136384827Y-107394137D01*
X136384827Y-107394137D02*
X136480065Y-107441756D01*
X136480065Y-107441756D02*
X136527684Y-107489375D01*
X136527684Y-107489375D02*
X136575303Y-107584613D01*
X136575303Y-107584613D02*
X136575303Y-107870327D01*
X136575303Y-107870327D02*
X136527684Y-107965565D01*
X136527684Y-107965565D02*
X136480065Y-108013185D01*
X136480065Y-108013185D02*
X136384827Y-108060804D01*
X136384827Y-108060804D02*
X136241970Y-108060804D01*
X137432446Y-107394137D02*
X137432446Y-108060804D01*
X137194351Y-107013185D02*
X136956256Y-107727470D01*
X136956256Y-107727470D02*
X137575303Y-107727470D01*
X136241970Y-85543106D02*
X136146732Y-85495487D01*
X136146732Y-85495487D02*
X136099113Y-85447867D01*
X136099113Y-85447867D02*
X136051494Y-85352629D01*
X136051494Y-85352629D02*
X136051494Y-85066915D01*
X136051494Y-85066915D02*
X136099113Y-84971677D01*
X136099113Y-84971677D02*
X136146732Y-84924058D01*
X136146732Y-84924058D02*
X136241970Y-84876439D01*
X136241970Y-84876439D02*
X136384827Y-84876439D01*
X136384827Y-84876439D02*
X136480065Y-84924058D01*
X136480065Y-84924058D02*
X136527684Y-84971677D01*
X136527684Y-84971677D02*
X136575303Y-85066915D01*
X136575303Y-85066915D02*
X136575303Y-85352629D01*
X136575303Y-85352629D02*
X136527684Y-85447867D01*
X136527684Y-85447867D02*
X136480065Y-85495487D01*
X136480065Y-85495487D02*
X136384827Y-85543106D01*
X136384827Y-85543106D02*
X136241970Y-85543106D01*
X137432446Y-84876439D02*
X137432446Y-85543106D01*
X137194351Y-84495487D02*
X136956256Y-85209772D01*
X136956256Y-85209772D02*
X137575303Y-85209772D01*
D10*
%TO.C,C2*%
X170721598Y-98545451D02*
X170769218Y-98593070D01*
X170769218Y-98593070D02*
X170816837Y-98735927D01*
X170816837Y-98735927D02*
X170816837Y-98831165D01*
X170816837Y-98831165D02*
X170769218Y-98974022D01*
X170769218Y-98974022D02*
X170673979Y-99069260D01*
X170673979Y-99069260D02*
X170578741Y-99116879D01*
X170578741Y-99116879D02*
X170388265Y-99164498D01*
X170388265Y-99164498D02*
X170245408Y-99164498D01*
X170245408Y-99164498D02*
X170054932Y-99116879D01*
X170054932Y-99116879D02*
X169959694Y-99069260D01*
X169959694Y-99069260D02*
X169864456Y-98974022D01*
X169864456Y-98974022D02*
X169816837Y-98831165D01*
X169816837Y-98831165D02*
X169816837Y-98735927D01*
X169816837Y-98735927D02*
X169864456Y-98593070D01*
X169864456Y-98593070D02*
X169912075Y-98545451D01*
X169912075Y-98164498D02*
X169864456Y-98116879D01*
X169864456Y-98116879D02*
X169816837Y-98021641D01*
X169816837Y-98021641D02*
X169816837Y-97783546D01*
X169816837Y-97783546D02*
X169864456Y-97688308D01*
X169864456Y-97688308D02*
X169912075Y-97640689D01*
X169912075Y-97640689D02*
X170007313Y-97593070D01*
X170007313Y-97593070D02*
X170102551Y-97593070D01*
X170102551Y-97593070D02*
X170245408Y-97640689D01*
X170245408Y-97640689D02*
X170816837Y-98212117D01*
X170816837Y-98212117D02*
X170816837Y-97593070D01*
%TO.C,J2*%
X111965684Y-71047106D02*
X111965684Y-71761391D01*
X111965684Y-71761391D02*
X111918065Y-71904248D01*
X111918065Y-71904248D02*
X111822827Y-71999487D01*
X111822827Y-71999487D02*
X111679970Y-72047106D01*
X111679970Y-72047106D02*
X111584732Y-72047106D01*
X112394256Y-71142344D02*
X112441875Y-71094725D01*
X112441875Y-71094725D02*
X112537113Y-71047106D01*
X112537113Y-71047106D02*
X112775208Y-71047106D01*
X112775208Y-71047106D02*
X112870446Y-71094725D01*
X112870446Y-71094725D02*
X112918065Y-71142344D01*
X112918065Y-71142344D02*
X112965684Y-71237582D01*
X112965684Y-71237582D02*
X112965684Y-71332820D01*
X112965684Y-71332820D02*
X112918065Y-71475677D01*
X112918065Y-71475677D02*
X112346637Y-72047106D01*
X112346637Y-72047106D02*
X112965684Y-72047106D01*
%TO.C,C1*%
X182836751Y-81003667D02*
X182789132Y-81051287D01*
X182789132Y-81051287D02*
X182646275Y-81098906D01*
X182646275Y-81098906D02*
X182551037Y-81098906D01*
X182551037Y-81098906D02*
X182408180Y-81051287D01*
X182408180Y-81051287D02*
X182312942Y-80956048D01*
X182312942Y-80956048D02*
X182265323Y-80860810D01*
X182265323Y-80860810D02*
X182217704Y-80670334D01*
X182217704Y-80670334D02*
X182217704Y-80527477D01*
X182217704Y-80527477D02*
X182265323Y-80337001D01*
X182265323Y-80337001D02*
X182312942Y-80241763D01*
X182312942Y-80241763D02*
X182408180Y-80146525D01*
X182408180Y-80146525D02*
X182551037Y-80098906D01*
X182551037Y-80098906D02*
X182646275Y-80098906D01*
X182646275Y-80098906D02*
X182789132Y-80146525D01*
X182789132Y-80146525D02*
X182836751Y-80194144D01*
X183789132Y-81098906D02*
X183217704Y-81098906D01*
X183503418Y-81098906D02*
X183503418Y-80098906D01*
X183503418Y-80098906D02*
X183408180Y-80241763D01*
X183408180Y-80241763D02*
X183312942Y-80337001D01*
X183312942Y-80337001D02*
X183217704Y-80384620D01*
D14*
%TO.C,D1*%
X142020446Y-109314994D02*
X142163303Y-109362613D01*
X142163303Y-109362613D02*
X142210922Y-109410232D01*
X142210922Y-109410232D02*
X142258541Y-109505470D01*
X142258541Y-109505470D02*
X142258541Y-109648327D01*
X142258541Y-109648327D02*
X142210922Y-109743565D01*
X142210922Y-109743565D02*
X142163303Y-109791185D01*
X142163303Y-109791185D02*
X142068065Y-109838804D01*
X142068065Y-109838804D02*
X141687113Y-109838804D01*
X141687113Y-109838804D02*
X141687113Y-108838804D01*
X141687113Y-108838804D02*
X142020446Y-108838804D01*
X142020446Y-108838804D02*
X142115684Y-108886423D01*
X142115684Y-108886423D02*
X142163303Y-108934042D01*
X142163303Y-108934042D02*
X142210922Y-109029280D01*
X142210922Y-109029280D02*
X142210922Y-109124518D01*
X142210922Y-109124518D02*
X142163303Y-109219756D01*
X142163303Y-109219756D02*
X142115684Y-109267375D01*
X142115684Y-109267375D02*
X142020446Y-109314994D01*
X142020446Y-109314994D02*
X141687113Y-109314994D01*
X138194541Y-105012804D02*
X137861208Y-104536613D01*
X137623113Y-105012804D02*
X137623113Y-104012804D01*
X137623113Y-104012804D02*
X138004065Y-104012804D01*
X138004065Y-104012804D02*
X138099303Y-104060423D01*
X138099303Y-104060423D02*
X138146922Y-104108042D01*
X138146922Y-104108042D02*
X138194541Y-104203280D01*
X138194541Y-104203280D02*
X138194541Y-104346137D01*
X138194541Y-104346137D02*
X138146922Y-104441375D01*
X138146922Y-104441375D02*
X138099303Y-104488994D01*
X138099303Y-104488994D02*
X138004065Y-104536613D01*
X138004065Y-104536613D02*
X137623113Y-104536613D01*
X141829922Y-95805423D02*
X141734684Y-95757804D01*
X141734684Y-95757804D02*
X141591827Y-95757804D01*
X141591827Y-95757804D02*
X141448970Y-95805423D01*
X141448970Y-95805423D02*
X141353732Y-95900661D01*
X141353732Y-95900661D02*
X141306113Y-95995899D01*
X141306113Y-95995899D02*
X141258494Y-96186375D01*
X141258494Y-96186375D02*
X141258494Y-96329232D01*
X141258494Y-96329232D02*
X141306113Y-96519708D01*
X141306113Y-96519708D02*
X141353732Y-96614946D01*
X141353732Y-96614946D02*
X141448970Y-96710185D01*
X141448970Y-96710185D02*
X141591827Y-96757804D01*
X141591827Y-96757804D02*
X141687065Y-96757804D01*
X141687065Y-96757804D02*
X141829922Y-96710185D01*
X141829922Y-96710185D02*
X141877541Y-96662565D01*
X141877541Y-96662565D02*
X141877541Y-96329232D01*
X141877541Y-96329232D02*
X141687065Y-96329232D01*
X164250256Y-99801280D02*
X164202637Y-99896518D01*
X164202637Y-99896518D02*
X164202637Y-100039375D01*
X164202637Y-100039375D02*
X164250256Y-100182232D01*
X164250256Y-100182232D02*
X164345494Y-100277470D01*
X164345494Y-100277470D02*
X164440732Y-100325089D01*
X164440732Y-100325089D02*
X164631208Y-100372708D01*
X164631208Y-100372708D02*
X164774065Y-100372708D01*
X164774065Y-100372708D02*
X164964541Y-100325089D01*
X164964541Y-100325089D02*
X165059779Y-100277470D01*
X165059779Y-100277470D02*
X165155018Y-100182232D01*
X165155018Y-100182232D02*
X165202637Y-100039375D01*
X165202637Y-100039375D02*
X165202637Y-99944137D01*
X165202637Y-99944137D02*
X165155018Y-99801280D01*
X165155018Y-99801280D02*
X165107398Y-99753661D01*
X165107398Y-99753661D02*
X164774065Y-99753661D01*
X164774065Y-99753661D02*
X164774065Y-99944137D01*
X164678827Y-98991756D02*
X164726446Y-98848899D01*
X164726446Y-98848899D02*
X164774065Y-98801280D01*
X164774065Y-98801280D02*
X164869303Y-98753661D01*
X164869303Y-98753661D02*
X165012160Y-98753661D01*
X165012160Y-98753661D02*
X165107398Y-98801280D01*
X165107398Y-98801280D02*
X165155018Y-98848899D01*
X165155018Y-98848899D02*
X165202637Y-98944137D01*
X165202637Y-98944137D02*
X165202637Y-99325089D01*
X165202637Y-99325089D02*
X164202637Y-99325089D01*
X164202637Y-99325089D02*
X164202637Y-98991756D01*
X164202637Y-98991756D02*
X164250256Y-98896518D01*
X164250256Y-98896518D02*
X164297875Y-98848899D01*
X164297875Y-98848899D02*
X164393113Y-98801280D01*
X164393113Y-98801280D02*
X164488351Y-98801280D01*
X164488351Y-98801280D02*
X164583589Y-98848899D01*
X164583589Y-98848899D02*
X164631208Y-98896518D01*
X164631208Y-98896518D02*
X164678827Y-98991756D01*
X164678827Y-98991756D02*
X164678827Y-99325089D01*
X165297875Y-98563185D02*
X165297875Y-97801280D01*
X164916922Y-97610803D02*
X164916922Y-97134613D01*
X165202637Y-97706041D02*
X164202637Y-97372708D01*
X164202637Y-97372708D02*
X165202637Y-97039375D01*
X165075637Y-102674661D02*
X164599446Y-103007994D01*
X165075637Y-103246089D02*
X164075637Y-103246089D01*
X164075637Y-103246089D02*
X164075637Y-102865137D01*
X164075637Y-102865137D02*
X164123256Y-102769899D01*
X164123256Y-102769899D02*
X164170875Y-102722280D01*
X164170875Y-102722280D02*
X164266113Y-102674661D01*
X164266113Y-102674661D02*
X164408970Y-102674661D01*
X164408970Y-102674661D02*
X164504208Y-102722280D01*
X164504208Y-102722280D02*
X164551827Y-102769899D01*
X164551827Y-102769899D02*
X164599446Y-102865137D01*
X164599446Y-102865137D02*
X164599446Y-103246089D01*
X165075637Y-108008661D02*
X164599446Y-108341994D01*
X165075637Y-108580089D02*
X164075637Y-108580089D01*
X164075637Y-108580089D02*
X164075637Y-108199137D01*
X164075637Y-108199137D02*
X164123256Y-108103899D01*
X164123256Y-108103899D02*
X164170875Y-108056280D01*
X164170875Y-108056280D02*
X164266113Y-108008661D01*
X164266113Y-108008661D02*
X164408970Y-108008661D01*
X164408970Y-108008661D02*
X164504208Y-108056280D01*
X164504208Y-108056280D02*
X164551827Y-108103899D01*
X164551827Y-108103899D02*
X164599446Y-108199137D01*
X164599446Y-108199137D02*
X164599446Y-108580089D01*
X165170875Y-107818185D02*
X165170875Y-107056280D01*
X164789922Y-106865803D02*
X164789922Y-106389613D01*
X165075637Y-106961041D02*
X164075637Y-106627708D01*
X164075637Y-106627708D02*
X165075637Y-106294375D01*
D15*
%TO.C,D3*%
X157148636Y-65894315D02*
X157148636Y-64624315D01*
X157148636Y-64624315D02*
X157451017Y-64624315D01*
X157451017Y-64624315D02*
X157632446Y-64684791D01*
X157632446Y-64684791D02*
X157753398Y-64805743D01*
X157753398Y-64805743D02*
X157813875Y-64926696D01*
X157813875Y-64926696D02*
X157874351Y-65168600D01*
X157874351Y-65168600D02*
X157874351Y-65350029D01*
X157874351Y-65350029D02*
X157813875Y-65591934D01*
X157813875Y-65591934D02*
X157753398Y-65712886D01*
X157753398Y-65712886D02*
X157632446Y-65833839D01*
X157632446Y-65833839D02*
X157451017Y-65894315D01*
X157451017Y-65894315D02*
X157148636Y-65894315D01*
X158297684Y-64624315D02*
X159083875Y-64624315D01*
X159083875Y-64624315D02*
X158660541Y-65108124D01*
X158660541Y-65108124D02*
X158841970Y-65108124D01*
X158841970Y-65108124D02*
X158962922Y-65168600D01*
X158962922Y-65168600D02*
X159023398Y-65229077D01*
X159023398Y-65229077D02*
X159083875Y-65350029D01*
X159083875Y-65350029D02*
X159083875Y-65652410D01*
X159083875Y-65652410D02*
X159023398Y-65773362D01*
X159023398Y-65773362D02*
X158962922Y-65833839D01*
X158962922Y-65833839D02*
X158841970Y-65894315D01*
X158841970Y-65894315D02*
X158479113Y-65894315D01*
X158479113Y-65894315D02*
X158358160Y-65833839D01*
X158358160Y-65833839D02*
X158297684Y-65773362D01*
D14*
%TO.C,D1*%
X142020446Y-86797296D02*
X142163303Y-86844915D01*
X142163303Y-86844915D02*
X142210922Y-86892534D01*
X142210922Y-86892534D02*
X142258541Y-86987772D01*
X142258541Y-86987772D02*
X142258541Y-87130629D01*
X142258541Y-87130629D02*
X142210922Y-87225867D01*
X142210922Y-87225867D02*
X142163303Y-87273487D01*
X142163303Y-87273487D02*
X142068065Y-87321106D01*
X142068065Y-87321106D02*
X141687113Y-87321106D01*
X141687113Y-87321106D02*
X141687113Y-86321106D01*
X141687113Y-86321106D02*
X142020446Y-86321106D01*
X142020446Y-86321106D02*
X142115684Y-86368725D01*
X142115684Y-86368725D02*
X142163303Y-86416344D01*
X142163303Y-86416344D02*
X142210922Y-86511582D01*
X142210922Y-86511582D02*
X142210922Y-86606820D01*
X142210922Y-86606820D02*
X142163303Y-86702058D01*
X142163303Y-86702058D02*
X142115684Y-86749677D01*
X142115684Y-86749677D02*
X142020446Y-86797296D01*
X142020446Y-86797296D02*
X141687113Y-86797296D01*
X138194541Y-82495106D02*
X137861208Y-82018915D01*
X137623113Y-82495106D02*
X137623113Y-81495106D01*
X137623113Y-81495106D02*
X138004065Y-81495106D01*
X138004065Y-81495106D02*
X138099303Y-81542725D01*
X138099303Y-81542725D02*
X138146922Y-81590344D01*
X138146922Y-81590344D02*
X138194541Y-81685582D01*
X138194541Y-81685582D02*
X138194541Y-81828439D01*
X138194541Y-81828439D02*
X138146922Y-81923677D01*
X138146922Y-81923677D02*
X138099303Y-81971296D01*
X138099303Y-81971296D02*
X138004065Y-82018915D01*
X138004065Y-82018915D02*
X137623113Y-82018915D01*
X141829922Y-73287725D02*
X141734684Y-73240106D01*
X141734684Y-73240106D02*
X141591827Y-73240106D01*
X141591827Y-73240106D02*
X141448970Y-73287725D01*
X141448970Y-73287725D02*
X141353732Y-73382963D01*
X141353732Y-73382963D02*
X141306113Y-73478201D01*
X141306113Y-73478201D02*
X141258494Y-73668677D01*
X141258494Y-73668677D02*
X141258494Y-73811534D01*
X141258494Y-73811534D02*
X141306113Y-74002010D01*
X141306113Y-74002010D02*
X141353732Y-74097248D01*
X141353732Y-74097248D02*
X141448970Y-74192487D01*
X141448970Y-74192487D02*
X141591827Y-74240106D01*
X141591827Y-74240106D02*
X141687065Y-74240106D01*
X141687065Y-74240106D02*
X141829922Y-74192487D01*
X141829922Y-74192487D02*
X141877541Y-74144867D01*
X141877541Y-74144867D02*
X141877541Y-73811534D01*
X141877541Y-73811534D02*
X141687065Y-73811534D01*
X165075637Y-85490963D02*
X164599446Y-85824296D01*
X165075637Y-86062391D02*
X164075637Y-86062391D01*
X164075637Y-86062391D02*
X164075637Y-85681439D01*
X164075637Y-85681439D02*
X164123256Y-85586201D01*
X164123256Y-85586201D02*
X164170875Y-85538582D01*
X164170875Y-85538582D02*
X164266113Y-85490963D01*
X164266113Y-85490963D02*
X164408970Y-85490963D01*
X164408970Y-85490963D02*
X164504208Y-85538582D01*
X164504208Y-85538582D02*
X164551827Y-85586201D01*
X164551827Y-85586201D02*
X164599446Y-85681439D01*
X164599446Y-85681439D02*
X164599446Y-86062391D01*
X165170875Y-85300487D02*
X165170875Y-84538582D01*
X164789922Y-84348105D02*
X164789922Y-83871915D01*
X165075637Y-84443343D02*
X164075637Y-84110010D01*
X164075637Y-84110010D02*
X165075637Y-83776677D01*
X165075637Y-80156963D02*
X164599446Y-80490296D01*
X165075637Y-80728391D02*
X164075637Y-80728391D01*
X164075637Y-80728391D02*
X164075637Y-80347439D01*
X164075637Y-80347439D02*
X164123256Y-80252201D01*
X164123256Y-80252201D02*
X164170875Y-80204582D01*
X164170875Y-80204582D02*
X164266113Y-80156963D01*
X164266113Y-80156963D02*
X164408970Y-80156963D01*
X164408970Y-80156963D02*
X164504208Y-80204582D01*
X164504208Y-80204582D02*
X164551827Y-80252201D01*
X164551827Y-80252201D02*
X164599446Y-80347439D01*
X164599446Y-80347439D02*
X164599446Y-80728391D01*
X164250256Y-77283582D02*
X164202637Y-77378820D01*
X164202637Y-77378820D02*
X164202637Y-77521677D01*
X164202637Y-77521677D02*
X164250256Y-77664534D01*
X164250256Y-77664534D02*
X164345494Y-77759772D01*
X164345494Y-77759772D02*
X164440732Y-77807391D01*
X164440732Y-77807391D02*
X164631208Y-77855010D01*
X164631208Y-77855010D02*
X164774065Y-77855010D01*
X164774065Y-77855010D02*
X164964541Y-77807391D01*
X164964541Y-77807391D02*
X165059779Y-77759772D01*
X165059779Y-77759772D02*
X165155018Y-77664534D01*
X165155018Y-77664534D02*
X165202637Y-77521677D01*
X165202637Y-77521677D02*
X165202637Y-77426439D01*
X165202637Y-77426439D02*
X165155018Y-77283582D01*
X165155018Y-77283582D02*
X165107398Y-77235963D01*
X165107398Y-77235963D02*
X164774065Y-77235963D01*
X164774065Y-77235963D02*
X164774065Y-77426439D01*
X164678827Y-76474058D02*
X164726446Y-76331201D01*
X164726446Y-76331201D02*
X164774065Y-76283582D01*
X164774065Y-76283582D02*
X164869303Y-76235963D01*
X164869303Y-76235963D02*
X165012160Y-76235963D01*
X165012160Y-76235963D02*
X165107398Y-76283582D01*
X165107398Y-76283582D02*
X165155018Y-76331201D01*
X165155018Y-76331201D02*
X165202637Y-76426439D01*
X165202637Y-76426439D02*
X165202637Y-76807391D01*
X165202637Y-76807391D02*
X164202637Y-76807391D01*
X164202637Y-76807391D02*
X164202637Y-76474058D01*
X164202637Y-76474058D02*
X164250256Y-76378820D01*
X164250256Y-76378820D02*
X164297875Y-76331201D01*
X164297875Y-76331201D02*
X164393113Y-76283582D01*
X164393113Y-76283582D02*
X164488351Y-76283582D01*
X164488351Y-76283582D02*
X164583589Y-76331201D01*
X164583589Y-76331201D02*
X164631208Y-76378820D01*
X164631208Y-76378820D02*
X164678827Y-76474058D01*
X164678827Y-76474058D02*
X164678827Y-76807391D01*
X165297875Y-76045487D02*
X165297875Y-75283582D01*
X164916922Y-75093105D02*
X164916922Y-74616915D01*
X165202637Y-75188343D02*
X164202637Y-74855010D01*
X164202637Y-74855010D02*
X165202637Y-74521677D01*
D10*
%TO.C,U1*%
X177669513Y-78524106D02*
X177669513Y-79333629D01*
X177669513Y-79333629D02*
X177717132Y-79428867D01*
X177717132Y-79428867D02*
X177764751Y-79476487D01*
X177764751Y-79476487D02*
X177859989Y-79524106D01*
X177859989Y-79524106D02*
X178050465Y-79524106D01*
X178050465Y-79524106D02*
X178145703Y-79476487D01*
X178145703Y-79476487D02*
X178193322Y-79428867D01*
X178193322Y-79428867D02*
X178240941Y-79333629D01*
X178240941Y-79333629D02*
X178240941Y-78524106D01*
X179240941Y-79524106D02*
X178669513Y-79524106D01*
X178955227Y-79524106D02*
X178955227Y-78524106D01*
X178955227Y-78524106D02*
X178859989Y-78666963D01*
X178859989Y-78666963D02*
X178764751Y-78762201D01*
X178764751Y-78762201D02*
X178669513Y-78809820D01*
X177669513Y-56006408D02*
X177669513Y-56815931D01*
X177669513Y-56815931D02*
X177717132Y-56911169D01*
X177717132Y-56911169D02*
X177764751Y-56958789D01*
X177764751Y-56958789D02*
X177859989Y-57006408D01*
X177859989Y-57006408D02*
X178050465Y-57006408D01*
X178050465Y-57006408D02*
X178145703Y-56958789D01*
X178145703Y-56958789D02*
X178193322Y-56911169D01*
X178193322Y-56911169D02*
X178240941Y-56815931D01*
X178240941Y-56815931D02*
X178240941Y-56006408D01*
X179240941Y-57006408D02*
X178669513Y-57006408D01*
X178955227Y-57006408D02*
X178955227Y-56006408D01*
X178955227Y-56006408D02*
X178859989Y-56149265D01*
X178859989Y-56149265D02*
X178764751Y-56244503D01*
X178764751Y-56244503D02*
X178669513Y-56292122D01*
D14*
%TO.C,D1*%
X164250256Y-54765884D02*
X164202637Y-54861122D01*
X164202637Y-54861122D02*
X164202637Y-55003979D01*
X164202637Y-55003979D02*
X164250256Y-55146836D01*
X164250256Y-55146836D02*
X164345494Y-55242074D01*
X164345494Y-55242074D02*
X164440732Y-55289693D01*
X164440732Y-55289693D02*
X164631208Y-55337312D01*
X164631208Y-55337312D02*
X164774065Y-55337312D01*
X164774065Y-55337312D02*
X164964541Y-55289693D01*
X164964541Y-55289693D02*
X165059779Y-55242074D01*
X165059779Y-55242074D02*
X165155018Y-55146836D01*
X165155018Y-55146836D02*
X165202637Y-55003979D01*
X165202637Y-55003979D02*
X165202637Y-54908741D01*
X165202637Y-54908741D02*
X165155018Y-54765884D01*
X165155018Y-54765884D02*
X165107398Y-54718265D01*
X165107398Y-54718265D02*
X164774065Y-54718265D01*
X164774065Y-54718265D02*
X164774065Y-54908741D01*
X164678827Y-53956360D02*
X164726446Y-53813503D01*
X164726446Y-53813503D02*
X164774065Y-53765884D01*
X164774065Y-53765884D02*
X164869303Y-53718265D01*
X164869303Y-53718265D02*
X165012160Y-53718265D01*
X165012160Y-53718265D02*
X165107398Y-53765884D01*
X165107398Y-53765884D02*
X165155018Y-53813503D01*
X165155018Y-53813503D02*
X165202637Y-53908741D01*
X165202637Y-53908741D02*
X165202637Y-54289693D01*
X165202637Y-54289693D02*
X164202637Y-54289693D01*
X164202637Y-54289693D02*
X164202637Y-53956360D01*
X164202637Y-53956360D02*
X164250256Y-53861122D01*
X164250256Y-53861122D02*
X164297875Y-53813503D01*
X164297875Y-53813503D02*
X164393113Y-53765884D01*
X164393113Y-53765884D02*
X164488351Y-53765884D01*
X164488351Y-53765884D02*
X164583589Y-53813503D01*
X164583589Y-53813503D02*
X164631208Y-53861122D01*
X164631208Y-53861122D02*
X164678827Y-53956360D01*
X164678827Y-53956360D02*
X164678827Y-54289693D01*
X165297875Y-53527789D02*
X165297875Y-52765884D01*
X164916922Y-52575407D02*
X164916922Y-52099217D01*
X165202637Y-52670645D02*
X164202637Y-52337312D01*
X164202637Y-52337312D02*
X165202637Y-52003979D01*
X138194541Y-59977408D02*
X137861208Y-59501217D01*
X137623113Y-59977408D02*
X137623113Y-58977408D01*
X137623113Y-58977408D02*
X138004065Y-58977408D01*
X138004065Y-58977408D02*
X138099303Y-59025027D01*
X138099303Y-59025027D02*
X138146922Y-59072646D01*
X138146922Y-59072646D02*
X138194541Y-59167884D01*
X138194541Y-59167884D02*
X138194541Y-59310741D01*
X138194541Y-59310741D02*
X138146922Y-59405979D01*
X138146922Y-59405979D02*
X138099303Y-59453598D01*
X138099303Y-59453598D02*
X138004065Y-59501217D01*
X138004065Y-59501217D02*
X137623113Y-59501217D01*
X142020446Y-64279598D02*
X142163303Y-64327217D01*
X142163303Y-64327217D02*
X142210922Y-64374836D01*
X142210922Y-64374836D02*
X142258541Y-64470074D01*
X142258541Y-64470074D02*
X142258541Y-64612931D01*
X142258541Y-64612931D02*
X142210922Y-64708169D01*
X142210922Y-64708169D02*
X142163303Y-64755789D01*
X142163303Y-64755789D02*
X142068065Y-64803408D01*
X142068065Y-64803408D02*
X141687113Y-64803408D01*
X141687113Y-64803408D02*
X141687113Y-63803408D01*
X141687113Y-63803408D02*
X142020446Y-63803408D01*
X142020446Y-63803408D02*
X142115684Y-63851027D01*
X142115684Y-63851027D02*
X142163303Y-63898646D01*
X142163303Y-63898646D02*
X142210922Y-63993884D01*
X142210922Y-63993884D02*
X142210922Y-64089122D01*
X142210922Y-64089122D02*
X142163303Y-64184360D01*
X142163303Y-64184360D02*
X142115684Y-64231979D01*
X142115684Y-64231979D02*
X142020446Y-64279598D01*
X142020446Y-64279598D02*
X141687113Y-64279598D01*
X165075637Y-62973265D02*
X164599446Y-63306598D01*
X165075637Y-63544693D02*
X164075637Y-63544693D01*
X164075637Y-63544693D02*
X164075637Y-63163741D01*
X164075637Y-63163741D02*
X164123256Y-63068503D01*
X164123256Y-63068503D02*
X164170875Y-63020884D01*
X164170875Y-63020884D02*
X164266113Y-62973265D01*
X164266113Y-62973265D02*
X164408970Y-62973265D01*
X164408970Y-62973265D02*
X164504208Y-63020884D01*
X164504208Y-63020884D02*
X164551827Y-63068503D01*
X164551827Y-63068503D02*
X164599446Y-63163741D01*
X164599446Y-63163741D02*
X164599446Y-63544693D01*
X165170875Y-62782789D02*
X165170875Y-62020884D01*
X164789922Y-61830407D02*
X164789922Y-61354217D01*
X165075637Y-61925645D02*
X164075637Y-61592312D01*
X164075637Y-61592312D02*
X165075637Y-61258979D01*
X165075637Y-57639265D02*
X164599446Y-57972598D01*
X165075637Y-58210693D02*
X164075637Y-58210693D01*
X164075637Y-58210693D02*
X164075637Y-57829741D01*
X164075637Y-57829741D02*
X164123256Y-57734503D01*
X164123256Y-57734503D02*
X164170875Y-57686884D01*
X164170875Y-57686884D02*
X164266113Y-57639265D01*
X164266113Y-57639265D02*
X164408970Y-57639265D01*
X164408970Y-57639265D02*
X164504208Y-57686884D01*
X164504208Y-57686884D02*
X164551827Y-57734503D01*
X164551827Y-57734503D02*
X164599446Y-57829741D01*
X164599446Y-57829741D02*
X164599446Y-58210693D01*
X141829922Y-50770027D02*
X141734684Y-50722408D01*
X141734684Y-50722408D02*
X141591827Y-50722408D01*
X141591827Y-50722408D02*
X141448970Y-50770027D01*
X141448970Y-50770027D02*
X141353732Y-50865265D01*
X141353732Y-50865265D02*
X141306113Y-50960503D01*
X141306113Y-50960503D02*
X141258494Y-51150979D01*
X141258494Y-51150979D02*
X141258494Y-51293836D01*
X141258494Y-51293836D02*
X141306113Y-51484312D01*
X141306113Y-51484312D02*
X141353732Y-51579550D01*
X141353732Y-51579550D02*
X141448970Y-51674789D01*
X141448970Y-51674789D02*
X141591827Y-51722408D01*
X141591827Y-51722408D02*
X141687065Y-51722408D01*
X141687065Y-51722408D02*
X141829922Y-51674789D01*
X141829922Y-51674789D02*
X141877541Y-51627169D01*
X141877541Y-51627169D02*
X141877541Y-51293836D01*
X141877541Y-51293836D02*
X141687065Y-51293836D01*
D10*
%TO.C,J1*%
X169995484Y-81081806D02*
X169995484Y-81796091D01*
X169995484Y-81796091D02*
X169947865Y-81938948D01*
X169947865Y-81938948D02*
X169852627Y-82034187D01*
X169852627Y-82034187D02*
X169709770Y-82081806D01*
X169709770Y-82081806D02*
X169614532Y-82081806D01*
X170995484Y-82081806D02*
X170424056Y-82081806D01*
X170709770Y-82081806D02*
X170709770Y-81081806D01*
X170709770Y-81081806D02*
X170614532Y-81224663D01*
X170614532Y-81224663D02*
X170519294Y-81319901D01*
X170519294Y-81319901D02*
X170424056Y-81367520D01*
D15*
%TO.C,IC1*%
X126493255Y-74061013D02*
X126493255Y-72791013D01*
X127823732Y-73940060D02*
X127763256Y-74000537D01*
X127763256Y-74000537D02*
X127581827Y-74061013D01*
X127581827Y-74061013D02*
X127460875Y-74061013D01*
X127460875Y-74061013D02*
X127279446Y-74000537D01*
X127279446Y-74000537D02*
X127158494Y-73879584D01*
X127158494Y-73879584D02*
X127098017Y-73758632D01*
X127098017Y-73758632D02*
X127037541Y-73516727D01*
X127037541Y-73516727D02*
X127037541Y-73335298D01*
X127037541Y-73335298D02*
X127098017Y-73093394D01*
X127098017Y-73093394D02*
X127158494Y-72972441D01*
X127158494Y-72972441D02*
X127279446Y-72851489D01*
X127279446Y-72851489D02*
X127460875Y-72791013D01*
X127460875Y-72791013D02*
X127581827Y-72791013D01*
X127581827Y-72791013D02*
X127763256Y-72851489D01*
X127763256Y-72851489D02*
X127823732Y-72911965D01*
X129033256Y-74061013D02*
X128307541Y-74061013D01*
X128670398Y-74061013D02*
X128670398Y-72791013D01*
X128670398Y-72791013D02*
X128549446Y-72972441D01*
X128549446Y-72972441D02*
X128428494Y-73093394D01*
X128428494Y-73093394D02*
X128307541Y-73153870D01*
%TO.C,D3*%
X157148636Y-110929711D02*
X157148636Y-109659711D01*
X157148636Y-109659711D02*
X157451017Y-109659711D01*
X157451017Y-109659711D02*
X157632446Y-109720187D01*
X157632446Y-109720187D02*
X157753398Y-109841139D01*
X157753398Y-109841139D02*
X157813875Y-109962092D01*
X157813875Y-109962092D02*
X157874351Y-110203996D01*
X157874351Y-110203996D02*
X157874351Y-110385425D01*
X157874351Y-110385425D02*
X157813875Y-110627330D01*
X157813875Y-110627330D02*
X157753398Y-110748282D01*
X157753398Y-110748282D02*
X157632446Y-110869235D01*
X157632446Y-110869235D02*
X157451017Y-110929711D01*
X157451017Y-110929711D02*
X157148636Y-110929711D01*
X158297684Y-109659711D02*
X159083875Y-109659711D01*
X159083875Y-109659711D02*
X158660541Y-110143520D01*
X158660541Y-110143520D02*
X158841970Y-110143520D01*
X158841970Y-110143520D02*
X158962922Y-110203996D01*
X158962922Y-110203996D02*
X159023398Y-110264473D01*
X159023398Y-110264473D02*
X159083875Y-110385425D01*
X159083875Y-110385425D02*
X159083875Y-110687806D01*
X159083875Y-110687806D02*
X159023398Y-110808758D01*
X159023398Y-110808758D02*
X158962922Y-110869235D01*
X158962922Y-110869235D02*
X158841970Y-110929711D01*
X158841970Y-110929711D02*
X158479113Y-110929711D01*
X158479113Y-110929711D02*
X158358160Y-110869235D01*
X158358160Y-110869235D02*
X158297684Y-110808758D01*
D10*
%TO.C,J1*%
X169995484Y-103599504D02*
X169995484Y-104313789D01*
X169995484Y-104313789D02*
X169947865Y-104456646D01*
X169947865Y-104456646D02*
X169852627Y-104551885D01*
X169852627Y-104551885D02*
X169709770Y-104599504D01*
X169709770Y-104599504D02*
X169614532Y-104599504D01*
X170995484Y-104599504D02*
X170424056Y-104599504D01*
X170709770Y-104599504D02*
X170709770Y-103599504D01*
X170709770Y-103599504D02*
X170614532Y-103742361D01*
X170614532Y-103742361D02*
X170519294Y-103837599D01*
X170519294Y-103837599D02*
X170424056Y-103885218D01*
D15*
%TO.C,D3*%
X157148636Y-43376617D02*
X157148636Y-42106617D01*
X157148636Y-42106617D02*
X157451017Y-42106617D01*
X157451017Y-42106617D02*
X157632446Y-42167093D01*
X157632446Y-42167093D02*
X157753398Y-42288045D01*
X157753398Y-42288045D02*
X157813875Y-42408998D01*
X157813875Y-42408998D02*
X157874351Y-42650902D01*
X157874351Y-42650902D02*
X157874351Y-42832331D01*
X157874351Y-42832331D02*
X157813875Y-43074236D01*
X157813875Y-43074236D02*
X157753398Y-43195188D01*
X157753398Y-43195188D02*
X157632446Y-43316141D01*
X157632446Y-43316141D02*
X157451017Y-43376617D01*
X157451017Y-43376617D02*
X157148636Y-43376617D01*
X158297684Y-42106617D02*
X159083875Y-42106617D01*
X159083875Y-42106617D02*
X158660541Y-42590426D01*
X158660541Y-42590426D02*
X158841970Y-42590426D01*
X158841970Y-42590426D02*
X158962922Y-42650902D01*
X158962922Y-42650902D02*
X159023398Y-42711379D01*
X159023398Y-42711379D02*
X159083875Y-42832331D01*
X159083875Y-42832331D02*
X159083875Y-43134712D01*
X159083875Y-43134712D02*
X159023398Y-43255664D01*
X159023398Y-43255664D02*
X158962922Y-43316141D01*
X158962922Y-43316141D02*
X158841970Y-43376617D01*
X158841970Y-43376617D02*
X158479113Y-43376617D01*
X158479113Y-43376617D02*
X158358160Y-43316141D01*
X158358160Y-43316141D02*
X158297684Y-43255664D01*
D10*
%TO.C,C2*%
X170721598Y-53510055D02*
X170769218Y-53557674D01*
X170769218Y-53557674D02*
X170816837Y-53700531D01*
X170816837Y-53700531D02*
X170816837Y-53795769D01*
X170816837Y-53795769D02*
X170769218Y-53938626D01*
X170769218Y-53938626D02*
X170673979Y-54033864D01*
X170673979Y-54033864D02*
X170578741Y-54081483D01*
X170578741Y-54081483D02*
X170388265Y-54129102D01*
X170388265Y-54129102D02*
X170245408Y-54129102D01*
X170245408Y-54129102D02*
X170054932Y-54081483D01*
X170054932Y-54081483D02*
X169959694Y-54033864D01*
X169959694Y-54033864D02*
X169864456Y-53938626D01*
X169864456Y-53938626D02*
X169816837Y-53795769D01*
X169816837Y-53795769D02*
X169816837Y-53700531D01*
X169816837Y-53700531D02*
X169864456Y-53557674D01*
X169864456Y-53557674D02*
X169912075Y-53510055D01*
X169912075Y-53129102D02*
X169864456Y-53081483D01*
X169864456Y-53081483D02*
X169816837Y-52986245D01*
X169816837Y-52986245D02*
X169816837Y-52748150D01*
X169816837Y-52748150D02*
X169864456Y-52652912D01*
X169864456Y-52652912D02*
X169912075Y-52605293D01*
X169912075Y-52605293D02*
X170007313Y-52557674D01*
X170007313Y-52557674D02*
X170102551Y-52557674D01*
X170102551Y-52557674D02*
X170245408Y-52605293D01*
X170245408Y-52605293D02*
X170816837Y-53176721D01*
X170816837Y-53176721D02*
X170816837Y-52557674D01*
%TO.C,C1*%
X182836751Y-35968271D02*
X182789132Y-36015891D01*
X182789132Y-36015891D02*
X182646275Y-36063510D01*
X182646275Y-36063510D02*
X182551037Y-36063510D01*
X182551037Y-36063510D02*
X182408180Y-36015891D01*
X182408180Y-36015891D02*
X182312942Y-35920652D01*
X182312942Y-35920652D02*
X182265323Y-35825414D01*
X182265323Y-35825414D02*
X182217704Y-35634938D01*
X182217704Y-35634938D02*
X182217704Y-35492081D01*
X182217704Y-35492081D02*
X182265323Y-35301605D01*
X182265323Y-35301605D02*
X182312942Y-35206367D01*
X182312942Y-35206367D02*
X182408180Y-35111129D01*
X182408180Y-35111129D02*
X182551037Y-35063510D01*
X182551037Y-35063510D02*
X182646275Y-35063510D01*
X182646275Y-35063510D02*
X182789132Y-35111129D01*
X182789132Y-35111129D02*
X182836751Y-35158748D01*
X183789132Y-36063510D02*
X183217704Y-36063510D01*
X183503418Y-36063510D02*
X183503418Y-35063510D01*
X183503418Y-35063510D02*
X183408180Y-35206367D01*
X183408180Y-35206367D02*
X183312942Y-35301605D01*
X183312942Y-35301605D02*
X183217704Y-35349224D01*
%TO.C,C2*%
X170721598Y-30992357D02*
X170769218Y-31039976D01*
X170769218Y-31039976D02*
X170816837Y-31182833D01*
X170816837Y-31182833D02*
X170816837Y-31278071D01*
X170816837Y-31278071D02*
X170769218Y-31420928D01*
X170769218Y-31420928D02*
X170673979Y-31516166D01*
X170673979Y-31516166D02*
X170578741Y-31563785D01*
X170578741Y-31563785D02*
X170388265Y-31611404D01*
X170388265Y-31611404D02*
X170245408Y-31611404D01*
X170245408Y-31611404D02*
X170054932Y-31563785D01*
X170054932Y-31563785D02*
X169959694Y-31516166D01*
X169959694Y-31516166D02*
X169864456Y-31420928D01*
X169864456Y-31420928D02*
X169816837Y-31278071D01*
X169816837Y-31278071D02*
X169816837Y-31182833D01*
X169816837Y-31182833D02*
X169864456Y-31039976D01*
X169864456Y-31039976D02*
X169912075Y-30992357D01*
X169912075Y-30611404D02*
X169864456Y-30563785D01*
X169864456Y-30563785D02*
X169816837Y-30468547D01*
X169816837Y-30468547D02*
X169816837Y-30230452D01*
X169816837Y-30230452D02*
X169864456Y-30135214D01*
X169864456Y-30135214D02*
X169912075Y-30087595D01*
X169912075Y-30087595D02*
X170007313Y-30039976D01*
X170007313Y-30039976D02*
X170102551Y-30039976D01*
X170102551Y-30039976D02*
X170245408Y-30087595D01*
X170245408Y-30087595D02*
X170816837Y-30659023D01*
X170816837Y-30659023D02*
X170816837Y-30039976D01*
X170721598Y-76027753D02*
X170769218Y-76075372D01*
X170769218Y-76075372D02*
X170816837Y-76218229D01*
X170816837Y-76218229D02*
X170816837Y-76313467D01*
X170816837Y-76313467D02*
X170769218Y-76456324D01*
X170769218Y-76456324D02*
X170673979Y-76551562D01*
X170673979Y-76551562D02*
X170578741Y-76599181D01*
X170578741Y-76599181D02*
X170388265Y-76646800D01*
X170388265Y-76646800D02*
X170245408Y-76646800D01*
X170245408Y-76646800D02*
X170054932Y-76599181D01*
X170054932Y-76599181D02*
X169959694Y-76551562D01*
X169959694Y-76551562D02*
X169864456Y-76456324D01*
X169864456Y-76456324D02*
X169816837Y-76313467D01*
X169816837Y-76313467D02*
X169816837Y-76218229D01*
X169816837Y-76218229D02*
X169864456Y-76075372D01*
X169864456Y-76075372D02*
X169912075Y-76027753D01*
X169912075Y-75646800D02*
X169864456Y-75599181D01*
X169864456Y-75599181D02*
X169816837Y-75503943D01*
X169816837Y-75503943D02*
X169816837Y-75265848D01*
X169816837Y-75265848D02*
X169864456Y-75170610D01*
X169864456Y-75170610D02*
X169912075Y-75122991D01*
X169912075Y-75122991D02*
X170007313Y-75075372D01*
X170007313Y-75075372D02*
X170102551Y-75075372D01*
X170102551Y-75075372D02*
X170245408Y-75122991D01*
X170245408Y-75122991D02*
X170816837Y-75694419D01*
X170816837Y-75694419D02*
X170816837Y-75075372D01*
%TO.C,U1*%
X177669513Y-33488710D02*
X177669513Y-34298233D01*
X177669513Y-34298233D02*
X177717132Y-34393471D01*
X177717132Y-34393471D02*
X177764751Y-34441091D01*
X177764751Y-34441091D02*
X177859989Y-34488710D01*
X177859989Y-34488710D02*
X178050465Y-34488710D01*
X178050465Y-34488710D02*
X178145703Y-34441091D01*
X178145703Y-34441091D02*
X178193322Y-34393471D01*
X178193322Y-34393471D02*
X178240941Y-34298233D01*
X178240941Y-34298233D02*
X178240941Y-33488710D01*
X179240941Y-34488710D02*
X178669513Y-34488710D01*
X178955227Y-34488710D02*
X178955227Y-33488710D01*
X178955227Y-33488710D02*
X178859989Y-33631567D01*
X178859989Y-33631567D02*
X178764751Y-33726805D01*
X178764751Y-33726805D02*
X178669513Y-33774424D01*
%TO.C,J2*%
X111965684Y-93564804D02*
X111965684Y-94279089D01*
X111965684Y-94279089D02*
X111918065Y-94421946D01*
X111918065Y-94421946D02*
X111822827Y-94517185D01*
X111822827Y-94517185D02*
X111679970Y-94564804D01*
X111679970Y-94564804D02*
X111584732Y-94564804D01*
X112394256Y-93660042D02*
X112441875Y-93612423D01*
X112441875Y-93612423D02*
X112537113Y-93564804D01*
X112537113Y-93564804D02*
X112775208Y-93564804D01*
X112775208Y-93564804D02*
X112870446Y-93612423D01*
X112870446Y-93612423D02*
X112918065Y-93660042D01*
X112918065Y-93660042D02*
X112965684Y-93755280D01*
X112965684Y-93755280D02*
X112965684Y-93850518D01*
X112965684Y-93850518D02*
X112918065Y-93993375D01*
X112918065Y-93993375D02*
X112346637Y-94564804D01*
X112346637Y-94564804D02*
X112965684Y-94564804D01*
%TO.C,J1*%
X169995484Y-58564108D02*
X169995484Y-59278393D01*
X169995484Y-59278393D02*
X169947865Y-59421250D01*
X169947865Y-59421250D02*
X169852627Y-59516489D01*
X169852627Y-59516489D02*
X169709770Y-59564108D01*
X169709770Y-59564108D02*
X169614532Y-59564108D01*
X170995484Y-59564108D02*
X170424056Y-59564108D01*
X170709770Y-59564108D02*
X170709770Y-58564108D01*
X170709770Y-58564108D02*
X170614532Y-58706965D01*
X170614532Y-58706965D02*
X170519294Y-58802203D01*
X170519294Y-58802203D02*
X170424056Y-58849822D01*
%TO.C,U1*%
X177669513Y-101041804D02*
X177669513Y-101851327D01*
X177669513Y-101851327D02*
X177717132Y-101946565D01*
X177717132Y-101946565D02*
X177764751Y-101994185D01*
X177764751Y-101994185D02*
X177859989Y-102041804D01*
X177859989Y-102041804D02*
X178050465Y-102041804D01*
X178050465Y-102041804D02*
X178145703Y-101994185D01*
X178145703Y-101994185D02*
X178193322Y-101946565D01*
X178193322Y-101946565D02*
X178240941Y-101851327D01*
X178240941Y-101851327D02*
X178240941Y-101041804D01*
X179240941Y-102041804D02*
X178669513Y-102041804D01*
X178955227Y-102041804D02*
X178955227Y-101041804D01*
X178955227Y-101041804D02*
X178859989Y-101184661D01*
X178859989Y-101184661D02*
X178764751Y-101279899D01*
X178764751Y-101279899D02*
X178669513Y-101327518D01*
%TO.C,J1*%
X169995484Y-36046410D02*
X169995484Y-36760695D01*
X169995484Y-36760695D02*
X169947865Y-36903552D01*
X169947865Y-36903552D02*
X169852627Y-36998791D01*
X169852627Y-36998791D02*
X169709770Y-37046410D01*
X169709770Y-37046410D02*
X169614532Y-37046410D01*
X170995484Y-37046410D02*
X170424056Y-37046410D01*
X170709770Y-37046410D02*
X170709770Y-36046410D01*
X170709770Y-36046410D02*
X170614532Y-36189267D01*
X170614532Y-36189267D02*
X170519294Y-36284505D01*
X170519294Y-36284505D02*
X170424056Y-36332124D01*
D15*
%TO.C,D3*%
X157148636Y-88412013D02*
X157148636Y-87142013D01*
X157148636Y-87142013D02*
X157451017Y-87142013D01*
X157451017Y-87142013D02*
X157632446Y-87202489D01*
X157632446Y-87202489D02*
X157753398Y-87323441D01*
X157753398Y-87323441D02*
X157813875Y-87444394D01*
X157813875Y-87444394D02*
X157874351Y-87686298D01*
X157874351Y-87686298D02*
X157874351Y-87867727D01*
X157874351Y-87867727D02*
X157813875Y-88109632D01*
X157813875Y-88109632D02*
X157753398Y-88230584D01*
X157753398Y-88230584D02*
X157632446Y-88351537D01*
X157632446Y-88351537D02*
X157451017Y-88412013D01*
X157451017Y-88412013D02*
X157148636Y-88412013D01*
X158297684Y-87142013D02*
X159083875Y-87142013D01*
X159083875Y-87142013D02*
X158660541Y-87625822D01*
X158660541Y-87625822D02*
X158841970Y-87625822D01*
X158841970Y-87625822D02*
X158962922Y-87686298D01*
X158962922Y-87686298D02*
X159023398Y-87746775D01*
X159023398Y-87746775D02*
X159083875Y-87867727D01*
X159083875Y-87867727D02*
X159083875Y-88170108D01*
X159083875Y-88170108D02*
X159023398Y-88291060D01*
X159023398Y-88291060D02*
X158962922Y-88351537D01*
X158962922Y-88351537D02*
X158841970Y-88412013D01*
X158841970Y-88412013D02*
X158479113Y-88412013D01*
X158479113Y-88412013D02*
X158358160Y-88351537D01*
X158358160Y-88351537D02*
X158297684Y-88291060D01*
%TO.C,IC1*%
X126493255Y-29025617D02*
X126493255Y-27755617D01*
X127823732Y-28904664D02*
X127763256Y-28965141D01*
X127763256Y-28965141D02*
X127581827Y-29025617D01*
X127581827Y-29025617D02*
X127460875Y-29025617D01*
X127460875Y-29025617D02*
X127279446Y-28965141D01*
X127279446Y-28965141D02*
X127158494Y-28844188D01*
X127158494Y-28844188D02*
X127098017Y-28723236D01*
X127098017Y-28723236D02*
X127037541Y-28481331D01*
X127037541Y-28481331D02*
X127037541Y-28299902D01*
X127037541Y-28299902D02*
X127098017Y-28057998D01*
X127098017Y-28057998D02*
X127158494Y-27937045D01*
X127158494Y-27937045D02*
X127279446Y-27816093D01*
X127279446Y-27816093D02*
X127460875Y-27755617D01*
X127460875Y-27755617D02*
X127581827Y-27755617D01*
X127581827Y-27755617D02*
X127763256Y-27816093D01*
X127763256Y-27816093D02*
X127823732Y-27876569D01*
X129033256Y-29025617D02*
X128307541Y-29025617D01*
X128670398Y-29025617D02*
X128670398Y-27755617D01*
X128670398Y-27755617D02*
X128549446Y-27937045D01*
X128549446Y-27937045D02*
X128428494Y-28057998D01*
X128428494Y-28057998D02*
X128307541Y-28118474D01*
D10*
%TO.C,J2*%
X111965684Y-26011710D02*
X111965684Y-26725995D01*
X111965684Y-26725995D02*
X111918065Y-26868852D01*
X111918065Y-26868852D02*
X111822827Y-26964091D01*
X111822827Y-26964091D02*
X111679970Y-27011710D01*
X111679970Y-27011710D02*
X111584732Y-27011710D01*
X112394256Y-26106948D02*
X112441875Y-26059329D01*
X112441875Y-26059329D02*
X112537113Y-26011710D01*
X112537113Y-26011710D02*
X112775208Y-26011710D01*
X112775208Y-26011710D02*
X112870446Y-26059329D01*
X112870446Y-26059329D02*
X112918065Y-26106948D01*
X112918065Y-26106948D02*
X112965684Y-26202186D01*
X112965684Y-26202186D02*
X112965684Y-26297424D01*
X112965684Y-26297424D02*
X112918065Y-26440281D01*
X112918065Y-26440281D02*
X112346637Y-27011710D01*
X112346637Y-27011710D02*
X112965684Y-27011710D01*
%TO.C,C1*%
X182836751Y-103521365D02*
X182789132Y-103568985D01*
X182789132Y-103568985D02*
X182646275Y-103616604D01*
X182646275Y-103616604D02*
X182551037Y-103616604D01*
X182551037Y-103616604D02*
X182408180Y-103568985D01*
X182408180Y-103568985D02*
X182312942Y-103473746D01*
X182312942Y-103473746D02*
X182265323Y-103378508D01*
X182265323Y-103378508D02*
X182217704Y-103188032D01*
X182217704Y-103188032D02*
X182217704Y-103045175D01*
X182217704Y-103045175D02*
X182265323Y-102854699D01*
X182265323Y-102854699D02*
X182312942Y-102759461D01*
X182312942Y-102759461D02*
X182408180Y-102664223D01*
X182408180Y-102664223D02*
X182551037Y-102616604D01*
X182551037Y-102616604D02*
X182646275Y-102616604D01*
X182646275Y-102616604D02*
X182789132Y-102664223D01*
X182789132Y-102664223D02*
X182836751Y-102711842D01*
X183789132Y-103616604D02*
X183217704Y-103616604D01*
X183503418Y-103616604D02*
X183503418Y-102616604D01*
X183503418Y-102616604D02*
X183408180Y-102759461D01*
X183408180Y-102759461D02*
X183312942Y-102854699D01*
X183312942Y-102854699D02*
X183217704Y-102902318D01*
D15*
%TO.C,IC1*%
X126493255Y-51543315D02*
X126493255Y-50273315D01*
X127823732Y-51422362D02*
X127763256Y-51482839D01*
X127763256Y-51482839D02*
X127581827Y-51543315D01*
X127581827Y-51543315D02*
X127460875Y-51543315D01*
X127460875Y-51543315D02*
X127279446Y-51482839D01*
X127279446Y-51482839D02*
X127158494Y-51361886D01*
X127158494Y-51361886D02*
X127098017Y-51240934D01*
X127098017Y-51240934D02*
X127037541Y-50999029D01*
X127037541Y-50999029D02*
X127037541Y-50817600D01*
X127037541Y-50817600D02*
X127098017Y-50575696D01*
X127098017Y-50575696D02*
X127158494Y-50454743D01*
X127158494Y-50454743D02*
X127279446Y-50333791D01*
X127279446Y-50333791D02*
X127460875Y-50273315D01*
X127460875Y-50273315D02*
X127581827Y-50273315D01*
X127581827Y-50273315D02*
X127763256Y-50333791D01*
X127763256Y-50333791D02*
X127823732Y-50394267D01*
X129033256Y-51543315D02*
X128307541Y-51543315D01*
X128670398Y-51543315D02*
X128670398Y-50273315D01*
X128670398Y-50273315D02*
X128549446Y-50454743D01*
X128549446Y-50454743D02*
X128428494Y-50575696D01*
X128428494Y-50575696D02*
X128307541Y-50636172D01*
D14*
%TO.C,D1*%
X164250256Y-32248186D02*
X164202637Y-32343424D01*
X164202637Y-32343424D02*
X164202637Y-32486281D01*
X164202637Y-32486281D02*
X164250256Y-32629138D01*
X164250256Y-32629138D02*
X164345494Y-32724376D01*
X164345494Y-32724376D02*
X164440732Y-32771995D01*
X164440732Y-32771995D02*
X164631208Y-32819614D01*
X164631208Y-32819614D02*
X164774065Y-32819614D01*
X164774065Y-32819614D02*
X164964541Y-32771995D01*
X164964541Y-32771995D02*
X165059779Y-32724376D01*
X165059779Y-32724376D02*
X165155018Y-32629138D01*
X165155018Y-32629138D02*
X165202637Y-32486281D01*
X165202637Y-32486281D02*
X165202637Y-32391043D01*
X165202637Y-32391043D02*
X165155018Y-32248186D01*
X165155018Y-32248186D02*
X165107398Y-32200567D01*
X165107398Y-32200567D02*
X164774065Y-32200567D01*
X164774065Y-32200567D02*
X164774065Y-32391043D01*
X164678827Y-31438662D02*
X164726446Y-31295805D01*
X164726446Y-31295805D02*
X164774065Y-31248186D01*
X164774065Y-31248186D02*
X164869303Y-31200567D01*
X164869303Y-31200567D02*
X165012160Y-31200567D01*
X165012160Y-31200567D02*
X165107398Y-31248186D01*
X165107398Y-31248186D02*
X165155018Y-31295805D01*
X165155018Y-31295805D02*
X165202637Y-31391043D01*
X165202637Y-31391043D02*
X165202637Y-31771995D01*
X165202637Y-31771995D02*
X164202637Y-31771995D01*
X164202637Y-31771995D02*
X164202637Y-31438662D01*
X164202637Y-31438662D02*
X164250256Y-31343424D01*
X164250256Y-31343424D02*
X164297875Y-31295805D01*
X164297875Y-31295805D02*
X164393113Y-31248186D01*
X164393113Y-31248186D02*
X164488351Y-31248186D01*
X164488351Y-31248186D02*
X164583589Y-31295805D01*
X164583589Y-31295805D02*
X164631208Y-31343424D01*
X164631208Y-31343424D02*
X164678827Y-31438662D01*
X164678827Y-31438662D02*
X164678827Y-31771995D01*
X165297875Y-31010091D02*
X165297875Y-30248186D01*
X164916922Y-30057709D02*
X164916922Y-29581519D01*
X165202637Y-30152947D02*
X164202637Y-29819614D01*
X164202637Y-29819614D02*
X165202637Y-29486281D01*
X142020446Y-41761900D02*
X142163303Y-41809519D01*
X142163303Y-41809519D02*
X142210922Y-41857138D01*
X142210922Y-41857138D02*
X142258541Y-41952376D01*
X142258541Y-41952376D02*
X142258541Y-42095233D01*
X142258541Y-42095233D02*
X142210922Y-42190471D01*
X142210922Y-42190471D02*
X142163303Y-42238091D01*
X142163303Y-42238091D02*
X142068065Y-42285710D01*
X142068065Y-42285710D02*
X141687113Y-42285710D01*
X141687113Y-42285710D02*
X141687113Y-41285710D01*
X141687113Y-41285710D02*
X142020446Y-41285710D01*
X142020446Y-41285710D02*
X142115684Y-41333329D01*
X142115684Y-41333329D02*
X142163303Y-41380948D01*
X142163303Y-41380948D02*
X142210922Y-41476186D01*
X142210922Y-41476186D02*
X142210922Y-41571424D01*
X142210922Y-41571424D02*
X142163303Y-41666662D01*
X142163303Y-41666662D02*
X142115684Y-41714281D01*
X142115684Y-41714281D02*
X142020446Y-41761900D01*
X142020446Y-41761900D02*
X141687113Y-41761900D01*
X165075637Y-40455567D02*
X164599446Y-40788900D01*
X165075637Y-41026995D02*
X164075637Y-41026995D01*
X164075637Y-41026995D02*
X164075637Y-40646043D01*
X164075637Y-40646043D02*
X164123256Y-40550805D01*
X164123256Y-40550805D02*
X164170875Y-40503186D01*
X164170875Y-40503186D02*
X164266113Y-40455567D01*
X164266113Y-40455567D02*
X164408970Y-40455567D01*
X164408970Y-40455567D02*
X164504208Y-40503186D01*
X164504208Y-40503186D02*
X164551827Y-40550805D01*
X164551827Y-40550805D02*
X164599446Y-40646043D01*
X164599446Y-40646043D02*
X164599446Y-41026995D01*
X165170875Y-40265091D02*
X165170875Y-39503186D01*
X164789922Y-39312709D02*
X164789922Y-38836519D01*
X165075637Y-39407947D02*
X164075637Y-39074614D01*
X164075637Y-39074614D02*
X165075637Y-38741281D01*
X165075637Y-35121567D02*
X164599446Y-35454900D01*
X165075637Y-35692995D02*
X164075637Y-35692995D01*
X164075637Y-35692995D02*
X164075637Y-35312043D01*
X164075637Y-35312043D02*
X164123256Y-35216805D01*
X164123256Y-35216805D02*
X164170875Y-35169186D01*
X164170875Y-35169186D02*
X164266113Y-35121567D01*
X164266113Y-35121567D02*
X164408970Y-35121567D01*
X164408970Y-35121567D02*
X164504208Y-35169186D01*
X164504208Y-35169186D02*
X164551827Y-35216805D01*
X164551827Y-35216805D02*
X164599446Y-35312043D01*
X164599446Y-35312043D02*
X164599446Y-35692995D01*
X141829922Y-28252329D02*
X141734684Y-28204710D01*
X141734684Y-28204710D02*
X141591827Y-28204710D01*
X141591827Y-28204710D02*
X141448970Y-28252329D01*
X141448970Y-28252329D02*
X141353732Y-28347567D01*
X141353732Y-28347567D02*
X141306113Y-28442805D01*
X141306113Y-28442805D02*
X141258494Y-28633281D01*
X141258494Y-28633281D02*
X141258494Y-28776138D01*
X141258494Y-28776138D02*
X141306113Y-28966614D01*
X141306113Y-28966614D02*
X141353732Y-29061852D01*
X141353732Y-29061852D02*
X141448970Y-29157091D01*
X141448970Y-29157091D02*
X141591827Y-29204710D01*
X141591827Y-29204710D02*
X141687065Y-29204710D01*
X141687065Y-29204710D02*
X141829922Y-29157091D01*
X141829922Y-29157091D02*
X141877541Y-29109471D01*
X141877541Y-29109471D02*
X141877541Y-28776138D01*
X141877541Y-28776138D02*
X141687065Y-28776138D01*
X138194541Y-37459710D02*
X137861208Y-36983519D01*
X137623113Y-37459710D02*
X137623113Y-36459710D01*
X137623113Y-36459710D02*
X138004065Y-36459710D01*
X138004065Y-36459710D02*
X138099303Y-36507329D01*
X138099303Y-36507329D02*
X138146922Y-36554948D01*
X138146922Y-36554948D02*
X138194541Y-36650186D01*
X138194541Y-36650186D02*
X138194541Y-36793043D01*
X138194541Y-36793043D02*
X138146922Y-36888281D01*
X138146922Y-36888281D02*
X138099303Y-36935900D01*
X138099303Y-36935900D02*
X138004065Y-36983519D01*
X138004065Y-36983519D02*
X137623113Y-36983519D01*
D10*
%TO.C,J2*%
X111965684Y-48529408D02*
X111965684Y-49243693D01*
X111965684Y-49243693D02*
X111918065Y-49386550D01*
X111918065Y-49386550D02*
X111822827Y-49481789D01*
X111822827Y-49481789D02*
X111679970Y-49529408D01*
X111679970Y-49529408D02*
X111584732Y-49529408D01*
X112394256Y-48624646D02*
X112441875Y-48577027D01*
X112441875Y-48577027D02*
X112537113Y-48529408D01*
X112537113Y-48529408D02*
X112775208Y-48529408D01*
X112775208Y-48529408D02*
X112870446Y-48577027D01*
X112870446Y-48577027D02*
X112918065Y-48624646D01*
X112918065Y-48624646D02*
X112965684Y-48719884D01*
X112965684Y-48719884D02*
X112965684Y-48815122D01*
X112965684Y-48815122D02*
X112918065Y-48957979D01*
X112918065Y-48957979D02*
X112346637Y-49529408D01*
X112346637Y-49529408D02*
X112965684Y-49529408D01*
%TO.C,C1*%
X182836751Y-58485969D02*
X182789132Y-58533589D01*
X182789132Y-58533589D02*
X182646275Y-58581208D01*
X182646275Y-58581208D02*
X182551037Y-58581208D01*
X182551037Y-58581208D02*
X182408180Y-58533589D01*
X182408180Y-58533589D02*
X182312942Y-58438350D01*
X182312942Y-58438350D02*
X182265323Y-58343112D01*
X182265323Y-58343112D02*
X182217704Y-58152636D01*
X182217704Y-58152636D02*
X182217704Y-58009779D01*
X182217704Y-58009779D02*
X182265323Y-57819303D01*
X182265323Y-57819303D02*
X182312942Y-57724065D01*
X182312942Y-57724065D02*
X182408180Y-57628827D01*
X182408180Y-57628827D02*
X182551037Y-57581208D01*
X182551037Y-57581208D02*
X182646275Y-57581208D01*
X182646275Y-57581208D02*
X182789132Y-57628827D01*
X182789132Y-57628827D02*
X182836751Y-57676446D01*
X183789132Y-58581208D02*
X183217704Y-58581208D01*
X183503418Y-58581208D02*
X183503418Y-57581208D01*
X183503418Y-57581208D02*
X183408180Y-57724065D01*
X183408180Y-57724065D02*
X183312942Y-57819303D01*
X183312942Y-57819303D02*
X183217704Y-57866922D01*
D15*
%TO.C,IC1*%
X126493255Y-96578711D02*
X126493255Y-95308711D01*
X127823732Y-96457758D02*
X127763256Y-96518235D01*
X127763256Y-96518235D02*
X127581827Y-96578711D01*
X127581827Y-96578711D02*
X127460875Y-96578711D01*
X127460875Y-96578711D02*
X127279446Y-96518235D01*
X127279446Y-96518235D02*
X127158494Y-96397282D01*
X127158494Y-96397282D02*
X127098017Y-96276330D01*
X127098017Y-96276330D02*
X127037541Y-96034425D01*
X127037541Y-96034425D02*
X127037541Y-95852996D01*
X127037541Y-95852996D02*
X127098017Y-95611092D01*
X127098017Y-95611092D02*
X127158494Y-95490139D01*
X127158494Y-95490139D02*
X127279446Y-95369187D01*
X127279446Y-95369187D02*
X127460875Y-95308711D01*
X127460875Y-95308711D02*
X127581827Y-95308711D01*
X127581827Y-95308711D02*
X127763256Y-95369187D01*
X127763256Y-95369187D02*
X127823732Y-95429663D01*
X129033256Y-96578711D02*
X128307541Y-96578711D01*
X128670398Y-96578711D02*
X128670398Y-95308711D01*
X128670398Y-95308711D02*
X128549446Y-95490139D01*
X128549446Y-95490139D02*
X128428494Y-95611092D01*
X128428494Y-95611092D02*
X128307541Y-95671568D01*
D16*
%TO.C,C2*%
X170504618Y-95832652D02*
X170504618Y-95540118D01*
X171524618Y-95832652D02*
X171524618Y-95540118D01*
%TO.C,J2*%
X111314018Y-72524487D02*
X113974018Y-72524487D01*
X111314018Y-87884487D02*
X111314018Y-72524487D01*
X113974018Y-72524487D02*
X113974018Y-87884487D01*
X113974018Y-75124487D02*
X111314018Y-75124487D01*
X113974018Y-77664487D02*
X111314018Y-77664487D01*
X113974018Y-80204487D02*
X111314018Y-80204487D01*
X113974018Y-82744487D02*
X111314018Y-82744487D01*
X113974018Y-85284487D02*
X111314018Y-85284487D01*
X113974018Y-87884487D02*
X111314018Y-87884487D01*
X114371089Y-73474487D02*
X113974018Y-73474487D01*
X114371089Y-74234487D02*
X113974018Y-74234487D01*
X114371089Y-76014487D02*
X113974018Y-76014487D01*
X114371089Y-76774487D02*
X113974018Y-76774487D01*
X114371089Y-78554487D02*
X113974018Y-78554487D01*
X114371089Y-79314487D02*
X113974018Y-79314487D01*
X114371089Y-81094487D02*
X113974018Y-81094487D01*
X114371089Y-81854487D02*
X113974018Y-81854487D01*
X114371089Y-83634487D02*
X113974018Y-83634487D01*
X114371089Y-84394487D02*
X113974018Y-84394487D01*
X114371089Y-86174487D02*
X113974018Y-86174487D01*
X114371089Y-86934487D02*
X113974018Y-86934487D01*
X116560018Y-72584487D02*
X115290018Y-72584487D01*
X116560018Y-73854487D02*
X116560018Y-72584487D01*
%TO.C,C1*%
X183149685Y-79723887D02*
X182857151Y-79723887D01*
X183149685Y-78703887D02*
X182857151Y-78703887D01*
D14*
%TO.C,D1*%
X138365024Y-97097191D02*
X163865024Y-97097191D01*
X163865024Y-97097191D02*
X163865024Y-108697191D01*
X163865024Y-108697191D02*
X138365024Y-108697191D01*
X138365024Y-108697191D02*
X138365024Y-97097191D01*
D17*
X139870029Y-109501191D02*
G75*
G03*
X139870029Y-109501191I-389005J0D01*
G01*
D18*
%TO.C,D3*%
X160118018Y-64279789D02*
X163042018Y-64279789D01*
X160242018Y-66079789D02*
X163042018Y-66079789D01*
D16*
X162307069Y-65939862D02*
X161037069Y-65177862D01*
X162307069Y-64415862D01*
X162307069Y-65939862D01*
G36*
X162307069Y-65939862D02*
G01*
X161037069Y-65177862D01*
X162307069Y-64415862D01*
X162307069Y-65939862D01*
G37*
D14*
%TO.C,D1*%
X138365024Y-74579493D02*
X163865024Y-74579493D01*
X163865024Y-74579493D02*
X163865024Y-86179493D01*
X163865024Y-86179493D02*
X138365024Y-86179493D01*
X138365024Y-86179493D02*
X138365024Y-74579493D01*
D17*
X139870029Y-86983493D02*
G75*
G03*
X139870029Y-86983493I-389005J0D01*
G01*
D16*
%TO.C,U1*%
X181413818Y-78255087D02*
X175403818Y-78255087D01*
X179163818Y-71435087D02*
X175403818Y-71435087D01*
X175403818Y-78255087D02*
X175403818Y-76995087D01*
X175403818Y-71435087D02*
X175403818Y-72695087D01*
X181413818Y-55737389D02*
X175403818Y-55737389D01*
X179163818Y-48917389D02*
X175403818Y-48917389D01*
X175403818Y-55737389D02*
X175403818Y-54477389D01*
X175403818Y-48917389D02*
X175403818Y-50177389D01*
D14*
%TO.C,D1*%
X138365024Y-52061795D02*
X163865024Y-52061795D01*
X163865024Y-52061795D02*
X163865024Y-63661795D01*
X163865024Y-63661795D02*
X138365024Y-63661795D01*
X138365024Y-63661795D02*
X138365024Y-52061795D01*
D17*
X139870029Y-64465795D02*
G75*
G03*
X139870029Y-64465795I-389005J0D01*
G01*
D16*
%TO.C,J1*%
X185875818Y-90156187D02*
X171175818Y-90156187D01*
X185875818Y-80956187D02*
X185875818Y-90156187D01*
X177075818Y-80956187D02*
X185875818Y-80956187D01*
X172025818Y-90356187D02*
X170975818Y-90356187D01*
X171175818Y-90156187D02*
X171175818Y-87556187D01*
X171175818Y-83656187D02*
X171175818Y-80956187D01*
X171175818Y-80956187D02*
X173075818Y-80956187D01*
X170975818Y-89306187D02*
X170975818Y-90356187D01*
D18*
%TO.C,IC1*%
X137354018Y-74905487D02*
X137354018Y-82615487D01*
X117604018Y-76015487D02*
X117604018Y-82615487D01*
D16*
%TO.C,J3*%
X155613018Y-73660487D02*
X155613018Y-72330487D01*
X156943018Y-73660487D02*
X155613018Y-73660487D01*
X158213018Y-73660487D02*
X163353018Y-73660487D01*
X158213018Y-73660487D02*
X158213018Y-71000487D01*
X163353018Y-73660487D02*
X163353018Y-71000487D01*
X158213018Y-71000487D02*
X163353018Y-71000487D01*
D18*
%TO.C,D3*%
X160118018Y-109315185D02*
X163042018Y-109315185D01*
X160242018Y-111115185D02*
X163042018Y-111115185D01*
D16*
X162307069Y-110975258D02*
X161037069Y-110213258D01*
X162307069Y-109451258D01*
X162307069Y-110975258D01*
G36*
X162307069Y-110975258D02*
G01*
X161037069Y-110213258D01*
X162307069Y-109451258D01*
X162307069Y-110975258D01*
G37*
%TO.C,J1*%
X185875818Y-112673885D02*
X171175818Y-112673885D01*
X185875818Y-103473885D02*
X185875818Y-112673885D01*
X177075818Y-103473885D02*
X185875818Y-103473885D01*
X172025818Y-112873885D02*
X170975818Y-112873885D01*
X171175818Y-112673885D02*
X171175818Y-110073885D01*
X171175818Y-106173885D02*
X171175818Y-103473885D01*
X171175818Y-103473885D02*
X173075818Y-103473885D01*
X170975818Y-111823885D02*
X170975818Y-112873885D01*
D18*
%TO.C,D3*%
X160118018Y-41762091D02*
X163042018Y-41762091D01*
X160242018Y-43562091D02*
X163042018Y-43562091D01*
D16*
X162307069Y-43422164D02*
X161037069Y-42660164D01*
X162307069Y-41898164D01*
X162307069Y-43422164D01*
G36*
X162307069Y-43422164D02*
G01*
X161037069Y-42660164D01*
X162307069Y-41898164D01*
X162307069Y-43422164D01*
G37*
%TO.C,C2*%
X170504618Y-50797256D02*
X170504618Y-50504722D01*
X171524618Y-50797256D02*
X171524618Y-50504722D01*
%TO.C,C1*%
X183149685Y-34688491D02*
X182857151Y-34688491D01*
X183149685Y-33668491D02*
X182857151Y-33668491D01*
%TO.C,C2*%
X170504618Y-28279558D02*
X170504618Y-27987024D01*
X171524618Y-28279558D02*
X171524618Y-27987024D01*
X170504618Y-73314954D02*
X170504618Y-73022420D01*
X171524618Y-73314954D02*
X171524618Y-73022420D01*
%TO.C,J3*%
X155613018Y-51142789D02*
X155613018Y-49812789D01*
X156943018Y-51142789D02*
X155613018Y-51142789D01*
X158213018Y-51142789D02*
X163353018Y-51142789D01*
X158213018Y-51142789D02*
X158213018Y-48482789D01*
X163353018Y-51142789D02*
X163353018Y-48482789D01*
X158213018Y-48482789D02*
X163353018Y-48482789D01*
%TO.C,U1*%
X181413818Y-33219691D02*
X175403818Y-33219691D01*
X179163818Y-26399691D02*
X175403818Y-26399691D01*
X175403818Y-33219691D02*
X175403818Y-31959691D01*
X175403818Y-26399691D02*
X175403818Y-27659691D01*
%TO.C,J2*%
X111314018Y-95042185D02*
X113974018Y-95042185D01*
X111314018Y-110402185D02*
X111314018Y-95042185D01*
X113974018Y-95042185D02*
X113974018Y-110402185D01*
X113974018Y-97642185D02*
X111314018Y-97642185D01*
X113974018Y-100182185D02*
X111314018Y-100182185D01*
X113974018Y-102722185D02*
X111314018Y-102722185D01*
X113974018Y-105262185D02*
X111314018Y-105262185D01*
X113974018Y-107802185D02*
X111314018Y-107802185D01*
X113974018Y-110402185D02*
X111314018Y-110402185D01*
X114371089Y-95992185D02*
X113974018Y-95992185D01*
X114371089Y-96752185D02*
X113974018Y-96752185D01*
X114371089Y-98532185D02*
X113974018Y-98532185D01*
X114371089Y-99292185D02*
X113974018Y-99292185D01*
X114371089Y-101072185D02*
X113974018Y-101072185D01*
X114371089Y-101832185D02*
X113974018Y-101832185D01*
X114371089Y-103612185D02*
X113974018Y-103612185D01*
X114371089Y-104372185D02*
X113974018Y-104372185D01*
X114371089Y-106152185D02*
X113974018Y-106152185D01*
X114371089Y-106912185D02*
X113974018Y-106912185D01*
X114371089Y-108692185D02*
X113974018Y-108692185D01*
X114371089Y-109452185D02*
X113974018Y-109452185D01*
X116560018Y-95102185D02*
X115290018Y-95102185D01*
X116560018Y-96372185D02*
X116560018Y-95102185D01*
%TO.C,J1*%
X185875818Y-67638489D02*
X171175818Y-67638489D01*
X185875818Y-58438489D02*
X185875818Y-67638489D01*
X177075818Y-58438489D02*
X185875818Y-58438489D01*
X172025818Y-67838489D02*
X170975818Y-67838489D01*
X171175818Y-67638489D02*
X171175818Y-65038489D01*
X171175818Y-61138489D02*
X171175818Y-58438489D01*
X171175818Y-58438489D02*
X173075818Y-58438489D01*
X170975818Y-66788489D02*
X170975818Y-67838489D01*
%TO.C,U1*%
X181413818Y-100772785D02*
X175403818Y-100772785D01*
X179163818Y-93952785D02*
X175403818Y-93952785D01*
X175403818Y-100772785D02*
X175403818Y-99512785D01*
X175403818Y-93952785D02*
X175403818Y-95212785D01*
%TO.C,J1*%
X185875818Y-45120791D02*
X171175818Y-45120791D01*
X185875818Y-35920791D02*
X185875818Y-45120791D01*
X177075818Y-35920791D02*
X185875818Y-35920791D01*
X172025818Y-45320791D02*
X170975818Y-45320791D01*
X171175818Y-45120791D02*
X171175818Y-42520791D01*
X171175818Y-38620791D02*
X171175818Y-35920791D01*
X171175818Y-35920791D02*
X173075818Y-35920791D01*
X170975818Y-44270791D02*
X170975818Y-45320791D01*
D18*
%TO.C,D3*%
X160118018Y-86797487D02*
X163042018Y-86797487D01*
X160242018Y-88597487D02*
X163042018Y-88597487D01*
D16*
X162307069Y-88457560D02*
X161037069Y-87695560D01*
X162307069Y-86933560D01*
X162307069Y-88457560D01*
G36*
X162307069Y-88457560D02*
G01*
X161037069Y-87695560D01*
X162307069Y-86933560D01*
X162307069Y-88457560D01*
G37*
D18*
%TO.C,IC1*%
X137354018Y-29870091D02*
X137354018Y-37580091D01*
X117604018Y-30980091D02*
X117604018Y-37580091D01*
D16*
%TO.C,J2*%
X111314018Y-27489091D02*
X113974018Y-27489091D01*
X111314018Y-42849091D02*
X111314018Y-27489091D01*
X113974018Y-27489091D02*
X113974018Y-42849091D01*
X113974018Y-30089091D02*
X111314018Y-30089091D01*
X113974018Y-32629091D02*
X111314018Y-32629091D01*
X113974018Y-35169091D02*
X111314018Y-35169091D01*
X113974018Y-37709091D02*
X111314018Y-37709091D01*
X113974018Y-40249091D02*
X111314018Y-40249091D01*
X113974018Y-42849091D02*
X111314018Y-42849091D01*
X114371089Y-28439091D02*
X113974018Y-28439091D01*
X114371089Y-29199091D02*
X113974018Y-29199091D01*
X114371089Y-30979091D02*
X113974018Y-30979091D01*
X114371089Y-31739091D02*
X113974018Y-31739091D01*
X114371089Y-33519091D02*
X113974018Y-33519091D01*
X114371089Y-34279091D02*
X113974018Y-34279091D01*
X114371089Y-36059091D02*
X113974018Y-36059091D01*
X114371089Y-36819091D02*
X113974018Y-36819091D01*
X114371089Y-38599091D02*
X113974018Y-38599091D01*
X114371089Y-39359091D02*
X113974018Y-39359091D01*
X114371089Y-41139091D02*
X113974018Y-41139091D01*
X114371089Y-41899091D02*
X113974018Y-41899091D01*
X116560018Y-27549091D02*
X115290018Y-27549091D01*
X116560018Y-28819091D02*
X116560018Y-27549091D01*
%TO.C,C1*%
X183149685Y-102241585D02*
X182857151Y-102241585D01*
X183149685Y-101221585D02*
X182857151Y-101221585D01*
D18*
%TO.C,IC1*%
X137354018Y-52387789D02*
X137354018Y-60097789D01*
X117604018Y-53497789D02*
X117604018Y-60097789D01*
D14*
%TO.C,D1*%
X138365024Y-29544097D02*
X163865024Y-29544097D01*
X163865024Y-29544097D02*
X163865024Y-41144097D01*
X163865024Y-41144097D02*
X138365024Y-41144097D01*
X138365024Y-41144097D02*
X138365024Y-29544097D01*
D17*
X139870029Y-41948097D02*
G75*
G03*
X139870029Y-41948097I-389005J0D01*
G01*
D16*
%TO.C,J3*%
X155613018Y-96178185D02*
X155613018Y-94848185D01*
X156943018Y-96178185D02*
X155613018Y-96178185D01*
X158213018Y-96178185D02*
X163353018Y-96178185D01*
X158213018Y-96178185D02*
X158213018Y-93518185D01*
X163353018Y-96178185D02*
X163353018Y-93518185D01*
X158213018Y-93518185D02*
X163353018Y-93518185D01*
%TO.C,J2*%
X111314018Y-50006789D02*
X113974018Y-50006789D01*
X111314018Y-65366789D02*
X111314018Y-50006789D01*
X113974018Y-50006789D02*
X113974018Y-65366789D01*
X113974018Y-52606789D02*
X111314018Y-52606789D01*
X113974018Y-55146789D02*
X111314018Y-55146789D01*
X113974018Y-57686789D02*
X111314018Y-57686789D01*
X113974018Y-60226789D02*
X111314018Y-60226789D01*
X113974018Y-62766789D02*
X111314018Y-62766789D01*
X113974018Y-65366789D02*
X111314018Y-65366789D01*
X114371089Y-50956789D02*
X113974018Y-50956789D01*
X114371089Y-51716789D02*
X113974018Y-51716789D01*
X114371089Y-53496789D02*
X113974018Y-53496789D01*
X114371089Y-54256789D02*
X113974018Y-54256789D01*
X114371089Y-56036789D02*
X113974018Y-56036789D01*
X114371089Y-56796789D02*
X113974018Y-56796789D01*
X114371089Y-58576789D02*
X113974018Y-58576789D01*
X114371089Y-59336789D02*
X113974018Y-59336789D01*
X114371089Y-61116789D02*
X113974018Y-61116789D01*
X114371089Y-61876789D02*
X113974018Y-61876789D01*
X114371089Y-63656789D02*
X113974018Y-63656789D01*
X114371089Y-64416789D02*
X113974018Y-64416789D01*
X116560018Y-50066789D02*
X115290018Y-50066789D01*
X116560018Y-51336789D02*
X116560018Y-50066789D01*
%TO.C,J3*%
X155613018Y-28625091D02*
X155613018Y-27295091D01*
X156943018Y-28625091D02*
X155613018Y-28625091D01*
X158213018Y-28625091D02*
X163353018Y-28625091D01*
X158213018Y-28625091D02*
X158213018Y-25965091D01*
X163353018Y-28625091D02*
X163353018Y-25965091D01*
X158213018Y-25965091D02*
X163353018Y-25965091D01*
%TO.C,C1*%
X183149685Y-57206189D02*
X182857151Y-57206189D01*
X183149685Y-56186189D02*
X182857151Y-56186189D01*
D18*
%TO.C,IC1*%
X137354018Y-97423185D02*
X137354018Y-105133185D01*
X117604018Y-98533185D02*
X117604018Y-105133185D01*
%TD*%
M02*
