M48
; DRILL file {KiCad 7.0.2} date Thu Jun  1 20:33:56 2023
; FORMAT={-:-/ absolute / metric / decimal}
; #@! TF.CreationDate,2023-06-01T20:33:56+09:00
; #@! TF.GenerationSoftware,Kicad,Pcbnew,7.0.2
; #@! TF.FileFunction,NonPlated,1,2,NPTH
FMAT,2
METRIC
; #@! TA.AperFunction,NonPlated,NPTH,ComponentDrill
T1C0.800
; #@! TA.AperFunction,NonPlated,NPTH,ComponentDrill
T2C1.000
%
G90
G05
T1
X136.369Y-30.724
X136.369Y-53.242
X136.369Y-75.759
X136.369Y-98.277
T2
X106.937Y-25.0
X106.937Y-112.871
X108.604Y-25.0
X108.604Y-112.871
X111.02Y-32.159
X111.02Y-33.659
X111.02Y-35.159
X111.02Y-36.659
X111.02Y-38.159
X111.02Y-54.677
X111.02Y-56.177
X111.02Y-57.677
X111.02Y-59.177
X111.02Y-60.677
X111.02Y-77.194
X111.02Y-78.694
X111.02Y-80.194
X111.02Y-81.694
X111.02Y-83.194
X111.02Y-99.712
X111.02Y-101.212
X111.02Y-102.712
X111.02Y-104.212
X111.02Y-105.712
X111.27Y-20.667
X111.27Y-22.333
X111.27Y-115.537
X111.27Y-117.204
X115.414Y-28.819
X115.414Y-31.359
X115.414Y-33.899
X115.414Y-36.439
X115.414Y-38.979
X115.414Y-41.519
X115.414Y-51.337
X115.414Y-53.877
X115.414Y-56.417
X115.414Y-58.957
X115.414Y-61.497
X115.414Y-64.037
X115.414Y-73.854
X115.414Y-76.394
X115.414Y-78.934
X115.414Y-81.474
X115.414Y-84.014
X115.414Y-86.554
X115.414Y-96.372
X115.414Y-98.912
X115.414Y-101.452
X115.414Y-103.992
X115.414Y-106.532
X115.414Y-109.072
X118.589Y-30.724
X118.589Y-38.344
X118.589Y-53.242
X118.589Y-60.862
X118.589Y-75.759
X118.589Y-83.379
X118.589Y-98.277
X118.589Y-105.897
X121.129Y-30.724
X121.129Y-38.344
X121.129Y-53.242
X121.129Y-60.862
X121.129Y-75.759
X121.129Y-83.379
X121.129Y-98.277
X121.129Y-105.897
X123.669Y-30.724
X123.669Y-38.344
X123.669Y-53.242
X123.669Y-60.862
X123.669Y-75.759
X123.669Y-83.379
X123.669Y-98.277
X123.669Y-105.897
X126.209Y-30.724
X126.209Y-38.344
X126.209Y-53.242
X126.209Y-60.862
X126.209Y-75.759
X126.209Y-83.379
X126.209Y-98.277
X126.209Y-105.897
X128.749Y-30.724
X128.749Y-38.344
X128.749Y-53.242
X128.749Y-60.862
X128.749Y-75.759
X128.749Y-83.379
X128.749Y-98.277
X128.749Y-105.897
X131.289Y-30.724
X131.289Y-38.344
X131.289Y-53.242
X131.289Y-60.862
X131.289Y-75.759
X131.289Y-83.379
X131.289Y-98.277
X131.289Y-105.897
X133.829Y-30.724
X133.829Y-38.344
X133.829Y-53.242
X133.829Y-60.862
X133.829Y-75.759
X133.829Y-83.379
X133.829Y-98.277
X133.829Y-105.897
X135.099Y-41.011
X135.099Y-63.529
X135.099Y-86.046
X135.099Y-108.564
X136.369Y-38.344
X136.369Y-60.862
X136.369Y-83.379
X136.369Y-105.897
X145.5Y-24.752
X145.5Y-45.568
X145.5Y-47.27
X145.5Y-68.085
X145.5Y-69.788
X145.5Y-90.603
X145.5Y-92.305
X145.5Y-113.121
X147.0Y-24.752
X147.0Y-45.568
X147.0Y-47.27
X147.0Y-68.085
X147.0Y-69.788
X147.0Y-90.603
X147.0Y-92.305
X147.0Y-113.121
X148.5Y-24.752
X148.5Y-45.568
X148.5Y-47.27
X148.5Y-68.085
X148.5Y-69.788
X148.5Y-90.603
X148.5Y-92.305
X148.5Y-113.121
X150.0Y-24.752
X150.0Y-45.568
X150.0Y-47.27
X150.0Y-68.085
X150.0Y-69.788
X150.0Y-90.603
X150.0Y-92.305
X150.0Y-113.121
X151.5Y-24.752
X151.5Y-45.568
X151.5Y-47.27
X151.5Y-68.085
X151.5Y-69.788
X151.5Y-90.603
X151.5Y-92.305
X151.5Y-113.121
X156.943Y-27.295
X156.943Y-49.813
X156.943Y-72.33
X156.943Y-94.848
X159.483Y-27.295
X159.483Y-49.813
X159.483Y-72.33
X159.483Y-94.848
X162.023Y-27.295
X162.023Y-49.813
X162.023Y-72.33
X162.023Y-94.848
X183.74Y-27.93
X183.74Y-30.47
X183.74Y-33.01
X183.74Y-50.448
X183.74Y-52.988
X183.74Y-55.528
X183.74Y-72.965
X183.74Y-75.505
X183.74Y-78.045
X183.74Y-95.483
X183.74Y-98.023
X183.74Y-100.563
X185.73Y-20.667
X185.73Y-22.333
X185.73Y-115.537
X185.73Y-117.204
X185.978Y-32.159
X185.978Y-54.677
X185.978Y-77.194
X185.978Y-99.712
X185.978Y-33.659
X185.978Y-56.177
X185.978Y-78.694
X185.978Y-101.212
X185.979Y-35.159
X185.979Y-57.677
X185.979Y-80.194
X185.979Y-102.712
X185.979Y-36.659
X185.979Y-59.177
X185.979Y-81.694
X185.979Y-104.212
X185.979Y-38.159
X185.979Y-60.677
X185.979Y-83.194
X185.979Y-105.712
X188.396Y-25.0
X188.396Y-112.871
X190.063Y-25.0
X190.063Y-112.871
T2
G00X171.771Y-41.826
M15
G01X171.771Y-39.826
M16
G05
G00X171.771Y-64.343
M15
G01X171.771Y-62.343
M16
G05
G00X171.771Y-86.861
M15
G01X171.771Y-84.861
M16
G05
G00X171.771Y-109.379
M15
G01X171.771Y-107.379
M16
G05
G00X175.771Y-36.126
M15
G01X173.771Y-36.126
M16
G05
G00X175.771Y-58.643
M15
G01X173.771Y-58.643
M16
G05
G00X175.771Y-81.161
M15
G01X173.771Y-81.161
M16
G05
G00X175.771Y-103.679
M15
G01X173.771Y-103.679
M16
G05
G00X177.771Y-41.826
M15
G01X177.771Y-39.826
M16
G05
G00X177.771Y-64.343
M15
G01X177.771Y-62.343
M16
G05
G00X177.771Y-86.861
M15
G01X177.771Y-84.861
M16
G05
G00X177.771Y-109.379
M15
G01X177.771Y-107.379
M16
G05
T0
M30
