%TF.GenerationSoftware,KiCad,Pcbnew,7.0.2*%
%TF.CreationDate,2023-06-01T19:33:28+09:00*%
%TF.ProjectId,PmodPLED_kikit,506d6f64-504c-4454-945f-6b696b69742e,rev?*%
%TF.SameCoordinates,Original*%
%TF.FileFunction,Copper,L2,Bot*%
%TF.FilePolarity,Positive*%
%FSLAX46Y46*%
G04 Gerber Fmt 4.6, Leading zero omitted, Abs format (unit mm)*
G04 Created by KiCad (PCBNEW 7.0.2) date 2023-06-01 19:33:28*
%MOMM*%
%LPD*%
G01*
G04 APERTURE LIST*
G04 Aperture macros list*
%AMRoundRect*
0 Rectangle with rounded corners*
0 $1 Rounding radius*
0 $2 $3 $4 $5 $6 $7 $8 $9 X,Y pos of 4 corners*
0 Add a 4 corners polygon primitive as box body*
4,1,4,$2,$3,$4,$5,$6,$7,$8,$9,$2,$3,0*
0 Add four circle primitives for the rounded corners*
1,1,$1+$1,$2,$3*
1,1,$1+$1,$4,$5*
1,1,$1+$1,$6,$7*
1,1,$1+$1,$8,$9*
0 Add four rect primitives between the rounded corners*
20,1,$1+$1,$2,$3,$4,$5,0*
20,1,$1+$1,$4,$5,$6,$7,0*
20,1,$1+$1,$6,$7,$8,$9,0*
20,1,$1+$1,$8,$9,$2,$3,0*%
G04 Aperture macros list end*
%TA.AperFunction,WasherPad*%
%ADD10R,1.700000X1.700000*%
%TD*%
%TA.AperFunction,WasherPad*%
%ADD11O,1.700000X1.700000*%
%TD*%
%TA.AperFunction,WasherPad*%
%ADD12R,1.200000X1.200000*%
%TD*%
%TA.AperFunction,WasherPad*%
%ADD13C,1.200000*%
%TD*%
%TA.AperFunction,WasherPad*%
%ADD14R,1.905000X1.905000*%
%TD*%
%TA.AperFunction,WasherPad*%
%ADD15C,1.905000*%
%TD*%
%TA.AperFunction,WasherPad*%
%ADD16RoundRect,0.750000X0.750000X1.000000X-0.750000X1.000000X-0.750000X-1.000000X0.750000X-1.000000X0*%
%TD*%
%TA.AperFunction,WasherPad*%
%ADD17RoundRect,0.750000X1.000000X0.750000X-1.000000X0.750000X-1.000000X-0.750000X1.000000X-0.750000X0*%
%TD*%
%TA.AperFunction,WasherPad*%
%ADD18R,3.500000X3.500000*%
%TD*%
%TA.AperFunction,WasherPad*%
%ADD19C,1.800000*%
%TD*%
G04 APERTURE END LIST*
D10*
%TO.P,J2,*%
%TO.N,*%
X115414018Y-74454487D03*
D11*
X115414018Y-76994487D03*
X115414018Y-79534487D03*
X115414018Y-82074487D03*
X115414018Y-84614487D03*
X115414018Y-87154487D03*
%TD*%
D12*
%TO.P,IC1,*%
%TO.N,*%
X136369018Y-54041789D03*
D13*
X133829018Y-54041789D03*
X131289018Y-54041789D03*
X128749018Y-54041789D03*
X126209018Y-54041789D03*
X123669018Y-54041789D03*
X121129018Y-54041789D03*
X118589018Y-54041789D03*
X136369018Y-61661789D03*
X131289018Y-61661789D03*
X128749018Y-61661789D03*
X126209018Y-61661789D03*
X123669018Y-61661789D03*
X118589018Y-61661789D03*
%TD*%
D14*
%TO.P,IC2,*%
%TO.N,*%
X183740018Y-78645487D03*
D15*
X183740018Y-76105487D03*
X183740018Y-73565487D03*
%TD*%
D12*
%TO.P,IC1,*%
%TO.N,*%
X136369018Y-76359487D03*
D13*
X133829018Y-76359487D03*
X131289018Y-76359487D03*
X128749018Y-76359487D03*
X126209018Y-76359487D03*
X123669018Y-76359487D03*
X121129018Y-76359487D03*
X118589018Y-76359487D03*
X136369018Y-83979487D03*
X131289018Y-83979487D03*
X128749018Y-83979487D03*
X126209018Y-83979487D03*
X123669018Y-83979487D03*
X118589018Y-83979487D03*
%TD*%
D16*
%TO.P,J1,*%
%TO.N,*%
X177771018Y-86460987D03*
D17*
X174771018Y-81760987D03*
D18*
X171771018Y-86460987D03*
%TD*%
D12*
%TO.P,IC1,*%
%TO.N,*%
X136369018Y-31724091D03*
D13*
X133829018Y-31724091D03*
X131289018Y-31724091D03*
X128749018Y-31724091D03*
X126209018Y-31724091D03*
X123669018Y-31724091D03*
X121129018Y-31724091D03*
X118589018Y-31724091D03*
X136369018Y-39344091D03*
X131289018Y-39344091D03*
X128749018Y-39344091D03*
X126209018Y-39344091D03*
X123669018Y-39344091D03*
X118589018Y-39344091D03*
%TD*%
D14*
%TO.P,IC2,*%
%TO.N,*%
X183740018Y-100963185D03*
D15*
X183740018Y-98423185D03*
X183740018Y-95883185D03*
%TD*%
D19*
%TO.P,TP1,*%
%TO.N,*%
X135099018Y-86646487D03*
%TD*%
D10*
%TO.P,J2,*%
%TO.N,*%
X115414018Y-29819091D03*
D11*
X115414018Y-32359091D03*
X115414018Y-34899091D03*
X115414018Y-37439091D03*
X115414018Y-39979091D03*
X115414018Y-42519091D03*
%TD*%
D10*
%TO.P,J3,*%
%TO.N,*%
X156943018Y-72930487D03*
D11*
X159483018Y-72930487D03*
X162023018Y-72930487D03*
%TD*%
D19*
%TO.P,TP1,*%
%TO.N,*%
X135099018Y-42011091D03*
%TD*%
D16*
%TO.P,J1,*%
%TO.N,*%
X177771018Y-41825591D03*
D17*
X174771018Y-37125591D03*
D18*
X171771018Y-41825591D03*
%TD*%
D19*
%TO.P,TP1,*%
%TO.N,*%
X135099018Y-64328789D03*
%TD*%
D14*
%TO.P,IC2,*%
%TO.N,*%
X183740018Y-34010091D03*
D15*
X183740018Y-31470091D03*
X183740018Y-28930091D03*
%TD*%
D10*
%TO.P,J3,*%
%TO.N,*%
X156943018Y-28295091D03*
D11*
X159483018Y-28295091D03*
X162023018Y-28295091D03*
%TD*%
D19*
%TO.P,TP1,*%
%TO.N,*%
X135099018Y-108964185D03*
%TD*%
D16*
%TO.P,J1,*%
%TO.N,*%
X177771018Y-64143289D03*
D17*
X174771018Y-59443289D03*
D18*
X171771018Y-64143289D03*
%TD*%
D12*
%TO.P,IC1,*%
%TO.N,*%
X136369018Y-98677185D03*
D13*
X133829018Y-98677185D03*
X131289018Y-98677185D03*
X128749018Y-98677185D03*
X126209018Y-98677185D03*
X123669018Y-98677185D03*
X121129018Y-98677185D03*
X118589018Y-98677185D03*
X136369018Y-106297185D03*
X131289018Y-106297185D03*
X128749018Y-106297185D03*
X126209018Y-106297185D03*
X123669018Y-106297185D03*
X118589018Y-106297185D03*
%TD*%
D10*
%TO.P,J3,*%
%TO.N,*%
X156943018Y-50612789D03*
D11*
X159483018Y-50612789D03*
X162023018Y-50612789D03*
%TD*%
D10*
%TO.P,J2,*%
%TO.N,*%
X115414018Y-52136789D03*
D11*
X115414018Y-54676789D03*
X115414018Y-57216789D03*
X115414018Y-59756789D03*
X115414018Y-62296789D03*
X115414018Y-64836789D03*
%TD*%
D10*
%TO.P,J3,*%
%TO.N,*%
X156943018Y-95248185D03*
D11*
X159483018Y-95248185D03*
X162023018Y-95248185D03*
%TD*%
D10*
%TO.P,J2,*%
%TO.N,*%
X115414018Y-96772185D03*
D11*
X115414018Y-99312185D03*
X115414018Y-101852185D03*
X115414018Y-104392185D03*
X115414018Y-106932185D03*
X115414018Y-109472185D03*
%TD*%
D14*
%TO.P,IC2,*%
%TO.N,*%
X183740018Y-56327789D03*
D15*
X183740018Y-53787789D03*
X183740018Y-51247789D03*
%TD*%
D16*
%TO.P,J1,*%
%TO.N,*%
X177771018Y-108778685D03*
D17*
X174771018Y-104078685D03*
D18*
X171771018Y-108778685D03*
%TD*%
M02*
