%TF.GenerationSoftware,KiCad,Pcbnew,7.0.2*%
%TF.CreationDate,2023-06-18T21:37:12+09:00*%
%TF.ProjectId,PmodPLED_kikit,506d6f64-504c-4454-945f-6b696b69742e,rev?*%
%TF.SameCoordinates,Original*%
%TF.FileFunction,Soldermask,Bot*%
%TF.FilePolarity,Negative*%
%FSLAX46Y46*%
G04 Gerber Fmt 4.6, Leading zero omitted, Abs format (unit mm)*
G04 Created by KiCad (PCBNEW 7.0.2) date 2023-06-18 21:37:12*
%MOMM*%
%LPD*%
G01*
G04 APERTURE LIST*
%ADD10C,1.000000*%
G04 APERTURE END LIST*
D10*
%TO.C,REF\u002A\u002A*%
X147000000Y-113270792D03*
%TD*%
%TO.C,REF\u002A\u002A*%
X145500000Y-68235396D03*
%TD*%
%TO.C,REF\u002A\u002A*%
X151500000Y-24602382D03*
%TD*%
%TO.C,REF\u002A\u002A*%
X147000000Y-69637778D03*
%TD*%
%TO.C,REF\u002A\u002A*%
X110870246Y-37258849D03*
%TD*%
%TO.C,REF\u002A\u002A*%
X110870246Y-58376547D03*
%TD*%
%TO.C,REF\u002A\u002A*%
X111270246Y-20666667D03*
%TD*%
%TO.C,REF\u002A\u002A*%
X111270246Y-22333334D03*
%TD*%
%TO.C,REF\u002A\u002A*%
X145500000Y-47120080D03*
%TD*%
%TO.C,REF\u002A\u002A*%
X148500000Y-92155476D03*
%TD*%
%TO.C,REF\u002A\u002A*%
X186128838Y-37258803D03*
%TD*%
%TO.C,REF\u002A\u002A*%
X151500000Y-68235396D03*
%TD*%
%TO.C,REF\u002A\u002A*%
X151500000Y-92155476D03*
%TD*%
%TO.C,REF\u002A\u002A*%
X148500000Y-69637778D03*
%TD*%
%TO.C,REF\u002A\u002A*%
X148500000Y-45717698D03*
%TD*%
%TO.C,REF\u002A\u002A*%
X150000000Y-45717698D03*
%TD*%
%TO.C,REF\u002A\u002A*%
X145500000Y-90753094D03*
%TD*%
%TO.C,REF\u002A\u002A*%
X145500000Y-45717698D03*
%TD*%
%TO.C,REF\u002A\u002A*%
X185729754Y-117204125D03*
%TD*%
%TO.C,REF\u002A\u002A*%
X186128520Y-34458804D03*
%TD*%
%TO.C,REF\u002A\u002A*%
X186128838Y-59776501D03*
%TD*%
%TO.C,REF\u002A\u002A*%
X190063087Y-112870792D03*
%TD*%
%TO.C,REF\u002A\u002A*%
X186128520Y-102011897D03*
%TD*%
%TO.C,REF\u002A\u002A*%
X145500000Y-24602382D03*
%TD*%
%TO.C,REF\u002A\u002A*%
X110870246Y-79494245D03*
%TD*%
%TO.C,REF\u002A\u002A*%
X110870246Y-102011943D03*
%TD*%
%TO.C,REF\u002A\u002A*%
X110870246Y-104811943D03*
%TD*%
%TO.C,REF\u002A\u002A*%
X111270246Y-115537458D03*
%TD*%
%TO.C,REF\u002A\u002A*%
X185729754Y-22333334D03*
%TD*%
%TO.C,REF\u002A\u002A*%
X185729754Y-115537458D03*
%TD*%
%TO.C,REF\u002A\u002A*%
X150000000Y-90753094D03*
%TD*%
%TO.C,REF\u002A\u002A*%
X110870246Y-35858849D03*
%TD*%
%TO.C,REF\u002A\u002A*%
X108603580Y-112870792D03*
%TD*%
%TO.C,REF\u002A\u002A*%
X147000000Y-24602382D03*
%TD*%
%TO.C,REF\u002A\u002A*%
X186128520Y-56976501D03*
%TD*%
%TO.C,REF\u002A\u002A*%
X190063087Y-25000000D03*
%TD*%
%TO.C,REF\u002A\u002A*%
X186128838Y-82294199D03*
%TD*%
%TO.C,REF\u002A\u002A*%
X148500000Y-90753094D03*
%TD*%
%TO.C,REF\u002A\u002A*%
X186128361Y-55576501D03*
%TD*%
%TO.C,REF\u002A\u002A*%
X188396420Y-112870792D03*
%TD*%
%TO.C,REF\u002A\u002A*%
X147000000Y-92155476D03*
%TD*%
%TO.C,REF\u002A\u002A*%
X111270246Y-117204125D03*
%TD*%
%TO.C,REF\u002A\u002A*%
X110870246Y-34458849D03*
%TD*%
%TO.C,REF\u002A\u002A*%
X110870246Y-82294245D03*
%TD*%
%TO.C,REF\u002A\u002A*%
X110870246Y-80894245D03*
%TD*%
%TO.C,REF\u002A\u002A*%
X186128838Y-104811897D03*
%TD*%
%TO.C,REF\u002A\u002A*%
X186128361Y-78094199D03*
%TD*%
%TO.C,REF\u002A\u002A*%
X151500000Y-47120080D03*
%TD*%
%TO.C,REF\u002A\u002A*%
X186128679Y-80894199D03*
%TD*%
%TO.C,REF\u002A\u002A*%
X188396420Y-25000000D03*
%TD*%
%TO.C,REF\u002A\u002A*%
X150000000Y-92155476D03*
%TD*%
%TO.C,REF\u002A\u002A*%
X150000000Y-69637778D03*
%TD*%
%TO.C,REF\u002A\u002A*%
X151500000Y-69637778D03*
%TD*%
%TO.C,REF\u002A\u002A*%
X151500000Y-113270792D03*
%TD*%
%TO.C,REF\u002A\u002A*%
X186128679Y-58376501D03*
%TD*%
%TO.C,REF\u002A\u002A*%
X151500000Y-45717698D03*
%TD*%
%TO.C,REF\u002A\u002A*%
X148500000Y-68235396D03*
%TD*%
%TO.C,REF\u002A\u002A*%
X186128361Y-100611897D03*
%TD*%
%TO.C,REF\u002A\u002A*%
X110870246Y-33058849D03*
%TD*%
%TO.C,REF\u002A\u002A*%
X186128679Y-35858803D03*
%TD*%
%TO.C,REF\u002A\u002A*%
X148500000Y-24602382D03*
%TD*%
%TO.C,REF\u002A\u002A*%
X150000000Y-68235396D03*
%TD*%
%TO.C,REF\u002A\u002A*%
X150000000Y-113270792D03*
%TD*%
%TO.C,REF\u002A\u002A*%
X147000000Y-68235396D03*
%TD*%
%TO.C,REF\u002A\u002A*%
X145500000Y-113270792D03*
%TD*%
%TO.C,REF\u002A\u002A*%
X108603580Y-25000000D03*
%TD*%
%TO.C,REF\u002A\u002A*%
X186128361Y-33058804D03*
%TD*%
%TO.C,REF\u002A\u002A*%
X147000000Y-47120080D03*
%TD*%
%TO.C,REF\u002A\u002A*%
X151500000Y-90753094D03*
%TD*%
%TO.C,REF\u002A\u002A*%
X150000000Y-24602382D03*
%TD*%
%TO.C,REF\u002A\u002A*%
X110870246Y-78094245D03*
%TD*%
%TO.C,REF\u002A\u002A*%
X145500000Y-69637778D03*
%TD*%
%TO.C,REF\u002A\u002A*%
X185729754Y-20666667D03*
%TD*%
%TO.C,REF\u002A\u002A*%
X148500000Y-113270792D03*
%TD*%
%TO.C,REF\u002A\u002A*%
X110870246Y-55576547D03*
%TD*%
%TO.C,REF\u002A\u002A*%
X106936913Y-25000000D03*
%TD*%
%TO.C,REF\u002A\u002A*%
X110870246Y-103411943D03*
%TD*%
%TO.C,REF\u002A\u002A*%
X110870246Y-56976547D03*
%TD*%
%TO.C,REF\u002A\u002A*%
X147000000Y-45717698D03*
%TD*%
%TO.C,REF\u002A\u002A*%
X147000000Y-90753094D03*
%TD*%
%TO.C,REF\u002A\u002A*%
X186128520Y-79494199D03*
%TD*%
%TO.C,REF\u002A\u002A*%
X110870246Y-59776547D03*
%TD*%
%TO.C,REF\u002A\u002A*%
X110870246Y-100611943D03*
%TD*%
%TO.C,REF\u002A\u002A*%
X186128679Y-103411897D03*
%TD*%
%TO.C,REF\u002A\u002A*%
X150000000Y-47120080D03*
%TD*%
%TO.C,REF\u002A\u002A*%
X106936913Y-112870792D03*
%TD*%
%TO.C,REF\u002A\u002A*%
X145500000Y-92155476D03*
%TD*%
%TO.C,REF\u002A\u002A*%
X148500000Y-47120080D03*
%TD*%
M02*
