M48
; DRILL file {KiCad 7.0.2} date Thu Jun  1 00:55:01 2023
; FORMAT={-:-/ absolute / inch / decimal}
; #@! TF.CreationDate,2023-06-01T00:55:01+09:00
; #@! TF.GenerationSoftware,Kicad,Pcbnew,7.0.2
; #@! TF.FileFunction,NonPlated,1,2,NPTH
FMAT,2
INCH
; #@! TA.AperFunction,NonPlated,NPTH,ComponentDrill
T1C0.0197
%
G90
G05
T1
X4.1726Y-1.0236
X4.1726Y-4.4595
X4.2064Y-1.0236
X4.2064Y-4.4595
X4.2401Y-1.0236
X4.2401Y-4.4595
X4.2739Y-1.0236
X4.2739Y-4.4595
X4.3709Y-1.3547
X4.3709Y-1.3891
X4.3709Y-1.4236
X4.3709Y-1.458
X4.3709Y-1.4925
X4.3709Y-2.2333
X4.3709Y-2.2678
X4.3709Y-2.3022
X4.3709Y-2.3367
X4.3709Y-2.3711
X4.3709Y-3.112
X4.3709Y-3.1464
X4.3709Y-3.1809
X4.3709Y-3.2153
X4.3709Y-3.2498
X4.3709Y-3.9906
X4.3709Y-4.0251
X4.3709Y-4.0595
X4.3709Y-4.094
X4.3709Y-4.1284
X4.3807Y-0.8155
X4.3807Y-0.8493
X4.3807Y-0.883
X4.3807Y-0.9168
X4.3807Y-4.5663
X4.3807Y-4.6001
X4.3807Y-4.6338
X4.3807Y-4.6676
X5.7776Y-1.0139
X5.7776Y-1.8334
X5.7776Y-1.8925
X5.7776Y-2.712
X5.7776Y-2.7712
X5.7776Y-3.5907
X5.7776Y-3.6498
X5.7776Y-4.4693
X5.812Y-1.0139
X5.812Y-1.8334
X5.812Y-1.8925
X5.812Y-2.712
X5.812Y-2.7712
X5.812Y-3.5907
X5.812Y-3.6498
X5.812Y-4.4693
X5.8465Y-1.0139
X5.8465Y-1.8334
X5.8465Y-1.8925
X5.8465Y-2.712
X5.8465Y-2.7712
X5.8465Y-3.5907
X5.8465Y-3.6498
X5.8465Y-4.4693
X5.8809Y-1.0139
X5.8809Y-1.8334
X5.8809Y-1.8925
X5.8809Y-2.712
X5.8809Y-2.7712
X5.8809Y-3.5907
X5.8809Y-3.6498
X5.8809Y-4.4693
X5.9154Y-1.0139
X5.9154Y-1.8334
X5.9154Y-1.8925
X5.9154Y-2.712
X5.9154Y-2.7712
X5.9154Y-3.5907
X5.9154Y-3.6498
X5.9154Y-4.4693
X7.3122Y-0.8155
X7.3122Y-0.8493
X7.3122Y-0.883
X7.3122Y-0.9168
X7.3122Y-4.5663
X7.3122Y-4.6001
X7.3122Y-4.6338
X7.3122Y-4.6676
X7.322Y-1.3547
X7.322Y-2.2333
X7.322Y-3.112
X7.322Y-3.9906
X7.322Y-1.3891
X7.322Y-2.2678
X7.322Y-3.1464
X7.322Y-4.0251
X7.322Y-1.4236
X7.322Y-2.3022
X7.322Y-3.1809
X7.322Y-4.0595
X7.322Y-1.458
X7.322Y-2.3367
X7.322Y-3.2153
X7.322Y-4.094
X7.322Y-1.4925
X7.322Y-2.3711
X7.322Y-3.2498
X7.322Y-4.1284
X7.4191Y-1.0236
X7.4191Y-4.4595
X7.4528Y-1.0236
X7.4528Y-4.4595
X7.4865Y-1.0236
X7.4865Y-4.4595
X7.5203Y-1.0236
X7.5203Y-4.4595
T0
M30
