%TF.GenerationSoftware,KiCad,Pcbnew,7.0.2*%
%TF.CreationDate,2023-06-01T20:33:52+09:00*%
%TF.ProjectId,PmodPLED_kikit,506d6f64-504c-4454-945f-6b696b69742e,rev?*%
%TF.SameCoordinates,Original*%
%TF.FileFunction,Profile,NP*%
%FSLAX46Y46*%
G04 Gerber Fmt 4.6, Leading zero omitted, Abs format (unit mm)*
G04 Created by KiCad (PCBNEW 7.0.2) date 2023-06-01 20:33:52*
%MOMM*%
%LPD*%
G01*
G04 APERTURE LIST*
%TA.AperFunction,Profile*%
%ADD10C,0.100000*%
%TD*%
G04 APERTURE END LIST*
D10*
X167748502Y-45267914D02*
X167755931Y-45218624D01*
X167643348Y-70395251D02*
X167609488Y-70358758D01*
X167153888Y-96703482D02*
X167169927Y-96655745D01*
X168482013Y-107716368D02*
X168434690Y-107733592D01*
X167746018Y-67835396D02*
X167748502Y-67785612D01*
X167885966Y-64264722D02*
X167853455Y-64227457D01*
X168477958Y-111420133D02*
X168433066Y-111440879D01*
X167565046Y-40071518D02*
X167523437Y-40043149D01*
X169078148Y-39520794D02*
X169062109Y-39568531D01*
X167961203Y-40989140D02*
X168003192Y-40963014D01*
X167915175Y-112495901D02*
X167954146Y-112464822D01*
X167749837Y-109014869D02*
X167746170Y-108965552D01*
X168093864Y-110500898D02*
X168141658Y-110488197D01*
X190705677Y-24509914D02*
X190633680Y-24024548D01*
X167114298Y-84409019D02*
X167108036Y-84359050D01*
X167495142Y-92605195D02*
X167492661Y-92555476D01*
X167114298Y-61891321D02*
X167108036Y-61841352D01*
X167853455Y-64227457D02*
X167824784Y-64187162D01*
X167523437Y-85078545D02*
X167483293Y-85048137D01*
X167771649Y-43582124D02*
X167758358Y-43534489D01*
X109818822Y-117655493D02*
X110294794Y-117774718D01*
X168338250Y-110485765D02*
X168386344Y-110497280D01*
X167954146Y-112464822D02*
X167996018Y-112437779D01*
X167608018Y-107650871D02*
X167565046Y-107624612D01*
X110780160Y-117846715D02*
X111270246Y-117870792D01*
X167104273Y-61791133D02*
X167103018Y-61740789D01*
X109270246Y-38658849D02*
X111270246Y-38658849D01*
X145000000Y-23000000D02*
X145000000Y-25002382D01*
X152000000Y-46417698D02*
X152000000Y-45317698D01*
X145000000Y-112870792D02*
X145000000Y-114870792D01*
X168477958Y-64360737D02*
X168433066Y-64381483D01*
X167565046Y-62589216D02*
X167523437Y-62560847D01*
X168686064Y-63680388D02*
X168707363Y-63725019D01*
X168197397Y-25457548D02*
X168151056Y-25475736D01*
X168244605Y-50963627D02*
X168294402Y-50971133D01*
X168190474Y-40903185D02*
X168239833Y-40900129D01*
X167108036Y-61841352D02*
X167104273Y-61791133D01*
X167680674Y-25392795D02*
X167643348Y-25359855D01*
X152000000Y-68935396D02*
X152000000Y-67835396D01*
X167658244Y-51067018D02*
X167703617Y-51045168D01*
X169111739Y-106926717D02*
X169102994Y-106976312D01*
X168190474Y-111474090D02*
X168165968Y-111470735D01*
X109270246Y-83694245D02*
X111270246Y-83694245D01*
X152000000Y-112870792D02*
X167746018Y-112870792D01*
X168043540Y-73476311D02*
X168093837Y-73473800D01*
X167961203Y-65530838D02*
X168003192Y-65504712D01*
X108913262Y-117280398D02*
X109356828Y-117490189D01*
X168238606Y-85260649D02*
X168188496Y-85265663D01*
X167746018Y-45317698D02*
X167748502Y-45267914D01*
X167768231Y-67688018D02*
X167785279Y-67641178D01*
X168666990Y-28599664D02*
X168708599Y-28628033D01*
X168707363Y-43616860D02*
X168686064Y-43661491D01*
X168918123Y-107386028D02*
X168918123Y-107386028D01*
X168338250Y-42932671D02*
X168386344Y-42944186D01*
X168386568Y-107748436D02*
X168337765Y-107760863D01*
X167489292Y-73693837D02*
X167529436Y-73663429D01*
X167108036Y-84359050D02*
X167104273Y-84308831D01*
X167444715Y-85015766D02*
X167407799Y-84981513D01*
X167809582Y-93020314D02*
X167764206Y-92999839D01*
X168724150Y-109099436D02*
X168707363Y-109145954D01*
X168294402Y-50971133D02*
X168343764Y-50981111D01*
X168818238Y-107499211D02*
X168781322Y-107533464D01*
X167313913Y-28838248D02*
X167345312Y-28798875D01*
X168597378Y-88815220D02*
X168560517Y-88848189D01*
X107112897Y-115648643D02*
X107405193Y-116042758D01*
X167819372Y-112610074D02*
X167847451Y-112568889D01*
X168736259Y-109051488D02*
X168724150Y-109099436D01*
X168183846Y-89856974D02*
X168233552Y-89853249D01*
X168886724Y-62390005D02*
X168853402Y-62427764D01*
X107734712Y-116406325D02*
X108098279Y-116735844D01*
X168332842Y-44825294D02*
X168381438Y-44836385D01*
X168597378Y-108597451D02*
X168630801Y-108633901D01*
X168289253Y-86933614D02*
X168239833Y-86935448D01*
X167658244Y-28549320D02*
X167703617Y-28527470D01*
X167885966Y-86088553D02*
X167921999Y-86054682D01*
X168428688Y-89887657D02*
X168474123Y-89908158D01*
X168070496Y-41868270D02*
X168025104Y-41848641D01*
X167339313Y-107425401D02*
X167307914Y-107386028D01*
X167413798Y-73760461D02*
X167450714Y-73726208D01*
X168743572Y-63868395D02*
X168746018Y-63917789D01*
X167853455Y-65632120D02*
X167885966Y-65594855D01*
X189265287Y-21464466D02*
X188901720Y-21134947D01*
X168743572Y-88508880D02*
X168736259Y-88557790D01*
X168660459Y-64197499D02*
X168630801Y-64237072D01*
X168560517Y-66330491D02*
X168520581Y-66359658D01*
X168485797Y-47594505D02*
X168485797Y-47594505D01*
X168063347Y-89887657D02*
X168110597Y-89871781D01*
X190729754Y-25000000D02*
X190705677Y-24509914D01*
X168283514Y-92960922D02*
X168241696Y-92987931D01*
X168239833Y-108453223D02*
X168289253Y-108455057D01*
X167869249Y-88788190D02*
X167838621Y-88749362D01*
X168685128Y-67596269D02*
X168706756Y-67641178D01*
X167853455Y-43114422D02*
X167885966Y-43077157D01*
X167746170Y-88471854D02*
X167747394Y-88422415D01*
X168047557Y-66400715D02*
X168003192Y-66378865D01*
X168017912Y-67390460D02*
X168063347Y-67369959D01*
X167921999Y-43043286D02*
X167961203Y-43013140D01*
X168141658Y-41889078D02*
X168117604Y-41883319D01*
X167109017Y-74483488D02*
X167110272Y-74433143D01*
X186219839Y-117846715D02*
X186705205Y-117774718D01*
X168974843Y-84785137D02*
X168947520Y-84827440D01*
X168488012Y-28507908D02*
X168534418Y-28527470D01*
X169062109Y-62086229D02*
X169043710Y-62133108D01*
X167894271Y-50981111D02*
X167943633Y-50971133D01*
X167753495Y-108867037D02*
X167764414Y-108818804D01*
X167753495Y-65855641D02*
X167764414Y-65807408D01*
X168434690Y-62698196D02*
X168386568Y-62713040D01*
X168787321Y-96243906D02*
X168824237Y-96278159D01*
X168953519Y-51396836D02*
X168980842Y-51439139D01*
X187729754Y-76694245D02*
X185728202Y-76694245D01*
X167941228Y-43820453D02*
X167903564Y-43788405D01*
X167523437Y-107596243D02*
X167483293Y-107565835D01*
X167768231Y-112723414D02*
X167785279Y-112676574D01*
X168283514Y-47925526D02*
X168241696Y-47952535D01*
X167182327Y-107168504D02*
X167163928Y-107121625D01*
X168433066Y-85971792D02*
X168477958Y-85992538D01*
X167378634Y-28761116D02*
X167413798Y-28725065D01*
X168093837Y-28438404D02*
X168144198Y-28438404D01*
X167134249Y-107025410D02*
X167123043Y-106976312D01*
X168441923Y-70254440D02*
X168418114Y-70298160D01*
X167747394Y-41363019D02*
X167753495Y-41313943D01*
X169118001Y-84359050D02*
X169111739Y-84409019D01*
X168386344Y-110497280D02*
X168433066Y-110513490D01*
X167257193Y-51439139D02*
X167284516Y-51396836D01*
X190633680Y-24024548D02*
X190633680Y-24024548D01*
X168151056Y-70511132D02*
X168103135Y-70524615D01*
X167450714Y-73726208D02*
X167489292Y-73693837D01*
X167232013Y-51482753D02*
X167257193Y-51439139D01*
X168659137Y-67553735D02*
X168685128Y-67596269D01*
X167744024Y-107716368D02*
X167697618Y-107696806D01*
X168560517Y-109341887D02*
X168520581Y-109371054D01*
X167153888Y-29150388D02*
X167169927Y-29102651D01*
X168748743Y-96211535D02*
X168787321Y-96243906D01*
X168736259Y-86337183D02*
X168743572Y-86386093D01*
X167839469Y-40195342D02*
X167791347Y-40180498D01*
X187643171Y-117490189D02*
X188086737Y-117280398D01*
X168159193Y-89860690D02*
X168183846Y-89856974D01*
X168433066Y-109416879D02*
X168386344Y-109433089D01*
X168003192Y-88022410D02*
X168047557Y-88000560D01*
X167921999Y-86054682D02*
X167961203Y-86024536D01*
X167800234Y-65715344D02*
X167824784Y-65672415D01*
X169127763Y-51915445D02*
X169129019Y-51965790D01*
X167313913Y-73873644D02*
X167345312Y-73834271D01*
X167753495Y-43337943D02*
X167764414Y-43289710D01*
X111270246Y-54176547D02*
X109270246Y-54176547D01*
X168183846Y-44821578D02*
X168233552Y-44817853D01*
X167839469Y-62713040D02*
X167791347Y-62698196D01*
X169111739Y-39373623D02*
X169102994Y-39423218D01*
X167652245Y-107674956D02*
X167608018Y-107650871D01*
X168736259Y-64016092D02*
X168724150Y-64064040D01*
X167755931Y-67736322D02*
X167768231Y-67688018D01*
X168188496Y-107783361D02*
X168138199Y-107785872D01*
X167993430Y-50963627D02*
X168043540Y-50958613D01*
X168239833Y-110477223D02*
X168289253Y-110479057D01*
X167748502Y-67785612D02*
X167755931Y-67736322D01*
X168724150Y-111123436D02*
X168707363Y-111169954D01*
X167109017Y-97001186D02*
X167110272Y-96950841D01*
X167407799Y-62463815D02*
X167372635Y-62427764D01*
X167758358Y-86545885D02*
X167749837Y-86497171D01*
X167885966Y-108606251D02*
X167921999Y-108572380D01*
X167764414Y-63783408D02*
X167780045Y-63736489D01*
X168818238Y-39946117D02*
X168781322Y-39980370D01*
X109270246Y-99211943D02*
X109270246Y-83694245D01*
X168141658Y-110488197D02*
X168190474Y-110480279D01*
X167894271Y-73498809D02*
X167943633Y-73488831D01*
X168686064Y-66179189D02*
X168660459Y-66221499D01*
X167785279Y-45123480D02*
X167806907Y-45078571D01*
X168947520Y-84827440D02*
X168918123Y-84868330D01*
X169062109Y-39568531D02*
X169043710Y-39615410D01*
X168190474Y-88956392D02*
X168141658Y-88948474D01*
X168043540Y-50958613D02*
X168093837Y-50956102D01*
X167529436Y-51145731D02*
X167571045Y-51117362D01*
X168528419Y-62661410D02*
X168482013Y-62680972D01*
X167800234Y-63691344D02*
X167824784Y-63648415D01*
X167553471Y-47758899D02*
X167531872Y-47714047D01*
X167747394Y-63880717D02*
X167753495Y-63831641D01*
X168707363Y-88266717D02*
X168724150Y-88313235D01*
X167921999Y-64298593D02*
X167885966Y-64264722D01*
X168477958Y-66384737D02*
X168433066Y-66405483D01*
X169102994Y-84458614D02*
X169091788Y-84507712D01*
X168428688Y-112405355D02*
X168474123Y-112425856D01*
X167839469Y-107748436D02*
X167791347Y-107733592D01*
X168037541Y-85265663D02*
X167987431Y-85260649D01*
X169097787Y-96751960D02*
X169108993Y-96801058D01*
X168047557Y-88000560D02*
X168093864Y-87983200D01*
X168859401Y-51278814D02*
X168892723Y-51316573D01*
X167680674Y-92945889D02*
X167643348Y-92912949D01*
X167746170Y-63930156D02*
X167747394Y-63880717D01*
X167153888Y-51668086D02*
X167169927Y-51620349D01*
X168707363Y-65749019D02*
X168724150Y-65795537D01*
X167885966Y-66288722D02*
X167853455Y-66251457D01*
X168618019Y-62615475D02*
X168573792Y-62639560D01*
X169127763Y-96950841D02*
X169129019Y-97001186D01*
X168597378Y-41044357D02*
X168630801Y-41080807D01*
X168086774Y-44843734D02*
X168134757Y-44830234D01*
X168629040Y-67514002D02*
X168659137Y-67553735D01*
X168110597Y-67354083D02*
X168159193Y-67342992D01*
X168560517Y-64306491D02*
X168520581Y-64335658D01*
X168630801Y-109272468D02*
X168597378Y-109308918D01*
X168528419Y-40143712D02*
X168482013Y-40163274D01*
X168190474Y-110480279D02*
X168239833Y-110477223D01*
X167746170Y-43436458D02*
X167747394Y-43387019D01*
X167182327Y-62133108D02*
X167163928Y-62086229D01*
X167894271Y-96016507D02*
X167943633Y-96006529D01*
X168138199Y-62750476D02*
X168087838Y-62750476D01*
X167114035Y-96900622D02*
X167120297Y-96850653D01*
X167652245Y-62639560D02*
X167608018Y-62615475D01*
X168190474Y-86932392D02*
X168141658Y-86924474D01*
X167608018Y-85133173D02*
X167565046Y-85106914D01*
X168004467Y-93054677D02*
X167954701Y-93053436D01*
X167120297Y-51815257D02*
X167129042Y-51765662D01*
X168980842Y-28921441D02*
X169006022Y-28965055D01*
X168418114Y-92815858D02*
X168390071Y-92856989D01*
X190349151Y-23086582D02*
X190139360Y-22643016D01*
X168743533Y-67785612D02*
X168746018Y-67835396D01*
X167278517Y-107345138D02*
X167251194Y-107302835D01*
X168233552Y-112370947D02*
X168283383Y-112372190D01*
X187729754Y-23000000D02*
X187729754Y-31658849D01*
X167845468Y-50993538D02*
X167894271Y-50981111D01*
X167921999Y-108572380D02*
X167961203Y-108542234D01*
X168289253Y-88957614D02*
X168289253Y-88957614D01*
X168390071Y-70339291D02*
X168358072Y-70377427D01*
X168624018Y-96126499D02*
X168666990Y-96152758D01*
X168190474Y-66438694D02*
X168141658Y-66430776D01*
X168054109Y-25497863D02*
X168004467Y-25501583D01*
X167905305Y-70529548D02*
X167856771Y-70518471D01*
X167643348Y-25359855D02*
X167609488Y-25323362D01*
X167372635Y-84945462D02*
X167339313Y-84907703D01*
X167103018Y-106776185D02*
X167109017Y-97001186D01*
X167981874Y-88884020D02*
X167941228Y-88855849D01*
X167531872Y-70231745D02*
X167514846Y-70184966D01*
X167140248Y-74234262D02*
X167153888Y-74185784D01*
X167903564Y-109317499D02*
X167869249Y-109281888D01*
X168025104Y-86884037D02*
X167981874Y-86860020D01*
X185729754Y-112870792D02*
X185728997Y-106211943D01*
X106270246Y-112870792D02*
X106294322Y-113360877D01*
X167824784Y-86166113D02*
X167853455Y-86125818D01*
X167226014Y-84741523D02*
X167203039Y-84696710D01*
X167134249Y-39472316D02*
X167123043Y-39423218D01*
X168624018Y-28573405D02*
X168666990Y-28599664D01*
X167869249Y-86764190D02*
X167838621Y-86725362D01*
X168534418Y-28527470D02*
X168579791Y-28549320D01*
X167744024Y-40163274D02*
X167697618Y-40143712D01*
X167780045Y-65760489D02*
X167800234Y-65715344D01*
X168573792Y-62639560D02*
X168528419Y-62661410D01*
X168063347Y-67369959D02*
X168110597Y-67354083D01*
X111270246Y-90353094D02*
X145000000Y-90353094D01*
X167103018Y-39223091D02*
X167109017Y-29448092D01*
X110294794Y-117774718D02*
X110780160Y-117846715D01*
X168743572Y-108903791D02*
X168746018Y-108953185D01*
X168322435Y-70412186D02*
X168283514Y-70443224D01*
X168003192Y-65504712D02*
X168047557Y-65482862D01*
X167780045Y-110795885D02*
X167800234Y-110750740D01*
X168054109Y-48015561D02*
X168004467Y-48019281D01*
X167553471Y-92794295D02*
X167531872Y-92749443D01*
X168190474Y-43920996D02*
X168141658Y-43913078D01*
X168660459Y-66221499D02*
X168630801Y-66261072D01*
X168630801Y-66261072D02*
X168597378Y-66297522D01*
X168781322Y-62498068D02*
X168742744Y-62530439D01*
X168392567Y-50993538D02*
X168440689Y-51008382D01*
X168289253Y-40901963D02*
X168338250Y-40908671D01*
X167764414Y-41265710D02*
X167780045Y-41218791D01*
X168239833Y-85935525D02*
X168289253Y-85937359D01*
X187729754Y-54176547D02*
X185728202Y-54176547D01*
X168724150Y-88605738D02*
X168707363Y-88652256D01*
X168787321Y-51208510D02*
X168824237Y-51242763D01*
X168289253Y-41898218D02*
X168289253Y-41898218D01*
X167824784Y-65672415D02*
X167853455Y-65632120D01*
X168579791Y-73584716D02*
X168624018Y-73608801D01*
X168520581Y-64335658D02*
X168477958Y-64360737D01*
X169043710Y-107168504D02*
X169022998Y-107214408D01*
X168093864Y-65465502D02*
X168141658Y-65452801D01*
X111270246Y-67835396D02*
X145000000Y-67835396D01*
X168980842Y-51439139D02*
X169006022Y-51482753D01*
X168294402Y-96006529D02*
X168343764Y-96016507D01*
X167903564Y-41764405D02*
X167869249Y-41728794D01*
X167749837Y-86497171D02*
X167746170Y-86447854D01*
X168560517Y-110588482D02*
X168597378Y-110621451D01*
X168477958Y-42981142D02*
X168520581Y-43006221D01*
X168886724Y-84907703D02*
X168853402Y-84945462D01*
X167797346Y-96043778D02*
X167845468Y-96028934D01*
X169121764Y-61791133D02*
X169118001Y-61841352D01*
X168433066Y-42960396D02*
X168477958Y-42981142D01*
X168461260Y-92726266D02*
X168441923Y-92772138D01*
X168390071Y-92856989D02*
X168358072Y-92895125D01*
X168597378Y-64273522D02*
X168560517Y-64306491D01*
X167896899Y-44959764D02*
X167934273Y-44926782D01*
X168597378Y-41755824D02*
X168560517Y-41788793D01*
X168724150Y-86581738D02*
X168707363Y-86628256D01*
X168736104Y-45218624D02*
X168743533Y-45267914D01*
X167954146Y-44911728D02*
X167996018Y-44884685D01*
X185729754Y-117870792D02*
X186219839Y-117846715D01*
X167529436Y-96181127D02*
X167571045Y-96152758D01*
X167257193Y-73956837D02*
X167284516Y-73914534D01*
X167209038Y-74045264D02*
X167232013Y-74000451D01*
X168595136Y-89995160D02*
X168629040Y-90031700D01*
X169123020Y-61740789D02*
X169121764Y-61791133D01*
X168686064Y-88696887D02*
X168660459Y-88739197D01*
X168433066Y-41863785D02*
X168386344Y-41879995D01*
X168239833Y-66441750D02*
X168190474Y-66438694D01*
X167502562Y-25101327D02*
X167495142Y-25052101D01*
X185727446Y-25000000D02*
X168491375Y-25002382D01*
X145000000Y-92555476D02*
X111273818Y-92555476D01*
X185729754Y-45317698D02*
X185728997Y-38658849D01*
X168037541Y-107783361D02*
X167987431Y-107778347D01*
X167961203Y-63506838D02*
X168003192Y-63480712D01*
X167571045Y-96152758D02*
X167614017Y-96126499D01*
X167800234Y-43197646D02*
X167824784Y-43154717D01*
X190139360Y-22643016D02*
X189887102Y-22222148D01*
X109270246Y-54176547D02*
X109270246Y-38658849D01*
X168517291Y-67415383D02*
X168557762Y-67444480D01*
X167232013Y-74000451D02*
X167257193Y-73956837D01*
X168853402Y-107463160D02*
X168818238Y-107499211D01*
X168338250Y-111468604D02*
X168289253Y-111475312D01*
X168630801Y-88140203D02*
X168660459Y-88179776D01*
X168025104Y-109401735D02*
X167981874Y-109377718D01*
X168490754Y-25027272D02*
X168485797Y-25076807D01*
X187729754Y-99211943D02*
X185728202Y-99211943D01*
X168440689Y-73526080D02*
X168488012Y-73543304D01*
X145000000Y-92555476D02*
X145000000Y-92555476D01*
X167937634Y-40217747D02*
X167888272Y-40207769D01*
X168659137Y-112589131D02*
X168685128Y-112631665D01*
X168706756Y-112676574D02*
X168723804Y-112723414D01*
X168289253Y-43922218D02*
X168289253Y-43922218D01*
X168433066Y-110513490D02*
X168477958Y-110534236D01*
X168824237Y-73760461D02*
X168859401Y-73796512D01*
X167608018Y-40097777D02*
X167565046Y-40071518D01*
X168241696Y-92987931D02*
X168197397Y-93010642D01*
X168736259Y-43522394D02*
X168724150Y-43570342D01*
X168557762Y-67444480D02*
X168595136Y-67477462D01*
X168708599Y-73663429D02*
X168748743Y-73693837D01*
X190349151Y-114784209D02*
X190514455Y-114322215D01*
X168093864Y-85959200D02*
X168141658Y-85946499D01*
X169049709Y-29055772D02*
X169068108Y-29102651D01*
X167114035Y-74382924D02*
X167120297Y-74332955D01*
X168103135Y-25489219D02*
X168054109Y-25497863D01*
X106485544Y-23548576D02*
X106366319Y-24024548D01*
X167345312Y-51316573D02*
X167378634Y-51278814D01*
X168742744Y-62530439D02*
X168702600Y-62560847D01*
X167748502Y-112821008D02*
X167755931Y-112771718D01*
X168746018Y-110977185D02*
X168743572Y-111026578D01*
X167744024Y-62680972D02*
X167697618Y-62661410D01*
X167372635Y-107463160D02*
X167339313Y-107425401D01*
X167721093Y-92974948D02*
X167680674Y-92945889D01*
X168474123Y-67390460D02*
X168517291Y-67415383D01*
X167307914Y-62350632D02*
X167278517Y-62309742D01*
X186219839Y-20024076D02*
X185729754Y-20000000D01*
X168660991Y-40071518D02*
X168618019Y-40097777D01*
X167450714Y-51208510D02*
X167489292Y-51176139D01*
X168239833Y-43924052D02*
X168190474Y-43920996D01*
X167226014Y-39706127D02*
X167203039Y-39661314D01*
X185728997Y-106211943D02*
X187729754Y-106211943D01*
X168490754Y-70062668D02*
X168485797Y-70112203D01*
X108913262Y-20590393D02*
X108492394Y-20842651D01*
X168441923Y-25219044D02*
X168418114Y-25262764D01*
X167753495Y-63831641D02*
X167764414Y-63783408D01*
X168283383Y-44819096D02*
X168332842Y-44825294D01*
X168853402Y-39910066D02*
X168818238Y-39946117D01*
X168485797Y-92629901D02*
X168475933Y-92678696D01*
X168289253Y-111475312D02*
X168239833Y-111477146D01*
X167746170Y-41412458D02*
X167747394Y-41363019D01*
X167123043Y-84458614D02*
X167114298Y-84409019D01*
X167614017Y-28573405D02*
X167658244Y-28549320D01*
X111270246Y-25136091D02*
X111270246Y-31658849D01*
X167104273Y-39273435D02*
X167103018Y-39223091D01*
X168724150Y-110830933D02*
X168736259Y-110878881D01*
X168197397Y-47975246D02*
X168151056Y-47993434D01*
X167747394Y-86398415D02*
X167753495Y-86349339D01*
X168477958Y-40957142D02*
X168520581Y-40982221D01*
X168520581Y-109371054D02*
X168477958Y-109396133D01*
X169068108Y-74138047D02*
X169084147Y-74185784D01*
X167993430Y-28445929D02*
X168043540Y-28440915D01*
X168358072Y-70377427D02*
X168322435Y-70412186D01*
X109818822Y-20215298D02*
X109356828Y-20380602D01*
X167278517Y-84827440D02*
X167251194Y-84785137D01*
X168707363Y-41592860D02*
X168686064Y-41637491D01*
X167791347Y-107733592D02*
X167744024Y-107716368D01*
X167941228Y-86831849D02*
X167903564Y-86799801D01*
X167853455Y-41090422D02*
X167885966Y-41053157D01*
X168706756Y-45123480D02*
X168723804Y-45170320D01*
X168239833Y-42924129D02*
X168289253Y-42925963D01*
X168630801Y-65622505D02*
X168660459Y-65662078D01*
X168003192Y-66378865D02*
X167961203Y-66352739D01*
X167824784Y-66211162D02*
X167800234Y-66168233D01*
X167703617Y-96080564D02*
X167750023Y-96061002D01*
X167609488Y-92876456D02*
X167579429Y-92836773D01*
X168188496Y-62747965D02*
X168138199Y-62750476D01*
X167643348Y-92912949D02*
X167609488Y-92876456D01*
X169078148Y-62038492D02*
X169062109Y-62086229D01*
X168086774Y-112396828D02*
X168134757Y-112383328D01*
X167780045Y-88278187D02*
X167800234Y-88233042D01*
X167785279Y-67641178D02*
X167806907Y-67596269D01*
X168630801Y-110657901D02*
X168660459Y-110697474D01*
X168743572Y-109002578D02*
X168736259Y-109051488D01*
X190633680Y-24024548D02*
X190514455Y-23548576D01*
X168488012Y-73543304D02*
X168534418Y-73562866D01*
X168144198Y-50956102D02*
X168194495Y-50958613D01*
X169118001Y-61841352D02*
X169111739Y-61891321D01*
X168441923Y-47736742D02*
X168418114Y-47780462D01*
X169022998Y-39661314D02*
X169000023Y-39706127D01*
X168190474Y-63420883D02*
X168239833Y-63417827D01*
X167869249Y-43752794D02*
X167838621Y-43713966D01*
X168746018Y-90353094D02*
X185729754Y-90353094D01*
X168433066Y-64381483D02*
X168386344Y-64397693D01*
X167749837Y-41461775D02*
X167746170Y-41412458D01*
X167862995Y-44996304D02*
X167896899Y-44959764D01*
X169102994Y-39423218D02*
X169091788Y-39472316D01*
X167523437Y-40043149D02*
X167483293Y-40012741D01*
X168485797Y-25076807D02*
X168485797Y-25076807D01*
X167489292Y-51176139D02*
X167529436Y-51145731D01*
X188901720Y-21134947D02*
X188507605Y-20842651D01*
X167643348Y-47877553D02*
X167609488Y-47841060D01*
X167307914Y-107386028D02*
X167278517Y-107345138D01*
X167614017Y-73608801D02*
X167658244Y-73584716D01*
X168924122Y-73873644D02*
X168953519Y-73914534D01*
X168338250Y-64409208D02*
X168289253Y-64415916D01*
X168746018Y-67835396D02*
X185729754Y-67835396D01*
X167937634Y-85253143D02*
X167888272Y-85243165D01*
X168742744Y-40012741D02*
X168702600Y-40043149D01*
X168159193Y-67342992D02*
X168208652Y-67336794D01*
X168233552Y-44817853D02*
X168283383Y-44819096D01*
X167182327Y-39615410D02*
X167163928Y-39568531D01*
X107405193Y-116042758D02*
X107734712Y-116406325D01*
X168660459Y-43144380D02*
X168686064Y-43186690D01*
X168746018Y-86435487D02*
X168743572Y-86484880D01*
X167114298Y-39373623D02*
X167108036Y-39323654D01*
X168707363Y-88652256D02*
X168686064Y-88696887D01*
X167114035Y-29347528D02*
X167120297Y-29297559D01*
X167771649Y-86593520D02*
X167758358Y-86545885D01*
X168746018Y-88459487D02*
X168743572Y-88508880D01*
X168386344Y-86915391D02*
X168338250Y-86926906D01*
X167134249Y-61990014D02*
X167123043Y-61940916D01*
X167226014Y-107259221D02*
X167203039Y-107214408D01*
X167987431Y-107778347D02*
X167937634Y-107770841D01*
X168746018Y-112870792D02*
X185729754Y-112870792D01*
X168517291Y-44897685D02*
X168557762Y-44926782D01*
X167129042Y-29247964D02*
X167140248Y-29198866D01*
X168289253Y-109451312D02*
X168239833Y-109453146D01*
X167749837Y-88521171D02*
X167746170Y-88471854D01*
X167489292Y-28658441D02*
X167529436Y-28628033D01*
X167608018Y-62615475D02*
X167565046Y-62589216D01*
X168358072Y-25342031D02*
X168322435Y-25376790D01*
X168093864Y-42947804D02*
X168141658Y-42935103D01*
X167943633Y-73488831D02*
X167993430Y-73481325D01*
X167407799Y-39946117D02*
X167372635Y-39910066D01*
X185727446Y-70035396D02*
X168491375Y-70037778D01*
X167856771Y-93036169D02*
X167809582Y-93020314D01*
X168003192Y-40963014D02*
X168047557Y-40941164D01*
X167531872Y-92749443D02*
X167514846Y-92702664D01*
X167888272Y-62725467D02*
X167839469Y-62713040D01*
X168343764Y-73498809D02*
X168392567Y-73511236D01*
X168241696Y-47952535D02*
X168197397Y-47975246D01*
X168707363Y-41207321D02*
X168724150Y-41253839D01*
X168702600Y-107596243D02*
X168660991Y-107624612D01*
X168736104Y-67736322D02*
X168743533Y-67785612D01*
X168477958Y-108510236D02*
X168520581Y-108535315D01*
X169006022Y-28965055D02*
X169028997Y-29009868D01*
X168183846Y-112374672D02*
X168233552Y-112370947D01*
X168386568Y-62713040D02*
X168337765Y-62725467D01*
X167921999Y-41019286D02*
X167961203Y-40989140D01*
X168707363Y-108760415D02*
X168724150Y-108806933D01*
X169123020Y-39223091D02*
X169121764Y-39273435D01*
X168630801Y-41080807D02*
X168660459Y-41120380D01*
X168141658Y-43913078D02*
X168117604Y-43907319D01*
X168338250Y-40908671D02*
X168386344Y-40920186D01*
X167961203Y-43013140D02*
X168003192Y-42987014D01*
X167800234Y-108726740D02*
X167824784Y-108683811D01*
X108098279Y-116735844D02*
X108492394Y-117028140D01*
X167339313Y-39872307D02*
X167307914Y-39832934D01*
X167746170Y-86447854D02*
X167747394Y-86398415D01*
X168381438Y-44836385D02*
X168428688Y-44852261D01*
X168824237Y-51242763D02*
X168859401Y-51278814D01*
X168117604Y-88942715D02*
X168070496Y-88927666D01*
X167114035Y-51865226D02*
X167120297Y-51815257D01*
X167339313Y-84907703D02*
X167307914Y-84868330D01*
X168343764Y-96016507D02*
X168392567Y-96028934D01*
X167182327Y-84650806D02*
X167163928Y-84603927D01*
X168824237Y-28725065D02*
X168859401Y-28761116D01*
X168141658Y-40911103D02*
X168190474Y-40903185D01*
X167937634Y-107770841D02*
X167888272Y-107760863D01*
X168288403Y-85253143D02*
X168238606Y-85260649D01*
X167104273Y-106826529D02*
X167103018Y-106776185D01*
X168686064Y-43661491D02*
X168660459Y-43703801D01*
X169129019Y-51965790D02*
X169123020Y-61740789D01*
X168025104Y-88908037D02*
X167981874Y-88884020D01*
X167108036Y-39323654D02*
X167104273Y-39273435D01*
X167565046Y-85106914D02*
X167523437Y-85078545D01*
X167232013Y-28965055D02*
X167257193Y-28921441D01*
X168520581Y-88041617D02*
X168560517Y-88070784D01*
X168239833Y-64417750D02*
X168239833Y-64417750D01*
X169117738Y-74332955D02*
X169124000Y-74382924D01*
X168736259Y-41498394D02*
X168724150Y-41546342D01*
X168197397Y-93010642D02*
X168151056Y-93028830D01*
X168054109Y-93050957D02*
X168004467Y-93054677D01*
X168724150Y-65795537D02*
X168736259Y-65843485D01*
X111273818Y-92555476D02*
X111270246Y-92689185D01*
X167571045Y-28599664D02*
X167614017Y-28573405D01*
X167110272Y-96950841D02*
X167114035Y-96900622D01*
X168477958Y-63474840D02*
X168520581Y-63499919D01*
X169124000Y-96900622D02*
X169127763Y-96950841D01*
X106366319Y-24024548D02*
X106294322Y-24509914D01*
X168597378Y-43779824D02*
X168560517Y-43812793D01*
X168743533Y-112821008D02*
X168746018Y-112870792D01*
X168482013Y-62680972D02*
X168434690Y-62698196D01*
X167943633Y-96006529D02*
X167993430Y-95999023D01*
X168892723Y-96351969D02*
X168924122Y-96391342D01*
X168047557Y-42965164D02*
X168093864Y-42947804D01*
X167257193Y-96474535D02*
X167284516Y-96432232D01*
X168289253Y-42925963D02*
X168338250Y-42932671D01*
X168244605Y-28445929D02*
X168294402Y-28453435D01*
X168686064Y-109190585D02*
X168660459Y-109232895D01*
X168294402Y-28453435D02*
X168343764Y-28463413D01*
X169121764Y-39273435D02*
X169118001Y-39323654D01*
X111270246Y-76694245D02*
X109270246Y-76694245D01*
X168381438Y-67354083D02*
X168428688Y-67369959D01*
X167251194Y-62267439D02*
X167226014Y-62223825D01*
X168702600Y-40043149D02*
X168660991Y-40071518D01*
X168117604Y-109436413D02*
X168070496Y-109421364D01*
X185728997Y-83694245D02*
X187729754Y-83694245D01*
X145000000Y-70037778D02*
X111273818Y-70037778D01*
X168557762Y-89962178D02*
X168595136Y-89995160D01*
X167697618Y-107696806D02*
X167652245Y-107674956D01*
X167780045Y-86254187D02*
X167800234Y-86209042D01*
X167502562Y-92654421D02*
X167495142Y-92605195D01*
X168386344Y-85955582D02*
X168433066Y-85971792D01*
X167885966Y-88112553D02*
X167921999Y-88078682D01*
X167251194Y-39749741D02*
X167226014Y-39706127D01*
X167934273Y-44926782D02*
X167954146Y-44911728D01*
X167921999Y-88078682D02*
X167961203Y-88048536D01*
X168477958Y-110534236D02*
X168520581Y-110559315D01*
X168433066Y-40936396D02*
X168477958Y-40957142D01*
X109270246Y-114870792D02*
X109270246Y-106211943D01*
X168386344Y-42944186D02*
X168433066Y-42960396D01*
X167839469Y-85230738D02*
X167791347Y-85215894D01*
X167853455Y-108643516D02*
X167885966Y-108606251D01*
X167845468Y-28475840D02*
X167894271Y-28463413D01*
X168474123Y-112425856D02*
X168517291Y-112450779D01*
X168433066Y-87995792D02*
X168477958Y-88016538D01*
X167721093Y-70457250D02*
X167680674Y-70428191D01*
X167407799Y-107499211D02*
X167372635Y-107463160D01*
X145000000Y-90353094D02*
X145000000Y-91453094D01*
X168490754Y-47544970D02*
X168485797Y-47594505D01*
X168743572Y-110927791D02*
X168746018Y-110977185D01*
X168474123Y-44872762D02*
X168517291Y-44897685D01*
X167413798Y-51242763D02*
X167450714Y-51208510D01*
X168707363Y-64110558D02*
X168686064Y-64155189D01*
X168165968Y-111470735D02*
X168117604Y-111460413D01*
X168724150Y-43277839D02*
X168736259Y-43325787D01*
X168686064Y-111214585D02*
X168660459Y-111256895D01*
X168918123Y-107386028D02*
X168886724Y-107425401D01*
X167284516Y-96432232D02*
X167313913Y-96391342D01*
X167961203Y-110566234D02*
X168003192Y-110540108D01*
X167845468Y-96028934D02*
X167894271Y-96016507D01*
X167123043Y-61940916D02*
X167114298Y-61891321D01*
X168238606Y-107778347D02*
X168188496Y-107783361D01*
X167824784Y-88190113D02*
X167853455Y-88149818D01*
X109270246Y-61176547D02*
X111270246Y-61176547D01*
X168288403Y-40217747D02*
X168238606Y-40225253D01*
X168702600Y-85078545D02*
X168660991Y-85106914D01*
X167203039Y-84696710D02*
X167182327Y-84650806D01*
X168517291Y-112450779D02*
X168557762Y-112479876D01*
X168433066Y-86899181D02*
X168386344Y-86915391D01*
X168787321Y-28690812D02*
X168824237Y-28725065D01*
X145000000Y-47520080D02*
X111273818Y-47520080D01*
X168386568Y-40195342D02*
X168337765Y-40207769D01*
X168974843Y-62267439D02*
X168947520Y-62309742D01*
X107734712Y-21464466D02*
X107405193Y-21828033D01*
X167747394Y-43387019D02*
X167753495Y-43337943D01*
X168723804Y-67688018D02*
X168736104Y-67736322D01*
X168736259Y-86533790D02*
X168724150Y-86581738D01*
X185728997Y-38658849D02*
X187729754Y-38658849D01*
X167903564Y-86799801D02*
X167869249Y-86764190D01*
X168595136Y-44959764D02*
X168629040Y-44996304D01*
X168003192Y-64354865D02*
X167961203Y-64328739D01*
X168433066Y-43887785D02*
X168386344Y-43903995D01*
X169068108Y-51620349D02*
X169084147Y-51668086D01*
X167941228Y-109349547D02*
X167903564Y-109317499D01*
X167981874Y-43848624D02*
X167941228Y-43820453D01*
X168947520Y-39792044D02*
X168918123Y-39832934D01*
X167838621Y-86725362D02*
X167811978Y-86683699D01*
X168787321Y-73726208D02*
X168824237Y-73760461D01*
X168003192Y-108516108D02*
X168047557Y-108494258D01*
X168736259Y-66040092D02*
X168724150Y-66088040D01*
X169121764Y-106826529D02*
X169118001Y-106876748D01*
X167345312Y-73834271D02*
X167378634Y-73796512D01*
X168746018Y-43424091D02*
X168743572Y-43473484D01*
X167824784Y-110707811D02*
X167853455Y-110667516D01*
X168597378Y-86791220D02*
X168560517Y-86824189D01*
X168629040Y-90031700D02*
X168659137Y-90071433D01*
X168491375Y-47520080D02*
X168490754Y-47544970D01*
X168707363Y-111169954D02*
X168686064Y-111214585D01*
X109270246Y-31658849D02*
X109270246Y-23000000D01*
X185727446Y-92553094D02*
X168491375Y-92555476D01*
X168386568Y-85230738D02*
X168337765Y-85243165D01*
X168947520Y-107345138D02*
X168918123Y-107386028D01*
X109270246Y-23000000D02*
X109270246Y-23000000D01*
X167885966Y-110630251D02*
X167921999Y-110596380D01*
X108098279Y-21134947D02*
X107734712Y-21464466D01*
X168338250Y-87968067D02*
X168386344Y-87979582D01*
X168461260Y-25173172D02*
X168441923Y-25219044D01*
X168579791Y-51067018D02*
X168624018Y-51091103D01*
X167771649Y-41558124D02*
X167758358Y-41510489D01*
X167764414Y-108818804D02*
X167780045Y-108771885D01*
X168706756Y-90158876D02*
X168723804Y-90205716D01*
X167921999Y-66322593D02*
X167885966Y-66288722D01*
X168440689Y-96043778D02*
X168488012Y-96061002D01*
X167888272Y-107760863D02*
X167839469Y-107748436D01*
X168707363Y-86628256D02*
X168686064Y-86672887D01*
X111270246Y-83694245D02*
X111270246Y-90353094D01*
X106366319Y-113846243D02*
X106485544Y-114322215D01*
X168289253Y-41898218D02*
X168239833Y-41900052D01*
X168924122Y-51355946D02*
X168953519Y-51396836D01*
X188086737Y-20590393D02*
X187643171Y-20380602D01*
X167492661Y-92555476D02*
X152000000Y-92555476D01*
X168517291Y-89933081D02*
X168557762Y-89962178D01*
X168239833Y-88959448D02*
X168190474Y-88956392D01*
X168475933Y-25125602D02*
X168461260Y-25173172D01*
X145000000Y-46417698D02*
X145000000Y-47520080D01*
X168659137Y-90071433D02*
X168685128Y-90113967D01*
X167744024Y-85198670D02*
X167697618Y-85179108D01*
X168736259Y-111075488D02*
X168724150Y-111123436D01*
X109270246Y-23000000D02*
X145000000Y-23000000D01*
X168151056Y-93028830D02*
X168103135Y-93042313D01*
X167697618Y-85179108D02*
X167652245Y-85157258D01*
X188507605Y-117028140D02*
X188901720Y-116735844D01*
X168724150Y-41546342D02*
X168707363Y-41592860D01*
X168736104Y-112771718D02*
X168743533Y-112821008D01*
X168138199Y-85268174D02*
X168087838Y-85268174D01*
X185729754Y-90353094D02*
X185728997Y-83694245D01*
X168579791Y-96102414D02*
X168624018Y-96126499D01*
X167531872Y-25196349D02*
X167514846Y-25149570D01*
X167780045Y-43242791D02*
X167800234Y-43197646D01*
X168974843Y-39749741D02*
X168947520Y-39792044D01*
X168660459Y-111256895D02*
X168630801Y-111296468D01*
X167824784Y-108683811D02*
X167853455Y-108643516D01*
X167961203Y-88048536D02*
X168003192Y-88022410D01*
X168736104Y-90254020D02*
X168743533Y-90303310D01*
X168144198Y-28438404D02*
X168194495Y-28440915D01*
X168087838Y-85268174D02*
X168037541Y-85265663D01*
X167345312Y-28798875D02*
X167378634Y-28761116D01*
X167226014Y-62223825D02*
X167203039Y-62179012D01*
X167768231Y-45170320D02*
X167785279Y-45123480D01*
X167120297Y-29297559D02*
X167129042Y-29247964D01*
X168686064Y-88222086D02*
X168707363Y-88266717D01*
X167993430Y-73481325D02*
X168043540Y-73476311D01*
X168190474Y-85938581D02*
X168239833Y-85935525D01*
X109270246Y-76694245D02*
X109270246Y-61176547D01*
X168485797Y-70112203D02*
X168475933Y-70160998D01*
X168343764Y-28463413D02*
X168392567Y-28475840D01*
X167413798Y-28725065D02*
X167450714Y-28690812D01*
X168283383Y-67336794D02*
X168332842Y-67342992D01*
X167123043Y-39423218D02*
X167114298Y-39373623D01*
X167278517Y-62309742D02*
X167251194Y-62267439D01*
X168660991Y-85106914D02*
X168618019Y-85133173D01*
X167492661Y-47520080D02*
X152000000Y-47520080D01*
X169097787Y-51716564D02*
X169108993Y-51765662D01*
X167981874Y-41824624D02*
X167941228Y-41796453D01*
X168485797Y-25076807D02*
X168475933Y-25125602D01*
X168660991Y-107624612D02*
X168618019Y-107650871D01*
X168482013Y-40163274D02*
X168434690Y-40180498D01*
X168190474Y-65444883D02*
X168239833Y-65441827D01*
X168047557Y-108494258D02*
X168093864Y-108476898D01*
X168743572Y-111026578D02*
X168736259Y-111075488D01*
X168742744Y-107565835D02*
X168702600Y-107596243D01*
X168151056Y-47993434D02*
X168103135Y-48006917D01*
X167811978Y-109201397D02*
X167789581Y-109157306D01*
X169068108Y-29102651D02*
X169084147Y-29150388D01*
X168560517Y-63529086D02*
X168597378Y-63562055D01*
X168560517Y-88070784D02*
X168597378Y-88103753D01*
X167103018Y-61740789D02*
X167109017Y-51965790D01*
X168624018Y-51091103D02*
X168666990Y-51117362D01*
X168239833Y-111477146D02*
X168190474Y-111474090D01*
X168289253Y-110479057D02*
X168338250Y-110485765D01*
X167791347Y-40180498D02*
X167744024Y-40163274D01*
X168289253Y-86933614D02*
X168289253Y-86933614D01*
X168630801Y-63598505D02*
X168660459Y-63638078D01*
X168165968Y-109446735D02*
X168117604Y-109436413D01*
X167209038Y-96562962D02*
X167232013Y-96518149D01*
X168723804Y-45170320D02*
X168736104Y-45218624D01*
X168686064Y-41637491D02*
X168660459Y-41679801D01*
X185729754Y-20000000D02*
X111270246Y-20000000D01*
X167954701Y-48018040D02*
X167905305Y-48011850D01*
X167153888Y-74185784D02*
X167169927Y-74138047D01*
X168433066Y-65478094D02*
X168477958Y-65498840D01*
X168477958Y-85992538D02*
X168520581Y-86017617D01*
X168746018Y-41400091D02*
X168743572Y-41449484D01*
X169123020Y-84258487D02*
X169121764Y-84308831D01*
X168886724Y-39872307D02*
X168853402Y-39910066D01*
X168520581Y-40982221D02*
X168560517Y-41011388D01*
X167934273Y-67444480D02*
X167974744Y-67415383D01*
X167750023Y-28507908D02*
X167797346Y-28490684D01*
X167703617Y-28527470D02*
X167750023Y-28507908D01*
X168560517Y-86046784D02*
X168597378Y-86079753D01*
X168241696Y-70470233D02*
X168197397Y-70492944D01*
X168660459Y-108673474D02*
X168686064Y-108715784D01*
X168433066Y-108489490D02*
X168477958Y-108510236D01*
X168289253Y-65443661D02*
X168338250Y-65450369D01*
X167163928Y-39568531D02*
X167147889Y-39520794D01*
X168746018Y-108953185D02*
X168743572Y-109002578D01*
X185728202Y-54176547D02*
X185727446Y-47517698D01*
X168233552Y-67335551D02*
X168283383Y-67336794D01*
X167832898Y-90071433D02*
X167862995Y-90031700D01*
X168743572Y-41350697D02*
X168746018Y-41400091D01*
X167746018Y-112870792D02*
X167748502Y-112821008D01*
X167747394Y-110940113D02*
X167753495Y-110891037D01*
X168093864Y-64394075D02*
X168047557Y-64376715D01*
X168629040Y-44996304D02*
X168659137Y-45036037D01*
X167903564Y-111341499D02*
X167869249Y-111305888D01*
X168289253Y-88957614D02*
X168239833Y-88959448D01*
X169043710Y-84650806D02*
X169022998Y-84696710D01*
X167961203Y-66352739D02*
X167921999Y-66322593D01*
X168047557Y-64376715D02*
X168003192Y-64354865D01*
X167764206Y-70482141D02*
X167721093Y-70457250D01*
X167203039Y-39661314D02*
X167182327Y-39615410D01*
X106294322Y-24509914D02*
X106270246Y-25000000D01*
X167753495Y-110891037D02*
X167764414Y-110842804D01*
X167800234Y-66168233D02*
X167780045Y-66123088D01*
X168477958Y-88902435D02*
X168433066Y-88923181D01*
X167753495Y-86349339D02*
X167764414Y-86301106D01*
X168947520Y-62309742D02*
X168918123Y-62350632D01*
X169129019Y-74483488D02*
X169123020Y-84258487D01*
X168528419Y-85179108D02*
X168482013Y-85198670D01*
X168386344Y-87979582D02*
X168433066Y-87995792D01*
X168781322Y-85015766D02*
X168742744Y-85048137D01*
X168953519Y-73914534D02*
X168980842Y-73956837D01*
X167746170Y-108965552D02*
X167747394Y-108916113D01*
X167123043Y-106976312D02*
X167114298Y-106926717D01*
X168238606Y-62742951D02*
X168188496Y-62747965D01*
X168386344Y-66421693D02*
X168338250Y-66433208D01*
X168597378Y-86079753D02*
X168630801Y-86116203D01*
X167529436Y-73663429D02*
X167571045Y-73635060D01*
X168289253Y-43922218D02*
X168239833Y-43924052D01*
X167169927Y-96655745D02*
X167188326Y-96608866D01*
X168724150Y-86289235D02*
X168736259Y-86337183D01*
X167800234Y-86209042D02*
X167824784Y-86166113D01*
X168736259Y-65843485D02*
X168743572Y-65892395D01*
X167789581Y-109157306D02*
X167771649Y-109111218D01*
X168520581Y-86853356D02*
X168477958Y-86878435D01*
X167169927Y-51620349D02*
X167188326Y-51573470D01*
X167961203Y-86024536D02*
X168003192Y-85998410D01*
X169127763Y-74433143D02*
X169129019Y-74483488D01*
X168597378Y-110621451D02*
X168630801Y-110657901D01*
X168386344Y-64397693D02*
X168338250Y-64409208D01*
X152000000Y-67835396D02*
X167746018Y-67835396D01*
X167483293Y-62530439D02*
X167444715Y-62498068D01*
X168660459Y-41120380D02*
X168686064Y-41162690D01*
X168386344Y-41879995D02*
X168338250Y-41891510D01*
X168724150Y-108806933D02*
X168736259Y-108854881D01*
X167114298Y-106926717D02*
X167108036Y-106876748D01*
X168660459Y-88179776D02*
X168686064Y-88222086D01*
X168141658Y-65452801D02*
X168190474Y-65444883D01*
X168660459Y-110697474D02*
X168686064Y-110739784D01*
X168597378Y-65586055D02*
X168630801Y-65622505D01*
X167943633Y-50971133D02*
X167993430Y-50963627D01*
X168093864Y-87983200D02*
X168141658Y-87970499D01*
X167764414Y-110842804D02*
X167780045Y-110795885D01*
X168746018Y-63917789D02*
X168743572Y-63967182D01*
X168708599Y-51145731D02*
X168748743Y-51176139D01*
X168723804Y-90205716D02*
X168736104Y-90254020D01*
X169129019Y-97001186D02*
X169123020Y-106776185D01*
X168047557Y-85976560D02*
X168093864Y-85959200D01*
X167747394Y-108916113D02*
X167753495Y-108867037D01*
X167903564Y-43788405D02*
X167869249Y-43752794D01*
X168560517Y-41788793D02*
X168520581Y-41817960D01*
X168283383Y-112372190D02*
X168332842Y-112378388D01*
X167943633Y-28453435D02*
X167993430Y-28445929D01*
X168475933Y-92678696D02*
X168461260Y-92726266D01*
X167806907Y-90113967D02*
X167832898Y-90071433D01*
X168477958Y-43867039D02*
X168433066Y-43887785D01*
X167785279Y-112676574D02*
X167795533Y-112653850D01*
X168141658Y-88948474D02*
X168117604Y-88942715D01*
X167257193Y-28921441D02*
X167284516Y-28879138D01*
X145000000Y-47520080D02*
X145000000Y-47520080D01*
X168781322Y-107533464D02*
X168742744Y-107565835D01*
X185728202Y-99211943D02*
X185727446Y-92553094D01*
X167514846Y-25149570D02*
X167502562Y-25101327D01*
X167981874Y-109377718D02*
X167941228Y-109349547D01*
X167771649Y-64075822D02*
X167758358Y-64028187D01*
X168491375Y-70037778D02*
X168490754Y-70062668D01*
X168573792Y-107674956D02*
X168528419Y-107696806D01*
X168144198Y-95991498D02*
X168194495Y-95994009D01*
X167284516Y-73914534D02*
X167313913Y-73873644D01*
X168743572Y-86386093D02*
X168746018Y-86435487D01*
X168743572Y-43374697D02*
X168746018Y-43424091D01*
X188507605Y-20842651D02*
X188086737Y-20590393D01*
X167811978Y-111225397D02*
X167789581Y-111181306D01*
X169000023Y-84741523D02*
X168974843Y-84785137D01*
X167750023Y-96061002D02*
X167797346Y-96043778D01*
X169108993Y-29247964D02*
X169117738Y-29297559D01*
X168117604Y-111460413D02*
X168070496Y-111445364D01*
X111270246Y-92689185D02*
X111270246Y-99211943D01*
X168918123Y-62350632D02*
X168886724Y-62390005D01*
X145000000Y-91453094D02*
X145000000Y-92555476D01*
X168103135Y-93042313D02*
X168054109Y-93050957D01*
X111273818Y-70037778D02*
X111270246Y-70171487D01*
X188901720Y-116735844D02*
X189265287Y-116406325D01*
X106294322Y-113360877D02*
X106366319Y-113846243D01*
X168707363Y-43231321D02*
X168724150Y-43277839D01*
X110780160Y-20024076D02*
X110294794Y-20096073D01*
X168853402Y-84945462D02*
X168818238Y-84981513D01*
X168239833Y-66441750D02*
X168239833Y-66441750D01*
X111270246Y-20000000D02*
X110780160Y-20024076D01*
X167838621Y-111267060D02*
X167811978Y-111225397D01*
X168660459Y-65662078D02*
X168686064Y-65704388D01*
X111270246Y-38658849D02*
X111270246Y-45317698D01*
X111273818Y-25002382D02*
X111270246Y-25136091D01*
X168560517Y-65553086D02*
X168597378Y-65586055D01*
X168322435Y-47894488D02*
X168283514Y-47925526D01*
X168573792Y-40121862D02*
X168528419Y-40143712D01*
X168392567Y-73511236D02*
X168440689Y-73526080D01*
X187729754Y-31658849D02*
X185728202Y-31658849D01*
X167609488Y-25323362D02*
X167579429Y-25283679D01*
X169028997Y-51527566D02*
X169049709Y-51573470D01*
X167800234Y-41173646D02*
X167824784Y-41130717D01*
X167378634Y-96314210D02*
X167413798Y-96278159D01*
X168743572Y-43473484D02*
X168736259Y-43522394D01*
X168886724Y-84907703D02*
X168886724Y-84907703D01*
X167905305Y-48011850D02*
X167856771Y-48000773D01*
X168003192Y-85998410D02*
X168047557Y-85976560D01*
X167771649Y-111135218D02*
X167758358Y-111087583D01*
X168475933Y-70160998D02*
X168461260Y-70208568D01*
X167780045Y-108771885D02*
X167800234Y-108726740D01*
X167553471Y-70276597D02*
X167531872Y-70231745D01*
X167809582Y-70502616D02*
X167764206Y-70482141D01*
X167140248Y-96751960D02*
X167153888Y-96703482D01*
X169091788Y-39472316D02*
X169078148Y-39520794D01*
X167789581Y-43628212D02*
X167771649Y-43582124D01*
X168630801Y-111296468D02*
X168597378Y-111332918D01*
X167444715Y-107533464D02*
X167407799Y-107499211D01*
X167110272Y-51915445D02*
X167114035Y-51865226D01*
X168724150Y-43570342D02*
X168707363Y-43616860D01*
X167996018Y-112437779D02*
X168040374Y-112415039D01*
X168141658Y-64406776D02*
X168093864Y-64394075D01*
X167885966Y-63570855D02*
X167921999Y-63536984D01*
X168338250Y-109444604D02*
X168338250Y-109444604D01*
X167941228Y-88855849D02*
X167903564Y-88823801D01*
X167921999Y-63536984D02*
X167961203Y-63506838D01*
X167789581Y-41604212D02*
X167771649Y-41558124D01*
X168244605Y-73481325D02*
X168294402Y-73488831D01*
X167758358Y-43534489D02*
X167749837Y-43485775D01*
X168491375Y-25002382D02*
X168490754Y-25027272D01*
X167378634Y-73796512D02*
X167413798Y-73760461D01*
X167791347Y-85215894D02*
X167744024Y-85198670D01*
X152000000Y-23000000D02*
X187729754Y-23000000D01*
X168853402Y-62427764D02*
X168818238Y-62463815D01*
X168289253Y-64415916D02*
X168239833Y-64417750D01*
X168736259Y-88361183D02*
X168743572Y-88410093D01*
X190729754Y-112870792D02*
X190729754Y-25000000D01*
X167896899Y-89995160D02*
X167934273Y-89962178D01*
X168004467Y-25501583D02*
X167954701Y-25500342D01*
X168746018Y-65941789D02*
X168743572Y-65991182D01*
X169049709Y-51573470D02*
X169068108Y-51620349D01*
X169022998Y-107214408D02*
X169000023Y-107259221D01*
X106860639Y-22643016D02*
X106650848Y-23086582D01*
X168974843Y-107302835D02*
X168947520Y-107345138D01*
X168560517Y-111365887D02*
X168520581Y-111395054D01*
X168197397Y-70492944D02*
X168151056Y-70511132D01*
X168433066Y-66405483D02*
X168386344Y-66421693D01*
X167251194Y-84785137D02*
X167226014Y-84741523D01*
X167896899Y-67477462D02*
X167934273Y-67444480D01*
X167609488Y-47841060D02*
X167579429Y-47801377D01*
X167789581Y-88663608D02*
X167771649Y-88617520D01*
X167862995Y-67514002D02*
X167896899Y-67477462D01*
X167993430Y-95999023D02*
X168043540Y-95994009D01*
X167413798Y-96278159D02*
X167450714Y-96243906D01*
X167120297Y-74332955D02*
X167129042Y-74283360D01*
X167780045Y-66123088D02*
X167771649Y-66099822D01*
X168141658Y-108464197D02*
X168190474Y-108456279D01*
X167832898Y-67553735D02*
X167862995Y-67514002D01*
X167749837Y-66003473D02*
X167746170Y-65954156D01*
X190514455Y-114322215D02*
X190633680Y-113846243D01*
X167888272Y-40207769D02*
X167839469Y-40195342D01*
X168748743Y-73693837D02*
X168787321Y-73726208D01*
X169043710Y-62133108D02*
X169022998Y-62179012D01*
X167811978Y-41648303D02*
X167789581Y-41604212D01*
X168138199Y-107785872D02*
X168087838Y-107785872D01*
X168288403Y-62735445D02*
X168238606Y-62742951D01*
X167862995Y-90031700D02*
X167896899Y-89995160D01*
X168392567Y-28475840D02*
X168440689Y-28490684D01*
X167806907Y-67596269D02*
X167832898Y-67553735D01*
X168390071Y-47821593D02*
X168358072Y-47859729D01*
X167800234Y-64144233D02*
X167780045Y-64099088D01*
X168428688Y-67369959D02*
X168474123Y-67390460D01*
X167764414Y-43289710D02*
X167780045Y-43242791D01*
X168239833Y-41900052D02*
X168190474Y-41896996D01*
X168194495Y-95994009D02*
X168244605Y-95999023D01*
X168743572Y-63967182D02*
X168736259Y-64016092D01*
X167313913Y-96391342D02*
X167345312Y-96351969D01*
X169049709Y-96608866D02*
X169068108Y-96655745D01*
X168477958Y-109396133D02*
X168433066Y-109416879D01*
X168743572Y-41449484D02*
X168736259Y-41498394D01*
X167495142Y-25052101D02*
X167492661Y-25002382D01*
X168485797Y-70112203D02*
X168485797Y-70112203D01*
X167768231Y-90205716D02*
X167785279Y-90158876D01*
X167954701Y-93053436D02*
X167905305Y-93047246D01*
X167313913Y-51355946D02*
X167345312Y-51316573D01*
X167746170Y-110989552D02*
X167747394Y-110940113D01*
X168708599Y-28628033D02*
X168748743Y-28658441D01*
X167941228Y-41796453D02*
X167903564Y-41764405D01*
X168338250Y-63426369D02*
X168386344Y-63437884D01*
X168332842Y-67342992D02*
X168381438Y-67354083D01*
X168534418Y-51045168D02*
X168579791Y-51067018D01*
X168138199Y-40232778D02*
X168087838Y-40232778D01*
X167147889Y-62038492D02*
X167134249Y-61990014D01*
X168381438Y-112389479D02*
X168428688Y-112405355D01*
X168338250Y-66433208D02*
X168289253Y-66439916D01*
X187729754Y-38658849D02*
X187729754Y-54176547D01*
X168338250Y-41891510D02*
X168289253Y-41898218D01*
X168685128Y-90113967D02*
X168706756Y-90158876D01*
X168520581Y-86017617D02*
X168560517Y-86046784D01*
X167147889Y-39520794D02*
X167134249Y-39472316D01*
X167750023Y-73543304D02*
X167797346Y-73526080D01*
X167853455Y-66251457D02*
X167824784Y-66211162D01*
X168491375Y-92555476D02*
X168490754Y-92580366D01*
X167856771Y-48000773D02*
X167809582Y-47984918D01*
X168144198Y-73473800D02*
X168194495Y-73476311D01*
X187729754Y-61176547D02*
X187729754Y-76694245D01*
X168743572Y-88410093D02*
X168746018Y-88459487D01*
X186705205Y-117774718D02*
X187181177Y-117655493D01*
X168736259Y-43325787D02*
X168743572Y-43374697D01*
X169124000Y-29347528D02*
X169127763Y-29397747D01*
X168239833Y-63417827D02*
X168289253Y-63419661D01*
X168736259Y-41301787D02*
X168743572Y-41350697D01*
X167697618Y-62661410D02*
X167652245Y-62639560D01*
X167747394Y-65904717D02*
X167753495Y-65855641D01*
X168239833Y-65441827D02*
X168289253Y-65443661D01*
X167746018Y-90353094D02*
X167748502Y-90303310D01*
X168597378Y-43068357D02*
X168630801Y-43104807D01*
X167307914Y-39832934D02*
X167278517Y-39792044D01*
X167974744Y-89933081D02*
X168017912Y-89908158D01*
X168743533Y-45267914D02*
X168746018Y-45317698D01*
X167987431Y-62742951D02*
X167937634Y-62735445D01*
X168190474Y-108456279D02*
X168239833Y-108453223D01*
X167981874Y-111401718D02*
X167941228Y-111373547D01*
X167109017Y-51965790D02*
X167110272Y-51915445D01*
X167372635Y-62427764D02*
X167339313Y-62390005D01*
X187729754Y-83694245D02*
X187729754Y-99211943D01*
X167579429Y-47801377D02*
X167553471Y-47758899D01*
X168707363Y-66134558D02*
X168686064Y-66179189D01*
X189887102Y-22222148D02*
X189594806Y-21828033D01*
X168595136Y-112512858D02*
X168629040Y-112549398D01*
X167869249Y-111305888D02*
X167838621Y-111267060D01*
X167806907Y-45078571D02*
X167832898Y-45036037D01*
X168660459Y-88739197D02*
X168630801Y-88778770D01*
X168093837Y-95991498D02*
X168144198Y-95991498D01*
X168141658Y-85946499D02*
X168190474Y-85938581D01*
X167905305Y-93047246D02*
X167856771Y-93036169D01*
X167905305Y-25494152D02*
X167856771Y-25483075D01*
X168853402Y-62427764D02*
X168853402Y-62427764D01*
X168103135Y-70524615D02*
X168054109Y-70533259D01*
X168520581Y-41817960D02*
X168477958Y-41843039D01*
X168686064Y-41162690D02*
X168707363Y-41207321D01*
X167378634Y-51278814D02*
X167413798Y-51242763D01*
X168924122Y-96391342D02*
X168953519Y-96432232D01*
X168892723Y-51316573D02*
X168924122Y-51355946D01*
X106650848Y-114784209D02*
X106860639Y-115227775D01*
X168208652Y-67336794D02*
X168233552Y-67335551D01*
X168386344Y-43903995D02*
X168338250Y-43915510D01*
X168386344Y-65461884D02*
X168433066Y-65478094D01*
X168386344Y-111457089D02*
X168338250Y-111468604D01*
X167232013Y-96518149D02*
X167257193Y-96474535D01*
X168338250Y-111468604D02*
X168338250Y-111468604D01*
X167163928Y-62086229D02*
X167147889Y-62038492D01*
X169102994Y-61940916D02*
X169091788Y-61990014D01*
X168289253Y-108455057D02*
X168338250Y-108461765D01*
X167339313Y-62390005D02*
X167307914Y-62350632D01*
X168239833Y-87959525D02*
X168289253Y-87961359D01*
X168520581Y-66359658D02*
X168477958Y-66384737D01*
X168743533Y-90303310D02*
X168746018Y-90353094D01*
X167764206Y-92999839D02*
X167721093Y-92974948D01*
X168040374Y-44861945D02*
X168086774Y-44843734D01*
X168322435Y-25376790D02*
X168283514Y-25407828D01*
X168924122Y-28838248D02*
X168953519Y-28879138D01*
X168418114Y-25262764D02*
X168390071Y-25303895D01*
X167188326Y-96608866D02*
X167209038Y-96562962D01*
X167483293Y-40012741D02*
X167444715Y-39980370D01*
X106860639Y-115227775D02*
X107112897Y-115648643D01*
X168560517Y-41011388D02*
X168597378Y-41044357D01*
X168238606Y-40225253D02*
X168188496Y-40230267D01*
X145000000Y-45317698D02*
X145000000Y-46417698D01*
X168141658Y-86924474D02*
X168117604Y-86918715D01*
X168707363Y-86242717D02*
X168724150Y-86289235D01*
X168477958Y-41843039D02*
X168433066Y-41863785D01*
X168660459Y-86155776D02*
X168686064Y-86198086D01*
X190139360Y-115227775D02*
X190349151Y-114784209D01*
X168117604Y-41883319D02*
X168070496Y-41868270D01*
X168087838Y-40232778D02*
X168037541Y-40230267D01*
X168440689Y-28490684D02*
X168488012Y-28507908D01*
X168736259Y-63819485D02*
X168743572Y-63868395D01*
X168332842Y-89860690D02*
X168381438Y-89871781D01*
X169006022Y-74000451D02*
X169028997Y-74045264D01*
X168630801Y-88778770D02*
X168597378Y-88815220D01*
X167721093Y-25421854D02*
X167680674Y-25392795D01*
X168520581Y-65523919D02*
X168560517Y-65553086D01*
X168746018Y-45317698D02*
X185729754Y-45317698D01*
X169118001Y-106876748D02*
X169111739Y-106926717D01*
X168557762Y-44926782D02*
X168595136Y-44959764D01*
X167838621Y-109243060D02*
X167811978Y-109201397D01*
X169127763Y-29397747D02*
X169129019Y-29448092D01*
X167209038Y-51527566D02*
X167232013Y-51482753D01*
X109270246Y-114870792D02*
X109270246Y-114870792D01*
X111270246Y-47653789D02*
X111270246Y-54176547D01*
X169062109Y-84603927D02*
X169043710Y-84650806D01*
X167800234Y-88233042D02*
X167824784Y-88190113D01*
X168141658Y-66430776D02*
X168093864Y-66418075D01*
X168188496Y-85265663D02*
X168138199Y-85268174D01*
X168433066Y-111440879D02*
X168386344Y-111457089D01*
X167856771Y-70518471D02*
X167809582Y-70502616D01*
X168141658Y-42935103D02*
X168190474Y-42927185D01*
X167869249Y-41728794D02*
X167838621Y-41689966D01*
X111270246Y-99211943D02*
X109270246Y-99211943D01*
X167771649Y-88617520D02*
X167758358Y-88569885D01*
X168093864Y-108476898D02*
X168141658Y-108464197D01*
X168534418Y-73562866D02*
X168579791Y-73584716D01*
X167853455Y-110667516D02*
X167885966Y-110630251D01*
X168386344Y-109433089D02*
X168338250Y-109444604D01*
X168892723Y-73834271D02*
X168924122Y-73873644D01*
X168239833Y-86935448D02*
X168190474Y-86932392D01*
X167483293Y-107565835D02*
X167444715Y-107533464D01*
X168520581Y-108535315D02*
X168560517Y-108564482D01*
X167853455Y-63608120D02*
X167885966Y-63570855D01*
X169028997Y-74045264D02*
X169049709Y-74091168D01*
X168488012Y-96061002D02*
X168534418Y-96080564D01*
X167879492Y-112530705D02*
X167915175Y-112495901D01*
X167495142Y-70087497D02*
X167492661Y-70037778D01*
X167996018Y-44884685D02*
X168040374Y-44861945D01*
X168141658Y-87970499D02*
X168190474Y-87962581D01*
X168475933Y-47643300D02*
X168461260Y-47690870D01*
X169000023Y-62223825D02*
X168974843Y-62267439D01*
X169111739Y-61891321D02*
X169102994Y-61940916D01*
X168724150Y-41253839D02*
X168736259Y-41301787D01*
X168686064Y-86672887D02*
X168660459Y-86715197D01*
X168630801Y-86116203D02*
X168660459Y-86155776D01*
X167755931Y-45218624D02*
X167768231Y-45170320D01*
X167110272Y-74433143D02*
X167114035Y-74382924D01*
X168194495Y-28440915D02*
X168244605Y-28445929D01*
X169102994Y-106976312D02*
X169091788Y-107025410D01*
X168859401Y-96314210D02*
X168892723Y-96351969D01*
X169108993Y-74283360D02*
X169117738Y-74332955D01*
X167721093Y-47939552D02*
X167680674Y-47910493D01*
X167800234Y-110750740D02*
X167824784Y-110707811D01*
X185727446Y-47517698D02*
X168491375Y-47520080D01*
X190633680Y-113846243D02*
X190705677Y-113360877D01*
X169084147Y-29150388D02*
X169097787Y-29198866D01*
X167758358Y-64028187D02*
X167749837Y-63979473D01*
X168386344Y-108473280D02*
X168433066Y-108489490D01*
X168557762Y-112479876D02*
X168595136Y-112512858D01*
X168037541Y-62747965D02*
X167987431Y-62742951D01*
X167163928Y-84603927D02*
X167147889Y-84556190D01*
X167824784Y-41130717D02*
X167853455Y-41090422D01*
X168666990Y-96152758D02*
X168708599Y-96181127D01*
X169028997Y-96562962D02*
X169049709Y-96608866D01*
X168004467Y-70536979D02*
X167954701Y-70535738D01*
X168818238Y-84981513D02*
X168781322Y-85015766D01*
X167450714Y-28690812D02*
X167489292Y-28658441D01*
X169006022Y-51482753D02*
X169028997Y-51527566D01*
X167981874Y-86860020D02*
X167941228Y-86831849D01*
X168151056Y-25475736D02*
X168103135Y-25489219D01*
X185728202Y-31658849D02*
X185727446Y-25000000D01*
X168428688Y-44852261D02*
X168474123Y-44872762D01*
X167832898Y-45036037D02*
X167862995Y-44996304D01*
X168477958Y-86878435D02*
X168433066Y-86899181D01*
X168630801Y-43104807D02*
X168660459Y-43144380D01*
X167140248Y-51716564D02*
X167153888Y-51668086D01*
X167797346Y-51008382D02*
X167845468Y-50993538D01*
X168686064Y-110739784D02*
X168707363Y-110784415D01*
X167847451Y-112568889D02*
X167879492Y-112530705D01*
X168618019Y-40097777D02*
X168573792Y-40121862D01*
X168520581Y-88877356D02*
X168477958Y-88902435D01*
X168520581Y-43841960D02*
X168477958Y-43867039D01*
X167188326Y-29055772D02*
X167209038Y-29009868D01*
X152000000Y-47520080D02*
X152000000Y-46417698D01*
X167372635Y-39910066D02*
X167339313Y-39872307D01*
X168488012Y-51025606D02*
X168534418Y-51045168D01*
X168233552Y-89853249D02*
X168283383Y-89854492D01*
X167188326Y-74091168D02*
X167209038Y-74045264D01*
X168724150Y-66088040D02*
X168707363Y-66134558D01*
X168289253Y-85937359D02*
X168338250Y-85944067D01*
X168859401Y-28761116D02*
X168892723Y-28798875D01*
X167147889Y-84556190D02*
X167134249Y-84507712D01*
X168742744Y-85048137D02*
X168702600Y-85078545D01*
X168597378Y-63562055D02*
X168630801Y-63598505D01*
X168244605Y-95999023D02*
X168294402Y-96006529D01*
X168190474Y-41896996D02*
X168141658Y-41889078D01*
X145000000Y-25002382D02*
X111273818Y-25002382D01*
X168597378Y-109308918D02*
X168560517Y-109341887D01*
X167838621Y-88749362D02*
X167811978Y-88707699D01*
X167934273Y-89962178D02*
X167974744Y-89933081D01*
X169068108Y-96655745D02*
X169084147Y-96703482D01*
X167579429Y-25283679D02*
X167553471Y-25241201D01*
X185728202Y-76694245D02*
X185727446Y-70035396D01*
X167658244Y-73584716D02*
X167703617Y-73562866D01*
X167961203Y-108542234D02*
X168003192Y-108516108D01*
X167103018Y-84258487D02*
X167109017Y-74483488D01*
X167747394Y-88422415D02*
X167753495Y-88373339D01*
X168520581Y-63499919D02*
X168560517Y-63529086D01*
X167921999Y-65560984D02*
X167961203Y-65530838D01*
X168239833Y-64417750D02*
X168190474Y-64414694D01*
X167450714Y-96243906D02*
X167489292Y-96211535D01*
X167209038Y-29009868D02*
X167232013Y-28965055D01*
X168047557Y-63458862D02*
X168093864Y-63441502D01*
X168666990Y-51117362D02*
X168708599Y-51145731D01*
X168477958Y-88016538D02*
X168520581Y-88041617D01*
X167278517Y-39792044D02*
X167251194Y-39749741D01*
X168188496Y-40230267D02*
X168138199Y-40232778D01*
X168660459Y-41679801D02*
X168630801Y-41719374D01*
X168736259Y-88557790D02*
X168724150Y-88605738D01*
X167749837Y-43485775D02*
X167746170Y-43436458D01*
X109356828Y-117490189D02*
X109818822Y-117655493D01*
X168560517Y-43812793D02*
X168520581Y-43841960D01*
X167345312Y-96351969D02*
X167378634Y-96314210D01*
X168134757Y-44830234D02*
X168183846Y-44821578D01*
X187729754Y-114870792D02*
X152000000Y-114870792D01*
X168338250Y-109444604D02*
X168289253Y-109451312D01*
X168520581Y-43006221D02*
X168560517Y-43035388D01*
X167809582Y-47984918D02*
X167764206Y-47964443D01*
X167921999Y-110596380D02*
X167961203Y-110566234D01*
X168434690Y-40180498D02*
X168386568Y-40195342D01*
X167764206Y-47964443D02*
X167721093Y-47939552D01*
X167703617Y-73562866D02*
X167750023Y-73543304D01*
X169123020Y-106776185D02*
X169121764Y-106826529D01*
X169000023Y-107259221D02*
X168974843Y-107302835D01*
X167764206Y-25446745D02*
X167721093Y-25421854D01*
X168040374Y-112415039D02*
X168086774Y-112396828D01*
X169108993Y-96801058D02*
X169117738Y-96850653D01*
X168003192Y-110540108D02*
X168047557Y-110518258D01*
X169078148Y-107073888D02*
X169062109Y-107121625D01*
X168004467Y-48019281D02*
X167954701Y-48018040D01*
X168485797Y-47594505D02*
X168475933Y-47643300D01*
X167110272Y-29397747D02*
X167114035Y-29347528D01*
X167703617Y-51045168D02*
X167750023Y-51025606D01*
X169043710Y-39615410D02*
X169022998Y-39661314D01*
X108492394Y-117028140D02*
X108913262Y-117280398D01*
X167753495Y-88373339D02*
X167764414Y-88325106D01*
X168707363Y-109145954D02*
X168686064Y-109190585D01*
X168660459Y-109232895D02*
X168630801Y-109272468D01*
X168706756Y-67641178D02*
X168723804Y-67688018D01*
X168824237Y-96278159D02*
X168859401Y-96314210D01*
X167885966Y-41053157D02*
X167921999Y-41019286D01*
X169097787Y-74234262D02*
X169108993Y-74283360D01*
X167903564Y-88823801D02*
X167869249Y-88788190D01*
X167885966Y-65594855D02*
X167921999Y-65560984D01*
X168338250Y-108461765D02*
X168386344Y-108473280D01*
X168980842Y-96474535D02*
X169006022Y-96518149D01*
X168241696Y-25434837D02*
X168197397Y-25457548D01*
X168685128Y-112631665D02*
X168706756Y-112676574D01*
X152000000Y-114870792D02*
X152000000Y-112870792D01*
X168597378Y-88103753D02*
X168630801Y-88140203D01*
X145000000Y-114870792D02*
X109270246Y-114870792D01*
X169091788Y-61990014D02*
X169078148Y-62038492D01*
X167824784Y-43154717D02*
X167853455Y-43114422D01*
X169091788Y-84507712D02*
X169078148Y-84556190D01*
X168660459Y-63638078D02*
X168686064Y-63680388D01*
X167795533Y-112653850D02*
X167819372Y-112610074D01*
X167785279Y-90158876D02*
X167806907Y-90113967D01*
X168047557Y-40941164D02*
X168093864Y-40923804D01*
X168724150Y-63771537D02*
X168736259Y-63819485D01*
X169084147Y-51668086D02*
X169097787Y-51716564D01*
X168686064Y-108715784D02*
X168707363Y-108760415D01*
X167780045Y-64099088D02*
X167771649Y-64075822D01*
X168070496Y-111445364D02*
X168025104Y-111425735D01*
X168630801Y-108633901D02*
X168660459Y-108673474D01*
X168338250Y-86926906D02*
X168289253Y-86933614D01*
X167169927Y-29102651D02*
X167188326Y-29055772D01*
X169129019Y-29448092D02*
X169123020Y-39223091D01*
X168322435Y-92929884D02*
X168283514Y-92960922D01*
X152000000Y-45317698D02*
X167746018Y-45317698D01*
X168239833Y-109453146D02*
X168190474Y-109450090D01*
X168117604Y-86918715D02*
X168070496Y-86903666D01*
X167514846Y-70184966D02*
X167502562Y-70136723D01*
X167758358Y-109063583D02*
X167749837Y-109014869D01*
X168386344Y-40920186D02*
X168433066Y-40936396D01*
X168534418Y-96080564D02*
X168579791Y-96102414D01*
X168886724Y-39872307D02*
X168886724Y-39872307D01*
X111270246Y-117870792D02*
X185729754Y-117870792D01*
X167109017Y-29448092D02*
X167110272Y-29397747D01*
X168093864Y-40923804D02*
X168141658Y-40911103D01*
X169022998Y-62179012D02*
X169000023Y-62223825D01*
X167824784Y-64187162D02*
X167800234Y-64144233D01*
X168660459Y-43703801D02*
X168630801Y-43743374D01*
X168343764Y-50981111D02*
X168392567Y-50993538D01*
X168392567Y-96028934D02*
X168440689Y-96043778D01*
X168017912Y-89908158D02*
X168063347Y-89887657D01*
X167104273Y-84308831D02*
X167103018Y-84258487D01*
X145000000Y-70037778D02*
X145000000Y-70037778D01*
X167764414Y-65807408D02*
X167780045Y-65760489D01*
X168386344Y-88939391D02*
X168338250Y-88950906D01*
X168093864Y-63441502D02*
X168141658Y-63428801D01*
X168685128Y-45078571D02*
X168706756Y-45123480D01*
X169117738Y-96850653D02*
X169124000Y-96900622D01*
X168288403Y-107770841D02*
X168238606Y-107778347D01*
X190705677Y-113360877D02*
X190729754Y-112870792D01*
X168103135Y-48006917D02*
X168054109Y-48015561D01*
X167954701Y-25500342D02*
X167905305Y-25494152D01*
X167954701Y-70535738D02*
X167905305Y-70529548D01*
X167614017Y-96126499D02*
X167658244Y-96102414D01*
X111270246Y-70171487D02*
X111270246Y-76694245D01*
X168294402Y-73488831D02*
X168343764Y-73498809D01*
X168047557Y-110518258D02*
X168093864Y-110500898D01*
X167894271Y-28463413D02*
X167943633Y-28453435D01*
X168686064Y-65704388D02*
X168707363Y-65749019D01*
X168093837Y-50956102D02*
X168144198Y-50956102D01*
X167529436Y-28628033D02*
X167571045Y-28599664D01*
X168980842Y-73956837D02*
X169006022Y-74000451D01*
X167652245Y-85157258D02*
X167608018Y-85133173D01*
X168707363Y-110784415D02*
X168724150Y-110830933D01*
X168724150Y-64064040D02*
X168707363Y-64110558D01*
X168477958Y-65498840D02*
X168520581Y-65523919D01*
X188086737Y-117280398D02*
X188507605Y-117028140D01*
X168707363Y-63725019D02*
X168724150Y-63771537D01*
X168043540Y-95994009D02*
X168093837Y-95991498D01*
X168461260Y-70208568D02*
X168441923Y-70254440D01*
X167753495Y-41313943D02*
X167764414Y-41265710D01*
X168358072Y-92895125D02*
X168322435Y-92929884D01*
X167749837Y-63979473D02*
X167746170Y-63930156D01*
X169084147Y-96703482D02*
X169097787Y-96751960D01*
X168560517Y-88848189D02*
X168520581Y-88877356D01*
X167771649Y-109111218D02*
X167758358Y-109063583D01*
X185729754Y-67835396D02*
X185728997Y-61176547D01*
X167163928Y-107121625D02*
X167147889Y-107073888D01*
X167134249Y-84507712D02*
X167123043Y-84458614D01*
X167797346Y-28490684D02*
X167845468Y-28475840D01*
X169124000Y-74382924D02*
X169127763Y-74433143D01*
X167758358Y-111087583D02*
X167749837Y-111038869D01*
X167755931Y-90254020D02*
X167768231Y-90205716D01*
X169006022Y-96518149D02*
X169028997Y-96562962D01*
X168358072Y-47859729D02*
X168322435Y-47894488D01*
X168520581Y-111395054D02*
X168477958Y-111420133D01*
X167579429Y-70319075D02*
X167553471Y-70276597D01*
X168070496Y-43892270D02*
X168025104Y-43872641D01*
X167750023Y-51025606D02*
X167797346Y-51008382D01*
X168337765Y-62725467D02*
X168288403Y-62735445D01*
X168289253Y-63419661D02*
X168338250Y-63426369D01*
X167284516Y-28879138D02*
X167313913Y-28838248D01*
X168194495Y-50958613D02*
X168244605Y-50963627D01*
X168110597Y-89871781D02*
X168159193Y-89860690D01*
X167797346Y-73526080D02*
X167845468Y-73511236D01*
X167811978Y-43672303D02*
X167789581Y-43628212D01*
X168289253Y-66439916D02*
X168239833Y-66441750D01*
X168490754Y-92580366D02*
X168485797Y-92629901D01*
X167129042Y-96801058D02*
X167140248Y-96751960D01*
X167746170Y-65954156D02*
X167747394Y-65904717D01*
X152000000Y-25002382D02*
X152000000Y-23000000D01*
X168386344Y-63437884D02*
X168433066Y-63454094D01*
X168134757Y-112383328D02*
X168183846Y-112374672D01*
X167444715Y-39980370D02*
X167407799Y-39946117D01*
X168461260Y-47690870D02*
X168441923Y-47736742D01*
X167129042Y-74283360D02*
X167140248Y-74234262D01*
X168093837Y-73473800D02*
X168144198Y-73473800D01*
X109356828Y-20380602D02*
X108913262Y-20590393D01*
X168332842Y-112378388D02*
X168381438Y-112389479D01*
X167531872Y-47714047D02*
X167514846Y-47667268D01*
X168338250Y-88950906D02*
X168289253Y-88957614D01*
X167514846Y-47667268D02*
X167502562Y-47619025D01*
X167203039Y-107214408D02*
X167182327Y-107168504D01*
X168087838Y-107785872D02*
X168037541Y-107783361D01*
X167885966Y-43077157D02*
X167921999Y-43043286D01*
X169062109Y-107121625D02*
X169043710Y-107168504D01*
X168003192Y-63480712D02*
X168047557Y-63458862D01*
X168190474Y-109450090D02*
X168165968Y-109446735D01*
X167658244Y-96102414D02*
X167703617Y-96080564D01*
X168743572Y-86484880D02*
X168736259Y-86533790D01*
X167824784Y-63648415D02*
X167853455Y-63608120D01*
X167579429Y-92836773D02*
X167553471Y-92794295D01*
X168390071Y-25303895D02*
X168358072Y-25342031D01*
X189265287Y-116406325D02*
X189594806Y-116042758D01*
X168630801Y-86754770D02*
X168597378Y-86791220D01*
X168859401Y-73796512D02*
X168892723Y-73834271D01*
X168528419Y-107696806D02*
X168482013Y-107716368D01*
X168629040Y-112549398D02*
X168659137Y-112589131D01*
X168748743Y-51176139D02*
X168787321Y-51208510D01*
X167791347Y-62698196D02*
X167744024Y-62680972D01*
X167853455Y-88149818D02*
X167885966Y-88112553D01*
X169084147Y-74185784D02*
X169097787Y-74234262D01*
X167147889Y-107073888D02*
X167134249Y-107025410D01*
X168560517Y-108564482D02*
X168597378Y-108597451D01*
X187181177Y-20215298D02*
X186705205Y-20096073D01*
X169118001Y-39323654D02*
X169111739Y-39373623D01*
X168070496Y-109421364D02*
X168025104Y-109401735D01*
X168283514Y-70443224D02*
X168241696Y-70470233D01*
X167974744Y-67415383D02*
X168017912Y-67390460D01*
X168660459Y-86715197D02*
X168630801Y-86754770D01*
X168666990Y-73635060D02*
X168708599Y-73663429D01*
X168953519Y-96432232D02*
X168980842Y-96474535D01*
X106270246Y-25000000D02*
X106270246Y-112870792D01*
X168702600Y-62560847D02*
X168660991Y-62589216D01*
X106650848Y-23086582D02*
X106485544Y-23548576D01*
X168441923Y-92772138D02*
X168418114Y-92815858D01*
X168433066Y-88923181D02*
X168386344Y-88939391D01*
X169121764Y-84308831D02*
X169118001Y-84359050D01*
X168283383Y-89854492D02*
X168332842Y-89860690D01*
X152000000Y-92555476D02*
X152000000Y-91453094D01*
X168736259Y-108854881D02*
X168743572Y-108903791D01*
X185728997Y-61176547D02*
X187729754Y-61176547D01*
X169022998Y-84696710D02*
X169000023Y-84741523D01*
X168736259Y-110878881D02*
X168743572Y-110927791D01*
X167780045Y-63736489D02*
X167800234Y-63691344D01*
X167697618Y-40143712D02*
X167652245Y-40121862D01*
X167853455Y-86125818D02*
X167885966Y-86088553D01*
X168618019Y-85133173D02*
X168573792Y-85157258D01*
X111270246Y-112870792D02*
X145000000Y-112870792D01*
X167652245Y-40121862D02*
X167608018Y-40097777D01*
X167407799Y-84981513D02*
X167372635Y-84945462D01*
X167571045Y-73635060D02*
X167614017Y-73608801D01*
X167789581Y-111181306D02*
X167771649Y-111135218D01*
X167749837Y-111038869D02*
X167746170Y-110989552D01*
X168087838Y-62750476D02*
X168037541Y-62747965D01*
X189594806Y-116042758D02*
X189887102Y-115648643D01*
X168337765Y-85243165D02*
X168288403Y-85253143D01*
X168337765Y-40207769D02*
X168288403Y-40217747D01*
X167140248Y-29198866D02*
X167153888Y-29150388D01*
X167492661Y-25002382D02*
X152000000Y-25002382D01*
X167780045Y-41218791D02*
X167800234Y-41173646D01*
X168573792Y-85157258D02*
X168528419Y-85179108D01*
X189887102Y-115648643D02*
X190139360Y-115227775D01*
X167987431Y-40225253D02*
X167937634Y-40217747D01*
X167789581Y-86639608D02*
X167771649Y-86593520D01*
X167565046Y-107624612D02*
X167523437Y-107596243D01*
X152000000Y-70037778D02*
X152000000Y-68935396D01*
X168047557Y-65482862D02*
X168093864Y-65465502D01*
X167771649Y-66099822D02*
X167758358Y-66052187D01*
X168338250Y-43915510D02*
X168289253Y-43922218D01*
X168482013Y-85198670D02*
X168434690Y-85215894D01*
X168597378Y-111332918D02*
X168560517Y-111365887D01*
X168037541Y-40230267D02*
X167987431Y-40225253D01*
X168283514Y-25407828D02*
X168241696Y-25434837D01*
X167203039Y-62179012D02*
X167182327Y-62133108D01*
X167758358Y-41510489D02*
X167749837Y-41461775D01*
X167961203Y-64328739D02*
X167921999Y-64298593D01*
X168117604Y-43907319D02*
X168070496Y-43892270D01*
X152000000Y-91453094D02*
X152000000Y-90353094D01*
X168440689Y-51008382D02*
X168488012Y-51025606D01*
X110294794Y-20096073D02*
X109818822Y-20215298D01*
X168190474Y-87962581D02*
X168239833Y-87959525D01*
X167284516Y-51396836D02*
X167313913Y-51355946D01*
X187181177Y-117655493D02*
X187643171Y-117490189D01*
X168093864Y-66418075D02*
X168047557Y-66400715D01*
X168239833Y-40900129D02*
X168289253Y-40901963D01*
X107405193Y-21828033D02*
X107112897Y-22222148D01*
X168070496Y-88927666D02*
X168025104Y-88908037D01*
X168708599Y-96181127D02*
X168748743Y-96211535D01*
X168474123Y-89908158D02*
X168517291Y-89933081D01*
X167869249Y-109281888D02*
X167838621Y-109243060D01*
X168381438Y-89871781D02*
X168428688Y-89887657D01*
X169117738Y-29297559D02*
X169124000Y-29347528D01*
X169000023Y-39706127D02*
X168974843Y-39749741D01*
X168433066Y-63454094D02*
X168477958Y-63474840D01*
X168025104Y-111425735D02*
X167981874Y-111401718D01*
X168597378Y-66297522D02*
X168560517Y-66330491D01*
X168003192Y-42987014D02*
X168047557Y-42965164D01*
X167941228Y-111373547D02*
X167903564Y-111341499D01*
X168818238Y-62463815D02*
X168781322Y-62498068D01*
X168560517Y-43035388D02*
X168597378Y-43068357D01*
X168743572Y-65892395D02*
X168746018Y-65941789D01*
X168418114Y-70298160D02*
X168390071Y-70339291D01*
X168520581Y-110559315D02*
X168560517Y-110588482D01*
X168630801Y-41719374D02*
X168597378Y-41755824D01*
X167251194Y-107302835D02*
X167226014Y-107259221D01*
X169117738Y-51815257D02*
X169124000Y-51865226D01*
X167937634Y-62735445D02*
X167888272Y-62725467D01*
X145000000Y-68935396D02*
X145000000Y-70037778D01*
X187643171Y-20380602D02*
X187181177Y-20215298D01*
X111273818Y-47520080D02*
X111270246Y-47653789D01*
X168194495Y-73476311D02*
X168244605Y-73481325D01*
X169078148Y-84556190D02*
X169062109Y-84603927D01*
X168595136Y-67477462D02*
X168629040Y-67514002D01*
X167838621Y-41689966D02*
X167811978Y-41648303D01*
X168686064Y-64155189D02*
X168660459Y-64197499D01*
X167987431Y-85260649D02*
X167937634Y-85253143D01*
X111270246Y-31658849D02*
X109270246Y-31658849D01*
X167444715Y-62498068D02*
X167407799Y-62463815D01*
X167492661Y-70037778D02*
X152000000Y-70037778D01*
X168434690Y-85215894D02*
X168386568Y-85230738D01*
X167758358Y-66052187D02*
X167749837Y-66003473D01*
X111270246Y-106211943D02*
X111270246Y-112870792D01*
X167680674Y-70428191D02*
X167643348Y-70395251D01*
X169124000Y-51865226D02*
X169127763Y-51915445D01*
X168918123Y-39832934D02*
X168886724Y-39872307D01*
X168141658Y-63428801D02*
X168190474Y-63420883D01*
X168070496Y-86903666D02*
X168025104Y-86884037D01*
X168289253Y-87961359D02*
X168338250Y-87968067D01*
X189594806Y-21828033D02*
X189265287Y-21464466D01*
X168660991Y-62589216D02*
X168618019Y-62615475D01*
X168743572Y-65991182D02*
X168736259Y-66040092D01*
X168953519Y-28879138D02*
X168980842Y-28921441D01*
X167764414Y-86301106D02*
X167780045Y-86254187D01*
X167523437Y-62560847D02*
X167483293Y-62530439D01*
X168630801Y-64237072D02*
X168597378Y-64273522D01*
X168434690Y-107733592D02*
X168386568Y-107748436D01*
X167856771Y-25483075D02*
X167809582Y-25467220D01*
X168886724Y-107425401D02*
X168853402Y-107463160D01*
X111270246Y-61176547D02*
X111270246Y-67835396D01*
X168618019Y-107650871D02*
X168573792Y-107674956D01*
X168724150Y-88313235D02*
X168736259Y-88361183D01*
X168338250Y-65450369D02*
X168386344Y-65461884D01*
X168624018Y-73608801D02*
X168666990Y-73635060D01*
X167188326Y-51573470D02*
X167209038Y-51527566D01*
X106485544Y-114322215D02*
X106650848Y-114784209D01*
X168748743Y-28658441D02*
X168787321Y-28690812D01*
X167758358Y-88569885D02*
X167749837Y-88521171D01*
X167553471Y-25241201D02*
X167531872Y-25196349D01*
X167495142Y-47569799D02*
X167492661Y-47520080D01*
X168579791Y-28549320D02*
X168624018Y-28573405D01*
X168025104Y-41848641D02*
X167981874Y-41824624D01*
X167502562Y-70136723D02*
X167495142Y-70087497D01*
X167489292Y-96211535D02*
X167529436Y-96181127D01*
X167811978Y-86683699D02*
X167789581Y-86639608D01*
X145000000Y-67835396D02*
X145000000Y-68935396D01*
X167888272Y-85243165D02*
X167839469Y-85230738D01*
X168560517Y-86824189D02*
X168520581Y-86853356D01*
X190514455Y-23548576D02*
X190349151Y-23086582D01*
X152000000Y-90353094D02*
X167746018Y-90353094D01*
X167811978Y-88707699D02*
X167789581Y-88663608D01*
X167571045Y-51117362D02*
X167614017Y-51091103D01*
X168630801Y-43743374D02*
X168597378Y-43779824D01*
X168025104Y-43872641D02*
X167981874Y-43848624D01*
X168781322Y-39980370D02*
X168742744Y-40012741D01*
X169097787Y-29198866D02*
X169108993Y-29247964D01*
X167307914Y-84868330D02*
X167278517Y-84827440D01*
X167809582Y-25467220D02*
X167764206Y-25446745D01*
X167483293Y-85048137D02*
X167444715Y-85015766D01*
X168686064Y-43186690D02*
X168707363Y-43231321D01*
X167120297Y-96850653D02*
X167129042Y-96801058D01*
X167838621Y-43713966D02*
X167811978Y-43672303D01*
X168485797Y-92629901D02*
X168485797Y-92629901D01*
X186705205Y-20096073D02*
X186219839Y-20024076D01*
X109270246Y-106211943D02*
X111270246Y-106211943D01*
X168054109Y-70533259D02*
X168004467Y-70536979D01*
X167755931Y-112771718D02*
X167768231Y-112723414D01*
X168338250Y-85944067D02*
X168386344Y-85955582D01*
X168686064Y-86198086D02*
X168707363Y-86242717D01*
X187729754Y-106211943D02*
X187729754Y-114870792D01*
X111270246Y-45317698D02*
X145000000Y-45317698D01*
X167845468Y-73511236D02*
X167894271Y-73498809D01*
X168190474Y-42927185D02*
X168239833Y-42924129D01*
X168190474Y-64414694D02*
X168141658Y-64406776D01*
X167609488Y-70358758D02*
X167579429Y-70319075D01*
X168918123Y-84868330D02*
X168886724Y-84907703D01*
X169028997Y-29009868D02*
X169049709Y-29055772D01*
X169091788Y-107025410D02*
X169078148Y-107073888D01*
X107112897Y-22222148D02*
X106860639Y-22643016D01*
X167614017Y-51091103D02*
X167658244Y-51067018D01*
X167680674Y-47910493D02*
X167643348Y-47877553D01*
X168659137Y-45036037D02*
X168685128Y-45078571D01*
X168723804Y-112723414D02*
X168736104Y-112771718D01*
X167768231Y-112723414D02*
X167768231Y-112723414D01*
X167764414Y-88325106D02*
X167780045Y-88278187D01*
X168418114Y-47780462D02*
X168390071Y-47821593D01*
X167129042Y-51765662D02*
X167140248Y-51716564D01*
X168043540Y-28440915D02*
X168093837Y-28438404D01*
X167169927Y-74138047D02*
X167188326Y-74091168D01*
X169108993Y-51765662D02*
X169117738Y-51815257D01*
X167514846Y-92702664D02*
X167502562Y-92654421D01*
X168337765Y-107760863D02*
X168288403Y-107770841D01*
X167502562Y-47619025D02*
X167495142Y-47569799D01*
X169111739Y-84409019D02*
X169102994Y-84458614D01*
X169049709Y-74091168D02*
X169068108Y-74138047D01*
X108492394Y-20842651D02*
X108098279Y-21134947D01*
X167108036Y-106876748D02*
X167104273Y-106826529D01*
X168892723Y-28798875D02*
X168924122Y-28838248D01*
X167748502Y-90303310D02*
X167755931Y-90254020D01*
M02*
