%TF.GenerationSoftware,KiCad,Pcbnew,7.0.2*%
%TF.CreationDate,2023-06-01T19:33:28+09:00*%
%TF.ProjectId,PmodPLED_kikit,506d6f64-504c-4454-945f-6b696b69742e,rev?*%
%TF.SameCoordinates,Original*%
%TF.FileFunction,Soldermask,Top*%
%TF.FilePolarity,Negative*%
%FSLAX46Y46*%
G04 Gerber Fmt 4.6, Leading zero omitted, Abs format (unit mm)*
G04 Created by KiCad (PCBNEW 7.0.2) date 2023-06-01 19:33:28*
%MOMM*%
%LPD*%
G01*
G04 APERTURE LIST*
G04 Aperture macros list*
%AMRoundRect*
0 Rectangle with rounded corners*
0 $1 Rounding radius*
0 $2 $3 $4 $5 $6 $7 $8 $9 X,Y pos of 4 corners*
0 Add a 4 corners polygon primitive as box body*
4,1,4,$2,$3,$4,$5,$6,$7,$8,$9,$2,$3,0*
0 Add four circle primitives for the rounded corners*
1,1,$1+$1,$2,$3*
1,1,$1+$1,$4,$5*
1,1,$1+$1,$6,$7*
1,1,$1+$1,$8,$9*
0 Add four rect primitives between the rounded corners*
20,1,$1+$1,$2,$3,$4,$5,0*
20,1,$1+$1,$4,$5,$6,$7,0*
20,1,$1+$1,$6,$7,$8,$9,0*
20,1,$1+$1,$8,$9,$2,$3,0*%
%AMFreePoly0*
4,1,5,2.000000,-1.100000,-2.000000,-1.100000,-2.000000,1.100000,2.000000,1.100000,2.000000,-1.100000,2.000000,-1.100000,$1*%
%AMFreePoly1*
4,1,5,2.200000,-2.420000,-2.200000,-2.420000,-2.200000,2.420000,2.200000,2.420000,2.200000,-2.420000,2.200000,-2.420000,$1*%
G04 Aperture macros list end*
%ADD10C,0.500000*%
%ADD11R,1.700000X1.700000*%
%ADD12O,1.700000X1.700000*%
%ADD13R,1.200000X1.200000*%
%ADD14C,1.200000*%
%ADD15C,1.000000*%
%ADD16R,1.905000X1.905000*%
%ADD17C,1.905000*%
%ADD18FreePoly0,0.000000*%
%ADD19FreePoly1,0.000000*%
%ADD20R,1.400000X1.400000*%
%ADD21R,1.300000X1.400000*%
%ADD22RoundRect,0.750000X0.750000X1.000000X-0.750000X1.000000X-0.750000X-1.000000X0.750000X-1.000000X0*%
%ADD23RoundRect,0.750000X1.000000X0.750000X-1.000000X0.750000X-1.000000X-0.750000X1.000000X-0.750000X0*%
%ADD24R,3.500000X3.500000*%
%ADD25C,1.800000*%
G04 APERTURE END LIST*
D10*
%TO.C,REF\u002A\u002A*%
X111020246Y-103986943D03*
%TD*%
%TO.C,REF\u002A\u002A*%
X106841675Y-113270792D03*
%TD*%
D11*
%TO.C,J2*%
X115414018Y-74454487D03*
D12*
X115414018Y-76994487D03*
X115414018Y-79534487D03*
X115414018Y-82074487D03*
X115414018Y-84614487D03*
X115414018Y-87154487D03*
%TD*%
D10*
%TO.C,REF\u002A\u002A*%
X147625000Y-46567698D03*
%TD*%
D13*
%TO.C,IC1*%
X136369018Y-54041789D03*
D14*
X133829018Y-54041789D03*
X131289018Y-54041789D03*
X128749018Y-54041789D03*
X126209018Y-54041789D03*
X123669018Y-54041789D03*
X121129018Y-54041789D03*
X118589018Y-54041789D03*
X136369018Y-61661789D03*
D15*
X133829018Y-61661789D03*
D14*
X131289018Y-61661789D03*
X128749018Y-61661789D03*
X126209018Y-61661789D03*
X123669018Y-61661789D03*
D15*
X121129018Y-61661789D03*
D14*
X118589018Y-61661789D03*
%TD*%
D16*
%TO.C,IC2*%
X183740018Y-78645487D03*
D17*
X183740018Y-76105487D03*
X183740018Y-73565487D03*
%TD*%
D10*
%TO.C,REF\u002A\u002A*%
X185729754Y-22428572D03*
%TD*%
%TO.C,REF\u002A\u002A*%
X150250000Y-46567698D03*
%TD*%
%TO.C,REF\u002A\u002A*%
X150250000Y-91203094D03*
%TD*%
%TO.C,REF\u002A\u002A*%
X111270246Y-21571429D03*
%TD*%
%TO.C,REF\u002A\u002A*%
X111020246Y-80794245D03*
%TD*%
%TO.C,REF\u002A\u002A*%
X111020246Y-79919245D03*
%TD*%
%TO.C,REF\u002A\u002A*%
X185978599Y-103111914D03*
%TD*%
D18*
%TO.C,D1*%
X140765024Y-31844097D03*
D19*
X140765024Y-36344097D03*
D18*
X140765024Y-40844097D03*
X161465024Y-40844097D03*
D19*
X161565024Y-36344097D03*
D18*
X161465024Y-31844097D03*
%TD*%
D10*
%TO.C,REF\u002A\u002A*%
X111270246Y-116842220D03*
%TD*%
%TO.C,REF\u002A\u002A*%
X185978798Y-104861914D03*
%TD*%
%TO.C,REF\u002A\u002A*%
X149375000Y-68885396D03*
%TD*%
%TO.C,REF\u002A\u002A*%
X149375000Y-113520792D03*
%TD*%
D20*
%TO.C,D3*%
X160142018Y-88805487D03*
D21*
X163192018Y-88805487D03*
%TD*%
D10*
%TO.C,REF\u002A\u002A*%
X105984532Y-26000000D03*
%TD*%
D13*
%TO.C,IC1*%
X136369018Y-76359487D03*
D14*
X133829018Y-76359487D03*
X131289018Y-76359487D03*
X128749018Y-76359487D03*
X126209018Y-76359487D03*
X123669018Y-76359487D03*
X121129018Y-76359487D03*
X118589018Y-76359487D03*
X136369018Y-83979487D03*
D15*
X133829018Y-83979487D03*
D14*
X131289018Y-83979487D03*
X128749018Y-83979487D03*
X126209018Y-83979487D03*
X123669018Y-83979487D03*
D15*
X121129018Y-83979487D03*
D14*
X118589018Y-83979487D03*
%TD*%
D10*
%TO.C,REF\u002A\u002A*%
X111020246Y-81669245D03*
%TD*%
%TO.C,REF\u002A\u002A*%
X111020246Y-102236943D03*
%TD*%
%TO.C,REF\u002A\u002A*%
X111020246Y-36158849D03*
%TD*%
%TO.C,REF\u002A\u002A*%
X111020246Y-59351547D03*
%TD*%
D22*
%TO.C,J1*%
X177771018Y-86460987D03*
D23*
X174771018Y-81760987D03*
D24*
X171771018Y-86460987D03*
%TD*%
D10*
%TO.C,REF\u002A\u002A*%
X185978699Y-81669216D03*
%TD*%
%TO.C,REF\u002A\u002A*%
X111020246Y-101361943D03*
%TD*%
%TO.C,REF\u002A\u002A*%
X185978599Y-36158821D03*
%TD*%
%TO.C,REF\u002A\u002A*%
X188444039Y-26000000D03*
%TD*%
D20*
%TO.C,D3*%
X160142018Y-111123185D03*
D21*
X163192018Y-111123185D03*
%TD*%
D10*
%TO.C,REF\u002A\u002A*%
X111020246Y-58476547D03*
%TD*%
D13*
%TO.C,IC1*%
X136369018Y-31724091D03*
D14*
X133829018Y-31724091D03*
X131289018Y-31724091D03*
X128749018Y-31724091D03*
X126209018Y-31724091D03*
X123669018Y-31724091D03*
X121129018Y-31724091D03*
X118589018Y-31724091D03*
X136369018Y-39344091D03*
D15*
X133829018Y-39344091D03*
D14*
X131289018Y-39344091D03*
X128749018Y-39344091D03*
X126209018Y-39344091D03*
X123669018Y-39344091D03*
D15*
X121129018Y-39344091D03*
D14*
X118589018Y-39344091D03*
%TD*%
D10*
%TO.C,REF\u002A\u002A*%
X185729754Y-115985077D03*
%TD*%
%TO.C,REF\u002A\u002A*%
X111020246Y-79044245D03*
%TD*%
D16*
%TO.C,IC2*%
X183740018Y-100963185D03*
D17*
X183740018Y-98423185D03*
X183740018Y-95883185D03*
%TD*%
D25*
%TO.C,TP1*%
X135099018Y-86646487D03*
%TD*%
D10*
%TO.C,REF\u002A\u002A*%
X185978500Y-57601518D03*
%TD*%
%TO.C,REF\u002A\u002A*%
X146750000Y-91203094D03*
%TD*%
%TO.C,REF\u002A\u002A*%
X111020246Y-103111943D03*
%TD*%
D11*
%TO.C,J2*%
X115414018Y-29819091D03*
D12*
X115414018Y-32359091D03*
X115414018Y-34899091D03*
X115414018Y-37439091D03*
X115414018Y-39979091D03*
X115414018Y-42519091D03*
%TD*%
D10*
%TO.C,REF\u002A\u002A*%
X111020246Y-37033849D03*
%TD*%
%TO.C,REF\u002A\u002A*%
X111020246Y-82544245D03*
%TD*%
%TO.C,REF\u002A\u002A*%
X189301182Y-113270792D03*
%TD*%
D11*
%TO.C,J3*%
X156943018Y-72930487D03*
D12*
X159483018Y-72930487D03*
X162023018Y-72930487D03*
%TD*%
D10*
%TO.C,REF\u002A\u002A*%
X148500000Y-68885396D03*
%TD*%
D25*
%TO.C,TP1*%
X135099018Y-42011091D03*
%TD*%
D10*
%TO.C,REF\u002A\u002A*%
X185978798Y-60226518D03*
%TD*%
%TO.C,REF\u002A\u002A*%
X185729754Y-21571429D03*
%TD*%
%TO.C,REF\u002A\u002A*%
X107698818Y-113270792D03*
%TD*%
%TO.C,REF\u002A\u002A*%
X105984532Y-113270792D03*
%TD*%
D22*
%TO.C,J1*%
X177771018Y-41825591D03*
D23*
X174771018Y-37125591D03*
D24*
X171771018Y-41825591D03*
%TD*%
D10*
%TO.C,REF\u002A\u002A*%
X148500000Y-48070080D03*
%TD*%
%TO.C,REF\u002A\u002A*%
X150250000Y-25752382D03*
%TD*%
%TO.C,REF\u002A\u002A*%
X185729754Y-23285715D03*
%TD*%
%TO.C,REF\u002A\u002A*%
X111020246Y-60226547D03*
%TD*%
%TO.C,REF\u002A\u002A*%
X106841675Y-26000000D03*
%TD*%
%TO.C,REF\u002A\u002A*%
X111020246Y-34408849D03*
%TD*%
%TO.C,REF\u002A\u002A*%
X147625000Y-91203094D03*
%TD*%
%TO.C,REF\u002A\u002A*%
X148500000Y-91203094D03*
%TD*%
D25*
%TO.C,TP1*%
X135099018Y-64328789D03*
%TD*%
D10*
%TO.C,REF\u002A\u002A*%
X149375000Y-70387778D03*
%TD*%
D16*
%TO.C,IC2*%
X183740018Y-34010091D03*
D17*
X183740018Y-31470091D03*
X183740018Y-28930091D03*
%TD*%
D10*
%TO.C,REF\u002A\u002A*%
X147625000Y-68885396D03*
%TD*%
%TO.C,REF\u002A\u002A*%
X147625000Y-48070080D03*
%TD*%
%TO.C,REF\u002A\u002A*%
X111270246Y-22428572D03*
%TD*%
%TO.C,REF\u002A\u002A*%
X185978401Y-34408821D03*
%TD*%
D11*
%TO.C,J3*%
X156943018Y-28295091D03*
D12*
X159483018Y-28295091D03*
X162023018Y-28295091D03*
%TD*%
D10*
%TO.C,REF\u002A\u002A*%
X111020246Y-56726547D03*
%TD*%
%TO.C,REF\u002A\u002A*%
X149375000Y-25752382D03*
%TD*%
%TO.C,REF\u002A\u002A*%
X146750000Y-68885396D03*
%TD*%
%TO.C,REF\u002A\u002A*%
X111270246Y-115985077D03*
%TD*%
%TO.C,REF\u002A\u002A*%
X185729754Y-117699363D03*
%TD*%
%TO.C,REF\u002A\u002A*%
X150250000Y-70387778D03*
%TD*%
%TO.C,REF\u002A\u002A*%
X150250000Y-113520792D03*
%TD*%
%TO.C,REF\u002A\u002A*%
X146750000Y-25752382D03*
%TD*%
%TO.C,REF\u002A\u002A*%
X146750000Y-48070080D03*
%TD*%
%TO.C,REF\u002A\u002A*%
X190158325Y-113270792D03*
%TD*%
%TO.C,REF\u002A\u002A*%
X185978401Y-79044216D03*
%TD*%
%TO.C,REF\u002A\u002A*%
X185978401Y-101361914D03*
%TD*%
D25*
%TO.C,TP1*%
X135099018Y-108964185D03*
%TD*%
D10*
%TO.C,REF\u002A\u002A*%
X147625000Y-25752382D03*
%TD*%
%TO.C,REF\u002A\u002A*%
X188444039Y-113270792D03*
%TD*%
%TO.C,REF\u002A\u002A*%
X185978401Y-56726518D03*
%TD*%
%TO.C,REF\u002A\u002A*%
X108555961Y-26000000D03*
%TD*%
%TO.C,REF\u002A\u002A*%
X149375000Y-46567698D03*
%TD*%
%TO.C,REF\u002A\u002A*%
X185729754Y-118556506D03*
%TD*%
%TO.C,REF\u002A\u002A*%
X185978500Y-79919216D03*
%TD*%
%TO.C,REF\u002A\u002A*%
X111270246Y-117699363D03*
%TD*%
D22*
%TO.C,J1*%
X177771018Y-64143289D03*
D23*
X174771018Y-59443289D03*
D24*
X171771018Y-64143289D03*
%TD*%
D10*
%TO.C,REF\u002A\u002A*%
X149375000Y-91203094D03*
%TD*%
%TO.C,REF\u002A\u002A*%
X148500000Y-113520792D03*
%TD*%
%TO.C,REF\u002A\u002A*%
X111270246Y-118556506D03*
%TD*%
%TO.C,REF\u002A\u002A*%
X146750000Y-70387778D03*
%TD*%
%TO.C,REF\u002A\u002A*%
X185729754Y-116842220D03*
%TD*%
%TO.C,REF\u002A\u002A*%
X150250000Y-48070080D03*
%TD*%
%TO.C,REF\u002A\u002A*%
X185978500Y-35283821D03*
%TD*%
%TO.C,REF\u002A\u002A*%
X150250000Y-92705476D03*
%TD*%
%TO.C,REF\u002A\u002A*%
X148500000Y-92705476D03*
%TD*%
%TO.C,REF\u002A\u002A*%
X185978699Y-37033820D03*
%TD*%
%TO.C,REF\u002A\u002A*%
X149375000Y-48070080D03*
%TD*%
D13*
%TO.C,IC1*%
X136369018Y-98677185D03*
D14*
X133829018Y-98677185D03*
X131289018Y-98677185D03*
X128749018Y-98677185D03*
X126209018Y-98677185D03*
X123669018Y-98677185D03*
X121129018Y-98677185D03*
X118589018Y-98677185D03*
X136369018Y-106297185D03*
D15*
X133829018Y-106297185D03*
D14*
X131289018Y-106297185D03*
X128749018Y-106297185D03*
X126209018Y-106297185D03*
X123669018Y-106297185D03*
D15*
X121129018Y-106297185D03*
D14*
X118589018Y-106297185D03*
%TD*%
D10*
%TO.C,REF\u002A\u002A*%
X185729754Y-20714286D03*
%TD*%
D18*
%TO.C,D1*%
X140765024Y-98797191D03*
D19*
X140765024Y-103297191D03*
D18*
X140765024Y-107797191D03*
X161465024Y-107797191D03*
D19*
X161565024Y-103297191D03*
D18*
X161465024Y-98797191D03*
%TD*%
D11*
%TO.C,J3*%
X156943018Y-50612789D03*
D12*
X159483018Y-50612789D03*
X162023018Y-50612789D03*
%TD*%
D10*
%TO.C,REF\u002A\u002A*%
X148500000Y-25752382D03*
%TD*%
%TO.C,REF\u002A\u002A*%
X185978599Y-58476518D03*
%TD*%
%TO.C,REF\u002A\u002A*%
X185978599Y-80794216D03*
%TD*%
%TO.C,REF\u002A\u002A*%
X148500000Y-70387778D03*
%TD*%
%TO.C,REF\u002A\u002A*%
X146750000Y-46567698D03*
%TD*%
%TO.C,REF\u002A\u002A*%
X111270246Y-20714286D03*
%TD*%
%TO.C,REF\u002A\u002A*%
X191015468Y-113270792D03*
%TD*%
%TO.C,REF\u002A\u002A*%
X185978798Y-37908820D03*
%TD*%
D11*
%TO.C,J2*%
X115414018Y-52136789D03*
D12*
X115414018Y-54676789D03*
X115414018Y-57216789D03*
X115414018Y-59756789D03*
X115414018Y-62296789D03*
X115414018Y-64836789D03*
%TD*%
D11*
%TO.C,J3*%
X156943018Y-95248185D03*
D12*
X159483018Y-95248185D03*
X162023018Y-95248185D03*
%TD*%
D10*
%TO.C,REF\u002A\u002A*%
X185978699Y-103986914D03*
%TD*%
%TO.C,REF\u002A\u002A*%
X149375000Y-92705476D03*
%TD*%
%TO.C,REF\u002A\u002A*%
X150250000Y-68885396D03*
%TD*%
D20*
%TO.C,D3*%
X160142018Y-66487789D03*
D21*
X163192018Y-66487789D03*
%TD*%
D10*
%TO.C,REF\u002A\u002A*%
X111020246Y-57601547D03*
%TD*%
%TO.C,REF\u002A\u002A*%
X185978798Y-82544216D03*
%TD*%
%TO.C,REF\u002A\u002A*%
X189301182Y-26000000D03*
%TD*%
D11*
%TO.C,J2*%
X115414018Y-96772185D03*
D12*
X115414018Y-99312185D03*
X115414018Y-101852185D03*
X115414018Y-104392185D03*
X115414018Y-106932185D03*
X115414018Y-109472185D03*
%TD*%
D10*
%TO.C,REF\u002A\u002A*%
X147625000Y-113520792D03*
%TD*%
%TO.C,REF\u002A\u002A*%
X147625000Y-70387778D03*
%TD*%
%TO.C,REF\u002A\u002A*%
X146750000Y-92705476D03*
%TD*%
%TO.C,REF\u002A\u002A*%
X185978500Y-102236914D03*
%TD*%
D16*
%TO.C,IC2*%
X183740018Y-56327789D03*
D17*
X183740018Y-53787789D03*
X183740018Y-51247789D03*
%TD*%
D10*
%TO.C,REF\u002A\u002A*%
X191015468Y-26000000D03*
%TD*%
%TO.C,REF\u002A\u002A*%
X107698818Y-26000000D03*
%TD*%
%TO.C,REF\u002A\u002A*%
X190158325Y-26000000D03*
%TD*%
%TO.C,REF\u002A\u002A*%
X111020246Y-35283849D03*
%TD*%
%TO.C,REF\u002A\u002A*%
X148500000Y-46567698D03*
%TD*%
%TO.C,REF\u002A\u002A*%
X146750000Y-113520792D03*
%TD*%
%TO.C,REF\u002A\u002A*%
X111020246Y-104861943D03*
%TD*%
%TO.C,REF\u002A\u002A*%
X111270246Y-23285715D03*
%TD*%
D18*
%TO.C,D1*%
X140765024Y-76479493D03*
D19*
X140765024Y-80979493D03*
D18*
X140765024Y-85479493D03*
X161465024Y-85479493D03*
D19*
X161565024Y-80979493D03*
D18*
X161465024Y-76479493D03*
%TD*%
D10*
%TO.C,REF\u002A\u002A*%
X147625000Y-92705476D03*
%TD*%
%TO.C,REF\u002A\u002A*%
X185978699Y-59351518D03*
%TD*%
D22*
%TO.C,J1*%
X177771018Y-108778685D03*
D23*
X174771018Y-104078685D03*
D24*
X171771018Y-108778685D03*
%TD*%
D18*
%TO.C,D1*%
X140765024Y-54161795D03*
D19*
X140765024Y-58661795D03*
D18*
X140765024Y-63161795D03*
X161465024Y-63161795D03*
D19*
X161565024Y-58661795D03*
D18*
X161465024Y-54161795D03*
%TD*%
D10*
%TO.C,REF\u002A\u002A*%
X108555961Y-113270792D03*
%TD*%
D20*
%TO.C,D3*%
X160142018Y-44170091D03*
D21*
X163192018Y-44170091D03*
%TD*%
D10*
%TO.C,REF\u002A\u002A*%
X111020246Y-37908849D03*
%TD*%
M02*
