%TF.GenerationSoftware,KiCad,Pcbnew,7.0.9*%
%TF.CreationDate,2024-01-17T02:03:21+09:00*%
%TF.ProjectId,kikit,6b696b69-742e-46b6-9963-61645f706362,rev?*%
%TF.SameCoordinates,Original*%
%TF.FileFunction,Soldermask,Top*%
%TF.FilePolarity,Negative*%
%FSLAX46Y46*%
G04 Gerber Fmt 4.6, Leading zero omitted, Abs format (unit mm)*
G04 Created by KiCad (PCBNEW 7.0.9) date 2024-01-17 02:03:21*
%MOMM*%
%LPD*%
G01*
G04 APERTURE LIST*
G04 Aperture macros list*
%AMRoundRect*
0 Rectangle with rounded corners*
0 $1 Rounding radius*
0 $2 $3 $4 $5 $6 $7 $8 $9 X,Y pos of 4 corners*
0 Add a 4 corners polygon primitive as box body*
4,1,4,$2,$3,$4,$5,$6,$7,$8,$9,$2,$3,0*
0 Add four circle primitives for the rounded corners*
1,1,$1+$1,$2,$3*
1,1,$1+$1,$4,$5*
1,1,$1+$1,$6,$7*
1,1,$1+$1,$8,$9*
0 Add four rect primitives between the rounded corners*
20,1,$1+$1,$2,$3,$4,$5,0*
20,1,$1+$1,$4,$5,$6,$7,0*
20,1,$1+$1,$6,$7,$8,$9,0*
20,1,$1+$1,$8,$9,$2,$3,0*%
G04 Aperture macros list end*
%ADD10C,0.500000*%
%ADD11R,0.900000X1.500000*%
%ADD12RoundRect,0.237500X-0.250000X-0.237500X0.250000X-0.237500X0.250000X0.237500X-0.250000X0.237500X0*%
%ADD13RoundRect,0.237500X0.237500X-0.250000X0.237500X0.250000X-0.237500X0.250000X-0.237500X-0.250000X0*%
%ADD14R,0.700000X1.550000*%
%ADD15C,1.600000*%
%ADD16O,1.600000X1.600000*%
%ADD17R,0.800000X1.800000*%
%ADD18R,1.700000X1.700000*%
%ADD19O,1.700000X1.700000*%
%ADD20R,1.650000X1.650000*%
%ADD21C,1.650000*%
%ADD22R,1.600000X2.070000*%
%ADD23RoundRect,0.237500X0.300000X0.237500X-0.300000X0.237500X-0.300000X-0.237500X0.300000X-0.237500X0*%
G04 APERTURE END LIST*
D10*
%TO.C,KiKit_MB_21_5*%
X149500000Y-82435000D03*
%TD*%
%TO.C,KiKit_MB_5_4*%
X149500000Y-38162000D03*
%TD*%
D11*
%TO.C,D3*%
X139500000Y-78916000D03*
X142800000Y-78916000D03*
X142800000Y-74016000D03*
X139500000Y-74016000D03*
%TD*%
D12*
%TO.C,R5*%
X156207500Y-68624000D03*
X158032500Y-68624000D03*
%TD*%
D10*
%TO.C,KiKit_MB_13_3*%
X149500000Y-61611000D03*
%TD*%
%TO.C,KiKit_MB_5_5*%
X149500000Y-37287000D03*
%TD*%
D13*
%TO.C,R3*%
X156866000Y-35532500D03*
X156866000Y-33707500D03*
%TD*%
D11*
%TO.C,D1*%
X161058000Y-56342000D03*
X164358000Y-56342000D03*
X164358000Y-51442000D03*
X161058000Y-51442000D03*
%TD*%
%TO.C,D2*%
X167408000Y-33768000D03*
X170708000Y-33768000D03*
X170708000Y-28868000D03*
X167408000Y-28868000D03*
%TD*%
D10*
%TO.C,KiKit_MB_10_4*%
X147500000Y-58986000D03*
%TD*%
%TO.C,KiKit_MB_20_5*%
X131371000Y-92722000D03*
%TD*%
%TO.C,KiKit_MB_16_5*%
X165629000Y-70148000D03*
%TD*%
%TO.C,KiKit_MB_20_8*%
X128746000Y-92722000D03*
%TD*%
%TO.C,KiKit_MB_15_3*%
X163879000Y-49574000D03*
%TD*%
%TO.C,KiKit_MB_5_9*%
X149500000Y-33787000D03*
%TD*%
%TO.C,KiKit_MB_22_4*%
X181758000Y-81560000D03*
%TD*%
%TO.C,KiKit_MB_9_5*%
X115242000Y-59861000D03*
%TD*%
%TO.C,KiKit_MB_13_5*%
X149500000Y-59861000D03*
%TD*%
%TO.C,KiKit_MB_32_3*%
X184508000Y-92722000D03*
%TD*%
D14*
%TO.C,IC1*%
X170455000Y-46235000D03*
X171725000Y-46235000D03*
X172995000Y-46235000D03*
X174265000Y-46235000D03*
X174265000Y-40785000D03*
X172995000Y-40785000D03*
X171725000Y-40785000D03*
X170455000Y-40785000D03*
%TD*%
D12*
%TO.C,R6*%
X157985500Y-37414000D03*
X159810500Y-37414000D03*
%TD*%
D10*
%TO.C,KiKit_MB_12_4*%
X132246000Y-70148000D03*
%TD*%
D12*
%TO.C,R4*%
X154175500Y-73418000D03*
X156000500Y-73418000D03*
%TD*%
D11*
%TO.C,D3*%
X173758000Y-78916000D03*
X177058000Y-78916000D03*
X177058000Y-74016000D03*
X173758000Y-74016000D03*
%TD*%
D10*
%TO.C,KiKit_MB_15_2*%
X163004000Y-49574000D03*
%TD*%
%TO.C,KiKit_MB_17_3*%
X115242000Y-84185000D03*
%TD*%
%TO.C,KiKit_MB_16_2*%
X168254000Y-70148000D03*
%TD*%
%TO.C,KiKit_MB_31_6*%
X187133000Y-27000000D03*
%TD*%
D15*
%TO.C,R1*%
X137232000Y-60242000D03*
D16*
X139772000Y-60242000D03*
%TD*%
D10*
%TO.C,KiKit_MB_27_7*%
X115242000Y-98972000D03*
%TD*%
%TO.C,KiKit_MB_1_8*%
X115242000Y-34662000D03*
%TD*%
D12*
%TO.C,R5*%
X156207500Y-46050000D03*
X158032500Y-46050000D03*
%TD*%
%TO.C,R5*%
X121949500Y-91198000D03*
X123774500Y-91198000D03*
%TD*%
D10*
%TO.C,KiKit_MB_13_2*%
X149500000Y-62486000D03*
%TD*%
%TO.C,KiKit_MB_15_8*%
X168254000Y-49574000D03*
%TD*%
D11*
%TO.C,D2*%
X167408000Y-56342000D03*
X170708000Y-56342000D03*
X170708000Y-51442000D03*
X167408000Y-51442000D03*
%TD*%
D10*
%TO.C,KiKit_MB_14_3*%
X181758000Y-58111000D03*
%TD*%
D11*
%TO.C,D1*%
X126800000Y-33768000D03*
X130100000Y-33768000D03*
X130100000Y-28868000D03*
X126800000Y-28868000D03*
%TD*%
D10*
%TO.C,KiKit_MB_3_3*%
X129621000Y-27000000D03*
%TD*%
%TO.C,KiKit_MB_6_3*%
X181758000Y-35537000D03*
%TD*%
%TO.C,KiKit_MB_8_5*%
X165629000Y-47574000D03*
%TD*%
D12*
%TO.C,R6*%
X123727500Y-37414000D03*
X125552500Y-37414000D03*
%TD*%
D10*
%TO.C,KiKit_MB_2_1*%
X147500000Y-33787000D03*
%TD*%
%TO.C,KiKit_MB_22_6*%
X181758000Y-83310000D03*
%TD*%
D11*
%TO.C,D2*%
X167408000Y-78916000D03*
X170708000Y-78916000D03*
X170708000Y-74016000D03*
X167408000Y-74016000D03*
%TD*%
D10*
%TO.C,KiKit_MB_18_1*%
X147500000Y-78935000D03*
%TD*%
%TO.C,KiKit_MB_1_4*%
X115242000Y-38162000D03*
%TD*%
%TO.C,KiKit_MB_16_9*%
X162129000Y-70148000D03*
%TD*%
%TO.C,KiKit_MB_17_7*%
X115242000Y-80685000D03*
%TD*%
D12*
%TO.C,R4*%
X119917500Y-28270000D03*
X121742500Y-28270000D03*
%TD*%
D10*
%TO.C,KiKit_MB_26_6*%
X181758000Y-23375000D03*
%TD*%
%TO.C,KiKit_MB_22_5*%
X181758000Y-82435000D03*
%TD*%
D17*
%TO.C,Q1*%
X157186000Y-65574000D03*
X159086000Y-65574000D03*
X158136000Y-62274000D03*
%TD*%
D14*
%TO.C,IC1*%
X170455000Y-91383000D03*
X171725000Y-91383000D03*
X172995000Y-91383000D03*
X174265000Y-91383000D03*
X174265000Y-85933000D03*
X172995000Y-85933000D03*
X171725000Y-85933000D03*
X170455000Y-85933000D03*
%TD*%
D10*
%TO.C,KiKit_MB_7_2*%
X163004000Y-27000000D03*
%TD*%
%TO.C,KiKit_MB_10_1*%
X147500000Y-56361000D03*
%TD*%
%TO.C,KiKit_MB_31_7*%
X188008000Y-27000000D03*
%TD*%
D12*
%TO.C,R4*%
X119917500Y-73418000D03*
X121742500Y-73418000D03*
%TD*%
D18*
%TO.C,J2*%
X119941000Y-53511000D03*
D19*
X119941000Y-56051000D03*
X119941000Y-58591000D03*
X119941000Y-61131000D03*
X119941000Y-63671000D03*
X119941000Y-66211000D03*
X117401000Y-53511000D03*
X117401000Y-56051000D03*
X117401000Y-58591000D03*
X117401000Y-61131000D03*
X117401000Y-63671000D03*
X117401000Y-66211000D03*
%TD*%
D10*
%TO.C,KiKit_MB_20_9*%
X127871000Y-92722000D03*
%TD*%
%TO.C,KiKit_MB_31_4*%
X185383000Y-27000000D03*
%TD*%
%TO.C,KiKit_MB_20_2*%
X133996000Y-92722000D03*
%TD*%
D12*
%TO.C,R4*%
X154175500Y-50844000D03*
X156000500Y-50844000D03*
%TD*%
D10*
%TO.C,KiKit_MB_23_2*%
X163004000Y-72148000D03*
%TD*%
D14*
%TO.C,IC1*%
X170455000Y-68809000D03*
X171725000Y-68809000D03*
X172995000Y-68809000D03*
X174265000Y-68809000D03*
X174265000Y-63359000D03*
X172995000Y-63359000D03*
X171725000Y-63359000D03*
X170455000Y-63359000D03*
%TD*%
D20*
%TO.C,J1*%
X179218000Y-40462000D03*
D21*
X179218000Y-37962000D03*
%TD*%
D10*
%TO.C,KiKit_MB_17_6*%
X115242000Y-81560000D03*
%TD*%
%TO.C,KiKit_MB_10_5*%
X147500000Y-59861000D03*
%TD*%
D18*
%TO.C,J2*%
X154199000Y-30937000D03*
D19*
X154199000Y-33477000D03*
X154199000Y-36017000D03*
X154199000Y-38557000D03*
X154199000Y-41097000D03*
X154199000Y-43637000D03*
X151659000Y-30937000D03*
X151659000Y-33477000D03*
X151659000Y-36017000D03*
X151659000Y-38557000D03*
X151659000Y-41097000D03*
X151659000Y-43637000D03*
%TD*%
D10*
%TO.C,KiKit_MB_21_4*%
X149500000Y-83310000D03*
%TD*%
%TO.C,KiKit_MB_2_2*%
X147500000Y-34662000D03*
%TD*%
%TO.C,KiKit_MB_1_7*%
X115242000Y-35537000D03*
%TD*%
%TO.C,KiKit_MB_3_5*%
X131371000Y-27000000D03*
%TD*%
%TO.C,KiKit_MB_4_2*%
X133996000Y-47574000D03*
%TD*%
%TO.C,KiKit_MB_3_4*%
X130496000Y-27000000D03*
%TD*%
%TO.C,KiKit_MB_23_9*%
X169129000Y-72148000D03*
%TD*%
%TO.C,KiKit_MB_30_3*%
X108992000Y-92722000D03*
%TD*%
%TO.C,KiKit_MB_8_6*%
X164754000Y-47574000D03*
%TD*%
%TO.C,KiKit_MB_16_4*%
X166504000Y-70148000D03*
%TD*%
D17*
%TO.C,Q1*%
X122928000Y-43000000D03*
X124828000Y-43000000D03*
X123878000Y-39700000D03*
%TD*%
D12*
%TO.C,R4*%
X119917500Y-50844000D03*
X121742500Y-50844000D03*
%TD*%
D18*
%TO.C,J2*%
X119941000Y-76085000D03*
D19*
X119941000Y-78625000D03*
X119941000Y-81165000D03*
X119941000Y-83705000D03*
X119941000Y-86245000D03*
X119941000Y-88785000D03*
X117401000Y-76085000D03*
X117401000Y-78625000D03*
X117401000Y-81165000D03*
X117401000Y-83705000D03*
X117401000Y-86245000D03*
X117401000Y-88785000D03*
%TD*%
D10*
%TO.C,KiKit_MB_24_5*%
X165629000Y-92722000D03*
%TD*%
%TO.C,KiKit_MB_26_4*%
X181758000Y-21625000D03*
%TD*%
D22*
%TO.C,IC2*%
X128196000Y-91052000D03*
X128196000Y-82962000D03*
X130736000Y-91052000D03*
X130736000Y-82962000D03*
X133276000Y-91052000D03*
X133276000Y-82962000D03*
%TD*%
D10*
%TO.C,KiKit_MB_8_8*%
X163004000Y-47574000D03*
%TD*%
%TO.C,KiKit_MB_11_8*%
X133996000Y-49574000D03*
%TD*%
%TO.C,KiKit_MB_1_2*%
X115242000Y-39912000D03*
%TD*%
%TO.C,KiKit_MB_8_2*%
X168254000Y-47574000D03*
%TD*%
D13*
%TO.C,R3*%
X122608000Y-80680500D03*
X122608000Y-78855500D03*
%TD*%
D10*
%TO.C,KiKit_MB_32_6*%
X187133000Y-92722000D03*
%TD*%
%TO.C,KiKit_MB_12_9*%
X127871000Y-70148000D03*
%TD*%
D12*
%TO.C,R2*%
X156819000Y-75958000D03*
X158644000Y-75958000D03*
%TD*%
D10*
%TO.C,KiKit_MB_10_2*%
X147500000Y-57236000D03*
%TD*%
%TO.C,KiKit_MB_11_3*%
X129621000Y-49574000D03*
%TD*%
%TO.C,KiKit_MB_21_6*%
X149500000Y-81560000D03*
%TD*%
%TO.C,KiKit_MB_24_8*%
X163004000Y-92722000D03*
%TD*%
D11*
%TO.C,D3*%
X173758000Y-56342000D03*
X177058000Y-56342000D03*
X177058000Y-51442000D03*
X173758000Y-51442000D03*
%TD*%
D10*
%TO.C,KiKit_MB_7_3*%
X163879000Y-27000000D03*
%TD*%
%TO.C,KiKit_MB_23_5*%
X165629000Y-72148000D03*
%TD*%
%TO.C,KiKit_MB_19_3*%
X129621000Y-72148000D03*
%TD*%
%TO.C,KiKit_MB_19_1*%
X127871000Y-72148000D03*
%TD*%
%TO.C,KiKit_MB_11_5*%
X131371000Y-49574000D03*
%TD*%
%TO.C,KiKit_MB_17_1*%
X115242000Y-85935000D03*
%TD*%
D23*
%TO.C,C1*%
X177794500Y-66846000D03*
X176069500Y-66846000D03*
%TD*%
D10*
%TO.C,KiKit_MB_10_9*%
X147500000Y-63361000D03*
%TD*%
%TO.C,KiKit_MB_7_6*%
X166504000Y-27000000D03*
%TD*%
D12*
%TO.C,R4*%
X154175500Y-28270000D03*
X156000500Y-28270000D03*
%TD*%
D10*
%TO.C,KiKit_MB_30_7*%
X112492000Y-92722000D03*
%TD*%
%TO.C,KiKit_MB_19_6*%
X132246000Y-72148000D03*
%TD*%
D12*
%TO.C,R6*%
X123727500Y-82562000D03*
X125552500Y-82562000D03*
%TD*%
D10*
%TO.C,KiKit_MB_21_2*%
X149500000Y-85060000D03*
%TD*%
%TO.C,KiKit_MB_9_1*%
X115242000Y-63361000D03*
%TD*%
D20*
%TO.C,J1*%
X144960000Y-85610000D03*
D21*
X144960000Y-83110000D03*
%TD*%
D10*
%TO.C,KiKit_MB_12_8*%
X128746000Y-70148000D03*
%TD*%
D18*
%TO.C,J2*%
X154199000Y-53511000D03*
D19*
X154199000Y-56051000D03*
X154199000Y-58591000D03*
X154199000Y-61131000D03*
X154199000Y-63671000D03*
X154199000Y-66211000D03*
X151659000Y-53511000D03*
X151659000Y-56051000D03*
X151659000Y-58591000D03*
X151659000Y-61131000D03*
X151659000Y-63671000D03*
X151659000Y-66211000D03*
%TD*%
D10*
%TO.C,KiKit_MB_28_5*%
X181758000Y-97222000D03*
%TD*%
%TO.C,KiKit_MB_4_5*%
X131371000Y-47574000D03*
%TD*%
%TO.C,KiKit_MB_6_4*%
X181758000Y-36412000D03*
%TD*%
%TO.C,KiKit_MB_2_6*%
X147500000Y-38162000D03*
%TD*%
%TO.C,KiKit_MB_25_6*%
X115242000Y-23375000D03*
%TD*%
%TO.C,KiKit_MB_11_7*%
X133121000Y-49574000D03*
%TD*%
D15*
%TO.C,R1*%
X171490000Y-37668000D03*
D16*
X174030000Y-37668000D03*
%TD*%
D10*
%TO.C,KiKit_MB_12_1*%
X134871000Y-70148000D03*
%TD*%
%TO.C,KiKit_MB_20_7*%
X129621000Y-92722000D03*
%TD*%
%TO.C,KiKit_MB_22_8*%
X181758000Y-85060000D03*
%TD*%
%TO.C,KiKit_MB_12_2*%
X133996000Y-70148000D03*
%TD*%
%TO.C,KiKit_MB_24_3*%
X167379000Y-92722000D03*
%TD*%
%TO.C,KiKit_MB_28_3*%
X181758000Y-95472000D03*
%TD*%
%TO.C,KiKit_MB_18_3*%
X147500000Y-80685000D03*
%TD*%
%TO.C,KiKit_MB_6_9*%
X181758000Y-40787000D03*
%TD*%
%TO.C,KiKit_MB_22_9*%
X181758000Y-85935000D03*
%TD*%
%TO.C,KiKit_MB_2_4*%
X147500000Y-36412000D03*
%TD*%
%TO.C,KiKit_MB_18_6*%
X147500000Y-83310000D03*
%TD*%
D22*
%TO.C,IC2*%
X128196000Y-68478000D03*
X128196000Y-60388000D03*
X130736000Y-68478000D03*
X130736000Y-60388000D03*
X133276000Y-68478000D03*
X133276000Y-60388000D03*
%TD*%
D10*
%TO.C,KiKit_MB_12_5*%
X131371000Y-70148000D03*
%TD*%
%TO.C,KiKit_MB_4_6*%
X130496000Y-47574000D03*
%TD*%
%TO.C,KiKit_MB_14_6*%
X181758000Y-60736000D03*
%TD*%
%TO.C,KiKit_MB_27_6*%
X115242000Y-98097000D03*
%TD*%
%TO.C,KiKit_MB_29_5*%
X110742000Y-27000000D03*
%TD*%
%TO.C,KiKit_MB_18_9*%
X147500000Y-85935000D03*
%TD*%
D12*
%TO.C,R5*%
X156207500Y-91198000D03*
X158032500Y-91198000D03*
%TD*%
D10*
%TO.C,KiKit_MB_7_4*%
X164754000Y-27000000D03*
%TD*%
D18*
%TO.C,J2*%
X154199000Y-76085000D03*
D19*
X154199000Y-78625000D03*
X154199000Y-81165000D03*
X154199000Y-83705000D03*
X154199000Y-86245000D03*
X154199000Y-88785000D03*
X151659000Y-76085000D03*
X151659000Y-78625000D03*
X151659000Y-81165000D03*
X151659000Y-83705000D03*
X151659000Y-86245000D03*
X151659000Y-88785000D03*
%TD*%
D10*
%TO.C,KiKit_MB_4_1*%
X134871000Y-47574000D03*
%TD*%
%TO.C,KiKit_MB_1_3*%
X115242000Y-39037000D03*
%TD*%
%TO.C,KiKit_MB_10_7*%
X147500000Y-61611000D03*
%TD*%
%TO.C,KiKit_MB_16_8*%
X163004000Y-70148000D03*
%TD*%
%TO.C,KiKit_MB_25_7*%
X115242000Y-24250000D03*
%TD*%
%TO.C,KiKit_MB_5_6*%
X149500000Y-36412000D03*
%TD*%
%TO.C,KiKit_MB_25_4*%
X115242000Y-21625000D03*
%TD*%
%TO.C,KiKit_MB_11_4*%
X130496000Y-49574000D03*
%TD*%
%TO.C,KiKit_MB_21_7*%
X149500000Y-80685000D03*
%TD*%
%TO.C,KiKit_MB_1_9*%
X115242000Y-33787000D03*
%TD*%
%TO.C,KiKit_MB_3_7*%
X133121000Y-27000000D03*
%TD*%
%TO.C,KiKit_MB_15_1*%
X162129000Y-49574000D03*
%TD*%
%TO.C,KiKit_MB_7_9*%
X169129000Y-27000000D03*
%TD*%
D15*
%TO.C,R1*%
X137232000Y-82816000D03*
D16*
X139772000Y-82816000D03*
%TD*%
D23*
%TO.C,C1*%
X177794500Y-89420000D03*
X176069500Y-89420000D03*
%TD*%
D12*
%TO.C,R5*%
X121949500Y-46050000D03*
X123774500Y-46050000D03*
%TD*%
D10*
%TO.C,KiKit_MB_9_6*%
X115242000Y-58986000D03*
%TD*%
%TO.C,KiKit_MB_13_7*%
X149500000Y-58111000D03*
%TD*%
%TO.C,KiKit_MB_19_7*%
X133121000Y-72148000D03*
%TD*%
D22*
%TO.C,IC2*%
X128196000Y-45904000D03*
X128196000Y-37814000D03*
X130736000Y-45904000D03*
X130736000Y-37814000D03*
X133276000Y-45904000D03*
X133276000Y-37814000D03*
%TD*%
D10*
%TO.C,KiKit_MB_4_4*%
X132246000Y-47574000D03*
%TD*%
%TO.C,KiKit_MB_23_6*%
X166504000Y-72148000D03*
%TD*%
%TO.C,KiKit_MB_8_3*%
X167379000Y-47574000D03*
%TD*%
D12*
%TO.C,R2*%
X122561000Y-53384000D03*
X124386000Y-53384000D03*
%TD*%
D10*
%TO.C,KiKit_MB_19_8*%
X133996000Y-72148000D03*
%TD*%
D11*
%TO.C,D2*%
X133150000Y-56342000D03*
X136450000Y-56342000D03*
X136450000Y-51442000D03*
X133150000Y-51442000D03*
%TD*%
D10*
%TO.C,KiKit_MB_14_5*%
X181758000Y-59861000D03*
%TD*%
%TO.C,KiKit_MB_31_5*%
X186258000Y-27000000D03*
%TD*%
%TO.C,KiKit_MB_6_7*%
X181758000Y-39037000D03*
%TD*%
%TO.C,KiKit_MB_14_4*%
X181758000Y-58986000D03*
%TD*%
D13*
%TO.C,R3*%
X122608000Y-35532500D03*
X122608000Y-33707500D03*
%TD*%
D10*
%TO.C,KiKit_MB_24_9*%
X162129000Y-92722000D03*
%TD*%
%TO.C,KiKit_MB_12_7*%
X129621000Y-70148000D03*
%TD*%
%TO.C,KiKit_MB_24_2*%
X168254000Y-92722000D03*
%TD*%
%TO.C,KiKit_MB_13_8*%
X149500000Y-57236000D03*
%TD*%
%TO.C,KiKit_MB_2_9*%
X147500000Y-40787000D03*
%TD*%
%TO.C,KiKit_MB_16_7*%
X163879000Y-70148000D03*
%TD*%
%TO.C,KiKit_MB_17_5*%
X115242000Y-82435000D03*
%TD*%
D17*
%TO.C,Q1*%
X157186000Y-88148000D03*
X159086000Y-88148000D03*
X158136000Y-84848000D03*
%TD*%
D10*
%TO.C,KiKit_MB_14_2*%
X181758000Y-57236000D03*
%TD*%
%TO.C,KiKit_MB_14_8*%
X181758000Y-62486000D03*
%TD*%
%TO.C,KiKit_MB_21_1*%
X149500000Y-85935000D03*
%TD*%
D22*
%TO.C,IC2*%
X162454000Y-45904000D03*
X162454000Y-37814000D03*
X164994000Y-45904000D03*
X164994000Y-37814000D03*
X167534000Y-45904000D03*
X167534000Y-37814000D03*
%TD*%
D10*
%TO.C,KiKit_MB_32_5*%
X186258000Y-92722000D03*
%TD*%
%TO.C,KiKit_MB_3_1*%
X127871000Y-27000000D03*
%TD*%
D11*
%TO.C,D1*%
X161058000Y-33768000D03*
X164358000Y-33768000D03*
X164358000Y-28868000D03*
X161058000Y-28868000D03*
%TD*%
D10*
%TO.C,KiKit_MB_7_7*%
X167379000Y-27000000D03*
%TD*%
%TO.C,KiKit_MB_5_8*%
X149500000Y-34662000D03*
%TD*%
%TO.C,KiKit_MB_14_7*%
X181758000Y-61611000D03*
%TD*%
%TO.C,KiKit_MB_6_5*%
X181758000Y-37287000D03*
%TD*%
D13*
%TO.C,R3*%
X156866000Y-80680500D03*
X156866000Y-78855500D03*
%TD*%
D10*
%TO.C,KiKit_MB_8_4*%
X166504000Y-47574000D03*
%TD*%
%TO.C,KiKit_MB_8_7*%
X163879000Y-47574000D03*
%TD*%
D11*
%TO.C,D3*%
X173758000Y-33768000D03*
X177058000Y-33768000D03*
X177058000Y-28868000D03*
X173758000Y-28868000D03*
%TD*%
D10*
%TO.C,KiKit_MB_30_6*%
X111617000Y-92722000D03*
%TD*%
D12*
%TO.C,R6*%
X157985500Y-82562000D03*
X159810500Y-82562000D03*
%TD*%
D13*
%TO.C,R3*%
X156866000Y-58106500D03*
X156866000Y-56281500D03*
%TD*%
D10*
%TO.C,KiKit_MB_6_8*%
X181758000Y-39912000D03*
%TD*%
%TO.C,KiKit_MB_9_3*%
X115242000Y-61611000D03*
%TD*%
%TO.C,KiKit_MB_26_5*%
X181758000Y-22500000D03*
%TD*%
%TO.C,KiKit_MB_11_9*%
X134871000Y-49574000D03*
%TD*%
%TO.C,KiKit_MB_17_9*%
X115242000Y-78935000D03*
%TD*%
D22*
%TO.C,IC2*%
X162454000Y-68478000D03*
X162454000Y-60388000D03*
X164994000Y-68478000D03*
X164994000Y-60388000D03*
X167534000Y-68478000D03*
X167534000Y-60388000D03*
%TD*%
D10*
%TO.C,KiKit_MB_28_4*%
X181758000Y-96347000D03*
%TD*%
%TO.C,KiKit_MB_23_1*%
X162129000Y-72148000D03*
%TD*%
D17*
%TO.C,Q1*%
X157186000Y-43000000D03*
X159086000Y-43000000D03*
X158136000Y-39700000D03*
%TD*%
D23*
%TO.C,C1*%
X143536500Y-89420000D03*
X141811500Y-89420000D03*
%TD*%
D10*
%TO.C,KiKit_MB_21_3*%
X149500000Y-84185000D03*
%TD*%
D12*
%TO.C,R2*%
X122561000Y-30810000D03*
X124386000Y-30810000D03*
%TD*%
%TO.C,R2*%
X156819000Y-30810000D03*
X158644000Y-30810000D03*
%TD*%
D10*
%TO.C,KiKit_MB_23_8*%
X168254000Y-72148000D03*
%TD*%
%TO.C,KiKit_MB_4_9*%
X127871000Y-47574000D03*
%TD*%
D12*
%TO.C,R6*%
X157985500Y-59988000D03*
X159810500Y-59988000D03*
%TD*%
D14*
%TO.C,IC1*%
X136197000Y-91383000D03*
X137467000Y-91383000D03*
X138737000Y-91383000D03*
X140007000Y-91383000D03*
X140007000Y-85933000D03*
X138737000Y-85933000D03*
X137467000Y-85933000D03*
X136197000Y-85933000D03*
%TD*%
D10*
%TO.C,KiKit_MB_5_2*%
X149500000Y-39912000D03*
%TD*%
%TO.C,KiKit_MB_1_6*%
X115242000Y-36412000D03*
%TD*%
%TO.C,KiKit_MB_29_4*%
X109867000Y-27000000D03*
%TD*%
D23*
%TO.C,C1*%
X143536500Y-44272000D03*
X141811500Y-44272000D03*
%TD*%
D10*
%TO.C,KiKit_MB_9_7*%
X115242000Y-58111000D03*
%TD*%
%TO.C,KiKit_MB_30_4*%
X109867000Y-92722000D03*
%TD*%
D17*
%TO.C,Q1*%
X122928000Y-88148000D03*
X124828000Y-88148000D03*
X123878000Y-84848000D03*
%TD*%
D10*
%TO.C,KiKit_MB_9_8*%
X115242000Y-57236000D03*
%TD*%
%TO.C,KiKit_MB_27_4*%
X115242000Y-96347000D03*
%TD*%
D12*
%TO.C,R2*%
X122561000Y-75958000D03*
X124386000Y-75958000D03*
%TD*%
D10*
%TO.C,KiKit_MB_18_8*%
X147500000Y-85060000D03*
%TD*%
%TO.C,KiKit_MB_4_7*%
X129621000Y-47574000D03*
%TD*%
%TO.C,KiKit_MB_6_6*%
X181758000Y-38162000D03*
%TD*%
D11*
%TO.C,D2*%
X133150000Y-33768000D03*
X136450000Y-33768000D03*
X136450000Y-28868000D03*
X133150000Y-28868000D03*
%TD*%
D10*
%TO.C,KiKit_MB_18_5*%
X147500000Y-82435000D03*
%TD*%
%TO.C,KiKit_MB_1_1*%
X115242000Y-40787000D03*
%TD*%
%TO.C,KiKit_MB_27_3*%
X115242000Y-95472000D03*
%TD*%
%TO.C,KiKit_MB_15_4*%
X164754000Y-49574000D03*
%TD*%
%TO.C,KiKit_MB_21_9*%
X149500000Y-78935000D03*
%TD*%
%TO.C,KiKit_MB_9_4*%
X115242000Y-60736000D03*
%TD*%
%TO.C,KiKit_MB_3_2*%
X128746000Y-27000000D03*
%TD*%
D20*
%TO.C,J1*%
X179218000Y-85610000D03*
D21*
X179218000Y-83110000D03*
%TD*%
D10*
%TO.C,KiKit_MB_4_3*%
X133121000Y-47574000D03*
%TD*%
%TO.C,KiKit_MB_12_6*%
X130496000Y-70148000D03*
%TD*%
%TO.C,KiKit_MB_16_6*%
X164754000Y-70148000D03*
%TD*%
%TO.C,KiKit_MB_32_7*%
X188008000Y-92722000D03*
%TD*%
%TO.C,KiKit_MB_17_2*%
X115242000Y-85060000D03*
%TD*%
%TO.C,KiKit_MB_11_2*%
X128746000Y-49574000D03*
%TD*%
D20*
%TO.C,J1*%
X144960000Y-63036000D03*
D21*
X144960000Y-60536000D03*
%TD*%
D12*
%TO.C,R6*%
X123727500Y-59988000D03*
X125552500Y-59988000D03*
%TD*%
D10*
%TO.C,KiKit_MB_14_1*%
X181758000Y-56361000D03*
%TD*%
%TO.C,KiKit_MB_29_3*%
X108992000Y-27000000D03*
%TD*%
D12*
%TO.C,R2*%
X156819000Y-53384000D03*
X158644000Y-53384000D03*
%TD*%
D10*
%TO.C,KiKit_MB_2_8*%
X147500000Y-39912000D03*
%TD*%
%TO.C,KiKit_MB_20_3*%
X133121000Y-92722000D03*
%TD*%
%TO.C,KiKit_MB_24_4*%
X166504000Y-92722000D03*
%TD*%
%TO.C,KiKit_MB_23_7*%
X167379000Y-72148000D03*
%TD*%
%TO.C,KiKit_MB_26_3*%
X181758000Y-20750000D03*
%TD*%
%TO.C,KiKit_MB_23_3*%
X163879000Y-72148000D03*
%TD*%
%TO.C,KiKit_MB_3_6*%
X132246000Y-27000000D03*
%TD*%
%TO.C,KiKit_MB_15_7*%
X167379000Y-49574000D03*
%TD*%
%TO.C,KiKit_MB_13_1*%
X149500000Y-63361000D03*
%TD*%
D13*
%TO.C,R3*%
X122608000Y-58106500D03*
X122608000Y-56281500D03*
%TD*%
D10*
%TO.C,KiKit_MB_24_7*%
X163879000Y-92722000D03*
%TD*%
D18*
%TO.C,J2*%
X119941000Y-30937000D03*
D19*
X119941000Y-33477000D03*
X119941000Y-36017000D03*
X119941000Y-38557000D03*
X119941000Y-41097000D03*
X119941000Y-43637000D03*
X117401000Y-30937000D03*
X117401000Y-33477000D03*
X117401000Y-36017000D03*
X117401000Y-38557000D03*
X117401000Y-41097000D03*
X117401000Y-43637000D03*
%TD*%
D10*
%TO.C,KiKit_MB_18_2*%
X147500000Y-79810000D03*
%TD*%
D23*
%TO.C,C1*%
X177794500Y-44272000D03*
X176069500Y-44272000D03*
%TD*%
D10*
%TO.C,KiKit_MB_8_1*%
X169129000Y-47574000D03*
%TD*%
%TO.C,KiKit_MB_22_1*%
X181758000Y-78935000D03*
%TD*%
%TO.C,KiKit_MB_31_3*%
X184508000Y-27000000D03*
%TD*%
%TO.C,KiKit_MB_14_9*%
X181758000Y-63361000D03*
%TD*%
%TO.C,KiKit_MB_22_7*%
X181758000Y-84185000D03*
%TD*%
D15*
%TO.C,R1*%
X171490000Y-60242000D03*
D16*
X174030000Y-60242000D03*
%TD*%
D10*
%TO.C,KiKit_MB_13_6*%
X149500000Y-58986000D03*
%TD*%
%TO.C,KiKit_MB_2_7*%
X147500000Y-39037000D03*
%TD*%
%TO.C,KiKit_MB_10_6*%
X147500000Y-60736000D03*
%TD*%
%TO.C,KiKit_MB_13_4*%
X149500000Y-60736000D03*
%TD*%
%TO.C,KiKit_MB_15_5*%
X165629000Y-49574000D03*
%TD*%
%TO.C,KiKit_MB_15_6*%
X166504000Y-49574000D03*
%TD*%
%TO.C,KiKit_MB_10_8*%
X147500000Y-62486000D03*
%TD*%
%TO.C,KiKit_MB_20_6*%
X130496000Y-92722000D03*
%TD*%
%TO.C,KiKit_MB_23_4*%
X164754000Y-72148000D03*
%TD*%
%TO.C,KiKit_MB_32_4*%
X185383000Y-92722000D03*
%TD*%
D20*
%TO.C,J1*%
X179218000Y-63036000D03*
D21*
X179218000Y-60536000D03*
%TD*%
D10*
%TO.C,KiKit_MB_27_5*%
X115242000Y-97222000D03*
%TD*%
%TO.C,KiKit_MB_22_3*%
X181758000Y-80685000D03*
%TD*%
%TO.C,KiKit_MB_8_9*%
X162129000Y-47574000D03*
%TD*%
D11*
%TO.C,D2*%
X133150000Y-78916000D03*
X136450000Y-78916000D03*
X136450000Y-74016000D03*
X133150000Y-74016000D03*
%TD*%
D10*
%TO.C,KiKit_MB_5_1*%
X149500000Y-40787000D03*
%TD*%
%TO.C,KiKit_MB_17_8*%
X115242000Y-79810000D03*
%TD*%
%TO.C,KiKit_MB_3_8*%
X133996000Y-27000000D03*
%TD*%
%TO.C,KiKit_MB_28_7*%
X181758000Y-98972000D03*
%TD*%
%TO.C,KiKit_MB_16_3*%
X167379000Y-70148000D03*
%TD*%
%TO.C,KiKit_MB_20_1*%
X134871000Y-92722000D03*
%TD*%
D11*
%TO.C,D3*%
X139500000Y-33768000D03*
X142800000Y-33768000D03*
X142800000Y-28868000D03*
X139500000Y-28868000D03*
%TD*%
D10*
%TO.C,KiKit_MB_19_2*%
X128746000Y-72148000D03*
%TD*%
%TO.C,KiKit_MB_21_8*%
X149500000Y-79810000D03*
%TD*%
%TO.C,KiKit_MB_30_5*%
X110742000Y-92722000D03*
%TD*%
%TO.C,KiKit_MB_1_5*%
X115242000Y-37287000D03*
%TD*%
%TO.C,KiKit_MB_3_9*%
X134871000Y-27000000D03*
%TD*%
%TO.C,KiKit_MB_18_4*%
X147500000Y-81560000D03*
%TD*%
D15*
%TO.C,R1*%
X171490000Y-82816000D03*
D16*
X174030000Y-82816000D03*
%TD*%
D10*
%TO.C,KiKit_MB_5_7*%
X149500000Y-35537000D03*
%TD*%
D14*
%TO.C,IC1*%
X136197000Y-46235000D03*
X137467000Y-46235000D03*
X138737000Y-46235000D03*
X140007000Y-46235000D03*
X140007000Y-40785000D03*
X138737000Y-40785000D03*
X137467000Y-40785000D03*
X136197000Y-40785000D03*
%TD*%
D10*
%TO.C,KiKit_MB_17_4*%
X115242000Y-83310000D03*
%TD*%
%TO.C,KiKit_MB_25_5*%
X115242000Y-22500000D03*
%TD*%
%TO.C,KiKit_MB_9_2*%
X115242000Y-62486000D03*
%TD*%
D23*
%TO.C,C1*%
X143536500Y-66846000D03*
X141811500Y-66846000D03*
%TD*%
D10*
%TO.C,KiKit_MB_7_5*%
X165629000Y-27000000D03*
%TD*%
%TO.C,KiKit_MB_24_1*%
X169129000Y-92722000D03*
%TD*%
%TO.C,KiKit_MB_26_7*%
X181758000Y-24250000D03*
%TD*%
%TO.C,KiKit_MB_11_1*%
X127871000Y-49574000D03*
%TD*%
%TO.C,KiKit_MB_2_5*%
X147500000Y-37287000D03*
%TD*%
%TO.C,KiKit_MB_5_3*%
X149500000Y-39037000D03*
%TD*%
D11*
%TO.C,D3*%
X139500000Y-56342000D03*
X142800000Y-56342000D03*
X142800000Y-51442000D03*
X139500000Y-51442000D03*
%TD*%
D10*
%TO.C,KiKit_MB_20_4*%
X132246000Y-92722000D03*
%TD*%
D22*
%TO.C,IC2*%
X162454000Y-91052000D03*
X162454000Y-82962000D03*
X164994000Y-91052000D03*
X164994000Y-82962000D03*
X167534000Y-91052000D03*
X167534000Y-82962000D03*
%TD*%
D10*
%TO.C,KiKit_MB_24_6*%
X164754000Y-92722000D03*
%TD*%
%TO.C,KiKit_MB_10_3*%
X147500000Y-58111000D03*
%TD*%
%TO.C,KiKit_MB_29_7*%
X112492000Y-27000000D03*
%TD*%
D12*
%TO.C,R5*%
X121949500Y-68624000D03*
X123774500Y-68624000D03*
%TD*%
D10*
%TO.C,KiKit_MB_7_8*%
X168254000Y-27000000D03*
%TD*%
D20*
%TO.C,J1*%
X144960000Y-40462000D03*
D21*
X144960000Y-37962000D03*
%TD*%
D10*
%TO.C,KiKit_MB_11_6*%
X132246000Y-49574000D03*
%TD*%
%TO.C,KiKit_MB_19_5*%
X131371000Y-72148000D03*
%TD*%
%TO.C,KiKit_MB_2_3*%
X147500000Y-35537000D03*
%TD*%
%TO.C,KiKit_MB_6_2*%
X181758000Y-34662000D03*
%TD*%
%TO.C,KiKit_MB_22_2*%
X181758000Y-79810000D03*
%TD*%
%TO.C,KiKit_MB_9_9*%
X115242000Y-56361000D03*
%TD*%
D15*
%TO.C,R1*%
X137232000Y-37668000D03*
D16*
X139772000Y-37668000D03*
%TD*%
D11*
%TO.C,D1*%
X161058000Y-78916000D03*
X164358000Y-78916000D03*
X164358000Y-74016000D03*
X161058000Y-74016000D03*
%TD*%
D10*
%TO.C,KiKit_MB_19_4*%
X130496000Y-72148000D03*
%TD*%
%TO.C,KiKit_MB_18_7*%
X147500000Y-84185000D03*
%TD*%
%TO.C,KiKit_MB_29_6*%
X111617000Y-27000000D03*
%TD*%
%TO.C,KiKit_MB_28_6*%
X181758000Y-98097000D03*
%TD*%
%TO.C,KiKit_MB_12_3*%
X133121000Y-70148000D03*
%TD*%
%TO.C,KiKit_MB_13_9*%
X149500000Y-56361000D03*
%TD*%
%TO.C,KiKit_MB_19_9*%
X134871000Y-72148000D03*
%TD*%
%TO.C,KiKit_MB_16_1*%
X169129000Y-70148000D03*
%TD*%
D11*
%TO.C,D1*%
X126800000Y-78916000D03*
X130100000Y-78916000D03*
X130100000Y-74016000D03*
X126800000Y-74016000D03*
%TD*%
D10*
%TO.C,KiKit_MB_25_3*%
X115242000Y-20750000D03*
%TD*%
D11*
%TO.C,D1*%
X126800000Y-56342000D03*
X130100000Y-56342000D03*
X130100000Y-51442000D03*
X126800000Y-51442000D03*
%TD*%
D17*
%TO.C,Q1*%
X122928000Y-65574000D03*
X124828000Y-65574000D03*
X123878000Y-62274000D03*
%TD*%
D14*
%TO.C,IC1*%
X136197000Y-68809000D03*
X137467000Y-68809000D03*
X138737000Y-68809000D03*
X140007000Y-68809000D03*
X140007000Y-63359000D03*
X138737000Y-63359000D03*
X137467000Y-63359000D03*
X136197000Y-63359000D03*
%TD*%
D10*
%TO.C,KiKit_MB_15_9*%
X169129000Y-49574000D03*
%TD*%
%TO.C,KiKit_MB_7_1*%
X162129000Y-27000000D03*
%TD*%
%TO.C,KiKit_MB_6_1*%
X181758000Y-33787000D03*
%TD*%
%TO.C,KiKit_MB_4_8*%
X128746000Y-47574000D03*
%TD*%
M02*
