%TF.GenerationSoftware,KiCad,Pcbnew,7.0.9*%
%TF.CreationDate,2024-01-17T02:03:21+09:00*%
%TF.ProjectId,kikit,6b696b69-742e-46b6-9963-61645f706362,rev?*%
%TF.SameCoordinates,Original*%
%TF.FileFunction,Legend,Top*%
%TF.FilePolarity,Positive*%
%FSLAX46Y46*%
G04 Gerber Fmt 4.6, Leading zero omitted, Abs format (unit mm)*
G04 Created by KiCad (PCBNEW 7.0.9) date 2024-01-17 02:03:21*
%MOMM*%
%LPD*%
G01*
G04 APERTURE LIST*
%ADD10C,0.100000*%
%ADD11C,0.150000*%
%ADD12C,0.254000*%
%ADD13C,0.120000*%
%ADD14C,0.200000*%
G04 APERTURE END LIST*
D10*
X174593695Y-44422191D02*
X174212742Y-44688858D01*
X174593695Y-44879334D02*
X173793695Y-44879334D01*
X173793695Y-44879334D02*
X173793695Y-44574572D01*
X173793695Y-44574572D02*
X173831790Y-44498382D01*
X173831790Y-44498382D02*
X173869885Y-44460287D01*
X173869885Y-44460287D02*
X173946076Y-44422191D01*
X173946076Y-44422191D02*
X174060361Y-44422191D01*
X174060361Y-44422191D02*
X174136552Y-44460287D01*
X174136552Y-44460287D02*
X174174647Y-44498382D01*
X174174647Y-44498382D02*
X174212742Y-44574572D01*
X174212742Y-44574572D02*
X174212742Y-44879334D01*
X174593695Y-44155525D02*
X174060361Y-43736477D01*
X174060361Y-44155525D02*
X174593695Y-43736477D01*
X174593695Y-43431715D02*
X173793695Y-43431715D01*
X173793695Y-43431715D02*
X173793695Y-43241239D01*
X173793695Y-43241239D02*
X173831790Y-43126953D01*
X173831790Y-43126953D02*
X173907980Y-43050763D01*
X173907980Y-43050763D02*
X173984171Y-43012668D01*
X173984171Y-43012668D02*
X174136552Y-42974572D01*
X174136552Y-42974572D02*
X174250838Y-42974572D01*
X174250838Y-42974572D02*
X174403219Y-43012668D01*
X174403219Y-43012668D02*
X174479409Y-43050763D01*
X174479409Y-43050763D02*
X174555600Y-43126953D01*
X174555600Y-43126953D02*
X174593695Y-43241239D01*
X174593695Y-43241239D02*
X174593695Y-43431715D01*
D11*
X180865819Y-79717030D02*
X180865819Y-80193220D01*
X180865819Y-80193220D02*
X179865819Y-80193220D01*
X180865819Y-89210220D02*
X179865819Y-89210220D01*
X180342009Y-89210220D02*
X180342009Y-88638792D01*
X180865819Y-88638792D02*
X179865819Y-88638792D01*
X146607819Y-89210220D02*
X145607819Y-89210220D01*
X146084009Y-89210220D02*
X146084009Y-88638792D01*
X146607819Y-88638792D02*
X145607819Y-88638792D01*
D10*
X166986495Y-54829582D02*
X166986495Y-55210534D01*
X166986495Y-55210534D02*
X167367447Y-55248630D01*
X167367447Y-55248630D02*
X167329352Y-55210534D01*
X167329352Y-55210534D02*
X167291257Y-55134344D01*
X167291257Y-55134344D02*
X167291257Y-54943868D01*
X167291257Y-54943868D02*
X167329352Y-54867677D01*
X167329352Y-54867677D02*
X167367447Y-54829582D01*
X167367447Y-54829582D02*
X167443638Y-54791487D01*
X167443638Y-54791487D02*
X167634114Y-54791487D01*
X167634114Y-54791487D02*
X167710304Y-54829582D01*
X167710304Y-54829582D02*
X167748400Y-54867677D01*
X167748400Y-54867677D02*
X167786495Y-54943868D01*
X167786495Y-54943868D02*
X167786495Y-55134344D01*
X167786495Y-55134344D02*
X167748400Y-55210534D01*
X167748400Y-55210534D02*
X167710304Y-55248630D01*
X166986495Y-54562915D02*
X167786495Y-54296248D01*
X167786495Y-54296248D02*
X166986495Y-54029582D01*
X166986495Y-77403582D02*
X166986495Y-77784534D01*
X166986495Y-77784534D02*
X167367447Y-77822630D01*
X167367447Y-77822630D02*
X167329352Y-77784534D01*
X167329352Y-77784534D02*
X167291257Y-77708344D01*
X167291257Y-77708344D02*
X167291257Y-77517868D01*
X167291257Y-77517868D02*
X167329352Y-77441677D01*
X167329352Y-77441677D02*
X167367447Y-77403582D01*
X167367447Y-77403582D02*
X167443638Y-77365487D01*
X167443638Y-77365487D02*
X167634114Y-77365487D01*
X167634114Y-77365487D02*
X167710304Y-77403582D01*
X167710304Y-77403582D02*
X167748400Y-77441677D01*
X167748400Y-77441677D02*
X167786495Y-77517868D01*
X167786495Y-77517868D02*
X167786495Y-77708344D01*
X167786495Y-77708344D02*
X167748400Y-77784534D01*
X167748400Y-77784534D02*
X167710304Y-77822630D01*
X166986495Y-77136915D02*
X167786495Y-76870248D01*
X167786495Y-76870248D02*
X166986495Y-76603582D01*
X126378495Y-77403582D02*
X126378495Y-77784534D01*
X126378495Y-77784534D02*
X126759447Y-77822630D01*
X126759447Y-77822630D02*
X126721352Y-77784534D01*
X126721352Y-77784534D02*
X126683257Y-77708344D01*
X126683257Y-77708344D02*
X126683257Y-77517868D01*
X126683257Y-77517868D02*
X126721352Y-77441677D01*
X126721352Y-77441677D02*
X126759447Y-77403582D01*
X126759447Y-77403582D02*
X126835638Y-77365487D01*
X126835638Y-77365487D02*
X127026114Y-77365487D01*
X127026114Y-77365487D02*
X127102304Y-77403582D01*
X127102304Y-77403582D02*
X127140400Y-77441677D01*
X127140400Y-77441677D02*
X127178495Y-77517868D01*
X127178495Y-77517868D02*
X127178495Y-77708344D01*
X127178495Y-77708344D02*
X127140400Y-77784534D01*
X127140400Y-77784534D02*
X127102304Y-77822630D01*
X126378495Y-77136915D02*
X127178495Y-76870248D01*
X127178495Y-76870248D02*
X126378495Y-76603582D01*
X126378495Y-32255582D02*
X126378495Y-32636534D01*
X126378495Y-32636534D02*
X126759447Y-32674630D01*
X126759447Y-32674630D02*
X126721352Y-32636534D01*
X126721352Y-32636534D02*
X126683257Y-32560344D01*
X126683257Y-32560344D02*
X126683257Y-32369868D01*
X126683257Y-32369868D02*
X126721352Y-32293677D01*
X126721352Y-32293677D02*
X126759447Y-32255582D01*
X126759447Y-32255582D02*
X126835638Y-32217487D01*
X126835638Y-32217487D02*
X127026114Y-32217487D01*
X127026114Y-32217487D02*
X127102304Y-32255582D01*
X127102304Y-32255582D02*
X127140400Y-32293677D01*
X127140400Y-32293677D02*
X127178495Y-32369868D01*
X127178495Y-32369868D02*
X127178495Y-32560344D01*
X127178495Y-32560344D02*
X127140400Y-32636534D01*
X127140400Y-32636534D02*
X127102304Y-32674630D01*
X126378495Y-31988915D02*
X127178495Y-31722248D01*
X127178495Y-31722248D02*
X126378495Y-31455582D01*
X139078495Y-54829582D02*
X139078495Y-55210534D01*
X139078495Y-55210534D02*
X139459447Y-55248630D01*
X139459447Y-55248630D02*
X139421352Y-55210534D01*
X139421352Y-55210534D02*
X139383257Y-55134344D01*
X139383257Y-55134344D02*
X139383257Y-54943868D01*
X139383257Y-54943868D02*
X139421352Y-54867677D01*
X139421352Y-54867677D02*
X139459447Y-54829582D01*
X139459447Y-54829582D02*
X139535638Y-54791487D01*
X139535638Y-54791487D02*
X139726114Y-54791487D01*
X139726114Y-54791487D02*
X139802304Y-54829582D01*
X139802304Y-54829582D02*
X139840400Y-54867677D01*
X139840400Y-54867677D02*
X139878495Y-54943868D01*
X139878495Y-54943868D02*
X139878495Y-55134344D01*
X139878495Y-55134344D02*
X139840400Y-55210534D01*
X139840400Y-55210534D02*
X139802304Y-55248630D01*
X139078495Y-54562915D02*
X139878495Y-54296248D01*
X139878495Y-54296248D02*
X139078495Y-54029582D01*
X174593695Y-66996191D02*
X174212742Y-67262858D01*
X174593695Y-67453334D02*
X173793695Y-67453334D01*
X173793695Y-67453334D02*
X173793695Y-67148572D01*
X173793695Y-67148572D02*
X173831790Y-67072382D01*
X173831790Y-67072382D02*
X173869885Y-67034287D01*
X173869885Y-67034287D02*
X173946076Y-66996191D01*
X173946076Y-66996191D02*
X174060361Y-66996191D01*
X174060361Y-66996191D02*
X174136552Y-67034287D01*
X174136552Y-67034287D02*
X174174647Y-67072382D01*
X174174647Y-67072382D02*
X174212742Y-67148572D01*
X174212742Y-67148572D02*
X174212742Y-67453334D01*
X174593695Y-66729525D02*
X174060361Y-66310477D01*
X174060361Y-66729525D02*
X174593695Y-66310477D01*
X174593695Y-66005715D02*
X173793695Y-66005715D01*
X173793695Y-66005715D02*
X173793695Y-65815239D01*
X173793695Y-65815239D02*
X173831790Y-65700953D01*
X173831790Y-65700953D02*
X173907980Y-65624763D01*
X173907980Y-65624763D02*
X173984171Y-65586668D01*
X173984171Y-65586668D02*
X174136552Y-65548572D01*
X174136552Y-65548572D02*
X174250838Y-65548572D01*
X174250838Y-65548572D02*
X174403219Y-65586668D01*
X174403219Y-65586668D02*
X174479409Y-65624763D01*
X174479409Y-65624763D02*
X174555600Y-65700953D01*
X174555600Y-65700953D02*
X174593695Y-65815239D01*
X174593695Y-65815239D02*
X174593695Y-66005715D01*
D11*
X146607819Y-44062220D02*
X145607819Y-44062220D01*
X146084009Y-44062220D02*
X146084009Y-43490792D01*
X146607819Y-43490792D02*
X145607819Y-43490792D01*
D10*
X132728495Y-77403582D02*
X132728495Y-77784534D01*
X132728495Y-77784534D02*
X133109447Y-77822630D01*
X133109447Y-77822630D02*
X133071352Y-77784534D01*
X133071352Y-77784534D02*
X133033257Y-77708344D01*
X133033257Y-77708344D02*
X133033257Y-77517868D01*
X133033257Y-77517868D02*
X133071352Y-77441677D01*
X133071352Y-77441677D02*
X133109447Y-77403582D01*
X133109447Y-77403582D02*
X133185638Y-77365487D01*
X133185638Y-77365487D02*
X133376114Y-77365487D01*
X133376114Y-77365487D02*
X133452304Y-77403582D01*
X133452304Y-77403582D02*
X133490400Y-77441677D01*
X133490400Y-77441677D02*
X133528495Y-77517868D01*
X133528495Y-77517868D02*
X133528495Y-77708344D01*
X133528495Y-77708344D02*
X133490400Y-77784534D01*
X133490400Y-77784534D02*
X133452304Y-77822630D01*
X132728495Y-77136915D02*
X133528495Y-76870248D01*
X133528495Y-76870248D02*
X132728495Y-76603582D01*
X126378495Y-54829582D02*
X126378495Y-55210534D01*
X126378495Y-55210534D02*
X126759447Y-55248630D01*
X126759447Y-55248630D02*
X126721352Y-55210534D01*
X126721352Y-55210534D02*
X126683257Y-55134344D01*
X126683257Y-55134344D02*
X126683257Y-54943868D01*
X126683257Y-54943868D02*
X126721352Y-54867677D01*
X126721352Y-54867677D02*
X126759447Y-54829582D01*
X126759447Y-54829582D02*
X126835638Y-54791487D01*
X126835638Y-54791487D02*
X127026114Y-54791487D01*
X127026114Y-54791487D02*
X127102304Y-54829582D01*
X127102304Y-54829582D02*
X127140400Y-54867677D01*
X127140400Y-54867677D02*
X127178495Y-54943868D01*
X127178495Y-54943868D02*
X127178495Y-55134344D01*
X127178495Y-55134344D02*
X127140400Y-55210534D01*
X127140400Y-55210534D02*
X127102304Y-55248630D01*
X126378495Y-54562915D02*
X127178495Y-54296248D01*
X127178495Y-54296248D02*
X126378495Y-54029582D01*
X140335695Y-44422191D02*
X139954742Y-44688858D01*
X140335695Y-44879334D02*
X139535695Y-44879334D01*
X139535695Y-44879334D02*
X139535695Y-44574572D01*
X139535695Y-44574572D02*
X139573790Y-44498382D01*
X139573790Y-44498382D02*
X139611885Y-44460287D01*
X139611885Y-44460287D02*
X139688076Y-44422191D01*
X139688076Y-44422191D02*
X139802361Y-44422191D01*
X139802361Y-44422191D02*
X139878552Y-44460287D01*
X139878552Y-44460287D02*
X139916647Y-44498382D01*
X139916647Y-44498382D02*
X139954742Y-44574572D01*
X139954742Y-44574572D02*
X139954742Y-44879334D01*
X140335695Y-44155525D02*
X139802361Y-43736477D01*
X139802361Y-44155525D02*
X140335695Y-43736477D01*
X140335695Y-43431715D02*
X139535695Y-43431715D01*
X139535695Y-43431715D02*
X139535695Y-43241239D01*
X139535695Y-43241239D02*
X139573790Y-43126953D01*
X139573790Y-43126953D02*
X139649980Y-43050763D01*
X139649980Y-43050763D02*
X139726171Y-43012668D01*
X139726171Y-43012668D02*
X139878552Y-42974572D01*
X139878552Y-42974572D02*
X139992838Y-42974572D01*
X139992838Y-42974572D02*
X140145219Y-43012668D01*
X140145219Y-43012668D02*
X140221409Y-43050763D01*
X140221409Y-43050763D02*
X140297600Y-43126953D01*
X140297600Y-43126953D02*
X140335695Y-43241239D01*
X140335695Y-43241239D02*
X140335695Y-43431715D01*
X132728495Y-32255582D02*
X132728495Y-32636534D01*
X132728495Y-32636534D02*
X133109447Y-32674630D01*
X133109447Y-32674630D02*
X133071352Y-32636534D01*
X133071352Y-32636534D02*
X133033257Y-32560344D01*
X133033257Y-32560344D02*
X133033257Y-32369868D01*
X133033257Y-32369868D02*
X133071352Y-32293677D01*
X133071352Y-32293677D02*
X133109447Y-32255582D01*
X133109447Y-32255582D02*
X133185638Y-32217487D01*
X133185638Y-32217487D02*
X133376114Y-32217487D01*
X133376114Y-32217487D02*
X133452304Y-32255582D01*
X133452304Y-32255582D02*
X133490400Y-32293677D01*
X133490400Y-32293677D02*
X133528495Y-32369868D01*
X133528495Y-32369868D02*
X133528495Y-32560344D01*
X133528495Y-32560344D02*
X133490400Y-32636534D01*
X133490400Y-32636534D02*
X133452304Y-32674630D01*
X132728495Y-31988915D02*
X133528495Y-31722248D01*
X133528495Y-31722248D02*
X132728495Y-31455582D01*
D11*
X146607819Y-57143030D02*
X146607819Y-57619220D01*
X146607819Y-57619220D02*
X145607819Y-57619220D01*
D10*
X135878095Y-67466020D02*
X135878095Y-67008877D01*
X136678095Y-67237449D02*
X135878095Y-67237449D01*
X136678095Y-66818401D02*
X136144761Y-66399353D01*
X136144761Y-66818401D02*
X136678095Y-66399353D01*
X136678095Y-66094591D02*
X135878095Y-66094591D01*
X135878095Y-66094591D02*
X135878095Y-65904115D01*
X135878095Y-65904115D02*
X135916190Y-65789829D01*
X135916190Y-65789829D02*
X135992380Y-65713639D01*
X135992380Y-65713639D02*
X136068571Y-65675544D01*
X136068571Y-65675544D02*
X136220952Y-65637448D01*
X136220952Y-65637448D02*
X136335238Y-65637448D01*
X136335238Y-65637448D02*
X136487619Y-65675544D01*
X136487619Y-65675544D02*
X136563809Y-65713639D01*
X136563809Y-65713639D02*
X136640000Y-65789829D01*
X136640000Y-65789829D02*
X136678095Y-65904115D01*
X136678095Y-65904115D02*
X136678095Y-66094591D01*
X166986495Y-32255582D02*
X166986495Y-32636534D01*
X166986495Y-32636534D02*
X167367447Y-32674630D01*
X167367447Y-32674630D02*
X167329352Y-32636534D01*
X167329352Y-32636534D02*
X167291257Y-32560344D01*
X167291257Y-32560344D02*
X167291257Y-32369868D01*
X167291257Y-32369868D02*
X167329352Y-32293677D01*
X167329352Y-32293677D02*
X167367447Y-32255582D01*
X167367447Y-32255582D02*
X167443638Y-32217487D01*
X167443638Y-32217487D02*
X167634114Y-32217487D01*
X167634114Y-32217487D02*
X167710304Y-32255582D01*
X167710304Y-32255582D02*
X167748400Y-32293677D01*
X167748400Y-32293677D02*
X167786495Y-32369868D01*
X167786495Y-32369868D02*
X167786495Y-32560344D01*
X167786495Y-32560344D02*
X167748400Y-32636534D01*
X167748400Y-32636534D02*
X167710304Y-32674630D01*
X166986495Y-31988915D02*
X167786495Y-31722248D01*
X167786495Y-31722248D02*
X166986495Y-31455582D01*
X173336495Y-32255582D02*
X173336495Y-32636534D01*
X173336495Y-32636534D02*
X173717447Y-32674630D01*
X173717447Y-32674630D02*
X173679352Y-32636534D01*
X173679352Y-32636534D02*
X173641257Y-32560344D01*
X173641257Y-32560344D02*
X173641257Y-32369868D01*
X173641257Y-32369868D02*
X173679352Y-32293677D01*
X173679352Y-32293677D02*
X173717447Y-32255582D01*
X173717447Y-32255582D02*
X173793638Y-32217487D01*
X173793638Y-32217487D02*
X173984114Y-32217487D01*
X173984114Y-32217487D02*
X174060304Y-32255582D01*
X174060304Y-32255582D02*
X174098400Y-32293677D01*
X174098400Y-32293677D02*
X174136495Y-32369868D01*
X174136495Y-32369868D02*
X174136495Y-32560344D01*
X174136495Y-32560344D02*
X174098400Y-32636534D01*
X174098400Y-32636534D02*
X174060304Y-32674630D01*
X173336495Y-31988915D02*
X174136495Y-31722248D01*
X174136495Y-31722248D02*
X173336495Y-31455582D01*
X170136095Y-90040020D02*
X170136095Y-89582877D01*
X170936095Y-89811449D02*
X170136095Y-89811449D01*
X170936095Y-89392401D02*
X170402761Y-88973353D01*
X170402761Y-89392401D02*
X170936095Y-88973353D01*
X170936095Y-88668591D02*
X170136095Y-88668591D01*
X170136095Y-88668591D02*
X170136095Y-88478115D01*
X170136095Y-88478115D02*
X170174190Y-88363829D01*
X170174190Y-88363829D02*
X170250380Y-88287639D01*
X170250380Y-88287639D02*
X170326571Y-88249544D01*
X170326571Y-88249544D02*
X170478952Y-88211448D01*
X170478952Y-88211448D02*
X170593238Y-88211448D01*
X170593238Y-88211448D02*
X170745619Y-88249544D01*
X170745619Y-88249544D02*
X170821809Y-88287639D01*
X170821809Y-88287639D02*
X170898000Y-88363829D01*
X170898000Y-88363829D02*
X170936095Y-88478115D01*
X170936095Y-88478115D02*
X170936095Y-88668591D01*
X173336495Y-54829582D02*
X173336495Y-55210534D01*
X173336495Y-55210534D02*
X173717447Y-55248630D01*
X173717447Y-55248630D02*
X173679352Y-55210534D01*
X173679352Y-55210534D02*
X173641257Y-55134344D01*
X173641257Y-55134344D02*
X173641257Y-54943868D01*
X173641257Y-54943868D02*
X173679352Y-54867677D01*
X173679352Y-54867677D02*
X173717447Y-54829582D01*
X173717447Y-54829582D02*
X173793638Y-54791487D01*
X173793638Y-54791487D02*
X173984114Y-54791487D01*
X173984114Y-54791487D02*
X174060304Y-54829582D01*
X174060304Y-54829582D02*
X174098400Y-54867677D01*
X174098400Y-54867677D02*
X174136495Y-54943868D01*
X174136495Y-54943868D02*
X174136495Y-55134344D01*
X174136495Y-55134344D02*
X174098400Y-55210534D01*
X174098400Y-55210534D02*
X174060304Y-55248630D01*
X173336495Y-54562915D02*
X174136495Y-54296248D01*
X174136495Y-54296248D02*
X173336495Y-54029582D01*
X160636495Y-54829582D02*
X160636495Y-55210534D01*
X160636495Y-55210534D02*
X161017447Y-55248630D01*
X161017447Y-55248630D02*
X160979352Y-55210534D01*
X160979352Y-55210534D02*
X160941257Y-55134344D01*
X160941257Y-55134344D02*
X160941257Y-54943868D01*
X160941257Y-54943868D02*
X160979352Y-54867677D01*
X160979352Y-54867677D02*
X161017447Y-54829582D01*
X161017447Y-54829582D02*
X161093638Y-54791487D01*
X161093638Y-54791487D02*
X161284114Y-54791487D01*
X161284114Y-54791487D02*
X161360304Y-54829582D01*
X161360304Y-54829582D02*
X161398400Y-54867677D01*
X161398400Y-54867677D02*
X161436495Y-54943868D01*
X161436495Y-54943868D02*
X161436495Y-55134344D01*
X161436495Y-55134344D02*
X161398400Y-55210534D01*
X161398400Y-55210534D02*
X161360304Y-55248630D01*
X160636495Y-54562915D02*
X161436495Y-54296248D01*
X161436495Y-54296248D02*
X160636495Y-54029582D01*
X140335695Y-89570191D02*
X139954742Y-89836858D01*
X140335695Y-90027334D02*
X139535695Y-90027334D01*
X139535695Y-90027334D02*
X139535695Y-89722572D01*
X139535695Y-89722572D02*
X139573790Y-89646382D01*
X139573790Y-89646382D02*
X139611885Y-89608287D01*
X139611885Y-89608287D02*
X139688076Y-89570191D01*
X139688076Y-89570191D02*
X139802361Y-89570191D01*
X139802361Y-89570191D02*
X139878552Y-89608287D01*
X139878552Y-89608287D02*
X139916647Y-89646382D01*
X139916647Y-89646382D02*
X139954742Y-89722572D01*
X139954742Y-89722572D02*
X139954742Y-90027334D01*
X140335695Y-89303525D02*
X139802361Y-88884477D01*
X139802361Y-89303525D02*
X140335695Y-88884477D01*
X140335695Y-88579715D02*
X139535695Y-88579715D01*
X139535695Y-88579715D02*
X139535695Y-88389239D01*
X139535695Y-88389239D02*
X139573790Y-88274953D01*
X139573790Y-88274953D02*
X139649980Y-88198763D01*
X139649980Y-88198763D02*
X139726171Y-88160668D01*
X139726171Y-88160668D02*
X139878552Y-88122572D01*
X139878552Y-88122572D02*
X139992838Y-88122572D01*
X139992838Y-88122572D02*
X140145219Y-88160668D01*
X140145219Y-88160668D02*
X140221409Y-88198763D01*
X140221409Y-88198763D02*
X140297600Y-88274953D01*
X140297600Y-88274953D02*
X140335695Y-88389239D01*
X140335695Y-88389239D02*
X140335695Y-88579715D01*
D11*
X146607819Y-34569030D02*
X146607819Y-35045220D01*
X146607819Y-35045220D02*
X145607819Y-35045220D01*
D10*
X140335695Y-66996191D02*
X139954742Y-67262858D01*
X140335695Y-67453334D02*
X139535695Y-67453334D01*
X139535695Y-67453334D02*
X139535695Y-67148572D01*
X139535695Y-67148572D02*
X139573790Y-67072382D01*
X139573790Y-67072382D02*
X139611885Y-67034287D01*
X139611885Y-67034287D02*
X139688076Y-66996191D01*
X139688076Y-66996191D02*
X139802361Y-66996191D01*
X139802361Y-66996191D02*
X139878552Y-67034287D01*
X139878552Y-67034287D02*
X139916647Y-67072382D01*
X139916647Y-67072382D02*
X139954742Y-67148572D01*
X139954742Y-67148572D02*
X139954742Y-67453334D01*
X140335695Y-66729525D02*
X139802361Y-66310477D01*
X139802361Y-66729525D02*
X140335695Y-66310477D01*
X140335695Y-66005715D02*
X139535695Y-66005715D01*
X139535695Y-66005715D02*
X139535695Y-65815239D01*
X139535695Y-65815239D02*
X139573790Y-65700953D01*
X139573790Y-65700953D02*
X139649980Y-65624763D01*
X139649980Y-65624763D02*
X139726171Y-65586668D01*
X139726171Y-65586668D02*
X139878552Y-65548572D01*
X139878552Y-65548572D02*
X139992838Y-65548572D01*
X139992838Y-65548572D02*
X140145219Y-65586668D01*
X140145219Y-65586668D02*
X140221409Y-65624763D01*
X140221409Y-65624763D02*
X140297600Y-65700953D01*
X140297600Y-65700953D02*
X140335695Y-65815239D01*
X140335695Y-65815239D02*
X140335695Y-66005715D01*
X135878095Y-90040020D02*
X135878095Y-89582877D01*
X136678095Y-89811449D02*
X135878095Y-89811449D01*
X136678095Y-89392401D02*
X136144761Y-88973353D01*
X136144761Y-89392401D02*
X136678095Y-88973353D01*
X136678095Y-88668591D02*
X135878095Y-88668591D01*
X135878095Y-88668591D02*
X135878095Y-88478115D01*
X135878095Y-88478115D02*
X135916190Y-88363829D01*
X135916190Y-88363829D02*
X135992380Y-88287639D01*
X135992380Y-88287639D02*
X136068571Y-88249544D01*
X136068571Y-88249544D02*
X136220952Y-88211448D01*
X136220952Y-88211448D02*
X136335238Y-88211448D01*
X136335238Y-88211448D02*
X136487619Y-88249544D01*
X136487619Y-88249544D02*
X136563809Y-88287639D01*
X136563809Y-88287639D02*
X136640000Y-88363829D01*
X136640000Y-88363829D02*
X136678095Y-88478115D01*
X136678095Y-88478115D02*
X136678095Y-88668591D01*
D11*
X146607819Y-66636220D02*
X145607819Y-66636220D01*
X146084009Y-66636220D02*
X146084009Y-66064792D01*
X146607819Y-66064792D02*
X145607819Y-66064792D01*
D10*
X170136095Y-67466020D02*
X170136095Y-67008877D01*
X170936095Y-67237449D02*
X170136095Y-67237449D01*
X170936095Y-66818401D02*
X170402761Y-66399353D01*
X170402761Y-66818401D02*
X170936095Y-66399353D01*
X170936095Y-66094591D02*
X170136095Y-66094591D01*
X170136095Y-66094591D02*
X170136095Y-65904115D01*
X170136095Y-65904115D02*
X170174190Y-65789829D01*
X170174190Y-65789829D02*
X170250380Y-65713639D01*
X170250380Y-65713639D02*
X170326571Y-65675544D01*
X170326571Y-65675544D02*
X170478952Y-65637448D01*
X170478952Y-65637448D02*
X170593238Y-65637448D01*
X170593238Y-65637448D02*
X170745619Y-65675544D01*
X170745619Y-65675544D02*
X170821809Y-65713639D01*
X170821809Y-65713639D02*
X170898000Y-65789829D01*
X170898000Y-65789829D02*
X170936095Y-65904115D01*
X170936095Y-65904115D02*
X170936095Y-66094591D01*
D11*
X180865819Y-44062220D02*
X179865819Y-44062220D01*
X180342009Y-44062220D02*
X180342009Y-43490792D01*
X180865819Y-43490792D02*
X179865819Y-43490792D01*
D10*
X160636495Y-77403582D02*
X160636495Y-77784534D01*
X160636495Y-77784534D02*
X161017447Y-77822630D01*
X161017447Y-77822630D02*
X160979352Y-77784534D01*
X160979352Y-77784534D02*
X160941257Y-77708344D01*
X160941257Y-77708344D02*
X160941257Y-77517868D01*
X160941257Y-77517868D02*
X160979352Y-77441677D01*
X160979352Y-77441677D02*
X161017447Y-77403582D01*
X161017447Y-77403582D02*
X161093638Y-77365487D01*
X161093638Y-77365487D02*
X161284114Y-77365487D01*
X161284114Y-77365487D02*
X161360304Y-77403582D01*
X161360304Y-77403582D02*
X161398400Y-77441677D01*
X161398400Y-77441677D02*
X161436495Y-77517868D01*
X161436495Y-77517868D02*
X161436495Y-77708344D01*
X161436495Y-77708344D02*
X161398400Y-77784534D01*
X161398400Y-77784534D02*
X161360304Y-77822630D01*
X160636495Y-77136915D02*
X161436495Y-76870248D01*
X161436495Y-76870248D02*
X160636495Y-76603582D01*
X139078495Y-32255582D02*
X139078495Y-32636534D01*
X139078495Y-32636534D02*
X139459447Y-32674630D01*
X139459447Y-32674630D02*
X139421352Y-32636534D01*
X139421352Y-32636534D02*
X139383257Y-32560344D01*
X139383257Y-32560344D02*
X139383257Y-32369868D01*
X139383257Y-32369868D02*
X139421352Y-32293677D01*
X139421352Y-32293677D02*
X139459447Y-32255582D01*
X139459447Y-32255582D02*
X139535638Y-32217487D01*
X139535638Y-32217487D02*
X139726114Y-32217487D01*
X139726114Y-32217487D02*
X139802304Y-32255582D01*
X139802304Y-32255582D02*
X139840400Y-32293677D01*
X139840400Y-32293677D02*
X139878495Y-32369868D01*
X139878495Y-32369868D02*
X139878495Y-32560344D01*
X139878495Y-32560344D02*
X139840400Y-32636534D01*
X139840400Y-32636534D02*
X139802304Y-32674630D01*
X139078495Y-31988915D02*
X139878495Y-31722248D01*
X139878495Y-31722248D02*
X139078495Y-31455582D01*
X174593695Y-89570191D02*
X174212742Y-89836858D01*
X174593695Y-90027334D02*
X173793695Y-90027334D01*
X173793695Y-90027334D02*
X173793695Y-89722572D01*
X173793695Y-89722572D02*
X173831790Y-89646382D01*
X173831790Y-89646382D02*
X173869885Y-89608287D01*
X173869885Y-89608287D02*
X173946076Y-89570191D01*
X173946076Y-89570191D02*
X174060361Y-89570191D01*
X174060361Y-89570191D02*
X174136552Y-89608287D01*
X174136552Y-89608287D02*
X174174647Y-89646382D01*
X174174647Y-89646382D02*
X174212742Y-89722572D01*
X174212742Y-89722572D02*
X174212742Y-90027334D01*
X174593695Y-89303525D02*
X174060361Y-88884477D01*
X174060361Y-89303525D02*
X174593695Y-88884477D01*
X174593695Y-88579715D02*
X173793695Y-88579715D01*
X173793695Y-88579715D02*
X173793695Y-88389239D01*
X173793695Y-88389239D02*
X173831790Y-88274953D01*
X173831790Y-88274953D02*
X173907980Y-88198763D01*
X173907980Y-88198763D02*
X173984171Y-88160668D01*
X173984171Y-88160668D02*
X174136552Y-88122572D01*
X174136552Y-88122572D02*
X174250838Y-88122572D01*
X174250838Y-88122572D02*
X174403219Y-88160668D01*
X174403219Y-88160668D02*
X174479409Y-88198763D01*
X174479409Y-88198763D02*
X174555600Y-88274953D01*
X174555600Y-88274953D02*
X174593695Y-88389239D01*
X174593695Y-88389239D02*
X174593695Y-88579715D01*
D11*
X146607819Y-79717030D02*
X146607819Y-80193220D01*
X146607819Y-80193220D02*
X145607819Y-80193220D01*
D10*
X173336495Y-77403582D02*
X173336495Y-77784534D01*
X173336495Y-77784534D02*
X173717447Y-77822630D01*
X173717447Y-77822630D02*
X173679352Y-77784534D01*
X173679352Y-77784534D02*
X173641257Y-77708344D01*
X173641257Y-77708344D02*
X173641257Y-77517868D01*
X173641257Y-77517868D02*
X173679352Y-77441677D01*
X173679352Y-77441677D02*
X173717447Y-77403582D01*
X173717447Y-77403582D02*
X173793638Y-77365487D01*
X173793638Y-77365487D02*
X173984114Y-77365487D01*
X173984114Y-77365487D02*
X174060304Y-77403582D01*
X174060304Y-77403582D02*
X174098400Y-77441677D01*
X174098400Y-77441677D02*
X174136495Y-77517868D01*
X174136495Y-77517868D02*
X174136495Y-77708344D01*
X174136495Y-77708344D02*
X174098400Y-77784534D01*
X174098400Y-77784534D02*
X174060304Y-77822630D01*
X173336495Y-77136915D02*
X174136495Y-76870248D01*
X174136495Y-76870248D02*
X173336495Y-76603582D01*
X132728495Y-54829582D02*
X132728495Y-55210534D01*
X132728495Y-55210534D02*
X133109447Y-55248630D01*
X133109447Y-55248630D02*
X133071352Y-55210534D01*
X133071352Y-55210534D02*
X133033257Y-55134344D01*
X133033257Y-55134344D02*
X133033257Y-54943868D01*
X133033257Y-54943868D02*
X133071352Y-54867677D01*
X133071352Y-54867677D02*
X133109447Y-54829582D01*
X133109447Y-54829582D02*
X133185638Y-54791487D01*
X133185638Y-54791487D02*
X133376114Y-54791487D01*
X133376114Y-54791487D02*
X133452304Y-54829582D01*
X133452304Y-54829582D02*
X133490400Y-54867677D01*
X133490400Y-54867677D02*
X133528495Y-54943868D01*
X133528495Y-54943868D02*
X133528495Y-55134344D01*
X133528495Y-55134344D02*
X133490400Y-55210534D01*
X133490400Y-55210534D02*
X133452304Y-55248630D01*
X132728495Y-54562915D02*
X133528495Y-54296248D01*
X133528495Y-54296248D02*
X132728495Y-54029582D01*
D11*
X180865819Y-57143030D02*
X180865819Y-57619220D01*
X180865819Y-57619220D02*
X179865819Y-57619220D01*
D10*
X139078495Y-77403582D02*
X139078495Y-77784534D01*
X139078495Y-77784534D02*
X139459447Y-77822630D01*
X139459447Y-77822630D02*
X139421352Y-77784534D01*
X139421352Y-77784534D02*
X139383257Y-77708344D01*
X139383257Y-77708344D02*
X139383257Y-77517868D01*
X139383257Y-77517868D02*
X139421352Y-77441677D01*
X139421352Y-77441677D02*
X139459447Y-77403582D01*
X139459447Y-77403582D02*
X139535638Y-77365487D01*
X139535638Y-77365487D02*
X139726114Y-77365487D01*
X139726114Y-77365487D02*
X139802304Y-77403582D01*
X139802304Y-77403582D02*
X139840400Y-77441677D01*
X139840400Y-77441677D02*
X139878495Y-77517868D01*
X139878495Y-77517868D02*
X139878495Y-77708344D01*
X139878495Y-77708344D02*
X139840400Y-77784534D01*
X139840400Y-77784534D02*
X139802304Y-77822630D01*
X139078495Y-77136915D02*
X139878495Y-76870248D01*
X139878495Y-76870248D02*
X139078495Y-76603582D01*
X170136095Y-44892020D02*
X170136095Y-44434877D01*
X170936095Y-44663449D02*
X170136095Y-44663449D01*
X170936095Y-44244401D02*
X170402761Y-43825353D01*
X170402761Y-44244401D02*
X170936095Y-43825353D01*
X170936095Y-43520591D02*
X170136095Y-43520591D01*
X170136095Y-43520591D02*
X170136095Y-43330115D01*
X170136095Y-43330115D02*
X170174190Y-43215829D01*
X170174190Y-43215829D02*
X170250380Y-43139639D01*
X170250380Y-43139639D02*
X170326571Y-43101544D01*
X170326571Y-43101544D02*
X170478952Y-43063448D01*
X170478952Y-43063448D02*
X170593238Y-43063448D01*
X170593238Y-43063448D02*
X170745619Y-43101544D01*
X170745619Y-43101544D02*
X170821809Y-43139639D01*
X170821809Y-43139639D02*
X170898000Y-43215829D01*
X170898000Y-43215829D02*
X170936095Y-43330115D01*
X170936095Y-43330115D02*
X170936095Y-43520591D01*
X160636495Y-32255582D02*
X160636495Y-32636534D01*
X160636495Y-32636534D02*
X161017447Y-32674630D01*
X161017447Y-32674630D02*
X160979352Y-32636534D01*
X160979352Y-32636534D02*
X160941257Y-32560344D01*
X160941257Y-32560344D02*
X160941257Y-32369868D01*
X160941257Y-32369868D02*
X160979352Y-32293677D01*
X160979352Y-32293677D02*
X161017447Y-32255582D01*
X161017447Y-32255582D02*
X161093638Y-32217487D01*
X161093638Y-32217487D02*
X161284114Y-32217487D01*
X161284114Y-32217487D02*
X161360304Y-32255582D01*
X161360304Y-32255582D02*
X161398400Y-32293677D01*
X161398400Y-32293677D02*
X161436495Y-32369868D01*
X161436495Y-32369868D02*
X161436495Y-32560344D01*
X161436495Y-32560344D02*
X161398400Y-32636534D01*
X161398400Y-32636534D02*
X161360304Y-32674630D01*
X160636495Y-31988915D02*
X161436495Y-31722248D01*
X161436495Y-31722248D02*
X160636495Y-31455582D01*
D11*
X180865819Y-66636220D02*
X179865819Y-66636220D01*
X180342009Y-66636220D02*
X180342009Y-66064792D01*
X180865819Y-66064792D02*
X179865819Y-66064792D01*
X180865819Y-34569030D02*
X180865819Y-35045220D01*
X180865819Y-35045220D02*
X179865819Y-35045220D01*
D10*
X135878095Y-44892020D02*
X135878095Y-44434877D01*
X136678095Y-44663449D02*
X135878095Y-44663449D01*
X136678095Y-44244401D02*
X136144761Y-43825353D01*
X136144761Y-44244401D02*
X136678095Y-43825353D01*
X136678095Y-43520591D02*
X135878095Y-43520591D01*
X135878095Y-43520591D02*
X135878095Y-43330115D01*
X135878095Y-43330115D02*
X135916190Y-43215829D01*
X135916190Y-43215829D02*
X135992380Y-43139639D01*
X135992380Y-43139639D02*
X136068571Y-43101544D01*
X136068571Y-43101544D02*
X136220952Y-43063448D01*
X136220952Y-43063448D02*
X136335238Y-43063448D01*
X136335238Y-43063448D02*
X136487619Y-43101544D01*
X136487619Y-43101544D02*
X136563809Y-43139639D01*
X136563809Y-43139639D02*
X136640000Y-43215829D01*
X136640000Y-43215829D02*
X136678095Y-43330115D01*
X136678095Y-43330115D02*
X136678095Y-43520591D01*
D11*
X140411905Y-73364819D02*
X140411905Y-72364819D01*
X140411905Y-72364819D02*
X140650000Y-72364819D01*
X140650000Y-72364819D02*
X140792857Y-72412438D01*
X140792857Y-72412438D02*
X140888095Y-72507676D01*
X140888095Y-72507676D02*
X140935714Y-72602914D01*
X140935714Y-72602914D02*
X140983333Y-72793390D01*
X140983333Y-72793390D02*
X140983333Y-72936247D01*
X140983333Y-72936247D02*
X140935714Y-73126723D01*
X140935714Y-73126723D02*
X140888095Y-73221961D01*
X140888095Y-73221961D02*
X140792857Y-73317200D01*
X140792857Y-73317200D02*
X140650000Y-73364819D01*
X140650000Y-73364819D02*
X140411905Y-73364819D01*
X141316667Y-72364819D02*
X141935714Y-72364819D01*
X141935714Y-72364819D02*
X141602381Y-72745771D01*
X141602381Y-72745771D02*
X141745238Y-72745771D01*
X141745238Y-72745771D02*
X141840476Y-72793390D01*
X141840476Y-72793390D02*
X141888095Y-72841009D01*
X141888095Y-72841009D02*
X141935714Y-72936247D01*
X141935714Y-72936247D02*
X141935714Y-73174342D01*
X141935714Y-73174342D02*
X141888095Y-73269580D01*
X141888095Y-73269580D02*
X141840476Y-73317200D01*
X141840476Y-73317200D02*
X141745238Y-73364819D01*
X141745238Y-73364819D02*
X141459524Y-73364819D01*
X141459524Y-73364819D02*
X141364286Y-73317200D01*
X141364286Y-73317200D02*
X141316667Y-73269580D01*
X140207819Y-80004085D02*
X140207819Y-80575513D01*
X140207819Y-80289799D02*
X139207819Y-80289799D01*
X139207819Y-80289799D02*
X139350676Y-80385037D01*
X139350676Y-80385037D02*
X139445914Y-80480275D01*
X139445914Y-80480275D02*
X139493533Y-80575513D01*
X154413333Y-69332819D02*
X154080000Y-68856628D01*
X153841905Y-69332819D02*
X153841905Y-68332819D01*
X153841905Y-68332819D02*
X154222857Y-68332819D01*
X154222857Y-68332819D02*
X154318095Y-68380438D01*
X154318095Y-68380438D02*
X154365714Y-68428057D01*
X154365714Y-68428057D02*
X154413333Y-68523295D01*
X154413333Y-68523295D02*
X154413333Y-68666152D01*
X154413333Y-68666152D02*
X154365714Y-68761390D01*
X154365714Y-68761390D02*
X154318095Y-68809009D01*
X154318095Y-68809009D02*
X154222857Y-68856628D01*
X154222857Y-68856628D02*
X153841905Y-68856628D01*
X155318095Y-68332819D02*
X154841905Y-68332819D01*
X154841905Y-68332819D02*
X154794286Y-68809009D01*
X154794286Y-68809009D02*
X154841905Y-68761390D01*
X154841905Y-68761390D02*
X154937143Y-68713771D01*
X154937143Y-68713771D02*
X155175238Y-68713771D01*
X155175238Y-68713771D02*
X155270476Y-68761390D01*
X155270476Y-68761390D02*
X155318095Y-68809009D01*
X155318095Y-68809009D02*
X155365714Y-68904247D01*
X155365714Y-68904247D02*
X155365714Y-69142342D01*
X155365714Y-69142342D02*
X155318095Y-69237580D01*
X155318095Y-69237580D02*
X155270476Y-69285200D01*
X155270476Y-69285200D02*
X155175238Y-69332819D01*
X155175238Y-69332819D02*
X154937143Y-69332819D01*
X154937143Y-69332819D02*
X154841905Y-69285200D01*
X154841905Y-69285200D02*
X154794286Y-69237580D01*
X158717819Y-33135666D02*
X158241628Y-33468999D01*
X158717819Y-33707094D02*
X157717819Y-33707094D01*
X157717819Y-33707094D02*
X157717819Y-33326142D01*
X157717819Y-33326142D02*
X157765438Y-33230904D01*
X157765438Y-33230904D02*
X157813057Y-33183285D01*
X157813057Y-33183285D02*
X157908295Y-33135666D01*
X157908295Y-33135666D02*
X158051152Y-33135666D01*
X158051152Y-33135666D02*
X158146390Y-33183285D01*
X158146390Y-33183285D02*
X158194009Y-33230904D01*
X158194009Y-33230904D02*
X158241628Y-33326142D01*
X158241628Y-33326142D02*
X158241628Y-33707094D01*
X157717819Y-32802332D02*
X157717819Y-32183285D01*
X157717819Y-32183285D02*
X158098771Y-32516618D01*
X158098771Y-32516618D02*
X158098771Y-32373761D01*
X158098771Y-32373761D02*
X158146390Y-32278523D01*
X158146390Y-32278523D02*
X158194009Y-32230904D01*
X158194009Y-32230904D02*
X158289247Y-32183285D01*
X158289247Y-32183285D02*
X158527342Y-32183285D01*
X158527342Y-32183285D02*
X158622580Y-32230904D01*
X158622580Y-32230904D02*
X158670200Y-32278523D01*
X158670200Y-32278523D02*
X158717819Y-32373761D01*
X158717819Y-32373761D02*
X158717819Y-32659475D01*
X158717819Y-32659475D02*
X158670200Y-32754713D01*
X158670200Y-32754713D02*
X158622580Y-32802332D01*
X161969905Y-50790819D02*
X161969905Y-49790819D01*
X161969905Y-49790819D02*
X162208000Y-49790819D01*
X162208000Y-49790819D02*
X162350857Y-49838438D01*
X162350857Y-49838438D02*
X162446095Y-49933676D01*
X162446095Y-49933676D02*
X162493714Y-50028914D01*
X162493714Y-50028914D02*
X162541333Y-50219390D01*
X162541333Y-50219390D02*
X162541333Y-50362247D01*
X162541333Y-50362247D02*
X162493714Y-50552723D01*
X162493714Y-50552723D02*
X162446095Y-50647961D01*
X162446095Y-50647961D02*
X162350857Y-50743200D01*
X162350857Y-50743200D02*
X162208000Y-50790819D01*
X162208000Y-50790819D02*
X161969905Y-50790819D01*
X163493714Y-50790819D02*
X162922286Y-50790819D01*
X163208000Y-50790819D02*
X163208000Y-49790819D01*
X163208000Y-49790819D02*
X163112762Y-49933676D01*
X163112762Y-49933676D02*
X163017524Y-50028914D01*
X163017524Y-50028914D02*
X162922286Y-50076533D01*
X161765819Y-57467085D02*
X161765819Y-58038513D01*
X161765819Y-57752799D02*
X160765819Y-57752799D01*
X160765819Y-57752799D02*
X160908676Y-57848037D01*
X160908676Y-57848037D02*
X161003914Y-57943275D01*
X161003914Y-57943275D02*
X161051533Y-58038513D01*
X168319905Y-28216819D02*
X168319905Y-27216819D01*
X168319905Y-27216819D02*
X168558000Y-27216819D01*
X168558000Y-27216819D02*
X168700857Y-27264438D01*
X168700857Y-27264438D02*
X168796095Y-27359676D01*
X168796095Y-27359676D02*
X168843714Y-27454914D01*
X168843714Y-27454914D02*
X168891333Y-27645390D01*
X168891333Y-27645390D02*
X168891333Y-27788247D01*
X168891333Y-27788247D02*
X168843714Y-27978723D01*
X168843714Y-27978723D02*
X168796095Y-28073961D01*
X168796095Y-28073961D02*
X168700857Y-28169200D01*
X168700857Y-28169200D02*
X168558000Y-28216819D01*
X168558000Y-28216819D02*
X168319905Y-28216819D01*
X169272286Y-27312057D02*
X169319905Y-27264438D01*
X169319905Y-27264438D02*
X169415143Y-27216819D01*
X169415143Y-27216819D02*
X169653238Y-27216819D01*
X169653238Y-27216819D02*
X169748476Y-27264438D01*
X169748476Y-27264438D02*
X169796095Y-27312057D01*
X169796095Y-27312057D02*
X169843714Y-27407295D01*
X169843714Y-27407295D02*
X169843714Y-27502533D01*
X169843714Y-27502533D02*
X169796095Y-27645390D01*
X169796095Y-27645390D02*
X169224667Y-28216819D01*
X169224667Y-28216819D02*
X169843714Y-28216819D01*
X168115819Y-34856085D02*
X168115819Y-35427513D01*
X168115819Y-35141799D02*
X167115819Y-35141799D01*
X167115819Y-35141799D02*
X167258676Y-35237037D01*
X167258676Y-35237037D02*
X167353914Y-35332275D01*
X167353914Y-35332275D02*
X167401533Y-35427513D01*
X171434610Y-43609219D02*
X171434610Y-42609219D01*
X172482228Y-43513980D02*
X172434609Y-43561600D01*
X172434609Y-43561600D02*
X172291752Y-43609219D01*
X172291752Y-43609219D02*
X172196514Y-43609219D01*
X172196514Y-43609219D02*
X172053657Y-43561600D01*
X172053657Y-43561600D02*
X171958419Y-43466361D01*
X171958419Y-43466361D02*
X171910800Y-43371123D01*
X171910800Y-43371123D02*
X171863181Y-43180647D01*
X171863181Y-43180647D02*
X171863181Y-43037790D01*
X171863181Y-43037790D02*
X171910800Y-42847314D01*
X171910800Y-42847314D02*
X171958419Y-42752076D01*
X171958419Y-42752076D02*
X172053657Y-42656838D01*
X172053657Y-42656838D02*
X172196514Y-42609219D01*
X172196514Y-42609219D02*
X172291752Y-42609219D01*
X172291752Y-42609219D02*
X172434609Y-42656838D01*
X172434609Y-42656838D02*
X172482228Y-42704457D01*
X173434609Y-43609219D02*
X172863181Y-43609219D01*
X173148895Y-43609219D02*
X173148895Y-42609219D01*
X173148895Y-42609219D02*
X173053657Y-42752076D01*
X173053657Y-42752076D02*
X172958419Y-42847314D01*
X172958419Y-42847314D02*
X172863181Y-42894933D01*
X158881833Y-36598819D02*
X158548500Y-36122628D01*
X158310405Y-36598819D02*
X158310405Y-35598819D01*
X158310405Y-35598819D02*
X158691357Y-35598819D01*
X158691357Y-35598819D02*
X158786595Y-35646438D01*
X158786595Y-35646438D02*
X158834214Y-35694057D01*
X158834214Y-35694057D02*
X158881833Y-35789295D01*
X158881833Y-35789295D02*
X158881833Y-35932152D01*
X158881833Y-35932152D02*
X158834214Y-36027390D01*
X158834214Y-36027390D02*
X158786595Y-36075009D01*
X158786595Y-36075009D02*
X158691357Y-36122628D01*
X158691357Y-36122628D02*
X158310405Y-36122628D01*
X159738976Y-35598819D02*
X159548500Y-35598819D01*
X159548500Y-35598819D02*
X159453262Y-35646438D01*
X159453262Y-35646438D02*
X159405643Y-35694057D01*
X159405643Y-35694057D02*
X159310405Y-35836914D01*
X159310405Y-35836914D02*
X159262786Y-36027390D01*
X159262786Y-36027390D02*
X159262786Y-36408342D01*
X159262786Y-36408342D02*
X159310405Y-36503580D01*
X159310405Y-36503580D02*
X159358024Y-36551200D01*
X159358024Y-36551200D02*
X159453262Y-36598819D01*
X159453262Y-36598819D02*
X159643738Y-36598819D01*
X159643738Y-36598819D02*
X159738976Y-36551200D01*
X159738976Y-36551200D02*
X159786595Y-36503580D01*
X159786595Y-36503580D02*
X159834214Y-36408342D01*
X159834214Y-36408342D02*
X159834214Y-36170247D01*
X159834214Y-36170247D02*
X159786595Y-36075009D01*
X159786595Y-36075009D02*
X159738976Y-36027390D01*
X159738976Y-36027390D02*
X159643738Y-35979771D01*
X159643738Y-35979771D02*
X159453262Y-35979771D01*
X159453262Y-35979771D02*
X159358024Y-36027390D01*
X159358024Y-36027390D02*
X159310405Y-36075009D01*
X159310405Y-36075009D02*
X159262786Y-36170247D01*
X157461333Y-73618819D02*
X157128000Y-73142628D01*
X156889905Y-73618819D02*
X156889905Y-72618819D01*
X156889905Y-72618819D02*
X157270857Y-72618819D01*
X157270857Y-72618819D02*
X157366095Y-72666438D01*
X157366095Y-72666438D02*
X157413714Y-72714057D01*
X157413714Y-72714057D02*
X157461333Y-72809295D01*
X157461333Y-72809295D02*
X157461333Y-72952152D01*
X157461333Y-72952152D02*
X157413714Y-73047390D01*
X157413714Y-73047390D02*
X157366095Y-73095009D01*
X157366095Y-73095009D02*
X157270857Y-73142628D01*
X157270857Y-73142628D02*
X156889905Y-73142628D01*
X158318476Y-72952152D02*
X158318476Y-73618819D01*
X158080381Y-72571200D02*
X157842286Y-73285485D01*
X157842286Y-73285485D02*
X158461333Y-73285485D01*
X174669905Y-73364819D02*
X174669905Y-72364819D01*
X174669905Y-72364819D02*
X174908000Y-72364819D01*
X174908000Y-72364819D02*
X175050857Y-72412438D01*
X175050857Y-72412438D02*
X175146095Y-72507676D01*
X175146095Y-72507676D02*
X175193714Y-72602914D01*
X175193714Y-72602914D02*
X175241333Y-72793390D01*
X175241333Y-72793390D02*
X175241333Y-72936247D01*
X175241333Y-72936247D02*
X175193714Y-73126723D01*
X175193714Y-73126723D02*
X175146095Y-73221961D01*
X175146095Y-73221961D02*
X175050857Y-73317200D01*
X175050857Y-73317200D02*
X174908000Y-73364819D01*
X174908000Y-73364819D02*
X174669905Y-73364819D01*
X175574667Y-72364819D02*
X176193714Y-72364819D01*
X176193714Y-72364819D02*
X175860381Y-72745771D01*
X175860381Y-72745771D02*
X176003238Y-72745771D01*
X176003238Y-72745771D02*
X176098476Y-72793390D01*
X176098476Y-72793390D02*
X176146095Y-72841009D01*
X176146095Y-72841009D02*
X176193714Y-72936247D01*
X176193714Y-72936247D02*
X176193714Y-73174342D01*
X176193714Y-73174342D02*
X176146095Y-73269580D01*
X176146095Y-73269580D02*
X176098476Y-73317200D01*
X176098476Y-73317200D02*
X176003238Y-73364819D01*
X176003238Y-73364819D02*
X175717524Y-73364819D01*
X175717524Y-73364819D02*
X175622286Y-73317200D01*
X175622286Y-73317200D02*
X175574667Y-73269580D01*
X174465819Y-80004085D02*
X174465819Y-80575513D01*
X174465819Y-80289799D02*
X173465819Y-80289799D01*
X173465819Y-80289799D02*
X173608676Y-80385037D01*
X173608676Y-80385037D02*
X173703914Y-80480275D01*
X173703914Y-80480275D02*
X173751533Y-80575513D01*
X135750933Y-58918819D02*
X135417600Y-58442628D01*
X135179505Y-58918819D02*
X135179505Y-57918819D01*
X135179505Y-57918819D02*
X135560457Y-57918819D01*
X135560457Y-57918819D02*
X135655695Y-57966438D01*
X135655695Y-57966438D02*
X135703314Y-58014057D01*
X135703314Y-58014057D02*
X135750933Y-58109295D01*
X135750933Y-58109295D02*
X135750933Y-58252152D01*
X135750933Y-58252152D02*
X135703314Y-58347390D01*
X135703314Y-58347390D02*
X135655695Y-58395009D01*
X135655695Y-58395009D02*
X135560457Y-58442628D01*
X135560457Y-58442628D02*
X135179505Y-58442628D01*
X136703314Y-58918819D02*
X136131886Y-58918819D01*
X136417600Y-58918819D02*
X136417600Y-57918819D01*
X136417600Y-57918819D02*
X136322362Y-58061676D01*
X136322362Y-58061676D02*
X136227124Y-58156914D01*
X136227124Y-58156914D02*
X136131886Y-58204533D01*
X154413333Y-46758819D02*
X154080000Y-46282628D01*
X153841905Y-46758819D02*
X153841905Y-45758819D01*
X153841905Y-45758819D02*
X154222857Y-45758819D01*
X154222857Y-45758819D02*
X154318095Y-45806438D01*
X154318095Y-45806438D02*
X154365714Y-45854057D01*
X154365714Y-45854057D02*
X154413333Y-45949295D01*
X154413333Y-45949295D02*
X154413333Y-46092152D01*
X154413333Y-46092152D02*
X154365714Y-46187390D01*
X154365714Y-46187390D02*
X154318095Y-46235009D01*
X154318095Y-46235009D02*
X154222857Y-46282628D01*
X154222857Y-46282628D02*
X153841905Y-46282628D01*
X155318095Y-45758819D02*
X154841905Y-45758819D01*
X154841905Y-45758819D02*
X154794286Y-46235009D01*
X154794286Y-46235009D02*
X154841905Y-46187390D01*
X154841905Y-46187390D02*
X154937143Y-46139771D01*
X154937143Y-46139771D02*
X155175238Y-46139771D01*
X155175238Y-46139771D02*
X155270476Y-46187390D01*
X155270476Y-46187390D02*
X155318095Y-46235009D01*
X155318095Y-46235009D02*
X155365714Y-46330247D01*
X155365714Y-46330247D02*
X155365714Y-46568342D01*
X155365714Y-46568342D02*
X155318095Y-46663580D01*
X155318095Y-46663580D02*
X155270476Y-46711200D01*
X155270476Y-46711200D02*
X155175238Y-46758819D01*
X155175238Y-46758819D02*
X154937143Y-46758819D01*
X154937143Y-46758819D02*
X154841905Y-46711200D01*
X154841905Y-46711200D02*
X154794286Y-46663580D01*
X120155333Y-91906819D02*
X119822000Y-91430628D01*
X119583905Y-91906819D02*
X119583905Y-90906819D01*
X119583905Y-90906819D02*
X119964857Y-90906819D01*
X119964857Y-90906819D02*
X120060095Y-90954438D01*
X120060095Y-90954438D02*
X120107714Y-91002057D01*
X120107714Y-91002057D02*
X120155333Y-91097295D01*
X120155333Y-91097295D02*
X120155333Y-91240152D01*
X120155333Y-91240152D02*
X120107714Y-91335390D01*
X120107714Y-91335390D02*
X120060095Y-91383009D01*
X120060095Y-91383009D02*
X119964857Y-91430628D01*
X119964857Y-91430628D02*
X119583905Y-91430628D01*
X121060095Y-90906819D02*
X120583905Y-90906819D01*
X120583905Y-90906819D02*
X120536286Y-91383009D01*
X120536286Y-91383009D02*
X120583905Y-91335390D01*
X120583905Y-91335390D02*
X120679143Y-91287771D01*
X120679143Y-91287771D02*
X120917238Y-91287771D01*
X120917238Y-91287771D02*
X121012476Y-91335390D01*
X121012476Y-91335390D02*
X121060095Y-91383009D01*
X121060095Y-91383009D02*
X121107714Y-91478247D01*
X121107714Y-91478247D02*
X121107714Y-91716342D01*
X121107714Y-91716342D02*
X121060095Y-91811580D01*
X121060095Y-91811580D02*
X121012476Y-91859200D01*
X121012476Y-91859200D02*
X120917238Y-91906819D01*
X120917238Y-91906819D02*
X120679143Y-91906819D01*
X120679143Y-91906819D02*
X120583905Y-91859200D01*
X120583905Y-91859200D02*
X120536286Y-91811580D01*
X168319905Y-50790819D02*
X168319905Y-49790819D01*
X168319905Y-49790819D02*
X168558000Y-49790819D01*
X168558000Y-49790819D02*
X168700857Y-49838438D01*
X168700857Y-49838438D02*
X168796095Y-49933676D01*
X168796095Y-49933676D02*
X168843714Y-50028914D01*
X168843714Y-50028914D02*
X168891333Y-50219390D01*
X168891333Y-50219390D02*
X168891333Y-50362247D01*
X168891333Y-50362247D02*
X168843714Y-50552723D01*
X168843714Y-50552723D02*
X168796095Y-50647961D01*
X168796095Y-50647961D02*
X168700857Y-50743200D01*
X168700857Y-50743200D02*
X168558000Y-50790819D01*
X168558000Y-50790819D02*
X168319905Y-50790819D01*
X169272286Y-49886057D02*
X169319905Y-49838438D01*
X169319905Y-49838438D02*
X169415143Y-49790819D01*
X169415143Y-49790819D02*
X169653238Y-49790819D01*
X169653238Y-49790819D02*
X169748476Y-49838438D01*
X169748476Y-49838438D02*
X169796095Y-49886057D01*
X169796095Y-49886057D02*
X169843714Y-49981295D01*
X169843714Y-49981295D02*
X169843714Y-50076533D01*
X169843714Y-50076533D02*
X169796095Y-50219390D01*
X169796095Y-50219390D02*
X169224667Y-50790819D01*
X169224667Y-50790819D02*
X169843714Y-50790819D01*
X168115819Y-57430085D02*
X168115819Y-58001513D01*
X168115819Y-57715799D02*
X167115819Y-57715799D01*
X167115819Y-57715799D02*
X167258676Y-57811037D01*
X167258676Y-57811037D02*
X167353914Y-57906275D01*
X167353914Y-57906275D02*
X167401533Y-58001513D01*
X127711905Y-28216819D02*
X127711905Y-27216819D01*
X127711905Y-27216819D02*
X127950000Y-27216819D01*
X127950000Y-27216819D02*
X128092857Y-27264438D01*
X128092857Y-27264438D02*
X128188095Y-27359676D01*
X128188095Y-27359676D02*
X128235714Y-27454914D01*
X128235714Y-27454914D02*
X128283333Y-27645390D01*
X128283333Y-27645390D02*
X128283333Y-27788247D01*
X128283333Y-27788247D02*
X128235714Y-27978723D01*
X128235714Y-27978723D02*
X128188095Y-28073961D01*
X128188095Y-28073961D02*
X128092857Y-28169200D01*
X128092857Y-28169200D02*
X127950000Y-28216819D01*
X127950000Y-28216819D02*
X127711905Y-28216819D01*
X129235714Y-28216819D02*
X128664286Y-28216819D01*
X128950000Y-28216819D02*
X128950000Y-27216819D01*
X128950000Y-27216819D02*
X128854762Y-27359676D01*
X128854762Y-27359676D02*
X128759524Y-27454914D01*
X128759524Y-27454914D02*
X128664286Y-27502533D01*
X127507819Y-34893085D02*
X127507819Y-35464513D01*
X127507819Y-35178799D02*
X126507819Y-35178799D01*
X126507819Y-35178799D02*
X126650676Y-35274037D01*
X126650676Y-35274037D02*
X126745914Y-35369275D01*
X126745914Y-35369275D02*
X126793533Y-35464513D01*
X124623833Y-36598819D02*
X124290500Y-36122628D01*
X124052405Y-36598819D02*
X124052405Y-35598819D01*
X124052405Y-35598819D02*
X124433357Y-35598819D01*
X124433357Y-35598819D02*
X124528595Y-35646438D01*
X124528595Y-35646438D02*
X124576214Y-35694057D01*
X124576214Y-35694057D02*
X124623833Y-35789295D01*
X124623833Y-35789295D02*
X124623833Y-35932152D01*
X124623833Y-35932152D02*
X124576214Y-36027390D01*
X124576214Y-36027390D02*
X124528595Y-36075009D01*
X124528595Y-36075009D02*
X124433357Y-36122628D01*
X124433357Y-36122628D02*
X124052405Y-36122628D01*
X125480976Y-35598819D02*
X125290500Y-35598819D01*
X125290500Y-35598819D02*
X125195262Y-35646438D01*
X125195262Y-35646438D02*
X125147643Y-35694057D01*
X125147643Y-35694057D02*
X125052405Y-35836914D01*
X125052405Y-35836914D02*
X125004786Y-36027390D01*
X125004786Y-36027390D02*
X125004786Y-36408342D01*
X125004786Y-36408342D02*
X125052405Y-36503580D01*
X125052405Y-36503580D02*
X125100024Y-36551200D01*
X125100024Y-36551200D02*
X125195262Y-36598819D01*
X125195262Y-36598819D02*
X125385738Y-36598819D01*
X125385738Y-36598819D02*
X125480976Y-36551200D01*
X125480976Y-36551200D02*
X125528595Y-36503580D01*
X125528595Y-36503580D02*
X125576214Y-36408342D01*
X125576214Y-36408342D02*
X125576214Y-36170247D01*
X125576214Y-36170247D02*
X125528595Y-36075009D01*
X125528595Y-36075009D02*
X125480976Y-36027390D01*
X125480976Y-36027390D02*
X125385738Y-35979771D01*
X125385738Y-35979771D02*
X125195262Y-35979771D01*
X125195262Y-35979771D02*
X125100024Y-36027390D01*
X125100024Y-36027390D02*
X125052405Y-36075009D01*
X125052405Y-36075009D02*
X125004786Y-36170247D01*
X168319905Y-73364819D02*
X168319905Y-72364819D01*
X168319905Y-72364819D02*
X168558000Y-72364819D01*
X168558000Y-72364819D02*
X168700857Y-72412438D01*
X168700857Y-72412438D02*
X168796095Y-72507676D01*
X168796095Y-72507676D02*
X168843714Y-72602914D01*
X168843714Y-72602914D02*
X168891333Y-72793390D01*
X168891333Y-72793390D02*
X168891333Y-72936247D01*
X168891333Y-72936247D02*
X168843714Y-73126723D01*
X168843714Y-73126723D02*
X168796095Y-73221961D01*
X168796095Y-73221961D02*
X168700857Y-73317200D01*
X168700857Y-73317200D02*
X168558000Y-73364819D01*
X168558000Y-73364819D02*
X168319905Y-73364819D01*
X169272286Y-72460057D02*
X169319905Y-72412438D01*
X169319905Y-72412438D02*
X169415143Y-72364819D01*
X169415143Y-72364819D02*
X169653238Y-72364819D01*
X169653238Y-72364819D02*
X169748476Y-72412438D01*
X169748476Y-72412438D02*
X169796095Y-72460057D01*
X169796095Y-72460057D02*
X169843714Y-72555295D01*
X169843714Y-72555295D02*
X169843714Y-72650533D01*
X169843714Y-72650533D02*
X169796095Y-72793390D01*
X169796095Y-72793390D02*
X169224667Y-73364819D01*
X169224667Y-73364819D02*
X169843714Y-73364819D01*
X168115819Y-80004085D02*
X168115819Y-80575513D01*
X168115819Y-80289799D02*
X167115819Y-80289799D01*
X167115819Y-80289799D02*
X167258676Y-80385037D01*
X167258676Y-80385037D02*
X167353914Y-80480275D01*
X167353914Y-80480275D02*
X167401533Y-80575513D01*
X123203333Y-28470819D02*
X122870000Y-27994628D01*
X122631905Y-28470819D02*
X122631905Y-27470819D01*
X122631905Y-27470819D02*
X123012857Y-27470819D01*
X123012857Y-27470819D02*
X123108095Y-27518438D01*
X123108095Y-27518438D02*
X123155714Y-27566057D01*
X123155714Y-27566057D02*
X123203333Y-27661295D01*
X123203333Y-27661295D02*
X123203333Y-27804152D01*
X123203333Y-27804152D02*
X123155714Y-27899390D01*
X123155714Y-27899390D02*
X123108095Y-27947009D01*
X123108095Y-27947009D02*
X123012857Y-27994628D01*
X123012857Y-27994628D02*
X122631905Y-27994628D01*
X124060476Y-27804152D02*
X124060476Y-28470819D01*
X123822381Y-27423200D02*
X123584286Y-28137485D01*
X123584286Y-28137485D02*
X124203333Y-28137485D01*
X160083057Y-61988238D02*
X160035438Y-62083476D01*
X160035438Y-62083476D02*
X159940200Y-62178714D01*
X159940200Y-62178714D02*
X159797342Y-62321571D01*
X159797342Y-62321571D02*
X159749723Y-62416809D01*
X159749723Y-62416809D02*
X159749723Y-62512047D01*
X159987819Y-62464428D02*
X159940200Y-62559666D01*
X159940200Y-62559666D02*
X159844961Y-62654904D01*
X159844961Y-62654904D02*
X159654485Y-62702523D01*
X159654485Y-62702523D02*
X159321152Y-62702523D01*
X159321152Y-62702523D02*
X159130676Y-62654904D01*
X159130676Y-62654904D02*
X159035438Y-62559666D01*
X159035438Y-62559666D02*
X158987819Y-62464428D01*
X158987819Y-62464428D02*
X158987819Y-62273952D01*
X158987819Y-62273952D02*
X159035438Y-62178714D01*
X159035438Y-62178714D02*
X159130676Y-62083476D01*
X159130676Y-62083476D02*
X159321152Y-62035857D01*
X159321152Y-62035857D02*
X159654485Y-62035857D01*
X159654485Y-62035857D02*
X159844961Y-62083476D01*
X159844961Y-62083476D02*
X159940200Y-62178714D01*
X159940200Y-62178714D02*
X159987819Y-62273952D01*
X159987819Y-62273952D02*
X159987819Y-62464428D01*
X159987819Y-61083476D02*
X159987819Y-61654904D01*
X159987819Y-61369190D02*
X158987819Y-61369190D01*
X158987819Y-61369190D02*
X159130676Y-61464428D01*
X159130676Y-61464428D02*
X159225914Y-61559666D01*
X159225914Y-61559666D02*
X159273533Y-61654904D01*
X171434610Y-88757219D02*
X171434610Y-87757219D01*
X172482228Y-88661980D02*
X172434609Y-88709600D01*
X172434609Y-88709600D02*
X172291752Y-88757219D01*
X172291752Y-88757219D02*
X172196514Y-88757219D01*
X172196514Y-88757219D02*
X172053657Y-88709600D01*
X172053657Y-88709600D02*
X171958419Y-88614361D01*
X171958419Y-88614361D02*
X171910800Y-88519123D01*
X171910800Y-88519123D02*
X171863181Y-88328647D01*
X171863181Y-88328647D02*
X171863181Y-88185790D01*
X171863181Y-88185790D02*
X171910800Y-87995314D01*
X171910800Y-87995314D02*
X171958419Y-87900076D01*
X171958419Y-87900076D02*
X172053657Y-87804838D01*
X172053657Y-87804838D02*
X172196514Y-87757219D01*
X172196514Y-87757219D02*
X172291752Y-87757219D01*
X172291752Y-87757219D02*
X172434609Y-87804838D01*
X172434609Y-87804838D02*
X172482228Y-87852457D01*
X173434609Y-88757219D02*
X172863181Y-88757219D01*
X173148895Y-88757219D02*
X173148895Y-87757219D01*
X173148895Y-87757219D02*
X173053657Y-87900076D01*
X173053657Y-87900076D02*
X172958419Y-87995314D01*
X172958419Y-87995314D02*
X172863181Y-88042933D01*
X123203333Y-73618819D02*
X122870000Y-73142628D01*
X122631905Y-73618819D02*
X122631905Y-72618819D01*
X122631905Y-72618819D02*
X123012857Y-72618819D01*
X123012857Y-72618819D02*
X123108095Y-72666438D01*
X123108095Y-72666438D02*
X123155714Y-72714057D01*
X123155714Y-72714057D02*
X123203333Y-72809295D01*
X123203333Y-72809295D02*
X123203333Y-72952152D01*
X123203333Y-72952152D02*
X123155714Y-73047390D01*
X123155714Y-73047390D02*
X123108095Y-73095009D01*
X123108095Y-73095009D02*
X123012857Y-73142628D01*
X123012857Y-73142628D02*
X122631905Y-73142628D01*
X124060476Y-72952152D02*
X124060476Y-73618819D01*
X123822381Y-72571200D02*
X123584286Y-73285485D01*
X123584286Y-73285485D02*
X124203333Y-73285485D01*
X115797666Y-50552819D02*
X115797666Y-51267104D01*
X115797666Y-51267104D02*
X115750047Y-51409961D01*
X115750047Y-51409961D02*
X115654809Y-51505200D01*
X115654809Y-51505200D02*
X115511952Y-51552819D01*
X115511952Y-51552819D02*
X115416714Y-51552819D01*
X116226238Y-50648057D02*
X116273857Y-50600438D01*
X116273857Y-50600438D02*
X116369095Y-50552819D01*
X116369095Y-50552819D02*
X116607190Y-50552819D01*
X116607190Y-50552819D02*
X116702428Y-50600438D01*
X116702428Y-50600438D02*
X116750047Y-50648057D01*
X116750047Y-50648057D02*
X116797666Y-50743295D01*
X116797666Y-50743295D02*
X116797666Y-50838533D01*
X116797666Y-50838533D02*
X116750047Y-50981390D01*
X116750047Y-50981390D02*
X116178619Y-51552819D01*
X116178619Y-51552819D02*
X116797666Y-51552819D01*
X157461333Y-51044819D02*
X157128000Y-50568628D01*
X156889905Y-51044819D02*
X156889905Y-50044819D01*
X156889905Y-50044819D02*
X157270857Y-50044819D01*
X157270857Y-50044819D02*
X157366095Y-50092438D01*
X157366095Y-50092438D02*
X157413714Y-50140057D01*
X157413714Y-50140057D02*
X157461333Y-50235295D01*
X157461333Y-50235295D02*
X157461333Y-50378152D01*
X157461333Y-50378152D02*
X157413714Y-50473390D01*
X157413714Y-50473390D02*
X157366095Y-50521009D01*
X157366095Y-50521009D02*
X157270857Y-50568628D01*
X157270857Y-50568628D02*
X156889905Y-50568628D01*
X158318476Y-50378152D02*
X158318476Y-51044819D01*
X158080381Y-49997200D02*
X157842286Y-50711485D01*
X157842286Y-50711485D02*
X158461333Y-50711485D01*
X171434610Y-66183219D02*
X171434610Y-65183219D01*
X172482228Y-66087980D02*
X172434609Y-66135600D01*
X172434609Y-66135600D02*
X172291752Y-66183219D01*
X172291752Y-66183219D02*
X172196514Y-66183219D01*
X172196514Y-66183219D02*
X172053657Y-66135600D01*
X172053657Y-66135600D02*
X171958419Y-66040361D01*
X171958419Y-66040361D02*
X171910800Y-65945123D01*
X171910800Y-65945123D02*
X171863181Y-65754647D01*
X171863181Y-65754647D02*
X171863181Y-65611790D01*
X171863181Y-65611790D02*
X171910800Y-65421314D01*
X171910800Y-65421314D02*
X171958419Y-65326076D01*
X171958419Y-65326076D02*
X172053657Y-65230838D01*
X172053657Y-65230838D02*
X172196514Y-65183219D01*
X172196514Y-65183219D02*
X172291752Y-65183219D01*
X172291752Y-65183219D02*
X172434609Y-65230838D01*
X172434609Y-65230838D02*
X172482228Y-65278457D01*
X173434609Y-66183219D02*
X172863181Y-66183219D01*
X173148895Y-66183219D02*
X173148895Y-65183219D01*
X173148895Y-65183219D02*
X173053657Y-65326076D01*
X173053657Y-65326076D02*
X172958419Y-65421314D01*
X172958419Y-65421314D02*
X172863181Y-65468933D01*
D12*
X178522318Y-40885332D02*
X179429461Y-40885332D01*
X179429461Y-40885332D02*
X179610889Y-40945809D01*
X179610889Y-40945809D02*
X179731842Y-41066761D01*
X179731842Y-41066761D02*
X179792318Y-41248190D01*
X179792318Y-41248190D02*
X179792318Y-41369142D01*
X179792318Y-39615332D02*
X179792318Y-40341047D01*
X179792318Y-39978190D02*
X178522318Y-39978190D01*
X178522318Y-39978190D02*
X178703746Y-40099142D01*
X178703746Y-40099142D02*
X178824699Y-40220094D01*
X178824699Y-40220094D02*
X178885175Y-40341047D01*
D11*
X150055666Y-27978819D02*
X150055666Y-28693104D01*
X150055666Y-28693104D02*
X150008047Y-28835961D01*
X150008047Y-28835961D02*
X149912809Y-28931200D01*
X149912809Y-28931200D02*
X149769952Y-28978819D01*
X149769952Y-28978819D02*
X149674714Y-28978819D01*
X150484238Y-28074057D02*
X150531857Y-28026438D01*
X150531857Y-28026438D02*
X150627095Y-27978819D01*
X150627095Y-27978819D02*
X150865190Y-27978819D01*
X150865190Y-27978819D02*
X150960428Y-28026438D01*
X150960428Y-28026438D02*
X151008047Y-28074057D01*
X151008047Y-28074057D02*
X151055666Y-28169295D01*
X151055666Y-28169295D02*
X151055666Y-28264533D01*
X151055666Y-28264533D02*
X151008047Y-28407390D01*
X151008047Y-28407390D02*
X150436619Y-28978819D01*
X150436619Y-28978819D02*
X151055666Y-28978819D01*
X125825057Y-39414238D02*
X125777438Y-39509476D01*
X125777438Y-39509476D02*
X125682200Y-39604714D01*
X125682200Y-39604714D02*
X125539342Y-39747571D01*
X125539342Y-39747571D02*
X125491723Y-39842809D01*
X125491723Y-39842809D02*
X125491723Y-39938047D01*
X125729819Y-39890428D02*
X125682200Y-39985666D01*
X125682200Y-39985666D02*
X125586961Y-40080904D01*
X125586961Y-40080904D02*
X125396485Y-40128523D01*
X125396485Y-40128523D02*
X125063152Y-40128523D01*
X125063152Y-40128523D02*
X124872676Y-40080904D01*
X124872676Y-40080904D02*
X124777438Y-39985666D01*
X124777438Y-39985666D02*
X124729819Y-39890428D01*
X124729819Y-39890428D02*
X124729819Y-39699952D01*
X124729819Y-39699952D02*
X124777438Y-39604714D01*
X124777438Y-39604714D02*
X124872676Y-39509476D01*
X124872676Y-39509476D02*
X125063152Y-39461857D01*
X125063152Y-39461857D02*
X125396485Y-39461857D01*
X125396485Y-39461857D02*
X125586961Y-39509476D01*
X125586961Y-39509476D02*
X125682200Y-39604714D01*
X125682200Y-39604714D02*
X125729819Y-39699952D01*
X125729819Y-39699952D02*
X125729819Y-39890428D01*
X125729819Y-38509476D02*
X125729819Y-39080904D01*
X125729819Y-38795190D02*
X124729819Y-38795190D01*
X124729819Y-38795190D02*
X124872676Y-38890428D01*
X124872676Y-38890428D02*
X124967914Y-38985666D01*
X124967914Y-38985666D02*
X125015533Y-39080904D01*
X123203333Y-51044819D02*
X122870000Y-50568628D01*
X122631905Y-51044819D02*
X122631905Y-50044819D01*
X122631905Y-50044819D02*
X123012857Y-50044819D01*
X123012857Y-50044819D02*
X123108095Y-50092438D01*
X123108095Y-50092438D02*
X123155714Y-50140057D01*
X123155714Y-50140057D02*
X123203333Y-50235295D01*
X123203333Y-50235295D02*
X123203333Y-50378152D01*
X123203333Y-50378152D02*
X123155714Y-50473390D01*
X123155714Y-50473390D02*
X123108095Y-50521009D01*
X123108095Y-50521009D02*
X123012857Y-50568628D01*
X123012857Y-50568628D02*
X122631905Y-50568628D01*
X124060476Y-50378152D02*
X124060476Y-51044819D01*
X123822381Y-49997200D02*
X123584286Y-50711485D01*
X123584286Y-50711485D02*
X124203333Y-50711485D01*
X115797666Y-73126819D02*
X115797666Y-73841104D01*
X115797666Y-73841104D02*
X115750047Y-73983961D01*
X115750047Y-73983961D02*
X115654809Y-74079200D01*
X115654809Y-74079200D02*
X115511952Y-74126819D01*
X115511952Y-74126819D02*
X115416714Y-74126819D01*
X116226238Y-73222057D02*
X116273857Y-73174438D01*
X116273857Y-73174438D02*
X116369095Y-73126819D01*
X116369095Y-73126819D02*
X116607190Y-73126819D01*
X116607190Y-73126819D02*
X116702428Y-73174438D01*
X116702428Y-73174438D02*
X116750047Y-73222057D01*
X116750047Y-73222057D02*
X116797666Y-73317295D01*
X116797666Y-73317295D02*
X116797666Y-73412533D01*
X116797666Y-73412533D02*
X116750047Y-73555390D01*
X116750047Y-73555390D02*
X116178619Y-74126819D01*
X116178619Y-74126819D02*
X116797666Y-74126819D01*
X126618819Y-91920189D02*
X125618819Y-91920189D01*
X126523580Y-90872571D02*
X126571200Y-90920190D01*
X126571200Y-90920190D02*
X126618819Y-91063047D01*
X126618819Y-91063047D02*
X126618819Y-91158285D01*
X126618819Y-91158285D02*
X126571200Y-91301142D01*
X126571200Y-91301142D02*
X126475961Y-91396380D01*
X126475961Y-91396380D02*
X126380723Y-91443999D01*
X126380723Y-91443999D02*
X126190247Y-91491618D01*
X126190247Y-91491618D02*
X126047390Y-91491618D01*
X126047390Y-91491618D02*
X125856914Y-91443999D01*
X125856914Y-91443999D02*
X125761676Y-91396380D01*
X125761676Y-91396380D02*
X125666438Y-91301142D01*
X125666438Y-91301142D02*
X125618819Y-91158285D01*
X125618819Y-91158285D02*
X125618819Y-91063047D01*
X125618819Y-91063047D02*
X125666438Y-90920190D01*
X125666438Y-90920190D02*
X125714057Y-90872571D01*
X125714057Y-90491618D02*
X125666438Y-90443999D01*
X125666438Y-90443999D02*
X125618819Y-90348761D01*
X125618819Y-90348761D02*
X125618819Y-90110666D01*
X125618819Y-90110666D02*
X125666438Y-90015428D01*
X125666438Y-90015428D02*
X125714057Y-89967809D01*
X125714057Y-89967809D02*
X125809295Y-89920190D01*
X125809295Y-89920190D02*
X125904533Y-89920190D01*
X125904533Y-89920190D02*
X126047390Y-89967809D01*
X126047390Y-89967809D02*
X126618819Y-90539237D01*
X126618819Y-90539237D02*
X126618819Y-89920190D01*
D10*
X128182360Y-88673419D02*
X128372836Y-88673419D01*
X128372836Y-88673419D02*
X128468074Y-88721038D01*
X128468074Y-88721038D02*
X128563312Y-88816276D01*
X128563312Y-88816276D02*
X128610931Y-89006752D01*
X128610931Y-89006752D02*
X128610931Y-89340085D01*
X128610931Y-89340085D02*
X128563312Y-89530561D01*
X128563312Y-89530561D02*
X128468074Y-89625800D01*
X128468074Y-89625800D02*
X128372836Y-89673419D01*
X128372836Y-89673419D02*
X128182360Y-89673419D01*
X128182360Y-89673419D02*
X128087122Y-89625800D01*
X128087122Y-89625800D02*
X127991884Y-89530561D01*
X127991884Y-89530561D02*
X127944265Y-89340085D01*
X127944265Y-89340085D02*
X127944265Y-89006752D01*
X127944265Y-89006752D02*
X127991884Y-88816276D01*
X127991884Y-88816276D02*
X128087122Y-88721038D01*
X128087122Y-88721038D02*
X128182360Y-88673419D01*
X131055693Y-88721038D02*
X130960455Y-88673419D01*
X130960455Y-88673419D02*
X130817598Y-88673419D01*
X130817598Y-88673419D02*
X130674741Y-88721038D01*
X130674741Y-88721038D02*
X130579503Y-88816276D01*
X130579503Y-88816276D02*
X130531884Y-88911514D01*
X130531884Y-88911514D02*
X130484265Y-89101990D01*
X130484265Y-89101990D02*
X130484265Y-89244847D01*
X130484265Y-89244847D02*
X130531884Y-89435323D01*
X130531884Y-89435323D02*
X130579503Y-89530561D01*
X130579503Y-89530561D02*
X130674741Y-89625800D01*
X130674741Y-89625800D02*
X130817598Y-89673419D01*
X130817598Y-89673419D02*
X130912836Y-89673419D01*
X130912836Y-89673419D02*
X131055693Y-89625800D01*
X131055693Y-89625800D02*
X131103312Y-89578180D01*
X131103312Y-89578180D02*
X131103312Y-89244847D01*
X131103312Y-89244847D02*
X130912836Y-89244847D01*
X133226115Y-88658580D02*
X133226115Y-89658580D01*
D11*
X124459819Y-78283666D02*
X123983628Y-78616999D01*
X124459819Y-78855094D02*
X123459819Y-78855094D01*
X123459819Y-78855094D02*
X123459819Y-78474142D01*
X123459819Y-78474142D02*
X123507438Y-78378904D01*
X123507438Y-78378904D02*
X123555057Y-78331285D01*
X123555057Y-78331285D02*
X123650295Y-78283666D01*
X123650295Y-78283666D02*
X123793152Y-78283666D01*
X123793152Y-78283666D02*
X123888390Y-78331285D01*
X123888390Y-78331285D02*
X123936009Y-78378904D01*
X123936009Y-78378904D02*
X123983628Y-78474142D01*
X123983628Y-78474142D02*
X123983628Y-78855094D01*
X123459819Y-77950332D02*
X123459819Y-77331285D01*
X123459819Y-77331285D02*
X123840771Y-77664618D01*
X123840771Y-77664618D02*
X123840771Y-77521761D01*
X123840771Y-77521761D02*
X123888390Y-77426523D01*
X123888390Y-77426523D02*
X123936009Y-77378904D01*
X123936009Y-77378904D02*
X124031247Y-77331285D01*
X124031247Y-77331285D02*
X124269342Y-77331285D01*
X124269342Y-77331285D02*
X124364580Y-77378904D01*
X124364580Y-77378904D02*
X124412200Y-77426523D01*
X124412200Y-77426523D02*
X124459819Y-77521761D01*
X124459819Y-77521761D02*
X124459819Y-77807475D01*
X124459819Y-77807475D02*
X124412200Y-77902713D01*
X124412200Y-77902713D02*
X124364580Y-77950332D01*
X158096333Y-75015819D02*
X157763000Y-74539628D01*
X157524905Y-75015819D02*
X157524905Y-74015819D01*
X157524905Y-74015819D02*
X157905857Y-74015819D01*
X157905857Y-74015819D02*
X158001095Y-74063438D01*
X158001095Y-74063438D02*
X158048714Y-74111057D01*
X158048714Y-74111057D02*
X158096333Y-74206295D01*
X158096333Y-74206295D02*
X158096333Y-74349152D01*
X158096333Y-74349152D02*
X158048714Y-74444390D01*
X158048714Y-74444390D02*
X158001095Y-74492009D01*
X158001095Y-74492009D02*
X157905857Y-74539628D01*
X157905857Y-74539628D02*
X157524905Y-74539628D01*
X158477286Y-74111057D02*
X158524905Y-74063438D01*
X158524905Y-74063438D02*
X158620143Y-74015819D01*
X158620143Y-74015819D02*
X158858238Y-74015819D01*
X158858238Y-74015819D02*
X158953476Y-74063438D01*
X158953476Y-74063438D02*
X159001095Y-74111057D01*
X159001095Y-74111057D02*
X159048714Y-74206295D01*
X159048714Y-74206295D02*
X159048714Y-74301533D01*
X159048714Y-74301533D02*
X159001095Y-74444390D01*
X159001095Y-74444390D02*
X158429667Y-75015819D01*
X158429667Y-75015819D02*
X159048714Y-75015819D01*
X174669905Y-50790819D02*
X174669905Y-49790819D01*
X174669905Y-49790819D02*
X174908000Y-49790819D01*
X174908000Y-49790819D02*
X175050857Y-49838438D01*
X175050857Y-49838438D02*
X175146095Y-49933676D01*
X175146095Y-49933676D02*
X175193714Y-50028914D01*
X175193714Y-50028914D02*
X175241333Y-50219390D01*
X175241333Y-50219390D02*
X175241333Y-50362247D01*
X175241333Y-50362247D02*
X175193714Y-50552723D01*
X175193714Y-50552723D02*
X175146095Y-50647961D01*
X175146095Y-50647961D02*
X175050857Y-50743200D01*
X175050857Y-50743200D02*
X174908000Y-50790819D01*
X174908000Y-50790819D02*
X174669905Y-50790819D01*
X175574667Y-49790819D02*
X176193714Y-49790819D01*
X176193714Y-49790819D02*
X175860381Y-50171771D01*
X175860381Y-50171771D02*
X176003238Y-50171771D01*
X176003238Y-50171771D02*
X176098476Y-50219390D01*
X176098476Y-50219390D02*
X176146095Y-50267009D01*
X176146095Y-50267009D02*
X176193714Y-50362247D01*
X176193714Y-50362247D02*
X176193714Y-50600342D01*
X176193714Y-50600342D02*
X176146095Y-50695580D01*
X176146095Y-50695580D02*
X176098476Y-50743200D01*
X176098476Y-50743200D02*
X176003238Y-50790819D01*
X176003238Y-50790819D02*
X175717524Y-50790819D01*
X175717524Y-50790819D02*
X175622286Y-50743200D01*
X175622286Y-50743200D02*
X175574667Y-50695580D01*
X174465819Y-57430085D02*
X174465819Y-58001513D01*
X174465819Y-57715799D02*
X173465819Y-57715799D01*
X173465819Y-57715799D02*
X173608676Y-57811037D01*
X173608676Y-57811037D02*
X173703914Y-57906275D01*
X173703914Y-57906275D02*
X173751533Y-58001513D01*
X177273333Y-68729580D02*
X177225714Y-68777200D01*
X177225714Y-68777200D02*
X177082857Y-68824819D01*
X177082857Y-68824819D02*
X176987619Y-68824819D01*
X176987619Y-68824819D02*
X176844762Y-68777200D01*
X176844762Y-68777200D02*
X176749524Y-68681961D01*
X176749524Y-68681961D02*
X176701905Y-68586723D01*
X176701905Y-68586723D02*
X176654286Y-68396247D01*
X176654286Y-68396247D02*
X176654286Y-68253390D01*
X176654286Y-68253390D02*
X176701905Y-68062914D01*
X176701905Y-68062914D02*
X176749524Y-67967676D01*
X176749524Y-67967676D02*
X176844762Y-67872438D01*
X176844762Y-67872438D02*
X176987619Y-67824819D01*
X176987619Y-67824819D02*
X177082857Y-67824819D01*
X177082857Y-67824819D02*
X177225714Y-67872438D01*
X177225714Y-67872438D02*
X177273333Y-67920057D01*
X178225714Y-68824819D02*
X177654286Y-68824819D01*
X177940000Y-68824819D02*
X177940000Y-67824819D01*
X177940000Y-67824819D02*
X177844762Y-67967676D01*
X177844762Y-67967676D02*
X177749524Y-68062914D01*
X177749524Y-68062914D02*
X177654286Y-68110533D01*
X157461333Y-28470819D02*
X157128000Y-27994628D01*
X156889905Y-28470819D02*
X156889905Y-27470819D01*
X156889905Y-27470819D02*
X157270857Y-27470819D01*
X157270857Y-27470819D02*
X157366095Y-27518438D01*
X157366095Y-27518438D02*
X157413714Y-27566057D01*
X157413714Y-27566057D02*
X157461333Y-27661295D01*
X157461333Y-27661295D02*
X157461333Y-27804152D01*
X157461333Y-27804152D02*
X157413714Y-27899390D01*
X157413714Y-27899390D02*
X157366095Y-27947009D01*
X157366095Y-27947009D02*
X157270857Y-27994628D01*
X157270857Y-27994628D02*
X156889905Y-27994628D01*
X158318476Y-27804152D02*
X158318476Y-28470819D01*
X158080381Y-27423200D02*
X157842286Y-28137485D01*
X157842286Y-28137485D02*
X158461333Y-28137485D01*
X124623833Y-81746819D02*
X124290500Y-81270628D01*
X124052405Y-81746819D02*
X124052405Y-80746819D01*
X124052405Y-80746819D02*
X124433357Y-80746819D01*
X124433357Y-80746819D02*
X124528595Y-80794438D01*
X124528595Y-80794438D02*
X124576214Y-80842057D01*
X124576214Y-80842057D02*
X124623833Y-80937295D01*
X124623833Y-80937295D02*
X124623833Y-81080152D01*
X124623833Y-81080152D02*
X124576214Y-81175390D01*
X124576214Y-81175390D02*
X124528595Y-81223009D01*
X124528595Y-81223009D02*
X124433357Y-81270628D01*
X124433357Y-81270628D02*
X124052405Y-81270628D01*
X125480976Y-80746819D02*
X125290500Y-80746819D01*
X125290500Y-80746819D02*
X125195262Y-80794438D01*
X125195262Y-80794438D02*
X125147643Y-80842057D01*
X125147643Y-80842057D02*
X125052405Y-80984914D01*
X125052405Y-80984914D02*
X125004786Y-81175390D01*
X125004786Y-81175390D02*
X125004786Y-81556342D01*
X125004786Y-81556342D02*
X125052405Y-81651580D01*
X125052405Y-81651580D02*
X125100024Y-81699200D01*
X125100024Y-81699200D02*
X125195262Y-81746819D01*
X125195262Y-81746819D02*
X125385738Y-81746819D01*
X125385738Y-81746819D02*
X125480976Y-81699200D01*
X125480976Y-81699200D02*
X125528595Y-81651580D01*
X125528595Y-81651580D02*
X125576214Y-81556342D01*
X125576214Y-81556342D02*
X125576214Y-81318247D01*
X125576214Y-81318247D02*
X125528595Y-81223009D01*
X125528595Y-81223009D02*
X125480976Y-81175390D01*
X125480976Y-81175390D02*
X125385738Y-81127771D01*
X125385738Y-81127771D02*
X125195262Y-81127771D01*
X125195262Y-81127771D02*
X125100024Y-81175390D01*
X125100024Y-81175390D02*
X125052405Y-81223009D01*
X125052405Y-81223009D02*
X125004786Y-81318247D01*
D12*
X144264318Y-86033332D02*
X145171461Y-86033332D01*
X145171461Y-86033332D02*
X145352889Y-86093809D01*
X145352889Y-86093809D02*
X145473842Y-86214761D01*
X145473842Y-86214761D02*
X145534318Y-86396190D01*
X145534318Y-86396190D02*
X145534318Y-86517142D01*
X145534318Y-84763332D02*
X145534318Y-85489047D01*
X145534318Y-85126190D02*
X144264318Y-85126190D01*
X144264318Y-85126190D02*
X144445746Y-85247142D01*
X144445746Y-85247142D02*
X144566699Y-85368094D01*
X144566699Y-85368094D02*
X144627175Y-85489047D01*
D11*
X150055666Y-50552819D02*
X150055666Y-51267104D01*
X150055666Y-51267104D02*
X150008047Y-51409961D01*
X150008047Y-51409961D02*
X149912809Y-51505200D01*
X149912809Y-51505200D02*
X149769952Y-51552819D01*
X149769952Y-51552819D02*
X149674714Y-51552819D01*
X150484238Y-50648057D02*
X150531857Y-50600438D01*
X150531857Y-50600438D02*
X150627095Y-50552819D01*
X150627095Y-50552819D02*
X150865190Y-50552819D01*
X150865190Y-50552819D02*
X150960428Y-50600438D01*
X150960428Y-50600438D02*
X151008047Y-50648057D01*
X151008047Y-50648057D02*
X151055666Y-50743295D01*
X151055666Y-50743295D02*
X151055666Y-50838533D01*
X151055666Y-50838533D02*
X151008047Y-50981390D01*
X151008047Y-50981390D02*
X150436619Y-51552819D01*
X150436619Y-51552819D02*
X151055666Y-51552819D01*
X170008933Y-36344819D02*
X169675600Y-35868628D01*
X169437505Y-36344819D02*
X169437505Y-35344819D01*
X169437505Y-35344819D02*
X169818457Y-35344819D01*
X169818457Y-35344819D02*
X169913695Y-35392438D01*
X169913695Y-35392438D02*
X169961314Y-35440057D01*
X169961314Y-35440057D02*
X170008933Y-35535295D01*
X170008933Y-35535295D02*
X170008933Y-35678152D01*
X170008933Y-35678152D02*
X169961314Y-35773390D01*
X169961314Y-35773390D02*
X169913695Y-35821009D01*
X169913695Y-35821009D02*
X169818457Y-35868628D01*
X169818457Y-35868628D02*
X169437505Y-35868628D01*
X170961314Y-36344819D02*
X170389886Y-36344819D01*
X170675600Y-36344819D02*
X170675600Y-35344819D01*
X170675600Y-35344819D02*
X170580362Y-35487676D01*
X170580362Y-35487676D02*
X170485124Y-35582914D01*
X170485124Y-35582914D02*
X170389886Y-35630533D01*
X126618819Y-69346189D02*
X125618819Y-69346189D01*
X126523580Y-68298571D02*
X126571200Y-68346190D01*
X126571200Y-68346190D02*
X126618819Y-68489047D01*
X126618819Y-68489047D02*
X126618819Y-68584285D01*
X126618819Y-68584285D02*
X126571200Y-68727142D01*
X126571200Y-68727142D02*
X126475961Y-68822380D01*
X126475961Y-68822380D02*
X126380723Y-68869999D01*
X126380723Y-68869999D02*
X126190247Y-68917618D01*
X126190247Y-68917618D02*
X126047390Y-68917618D01*
X126047390Y-68917618D02*
X125856914Y-68869999D01*
X125856914Y-68869999D02*
X125761676Y-68822380D01*
X125761676Y-68822380D02*
X125666438Y-68727142D01*
X125666438Y-68727142D02*
X125618819Y-68584285D01*
X125618819Y-68584285D02*
X125618819Y-68489047D01*
X125618819Y-68489047D02*
X125666438Y-68346190D01*
X125666438Y-68346190D02*
X125714057Y-68298571D01*
X125714057Y-67917618D02*
X125666438Y-67869999D01*
X125666438Y-67869999D02*
X125618819Y-67774761D01*
X125618819Y-67774761D02*
X125618819Y-67536666D01*
X125618819Y-67536666D02*
X125666438Y-67441428D01*
X125666438Y-67441428D02*
X125714057Y-67393809D01*
X125714057Y-67393809D02*
X125809295Y-67346190D01*
X125809295Y-67346190D02*
X125904533Y-67346190D01*
X125904533Y-67346190D02*
X126047390Y-67393809D01*
X126047390Y-67393809D02*
X126618819Y-67965237D01*
X126618819Y-67965237D02*
X126618819Y-67346190D01*
D10*
X133226115Y-66084580D02*
X133226115Y-67084580D01*
X131055693Y-66147038D02*
X130960455Y-66099419D01*
X130960455Y-66099419D02*
X130817598Y-66099419D01*
X130817598Y-66099419D02*
X130674741Y-66147038D01*
X130674741Y-66147038D02*
X130579503Y-66242276D01*
X130579503Y-66242276D02*
X130531884Y-66337514D01*
X130531884Y-66337514D02*
X130484265Y-66527990D01*
X130484265Y-66527990D02*
X130484265Y-66670847D01*
X130484265Y-66670847D02*
X130531884Y-66861323D01*
X130531884Y-66861323D02*
X130579503Y-66956561D01*
X130579503Y-66956561D02*
X130674741Y-67051800D01*
X130674741Y-67051800D02*
X130817598Y-67099419D01*
X130817598Y-67099419D02*
X130912836Y-67099419D01*
X130912836Y-67099419D02*
X131055693Y-67051800D01*
X131055693Y-67051800D02*
X131103312Y-67004180D01*
X131103312Y-67004180D02*
X131103312Y-66670847D01*
X131103312Y-66670847D02*
X130912836Y-66670847D01*
X128182360Y-66099419D02*
X128372836Y-66099419D01*
X128372836Y-66099419D02*
X128468074Y-66147038D01*
X128468074Y-66147038D02*
X128563312Y-66242276D01*
X128563312Y-66242276D02*
X128610931Y-66432752D01*
X128610931Y-66432752D02*
X128610931Y-66766085D01*
X128610931Y-66766085D02*
X128563312Y-66956561D01*
X128563312Y-66956561D02*
X128468074Y-67051800D01*
X128468074Y-67051800D02*
X128372836Y-67099419D01*
X128372836Y-67099419D02*
X128182360Y-67099419D01*
X128182360Y-67099419D02*
X128087122Y-67051800D01*
X128087122Y-67051800D02*
X127991884Y-66956561D01*
X127991884Y-66956561D02*
X127944265Y-66766085D01*
X127944265Y-66766085D02*
X127944265Y-66432752D01*
X127944265Y-66432752D02*
X127991884Y-66242276D01*
X127991884Y-66242276D02*
X128087122Y-66147038D01*
X128087122Y-66147038D02*
X128182360Y-66099419D01*
D11*
X154413333Y-91906819D02*
X154080000Y-91430628D01*
X153841905Y-91906819D02*
X153841905Y-90906819D01*
X153841905Y-90906819D02*
X154222857Y-90906819D01*
X154222857Y-90906819D02*
X154318095Y-90954438D01*
X154318095Y-90954438D02*
X154365714Y-91002057D01*
X154365714Y-91002057D02*
X154413333Y-91097295D01*
X154413333Y-91097295D02*
X154413333Y-91240152D01*
X154413333Y-91240152D02*
X154365714Y-91335390D01*
X154365714Y-91335390D02*
X154318095Y-91383009D01*
X154318095Y-91383009D02*
X154222857Y-91430628D01*
X154222857Y-91430628D02*
X153841905Y-91430628D01*
X155318095Y-90906819D02*
X154841905Y-90906819D01*
X154841905Y-90906819D02*
X154794286Y-91383009D01*
X154794286Y-91383009D02*
X154841905Y-91335390D01*
X154841905Y-91335390D02*
X154937143Y-91287771D01*
X154937143Y-91287771D02*
X155175238Y-91287771D01*
X155175238Y-91287771D02*
X155270476Y-91335390D01*
X155270476Y-91335390D02*
X155318095Y-91383009D01*
X155318095Y-91383009D02*
X155365714Y-91478247D01*
X155365714Y-91478247D02*
X155365714Y-91716342D01*
X155365714Y-91716342D02*
X155318095Y-91811580D01*
X155318095Y-91811580D02*
X155270476Y-91859200D01*
X155270476Y-91859200D02*
X155175238Y-91906819D01*
X155175238Y-91906819D02*
X154937143Y-91906819D01*
X154937143Y-91906819D02*
X154841905Y-91859200D01*
X154841905Y-91859200D02*
X154794286Y-91811580D01*
X150055666Y-73126819D02*
X150055666Y-73841104D01*
X150055666Y-73841104D02*
X150008047Y-73983961D01*
X150008047Y-73983961D02*
X149912809Y-74079200D01*
X149912809Y-74079200D02*
X149769952Y-74126819D01*
X149769952Y-74126819D02*
X149674714Y-74126819D01*
X150484238Y-73222057D02*
X150531857Y-73174438D01*
X150531857Y-73174438D02*
X150627095Y-73126819D01*
X150627095Y-73126819D02*
X150865190Y-73126819D01*
X150865190Y-73126819D02*
X150960428Y-73174438D01*
X150960428Y-73174438D02*
X151008047Y-73222057D01*
X151008047Y-73222057D02*
X151055666Y-73317295D01*
X151055666Y-73317295D02*
X151055666Y-73412533D01*
X151055666Y-73412533D02*
X151008047Y-73555390D01*
X151008047Y-73555390D02*
X150436619Y-74126819D01*
X150436619Y-74126819D02*
X151055666Y-74126819D01*
X135750933Y-81492819D02*
X135417600Y-81016628D01*
X135179505Y-81492819D02*
X135179505Y-80492819D01*
X135179505Y-80492819D02*
X135560457Y-80492819D01*
X135560457Y-80492819D02*
X135655695Y-80540438D01*
X135655695Y-80540438D02*
X135703314Y-80588057D01*
X135703314Y-80588057D02*
X135750933Y-80683295D01*
X135750933Y-80683295D02*
X135750933Y-80826152D01*
X135750933Y-80826152D02*
X135703314Y-80921390D01*
X135703314Y-80921390D02*
X135655695Y-80969009D01*
X135655695Y-80969009D02*
X135560457Y-81016628D01*
X135560457Y-81016628D02*
X135179505Y-81016628D01*
X136703314Y-81492819D02*
X136131886Y-81492819D01*
X136417600Y-81492819D02*
X136417600Y-80492819D01*
X136417600Y-80492819D02*
X136322362Y-80635676D01*
X136322362Y-80635676D02*
X136227124Y-80730914D01*
X136227124Y-80730914D02*
X136131886Y-80778533D01*
X177273333Y-91303580D02*
X177225714Y-91351200D01*
X177225714Y-91351200D02*
X177082857Y-91398819D01*
X177082857Y-91398819D02*
X176987619Y-91398819D01*
X176987619Y-91398819D02*
X176844762Y-91351200D01*
X176844762Y-91351200D02*
X176749524Y-91255961D01*
X176749524Y-91255961D02*
X176701905Y-91160723D01*
X176701905Y-91160723D02*
X176654286Y-90970247D01*
X176654286Y-90970247D02*
X176654286Y-90827390D01*
X176654286Y-90827390D02*
X176701905Y-90636914D01*
X176701905Y-90636914D02*
X176749524Y-90541676D01*
X176749524Y-90541676D02*
X176844762Y-90446438D01*
X176844762Y-90446438D02*
X176987619Y-90398819D01*
X176987619Y-90398819D02*
X177082857Y-90398819D01*
X177082857Y-90398819D02*
X177225714Y-90446438D01*
X177225714Y-90446438D02*
X177273333Y-90494057D01*
X178225714Y-91398819D02*
X177654286Y-91398819D01*
X177940000Y-91398819D02*
X177940000Y-90398819D01*
X177940000Y-90398819D02*
X177844762Y-90541676D01*
X177844762Y-90541676D02*
X177749524Y-90636914D01*
X177749524Y-90636914D02*
X177654286Y-90684533D01*
X120155333Y-46758819D02*
X119822000Y-46282628D01*
X119583905Y-46758819D02*
X119583905Y-45758819D01*
X119583905Y-45758819D02*
X119964857Y-45758819D01*
X119964857Y-45758819D02*
X120060095Y-45806438D01*
X120060095Y-45806438D02*
X120107714Y-45854057D01*
X120107714Y-45854057D02*
X120155333Y-45949295D01*
X120155333Y-45949295D02*
X120155333Y-46092152D01*
X120155333Y-46092152D02*
X120107714Y-46187390D01*
X120107714Y-46187390D02*
X120060095Y-46235009D01*
X120060095Y-46235009D02*
X119964857Y-46282628D01*
X119964857Y-46282628D02*
X119583905Y-46282628D01*
X121060095Y-45758819D02*
X120583905Y-45758819D01*
X120583905Y-45758819D02*
X120536286Y-46235009D01*
X120536286Y-46235009D02*
X120583905Y-46187390D01*
X120583905Y-46187390D02*
X120679143Y-46139771D01*
X120679143Y-46139771D02*
X120917238Y-46139771D01*
X120917238Y-46139771D02*
X121012476Y-46187390D01*
X121012476Y-46187390D02*
X121060095Y-46235009D01*
X121060095Y-46235009D02*
X121107714Y-46330247D01*
X121107714Y-46330247D02*
X121107714Y-46568342D01*
X121107714Y-46568342D02*
X121060095Y-46663580D01*
X121060095Y-46663580D02*
X121012476Y-46711200D01*
X121012476Y-46711200D02*
X120917238Y-46758819D01*
X120917238Y-46758819D02*
X120679143Y-46758819D01*
X120679143Y-46758819D02*
X120583905Y-46711200D01*
X120583905Y-46711200D02*
X120536286Y-46663580D01*
X126618819Y-46772189D02*
X125618819Y-46772189D01*
X126523580Y-45724571D02*
X126571200Y-45772190D01*
X126571200Y-45772190D02*
X126618819Y-45915047D01*
X126618819Y-45915047D02*
X126618819Y-46010285D01*
X126618819Y-46010285D02*
X126571200Y-46153142D01*
X126571200Y-46153142D02*
X126475961Y-46248380D01*
X126475961Y-46248380D02*
X126380723Y-46295999D01*
X126380723Y-46295999D02*
X126190247Y-46343618D01*
X126190247Y-46343618D02*
X126047390Y-46343618D01*
X126047390Y-46343618D02*
X125856914Y-46295999D01*
X125856914Y-46295999D02*
X125761676Y-46248380D01*
X125761676Y-46248380D02*
X125666438Y-46153142D01*
X125666438Y-46153142D02*
X125618819Y-46010285D01*
X125618819Y-46010285D02*
X125618819Y-45915047D01*
X125618819Y-45915047D02*
X125666438Y-45772190D01*
X125666438Y-45772190D02*
X125714057Y-45724571D01*
X125714057Y-45343618D02*
X125666438Y-45295999D01*
X125666438Y-45295999D02*
X125618819Y-45200761D01*
X125618819Y-45200761D02*
X125618819Y-44962666D01*
X125618819Y-44962666D02*
X125666438Y-44867428D01*
X125666438Y-44867428D02*
X125714057Y-44819809D01*
X125714057Y-44819809D02*
X125809295Y-44772190D01*
X125809295Y-44772190D02*
X125904533Y-44772190D01*
X125904533Y-44772190D02*
X126047390Y-44819809D01*
X126047390Y-44819809D02*
X126618819Y-45391237D01*
X126618819Y-45391237D02*
X126618819Y-44772190D01*
D10*
X133226115Y-43510580D02*
X133226115Y-44510580D01*
X128182360Y-43525419D02*
X128372836Y-43525419D01*
X128372836Y-43525419D02*
X128468074Y-43573038D01*
X128468074Y-43573038D02*
X128563312Y-43668276D01*
X128563312Y-43668276D02*
X128610931Y-43858752D01*
X128610931Y-43858752D02*
X128610931Y-44192085D01*
X128610931Y-44192085D02*
X128563312Y-44382561D01*
X128563312Y-44382561D02*
X128468074Y-44477800D01*
X128468074Y-44477800D02*
X128372836Y-44525419D01*
X128372836Y-44525419D02*
X128182360Y-44525419D01*
X128182360Y-44525419D02*
X128087122Y-44477800D01*
X128087122Y-44477800D02*
X127991884Y-44382561D01*
X127991884Y-44382561D02*
X127944265Y-44192085D01*
X127944265Y-44192085D02*
X127944265Y-43858752D01*
X127944265Y-43858752D02*
X127991884Y-43668276D01*
X127991884Y-43668276D02*
X128087122Y-43573038D01*
X128087122Y-43573038D02*
X128182360Y-43525419D01*
X131055693Y-43573038D02*
X130960455Y-43525419D01*
X130960455Y-43525419D02*
X130817598Y-43525419D01*
X130817598Y-43525419D02*
X130674741Y-43573038D01*
X130674741Y-43573038D02*
X130579503Y-43668276D01*
X130579503Y-43668276D02*
X130531884Y-43763514D01*
X130531884Y-43763514D02*
X130484265Y-43953990D01*
X130484265Y-43953990D02*
X130484265Y-44096847D01*
X130484265Y-44096847D02*
X130531884Y-44287323D01*
X130531884Y-44287323D02*
X130579503Y-44382561D01*
X130579503Y-44382561D02*
X130674741Y-44477800D01*
X130674741Y-44477800D02*
X130817598Y-44525419D01*
X130817598Y-44525419D02*
X130912836Y-44525419D01*
X130912836Y-44525419D02*
X131055693Y-44477800D01*
X131055693Y-44477800D02*
X131103312Y-44430180D01*
X131103312Y-44430180D02*
X131103312Y-44096847D01*
X131103312Y-44096847D02*
X130912836Y-44096847D01*
D11*
X123838333Y-52441819D02*
X123505000Y-51965628D01*
X123266905Y-52441819D02*
X123266905Y-51441819D01*
X123266905Y-51441819D02*
X123647857Y-51441819D01*
X123647857Y-51441819D02*
X123743095Y-51489438D01*
X123743095Y-51489438D02*
X123790714Y-51537057D01*
X123790714Y-51537057D02*
X123838333Y-51632295D01*
X123838333Y-51632295D02*
X123838333Y-51775152D01*
X123838333Y-51775152D02*
X123790714Y-51870390D01*
X123790714Y-51870390D02*
X123743095Y-51918009D01*
X123743095Y-51918009D02*
X123647857Y-51965628D01*
X123647857Y-51965628D02*
X123266905Y-51965628D01*
X124219286Y-51537057D02*
X124266905Y-51489438D01*
X124266905Y-51489438D02*
X124362143Y-51441819D01*
X124362143Y-51441819D02*
X124600238Y-51441819D01*
X124600238Y-51441819D02*
X124695476Y-51489438D01*
X124695476Y-51489438D02*
X124743095Y-51537057D01*
X124743095Y-51537057D02*
X124790714Y-51632295D01*
X124790714Y-51632295D02*
X124790714Y-51727533D01*
X124790714Y-51727533D02*
X124743095Y-51870390D01*
X124743095Y-51870390D02*
X124171667Y-52441819D01*
X124171667Y-52441819D02*
X124790714Y-52441819D01*
X134061905Y-50790819D02*
X134061905Y-49790819D01*
X134061905Y-49790819D02*
X134300000Y-49790819D01*
X134300000Y-49790819D02*
X134442857Y-49838438D01*
X134442857Y-49838438D02*
X134538095Y-49933676D01*
X134538095Y-49933676D02*
X134585714Y-50028914D01*
X134585714Y-50028914D02*
X134633333Y-50219390D01*
X134633333Y-50219390D02*
X134633333Y-50362247D01*
X134633333Y-50362247D02*
X134585714Y-50552723D01*
X134585714Y-50552723D02*
X134538095Y-50647961D01*
X134538095Y-50647961D02*
X134442857Y-50743200D01*
X134442857Y-50743200D02*
X134300000Y-50790819D01*
X134300000Y-50790819D02*
X134061905Y-50790819D01*
X135014286Y-49886057D02*
X135061905Y-49838438D01*
X135061905Y-49838438D02*
X135157143Y-49790819D01*
X135157143Y-49790819D02*
X135395238Y-49790819D01*
X135395238Y-49790819D02*
X135490476Y-49838438D01*
X135490476Y-49838438D02*
X135538095Y-49886057D01*
X135538095Y-49886057D02*
X135585714Y-49981295D01*
X135585714Y-49981295D02*
X135585714Y-50076533D01*
X135585714Y-50076533D02*
X135538095Y-50219390D01*
X135538095Y-50219390D02*
X134966667Y-50790819D01*
X134966667Y-50790819D02*
X135585714Y-50790819D01*
X133857819Y-57430085D02*
X133857819Y-58001513D01*
X133857819Y-57715799D02*
X132857819Y-57715799D01*
X132857819Y-57715799D02*
X133000676Y-57811037D01*
X133000676Y-57811037D02*
X133095914Y-57906275D01*
X133095914Y-57906275D02*
X133143533Y-58001513D01*
X124459819Y-33135666D02*
X123983628Y-33468999D01*
X124459819Y-33707094D02*
X123459819Y-33707094D01*
X123459819Y-33707094D02*
X123459819Y-33326142D01*
X123459819Y-33326142D02*
X123507438Y-33230904D01*
X123507438Y-33230904D02*
X123555057Y-33183285D01*
X123555057Y-33183285D02*
X123650295Y-33135666D01*
X123650295Y-33135666D02*
X123793152Y-33135666D01*
X123793152Y-33135666D02*
X123888390Y-33183285D01*
X123888390Y-33183285D02*
X123936009Y-33230904D01*
X123936009Y-33230904D02*
X123983628Y-33326142D01*
X123983628Y-33326142D02*
X123983628Y-33707094D01*
X123459819Y-32802332D02*
X123459819Y-32183285D01*
X123459819Y-32183285D02*
X123840771Y-32516618D01*
X123840771Y-32516618D02*
X123840771Y-32373761D01*
X123840771Y-32373761D02*
X123888390Y-32278523D01*
X123888390Y-32278523D02*
X123936009Y-32230904D01*
X123936009Y-32230904D02*
X124031247Y-32183285D01*
X124031247Y-32183285D02*
X124269342Y-32183285D01*
X124269342Y-32183285D02*
X124364580Y-32230904D01*
X124364580Y-32230904D02*
X124412200Y-32278523D01*
X124412200Y-32278523D02*
X124459819Y-32373761D01*
X124459819Y-32373761D02*
X124459819Y-32659475D01*
X124459819Y-32659475D02*
X124412200Y-32754713D01*
X124412200Y-32754713D02*
X124364580Y-32802332D01*
X160083057Y-84562238D02*
X160035438Y-84657476D01*
X160035438Y-84657476D02*
X159940200Y-84752714D01*
X159940200Y-84752714D02*
X159797342Y-84895571D01*
X159797342Y-84895571D02*
X159749723Y-84990809D01*
X159749723Y-84990809D02*
X159749723Y-85086047D01*
X159987819Y-85038428D02*
X159940200Y-85133666D01*
X159940200Y-85133666D02*
X159844961Y-85228904D01*
X159844961Y-85228904D02*
X159654485Y-85276523D01*
X159654485Y-85276523D02*
X159321152Y-85276523D01*
X159321152Y-85276523D02*
X159130676Y-85228904D01*
X159130676Y-85228904D02*
X159035438Y-85133666D01*
X159035438Y-85133666D02*
X158987819Y-85038428D01*
X158987819Y-85038428D02*
X158987819Y-84847952D01*
X158987819Y-84847952D02*
X159035438Y-84752714D01*
X159035438Y-84752714D02*
X159130676Y-84657476D01*
X159130676Y-84657476D02*
X159321152Y-84609857D01*
X159321152Y-84609857D02*
X159654485Y-84609857D01*
X159654485Y-84609857D02*
X159844961Y-84657476D01*
X159844961Y-84657476D02*
X159940200Y-84752714D01*
X159940200Y-84752714D02*
X159987819Y-84847952D01*
X159987819Y-84847952D02*
X159987819Y-85038428D01*
X159987819Y-83657476D02*
X159987819Y-84228904D01*
X159987819Y-83943190D02*
X158987819Y-83943190D01*
X158987819Y-83943190D02*
X159130676Y-84038428D01*
X159130676Y-84038428D02*
X159225914Y-84133666D01*
X159225914Y-84133666D02*
X159273533Y-84228904D01*
X160876819Y-46772189D02*
X159876819Y-46772189D01*
X160781580Y-45724571D02*
X160829200Y-45772190D01*
X160829200Y-45772190D02*
X160876819Y-45915047D01*
X160876819Y-45915047D02*
X160876819Y-46010285D01*
X160876819Y-46010285D02*
X160829200Y-46153142D01*
X160829200Y-46153142D02*
X160733961Y-46248380D01*
X160733961Y-46248380D02*
X160638723Y-46295999D01*
X160638723Y-46295999D02*
X160448247Y-46343618D01*
X160448247Y-46343618D02*
X160305390Y-46343618D01*
X160305390Y-46343618D02*
X160114914Y-46295999D01*
X160114914Y-46295999D02*
X160019676Y-46248380D01*
X160019676Y-46248380D02*
X159924438Y-46153142D01*
X159924438Y-46153142D02*
X159876819Y-46010285D01*
X159876819Y-46010285D02*
X159876819Y-45915047D01*
X159876819Y-45915047D02*
X159924438Y-45772190D01*
X159924438Y-45772190D02*
X159972057Y-45724571D01*
X159972057Y-45343618D02*
X159924438Y-45295999D01*
X159924438Y-45295999D02*
X159876819Y-45200761D01*
X159876819Y-45200761D02*
X159876819Y-44962666D01*
X159876819Y-44962666D02*
X159924438Y-44867428D01*
X159924438Y-44867428D02*
X159972057Y-44819809D01*
X159972057Y-44819809D02*
X160067295Y-44772190D01*
X160067295Y-44772190D02*
X160162533Y-44772190D01*
X160162533Y-44772190D02*
X160305390Y-44819809D01*
X160305390Y-44819809D02*
X160876819Y-45391237D01*
X160876819Y-45391237D02*
X160876819Y-44772190D01*
D10*
X162440360Y-43525419D02*
X162630836Y-43525419D01*
X162630836Y-43525419D02*
X162726074Y-43573038D01*
X162726074Y-43573038D02*
X162821312Y-43668276D01*
X162821312Y-43668276D02*
X162868931Y-43858752D01*
X162868931Y-43858752D02*
X162868931Y-44192085D01*
X162868931Y-44192085D02*
X162821312Y-44382561D01*
X162821312Y-44382561D02*
X162726074Y-44477800D01*
X162726074Y-44477800D02*
X162630836Y-44525419D01*
X162630836Y-44525419D02*
X162440360Y-44525419D01*
X162440360Y-44525419D02*
X162345122Y-44477800D01*
X162345122Y-44477800D02*
X162249884Y-44382561D01*
X162249884Y-44382561D02*
X162202265Y-44192085D01*
X162202265Y-44192085D02*
X162202265Y-43858752D01*
X162202265Y-43858752D02*
X162249884Y-43668276D01*
X162249884Y-43668276D02*
X162345122Y-43573038D01*
X162345122Y-43573038D02*
X162440360Y-43525419D01*
X165313693Y-43573038D02*
X165218455Y-43525419D01*
X165218455Y-43525419D02*
X165075598Y-43525419D01*
X165075598Y-43525419D02*
X164932741Y-43573038D01*
X164932741Y-43573038D02*
X164837503Y-43668276D01*
X164837503Y-43668276D02*
X164789884Y-43763514D01*
X164789884Y-43763514D02*
X164742265Y-43953990D01*
X164742265Y-43953990D02*
X164742265Y-44096847D01*
X164742265Y-44096847D02*
X164789884Y-44287323D01*
X164789884Y-44287323D02*
X164837503Y-44382561D01*
X164837503Y-44382561D02*
X164932741Y-44477800D01*
X164932741Y-44477800D02*
X165075598Y-44525419D01*
X165075598Y-44525419D02*
X165170836Y-44525419D01*
X165170836Y-44525419D02*
X165313693Y-44477800D01*
X165313693Y-44477800D02*
X165361312Y-44430180D01*
X165361312Y-44430180D02*
X165361312Y-44096847D01*
X165361312Y-44096847D02*
X165170836Y-44096847D01*
X167484115Y-43510580D02*
X167484115Y-44510580D01*
D11*
X161969905Y-28216819D02*
X161969905Y-27216819D01*
X161969905Y-27216819D02*
X162208000Y-27216819D01*
X162208000Y-27216819D02*
X162350857Y-27264438D01*
X162350857Y-27264438D02*
X162446095Y-27359676D01*
X162446095Y-27359676D02*
X162493714Y-27454914D01*
X162493714Y-27454914D02*
X162541333Y-27645390D01*
X162541333Y-27645390D02*
X162541333Y-27788247D01*
X162541333Y-27788247D02*
X162493714Y-27978723D01*
X162493714Y-27978723D02*
X162446095Y-28073961D01*
X162446095Y-28073961D02*
X162350857Y-28169200D01*
X162350857Y-28169200D02*
X162208000Y-28216819D01*
X162208000Y-28216819D02*
X161969905Y-28216819D01*
X163493714Y-28216819D02*
X162922286Y-28216819D01*
X163208000Y-28216819D02*
X163208000Y-27216819D01*
X163208000Y-27216819D02*
X163112762Y-27359676D01*
X163112762Y-27359676D02*
X163017524Y-27454914D01*
X163017524Y-27454914D02*
X162922286Y-27502533D01*
X161765819Y-34893085D02*
X161765819Y-35464513D01*
X161765819Y-35178799D02*
X160765819Y-35178799D01*
X160765819Y-35178799D02*
X160908676Y-35274037D01*
X160908676Y-35274037D02*
X161003914Y-35369275D01*
X161003914Y-35369275D02*
X161051533Y-35464513D01*
X158717819Y-78283666D02*
X158241628Y-78616999D01*
X158717819Y-78855094D02*
X157717819Y-78855094D01*
X157717819Y-78855094D02*
X157717819Y-78474142D01*
X157717819Y-78474142D02*
X157765438Y-78378904D01*
X157765438Y-78378904D02*
X157813057Y-78331285D01*
X157813057Y-78331285D02*
X157908295Y-78283666D01*
X157908295Y-78283666D02*
X158051152Y-78283666D01*
X158051152Y-78283666D02*
X158146390Y-78331285D01*
X158146390Y-78331285D02*
X158194009Y-78378904D01*
X158194009Y-78378904D02*
X158241628Y-78474142D01*
X158241628Y-78474142D02*
X158241628Y-78855094D01*
X157717819Y-77950332D02*
X157717819Y-77331285D01*
X157717819Y-77331285D02*
X158098771Y-77664618D01*
X158098771Y-77664618D02*
X158098771Y-77521761D01*
X158098771Y-77521761D02*
X158146390Y-77426523D01*
X158146390Y-77426523D02*
X158194009Y-77378904D01*
X158194009Y-77378904D02*
X158289247Y-77331285D01*
X158289247Y-77331285D02*
X158527342Y-77331285D01*
X158527342Y-77331285D02*
X158622580Y-77378904D01*
X158622580Y-77378904D02*
X158670200Y-77426523D01*
X158670200Y-77426523D02*
X158717819Y-77521761D01*
X158717819Y-77521761D02*
X158717819Y-77807475D01*
X158717819Y-77807475D02*
X158670200Y-77902713D01*
X158670200Y-77902713D02*
X158622580Y-77950332D01*
X174669905Y-28216819D02*
X174669905Y-27216819D01*
X174669905Y-27216819D02*
X174908000Y-27216819D01*
X174908000Y-27216819D02*
X175050857Y-27264438D01*
X175050857Y-27264438D02*
X175146095Y-27359676D01*
X175146095Y-27359676D02*
X175193714Y-27454914D01*
X175193714Y-27454914D02*
X175241333Y-27645390D01*
X175241333Y-27645390D02*
X175241333Y-27788247D01*
X175241333Y-27788247D02*
X175193714Y-27978723D01*
X175193714Y-27978723D02*
X175146095Y-28073961D01*
X175146095Y-28073961D02*
X175050857Y-28169200D01*
X175050857Y-28169200D02*
X174908000Y-28216819D01*
X174908000Y-28216819D02*
X174669905Y-28216819D01*
X175574667Y-27216819D02*
X176193714Y-27216819D01*
X176193714Y-27216819D02*
X175860381Y-27597771D01*
X175860381Y-27597771D02*
X176003238Y-27597771D01*
X176003238Y-27597771D02*
X176098476Y-27645390D01*
X176098476Y-27645390D02*
X176146095Y-27693009D01*
X176146095Y-27693009D02*
X176193714Y-27788247D01*
X176193714Y-27788247D02*
X176193714Y-28026342D01*
X176193714Y-28026342D02*
X176146095Y-28121580D01*
X176146095Y-28121580D02*
X176098476Y-28169200D01*
X176098476Y-28169200D02*
X176003238Y-28216819D01*
X176003238Y-28216819D02*
X175717524Y-28216819D01*
X175717524Y-28216819D02*
X175622286Y-28169200D01*
X175622286Y-28169200D02*
X175574667Y-28121580D01*
X174465819Y-34856085D02*
X174465819Y-35427513D01*
X174465819Y-35141799D02*
X173465819Y-35141799D01*
X173465819Y-35141799D02*
X173608676Y-35237037D01*
X173608676Y-35237037D02*
X173703914Y-35332275D01*
X173703914Y-35332275D02*
X173751533Y-35427513D01*
X158881833Y-81746819D02*
X158548500Y-81270628D01*
X158310405Y-81746819D02*
X158310405Y-80746819D01*
X158310405Y-80746819D02*
X158691357Y-80746819D01*
X158691357Y-80746819D02*
X158786595Y-80794438D01*
X158786595Y-80794438D02*
X158834214Y-80842057D01*
X158834214Y-80842057D02*
X158881833Y-80937295D01*
X158881833Y-80937295D02*
X158881833Y-81080152D01*
X158881833Y-81080152D02*
X158834214Y-81175390D01*
X158834214Y-81175390D02*
X158786595Y-81223009D01*
X158786595Y-81223009D02*
X158691357Y-81270628D01*
X158691357Y-81270628D02*
X158310405Y-81270628D01*
X159738976Y-80746819D02*
X159548500Y-80746819D01*
X159548500Y-80746819D02*
X159453262Y-80794438D01*
X159453262Y-80794438D02*
X159405643Y-80842057D01*
X159405643Y-80842057D02*
X159310405Y-80984914D01*
X159310405Y-80984914D02*
X159262786Y-81175390D01*
X159262786Y-81175390D02*
X159262786Y-81556342D01*
X159262786Y-81556342D02*
X159310405Y-81651580D01*
X159310405Y-81651580D02*
X159358024Y-81699200D01*
X159358024Y-81699200D02*
X159453262Y-81746819D01*
X159453262Y-81746819D02*
X159643738Y-81746819D01*
X159643738Y-81746819D02*
X159738976Y-81699200D01*
X159738976Y-81699200D02*
X159786595Y-81651580D01*
X159786595Y-81651580D02*
X159834214Y-81556342D01*
X159834214Y-81556342D02*
X159834214Y-81318247D01*
X159834214Y-81318247D02*
X159786595Y-81223009D01*
X159786595Y-81223009D02*
X159738976Y-81175390D01*
X159738976Y-81175390D02*
X159643738Y-81127771D01*
X159643738Y-81127771D02*
X159453262Y-81127771D01*
X159453262Y-81127771D02*
X159358024Y-81175390D01*
X159358024Y-81175390D02*
X159310405Y-81223009D01*
X159310405Y-81223009D02*
X159262786Y-81318247D01*
X158717819Y-55709666D02*
X158241628Y-56042999D01*
X158717819Y-56281094D02*
X157717819Y-56281094D01*
X157717819Y-56281094D02*
X157717819Y-55900142D01*
X157717819Y-55900142D02*
X157765438Y-55804904D01*
X157765438Y-55804904D02*
X157813057Y-55757285D01*
X157813057Y-55757285D02*
X157908295Y-55709666D01*
X157908295Y-55709666D02*
X158051152Y-55709666D01*
X158051152Y-55709666D02*
X158146390Y-55757285D01*
X158146390Y-55757285D02*
X158194009Y-55804904D01*
X158194009Y-55804904D02*
X158241628Y-55900142D01*
X158241628Y-55900142D02*
X158241628Y-56281094D01*
X157717819Y-55376332D02*
X157717819Y-54757285D01*
X157717819Y-54757285D02*
X158098771Y-55090618D01*
X158098771Y-55090618D02*
X158098771Y-54947761D01*
X158098771Y-54947761D02*
X158146390Y-54852523D01*
X158146390Y-54852523D02*
X158194009Y-54804904D01*
X158194009Y-54804904D02*
X158289247Y-54757285D01*
X158289247Y-54757285D02*
X158527342Y-54757285D01*
X158527342Y-54757285D02*
X158622580Y-54804904D01*
X158622580Y-54804904D02*
X158670200Y-54852523D01*
X158670200Y-54852523D02*
X158717819Y-54947761D01*
X158717819Y-54947761D02*
X158717819Y-55233475D01*
X158717819Y-55233475D02*
X158670200Y-55328713D01*
X158670200Y-55328713D02*
X158622580Y-55376332D01*
X160876819Y-69346189D02*
X159876819Y-69346189D01*
X160781580Y-68298571D02*
X160829200Y-68346190D01*
X160829200Y-68346190D02*
X160876819Y-68489047D01*
X160876819Y-68489047D02*
X160876819Y-68584285D01*
X160876819Y-68584285D02*
X160829200Y-68727142D01*
X160829200Y-68727142D02*
X160733961Y-68822380D01*
X160733961Y-68822380D02*
X160638723Y-68869999D01*
X160638723Y-68869999D02*
X160448247Y-68917618D01*
X160448247Y-68917618D02*
X160305390Y-68917618D01*
X160305390Y-68917618D02*
X160114914Y-68869999D01*
X160114914Y-68869999D02*
X160019676Y-68822380D01*
X160019676Y-68822380D02*
X159924438Y-68727142D01*
X159924438Y-68727142D02*
X159876819Y-68584285D01*
X159876819Y-68584285D02*
X159876819Y-68489047D01*
X159876819Y-68489047D02*
X159924438Y-68346190D01*
X159924438Y-68346190D02*
X159972057Y-68298571D01*
X159972057Y-67917618D02*
X159924438Y-67869999D01*
X159924438Y-67869999D02*
X159876819Y-67774761D01*
X159876819Y-67774761D02*
X159876819Y-67536666D01*
X159876819Y-67536666D02*
X159924438Y-67441428D01*
X159924438Y-67441428D02*
X159972057Y-67393809D01*
X159972057Y-67393809D02*
X160067295Y-67346190D01*
X160067295Y-67346190D02*
X160162533Y-67346190D01*
X160162533Y-67346190D02*
X160305390Y-67393809D01*
X160305390Y-67393809D02*
X160876819Y-67965237D01*
X160876819Y-67965237D02*
X160876819Y-67346190D01*
D10*
X165313693Y-66147038D02*
X165218455Y-66099419D01*
X165218455Y-66099419D02*
X165075598Y-66099419D01*
X165075598Y-66099419D02*
X164932741Y-66147038D01*
X164932741Y-66147038D02*
X164837503Y-66242276D01*
X164837503Y-66242276D02*
X164789884Y-66337514D01*
X164789884Y-66337514D02*
X164742265Y-66527990D01*
X164742265Y-66527990D02*
X164742265Y-66670847D01*
X164742265Y-66670847D02*
X164789884Y-66861323D01*
X164789884Y-66861323D02*
X164837503Y-66956561D01*
X164837503Y-66956561D02*
X164932741Y-67051800D01*
X164932741Y-67051800D02*
X165075598Y-67099419D01*
X165075598Y-67099419D02*
X165170836Y-67099419D01*
X165170836Y-67099419D02*
X165313693Y-67051800D01*
X165313693Y-67051800D02*
X165361312Y-67004180D01*
X165361312Y-67004180D02*
X165361312Y-66670847D01*
X165361312Y-66670847D02*
X165170836Y-66670847D01*
X167484115Y-66084580D02*
X167484115Y-67084580D01*
X162440360Y-66099419D02*
X162630836Y-66099419D01*
X162630836Y-66099419D02*
X162726074Y-66147038D01*
X162726074Y-66147038D02*
X162821312Y-66242276D01*
X162821312Y-66242276D02*
X162868931Y-66432752D01*
X162868931Y-66432752D02*
X162868931Y-66766085D01*
X162868931Y-66766085D02*
X162821312Y-66956561D01*
X162821312Y-66956561D02*
X162726074Y-67051800D01*
X162726074Y-67051800D02*
X162630836Y-67099419D01*
X162630836Y-67099419D02*
X162440360Y-67099419D01*
X162440360Y-67099419D02*
X162345122Y-67051800D01*
X162345122Y-67051800D02*
X162249884Y-66956561D01*
X162249884Y-66956561D02*
X162202265Y-66766085D01*
X162202265Y-66766085D02*
X162202265Y-66432752D01*
X162202265Y-66432752D02*
X162249884Y-66242276D01*
X162249884Y-66242276D02*
X162345122Y-66147038D01*
X162345122Y-66147038D02*
X162440360Y-66099419D01*
D11*
X160083057Y-39414238D02*
X160035438Y-39509476D01*
X160035438Y-39509476D02*
X159940200Y-39604714D01*
X159940200Y-39604714D02*
X159797342Y-39747571D01*
X159797342Y-39747571D02*
X159749723Y-39842809D01*
X159749723Y-39842809D02*
X159749723Y-39938047D01*
X159987819Y-39890428D02*
X159940200Y-39985666D01*
X159940200Y-39985666D02*
X159844961Y-40080904D01*
X159844961Y-40080904D02*
X159654485Y-40128523D01*
X159654485Y-40128523D02*
X159321152Y-40128523D01*
X159321152Y-40128523D02*
X159130676Y-40080904D01*
X159130676Y-40080904D02*
X159035438Y-39985666D01*
X159035438Y-39985666D02*
X158987819Y-39890428D01*
X158987819Y-39890428D02*
X158987819Y-39699952D01*
X158987819Y-39699952D02*
X159035438Y-39604714D01*
X159035438Y-39604714D02*
X159130676Y-39509476D01*
X159130676Y-39509476D02*
X159321152Y-39461857D01*
X159321152Y-39461857D02*
X159654485Y-39461857D01*
X159654485Y-39461857D02*
X159844961Y-39509476D01*
X159844961Y-39509476D02*
X159940200Y-39604714D01*
X159940200Y-39604714D02*
X159987819Y-39699952D01*
X159987819Y-39699952D02*
X159987819Y-39890428D01*
X159987819Y-38509476D02*
X159987819Y-39080904D01*
X159987819Y-38795190D02*
X158987819Y-38795190D01*
X158987819Y-38795190D02*
X159130676Y-38890428D01*
X159130676Y-38890428D02*
X159225914Y-38985666D01*
X159225914Y-38985666D02*
X159273533Y-39080904D01*
X143015333Y-91303580D02*
X142967714Y-91351200D01*
X142967714Y-91351200D02*
X142824857Y-91398819D01*
X142824857Y-91398819D02*
X142729619Y-91398819D01*
X142729619Y-91398819D02*
X142586762Y-91351200D01*
X142586762Y-91351200D02*
X142491524Y-91255961D01*
X142491524Y-91255961D02*
X142443905Y-91160723D01*
X142443905Y-91160723D02*
X142396286Y-90970247D01*
X142396286Y-90970247D02*
X142396286Y-90827390D01*
X142396286Y-90827390D02*
X142443905Y-90636914D01*
X142443905Y-90636914D02*
X142491524Y-90541676D01*
X142491524Y-90541676D02*
X142586762Y-90446438D01*
X142586762Y-90446438D02*
X142729619Y-90398819D01*
X142729619Y-90398819D02*
X142824857Y-90398819D01*
X142824857Y-90398819D02*
X142967714Y-90446438D01*
X142967714Y-90446438D02*
X143015333Y-90494057D01*
X143967714Y-91398819D02*
X143396286Y-91398819D01*
X143682000Y-91398819D02*
X143682000Y-90398819D01*
X143682000Y-90398819D02*
X143586762Y-90541676D01*
X143586762Y-90541676D02*
X143491524Y-90636914D01*
X143491524Y-90636914D02*
X143396286Y-90684533D01*
X123838333Y-29867819D02*
X123505000Y-29391628D01*
X123266905Y-29867819D02*
X123266905Y-28867819D01*
X123266905Y-28867819D02*
X123647857Y-28867819D01*
X123647857Y-28867819D02*
X123743095Y-28915438D01*
X123743095Y-28915438D02*
X123790714Y-28963057D01*
X123790714Y-28963057D02*
X123838333Y-29058295D01*
X123838333Y-29058295D02*
X123838333Y-29201152D01*
X123838333Y-29201152D02*
X123790714Y-29296390D01*
X123790714Y-29296390D02*
X123743095Y-29344009D01*
X123743095Y-29344009D02*
X123647857Y-29391628D01*
X123647857Y-29391628D02*
X123266905Y-29391628D01*
X124219286Y-28963057D02*
X124266905Y-28915438D01*
X124266905Y-28915438D02*
X124362143Y-28867819D01*
X124362143Y-28867819D02*
X124600238Y-28867819D01*
X124600238Y-28867819D02*
X124695476Y-28915438D01*
X124695476Y-28915438D02*
X124743095Y-28963057D01*
X124743095Y-28963057D02*
X124790714Y-29058295D01*
X124790714Y-29058295D02*
X124790714Y-29153533D01*
X124790714Y-29153533D02*
X124743095Y-29296390D01*
X124743095Y-29296390D02*
X124171667Y-29867819D01*
X124171667Y-29867819D02*
X124790714Y-29867819D01*
X158096333Y-29867819D02*
X157763000Y-29391628D01*
X157524905Y-29867819D02*
X157524905Y-28867819D01*
X157524905Y-28867819D02*
X157905857Y-28867819D01*
X157905857Y-28867819D02*
X158001095Y-28915438D01*
X158001095Y-28915438D02*
X158048714Y-28963057D01*
X158048714Y-28963057D02*
X158096333Y-29058295D01*
X158096333Y-29058295D02*
X158096333Y-29201152D01*
X158096333Y-29201152D02*
X158048714Y-29296390D01*
X158048714Y-29296390D02*
X158001095Y-29344009D01*
X158001095Y-29344009D02*
X157905857Y-29391628D01*
X157905857Y-29391628D02*
X157524905Y-29391628D01*
X158477286Y-28963057D02*
X158524905Y-28915438D01*
X158524905Y-28915438D02*
X158620143Y-28867819D01*
X158620143Y-28867819D02*
X158858238Y-28867819D01*
X158858238Y-28867819D02*
X158953476Y-28915438D01*
X158953476Y-28915438D02*
X159001095Y-28963057D01*
X159001095Y-28963057D02*
X159048714Y-29058295D01*
X159048714Y-29058295D02*
X159048714Y-29153533D01*
X159048714Y-29153533D02*
X159001095Y-29296390D01*
X159001095Y-29296390D02*
X158429667Y-29867819D01*
X158429667Y-29867819D02*
X159048714Y-29867819D01*
X158881833Y-59172819D02*
X158548500Y-58696628D01*
X158310405Y-59172819D02*
X158310405Y-58172819D01*
X158310405Y-58172819D02*
X158691357Y-58172819D01*
X158691357Y-58172819D02*
X158786595Y-58220438D01*
X158786595Y-58220438D02*
X158834214Y-58268057D01*
X158834214Y-58268057D02*
X158881833Y-58363295D01*
X158881833Y-58363295D02*
X158881833Y-58506152D01*
X158881833Y-58506152D02*
X158834214Y-58601390D01*
X158834214Y-58601390D02*
X158786595Y-58649009D01*
X158786595Y-58649009D02*
X158691357Y-58696628D01*
X158691357Y-58696628D02*
X158310405Y-58696628D01*
X159738976Y-58172819D02*
X159548500Y-58172819D01*
X159548500Y-58172819D02*
X159453262Y-58220438D01*
X159453262Y-58220438D02*
X159405643Y-58268057D01*
X159405643Y-58268057D02*
X159310405Y-58410914D01*
X159310405Y-58410914D02*
X159262786Y-58601390D01*
X159262786Y-58601390D02*
X159262786Y-58982342D01*
X159262786Y-58982342D02*
X159310405Y-59077580D01*
X159310405Y-59077580D02*
X159358024Y-59125200D01*
X159358024Y-59125200D02*
X159453262Y-59172819D01*
X159453262Y-59172819D02*
X159643738Y-59172819D01*
X159643738Y-59172819D02*
X159738976Y-59125200D01*
X159738976Y-59125200D02*
X159786595Y-59077580D01*
X159786595Y-59077580D02*
X159834214Y-58982342D01*
X159834214Y-58982342D02*
X159834214Y-58744247D01*
X159834214Y-58744247D02*
X159786595Y-58649009D01*
X159786595Y-58649009D02*
X159738976Y-58601390D01*
X159738976Y-58601390D02*
X159643738Y-58553771D01*
X159643738Y-58553771D02*
X159453262Y-58553771D01*
X159453262Y-58553771D02*
X159358024Y-58601390D01*
X159358024Y-58601390D02*
X159310405Y-58649009D01*
X159310405Y-58649009D02*
X159262786Y-58744247D01*
X137176610Y-88757219D02*
X137176610Y-87757219D01*
X138224228Y-88661980D02*
X138176609Y-88709600D01*
X138176609Y-88709600D02*
X138033752Y-88757219D01*
X138033752Y-88757219D02*
X137938514Y-88757219D01*
X137938514Y-88757219D02*
X137795657Y-88709600D01*
X137795657Y-88709600D02*
X137700419Y-88614361D01*
X137700419Y-88614361D02*
X137652800Y-88519123D01*
X137652800Y-88519123D02*
X137605181Y-88328647D01*
X137605181Y-88328647D02*
X137605181Y-88185790D01*
X137605181Y-88185790D02*
X137652800Y-87995314D01*
X137652800Y-87995314D02*
X137700419Y-87900076D01*
X137700419Y-87900076D02*
X137795657Y-87804838D01*
X137795657Y-87804838D02*
X137938514Y-87757219D01*
X137938514Y-87757219D02*
X138033752Y-87757219D01*
X138033752Y-87757219D02*
X138176609Y-87804838D01*
X138176609Y-87804838D02*
X138224228Y-87852457D01*
X139176609Y-88757219D02*
X138605181Y-88757219D01*
X138890895Y-88757219D02*
X138890895Y-87757219D01*
X138890895Y-87757219D02*
X138795657Y-87900076D01*
X138795657Y-87900076D02*
X138700419Y-87995314D01*
X138700419Y-87995314D02*
X138605181Y-88042933D01*
X143015333Y-46155580D02*
X142967714Y-46203200D01*
X142967714Y-46203200D02*
X142824857Y-46250819D01*
X142824857Y-46250819D02*
X142729619Y-46250819D01*
X142729619Y-46250819D02*
X142586762Y-46203200D01*
X142586762Y-46203200D02*
X142491524Y-46107961D01*
X142491524Y-46107961D02*
X142443905Y-46012723D01*
X142443905Y-46012723D02*
X142396286Y-45822247D01*
X142396286Y-45822247D02*
X142396286Y-45679390D01*
X142396286Y-45679390D02*
X142443905Y-45488914D01*
X142443905Y-45488914D02*
X142491524Y-45393676D01*
X142491524Y-45393676D02*
X142586762Y-45298438D01*
X142586762Y-45298438D02*
X142729619Y-45250819D01*
X142729619Y-45250819D02*
X142824857Y-45250819D01*
X142824857Y-45250819D02*
X142967714Y-45298438D01*
X142967714Y-45298438D02*
X143015333Y-45346057D01*
X143967714Y-46250819D02*
X143396286Y-46250819D01*
X143682000Y-46250819D02*
X143682000Y-45250819D01*
X143682000Y-45250819D02*
X143586762Y-45393676D01*
X143586762Y-45393676D02*
X143491524Y-45488914D01*
X143491524Y-45488914D02*
X143396286Y-45536533D01*
X125825057Y-84562238D02*
X125777438Y-84657476D01*
X125777438Y-84657476D02*
X125682200Y-84752714D01*
X125682200Y-84752714D02*
X125539342Y-84895571D01*
X125539342Y-84895571D02*
X125491723Y-84990809D01*
X125491723Y-84990809D02*
X125491723Y-85086047D01*
X125729819Y-85038428D02*
X125682200Y-85133666D01*
X125682200Y-85133666D02*
X125586961Y-85228904D01*
X125586961Y-85228904D02*
X125396485Y-85276523D01*
X125396485Y-85276523D02*
X125063152Y-85276523D01*
X125063152Y-85276523D02*
X124872676Y-85228904D01*
X124872676Y-85228904D02*
X124777438Y-85133666D01*
X124777438Y-85133666D02*
X124729819Y-85038428D01*
X124729819Y-85038428D02*
X124729819Y-84847952D01*
X124729819Y-84847952D02*
X124777438Y-84752714D01*
X124777438Y-84752714D02*
X124872676Y-84657476D01*
X124872676Y-84657476D02*
X125063152Y-84609857D01*
X125063152Y-84609857D02*
X125396485Y-84609857D01*
X125396485Y-84609857D02*
X125586961Y-84657476D01*
X125586961Y-84657476D02*
X125682200Y-84752714D01*
X125682200Y-84752714D02*
X125729819Y-84847952D01*
X125729819Y-84847952D02*
X125729819Y-85038428D01*
X125729819Y-83657476D02*
X125729819Y-84228904D01*
X125729819Y-83943190D02*
X124729819Y-83943190D01*
X124729819Y-83943190D02*
X124872676Y-84038428D01*
X124872676Y-84038428D02*
X124967914Y-84133666D01*
X124967914Y-84133666D02*
X125015533Y-84228904D01*
X123838333Y-75015819D02*
X123505000Y-74539628D01*
X123266905Y-75015819D02*
X123266905Y-74015819D01*
X123266905Y-74015819D02*
X123647857Y-74015819D01*
X123647857Y-74015819D02*
X123743095Y-74063438D01*
X123743095Y-74063438D02*
X123790714Y-74111057D01*
X123790714Y-74111057D02*
X123838333Y-74206295D01*
X123838333Y-74206295D02*
X123838333Y-74349152D01*
X123838333Y-74349152D02*
X123790714Y-74444390D01*
X123790714Y-74444390D02*
X123743095Y-74492009D01*
X123743095Y-74492009D02*
X123647857Y-74539628D01*
X123647857Y-74539628D02*
X123266905Y-74539628D01*
X124219286Y-74111057D02*
X124266905Y-74063438D01*
X124266905Y-74063438D02*
X124362143Y-74015819D01*
X124362143Y-74015819D02*
X124600238Y-74015819D01*
X124600238Y-74015819D02*
X124695476Y-74063438D01*
X124695476Y-74063438D02*
X124743095Y-74111057D01*
X124743095Y-74111057D02*
X124790714Y-74206295D01*
X124790714Y-74206295D02*
X124790714Y-74301533D01*
X124790714Y-74301533D02*
X124743095Y-74444390D01*
X124743095Y-74444390D02*
X124171667Y-75015819D01*
X124171667Y-75015819D02*
X124790714Y-75015819D01*
X134061905Y-28216819D02*
X134061905Y-27216819D01*
X134061905Y-27216819D02*
X134300000Y-27216819D01*
X134300000Y-27216819D02*
X134442857Y-27264438D01*
X134442857Y-27264438D02*
X134538095Y-27359676D01*
X134538095Y-27359676D02*
X134585714Y-27454914D01*
X134585714Y-27454914D02*
X134633333Y-27645390D01*
X134633333Y-27645390D02*
X134633333Y-27788247D01*
X134633333Y-27788247D02*
X134585714Y-27978723D01*
X134585714Y-27978723D02*
X134538095Y-28073961D01*
X134538095Y-28073961D02*
X134442857Y-28169200D01*
X134442857Y-28169200D02*
X134300000Y-28216819D01*
X134300000Y-28216819D02*
X134061905Y-28216819D01*
X135014286Y-27312057D02*
X135061905Y-27264438D01*
X135061905Y-27264438D02*
X135157143Y-27216819D01*
X135157143Y-27216819D02*
X135395238Y-27216819D01*
X135395238Y-27216819D02*
X135490476Y-27264438D01*
X135490476Y-27264438D02*
X135538095Y-27312057D01*
X135538095Y-27312057D02*
X135585714Y-27407295D01*
X135585714Y-27407295D02*
X135585714Y-27502533D01*
X135585714Y-27502533D02*
X135538095Y-27645390D01*
X135538095Y-27645390D02*
X134966667Y-28216819D01*
X134966667Y-28216819D02*
X135585714Y-28216819D01*
X133857819Y-34856085D02*
X133857819Y-35427513D01*
X133857819Y-35141799D02*
X132857819Y-35141799D01*
X132857819Y-35141799D02*
X133000676Y-35237037D01*
X133000676Y-35237037D02*
X133095914Y-35332275D01*
X133095914Y-35332275D02*
X133143533Y-35427513D01*
D12*
X178522318Y-86033332D02*
X179429461Y-86033332D01*
X179429461Y-86033332D02*
X179610889Y-86093809D01*
X179610889Y-86093809D02*
X179731842Y-86214761D01*
X179731842Y-86214761D02*
X179792318Y-86396190D01*
X179792318Y-86396190D02*
X179792318Y-86517142D01*
X179792318Y-84763332D02*
X179792318Y-85489047D01*
X179792318Y-85126190D02*
X178522318Y-85126190D01*
X178522318Y-85126190D02*
X178703746Y-85247142D01*
X178703746Y-85247142D02*
X178824699Y-85368094D01*
X178824699Y-85368094D02*
X178885175Y-85489047D01*
X144264318Y-63459332D02*
X145171461Y-63459332D01*
X145171461Y-63459332D02*
X145352889Y-63519809D01*
X145352889Y-63519809D02*
X145473842Y-63640761D01*
X145473842Y-63640761D02*
X145534318Y-63822190D01*
X145534318Y-63822190D02*
X145534318Y-63943142D01*
X145534318Y-62189332D02*
X145534318Y-62915047D01*
X145534318Y-62552190D02*
X144264318Y-62552190D01*
X144264318Y-62552190D02*
X144445746Y-62673142D01*
X144445746Y-62673142D02*
X144566699Y-62794094D01*
X144566699Y-62794094D02*
X144627175Y-62915047D01*
D11*
X124623833Y-59172819D02*
X124290500Y-58696628D01*
X124052405Y-59172819D02*
X124052405Y-58172819D01*
X124052405Y-58172819D02*
X124433357Y-58172819D01*
X124433357Y-58172819D02*
X124528595Y-58220438D01*
X124528595Y-58220438D02*
X124576214Y-58268057D01*
X124576214Y-58268057D02*
X124623833Y-58363295D01*
X124623833Y-58363295D02*
X124623833Y-58506152D01*
X124623833Y-58506152D02*
X124576214Y-58601390D01*
X124576214Y-58601390D02*
X124528595Y-58649009D01*
X124528595Y-58649009D02*
X124433357Y-58696628D01*
X124433357Y-58696628D02*
X124052405Y-58696628D01*
X125480976Y-58172819D02*
X125290500Y-58172819D01*
X125290500Y-58172819D02*
X125195262Y-58220438D01*
X125195262Y-58220438D02*
X125147643Y-58268057D01*
X125147643Y-58268057D02*
X125052405Y-58410914D01*
X125052405Y-58410914D02*
X125004786Y-58601390D01*
X125004786Y-58601390D02*
X125004786Y-58982342D01*
X125004786Y-58982342D02*
X125052405Y-59077580D01*
X125052405Y-59077580D02*
X125100024Y-59125200D01*
X125100024Y-59125200D02*
X125195262Y-59172819D01*
X125195262Y-59172819D02*
X125385738Y-59172819D01*
X125385738Y-59172819D02*
X125480976Y-59125200D01*
X125480976Y-59125200D02*
X125528595Y-59077580D01*
X125528595Y-59077580D02*
X125576214Y-58982342D01*
X125576214Y-58982342D02*
X125576214Y-58744247D01*
X125576214Y-58744247D02*
X125528595Y-58649009D01*
X125528595Y-58649009D02*
X125480976Y-58601390D01*
X125480976Y-58601390D02*
X125385738Y-58553771D01*
X125385738Y-58553771D02*
X125195262Y-58553771D01*
X125195262Y-58553771D02*
X125100024Y-58601390D01*
X125100024Y-58601390D02*
X125052405Y-58649009D01*
X125052405Y-58649009D02*
X125004786Y-58744247D01*
X158096333Y-52441819D02*
X157763000Y-51965628D01*
X157524905Y-52441819D02*
X157524905Y-51441819D01*
X157524905Y-51441819D02*
X157905857Y-51441819D01*
X157905857Y-51441819D02*
X158001095Y-51489438D01*
X158001095Y-51489438D02*
X158048714Y-51537057D01*
X158048714Y-51537057D02*
X158096333Y-51632295D01*
X158096333Y-51632295D02*
X158096333Y-51775152D01*
X158096333Y-51775152D02*
X158048714Y-51870390D01*
X158048714Y-51870390D02*
X158001095Y-51918009D01*
X158001095Y-51918009D02*
X157905857Y-51965628D01*
X157905857Y-51965628D02*
X157524905Y-51965628D01*
X158477286Y-51537057D02*
X158524905Y-51489438D01*
X158524905Y-51489438D02*
X158620143Y-51441819D01*
X158620143Y-51441819D02*
X158858238Y-51441819D01*
X158858238Y-51441819D02*
X158953476Y-51489438D01*
X158953476Y-51489438D02*
X159001095Y-51537057D01*
X159001095Y-51537057D02*
X159048714Y-51632295D01*
X159048714Y-51632295D02*
X159048714Y-51727533D01*
X159048714Y-51727533D02*
X159001095Y-51870390D01*
X159001095Y-51870390D02*
X158429667Y-52441819D01*
X158429667Y-52441819D02*
X159048714Y-52441819D01*
X124459819Y-55709666D02*
X123983628Y-56042999D01*
X124459819Y-56281094D02*
X123459819Y-56281094D01*
X123459819Y-56281094D02*
X123459819Y-55900142D01*
X123459819Y-55900142D02*
X123507438Y-55804904D01*
X123507438Y-55804904D02*
X123555057Y-55757285D01*
X123555057Y-55757285D02*
X123650295Y-55709666D01*
X123650295Y-55709666D02*
X123793152Y-55709666D01*
X123793152Y-55709666D02*
X123888390Y-55757285D01*
X123888390Y-55757285D02*
X123936009Y-55804904D01*
X123936009Y-55804904D02*
X123983628Y-55900142D01*
X123983628Y-55900142D02*
X123983628Y-56281094D01*
X123459819Y-55376332D02*
X123459819Y-54757285D01*
X123459819Y-54757285D02*
X123840771Y-55090618D01*
X123840771Y-55090618D02*
X123840771Y-54947761D01*
X123840771Y-54947761D02*
X123888390Y-54852523D01*
X123888390Y-54852523D02*
X123936009Y-54804904D01*
X123936009Y-54804904D02*
X124031247Y-54757285D01*
X124031247Y-54757285D02*
X124269342Y-54757285D01*
X124269342Y-54757285D02*
X124364580Y-54804904D01*
X124364580Y-54804904D02*
X124412200Y-54852523D01*
X124412200Y-54852523D02*
X124459819Y-54947761D01*
X124459819Y-54947761D02*
X124459819Y-55233475D01*
X124459819Y-55233475D02*
X124412200Y-55328713D01*
X124412200Y-55328713D02*
X124364580Y-55376332D01*
X115797666Y-27978819D02*
X115797666Y-28693104D01*
X115797666Y-28693104D02*
X115750047Y-28835961D01*
X115750047Y-28835961D02*
X115654809Y-28931200D01*
X115654809Y-28931200D02*
X115511952Y-28978819D01*
X115511952Y-28978819D02*
X115416714Y-28978819D01*
X116226238Y-28074057D02*
X116273857Y-28026438D01*
X116273857Y-28026438D02*
X116369095Y-27978819D01*
X116369095Y-27978819D02*
X116607190Y-27978819D01*
X116607190Y-27978819D02*
X116702428Y-28026438D01*
X116702428Y-28026438D02*
X116750047Y-28074057D01*
X116750047Y-28074057D02*
X116797666Y-28169295D01*
X116797666Y-28169295D02*
X116797666Y-28264533D01*
X116797666Y-28264533D02*
X116750047Y-28407390D01*
X116750047Y-28407390D02*
X116178619Y-28978819D01*
X116178619Y-28978819D02*
X116797666Y-28978819D01*
X177273333Y-46155580D02*
X177225714Y-46203200D01*
X177225714Y-46203200D02*
X177082857Y-46250819D01*
X177082857Y-46250819D02*
X176987619Y-46250819D01*
X176987619Y-46250819D02*
X176844762Y-46203200D01*
X176844762Y-46203200D02*
X176749524Y-46107961D01*
X176749524Y-46107961D02*
X176701905Y-46012723D01*
X176701905Y-46012723D02*
X176654286Y-45822247D01*
X176654286Y-45822247D02*
X176654286Y-45679390D01*
X176654286Y-45679390D02*
X176701905Y-45488914D01*
X176701905Y-45488914D02*
X176749524Y-45393676D01*
X176749524Y-45393676D02*
X176844762Y-45298438D01*
X176844762Y-45298438D02*
X176987619Y-45250819D01*
X176987619Y-45250819D02*
X177082857Y-45250819D01*
X177082857Y-45250819D02*
X177225714Y-45298438D01*
X177225714Y-45298438D02*
X177273333Y-45346057D01*
X178225714Y-46250819D02*
X177654286Y-46250819D01*
X177940000Y-46250819D02*
X177940000Y-45250819D01*
X177940000Y-45250819D02*
X177844762Y-45393676D01*
X177844762Y-45393676D02*
X177749524Y-45488914D01*
X177749524Y-45488914D02*
X177654286Y-45536533D01*
X170008933Y-58918819D02*
X169675600Y-58442628D01*
X169437505Y-58918819D02*
X169437505Y-57918819D01*
X169437505Y-57918819D02*
X169818457Y-57918819D01*
X169818457Y-57918819D02*
X169913695Y-57966438D01*
X169913695Y-57966438D02*
X169961314Y-58014057D01*
X169961314Y-58014057D02*
X170008933Y-58109295D01*
X170008933Y-58109295D02*
X170008933Y-58252152D01*
X170008933Y-58252152D02*
X169961314Y-58347390D01*
X169961314Y-58347390D02*
X169913695Y-58395009D01*
X169913695Y-58395009D02*
X169818457Y-58442628D01*
X169818457Y-58442628D02*
X169437505Y-58442628D01*
X170961314Y-58918819D02*
X170389886Y-58918819D01*
X170675600Y-58918819D02*
X170675600Y-57918819D01*
X170675600Y-57918819D02*
X170580362Y-58061676D01*
X170580362Y-58061676D02*
X170485124Y-58156914D01*
X170485124Y-58156914D02*
X170389886Y-58204533D01*
D12*
X178522318Y-63459332D02*
X179429461Y-63459332D01*
X179429461Y-63459332D02*
X179610889Y-63519809D01*
X179610889Y-63519809D02*
X179731842Y-63640761D01*
X179731842Y-63640761D02*
X179792318Y-63822190D01*
X179792318Y-63822190D02*
X179792318Y-63943142D01*
X179792318Y-62189332D02*
X179792318Y-62915047D01*
X179792318Y-62552190D02*
X178522318Y-62552190D01*
X178522318Y-62552190D02*
X178703746Y-62673142D01*
X178703746Y-62673142D02*
X178824699Y-62794094D01*
X178824699Y-62794094D02*
X178885175Y-62915047D01*
D11*
X134061905Y-73364819D02*
X134061905Y-72364819D01*
X134061905Y-72364819D02*
X134300000Y-72364819D01*
X134300000Y-72364819D02*
X134442857Y-72412438D01*
X134442857Y-72412438D02*
X134538095Y-72507676D01*
X134538095Y-72507676D02*
X134585714Y-72602914D01*
X134585714Y-72602914D02*
X134633333Y-72793390D01*
X134633333Y-72793390D02*
X134633333Y-72936247D01*
X134633333Y-72936247D02*
X134585714Y-73126723D01*
X134585714Y-73126723D02*
X134538095Y-73221961D01*
X134538095Y-73221961D02*
X134442857Y-73317200D01*
X134442857Y-73317200D02*
X134300000Y-73364819D01*
X134300000Y-73364819D02*
X134061905Y-73364819D01*
X135014286Y-72460057D02*
X135061905Y-72412438D01*
X135061905Y-72412438D02*
X135157143Y-72364819D01*
X135157143Y-72364819D02*
X135395238Y-72364819D01*
X135395238Y-72364819D02*
X135490476Y-72412438D01*
X135490476Y-72412438D02*
X135538095Y-72460057D01*
X135538095Y-72460057D02*
X135585714Y-72555295D01*
X135585714Y-72555295D02*
X135585714Y-72650533D01*
X135585714Y-72650533D02*
X135538095Y-72793390D01*
X135538095Y-72793390D02*
X134966667Y-73364819D01*
X134966667Y-73364819D02*
X135585714Y-73364819D01*
X133857819Y-80004085D02*
X133857819Y-80575513D01*
X133857819Y-80289799D02*
X132857819Y-80289799D01*
X132857819Y-80289799D02*
X133000676Y-80385037D01*
X133000676Y-80385037D02*
X133095914Y-80480275D01*
X133095914Y-80480275D02*
X133143533Y-80575513D01*
X140411905Y-28216819D02*
X140411905Y-27216819D01*
X140411905Y-27216819D02*
X140650000Y-27216819D01*
X140650000Y-27216819D02*
X140792857Y-27264438D01*
X140792857Y-27264438D02*
X140888095Y-27359676D01*
X140888095Y-27359676D02*
X140935714Y-27454914D01*
X140935714Y-27454914D02*
X140983333Y-27645390D01*
X140983333Y-27645390D02*
X140983333Y-27788247D01*
X140983333Y-27788247D02*
X140935714Y-27978723D01*
X140935714Y-27978723D02*
X140888095Y-28073961D01*
X140888095Y-28073961D02*
X140792857Y-28169200D01*
X140792857Y-28169200D02*
X140650000Y-28216819D01*
X140650000Y-28216819D02*
X140411905Y-28216819D01*
X141316667Y-27216819D02*
X141935714Y-27216819D01*
X141935714Y-27216819D02*
X141602381Y-27597771D01*
X141602381Y-27597771D02*
X141745238Y-27597771D01*
X141745238Y-27597771D02*
X141840476Y-27645390D01*
X141840476Y-27645390D02*
X141888095Y-27693009D01*
X141888095Y-27693009D02*
X141935714Y-27788247D01*
X141935714Y-27788247D02*
X141935714Y-28026342D01*
X141935714Y-28026342D02*
X141888095Y-28121580D01*
X141888095Y-28121580D02*
X141840476Y-28169200D01*
X141840476Y-28169200D02*
X141745238Y-28216819D01*
X141745238Y-28216819D02*
X141459524Y-28216819D01*
X141459524Y-28216819D02*
X141364286Y-28169200D01*
X141364286Y-28169200D02*
X141316667Y-28121580D01*
X140207819Y-34856085D02*
X140207819Y-35427513D01*
X140207819Y-35141799D02*
X139207819Y-35141799D01*
X139207819Y-35141799D02*
X139350676Y-35237037D01*
X139350676Y-35237037D02*
X139445914Y-35332275D01*
X139445914Y-35332275D02*
X139493533Y-35427513D01*
X170008933Y-81492819D02*
X169675600Y-81016628D01*
X169437505Y-81492819D02*
X169437505Y-80492819D01*
X169437505Y-80492819D02*
X169818457Y-80492819D01*
X169818457Y-80492819D02*
X169913695Y-80540438D01*
X169913695Y-80540438D02*
X169961314Y-80588057D01*
X169961314Y-80588057D02*
X170008933Y-80683295D01*
X170008933Y-80683295D02*
X170008933Y-80826152D01*
X170008933Y-80826152D02*
X169961314Y-80921390D01*
X169961314Y-80921390D02*
X169913695Y-80969009D01*
X169913695Y-80969009D02*
X169818457Y-81016628D01*
X169818457Y-81016628D02*
X169437505Y-81016628D01*
X170961314Y-81492819D02*
X170389886Y-81492819D01*
X170675600Y-81492819D02*
X170675600Y-80492819D01*
X170675600Y-80492819D02*
X170580362Y-80635676D01*
X170580362Y-80635676D02*
X170485124Y-80730914D01*
X170485124Y-80730914D02*
X170389886Y-80778533D01*
X137176610Y-43609219D02*
X137176610Y-42609219D01*
X138224228Y-43513980D02*
X138176609Y-43561600D01*
X138176609Y-43561600D02*
X138033752Y-43609219D01*
X138033752Y-43609219D02*
X137938514Y-43609219D01*
X137938514Y-43609219D02*
X137795657Y-43561600D01*
X137795657Y-43561600D02*
X137700419Y-43466361D01*
X137700419Y-43466361D02*
X137652800Y-43371123D01*
X137652800Y-43371123D02*
X137605181Y-43180647D01*
X137605181Y-43180647D02*
X137605181Y-43037790D01*
X137605181Y-43037790D02*
X137652800Y-42847314D01*
X137652800Y-42847314D02*
X137700419Y-42752076D01*
X137700419Y-42752076D02*
X137795657Y-42656838D01*
X137795657Y-42656838D02*
X137938514Y-42609219D01*
X137938514Y-42609219D02*
X138033752Y-42609219D01*
X138033752Y-42609219D02*
X138176609Y-42656838D01*
X138176609Y-42656838D02*
X138224228Y-42704457D01*
X139176609Y-43609219D02*
X138605181Y-43609219D01*
X138890895Y-43609219D02*
X138890895Y-42609219D01*
X138890895Y-42609219D02*
X138795657Y-42752076D01*
X138795657Y-42752076D02*
X138700419Y-42847314D01*
X138700419Y-42847314D02*
X138605181Y-42894933D01*
X143015333Y-68729580D02*
X142967714Y-68777200D01*
X142967714Y-68777200D02*
X142824857Y-68824819D01*
X142824857Y-68824819D02*
X142729619Y-68824819D01*
X142729619Y-68824819D02*
X142586762Y-68777200D01*
X142586762Y-68777200D02*
X142491524Y-68681961D01*
X142491524Y-68681961D02*
X142443905Y-68586723D01*
X142443905Y-68586723D02*
X142396286Y-68396247D01*
X142396286Y-68396247D02*
X142396286Y-68253390D01*
X142396286Y-68253390D02*
X142443905Y-68062914D01*
X142443905Y-68062914D02*
X142491524Y-67967676D01*
X142491524Y-67967676D02*
X142586762Y-67872438D01*
X142586762Y-67872438D02*
X142729619Y-67824819D01*
X142729619Y-67824819D02*
X142824857Y-67824819D01*
X142824857Y-67824819D02*
X142967714Y-67872438D01*
X142967714Y-67872438D02*
X143015333Y-67920057D01*
X143967714Y-68824819D02*
X143396286Y-68824819D01*
X143682000Y-68824819D02*
X143682000Y-67824819D01*
X143682000Y-67824819D02*
X143586762Y-67967676D01*
X143586762Y-67967676D02*
X143491524Y-68062914D01*
X143491524Y-68062914D02*
X143396286Y-68110533D01*
X140411905Y-50790819D02*
X140411905Y-49790819D01*
X140411905Y-49790819D02*
X140650000Y-49790819D01*
X140650000Y-49790819D02*
X140792857Y-49838438D01*
X140792857Y-49838438D02*
X140888095Y-49933676D01*
X140888095Y-49933676D02*
X140935714Y-50028914D01*
X140935714Y-50028914D02*
X140983333Y-50219390D01*
X140983333Y-50219390D02*
X140983333Y-50362247D01*
X140983333Y-50362247D02*
X140935714Y-50552723D01*
X140935714Y-50552723D02*
X140888095Y-50647961D01*
X140888095Y-50647961D02*
X140792857Y-50743200D01*
X140792857Y-50743200D02*
X140650000Y-50790819D01*
X140650000Y-50790819D02*
X140411905Y-50790819D01*
X141316667Y-49790819D02*
X141935714Y-49790819D01*
X141935714Y-49790819D02*
X141602381Y-50171771D01*
X141602381Y-50171771D02*
X141745238Y-50171771D01*
X141745238Y-50171771D02*
X141840476Y-50219390D01*
X141840476Y-50219390D02*
X141888095Y-50267009D01*
X141888095Y-50267009D02*
X141935714Y-50362247D01*
X141935714Y-50362247D02*
X141935714Y-50600342D01*
X141935714Y-50600342D02*
X141888095Y-50695580D01*
X141888095Y-50695580D02*
X141840476Y-50743200D01*
X141840476Y-50743200D02*
X141745238Y-50790819D01*
X141745238Y-50790819D02*
X141459524Y-50790819D01*
X141459524Y-50790819D02*
X141364286Y-50743200D01*
X141364286Y-50743200D02*
X141316667Y-50695580D01*
X140207819Y-57430085D02*
X140207819Y-58001513D01*
X140207819Y-57715799D02*
X139207819Y-57715799D01*
X139207819Y-57715799D02*
X139350676Y-57811037D01*
X139350676Y-57811037D02*
X139445914Y-57906275D01*
X139445914Y-57906275D02*
X139493533Y-58001513D01*
X160876819Y-91920189D02*
X159876819Y-91920189D01*
X160781580Y-90872571D02*
X160829200Y-90920190D01*
X160829200Y-90920190D02*
X160876819Y-91063047D01*
X160876819Y-91063047D02*
X160876819Y-91158285D01*
X160876819Y-91158285D02*
X160829200Y-91301142D01*
X160829200Y-91301142D02*
X160733961Y-91396380D01*
X160733961Y-91396380D02*
X160638723Y-91443999D01*
X160638723Y-91443999D02*
X160448247Y-91491618D01*
X160448247Y-91491618D02*
X160305390Y-91491618D01*
X160305390Y-91491618D02*
X160114914Y-91443999D01*
X160114914Y-91443999D02*
X160019676Y-91396380D01*
X160019676Y-91396380D02*
X159924438Y-91301142D01*
X159924438Y-91301142D02*
X159876819Y-91158285D01*
X159876819Y-91158285D02*
X159876819Y-91063047D01*
X159876819Y-91063047D02*
X159924438Y-90920190D01*
X159924438Y-90920190D02*
X159972057Y-90872571D01*
X159972057Y-90491618D02*
X159924438Y-90443999D01*
X159924438Y-90443999D02*
X159876819Y-90348761D01*
X159876819Y-90348761D02*
X159876819Y-90110666D01*
X159876819Y-90110666D02*
X159924438Y-90015428D01*
X159924438Y-90015428D02*
X159972057Y-89967809D01*
X159972057Y-89967809D02*
X160067295Y-89920190D01*
X160067295Y-89920190D02*
X160162533Y-89920190D01*
X160162533Y-89920190D02*
X160305390Y-89967809D01*
X160305390Y-89967809D02*
X160876819Y-90539237D01*
X160876819Y-90539237D02*
X160876819Y-89920190D01*
D10*
X165313693Y-88721038D02*
X165218455Y-88673419D01*
X165218455Y-88673419D02*
X165075598Y-88673419D01*
X165075598Y-88673419D02*
X164932741Y-88721038D01*
X164932741Y-88721038D02*
X164837503Y-88816276D01*
X164837503Y-88816276D02*
X164789884Y-88911514D01*
X164789884Y-88911514D02*
X164742265Y-89101990D01*
X164742265Y-89101990D02*
X164742265Y-89244847D01*
X164742265Y-89244847D02*
X164789884Y-89435323D01*
X164789884Y-89435323D02*
X164837503Y-89530561D01*
X164837503Y-89530561D02*
X164932741Y-89625800D01*
X164932741Y-89625800D02*
X165075598Y-89673419D01*
X165075598Y-89673419D02*
X165170836Y-89673419D01*
X165170836Y-89673419D02*
X165313693Y-89625800D01*
X165313693Y-89625800D02*
X165361312Y-89578180D01*
X165361312Y-89578180D02*
X165361312Y-89244847D01*
X165361312Y-89244847D02*
X165170836Y-89244847D01*
X167484115Y-88658580D02*
X167484115Y-89658580D01*
X162440360Y-88673419D02*
X162630836Y-88673419D01*
X162630836Y-88673419D02*
X162726074Y-88721038D01*
X162726074Y-88721038D02*
X162821312Y-88816276D01*
X162821312Y-88816276D02*
X162868931Y-89006752D01*
X162868931Y-89006752D02*
X162868931Y-89340085D01*
X162868931Y-89340085D02*
X162821312Y-89530561D01*
X162821312Y-89530561D02*
X162726074Y-89625800D01*
X162726074Y-89625800D02*
X162630836Y-89673419D01*
X162630836Y-89673419D02*
X162440360Y-89673419D01*
X162440360Y-89673419D02*
X162345122Y-89625800D01*
X162345122Y-89625800D02*
X162249884Y-89530561D01*
X162249884Y-89530561D02*
X162202265Y-89340085D01*
X162202265Y-89340085D02*
X162202265Y-89006752D01*
X162202265Y-89006752D02*
X162249884Y-88816276D01*
X162249884Y-88816276D02*
X162345122Y-88721038D01*
X162345122Y-88721038D02*
X162440360Y-88673419D01*
D11*
X120155333Y-69332819D02*
X119822000Y-68856628D01*
X119583905Y-69332819D02*
X119583905Y-68332819D01*
X119583905Y-68332819D02*
X119964857Y-68332819D01*
X119964857Y-68332819D02*
X120060095Y-68380438D01*
X120060095Y-68380438D02*
X120107714Y-68428057D01*
X120107714Y-68428057D02*
X120155333Y-68523295D01*
X120155333Y-68523295D02*
X120155333Y-68666152D01*
X120155333Y-68666152D02*
X120107714Y-68761390D01*
X120107714Y-68761390D02*
X120060095Y-68809009D01*
X120060095Y-68809009D02*
X119964857Y-68856628D01*
X119964857Y-68856628D02*
X119583905Y-68856628D01*
X121060095Y-68332819D02*
X120583905Y-68332819D01*
X120583905Y-68332819D02*
X120536286Y-68809009D01*
X120536286Y-68809009D02*
X120583905Y-68761390D01*
X120583905Y-68761390D02*
X120679143Y-68713771D01*
X120679143Y-68713771D02*
X120917238Y-68713771D01*
X120917238Y-68713771D02*
X121012476Y-68761390D01*
X121012476Y-68761390D02*
X121060095Y-68809009D01*
X121060095Y-68809009D02*
X121107714Y-68904247D01*
X121107714Y-68904247D02*
X121107714Y-69142342D01*
X121107714Y-69142342D02*
X121060095Y-69237580D01*
X121060095Y-69237580D02*
X121012476Y-69285200D01*
X121012476Y-69285200D02*
X120917238Y-69332819D01*
X120917238Y-69332819D02*
X120679143Y-69332819D01*
X120679143Y-69332819D02*
X120583905Y-69285200D01*
X120583905Y-69285200D02*
X120536286Y-69237580D01*
D12*
X144264318Y-40885332D02*
X145171461Y-40885332D01*
X145171461Y-40885332D02*
X145352889Y-40945809D01*
X145352889Y-40945809D02*
X145473842Y-41066761D01*
X145473842Y-41066761D02*
X145534318Y-41248190D01*
X145534318Y-41248190D02*
X145534318Y-41369142D01*
X145534318Y-39615332D02*
X145534318Y-40341047D01*
X145534318Y-39978190D02*
X144264318Y-39978190D01*
X144264318Y-39978190D02*
X144445746Y-40099142D01*
X144445746Y-40099142D02*
X144566699Y-40220094D01*
X144566699Y-40220094D02*
X144627175Y-40341047D01*
D11*
X135750933Y-36344819D02*
X135417600Y-35868628D01*
X135179505Y-36344819D02*
X135179505Y-35344819D01*
X135179505Y-35344819D02*
X135560457Y-35344819D01*
X135560457Y-35344819D02*
X135655695Y-35392438D01*
X135655695Y-35392438D02*
X135703314Y-35440057D01*
X135703314Y-35440057D02*
X135750933Y-35535295D01*
X135750933Y-35535295D02*
X135750933Y-35678152D01*
X135750933Y-35678152D02*
X135703314Y-35773390D01*
X135703314Y-35773390D02*
X135655695Y-35821009D01*
X135655695Y-35821009D02*
X135560457Y-35868628D01*
X135560457Y-35868628D02*
X135179505Y-35868628D01*
X136703314Y-36344819D02*
X136131886Y-36344819D01*
X136417600Y-36344819D02*
X136417600Y-35344819D01*
X136417600Y-35344819D02*
X136322362Y-35487676D01*
X136322362Y-35487676D02*
X136227124Y-35582914D01*
X136227124Y-35582914D02*
X136131886Y-35630533D01*
X161969905Y-73364819D02*
X161969905Y-72364819D01*
X161969905Y-72364819D02*
X162208000Y-72364819D01*
X162208000Y-72364819D02*
X162350857Y-72412438D01*
X162350857Y-72412438D02*
X162446095Y-72507676D01*
X162446095Y-72507676D02*
X162493714Y-72602914D01*
X162493714Y-72602914D02*
X162541333Y-72793390D01*
X162541333Y-72793390D02*
X162541333Y-72936247D01*
X162541333Y-72936247D02*
X162493714Y-73126723D01*
X162493714Y-73126723D02*
X162446095Y-73221961D01*
X162446095Y-73221961D02*
X162350857Y-73317200D01*
X162350857Y-73317200D02*
X162208000Y-73364819D01*
X162208000Y-73364819D02*
X161969905Y-73364819D01*
X163493714Y-73364819D02*
X162922286Y-73364819D01*
X163208000Y-73364819D02*
X163208000Y-72364819D01*
X163208000Y-72364819D02*
X163112762Y-72507676D01*
X163112762Y-72507676D02*
X163017524Y-72602914D01*
X163017524Y-72602914D02*
X162922286Y-72650533D01*
X161765819Y-80041085D02*
X161765819Y-80612513D01*
X161765819Y-80326799D02*
X160765819Y-80326799D01*
X160765819Y-80326799D02*
X160908676Y-80422037D01*
X160908676Y-80422037D02*
X161003914Y-80517275D01*
X161003914Y-80517275D02*
X161051533Y-80612513D01*
X127711905Y-73364819D02*
X127711905Y-72364819D01*
X127711905Y-72364819D02*
X127950000Y-72364819D01*
X127950000Y-72364819D02*
X128092857Y-72412438D01*
X128092857Y-72412438D02*
X128188095Y-72507676D01*
X128188095Y-72507676D02*
X128235714Y-72602914D01*
X128235714Y-72602914D02*
X128283333Y-72793390D01*
X128283333Y-72793390D02*
X128283333Y-72936247D01*
X128283333Y-72936247D02*
X128235714Y-73126723D01*
X128235714Y-73126723D02*
X128188095Y-73221961D01*
X128188095Y-73221961D02*
X128092857Y-73317200D01*
X128092857Y-73317200D02*
X127950000Y-73364819D01*
X127950000Y-73364819D02*
X127711905Y-73364819D01*
X129235714Y-73364819D02*
X128664286Y-73364819D01*
X128950000Y-73364819D02*
X128950000Y-72364819D01*
X128950000Y-72364819D02*
X128854762Y-72507676D01*
X128854762Y-72507676D02*
X128759524Y-72602914D01*
X128759524Y-72602914D02*
X128664286Y-72650533D01*
X127507819Y-80041085D02*
X127507819Y-80612513D01*
X127507819Y-80326799D02*
X126507819Y-80326799D01*
X126507819Y-80326799D02*
X126650676Y-80422037D01*
X126650676Y-80422037D02*
X126745914Y-80517275D01*
X126745914Y-80517275D02*
X126793533Y-80612513D01*
X127711905Y-50790819D02*
X127711905Y-49790819D01*
X127711905Y-49790819D02*
X127950000Y-49790819D01*
X127950000Y-49790819D02*
X128092857Y-49838438D01*
X128092857Y-49838438D02*
X128188095Y-49933676D01*
X128188095Y-49933676D02*
X128235714Y-50028914D01*
X128235714Y-50028914D02*
X128283333Y-50219390D01*
X128283333Y-50219390D02*
X128283333Y-50362247D01*
X128283333Y-50362247D02*
X128235714Y-50552723D01*
X128235714Y-50552723D02*
X128188095Y-50647961D01*
X128188095Y-50647961D02*
X128092857Y-50743200D01*
X128092857Y-50743200D02*
X127950000Y-50790819D01*
X127950000Y-50790819D02*
X127711905Y-50790819D01*
X129235714Y-50790819D02*
X128664286Y-50790819D01*
X128950000Y-50790819D02*
X128950000Y-49790819D01*
X128950000Y-49790819D02*
X128854762Y-49933676D01*
X128854762Y-49933676D02*
X128759524Y-50028914D01*
X128759524Y-50028914D02*
X128664286Y-50076533D01*
X127507819Y-57467085D02*
X127507819Y-58038513D01*
X127507819Y-57752799D02*
X126507819Y-57752799D01*
X126507819Y-57752799D02*
X126650676Y-57848037D01*
X126650676Y-57848037D02*
X126745914Y-57943275D01*
X126745914Y-57943275D02*
X126793533Y-58038513D01*
X125825057Y-61988238D02*
X125777438Y-62083476D01*
X125777438Y-62083476D02*
X125682200Y-62178714D01*
X125682200Y-62178714D02*
X125539342Y-62321571D01*
X125539342Y-62321571D02*
X125491723Y-62416809D01*
X125491723Y-62416809D02*
X125491723Y-62512047D01*
X125729819Y-62464428D02*
X125682200Y-62559666D01*
X125682200Y-62559666D02*
X125586961Y-62654904D01*
X125586961Y-62654904D02*
X125396485Y-62702523D01*
X125396485Y-62702523D02*
X125063152Y-62702523D01*
X125063152Y-62702523D02*
X124872676Y-62654904D01*
X124872676Y-62654904D02*
X124777438Y-62559666D01*
X124777438Y-62559666D02*
X124729819Y-62464428D01*
X124729819Y-62464428D02*
X124729819Y-62273952D01*
X124729819Y-62273952D02*
X124777438Y-62178714D01*
X124777438Y-62178714D02*
X124872676Y-62083476D01*
X124872676Y-62083476D02*
X125063152Y-62035857D01*
X125063152Y-62035857D02*
X125396485Y-62035857D01*
X125396485Y-62035857D02*
X125586961Y-62083476D01*
X125586961Y-62083476D02*
X125682200Y-62178714D01*
X125682200Y-62178714D02*
X125729819Y-62273952D01*
X125729819Y-62273952D02*
X125729819Y-62464428D01*
X125729819Y-61083476D02*
X125729819Y-61654904D01*
X125729819Y-61369190D02*
X124729819Y-61369190D01*
X124729819Y-61369190D02*
X124872676Y-61464428D01*
X124872676Y-61464428D02*
X124967914Y-61559666D01*
X124967914Y-61559666D02*
X125015533Y-61654904D01*
X137176610Y-66183219D02*
X137176610Y-65183219D01*
X138224228Y-66087980D02*
X138176609Y-66135600D01*
X138176609Y-66135600D02*
X138033752Y-66183219D01*
X138033752Y-66183219D02*
X137938514Y-66183219D01*
X137938514Y-66183219D02*
X137795657Y-66135600D01*
X137795657Y-66135600D02*
X137700419Y-66040361D01*
X137700419Y-66040361D02*
X137652800Y-65945123D01*
X137652800Y-65945123D02*
X137605181Y-65754647D01*
X137605181Y-65754647D02*
X137605181Y-65611790D01*
X137605181Y-65611790D02*
X137652800Y-65421314D01*
X137652800Y-65421314D02*
X137700419Y-65326076D01*
X137700419Y-65326076D02*
X137795657Y-65230838D01*
X137795657Y-65230838D02*
X137938514Y-65183219D01*
X137938514Y-65183219D02*
X138033752Y-65183219D01*
X138033752Y-65183219D02*
X138176609Y-65230838D01*
X138176609Y-65230838D02*
X138224228Y-65278457D01*
X139176609Y-66183219D02*
X138605181Y-66183219D01*
X138890895Y-66183219D02*
X138890895Y-65183219D01*
X138890895Y-65183219D02*
X138795657Y-65326076D01*
X138795657Y-65326076D02*
X138700419Y-65421314D01*
X138700419Y-65421314D02*
X138605181Y-65468933D01*
D13*
%TO.C,D3*%
X138400000Y-80116000D02*
X138400000Y-72816000D01*
X143900000Y-80116000D02*
X143900000Y-72816000D01*
X143900000Y-72816000D02*
X142750000Y-72816000D01*
%TO.C,R5*%
X156865276Y-68101500D02*
X157374724Y-68101500D01*
X156865276Y-69146500D02*
X157374724Y-69146500D01*
%TO.C,R3*%
X156343500Y-34874724D02*
X156343500Y-34365276D01*
X157388500Y-34874724D02*
X157388500Y-34365276D01*
%TO.C,D1*%
X159958000Y-57542000D02*
X159958000Y-50242000D01*
X165458000Y-57542000D02*
X165458000Y-50242000D01*
X165458000Y-50242000D02*
X164308000Y-50242000D01*
%TO.C,D2*%
X166308000Y-34968000D02*
X166308000Y-27668000D01*
X171808000Y-34968000D02*
X171808000Y-27668000D01*
X171808000Y-27668000D02*
X170658000Y-27668000D01*
D14*
%TO.C,IC1*%
X169755000Y-47010000D02*
X169755000Y-45460000D01*
X169910000Y-45110000D02*
X169910000Y-41910000D01*
X174810000Y-45110000D02*
X169910000Y-45110000D01*
X169910000Y-41910000D02*
X174810000Y-41910000D01*
X174810000Y-41910000D02*
X174810000Y-45110000D01*
D13*
%TO.C,R6*%
X158643276Y-36891500D02*
X159152724Y-36891500D01*
X158643276Y-37936500D02*
X159152724Y-37936500D01*
%TO.C,R4*%
X154833276Y-72895500D02*
X155342724Y-72895500D01*
X154833276Y-73940500D02*
X155342724Y-73940500D01*
%TO.C,D3*%
X172658000Y-80116000D02*
X172658000Y-72816000D01*
X178158000Y-80116000D02*
X178158000Y-72816000D01*
X178158000Y-72816000D02*
X177008000Y-72816000D01*
%TO.C,R5*%
X156865276Y-45527500D02*
X157374724Y-45527500D01*
X156865276Y-46572500D02*
X157374724Y-46572500D01*
X122607276Y-90675500D02*
X123116724Y-90675500D01*
X122607276Y-91720500D02*
X123116724Y-91720500D01*
%TO.C,D2*%
X166308000Y-57542000D02*
X166308000Y-50242000D01*
X171808000Y-57542000D02*
X171808000Y-50242000D01*
X171808000Y-50242000D02*
X170658000Y-50242000D01*
%TO.C,D1*%
X125700000Y-34968000D02*
X125700000Y-27668000D01*
X131200000Y-34968000D02*
X131200000Y-27668000D01*
X131200000Y-27668000D02*
X130050000Y-27668000D01*
%TO.C,R6*%
X124385276Y-36891500D02*
X124894724Y-36891500D01*
X124385276Y-37936500D02*
X124894724Y-37936500D01*
%TO.C,D2*%
X166308000Y-80116000D02*
X166308000Y-72816000D01*
X171808000Y-80116000D02*
X171808000Y-72816000D01*
X171808000Y-72816000D02*
X170658000Y-72816000D01*
%TO.C,R4*%
X120575276Y-27747500D02*
X121084724Y-27747500D01*
X120575276Y-28792500D02*
X121084724Y-28792500D01*
%TO.C,Q1*%
X156486000Y-65374000D02*
X156486000Y-62974000D01*
X159786000Y-64774000D02*
X159786000Y-62974000D01*
X156486000Y-62974000D02*
X157536000Y-62974000D01*
X159786000Y-62974000D02*
X158736000Y-62974000D01*
D14*
%TO.C,IC1*%
X169755000Y-92158000D02*
X169755000Y-90608000D01*
X169910000Y-90258000D02*
X169910000Y-87058000D01*
X174810000Y-90258000D02*
X169910000Y-90258000D01*
X169910000Y-87058000D02*
X174810000Y-87058000D01*
X174810000Y-87058000D02*
X174810000Y-90258000D01*
D13*
%TO.C,R4*%
X120575276Y-72895500D02*
X121084724Y-72895500D01*
X120575276Y-73940500D02*
X121084724Y-73940500D01*
%TO.C,J2*%
X107301000Y-53131000D02*
X107301000Y-53891000D01*
X107301000Y-53891000D02*
X113301000Y-53891000D01*
X107301000Y-55671000D02*
X107301000Y-56431000D01*
X107301000Y-56431000D02*
X113301000Y-56431000D01*
X107301000Y-58211000D02*
X107301000Y-58971000D01*
X107301000Y-58971000D02*
X113301000Y-58971000D01*
X107301000Y-60751000D02*
X107301000Y-61511000D01*
X107301000Y-61511000D02*
X113301000Y-61511000D01*
X107301000Y-63291000D02*
X107301000Y-64051000D01*
X107301000Y-64051000D02*
X113301000Y-64051000D01*
X107301000Y-65831000D02*
X107301000Y-66591000D01*
X107301000Y-66591000D02*
X113301000Y-66591000D01*
X113301000Y-52181000D02*
X115961000Y-52181000D01*
X113301000Y-53131000D02*
X107301000Y-53131000D01*
X113301000Y-53191000D02*
X107301000Y-53191000D01*
X113301000Y-53311000D02*
X107301000Y-53311000D01*
X113301000Y-53431000D02*
X107301000Y-53431000D01*
X113301000Y-53551000D02*
X107301000Y-53551000D01*
X113301000Y-53671000D02*
X107301000Y-53671000D01*
X113301000Y-53791000D02*
X107301000Y-53791000D01*
X113301000Y-55671000D02*
X107301000Y-55671000D01*
X113301000Y-58211000D02*
X107301000Y-58211000D01*
X113301000Y-60751000D02*
X107301000Y-60751000D01*
X113301000Y-63291000D02*
X107301000Y-63291000D01*
X113301000Y-65831000D02*
X107301000Y-65831000D01*
X113301000Y-67541000D02*
X113301000Y-52181000D01*
X115961000Y-52181000D02*
X115961000Y-67541000D01*
X115961000Y-54781000D02*
X113301000Y-54781000D01*
X115961000Y-57321000D02*
X113301000Y-57321000D01*
X115961000Y-59861000D02*
X113301000Y-59861000D01*
X115961000Y-62401000D02*
X113301000Y-62401000D01*
X115961000Y-64941000D02*
X113301000Y-64941000D01*
X115961000Y-67541000D02*
X113301000Y-67541000D01*
X116358071Y-53131000D02*
X115961000Y-53131000D01*
X116358071Y-53891000D02*
X115961000Y-53891000D01*
X116358071Y-55671000D02*
X115961000Y-55671000D01*
X116358071Y-56431000D02*
X115961000Y-56431000D01*
X116358071Y-58211000D02*
X115961000Y-58211000D01*
X116358071Y-58971000D02*
X115961000Y-58971000D01*
X116358071Y-60751000D02*
X115961000Y-60751000D01*
X116358071Y-61511000D02*
X115961000Y-61511000D01*
X116358071Y-63291000D02*
X115961000Y-63291000D01*
X116358071Y-64051000D02*
X115961000Y-64051000D01*
X116358071Y-65831000D02*
X115961000Y-65831000D01*
X116358071Y-66591000D02*
X115961000Y-66591000D01*
X118831000Y-53131000D02*
X118443929Y-53131000D01*
X118831000Y-53891000D02*
X118443929Y-53891000D01*
X118898071Y-55671000D02*
X118443929Y-55671000D01*
X118898071Y-56431000D02*
X118443929Y-56431000D01*
X118898071Y-58211000D02*
X118443929Y-58211000D01*
X118898071Y-58971000D02*
X118443929Y-58971000D01*
X118898071Y-60751000D02*
X118443929Y-60751000D01*
X118898071Y-61511000D02*
X118443929Y-61511000D01*
X118898071Y-63291000D02*
X118443929Y-63291000D01*
X118898071Y-64051000D02*
X118443929Y-64051000D01*
X118898071Y-65831000D02*
X118443929Y-65831000D01*
X118898071Y-66591000D02*
X118443929Y-66591000D01*
X121211000Y-52241000D02*
X119941000Y-52241000D01*
X121211000Y-53511000D02*
X121211000Y-52241000D01*
%TO.C,R4*%
X154833276Y-50321500D02*
X155342724Y-50321500D01*
X154833276Y-51366500D02*
X155342724Y-51366500D01*
D14*
%TO.C,IC1*%
X169755000Y-69584000D02*
X169755000Y-68034000D01*
X169910000Y-67684000D02*
X169910000Y-64484000D01*
X174810000Y-67684000D02*
X169910000Y-67684000D01*
X169910000Y-64484000D02*
X174810000Y-64484000D01*
X174810000Y-64484000D02*
X174810000Y-67684000D01*
%TO.C,J1*%
X175818000Y-43002000D02*
X179218000Y-43002000D01*
X181568000Y-40462000D02*
X181568000Y-35602000D01*
X175818000Y-35602000D02*
X175818000Y-43002000D01*
X181568000Y-35602000D02*
X175818000Y-35602000D01*
D13*
%TO.C,J2*%
X141559000Y-30557000D02*
X141559000Y-31317000D01*
X141559000Y-31317000D02*
X147559000Y-31317000D01*
X141559000Y-33097000D02*
X141559000Y-33857000D01*
X141559000Y-33857000D02*
X147559000Y-33857000D01*
X141559000Y-35637000D02*
X141559000Y-36397000D01*
X141559000Y-36397000D02*
X147559000Y-36397000D01*
X141559000Y-38177000D02*
X141559000Y-38937000D01*
X141559000Y-38937000D02*
X147559000Y-38937000D01*
X141559000Y-40717000D02*
X141559000Y-41477000D01*
X141559000Y-41477000D02*
X147559000Y-41477000D01*
X141559000Y-43257000D02*
X141559000Y-44017000D01*
X141559000Y-44017000D02*
X147559000Y-44017000D01*
X147559000Y-29607000D02*
X150219000Y-29607000D01*
X147559000Y-30557000D02*
X141559000Y-30557000D01*
X147559000Y-30617000D02*
X141559000Y-30617000D01*
X147559000Y-30737000D02*
X141559000Y-30737000D01*
X147559000Y-30857000D02*
X141559000Y-30857000D01*
X147559000Y-30977000D02*
X141559000Y-30977000D01*
X147559000Y-31097000D02*
X141559000Y-31097000D01*
X147559000Y-31217000D02*
X141559000Y-31217000D01*
X147559000Y-33097000D02*
X141559000Y-33097000D01*
X147559000Y-35637000D02*
X141559000Y-35637000D01*
X147559000Y-38177000D02*
X141559000Y-38177000D01*
X147559000Y-40717000D02*
X141559000Y-40717000D01*
X147559000Y-43257000D02*
X141559000Y-43257000D01*
X147559000Y-44967000D02*
X147559000Y-29607000D01*
X150219000Y-29607000D02*
X150219000Y-44967000D01*
X150219000Y-32207000D02*
X147559000Y-32207000D01*
X150219000Y-34747000D02*
X147559000Y-34747000D01*
X150219000Y-37287000D02*
X147559000Y-37287000D01*
X150219000Y-39827000D02*
X147559000Y-39827000D01*
X150219000Y-42367000D02*
X147559000Y-42367000D01*
X150219000Y-44967000D02*
X147559000Y-44967000D01*
X150616071Y-30557000D02*
X150219000Y-30557000D01*
X150616071Y-31317000D02*
X150219000Y-31317000D01*
X150616071Y-33097000D02*
X150219000Y-33097000D01*
X150616071Y-33857000D02*
X150219000Y-33857000D01*
X150616071Y-35637000D02*
X150219000Y-35637000D01*
X150616071Y-36397000D02*
X150219000Y-36397000D01*
X150616071Y-38177000D02*
X150219000Y-38177000D01*
X150616071Y-38937000D02*
X150219000Y-38937000D01*
X150616071Y-40717000D02*
X150219000Y-40717000D01*
X150616071Y-41477000D02*
X150219000Y-41477000D01*
X150616071Y-43257000D02*
X150219000Y-43257000D01*
X150616071Y-44017000D02*
X150219000Y-44017000D01*
X153089000Y-30557000D02*
X152701929Y-30557000D01*
X153089000Y-31317000D02*
X152701929Y-31317000D01*
X153156071Y-33097000D02*
X152701929Y-33097000D01*
X153156071Y-33857000D02*
X152701929Y-33857000D01*
X153156071Y-35637000D02*
X152701929Y-35637000D01*
X153156071Y-36397000D02*
X152701929Y-36397000D01*
X153156071Y-38177000D02*
X152701929Y-38177000D01*
X153156071Y-38937000D02*
X152701929Y-38937000D01*
X153156071Y-40717000D02*
X152701929Y-40717000D01*
X153156071Y-41477000D02*
X152701929Y-41477000D01*
X153156071Y-43257000D02*
X152701929Y-43257000D01*
X153156071Y-44017000D02*
X152701929Y-44017000D01*
X155469000Y-29667000D02*
X154199000Y-29667000D01*
X155469000Y-30937000D02*
X155469000Y-29667000D01*
%TO.C,Q1*%
X122228000Y-42800000D02*
X122228000Y-40400000D01*
X125528000Y-42200000D02*
X125528000Y-40400000D01*
X122228000Y-40400000D02*
X123278000Y-40400000D01*
X125528000Y-40400000D02*
X124478000Y-40400000D01*
%TO.C,R4*%
X120575276Y-50321500D02*
X121084724Y-50321500D01*
X120575276Y-51366500D02*
X121084724Y-51366500D01*
%TO.C,J2*%
X107301000Y-75705000D02*
X107301000Y-76465000D01*
X107301000Y-76465000D02*
X113301000Y-76465000D01*
X107301000Y-78245000D02*
X107301000Y-79005000D01*
X107301000Y-79005000D02*
X113301000Y-79005000D01*
X107301000Y-80785000D02*
X107301000Y-81545000D01*
X107301000Y-81545000D02*
X113301000Y-81545000D01*
X107301000Y-83325000D02*
X107301000Y-84085000D01*
X107301000Y-84085000D02*
X113301000Y-84085000D01*
X107301000Y-85865000D02*
X107301000Y-86625000D01*
X107301000Y-86625000D02*
X113301000Y-86625000D01*
X107301000Y-88405000D02*
X107301000Y-89165000D01*
X107301000Y-89165000D02*
X113301000Y-89165000D01*
X113301000Y-74755000D02*
X115961000Y-74755000D01*
X113301000Y-75705000D02*
X107301000Y-75705000D01*
X113301000Y-75765000D02*
X107301000Y-75765000D01*
X113301000Y-75885000D02*
X107301000Y-75885000D01*
X113301000Y-76005000D02*
X107301000Y-76005000D01*
X113301000Y-76125000D02*
X107301000Y-76125000D01*
X113301000Y-76245000D02*
X107301000Y-76245000D01*
X113301000Y-76365000D02*
X107301000Y-76365000D01*
X113301000Y-78245000D02*
X107301000Y-78245000D01*
X113301000Y-80785000D02*
X107301000Y-80785000D01*
X113301000Y-83325000D02*
X107301000Y-83325000D01*
X113301000Y-85865000D02*
X107301000Y-85865000D01*
X113301000Y-88405000D02*
X107301000Y-88405000D01*
X113301000Y-90115000D02*
X113301000Y-74755000D01*
X115961000Y-74755000D02*
X115961000Y-90115000D01*
X115961000Y-77355000D02*
X113301000Y-77355000D01*
X115961000Y-79895000D02*
X113301000Y-79895000D01*
X115961000Y-82435000D02*
X113301000Y-82435000D01*
X115961000Y-84975000D02*
X113301000Y-84975000D01*
X115961000Y-87515000D02*
X113301000Y-87515000D01*
X115961000Y-90115000D02*
X113301000Y-90115000D01*
X116358071Y-75705000D02*
X115961000Y-75705000D01*
X116358071Y-76465000D02*
X115961000Y-76465000D01*
X116358071Y-78245000D02*
X115961000Y-78245000D01*
X116358071Y-79005000D02*
X115961000Y-79005000D01*
X116358071Y-80785000D02*
X115961000Y-80785000D01*
X116358071Y-81545000D02*
X115961000Y-81545000D01*
X116358071Y-83325000D02*
X115961000Y-83325000D01*
X116358071Y-84085000D02*
X115961000Y-84085000D01*
X116358071Y-85865000D02*
X115961000Y-85865000D01*
X116358071Y-86625000D02*
X115961000Y-86625000D01*
X116358071Y-88405000D02*
X115961000Y-88405000D01*
X116358071Y-89165000D02*
X115961000Y-89165000D01*
X118831000Y-75705000D02*
X118443929Y-75705000D01*
X118831000Y-76465000D02*
X118443929Y-76465000D01*
X118898071Y-78245000D02*
X118443929Y-78245000D01*
X118898071Y-79005000D02*
X118443929Y-79005000D01*
X118898071Y-80785000D02*
X118443929Y-80785000D01*
X118898071Y-81545000D02*
X118443929Y-81545000D01*
X118898071Y-83325000D02*
X118443929Y-83325000D01*
X118898071Y-84085000D02*
X118443929Y-84085000D01*
X118898071Y-85865000D02*
X118443929Y-85865000D01*
X118898071Y-86625000D02*
X118443929Y-86625000D01*
X118898071Y-88405000D02*
X118443929Y-88405000D01*
X118898071Y-89165000D02*
X118443929Y-89165000D01*
X121211000Y-74815000D02*
X119941000Y-74815000D01*
X121211000Y-76085000D02*
X121211000Y-74815000D01*
%TO.C,IC2*%
X126806000Y-92147000D02*
X134666000Y-92147000D01*
X134666000Y-92147000D02*
X134666000Y-81867000D01*
X134606000Y-89657000D02*
X134606000Y-84357000D01*
X126806000Y-81867000D02*
X126806000Y-92147000D01*
X134666000Y-81867000D02*
X126806000Y-81867000D01*
X126866000Y-88007000D02*
G75*
G03*
X126866000Y-86007000I0J1000000D01*
G01*
%TO.C,R3*%
X122085500Y-80022724D02*
X122085500Y-79513276D01*
X123130500Y-80022724D02*
X123130500Y-79513276D01*
%TO.C,R2*%
X157476776Y-75435500D02*
X157986224Y-75435500D01*
X157476776Y-76480500D02*
X157986224Y-76480500D01*
%TO.C,D3*%
X172658000Y-57542000D02*
X172658000Y-50242000D01*
X178158000Y-57542000D02*
X178158000Y-50242000D01*
X178158000Y-50242000D02*
X177008000Y-50242000D01*
%TO.C,C1*%
X177078267Y-67356000D02*
X176785733Y-67356000D01*
X177078267Y-66336000D02*
X176785733Y-66336000D01*
%TO.C,R4*%
X154833276Y-27747500D02*
X155342724Y-27747500D01*
X154833276Y-28792500D02*
X155342724Y-28792500D01*
%TO.C,R6*%
X124385276Y-82039500D02*
X124894724Y-82039500D01*
X124385276Y-83084500D02*
X124894724Y-83084500D01*
D14*
%TO.C,J1*%
X141560000Y-88150000D02*
X144960000Y-88150000D01*
X147310000Y-85610000D02*
X147310000Y-80750000D01*
X141560000Y-80750000D02*
X141560000Y-88150000D01*
X147310000Y-80750000D02*
X141560000Y-80750000D01*
D13*
%TO.C,J2*%
X141559000Y-53131000D02*
X141559000Y-53891000D01*
X141559000Y-53891000D02*
X147559000Y-53891000D01*
X141559000Y-55671000D02*
X141559000Y-56431000D01*
X141559000Y-56431000D02*
X147559000Y-56431000D01*
X141559000Y-58211000D02*
X141559000Y-58971000D01*
X141559000Y-58971000D02*
X147559000Y-58971000D01*
X141559000Y-60751000D02*
X141559000Y-61511000D01*
X141559000Y-61511000D02*
X147559000Y-61511000D01*
X141559000Y-63291000D02*
X141559000Y-64051000D01*
X141559000Y-64051000D02*
X147559000Y-64051000D01*
X141559000Y-65831000D02*
X141559000Y-66591000D01*
X141559000Y-66591000D02*
X147559000Y-66591000D01*
X147559000Y-52181000D02*
X150219000Y-52181000D01*
X147559000Y-53131000D02*
X141559000Y-53131000D01*
X147559000Y-53191000D02*
X141559000Y-53191000D01*
X147559000Y-53311000D02*
X141559000Y-53311000D01*
X147559000Y-53431000D02*
X141559000Y-53431000D01*
X147559000Y-53551000D02*
X141559000Y-53551000D01*
X147559000Y-53671000D02*
X141559000Y-53671000D01*
X147559000Y-53791000D02*
X141559000Y-53791000D01*
X147559000Y-55671000D02*
X141559000Y-55671000D01*
X147559000Y-58211000D02*
X141559000Y-58211000D01*
X147559000Y-60751000D02*
X141559000Y-60751000D01*
X147559000Y-63291000D02*
X141559000Y-63291000D01*
X147559000Y-65831000D02*
X141559000Y-65831000D01*
X147559000Y-67541000D02*
X147559000Y-52181000D01*
X150219000Y-52181000D02*
X150219000Y-67541000D01*
X150219000Y-54781000D02*
X147559000Y-54781000D01*
X150219000Y-57321000D02*
X147559000Y-57321000D01*
X150219000Y-59861000D02*
X147559000Y-59861000D01*
X150219000Y-62401000D02*
X147559000Y-62401000D01*
X150219000Y-64941000D02*
X147559000Y-64941000D01*
X150219000Y-67541000D02*
X147559000Y-67541000D01*
X150616071Y-53131000D02*
X150219000Y-53131000D01*
X150616071Y-53891000D02*
X150219000Y-53891000D01*
X150616071Y-55671000D02*
X150219000Y-55671000D01*
X150616071Y-56431000D02*
X150219000Y-56431000D01*
X150616071Y-58211000D02*
X150219000Y-58211000D01*
X150616071Y-58971000D02*
X150219000Y-58971000D01*
X150616071Y-60751000D02*
X150219000Y-60751000D01*
X150616071Y-61511000D02*
X150219000Y-61511000D01*
X150616071Y-63291000D02*
X150219000Y-63291000D01*
X150616071Y-64051000D02*
X150219000Y-64051000D01*
X150616071Y-65831000D02*
X150219000Y-65831000D01*
X150616071Y-66591000D02*
X150219000Y-66591000D01*
X153089000Y-53131000D02*
X152701929Y-53131000D01*
X153089000Y-53891000D02*
X152701929Y-53891000D01*
X153156071Y-55671000D02*
X152701929Y-55671000D01*
X153156071Y-56431000D02*
X152701929Y-56431000D01*
X153156071Y-58211000D02*
X152701929Y-58211000D01*
X153156071Y-58971000D02*
X152701929Y-58971000D01*
X153156071Y-60751000D02*
X152701929Y-60751000D01*
X153156071Y-61511000D02*
X152701929Y-61511000D01*
X153156071Y-63291000D02*
X152701929Y-63291000D01*
X153156071Y-64051000D02*
X152701929Y-64051000D01*
X153156071Y-65831000D02*
X152701929Y-65831000D01*
X153156071Y-66591000D02*
X152701929Y-66591000D01*
X155469000Y-52241000D02*
X154199000Y-52241000D01*
X155469000Y-53511000D02*
X155469000Y-52241000D01*
%TO.C,IC2*%
X126806000Y-69573000D02*
X134666000Y-69573000D01*
X134666000Y-69573000D02*
X134666000Y-59293000D01*
X134606000Y-67083000D02*
X134606000Y-61783000D01*
X126806000Y-59293000D02*
X126806000Y-69573000D01*
X134666000Y-59293000D02*
X126806000Y-59293000D01*
X126866000Y-65433000D02*
G75*
G03*
X126866000Y-63433000I0J1000000D01*
G01*
%TO.C,R5*%
X156865276Y-90675500D02*
X157374724Y-90675500D01*
X156865276Y-91720500D02*
X157374724Y-91720500D01*
%TO.C,J2*%
X141559000Y-75705000D02*
X141559000Y-76465000D01*
X141559000Y-76465000D02*
X147559000Y-76465000D01*
X141559000Y-78245000D02*
X141559000Y-79005000D01*
X141559000Y-79005000D02*
X147559000Y-79005000D01*
X141559000Y-80785000D02*
X141559000Y-81545000D01*
X141559000Y-81545000D02*
X147559000Y-81545000D01*
X141559000Y-83325000D02*
X141559000Y-84085000D01*
X141559000Y-84085000D02*
X147559000Y-84085000D01*
X141559000Y-85865000D02*
X141559000Y-86625000D01*
X141559000Y-86625000D02*
X147559000Y-86625000D01*
X141559000Y-88405000D02*
X141559000Y-89165000D01*
X141559000Y-89165000D02*
X147559000Y-89165000D01*
X147559000Y-74755000D02*
X150219000Y-74755000D01*
X147559000Y-75705000D02*
X141559000Y-75705000D01*
X147559000Y-75765000D02*
X141559000Y-75765000D01*
X147559000Y-75885000D02*
X141559000Y-75885000D01*
X147559000Y-76005000D02*
X141559000Y-76005000D01*
X147559000Y-76125000D02*
X141559000Y-76125000D01*
X147559000Y-76245000D02*
X141559000Y-76245000D01*
X147559000Y-76365000D02*
X141559000Y-76365000D01*
X147559000Y-78245000D02*
X141559000Y-78245000D01*
X147559000Y-80785000D02*
X141559000Y-80785000D01*
X147559000Y-83325000D02*
X141559000Y-83325000D01*
X147559000Y-85865000D02*
X141559000Y-85865000D01*
X147559000Y-88405000D02*
X141559000Y-88405000D01*
X147559000Y-90115000D02*
X147559000Y-74755000D01*
X150219000Y-74755000D02*
X150219000Y-90115000D01*
X150219000Y-77355000D02*
X147559000Y-77355000D01*
X150219000Y-79895000D02*
X147559000Y-79895000D01*
X150219000Y-82435000D02*
X147559000Y-82435000D01*
X150219000Y-84975000D02*
X147559000Y-84975000D01*
X150219000Y-87515000D02*
X147559000Y-87515000D01*
X150219000Y-90115000D02*
X147559000Y-90115000D01*
X150616071Y-75705000D02*
X150219000Y-75705000D01*
X150616071Y-76465000D02*
X150219000Y-76465000D01*
X150616071Y-78245000D02*
X150219000Y-78245000D01*
X150616071Y-79005000D02*
X150219000Y-79005000D01*
X150616071Y-80785000D02*
X150219000Y-80785000D01*
X150616071Y-81545000D02*
X150219000Y-81545000D01*
X150616071Y-83325000D02*
X150219000Y-83325000D01*
X150616071Y-84085000D02*
X150219000Y-84085000D01*
X150616071Y-85865000D02*
X150219000Y-85865000D01*
X150616071Y-86625000D02*
X150219000Y-86625000D01*
X150616071Y-88405000D02*
X150219000Y-88405000D01*
X150616071Y-89165000D02*
X150219000Y-89165000D01*
X153089000Y-75705000D02*
X152701929Y-75705000D01*
X153089000Y-76465000D02*
X152701929Y-76465000D01*
X153156071Y-78245000D02*
X152701929Y-78245000D01*
X153156071Y-79005000D02*
X152701929Y-79005000D01*
X153156071Y-80785000D02*
X152701929Y-80785000D01*
X153156071Y-81545000D02*
X152701929Y-81545000D01*
X153156071Y-83325000D02*
X152701929Y-83325000D01*
X153156071Y-84085000D02*
X152701929Y-84085000D01*
X153156071Y-85865000D02*
X152701929Y-85865000D01*
X153156071Y-86625000D02*
X152701929Y-86625000D01*
X153156071Y-88405000D02*
X152701929Y-88405000D01*
X153156071Y-89165000D02*
X152701929Y-89165000D01*
X155469000Y-74815000D02*
X154199000Y-74815000D01*
X155469000Y-76085000D02*
X155469000Y-74815000D01*
%TO.C,C1*%
X177078267Y-89930000D02*
X176785733Y-89930000D01*
X177078267Y-88910000D02*
X176785733Y-88910000D01*
%TO.C,R5*%
X122607276Y-45527500D02*
X123116724Y-45527500D01*
X122607276Y-46572500D02*
X123116724Y-46572500D01*
%TO.C,IC2*%
X126806000Y-46999000D02*
X134666000Y-46999000D01*
X134666000Y-46999000D02*
X134666000Y-36719000D01*
X134606000Y-44509000D02*
X134606000Y-39209000D01*
X126806000Y-36719000D02*
X126806000Y-46999000D01*
X134666000Y-36719000D02*
X126806000Y-36719000D01*
X126866000Y-42859000D02*
G75*
G03*
X126866000Y-40859000I0J1000000D01*
G01*
%TO.C,R2*%
X123218776Y-52861500D02*
X123728224Y-52861500D01*
X123218776Y-53906500D02*
X123728224Y-53906500D01*
%TO.C,D2*%
X132050000Y-57542000D02*
X132050000Y-50242000D01*
X137550000Y-57542000D02*
X137550000Y-50242000D01*
X137550000Y-50242000D02*
X136400000Y-50242000D01*
%TO.C,R3*%
X122085500Y-34874724D02*
X122085500Y-34365276D01*
X123130500Y-34874724D02*
X123130500Y-34365276D01*
%TO.C,Q1*%
X156486000Y-87948000D02*
X156486000Y-85548000D01*
X159786000Y-87348000D02*
X159786000Y-85548000D01*
X156486000Y-85548000D02*
X157536000Y-85548000D01*
X159786000Y-85548000D02*
X158736000Y-85548000D01*
%TO.C,IC2*%
X161064000Y-46999000D02*
X168924000Y-46999000D01*
X168924000Y-46999000D02*
X168924000Y-36719000D01*
X168864000Y-44509000D02*
X168864000Y-39209000D01*
X161064000Y-36719000D02*
X161064000Y-46999000D01*
X168924000Y-36719000D02*
X161064000Y-36719000D01*
X161124000Y-42859000D02*
G75*
G03*
X161124000Y-40859000I0J1000000D01*
G01*
%TO.C,D1*%
X159958000Y-34968000D02*
X159958000Y-27668000D01*
X165458000Y-34968000D02*
X165458000Y-27668000D01*
X165458000Y-27668000D02*
X164308000Y-27668000D01*
%TO.C,R3*%
X156343500Y-80022724D02*
X156343500Y-79513276D01*
X157388500Y-80022724D02*
X157388500Y-79513276D01*
%TO.C,D3*%
X172658000Y-34968000D02*
X172658000Y-27668000D01*
X178158000Y-34968000D02*
X178158000Y-27668000D01*
X178158000Y-27668000D02*
X177008000Y-27668000D01*
%TO.C,R6*%
X158643276Y-82039500D02*
X159152724Y-82039500D01*
X158643276Y-83084500D02*
X159152724Y-83084500D01*
%TO.C,R3*%
X156343500Y-57448724D02*
X156343500Y-56939276D01*
X157388500Y-57448724D02*
X157388500Y-56939276D01*
%TO.C,IC2*%
X161064000Y-69573000D02*
X168924000Y-69573000D01*
X168924000Y-69573000D02*
X168924000Y-59293000D01*
X168864000Y-67083000D02*
X168864000Y-61783000D01*
X161064000Y-59293000D02*
X161064000Y-69573000D01*
X168924000Y-59293000D02*
X161064000Y-59293000D01*
X161124000Y-65433000D02*
G75*
G03*
X161124000Y-63433000I0J1000000D01*
G01*
%TO.C,Q1*%
X156486000Y-42800000D02*
X156486000Y-40400000D01*
X159786000Y-42200000D02*
X159786000Y-40400000D01*
X156486000Y-40400000D02*
X157536000Y-40400000D01*
X159786000Y-40400000D02*
X158736000Y-40400000D01*
%TO.C,C1*%
X142820267Y-89930000D02*
X142527733Y-89930000D01*
X142820267Y-88910000D02*
X142527733Y-88910000D01*
%TO.C,R2*%
X123218776Y-30287500D02*
X123728224Y-30287500D01*
X123218776Y-31332500D02*
X123728224Y-31332500D01*
X157476776Y-30287500D02*
X157986224Y-30287500D01*
X157476776Y-31332500D02*
X157986224Y-31332500D01*
%TO.C,R6*%
X158643276Y-59465500D02*
X159152724Y-59465500D01*
X158643276Y-60510500D02*
X159152724Y-60510500D01*
D14*
%TO.C,IC1*%
X135497000Y-92158000D02*
X135497000Y-90608000D01*
X135652000Y-90258000D02*
X135652000Y-87058000D01*
X140552000Y-90258000D02*
X135652000Y-90258000D01*
X135652000Y-87058000D02*
X140552000Y-87058000D01*
X140552000Y-87058000D02*
X140552000Y-90258000D01*
D13*
%TO.C,C1*%
X142820267Y-44782000D02*
X142527733Y-44782000D01*
X142820267Y-43762000D02*
X142527733Y-43762000D01*
%TO.C,Q1*%
X122228000Y-87948000D02*
X122228000Y-85548000D01*
X125528000Y-87348000D02*
X125528000Y-85548000D01*
X122228000Y-85548000D02*
X123278000Y-85548000D01*
X125528000Y-85548000D02*
X124478000Y-85548000D01*
%TO.C,R2*%
X123218776Y-75435500D02*
X123728224Y-75435500D01*
X123218776Y-76480500D02*
X123728224Y-76480500D01*
%TO.C,D2*%
X132050000Y-34968000D02*
X132050000Y-27668000D01*
X137550000Y-34968000D02*
X137550000Y-27668000D01*
X137550000Y-27668000D02*
X136400000Y-27668000D01*
D14*
%TO.C,J1*%
X175818000Y-88150000D02*
X179218000Y-88150000D01*
X181568000Y-85610000D02*
X181568000Y-80750000D01*
X175818000Y-80750000D02*
X175818000Y-88150000D01*
X181568000Y-80750000D02*
X175818000Y-80750000D01*
X141560000Y-65576000D02*
X144960000Y-65576000D01*
X147310000Y-63036000D02*
X147310000Y-58176000D01*
X141560000Y-58176000D02*
X141560000Y-65576000D01*
X147310000Y-58176000D02*
X141560000Y-58176000D01*
D13*
%TO.C,R6*%
X124385276Y-59465500D02*
X124894724Y-59465500D01*
X124385276Y-60510500D02*
X124894724Y-60510500D01*
%TO.C,R2*%
X157476776Y-52861500D02*
X157986224Y-52861500D01*
X157476776Y-53906500D02*
X157986224Y-53906500D01*
%TO.C,R3*%
X122085500Y-57448724D02*
X122085500Y-56939276D01*
X123130500Y-57448724D02*
X123130500Y-56939276D01*
%TO.C,J2*%
X107301000Y-30557000D02*
X107301000Y-31317000D01*
X107301000Y-31317000D02*
X113301000Y-31317000D01*
X107301000Y-33097000D02*
X107301000Y-33857000D01*
X107301000Y-33857000D02*
X113301000Y-33857000D01*
X107301000Y-35637000D02*
X107301000Y-36397000D01*
X107301000Y-36397000D02*
X113301000Y-36397000D01*
X107301000Y-38177000D02*
X107301000Y-38937000D01*
X107301000Y-38937000D02*
X113301000Y-38937000D01*
X107301000Y-40717000D02*
X107301000Y-41477000D01*
X107301000Y-41477000D02*
X113301000Y-41477000D01*
X107301000Y-43257000D02*
X107301000Y-44017000D01*
X107301000Y-44017000D02*
X113301000Y-44017000D01*
X113301000Y-29607000D02*
X115961000Y-29607000D01*
X113301000Y-30557000D02*
X107301000Y-30557000D01*
X113301000Y-30617000D02*
X107301000Y-30617000D01*
X113301000Y-30737000D02*
X107301000Y-30737000D01*
X113301000Y-30857000D02*
X107301000Y-30857000D01*
X113301000Y-30977000D02*
X107301000Y-30977000D01*
X113301000Y-31097000D02*
X107301000Y-31097000D01*
X113301000Y-31217000D02*
X107301000Y-31217000D01*
X113301000Y-33097000D02*
X107301000Y-33097000D01*
X113301000Y-35637000D02*
X107301000Y-35637000D01*
X113301000Y-38177000D02*
X107301000Y-38177000D01*
X113301000Y-40717000D02*
X107301000Y-40717000D01*
X113301000Y-43257000D02*
X107301000Y-43257000D01*
X113301000Y-44967000D02*
X113301000Y-29607000D01*
X115961000Y-29607000D02*
X115961000Y-44967000D01*
X115961000Y-32207000D02*
X113301000Y-32207000D01*
X115961000Y-34747000D02*
X113301000Y-34747000D01*
X115961000Y-37287000D02*
X113301000Y-37287000D01*
X115961000Y-39827000D02*
X113301000Y-39827000D01*
X115961000Y-42367000D02*
X113301000Y-42367000D01*
X115961000Y-44967000D02*
X113301000Y-44967000D01*
X116358071Y-30557000D02*
X115961000Y-30557000D01*
X116358071Y-31317000D02*
X115961000Y-31317000D01*
X116358071Y-33097000D02*
X115961000Y-33097000D01*
X116358071Y-33857000D02*
X115961000Y-33857000D01*
X116358071Y-35637000D02*
X115961000Y-35637000D01*
X116358071Y-36397000D02*
X115961000Y-36397000D01*
X116358071Y-38177000D02*
X115961000Y-38177000D01*
X116358071Y-38937000D02*
X115961000Y-38937000D01*
X116358071Y-40717000D02*
X115961000Y-40717000D01*
X116358071Y-41477000D02*
X115961000Y-41477000D01*
X116358071Y-43257000D02*
X115961000Y-43257000D01*
X116358071Y-44017000D02*
X115961000Y-44017000D01*
X118831000Y-30557000D02*
X118443929Y-30557000D01*
X118831000Y-31317000D02*
X118443929Y-31317000D01*
X118898071Y-33097000D02*
X118443929Y-33097000D01*
X118898071Y-33857000D02*
X118443929Y-33857000D01*
X118898071Y-35637000D02*
X118443929Y-35637000D01*
X118898071Y-36397000D02*
X118443929Y-36397000D01*
X118898071Y-38177000D02*
X118443929Y-38177000D01*
X118898071Y-38937000D02*
X118443929Y-38937000D01*
X118898071Y-40717000D02*
X118443929Y-40717000D01*
X118898071Y-41477000D02*
X118443929Y-41477000D01*
X118898071Y-43257000D02*
X118443929Y-43257000D01*
X118898071Y-44017000D02*
X118443929Y-44017000D01*
X121211000Y-29667000D02*
X119941000Y-29667000D01*
X121211000Y-30937000D02*
X121211000Y-29667000D01*
%TO.C,C1*%
X177078267Y-44782000D02*
X176785733Y-44782000D01*
X177078267Y-43762000D02*
X176785733Y-43762000D01*
D14*
%TO.C,J1*%
X175818000Y-65576000D02*
X179218000Y-65576000D01*
X181568000Y-63036000D02*
X181568000Y-58176000D01*
X175818000Y-58176000D02*
X175818000Y-65576000D01*
X181568000Y-58176000D02*
X175818000Y-58176000D01*
D13*
%TO.C,D2*%
X132050000Y-80116000D02*
X132050000Y-72816000D01*
X137550000Y-80116000D02*
X137550000Y-72816000D01*
X137550000Y-72816000D02*
X136400000Y-72816000D01*
%TO.C,D3*%
X138400000Y-34968000D02*
X138400000Y-27668000D01*
X143900000Y-34968000D02*
X143900000Y-27668000D01*
X143900000Y-27668000D02*
X142750000Y-27668000D01*
D14*
%TO.C,IC1*%
X135497000Y-47010000D02*
X135497000Y-45460000D01*
X135652000Y-45110000D02*
X135652000Y-41910000D01*
X140552000Y-45110000D02*
X135652000Y-45110000D01*
X135652000Y-41910000D02*
X140552000Y-41910000D01*
X140552000Y-41910000D02*
X140552000Y-45110000D01*
D13*
%TO.C,C1*%
X142820267Y-67356000D02*
X142527733Y-67356000D01*
X142820267Y-66336000D02*
X142527733Y-66336000D01*
%TO.C,D3*%
X138400000Y-57542000D02*
X138400000Y-50242000D01*
X143900000Y-57542000D02*
X143900000Y-50242000D01*
X143900000Y-50242000D02*
X142750000Y-50242000D01*
%TO.C,IC2*%
X161064000Y-92147000D02*
X168924000Y-92147000D01*
X168924000Y-92147000D02*
X168924000Y-81867000D01*
X168864000Y-89657000D02*
X168864000Y-84357000D01*
X161064000Y-81867000D02*
X161064000Y-92147000D01*
X168924000Y-81867000D02*
X161064000Y-81867000D01*
X161124000Y-88007000D02*
G75*
G03*
X161124000Y-86007000I0J1000000D01*
G01*
%TO.C,R5*%
X122607276Y-68101500D02*
X123116724Y-68101500D01*
X122607276Y-69146500D02*
X123116724Y-69146500D01*
D14*
%TO.C,J1*%
X141560000Y-43002000D02*
X144960000Y-43002000D01*
X147310000Y-40462000D02*
X147310000Y-35602000D01*
X141560000Y-35602000D02*
X141560000Y-43002000D01*
X147310000Y-35602000D02*
X141560000Y-35602000D01*
D13*
%TO.C,D1*%
X159958000Y-80116000D02*
X159958000Y-72816000D01*
X165458000Y-80116000D02*
X165458000Y-72816000D01*
X165458000Y-72816000D02*
X164308000Y-72816000D01*
X125700000Y-80116000D02*
X125700000Y-72816000D01*
X131200000Y-80116000D02*
X131200000Y-72816000D01*
X131200000Y-72816000D02*
X130050000Y-72816000D01*
X125700000Y-57542000D02*
X125700000Y-50242000D01*
X131200000Y-57542000D02*
X131200000Y-50242000D01*
X131200000Y-50242000D02*
X130050000Y-50242000D01*
%TO.C,Q1*%
X122228000Y-65374000D02*
X122228000Y-62974000D01*
X125528000Y-64774000D02*
X125528000Y-62974000D01*
X122228000Y-62974000D02*
X123278000Y-62974000D01*
X125528000Y-62974000D02*
X124478000Y-62974000D01*
D14*
%TO.C,IC1*%
X135497000Y-69584000D02*
X135497000Y-68034000D01*
X135652000Y-67684000D02*
X135652000Y-64484000D01*
X140552000Y-67684000D02*
X135652000Y-67684000D01*
X135652000Y-64484000D02*
X140552000Y-64484000D01*
X140552000Y-64484000D02*
X140552000Y-67684000D01*
%TD*%
M02*
