%TF.GenerationSoftware,KiCad,Pcbnew,7.0.9*%
%TF.CreationDate,2024-01-17T02:03:21+09:00*%
%TF.ProjectId,kikit,6b696b69-742e-46b6-9963-61645f706362,rev?*%
%TF.SameCoordinates,Original*%
%TF.FileFunction,Profile,NP*%
%FSLAX46Y46*%
G04 Gerber Fmt 4.6, Leading zero omitted, Abs format (unit mm)*
G04 Created by KiCad (PCBNEW 7.0.9) date 2024-01-17 02:03:21*
%MOMM*%
%LPD*%
G01*
G04 APERTURE LIST*
%TA.AperFunction,Profile*%
%ADD10C,0.100000*%
%TD*%
G04 APERTURE END LIST*
D10*
X128871000Y-72148000D02*
X115242000Y-72148000D01*
X149500000Y-49574000D02*
X149500000Y-57361000D01*
X109706466Y-21464466D02*
X109376947Y-21828033D01*
X113242000Y-57361000D02*
X113242000Y-39787000D01*
X183758000Y-57361000D02*
X181758000Y-57361000D01*
X133871000Y-25000000D02*
X163129000Y-25000000D01*
X128871000Y-92722000D02*
X128871000Y-94722000D01*
X181758000Y-30048000D02*
X178710000Y-27000000D01*
X109084651Y-22222148D02*
X108832393Y-22643016D01*
X128871000Y-71148000D02*
X128871000Y-72148000D01*
X168129000Y-71148000D02*
X168129000Y-70148000D01*
X183758000Y-62361000D02*
X183758000Y-79935000D01*
X115242000Y-57361000D02*
X113242000Y-57361000D01*
X128871000Y-27000000D02*
X128871000Y-27000000D01*
X133871000Y-70148000D02*
X133871000Y-70148000D01*
X115242000Y-62361000D02*
X115242000Y-70148000D01*
X168129000Y-94722000D02*
X168129000Y-92722000D01*
X184248085Y-99697923D02*
X184733451Y-99625926D01*
X113242000Y-34787000D02*
X113242000Y-25000000D01*
X181758000Y-44526000D02*
X181758000Y-39787000D01*
X181758000Y-39787000D02*
X183758000Y-39787000D01*
X168129000Y-49574000D02*
X168129000Y-48574000D01*
X181758000Y-57361000D02*
X181758000Y-52622000D01*
X188377397Y-96635417D02*
X188542701Y-96173423D01*
X115242000Y-70148000D02*
X128871000Y-70148000D01*
X110464148Y-98879348D02*
X110885016Y-99131606D01*
X187293533Y-98257533D02*
X187623052Y-97893966D01*
X178710000Y-27000000D02*
X168129000Y-27000000D01*
X133871000Y-27000000D02*
X133871000Y-25000000D01*
X168129000Y-70148000D02*
X178710000Y-70148000D01*
X144452000Y-49574000D02*
X133871000Y-49574000D01*
X115242000Y-49574000D02*
X115242000Y-57361000D01*
X111790576Y-99506701D02*
X112266548Y-99625926D01*
X108457298Y-23548576D02*
X108338073Y-24024548D01*
X112751914Y-20024076D02*
X112266548Y-20096073D01*
X178710000Y-49574000D02*
X168129000Y-49574000D01*
X133871000Y-47574000D02*
X133871000Y-47574000D01*
X185209423Y-20215298D02*
X184733451Y-20096073D01*
X181758000Y-89674000D02*
X181758000Y-84935000D01*
X181758000Y-84935000D02*
X183758000Y-84935000D01*
X178710000Y-72148000D02*
X168129000Y-72148000D01*
X144452000Y-92722000D02*
X147500000Y-89674000D01*
X188542701Y-96173423D02*
X188661926Y-95697451D01*
X128871000Y-27000000D02*
X115242000Y-27000000D01*
X108242000Y-25000000D02*
X108242000Y-94722000D01*
X112266548Y-99625926D02*
X112751914Y-99697923D01*
X108457298Y-96173423D02*
X108622602Y-96635417D01*
X115242000Y-39787000D02*
X115242000Y-47574000D01*
X188758000Y-94722000D02*
X188758000Y-25000000D01*
X128871000Y-94722000D02*
X113242000Y-94722000D01*
X115242000Y-27000000D02*
X115242000Y-34787000D01*
X183758000Y-94722000D02*
X168129000Y-94722000D01*
X178710000Y-47574000D02*
X181758000Y-44526000D01*
X181758000Y-75196000D02*
X178710000Y-72148000D01*
X183758000Y-20000000D02*
X113242000Y-20000000D01*
X163129000Y-49574000D02*
X149500000Y-49574000D01*
X181758000Y-52622000D02*
X178710000Y-49574000D01*
X187293533Y-21464466D02*
X186929966Y-21134947D01*
X133871000Y-94722000D02*
X133871000Y-92722000D01*
X109376947Y-21828033D02*
X109084651Y-22222148D01*
X188733923Y-24509914D02*
X188661926Y-24024548D01*
X149500000Y-34787000D02*
X148500000Y-34787000D01*
X186535851Y-20842651D02*
X186114983Y-20590393D01*
X188661926Y-24024548D02*
X188661926Y-24024548D01*
X109084651Y-97499851D02*
X109376947Y-97893966D01*
X148500000Y-34787000D02*
X147500000Y-34787000D01*
X147500000Y-34787000D02*
X147500000Y-30048000D01*
X110885016Y-99131606D02*
X111328582Y-99341397D01*
X184733451Y-20096073D02*
X184248085Y-20024076D01*
X163129000Y-92722000D02*
X163129000Y-94722000D01*
X147500000Y-67100000D02*
X147500000Y-62361000D01*
X183758000Y-84935000D02*
X183758000Y-84935000D01*
X128871000Y-25000000D02*
X128871000Y-27000000D01*
X163129000Y-48574000D02*
X163129000Y-49574000D01*
X115242000Y-47574000D02*
X128871000Y-47574000D01*
X112751914Y-99697923D02*
X113242000Y-99722000D01*
X147500000Y-62361000D02*
X148500000Y-62361000D01*
X186929966Y-21134947D02*
X186535851Y-20842651D01*
X188733923Y-95212085D02*
X188758000Y-94722000D01*
X110885016Y-20590393D02*
X110464148Y-20842651D01*
X133871000Y-72148000D02*
X133871000Y-71148000D01*
X108622602Y-23086582D02*
X108457298Y-23548576D01*
X147500000Y-44526000D02*
X147500000Y-39787000D01*
X108242000Y-94722000D02*
X108266076Y-95212085D01*
X163129000Y-94722000D02*
X133871000Y-94722000D01*
X188167606Y-22643016D02*
X187915348Y-22222148D01*
X163129000Y-47574000D02*
X163129000Y-48574000D01*
X147500000Y-39787000D02*
X148500000Y-39787000D01*
X110464148Y-20842651D02*
X110070033Y-21134947D01*
X111328582Y-20380602D02*
X110885016Y-20590393D01*
X110070033Y-21134947D02*
X109706466Y-21464466D01*
X183758000Y-84935000D02*
X183758000Y-94722000D01*
X168129000Y-72148000D02*
X168129000Y-71148000D01*
X149500000Y-72148000D02*
X149500000Y-79935000D01*
X168129000Y-92722000D02*
X178710000Y-92722000D01*
X181758000Y-62361000D02*
X183758000Y-62361000D01*
X178710000Y-70148000D02*
X181758000Y-67100000D01*
X187915348Y-22222148D02*
X187623052Y-21828033D01*
X163129000Y-70148000D02*
X163129000Y-71148000D01*
X128871000Y-48574000D02*
X128871000Y-49574000D01*
X133871000Y-47574000D02*
X144452000Y-47574000D01*
X168129000Y-71148000D02*
X168129000Y-71148000D01*
X115242000Y-84935000D02*
X115242000Y-92722000D01*
X188167606Y-97078983D02*
X188377397Y-96635417D01*
X188377397Y-23086582D02*
X188167606Y-22643016D01*
X108832393Y-97078983D02*
X109084651Y-97499851D01*
X184733451Y-99625926D02*
X185209423Y-99506701D01*
X110070033Y-98587052D02*
X110464148Y-98879348D01*
X163129000Y-25000000D02*
X163129000Y-27000000D01*
X149500000Y-92722000D02*
X163129000Y-92722000D01*
X187623052Y-21828033D02*
X187293533Y-21464466D01*
X147500000Y-89674000D02*
X147500000Y-84935000D01*
X147500000Y-30048000D02*
X144452000Y-27000000D01*
X181758000Y-79935000D02*
X181758000Y-75196000D01*
X147500000Y-75196000D02*
X144452000Y-72148000D01*
X133871000Y-49574000D02*
X133871000Y-48574000D01*
X128871000Y-70148000D02*
X128871000Y-71148000D01*
X183758000Y-99722000D02*
X184248085Y-99697923D01*
X149500000Y-39787000D02*
X149500000Y-47574000D01*
X183758000Y-25000000D02*
X183758000Y-34787000D01*
X109376947Y-97893966D02*
X109706466Y-98257533D01*
X185671417Y-20380602D02*
X185209423Y-20215298D01*
X108622602Y-96635417D02*
X108832393Y-97078983D01*
X148500000Y-79935000D02*
X147500000Y-79935000D01*
X188661926Y-24024548D02*
X188542701Y-23548576D01*
X133871000Y-48574000D02*
X133871000Y-47574000D01*
X133871000Y-70148000D02*
X144452000Y-70148000D01*
X181758000Y-67100000D02*
X181758000Y-62361000D01*
X188661926Y-95697451D02*
X188733923Y-95212085D01*
X163129000Y-72148000D02*
X149500000Y-72148000D01*
X115242000Y-72148000D02*
X115242000Y-79935000D01*
X186114983Y-20590393D02*
X185671417Y-20380602D01*
X168129000Y-48574000D02*
X168129000Y-48574000D01*
X187915348Y-97499851D02*
X188167606Y-97078983D01*
X148500000Y-39787000D02*
X149500000Y-39787000D01*
X148500000Y-62361000D02*
X149500000Y-62361000D01*
X108338073Y-95697451D02*
X108457298Y-96173423D01*
X149500000Y-84935000D02*
X149500000Y-92722000D01*
X163129000Y-27000000D02*
X149500000Y-27000000D01*
X109706466Y-98257533D02*
X110070033Y-98587052D01*
X113242000Y-94722000D02*
X113242000Y-94722000D01*
X113242000Y-94722000D02*
X113242000Y-84935000D01*
X163129000Y-71148000D02*
X163129000Y-72148000D01*
X149500000Y-70148000D02*
X163129000Y-70148000D01*
X128871000Y-49574000D02*
X128871000Y-49574000D01*
X149500000Y-27000000D02*
X149500000Y-34787000D01*
X144452000Y-27000000D02*
X133871000Y-27000000D01*
X168129000Y-27000000D02*
X168129000Y-25000000D01*
X113242000Y-79935000D02*
X113242000Y-62361000D01*
X147500000Y-57361000D02*
X147500000Y-52622000D01*
X111790576Y-20215298D02*
X111328582Y-20380602D01*
X113242000Y-25000000D02*
X128871000Y-25000000D01*
X149500000Y-62361000D02*
X149500000Y-70148000D01*
X186114983Y-99131606D02*
X186535851Y-98879348D01*
X147500000Y-79935000D02*
X147500000Y-75196000D01*
X183758000Y-34787000D02*
X181758000Y-34787000D01*
X149500000Y-57361000D02*
X148500000Y-57361000D01*
X111328582Y-99341397D02*
X111790576Y-99506701D01*
X128871000Y-47574000D02*
X128871000Y-48574000D01*
X184248085Y-20024076D02*
X183758000Y-20000000D01*
X144452000Y-47574000D02*
X147500000Y-44526000D01*
X186535851Y-98879348D02*
X186929966Y-98587052D01*
X149500000Y-79935000D02*
X148500000Y-79935000D01*
X133871000Y-71148000D02*
X133871000Y-70148000D01*
X148500000Y-84935000D02*
X148500000Y-84935000D01*
X185209423Y-99506701D02*
X185671417Y-99341397D01*
X181758000Y-34787000D02*
X181758000Y-30048000D01*
X128871000Y-72148000D02*
X128871000Y-72148000D01*
X112266548Y-20096073D02*
X111790576Y-20215298D01*
X144452000Y-70148000D02*
X147500000Y-67100000D01*
X115242000Y-34787000D02*
X113242000Y-34787000D01*
X128871000Y-49574000D02*
X115242000Y-49574000D01*
X144452000Y-72148000D02*
X133871000Y-72148000D01*
X168129000Y-48574000D02*
X168129000Y-47574000D01*
X187623052Y-97893966D02*
X187915348Y-97499851D01*
X178710000Y-92722000D02*
X181758000Y-89674000D01*
X113242000Y-99722000D02*
X183758000Y-99722000D01*
X183758000Y-79935000D02*
X181758000Y-79935000D01*
X147500000Y-34787000D02*
X147500000Y-34787000D01*
X183758000Y-39787000D02*
X183758000Y-57361000D01*
X168129000Y-25000000D02*
X168129000Y-25000000D01*
X115242000Y-79935000D02*
X113242000Y-79935000D01*
X108832393Y-22643016D02*
X108622602Y-23086582D01*
X108266076Y-95212085D02*
X108338073Y-95697451D01*
X186929966Y-98587052D02*
X187293533Y-98257533D01*
X147500000Y-84935000D02*
X148500000Y-84935000D01*
X148500000Y-57361000D02*
X147500000Y-57361000D01*
X113242000Y-62361000D02*
X115242000Y-62361000D01*
X148500000Y-84935000D02*
X149500000Y-84935000D01*
X149500000Y-47574000D02*
X163129000Y-47574000D01*
X147500000Y-52622000D02*
X144452000Y-49574000D01*
X133871000Y-92722000D02*
X144452000Y-92722000D01*
X168129000Y-47574000D02*
X178710000Y-47574000D01*
X188542701Y-23548576D02*
X188377397Y-23086582D01*
X108266076Y-24509914D02*
X108242000Y-25000000D01*
X113242000Y-39787000D02*
X115242000Y-39787000D01*
X113242000Y-20000000D02*
X112751914Y-20024076D01*
X108338073Y-24024548D02*
X108266076Y-24509914D01*
X188758000Y-25000000D02*
X188733923Y-24509914D01*
X185671417Y-99341397D02*
X186114983Y-99131606D01*
X115242000Y-92722000D02*
X128871000Y-92722000D01*
X168129000Y-25000000D02*
X183758000Y-25000000D01*
X113242000Y-84935000D02*
X115242000Y-84935000D01*
M02*
