M48
; DRILL file {KiCad 7.0.9} date Wed Jan 17 02:03:54 2024
; FORMAT={-:-/ absolute / metric / decimal}
; #@! TF.CreationDate,2024-01-17T02:03:54+09:00
; #@! TF.GenerationSoftware,Kicad,Pcbnew,7.0.9
; #@! TF.FileFunction,NonPlated,1,2,NPTH
FMAT,2
METRIC
; #@! TA.AperFunction,NonPlated,NPTH,ComponentDrill
T1C0.500
%
G90
G05
T1
X108.992Y-27.0
X108.992Y-92.722
X109.867Y-27.0
X109.867Y-92.722
X110.742Y-27.0
X110.742Y-92.722
X111.617Y-27.0
X111.617Y-92.722
X112.492Y-27.0
X112.492Y-92.722
X115.242Y-20.75
X115.242Y-21.625
X115.242Y-22.5
X115.242Y-23.375
X115.242Y-24.25
X115.242Y-33.787
X115.242Y-34.662
X115.242Y-35.537
X115.242Y-36.412
X115.242Y-37.287
X115.242Y-38.162
X115.242Y-39.037
X115.242Y-39.912
X115.242Y-40.787
X115.242Y-56.361
X115.242Y-57.236
X115.242Y-58.111
X115.242Y-58.986
X115.242Y-59.861
X115.242Y-60.736
X115.242Y-61.611
X115.242Y-62.486
X115.242Y-63.361
X115.242Y-78.935
X115.242Y-79.81
X115.242Y-80.685
X115.242Y-81.56
X115.242Y-82.435
X115.242Y-83.31
X115.242Y-84.185
X115.242Y-85.06
X115.242Y-85.935
X115.242Y-95.472
X115.242Y-96.347
X115.242Y-97.222
X115.242Y-98.097
X115.242Y-98.972
X127.871Y-27.0
X127.871Y-47.574
X127.871Y-49.574
X127.871Y-70.148
X127.871Y-72.148
X127.871Y-92.722
X128.746Y-27.0
X128.746Y-47.574
X128.746Y-49.574
X128.746Y-70.148
X128.746Y-72.148
X128.746Y-92.722
X129.621Y-27.0
X129.621Y-47.574
X129.621Y-49.574
X129.621Y-70.148
X129.621Y-72.148
X129.621Y-92.722
X130.496Y-27.0
X130.496Y-47.574
X130.496Y-49.574
X130.496Y-70.148
X130.496Y-72.148
X130.496Y-92.722
X131.371Y-27.0
X131.371Y-47.574
X131.371Y-49.574
X131.371Y-70.148
X131.371Y-72.148
X131.371Y-92.722
X132.246Y-27.0
X132.246Y-47.574
X132.246Y-49.574
X132.246Y-70.148
X132.246Y-72.148
X132.246Y-92.722
X133.121Y-27.0
X133.121Y-47.574
X133.121Y-49.574
X133.121Y-70.148
X133.121Y-72.148
X133.121Y-92.722
X133.996Y-27.0
X133.996Y-47.574
X133.996Y-49.574
X133.996Y-70.148
X133.996Y-72.148
X133.996Y-92.722
X134.871Y-27.0
X134.871Y-47.574
X134.871Y-49.574
X134.871Y-70.148
X134.871Y-72.148
X134.871Y-92.722
X147.5Y-33.787
X147.5Y-34.662
X147.5Y-35.537
X147.5Y-36.412
X147.5Y-37.287
X147.5Y-38.162
X147.5Y-39.037
X147.5Y-39.912
X147.5Y-40.787
X147.5Y-56.361
X147.5Y-57.236
X147.5Y-58.111
X147.5Y-58.986
X147.5Y-59.861
X147.5Y-60.736
X147.5Y-61.611
X147.5Y-62.486
X147.5Y-63.361
X147.5Y-78.935
X147.5Y-79.81
X147.5Y-80.685
X147.5Y-81.56
X147.5Y-82.435
X147.5Y-83.31
X147.5Y-84.185
X147.5Y-85.06
X147.5Y-85.935
X149.5Y-33.787
X149.5Y-34.662
X149.5Y-35.537
X149.5Y-36.412
X149.5Y-37.287
X149.5Y-38.162
X149.5Y-39.037
X149.5Y-39.912
X149.5Y-40.787
X149.5Y-56.361
X149.5Y-57.236
X149.5Y-58.111
X149.5Y-58.986
X149.5Y-59.861
X149.5Y-60.736
X149.5Y-61.611
X149.5Y-62.486
X149.5Y-63.361
X149.5Y-78.935
X149.5Y-79.81
X149.5Y-80.685
X149.5Y-81.56
X149.5Y-82.435
X149.5Y-83.31
X149.5Y-84.185
X149.5Y-85.06
X149.5Y-85.935
X162.129Y-27.0
X162.129Y-47.574
X162.129Y-49.574
X162.129Y-70.148
X162.129Y-72.148
X162.129Y-92.722
X163.004Y-27.0
X163.004Y-47.574
X163.004Y-49.574
X163.004Y-70.148
X163.004Y-72.148
X163.004Y-92.722
X163.879Y-27.0
X163.879Y-47.574
X163.879Y-49.574
X163.879Y-70.148
X163.879Y-72.148
X163.879Y-92.722
X164.754Y-27.0
X164.754Y-47.574
X164.754Y-49.574
X164.754Y-70.148
X164.754Y-72.148
X164.754Y-92.722
X165.629Y-27.0
X165.629Y-47.574
X165.629Y-49.574
X165.629Y-70.148
X165.629Y-72.148
X165.629Y-92.722
X166.504Y-27.0
X166.504Y-47.574
X166.504Y-49.574
X166.504Y-70.148
X166.504Y-72.148
X166.504Y-92.722
X167.379Y-27.0
X167.379Y-47.574
X167.379Y-49.574
X167.379Y-70.148
X167.379Y-72.148
X167.379Y-92.722
X168.254Y-27.0
X168.254Y-47.574
X168.254Y-49.574
X168.254Y-70.148
X168.254Y-72.148
X168.254Y-92.722
X169.129Y-27.0
X169.129Y-47.574
X169.129Y-49.574
X169.129Y-70.148
X169.129Y-72.148
X169.129Y-92.722
X181.758Y-20.75
X181.758Y-21.625
X181.758Y-22.5
X181.758Y-23.375
X181.758Y-24.25
X181.758Y-33.787
X181.758Y-34.662
X181.758Y-35.537
X181.758Y-36.412
X181.758Y-37.287
X181.758Y-38.162
X181.758Y-39.037
X181.758Y-39.912
X181.758Y-40.787
X181.758Y-56.361
X181.758Y-57.236
X181.758Y-58.111
X181.758Y-58.986
X181.758Y-59.861
X181.758Y-60.736
X181.758Y-61.611
X181.758Y-62.486
X181.758Y-63.361
X181.758Y-78.935
X181.758Y-79.81
X181.758Y-80.685
X181.758Y-81.56
X181.758Y-82.435
X181.758Y-83.31
X181.758Y-84.185
X181.758Y-85.06
X181.758Y-85.935
X181.758Y-95.472
X181.758Y-96.347
X181.758Y-97.222
X181.758Y-98.097
X181.758Y-98.972
X184.508Y-27.0
X184.508Y-92.722
X185.383Y-27.0
X185.383Y-92.722
X186.258Y-27.0
X186.258Y-92.722
X187.133Y-27.0
X187.133Y-92.722
X188.008Y-27.0
X188.008Y-92.722
T0
M30
