%TF.GenerationSoftware,KiCad,Pcbnew,7.0.9*%
%TF.CreationDate,2024-01-17T02:03:21+09:00*%
%TF.ProjectId,kikit,6b696b69-742e-46b6-9963-61645f706362,rev?*%
%TF.SameCoordinates,Original*%
%TF.FileFunction,Paste,Top*%
%TF.FilePolarity,Positive*%
%FSLAX46Y46*%
G04 Gerber Fmt 4.6, Leading zero omitted, Abs format (unit mm)*
G04 Created by KiCad (PCBNEW 7.0.9) date 2024-01-17 02:03:21*
%MOMM*%
%LPD*%
G01*
G04 APERTURE LIST*
G04 Aperture macros list*
%AMRoundRect*
0 Rectangle with rounded corners*
0 $1 Rounding radius*
0 $2 $3 $4 $5 $6 $7 $8 $9 X,Y pos of 4 corners*
0 Add a 4 corners polygon primitive as box body*
4,1,4,$2,$3,$4,$5,$6,$7,$8,$9,$2,$3,0*
0 Add four circle primitives for the rounded corners*
1,1,$1+$1,$2,$3*
1,1,$1+$1,$4,$5*
1,1,$1+$1,$6,$7*
1,1,$1+$1,$8,$9*
0 Add four rect primitives between the rounded corners*
20,1,$1+$1,$2,$3,$4,$5,0*
20,1,$1+$1,$4,$5,$6,$7,0*
20,1,$1+$1,$6,$7,$8,$9,0*
20,1,$1+$1,$8,$9,$2,$3,0*%
G04 Aperture macros list end*
%ADD10R,0.900000X1.500000*%
%ADD11RoundRect,0.237500X-0.250000X-0.237500X0.250000X-0.237500X0.250000X0.237500X-0.250000X0.237500X0*%
%ADD12RoundRect,0.237500X0.237500X-0.250000X0.237500X0.250000X-0.237500X0.250000X-0.237500X-0.250000X0*%
%ADD13R,0.700000X1.550000*%
%ADD14R,0.800000X1.800000*%
%ADD15R,1.600000X2.070000*%
%ADD16RoundRect,0.237500X0.300000X0.237500X-0.300000X0.237500X-0.300000X-0.237500X0.300000X-0.237500X0*%
G04 APERTURE END LIST*
D10*
%TO.C,D3*%
X139500000Y-78916000D03*
X142800000Y-78916000D03*
X142800000Y-74016000D03*
X139500000Y-74016000D03*
%TD*%
D11*
%TO.C,R5*%
X156207500Y-68624000D03*
X158032500Y-68624000D03*
%TD*%
D12*
%TO.C,R3*%
X156866000Y-35532500D03*
X156866000Y-33707500D03*
%TD*%
D10*
%TO.C,D1*%
X161058000Y-56342000D03*
X164358000Y-56342000D03*
X164358000Y-51442000D03*
X161058000Y-51442000D03*
%TD*%
%TO.C,D2*%
X167408000Y-33768000D03*
X170708000Y-33768000D03*
X170708000Y-28868000D03*
X167408000Y-28868000D03*
%TD*%
D13*
%TO.C,IC1*%
X170455000Y-46235000D03*
X171725000Y-46235000D03*
X172995000Y-46235000D03*
X174265000Y-46235000D03*
X174265000Y-40785000D03*
X172995000Y-40785000D03*
X171725000Y-40785000D03*
X170455000Y-40785000D03*
%TD*%
D11*
%TO.C,R6*%
X157985500Y-37414000D03*
X159810500Y-37414000D03*
%TD*%
%TO.C,R4*%
X154175500Y-73418000D03*
X156000500Y-73418000D03*
%TD*%
D10*
%TO.C,D3*%
X173758000Y-78916000D03*
X177058000Y-78916000D03*
X177058000Y-74016000D03*
X173758000Y-74016000D03*
%TD*%
D11*
%TO.C,R5*%
X156207500Y-46050000D03*
X158032500Y-46050000D03*
%TD*%
%TO.C,R5*%
X121949500Y-91198000D03*
X123774500Y-91198000D03*
%TD*%
D10*
%TO.C,D2*%
X167408000Y-56342000D03*
X170708000Y-56342000D03*
X170708000Y-51442000D03*
X167408000Y-51442000D03*
%TD*%
%TO.C,D1*%
X126800000Y-33768000D03*
X130100000Y-33768000D03*
X130100000Y-28868000D03*
X126800000Y-28868000D03*
%TD*%
D11*
%TO.C,R6*%
X123727500Y-37414000D03*
X125552500Y-37414000D03*
%TD*%
D10*
%TO.C,D2*%
X167408000Y-78916000D03*
X170708000Y-78916000D03*
X170708000Y-74016000D03*
X167408000Y-74016000D03*
%TD*%
D11*
%TO.C,R4*%
X119917500Y-28270000D03*
X121742500Y-28270000D03*
%TD*%
D14*
%TO.C,Q1*%
X157186000Y-65574000D03*
X159086000Y-65574000D03*
X158136000Y-62274000D03*
%TD*%
D13*
%TO.C,IC1*%
X170455000Y-91383000D03*
X171725000Y-91383000D03*
X172995000Y-91383000D03*
X174265000Y-91383000D03*
X174265000Y-85933000D03*
X172995000Y-85933000D03*
X171725000Y-85933000D03*
X170455000Y-85933000D03*
%TD*%
D11*
%TO.C,R4*%
X119917500Y-73418000D03*
X121742500Y-73418000D03*
%TD*%
%TO.C,R4*%
X154175500Y-50844000D03*
X156000500Y-50844000D03*
%TD*%
D13*
%TO.C,IC1*%
X170455000Y-68809000D03*
X171725000Y-68809000D03*
X172995000Y-68809000D03*
X174265000Y-68809000D03*
X174265000Y-63359000D03*
X172995000Y-63359000D03*
X171725000Y-63359000D03*
X170455000Y-63359000D03*
%TD*%
D14*
%TO.C,Q1*%
X122928000Y-43000000D03*
X124828000Y-43000000D03*
X123878000Y-39700000D03*
%TD*%
D11*
%TO.C,R4*%
X119917500Y-50844000D03*
X121742500Y-50844000D03*
%TD*%
D15*
%TO.C,IC2*%
X128196000Y-91052000D03*
X128196000Y-82962000D03*
X130736000Y-91052000D03*
X130736000Y-82962000D03*
X133276000Y-91052000D03*
X133276000Y-82962000D03*
%TD*%
D12*
%TO.C,R3*%
X122608000Y-80680500D03*
X122608000Y-78855500D03*
%TD*%
D11*
%TO.C,R2*%
X156819000Y-75958000D03*
X158644000Y-75958000D03*
%TD*%
D10*
%TO.C,D3*%
X173758000Y-56342000D03*
X177058000Y-56342000D03*
X177058000Y-51442000D03*
X173758000Y-51442000D03*
%TD*%
D16*
%TO.C,C1*%
X177794500Y-66846000D03*
X176069500Y-66846000D03*
%TD*%
D11*
%TO.C,R4*%
X154175500Y-28270000D03*
X156000500Y-28270000D03*
%TD*%
%TO.C,R6*%
X123727500Y-82562000D03*
X125552500Y-82562000D03*
%TD*%
D15*
%TO.C,IC2*%
X128196000Y-68478000D03*
X128196000Y-60388000D03*
X130736000Y-68478000D03*
X130736000Y-60388000D03*
X133276000Y-68478000D03*
X133276000Y-60388000D03*
%TD*%
D11*
%TO.C,R5*%
X156207500Y-91198000D03*
X158032500Y-91198000D03*
%TD*%
D16*
%TO.C,C1*%
X177794500Y-89420000D03*
X176069500Y-89420000D03*
%TD*%
D11*
%TO.C,R5*%
X121949500Y-46050000D03*
X123774500Y-46050000D03*
%TD*%
D15*
%TO.C,IC2*%
X128196000Y-45904000D03*
X128196000Y-37814000D03*
X130736000Y-45904000D03*
X130736000Y-37814000D03*
X133276000Y-45904000D03*
X133276000Y-37814000D03*
%TD*%
D11*
%TO.C,R2*%
X122561000Y-53384000D03*
X124386000Y-53384000D03*
%TD*%
D10*
%TO.C,D2*%
X133150000Y-56342000D03*
X136450000Y-56342000D03*
X136450000Y-51442000D03*
X133150000Y-51442000D03*
%TD*%
D12*
%TO.C,R3*%
X122608000Y-35532500D03*
X122608000Y-33707500D03*
%TD*%
D14*
%TO.C,Q1*%
X157186000Y-88148000D03*
X159086000Y-88148000D03*
X158136000Y-84848000D03*
%TD*%
D15*
%TO.C,IC2*%
X162454000Y-45904000D03*
X162454000Y-37814000D03*
X164994000Y-45904000D03*
X164994000Y-37814000D03*
X167534000Y-45904000D03*
X167534000Y-37814000D03*
%TD*%
D10*
%TO.C,D1*%
X161058000Y-33768000D03*
X164358000Y-33768000D03*
X164358000Y-28868000D03*
X161058000Y-28868000D03*
%TD*%
D12*
%TO.C,R3*%
X156866000Y-80680500D03*
X156866000Y-78855500D03*
%TD*%
D10*
%TO.C,D3*%
X173758000Y-33768000D03*
X177058000Y-33768000D03*
X177058000Y-28868000D03*
X173758000Y-28868000D03*
%TD*%
D11*
%TO.C,R6*%
X157985500Y-82562000D03*
X159810500Y-82562000D03*
%TD*%
D12*
%TO.C,R3*%
X156866000Y-58106500D03*
X156866000Y-56281500D03*
%TD*%
D15*
%TO.C,IC2*%
X162454000Y-68478000D03*
X162454000Y-60388000D03*
X164994000Y-68478000D03*
X164994000Y-60388000D03*
X167534000Y-68478000D03*
X167534000Y-60388000D03*
%TD*%
D14*
%TO.C,Q1*%
X157186000Y-43000000D03*
X159086000Y-43000000D03*
X158136000Y-39700000D03*
%TD*%
D16*
%TO.C,C1*%
X143536500Y-89420000D03*
X141811500Y-89420000D03*
%TD*%
D11*
%TO.C,R2*%
X122561000Y-30810000D03*
X124386000Y-30810000D03*
%TD*%
%TO.C,R2*%
X156819000Y-30810000D03*
X158644000Y-30810000D03*
%TD*%
%TO.C,R6*%
X157985500Y-59988000D03*
X159810500Y-59988000D03*
%TD*%
D13*
%TO.C,IC1*%
X136197000Y-91383000D03*
X137467000Y-91383000D03*
X138737000Y-91383000D03*
X140007000Y-91383000D03*
X140007000Y-85933000D03*
X138737000Y-85933000D03*
X137467000Y-85933000D03*
X136197000Y-85933000D03*
%TD*%
D16*
%TO.C,C1*%
X143536500Y-44272000D03*
X141811500Y-44272000D03*
%TD*%
D14*
%TO.C,Q1*%
X122928000Y-88148000D03*
X124828000Y-88148000D03*
X123878000Y-84848000D03*
%TD*%
D11*
%TO.C,R2*%
X122561000Y-75958000D03*
X124386000Y-75958000D03*
%TD*%
D10*
%TO.C,D2*%
X133150000Y-33768000D03*
X136450000Y-33768000D03*
X136450000Y-28868000D03*
X133150000Y-28868000D03*
%TD*%
D11*
%TO.C,R6*%
X123727500Y-59988000D03*
X125552500Y-59988000D03*
%TD*%
%TO.C,R2*%
X156819000Y-53384000D03*
X158644000Y-53384000D03*
%TD*%
D12*
%TO.C,R3*%
X122608000Y-58106500D03*
X122608000Y-56281500D03*
%TD*%
D16*
%TO.C,C1*%
X177794500Y-44272000D03*
X176069500Y-44272000D03*
%TD*%
D10*
%TO.C,D2*%
X133150000Y-78916000D03*
X136450000Y-78916000D03*
X136450000Y-74016000D03*
X133150000Y-74016000D03*
%TD*%
%TO.C,D3*%
X139500000Y-33768000D03*
X142800000Y-33768000D03*
X142800000Y-28868000D03*
X139500000Y-28868000D03*
%TD*%
D13*
%TO.C,IC1*%
X136197000Y-46235000D03*
X137467000Y-46235000D03*
X138737000Y-46235000D03*
X140007000Y-46235000D03*
X140007000Y-40785000D03*
X138737000Y-40785000D03*
X137467000Y-40785000D03*
X136197000Y-40785000D03*
%TD*%
D16*
%TO.C,C1*%
X143536500Y-66846000D03*
X141811500Y-66846000D03*
%TD*%
D10*
%TO.C,D3*%
X139500000Y-56342000D03*
X142800000Y-56342000D03*
X142800000Y-51442000D03*
X139500000Y-51442000D03*
%TD*%
D15*
%TO.C,IC2*%
X162454000Y-91052000D03*
X162454000Y-82962000D03*
X164994000Y-91052000D03*
X164994000Y-82962000D03*
X167534000Y-91052000D03*
X167534000Y-82962000D03*
%TD*%
D11*
%TO.C,R5*%
X121949500Y-68624000D03*
X123774500Y-68624000D03*
%TD*%
D10*
%TO.C,D1*%
X161058000Y-78916000D03*
X164358000Y-78916000D03*
X164358000Y-74016000D03*
X161058000Y-74016000D03*
%TD*%
%TO.C,D1*%
X126800000Y-78916000D03*
X130100000Y-78916000D03*
X130100000Y-74016000D03*
X126800000Y-74016000D03*
%TD*%
%TO.C,D1*%
X126800000Y-56342000D03*
X130100000Y-56342000D03*
X130100000Y-51442000D03*
X126800000Y-51442000D03*
%TD*%
D14*
%TO.C,Q1*%
X122928000Y-65574000D03*
X124828000Y-65574000D03*
X123878000Y-62274000D03*
%TD*%
D13*
%TO.C,IC1*%
X136197000Y-68809000D03*
X137467000Y-68809000D03*
X138737000Y-68809000D03*
X140007000Y-68809000D03*
X140007000Y-63359000D03*
X138737000Y-63359000D03*
X137467000Y-63359000D03*
X136197000Y-63359000D03*
%TD*%
M02*
