%TF.GenerationSoftware,KiCad,Pcbnew,7.0.9*%
%TF.CreationDate,2023-12-02T22:57:23+09:00*%
%TF.ProjectId,Pmod_ADC,506d6f64-5f41-4444-932e-6b696361645f,rev?*%
%TF.SameCoordinates,Original*%
%TF.FileFunction,Copper,L2,Bot*%
%TF.FilePolarity,Positive*%
%FSLAX46Y46*%
G04 Gerber Fmt 4.6, Leading zero omitted, Abs format (unit mm)*
G04 Created by KiCad (PCBNEW 7.0.9) date 2023-12-02 22:57:23*
%MOMM*%
%LPD*%
G01*
G04 APERTURE LIST*
%TA.AperFunction,ComponentPad*%
%ADD10R,1.600000X1.600000*%
%TD*%
%TA.AperFunction,ComponentPad*%
%ADD11O,1.600000X1.600000*%
%TD*%
%TA.AperFunction,ComponentPad*%
%ADD12R,1.700000X1.700000*%
%TD*%
%TA.AperFunction,ComponentPad*%
%ADD13O,1.700000X1.700000*%
%TD*%
%TA.AperFunction,ComponentPad*%
%ADD14R,1.500000X1.500000*%
%TD*%
%TA.AperFunction,ComponentPad*%
%ADD15R,1.900000X1.900000*%
%TD*%
%TA.AperFunction,ComponentPad*%
%ADD16C,1.900000*%
%TD*%
%TA.AperFunction,ComponentPad*%
%ADD17R,1.251000X1.251000*%
%TD*%
%TA.AperFunction,ComponentPad*%
%ADD18C,1.251000*%
%TD*%
%TA.AperFunction,ComponentPad*%
%ADD19C,1.600000*%
%TD*%
%TA.AperFunction,ComponentPad*%
%ADD20C,1.700000*%
%TD*%
%TA.AperFunction,ComponentPad*%
%ADD21R,2.100000X2.100000*%
%TD*%
%TA.AperFunction,ComponentPad*%
%ADD22C,2.100000*%
%TD*%
%TA.AperFunction,ViaPad*%
%ADD23C,0.500000*%
%TD*%
%TA.AperFunction,ViaPad*%
%ADD24C,0.800000*%
%TD*%
%TA.AperFunction,Conductor*%
%ADD25C,0.250000*%
%TD*%
G04 APERTURE END LIST*
D10*
%TO.P,U1,1,CH0*%
%TO.N,/CH0*%
X182611000Y-91450000D03*
D11*
%TO.P,U1,2,CH1*%
%TO.N,Net-(J4-Pin_7)*%
X180071000Y-91450000D03*
%TO.P,U1,3,CH2*%
%TO.N,Net-(J4-Pin_6)*%
X177531000Y-91450000D03*
%TO.P,U1,4,CH3*%
%TO.N,Net-(J4-Pin_5)*%
X174991000Y-91450000D03*
%TO.P,U1,5,CH4*%
%TO.N,Net-(J4-Pin_4)*%
X172451000Y-91450000D03*
%TO.P,U1,6,CH5*%
%TO.N,Net-(J4-Pin_3)*%
X169911000Y-91450000D03*
%TO.P,U1,7,CH6*%
%TO.N,Net-(J4-Pin_2)*%
X167371000Y-91450000D03*
%TO.P,U1,8,CH7*%
%TO.N,Net-(J4-Pin_1)*%
X164831000Y-91450000D03*
%TO.P,U1,9,DGND*%
%TO.N,GND*%
X164831000Y-99070000D03*
%TO.P,U1,10,~{CS}/SHDN*%
%TO.N,Net-(J1-Pin_4)*%
X167371000Y-99070000D03*
%TO.P,U1,11,Din*%
%TO.N,Net-(J1-Pin_3)*%
X169911000Y-99070000D03*
%TO.P,U1,12,Dout*%
%TO.N,Net-(J1-Pin_2)*%
X172451000Y-99070000D03*
%TO.P,U1,13,CLK*%
%TO.N,Net-(J1-Pin_1)*%
X174991000Y-99070000D03*
%TO.P,U1,14,AGND*%
%TO.N,GND*%
X177531000Y-99070000D03*
%TO.P,U1,15,Vref*%
%TO.N,Net-(JP1-B)*%
X180071000Y-99070000D03*
%TO.P,U1,16,Vdd*%
%TO.N,VCC*%
X182611000Y-99070000D03*
%TD*%
D12*
%TO.P,J5,1,Pin_1*%
%TO.N,Net-(J5-Pin_1)*%
X196855000Y-97531000D03*
D13*
%TO.P,J5,2,Pin_2*%
%TO.N,Net-(J5-Pin_2)*%
X196855000Y-100071000D03*
%TO.P,J5,3,Pin_3*%
%TO.N,/CH0*%
X194315000Y-97531000D03*
%TO.P,J5,4,Pin_4*%
X194315000Y-100071000D03*
%TD*%
D14*
%TO.P,TP1,1,1*%
%TO.N,Net-(C5-Pad1)*%
X217043000Y-84582000D03*
%TD*%
D15*
%TO.P,J2,R*%
%TO.N,Net-(J2-PadR)*%
X206820000Y-98730000D03*
D16*
%TO.P,J2,S*%
%TO.N,Net-(J2-PadS)*%
X206820000Y-94230000D03*
%TO.P,J2,T*%
%TO.N,GND*%
X214320000Y-99380000D03*
X214320000Y-93580000D03*
%TD*%
D14*
%TO.P,GND,1,1*%
%TO.N,GND*%
X217043000Y-89154000D03*
%TD*%
D17*
%TO.P,RV1,1,1*%
%TO.N,VCC*%
X188722000Y-94020000D03*
D18*
%TO.P,RV1,2,2*%
%TO.N,Net-(JP1-B)*%
X188722000Y-96520000D03*
%TO.P,RV1,3,3*%
%TO.N,GND*%
X188722000Y-99020000D03*
%TD*%
D10*
%TO.P,C1,1*%
%TO.N,VCC*%
X160284151Y-97282000D03*
D19*
%TO.P,C1,2*%
%TO.N,GND*%
X156784151Y-97282000D03*
%TD*%
D12*
%TO.P,J1,1,Pin_1*%
%TO.N,Net-(J1-Pin_1)*%
X149352000Y-85344000D03*
D13*
%TO.P,J1,2,Pin_2*%
%TO.N,Net-(J1-Pin_2)*%
X149352000Y-87884000D03*
%TO.P,J1,3,Pin_3*%
%TO.N,Net-(J1-Pin_3)*%
X149352000Y-90424000D03*
%TO.P,J1,4,Pin_4*%
%TO.N,Net-(J1-Pin_4)*%
X149352000Y-92964000D03*
%TO.P,J1,5,Pin_5*%
%TO.N,GND*%
X149352000Y-95504000D03*
D20*
%TO.P,J1,6,Pin_6*%
%TO.N,VCC*%
X149352000Y-98044000D03*
D13*
%TO.P,J1,7,Pin_7*%
%TO.N,unconnected-(J1-Pin_7-Pad7)*%
X146812000Y-85344000D03*
%TO.P,J1,8,Pin_8*%
%TO.N,unconnected-(J1-Pin_8-Pad8)*%
X146812000Y-87884000D03*
%TO.P,J1,9,Pin_9*%
%TO.N,unconnected-(J1-Pin_9-Pad9)*%
X146812000Y-90424000D03*
%TO.P,J1,10,Pin_10*%
%TO.N,unconnected-(J1-Pin_10-Pad10)*%
X146812000Y-92964000D03*
%TO.P,J1,11,Pin_11*%
%TO.N,GND*%
X146812000Y-95504000D03*
%TO.P,J1,12,Pin_12*%
%TO.N,VCC*%
X146812000Y-98044000D03*
%TD*%
D21*
%TO.P,J4,1,Pin_1*%
%TO.N,Net-(J4-Pin_1)*%
X155702000Y-85852000D03*
D22*
%TO.P,J4,2,Pin_2*%
%TO.N,Net-(J4-Pin_2)*%
X160782000Y-85852000D03*
%TO.P,J4,3,Pin_3*%
%TO.N,Net-(J4-Pin_3)*%
X165862000Y-85852000D03*
%TO.P,J4,4,Pin_4*%
%TO.N,Net-(J4-Pin_4)*%
X170942000Y-85852000D03*
%TO.P,J4,5,Pin_5*%
%TO.N,Net-(J4-Pin_5)*%
X176022000Y-85852000D03*
%TO.P,J4,6,Pin_6*%
%TO.N,Net-(J4-Pin_6)*%
X181102000Y-85852000D03*
%TO.P,J4,7,Pin_7*%
%TO.N,Net-(J4-Pin_7)*%
X186182000Y-85852000D03*
%TO.P,J4,8,Pin_8*%
%TO.N,/CH0*%
X191262000Y-85852000D03*
%TD*%
D23*
%TO.N,GND*%
X199263000Y-92710000D03*
X199263000Y-90170000D03*
X188722000Y-83693000D03*
X178689000Y-83693000D03*
X199263000Y-95123000D03*
X158369000Y-83693000D03*
X168529000Y-83693000D03*
D24*
%TO.N,Net-(U3-V_INB+)*%
X195961000Y-87630000D03*
D23*
X210693000Y-84582000D03*
D24*
%TO.N,Net-(J5-Pin_1)*%
X193294000Y-93218000D03*
%TD*%
D25*
%TO.N,Net-(U3-V_INB+)*%
X195961000Y-87630000D02*
X199009000Y-84582000D01*
X199009000Y-84582000D02*
X210693000Y-84582000D01*
%TO.N,/CH0*%
X194315000Y-97531000D02*
X194315000Y-100071000D01*
X194315000Y-97531000D02*
X191262000Y-94478000D01*
X191262000Y-94478000D02*
X191262000Y-85852000D01*
%TO.N,Net-(J5-Pin_1)*%
X193294000Y-93218000D02*
X196855000Y-96779000D01*
X196855000Y-96779000D02*
X196855000Y-97531000D01*
%TO.N,Net-(JP1-B)*%
X181864000Y-96520000D02*
X188722000Y-96520000D01*
X180071000Y-99070000D02*
X180071000Y-98313000D01*
X180071000Y-98313000D02*
X181864000Y-96520000D01*
%TD*%
%TA.AperFunction,Conductor*%
%TO.N,/CH0*%
G36*
X193208251Y-96242968D02*
G01*
X193690027Y-96412102D01*
X194628629Y-96741611D01*
X194635300Y-96747584D01*
X194635792Y-96756526D01*
X194635567Y-96757116D01*
X194317562Y-97527214D01*
X194311237Y-97533553D01*
X194311214Y-97533562D01*
X193541116Y-97851567D01*
X193532161Y-97851558D01*
X193525836Y-97845219D01*
X193525611Y-97844629D01*
X193415755Y-97531707D01*
X193139818Y-96745702D01*
X193026968Y-96424251D01*
X193027460Y-96415309D01*
X193029731Y-96412105D01*
X193196103Y-96245733D01*
X193204375Y-96242307D01*
X193208251Y-96242968D01*
G37*
%TD.AperFunction*%
%TD*%
%TA.AperFunction,Conductor*%
%TO.N,Net-(JP1-B)*%
G36*
X188487123Y-95952921D02*
G01*
X188487247Y-95953209D01*
X188721131Y-96515507D01*
X188721144Y-96524461D01*
X188721131Y-96524493D01*
X188487247Y-97086790D01*
X188480905Y-97093113D01*
X188471951Y-97093100D01*
X188471663Y-97092976D01*
X187477919Y-96648097D01*
X187471769Y-96641589D01*
X187471000Y-96637418D01*
X187471000Y-96402581D01*
X187474427Y-96394308D01*
X187477916Y-96391903D01*
X188471664Y-95947022D01*
X188480615Y-95946771D01*
X188487123Y-95952921D01*
G37*
%TD.AperFunction*%
%TD*%
%TA.AperFunction,Conductor*%
%TO.N,Net-(J5-Pin_1)*%
G36*
X196252186Y-95996291D02*
G01*
X197379043Y-96674854D01*
X197384362Y-96682057D01*
X197383030Y-96690913D01*
X197382919Y-96691093D01*
X196863509Y-97519267D01*
X196856210Y-97524455D01*
X196847381Y-97522963D01*
X196845324Y-97521324D01*
X196009031Y-96685031D01*
X196005604Y-96676758D01*
X196005689Y-96675353D01*
X196067082Y-96172348D01*
X196070422Y-96165496D01*
X196237878Y-95998040D01*
X196246150Y-95994614D01*
X196252186Y-95996291D01*
G37*
%TD.AperFunction*%
%TD*%
%TA.AperFunction,Conductor*%
%TO.N,/CH0*%
G36*
X191266487Y-85852863D02*
G01*
X192220365Y-86248956D01*
X192226691Y-86255293D01*
X192226683Y-86264248D01*
X192226289Y-86265099D01*
X191390262Y-87895638D01*
X191383438Y-87901437D01*
X191379851Y-87902000D01*
X191144149Y-87902000D01*
X191135876Y-87898573D01*
X191133738Y-87895638D01*
X190297710Y-86265099D01*
X190296984Y-86256174D01*
X190302783Y-86249350D01*
X190303627Y-86248959D01*
X191257513Y-85852862D01*
X191266467Y-85852855D01*
X191266487Y-85852863D01*
G37*
%TD.AperFunction*%
%TD*%
%TA.AperFunction,Conductor*%
%TO.N,/CH0*%
G36*
X194440912Y-98374427D02*
G01*
X194443186Y-98377634D01*
X195094950Y-99734586D01*
X195095442Y-99743528D01*
X195089469Y-99750199D01*
X195088892Y-99750457D01*
X194319489Y-100070134D01*
X194310534Y-100070143D01*
X194310511Y-100070134D01*
X193541107Y-99750457D01*
X193534782Y-99744118D01*
X193534791Y-99735163D01*
X193535049Y-99734586D01*
X194186814Y-98377634D01*
X194193485Y-98371661D01*
X194197361Y-98371000D01*
X194432639Y-98371000D01*
X194440912Y-98374427D01*
G37*
%TD.AperFunction*%
%TD*%
%TA.AperFunction,Conductor*%
%TO.N,Net-(U3-V_INB+)*%
G36*
X210596366Y-84354825D02*
G01*
X210601254Y-84360408D01*
X210692109Y-84577483D01*
X210692142Y-84586437D01*
X210692109Y-84586517D01*
X210601254Y-84803591D01*
X210594898Y-84809900D01*
X210587495Y-84810392D01*
X210201734Y-84709289D01*
X210194600Y-84703876D01*
X210193000Y-84697971D01*
X210193000Y-84466028D01*
X210196427Y-84457755D01*
X210201731Y-84454711D01*
X210587495Y-84353607D01*
X210596366Y-84354825D01*
G37*
%TD.AperFunction*%
%TD*%
%TA.AperFunction,Conductor*%
%TO.N,Net-(J5-Pin_1)*%
G36*
X193662044Y-93069253D02*
G01*
X193668206Y-93075239D01*
X193944747Y-93687928D01*
X193945027Y-93696878D01*
X193942356Y-93701014D01*
X193777014Y-93866356D01*
X193768741Y-93869783D01*
X193763928Y-93868747D01*
X193151239Y-93592206D01*
X193145108Y-93585679D01*
X193145232Y-93577090D01*
X193291437Y-93221802D01*
X193297753Y-93215457D01*
X193653090Y-93069232D01*
X193662044Y-93069253D01*
G37*
%TD.AperFunction*%
%TD*%
%TA.AperFunction,Conductor*%
%TO.N,Net-(U3-V_INB+)*%
G36*
X196444014Y-86981643D02*
G01*
X196609356Y-87146985D01*
X196612783Y-87155258D01*
X196611747Y-87160071D01*
X196335206Y-87772760D01*
X196328679Y-87778891D01*
X196320090Y-87778767D01*
X195964804Y-87632563D01*
X195958457Y-87626245D01*
X195958436Y-87626195D01*
X195812232Y-87270909D01*
X195812253Y-87261955D01*
X195818237Y-87255794D01*
X196430928Y-86979251D01*
X196439878Y-86978972D01*
X196444014Y-86981643D01*
G37*
%TD.AperFunction*%
%TD*%
%TA.AperFunction,Conductor*%
%TO.N,/CH0*%
G36*
X194319489Y-97531865D02*
G01*
X195088892Y-97851542D01*
X195095217Y-97857881D01*
X195095208Y-97866836D01*
X195094950Y-97867413D01*
X194443186Y-99224366D01*
X194436515Y-99230339D01*
X194432639Y-99231000D01*
X194197361Y-99231000D01*
X194189088Y-99227573D01*
X194186814Y-99224366D01*
X193535049Y-97867413D01*
X193534557Y-97858471D01*
X193540530Y-97851800D01*
X193541095Y-97851547D01*
X194310511Y-97531864D01*
X194319466Y-97531856D01*
X194319489Y-97531865D01*
G37*
%TD.AperFunction*%
%TD*%
%TA.AperFunction,Conductor*%
%TO.N,GND*%
G36*
X148892507Y-95294156D02*
G01*
X148852000Y-95432111D01*
X148852000Y-95575889D01*
X148892507Y-95713844D01*
X148918314Y-95754000D01*
X147245686Y-95754000D01*
X147271493Y-95713844D01*
X147312000Y-95575889D01*
X147312000Y-95432111D01*
X147271493Y-95294156D01*
X147245686Y-95254000D01*
X148918314Y-95254000D01*
X148892507Y-95294156D01*
G37*
%TD.AperFunction*%
%TA.AperFunction,Conductor*%
G36*
X218891039Y-81680685D02*
G01*
X218936794Y-81733489D01*
X218948000Y-81785000D01*
X218948000Y-101548638D01*
X218928315Y-101615677D01*
X218911681Y-101636319D01*
X218857319Y-101690681D01*
X218795996Y-101724166D01*
X218769638Y-101727000D01*
X142872000Y-101727000D01*
X142804961Y-101707315D01*
X142759206Y-101654511D01*
X142748000Y-101603000D01*
X142748000Y-98044000D01*
X145456341Y-98044000D01*
X145476936Y-98279403D01*
X145476938Y-98279413D01*
X145538094Y-98507655D01*
X145538096Y-98507659D01*
X145538097Y-98507663D01*
X145632703Y-98710546D01*
X145637965Y-98721830D01*
X145637967Y-98721834D01*
X145710063Y-98824797D01*
X145773505Y-98915401D01*
X145940599Y-99082495D01*
X146037384Y-99150265D01*
X146134165Y-99218032D01*
X146134167Y-99218033D01*
X146134170Y-99218035D01*
X146348337Y-99317903D01*
X146576592Y-99379063D01*
X146737821Y-99393169D01*
X146811999Y-99399659D01*
X146812000Y-99399659D01*
X146812001Y-99399659D01*
X146886156Y-99393171D01*
X147047408Y-99379063D01*
X147275663Y-99317903D01*
X147489830Y-99218035D01*
X147683401Y-99082495D01*
X147850495Y-98915401D01*
X147980425Y-98729842D01*
X148035002Y-98686217D01*
X148104500Y-98679023D01*
X148166855Y-98710546D01*
X148183575Y-98729842D01*
X148313500Y-98915395D01*
X148313505Y-98915401D01*
X148480599Y-99082495D01*
X148577384Y-99150265D01*
X148674165Y-99218032D01*
X148674167Y-99218033D01*
X148674170Y-99218035D01*
X148888337Y-99317903D01*
X149116592Y-99379063D01*
X149277821Y-99393169D01*
X149351999Y-99399659D01*
X149352000Y-99399659D01*
X149352001Y-99399659D01*
X149426156Y-99393171D01*
X149587408Y-99379063D01*
X149815663Y-99317903D01*
X150029830Y-99218035D01*
X150223401Y-99082495D01*
X150390495Y-98915401D01*
X150457296Y-98819999D01*
X163552127Y-98819999D01*
X163552128Y-98820000D01*
X164515314Y-98820000D01*
X164503359Y-98831955D01*
X164445835Y-98944852D01*
X164426014Y-99070000D01*
X164445835Y-99195148D01*
X164503359Y-99308045D01*
X164515314Y-99320000D01*
X163552128Y-99320000D01*
X163604730Y-99516317D01*
X163604734Y-99516326D01*
X163700865Y-99722482D01*
X163831342Y-99908820D01*
X163992179Y-100069657D01*
X164178517Y-100200134D01*
X164384673Y-100296265D01*
X164384682Y-100296269D01*
X164580999Y-100348872D01*
X164581000Y-100348871D01*
X164581000Y-99385686D01*
X164592955Y-99397641D01*
X164705852Y-99455165D01*
X164799519Y-99470000D01*
X164862481Y-99470000D01*
X164956148Y-99455165D01*
X165069045Y-99397641D01*
X165081000Y-99385686D01*
X165081000Y-100348872D01*
X165277317Y-100296269D01*
X165277326Y-100296265D01*
X165483482Y-100200134D01*
X165669820Y-100069657D01*
X165830657Y-99908820D01*
X165961132Y-99722484D01*
X165988341Y-99664134D01*
X166034513Y-99611695D01*
X166101707Y-99592542D01*
X166168588Y-99612757D01*
X166213105Y-99664132D01*
X166235088Y-99711275D01*
X166240431Y-99722732D01*
X166240432Y-99722734D01*
X166370954Y-99909141D01*
X166531858Y-100070045D01*
X166533222Y-100071000D01*
X166718266Y-100200568D01*
X166924504Y-100296739D01*
X167144308Y-100355635D01*
X167306230Y-100369801D01*
X167370998Y-100375468D01*
X167371000Y-100375468D01*
X167371002Y-100375468D01*
X167427673Y-100370509D01*
X167597692Y-100355635D01*
X167817496Y-100296739D01*
X168023734Y-100200568D01*
X168210139Y-100070047D01*
X168371047Y-99909139D01*
X168501568Y-99722734D01*
X168528618Y-99664724D01*
X168574790Y-99612285D01*
X168641983Y-99593133D01*
X168708865Y-99613348D01*
X168753381Y-99664724D01*
X168761712Y-99682589D01*
X168780429Y-99722728D01*
X168780432Y-99722734D01*
X168910954Y-99909141D01*
X169071858Y-100070045D01*
X169073222Y-100071000D01*
X169258266Y-100200568D01*
X169464504Y-100296739D01*
X169684308Y-100355635D01*
X169846230Y-100369801D01*
X169910998Y-100375468D01*
X169911000Y-100375468D01*
X169911002Y-100375468D01*
X169967673Y-100370509D01*
X170137692Y-100355635D01*
X170357496Y-100296739D01*
X170563734Y-100200568D01*
X170750139Y-100070047D01*
X170911047Y-99909139D01*
X171041568Y-99722734D01*
X171068618Y-99664724D01*
X171114790Y-99612285D01*
X171181983Y-99593133D01*
X171248865Y-99613348D01*
X171293381Y-99664724D01*
X171301712Y-99682589D01*
X171320429Y-99722728D01*
X171320432Y-99722734D01*
X171450954Y-99909141D01*
X171611858Y-100070045D01*
X171613222Y-100071000D01*
X171798266Y-100200568D01*
X172004504Y-100296739D01*
X172224308Y-100355635D01*
X172386230Y-100369801D01*
X172450998Y-100375468D01*
X172451000Y-100375468D01*
X172451002Y-100375468D01*
X172507673Y-100370509D01*
X172677692Y-100355635D01*
X172897496Y-100296739D01*
X173103734Y-100200568D01*
X173290139Y-100070047D01*
X173451047Y-99909139D01*
X173581568Y-99722734D01*
X173608618Y-99664724D01*
X173654790Y-99612285D01*
X173721983Y-99593133D01*
X173788865Y-99613348D01*
X173833381Y-99664724D01*
X173841712Y-99682589D01*
X173860429Y-99722728D01*
X173860432Y-99722734D01*
X173990954Y-99909141D01*
X174151858Y-100070045D01*
X174153222Y-100071000D01*
X174338266Y-100200568D01*
X174544504Y-100296739D01*
X174764308Y-100355635D01*
X174926230Y-100369801D01*
X174990998Y-100375468D01*
X174991000Y-100375468D01*
X174991002Y-100375468D01*
X175047673Y-100370509D01*
X175217692Y-100355635D01*
X175437496Y-100296739D01*
X175643734Y-100200568D01*
X175830139Y-100070047D01*
X175991047Y-99909139D01*
X176121568Y-99722734D01*
X176148895Y-99664129D01*
X176195064Y-99611695D01*
X176262257Y-99592542D01*
X176329139Y-99612757D01*
X176373657Y-99664133D01*
X176400865Y-99722482D01*
X176531342Y-99908820D01*
X176692179Y-100069657D01*
X176878517Y-100200134D01*
X177084673Y-100296265D01*
X177084682Y-100296269D01*
X177280999Y-100348872D01*
X177281000Y-100348871D01*
X177281000Y-99385686D01*
X177292955Y-99397641D01*
X177405852Y-99455165D01*
X177499519Y-99470000D01*
X177562481Y-99470000D01*
X177656148Y-99455165D01*
X177769045Y-99397641D01*
X177781000Y-99385686D01*
X177781000Y-100348872D01*
X177977317Y-100296269D01*
X177977326Y-100296265D01*
X178183482Y-100200134D01*
X178369820Y-100069657D01*
X178530657Y-99908820D01*
X178661132Y-99722484D01*
X178688341Y-99664134D01*
X178734513Y-99611695D01*
X178801707Y-99592542D01*
X178868588Y-99612757D01*
X178913105Y-99664132D01*
X178935088Y-99711275D01*
X178940431Y-99722732D01*
X178940432Y-99722734D01*
X179070954Y-99909141D01*
X179231858Y-100070045D01*
X179233222Y-100071000D01*
X179418266Y-100200568D01*
X179624504Y-100296739D01*
X179844308Y-100355635D01*
X180006230Y-100369801D01*
X180070998Y-100375468D01*
X180071000Y-100375468D01*
X180071002Y-100375468D01*
X180127673Y-100370509D01*
X180297692Y-100355635D01*
X180517496Y-100296739D01*
X180723734Y-100200568D01*
X180910139Y-100070047D01*
X181071047Y-99909139D01*
X181201568Y-99722734D01*
X181228618Y-99664724D01*
X181274790Y-99612285D01*
X181341983Y-99593133D01*
X181408865Y-99613348D01*
X181453381Y-99664724D01*
X181461712Y-99682589D01*
X181480429Y-99722728D01*
X181480432Y-99722734D01*
X181610954Y-99909141D01*
X181771858Y-100070045D01*
X181773222Y-100071000D01*
X181958266Y-100200568D01*
X182164504Y-100296739D01*
X182384308Y-100355635D01*
X182546230Y-100369801D01*
X182610998Y-100375468D01*
X182611000Y-100375468D01*
X182611002Y-100375468D01*
X182667673Y-100370509D01*
X182837692Y-100355635D01*
X183057496Y-100296739D01*
X183263734Y-100200568D01*
X183450139Y-100070047D01*
X183611047Y-99909139D01*
X183741568Y-99722734D01*
X183837739Y-99516496D01*
X183896635Y-99296692D01*
X183916468Y-99070000D01*
X183912093Y-99020000D01*
X187591678Y-99020000D01*
X187610923Y-99227691D01*
X187668007Y-99428322D01*
X187760980Y-99615037D01*
X187766326Y-99622117D01*
X187766327Y-99622117D01*
X188354601Y-99033844D01*
X188353217Y-99050558D01*
X188383121Y-99168646D01*
X188449748Y-99270626D01*
X188545877Y-99345447D01*
X188661092Y-99385000D01*
X188710553Y-99385000D01*
X188122788Y-99972763D01*
X188218171Y-100031822D01*
X188218172Y-100031823D01*
X188412670Y-100107171D01*
X188617710Y-100145500D01*
X188826290Y-100145500D01*
X189031329Y-100107171D01*
X189225827Y-100031823D01*
X189225831Y-100031821D01*
X189321209Y-99972764D01*
X189321209Y-99972763D01*
X188733448Y-99385000D01*
X188752245Y-99385000D01*
X188842154Y-99369997D01*
X188949288Y-99312019D01*
X189031791Y-99222397D01*
X189080724Y-99110841D01*
X189087279Y-99031726D01*
X189677671Y-99622118D01*
X189683016Y-99615042D01*
X189683018Y-99615038D01*
X189775992Y-99428322D01*
X189833076Y-99227691D01*
X189852322Y-99020000D01*
X189852322Y-99019999D01*
X189833076Y-98812308D01*
X189775992Y-98611677D01*
X189683018Y-98424961D01*
X189677672Y-98417881D01*
X189089398Y-99006154D01*
X189090783Y-98989442D01*
X189060879Y-98871354D01*
X188994252Y-98769374D01*
X188898123Y-98694553D01*
X188782908Y-98655000D01*
X188733447Y-98655000D01*
X189321210Y-98067235D01*
X189225826Y-98008176D01*
X189225825Y-98008175D01*
X189031329Y-97932828D01*
X188826290Y-97894500D01*
X188617710Y-97894500D01*
X188412670Y-97932828D01*
X188218174Y-98008175D01*
X188218168Y-98008179D01*
X188122789Y-98067234D01*
X188122788Y-98067235D01*
X188710554Y-98655000D01*
X188691755Y-98655000D01*
X188601846Y-98670003D01*
X188494712Y-98727981D01*
X188412209Y-98817603D01*
X188363276Y-98929159D01*
X188356720Y-99008273D01*
X187766327Y-98417880D01*
X187766326Y-98417881D01*
X187760981Y-98424960D01*
X187760979Y-98424965D01*
X187668007Y-98611677D01*
X187610923Y-98812308D01*
X187591678Y-99019999D01*
X187591678Y-99020000D01*
X183912093Y-99020000D01*
X183912093Y-99019999D01*
X183899976Y-98881499D01*
X183896635Y-98843308D01*
X183837739Y-98623504D01*
X183741568Y-98417266D01*
X183611047Y-98230861D01*
X183611045Y-98230858D01*
X183450141Y-98069954D01*
X183263734Y-97939432D01*
X183263732Y-97939431D01*
X183057497Y-97843261D01*
X183057488Y-97843258D01*
X182837697Y-97784366D01*
X182837693Y-97784365D01*
X182837692Y-97784365D01*
X182837691Y-97784364D01*
X182837686Y-97784364D01*
X182611002Y-97764532D01*
X182610998Y-97764532D01*
X182384313Y-97784364D01*
X182384302Y-97784366D01*
X182164511Y-97843258D01*
X182164502Y-97843261D01*
X181958267Y-97939431D01*
X181958265Y-97939432D01*
X181771858Y-98069954D01*
X181610956Y-98230856D01*
X181534961Y-98339389D01*
X181480384Y-98383013D01*
X181410885Y-98390206D01*
X181348531Y-98358684D01*
X181313117Y-98298454D01*
X181309850Y-98278976D01*
X181289300Y-98041816D01*
X181303124Y-97973329D01*
X181325152Y-97943436D01*
X182086772Y-97181819D01*
X182148095Y-97148334D01*
X182174453Y-97145500D01*
X187325356Y-97145500D01*
X187376023Y-97156324D01*
X188268426Y-97555835D01*
X188272051Y-97557396D01*
X188272051Y-97557395D01*
X188328831Y-97577916D01*
X188334925Y-97579443D01*
X188334830Y-97579820D01*
X188353008Y-97584594D01*
X188412535Y-97607656D01*
X188617661Y-97646000D01*
X188617664Y-97646000D01*
X188826336Y-97646000D01*
X188826339Y-97646000D01*
X189031465Y-97607656D01*
X189226052Y-97532272D01*
X189403474Y-97422417D01*
X189553217Y-97285908D01*
X189557687Y-97281833D01*
X189557689Y-97281831D01*
X189683446Y-97115302D01*
X189776462Y-96928501D01*
X189833570Y-96727788D01*
X189852824Y-96520000D01*
X189844866Y-96434123D01*
X189833570Y-96312212D01*
X189833569Y-96312210D01*
X189830830Y-96302584D01*
X189776462Y-96111499D01*
X189771050Y-96100631D01*
X189714921Y-95987908D01*
X189683446Y-95924698D01*
X189587670Y-95797870D01*
X189557687Y-95758166D01*
X189403474Y-95617583D01*
X189403472Y-95617581D01*
X189226055Y-95507729D01*
X189226049Y-95507726D01*
X189124956Y-95468563D01*
X189031465Y-95432344D01*
X188826339Y-95394000D01*
X188617661Y-95394000D01*
X188449077Y-95425513D01*
X188412529Y-95432345D01*
X188305151Y-95473944D01*
X188299775Y-95475749D01*
X188265117Y-95485644D01*
X188265113Y-95485646D01*
X187376020Y-95883676D01*
X187325353Y-95894500D01*
X181946743Y-95894500D01*
X181931122Y-95892775D01*
X181931096Y-95893061D01*
X181923334Y-95892327D01*
X181923333Y-95892327D01*
X181854186Y-95894500D01*
X181824649Y-95894500D01*
X181817766Y-95895369D01*
X181811949Y-95895826D01*
X181765373Y-95897290D01*
X181746129Y-95902881D01*
X181727079Y-95906825D01*
X181707211Y-95909334D01*
X181663884Y-95926488D01*
X181658358Y-95928379D01*
X181613614Y-95941379D01*
X181613610Y-95941381D01*
X181596366Y-95951579D01*
X181578905Y-95960133D01*
X181560274Y-95967510D01*
X181560262Y-95967517D01*
X181522570Y-95994902D01*
X181517687Y-95998109D01*
X181477580Y-96021829D01*
X181463414Y-96035995D01*
X181448624Y-96048627D01*
X181432414Y-96060404D01*
X181432411Y-96060407D01*
X181402710Y-96096309D01*
X181398777Y-96100631D01*
X180279389Y-97220019D01*
X180259632Y-97235475D01*
X180259800Y-97235713D01*
X180256185Y-97238258D01*
X179276678Y-98038364D01*
X179273017Y-98041135D01*
X179231857Y-98069955D01*
X179206645Y-98095166D01*
X179202032Y-98099338D01*
X179190580Y-98108694D01*
X179186757Y-98111981D01*
X179180890Y-98117027D01*
X179175303Y-98122082D01*
X179157288Y-98141132D01*
X179121258Y-98179234D01*
X179119762Y-98181215D01*
X179114142Y-98187671D01*
X179093767Y-98208045D01*
X179070955Y-98230858D01*
X179070948Y-98230866D01*
X178944026Y-98412133D01*
X178940432Y-98417266D01*
X178940315Y-98417518D01*
X178913106Y-98475867D01*
X178866933Y-98528306D01*
X178799739Y-98547457D01*
X178732858Y-98527241D01*
X178688342Y-98475865D01*
X178661135Y-98417520D01*
X178661134Y-98417518D01*
X178530657Y-98231179D01*
X178369820Y-98070342D01*
X178183482Y-97939865D01*
X177977328Y-97843734D01*
X177781000Y-97791127D01*
X177781000Y-98754314D01*
X177769045Y-98742359D01*
X177656148Y-98684835D01*
X177562481Y-98670000D01*
X177499519Y-98670000D01*
X177405852Y-98684835D01*
X177292955Y-98742359D01*
X177281000Y-98754314D01*
X177281000Y-97791127D01*
X177084671Y-97843734D01*
X176878517Y-97939865D01*
X176692179Y-98070342D01*
X176531342Y-98231179D01*
X176400867Y-98417515D01*
X176373657Y-98475867D01*
X176327484Y-98528306D01*
X176260290Y-98547457D01*
X176193409Y-98527241D01*
X176148893Y-98475865D01*
X176142180Y-98461470D01*
X176121568Y-98417266D01*
X175991047Y-98230861D01*
X175991045Y-98230858D01*
X175830141Y-98069954D01*
X175643734Y-97939432D01*
X175643732Y-97939431D01*
X175437497Y-97843261D01*
X175437488Y-97843258D01*
X175217697Y-97784366D01*
X175217693Y-97784365D01*
X175217692Y-97784365D01*
X175217691Y-97784364D01*
X175217686Y-97784364D01*
X174991002Y-97764532D01*
X174990998Y-97764532D01*
X174764313Y-97784364D01*
X174764302Y-97784366D01*
X174544511Y-97843258D01*
X174544502Y-97843261D01*
X174338267Y-97939431D01*
X174338265Y-97939432D01*
X174151858Y-98069954D01*
X173990954Y-98230858D01*
X173860432Y-98417265D01*
X173860431Y-98417267D01*
X173833382Y-98475275D01*
X173787209Y-98527714D01*
X173720016Y-98546866D01*
X173653135Y-98526650D01*
X173608618Y-98475275D01*
X173602180Y-98461469D01*
X173581568Y-98417266D01*
X173451047Y-98230861D01*
X173451045Y-98230858D01*
X173290141Y-98069954D01*
X173103734Y-97939432D01*
X173103732Y-97939431D01*
X172897497Y-97843261D01*
X172897488Y-97843258D01*
X172677697Y-97784366D01*
X172677693Y-97784365D01*
X172677692Y-97784365D01*
X172677691Y-97784364D01*
X172677686Y-97784364D01*
X172451002Y-97764532D01*
X172450998Y-97764532D01*
X172224313Y-97784364D01*
X172224302Y-97784366D01*
X172004511Y-97843258D01*
X172004502Y-97843261D01*
X171798267Y-97939431D01*
X171798265Y-97939432D01*
X171611858Y-98069954D01*
X171450954Y-98230858D01*
X171320432Y-98417265D01*
X171320431Y-98417267D01*
X171293382Y-98475275D01*
X171247209Y-98527714D01*
X171180016Y-98546866D01*
X171113135Y-98526650D01*
X171068618Y-98475275D01*
X171062180Y-98461469D01*
X171041568Y-98417266D01*
X170911047Y-98230861D01*
X170911045Y-98230858D01*
X170750141Y-98069954D01*
X170563734Y-97939432D01*
X170563732Y-97939431D01*
X170357497Y-97843261D01*
X170357488Y-97843258D01*
X170137697Y-97784366D01*
X170137693Y-97784365D01*
X170137692Y-97784365D01*
X170137691Y-97784364D01*
X170137686Y-97784364D01*
X169911002Y-97764532D01*
X169910998Y-97764532D01*
X169684313Y-97784364D01*
X169684302Y-97784366D01*
X169464511Y-97843258D01*
X169464502Y-97843261D01*
X169258267Y-97939431D01*
X169258265Y-97939432D01*
X169071858Y-98069954D01*
X168910954Y-98230858D01*
X168780432Y-98417265D01*
X168780431Y-98417267D01*
X168753382Y-98475275D01*
X168707209Y-98527714D01*
X168640016Y-98546866D01*
X168573135Y-98526650D01*
X168528618Y-98475275D01*
X168522180Y-98461469D01*
X168501568Y-98417266D01*
X168371047Y-98230861D01*
X168371045Y-98230858D01*
X168210141Y-98069954D01*
X168023734Y-97939432D01*
X168023732Y-97939431D01*
X167817497Y-97843261D01*
X167817488Y-97843258D01*
X167597697Y-97784366D01*
X167597693Y-97784365D01*
X167597692Y-97784365D01*
X167597691Y-97784364D01*
X167597686Y-97784364D01*
X167371002Y-97764532D01*
X167370998Y-97764532D01*
X167144313Y-97784364D01*
X167144302Y-97784366D01*
X166924511Y-97843258D01*
X166924502Y-97843261D01*
X166718267Y-97939431D01*
X166718265Y-97939432D01*
X166531858Y-98069954D01*
X166370954Y-98230858D01*
X166244026Y-98412133D01*
X166240432Y-98417266D01*
X166240315Y-98417518D01*
X166213106Y-98475867D01*
X166166933Y-98528306D01*
X166099739Y-98547457D01*
X166032858Y-98527241D01*
X165988342Y-98475865D01*
X165961135Y-98417520D01*
X165961134Y-98417518D01*
X165830657Y-98231179D01*
X165669820Y-98070342D01*
X165483482Y-97939865D01*
X165277328Y-97843734D01*
X165081000Y-97791127D01*
X165081000Y-98754314D01*
X165069045Y-98742359D01*
X164956148Y-98684835D01*
X164862481Y-98670000D01*
X164799519Y-98670000D01*
X164705852Y-98684835D01*
X164592955Y-98742359D01*
X164581000Y-98754314D01*
X164581000Y-97791127D01*
X164384671Y-97843734D01*
X164178517Y-97939865D01*
X163992179Y-98070342D01*
X163831342Y-98231179D01*
X163700865Y-98417517D01*
X163604734Y-98623673D01*
X163604730Y-98623682D01*
X163552127Y-98819999D01*
X150457296Y-98819999D01*
X150526035Y-98721830D01*
X150625903Y-98507663D01*
X150687063Y-98279408D01*
X150707659Y-98044000D01*
X150687063Y-97808592D01*
X150633223Y-97607655D01*
X150625905Y-97580344D01*
X150625904Y-97580343D01*
X150625903Y-97580337D01*
X150526035Y-97366171D01*
X150520425Y-97358158D01*
X150467100Y-97282002D01*
X155479185Y-97282002D01*
X155499009Y-97508599D01*
X155499011Y-97508610D01*
X155557881Y-97728317D01*
X155557885Y-97728326D01*
X155654016Y-97934481D01*
X155654017Y-97934483D01*
X155705124Y-98007471D01*
X155705125Y-98007472D01*
X156386197Y-97326399D01*
X156398986Y-97407148D01*
X156456510Y-97520045D01*
X156546106Y-97609641D01*
X156659003Y-97667165D01*
X156739750Y-97679953D01*
X156058677Y-98361025D01*
X156058677Y-98361026D01*
X156131663Y-98412131D01*
X156131667Y-98412133D01*
X156337824Y-98508265D01*
X156337833Y-98508269D01*
X156557540Y-98567139D01*
X156557551Y-98567141D01*
X156784149Y-98586966D01*
X156784153Y-98586966D01*
X157010750Y-98567141D01*
X157010761Y-98567139D01*
X157230468Y-98508269D01*
X157230482Y-98508264D01*
X157436629Y-98412136D01*
X157509623Y-98361025D01*
X157278468Y-98129870D01*
X158983651Y-98129870D01*
X158983652Y-98129876D01*
X158990059Y-98189483D01*
X159040353Y-98324328D01*
X159040357Y-98324335D01*
X159126603Y-98439544D01*
X159126606Y-98439547D01*
X159241815Y-98525793D01*
X159241822Y-98525797D01*
X159376668Y-98576091D01*
X159376667Y-98576091D01*
X159383595Y-98576835D01*
X159436278Y-98582500D01*
X161132023Y-98582499D01*
X161191634Y-98576091D01*
X161326482Y-98525796D01*
X161441697Y-98439546D01*
X161527947Y-98324331D01*
X161578242Y-98189483D01*
X161584651Y-98129873D01*
X161584650Y-96434128D01*
X161578242Y-96374517D01*
X161571695Y-96356964D01*
X161527948Y-96239671D01*
X161527944Y-96239664D01*
X161441698Y-96124455D01*
X161441695Y-96124452D01*
X161326486Y-96038206D01*
X161326479Y-96038202D01*
X161191633Y-95987908D01*
X161191634Y-95987908D01*
X161132034Y-95981501D01*
X161132032Y-95981500D01*
X161132024Y-95981500D01*
X161132015Y-95981500D01*
X159436280Y-95981500D01*
X159436274Y-95981501D01*
X159376667Y-95987908D01*
X159241822Y-96038202D01*
X159241815Y-96038206D01*
X159126606Y-96124452D01*
X159126603Y-96124455D01*
X159040357Y-96239664D01*
X159040353Y-96239671D01*
X158990059Y-96374517D01*
X158983652Y-96434116D01*
X158983652Y-96434123D01*
X158983651Y-96434135D01*
X158983651Y-98129870D01*
X157278468Y-98129870D01*
X156828552Y-97679953D01*
X156909299Y-97667165D01*
X157022196Y-97609641D01*
X157111792Y-97520045D01*
X157169316Y-97407148D01*
X157182104Y-97326400D01*
X157863176Y-98007472D01*
X157914287Y-97934478D01*
X158010415Y-97728331D01*
X158010420Y-97728317D01*
X158069290Y-97508610D01*
X158069292Y-97508599D01*
X158089117Y-97282002D01*
X158089117Y-97281997D01*
X158069292Y-97055400D01*
X158069290Y-97055389D01*
X158010420Y-96835682D01*
X158010416Y-96835673D01*
X157914284Y-96629516D01*
X157914282Y-96629512D01*
X157863177Y-96556526D01*
X157863176Y-96556526D01*
X157182104Y-97237598D01*
X157169316Y-97156852D01*
X157111792Y-97043955D01*
X157022196Y-96954359D01*
X156909299Y-96896835D01*
X156828551Y-96884046D01*
X157509623Y-96202974D01*
X157509622Y-96202973D01*
X157436634Y-96151866D01*
X157436632Y-96151865D01*
X157230477Y-96055734D01*
X157230468Y-96055730D01*
X157010761Y-95996860D01*
X157010750Y-95996858D01*
X156784153Y-95977034D01*
X156784149Y-95977034D01*
X156557551Y-95996858D01*
X156557540Y-95996860D01*
X156337833Y-96055730D01*
X156337824Y-96055734D01*
X156131664Y-96151868D01*
X156058678Y-96202972D01*
X156058677Y-96202973D01*
X156739751Y-96884046D01*
X156659003Y-96896835D01*
X156546106Y-96954359D01*
X156456510Y-97043955D01*
X156398986Y-97156852D01*
X156386197Y-97237599D01*
X155705124Y-96556526D01*
X155705123Y-96556527D01*
X155654019Y-96629513D01*
X155557885Y-96835673D01*
X155557881Y-96835682D01*
X155499011Y-97055389D01*
X155499009Y-97055400D01*
X155479185Y-97281997D01*
X155479185Y-97282002D01*
X150467100Y-97282002D01*
X150390494Y-97172597D01*
X150223402Y-97005506D01*
X150223401Y-97005505D01*
X150037405Y-96875269D01*
X149993781Y-96820692D01*
X149986588Y-96751193D01*
X150018110Y-96688839D01*
X150037405Y-96672119D01*
X150223082Y-96542105D01*
X150390105Y-96375082D01*
X150525600Y-96181578D01*
X150625429Y-95967492D01*
X150625432Y-95967486D01*
X150682636Y-95754000D01*
X149785686Y-95754000D01*
X149811493Y-95713844D01*
X149852000Y-95575889D01*
X149852000Y-95432111D01*
X149811493Y-95294156D01*
X149785686Y-95254000D01*
X150682636Y-95254000D01*
X150682635Y-95253999D01*
X150625432Y-95040513D01*
X150625429Y-95040507D01*
X150525600Y-94826422D01*
X150525599Y-94826420D01*
X150432436Y-94693370D01*
X187596000Y-94693370D01*
X187596001Y-94693376D01*
X187602408Y-94752983D01*
X187652702Y-94887828D01*
X187652706Y-94887835D01*
X187738952Y-95003044D01*
X187738955Y-95003047D01*
X187854164Y-95089293D01*
X187854171Y-95089297D01*
X187989017Y-95139591D01*
X187989016Y-95139591D01*
X187995944Y-95140335D01*
X188048627Y-95146000D01*
X189395372Y-95145999D01*
X189454983Y-95139591D01*
X189589831Y-95089296D01*
X189705046Y-95003046D01*
X189791296Y-94887831D01*
X189841591Y-94752983D01*
X189848000Y-94693373D01*
X189847999Y-93346628D01*
X189841591Y-93287017D01*
X189838008Y-93277411D01*
X189791297Y-93152171D01*
X189791293Y-93152164D01*
X189705047Y-93036955D01*
X189705044Y-93036952D01*
X189589835Y-92950706D01*
X189589828Y-92950702D01*
X189454982Y-92900408D01*
X189454983Y-92900408D01*
X189395383Y-92894001D01*
X189395381Y-92894000D01*
X189395373Y-92894000D01*
X189395364Y-92894000D01*
X188048629Y-92894000D01*
X188048623Y-92894001D01*
X187989016Y-92900408D01*
X187854171Y-92950702D01*
X187854164Y-92950706D01*
X187738955Y-93036952D01*
X187738952Y-93036955D01*
X187652706Y-93152164D01*
X187652702Y-93152171D01*
X187602408Y-93287017D01*
X187597139Y-93336029D01*
X187596001Y-93346623D01*
X187596000Y-93346635D01*
X187596000Y-94693370D01*
X150432436Y-94693370D01*
X150390113Y-94632926D01*
X150390108Y-94632920D01*
X150223078Y-94465890D01*
X150037405Y-94335879D01*
X149993780Y-94281302D01*
X149986588Y-94211804D01*
X150018110Y-94149449D01*
X150037406Y-94132730D01*
X150068147Y-94111205D01*
X150223401Y-94002495D01*
X150390495Y-93835401D01*
X150526035Y-93641830D01*
X150625903Y-93427663D01*
X150687063Y-93199408D01*
X150707659Y-92964000D01*
X150687063Y-92728592D01*
X150625903Y-92500337D01*
X150526035Y-92286171D01*
X150520425Y-92278158D01*
X150390494Y-92092597D01*
X150223402Y-91925506D01*
X150223396Y-91925501D01*
X150037842Y-91795575D01*
X149994217Y-91740998D01*
X149987023Y-91671500D01*
X150018546Y-91609145D01*
X150037842Y-91592425D01*
X150060026Y-91576891D01*
X150223401Y-91462495D01*
X150235895Y-91450001D01*
X163525532Y-91450001D01*
X163545364Y-91676686D01*
X163545366Y-91676697D01*
X163604258Y-91896488D01*
X163604261Y-91896497D01*
X163700431Y-92102732D01*
X163700432Y-92102734D01*
X163830954Y-92289141D01*
X163991858Y-92450045D01*
X163991861Y-92450047D01*
X164178266Y-92580568D01*
X164384504Y-92676739D01*
X164384509Y-92676740D01*
X164384511Y-92676741D01*
X164418264Y-92685785D01*
X164604308Y-92735635D01*
X164766230Y-92749801D01*
X164830998Y-92755468D01*
X164831000Y-92755468D01*
X164831002Y-92755468D01*
X164887807Y-92750498D01*
X165057692Y-92735635D01*
X165277496Y-92676739D01*
X165483734Y-92580568D01*
X165670139Y-92450047D01*
X165831047Y-92289139D01*
X165961568Y-92102734D01*
X165988618Y-92044724D01*
X166034790Y-91992285D01*
X166101983Y-91973133D01*
X166168865Y-91993348D01*
X166213382Y-92044725D01*
X166240429Y-92102728D01*
X166240432Y-92102734D01*
X166370954Y-92289141D01*
X166531858Y-92450045D01*
X166531861Y-92450047D01*
X166718266Y-92580568D01*
X166924504Y-92676739D01*
X166924509Y-92676740D01*
X166924511Y-92676741D01*
X166958264Y-92685785D01*
X167144308Y-92735635D01*
X167306230Y-92749801D01*
X167370998Y-92755468D01*
X167371000Y-92755468D01*
X167371002Y-92755468D01*
X167427807Y-92750498D01*
X167597692Y-92735635D01*
X167817496Y-92676739D01*
X168023734Y-92580568D01*
X168210139Y-92450047D01*
X168371047Y-92289139D01*
X168501568Y-92102734D01*
X168528618Y-92044724D01*
X168574790Y-91992285D01*
X168641983Y-91973133D01*
X168708865Y-91993348D01*
X168753382Y-92044725D01*
X168780429Y-92102728D01*
X168780432Y-92102734D01*
X168910954Y-92289141D01*
X169071858Y-92450045D01*
X169071861Y-92450047D01*
X169258266Y-92580568D01*
X169464504Y-92676739D01*
X169464509Y-92676740D01*
X169464511Y-92676741D01*
X169498264Y-92685785D01*
X169684308Y-92735635D01*
X169846230Y-92749801D01*
X169910998Y-92755468D01*
X169911000Y-92755468D01*
X169911002Y-92755468D01*
X169967807Y-92750498D01*
X170137692Y-92735635D01*
X170357496Y-92676739D01*
X170563734Y-92580568D01*
X170750139Y-92450047D01*
X170911047Y-92289139D01*
X171041568Y-92102734D01*
X171068618Y-92044724D01*
X171114790Y-91992285D01*
X171181983Y-91973133D01*
X171248865Y-91993348D01*
X171293382Y-92044725D01*
X171320429Y-92102728D01*
X171320432Y-92102734D01*
X171450954Y-92289141D01*
X171611858Y-92450045D01*
X171611861Y-92450047D01*
X171798266Y-92580568D01*
X172004504Y-92676739D01*
X172004509Y-92676740D01*
X172004511Y-92676741D01*
X172038264Y-92685785D01*
X172224308Y-92735635D01*
X172386230Y-92749801D01*
X172450998Y-92755468D01*
X172451000Y-92755468D01*
X172451002Y-92755468D01*
X172507807Y-92750498D01*
X172677692Y-92735635D01*
X172897496Y-92676739D01*
X173103734Y-92580568D01*
X173290139Y-92450047D01*
X173451047Y-92289139D01*
X173581568Y-92102734D01*
X173608618Y-92044724D01*
X173654790Y-91992285D01*
X173721983Y-91973133D01*
X173788865Y-91993348D01*
X173833382Y-92044725D01*
X173860429Y-92102728D01*
X173860432Y-92102734D01*
X173990954Y-92289141D01*
X174151858Y-92450045D01*
X174151861Y-92450047D01*
X174338266Y-92580568D01*
X174544504Y-92676739D01*
X174544509Y-92676740D01*
X174544511Y-92676741D01*
X174578264Y-92685785D01*
X174764308Y-92735635D01*
X174926230Y-92749801D01*
X174990998Y-92755468D01*
X174991000Y-92755468D01*
X174991002Y-92755468D01*
X175047807Y-92750498D01*
X175217692Y-92735635D01*
X175437496Y-92676739D01*
X175643734Y-92580568D01*
X175830139Y-92450047D01*
X175991047Y-92289139D01*
X176121568Y-92102734D01*
X176148618Y-92044724D01*
X176194790Y-91992285D01*
X176261983Y-91973133D01*
X176328865Y-91993348D01*
X176373382Y-92044725D01*
X176400429Y-92102728D01*
X176400432Y-92102734D01*
X176530954Y-92289141D01*
X176691858Y-92450045D01*
X176691861Y-92450047D01*
X176878266Y-92580568D01*
X177084504Y-92676739D01*
X177084509Y-92676740D01*
X177084511Y-92676741D01*
X177118264Y-92685785D01*
X177304308Y-92735635D01*
X177466230Y-92749801D01*
X177530998Y-92755468D01*
X177531000Y-92755468D01*
X177531002Y-92755468D01*
X177587807Y-92750498D01*
X177757692Y-92735635D01*
X177977496Y-92676739D01*
X178183734Y-92580568D01*
X178370139Y-92450047D01*
X178531047Y-92289139D01*
X178661568Y-92102734D01*
X178688618Y-92044724D01*
X178734790Y-91992285D01*
X178801983Y-91973133D01*
X178868865Y-91993348D01*
X178913382Y-92044725D01*
X178940429Y-92102728D01*
X178940432Y-92102734D01*
X179070954Y-92289141D01*
X179231858Y-92450045D01*
X179231861Y-92450047D01*
X179418266Y-92580568D01*
X179624504Y-92676739D01*
X179624509Y-92676740D01*
X179624511Y-92676741D01*
X179658264Y-92685785D01*
X179844308Y-92735635D01*
X180006230Y-92749801D01*
X180070998Y-92755468D01*
X180071000Y-92755468D01*
X180071002Y-92755468D01*
X180127807Y-92750498D01*
X180297692Y-92735635D01*
X180517496Y-92676739D01*
X180723734Y-92580568D01*
X180910139Y-92450047D01*
X181071047Y-92289139D01*
X181088272Y-92264539D01*
X181142848Y-92220913D01*
X181212346Y-92213718D01*
X181274701Y-92245239D01*
X181310116Y-92305468D01*
X181313138Y-92322406D01*
X181316908Y-92357483D01*
X181367202Y-92492328D01*
X181367206Y-92492335D01*
X181453452Y-92607544D01*
X181453455Y-92607547D01*
X181568664Y-92693793D01*
X181568671Y-92693797D01*
X181703517Y-92744091D01*
X181703516Y-92744091D01*
X181710444Y-92744835D01*
X181763127Y-92750500D01*
X183458872Y-92750499D01*
X183518483Y-92744091D01*
X183653331Y-92693796D01*
X183768546Y-92607546D01*
X183854796Y-92492331D01*
X183905091Y-92357483D01*
X183911500Y-92297873D01*
X183911499Y-90602128D01*
X183905091Y-90542517D01*
X183870567Y-90449954D01*
X183854797Y-90407671D01*
X183854793Y-90407664D01*
X183768547Y-90292455D01*
X183768544Y-90292452D01*
X183653335Y-90206206D01*
X183653328Y-90206202D01*
X183518482Y-90155908D01*
X183518483Y-90155908D01*
X183458883Y-90149501D01*
X183458881Y-90149500D01*
X183458873Y-90149500D01*
X183458864Y-90149500D01*
X181763129Y-90149500D01*
X181763123Y-90149501D01*
X181703516Y-90155908D01*
X181568671Y-90206202D01*
X181568664Y-90206206D01*
X181453455Y-90292452D01*
X181453452Y-90292455D01*
X181367206Y-90407664D01*
X181367202Y-90407671D01*
X181316908Y-90542516D01*
X181313137Y-90577596D01*
X181286398Y-90642146D01*
X181229006Y-90681994D01*
X181159180Y-90684487D01*
X181099092Y-90648834D01*
X181088273Y-90635462D01*
X181071045Y-90610858D01*
X180910141Y-90449954D01*
X180723734Y-90319432D01*
X180723732Y-90319431D01*
X180517497Y-90223261D01*
X180517488Y-90223258D01*
X180297697Y-90164366D01*
X180297693Y-90164365D01*
X180297692Y-90164365D01*
X180297691Y-90164364D01*
X180297686Y-90164364D01*
X180071002Y-90144532D01*
X180070998Y-90144532D01*
X179844313Y-90164364D01*
X179844302Y-90164366D01*
X179624511Y-90223258D01*
X179624502Y-90223261D01*
X179418267Y-90319431D01*
X179418265Y-90319432D01*
X179231858Y-90449954D01*
X179070954Y-90610858D01*
X178940432Y-90797265D01*
X178940431Y-90797267D01*
X178913382Y-90855275D01*
X178867209Y-90907714D01*
X178800016Y-90926866D01*
X178733135Y-90906650D01*
X178688618Y-90855275D01*
X178661568Y-90797267D01*
X178661567Y-90797265D01*
X178531045Y-90610858D01*
X178370141Y-90449954D01*
X178183734Y-90319432D01*
X178183732Y-90319431D01*
X177977497Y-90223261D01*
X177977488Y-90223258D01*
X177757697Y-90164366D01*
X177757693Y-90164365D01*
X177757692Y-90164365D01*
X177757691Y-90164364D01*
X177757686Y-90164364D01*
X177531002Y-90144532D01*
X177530998Y-90144532D01*
X177304313Y-90164364D01*
X177304302Y-90164366D01*
X177084511Y-90223258D01*
X177084502Y-90223261D01*
X176878267Y-90319431D01*
X176878265Y-90319432D01*
X176691858Y-90449954D01*
X176530954Y-90610858D01*
X176400432Y-90797265D01*
X176400431Y-90797267D01*
X176373382Y-90855275D01*
X176327209Y-90907714D01*
X176260016Y-90926866D01*
X176193135Y-90906650D01*
X176148618Y-90855275D01*
X176121568Y-90797267D01*
X176121567Y-90797265D01*
X175991045Y-90610858D01*
X175830141Y-90449954D01*
X175643734Y-90319432D01*
X175643732Y-90319431D01*
X175437497Y-90223261D01*
X175437488Y-90223258D01*
X175217697Y-90164366D01*
X175217693Y-90164365D01*
X175217692Y-90164365D01*
X175217691Y-90164364D01*
X175217686Y-90164364D01*
X174991002Y-90144532D01*
X174990998Y-90144532D01*
X174764313Y-90164364D01*
X174764302Y-90164366D01*
X174544511Y-90223258D01*
X174544502Y-90223261D01*
X174338267Y-90319431D01*
X174338265Y-90319432D01*
X174151858Y-90449954D01*
X173990954Y-90610858D01*
X173860432Y-90797265D01*
X173860431Y-90797267D01*
X173833382Y-90855275D01*
X173787209Y-90907714D01*
X173720016Y-90926866D01*
X173653135Y-90906650D01*
X173608618Y-90855275D01*
X173581568Y-90797267D01*
X173581567Y-90797265D01*
X173451045Y-90610858D01*
X173290141Y-90449954D01*
X173103734Y-90319432D01*
X173103732Y-90319431D01*
X172897497Y-90223261D01*
X172897488Y-90223258D01*
X172677697Y-90164366D01*
X172677693Y-90164365D01*
X172677692Y-90164365D01*
X172677691Y-90164364D01*
X172677686Y-90164364D01*
X172451002Y-90144532D01*
X172450998Y-90144532D01*
X172224313Y-90164364D01*
X172224302Y-90164366D01*
X172004511Y-90223258D01*
X172004502Y-90223261D01*
X171798267Y-90319431D01*
X171798265Y-90319432D01*
X171611858Y-90449954D01*
X171450954Y-90610858D01*
X171320432Y-90797265D01*
X171320431Y-90797267D01*
X171293382Y-90855275D01*
X171247209Y-90907714D01*
X171180016Y-90926866D01*
X171113135Y-90906650D01*
X171068618Y-90855275D01*
X171041568Y-90797267D01*
X171041567Y-90797265D01*
X170911045Y-90610858D01*
X170750141Y-90449954D01*
X170563734Y-90319432D01*
X170563732Y-90319431D01*
X170357497Y-90223261D01*
X170357488Y-90223258D01*
X170137697Y-90164366D01*
X170137693Y-90164365D01*
X170137692Y-90164365D01*
X170137691Y-90164364D01*
X170137686Y-90164364D01*
X169911002Y-90144532D01*
X169910998Y-90144532D01*
X169684313Y-90164364D01*
X169684302Y-90164366D01*
X169464511Y-90223258D01*
X169464502Y-90223261D01*
X169258267Y-90319431D01*
X169258265Y-90319432D01*
X169071858Y-90449954D01*
X168910954Y-90610858D01*
X168780432Y-90797265D01*
X168780431Y-90797267D01*
X168753382Y-90855275D01*
X168707209Y-90907714D01*
X168640016Y-90926866D01*
X168573135Y-90906650D01*
X168528618Y-90855275D01*
X168501568Y-90797267D01*
X168501567Y-90797265D01*
X168371045Y-90610858D01*
X168210141Y-90449954D01*
X168023734Y-90319432D01*
X168023732Y-90319431D01*
X167817497Y-90223261D01*
X167817488Y-90223258D01*
X167597697Y-90164366D01*
X167597693Y-90164365D01*
X167597692Y-90164365D01*
X167597691Y-90164364D01*
X167597686Y-90164364D01*
X167371002Y-90144532D01*
X167370998Y-90144532D01*
X167144313Y-90164364D01*
X167144302Y-90164366D01*
X166924511Y-90223258D01*
X166924502Y-90223261D01*
X166718267Y-90319431D01*
X166718265Y-90319432D01*
X166531858Y-90449954D01*
X166370954Y-90610858D01*
X166240432Y-90797265D01*
X166240431Y-90797267D01*
X166213382Y-90855275D01*
X166167209Y-90907714D01*
X166100016Y-90926866D01*
X166033135Y-90906650D01*
X165988618Y-90855275D01*
X165961568Y-90797267D01*
X165961567Y-90797265D01*
X165831045Y-90610858D01*
X165670141Y-90449954D01*
X165483734Y-90319432D01*
X165483732Y-90319431D01*
X165277497Y-90223261D01*
X165277488Y-90223258D01*
X165057697Y-90164366D01*
X165057693Y-90164365D01*
X165057692Y-90164365D01*
X165057691Y-90164364D01*
X165057686Y-90164364D01*
X164831002Y-90144532D01*
X164830998Y-90144532D01*
X164604313Y-90164364D01*
X164604302Y-90164366D01*
X164384511Y-90223258D01*
X164384502Y-90223261D01*
X164178267Y-90319431D01*
X164178265Y-90319432D01*
X163991858Y-90449954D01*
X163830954Y-90610858D01*
X163700432Y-90797265D01*
X163700431Y-90797267D01*
X163604261Y-91003502D01*
X163604258Y-91003511D01*
X163545366Y-91223302D01*
X163545364Y-91223313D01*
X163525532Y-91449998D01*
X163525532Y-91450001D01*
X150235895Y-91450001D01*
X150390495Y-91295401D01*
X150526035Y-91101830D01*
X150625903Y-90887663D01*
X150687063Y-90659408D01*
X150707659Y-90424000D01*
X150687063Y-90188592D01*
X150640626Y-90015285D01*
X150625905Y-89960344D01*
X150625904Y-89960343D01*
X150625903Y-89960337D01*
X150526035Y-89746171D01*
X150520425Y-89738158D01*
X150390494Y-89552597D01*
X150223402Y-89385506D01*
X150223396Y-89385501D01*
X150037842Y-89255575D01*
X149994217Y-89200998D01*
X149987023Y-89131500D01*
X150018546Y-89069145D01*
X150037842Y-89052425D01*
X150169951Y-88959921D01*
X150223401Y-88922495D01*
X150390495Y-88755401D01*
X150526035Y-88561830D01*
X150625903Y-88347663D01*
X150687063Y-88119408D01*
X150707659Y-87884000D01*
X150687063Y-87648592D01*
X150631638Y-87441740D01*
X150625905Y-87420344D01*
X150625904Y-87420343D01*
X150625903Y-87420337D01*
X150526035Y-87206171D01*
X150520424Y-87198158D01*
X150390496Y-87012600D01*
X150329654Y-86951758D01*
X150327766Y-86949870D01*
X154151500Y-86949870D01*
X154151501Y-86949876D01*
X154157908Y-87009483D01*
X154208202Y-87144328D01*
X154208206Y-87144335D01*
X154294452Y-87259544D01*
X154294455Y-87259547D01*
X154409664Y-87345793D01*
X154409671Y-87345797D01*
X154544517Y-87396091D01*
X154544516Y-87396091D01*
X154551444Y-87396835D01*
X154604127Y-87402500D01*
X156799872Y-87402499D01*
X156859483Y-87396091D01*
X156994331Y-87345796D01*
X157109546Y-87259546D01*
X157195796Y-87144331D01*
X157246091Y-87009483D01*
X157252500Y-86949873D01*
X157252499Y-85852000D01*
X159226706Y-85852000D01*
X159245853Y-86095297D01*
X159245853Y-86095300D01*
X159245854Y-86095302D01*
X159295354Y-86301483D01*
X159302830Y-86332619D01*
X159396222Y-86558089D01*
X159523737Y-86766173D01*
X159523738Y-86766176D01*
X159576981Y-86828515D01*
X159682241Y-86951759D01*
X159753476Y-87012599D01*
X159867823Y-87110261D01*
X159867826Y-87110262D01*
X160075910Y-87237777D01*
X160301381Y-87331169D01*
X160301378Y-87331169D01*
X160301384Y-87331170D01*
X160301388Y-87331172D01*
X160538698Y-87388146D01*
X160782000Y-87407294D01*
X161025302Y-87388146D01*
X161262612Y-87331172D01*
X161488089Y-87237777D01*
X161696179Y-87110259D01*
X161881759Y-86951759D01*
X162040259Y-86766179D01*
X162167777Y-86558089D01*
X162261172Y-86332612D01*
X162318146Y-86095302D01*
X162337294Y-85852000D01*
X164306706Y-85852000D01*
X164325853Y-86095297D01*
X164325853Y-86095300D01*
X164325854Y-86095302D01*
X164375354Y-86301483D01*
X164382830Y-86332619D01*
X164476222Y-86558089D01*
X164603737Y-86766173D01*
X164603738Y-86766176D01*
X164656981Y-86828515D01*
X164762241Y-86951759D01*
X164833476Y-87012599D01*
X164947823Y-87110261D01*
X164947826Y-87110262D01*
X165155910Y-87237777D01*
X165381381Y-87331169D01*
X165381378Y-87331169D01*
X165381384Y-87331170D01*
X165381388Y-87331172D01*
X165618698Y-87388146D01*
X165862000Y-87407294D01*
X166105302Y-87388146D01*
X166342612Y-87331172D01*
X166568089Y-87237777D01*
X166776179Y-87110259D01*
X166961759Y-86951759D01*
X167120259Y-86766179D01*
X167247777Y-86558089D01*
X167341172Y-86332612D01*
X167398146Y-86095302D01*
X167417294Y-85852000D01*
X169386706Y-85852000D01*
X169405853Y-86095297D01*
X169405853Y-86095300D01*
X169405854Y-86095302D01*
X169455354Y-86301483D01*
X169462830Y-86332619D01*
X169556222Y-86558089D01*
X169683737Y-86766173D01*
X169683738Y-86766176D01*
X169736981Y-86828515D01*
X169842241Y-86951759D01*
X169913476Y-87012599D01*
X170027823Y-87110261D01*
X170027826Y-87110262D01*
X170235910Y-87237777D01*
X170461381Y-87331169D01*
X170461378Y-87331169D01*
X170461384Y-87331170D01*
X170461388Y-87331172D01*
X170698698Y-87388146D01*
X170942000Y-87407294D01*
X171185302Y-87388146D01*
X171422612Y-87331172D01*
X171648089Y-87237777D01*
X171856179Y-87110259D01*
X172041759Y-86951759D01*
X172200259Y-86766179D01*
X172327777Y-86558089D01*
X172421172Y-86332612D01*
X172478146Y-86095302D01*
X172497294Y-85852000D01*
X174466706Y-85852000D01*
X174485853Y-86095297D01*
X174485853Y-86095300D01*
X174485854Y-86095302D01*
X174535354Y-86301483D01*
X174542830Y-86332619D01*
X174636222Y-86558089D01*
X174763737Y-86766173D01*
X174763738Y-86766176D01*
X174816981Y-86828515D01*
X174922241Y-86951759D01*
X174993476Y-87012599D01*
X175107823Y-87110261D01*
X175107826Y-87110262D01*
X175315910Y-87237777D01*
X175541381Y-87331169D01*
X175541378Y-87331169D01*
X175541384Y-87331170D01*
X175541388Y-87331172D01*
X175778698Y-87388146D01*
X176022000Y-87407294D01*
X176265302Y-87388146D01*
X176502612Y-87331172D01*
X176728089Y-87237777D01*
X176936179Y-87110259D01*
X177121759Y-86951759D01*
X177280259Y-86766179D01*
X177407777Y-86558089D01*
X177501172Y-86332612D01*
X177558146Y-86095302D01*
X177577294Y-85852000D01*
X179546706Y-85852000D01*
X179565853Y-86095297D01*
X179565853Y-86095300D01*
X179565854Y-86095302D01*
X179615354Y-86301483D01*
X179622830Y-86332619D01*
X179716222Y-86558089D01*
X179843737Y-86766173D01*
X179843738Y-86766176D01*
X179896981Y-86828515D01*
X180002241Y-86951759D01*
X180073476Y-87012599D01*
X180187823Y-87110261D01*
X180187826Y-87110262D01*
X180395910Y-87237777D01*
X180621381Y-87331169D01*
X180621378Y-87331169D01*
X180621384Y-87331170D01*
X180621388Y-87331172D01*
X180858698Y-87388146D01*
X181102000Y-87407294D01*
X181345302Y-87388146D01*
X181582612Y-87331172D01*
X181808089Y-87237777D01*
X182016179Y-87110259D01*
X182201759Y-86951759D01*
X182360259Y-86766179D01*
X182487777Y-86558089D01*
X182581172Y-86332612D01*
X182638146Y-86095302D01*
X182657294Y-85852000D01*
X184626706Y-85852000D01*
X184645853Y-86095297D01*
X184645853Y-86095300D01*
X184645854Y-86095302D01*
X184695354Y-86301483D01*
X184702830Y-86332619D01*
X184796222Y-86558089D01*
X184923737Y-86766173D01*
X184923738Y-86766176D01*
X184976981Y-86828515D01*
X185082241Y-86951759D01*
X185153476Y-87012599D01*
X185267823Y-87110261D01*
X185267826Y-87110262D01*
X185475910Y-87237777D01*
X185701381Y-87331169D01*
X185701378Y-87331169D01*
X185701384Y-87331170D01*
X185701388Y-87331172D01*
X185938698Y-87388146D01*
X186182000Y-87407294D01*
X186425302Y-87388146D01*
X186662612Y-87331172D01*
X186888089Y-87237777D01*
X187096179Y-87110259D01*
X187281759Y-86951759D01*
X187440259Y-86766179D01*
X187567777Y-86558089D01*
X187661172Y-86332612D01*
X187718146Y-86095302D01*
X187737294Y-85852000D01*
X189706706Y-85852000D01*
X189725853Y-86095297D01*
X189725853Y-86095300D01*
X189725854Y-86095302D01*
X189775354Y-86301483D01*
X189782830Y-86332619D01*
X189834966Y-86458487D01*
X189836321Y-86462066D01*
X189847889Y-86495731D01*
X189859777Y-86518919D01*
X189861887Y-86523481D01*
X189876222Y-86558089D01*
X189876223Y-86558090D01*
X189897279Y-86592448D01*
X189899573Y-86596532D01*
X190618295Y-87998284D01*
X190622841Y-88007150D01*
X190636500Y-88063725D01*
X190636500Y-94395255D01*
X190634775Y-94410872D01*
X190635061Y-94410899D01*
X190634326Y-94418665D01*
X190636500Y-94487814D01*
X190636500Y-94517343D01*
X190636501Y-94517360D01*
X190637368Y-94524231D01*
X190637826Y-94530050D01*
X190639290Y-94576624D01*
X190639291Y-94576627D01*
X190644880Y-94595867D01*
X190648824Y-94614911D01*
X190651100Y-94632920D01*
X190651336Y-94634791D01*
X190668490Y-94678119D01*
X190670382Y-94683647D01*
X190683381Y-94728388D01*
X190693580Y-94745634D01*
X190702136Y-94763100D01*
X190704069Y-94767980D01*
X190709514Y-94781732D01*
X190736898Y-94819423D01*
X190740106Y-94824307D01*
X190763827Y-94864416D01*
X190763833Y-94864424D01*
X190777990Y-94878580D01*
X190790628Y-94893376D01*
X190802405Y-94909586D01*
X190802406Y-94909587D01*
X190838309Y-94939288D01*
X190842620Y-94943210D01*
X192136611Y-96237202D01*
X192561903Y-96662494D01*
X192591222Y-96709101D01*
X193035676Y-97975124D01*
X193037063Y-97979613D01*
X193041097Y-97994663D01*
X193045628Y-98004382D01*
X193047936Y-98010046D01*
X193050884Y-98018441D01*
X193050885Y-98018443D01*
X193053516Y-98025341D01*
X193072806Y-98067235D01*
X193073012Y-98067682D01*
X193075835Y-98075000D01*
X193079385Y-98086275D01*
X193396891Y-98747312D01*
X193408173Y-98816265D01*
X193396891Y-98854686D01*
X193119973Y-99431221D01*
X193076397Y-99521945D01*
X193073322Y-99528822D01*
X193073321Y-99528825D01*
X193073321Y-99528824D01*
X193057565Y-99571515D01*
X193055592Y-99576249D01*
X193041099Y-99607333D01*
X193041095Y-99607343D01*
X192979938Y-99835586D01*
X192979936Y-99835596D01*
X192959341Y-100070999D01*
X192959341Y-100071000D01*
X192979936Y-100306403D01*
X192979938Y-100306413D01*
X193041094Y-100534655D01*
X193041096Y-100534659D01*
X193041097Y-100534663D01*
X193121004Y-100706023D01*
X193140965Y-100748830D01*
X193140967Y-100748834D01*
X193197801Y-100830000D01*
X193276505Y-100942401D01*
X193443599Y-101109495D01*
X193540384Y-101177265D01*
X193637165Y-101245032D01*
X193637167Y-101245033D01*
X193637170Y-101245035D01*
X193851337Y-101344903D01*
X194079592Y-101406063D01*
X194267918Y-101422539D01*
X194314999Y-101426659D01*
X194315000Y-101426659D01*
X194315001Y-101426659D01*
X194354234Y-101423226D01*
X194550408Y-101406063D01*
X194778663Y-101344903D01*
X194992830Y-101245035D01*
X195186401Y-101109495D01*
X195353495Y-100942401D01*
X195483425Y-100756842D01*
X195538002Y-100713217D01*
X195607500Y-100706023D01*
X195669855Y-100737546D01*
X195686575Y-100756842D01*
X195816500Y-100942395D01*
X195816505Y-100942401D01*
X195983599Y-101109495D01*
X196080384Y-101177265D01*
X196177165Y-101245032D01*
X196177167Y-101245033D01*
X196177170Y-101245035D01*
X196391337Y-101344903D01*
X196619592Y-101406063D01*
X196807918Y-101422539D01*
X196854999Y-101426659D01*
X196855000Y-101426659D01*
X196855001Y-101426659D01*
X196894234Y-101423226D01*
X197090408Y-101406063D01*
X197318663Y-101344903D01*
X197532830Y-101245035D01*
X197726401Y-101109495D01*
X197893495Y-100942401D01*
X198029035Y-100748830D01*
X198128903Y-100534663D01*
X198190063Y-100306408D01*
X198210659Y-100071000D01*
X198210575Y-100070045D01*
X198197652Y-99922331D01*
X198190063Y-99835592D01*
X198161200Y-99727870D01*
X205369500Y-99727870D01*
X205369501Y-99727876D01*
X205375908Y-99787483D01*
X205426202Y-99922328D01*
X205426206Y-99922335D01*
X205512452Y-100037544D01*
X205512455Y-100037547D01*
X205627664Y-100123793D01*
X205627671Y-100123797D01*
X205762517Y-100174091D01*
X205762516Y-100174091D01*
X205769444Y-100174835D01*
X205822127Y-100180500D01*
X207817872Y-100180499D01*
X207877483Y-100174091D01*
X208012331Y-100123796D01*
X208127546Y-100037546D01*
X208213796Y-99922331D01*
X208264091Y-99787483D01*
X208270500Y-99727873D01*
X208270500Y-99023933D01*
X210065668Y-99023933D01*
X210081058Y-99111210D01*
X210096135Y-99196711D01*
X210165623Y-99357804D01*
X210165624Y-99357806D01*
X210165626Y-99357809D01*
X210220278Y-99431218D01*
X210270390Y-99498530D01*
X210404786Y-99611302D01*
X210426321Y-99622117D01*
X210561562Y-99690038D01*
X210561563Y-99690038D01*
X210561567Y-99690040D01*
X210732279Y-99730500D01*
X210732282Y-99730500D01*
X210863701Y-99730500D01*
X210863709Y-99730500D01*
X210994255Y-99715241D01*
X211159117Y-99655237D01*
X211305696Y-99558830D01*
X211426092Y-99431218D01*
X211455661Y-99380002D01*
X212865031Y-99380002D01*
X212884874Y-99619476D01*
X212943865Y-99852428D01*
X213040391Y-100072485D01*
X213132688Y-100213757D01*
X213757226Y-99589219D01*
X213795901Y-99682588D01*
X213892075Y-99807925D01*
X214017412Y-99904099D01*
X214110779Y-99942772D01*
X213485572Y-100567979D01*
X213485573Y-100567980D01*
X213524204Y-100598048D01*
X213524205Y-100598049D01*
X213735544Y-100712421D01*
X213735550Y-100712423D01*
X213962823Y-100790446D01*
X214199851Y-100830000D01*
X214440149Y-100830000D01*
X214677176Y-100790446D01*
X214904449Y-100712423D01*
X214904455Y-100712421D01*
X215115795Y-100598049D01*
X215115798Y-100598047D01*
X215154425Y-100567980D01*
X215154425Y-100567979D01*
X214529220Y-99942772D01*
X214622588Y-99904099D01*
X214747925Y-99807925D01*
X214844099Y-99682589D01*
X214882773Y-99589220D01*
X215507310Y-100213757D01*
X215599606Y-100072490D01*
X215696134Y-99852428D01*
X215755125Y-99619476D01*
X215774969Y-99380002D01*
X215774969Y-99379994D01*
X215755125Y-99140523D01*
X215696134Y-98907571D01*
X215599608Y-98687514D01*
X215507310Y-98546241D01*
X214882772Y-99170779D01*
X214844099Y-99077412D01*
X214747925Y-98952075D01*
X214622588Y-98855901D01*
X214529219Y-98817226D01*
X215154426Y-98192019D01*
X215154425Y-98192018D01*
X215115794Y-98161950D01*
X214904455Y-98047578D01*
X214904449Y-98047576D01*
X214677176Y-97969553D01*
X214440149Y-97930000D01*
X214199851Y-97930000D01*
X213962823Y-97969553D01*
X213735550Y-98047576D01*
X213735544Y-98047578D01*
X213524204Y-98161950D01*
X213524198Y-98161954D01*
X213485573Y-98192017D01*
X213485573Y-98192019D01*
X214110780Y-98817226D01*
X214017412Y-98855901D01*
X213892075Y-98952075D01*
X213795901Y-99077411D01*
X213757226Y-99170780D01*
X213132687Y-98546241D01*
X213040392Y-98687511D01*
X212943865Y-98907571D01*
X212884874Y-99140523D01*
X212865031Y-99379994D01*
X212865031Y-99380002D01*
X211455661Y-99380002D01*
X211513812Y-99279281D01*
X211564130Y-99111210D01*
X211574331Y-98936065D01*
X211543865Y-98763289D01*
X211474377Y-98602196D01*
X211459712Y-98582498D01*
X211399000Y-98500947D01*
X211369610Y-98461470D01*
X211330774Y-98428883D01*
X211235214Y-98348698D01*
X211235212Y-98348697D01*
X211078437Y-98269961D01*
X211078433Y-98269960D01*
X210907721Y-98229500D01*
X210776291Y-98229500D01*
X210671854Y-98241707D01*
X210645743Y-98244759D01*
X210645740Y-98244760D01*
X210480884Y-98304762D01*
X210480880Y-98304764D01*
X210334306Y-98401167D01*
X210334305Y-98401168D01*
X210213910Y-98528778D01*
X210126188Y-98680718D01*
X210075870Y-98848789D01*
X210075869Y-98848794D01*
X210065668Y-99023933D01*
X208270500Y-99023933D01*
X208270499Y-97732128D01*
X208264091Y-97672517D01*
X208250304Y-97635553D01*
X208213797Y-97537671D01*
X208213793Y-97537664D01*
X208127547Y-97422455D01*
X208127544Y-97422452D01*
X208012335Y-97336206D01*
X208012328Y-97336202D01*
X207877482Y-97285908D01*
X207877483Y-97285908D01*
X207817883Y-97279501D01*
X207817881Y-97279500D01*
X207817873Y-97279500D01*
X207817864Y-97279500D01*
X205822129Y-97279500D01*
X205822123Y-97279501D01*
X205762516Y-97285908D01*
X205627671Y-97336202D01*
X205627664Y-97336206D01*
X205512455Y-97422452D01*
X205512452Y-97422455D01*
X205426206Y-97537664D01*
X205426202Y-97537671D01*
X205375908Y-97672517D01*
X205369908Y-97728331D01*
X205369501Y-97732123D01*
X205369500Y-97732135D01*
X205369500Y-99727870D01*
X198161200Y-99727870D01*
X198130968Y-99615042D01*
X198128905Y-99607344D01*
X198128904Y-99607342D01*
X198128903Y-99607337D01*
X198029035Y-99393171D01*
X198019808Y-99379994D01*
X197893496Y-99199600D01*
X197834419Y-99140523D01*
X197771567Y-99077671D01*
X197738084Y-99016351D01*
X197743068Y-98946659D01*
X197784939Y-98890725D01*
X197815915Y-98873810D01*
X197947331Y-98824796D01*
X198062546Y-98738546D01*
X198148796Y-98623331D01*
X198199091Y-98488483D01*
X198205500Y-98428873D01*
X198205499Y-96633128D01*
X198199091Y-96573517D01*
X198192754Y-96556527D01*
X198148797Y-96438671D01*
X198148793Y-96438664D01*
X198062547Y-96323455D01*
X198062544Y-96323452D01*
X197947335Y-96237206D01*
X197947328Y-96237202D01*
X197812482Y-96186908D01*
X197812483Y-96186908D01*
X197752883Y-96180501D01*
X197752881Y-96180500D01*
X197752873Y-96180500D01*
X197752865Y-96180500D01*
X197572454Y-96180500D01*
X197508487Y-96162727D01*
X197401931Y-96098562D01*
X196836653Y-95758166D01*
X196553293Y-95587534D01*
X196529579Y-95568988D01*
X195190596Y-94230005D01*
X205364529Y-94230005D01*
X205384379Y-94469559D01*
X205443389Y-94702589D01*
X205539951Y-94922729D01*
X205671427Y-95123966D01*
X205671429Y-95123969D01*
X205834236Y-95300825D01*
X205834239Y-95300827D01*
X205834242Y-95300830D01*
X206023924Y-95448466D01*
X206023930Y-95448470D01*
X206023933Y-95448472D01*
X206235344Y-95562882D01*
X206235347Y-95562883D01*
X206462699Y-95640933D01*
X206462701Y-95640933D01*
X206462703Y-95640934D01*
X206699808Y-95680500D01*
X206699809Y-95680500D01*
X206940191Y-95680500D01*
X206940192Y-95680500D01*
X207177297Y-95640934D01*
X207404656Y-95562882D01*
X207616067Y-95448472D01*
X207805764Y-95300825D01*
X207968571Y-95123969D01*
X208100049Y-94922728D01*
X208196610Y-94702591D01*
X208255620Y-94469563D01*
X208264881Y-94357801D01*
X208275471Y-94230005D01*
X208275471Y-94229994D01*
X208258396Y-94023935D01*
X208258396Y-94023933D01*
X210065668Y-94023933D01*
X210087801Y-94149449D01*
X210096135Y-94196711D01*
X210165623Y-94357804D01*
X210165624Y-94357806D01*
X210165626Y-94357809D01*
X210210932Y-94418665D01*
X210270390Y-94498530D01*
X210404786Y-94611302D01*
X210451557Y-94634791D01*
X210561562Y-94690038D01*
X210561563Y-94690038D01*
X210561567Y-94690040D01*
X210732279Y-94730500D01*
X210732282Y-94730500D01*
X210863701Y-94730500D01*
X210863709Y-94730500D01*
X210994255Y-94715241D01*
X211159117Y-94655237D01*
X211305696Y-94558830D01*
X211426092Y-94431218D01*
X211513812Y-94279281D01*
X211564130Y-94111210D01*
X211574331Y-93936065D01*
X211543865Y-93763289D01*
X211474377Y-93602196D01*
X211457856Y-93580005D01*
X212865031Y-93580005D01*
X212884874Y-93819476D01*
X212943865Y-94052428D01*
X213040391Y-94272485D01*
X213132688Y-94413757D01*
X213757226Y-93789219D01*
X213795901Y-93882588D01*
X213892075Y-94007925D01*
X214017412Y-94104099D01*
X214110779Y-94142772D01*
X213485572Y-94767979D01*
X213485573Y-94767980D01*
X213524204Y-94798048D01*
X213524205Y-94798049D01*
X213735544Y-94912421D01*
X213735550Y-94912423D01*
X213962823Y-94990446D01*
X214199851Y-95030000D01*
X214440149Y-95030000D01*
X214677176Y-94990446D01*
X214904449Y-94912423D01*
X214904455Y-94912421D01*
X215115795Y-94798049D01*
X215115798Y-94798047D01*
X215154425Y-94767980D01*
X215154425Y-94767979D01*
X214529220Y-94142772D01*
X214622588Y-94104099D01*
X214747925Y-94007925D01*
X214844099Y-93882589D01*
X214882773Y-93789220D01*
X215507310Y-94413757D01*
X215599606Y-94272490D01*
X215696134Y-94052428D01*
X215755125Y-93819476D01*
X215774969Y-93580005D01*
X215774969Y-93579994D01*
X215755125Y-93340523D01*
X215696134Y-93107571D01*
X215599608Y-92887514D01*
X215507310Y-92746241D01*
X214882772Y-93370779D01*
X214844099Y-93277412D01*
X214747925Y-93152075D01*
X214622588Y-93055901D01*
X214529219Y-93017226D01*
X215154426Y-92392019D01*
X215154425Y-92392018D01*
X215115794Y-92361950D01*
X214904455Y-92247578D01*
X214904449Y-92247576D01*
X214677176Y-92169553D01*
X214440149Y-92130000D01*
X214199851Y-92130000D01*
X213962823Y-92169553D01*
X213735550Y-92247576D01*
X213735544Y-92247578D01*
X213524204Y-92361950D01*
X213524198Y-92361954D01*
X213485573Y-92392017D01*
X213485573Y-92392019D01*
X214110780Y-93017226D01*
X214017412Y-93055901D01*
X213892075Y-93152075D01*
X213795901Y-93277411D01*
X213757226Y-93370780D01*
X213132687Y-92746241D01*
X213040392Y-92887511D01*
X212943865Y-93107571D01*
X212884874Y-93340523D01*
X212865031Y-93579994D01*
X212865031Y-93580005D01*
X211457856Y-93580005D01*
X211369609Y-93461469D01*
X211235214Y-93348698D01*
X211235212Y-93348697D01*
X211078437Y-93269961D01*
X211078433Y-93269960D01*
X210907721Y-93229500D01*
X210776291Y-93229500D01*
X210671854Y-93241707D01*
X210645743Y-93244759D01*
X210645740Y-93244760D01*
X210480884Y-93304762D01*
X210480880Y-93304764D01*
X210334306Y-93401167D01*
X210334305Y-93401168D01*
X210213910Y-93528778D01*
X210126188Y-93680718D01*
X210075870Y-93848789D01*
X210075869Y-93848794D01*
X210065668Y-94023933D01*
X208258396Y-94023933D01*
X208255620Y-93990437D01*
X208196610Y-93757409D01*
X208100049Y-93537272D01*
X207968571Y-93336031D01*
X207805764Y-93159175D01*
X207805759Y-93159171D01*
X207805757Y-93159169D01*
X207616075Y-93011533D01*
X207616069Y-93011529D01*
X207404657Y-92897118D01*
X207404652Y-92897116D01*
X207177300Y-92819066D01*
X206999468Y-92789391D01*
X206940192Y-92779500D01*
X206699808Y-92779500D01*
X206652387Y-92787413D01*
X206462699Y-92819066D01*
X206235347Y-92897116D01*
X206235342Y-92897118D01*
X206023930Y-93011529D01*
X206023924Y-93011533D01*
X205834242Y-93159169D01*
X205834239Y-93159172D01*
X205671430Y-93336029D01*
X205671427Y-93336033D01*
X205539951Y-93537270D01*
X205443389Y-93757410D01*
X205384379Y-93990440D01*
X205364529Y-94229994D01*
X205364529Y-94230005D01*
X195190596Y-94230005D01*
X194392656Y-93432065D01*
X194367316Y-93395397D01*
X194346238Y-93348698D01*
X194205531Y-93036954D01*
X194128948Y-92867279D01*
X194128948Y-92867280D01*
X194127555Y-92864531D01*
X194123877Y-92855626D01*
X194123821Y-92855652D01*
X194121180Y-92849721D01*
X194121179Y-92849716D01*
X194112729Y-92835080D01*
X194111133Y-92832133D01*
X194108316Y-92826576D01*
X194107126Y-92824690D01*
X194104256Y-92820403D01*
X194031159Y-92693797D01*
X194026533Y-92685784D01*
X193899871Y-92545112D01*
X193899870Y-92545111D01*
X193746734Y-92433851D01*
X193746729Y-92433848D01*
X193573807Y-92356857D01*
X193573802Y-92356855D01*
X193408796Y-92321783D01*
X193388646Y-92317500D01*
X193199354Y-92317500D01*
X193179204Y-92321783D01*
X193014197Y-92356855D01*
X193014192Y-92356857D01*
X192841270Y-92433848D01*
X192841265Y-92433851D01*
X192688129Y-92545111D01*
X192561466Y-92685785D01*
X192466821Y-92849715D01*
X192466818Y-92849722D01*
X192414244Y-93011529D01*
X192408326Y-93029744D01*
X192388540Y-93218000D01*
X192408326Y-93406256D01*
X192408327Y-93406259D01*
X192466818Y-93586277D01*
X192466821Y-93586284D01*
X192561467Y-93750216D01*
X192680656Y-93882588D01*
X192688129Y-93890888D01*
X192841265Y-94002148D01*
X192841267Y-94002149D01*
X192841270Y-94002151D01*
X192884013Y-94021181D01*
X192906757Y-94031308D01*
X192922898Y-94039977D01*
X192943271Y-94052943D01*
X192943274Y-94052945D01*
X192943278Y-94052946D01*
X192943280Y-94052948D01*
X193471400Y-94291318D01*
X193508067Y-94316657D01*
X195493993Y-96302584D01*
X195527478Y-96363907D01*
X195529399Y-96405288D01*
X195513432Y-96536109D01*
X195485770Y-96600270D01*
X195427812Y-96639290D01*
X195357958Y-96640782D01*
X195302664Y-96608768D01*
X195250422Y-96556526D01*
X195186401Y-96492505D01*
X195186397Y-96492502D01*
X195186396Y-96492501D01*
X194992831Y-96356965D01*
X194992829Y-96356964D01*
X194886144Y-96307216D01*
X194806401Y-96270031D01*
X194801424Y-96267437D01*
X194796078Y-96264651D01*
X194796074Y-96264649D01*
X194796073Y-96264649D01*
X194794045Y-96263937D01*
X194788389Y-96261632D01*
X194782266Y-96258777D01*
X194778664Y-96257097D01*
X194763614Y-96253064D01*
X194759126Y-96251677D01*
X193493101Y-95807222D01*
X193446494Y-95777903D01*
X191923819Y-94255228D01*
X191890334Y-94193905D01*
X191887500Y-94167547D01*
X191887500Y-89404000D01*
X215793000Y-89404000D01*
X215793000Y-89951844D01*
X215799401Y-90011372D01*
X215799403Y-90011379D01*
X215849645Y-90146086D01*
X215849649Y-90146093D01*
X215935809Y-90261187D01*
X215935812Y-90261190D01*
X216050906Y-90347350D01*
X216050913Y-90347354D01*
X216185620Y-90397596D01*
X216185627Y-90397598D01*
X216245155Y-90403999D01*
X216245172Y-90404000D01*
X216793000Y-90404000D01*
X216793000Y-89404000D01*
X215793000Y-89404000D01*
X191887500Y-89404000D01*
X191887500Y-89183302D01*
X216689372Y-89183302D01*
X216718047Y-89296538D01*
X216781936Y-89394327D01*
X216874115Y-89466072D01*
X216984595Y-89504000D01*
X217072005Y-89504000D01*
X217158216Y-89489614D01*
X217260947Y-89434019D01*
X217288581Y-89404000D01*
X217293000Y-89404000D01*
X217293000Y-90404000D01*
X217840828Y-90404000D01*
X217840844Y-90403999D01*
X217900372Y-90397598D01*
X217900379Y-90397596D01*
X218035086Y-90347354D01*
X218035093Y-90347350D01*
X218150187Y-90261190D01*
X218150190Y-90261187D01*
X218236350Y-90146093D01*
X218236354Y-90146086D01*
X218286596Y-90011379D01*
X218286598Y-90011372D01*
X218292999Y-89951844D01*
X218293000Y-89951827D01*
X218293000Y-89404000D01*
X217293000Y-89404000D01*
X217288581Y-89404000D01*
X217340060Y-89348079D01*
X217386982Y-89241108D01*
X217396628Y-89124698D01*
X217367953Y-89011462D01*
X217304064Y-88913673D01*
X217211885Y-88841928D01*
X217101405Y-88804000D01*
X217013995Y-88804000D01*
X216927784Y-88818386D01*
X216825053Y-88873981D01*
X216745940Y-88959921D01*
X216699018Y-89066892D01*
X216689372Y-89183302D01*
X191887500Y-89183302D01*
X191887500Y-88904000D01*
X215793000Y-88904000D01*
X216793000Y-88904000D01*
X216793000Y-87904000D01*
X217293000Y-87904000D01*
X217293000Y-88904000D01*
X218293000Y-88904000D01*
X218293000Y-88356172D01*
X218292999Y-88356155D01*
X218286598Y-88296627D01*
X218286596Y-88296620D01*
X218236354Y-88161913D01*
X218236350Y-88161906D01*
X218150190Y-88046812D01*
X218150187Y-88046809D01*
X218035093Y-87960649D01*
X218035086Y-87960645D01*
X217900379Y-87910403D01*
X217900372Y-87910401D01*
X217840844Y-87904000D01*
X217293000Y-87904000D01*
X216793000Y-87904000D01*
X216245155Y-87904000D01*
X216185627Y-87910401D01*
X216185620Y-87910403D01*
X216050913Y-87960645D01*
X216050906Y-87960649D01*
X215935812Y-88046809D01*
X215935809Y-88046812D01*
X215849649Y-88161906D01*
X215849645Y-88161913D01*
X215799403Y-88296620D01*
X215799401Y-88296627D01*
X215793000Y-88356155D01*
X215793000Y-88904000D01*
X191887500Y-88904000D01*
X191887500Y-88063725D01*
X191901159Y-88007150D01*
X191905705Y-87998284D01*
X192094535Y-87630000D01*
X195055540Y-87630000D01*
X195075326Y-87818256D01*
X195075327Y-87818259D01*
X195133818Y-87998277D01*
X195133821Y-87998284D01*
X195228467Y-88162216D01*
X195349485Y-88296620D01*
X195355129Y-88302888D01*
X195508265Y-88414148D01*
X195508270Y-88414151D01*
X195681192Y-88491142D01*
X195681197Y-88491144D01*
X195866354Y-88530500D01*
X195866355Y-88530500D01*
X196055644Y-88530500D01*
X196055646Y-88530500D01*
X196240803Y-88491144D01*
X196413730Y-88414151D01*
X196566871Y-88302888D01*
X196693533Y-88162216D01*
X196788179Y-87998284D01*
X196788182Y-87998272D01*
X196790819Y-87992352D01*
X196790975Y-87992421D01*
X196794236Y-87984809D01*
X196794125Y-87984759D01*
X196945855Y-87648592D01*
X197034317Y-87452597D01*
X197059652Y-87415936D01*
X199095721Y-85379870D01*
X215792500Y-85379870D01*
X215792501Y-85379876D01*
X215798908Y-85439483D01*
X215849202Y-85574328D01*
X215849206Y-85574335D01*
X215935452Y-85689544D01*
X215935455Y-85689547D01*
X216050664Y-85775793D01*
X216050671Y-85775797D01*
X216185517Y-85826091D01*
X216185516Y-85826091D01*
X216192444Y-85826835D01*
X216245127Y-85832500D01*
X217840872Y-85832499D01*
X217900483Y-85826091D01*
X218035331Y-85775796D01*
X218150546Y-85689546D01*
X218236796Y-85574331D01*
X218287091Y-85439483D01*
X218293500Y-85379873D01*
X218293499Y-83784128D01*
X218287091Y-83724517D01*
X218236796Y-83589669D01*
X218236795Y-83589668D01*
X218236793Y-83589664D01*
X218150547Y-83474455D01*
X218150544Y-83474452D01*
X218035335Y-83388206D01*
X218035328Y-83388202D01*
X217900482Y-83337908D01*
X217900483Y-83337908D01*
X217840883Y-83331501D01*
X217840881Y-83331500D01*
X217840873Y-83331500D01*
X217840864Y-83331500D01*
X216245129Y-83331500D01*
X216245123Y-83331501D01*
X216185516Y-83337908D01*
X216050671Y-83388202D01*
X216050664Y-83388206D01*
X215935455Y-83474452D01*
X215935452Y-83474455D01*
X215849206Y-83589664D01*
X215849202Y-83589671D01*
X215798908Y-83724517D01*
X215792501Y-83784116D01*
X215792501Y-83784123D01*
X215792500Y-83784135D01*
X215792500Y-85379870D01*
X199095721Y-85379870D01*
X199231772Y-85243819D01*
X199293095Y-85210334D01*
X199319453Y-85207500D01*
X210092799Y-85207500D01*
X210124236Y-85211551D01*
X210459336Y-85299377D01*
X210482416Y-85304970D01*
X210482399Y-85305037D01*
X210498841Y-85309181D01*
X210524939Y-85318313D01*
X210692997Y-85337249D01*
X210693000Y-85337249D01*
X210693003Y-85337249D01*
X210861056Y-85318314D01*
X210861059Y-85318313D01*
X211020690Y-85262456D01*
X211020692Y-85262454D01*
X211020694Y-85262454D01*
X211020697Y-85262452D01*
X211163884Y-85172481D01*
X211163885Y-85172480D01*
X211163890Y-85172477D01*
X211283477Y-85052890D01*
X211373452Y-84909697D01*
X211373454Y-84909694D01*
X211373454Y-84909692D01*
X211373456Y-84909690D01*
X211429313Y-84750059D01*
X211429313Y-84750058D01*
X211429314Y-84750056D01*
X211448249Y-84582002D01*
X211448249Y-84581997D01*
X211429314Y-84413943D01*
X211373454Y-84254305D01*
X211373452Y-84254302D01*
X211283481Y-84111115D01*
X211283476Y-84111109D01*
X211163890Y-83991523D01*
X211163884Y-83991518D01*
X211020697Y-83901547D01*
X211020694Y-83901545D01*
X210861056Y-83845685D01*
X210693003Y-83826751D01*
X210692997Y-83826751D01*
X210524945Y-83845685D01*
X210524935Y-83845688D01*
X210489485Y-83858092D01*
X210462591Y-83864251D01*
X210459335Y-83864622D01*
X210124233Y-83952449D01*
X210092796Y-83956500D01*
X199091743Y-83956500D01*
X199076122Y-83954775D01*
X199076096Y-83955061D01*
X199068334Y-83954327D01*
X199068333Y-83954327D01*
X198999186Y-83956500D01*
X198969649Y-83956500D01*
X198962766Y-83957369D01*
X198956949Y-83957826D01*
X198910373Y-83959290D01*
X198891129Y-83964881D01*
X198872079Y-83968825D01*
X198852211Y-83971334D01*
X198808884Y-83988488D01*
X198803358Y-83990379D01*
X198758614Y-84003379D01*
X198758610Y-84003381D01*
X198741366Y-84013579D01*
X198723905Y-84022133D01*
X198705274Y-84029510D01*
X198705262Y-84029517D01*
X198667570Y-84056902D01*
X198662687Y-84060109D01*
X198622580Y-84083829D01*
X198608414Y-84097995D01*
X198593624Y-84110627D01*
X198577414Y-84122404D01*
X198577411Y-84122407D01*
X198547710Y-84158309D01*
X198543777Y-84162631D01*
X196175070Y-86531337D01*
X196138402Y-86556677D01*
X195958682Y-86637796D01*
X195610277Y-86795052D01*
X195610268Y-86795056D01*
X195569536Y-86815705D01*
X195564610Y-86818816D01*
X195564294Y-86818316D01*
X195547200Y-86828515D01*
X195508271Y-86845847D01*
X195508267Y-86845849D01*
X195355129Y-86957111D01*
X195228466Y-87097785D01*
X195133821Y-87261715D01*
X195133818Y-87261722D01*
X195082279Y-87420344D01*
X195075326Y-87441744D01*
X195055540Y-87630000D01*
X192094535Y-87630000D01*
X192624426Y-86596528D01*
X192626698Y-86592483D01*
X192647777Y-86558089D01*
X192662117Y-86523466D01*
X192664228Y-86518905D01*
X192680742Y-86486697D01*
X192685404Y-86476629D01*
X192711579Y-86407097D01*
X192711580Y-86407086D01*
X192712551Y-86403315D01*
X192715320Y-86395023D01*
X192720508Y-86382498D01*
X192741172Y-86332612D01*
X192798146Y-86095302D01*
X192817294Y-85852000D01*
X192798146Y-85608698D01*
X192741172Y-85371388D01*
X192729828Y-85344000D01*
X192647777Y-85145910D01*
X192520262Y-84937826D01*
X192520261Y-84937823D01*
X192471161Y-84880335D01*
X192361759Y-84752241D01*
X192239063Y-84647449D01*
X192176176Y-84593738D01*
X192176173Y-84593737D01*
X191968089Y-84466222D01*
X191742618Y-84372830D01*
X191742621Y-84372830D01*
X191636992Y-84347470D01*
X191505302Y-84315854D01*
X191505300Y-84315853D01*
X191505297Y-84315853D01*
X191262000Y-84296706D01*
X191018702Y-84315853D01*
X191018698Y-84315854D01*
X190842301Y-84358204D01*
X190781380Y-84372830D01*
X190555910Y-84466222D01*
X190347826Y-84593737D01*
X190347823Y-84593738D01*
X190162241Y-84752241D01*
X190003738Y-84937823D01*
X190003737Y-84937826D01*
X189876222Y-85145910D01*
X189782830Y-85371380D01*
X189782828Y-85371387D01*
X189782828Y-85371388D01*
X189766480Y-85439482D01*
X189725853Y-85608702D01*
X189706706Y-85852000D01*
X187737294Y-85852000D01*
X187718146Y-85608698D01*
X187661172Y-85371388D01*
X187649828Y-85344000D01*
X187567777Y-85145910D01*
X187440262Y-84937826D01*
X187440261Y-84937823D01*
X187391161Y-84880335D01*
X187281759Y-84752241D01*
X187159063Y-84647449D01*
X187096176Y-84593738D01*
X187096173Y-84593737D01*
X186888089Y-84466222D01*
X186662618Y-84372830D01*
X186662621Y-84372830D01*
X186556992Y-84347470D01*
X186425302Y-84315854D01*
X186425300Y-84315853D01*
X186425297Y-84315853D01*
X186182000Y-84296706D01*
X185938702Y-84315853D01*
X185938698Y-84315854D01*
X185762301Y-84358204D01*
X185701380Y-84372830D01*
X185475910Y-84466222D01*
X185267826Y-84593737D01*
X185267823Y-84593738D01*
X185082241Y-84752241D01*
X184923738Y-84937823D01*
X184923737Y-84937826D01*
X184796222Y-85145910D01*
X184702830Y-85371380D01*
X184702828Y-85371387D01*
X184702828Y-85371388D01*
X184686480Y-85439482D01*
X184645853Y-85608702D01*
X184626706Y-85852000D01*
X182657294Y-85852000D01*
X182638146Y-85608698D01*
X182581172Y-85371388D01*
X182569828Y-85344000D01*
X182487777Y-85145910D01*
X182360262Y-84937826D01*
X182360261Y-84937823D01*
X182311161Y-84880335D01*
X182201759Y-84752241D01*
X182079063Y-84647449D01*
X182016176Y-84593738D01*
X182016173Y-84593737D01*
X181808089Y-84466222D01*
X181582618Y-84372830D01*
X181582621Y-84372830D01*
X181476992Y-84347470D01*
X181345302Y-84315854D01*
X181345300Y-84315853D01*
X181345297Y-84315853D01*
X181102000Y-84296706D01*
X180858702Y-84315853D01*
X180858698Y-84315854D01*
X180682301Y-84358204D01*
X180621380Y-84372830D01*
X180395910Y-84466222D01*
X180187826Y-84593737D01*
X180187823Y-84593738D01*
X180002241Y-84752241D01*
X179843738Y-84937823D01*
X179843737Y-84937826D01*
X179716222Y-85145910D01*
X179622830Y-85371380D01*
X179622828Y-85371387D01*
X179622828Y-85371388D01*
X179606480Y-85439482D01*
X179565853Y-85608702D01*
X179546706Y-85852000D01*
X177577294Y-85852000D01*
X177558146Y-85608698D01*
X177501172Y-85371388D01*
X177489828Y-85344000D01*
X177407777Y-85145910D01*
X177280262Y-84937826D01*
X177280261Y-84937823D01*
X177231161Y-84880335D01*
X177121759Y-84752241D01*
X176999063Y-84647449D01*
X176936176Y-84593738D01*
X176936173Y-84593737D01*
X176728089Y-84466222D01*
X176502618Y-84372830D01*
X176502621Y-84372830D01*
X176396992Y-84347470D01*
X176265302Y-84315854D01*
X176265300Y-84315853D01*
X176265297Y-84315853D01*
X176022000Y-84296706D01*
X175778702Y-84315853D01*
X175778698Y-84315854D01*
X175602301Y-84358204D01*
X175541380Y-84372830D01*
X175315910Y-84466222D01*
X175107826Y-84593737D01*
X175107823Y-84593738D01*
X174922241Y-84752241D01*
X174763738Y-84937823D01*
X174763737Y-84937826D01*
X174636222Y-85145910D01*
X174542830Y-85371380D01*
X174542828Y-85371387D01*
X174542828Y-85371388D01*
X174526480Y-85439482D01*
X174485853Y-85608702D01*
X174466706Y-85852000D01*
X172497294Y-85852000D01*
X172478146Y-85608698D01*
X172421172Y-85371388D01*
X172409828Y-85344000D01*
X172327777Y-85145910D01*
X172200262Y-84937826D01*
X172200261Y-84937823D01*
X172151161Y-84880335D01*
X172041759Y-84752241D01*
X171919063Y-84647449D01*
X171856176Y-84593738D01*
X171856173Y-84593737D01*
X171648089Y-84466222D01*
X171422618Y-84372830D01*
X171422621Y-84372830D01*
X171316992Y-84347470D01*
X171185302Y-84315854D01*
X171185300Y-84315853D01*
X171185297Y-84315853D01*
X170942000Y-84296706D01*
X170698702Y-84315853D01*
X170698698Y-84315854D01*
X170522301Y-84358204D01*
X170461380Y-84372830D01*
X170235910Y-84466222D01*
X170027826Y-84593737D01*
X170027823Y-84593738D01*
X169842241Y-84752241D01*
X169683738Y-84937823D01*
X169683737Y-84937826D01*
X169556222Y-85145910D01*
X169462830Y-85371380D01*
X169462828Y-85371387D01*
X169462828Y-85371388D01*
X169446480Y-85439482D01*
X169405853Y-85608702D01*
X169386706Y-85852000D01*
X167417294Y-85852000D01*
X167398146Y-85608698D01*
X167341172Y-85371388D01*
X167329828Y-85344000D01*
X167247777Y-85145910D01*
X167120262Y-84937826D01*
X167120261Y-84937823D01*
X167071161Y-84880335D01*
X166961759Y-84752241D01*
X166839063Y-84647449D01*
X166776176Y-84593738D01*
X166776173Y-84593737D01*
X166568089Y-84466222D01*
X166342618Y-84372830D01*
X166342621Y-84372830D01*
X166236992Y-84347470D01*
X166105302Y-84315854D01*
X166105300Y-84315853D01*
X166105297Y-84315853D01*
X165862000Y-84296706D01*
X165618702Y-84315853D01*
X165618698Y-84315854D01*
X165442301Y-84358204D01*
X165381380Y-84372830D01*
X165155910Y-84466222D01*
X164947826Y-84593737D01*
X164947823Y-84593738D01*
X164762241Y-84752241D01*
X164603738Y-84937823D01*
X164603737Y-84937826D01*
X164476222Y-85145910D01*
X164382830Y-85371380D01*
X164382828Y-85371387D01*
X164382828Y-85371388D01*
X164366480Y-85439482D01*
X164325853Y-85608702D01*
X164306706Y-85852000D01*
X162337294Y-85852000D01*
X162318146Y-85608698D01*
X162261172Y-85371388D01*
X162249828Y-85344000D01*
X162167777Y-85145910D01*
X162040262Y-84937826D01*
X162040261Y-84937823D01*
X161991161Y-84880335D01*
X161881759Y-84752241D01*
X161759063Y-84647449D01*
X161696176Y-84593738D01*
X161696173Y-84593737D01*
X161488089Y-84466222D01*
X161262618Y-84372830D01*
X161262621Y-84372830D01*
X161156992Y-84347470D01*
X161025302Y-84315854D01*
X161025300Y-84315853D01*
X161025297Y-84315853D01*
X160782000Y-84296706D01*
X160538702Y-84315853D01*
X160538698Y-84315854D01*
X160362301Y-84358204D01*
X160301380Y-84372830D01*
X160075910Y-84466222D01*
X159867826Y-84593737D01*
X159867823Y-84593738D01*
X159682241Y-84752241D01*
X159523738Y-84937823D01*
X159523737Y-84937826D01*
X159396222Y-85145910D01*
X159302830Y-85371380D01*
X159302828Y-85371387D01*
X159302828Y-85371388D01*
X159286480Y-85439482D01*
X159245853Y-85608702D01*
X159226706Y-85852000D01*
X157252499Y-85852000D01*
X157252499Y-84754128D01*
X157246091Y-84694517D01*
X157195796Y-84559669D01*
X157195795Y-84559668D01*
X157195793Y-84559664D01*
X157109547Y-84444455D01*
X157109544Y-84444452D01*
X156994335Y-84358206D01*
X156994328Y-84358202D01*
X156859482Y-84307908D01*
X156859483Y-84307908D01*
X156799883Y-84301501D01*
X156799881Y-84301500D01*
X156799873Y-84301500D01*
X156799864Y-84301500D01*
X154604129Y-84301500D01*
X154604123Y-84301501D01*
X154544516Y-84307908D01*
X154409671Y-84358202D01*
X154409664Y-84358206D01*
X154294455Y-84444452D01*
X154294452Y-84444455D01*
X154208206Y-84559664D01*
X154208202Y-84559671D01*
X154157908Y-84694517D01*
X154151937Y-84750059D01*
X154151501Y-84754123D01*
X154151500Y-84754135D01*
X154151500Y-86949870D01*
X150327766Y-86949870D01*
X150268567Y-86890671D01*
X150235084Y-86829351D01*
X150240068Y-86759659D01*
X150281939Y-86703725D01*
X150312915Y-86686810D01*
X150444331Y-86637796D01*
X150559546Y-86551546D01*
X150645796Y-86436331D01*
X150696091Y-86301483D01*
X150702500Y-86241873D01*
X150702499Y-84446128D01*
X150696091Y-84386517D01*
X150694810Y-84383083D01*
X150645797Y-84251671D01*
X150645793Y-84251664D01*
X150559547Y-84136455D01*
X150559544Y-84136452D01*
X150444335Y-84050206D01*
X150444328Y-84050202D01*
X150309482Y-83999908D01*
X150309483Y-83999908D01*
X150249883Y-83993501D01*
X150249881Y-83993500D01*
X150249873Y-83993500D01*
X150249864Y-83993500D01*
X148454129Y-83993500D01*
X148454123Y-83993501D01*
X148394516Y-83999908D01*
X148259671Y-84050202D01*
X148259664Y-84050206D01*
X148144455Y-84136452D01*
X148144452Y-84136455D01*
X148058206Y-84251664D01*
X148058203Y-84251669D01*
X148009189Y-84383083D01*
X147967317Y-84439016D01*
X147901853Y-84463433D01*
X147833580Y-84448581D01*
X147805326Y-84427430D01*
X147683402Y-84305506D01*
X147683395Y-84305501D01*
X147677682Y-84301501D01*
X147606518Y-84251671D01*
X147489834Y-84169967D01*
X147489830Y-84169965D01*
X147464834Y-84158309D01*
X147275663Y-84070097D01*
X147275659Y-84070096D01*
X147275655Y-84070094D01*
X147047413Y-84008938D01*
X147047403Y-84008936D01*
X146812001Y-83988341D01*
X146811999Y-83988341D01*
X146576596Y-84008936D01*
X146576586Y-84008938D01*
X146348344Y-84070094D01*
X146348335Y-84070098D01*
X146134171Y-84169964D01*
X146134169Y-84169965D01*
X145940597Y-84305505D01*
X145773505Y-84472597D01*
X145637965Y-84666169D01*
X145637964Y-84666171D01*
X145538098Y-84880335D01*
X145538094Y-84880344D01*
X145476938Y-85108586D01*
X145476936Y-85108596D01*
X145456341Y-85343999D01*
X145456341Y-85344000D01*
X145476936Y-85579403D01*
X145476938Y-85579413D01*
X145538094Y-85807655D01*
X145538096Y-85807659D01*
X145538097Y-85807663D01*
X145549679Y-85832500D01*
X145637965Y-86021830D01*
X145637967Y-86021834D01*
X145773501Y-86215395D01*
X145773506Y-86215402D01*
X145940597Y-86382493D01*
X145940603Y-86382498D01*
X146126158Y-86512425D01*
X146169783Y-86567002D01*
X146176977Y-86636500D01*
X146145454Y-86698855D01*
X146126158Y-86715575D01*
X145940597Y-86845505D01*
X145773505Y-87012597D01*
X145637965Y-87206169D01*
X145637964Y-87206171D01*
X145538098Y-87420335D01*
X145538094Y-87420344D01*
X145476938Y-87648586D01*
X145476936Y-87648596D01*
X145456341Y-87883999D01*
X145456341Y-87884000D01*
X145476936Y-88119403D01*
X145476938Y-88119413D01*
X145538094Y-88347655D01*
X145538096Y-88347659D01*
X145538097Y-88347663D01*
X145618004Y-88519023D01*
X145637965Y-88561830D01*
X145637967Y-88561834D01*
X145746281Y-88716521D01*
X145773501Y-88755396D01*
X145773506Y-88755402D01*
X145940597Y-88922493D01*
X145940603Y-88922498D01*
X146126158Y-89052425D01*
X146169783Y-89107002D01*
X146176977Y-89176500D01*
X146145454Y-89238855D01*
X146126158Y-89255575D01*
X145940597Y-89385505D01*
X145773505Y-89552597D01*
X145637965Y-89746169D01*
X145637964Y-89746171D01*
X145538098Y-89960335D01*
X145538094Y-89960344D01*
X145476938Y-90188586D01*
X145476936Y-90188596D01*
X145456341Y-90423999D01*
X145456341Y-90424000D01*
X145476936Y-90659403D01*
X145476938Y-90659413D01*
X145538094Y-90887655D01*
X145538096Y-90887659D01*
X145538097Y-90887663D01*
X145542000Y-90896032D01*
X145637965Y-91101830D01*
X145637967Y-91101834D01*
X145682167Y-91164957D01*
X145773501Y-91295396D01*
X145773506Y-91295402D01*
X145940597Y-91462493D01*
X145940603Y-91462498D01*
X146126158Y-91592425D01*
X146169783Y-91647002D01*
X146176977Y-91716500D01*
X146145454Y-91778855D01*
X146126158Y-91795575D01*
X145940597Y-91925505D01*
X145773505Y-92092597D01*
X145637965Y-92286169D01*
X145637964Y-92286171D01*
X145538098Y-92500335D01*
X145538094Y-92500344D01*
X145476938Y-92728586D01*
X145476936Y-92728596D01*
X145456341Y-92963999D01*
X145456341Y-92964000D01*
X145476936Y-93199403D01*
X145476938Y-93199413D01*
X145538094Y-93427655D01*
X145538096Y-93427659D01*
X145538097Y-93427663D01*
X145618004Y-93599023D01*
X145637965Y-93641830D01*
X145637967Y-93641834D01*
X145723014Y-93763293D01*
X145773501Y-93835396D01*
X145773506Y-93835402D01*
X145940597Y-94002493D01*
X145940603Y-94002498D01*
X145971218Y-94023935D01*
X146085704Y-94104099D01*
X146126594Y-94132730D01*
X146170219Y-94187307D01*
X146177413Y-94256805D01*
X146145890Y-94319160D01*
X146126595Y-94335880D01*
X145940922Y-94465890D01*
X145940920Y-94465891D01*
X145773891Y-94632920D01*
X145773886Y-94632926D01*
X145638400Y-94826420D01*
X145638399Y-94826422D01*
X145538570Y-95040507D01*
X145538567Y-95040513D01*
X145481364Y-95253999D01*
X145481364Y-95254000D01*
X146378314Y-95254000D01*
X146352507Y-95294156D01*
X146312000Y-95432111D01*
X146312000Y-95575889D01*
X146352507Y-95713844D01*
X146378314Y-95754000D01*
X145481364Y-95754000D01*
X145538567Y-95967486D01*
X145538570Y-95967492D01*
X145638399Y-96181578D01*
X145773894Y-96375082D01*
X145940917Y-96542105D01*
X146126595Y-96672119D01*
X146170219Y-96726696D01*
X146177412Y-96796195D01*
X146145890Y-96858549D01*
X146126595Y-96875269D01*
X145940594Y-97005508D01*
X145773505Y-97172597D01*
X145637965Y-97366169D01*
X145637964Y-97366171D01*
X145538098Y-97580335D01*
X145538094Y-97580344D01*
X145476938Y-97808586D01*
X145476936Y-97808596D01*
X145456341Y-98043999D01*
X145456341Y-98044000D01*
X142748000Y-98044000D01*
X142748000Y-81785000D01*
X142767685Y-81717961D01*
X142820489Y-81672206D01*
X142872000Y-81661000D01*
X218824000Y-81661000D01*
X218891039Y-81680685D01*
G37*
%TD.AperFunction*%
%TD*%
%TA.AperFunction,Conductor*%
%TO.N,Net-(JP1-B)*%
G36*
X180591644Y-97630542D02*
G01*
X180757924Y-97796822D01*
X180761307Y-97804085D01*
X180869899Y-99057301D01*
X180867199Y-99065839D01*
X180859253Y-99069967D01*
X180858253Y-99070011D01*
X180075153Y-99070702D01*
X180066877Y-99067282D01*
X180066860Y-99067265D01*
X179514441Y-98513464D01*
X179511024Y-98505186D01*
X179514461Y-98496918D01*
X179515312Y-98496148D01*
X180575969Y-97629753D01*
X180584545Y-97627174D01*
X180591644Y-97630542D01*
G37*
%TD.AperFunction*%
%TD*%
M02*
