%TF.GenerationSoftware,KiCad,Pcbnew,7.0.5*%
%TF.CreationDate,2024-01-04T17:18:43+09:00*%
%TF.ProjectId,Pmod_ADC,506d6f64-5f41-4444-932e-6b696361645f,rev?*%
%TF.SameCoordinates,Original*%
%TF.FileFunction,Copper,L1,Top*%
%TF.FilePolarity,Positive*%
%FSLAX46Y46*%
G04 Gerber Fmt 4.6, Leading zero omitted, Abs format (unit mm)*
G04 Created by KiCad (PCBNEW 7.0.5) date 2024-01-04 17:18:43*
%MOMM*%
%LPD*%
G01*
G04 APERTURE LIST*
G04 Aperture macros list*
%AMRoundRect*
0 Rectangle with rounded corners*
0 $1 Rounding radius*
0 $2 $3 $4 $5 $6 $7 $8 $9 X,Y pos of 4 corners*
0 Add a 4 corners polygon primitive as box body*
4,1,4,$2,$3,$4,$5,$6,$7,$8,$9,$2,$3,0*
0 Add four circle primitives for the rounded corners*
1,1,$1+$1,$2,$3*
1,1,$1+$1,$4,$5*
1,1,$1+$1,$6,$7*
1,1,$1+$1,$8,$9*
0 Add four rect primitives between the rounded corners*
20,1,$1+$1,$2,$3,$4,$5,0*
20,1,$1+$1,$4,$5,$6,$7,0*
20,1,$1+$1,$6,$7,$8,$9,0*
20,1,$1+$1,$8,$9,$2,$3,0*%
%AMFreePoly0*
4,1,6,1.000000,0.000000,0.500000,-0.750000,-0.500000,-0.750000,-0.500000,0.750000,0.500000,0.750000,1.000000,0.000000,1.000000,0.000000,$1*%
%AMFreePoly1*
4,1,6,0.500000,-0.750000,-0.650000,-0.750000,-0.150000,0.000000,-0.650000,0.750000,0.500000,0.750000,0.500000,-0.750000,0.500000,-0.750000,$1*%
G04 Aperture macros list end*
%TA.AperFunction,ComponentPad*%
%ADD10R,1.600000X1.600000*%
%TD*%
%TA.AperFunction,ComponentPad*%
%ADD11O,1.600000X1.600000*%
%TD*%
%TA.AperFunction,SMDPad,CuDef*%
%ADD12RoundRect,0.237500X0.237500X-0.300000X0.237500X0.300000X-0.237500X0.300000X-0.237500X-0.300000X0*%
%TD*%
%TA.AperFunction,SMDPad,CuDef*%
%ADD13RoundRect,0.237500X0.300000X0.237500X-0.300000X0.237500X-0.300000X-0.237500X0.300000X-0.237500X0*%
%TD*%
%TA.AperFunction,SMDPad,CuDef*%
%ADD14RoundRect,0.237500X0.250000X0.237500X-0.250000X0.237500X-0.250000X-0.237500X0.250000X-0.237500X0*%
%TD*%
%TA.AperFunction,SMDPad,CuDef*%
%ADD15RoundRect,0.237500X-0.237500X0.250000X-0.237500X-0.250000X0.237500X-0.250000X0.237500X0.250000X0*%
%TD*%
%TA.AperFunction,ComponentPad*%
%ADD16R,1.700000X1.700000*%
%TD*%
%TA.AperFunction,ComponentPad*%
%ADD17O,1.700000X1.700000*%
%TD*%
%TA.AperFunction,SMDPad,CuDef*%
%ADD18RoundRect,0.237500X-0.250000X-0.237500X0.250000X-0.237500X0.250000X0.237500X-0.250000X0.237500X0*%
%TD*%
%TA.AperFunction,ComponentPad*%
%ADD19R,1.500000X1.500000*%
%TD*%
%TA.AperFunction,ComponentPad*%
%ADD20R,1.900000X1.900000*%
%TD*%
%TA.AperFunction,ComponentPad*%
%ADD21C,1.900000*%
%TD*%
%TA.AperFunction,SMDPad,CuDef*%
%ADD22FreePoly0,180.000000*%
%TD*%
%TA.AperFunction,SMDPad,CuDef*%
%ADD23FreePoly1,180.000000*%
%TD*%
%TA.AperFunction,SMDPad,CuDef*%
%ADD24RoundRect,0.237500X0.237500X-0.250000X0.237500X0.250000X-0.237500X0.250000X-0.237500X-0.250000X0*%
%TD*%
%TA.AperFunction,SMDPad,CuDef*%
%ADD25RoundRect,0.150000X0.825000X0.150000X-0.825000X0.150000X-0.825000X-0.150000X0.825000X-0.150000X0*%
%TD*%
%TA.AperFunction,SMDPad,CuDef*%
%ADD26RoundRect,0.237500X-0.300000X-0.237500X0.300000X-0.237500X0.300000X0.237500X-0.300000X0.237500X0*%
%TD*%
%TA.AperFunction,SMDPad,CuDef*%
%ADD27RoundRect,0.237500X-0.237500X0.300000X-0.237500X-0.300000X0.237500X-0.300000X0.237500X0.300000X0*%
%TD*%
%TA.AperFunction,ComponentPad*%
%ADD28R,1.251000X1.251000*%
%TD*%
%TA.AperFunction,ComponentPad*%
%ADD29C,1.251000*%
%TD*%
%TA.AperFunction,ComponentPad*%
%ADD30C,1.600000*%
%TD*%
%TA.AperFunction,ComponentPad*%
%ADD31C,1.700000*%
%TD*%
%TA.AperFunction,ComponentPad*%
%ADD32R,2.100000X2.100000*%
%TD*%
%TA.AperFunction,ComponentPad*%
%ADD33C,2.100000*%
%TD*%
%TA.AperFunction,ViaPad*%
%ADD34C,0.500000*%
%TD*%
%TA.AperFunction,ViaPad*%
%ADD35C,0.800000*%
%TD*%
%TA.AperFunction,Conductor*%
%ADD36C,0.250000*%
%TD*%
%TA.AperFunction,Conductor*%
%ADD37C,0.500000*%
%TD*%
%TA.AperFunction,Conductor*%
%ADD38C,1.000000*%
%TD*%
G04 APERTURE END LIST*
D10*
%TO.P,U1,1,CH0*%
%TO.N,/CH0*%
X182611000Y-91450000D03*
D11*
%TO.P,U1,2,CH1*%
%TO.N,Net-(J4-Pin_7)*%
X180071000Y-91450000D03*
%TO.P,U1,3,CH2*%
%TO.N,Net-(J4-Pin_6)*%
X177531000Y-91450000D03*
%TO.P,U1,4,CH3*%
%TO.N,Net-(J4-Pin_5)*%
X174991000Y-91450000D03*
%TO.P,U1,5,CH4*%
%TO.N,Net-(J4-Pin_4)*%
X172451000Y-91450000D03*
%TO.P,U1,6,CH5*%
%TO.N,Net-(J4-Pin_3)*%
X169911000Y-91450000D03*
%TO.P,U1,7,CH6*%
%TO.N,Net-(J4-Pin_2)*%
X167371000Y-91450000D03*
%TO.P,U1,8,CH7*%
%TO.N,Net-(J4-Pin_1)*%
X164831000Y-91450000D03*
%TO.P,U1,9,DGND*%
%TO.N,GND*%
X164831000Y-99070000D03*
%TO.P,U1,10,~{CS}/SHDN*%
%TO.N,Net-(J1-Pin_4)*%
X167371000Y-99070000D03*
%TO.P,U1,11,Din*%
%TO.N,Net-(J1-Pin_3)*%
X169911000Y-99070000D03*
%TO.P,U1,12,Dout*%
%TO.N,Net-(J1-Pin_2)*%
X172451000Y-99070000D03*
%TO.P,U1,13,CLK*%
%TO.N,Net-(J1-Pin_1)*%
X174991000Y-99070000D03*
%TO.P,U1,14,AGND*%
%TO.N,GND*%
X177531000Y-99070000D03*
%TO.P,U1,15,Vref*%
%TO.N,Net-(JP1-B)*%
X180071000Y-99070000D03*
%TO.P,U1,16,Vdd*%
%TO.N,VCC*%
X182611000Y-99070000D03*
%TD*%
D12*
%TO.P,C4,1*%
%TO.N,Net-(C4-Pad1)*%
X201879200Y-99973300D03*
%TO.P,C4,2*%
%TO.N,Net-(U3-V_INA-)*%
X201879200Y-98248300D03*
%TD*%
D13*
%TO.P,C3,1*%
%TO.N,Net-(C3-Pad1)*%
X208380500Y-90271600D03*
%TO.P,C3,2*%
%TO.N,Net-(U3-V_INA-)*%
X206655500Y-90271600D03*
%TD*%
%TO.P,C5,1*%
%TO.N,Net-(C5-Pad1)*%
X214476500Y-84582000D03*
%TO.P,C5,2*%
%TO.N,Net-(U3-V_INB+)*%
X212751500Y-84582000D03*
%TD*%
D14*
%TO.P,R7,1*%
%TO.N,Net-(U3-V_INA+)*%
X204216000Y-87630000D03*
%TO.P,R7,2*%
%TO.N,Net-(C7-Pad2)*%
X202391000Y-87630000D03*
%TD*%
D15*
%TO.P,R5,1*%
%TO.N,Net-(J2-PadR)*%
X203860400Y-98198300D03*
%TO.P,R5,2*%
%TO.N,Net-(C4-Pad1)*%
X203860400Y-100023300D03*
%TD*%
D16*
%TO.P,J5,1,Pin_1*%
%TO.N,Net-(J5-Pin_1)*%
X196855000Y-97531000D03*
D17*
%TO.P,J5,2,Pin_2*%
%TO.N,Net-(J5-Pin_2)*%
X196855000Y-100071000D03*
%TO.P,J5,3,Pin_3*%
%TO.N,/CH0*%
X194315000Y-97531000D03*
%TO.P,J5,4,Pin_4*%
X194315000Y-100071000D03*
%TD*%
D18*
%TO.P,R6,1*%
%TO.N,Net-(U3-V_INB+)*%
X198581000Y-87630000D03*
%TO.P,R6,2*%
%TO.N,Net-(C7-Pad2)*%
X200406000Y-87630000D03*
%TD*%
D19*
%TO.P,TP1,1,1*%
%TO.N,Net-(C5-Pad1)*%
X217043000Y-84582000D03*
%TD*%
D18*
%TO.P,R2,1*%
%TO.N,GND*%
X177380500Y-96774000D03*
%TO.P,R2,2*%
%TO.N,Net-(JP1-B)*%
X179205500Y-96774000D03*
%TD*%
D20*
%TO.P,J2,R*%
%TO.N,Net-(J2-PadR)*%
X206820000Y-98730000D03*
D21*
%TO.P,J2,S*%
%TO.N,GND*%
X206820000Y-94230000D03*
%TO.P,J2,T*%
%TO.N,Net-(J2-PadT)*%
X214320000Y-99380000D03*
X214320000Y-93580000D03*
%TD*%
D19*
%TO.P,TP2,1,1*%
%TO.N,GND*%
X217043000Y-89154000D03*
%TD*%
D18*
%TO.P,R8,1*%
%TO.N,Net-(J5-Pin_1)*%
X192381500Y-91440000D03*
%TO.P,R8,2*%
%TO.N,Net-(U3-V_INB-)*%
X194206500Y-91440000D03*
%TD*%
D22*
%TO.P,JP1,1,A*%
%TO.N,VCC*%
X182611000Y-93980000D03*
D23*
%TO.P,JP1,2,B*%
%TO.N,Net-(JP1-B)*%
X181161000Y-93980000D03*
%TD*%
D14*
%TO.P,R4,1*%
%TO.N,Net-(J2-PadT)*%
X212748500Y-90271600D03*
%TO.P,R4,2*%
%TO.N,Net-(C3-Pad1)*%
X210923500Y-90271600D03*
%TD*%
D24*
%TO.P,R9,1*%
%TO.N,Net-(J5-Pin_2)*%
X199898000Y-100023300D03*
%TO.P,R9,2*%
%TO.N,Net-(U3-VOUTA)*%
X199898000Y-98198300D03*
%TD*%
D25*
%TO.P,U3,1,VOUTA*%
%TO.N,Net-(U3-VOUTA)*%
X201676000Y-93448500D03*
%TO.P,U3,2,V_INA-*%
%TO.N,Net-(U3-V_INA-)*%
X201676000Y-92178500D03*
%TO.P,U3,3,V_INA+*%
%TO.N,Net-(U3-V_INA+)*%
X201676000Y-90908500D03*
%TO.P,U3,4,VSS*%
%TO.N,GND*%
X201676000Y-89638500D03*
%TO.P,U3,5,V_INB+*%
%TO.N,Net-(U3-V_INB+)*%
X196726000Y-89638500D03*
%TO.P,U3,6,V_INB-*%
%TO.N,Net-(U3-V_INB-)*%
X196726000Y-90908500D03*
%TO.P,U3,7,V_OUTB*%
X196726000Y-92178500D03*
%TO.P,U3,8,VDD*%
%TO.N,VCC*%
X196726000Y-93448500D03*
%TD*%
D26*
%TO.P,C6,1*%
%TO.N,VCC*%
X194717500Y-94996000D03*
%TO.P,C6,2*%
%TO.N,GND*%
X196442500Y-94996000D03*
%TD*%
D27*
%TO.P,C2,1*%
%TO.N,VCC*%
X185047500Y-99060000D03*
%TO.P,C2,2*%
%TO.N,GND*%
X185047500Y-100785000D03*
%TD*%
D14*
%TO.P,R10,1*%
%TO.N,Net-(U3-V_INA-)*%
X203198100Y-95808800D03*
%TO.P,R10,2*%
%TO.N,Net-(U3-VOUTA)*%
X201373100Y-95808800D03*
%TD*%
D18*
%TO.P,R11,1*%
%TO.N,VCC*%
X198581000Y-85598000D03*
%TO.P,R11,2*%
%TO.N,Net-(C7-Pad2)*%
X200406000Y-85598000D03*
%TD*%
D28*
%TO.P,RV1,1,1*%
%TO.N,VCC*%
X188722000Y-94020000D03*
D29*
%TO.P,RV1,2,2*%
%TO.N,Net-(JP1-B)*%
X188722000Y-96520000D03*
%TO.P,RV1,3,3*%
%TO.N,GND*%
X188722000Y-99020000D03*
%TD*%
D10*
%TO.P,C1,1*%
%TO.N,VCC*%
X160284151Y-97282000D03*
D30*
%TO.P,C1,2*%
%TO.N,GND*%
X156784151Y-97282000D03*
%TD*%
D13*
%TO.P,C7,1*%
%TO.N,GND*%
X208380500Y-87630000D03*
%TO.P,C7,2*%
%TO.N,Net-(C7-Pad2)*%
X206655500Y-87630000D03*
%TD*%
D16*
%TO.P,J1,1,Pin_1*%
%TO.N,Net-(J1-Pin_1)*%
X149352000Y-85344000D03*
D17*
%TO.P,J1,2,Pin_2*%
%TO.N,Net-(J1-Pin_2)*%
X149352000Y-87884000D03*
%TO.P,J1,3,Pin_3*%
%TO.N,Net-(J1-Pin_3)*%
X149352000Y-90424000D03*
%TO.P,J1,4,Pin_4*%
%TO.N,Net-(J1-Pin_4)*%
X149352000Y-92964000D03*
%TO.P,J1,5,Pin_5*%
%TO.N,GND*%
X149352000Y-95504000D03*
D31*
%TO.P,J1,6,Pin_6*%
%TO.N,VCC*%
X149352000Y-98044000D03*
D17*
%TO.P,J1,7,Pin_7*%
%TO.N,unconnected-(J1-Pin_7-Pad7)*%
X146812000Y-85344000D03*
%TO.P,J1,8,Pin_8*%
%TO.N,unconnected-(J1-Pin_8-Pad8)*%
X146812000Y-87884000D03*
%TO.P,J1,9,Pin_9*%
%TO.N,unconnected-(J1-Pin_9-Pad9)*%
X146812000Y-90424000D03*
%TO.P,J1,10,Pin_10*%
%TO.N,unconnected-(J1-Pin_10-Pad10)*%
X146812000Y-92964000D03*
%TO.P,J1,11,Pin_11*%
%TO.N,GND*%
X146812000Y-95504000D03*
%TO.P,J1,12,Pin_12*%
%TO.N,VCC*%
X146812000Y-98044000D03*
%TD*%
D14*
%TO.P,R12,1*%
%TO.N,GND*%
X208430500Y-85598000D03*
%TO.P,R12,2*%
%TO.N,Net-(C7-Pad2)*%
X206605500Y-85598000D03*
%TD*%
D18*
%TO.P,R1,1*%
%TO.N,Net-(JP1-B)*%
X180936500Y-96774000D03*
%TO.P,R1,2*%
%TO.N,VCC*%
X182761500Y-96774000D03*
%TD*%
D32*
%TO.P,J4,1,Pin_1*%
%TO.N,Net-(J4-Pin_1)*%
X155702000Y-85852000D03*
D33*
%TO.P,J4,2,Pin_2*%
%TO.N,Net-(J4-Pin_2)*%
X160782000Y-85852000D03*
%TO.P,J4,3,Pin_3*%
%TO.N,Net-(J4-Pin_3)*%
X165862000Y-85852000D03*
%TO.P,J4,4,Pin_4*%
%TO.N,Net-(J4-Pin_4)*%
X170942000Y-85852000D03*
%TO.P,J4,5,Pin_5*%
%TO.N,Net-(J4-Pin_5)*%
X176022000Y-85852000D03*
%TO.P,J4,6,Pin_6*%
%TO.N,Net-(J4-Pin_6)*%
X181102000Y-85852000D03*
%TO.P,J4,7,Pin_7*%
%TO.N,Net-(J4-Pin_7)*%
X186182000Y-85852000D03*
%TO.P,J4,8,Pin_8*%
%TO.N,/CH0*%
X191262000Y-85852000D03*
%TD*%
D34*
%TO.N,GND*%
X199263000Y-92710000D03*
X199263000Y-90170000D03*
X188722000Y-83693000D03*
X178689000Y-83693000D03*
X199263000Y-95123000D03*
X158369000Y-83693000D03*
X168529000Y-83693000D03*
D35*
%TO.N,Net-(U3-V_INB+)*%
X195961000Y-87630000D03*
D34*
X210693000Y-84582000D03*
D35*
%TO.N,Net-(J5-Pin_1)*%
X193294000Y-93218000D03*
%TD*%
D36*
%TO.N,Net-(U3-V_INA-)*%
X204012800Y-92405200D02*
X203809600Y-92202000D01*
X203198100Y-95658300D02*
X204012800Y-94843600D01*
X203198100Y-95808800D02*
X203198100Y-95658300D01*
X204012800Y-94843600D02*
X204012800Y-92405200D01*
X201676000Y-92178500D02*
X203786100Y-92178500D01*
X203786100Y-92178500D02*
X203809600Y-92202000D01*
X203809600Y-92202000D02*
X205740000Y-90271600D01*
X205740000Y-90271600D02*
X206655500Y-90271600D01*
%TO.N,Net-(J2-PadR)*%
X205867200Y-98730000D02*
X206820000Y-98730000D01*
X205333600Y-98196400D02*
X205867200Y-98730000D01*
X204569700Y-98198300D02*
X204571600Y-98196400D01*
X204571600Y-98196400D02*
X205333600Y-98196400D01*
X203860400Y-98198300D02*
X204569700Y-98198300D01*
%TO.N,Net-(C4-Pad1)*%
X203810400Y-99973300D02*
X203860400Y-100023300D01*
X201879200Y-99973300D02*
X203810400Y-99973300D01*
%TO.N,Net-(U3-V_INA-)*%
X203198100Y-96369500D02*
X203198100Y-95808800D01*
X201879200Y-97688400D02*
X203198100Y-96369500D01*
X201879200Y-98248300D02*
X201879200Y-97688400D01*
%TO.N,Net-(U3-VOUTA)*%
X201373100Y-93751400D02*
X201676000Y-93448500D01*
X201373100Y-95808800D02*
X201373100Y-93751400D01*
X199898000Y-97283900D02*
X201373100Y-95808800D01*
X199898000Y-98198300D02*
X199898000Y-97283900D01*
%TO.N,Net-(J5-Pin_2)*%
X199850300Y-100071000D02*
X199898000Y-100023300D01*
X196855000Y-100071000D02*
X199850300Y-100071000D01*
%TO.N,Net-(J2-PadT)*%
X214320000Y-91843100D02*
X214320000Y-93580000D01*
X212748500Y-90271600D02*
X214320000Y-91843100D01*
%TO.N,Net-(C3-Pad1)*%
X208380500Y-90271600D02*
X210923500Y-90271600D01*
%TO.N,Net-(U3-VOUTA)*%
X201089900Y-93448500D02*
X201676000Y-93448500D01*
D37*
%TO.N,VCC*%
X194717500Y-94334500D02*
X195603500Y-93448500D01*
X198581000Y-85598000D02*
X195326000Y-85598000D01*
X195603500Y-93448500D02*
X196726000Y-93448500D01*
X196749500Y-93472000D02*
X196726000Y-93448500D01*
X160284151Y-98677349D02*
X160284151Y-98934651D01*
X189698000Y-94996000D02*
X194717500Y-94996000D01*
X188722000Y-92202000D02*
X188722000Y-94020000D01*
X182761500Y-94130500D02*
X182761500Y-96774000D01*
D38*
X160284151Y-98677349D02*
X160284151Y-97282000D01*
X158885500Y-100076000D02*
X160284151Y-98677349D01*
D37*
X162187500Y-100838000D02*
X182253500Y-100838000D01*
X182611000Y-99070000D02*
X185037500Y-99070000D01*
X160284151Y-98934651D02*
X162187500Y-100838000D01*
X195326000Y-85598000D02*
X188722000Y-92202000D01*
X182761500Y-96774000D02*
X182761500Y-98919500D01*
X196702500Y-93472000D02*
X196726000Y-93448500D01*
X188722000Y-94020000D02*
X182651000Y-94020000D01*
X182651000Y-94020000D02*
X182611000Y-93980000D01*
X194717500Y-94996000D02*
X194717500Y-94334500D01*
X185037500Y-99070000D02*
X185047500Y-99060000D01*
X182611000Y-93980000D02*
X182761500Y-94130500D01*
D38*
X151384000Y-100076000D02*
X149352000Y-98044000D01*
D37*
X182611000Y-100480500D02*
X182611000Y-99070000D01*
X182253500Y-100838000D02*
X182611000Y-100480500D01*
X188722000Y-94020000D02*
X189698000Y-94996000D01*
X182761500Y-98919500D02*
X182611000Y-99070000D01*
D38*
X146812000Y-98044000D02*
X149352000Y-98044000D01*
X158885500Y-100076000D02*
X151384000Y-100076000D01*
D36*
%TO.N,Net-(C5-Pad1)*%
X214476500Y-84582000D02*
X217043000Y-84582000D01*
%TO.N,Net-(U3-V_INB+)*%
X195961000Y-87630000D02*
X196726000Y-88395000D01*
X210693000Y-84582000D02*
X212751500Y-84582000D01*
X198581000Y-87630000D02*
X195961000Y-87630000D01*
X196726000Y-88395000D02*
X196726000Y-89638500D01*
%TO.N,Net-(C7-Pad2)*%
X206605500Y-85598000D02*
X206605500Y-87580000D01*
X200406000Y-87630000D02*
X200406000Y-85598000D01*
X200406000Y-85598000D02*
X206605500Y-85598000D01*
X206605500Y-87580000D02*
X206655500Y-87630000D01*
X202391000Y-87630000D02*
X200406000Y-87630000D01*
%TO.N,Net-(J1-Pin_1)*%
X158242000Y-93218000D02*
X173228000Y-93218000D01*
X149352000Y-85344000D02*
X150368000Y-85344000D01*
X150368000Y-85344000D02*
X158242000Y-93218000D01*
X173228000Y-93218000D02*
X174991000Y-94981000D01*
X174991000Y-94981000D02*
X174991000Y-99070000D01*
%TO.N,Net-(J1-Pin_2)*%
X156210000Y-93980000D02*
X170688000Y-93980000D01*
X170688000Y-93980000D02*
X172451000Y-95743000D01*
X149352000Y-87884000D02*
X150114000Y-87884000D01*
X172451000Y-95743000D02*
X172451000Y-99070000D01*
X150114000Y-87884000D02*
X156210000Y-93980000D01*
%TO.N,Net-(J1-Pin_3)*%
X153670000Y-94742000D02*
X168148000Y-94742000D01*
X169911000Y-96505000D02*
X169911000Y-99070000D01*
X168148000Y-94742000D02*
X169911000Y-96505000D01*
X149352000Y-90424000D02*
X153670000Y-94742000D01*
%TO.N,Net-(J1-Pin_4)*%
X165608000Y-95504000D02*
X167371000Y-97267000D01*
X167371000Y-97267000D02*
X167371000Y-99070000D01*
X151892000Y-95504000D02*
X165608000Y-95504000D01*
X149352000Y-92964000D02*
X151892000Y-95504000D01*
%TO.N,Net-(J4-Pin_7)*%
X181999500Y-88646000D02*
X183388000Y-88646000D01*
X180071000Y-91450000D02*
X180221500Y-91299500D01*
X180221500Y-91299500D02*
X180221500Y-90424000D01*
X183388000Y-88646000D02*
X186182000Y-85852000D01*
X180221500Y-90424000D02*
X181999500Y-88646000D01*
%TO.N,Net-(J4-Pin_1)*%
X159268000Y-91450000D02*
X155702000Y-87884000D01*
X164831000Y-91450000D02*
X159268000Y-91450000D01*
X155702000Y-87884000D02*
X155702000Y-85852000D01*
%TO.N,Net-(J4-Pin_2)*%
X160782000Y-87884000D02*
X160782000Y-85852000D01*
X162052000Y-89154000D02*
X160782000Y-87884000D01*
X165862000Y-89154000D02*
X162052000Y-89154000D01*
X167371000Y-91450000D02*
X167371000Y-90663000D01*
X167371000Y-90663000D02*
X165862000Y-89154000D01*
%TO.N,Net-(J4-Pin_3)*%
X169911000Y-91450000D02*
X169911000Y-89901000D01*
X169911000Y-89901000D02*
X165862000Y-85852000D01*
%TO.N,Net-(J4-Pin_4)*%
X172451000Y-87361000D02*
X170942000Y-85852000D01*
X172451000Y-91450000D02*
X172451000Y-87361000D01*
%TO.N,Net-(J4-Pin_5)*%
X174991000Y-91450000D02*
X174991000Y-86883000D01*
X174991000Y-86883000D02*
X176022000Y-85852000D01*
%TO.N,Net-(J4-Pin_6)*%
X177531000Y-89423000D02*
X181102000Y-85852000D01*
X177531000Y-91450000D02*
X177531000Y-89423000D01*
%TO.N,/CH0*%
X182611000Y-91450000D02*
X185664000Y-91450000D01*
X185664000Y-91450000D02*
X191262000Y-85852000D01*
%TO.N,Net-(J5-Pin_1)*%
X192381500Y-91440000D02*
X192381500Y-92305500D01*
X192381500Y-92305500D02*
X193294000Y-93218000D01*
%TO.N,Net-(J5-Pin_2)*%
X196855000Y-100071000D02*
X197241000Y-100457000D01*
D37*
%TO.N,Net-(JP1-B)*%
X180071000Y-99070000D02*
X180071000Y-96877500D01*
X179205500Y-96774000D02*
X179967500Y-96774000D01*
X179967500Y-96774000D02*
X180936500Y-96774000D01*
X180936500Y-96774000D02*
X180936500Y-94204500D01*
X180071000Y-96877500D02*
X179967500Y-96774000D01*
X180936500Y-94204500D02*
X181161000Y-93980000D01*
D36*
%TO.N,Net-(U3-V_INA+)*%
X201676000Y-90908500D02*
X202969500Y-90908500D01*
X204216000Y-89662000D02*
X204216000Y-87630000D01*
X202969500Y-90908500D02*
X204216000Y-89662000D01*
%TO.N,Net-(U3-V_INB-)*%
X196726000Y-90908500D02*
X196726000Y-92178500D01*
X194738000Y-90908500D02*
X194206500Y-91440000D01*
X196726000Y-90908500D02*
X194738000Y-90908500D01*
%TO.N,Net-(U3-VOUTA)*%
X201779500Y-93552000D02*
X201676000Y-93448500D01*
%TD*%
%TA.AperFunction,Conductor*%
%TO.N,Net-(J1-Pin_4)*%
G36*
X167496875Y-97473427D02*
G01*
X167499172Y-97476683D01*
X168104833Y-98752748D01*
X168105284Y-98761692D01*
X168099280Y-98768335D01*
X168098753Y-98768569D01*
X167375490Y-99069134D01*
X167366536Y-99069144D01*
X167366510Y-99069134D01*
X166643246Y-98768569D01*
X166636921Y-98762230D01*
X166636932Y-98753275D01*
X166637154Y-98752773D01*
X167242828Y-97476682D01*
X167249471Y-97470679D01*
X167253398Y-97470000D01*
X167488602Y-97470000D01*
X167496875Y-97473427D01*
G37*
%TD.AperFunction*%
%TD*%
%TA.AperFunction,Conductor*%
%TO.N,Net-(J1-Pin_4)*%
G36*
X150134838Y-92643441D02*
G01*
X150141163Y-92649780D01*
X150141388Y-92650370D01*
X150640031Y-94070748D01*
X150639539Y-94079690D01*
X150637265Y-94082897D01*
X150470897Y-94249265D01*
X150462624Y-94252692D01*
X150458748Y-94252031D01*
X149038370Y-93753388D01*
X149031699Y-93747415D01*
X149031207Y-93738473D01*
X149031423Y-93737905D01*
X149349438Y-92967783D01*
X149355759Y-92961448D01*
X150125884Y-92643432D01*
X150134838Y-92643441D01*
G37*
%TD.AperFunction*%
%TD*%
%TA.AperFunction,Conductor*%
%TO.N,Net-(JP1-B)*%
G36*
X180321188Y-97473427D02*
G01*
X180323859Y-97477563D01*
X180806099Y-98753258D01*
X180805819Y-98762208D01*
X180799645Y-98768199D01*
X180075490Y-99069134D01*
X180066536Y-99069144D01*
X179342353Y-98768198D01*
X179336029Y-98761860D01*
X179335900Y-98753260D01*
X179818141Y-97477562D01*
X179824272Y-97471036D01*
X179829085Y-97470000D01*
X180312915Y-97470000D01*
X180321188Y-97473427D01*
G37*
%TD.AperFunction*%
%TD*%
%TA.AperFunction,Conductor*%
%TO.N,/CH0*%
G36*
X190303636Y-85455020D02*
G01*
X191258218Y-85849438D01*
X191264554Y-85855763D01*
X191264562Y-85855782D01*
X191658976Y-86810356D01*
X191658968Y-86819311D01*
X191652631Y-86825637D01*
X191651750Y-86825961D01*
X189907624Y-87387765D01*
X189898699Y-87387039D01*
X189895764Y-87384901D01*
X189729098Y-87218235D01*
X189725671Y-87209962D01*
X189726233Y-87206380D01*
X190288039Y-85462246D01*
X190293837Y-85455425D01*
X190302762Y-85454699D01*
X190303636Y-85455020D01*
G37*
%TD.AperFunction*%
%TD*%
%TA.AperFunction,Conductor*%
%TO.N,Net-(J4-Pin_2)*%
G36*
X160785776Y-85853152D02*
G01*
X161013261Y-85947476D01*
X161739925Y-86248780D01*
X161746255Y-86255115D01*
X161746252Y-86264069D01*
X161745657Y-86265297D01*
X160883906Y-87806925D01*
X160881966Y-87809489D01*
X160717660Y-87973795D01*
X160709387Y-87977222D01*
X160701114Y-87973795D01*
X160698992Y-87970892D01*
X159817856Y-86265297D01*
X159817761Y-86265114D01*
X159817010Y-86256193D01*
X159822787Y-86249351D01*
X159823662Y-86248944D01*
X160776808Y-85853154D01*
X160785763Y-85853147D01*
X160785776Y-85853152D01*
G37*
%TD.AperFunction*%
%TD*%
%TA.AperFunction,Conductor*%
%TO.N,VCC*%
G36*
X183338591Y-99371362D02*
G01*
X183344916Y-99377701D01*
X183344905Y-99386656D01*
X183344599Y-99387332D01*
X182660994Y-100776610D01*
X182654267Y-100782520D01*
X182645330Y-100781942D01*
X182642223Y-100779717D01*
X182301912Y-100439406D01*
X182299335Y-100435511D01*
X181876231Y-99386892D01*
X181876313Y-99377937D01*
X181882596Y-99371708D01*
X182607220Y-99071153D01*
X182616173Y-99071149D01*
X183338591Y-99371362D01*
G37*
%TD.AperFunction*%
%TD*%
%TA.AperFunction,Conductor*%
%TO.N,Net-(U3-V_INB+)*%
G36*
X211184267Y-84454711D02*
G01*
X211191400Y-84460123D01*
X211193000Y-84466028D01*
X211193000Y-84697971D01*
X211189573Y-84706244D01*
X211184266Y-84709289D01*
X210798504Y-84810392D01*
X210789633Y-84809174D01*
X210784745Y-84803591D01*
X210693889Y-84586515D01*
X210693857Y-84577563D01*
X210784746Y-84360406D01*
X210791101Y-84354099D01*
X210798504Y-84353607D01*
X211184267Y-84454711D01*
G37*
%TD.AperFunction*%
%TD*%
%TA.AperFunction,Conductor*%
%TO.N,Net-(J4-Pin_7)*%
G36*
X185223636Y-85455020D02*
G01*
X186178218Y-85849438D01*
X186184554Y-85855763D01*
X186184562Y-85855782D01*
X186578976Y-86810356D01*
X186578968Y-86819311D01*
X186572631Y-86825637D01*
X186571750Y-86825961D01*
X184827624Y-87387765D01*
X184818699Y-87387039D01*
X184815764Y-87384901D01*
X184649098Y-87218235D01*
X184645671Y-87209962D01*
X184646233Y-87206380D01*
X185208039Y-85462246D01*
X185213837Y-85455425D01*
X185222762Y-85454699D01*
X185223636Y-85455020D01*
G37*
%TD.AperFunction*%
%TD*%
%TA.AperFunction,Conductor*%
%TO.N,VCC*%
G36*
X196687889Y-93439007D02*
G01*
X196695201Y-93444175D01*
X196696717Y-93453001D01*
X196691549Y-93460313D01*
X196689310Y-93461412D01*
X195903323Y-93747653D01*
X195898533Y-93748333D01*
X195676822Y-93733404D01*
X195669335Y-93730003D01*
X195332323Y-93392991D01*
X195328896Y-93384718D01*
X195332323Y-93376445D01*
X195336928Y-93373608D01*
X195766045Y-93232073D01*
X195772288Y-93231774D01*
X196687889Y-93439007D01*
G37*
%TD.AperFunction*%
%TD*%
%TA.AperFunction,Conductor*%
%TO.N,GND*%
G36*
X208254010Y-93230000D02*
G01*
X207697686Y-94593549D01*
X206819000Y-94230000D01*
X206456451Y-93352314D01*
X208254010Y-92980000D01*
X208254010Y-93230000D01*
G37*
%TD.AperFunction*%
%TD*%
%TA.AperFunction,Conductor*%
%TO.N,Net-(U3-V_INA-)*%
G36*
X202562408Y-91891586D02*
G01*
X202943800Y-92050500D01*
X202950119Y-92056845D01*
X202951000Y-92061300D01*
X202951000Y-92295699D01*
X202947573Y-92303972D01*
X202943800Y-92306499D01*
X202562410Y-92465412D01*
X202554277Y-92465734D01*
X201709045Y-92189621D01*
X201702246Y-92183795D01*
X201701557Y-92174867D01*
X201707384Y-92168067D01*
X201709044Y-92167378D01*
X202554279Y-91891265D01*
X202562408Y-91891586D01*
G37*
%TD.AperFunction*%
%TD*%
%TA.AperFunction,Conductor*%
%TO.N,Net-(C7-Pad2)*%
G36*
X206612220Y-85601715D02*
G01*
X207066307Y-85920343D01*
X207071111Y-85927900D01*
X207069821Y-85935590D01*
X206733841Y-86541970D01*
X206726834Y-86547546D01*
X206723607Y-86548000D01*
X206487393Y-86548000D01*
X206479120Y-86544573D01*
X206477159Y-86541970D01*
X206141178Y-85935590D01*
X206140166Y-85926693D01*
X206144691Y-85920343D01*
X206598780Y-85601714D01*
X206607520Y-85599768D01*
X206612220Y-85601715D01*
G37*
%TD.AperFunction*%
%TD*%
%TA.AperFunction,Conductor*%
%TO.N,Net-(J5-Pin_2)*%
G36*
X197464266Y-99477095D02*
G01*
X198445694Y-100328501D01*
X198449698Y-100336511D01*
X198449727Y-100337339D01*
X198449727Y-100572558D01*
X198446300Y-100580831D01*
X198440498Y-100583994D01*
X197189814Y-100854237D01*
X197181004Y-100852635D01*
X197176538Y-100847290D01*
X197062390Y-100572558D01*
X196857004Y-100078232D01*
X196856996Y-100069278D01*
X196859541Y-100065467D01*
X197448335Y-99477652D01*
X197456609Y-99474233D01*
X197464266Y-99477095D01*
G37*
%TD.AperFunction*%
%TD*%
%TA.AperFunction,Conductor*%
%TO.N,VCC*%
G36*
X198241038Y-85144382D02*
G01*
X198245169Y-85147836D01*
X198576755Y-85590991D01*
X198578968Y-85599668D01*
X198576755Y-85605009D01*
X198245169Y-86048163D01*
X198237469Y-86052735D01*
X198232106Y-86052255D01*
X197626505Y-85850664D01*
X197619737Y-85844800D01*
X197618500Y-85839563D01*
X197618500Y-85356436D01*
X197621927Y-85348163D01*
X197626503Y-85345335D01*
X198232106Y-85143744D01*
X198241038Y-85144382D01*
G37*
%TD.AperFunction*%
%TD*%
%TA.AperFunction,Conductor*%
%TO.N,Net-(J4-Pin_4)*%
G36*
X172576875Y-89853427D02*
G01*
X172579172Y-89856683D01*
X173184833Y-91132748D01*
X173185284Y-91141692D01*
X173179280Y-91148335D01*
X173178753Y-91148569D01*
X172455489Y-91449134D01*
X172446536Y-91449144D01*
X172220470Y-91355199D01*
X171723246Y-91148569D01*
X171716921Y-91142230D01*
X171716932Y-91133275D01*
X171717154Y-91132773D01*
X172322828Y-89856682D01*
X172329471Y-89850679D01*
X172333398Y-89850000D01*
X172568602Y-89850000D01*
X172576875Y-89853427D01*
G37*
%TD.AperFunction*%
%TD*%
%TA.AperFunction,Conductor*%
%TO.N,Net-(J4-Pin_2)*%
G36*
X166891072Y-90004990D02*
G01*
X167926936Y-90876116D01*
X167931063Y-90884063D01*
X167928360Y-90892600D01*
X167927689Y-90893333D01*
X167375139Y-91447265D01*
X167366871Y-91450702D01*
X167366846Y-91450702D01*
X166583993Y-91450011D01*
X166575723Y-91446577D01*
X166572303Y-91438301D01*
X166572367Y-91437095D01*
X166705648Y-90178972D01*
X166709009Y-90171934D01*
X166875272Y-90005671D01*
X166883544Y-90002245D01*
X166891072Y-90004990D01*
G37*
%TD.AperFunction*%
%TD*%
%TA.AperFunction,Conductor*%
%TO.N,Net-(J4-Pin_6)*%
G36*
X180143636Y-85455020D02*
G01*
X181098218Y-85849438D01*
X181104554Y-85855763D01*
X181104562Y-85855782D01*
X181498976Y-86810356D01*
X181498968Y-86819311D01*
X181492631Y-86825637D01*
X181491750Y-86825961D01*
X179747624Y-87387765D01*
X179738699Y-87387039D01*
X179735764Y-87384901D01*
X179569098Y-87218235D01*
X179565671Y-87209962D01*
X179566233Y-87206380D01*
X180128039Y-85462246D01*
X180133837Y-85455425D01*
X180142762Y-85454699D01*
X180143636Y-85455020D01*
G37*
%TD.AperFunction*%
%TD*%
%TA.AperFunction,Conductor*%
%TO.N,Net-(J1-Pin_1)*%
G36*
X150208881Y-84734191D02*
G01*
X150934166Y-85731186D01*
X150936262Y-85739892D01*
X150932978Y-85746342D01*
X150764631Y-85914689D01*
X150761550Y-85916901D01*
X150209526Y-86190273D01*
X150200592Y-86190873D01*
X150196061Y-86188061D01*
X149360976Y-85352976D01*
X149357549Y-85344703D01*
X149360976Y-85336430D01*
X149362368Y-85335240D01*
X150192539Y-84731611D01*
X150201246Y-84729517D01*
X150208881Y-84734191D01*
G37*
%TD.AperFunction*%
%TD*%
%TA.AperFunction,Conductor*%
%TO.N,VCC*%
G36*
X188973651Y-92772427D02*
G01*
X188975409Y-92774678D01*
X189342800Y-93386671D01*
X189344120Y-93395528D01*
X189341049Y-93400960D01*
X188730280Y-94012706D01*
X188722009Y-94016139D01*
X188713733Y-94012719D01*
X188713720Y-94012706D01*
X188102950Y-93400960D01*
X188099530Y-93392684D01*
X188101198Y-93386673D01*
X188468591Y-92774677D01*
X188475787Y-92769349D01*
X188478622Y-92769000D01*
X188965378Y-92769000D01*
X188973651Y-92772427D01*
G37*
%TD.AperFunction*%
%TD*%
%TA.AperFunction,Conductor*%
%TO.N,VCC*%
G36*
X184203437Y-98817141D02*
G01*
X184209964Y-98823272D01*
X184211000Y-98828085D01*
X184211000Y-99311914D01*
X184207573Y-99320187D01*
X184203437Y-99322858D01*
X182927741Y-99805099D01*
X182918791Y-99804819D01*
X182912801Y-99798646D01*
X182611864Y-99074487D01*
X182611854Y-99065538D01*
X182912801Y-98341352D01*
X182919139Y-98335029D01*
X182927739Y-98334900D01*
X184203437Y-98817141D01*
G37*
%TD.AperFunction*%
%TD*%
%TA.AperFunction,Conductor*%
%TO.N,Net-(U3-V_INB-)*%
G36*
X195036721Y-90787932D02*
G01*
X195041605Y-90795438D01*
X195041803Y-90797580D01*
X195041803Y-91030585D01*
X195040435Y-91036074D01*
X194696078Y-91684222D01*
X194689170Y-91689921D01*
X194680311Y-91689094D01*
X194671024Y-91684222D01*
X194536722Y-91613765D01*
X194209908Y-91442312D01*
X194204173Y-91435434D01*
X194204109Y-91435219D01*
X194086408Y-91030585D01*
X194070939Y-90977403D01*
X194071918Y-90968503D01*
X194078905Y-90962902D01*
X194080020Y-90962636D01*
X195027961Y-90786078D01*
X195036721Y-90787932D01*
G37*
%TD.AperFunction*%
%TD*%
%TA.AperFunction,Conductor*%
%TO.N,VCC*%
G36*
X184651893Y-98595701D02*
G01*
X185042165Y-99052584D01*
X185044933Y-99061099D01*
X185042346Y-99067565D01*
X184664186Y-99532505D01*
X184656307Y-99536761D01*
X184650854Y-99536021D01*
X184104945Y-99322906D01*
X184098485Y-99316705D01*
X184097500Y-99312007D01*
X184097500Y-98827771D01*
X184100927Y-98819498D01*
X184104661Y-98816988D01*
X184638462Y-98592514D01*
X184647415Y-98592467D01*
X184651893Y-98595701D01*
G37*
%TD.AperFunction*%
%TD*%
%TA.AperFunction,Conductor*%
%TO.N,VCC*%
G36*
X160292727Y-97289969D02*
G01*
X160293111Y-97290371D01*
X161007563Y-98076193D01*
X161010593Y-98084620D01*
X161009473Y-98089087D01*
X160500111Y-99160639D01*
X160493464Y-99166640D01*
X160484521Y-99166183D01*
X160481271Y-99163889D01*
X160478021Y-99160639D01*
X159786133Y-98468751D01*
X159785666Y-98468222D01*
X159490518Y-98090156D01*
X159488128Y-98081526D01*
X159491466Y-98074684D01*
X160276182Y-97289968D01*
X160284454Y-97286542D01*
X160292727Y-97289969D01*
G37*
%TD.AperFunction*%
%TD*%
%TA.AperFunction,Conductor*%
%TO.N,Net-(U3-V_INB+)*%
G36*
X196852553Y-89041927D02*
G01*
X196854386Y-89044305D01*
X197021463Y-89330722D01*
X197022672Y-89339595D01*
X197019644Y-89344876D01*
X196734287Y-89631185D01*
X196726019Y-89634626D01*
X196717741Y-89631213D01*
X196717713Y-89631185D01*
X196432355Y-89344876D01*
X196428942Y-89336598D01*
X196430534Y-89330725D01*
X196597613Y-89044305D01*
X196604742Y-89038885D01*
X196607720Y-89038500D01*
X196844280Y-89038500D01*
X196852553Y-89041927D01*
G37*
%TD.AperFunction*%
%TD*%
%TA.AperFunction,Conductor*%
%TO.N,VCC*%
G36*
X182768220Y-96777715D02*
G01*
X183223653Y-97097287D01*
X183228457Y-97104844D01*
X183227966Y-97110758D01*
X183014255Y-97716194D01*
X183008270Y-97722855D01*
X183003222Y-97724000D01*
X182519778Y-97724000D01*
X182511505Y-97720573D01*
X182508745Y-97716194D01*
X182438902Y-97518333D01*
X182295033Y-97110755D01*
X182295511Y-97101816D01*
X182299344Y-97097289D01*
X182754780Y-96777714D01*
X182763520Y-96775768D01*
X182768220Y-96777715D01*
G37*
%TD.AperFunction*%
%TD*%
%TA.AperFunction,Conductor*%
%TO.N,Net-(U3-V_INB+)*%
G36*
X212366724Y-84132204D02*
G01*
X212745967Y-84574383D01*
X212748752Y-84582894D01*
X212745967Y-84589617D01*
X212366724Y-85031795D01*
X212358737Y-85035844D01*
X212352332Y-85034499D01*
X211745189Y-84710304D01*
X211739505Y-84703384D01*
X211739000Y-84699983D01*
X211739000Y-84464016D01*
X211742427Y-84455743D01*
X211745187Y-84453695D01*
X212352333Y-84129499D01*
X212361244Y-84128626D01*
X212366724Y-84132204D01*
G37*
%TD.AperFunction*%
%TD*%
%TA.AperFunction,Conductor*%
%TO.N,Net-(J4-Pin_5)*%
G36*
X175116875Y-89853427D02*
G01*
X175119172Y-89856683D01*
X175724833Y-91132748D01*
X175725284Y-91141692D01*
X175719280Y-91148335D01*
X175718753Y-91148569D01*
X174995490Y-91449134D01*
X174986536Y-91449144D01*
X174986510Y-91449134D01*
X174263246Y-91148569D01*
X174256921Y-91142230D01*
X174256932Y-91133275D01*
X174257154Y-91132773D01*
X174862828Y-89856682D01*
X174869471Y-89850679D01*
X174873398Y-89850000D01*
X175108602Y-89850000D01*
X175116875Y-89853427D01*
G37*
%TD.AperFunction*%
%TD*%
%TA.AperFunction,Conductor*%
%TO.N,VCC*%
G36*
X148502677Y-97542065D02*
G01*
X148510082Y-97547102D01*
X148512000Y-97553521D01*
X148512000Y-98534478D01*
X148508573Y-98542751D01*
X148502677Y-98545934D01*
X147146751Y-98827332D01*
X147137955Y-98825658D01*
X147133569Y-98820365D01*
X146812865Y-98048488D01*
X146812856Y-98039533D01*
X146812856Y-98039532D01*
X147133570Y-97267632D01*
X147139908Y-97261309D01*
X147146749Y-97260667D01*
X148502677Y-97542065D01*
G37*
%TD.AperFunction*%
%TD*%
%TA.AperFunction,Conductor*%
%TO.N,Net-(J4-Pin_7)*%
G36*
X180525765Y-89958844D02*
G01*
X180691798Y-90124877D01*
X180695122Y-90131603D01*
X180869234Y-91436764D01*
X180866931Y-91445418D01*
X180859184Y-91449908D01*
X180857647Y-91450011D01*
X180075153Y-91450702D01*
X180066877Y-91447282D01*
X180066860Y-91447265D01*
X179513909Y-90892931D01*
X179510492Y-90884653D01*
X179513929Y-90876385D01*
X179514236Y-90876090D01*
X180509563Y-89958514D01*
X180517967Y-89955427D01*
X180525765Y-89958844D01*
G37*
%TD.AperFunction*%
%TD*%
%TA.AperFunction,Conductor*%
%TO.N,Net-(J4-Pin_6)*%
G36*
X177656875Y-89853427D02*
G01*
X177659172Y-89856683D01*
X178264833Y-91132748D01*
X178265284Y-91141692D01*
X178259280Y-91148335D01*
X178258753Y-91148569D01*
X177535490Y-91449134D01*
X177526536Y-91449144D01*
X177526510Y-91449134D01*
X176803246Y-91148569D01*
X176796921Y-91142230D01*
X176796932Y-91133275D01*
X176797154Y-91132773D01*
X177402828Y-89856682D01*
X177409471Y-89850679D01*
X177413398Y-89850000D01*
X177648602Y-89850000D01*
X177656875Y-89853427D01*
G37*
%TD.AperFunction*%
%TD*%
%TA.AperFunction,Conductor*%
%TO.N,Net-(U3-V_INB-)*%
G36*
X196342904Y-90783027D02*
G01*
X196692953Y-90897378D01*
X196699753Y-90903205D01*
X196700442Y-90912133D01*
X196694615Y-90918933D01*
X196692953Y-90919622D01*
X195847722Y-91195734D01*
X195839589Y-91195412D01*
X195458199Y-91036499D01*
X195451880Y-91030154D01*
X195451000Y-91025704D01*
X195451000Y-90791297D01*
X195454426Y-90783027D01*
X195458197Y-90780501D01*
X195839591Y-90621586D01*
X195847720Y-90621265D01*
X196342904Y-90783027D01*
G37*
%TD.AperFunction*%
%TD*%
%TA.AperFunction,Conductor*%
%TO.N,Net-(J5-Pin_1)*%
G36*
X192824071Y-92567252D02*
G01*
X193436760Y-92843793D01*
X193442891Y-92850320D01*
X193442767Y-92858909D01*
X193296563Y-93214195D01*
X193290245Y-93220542D01*
X193290195Y-93220563D01*
X192934909Y-93366767D01*
X192925955Y-93366746D01*
X192919793Y-93360760D01*
X192855676Y-93218707D01*
X192693279Y-92858909D01*
X192643252Y-92748071D01*
X192642972Y-92739121D01*
X192645641Y-92734987D01*
X192810986Y-92569642D01*
X192819258Y-92566216D01*
X192824071Y-92567252D01*
G37*
%TD.AperFunction*%
%TD*%
%TA.AperFunction,Conductor*%
%TO.N,Net-(C5-Pad1)*%
G36*
X214875666Y-84129499D02*
G01*
X215482811Y-84453695D01*
X215488495Y-84460615D01*
X215489000Y-84464016D01*
X215489000Y-84699983D01*
X215485573Y-84708256D01*
X215482811Y-84710304D01*
X214875667Y-85034499D01*
X214866755Y-85035373D01*
X214861275Y-85031795D01*
X214585542Y-84710304D01*
X214482031Y-84589615D01*
X214479247Y-84581106D01*
X214482031Y-84574384D01*
X214861276Y-84132203D01*
X214869262Y-84128155D01*
X214875666Y-84129499D01*
G37*
%TD.AperFunction*%
%TD*%
%TA.AperFunction,Conductor*%
%TO.N,Net-(J4-Pin_3)*%
G36*
X166829311Y-85455031D02*
G01*
X166835637Y-85461368D01*
X166835961Y-85462249D01*
X167397765Y-87206375D01*
X167397039Y-87215300D01*
X167394901Y-87218235D01*
X167228235Y-87384901D01*
X167219962Y-87388328D01*
X167216375Y-87387765D01*
X165472249Y-86825961D01*
X165465425Y-86820162D01*
X165464699Y-86811237D01*
X165465017Y-86810371D01*
X165859439Y-85855779D01*
X165865761Y-85849446D01*
X166820357Y-85455023D01*
X166829311Y-85455031D01*
G37*
%TD.AperFunction*%
%TD*%
%TA.AperFunction,Conductor*%
%TO.N,Net-(C7-Pad2)*%
G36*
X200412720Y-85601715D02*
G01*
X200866807Y-85920343D01*
X200871611Y-85927900D01*
X200870321Y-85935590D01*
X200534341Y-86541970D01*
X200527334Y-86547546D01*
X200524107Y-86548000D01*
X200287893Y-86548000D01*
X200279620Y-86544573D01*
X200277659Y-86541970D01*
X199941678Y-85935590D01*
X199940666Y-85926693D01*
X199945191Y-85920343D01*
X200399280Y-85601714D01*
X200408020Y-85599768D01*
X200412720Y-85601715D01*
G37*
%TD.AperFunction*%
%TD*%
%TA.AperFunction,Conductor*%
%TO.N,Net-(J1-Pin_3)*%
G36*
X170036875Y-97473427D02*
G01*
X170039172Y-97476683D01*
X170644833Y-98752748D01*
X170645284Y-98761692D01*
X170639280Y-98768335D01*
X170638753Y-98768569D01*
X169915490Y-99069134D01*
X169906536Y-99069144D01*
X169906510Y-99069134D01*
X169183246Y-98768569D01*
X169176921Y-98762230D01*
X169176932Y-98753275D01*
X169177154Y-98752773D01*
X169782828Y-97476682D01*
X169789471Y-97470679D01*
X169793398Y-97470000D01*
X170028602Y-97470000D01*
X170036875Y-97473427D01*
G37*
%TD.AperFunction*%
%TD*%
%TA.AperFunction,Conductor*%
%TO.N,Net-(J1-Pin_2)*%
G36*
X149960218Y-87292325D02*
G01*
X149961164Y-87293397D01*
X150417559Y-87879877D01*
X150870484Y-88461899D01*
X150872860Y-88470532D01*
X150869523Y-88477357D01*
X150703170Y-88643710D01*
X150695652Y-88647113D01*
X149364444Y-88733195D01*
X149355967Y-88730309D01*
X149352013Y-88722274D01*
X149351989Y-88721549D01*
X149351297Y-87888152D01*
X149354717Y-87879877D01*
X149354734Y-87879860D01*
X149943673Y-87292304D01*
X149951949Y-87288888D01*
X149960218Y-87292325D01*
G37*
%TD.AperFunction*%
%TD*%
%TA.AperFunction,Conductor*%
%TO.N,Net-(U3-V_INA+)*%
G36*
X204222720Y-87633715D02*
G01*
X204676807Y-87952343D01*
X204681611Y-87959900D01*
X204680321Y-87967590D01*
X204344341Y-88573970D01*
X204337334Y-88579546D01*
X204334107Y-88580000D01*
X204097893Y-88580000D01*
X204089620Y-88576573D01*
X204087659Y-88573970D01*
X203751678Y-87967590D01*
X203750666Y-87958693D01*
X203755191Y-87952343D01*
X204209280Y-87633714D01*
X204218020Y-87631768D01*
X204222720Y-87633715D01*
G37*
%TD.AperFunction*%
%TD*%
%TA.AperFunction,Conductor*%
%TO.N,Net-(C7-Pad2)*%
G36*
X200755747Y-85145810D02*
G01*
X201362311Y-85469695D01*
X201367995Y-85476615D01*
X201368500Y-85480016D01*
X201368500Y-85715983D01*
X201365073Y-85724256D01*
X201362311Y-85726304D01*
X200755747Y-86050189D01*
X200746835Y-86051063D01*
X200740868Y-86046877D01*
X200498530Y-85723000D01*
X200410243Y-85605008D01*
X200408031Y-85596332D01*
X200410244Y-85590991D01*
X200501003Y-85469695D01*
X200740869Y-85149121D01*
X200748568Y-85144550D01*
X200755747Y-85145810D01*
G37*
%TD.AperFunction*%
%TD*%
%TA.AperFunction,Conductor*%
%TO.N,Net-(J5-Pin_2)*%
G36*
X199575480Y-100019440D02*
G01*
X199894244Y-100473723D01*
X199896191Y-100482463D01*
X199894191Y-100487239D01*
X199572096Y-100938670D01*
X199564501Y-100943414D01*
X199556616Y-100941945D01*
X198953744Y-100585397D01*
X198948368Y-100578236D01*
X198948000Y-100575326D01*
X198948000Y-100339126D01*
X198951427Y-100330853D01*
X198954330Y-100328731D01*
X199560538Y-100015763D01*
X199569459Y-100015013D01*
X199575480Y-100019440D01*
G37*
%TD.AperFunction*%
%TD*%
%TA.AperFunction,Conductor*%
%TO.N,Net-(C7-Pad2)*%
G36*
X200755747Y-87177810D02*
G01*
X201362311Y-87501695D01*
X201367995Y-87508615D01*
X201368500Y-87512016D01*
X201368500Y-87747983D01*
X201365073Y-87756256D01*
X201362311Y-87758304D01*
X200755747Y-88082189D01*
X200746835Y-88083063D01*
X200740868Y-88078877D01*
X200498530Y-87755000D01*
X200410243Y-87637008D01*
X200408031Y-87628332D01*
X200410244Y-87622991D01*
X200501003Y-87501695D01*
X200740869Y-87181121D01*
X200748568Y-87176550D01*
X200755747Y-87177810D01*
G37*
%TD.AperFunction*%
%TD*%
%TA.AperFunction,Conductor*%
%TO.N,Net-(U3-V_INB+)*%
G36*
X196329044Y-87481253D02*
G01*
X196335206Y-87487239D01*
X196611747Y-88099928D01*
X196612027Y-88108878D01*
X196609356Y-88113014D01*
X196444014Y-88278356D01*
X196435741Y-88281783D01*
X196430928Y-88280747D01*
X195818239Y-88004206D01*
X195812108Y-87997679D01*
X195812232Y-87989090D01*
X195958437Y-87633802D01*
X195964753Y-87627457D01*
X196320090Y-87481232D01*
X196329044Y-87481253D01*
G37*
%TD.AperFunction*%
%TD*%
%TA.AperFunction,Conductor*%
%TO.N,Net-(J4-Pin_1)*%
G36*
X164529335Y-90721719D02*
G01*
X164529569Y-90722246D01*
X164830134Y-91445510D01*
X164830144Y-91454463D01*
X164830135Y-91454485D01*
X164830134Y-91454490D01*
X164529569Y-92177753D01*
X164523230Y-92184078D01*
X164514275Y-92184067D01*
X164513748Y-92183833D01*
X163237683Y-91578171D01*
X163231679Y-91571528D01*
X163231000Y-91567601D01*
X163231000Y-91332398D01*
X163234427Y-91324125D01*
X163237683Y-91321828D01*
X164513749Y-90716165D01*
X164522692Y-90715715D01*
X164529335Y-90721719D01*
G37*
%TD.AperFunction*%
%TD*%
%TA.AperFunction,Conductor*%
%TO.N,VCC*%
G36*
X194328086Y-94542199D02*
G01*
X194331730Y-94545045D01*
X194711967Y-94988383D01*
X194714752Y-94996894D01*
X194711967Y-95003617D01*
X194331730Y-95446954D01*
X194323743Y-95451003D01*
X194319154Y-95450438D01*
X193713005Y-95248664D01*
X193706237Y-95242800D01*
X193705000Y-95237563D01*
X193705000Y-94754436D01*
X193708427Y-94746163D01*
X193713003Y-94743335D01*
X194319156Y-94541561D01*
X194328086Y-94542199D01*
G37*
%TD.AperFunction*%
%TD*%
%TA.AperFunction,Conductor*%
%TO.N,Net-(J1-Pin_3)*%
G36*
X150134838Y-90103441D02*
G01*
X150141163Y-90109780D01*
X150141388Y-90110370D01*
X150640031Y-91530748D01*
X150639539Y-91539690D01*
X150637265Y-91542897D01*
X150470897Y-91709265D01*
X150462624Y-91712692D01*
X150458748Y-91712031D01*
X149038370Y-91213388D01*
X149031699Y-91207415D01*
X149031207Y-91198473D01*
X149031423Y-91197905D01*
X149349438Y-90427783D01*
X149355759Y-90421448D01*
X150125884Y-90103432D01*
X150134838Y-90103441D01*
G37*
%TD.AperFunction*%
%TD*%
%TA.AperFunction,Conductor*%
%TO.N,Net-(U3-V_INB-)*%
G36*
X196852553Y-91581927D02*
G01*
X196854386Y-91584305D01*
X197021463Y-91870722D01*
X197022672Y-91879595D01*
X197019644Y-91884876D01*
X196734287Y-92171185D01*
X196726019Y-92174626D01*
X196717741Y-92171213D01*
X196717713Y-92171185D01*
X196432355Y-91884876D01*
X196428942Y-91876598D01*
X196430534Y-91870725D01*
X196597613Y-91584305D01*
X196604742Y-91578885D01*
X196607720Y-91578500D01*
X196844280Y-91578500D01*
X196852553Y-91581927D01*
G37*
%TD.AperFunction*%
%TD*%
%TA.AperFunction,Conductor*%
%TO.N,Net-(U3-VOUTA)*%
G36*
X200024257Y-97696427D02*
G01*
X200026305Y-97699189D01*
X200350189Y-98305752D01*
X200351063Y-98314664D01*
X200346877Y-98320631D01*
X199905009Y-98651255D01*
X199896332Y-98653468D01*
X199890991Y-98651255D01*
X199449122Y-98320631D01*
X199444550Y-98312931D01*
X199445810Y-98305752D01*
X199769695Y-97699189D01*
X199776615Y-97693505D01*
X199780016Y-97693000D01*
X200015984Y-97693000D01*
X200024257Y-97696427D01*
G37*
%TD.AperFunction*%
%TD*%
%TA.AperFunction,Conductor*%
%TO.N,Net-(C5-Pad1)*%
G36*
X216300554Y-83839544D02*
G01*
X217035709Y-84573720D01*
X217039141Y-84581991D01*
X217035720Y-84590267D01*
X217035709Y-84590278D01*
X216300554Y-85324455D01*
X216292278Y-85327876D01*
X216284797Y-85325164D01*
X215547210Y-84710508D01*
X215543048Y-84702579D01*
X215543000Y-84701520D01*
X215543000Y-84462479D01*
X215546427Y-84454206D01*
X215547201Y-84453498D01*
X216284799Y-83838834D01*
X216293345Y-83836171D01*
X216300554Y-83839544D01*
G37*
%TD.AperFunction*%
%TD*%
%TA.AperFunction,Conductor*%
%TO.N,VCC*%
G36*
X183010795Y-97503363D02*
G01*
X183013823Y-97508608D01*
X183347451Y-98753953D01*
X183346282Y-98762831D01*
X183340640Y-98767785D01*
X182615490Y-99069134D01*
X182606536Y-99069144D01*
X182606510Y-99069134D01*
X181883537Y-98768690D01*
X181877212Y-98762351D01*
X181877223Y-98753396D01*
X181877577Y-98752625D01*
X182508252Y-97506353D01*
X182515046Y-97500519D01*
X182518692Y-97499936D01*
X183002522Y-97499936D01*
X183010795Y-97503363D01*
G37*
%TD.AperFunction*%
%TD*%
%TA.AperFunction,Conductor*%
%TO.N,Net-(J4-Pin_4)*%
G36*
X171909311Y-85455031D02*
G01*
X171915637Y-85461368D01*
X171915961Y-85462249D01*
X172477765Y-87206375D01*
X172477039Y-87215300D01*
X172474901Y-87218235D01*
X172308235Y-87384901D01*
X172299962Y-87388328D01*
X172296375Y-87387765D01*
X170552249Y-86825961D01*
X170545425Y-86820162D01*
X170544699Y-86811237D01*
X170545017Y-86810371D01*
X170939439Y-85855779D01*
X170945761Y-85849446D01*
X171900357Y-85455023D01*
X171909311Y-85455031D01*
G37*
%TD.AperFunction*%
%TD*%
%TA.AperFunction,Conductor*%
%TO.N,Net-(U3-V_INB+)*%
G36*
X198246131Y-87181122D02*
G01*
X198576755Y-87622991D01*
X198578968Y-87631668D01*
X198576755Y-87637009D01*
X198246131Y-88078877D01*
X198238431Y-88083449D01*
X198231252Y-88082189D01*
X197624689Y-87758304D01*
X197619005Y-87751384D01*
X197618500Y-87747983D01*
X197618500Y-87512016D01*
X197621927Y-87503743D01*
X197624687Y-87501695D01*
X198231253Y-87177809D01*
X198240164Y-87176936D01*
X198246131Y-87181122D01*
G37*
%TD.AperFunction*%
%TD*%
%TA.AperFunction,Conductor*%
%TO.N,Net-(J1-Pin_2)*%
G36*
X172576875Y-97473427D02*
G01*
X172579172Y-97476683D01*
X173184833Y-98752748D01*
X173185284Y-98761692D01*
X173179280Y-98768335D01*
X173178753Y-98768569D01*
X172455489Y-99069134D01*
X172446536Y-99069144D01*
X172220470Y-98975199D01*
X171723246Y-98768569D01*
X171716921Y-98762230D01*
X171716932Y-98753275D01*
X171717154Y-98752773D01*
X172322828Y-97476682D01*
X172329471Y-97470679D01*
X172333398Y-97470000D01*
X172568602Y-97470000D01*
X172576875Y-97473427D01*
G37*
%TD.AperFunction*%
%TD*%
%TA.AperFunction,Conductor*%
%TO.N,GND*%
G36*
X218891039Y-81680685D02*
G01*
X218936794Y-81733489D01*
X218948000Y-81785000D01*
X218948000Y-101548637D01*
X218928315Y-101615676D01*
X218911682Y-101636317D01*
X218857320Y-101690680D01*
X218795997Y-101724166D01*
X218769638Y-101727000D01*
X185977693Y-101727000D01*
X185910654Y-101707315D01*
X185864899Y-101654511D01*
X185854955Y-101585353D01*
X185872155Y-101537903D01*
X185957948Y-101398811D01*
X185957953Y-101398800D01*
X186012180Y-101235152D01*
X186022499Y-101134154D01*
X186022500Y-101134141D01*
X186022500Y-101035000D01*
X184072501Y-101035000D01*
X184072501Y-101134154D01*
X184082819Y-101235152D01*
X184137046Y-101398800D01*
X184137051Y-101398811D01*
X184222845Y-101537903D01*
X184241286Y-101605295D01*
X184220364Y-101671959D01*
X184166722Y-101716728D01*
X184117307Y-101727000D01*
X182681795Y-101727000D01*
X182614756Y-101707315D01*
X182569001Y-101654511D01*
X182559057Y-101585353D01*
X182588082Y-101521797D01*
X182613653Y-101499402D01*
X182627007Y-101490618D01*
X182656126Y-101471465D01*
X182657447Y-101470624D01*
X182722156Y-101430712D01*
X182722162Y-101430705D01*
X182727825Y-101426229D01*
X182727862Y-101426277D01*
X182733704Y-101421518D01*
X182733664Y-101421471D01*
X182739186Y-101416835D01*
X182739196Y-101416830D01*
X182791302Y-101361599D01*
X182792496Y-101360370D01*
X183096641Y-101056224D01*
X183110260Y-101044454D01*
X183129530Y-101030110D01*
X183129532Y-101030107D01*
X183129534Y-101030106D01*
X183163107Y-100990093D01*
X183166767Y-100986099D01*
X183172590Y-100980277D01*
X183192376Y-100955250D01*
X183193494Y-100953878D01*
X183242302Y-100895714D01*
X183242303Y-100895711D01*
X183246272Y-100889679D01*
X183246323Y-100889712D01*
X183250369Y-100883360D01*
X183250317Y-100883328D01*
X183254109Y-100877179D01*
X183254111Y-100877177D01*
X183286195Y-100808369D01*
X183286958Y-100806792D01*
X183321040Y-100738933D01*
X183321043Y-100738917D01*
X183323510Y-100732144D01*
X183323568Y-100732165D01*
X183326043Y-100725046D01*
X183325985Y-100725027D01*
X183328255Y-100718177D01*
X183329348Y-100712882D01*
X183343610Y-100643805D01*
X183343990Y-100642096D01*
X183347042Y-100629220D01*
X183361500Y-100568221D01*
X183361499Y-100568218D01*
X183362339Y-100561045D01*
X183362400Y-100561052D01*
X183363165Y-100553560D01*
X183363103Y-100553555D01*
X183363733Y-100546351D01*
X183363173Y-100527106D01*
X183375859Y-100468752D01*
X183531145Y-100153167D01*
X183578403Y-100101709D01*
X183598545Y-100091931D01*
X184024082Y-99931069D01*
X184093747Y-99925777D01*
X184155218Y-99958991D01*
X184188974Y-100020166D01*
X184184297Y-100089879D01*
X184173464Y-100112155D01*
X184137050Y-100171190D01*
X184137046Y-100171199D01*
X184082819Y-100334847D01*
X184072500Y-100435845D01*
X184072500Y-100535000D01*
X186022499Y-100535000D01*
X186022499Y-100435860D01*
X186022498Y-100435845D01*
X186012180Y-100334847D01*
X185957953Y-100171199D01*
X185957948Y-100171188D01*
X185867447Y-100024465D01*
X185867444Y-100024461D01*
X185853517Y-100010534D01*
X185820032Y-99949211D01*
X185825016Y-99879519D01*
X185853517Y-99835172D01*
X185867840Y-99820850D01*
X185958408Y-99674016D01*
X186012674Y-99510253D01*
X186023000Y-99409177D01*
X186022999Y-99020000D01*
X187591678Y-99020000D01*
X187610923Y-99227691D01*
X187668007Y-99428322D01*
X187760980Y-99615037D01*
X187766326Y-99622117D01*
X187766327Y-99622117D01*
X188354601Y-99033844D01*
X188353217Y-99050558D01*
X188383121Y-99168646D01*
X188449748Y-99270626D01*
X188545877Y-99345447D01*
X188661092Y-99385000D01*
X188710553Y-99385000D01*
X188122788Y-99972763D01*
X188218171Y-100031822D01*
X188218172Y-100031823D01*
X188412670Y-100107171D01*
X188617710Y-100145500D01*
X188826290Y-100145500D01*
X189031329Y-100107171D01*
X189225827Y-100031823D01*
X189225831Y-100031821D01*
X189321209Y-99972764D01*
X189321209Y-99972763D01*
X188733448Y-99385000D01*
X188752245Y-99385000D01*
X188842154Y-99369997D01*
X188949288Y-99312019D01*
X189031791Y-99222397D01*
X189080724Y-99110841D01*
X189087279Y-99031726D01*
X189677671Y-99622118D01*
X189683016Y-99615042D01*
X189683018Y-99615038D01*
X189775992Y-99428322D01*
X189833076Y-99227691D01*
X189852322Y-99020000D01*
X189852322Y-99019999D01*
X189833076Y-98812308D01*
X189775992Y-98611677D01*
X189683018Y-98424961D01*
X189677672Y-98417881D01*
X189677671Y-98417881D01*
X189089398Y-99006154D01*
X189090783Y-98989442D01*
X189060879Y-98871354D01*
X188994252Y-98769374D01*
X188898123Y-98694553D01*
X188782908Y-98655000D01*
X188733447Y-98655000D01*
X189321210Y-98067235D01*
X189225826Y-98008176D01*
X189225825Y-98008175D01*
X189031329Y-97932828D01*
X188826290Y-97894500D01*
X188617710Y-97894500D01*
X188412670Y-97932828D01*
X188218174Y-98008175D01*
X188218168Y-98008179D01*
X188122789Y-98067234D01*
X188122788Y-98067235D01*
X188710554Y-98655000D01*
X188691755Y-98655000D01*
X188601846Y-98670003D01*
X188494712Y-98727981D01*
X188412209Y-98817603D01*
X188363276Y-98929159D01*
X188356720Y-99008273D01*
X187766327Y-98417880D01*
X187766326Y-98417881D01*
X187760981Y-98424960D01*
X187760979Y-98424965D01*
X187668007Y-98611677D01*
X187610923Y-98812308D01*
X187591678Y-99019999D01*
X187591678Y-99020000D01*
X186022999Y-99020000D01*
X186022999Y-98710824D01*
X186012674Y-98609747D01*
X185958408Y-98445984D01*
X185867840Y-98299150D01*
X185745850Y-98177160D01*
X185629692Y-98105513D01*
X185599018Y-98086593D01*
X185599013Y-98086591D01*
X185560180Y-98073723D01*
X185435253Y-98032326D01*
X185435251Y-98032325D01*
X185334178Y-98022000D01*
X184760830Y-98022000D01*
X184760812Y-98022001D01*
X184659747Y-98032325D01*
X184495984Y-98086592D01*
X184495979Y-98086594D01*
X184415206Y-98136415D01*
X184398179Y-98145179D01*
X184186875Y-98234037D01*
X184117446Y-98241879D01*
X184094961Y-98235722D01*
X184068306Y-98225646D01*
X183845600Y-98141458D01*
X183750513Y-98105513D01*
X183694765Y-98063395D01*
X183674583Y-98021612D01*
X183670984Y-98008179D01*
X183584395Y-97684965D01*
X183586061Y-97615116D01*
X183587242Y-97611603D01*
X183587935Y-97609641D01*
X183704641Y-97279018D01*
X183711847Y-97245383D01*
X183713618Y-97238875D01*
X183727281Y-97197642D01*
X183739174Y-97161753D01*
X183749500Y-97060677D01*
X183749499Y-96487324D01*
X183739174Y-96386247D01*
X183712352Y-96305307D01*
X183710404Y-96297929D01*
X183704641Y-96268981D01*
X183558005Y-95853567D01*
X183519071Y-95743267D01*
X183512000Y-95701993D01*
X183512000Y-95077713D01*
X183531685Y-95010674D01*
X183531687Y-95010670D01*
X183536372Y-95003378D01*
X183536377Y-95003373D01*
X183596165Y-94872457D01*
X183596165Y-94872453D01*
X183598665Y-94863944D01*
X183601101Y-94864659D01*
X183624557Y-94813298D01*
X183683335Y-94775523D01*
X183718271Y-94770500D01*
X187288231Y-94770500D01*
X187352054Y-94788186D01*
X187811093Y-95063757D01*
X187828491Y-95074201D01*
X187828496Y-95074203D01*
X187832211Y-95076105D01*
X187832077Y-95076366D01*
X187853239Y-95088600D01*
X187854169Y-95089296D01*
X187924656Y-95115585D01*
X187927425Y-95116696D01*
X187953465Y-95127882D01*
X187953469Y-95127883D01*
X187953473Y-95127885D01*
X187959486Y-95129554D01*
X187962155Y-95130165D01*
X187969996Y-95132496D01*
X187989017Y-95139591D01*
X188048627Y-95146000D01*
X188339116Y-95145999D01*
X188389724Y-95156797D01*
X188468465Y-95191999D01*
X188521633Y-95237330D01*
X188541853Y-95304210D01*
X188522705Y-95371405D01*
X188470268Y-95417580D01*
X188440644Y-95427089D01*
X188412544Y-95432342D01*
X188412538Y-95432343D01*
X188412535Y-95432344D01*
X188372001Y-95448047D01*
X188217950Y-95507726D01*
X188217944Y-95507729D01*
X188040527Y-95617581D01*
X188040525Y-95617583D01*
X187886312Y-95758166D01*
X187760554Y-95924697D01*
X187667542Y-96111488D01*
X187667536Y-96111503D01*
X187610430Y-96312210D01*
X187610429Y-96312212D01*
X187591176Y-96519999D01*
X187591176Y-96520000D01*
X187610429Y-96727787D01*
X187610430Y-96727789D01*
X187667536Y-96928496D01*
X187667542Y-96928511D01*
X187760554Y-97115302D01*
X187886312Y-97281833D01*
X188040525Y-97422416D01*
X188040527Y-97422418D01*
X188217944Y-97532270D01*
X188217950Y-97532273D01*
X188231866Y-97537664D01*
X188412535Y-97607656D01*
X188617661Y-97646000D01*
X188617664Y-97646000D01*
X188826336Y-97646000D01*
X188826339Y-97646000D01*
X189031465Y-97607656D01*
X189226052Y-97532272D01*
X189403474Y-97422417D01*
X189553217Y-97285908D01*
X189557687Y-97281833D01*
X189557689Y-97281831D01*
X189683446Y-97115302D01*
X189776462Y-96928501D01*
X189833570Y-96727788D01*
X189852824Y-96520000D01*
X189844866Y-96434123D01*
X189833570Y-96312212D01*
X189833569Y-96312210D01*
X189831607Y-96305316D01*
X189776462Y-96111499D01*
X189775435Y-96109437D01*
X189683981Y-95925772D01*
X189671720Y-95856986D01*
X189698593Y-95792491D01*
X189756069Y-95752764D01*
X189794981Y-95746500D01*
X193587959Y-95746500D01*
X193627123Y-95752847D01*
X194159497Y-95930063D01*
X194199982Y-95939198D01*
X194205824Y-95940820D01*
X194218492Y-95945018D01*
X194275936Y-95984791D01*
X194302758Y-96049308D01*
X194290442Y-96118083D01*
X194242898Y-96169282D01*
X194190294Y-96186251D01*
X194079596Y-96195936D01*
X194079586Y-96195938D01*
X193851344Y-96257094D01*
X193851335Y-96257098D01*
X193637171Y-96356964D01*
X193637169Y-96356965D01*
X193443597Y-96492505D01*
X193276505Y-96659597D01*
X193140965Y-96853169D01*
X193140964Y-96853171D01*
X193041098Y-97067335D01*
X193041094Y-97067344D01*
X192979938Y-97295586D01*
X192979936Y-97295596D01*
X192959341Y-97530999D01*
X192959341Y-97531000D01*
X192979936Y-97766403D01*
X192979938Y-97766413D01*
X193041094Y-97994655D01*
X193041096Y-97994659D01*
X193041097Y-97994663D01*
X193131942Y-98189481D01*
X193140965Y-98208830D01*
X193140967Y-98208834D01*
X193276501Y-98402395D01*
X193276506Y-98402402D01*
X193443597Y-98569493D01*
X193443603Y-98569498D01*
X193629158Y-98699425D01*
X193672783Y-98754002D01*
X193679977Y-98823500D01*
X193648454Y-98885855D01*
X193629158Y-98902575D01*
X193443597Y-99032505D01*
X193276505Y-99199597D01*
X193140965Y-99393169D01*
X193140964Y-99393171D01*
X193083536Y-99516326D01*
X193047721Y-99593133D01*
X193041099Y-99607333D01*
X193041094Y-99607344D01*
X192979938Y-99835586D01*
X192979936Y-99835596D01*
X192959341Y-100070999D01*
X192959341Y-100071000D01*
X192979936Y-100306403D01*
X192979938Y-100306413D01*
X193041094Y-100534655D01*
X193041096Y-100534659D01*
X193041097Y-100534663D01*
X193129874Y-100725046D01*
X193140965Y-100748830D01*
X193140967Y-100748834D01*
X193235164Y-100883360D01*
X193276505Y-100942401D01*
X193443599Y-101109495D01*
X193478816Y-101134154D01*
X193637165Y-101245032D01*
X193637167Y-101245033D01*
X193637170Y-101245035D01*
X193851337Y-101344903D01*
X194079592Y-101406063D01*
X194267918Y-101422539D01*
X194314999Y-101426659D01*
X194315000Y-101426659D01*
X194315001Y-101426659D01*
X194357987Y-101422898D01*
X194550408Y-101406063D01*
X194778663Y-101344903D01*
X194992830Y-101245035D01*
X195186401Y-101109495D01*
X195353495Y-100942401D01*
X195483424Y-100756842D01*
X195538002Y-100713217D01*
X195607500Y-100706023D01*
X195669855Y-100737546D01*
X195686575Y-100756842D01*
X195816500Y-100942395D01*
X195816505Y-100942401D01*
X195983599Y-101109495D01*
X196018816Y-101134154D01*
X196177165Y-101245032D01*
X196177167Y-101245033D01*
X196177170Y-101245035D01*
X196391337Y-101344903D01*
X196619592Y-101406063D01*
X196807918Y-101422539D01*
X196854999Y-101426659D01*
X196855000Y-101426659D01*
X196855001Y-101426659D01*
X196897987Y-101422898D01*
X197090408Y-101406063D01*
X197318663Y-101344903D01*
X197318666Y-101344901D01*
X197323746Y-101343052D01*
X197331867Y-101340707D01*
X198547261Y-101078091D01*
X198547263Y-101078102D01*
X198547311Y-101078080D01*
X198547613Y-101078015D01*
X198643179Y-101042444D01*
X198712873Y-101037508D01*
X198749552Y-101051923D01*
X199299290Y-101377047D01*
X199327776Y-101392681D01*
X199464033Y-101438894D01*
X199471918Y-101440363D01*
X199557995Y-101448872D01*
X199700662Y-101430231D01*
X199832299Y-101372150D01*
X199839894Y-101367406D01*
X199884206Y-101336310D01*
X199983592Y-101232271D01*
X200105277Y-101061721D01*
X200160237Y-101018583D01*
X200193612Y-101010386D01*
X200285753Y-101000974D01*
X200449516Y-100946708D01*
X200596350Y-100856140D01*
X200718340Y-100734150D01*
X200783061Y-100629219D01*
X200835009Y-100582495D01*
X200903971Y-100571272D01*
X200968054Y-100599116D01*
X200994139Y-100629220D01*
X201058857Y-100734146D01*
X201058860Y-100734150D01*
X201180850Y-100856140D01*
X201327684Y-100946708D01*
X201491447Y-101000974D01*
X201592523Y-101011300D01*
X202165876Y-101011299D01*
X202165884Y-101011298D01*
X202165887Y-101011298D01*
X202221230Y-101005644D01*
X202266953Y-101000974D01*
X202430716Y-100946708D01*
X202577550Y-100856140D01*
X202699540Y-100734150D01*
X202716889Y-100706023D01*
X202746694Y-100657703D01*
X202798642Y-100610978D01*
X202852232Y-100598800D01*
X202887368Y-100598800D01*
X202954407Y-100618485D01*
X202992906Y-100657703D01*
X203040057Y-100734146D01*
X203040059Y-100734149D01*
X203040060Y-100734150D01*
X203162050Y-100856140D01*
X203308884Y-100946708D01*
X203472647Y-101000974D01*
X203573723Y-101011300D01*
X204147076Y-101011299D01*
X204147084Y-101011298D01*
X204147087Y-101011298D01*
X204202430Y-101005644D01*
X204248153Y-101000974D01*
X204411916Y-100946708D01*
X204558750Y-100856140D01*
X204680740Y-100734150D01*
X204771308Y-100587316D01*
X204825574Y-100423553D01*
X204835900Y-100322477D01*
X204835899Y-99724124D01*
X204835756Y-99722728D01*
X204825574Y-99623047D01*
X204825266Y-99622117D01*
X204771308Y-99459284D01*
X204680740Y-99312450D01*
X204566771Y-99198480D01*
X204533286Y-99137158D01*
X204538270Y-99067466D01*
X204566771Y-99023119D01*
X204608745Y-98981145D01*
X204680740Y-98909150D01*
X204698225Y-98880802D01*
X204750172Y-98834079D01*
X204803763Y-98821900D01*
X205023148Y-98821900D01*
X205090187Y-98841585D01*
X205110828Y-98858218D01*
X205333182Y-99080572D01*
X205366666Y-99141894D01*
X205369500Y-99168252D01*
X205369500Y-99727870D01*
X205369501Y-99727876D01*
X205375908Y-99787483D01*
X205426202Y-99922328D01*
X205426206Y-99922335D01*
X205512452Y-100037544D01*
X205512455Y-100037547D01*
X205627664Y-100123793D01*
X205627671Y-100123797D01*
X205762517Y-100174091D01*
X205762516Y-100174091D01*
X205769444Y-100174835D01*
X205822127Y-100180500D01*
X207817872Y-100180499D01*
X207877483Y-100174091D01*
X208012331Y-100123796D01*
X208127546Y-100037546D01*
X208213796Y-99922331D01*
X208264091Y-99787483D01*
X208270500Y-99727873D01*
X208270500Y-99023933D01*
X210065668Y-99023933D01*
X210088627Y-99154132D01*
X210096135Y-99196711D01*
X210165623Y-99357804D01*
X210165624Y-99357806D01*
X210165626Y-99357809D01*
X210220278Y-99431218D01*
X210270390Y-99498530D01*
X210404786Y-99611302D01*
X210482488Y-99650325D01*
X210561562Y-99690038D01*
X210561563Y-99690038D01*
X210561567Y-99690040D01*
X210732279Y-99730500D01*
X210732282Y-99730500D01*
X210863701Y-99730500D01*
X210863709Y-99730500D01*
X210994255Y-99715241D01*
X211159117Y-99655237D01*
X211305696Y-99558830D01*
X211426092Y-99431218D01*
X211455666Y-99379994D01*
X212864528Y-99379994D01*
X212864529Y-99380002D01*
X212884379Y-99619559D01*
X212943389Y-99852589D01*
X213039951Y-100072729D01*
X213110362Y-100180500D01*
X213171429Y-100273969D01*
X213334236Y-100450825D01*
X213334239Y-100450827D01*
X213334242Y-100450830D01*
X213523924Y-100598466D01*
X213523930Y-100598470D01*
X213523933Y-100598472D01*
X213735344Y-100712882D01*
X213735347Y-100712883D01*
X213962699Y-100790933D01*
X213962701Y-100790933D01*
X213962703Y-100790934D01*
X214199808Y-100830500D01*
X214199809Y-100830500D01*
X214440191Y-100830500D01*
X214440192Y-100830500D01*
X214677297Y-100790934D01*
X214904656Y-100712882D01*
X215116067Y-100598472D01*
X215305764Y-100450825D01*
X215468571Y-100273969D01*
X215600049Y-100072728D01*
X215696610Y-99852591D01*
X215755620Y-99619563D01*
X215774380Y-99393169D01*
X215775471Y-99380002D01*
X215775471Y-99379994D01*
X215760224Y-99196000D01*
X215755620Y-99140437D01*
X215696610Y-98907409D01*
X215600049Y-98687272D01*
X215558497Y-98623673D01*
X215502086Y-98537329D01*
X215468571Y-98486031D01*
X215305764Y-98309175D01*
X215305759Y-98309171D01*
X215305757Y-98309169D01*
X215116075Y-98161533D01*
X215116069Y-98161529D01*
X214904657Y-98047118D01*
X214904652Y-98047116D01*
X214677300Y-97969066D01*
X214470023Y-97934478D01*
X214440192Y-97929500D01*
X214199808Y-97929500D01*
X214169977Y-97934478D01*
X213962699Y-97969066D01*
X213735347Y-98047116D01*
X213735342Y-98047118D01*
X213523930Y-98161529D01*
X213523924Y-98161533D01*
X213334242Y-98309169D01*
X213334239Y-98309172D01*
X213171430Y-98486029D01*
X213171427Y-98486033D01*
X213039951Y-98687270D01*
X212943389Y-98907410D01*
X212884379Y-99140440D01*
X212864528Y-99379994D01*
X211455666Y-99379994D01*
X211513812Y-99279281D01*
X211564130Y-99111210D01*
X211574331Y-98936065D01*
X211543865Y-98763289D01*
X211474377Y-98602196D01*
X211471664Y-98598552D01*
X211396416Y-98497477D01*
X211369610Y-98461470D01*
X211358033Y-98451756D01*
X211235214Y-98348698D01*
X211235212Y-98348697D01*
X211078437Y-98269961D01*
X211078433Y-98269960D01*
X210907721Y-98229500D01*
X210776291Y-98229500D01*
X210671854Y-98241707D01*
X210645743Y-98244759D01*
X210645740Y-98244760D01*
X210480884Y-98304762D01*
X210480880Y-98304764D01*
X210334306Y-98401167D01*
X210334305Y-98401168D01*
X210213910Y-98528778D01*
X210126188Y-98680718D01*
X210075870Y-98848789D01*
X210075869Y-98848794D01*
X210065668Y-99023933D01*
X208270500Y-99023933D01*
X208270499Y-97732128D01*
X208264091Y-97672517D01*
X208263097Y-97669853D01*
X208213797Y-97537671D01*
X208213793Y-97537664D01*
X208127547Y-97422455D01*
X208127544Y-97422452D01*
X208012335Y-97336206D01*
X208012328Y-97336202D01*
X207877482Y-97285908D01*
X207877483Y-97285908D01*
X207817883Y-97279501D01*
X207817881Y-97279500D01*
X207817873Y-97279500D01*
X207817864Y-97279500D01*
X205822129Y-97279500D01*
X205822123Y-97279501D01*
X205762516Y-97285908D01*
X205627671Y-97336202D01*
X205627664Y-97336206D01*
X205512455Y-97422452D01*
X205512452Y-97422455D01*
X205441646Y-97517040D01*
X205385712Y-97558911D01*
X205354050Y-97566179D01*
X205353404Y-97566240D01*
X205315706Y-97569803D01*
X205307016Y-97570625D01*
X205301178Y-97570900D01*
X204801419Y-97570900D01*
X204734380Y-97551215D01*
X204695880Y-97511996D01*
X204680740Y-97487450D01*
X204558751Y-97365461D01*
X204558750Y-97365461D01*
X204558750Y-97365460D01*
X204445466Y-97295586D01*
X204411918Y-97274893D01*
X204411913Y-97274891D01*
X204379336Y-97264096D01*
X204248153Y-97220626D01*
X204248151Y-97220625D01*
X204147078Y-97210300D01*
X203573730Y-97210300D01*
X203573704Y-97210302D01*
X203550873Y-97212634D01*
X203482180Y-97199863D01*
X203431298Y-97151980D01*
X203414379Y-97084190D01*
X203436797Y-97018014D01*
X203450589Y-97001600D01*
X203581887Y-96870302D01*
X203594142Y-96860486D01*
X203593959Y-96860264D01*
X203599968Y-96855291D01*
X203599977Y-96855286D01*
X203646707Y-96805522D01*
X203647946Y-96804243D01*
X203668220Y-96783971D01*
X203672471Y-96778489D01*
X203676263Y-96774050D01*
X203690032Y-96759387D01*
X203741425Y-96726564D01*
X203743213Y-96725971D01*
X203762116Y-96719708D01*
X203908950Y-96629140D01*
X204030940Y-96507150D01*
X204121508Y-96360316D01*
X204175774Y-96196553D01*
X204186100Y-96095477D01*
X204186099Y-95606250D01*
X204205783Y-95539212D01*
X204222413Y-95518575D01*
X204396586Y-95344402D01*
X204408848Y-95334580D01*
X204408665Y-95334359D01*
X204414673Y-95329388D01*
X204414677Y-95329386D01*
X204416336Y-95327620D01*
X204418549Y-95325262D01*
X204461449Y-95279577D01*
X204462691Y-95278297D01*
X204482920Y-95258070D01*
X204487170Y-95252589D01*
X204490951Y-95248161D01*
X204522862Y-95214182D01*
X204532513Y-95196624D01*
X204543196Y-95180361D01*
X204555473Y-95164536D01*
X204573983Y-95121758D01*
X204576543Y-95116532D01*
X204598997Y-95075692D01*
X204603978Y-95056287D01*
X204610282Y-95037879D01*
X204618238Y-95019495D01*
X204625529Y-94973453D01*
X204626708Y-94967762D01*
X204638300Y-94922619D01*
X204638300Y-94902574D01*
X204639825Y-94883191D01*
X204642960Y-94863404D01*
X204639255Y-94824208D01*
X204638575Y-94817015D01*
X204638300Y-94811177D01*
X204638300Y-94230005D01*
X205365031Y-94230005D01*
X205384874Y-94469476D01*
X205443865Y-94702428D01*
X205540391Y-94922485D01*
X205632688Y-95063757D01*
X206257226Y-94439219D01*
X206295901Y-94532588D01*
X206392075Y-94657925D01*
X206517412Y-94754099D01*
X206610779Y-94792772D01*
X205985572Y-95417979D01*
X205985573Y-95417980D01*
X206024204Y-95448048D01*
X206024205Y-95448049D01*
X206235544Y-95562421D01*
X206235550Y-95562423D01*
X206462823Y-95640446D01*
X206699851Y-95680000D01*
X206940149Y-95680000D01*
X207177176Y-95640446D01*
X207404449Y-95562423D01*
X207404455Y-95562421D01*
X207615795Y-95448049D01*
X207615798Y-95448047D01*
X207654425Y-95417980D01*
X207654425Y-95417979D01*
X207029220Y-94792772D01*
X207122588Y-94754099D01*
X207247925Y-94657925D01*
X207344099Y-94532589D01*
X207382773Y-94439220D01*
X208007310Y-95063757D01*
X208099606Y-94922490D01*
X208196134Y-94702428D01*
X208255125Y-94469476D01*
X208274969Y-94230005D01*
X208274969Y-94229994D01*
X208257894Y-94023933D01*
X210065668Y-94023933D01*
X210087801Y-94149449D01*
X210096135Y-94196711D01*
X210165623Y-94357804D01*
X210165624Y-94357806D01*
X210165626Y-94357809D01*
X210230314Y-94444699D01*
X210270390Y-94498530D01*
X210404786Y-94611302D01*
X210465551Y-94641819D01*
X210561562Y-94690038D01*
X210561563Y-94690038D01*
X210561567Y-94690040D01*
X210732279Y-94730500D01*
X210732282Y-94730500D01*
X210863701Y-94730500D01*
X210863709Y-94730500D01*
X210994255Y-94715241D01*
X211159117Y-94655237D01*
X211305696Y-94558830D01*
X211426092Y-94431218D01*
X211513812Y-94279281D01*
X211564130Y-94111210D01*
X211574331Y-93936065D01*
X211543865Y-93763289D01*
X211474377Y-93602196D01*
X211457894Y-93580056D01*
X211369609Y-93461469D01*
X211235214Y-93348698D01*
X211235212Y-93348697D01*
X211078437Y-93269961D01*
X211057353Y-93264964D01*
X210907721Y-93229500D01*
X210776291Y-93229500D01*
X210671854Y-93241707D01*
X210645743Y-93244759D01*
X210645740Y-93244760D01*
X210480884Y-93304762D01*
X210480880Y-93304764D01*
X210334306Y-93401167D01*
X210334305Y-93401168D01*
X210213910Y-93528778D01*
X210126188Y-93680718D01*
X210075870Y-93848789D01*
X210075869Y-93848794D01*
X210065668Y-94023933D01*
X208257894Y-94023933D01*
X208255125Y-93990523D01*
X208196134Y-93757571D01*
X208099608Y-93537514D01*
X208007310Y-93396241D01*
X207382772Y-94020779D01*
X207344099Y-93927412D01*
X207247925Y-93802075D01*
X207122588Y-93705901D01*
X207029219Y-93667226D01*
X207654426Y-93042019D01*
X207654425Y-93042018D01*
X207615794Y-93011950D01*
X207404455Y-92897578D01*
X207404449Y-92897576D01*
X207177176Y-92819553D01*
X206940149Y-92780000D01*
X206699851Y-92780000D01*
X206462823Y-92819553D01*
X206235550Y-92897576D01*
X206235544Y-92897578D01*
X206024204Y-93011950D01*
X206024198Y-93011954D01*
X205985573Y-93042017D01*
X205985573Y-93042019D01*
X206610780Y-93667226D01*
X206517412Y-93705901D01*
X206392075Y-93802075D01*
X206295901Y-93927411D01*
X206257227Y-94020779D01*
X205632687Y-93396241D01*
X205540392Y-93537511D01*
X205443865Y-93757571D01*
X205384874Y-93990523D01*
X205365031Y-94229994D01*
X205365031Y-94230005D01*
X204638300Y-94230005D01*
X204638300Y-92487937D01*
X204640024Y-92472323D01*
X204639738Y-92472296D01*
X204640472Y-92464533D01*
X204638331Y-92396371D01*
X204638300Y-92394424D01*
X204638300Y-92365851D01*
X204638300Y-92365850D01*
X204637429Y-92358959D01*
X204636972Y-92353145D01*
X204635796Y-92315708D01*
X204653366Y-92248083D01*
X204672050Y-92224138D01*
X205769410Y-91126779D01*
X205830731Y-91093296D01*
X205900423Y-91098280D01*
X205922183Y-91108922D01*
X205951136Y-91126781D01*
X206041475Y-91182503D01*
X206041478Y-91182504D01*
X206041484Y-91182508D01*
X206205247Y-91236774D01*
X206306323Y-91247100D01*
X207004676Y-91247099D01*
X207004684Y-91247098D01*
X207004687Y-91247098D01*
X207060030Y-91241444D01*
X207105753Y-91236774D01*
X207225124Y-91197217D01*
X207294949Y-91194816D01*
X207354992Y-91230547D01*
X207386185Y-91293067D01*
X207386265Y-91293523D01*
X207394812Y-91342304D01*
X207394816Y-91342320D01*
X207397595Y-91350815D01*
X207417153Y-91401274D01*
X207456061Y-91462495D01*
X207494327Y-91522707D01*
X207873570Y-91964886D01*
X207980915Y-92059063D01*
X207986395Y-92062641D01*
X207986400Y-92062644D01*
X207986404Y-92062647D01*
X208011027Y-92076939D01*
X208032271Y-92089270D01*
X208168358Y-92135981D01*
X208168356Y-92135981D01*
X208312082Y-92142460D01*
X208312086Y-92142459D01*
X208312093Y-92142460D01*
X208321005Y-92141586D01*
X208374497Y-92133430D01*
X208509769Y-92084411D01*
X209116913Y-91760216D01*
X209116934Y-91760203D01*
X209179891Y-91720359D01*
X209180030Y-91720255D01*
X209182657Y-91718308D01*
X209275169Y-91629450D01*
X209348590Y-91505713D01*
X209352017Y-91497440D01*
X209370024Y-91446399D01*
X209390500Y-91303983D01*
X209390500Y-91068016D01*
X209390500Y-91068015D01*
X209390500Y-91068005D01*
X209390499Y-91068004D01*
X209387711Y-91030230D01*
X209402406Y-90961923D01*
X209451697Y-90912405D01*
X209511374Y-90897100D01*
X209976519Y-90897100D01*
X210043558Y-90916785D01*
X210082058Y-90956004D01*
X210090660Y-90969950D01*
X210212650Y-91091940D01*
X210359484Y-91182508D01*
X210523247Y-91236774D01*
X210624323Y-91247100D01*
X211222676Y-91247099D01*
X211222684Y-91247098D01*
X211222687Y-91247098D01*
X211278030Y-91241444D01*
X211323753Y-91236774D01*
X211487516Y-91182508D01*
X211634350Y-91091940D01*
X211748319Y-90977971D01*
X211809642Y-90944486D01*
X211879334Y-90949470D01*
X211923680Y-90977971D01*
X212037650Y-91091940D01*
X212184484Y-91182508D01*
X212348247Y-91236774D01*
X212449323Y-91247100D01*
X212788047Y-91247099D01*
X212855086Y-91266783D01*
X212875728Y-91283418D01*
X213658182Y-92065872D01*
X213691666Y-92127193D01*
X213694500Y-92153551D01*
X213694500Y-92195332D01*
X213674815Y-92262371D01*
X213629519Y-92304386D01*
X213523938Y-92361524D01*
X213523936Y-92361525D01*
X213334237Y-92509174D01*
X213171430Y-92686029D01*
X213171427Y-92686033D01*
X213039951Y-92887270D01*
X212943389Y-93107410D01*
X212884379Y-93340440D01*
X212864528Y-93579994D01*
X212864528Y-93580005D01*
X212884379Y-93819559D01*
X212943389Y-94052589D01*
X213039951Y-94272729D01*
X213143498Y-94431218D01*
X213171429Y-94473969D01*
X213334236Y-94650825D01*
X213334239Y-94650827D01*
X213334242Y-94650830D01*
X213523924Y-94798466D01*
X213523930Y-94798470D01*
X213523933Y-94798472D01*
X213608189Y-94844069D01*
X213716320Y-94902587D01*
X213735344Y-94912882D01*
X213735347Y-94912883D01*
X213962699Y-94990933D01*
X213962701Y-94990933D01*
X213962703Y-94990934D01*
X214199808Y-95030500D01*
X214199809Y-95030500D01*
X214440191Y-95030500D01*
X214440192Y-95030500D01*
X214677297Y-94990934D01*
X214684507Y-94988459D01*
X214694161Y-94985144D01*
X214904656Y-94912882D01*
X215116067Y-94798472D01*
X215129283Y-94788186D01*
X215223002Y-94715241D01*
X215305764Y-94650825D01*
X215468571Y-94473969D01*
X215600049Y-94272728D01*
X215696610Y-94052591D01*
X215755620Y-93819563D01*
X215765038Y-93705901D01*
X215775471Y-93580005D01*
X215775471Y-93579994D01*
X215761074Y-93406256D01*
X215755620Y-93340437D01*
X215696610Y-93107409D01*
X215600049Y-92887272D01*
X215585487Y-92864984D01*
X215503720Y-92739830D01*
X215468571Y-92686031D01*
X215305764Y-92509175D01*
X215116067Y-92361528D01*
X215116066Y-92361527D01*
X215116063Y-92361525D01*
X215116061Y-92361524D01*
X215010481Y-92304386D01*
X214960891Y-92255166D01*
X214945500Y-92195332D01*
X214945500Y-91925842D01*
X214947224Y-91910222D01*
X214946939Y-91910195D01*
X214947673Y-91902433D01*
X214945531Y-91834239D01*
X214945500Y-91832292D01*
X214945500Y-91803756D01*
X214945500Y-91803750D01*
X214944631Y-91796879D01*
X214944173Y-91791052D01*
X214943452Y-91768102D01*
X214942710Y-91744473D01*
X214937119Y-91725230D01*
X214933173Y-91706178D01*
X214930664Y-91686308D01*
X214913504Y-91642967D01*
X214911624Y-91637479D01*
X214898618Y-91592710D01*
X214898449Y-91592425D01*
X214888423Y-91575471D01*
X214879861Y-91557994D01*
X214872487Y-91539370D01*
X214868088Y-91533315D01*
X214845079Y-91501645D01*
X214841888Y-91496786D01*
X214832263Y-91480511D01*
X214818170Y-91456680D01*
X214818168Y-91456678D01*
X214818165Y-91456674D01*
X214804006Y-91442515D01*
X214791368Y-91427719D01*
X214779594Y-91411513D01*
X214767218Y-91401275D01*
X214743688Y-91381809D01*
X214739376Y-91377886D01*
X213772818Y-90411328D01*
X213739333Y-90350005D01*
X213736499Y-90323647D01*
X213736499Y-89984930D01*
X213736498Y-89984913D01*
X213726174Y-89883847D01*
X213720923Y-89868001D01*
X213671908Y-89720084D01*
X213581340Y-89573250D01*
X213459350Y-89451260D01*
X213382729Y-89404000D01*
X215793000Y-89404000D01*
X215793000Y-89951844D01*
X215799401Y-90011372D01*
X215799403Y-90011379D01*
X215849645Y-90146086D01*
X215849649Y-90146093D01*
X215935809Y-90261187D01*
X215935812Y-90261190D01*
X216050906Y-90347350D01*
X216050913Y-90347354D01*
X216185620Y-90397596D01*
X216185627Y-90397598D01*
X216245155Y-90403999D01*
X216245172Y-90404000D01*
X216793000Y-90404000D01*
X216793000Y-89404000D01*
X215793000Y-89404000D01*
X213382729Y-89404000D01*
X213312516Y-89360692D01*
X213148753Y-89306426D01*
X213148751Y-89306425D01*
X213047678Y-89296100D01*
X212449330Y-89296100D01*
X212449312Y-89296101D01*
X212348247Y-89306425D01*
X212184484Y-89360692D01*
X212184481Y-89360693D01*
X212037648Y-89451261D01*
X211923681Y-89565229D01*
X211862358Y-89598714D01*
X211792666Y-89593730D01*
X211748319Y-89565229D01*
X211634351Y-89451261D01*
X211634351Y-89451260D01*
X211634350Y-89451260D01*
X211487516Y-89360692D01*
X211323753Y-89306426D01*
X211323751Y-89306425D01*
X211222678Y-89296100D01*
X210624330Y-89296100D01*
X210624312Y-89296101D01*
X210523247Y-89306425D01*
X210359484Y-89360692D01*
X210359481Y-89360693D01*
X210212648Y-89451261D01*
X210090660Y-89573249D01*
X210090659Y-89573251D01*
X210082058Y-89587196D01*
X210030110Y-89633921D01*
X209976519Y-89646100D01*
X209377481Y-89646100D01*
X209310442Y-89626415D01*
X209271942Y-89587196D01*
X209270908Y-89585520D01*
X209263340Y-89573250D01*
X209141350Y-89451260D01*
X208994516Y-89360692D01*
X208830753Y-89306426D01*
X208830751Y-89306425D01*
X208729678Y-89296100D01*
X208031330Y-89296100D01*
X208031312Y-89296101D01*
X207930247Y-89306425D01*
X207766484Y-89360692D01*
X207766481Y-89360693D01*
X207619648Y-89451261D01*
X207605681Y-89465229D01*
X207544358Y-89498714D01*
X207474666Y-89493730D01*
X207430319Y-89465229D01*
X207416351Y-89451261D01*
X207416350Y-89451260D01*
X207269516Y-89360692D01*
X207105753Y-89306426D01*
X207105751Y-89306425D01*
X207004678Y-89296100D01*
X206306330Y-89296100D01*
X206306312Y-89296101D01*
X206205247Y-89306425D01*
X206041484Y-89360692D01*
X206041481Y-89360693D01*
X205894648Y-89451261D01*
X205772657Y-89573252D01*
X205762678Y-89589432D01*
X205710730Y-89636155D01*
X205661040Y-89648272D01*
X205641373Y-89648890D01*
X205622129Y-89654481D01*
X205603079Y-89658425D01*
X205583211Y-89660934D01*
X205539884Y-89678088D01*
X205534358Y-89679979D01*
X205489614Y-89692979D01*
X205489610Y-89692981D01*
X205472366Y-89703179D01*
X205454905Y-89711733D01*
X205436274Y-89719110D01*
X205436262Y-89719117D01*
X205398570Y-89746502D01*
X205393687Y-89749709D01*
X205353580Y-89773429D01*
X205339414Y-89787595D01*
X205324624Y-89800227D01*
X205308414Y-89812004D01*
X205308411Y-89812007D01*
X205278710Y-89847909D01*
X205274777Y-89852231D01*
X203610328Y-91516681D01*
X203549005Y-91550166D01*
X203522647Y-91553000D01*
X203511633Y-91553000D01*
X203444594Y-91533315D01*
X203398839Y-91480511D01*
X203388895Y-91411353D01*
X203416083Y-91349967D01*
X203422413Y-91342314D01*
X203430802Y-91332173D01*
X203434711Y-91327877D01*
X204599787Y-90162802D01*
X204612042Y-90152986D01*
X204611859Y-90152764D01*
X204617868Y-90147791D01*
X204617877Y-90147786D01*
X204664607Y-90098022D01*
X204665846Y-90096743D01*
X204686120Y-90076471D01*
X204690379Y-90070978D01*
X204694152Y-90066561D01*
X204726062Y-90032582D01*
X204735713Y-90015024D01*
X204746396Y-89998761D01*
X204758673Y-89982936D01*
X204777185Y-89940153D01*
X204779738Y-89934941D01*
X204802197Y-89894092D01*
X204807180Y-89874680D01*
X204813481Y-89856280D01*
X204821437Y-89837896D01*
X204828725Y-89791877D01*
X204829906Y-89786171D01*
X204841500Y-89741019D01*
X204841499Y-89720986D01*
X204843027Y-89701583D01*
X204845749Y-89684396D01*
X204846160Y-89681804D01*
X204841775Y-89635415D01*
X204841500Y-89629577D01*
X204841500Y-89183302D01*
X216689372Y-89183302D01*
X216718047Y-89296538D01*
X216781936Y-89394327D01*
X216874115Y-89466072D01*
X216984595Y-89504000D01*
X217072005Y-89504000D01*
X217158216Y-89489614D01*
X217260947Y-89434019D01*
X217288581Y-89404000D01*
X217293000Y-89404000D01*
X217293000Y-90404000D01*
X217840828Y-90404000D01*
X217840844Y-90403999D01*
X217900372Y-90397598D01*
X217900379Y-90397596D01*
X218035086Y-90347354D01*
X218035093Y-90347350D01*
X218150187Y-90261190D01*
X218150190Y-90261187D01*
X218236350Y-90146093D01*
X218236354Y-90146086D01*
X218286596Y-90011379D01*
X218286598Y-90011372D01*
X218292999Y-89951844D01*
X218293000Y-89951827D01*
X218293000Y-89404000D01*
X217293000Y-89404000D01*
X217288581Y-89404000D01*
X217340060Y-89348079D01*
X217386982Y-89241108D01*
X217396628Y-89124698D01*
X217367953Y-89011462D01*
X217304064Y-88913673D01*
X217211885Y-88841928D01*
X217101405Y-88804000D01*
X217013995Y-88804000D01*
X216927784Y-88818386D01*
X216825053Y-88873981D01*
X216745940Y-88959921D01*
X216699018Y-89066892D01*
X216689372Y-89183302D01*
X204841500Y-89183302D01*
X204841500Y-88904000D01*
X215793000Y-88904000D01*
X216793000Y-88904000D01*
X216793000Y-87904000D01*
X217293000Y-87904000D01*
X217293000Y-88904000D01*
X218293000Y-88904000D01*
X218293000Y-88356172D01*
X218292999Y-88356155D01*
X218286598Y-88296627D01*
X218286596Y-88296620D01*
X218236354Y-88161913D01*
X218236350Y-88161906D01*
X218150190Y-88046812D01*
X218150187Y-88046809D01*
X218035093Y-87960649D01*
X218035086Y-87960645D01*
X217900379Y-87910403D01*
X217900372Y-87910401D01*
X217840844Y-87904000D01*
X217293000Y-87904000D01*
X216793000Y-87904000D01*
X216245155Y-87904000D01*
X216185627Y-87910401D01*
X216185620Y-87910403D01*
X216050913Y-87960645D01*
X216050906Y-87960649D01*
X215935812Y-88046809D01*
X215935809Y-88046812D01*
X215849649Y-88161906D01*
X215849645Y-88161913D01*
X215799403Y-88296620D01*
X215799401Y-88296627D01*
X215793000Y-88356155D01*
X215793000Y-88904000D01*
X204841500Y-88904000D01*
X204841500Y-88751763D01*
X204857036Y-88691666D01*
X204857038Y-88691663D01*
X205122485Y-88212582D01*
X205133344Y-88191666D01*
X205135592Y-88187700D01*
X205139408Y-88181516D01*
X205193674Y-88017753D01*
X205204000Y-87916677D01*
X205203999Y-87343324D01*
X205203774Y-87341126D01*
X205193674Y-87242247D01*
X205185458Y-87217454D01*
X205139408Y-87078484D01*
X205048840Y-86931650D01*
X204926850Y-86809660D01*
X204800776Y-86731897D01*
X204780018Y-86719093D01*
X204780013Y-86719091D01*
X204769399Y-86715574D01*
X204616253Y-86664826D01*
X204616251Y-86664825D01*
X204515178Y-86654500D01*
X203916830Y-86654500D01*
X203916812Y-86654501D01*
X203815747Y-86664825D01*
X203651984Y-86719092D01*
X203651981Y-86719093D01*
X203505148Y-86809661D01*
X203391181Y-86923629D01*
X203329858Y-86957114D01*
X203260166Y-86952130D01*
X203215819Y-86923629D01*
X203101851Y-86809661D01*
X203101850Y-86809661D01*
X203101850Y-86809660D01*
X202975776Y-86731897D01*
X202955018Y-86719093D01*
X202955013Y-86719091D01*
X202944399Y-86715574D01*
X202791253Y-86664826D01*
X202791251Y-86664825D01*
X202690178Y-86654500D01*
X202091830Y-86654500D01*
X202091812Y-86654501D01*
X201990747Y-86664825D01*
X201990744Y-86664826D01*
X201826985Y-86719090D01*
X201817743Y-86724791D01*
X201810428Y-86728654D01*
X201803155Y-86731894D01*
X201456906Y-86916779D01*
X201388497Y-86930992D01*
X201340092Y-86916779D01*
X201230396Y-86858205D01*
X201180531Y-86809264D01*
X201180340Y-86808920D01*
X201126351Y-86711482D01*
X201105635Y-86674094D01*
X201090363Y-86605916D01*
X201105634Y-86553906D01*
X201180342Y-86419073D01*
X201230046Y-86369979D01*
X201367938Y-86296350D01*
X201476997Y-86238117D01*
X201535403Y-86223500D01*
X205476096Y-86223500D01*
X205534502Y-86238117D01*
X205781102Y-86369792D01*
X205830967Y-86418732D01*
X205906717Y-86555445D01*
X205921989Y-86623624D01*
X205907045Y-86675041D01*
X205720857Y-87015473D01*
X205719231Y-87018270D01*
X205682093Y-87078481D01*
X205682092Y-87078484D01*
X205627826Y-87242247D01*
X205627826Y-87242248D01*
X205627825Y-87242248D01*
X205617500Y-87343315D01*
X205617500Y-87916669D01*
X205617501Y-87916687D01*
X205627825Y-88017752D01*
X205652931Y-88093514D01*
X205682020Y-88181300D01*
X205682092Y-88181515D01*
X205682093Y-88181518D01*
X205695418Y-88203121D01*
X205772660Y-88328350D01*
X205894650Y-88450340D01*
X206041484Y-88540908D01*
X206205247Y-88595174D01*
X206306323Y-88605500D01*
X207004676Y-88605499D01*
X207004684Y-88605498D01*
X207004687Y-88605498D01*
X207060030Y-88599844D01*
X207105753Y-88595174D01*
X207269516Y-88540908D01*
X207416350Y-88450340D01*
X207430671Y-88436018D01*
X207491989Y-88402533D01*
X207561681Y-88407514D01*
X207606034Y-88436017D01*
X207619961Y-88449944D01*
X207619965Y-88449947D01*
X207766688Y-88540448D01*
X207766699Y-88540453D01*
X207930347Y-88594680D01*
X208031351Y-88604999D01*
X208130499Y-88604998D01*
X208130500Y-87880000D01*
X208630500Y-87880000D01*
X208630500Y-88604999D01*
X208729640Y-88604999D01*
X208729654Y-88604998D01*
X208830652Y-88594680D01*
X208994300Y-88540453D01*
X208994311Y-88540448D01*
X209141034Y-88449947D01*
X209141038Y-88449944D01*
X209262944Y-88328038D01*
X209262947Y-88328034D01*
X209353448Y-88181311D01*
X209353453Y-88181300D01*
X209407680Y-88017652D01*
X209417999Y-87916654D01*
X209418000Y-87916641D01*
X209418000Y-87880000D01*
X208630500Y-87880000D01*
X208130500Y-87880000D01*
X208130500Y-87504000D01*
X208150185Y-87436960D01*
X208202989Y-87391206D01*
X208254500Y-87380000D01*
X209417999Y-87380000D01*
X209417999Y-87343360D01*
X209417998Y-87343345D01*
X209407680Y-87242347D01*
X209353453Y-87078699D01*
X209353448Y-87078688D01*
X209262947Y-86931965D01*
X209262944Y-86931961D01*
X209141038Y-86810055D01*
X209141034Y-86810052D01*
X208994289Y-86719538D01*
X208947564Y-86667590D01*
X208936343Y-86598628D01*
X208964186Y-86534546D01*
X208994289Y-86508462D01*
X209141034Y-86417947D01*
X209141038Y-86417944D01*
X209262944Y-86296038D01*
X209262947Y-86296034D01*
X209353448Y-86149311D01*
X209353453Y-86149300D01*
X209407680Y-85985652D01*
X209417999Y-85884654D01*
X209418000Y-85884641D01*
X209418000Y-85848000D01*
X208304500Y-85848000D01*
X208237461Y-85828315D01*
X208191706Y-85775511D01*
X208180500Y-85724000D01*
X208180500Y-84623000D01*
X208680500Y-84623000D01*
X208680500Y-85348000D01*
X209417999Y-85348000D01*
X209417999Y-85311360D01*
X209417998Y-85311345D01*
X209407680Y-85210347D01*
X209353453Y-85046699D01*
X209353448Y-85046688D01*
X209262947Y-84899965D01*
X209262944Y-84899961D01*
X209141038Y-84778055D01*
X209141034Y-84778052D01*
X208994311Y-84687551D01*
X208994300Y-84687546D01*
X208830652Y-84633319D01*
X208729654Y-84623000D01*
X208680500Y-84623000D01*
X208180500Y-84623000D01*
X208180499Y-84622999D01*
X208131361Y-84623000D01*
X208131343Y-84623001D01*
X208030347Y-84633319D01*
X207866699Y-84687546D01*
X207866688Y-84687551D01*
X207719965Y-84778052D01*
X207606034Y-84891983D01*
X207544711Y-84925467D01*
X207475019Y-84920483D01*
X207430672Y-84891982D01*
X207316351Y-84777661D01*
X207316351Y-84777660D01*
X207316350Y-84777660D01*
X207181554Y-84694517D01*
X207169518Y-84687093D01*
X207169513Y-84687091D01*
X207168069Y-84686612D01*
X207005753Y-84632826D01*
X207005751Y-84632825D01*
X206904678Y-84622500D01*
X206306330Y-84622500D01*
X206306312Y-84622501D01*
X206205247Y-84632825D01*
X206205244Y-84632826D01*
X206041485Y-84687090D01*
X206041484Y-84687091D01*
X206032242Y-84692791D01*
X206024924Y-84696656D01*
X206017653Y-84699895D01*
X205534501Y-84957883D01*
X205476094Y-84972500D01*
X201535404Y-84972500D01*
X201476997Y-84957883D01*
X200993848Y-84699897D01*
X200977541Y-84691513D01*
X200973341Y-84689143D01*
X200970021Y-84687095D01*
X200970020Y-84687094D01*
X200970016Y-84687092D01*
X200806253Y-84632826D01*
X200806251Y-84632825D01*
X200705178Y-84622500D01*
X200106830Y-84622500D01*
X200106812Y-84622501D01*
X200005747Y-84632825D01*
X199841984Y-84687092D01*
X199841981Y-84687093D01*
X199695148Y-84777661D01*
X199581181Y-84891629D01*
X199519858Y-84925114D01*
X199450166Y-84920130D01*
X199405819Y-84891629D01*
X199291851Y-84777661D01*
X199291850Y-84777660D01*
X199157054Y-84694517D01*
X199145018Y-84687093D01*
X199145013Y-84687091D01*
X199143569Y-84686612D01*
X198981253Y-84632826D01*
X198981251Y-84632825D01*
X198880178Y-84622500D01*
X198281830Y-84622500D01*
X198281812Y-84622501D01*
X198180747Y-84632825D01*
X198180737Y-84632827D01*
X198107062Y-84657241D01*
X198098564Y-84659405D01*
X198072452Y-84664118D01*
X197540619Y-84841153D01*
X197501455Y-84847500D01*
X195389705Y-84847500D01*
X195371735Y-84846191D01*
X195347972Y-84842710D01*
X195302890Y-84846655D01*
X195295933Y-84847264D01*
X195290532Y-84847500D01*
X195282283Y-84847500D01*
X195250589Y-84851204D01*
X195248821Y-84851385D01*
X195231405Y-84852909D01*
X195173199Y-84858001D01*
X195166133Y-84859461D01*
X195166121Y-84859404D01*
X195158754Y-84861038D01*
X195158768Y-84861094D01*
X195151745Y-84862758D01*
X195080424Y-84888715D01*
X195078724Y-84889306D01*
X195006666Y-84913185D01*
X195000119Y-84916238D01*
X195000094Y-84916186D01*
X194993314Y-84919468D01*
X194993340Y-84919520D01*
X194986882Y-84922763D01*
X194923483Y-84964460D01*
X194921965Y-84965428D01*
X194857346Y-85005287D01*
X194851677Y-85009770D01*
X194851641Y-85009724D01*
X194845798Y-85014484D01*
X194845835Y-85014528D01*
X194840309Y-85019164D01*
X194788213Y-85074381D01*
X194786958Y-85075674D01*
X188236358Y-91626272D01*
X188222729Y-91638051D01*
X188203468Y-91652390D01*
X188169898Y-91692397D01*
X188166253Y-91696376D01*
X188160407Y-91702223D01*
X188140618Y-91727251D01*
X188139481Y-91728647D01*
X188090694Y-91786790D01*
X188086729Y-91792819D01*
X188086682Y-91792788D01*
X188082630Y-91799147D01*
X188082679Y-91799177D01*
X188078889Y-91805321D01*
X188046812Y-91874110D01*
X188046027Y-91875731D01*
X188011957Y-91943572D01*
X188009488Y-91950357D01*
X188009432Y-91950336D01*
X188006960Y-91957450D01*
X188007015Y-91957469D01*
X188004743Y-91964325D01*
X187989391Y-92038670D01*
X187989001Y-92040428D01*
X187971499Y-92114279D01*
X187970661Y-92121454D01*
X187970601Y-92121447D01*
X187969835Y-92128945D01*
X187969895Y-92128951D01*
X187969265Y-92136141D01*
X187971473Y-92212031D01*
X187971499Y-92213834D01*
X187971499Y-92586226D01*
X187953813Y-92650048D01*
X187744016Y-92999524D01*
X187701525Y-93042016D01*
X187352050Y-93251814D01*
X187288227Y-93269500D01*
X183734920Y-93269500D01*
X183667881Y-93249815D01*
X183622126Y-93197011D01*
X183613796Y-93164377D01*
X183612680Y-93164579D01*
X183611499Y-93158034D01*
X183570954Y-93019949D01*
X183565813Y-93011950D01*
X183534998Y-92964000D01*
X183501210Y-92911424D01*
X183481526Y-92844384D01*
X183501211Y-92777345D01*
X183554015Y-92731590D01*
X183567909Y-92726229D01*
X183572529Y-92724759D01*
X183623141Y-92705610D01*
X183623152Y-92705602D01*
X183624795Y-92704789D01*
X183630658Y-92702251D01*
X183653331Y-92693796D01*
X183707789Y-92653027D01*
X183712082Y-92650088D01*
X183745193Y-92629420D01*
X184367050Y-92104727D01*
X184430982Y-92076541D01*
X184447014Y-92075500D01*
X185581257Y-92075500D01*
X185596877Y-92077224D01*
X185596904Y-92076939D01*
X185604666Y-92077673D01*
X185604666Y-92077672D01*
X185604667Y-92077673D01*
X185607999Y-92077568D01*
X185672847Y-92075531D01*
X185674794Y-92075500D01*
X185703347Y-92075500D01*
X185703350Y-92075500D01*
X185710228Y-92074630D01*
X185716041Y-92074172D01*
X185762627Y-92072709D01*
X185781869Y-92067117D01*
X185800912Y-92063174D01*
X185820792Y-92060664D01*
X185864122Y-92043507D01*
X185869646Y-92041617D01*
X185876709Y-92039565D01*
X185914390Y-92028618D01*
X185931629Y-92018422D01*
X185949103Y-92009862D01*
X185967727Y-92002488D01*
X185967727Y-92002487D01*
X185967732Y-92002486D01*
X186005449Y-91975082D01*
X186010305Y-91971892D01*
X186050420Y-91948170D01*
X186064589Y-91933999D01*
X186079379Y-91921368D01*
X186095587Y-91909594D01*
X186125299Y-91873676D01*
X186129212Y-91869376D01*
X190140367Y-87858221D01*
X190190025Y-87827877D01*
X191698923Y-87341842D01*
X191703417Y-87340581D01*
X191742612Y-87331172D01*
X191777225Y-87316833D01*
X191781942Y-87315101D01*
X191782945Y-87314778D01*
X191811643Y-87305535D01*
X191821391Y-87302174D01*
X191827111Y-87300071D01*
X191894506Y-87269514D01*
X191894513Y-87269508D01*
X191897843Y-87267541D01*
X191905666Y-87263632D01*
X191968089Y-87237777D01*
X192176179Y-87110259D01*
X192361759Y-86951759D01*
X192520259Y-86766179D01*
X192647777Y-86558089D01*
X192741172Y-86332612D01*
X192798146Y-86095302D01*
X192817294Y-85852000D01*
X192798146Y-85608698D01*
X192741172Y-85371388D01*
X192731943Y-85349106D01*
X192647777Y-85145910D01*
X192520262Y-84937826D01*
X192520261Y-84937823D01*
X192453333Y-84859461D01*
X192361759Y-84752241D01*
X192209852Y-84622500D01*
X192176176Y-84593738D01*
X192176173Y-84593737D01*
X192157023Y-84582002D01*
X209937751Y-84582002D01*
X209956685Y-84750056D01*
X210012545Y-84909694D01*
X210012547Y-84909697D01*
X210102518Y-85052884D01*
X210102523Y-85052890D01*
X210222109Y-85172476D01*
X210222115Y-85172481D01*
X210365302Y-85262452D01*
X210365305Y-85262454D01*
X210365309Y-85262455D01*
X210365310Y-85262456D01*
X210435087Y-85286872D01*
X210524943Y-85318314D01*
X210692997Y-85337249D01*
X210693000Y-85337249D01*
X210693003Y-85337249D01*
X210861052Y-85318314D01*
X210861052Y-85318313D01*
X210861059Y-85318313D01*
X210896523Y-85305903D01*
X210923425Y-85299745D01*
X210926660Y-85299377D01*
X211261763Y-85211550D01*
X211293200Y-85207500D01*
X211572096Y-85207500D01*
X211630503Y-85222117D01*
X211706045Y-85262454D01*
X212114229Y-85480411D01*
X212114237Y-85480413D01*
X212121270Y-85483552D01*
X212128570Y-85487410D01*
X212137484Y-85492908D01*
X212301247Y-85547174D01*
X212402323Y-85557500D01*
X213100676Y-85557499D01*
X213100684Y-85557498D01*
X213100687Y-85557498D01*
X213156030Y-85551844D01*
X213201753Y-85547174D01*
X213365516Y-85492908D01*
X213512350Y-85402340D01*
X213526319Y-85388371D01*
X213587642Y-85354886D01*
X213657334Y-85359870D01*
X213701681Y-85388371D01*
X213715650Y-85402340D01*
X213862484Y-85492908D01*
X214026247Y-85547174D01*
X214127323Y-85557500D01*
X214825676Y-85557499D01*
X214825684Y-85557498D01*
X214825687Y-85557498D01*
X214881030Y-85551844D01*
X214926753Y-85547174D01*
X215090516Y-85492908D01*
X215099467Y-85487386D01*
X215106792Y-85483518D01*
X215113749Y-85480418D01*
X215113769Y-85480411D01*
X215386124Y-85334981D01*
X215454530Y-85320769D01*
X215519764Y-85345797D01*
X215523909Y-85349104D01*
X215961184Y-85713500D01*
X215985604Y-85732612D01*
X216003036Y-85741923D01*
X216018910Y-85752021D01*
X216050669Y-85775796D01*
X216050670Y-85775796D01*
X216050671Y-85775797D01*
X216099085Y-85793854D01*
X216106634Y-85797259D01*
X216112515Y-85800400D01*
X216119996Y-85803112D01*
X216131324Y-85806168D01*
X216136840Y-85807935D01*
X216185517Y-85826091D01*
X216245127Y-85832500D01*
X217840872Y-85832499D01*
X217900483Y-85826091D01*
X218035331Y-85775796D01*
X218150546Y-85689546D01*
X218236796Y-85574331D01*
X218287091Y-85439483D01*
X218293500Y-85379873D01*
X218293499Y-83784128D01*
X218287091Y-83724517D01*
X218271825Y-83683588D01*
X218236797Y-83589671D01*
X218236793Y-83589664D01*
X218150547Y-83474455D01*
X218150544Y-83474452D01*
X218035335Y-83388206D01*
X218035328Y-83388202D01*
X217900482Y-83337908D01*
X217900483Y-83337908D01*
X217840883Y-83331501D01*
X217840881Y-83331500D01*
X217840873Y-83331500D01*
X217840865Y-83331500D01*
X216294931Y-83331500D01*
X216287119Y-83331006D01*
X216285017Y-83330739D01*
X216278623Y-83330844D01*
X216270399Y-83331500D01*
X216245131Y-83331500D01*
X216245123Y-83331501D01*
X216185516Y-83337909D01*
X216148186Y-83351832D01*
X216144964Y-83352934D01*
X216134405Y-83356224D01*
X216083697Y-83375057D01*
X216079177Y-83377261D01*
X216073676Y-83379621D01*
X216050670Y-83388202D01*
X216050668Y-83388204D01*
X215998763Y-83427057D01*
X215994119Y-83430216D01*
X215961188Y-83450495D01*
X215523910Y-83814891D01*
X215459807Y-83842686D01*
X215390853Y-83831412D01*
X215386121Y-83829014D01*
X215339519Y-83804130D01*
X215113769Y-83683587D01*
X215113762Y-83683584D01*
X215106727Y-83680446D01*
X215099428Y-83676589D01*
X215090519Y-83671094D01*
X215090520Y-83671094D01*
X215090516Y-83671092D01*
X214926753Y-83616826D01*
X214926751Y-83616825D01*
X214825678Y-83606500D01*
X214127330Y-83606500D01*
X214127312Y-83606501D01*
X214026247Y-83616825D01*
X213862484Y-83671092D01*
X213862481Y-83671093D01*
X213715648Y-83761661D01*
X213701681Y-83775629D01*
X213640358Y-83809114D01*
X213570666Y-83804130D01*
X213526319Y-83775629D01*
X213512351Y-83761661D01*
X213512350Y-83761660D01*
X213385774Y-83683587D01*
X213365518Y-83671093D01*
X213365513Y-83671091D01*
X213364069Y-83670612D01*
X213201753Y-83616826D01*
X213201751Y-83616825D01*
X213100678Y-83606500D01*
X212402330Y-83606500D01*
X212402312Y-83606501D01*
X212301247Y-83616825D01*
X212301244Y-83616826D01*
X212137484Y-83671091D01*
X212137483Y-83671092D01*
X212128545Y-83676605D01*
X212121223Y-83680472D01*
X212114231Y-83683587D01*
X211630500Y-83941883D01*
X211572093Y-83956500D01*
X211293202Y-83956500D01*
X211261765Y-83952449D01*
X210926670Y-83864624D01*
X210921247Y-83863310D01*
X210908443Y-83860207D01*
X210908439Y-83860206D01*
X210903587Y-83859031D01*
X210903603Y-83858964D01*
X210887157Y-83854818D01*
X210861063Y-83845688D01*
X210861053Y-83845685D01*
X210693003Y-83826751D01*
X210692997Y-83826751D01*
X210524943Y-83845685D01*
X210365305Y-83901545D01*
X210365302Y-83901547D01*
X210222115Y-83991518D01*
X210222109Y-83991523D01*
X210102523Y-84111109D01*
X210102518Y-84111115D01*
X210012547Y-84254302D01*
X210012545Y-84254305D01*
X209956685Y-84413943D01*
X209937751Y-84581997D01*
X209937751Y-84582002D01*
X192157023Y-84582002D01*
X191968089Y-84466222D01*
X191742618Y-84372830D01*
X191742621Y-84372830D01*
X191636992Y-84347470D01*
X191505302Y-84315854D01*
X191505300Y-84315853D01*
X191505297Y-84315853D01*
X191262000Y-84296706D01*
X191018702Y-84315853D01*
X191018697Y-84315854D01*
X191018698Y-84315854D01*
X190842301Y-84358204D01*
X190781380Y-84372830D01*
X190555910Y-84466222D01*
X190347826Y-84593737D01*
X190347823Y-84593738D01*
X190162241Y-84752241D01*
X190003738Y-84937823D01*
X190003737Y-84937826D01*
X189876224Y-85145907D01*
X189876223Y-85145910D01*
X189824097Y-85271751D01*
X189822525Y-85275237D01*
X189806887Y-85307250D01*
X189806881Y-85307266D01*
X189798886Y-85332084D01*
X189797154Y-85336798D01*
X189782828Y-85371386D01*
X189773427Y-85410544D01*
X189772153Y-85415081D01*
X189286122Y-86923969D01*
X189255775Y-86973632D01*
X185441228Y-90788181D01*
X185379905Y-90821666D01*
X185353547Y-90824500D01*
X184447015Y-90824500D01*
X184379976Y-90804815D01*
X184367051Y-90795272D01*
X184363743Y-90792481D01*
X184148496Y-90610866D01*
X183745200Y-90270584D01*
X183745194Y-90270580D01*
X183733308Y-90261190D01*
X183719611Y-90250369D01*
X183719608Y-90250367D01*
X183705008Y-90242513D01*
X183701877Y-90240828D01*
X183686319Y-90230899D01*
X183653331Y-90206204D01*
X183653328Y-90206202D01*
X183605731Y-90188450D01*
X183598020Y-90184958D01*
X183592898Y-90182203D01*
X183587370Y-90180181D01*
X183585364Y-90179447D01*
X183585361Y-90179446D01*
X183585358Y-90179445D01*
X183579347Y-90177814D01*
X183574271Y-90176436D01*
X183568844Y-90174692D01*
X183518482Y-90155908D01*
X183518483Y-90155908D01*
X183458883Y-90149501D01*
X183458881Y-90149500D01*
X183458873Y-90149500D01*
X183458864Y-90149500D01*
X181763129Y-90149500D01*
X181763123Y-90149501D01*
X181703510Y-90155909D01*
X181697248Y-90157389D01*
X181627479Y-90153645D01*
X181570810Y-90112776D01*
X181545232Y-90047756D01*
X181558867Y-89979230D01*
X181581054Y-89949035D01*
X182222270Y-89307819D01*
X182283594Y-89274334D01*
X182309952Y-89271500D01*
X183305257Y-89271500D01*
X183320877Y-89273224D01*
X183320904Y-89272939D01*
X183328666Y-89273673D01*
X183328666Y-89273672D01*
X183328667Y-89273673D01*
X183331999Y-89273568D01*
X183396847Y-89271531D01*
X183398794Y-89271500D01*
X183427347Y-89271500D01*
X183427350Y-89271500D01*
X183434228Y-89270630D01*
X183440041Y-89270172D01*
X183486627Y-89268709D01*
X183505869Y-89263117D01*
X183524912Y-89259174D01*
X183544792Y-89256664D01*
X183588122Y-89239507D01*
X183593646Y-89237617D01*
X183597396Y-89236527D01*
X183638390Y-89224618D01*
X183655629Y-89214422D01*
X183673103Y-89205862D01*
X183691727Y-89198488D01*
X183691727Y-89198487D01*
X183691732Y-89198486D01*
X183729449Y-89171082D01*
X183734305Y-89167892D01*
X183774420Y-89144170D01*
X183788589Y-89129999D01*
X183803379Y-89117368D01*
X183819587Y-89105594D01*
X183849299Y-89069676D01*
X183853212Y-89065376D01*
X185060367Y-87858221D01*
X185110025Y-87827877D01*
X186618923Y-87341842D01*
X186623417Y-87340581D01*
X186662612Y-87331172D01*
X186697225Y-87316833D01*
X186701942Y-87315101D01*
X186702945Y-87314778D01*
X186731643Y-87305535D01*
X186741391Y-87302174D01*
X186747111Y-87300071D01*
X186814506Y-87269514D01*
X186814513Y-87269508D01*
X186817843Y-87267541D01*
X186825666Y-87263632D01*
X186888089Y-87237777D01*
X187096179Y-87110259D01*
X187281759Y-86951759D01*
X187440259Y-86766179D01*
X187567777Y-86558089D01*
X187661172Y-86332612D01*
X187718146Y-86095302D01*
X187737294Y-85852000D01*
X187718146Y-85608698D01*
X187661172Y-85371388D01*
X187651943Y-85349106D01*
X187567777Y-85145910D01*
X187440262Y-84937826D01*
X187440261Y-84937823D01*
X187373333Y-84859461D01*
X187281759Y-84752241D01*
X187129852Y-84622500D01*
X187096176Y-84593738D01*
X187096173Y-84593737D01*
X186888089Y-84466222D01*
X186662618Y-84372830D01*
X186662621Y-84372830D01*
X186556992Y-84347470D01*
X186425302Y-84315854D01*
X186425300Y-84315853D01*
X186425297Y-84315853D01*
X186182000Y-84296706D01*
X185938702Y-84315853D01*
X185938697Y-84315854D01*
X185938698Y-84315854D01*
X185762301Y-84358204D01*
X185701380Y-84372830D01*
X185475910Y-84466222D01*
X185267826Y-84593737D01*
X185267823Y-84593738D01*
X185082241Y-84752241D01*
X184923738Y-84937823D01*
X184923737Y-84937826D01*
X184796224Y-85145907D01*
X184796223Y-85145910D01*
X184744097Y-85271751D01*
X184742525Y-85275237D01*
X184726887Y-85307250D01*
X184726881Y-85307266D01*
X184718886Y-85332084D01*
X184717154Y-85336798D01*
X184702828Y-85371386D01*
X184693427Y-85410544D01*
X184692153Y-85415081D01*
X184206122Y-86923970D01*
X184175775Y-86973633D01*
X183165228Y-87984181D01*
X183103905Y-88017666D01*
X183077547Y-88020500D01*
X182082243Y-88020500D01*
X182066622Y-88018775D01*
X182066595Y-88019061D01*
X182058833Y-88018326D01*
X181990640Y-88020469D01*
X181988693Y-88020500D01*
X181960149Y-88020500D01*
X181953278Y-88021367D01*
X181947459Y-88021825D01*
X181900874Y-88023289D01*
X181900868Y-88023290D01*
X181881626Y-88028880D01*
X181862587Y-88032823D01*
X181842717Y-88035334D01*
X181842703Y-88035337D01*
X181799383Y-88052488D01*
X181793858Y-88054380D01*
X181749113Y-88067380D01*
X181749110Y-88067381D01*
X181731866Y-88077579D01*
X181714405Y-88086133D01*
X181695774Y-88093510D01*
X181695762Y-88093517D01*
X181658070Y-88120902D01*
X181653187Y-88124109D01*
X181613080Y-88147829D01*
X181598914Y-88161995D01*
X181584124Y-88174627D01*
X181567914Y-88186404D01*
X181567911Y-88186407D01*
X181538210Y-88222309D01*
X181534277Y-88226631D01*
X180197769Y-89563138D01*
X180180312Y-89577656D01*
X180166935Y-89586847D01*
X180166929Y-89586852D01*
X179169671Y-90506207D01*
X179165876Y-90509781D01*
X179163684Y-90511886D01*
X179120724Y-90558704D01*
X179119202Y-90560751D01*
X179107397Y-90574416D01*
X179070955Y-90610858D01*
X179070948Y-90610866D01*
X178940432Y-90797265D01*
X178940428Y-90797272D01*
X178915397Y-90850951D01*
X178869224Y-90903390D01*
X178802030Y-90922541D01*
X178735150Y-90902324D01*
X178690994Y-90851714D01*
X178679454Y-90827401D01*
X178179999Y-89775099D01*
X178169036Y-89706095D01*
X178197121Y-89642118D01*
X178204329Y-89634260D01*
X179980367Y-87858221D01*
X180030025Y-87827877D01*
X181538923Y-87341842D01*
X181543417Y-87340581D01*
X181582612Y-87331172D01*
X181617225Y-87316833D01*
X181621942Y-87315101D01*
X181622945Y-87314778D01*
X181651643Y-87305535D01*
X181661391Y-87302174D01*
X181667111Y-87300071D01*
X181734506Y-87269514D01*
X181734513Y-87269508D01*
X181737843Y-87267541D01*
X181745666Y-87263632D01*
X181808089Y-87237777D01*
X182016179Y-87110259D01*
X182201759Y-86951759D01*
X182360259Y-86766179D01*
X182487777Y-86558089D01*
X182581172Y-86332612D01*
X182638146Y-86095302D01*
X182657294Y-85852000D01*
X182638146Y-85608698D01*
X182581172Y-85371388D01*
X182571943Y-85349106D01*
X182487777Y-85145910D01*
X182360262Y-84937826D01*
X182360261Y-84937823D01*
X182293333Y-84859461D01*
X182201759Y-84752241D01*
X182049852Y-84622500D01*
X182016176Y-84593738D01*
X182016173Y-84593737D01*
X181808089Y-84466222D01*
X181582618Y-84372830D01*
X181582621Y-84372830D01*
X181476992Y-84347470D01*
X181345302Y-84315854D01*
X181345300Y-84315853D01*
X181345297Y-84315853D01*
X181102000Y-84296706D01*
X180858702Y-84315853D01*
X180858697Y-84315854D01*
X180858698Y-84315854D01*
X180682301Y-84358204D01*
X180621380Y-84372830D01*
X180395910Y-84466222D01*
X180187826Y-84593737D01*
X180187823Y-84593738D01*
X180002241Y-84752241D01*
X179843738Y-84937823D01*
X179843737Y-84937826D01*
X179716224Y-85145907D01*
X179716223Y-85145910D01*
X179664097Y-85271751D01*
X179662525Y-85275237D01*
X179646887Y-85307250D01*
X179646881Y-85307266D01*
X179638886Y-85332084D01*
X179637154Y-85336798D01*
X179622828Y-85371386D01*
X179613427Y-85410544D01*
X179612153Y-85415081D01*
X179126122Y-86923970D01*
X179095775Y-86973633D01*
X177147208Y-88922199D01*
X177134951Y-88932020D01*
X177135134Y-88932241D01*
X177129122Y-88937214D01*
X177082432Y-88986932D01*
X177081079Y-88988329D01*
X177060889Y-89008519D01*
X177060877Y-89008532D01*
X177056621Y-89014017D01*
X177052837Y-89018447D01*
X177020937Y-89052418D01*
X177020936Y-89052420D01*
X177011284Y-89069976D01*
X177000610Y-89086226D01*
X176988329Y-89102061D01*
X176988324Y-89102068D01*
X176969815Y-89144838D01*
X176967245Y-89150084D01*
X176944803Y-89190906D01*
X176939822Y-89210307D01*
X176933521Y-89228710D01*
X176925562Y-89247102D01*
X176925561Y-89247105D01*
X176918271Y-89293127D01*
X176917087Y-89298846D01*
X176905501Y-89343972D01*
X176905500Y-89343982D01*
X176905500Y-89364016D01*
X176903973Y-89383415D01*
X176900840Y-89403194D01*
X176900840Y-89403195D01*
X176905225Y-89449583D01*
X176905500Y-89455421D01*
X176905500Y-89697655D01*
X176893522Y-89750824D01*
X176373021Y-90847464D01*
X176326493Y-90899588D01*
X176259170Y-90918282D01*
X176192428Y-90897610D01*
X176148977Y-90847464D01*
X176139454Y-90827401D01*
X175951994Y-90432441D01*
X175628478Y-89750825D01*
X175616500Y-89697656D01*
X175616500Y-87866769D01*
X175636185Y-87799730D01*
X175685114Y-87755825D01*
X176639845Y-87279218D01*
X176671699Y-87261861D01*
X176671701Y-87261858D01*
X176674370Y-87260405D01*
X176680288Y-87257575D01*
X176728089Y-87237777D01*
X176936179Y-87110259D01*
X177121759Y-86951759D01*
X177280259Y-86766179D01*
X177407777Y-86558089D01*
X177501172Y-86332612D01*
X177558146Y-86095302D01*
X177577294Y-85852000D01*
X177558146Y-85608698D01*
X177501172Y-85371388D01*
X177491943Y-85349106D01*
X177407777Y-85145910D01*
X177280262Y-84937826D01*
X177280261Y-84937823D01*
X177213333Y-84859461D01*
X177121759Y-84752241D01*
X176969852Y-84622500D01*
X176936176Y-84593738D01*
X176936173Y-84593737D01*
X176728089Y-84466222D01*
X176502618Y-84372830D01*
X176502621Y-84372830D01*
X176396992Y-84347470D01*
X176265302Y-84315854D01*
X176265300Y-84315853D01*
X176265297Y-84315853D01*
X176022000Y-84296706D01*
X175778702Y-84315853D01*
X175778697Y-84315854D01*
X175778698Y-84315854D01*
X175602301Y-84358204D01*
X175541380Y-84372830D01*
X175315910Y-84466222D01*
X175107826Y-84593737D01*
X175107823Y-84593738D01*
X174922241Y-84752241D01*
X174763738Y-84937823D01*
X174763737Y-84937826D01*
X174636222Y-85145910D01*
X174542830Y-85371380D01*
X174542829Y-85371386D01*
X174542828Y-85371388D01*
X174538751Y-85388371D01*
X174485854Y-85608696D01*
X174469692Y-85814045D01*
X174468547Y-85821985D01*
X174466862Y-85829970D01*
X174466859Y-85829988D01*
X174416177Y-86605982D01*
X174405500Y-86642793D01*
X174407675Y-86643654D01*
X174404803Y-86650907D01*
X174399822Y-86670307D01*
X174393521Y-86688710D01*
X174385562Y-86707102D01*
X174385561Y-86707105D01*
X174378271Y-86753127D01*
X174377087Y-86758846D01*
X174365501Y-86803972D01*
X174365500Y-86803982D01*
X174365500Y-86824016D01*
X174363973Y-86843415D01*
X174360840Y-86863194D01*
X174360840Y-86863195D01*
X174365225Y-86909583D01*
X174365500Y-86915421D01*
X174365500Y-87379877D01*
X174365368Y-87383920D01*
X174362121Y-87433619D01*
X174361719Y-87441809D01*
X174361560Y-87446689D01*
X174361560Y-87446705D01*
X174364186Y-87517283D01*
X174364223Y-87517538D01*
X174365500Y-87535289D01*
X174365500Y-89697655D01*
X174353522Y-89750824D01*
X173833021Y-90847464D01*
X173786493Y-90899588D01*
X173719170Y-90918282D01*
X173652428Y-90897610D01*
X173608977Y-90847464D01*
X173599454Y-90827401D01*
X173411994Y-90432441D01*
X173088478Y-89750825D01*
X173076500Y-89697656D01*
X173076500Y-87443737D01*
X173078224Y-87428123D01*
X173077938Y-87428096D01*
X173078672Y-87420333D01*
X173076531Y-87352171D01*
X173076500Y-87350224D01*
X173076500Y-87321651D01*
X173076500Y-87321650D01*
X173075629Y-87314759D01*
X173075172Y-87308945D01*
X173074623Y-87291482D01*
X173073709Y-87262373D01*
X173073560Y-87261861D01*
X173068122Y-87243144D01*
X173064174Y-87224084D01*
X173061664Y-87204208D01*
X173044507Y-87160875D01*
X173042619Y-87155359D01*
X173029619Y-87110612D01*
X173029411Y-87110261D01*
X173025919Y-87104356D01*
X173019418Y-87093363D01*
X173010860Y-87075894D01*
X173003486Y-87057268D01*
X173003483Y-87057264D01*
X173003483Y-87057263D01*
X172976098Y-87019571D01*
X172972890Y-87014687D01*
X172949172Y-86974582D01*
X172949163Y-86974571D01*
X172948222Y-86973630D01*
X172947437Y-86972345D01*
X172944384Y-86968409D01*
X172944823Y-86968068D01*
X172917875Y-86923967D01*
X172896692Y-86858205D01*
X172431841Y-85415071D01*
X172430574Y-85410552D01*
X172430572Y-85410544D01*
X172421172Y-85371388D01*
X172411943Y-85349106D01*
X172406838Y-85336782D01*
X172405104Y-85332063D01*
X172398424Y-85311324D01*
X172395535Y-85302356D01*
X172392174Y-85292608D01*
X172390071Y-85286888D01*
X172359514Y-85219493D01*
X172359510Y-85219488D01*
X172357537Y-85216147D01*
X172353631Y-85208328D01*
X172327777Y-85145911D01*
X172200261Y-84937825D01*
X172200261Y-84937823D01*
X172133333Y-84859461D01*
X172041759Y-84752241D01*
X171889852Y-84622500D01*
X171856176Y-84593738D01*
X171856173Y-84593737D01*
X171648089Y-84466222D01*
X171422618Y-84372830D01*
X171422621Y-84372830D01*
X171316992Y-84347470D01*
X171185302Y-84315854D01*
X171185300Y-84315853D01*
X171185297Y-84315853D01*
X170942000Y-84296706D01*
X170698702Y-84315853D01*
X170698697Y-84315854D01*
X170698698Y-84315854D01*
X170522301Y-84358204D01*
X170461380Y-84372830D01*
X170235910Y-84466222D01*
X170027826Y-84593737D01*
X170027823Y-84593738D01*
X169842241Y-84752241D01*
X169683738Y-84937823D01*
X169683737Y-84937826D01*
X169556222Y-85145910D01*
X169462830Y-85371380D01*
X169462829Y-85371386D01*
X169462828Y-85371388D01*
X169436023Y-85483039D01*
X169405853Y-85608702D01*
X169386706Y-85852000D01*
X169405853Y-86095297D01*
X169405853Y-86095300D01*
X169405854Y-86095302D01*
X169462828Y-86332612D01*
X169462828Y-86332613D01*
X169462830Y-86332619D01*
X169556222Y-86558089D01*
X169683737Y-86766173D01*
X169683738Y-86766176D01*
X169721217Y-86810058D01*
X169842241Y-86951759D01*
X169968948Y-87059977D01*
X170027823Y-87110261D01*
X170027826Y-87110262D01*
X170229365Y-87233766D01*
X170235911Y-87237777D01*
X170361795Y-87289919D01*
X170365252Y-87291478D01*
X170397263Y-87307116D01*
X170422084Y-87315111D01*
X170426771Y-87316833D01*
X170461388Y-87331172D01*
X170500548Y-87340573D01*
X170505074Y-87341842D01*
X171739518Y-87739472D01*
X171797294Y-87778763D01*
X171824655Y-87843052D01*
X171825500Y-87857500D01*
X171825500Y-89697655D01*
X171813522Y-89750823D01*
X171764456Y-89854201D01*
X171292036Y-90849538D01*
X171245508Y-90901661D01*
X171178185Y-90920355D01*
X171111443Y-90899683D01*
X171069207Y-90852025D01*
X171035724Y-90785365D01*
X170534203Y-89786892D01*
X170521988Y-89746775D01*
X170521664Y-89744208D01*
X170504504Y-89700867D01*
X170502624Y-89695379D01*
X170489618Y-89650610D01*
X170488601Y-89648891D01*
X170479423Y-89633371D01*
X170470861Y-89615894D01*
X170463487Y-89597270D01*
X170463486Y-89597268D01*
X170436079Y-89559545D01*
X170432888Y-89554686D01*
X170431654Y-89552600D01*
X170409170Y-89514580D01*
X170409168Y-89514578D01*
X170409165Y-89514574D01*
X170395006Y-89500415D01*
X170382368Y-89485619D01*
X170370594Y-89469413D01*
X170366555Y-89466072D01*
X170334688Y-89439709D01*
X170330376Y-89435786D01*
X167868223Y-86973632D01*
X167837876Y-86923969D01*
X167351841Y-85415071D01*
X167350574Y-85410552D01*
X167350572Y-85410544D01*
X167341172Y-85371388D01*
X167331943Y-85349106D01*
X167326838Y-85336782D01*
X167325104Y-85332063D01*
X167318424Y-85311324D01*
X167315535Y-85302356D01*
X167312174Y-85292608D01*
X167310071Y-85286888D01*
X167279514Y-85219493D01*
X167279510Y-85219488D01*
X167277537Y-85216147D01*
X167273631Y-85208328D01*
X167247777Y-85145911D01*
X167120261Y-84937825D01*
X167120261Y-84937823D01*
X167053333Y-84859461D01*
X166961759Y-84752241D01*
X166809852Y-84622500D01*
X166776176Y-84593738D01*
X166776173Y-84593737D01*
X166568089Y-84466222D01*
X166342618Y-84372830D01*
X166342621Y-84372830D01*
X166236992Y-84347470D01*
X166105302Y-84315854D01*
X166105300Y-84315853D01*
X166105297Y-84315853D01*
X165862000Y-84296706D01*
X165618702Y-84315853D01*
X165618697Y-84315854D01*
X165618698Y-84315854D01*
X165442301Y-84358204D01*
X165381380Y-84372830D01*
X165155910Y-84466222D01*
X164947826Y-84593737D01*
X164947823Y-84593738D01*
X164762241Y-84752241D01*
X164603738Y-84937823D01*
X164603737Y-84937826D01*
X164476222Y-85145910D01*
X164382830Y-85371380D01*
X164382829Y-85371386D01*
X164382828Y-85371388D01*
X164356023Y-85483039D01*
X164325853Y-85608702D01*
X164306706Y-85852000D01*
X164325853Y-86095297D01*
X164325853Y-86095300D01*
X164325854Y-86095302D01*
X164382828Y-86332612D01*
X164382828Y-86332613D01*
X164382830Y-86332619D01*
X164476222Y-86558089D01*
X164603737Y-86766173D01*
X164603738Y-86766176D01*
X164641217Y-86810058D01*
X164762241Y-86951759D01*
X164888948Y-87059977D01*
X164947823Y-87110261D01*
X164947826Y-87110262D01*
X165149365Y-87233766D01*
X165155911Y-87237777D01*
X165281795Y-87289919D01*
X165285252Y-87291478D01*
X165317263Y-87307116D01*
X165342084Y-87315111D01*
X165346771Y-87316833D01*
X165381388Y-87331172D01*
X165420548Y-87340573D01*
X165425074Y-87341842D01*
X166933971Y-87827876D01*
X166983633Y-87858223D01*
X169106288Y-89980878D01*
X169139773Y-90042201D01*
X169134789Y-90111893D01*
X169128789Y-90125444D01*
X168788081Y-90785365D01*
X168783780Y-90792481D01*
X168780437Y-90797256D01*
X168780431Y-90797267D01*
X168766905Y-90826272D01*
X168765805Y-90828512D01*
X168750465Y-90858223D01*
X168702218Y-90908761D01*
X168634308Y-90925192D01*
X168568295Y-90902299D01*
X168527902Y-90853740D01*
X168527102Y-90852025D01*
X168501568Y-90797266D01*
X168410711Y-90667508D01*
X168371048Y-90610862D01*
X168277392Y-90517206D01*
X168274980Y-90514654D01*
X168260204Y-90498102D01*
X168252289Y-90489236D01*
X168252286Y-90489233D01*
X168252281Y-90489228D01*
X168236303Y-90475791D01*
X168232366Y-90472180D01*
X168210142Y-90449955D01*
X168185130Y-90432441D01*
X168180785Y-90429104D01*
X168094614Y-90356637D01*
X167216425Y-89618110D01*
X167216414Y-89618101D01*
X167216392Y-89618083D01*
X167192337Y-89599135D01*
X167186858Y-89594267D01*
X166362803Y-88770212D01*
X166352980Y-88757950D01*
X166352759Y-88758134D01*
X166347786Y-88752122D01*
X166298066Y-88705432D01*
X166296666Y-88704075D01*
X166276476Y-88683884D01*
X166270986Y-88679625D01*
X166266561Y-88675847D01*
X166232582Y-88643938D01*
X166232580Y-88643936D01*
X166232577Y-88643935D01*
X166215029Y-88634288D01*
X166198763Y-88623604D01*
X166182933Y-88611325D01*
X166140168Y-88592818D01*
X166134922Y-88590248D01*
X166094093Y-88567803D01*
X166094092Y-88567802D01*
X166074693Y-88562822D01*
X166056281Y-88556518D01*
X166037898Y-88548562D01*
X166037892Y-88548560D01*
X165991874Y-88541272D01*
X165986152Y-88540087D01*
X165941021Y-88528500D01*
X165941019Y-88528500D01*
X165920984Y-88528500D01*
X165901586Y-88526973D01*
X165894162Y-88525797D01*
X165881805Y-88523840D01*
X165881804Y-88523840D01*
X165835416Y-88528225D01*
X165829578Y-88528500D01*
X162362453Y-88528500D01*
X162295414Y-88508815D01*
X162274772Y-88492181D01*
X161574694Y-87792103D01*
X161541209Y-87730780D01*
X161546193Y-87661088D01*
X161554134Y-87643926D01*
X162091211Y-86683126D01*
X162092460Y-86680994D01*
X162096108Y-86675041D01*
X162167777Y-86558089D01*
X162185488Y-86515327D01*
X162188644Y-86508823D01*
X162190508Y-86505490D01*
X162197345Y-86492371D01*
X162201165Y-86484487D01*
X162231228Y-86406647D01*
X162231229Y-86406636D01*
X162231387Y-86406037D01*
X162234091Y-86397989D01*
X162261172Y-86332612D01*
X162318146Y-86095302D01*
X162337294Y-85852000D01*
X162318146Y-85608698D01*
X162261172Y-85371388D01*
X162251943Y-85349106D01*
X162167777Y-85145910D01*
X162040262Y-84937826D01*
X162040261Y-84937823D01*
X161973333Y-84859461D01*
X161881759Y-84752241D01*
X161729852Y-84622500D01*
X161696176Y-84593738D01*
X161696173Y-84593737D01*
X161488089Y-84466222D01*
X161262618Y-84372830D01*
X161262621Y-84372830D01*
X161156992Y-84347470D01*
X161025302Y-84315854D01*
X161025300Y-84315853D01*
X161025297Y-84315853D01*
X160782000Y-84296706D01*
X160538702Y-84315853D01*
X160538697Y-84315854D01*
X160538698Y-84315854D01*
X160362301Y-84358204D01*
X160301380Y-84372830D01*
X160075910Y-84466222D01*
X159867826Y-84593737D01*
X159867823Y-84593738D01*
X159682241Y-84752241D01*
X159523738Y-84937823D01*
X159523737Y-84937826D01*
X159396222Y-85145910D01*
X159302830Y-85371380D01*
X159302829Y-85371386D01*
X159302828Y-85371388D01*
X159276023Y-85483039D01*
X159245853Y-85608702D01*
X159226706Y-85852000D01*
X159245853Y-86095297D01*
X159245853Y-86095300D01*
X159245854Y-86095302D01*
X159274686Y-86215395D01*
X159302830Y-86332621D01*
X159302831Y-86332622D01*
X159355957Y-86460879D01*
X159357249Y-86464276D01*
X159368652Y-86497132D01*
X159379160Y-86517471D01*
X159381356Y-86522201D01*
X159388583Y-86539645D01*
X159396223Y-86558089D01*
X159401685Y-86567002D01*
X159420024Y-86596932D01*
X159422244Y-86600869D01*
X160183571Y-88074552D01*
X160192480Y-88096868D01*
X160203381Y-88134389D01*
X160203382Y-88134390D01*
X160213542Y-88151571D01*
X160213580Y-88151634D01*
X160222136Y-88169100D01*
X160229514Y-88187732D01*
X160254635Y-88222309D01*
X160256898Y-88225423D01*
X160260106Y-88230307D01*
X160283827Y-88270416D01*
X160283833Y-88270424D01*
X160297990Y-88284580D01*
X160310628Y-88299376D01*
X160322405Y-88315586D01*
X160322406Y-88315587D01*
X160358309Y-88345288D01*
X160362620Y-88349210D01*
X161254517Y-89241108D01*
X161551197Y-89537788D01*
X161561022Y-89550051D01*
X161561243Y-89549869D01*
X161566211Y-89555874D01*
X161615932Y-89602566D01*
X161617332Y-89603923D01*
X161637523Y-89624115D01*
X161637527Y-89624118D01*
X161637529Y-89624120D01*
X161643011Y-89628373D01*
X161647443Y-89632157D01*
X161681418Y-89664062D01*
X161698976Y-89673714D01*
X161715235Y-89684395D01*
X161731064Y-89696673D01*
X161773838Y-89715182D01*
X161779056Y-89717738D01*
X161819908Y-89740197D01*
X161839316Y-89745180D01*
X161857717Y-89751480D01*
X161876104Y-89759437D01*
X161919488Y-89766308D01*
X161922119Y-89766725D01*
X161927839Y-89767909D01*
X161972981Y-89779500D01*
X161993016Y-89779500D01*
X162012414Y-89781026D01*
X162032194Y-89784159D01*
X162032195Y-89784160D01*
X162032195Y-89784159D01*
X162032196Y-89784160D01*
X162078583Y-89779775D01*
X162084422Y-89779500D01*
X165551548Y-89779500D01*
X165618587Y-89799185D01*
X165639229Y-89815819D01*
X166136779Y-90313370D01*
X166170264Y-90374693D01*
X166172408Y-90414114D01*
X166144341Y-90679063D01*
X166117704Y-90743655D01*
X166060374Y-90783593D01*
X165990552Y-90786196D01*
X165930408Y-90750637D01*
X165919456Y-90737123D01*
X165831045Y-90610858D01*
X165670141Y-90449954D01*
X165483734Y-90319432D01*
X165483732Y-90319431D01*
X165277497Y-90223261D01*
X165277488Y-90223258D01*
X165057697Y-90164366D01*
X165057693Y-90164365D01*
X165057692Y-90164365D01*
X165057691Y-90164364D01*
X165057686Y-90164364D01*
X164831002Y-90144532D01*
X164830998Y-90144532D01*
X164604313Y-90164364D01*
X164604302Y-90164366D01*
X164384504Y-90223260D01*
X164330025Y-90248664D01*
X164322163Y-90251698D01*
X164315353Y-90253807D01*
X164296995Y-90259493D01*
X163131825Y-90812522D01*
X163078656Y-90824500D01*
X159578452Y-90824500D01*
X159511413Y-90804815D01*
X159490771Y-90788181D01*
X156601843Y-87899252D01*
X156568358Y-87837929D01*
X156573342Y-87768237D01*
X156601783Y-87723950D01*
X156677044Y-87648586D01*
X156951479Y-87373774D01*
X156987023Y-87350916D01*
X156986548Y-87350046D01*
X156994325Y-87345797D01*
X156994331Y-87345796D01*
X157109546Y-87259546D01*
X157195796Y-87144331D01*
X157246091Y-87009483D01*
X157252500Y-86949873D01*
X157252499Y-84754128D01*
X157246091Y-84694517D01*
X157245447Y-84692791D01*
X157195797Y-84559671D01*
X157195793Y-84559664D01*
X157109547Y-84444455D01*
X157109544Y-84444452D01*
X156994335Y-84358206D01*
X156994328Y-84358202D01*
X156859482Y-84307908D01*
X156859483Y-84307908D01*
X156799883Y-84301501D01*
X156799881Y-84301500D01*
X156799873Y-84301500D01*
X156799864Y-84301500D01*
X154604129Y-84301500D01*
X154604123Y-84301501D01*
X154544516Y-84307908D01*
X154409671Y-84358202D01*
X154409664Y-84358206D01*
X154294455Y-84444452D01*
X154294452Y-84444455D01*
X154208206Y-84559664D01*
X154208202Y-84559671D01*
X154157908Y-84694517D01*
X154151937Y-84750059D01*
X154151501Y-84754123D01*
X154151500Y-84754135D01*
X154151500Y-86949870D01*
X154151501Y-86949876D01*
X154157908Y-87009483D01*
X154208202Y-87144328D01*
X154208206Y-87144335D01*
X154294452Y-87259544D01*
X154294455Y-87259547D01*
X154406367Y-87343324D01*
X154409669Y-87345796D01*
X154409675Y-87345798D01*
X154411802Y-87346960D01*
X154446971Y-87375615D01*
X155193168Y-88255867D01*
X155200150Y-88265675D01*
X155203831Y-88270421D01*
X155213027Y-88279617D01*
X155216471Y-88283356D01*
X155232583Y-88302362D01*
X155235444Y-88306005D01*
X155242406Y-88315587D01*
X155242407Y-88315588D01*
X155242408Y-88315589D01*
X155252204Y-88323693D01*
X155255038Y-88326187D01*
X155302962Y-88371019D01*
X155314035Y-88380625D01*
X158767194Y-91833784D01*
X158777019Y-91846048D01*
X158777240Y-91845866D01*
X158782210Y-91851874D01*
X158831949Y-91898582D01*
X158833316Y-91899906D01*
X158853530Y-91920120D01*
X158859004Y-91924366D01*
X158863442Y-91928156D01*
X158897418Y-91960062D01*
X158905176Y-91964327D01*
X158914973Y-91969713D01*
X158931231Y-91980392D01*
X158947064Y-91992674D01*
X158969015Y-92002172D01*
X158989837Y-92011183D01*
X158995081Y-92013752D01*
X159035908Y-92036197D01*
X159055312Y-92041179D01*
X159073710Y-92047478D01*
X159092105Y-92055438D01*
X159138129Y-92062726D01*
X159143832Y-92063907D01*
X159188981Y-92075500D01*
X159209016Y-92075500D01*
X159228413Y-92077026D01*
X159248196Y-92080160D01*
X159294583Y-92075775D01*
X159300422Y-92075500D01*
X163078659Y-92075500D01*
X163131828Y-92087478D01*
X163256742Y-92146766D01*
X163691560Y-92353145D01*
X163698583Y-92356478D01*
X163750707Y-92403006D01*
X163769401Y-92470329D01*
X163748729Y-92537071D01*
X163695256Y-92582042D01*
X163645414Y-92592500D01*
X158552452Y-92592500D01*
X158485413Y-92572815D01*
X158464771Y-92556181D01*
X154920052Y-89011462D01*
X151351261Y-85442670D01*
X151338672Y-85427940D01*
X150845534Y-84750059D01*
X150726225Y-84586054D01*
X150702706Y-84520262D01*
X150702499Y-84513108D01*
X150702499Y-84446129D01*
X150702498Y-84446123D01*
X150702318Y-84444452D01*
X150696091Y-84386517D01*
X150694810Y-84383083D01*
X150645797Y-84251671D01*
X150645793Y-84251664D01*
X150559547Y-84136455D01*
X150559544Y-84136452D01*
X150444335Y-84050206D01*
X150444328Y-84050202D01*
X150309482Y-83999908D01*
X150309483Y-83999908D01*
X150249883Y-83993501D01*
X150249881Y-83993500D01*
X150249873Y-83993500D01*
X150249864Y-83993500D01*
X148454129Y-83993500D01*
X148454123Y-83993501D01*
X148394516Y-83999908D01*
X148259671Y-84050202D01*
X148259664Y-84050206D01*
X148144455Y-84136452D01*
X148144452Y-84136455D01*
X148058206Y-84251664D01*
X148058203Y-84251669D01*
X148009189Y-84383083D01*
X147967317Y-84439016D01*
X147901853Y-84463433D01*
X147833580Y-84448581D01*
X147805326Y-84427430D01*
X147683402Y-84305506D01*
X147683395Y-84305501D01*
X147677682Y-84301501D01*
X147606518Y-84251671D01*
X147489834Y-84169967D01*
X147489830Y-84169965D01*
X147489830Y-84169964D01*
X147275663Y-84070097D01*
X147275659Y-84070096D01*
X147275655Y-84070094D01*
X147047413Y-84008938D01*
X147047403Y-84008936D01*
X146812001Y-83988341D01*
X146811999Y-83988341D01*
X146576596Y-84008936D01*
X146576586Y-84008938D01*
X146348344Y-84070094D01*
X146348335Y-84070098D01*
X146134171Y-84169964D01*
X146134169Y-84169965D01*
X145940597Y-84305505D01*
X145773505Y-84472597D01*
X145637965Y-84666169D01*
X145637964Y-84666171D01*
X145538098Y-84880335D01*
X145538094Y-84880344D01*
X145476938Y-85108586D01*
X145476936Y-85108596D01*
X145456341Y-85343999D01*
X145456341Y-85344000D01*
X145476936Y-85579403D01*
X145476938Y-85579413D01*
X145538094Y-85807655D01*
X145538096Y-85807659D01*
X145538097Y-85807663D01*
X145621095Y-85985652D01*
X145637965Y-86021830D01*
X145637967Y-86021834D01*
X145773501Y-86215395D01*
X145773506Y-86215402D01*
X145940597Y-86382493D01*
X145940603Y-86382498D01*
X146126158Y-86512425D01*
X146169783Y-86567002D01*
X146176977Y-86636500D01*
X146145454Y-86698855D01*
X146126158Y-86715575D01*
X145940597Y-86845505D01*
X145773505Y-87012597D01*
X145637965Y-87206169D01*
X145637964Y-87206171D01*
X145538098Y-87420335D01*
X145538094Y-87420344D01*
X145476938Y-87648586D01*
X145476936Y-87648596D01*
X145456341Y-87883999D01*
X145456341Y-87884000D01*
X145476936Y-88119403D01*
X145476938Y-88119413D01*
X145538094Y-88347655D01*
X145538096Y-88347659D01*
X145538097Y-88347663D01*
X145628208Y-88540906D01*
X145637965Y-88561830D01*
X145637967Y-88561834D01*
X145728875Y-88691663D01*
X145773501Y-88755396D01*
X145773506Y-88755402D01*
X145940597Y-88922493D01*
X145940603Y-88922498D01*
X146126158Y-89052425D01*
X146169783Y-89107002D01*
X146176977Y-89176500D01*
X146145454Y-89238855D01*
X146126158Y-89255575D01*
X145940597Y-89385505D01*
X145773505Y-89552597D01*
X145637965Y-89746169D01*
X145637964Y-89746171D01*
X145538098Y-89960335D01*
X145538094Y-89960344D01*
X145476938Y-90188586D01*
X145476936Y-90188596D01*
X145456341Y-90423999D01*
X145456341Y-90424000D01*
X145476936Y-90659403D01*
X145476938Y-90659413D01*
X145538094Y-90887655D01*
X145538096Y-90887659D01*
X145538097Y-90887663D01*
X145618004Y-91059023D01*
X145637965Y-91101830D01*
X145637967Y-91101834D01*
X145739684Y-91247100D01*
X145773501Y-91295396D01*
X145773506Y-91295402D01*
X145940597Y-91462493D01*
X145940603Y-91462498D01*
X146126158Y-91592425D01*
X146169783Y-91647002D01*
X146176977Y-91716500D01*
X146145454Y-91778855D01*
X146126158Y-91795575D01*
X145940597Y-91925505D01*
X145773505Y-92092597D01*
X145637965Y-92286169D01*
X145637964Y-92286171D01*
X145544401Y-92486816D01*
X145538825Y-92498777D01*
X145538098Y-92500335D01*
X145538094Y-92500344D01*
X145476938Y-92728586D01*
X145476936Y-92728596D01*
X145456341Y-92963999D01*
X145456341Y-92964000D01*
X145476936Y-93199403D01*
X145476938Y-93199413D01*
X145538094Y-93427655D01*
X145538096Y-93427659D01*
X145538097Y-93427663D01*
X145624836Y-93613675D01*
X145637965Y-93641830D01*
X145637967Y-93641834D01*
X145723014Y-93763293D01*
X145773501Y-93835396D01*
X145773506Y-93835402D01*
X145940597Y-94002493D01*
X145940603Y-94002498D01*
X145971218Y-94023935D01*
X146103523Y-94116576D01*
X146126594Y-94132730D01*
X146170219Y-94187307D01*
X146177413Y-94256805D01*
X146145890Y-94319160D01*
X146126595Y-94335880D01*
X145940922Y-94465890D01*
X145940920Y-94465891D01*
X145773891Y-94632920D01*
X145773886Y-94632926D01*
X145638400Y-94826420D01*
X145638399Y-94826422D01*
X145538570Y-95040507D01*
X145538567Y-95040513D01*
X145481364Y-95253999D01*
X145481364Y-95254000D01*
X146378314Y-95254000D01*
X146352507Y-95294156D01*
X146312000Y-95432111D01*
X146312000Y-95575889D01*
X146352507Y-95713844D01*
X146378314Y-95754000D01*
X145481364Y-95754000D01*
X145538567Y-95967486D01*
X145538570Y-95967492D01*
X145638399Y-96181578D01*
X145773894Y-96375082D01*
X145940917Y-96542105D01*
X146126595Y-96672119D01*
X146170219Y-96726696D01*
X146177412Y-96796195D01*
X146145890Y-96858549D01*
X146126595Y-96875269D01*
X145940594Y-97005508D01*
X145773505Y-97172597D01*
X145637965Y-97366169D01*
X145637964Y-97366171D01*
X145538098Y-97580335D01*
X145538094Y-97580344D01*
X145476938Y-97808586D01*
X145476936Y-97808596D01*
X145456341Y-98043999D01*
X145456341Y-98044000D01*
X145476936Y-98279403D01*
X145476938Y-98279413D01*
X145538094Y-98507655D01*
X145538096Y-98507659D01*
X145538097Y-98507663D01*
X145632827Y-98710812D01*
X145637965Y-98721830D01*
X145637967Y-98721834D01*
X145732030Y-98856169D01*
X145773505Y-98915401D01*
X145940599Y-99082495D01*
X146036305Y-99149509D01*
X146134165Y-99218032D01*
X146134167Y-99218033D01*
X146134170Y-99218035D01*
X146348337Y-99317903D01*
X146576592Y-99379063D01*
X146737821Y-99393169D01*
X146811999Y-99399659D01*
X146812000Y-99399659D01*
X146812001Y-99399659D01*
X146886156Y-99393171D01*
X147047408Y-99379063D01*
X147275663Y-99317903D01*
X147275663Y-99317902D01*
X147280899Y-99316500D01*
X147280911Y-99316547D01*
X147291178Y-99313629D01*
X148056803Y-99154738D01*
X148107195Y-99154738D01*
X148806693Y-99299906D01*
X148849529Y-99317649D01*
X149847767Y-99972764D01*
X149889714Y-100000292D01*
X149909360Y-100016280D01*
X150666987Y-100773907D01*
X150668052Y-100774998D01*
X150703252Y-100812028D01*
X150728940Y-100839052D01*
X150728947Y-100839058D01*
X150753488Y-100856138D01*
X150779303Y-100874106D01*
X150783044Y-100876926D01*
X150830593Y-100915698D01*
X150861045Y-100931604D01*
X150867756Y-100935671D01*
X150877426Y-100942401D01*
X150895951Y-100955295D01*
X150952329Y-100979489D01*
X150956578Y-100981507D01*
X151010951Y-101009909D01*
X151038489Y-101017788D01*
X151043974Y-101019358D01*
X151051368Y-101021990D01*
X151082942Y-101035540D01*
X151082945Y-101035540D01*
X151082946Y-101035541D01*
X151143022Y-101047887D01*
X151147600Y-101049010D01*
X151149704Y-101049612D01*
X151206582Y-101065887D01*
X151240839Y-101068495D01*
X151248614Y-101069586D01*
X151282255Y-101076500D01*
X151282259Y-101076500D01*
X151343598Y-101076500D01*
X151348304Y-101076678D01*
X151375595Y-101078757D01*
X151409475Y-101081337D01*
X151409475Y-101081336D01*
X151409476Y-101081337D01*
X151443559Y-101076996D01*
X151451389Y-101076500D01*
X158872007Y-101076500D01*
X158873569Y-101076519D01*
X158910783Y-101077462D01*
X158961858Y-101078757D01*
X158961858Y-101078756D01*
X158961863Y-101078757D01*
X159022253Y-101067932D01*
X159026912Y-101067280D01*
X159069107Y-101062988D01*
X159087938Y-101061074D01*
X159120727Y-101050786D01*
X159128340Y-101048918D01*
X159162153Y-101042858D01*
X159219121Y-101020101D01*
X159223553Y-101018524D01*
X159282088Y-101000159D01*
X159312127Y-100983484D01*
X159319208Y-100980122D01*
X159351117Y-100967377D01*
X159402354Y-100933608D01*
X159406351Y-100931187D01*
X159460002Y-100901409D01*
X159486068Y-100879030D01*
X159492343Y-100874300D01*
X159519902Y-100856138D01*
X159521019Y-100855402D01*
X159564392Y-100812027D01*
X159567850Y-100808823D01*
X159588688Y-100790934D01*
X159614395Y-100768866D01*
X159635428Y-100741691D01*
X159640598Y-100735821D01*
X160244597Y-100131822D01*
X160305918Y-100098339D01*
X160375610Y-100103323D01*
X160419954Y-100131822D01*
X161016316Y-100728184D01*
X161611770Y-101323638D01*
X161623551Y-101337270D01*
X161637888Y-101356528D01*
X161677909Y-101390111D01*
X161681897Y-101393766D01*
X161687717Y-101399586D01*
X161687722Y-101399590D01*
X161687723Y-101399591D01*
X161712763Y-101419390D01*
X161714144Y-101420515D01*
X161716984Y-101422898D01*
X161772286Y-101469302D01*
X161772287Y-101469302D01*
X161772289Y-101469304D01*
X161778318Y-101473270D01*
X161778285Y-101473319D01*
X161784647Y-101477372D01*
X161784679Y-101477321D01*
X161790820Y-101481108D01*
X161790823Y-101481111D01*
X161790826Y-101481112D01*
X161790827Y-101481113D01*
X161811210Y-101490618D01*
X161863650Y-101536790D01*
X161882802Y-101603983D01*
X161862586Y-101670865D01*
X161809421Y-101716199D01*
X161758806Y-101727000D01*
X142872000Y-101727000D01*
X142804961Y-101707315D01*
X142759206Y-101654511D01*
X142748000Y-101603000D01*
X142748000Y-81785000D01*
X142767685Y-81717961D01*
X142820489Y-81672206D01*
X142872000Y-81661000D01*
X218824000Y-81661000D01*
X218891039Y-81680685D01*
G37*
%TD.AperFunction*%
%TA.AperFunction,Conductor*%
G36*
X165364587Y-96149185D02*
G01*
X165385229Y-96165819D01*
X166625561Y-97406151D01*
X166659046Y-97467474D01*
X166654062Y-97537166D01*
X166649902Y-97547001D01*
X166210726Y-98472298D01*
X166164198Y-98524422D01*
X166096875Y-98543116D01*
X166030133Y-98522444D01*
X165986322Y-98471533D01*
X165961135Y-98417520D01*
X165961134Y-98417518D01*
X165830657Y-98231179D01*
X165669820Y-98070342D01*
X165483482Y-97939865D01*
X165277328Y-97843734D01*
X165081000Y-97791127D01*
X165081000Y-98754313D01*
X165069045Y-98742359D01*
X164956148Y-98684835D01*
X164862481Y-98670000D01*
X164799519Y-98670000D01*
X164705852Y-98684835D01*
X164592955Y-98742359D01*
X164581000Y-98754314D01*
X164581000Y-97791127D01*
X164384671Y-97843734D01*
X164178517Y-97939865D01*
X163992179Y-98070342D01*
X163831342Y-98231179D01*
X163700865Y-98417517D01*
X163604734Y-98623673D01*
X163604730Y-98623682D01*
X163552127Y-98819999D01*
X163552128Y-98820000D01*
X164515314Y-98820000D01*
X164503359Y-98831955D01*
X164445835Y-98944852D01*
X164426014Y-99070000D01*
X164445835Y-99195148D01*
X164503359Y-99308045D01*
X164515314Y-99320000D01*
X163552128Y-99320000D01*
X163604730Y-99516317D01*
X163604734Y-99516326D01*
X163700865Y-99722482D01*
X163819828Y-99892376D01*
X163842155Y-99958582D01*
X163825145Y-100026349D01*
X163774197Y-100074163D01*
X163718253Y-100087500D01*
X162549730Y-100087500D01*
X162482691Y-100067815D01*
X162462049Y-100051181D01*
X161315733Y-98904865D01*
X161282248Y-98843542D01*
X161281953Y-98792221D01*
X161284651Y-98779093D01*
X161284651Y-98717747D01*
X161284830Y-98713041D01*
X161284998Y-98710830D01*
X161285415Y-98705352D01*
X161297065Y-98661533D01*
X161367829Y-98512666D01*
X161405509Y-98466636D01*
X161441697Y-98439546D01*
X161527947Y-98324331D01*
X161578242Y-98189483D01*
X161584651Y-98129873D01*
X161584650Y-96434128D01*
X161578242Y-96374517D01*
X161572945Y-96360316D01*
X161549268Y-96296833D01*
X161544284Y-96227141D01*
X161577769Y-96165818D01*
X161639092Y-96132334D01*
X161665450Y-96129500D01*
X165297548Y-96129500D01*
X165364587Y-96149185D01*
G37*
%TD.AperFunction*%
%TA.AperFunction,Conductor*%
G36*
X197534192Y-88283033D02*
G01*
X197993149Y-88528101D01*
X197998393Y-88530797D01*
X198009448Y-88536481D01*
X198013650Y-88538852D01*
X198016979Y-88540905D01*
X198016984Y-88540908D01*
X198180747Y-88595174D01*
X198281823Y-88605500D01*
X198880176Y-88605499D01*
X198880184Y-88605498D01*
X198880187Y-88605498D01*
X198935530Y-88599844D01*
X198981253Y-88595174D01*
X199145016Y-88540908D01*
X199291850Y-88450340D01*
X199405818Y-88336370D01*
X199467142Y-88302886D01*
X199536834Y-88307870D01*
X199581181Y-88336371D01*
X199695150Y-88450340D01*
X199841984Y-88540908D01*
X200005747Y-88595174D01*
X200106823Y-88605500D01*
X200689215Y-88605499D01*
X200756254Y-88625183D01*
X200757192Y-88626266D01*
X200801365Y-88596794D01*
X200922908Y-88556518D01*
X200970016Y-88540908D01*
X200979279Y-88535193D01*
X200986604Y-88531326D01*
X200993826Y-88528109D01*
X200993849Y-88528101D01*
X201340094Y-88343217D01*
X201408500Y-88329005D01*
X201456905Y-88343218D01*
X201466469Y-88348325D01*
X201803149Y-88528101D01*
X201808393Y-88530797D01*
X201819448Y-88536481D01*
X201823650Y-88538852D01*
X201826979Y-88540905D01*
X201826984Y-88540908D01*
X201990747Y-88595174D01*
X201990748Y-88595174D01*
X201995637Y-88596794D01*
X202053082Y-88636567D01*
X202079905Y-88701082D01*
X202067590Y-88769858D01*
X202020047Y-88821058D01*
X201956633Y-88838500D01*
X201926000Y-88838500D01*
X201926000Y-89388500D01*
X203148295Y-89388500D01*
X203148295Y-89388498D01*
X203148100Y-89386013D01*
X203102281Y-89228301D01*
X203018685Y-89086947D01*
X203018678Y-89086938D01*
X202902561Y-88970821D01*
X202902552Y-88970814D01*
X202761196Y-88887217D01*
X202761193Y-88887216D01*
X202628189Y-88848575D01*
X202569304Y-88810969D01*
X202540097Y-88747497D01*
X202549843Y-88678310D01*
X202595447Y-88625376D01*
X202662430Y-88605500D01*
X202662767Y-88605499D01*
X202690176Y-88605499D01*
X202690184Y-88605498D01*
X202690187Y-88605498D01*
X202745530Y-88599844D01*
X202791253Y-88595174D01*
X202955016Y-88540908D01*
X203101850Y-88450340D01*
X203203867Y-88348322D01*
X203265186Y-88314840D01*
X203334878Y-88319824D01*
X203390812Y-88361695D01*
X203400008Y-88375908D01*
X203574962Y-88691663D01*
X203590499Y-88751761D01*
X203590500Y-89351546D01*
X203570816Y-89418585D01*
X203554181Y-89439227D01*
X203141227Y-89852181D01*
X203079904Y-89885666D01*
X203053546Y-89888500D01*
X200203705Y-89888500D01*
X200203704Y-89888501D01*
X200203899Y-89890986D01*
X200249718Y-90048698D01*
X200333314Y-90190052D01*
X200338100Y-90196222D01*
X200335640Y-90198129D01*
X200362210Y-90246788D01*
X200357226Y-90316480D01*
X200336162Y-90349281D01*
X200337699Y-90350474D01*
X200332915Y-90356640D01*
X200249255Y-90498103D01*
X200249254Y-90498106D01*
X200203402Y-90655926D01*
X200203401Y-90655932D01*
X200200500Y-90692798D01*
X200200500Y-91124201D01*
X200203401Y-91161067D01*
X200203402Y-91161073D01*
X200249254Y-91318893D01*
X200249255Y-91318896D01*
X200249256Y-91318898D01*
X200273359Y-91359655D01*
X200330739Y-91456680D01*
X200332919Y-91460365D01*
X200332921Y-91460367D01*
X200337699Y-91466526D01*
X200335262Y-91468415D01*
X200361871Y-91517204D01*
X200356850Y-91586893D01*
X200336077Y-91619216D01*
X200337699Y-91620474D01*
X200332915Y-91626640D01*
X200249255Y-91768103D01*
X200249254Y-91768106D01*
X200203402Y-91925926D01*
X200203401Y-91925932D01*
X200200500Y-91962798D01*
X200200500Y-92394201D01*
X200203401Y-92431067D01*
X200203402Y-92431073D01*
X200249254Y-92588893D01*
X200249255Y-92588896D01*
X200249256Y-92588898D01*
X200261963Y-92610385D01*
X200332799Y-92730163D01*
X200332919Y-92730365D01*
X200332921Y-92730367D01*
X200337699Y-92736526D01*
X200335262Y-92738415D01*
X200361871Y-92787204D01*
X200356850Y-92856893D01*
X200336077Y-92889216D01*
X200337699Y-92890474D01*
X200332915Y-92896640D01*
X200249255Y-93038103D01*
X200249254Y-93038106D01*
X200203402Y-93195926D01*
X200203401Y-93195932D01*
X200200500Y-93232798D01*
X200200500Y-93664201D01*
X200203401Y-93701067D01*
X200203402Y-93701073D01*
X200249254Y-93858893D01*
X200249255Y-93858896D01*
X200249256Y-93858898D01*
X200284969Y-93919286D01*
X200332917Y-94000362D01*
X200332923Y-94000370D01*
X200449129Y-94116576D01*
X200449133Y-94116579D01*
X200449135Y-94116581D01*
X200590602Y-94200244D01*
X200658197Y-94219882D01*
X200717080Y-94257486D01*
X200746287Y-94320958D01*
X200747600Y-94338957D01*
X200747600Y-94866608D01*
X200727915Y-94933647D01*
X200688699Y-94972145D01*
X200662252Y-94988457D01*
X200540261Y-95110448D01*
X200449693Y-95257281D01*
X200449691Y-95257286D01*
X200438745Y-95290319D01*
X200395426Y-95421047D01*
X200395426Y-95421048D01*
X200395425Y-95421048D01*
X200385100Y-95522115D01*
X200385100Y-95860845D01*
X200365415Y-95927884D01*
X200348781Y-95948526D01*
X199514208Y-96783099D01*
X199501951Y-96792920D01*
X199502134Y-96793141D01*
X199496122Y-96798114D01*
X199449432Y-96847832D01*
X199448079Y-96849229D01*
X199427889Y-96869419D01*
X199427877Y-96869432D01*
X199423621Y-96874917D01*
X199419837Y-96879347D01*
X199387937Y-96913318D01*
X199387936Y-96913320D01*
X199378284Y-96930876D01*
X199367610Y-96947126D01*
X199355329Y-96962961D01*
X199355324Y-96962968D01*
X199336815Y-97005738D01*
X199334245Y-97010984D01*
X199311803Y-97051806D01*
X199306822Y-97071207D01*
X199300521Y-97089610D01*
X199292562Y-97108002D01*
X199292561Y-97108005D01*
X199285271Y-97154027D01*
X199284087Y-97159746D01*
X199272501Y-97204872D01*
X199272499Y-97204884D01*
X199272499Y-97224920D01*
X199270973Y-97244311D01*
X199266620Y-97271799D01*
X199263646Y-97271328D01*
X199246220Y-97324365D01*
X199209198Y-97359569D01*
X199199655Y-97365456D01*
X199199649Y-97365460D01*
X199077661Y-97487448D01*
X198987093Y-97634281D01*
X198987091Y-97634286D01*
X198963874Y-97704352D01*
X198932826Y-97798047D01*
X198932826Y-97798048D01*
X198932825Y-97798048D01*
X198922500Y-97899115D01*
X198922500Y-98497469D01*
X198922501Y-98497487D01*
X198932825Y-98598552D01*
X198956501Y-98670000D01*
X198979215Y-98738546D01*
X198987092Y-98762315D01*
X198987093Y-98762318D01*
X199007282Y-98795049D01*
X199077658Y-98909147D01*
X199077661Y-98909151D01*
X199191629Y-99023119D01*
X199225114Y-99084442D01*
X199220130Y-99154134D01*
X199191629Y-99198481D01*
X199077661Y-99312448D01*
X199074295Y-99317905D01*
X199032814Y-99385158D01*
X199031926Y-99386597D01*
X198979978Y-99433322D01*
X198926387Y-99445500D01*
X198245542Y-99445500D01*
X198178503Y-99425815D01*
X198164285Y-99415166D01*
X197915798Y-99199599D01*
X197795519Y-99095255D01*
X197783624Y-99085657D01*
X197743813Y-99028240D01*
X197741363Y-98958414D01*
X197777053Y-98898347D01*
X197818157Y-98872974D01*
X197947331Y-98824796D01*
X198062546Y-98738546D01*
X198148796Y-98623331D01*
X198199091Y-98488483D01*
X198205500Y-98428873D01*
X198205499Y-96633128D01*
X198199091Y-96573517D01*
X198197810Y-96570083D01*
X198148797Y-96438671D01*
X198148793Y-96438664D01*
X198062547Y-96323455D01*
X198062544Y-96323452D01*
X197947335Y-96237206D01*
X197947328Y-96237202D01*
X197812482Y-96186908D01*
X197812483Y-96186908D01*
X197752883Y-96180501D01*
X197752881Y-96180500D01*
X197752873Y-96180500D01*
X197752865Y-96180500D01*
X196997705Y-96180500D01*
X196930666Y-96160815D01*
X196884911Y-96108011D01*
X196874967Y-96038853D01*
X196903992Y-95975297D01*
X196958702Y-95938794D01*
X197056298Y-95906454D01*
X197056311Y-95906448D01*
X197203034Y-95815947D01*
X197203038Y-95815944D01*
X197324944Y-95694038D01*
X197324947Y-95694034D01*
X197415448Y-95547311D01*
X197415453Y-95547300D01*
X197469680Y-95383652D01*
X197479999Y-95282654D01*
X197480000Y-95282641D01*
X197480000Y-95246000D01*
X196316500Y-95246000D01*
X196249461Y-95226315D01*
X196203706Y-95173511D01*
X196192500Y-95122000D01*
X196192500Y-94870000D01*
X196212185Y-94802961D01*
X196264989Y-94757206D01*
X196316500Y-94746000D01*
X197479999Y-94746000D01*
X197479999Y-94709360D01*
X197479998Y-94709345D01*
X197469680Y-94608347D01*
X197415453Y-94444699D01*
X197415448Y-94444689D01*
X197411384Y-94438100D01*
X197392941Y-94370709D01*
X197413861Y-94304044D01*
X197467502Y-94259273D01*
X197516920Y-94249000D01*
X197616686Y-94249000D01*
X197616694Y-94249000D01*
X197653569Y-94246098D01*
X197653571Y-94246097D01*
X197653573Y-94246097D01*
X197708978Y-94230000D01*
X197811398Y-94200244D01*
X197952865Y-94116581D01*
X198069081Y-94000365D01*
X198152744Y-93858898D01*
X198198598Y-93701069D01*
X198201500Y-93664194D01*
X198201500Y-93232806D01*
X198198598Y-93195931D01*
X198194322Y-93181214D01*
X198152745Y-93038106D01*
X198152744Y-93038103D01*
X198152744Y-93038102D01*
X198069081Y-92896635D01*
X198069078Y-92896632D01*
X198064298Y-92890469D01*
X198066750Y-92888566D01*
X198040155Y-92839921D01*
X198045104Y-92770226D01*
X198065940Y-92737804D01*
X198064298Y-92736531D01*
X198069075Y-92730370D01*
X198069081Y-92730365D01*
X198152744Y-92588898D01*
X198198598Y-92431069D01*
X198201500Y-92394194D01*
X198201500Y-91962806D01*
X198198598Y-91925931D01*
X198198572Y-91925842D01*
X198152745Y-91768106D01*
X198152744Y-91768103D01*
X198152744Y-91768102D01*
X198069081Y-91626635D01*
X198069078Y-91626632D01*
X198064298Y-91620469D01*
X198066750Y-91618566D01*
X198040155Y-91569921D01*
X198045104Y-91500226D01*
X198065940Y-91467804D01*
X198064298Y-91466531D01*
X198069075Y-91460370D01*
X198069081Y-91460365D01*
X198152744Y-91318898D01*
X198188096Y-91197218D01*
X198198597Y-91161073D01*
X198198598Y-91161067D01*
X198201500Y-91124194D01*
X198201500Y-90692806D01*
X198198598Y-90655931D01*
X198188060Y-90619661D01*
X198161748Y-90529093D01*
X198152744Y-90498102D01*
X198069081Y-90356635D01*
X198069078Y-90356632D01*
X198064298Y-90350469D01*
X198066750Y-90348566D01*
X198040155Y-90299921D01*
X198045104Y-90230226D01*
X198065940Y-90197804D01*
X198064298Y-90196531D01*
X198069075Y-90190370D01*
X198069081Y-90190365D01*
X198152744Y-90048898D01*
X198198598Y-89891069D01*
X198201500Y-89854194D01*
X198201500Y-89422806D01*
X198198800Y-89388498D01*
X200203704Y-89388498D01*
X200203705Y-89388500D01*
X201426000Y-89388500D01*
X201426000Y-88838500D01*
X200840369Y-88838500D01*
X200773330Y-88818815D01*
X200772247Y-88817565D01*
X200724150Y-88848476D01*
X200723810Y-88848575D01*
X200590806Y-88887216D01*
X200590803Y-88887217D01*
X200449447Y-88970814D01*
X200449438Y-88970821D01*
X200333321Y-89086938D01*
X200333314Y-89086947D01*
X200249718Y-89228301D01*
X200203899Y-89386013D01*
X200203704Y-89388498D01*
X198198800Y-89388498D01*
X198198598Y-89385931D01*
X198198474Y-89385505D01*
X198161042Y-89256664D01*
X198152744Y-89228102D01*
X198069081Y-89086635D01*
X198069079Y-89086633D01*
X198069076Y-89086629D01*
X197952870Y-88970423D01*
X197952862Y-88970417D01*
X197840556Y-88904000D01*
X197811398Y-88886756D01*
X197811397Y-88886755D01*
X197811396Y-88886755D01*
X197811393Y-88886754D01*
X197653573Y-88840902D01*
X197653567Y-88840901D01*
X197616701Y-88838000D01*
X197616694Y-88838000D01*
X197475500Y-88838000D01*
X197408461Y-88818315D01*
X197362706Y-88765511D01*
X197351500Y-88714001D01*
X197351499Y-88477745D01*
X197353224Y-88462128D01*
X197352937Y-88462101D01*
X197353670Y-88454340D01*
X197353672Y-88454332D01*
X197351849Y-88396310D01*
X197369419Y-88328686D01*
X197420760Y-88281296D01*
X197489572Y-88269186D01*
X197534192Y-88283033D01*
G37*
%TD.AperFunction*%
%TA.AperFunction,Conductor*%
G36*
X150773086Y-95273685D02*
G01*
X150793728Y-95290319D01*
X151391197Y-95887788D01*
X151401022Y-95900051D01*
X151401243Y-95899869D01*
X151406211Y-95905874D01*
X151406213Y-95905876D01*
X151406214Y-95905877D01*
X151426255Y-95924697D01*
X151455932Y-95952566D01*
X151457332Y-95953923D01*
X151477523Y-95974115D01*
X151477527Y-95974118D01*
X151477529Y-95974120D01*
X151483011Y-95978373D01*
X151487443Y-95982157D01*
X151521418Y-96014062D01*
X151538976Y-96023714D01*
X151555235Y-96034395D01*
X151571064Y-96046673D01*
X151613838Y-96065182D01*
X151619056Y-96067738D01*
X151659908Y-96090197D01*
X151679316Y-96095180D01*
X151697717Y-96101480D01*
X151716104Y-96109437D01*
X151757933Y-96116062D01*
X151762119Y-96116725D01*
X151767839Y-96117909D01*
X151812981Y-96129500D01*
X151833016Y-96129500D01*
X151852414Y-96131026D01*
X151872194Y-96134159D01*
X151872195Y-96134160D01*
X151872195Y-96134159D01*
X151872196Y-96134160D01*
X151918583Y-96129775D01*
X151924422Y-96129500D01*
X155933843Y-96129500D01*
X156000882Y-96149185D01*
X156021524Y-96165819D01*
X156739749Y-96884046D01*
X156659003Y-96896835D01*
X156546106Y-96954359D01*
X156456510Y-97043955D01*
X156398986Y-97156852D01*
X156386197Y-97237599D01*
X155705124Y-96556526D01*
X155705123Y-96556527D01*
X155654019Y-96629513D01*
X155557885Y-96835673D01*
X155557881Y-96835682D01*
X155499011Y-97055389D01*
X155499009Y-97055400D01*
X155479185Y-97281997D01*
X155479185Y-97282002D01*
X155499009Y-97508599D01*
X155499011Y-97508610D01*
X155557881Y-97728317D01*
X155557885Y-97728326D01*
X155654016Y-97934481D01*
X155654017Y-97934483D01*
X155705124Y-98007471D01*
X155705125Y-98007472D01*
X156386197Y-97326399D01*
X156398986Y-97407148D01*
X156456510Y-97520045D01*
X156546106Y-97609641D01*
X156659003Y-97667165D01*
X156739750Y-97679953D01*
X156058677Y-98361025D01*
X156058677Y-98361026D01*
X156131663Y-98412131D01*
X156131667Y-98412133D01*
X156337824Y-98508265D01*
X156337833Y-98508269D01*
X156557540Y-98567139D01*
X156557551Y-98567141D01*
X156784149Y-98586966D01*
X156784153Y-98586966D01*
X157010750Y-98567141D01*
X157010761Y-98567139D01*
X157230468Y-98508269D01*
X157230482Y-98508264D01*
X157436629Y-98412136D01*
X157509623Y-98361025D01*
X156828552Y-97679953D01*
X156909299Y-97667165D01*
X157022196Y-97609641D01*
X157111792Y-97520045D01*
X157169316Y-97407148D01*
X157182104Y-97326400D01*
X157863176Y-98007472D01*
X157914287Y-97934478D01*
X158010415Y-97728331D01*
X158010420Y-97728317D01*
X158069290Y-97508610D01*
X158069292Y-97508599D01*
X158089117Y-97282002D01*
X158089117Y-97281997D01*
X158069292Y-97055400D01*
X158069290Y-97055389D01*
X158010420Y-96835682D01*
X158010416Y-96835673D01*
X157914284Y-96629516D01*
X157914282Y-96629512D01*
X157863177Y-96556526D01*
X157863176Y-96556526D01*
X157182104Y-97237598D01*
X157169316Y-97156852D01*
X157111792Y-97043955D01*
X157022196Y-96954359D01*
X156909299Y-96896835D01*
X156828550Y-96884045D01*
X157546778Y-96165819D01*
X157608101Y-96132334D01*
X157634459Y-96129500D01*
X158902852Y-96129500D01*
X158969891Y-96149185D01*
X159015646Y-96201989D01*
X159025590Y-96271147D01*
X159019034Y-96296833D01*
X158990059Y-96374517D01*
X158984240Y-96428649D01*
X158983652Y-96434123D01*
X158983651Y-96434135D01*
X158983651Y-98057865D01*
X158982758Y-98069137D01*
X158982687Y-98073723D01*
X158983149Y-98077329D01*
X158983651Y-98085205D01*
X158983651Y-98129868D01*
X158983652Y-98129875D01*
X158990059Y-98189481D01*
X159003188Y-98224684D01*
X159003875Y-98226626D01*
X159020563Y-98276361D01*
X159020566Y-98276367D01*
X159020986Y-98277101D01*
X159029553Y-98295371D01*
X159040354Y-98324330D01*
X159040357Y-98324335D01*
X159053834Y-98342338D01*
X159078251Y-98407802D01*
X159063399Y-98476075D01*
X159042248Y-98504329D01*
X158507399Y-99039181D01*
X158446076Y-99072666D01*
X158419718Y-99075500D01*
X151849783Y-99075500D01*
X151782744Y-99055815D01*
X151762102Y-99039181D01*
X151324280Y-98601359D01*
X151308292Y-98581713D01*
X151300272Y-98569493D01*
X150855092Y-97891145D01*
X150568923Y-97455091D01*
X150560210Y-97439460D01*
X150526035Y-97366171D01*
X150459955Y-97271799D01*
X150390494Y-97172597D01*
X150223402Y-97005506D01*
X150223401Y-97005505D01*
X150037405Y-96875269D01*
X149993781Y-96820692D01*
X149986588Y-96751193D01*
X150018110Y-96688839D01*
X150037405Y-96672119D01*
X150223082Y-96542105D01*
X150390105Y-96375082D01*
X150525600Y-96181578D01*
X150625429Y-95967492D01*
X150625432Y-95967486D01*
X150682636Y-95754000D01*
X149785686Y-95754000D01*
X149811493Y-95713844D01*
X149852000Y-95575889D01*
X149852000Y-95432111D01*
X149811493Y-95294156D01*
X149785686Y-95254000D01*
X150706047Y-95254000D01*
X150773086Y-95273685D01*
G37*
%TD.AperFunction*%
%TA.AperFunction,Conductor*%
G36*
X178868865Y-91993348D02*
G01*
X178913381Y-92044724D01*
X178920068Y-92059063D01*
X178940429Y-92102728D01*
X178940432Y-92102734D01*
X179070954Y-92289141D01*
X179231858Y-92450045D01*
X179231861Y-92450047D01*
X179418266Y-92580568D01*
X179624504Y-92676739D01*
X179624509Y-92676740D01*
X179624511Y-92676741D01*
X179658264Y-92685785D01*
X179844308Y-92735635D01*
X179984315Y-92747884D01*
X180070998Y-92755468D01*
X180071000Y-92755468D01*
X180071001Y-92755468D01*
X180081401Y-92754557D01*
X180132684Y-92750071D01*
X180201183Y-92763837D01*
X180251366Y-92812452D01*
X180267300Y-92880481D01*
X180243925Y-92946324D01*
X180237207Y-92954798D01*
X180235625Y-92956622D01*
X180235622Y-92956628D01*
X180175834Y-93087543D01*
X180155353Y-93230001D01*
X180155353Y-94730002D01*
X180160499Y-94801960D01*
X180160500Y-94801962D01*
X180167033Y-94824210D01*
X180175711Y-94853767D01*
X180180977Y-94871699D01*
X180186000Y-94906634D01*
X180186000Y-95701989D01*
X180178929Y-95743264D01*
X180139993Y-95853567D01*
X180099116Y-95910231D01*
X180034093Y-95935801D01*
X179983900Y-95929945D01*
X179714044Y-95840116D01*
X179680249Y-95833081D01*
X179673378Y-95831234D01*
X179605755Y-95808826D01*
X179504678Y-95798500D01*
X178906330Y-95798500D01*
X178906312Y-95798501D01*
X178805247Y-95808825D01*
X178641484Y-95863092D01*
X178641481Y-95863093D01*
X178494651Y-95953659D01*
X178380327Y-96067983D01*
X178319004Y-96101467D01*
X178249312Y-96096483D01*
X178204965Y-96067982D01*
X178091038Y-95954055D01*
X178091034Y-95954052D01*
X177944311Y-95863551D01*
X177944300Y-95863546D01*
X177780652Y-95809319D01*
X177679654Y-95799000D01*
X177630500Y-95799000D01*
X177630500Y-97730000D01*
X177657000Y-97730000D01*
X177724039Y-97749685D01*
X177769794Y-97802489D01*
X177781000Y-97854000D01*
X177781000Y-98754314D01*
X177769045Y-98742359D01*
X177656148Y-98684835D01*
X177562481Y-98670000D01*
X177499519Y-98670000D01*
X177405852Y-98684835D01*
X177292955Y-98742359D01*
X177281000Y-98754313D01*
X177281000Y-97791127D01*
X177278804Y-97789442D01*
X177216744Y-97787965D01*
X177158881Y-97748803D01*
X177131377Y-97684575D01*
X177130500Y-97669853D01*
X177130500Y-97024000D01*
X176393001Y-97024000D01*
X176393001Y-97060654D01*
X176403319Y-97161652D01*
X176457546Y-97325300D01*
X176457551Y-97325311D01*
X176548052Y-97472034D01*
X176548055Y-97472038D01*
X176669961Y-97593944D01*
X176669965Y-97593947D01*
X176816688Y-97684448D01*
X176816701Y-97684454D01*
X176876750Y-97704352D01*
X176934195Y-97744124D01*
X176961019Y-97808640D01*
X176948704Y-97877416D01*
X176901162Y-97928616D01*
X176890156Y-97934438D01*
X176878520Y-97939864D01*
X176878518Y-97939865D01*
X176692179Y-98070342D01*
X176531342Y-98231179D01*
X176400867Y-98417515D01*
X176375676Y-98471537D01*
X176329503Y-98523976D01*
X176262309Y-98543127D01*
X176195428Y-98522911D01*
X176151272Y-98472300D01*
X176146131Y-98461469D01*
X175777551Y-97684907D01*
X175628478Y-97370825D01*
X175616500Y-97317656D01*
X175616500Y-96524000D01*
X176393000Y-96524000D01*
X177130500Y-96524000D01*
X177130500Y-95799000D01*
X177130499Y-95798999D01*
X177081361Y-95799000D01*
X177081343Y-95799001D01*
X176980347Y-95809319D01*
X176816699Y-95863546D01*
X176816688Y-95863551D01*
X176669965Y-95954052D01*
X176669961Y-95954055D01*
X176548055Y-96075961D01*
X176548052Y-96075965D01*
X176457551Y-96222688D01*
X176457546Y-96222699D01*
X176403319Y-96386347D01*
X176393000Y-96487345D01*
X176393000Y-96524000D01*
X175616500Y-96524000D01*
X175616500Y-95063742D01*
X175618224Y-95048122D01*
X175617939Y-95048095D01*
X175618673Y-95040333D01*
X175616531Y-94972139D01*
X175616500Y-94970192D01*
X175616500Y-94941656D01*
X175616500Y-94941650D01*
X175615631Y-94934779D01*
X175615173Y-94928952D01*
X175614472Y-94906634D01*
X175613710Y-94882373D01*
X175608119Y-94863130D01*
X175604173Y-94844078D01*
X175601664Y-94824208D01*
X175584504Y-94780867D01*
X175582624Y-94775379D01*
X175569618Y-94730610D01*
X175569553Y-94730500D01*
X175559419Y-94713364D01*
X175550858Y-94695888D01*
X175543487Y-94677270D01*
X175535894Y-94666819D01*
X175516090Y-94639560D01*
X175512892Y-94634691D01*
X175511848Y-94632926D01*
X175489171Y-94594580D01*
X175489169Y-94594578D01*
X175489166Y-94594574D01*
X175475005Y-94580413D01*
X175462370Y-94565620D01*
X175450593Y-94549412D01*
X175414693Y-94519713D01*
X175410381Y-94515790D01*
X173728802Y-92834211D01*
X173718980Y-92821950D01*
X173718759Y-92822134D01*
X173713786Y-92816122D01*
X173664066Y-92769432D01*
X173662666Y-92768075D01*
X173642476Y-92747884D01*
X173636986Y-92743625D01*
X173632561Y-92739847D01*
X173598582Y-92707938D01*
X173598580Y-92707936D01*
X173598577Y-92707935D01*
X173581029Y-92698288D01*
X173564763Y-92687604D01*
X173562417Y-92685784D01*
X173548936Y-92675327D01*
X173548935Y-92675326D01*
X173548933Y-92675325D01*
X173506168Y-92656818D01*
X173500922Y-92654248D01*
X173460093Y-92631803D01*
X173460092Y-92631802D01*
X173440693Y-92626822D01*
X173422281Y-92620518D01*
X173403898Y-92612562D01*
X173396404Y-92610385D01*
X173396905Y-92608659D01*
X173342623Y-92582921D01*
X173305697Y-92523606D01*
X173306701Y-92453744D01*
X173337481Y-92402704D01*
X173451047Y-92289139D01*
X173581568Y-92102734D01*
X173608618Y-92044724D01*
X173654790Y-91992285D01*
X173721983Y-91973133D01*
X173788865Y-91993348D01*
X173833381Y-92044724D01*
X173840068Y-92059063D01*
X173860429Y-92102728D01*
X173860432Y-92102734D01*
X173990954Y-92289141D01*
X174151858Y-92450045D01*
X174151861Y-92450047D01*
X174338266Y-92580568D01*
X174544504Y-92676739D01*
X174544509Y-92676740D01*
X174544511Y-92676741D01*
X174578264Y-92685785D01*
X174764308Y-92735635D01*
X174904315Y-92747884D01*
X174990998Y-92755468D01*
X174991000Y-92755468D01*
X174991002Y-92755468D01*
X175052688Y-92750071D01*
X175217692Y-92735635D01*
X175437496Y-92676739D01*
X175643734Y-92580568D01*
X175830139Y-92450047D01*
X175991047Y-92289139D01*
X176121568Y-92102734D01*
X176148618Y-92044724D01*
X176194790Y-91992285D01*
X176261983Y-91973133D01*
X176328865Y-91993348D01*
X176373381Y-92044724D01*
X176380068Y-92059063D01*
X176400429Y-92102728D01*
X176400432Y-92102734D01*
X176530954Y-92289141D01*
X176691858Y-92450045D01*
X176691861Y-92450047D01*
X176878266Y-92580568D01*
X177084504Y-92676739D01*
X177084509Y-92676740D01*
X177084511Y-92676741D01*
X177118264Y-92685785D01*
X177304308Y-92735635D01*
X177444315Y-92747884D01*
X177530998Y-92755468D01*
X177531000Y-92755468D01*
X177531002Y-92755468D01*
X177592688Y-92750071D01*
X177757692Y-92735635D01*
X177977496Y-92676739D01*
X178183734Y-92580568D01*
X178370139Y-92450047D01*
X178531047Y-92289139D01*
X178661568Y-92102734D01*
X178688618Y-92044724D01*
X178734790Y-91992285D01*
X178801983Y-91973133D01*
X178868865Y-91993348D01*
G37*
%TD.AperFunction*%
%TA.AperFunction,Conductor*%
G36*
X148892507Y-95294156D02*
G01*
X148852000Y-95432111D01*
X148852000Y-95575889D01*
X148892507Y-95713844D01*
X148918314Y-95754000D01*
X147245686Y-95754000D01*
X147271493Y-95713844D01*
X147312000Y-95575889D01*
X147312000Y-95432111D01*
X147271493Y-95294156D01*
X147245686Y-95254000D01*
X148918314Y-95254000D01*
X148892507Y-95294156D01*
G37*
%TD.AperFunction*%
%TD*%
%TA.AperFunction,Conductor*%
%TO.N,Net-(C7-Pad2)*%
G36*
X206732720Y-86683427D02*
G01*
X206733997Y-86684940D01*
X207103331Y-87206691D01*
X207105314Y-87215424D01*
X207101686Y-87222076D01*
X206662609Y-87624483D01*
X206654195Y-87627547D01*
X206647746Y-87625264D01*
X206168799Y-87270986D01*
X206164186Y-87263311D01*
X206165491Y-87255967D01*
X206477171Y-86686085D01*
X206484147Y-86680472D01*
X206487436Y-86680000D01*
X206724447Y-86680000D01*
X206732720Y-86683427D01*
G37*
%TD.AperFunction*%
%TD*%
%TA.AperFunction,Conductor*%
%TO.N,Net-(C4-Pad1)*%
G36*
X208674273Y-90948478D02*
G01*
X208878811Y-91057695D01*
X208884495Y-91064615D01*
X208885000Y-91068016D01*
X208885000Y-91303983D01*
X208881573Y-91312256D01*
X208878811Y-91314304D01*
X208271667Y-91638499D01*
X208262755Y-91639373D01*
X208257275Y-91635795D01*
X207878032Y-91193616D01*
X207875247Y-91185105D01*
X207878030Y-91178385D01*
X208072895Y-90951182D01*
X208080882Y-90947134D01*
X208081776Y-90947100D01*
X208668763Y-90947100D01*
X208674273Y-90948478D01*
G37*
%TD.AperFunction*%
%TD*%
%TA.AperFunction,Conductor*%
%TO.N,VCC*%
G36*
X183011495Y-95827427D02*
G01*
X183014255Y-95831806D01*
X183227966Y-96437241D01*
X183227488Y-96446183D01*
X183223653Y-96450712D01*
X182768220Y-96770284D01*
X182759480Y-96772231D01*
X182754780Y-96770284D01*
X182299346Y-96450712D01*
X182294542Y-96443155D01*
X182295032Y-96437245D01*
X182508744Y-95831806D01*
X182514730Y-95825145D01*
X182519778Y-95824000D01*
X183003222Y-95824000D01*
X183011495Y-95827427D01*
G37*
%TD.AperFunction*%
%TD*%
%TA.AperFunction,Conductor*%
%TO.N,Net-(J5-Pin_1)*%
G36*
X192387868Y-91444246D02*
G01*
X192742892Y-91692766D01*
X192841778Y-91761987D01*
X192846590Y-91769539D01*
X192844959Y-91777822D01*
X192530333Y-92275762D01*
X192528715Y-92277785D01*
X192363131Y-92443369D01*
X192354858Y-92446796D01*
X192346585Y-92443369D01*
X192345014Y-92441419D01*
X191933580Y-91800913D01*
X191931992Y-91792101D01*
X191936235Y-91785360D01*
X192373976Y-91444599D01*
X192382607Y-91442222D01*
X192387868Y-91444246D01*
G37*
%TD.AperFunction*%
%TD*%
%TA.AperFunction,Conductor*%
%TO.N,Net-(J1-Pin_1)*%
G36*
X175116875Y-97473427D02*
G01*
X175119172Y-97476683D01*
X175724833Y-98752748D01*
X175725284Y-98761692D01*
X175719280Y-98768335D01*
X175718753Y-98768569D01*
X174995490Y-99069134D01*
X174986536Y-99069144D01*
X174986510Y-99069134D01*
X174263246Y-98768569D01*
X174256921Y-98762230D01*
X174256932Y-98753275D01*
X174257154Y-98752773D01*
X174862828Y-97476682D01*
X174869471Y-97470679D01*
X174873398Y-97470000D01*
X175108602Y-97470000D01*
X175116875Y-97473427D01*
G37*
%TD.AperFunction*%
%TD*%
%TA.AperFunction,Conductor*%
%TO.N,VCC*%
G36*
X189352422Y-93748822D02*
G01*
X189573573Y-94212701D01*
X189779906Y-94645500D01*
X189826680Y-94743610D01*
X189827819Y-94748645D01*
X189827819Y-95227953D01*
X189824392Y-95236226D01*
X189816119Y-95239653D01*
X189811344Y-95238634D01*
X188494672Y-94650000D01*
X188488518Y-94643495D01*
X188488503Y-94635185D01*
X188719283Y-94024542D01*
X188725409Y-94018018D01*
X189337066Y-93743184D01*
X189346017Y-93742920D01*
X189352422Y-93748822D01*
G37*
%TD.AperFunction*%
%TD*%
%TA.AperFunction,Conductor*%
%TO.N,Net-(J4-Pin_5)*%
G36*
X176022447Y-85854426D02*
G01*
X176024993Y-85858234D01*
X176419650Y-86812001D01*
X176419647Y-86820955D01*
X176414065Y-86826942D01*
X175118468Y-87473714D01*
X175113242Y-87474946D01*
X174878489Y-87474946D01*
X174870216Y-87471519D01*
X174866789Y-87463246D01*
X174866814Y-87462483D01*
X174971286Y-85862926D01*
X174975245Y-85854894D01*
X174982948Y-85851989D01*
X176014172Y-85851007D01*
X176022447Y-85854426D01*
G37*
%TD.AperFunction*%
%TD*%
%TA.AperFunction,Conductor*%
%TO.N,VCC*%
G36*
X149026044Y-97262341D02*
G01*
X149030430Y-97267634D01*
X149351134Y-98039510D01*
X149351143Y-98048465D01*
X149351134Y-98048488D01*
X149030430Y-98820365D01*
X149024091Y-98826690D01*
X149017248Y-98827332D01*
X147661323Y-98545934D01*
X147653918Y-98540897D01*
X147652000Y-98534478D01*
X147652000Y-97553521D01*
X147655427Y-97545248D01*
X147661322Y-97542065D01*
X149017249Y-97260667D01*
X149026044Y-97262341D01*
G37*
%TD.AperFunction*%
%TD*%
%TA.AperFunction,Conductor*%
%TO.N,Net-(JP1-B)*%
G36*
X181186495Y-95827427D02*
G01*
X181189255Y-95831806D01*
X181402966Y-96437241D01*
X181402488Y-96446183D01*
X181398653Y-96450712D01*
X180943220Y-96770284D01*
X180934480Y-96772231D01*
X180929780Y-96770284D01*
X180474346Y-96450712D01*
X180469542Y-96443155D01*
X180470032Y-96437245D01*
X180683744Y-95831806D01*
X180689730Y-95825145D01*
X180694778Y-95824000D01*
X181178222Y-95824000D01*
X181186495Y-95827427D01*
G37*
%TD.AperFunction*%
%TD*%
%TA.AperFunction,Conductor*%
%TO.N,Net-(JP1-B)*%
G36*
X179554392Y-96319743D02*
G01*
X180159995Y-96521335D01*
X180166763Y-96527199D01*
X180168000Y-96532436D01*
X180168000Y-97015563D01*
X180164573Y-97023836D01*
X180159995Y-97026664D01*
X179554393Y-97228255D01*
X179545461Y-97227617D01*
X179541330Y-97224163D01*
X179209743Y-96781008D01*
X179207531Y-96772332D01*
X179209744Y-96766991D01*
X179541332Y-96323834D01*
X179549030Y-96319264D01*
X179554392Y-96319743D01*
G37*
%TD.AperFunction*%
%TD*%
%TA.AperFunction,Conductor*%
%TO.N,Net-(JP1-B)*%
G36*
X180596538Y-96320382D02*
G01*
X180600669Y-96323836D01*
X180932255Y-96766991D01*
X180934468Y-96775668D01*
X180932255Y-96781009D01*
X180600669Y-97224163D01*
X180592969Y-97228735D01*
X180587606Y-97228255D01*
X179982005Y-97026664D01*
X179975237Y-97020800D01*
X179974000Y-97015563D01*
X179974000Y-96532436D01*
X179977427Y-96524163D01*
X179982003Y-96521335D01*
X180587606Y-96319744D01*
X180596538Y-96320382D01*
G37*
%TD.AperFunction*%
%TD*%
%TA.AperFunction,Conductor*%
%TO.N,VCC*%
G36*
X188102960Y-93400950D02*
G01*
X188714706Y-94011720D01*
X188718139Y-94019991D01*
X188714719Y-94028267D01*
X188714706Y-94028280D01*
X188102960Y-94639049D01*
X188094684Y-94642469D01*
X188088671Y-94640800D01*
X187476678Y-94273408D01*
X187471349Y-94266212D01*
X187471000Y-94263377D01*
X187471000Y-93776622D01*
X187474427Y-93768349D01*
X187476675Y-93766592D01*
X188088673Y-93399198D01*
X188097528Y-93397879D01*
X188102960Y-93400950D01*
G37*
%TD.AperFunction*%
%TD*%
%TA.AperFunction,Conductor*%
%TO.N,VCC*%
G36*
X194753021Y-93962275D02*
G01*
X194754594Y-93963594D01*
X195096521Y-94305521D01*
X195099168Y-94309593D01*
X195233474Y-94658656D01*
X195233246Y-94667607D01*
X195228810Y-94672744D01*
X194725508Y-94991192D01*
X194716684Y-94992720D01*
X194710228Y-94988752D01*
X194343022Y-94543797D01*
X194340399Y-94535235D01*
X194342453Y-94529652D01*
X194736730Y-93965166D01*
X194744276Y-93960347D01*
X194753021Y-93962275D01*
G37*
%TD.AperFunction*%
%TD*%
%TA.AperFunction,Conductor*%
%TO.N,/CH0*%
G36*
X183419211Y-90656928D02*
G01*
X184206845Y-91321494D01*
X184210958Y-91329448D01*
X184211000Y-91330436D01*
X184211000Y-91569563D01*
X184207573Y-91577836D01*
X184206845Y-91578505D01*
X183419211Y-92243071D01*
X183410678Y-92245787D01*
X183403398Y-92242407D01*
X182618288Y-91458277D01*
X182614856Y-91450006D01*
X182618277Y-91441733D01*
X183403398Y-90657591D01*
X183411673Y-90654170D01*
X183419211Y-90656928D01*
G37*
%TD.AperFunction*%
%TD*%
%TA.AperFunction,Conductor*%
%TO.N,Net-(C7-Pad2)*%
G36*
X200532380Y-86683427D02*
G01*
X200534341Y-86686030D01*
X200870321Y-87292409D01*
X200871333Y-87301306D01*
X200866807Y-87307656D01*
X200412720Y-87626284D01*
X200403980Y-87628231D01*
X200399280Y-87626284D01*
X199945192Y-87307656D01*
X199940388Y-87300099D01*
X199941677Y-87292410D01*
X200277658Y-86686030D01*
X200284666Y-86680454D01*
X200287893Y-86680000D01*
X200524107Y-86680000D01*
X200532380Y-86683427D01*
G37*
%TD.AperFunction*%
%TD*%
%TA.AperFunction,Conductor*%
%TO.N,Net-(J4-Pin_1)*%
G36*
X155709388Y-85859760D02*
G01*
X155709798Y-85860168D01*
X156700295Y-86893736D01*
X156703545Y-86902080D01*
X156700127Y-86910098D01*
X155803119Y-87808337D01*
X155635323Y-87976132D01*
X155627050Y-87979559D01*
X155618777Y-87976132D01*
X155618125Y-87975425D01*
X154714946Y-86909990D01*
X154712211Y-86901463D01*
X154715367Y-86894388D01*
X155692850Y-85860224D01*
X155701021Y-85856568D01*
X155709388Y-85859760D01*
G37*
%TD.AperFunction*%
%TD*%
%TA.AperFunction,Conductor*%
%TO.N,Net-(U3-V_INB-)*%
G36*
X196734258Y-90915785D02*
G01*
X196953882Y-91136142D01*
X197019644Y-91202123D01*
X197023057Y-91210401D01*
X197021463Y-91216277D01*
X196854386Y-91502695D01*
X196847258Y-91508115D01*
X196844280Y-91508500D01*
X196607720Y-91508500D01*
X196599447Y-91505073D01*
X196597614Y-91502695D01*
X196547490Y-91416769D01*
X196430535Y-91216275D01*
X196429327Y-91207404D01*
X196432353Y-91202124D01*
X196717714Y-90915813D01*
X196725981Y-90912373D01*
X196734258Y-90915785D01*
G37*
%TD.AperFunction*%
%TD*%
%TA.AperFunction,Conductor*%
%TO.N,Net-(J4-Pin_3)*%
G36*
X169968414Y-89788006D02*
G01*
X169970596Y-89791027D01*
X170644462Y-91132620D01*
X170645113Y-91141552D01*
X170639259Y-91148327D01*
X170638497Y-91148676D01*
X169916192Y-91448842D01*
X169907237Y-91448853D01*
X169907219Y-91448845D01*
X169183643Y-91148725D01*
X169177314Y-91142390D01*
X169177319Y-91133435D01*
X169177720Y-91132571D01*
X169785716Y-89954939D01*
X169787834Y-89952040D01*
X169951869Y-89788005D01*
X169960141Y-89784579D01*
X169968414Y-89788006D01*
G37*
%TD.AperFunction*%
%TD*%
%TA.AperFunction,Conductor*%
%TO.N,Net-(U3-V_INB+)*%
G36*
X196141696Y-87270890D02*
G01*
X196753437Y-87502141D01*
X196759964Y-87508272D01*
X196761000Y-87513085D01*
X196761000Y-87746914D01*
X196757573Y-87755187D01*
X196753437Y-87757858D01*
X196124655Y-87995551D01*
X196115705Y-87995271D01*
X196109719Y-87989109D01*
X196013306Y-87757858D01*
X195961875Y-87634499D01*
X195961855Y-87625550D01*
X196109719Y-87270889D01*
X196116066Y-87264572D01*
X196124654Y-87264448D01*
X196141696Y-87270890D01*
G37*
%TD.AperFunction*%
%TD*%
%TA.AperFunction,Conductor*%
%TO.N,VCC*%
G36*
X150137312Y-97722419D02*
G01*
X150142604Y-97726804D01*
X150350307Y-98043293D01*
X150902411Y-98884568D01*
X150904085Y-98893364D01*
X150900902Y-98899260D01*
X150207260Y-99592902D01*
X150198987Y-99596329D01*
X150192568Y-99594411D01*
X149110937Y-98884568D01*
X149034804Y-98834604D01*
X149029768Y-98827200D01*
X149030409Y-98820360D01*
X149349438Y-98047783D01*
X149355759Y-98041448D01*
X150128359Y-97722410D01*
X150137312Y-97722419D01*
G37*
%TD.AperFunction*%
%TD*%
%TA.AperFunction,Conductor*%
%TO.N,Net-(U3-V_INA+)*%
G36*
X202562408Y-90621586D02*
G01*
X202943800Y-90780500D01*
X202950119Y-90786845D01*
X202951000Y-90791300D01*
X202951000Y-91025699D01*
X202947573Y-91033972D01*
X202943800Y-91036499D01*
X202562410Y-91195412D01*
X202554277Y-91195734D01*
X201709046Y-90919621D01*
X201702246Y-90913794D01*
X201701557Y-90904866D01*
X201707384Y-90898066D01*
X201709032Y-90897382D01*
X202554279Y-90621265D01*
X202562408Y-90621586D01*
G37*
%TD.AperFunction*%
%TD*%
%TA.AperFunction,Conductor*%
%TO.N,Net-(C7-Pad2)*%
G36*
X202056131Y-87181122D02*
G01*
X202386755Y-87622990D01*
X202388968Y-87631667D01*
X202386755Y-87637008D01*
X202056131Y-88078877D01*
X202048431Y-88083449D01*
X202041252Y-88082189D01*
X201434689Y-87758304D01*
X201429005Y-87751384D01*
X201428500Y-87747983D01*
X201428500Y-87512016D01*
X201431927Y-87503743D01*
X201434687Y-87501695D01*
X202041253Y-87177809D01*
X202050164Y-87176936D01*
X202056131Y-87181122D01*
G37*
%TD.AperFunction*%
%TD*%
%TA.AperFunction,Conductor*%
%TO.N,Net-(C7-Pad2)*%
G36*
X206270631Y-85149122D02*
G01*
X206601255Y-85590991D01*
X206603468Y-85599668D01*
X206601255Y-85605009D01*
X206270631Y-86046877D01*
X206262931Y-86051449D01*
X206255752Y-86050189D01*
X205649189Y-85726304D01*
X205643505Y-85719384D01*
X205643000Y-85715983D01*
X205643000Y-85480016D01*
X205646427Y-85471743D01*
X205649187Y-85469695D01*
X206255753Y-85145809D01*
X206264664Y-85144936D01*
X206270631Y-85149122D01*
G37*
%TD.AperFunction*%
%TD*%
M02*
