%TF.GenerationSoftware,KiCad,Pcbnew,7.0.9*%
%TF.CreationDate,2023-12-02T22:57:23+09:00*%
%TF.ProjectId,Pmod_ADC,506d6f64-5f41-4444-932e-6b696361645f,rev?*%
%TF.SameCoordinates,Original*%
%TF.FileFunction,Legend,Bot*%
%TF.FilePolarity,Positive*%
%FSLAX46Y46*%
G04 Gerber Fmt 4.6, Leading zero omitted, Abs format (unit mm)*
G04 Created by KiCad (PCBNEW 7.0.9) date 2023-12-02 22:57:23*
%MOMM*%
%LPD*%
G01*
G04 APERTURE LIST*
%ADD10C,0.150000*%
%ADD11C,0.100000*%
G04 APERTURE END LIST*
D10*
X165382580Y-87903207D02*
X165430200Y-87855588D01*
X165430200Y-87855588D02*
X165477819Y-87712731D01*
X165477819Y-87712731D02*
X165477819Y-87617493D01*
X165477819Y-87617493D02*
X165430200Y-87474636D01*
X165430200Y-87474636D02*
X165334961Y-87379398D01*
X165334961Y-87379398D02*
X165239723Y-87331779D01*
X165239723Y-87331779D02*
X165049247Y-87284160D01*
X165049247Y-87284160D02*
X164906390Y-87284160D01*
X164906390Y-87284160D02*
X164715914Y-87331779D01*
X164715914Y-87331779D02*
X164620676Y-87379398D01*
X164620676Y-87379398D02*
X164525438Y-87474636D01*
X164525438Y-87474636D02*
X164477819Y-87617493D01*
X164477819Y-87617493D02*
X164477819Y-87712731D01*
X164477819Y-87712731D02*
X164525438Y-87855588D01*
X164525438Y-87855588D02*
X164573057Y-87903207D01*
X165477819Y-88331779D02*
X164477819Y-88331779D01*
X164954009Y-88331779D02*
X164954009Y-88903207D01*
X165477819Y-88903207D02*
X164477819Y-88903207D01*
X164477819Y-89284160D02*
X164477819Y-89950826D01*
X164477819Y-89950826D02*
X165477819Y-89522255D01*
X183035580Y-88030207D02*
X183083200Y-87982588D01*
X183083200Y-87982588D02*
X183130819Y-87839731D01*
X183130819Y-87839731D02*
X183130819Y-87744493D01*
X183130819Y-87744493D02*
X183083200Y-87601636D01*
X183083200Y-87601636D02*
X182987961Y-87506398D01*
X182987961Y-87506398D02*
X182892723Y-87458779D01*
X182892723Y-87458779D02*
X182702247Y-87411160D01*
X182702247Y-87411160D02*
X182559390Y-87411160D01*
X182559390Y-87411160D02*
X182368914Y-87458779D01*
X182368914Y-87458779D02*
X182273676Y-87506398D01*
X182273676Y-87506398D02*
X182178438Y-87601636D01*
X182178438Y-87601636D02*
X182130819Y-87744493D01*
X182130819Y-87744493D02*
X182130819Y-87839731D01*
X182130819Y-87839731D02*
X182178438Y-87982588D01*
X182178438Y-87982588D02*
X182226057Y-88030207D01*
X183130819Y-88458779D02*
X182130819Y-88458779D01*
X182607009Y-88458779D02*
X182607009Y-89030207D01*
X183130819Y-89030207D02*
X182130819Y-89030207D01*
X182130819Y-89696874D02*
X182130819Y-89792112D01*
X182130819Y-89792112D02*
X182178438Y-89887350D01*
X182178438Y-89887350D02*
X182226057Y-89934969D01*
X182226057Y-89934969D02*
X182321295Y-89982588D01*
X182321295Y-89982588D02*
X182511771Y-90030207D01*
X182511771Y-90030207D02*
X182749866Y-90030207D01*
X182749866Y-90030207D02*
X182940342Y-89982588D01*
X182940342Y-89982588D02*
X183035580Y-89934969D01*
X183035580Y-89934969D02*
X183083200Y-89887350D01*
X183083200Y-89887350D02*
X183130819Y-89792112D01*
X183130819Y-89792112D02*
X183130819Y-89696874D01*
X183130819Y-89696874D02*
X183083200Y-89601636D01*
X183083200Y-89601636D02*
X183035580Y-89554017D01*
X183035580Y-89554017D02*
X182940342Y-89506398D01*
X182940342Y-89506398D02*
X182749866Y-89458779D01*
X182749866Y-89458779D02*
X182511771Y-89458779D01*
X182511771Y-89458779D02*
X182321295Y-89506398D01*
X182321295Y-89506398D02*
X182226057Y-89554017D01*
X182226057Y-89554017D02*
X182178438Y-89601636D01*
X182178438Y-89601636D02*
X182130819Y-89696874D01*
X164398438Y-97380588D02*
X164350819Y-97285350D01*
X164350819Y-97285350D02*
X164350819Y-97142493D01*
X164350819Y-97142493D02*
X164398438Y-96999636D01*
X164398438Y-96999636D02*
X164493676Y-96904398D01*
X164493676Y-96904398D02*
X164588914Y-96856779D01*
X164588914Y-96856779D02*
X164779390Y-96809160D01*
X164779390Y-96809160D02*
X164922247Y-96809160D01*
X164922247Y-96809160D02*
X165112723Y-96856779D01*
X165112723Y-96856779D02*
X165207961Y-96904398D01*
X165207961Y-96904398D02*
X165303200Y-96999636D01*
X165303200Y-96999636D02*
X165350819Y-97142493D01*
X165350819Y-97142493D02*
X165350819Y-97237731D01*
X165350819Y-97237731D02*
X165303200Y-97380588D01*
X165303200Y-97380588D02*
X165255580Y-97428207D01*
X165255580Y-97428207D02*
X164922247Y-97428207D01*
X164922247Y-97428207D02*
X164922247Y-97237731D01*
X180590819Y-96031207D02*
X180114628Y-95697874D01*
X180590819Y-95459779D02*
X179590819Y-95459779D01*
X179590819Y-95459779D02*
X179590819Y-95840731D01*
X179590819Y-95840731D02*
X179638438Y-95935969D01*
X179638438Y-95935969D02*
X179686057Y-95983588D01*
X179686057Y-95983588D02*
X179781295Y-96031207D01*
X179781295Y-96031207D02*
X179924152Y-96031207D01*
X179924152Y-96031207D02*
X180019390Y-95983588D01*
X180019390Y-95983588D02*
X180067009Y-95935969D01*
X180067009Y-95935969D02*
X180114628Y-95840731D01*
X180114628Y-95840731D02*
X180114628Y-95459779D01*
X180543200Y-96840731D02*
X180590819Y-96745493D01*
X180590819Y-96745493D02*
X180590819Y-96555017D01*
X180590819Y-96555017D02*
X180543200Y-96459779D01*
X180543200Y-96459779D02*
X180447961Y-96412160D01*
X180447961Y-96412160D02*
X180067009Y-96412160D01*
X180067009Y-96412160D02*
X179971771Y-96459779D01*
X179971771Y-96459779D02*
X179924152Y-96555017D01*
X179924152Y-96555017D02*
X179924152Y-96745493D01*
X179924152Y-96745493D02*
X179971771Y-96840731D01*
X179971771Y-96840731D02*
X180067009Y-96888350D01*
X180067009Y-96888350D02*
X180162247Y-96888350D01*
X180162247Y-96888350D02*
X180257485Y-96412160D01*
X179924152Y-97174065D02*
X179924152Y-97555017D01*
X180590819Y-97316922D02*
X179733676Y-97316922D01*
X179733676Y-97316922D02*
X179638438Y-97364541D01*
X179638438Y-97364541D02*
X179590819Y-97459779D01*
X179590819Y-97459779D02*
X179590819Y-97555017D01*
X175288580Y-95777207D02*
X175336200Y-95729588D01*
X175336200Y-95729588D02*
X175383819Y-95586731D01*
X175383819Y-95586731D02*
X175383819Y-95491493D01*
X175383819Y-95491493D02*
X175336200Y-95348636D01*
X175336200Y-95348636D02*
X175240961Y-95253398D01*
X175240961Y-95253398D02*
X175145723Y-95205779D01*
X175145723Y-95205779D02*
X174955247Y-95158160D01*
X174955247Y-95158160D02*
X174812390Y-95158160D01*
X174812390Y-95158160D02*
X174621914Y-95205779D01*
X174621914Y-95205779D02*
X174526676Y-95253398D01*
X174526676Y-95253398D02*
X174431438Y-95348636D01*
X174431438Y-95348636D02*
X174383819Y-95491493D01*
X174383819Y-95491493D02*
X174383819Y-95586731D01*
X174383819Y-95586731D02*
X174431438Y-95729588D01*
X174431438Y-95729588D02*
X174479057Y-95777207D01*
X175383819Y-96681969D02*
X175383819Y-96205779D01*
X175383819Y-96205779D02*
X174383819Y-96205779D01*
X175383819Y-97015303D02*
X174383819Y-97015303D01*
X175383819Y-97586731D02*
X174812390Y-97158160D01*
X174383819Y-97586731D02*
X174955247Y-97015303D01*
X172843819Y-94570779D02*
X171843819Y-94570779D01*
X171843819Y-94570779D02*
X171843819Y-94808874D01*
X171843819Y-94808874D02*
X171891438Y-94951731D01*
X171891438Y-94951731D02*
X171986676Y-95046969D01*
X171986676Y-95046969D02*
X172081914Y-95094588D01*
X172081914Y-95094588D02*
X172272390Y-95142207D01*
X172272390Y-95142207D02*
X172415247Y-95142207D01*
X172415247Y-95142207D02*
X172605723Y-95094588D01*
X172605723Y-95094588D02*
X172700961Y-95046969D01*
X172700961Y-95046969D02*
X172796200Y-94951731D01*
X172796200Y-94951731D02*
X172843819Y-94808874D01*
X172843819Y-94808874D02*
X172843819Y-94570779D01*
X172843819Y-95713636D02*
X172796200Y-95618398D01*
X172796200Y-95618398D02*
X172748580Y-95570779D01*
X172748580Y-95570779D02*
X172653342Y-95523160D01*
X172653342Y-95523160D02*
X172367628Y-95523160D01*
X172367628Y-95523160D02*
X172272390Y-95570779D01*
X172272390Y-95570779D02*
X172224771Y-95618398D01*
X172224771Y-95618398D02*
X172177152Y-95713636D01*
X172177152Y-95713636D02*
X172177152Y-95856493D01*
X172177152Y-95856493D02*
X172224771Y-95951731D01*
X172224771Y-95951731D02*
X172272390Y-95999350D01*
X172272390Y-95999350D02*
X172367628Y-96046969D01*
X172367628Y-96046969D02*
X172653342Y-96046969D01*
X172653342Y-96046969D02*
X172748580Y-95999350D01*
X172748580Y-95999350D02*
X172796200Y-95951731D01*
X172796200Y-95951731D02*
X172843819Y-95856493D01*
X172843819Y-95856493D02*
X172843819Y-95713636D01*
X172177152Y-96904112D02*
X172843819Y-96904112D01*
X172177152Y-96475541D02*
X172700961Y-96475541D01*
X172700961Y-96475541D02*
X172796200Y-96523160D01*
X172796200Y-96523160D02*
X172843819Y-96618398D01*
X172843819Y-96618398D02*
X172843819Y-96761255D01*
X172843819Y-96761255D02*
X172796200Y-96856493D01*
X172796200Y-96856493D02*
X172748580Y-96904112D01*
X172177152Y-97237446D02*
X172177152Y-97618398D01*
X171843819Y-97380303D02*
X172700961Y-97380303D01*
X172700961Y-97380303D02*
X172796200Y-97427922D01*
X172796200Y-97427922D02*
X172843819Y-97523160D01*
X172843819Y-97523160D02*
X172843819Y-97618398D01*
X170303819Y-95713779D02*
X169303819Y-95713779D01*
X169303819Y-95713779D02*
X169303819Y-95951874D01*
X169303819Y-95951874D02*
X169351438Y-96094731D01*
X169351438Y-96094731D02*
X169446676Y-96189969D01*
X169446676Y-96189969D02*
X169541914Y-96237588D01*
X169541914Y-96237588D02*
X169732390Y-96285207D01*
X169732390Y-96285207D02*
X169875247Y-96285207D01*
X169875247Y-96285207D02*
X170065723Y-96237588D01*
X170065723Y-96237588D02*
X170160961Y-96189969D01*
X170160961Y-96189969D02*
X170256200Y-96094731D01*
X170256200Y-96094731D02*
X170303819Y-95951874D01*
X170303819Y-95951874D02*
X170303819Y-95713779D01*
X170303819Y-96713779D02*
X169637152Y-96713779D01*
X169303819Y-96713779D02*
X169351438Y-96666160D01*
X169351438Y-96666160D02*
X169399057Y-96713779D01*
X169399057Y-96713779D02*
X169351438Y-96761398D01*
X169351438Y-96761398D02*
X169303819Y-96713779D01*
X169303819Y-96713779D02*
X169399057Y-96713779D01*
X169637152Y-97189969D02*
X170303819Y-97189969D01*
X169732390Y-97189969D02*
X169684771Y-97237588D01*
X169684771Y-97237588D02*
X169637152Y-97332826D01*
X169637152Y-97332826D02*
X169637152Y-97475683D01*
X169637152Y-97475683D02*
X169684771Y-97570921D01*
X169684771Y-97570921D02*
X169780009Y-97618540D01*
X169780009Y-97618540D02*
X170303819Y-97618540D01*
X167224152Y-95031160D02*
X167224152Y-95745445D01*
X166795580Y-95316874D02*
X168081295Y-95031160D01*
X167652723Y-95650207D02*
X167652723Y-94935922D01*
X168081295Y-95364493D02*
X166795580Y-95650207D01*
X167795580Y-96650207D02*
X167843200Y-96602588D01*
X167843200Y-96602588D02*
X167890819Y-96459731D01*
X167890819Y-96459731D02*
X167890819Y-96364493D01*
X167890819Y-96364493D02*
X167843200Y-96221636D01*
X167843200Y-96221636D02*
X167747961Y-96126398D01*
X167747961Y-96126398D02*
X167652723Y-96078779D01*
X167652723Y-96078779D02*
X167462247Y-96031160D01*
X167462247Y-96031160D02*
X167319390Y-96031160D01*
X167319390Y-96031160D02*
X167128914Y-96078779D01*
X167128914Y-96078779D02*
X167033676Y-96126398D01*
X167033676Y-96126398D02*
X166938438Y-96221636D01*
X166938438Y-96221636D02*
X166890819Y-96364493D01*
X166890819Y-96364493D02*
X166890819Y-96459731D01*
X166890819Y-96459731D02*
X166938438Y-96602588D01*
X166938438Y-96602588D02*
X166986057Y-96650207D01*
X167843200Y-97031160D02*
X167890819Y-97174017D01*
X167890819Y-97174017D02*
X167890819Y-97412112D01*
X167890819Y-97412112D02*
X167843200Y-97507350D01*
X167843200Y-97507350D02*
X167795580Y-97554969D01*
X167795580Y-97554969D02*
X167700342Y-97602588D01*
X167700342Y-97602588D02*
X167605104Y-97602588D01*
X167605104Y-97602588D02*
X167509866Y-97554969D01*
X167509866Y-97554969D02*
X167462247Y-97507350D01*
X167462247Y-97507350D02*
X167414628Y-97412112D01*
X167414628Y-97412112D02*
X167367009Y-97221636D01*
X167367009Y-97221636D02*
X167319390Y-97126398D01*
X167319390Y-97126398D02*
X167271771Y-97078779D01*
X167271771Y-97078779D02*
X167176533Y-97031160D01*
X167176533Y-97031160D02*
X167081295Y-97031160D01*
X167081295Y-97031160D02*
X166986057Y-97078779D01*
X166986057Y-97078779D02*
X166938438Y-97126398D01*
X166938438Y-97126398D02*
X166890819Y-97221636D01*
X166890819Y-97221636D02*
X166890819Y-97459731D01*
X166890819Y-97459731D02*
X166938438Y-97602588D01*
X182130819Y-95189922D02*
X183130819Y-95523255D01*
X183130819Y-95523255D02*
X182130819Y-95856588D01*
X183035580Y-96761350D02*
X183083200Y-96713731D01*
X183083200Y-96713731D02*
X183130819Y-96570874D01*
X183130819Y-96570874D02*
X183130819Y-96475636D01*
X183130819Y-96475636D02*
X183083200Y-96332779D01*
X183083200Y-96332779D02*
X182987961Y-96237541D01*
X182987961Y-96237541D02*
X182892723Y-96189922D01*
X182892723Y-96189922D02*
X182702247Y-96142303D01*
X182702247Y-96142303D02*
X182559390Y-96142303D01*
X182559390Y-96142303D02*
X182368914Y-96189922D01*
X182368914Y-96189922D02*
X182273676Y-96237541D01*
X182273676Y-96237541D02*
X182178438Y-96332779D01*
X182178438Y-96332779D02*
X182130819Y-96475636D01*
X182130819Y-96475636D02*
X182130819Y-96570874D01*
X182130819Y-96570874D02*
X182178438Y-96713731D01*
X182178438Y-96713731D02*
X182226057Y-96761350D01*
X183035580Y-97761350D02*
X183083200Y-97713731D01*
X183083200Y-97713731D02*
X183130819Y-97570874D01*
X183130819Y-97570874D02*
X183130819Y-97475636D01*
X183130819Y-97475636D02*
X183083200Y-97332779D01*
X183083200Y-97332779D02*
X182987961Y-97237541D01*
X182987961Y-97237541D02*
X182892723Y-97189922D01*
X182892723Y-97189922D02*
X182702247Y-97142303D01*
X182702247Y-97142303D02*
X182559390Y-97142303D01*
X182559390Y-97142303D02*
X182368914Y-97189922D01*
X182368914Y-97189922D02*
X182273676Y-97237541D01*
X182273676Y-97237541D02*
X182178438Y-97332779D01*
X182178438Y-97332779D02*
X182130819Y-97475636D01*
X182130819Y-97475636D02*
X182130819Y-97570874D01*
X182130819Y-97570874D02*
X182178438Y-97713731D01*
X182178438Y-97713731D02*
X182226057Y-97761350D01*
X177098438Y-97380588D02*
X177050819Y-97285350D01*
X177050819Y-97285350D02*
X177050819Y-97142493D01*
X177050819Y-97142493D02*
X177098438Y-96999636D01*
X177098438Y-96999636D02*
X177193676Y-96904398D01*
X177193676Y-96904398D02*
X177288914Y-96856779D01*
X177288914Y-96856779D02*
X177479390Y-96809160D01*
X177479390Y-96809160D02*
X177622247Y-96809160D01*
X177622247Y-96809160D02*
X177812723Y-96856779D01*
X177812723Y-96856779D02*
X177907961Y-96904398D01*
X177907961Y-96904398D02*
X178003200Y-96999636D01*
X178003200Y-96999636D02*
X178050819Y-97142493D01*
X178050819Y-97142493D02*
X178050819Y-97237731D01*
X178050819Y-97237731D02*
X178003200Y-97380588D01*
X178003200Y-97380588D02*
X177955580Y-97428207D01*
X177955580Y-97428207D02*
X177622247Y-97428207D01*
X177622247Y-97428207D02*
X177622247Y-97237731D01*
X193040000Y-96266000D02*
X195453000Y-96266000D01*
X195453000Y-101346000D01*
X193040000Y-101346000D01*
X193040000Y-96266000D01*
X195834000Y-96266000D02*
X198374000Y-96266000D01*
X198374000Y-101346000D01*
X195834000Y-101346000D01*
X195834000Y-96266000D01*
X192068316Y-100549152D02*
X192830220Y-100834866D01*
X192830220Y-100834866D02*
X192068316Y-101120580D01*
X191592125Y-100834866D02*
X190830221Y-100834866D01*
X189592125Y-101215819D02*
X189592125Y-100215819D01*
X189115935Y-100549152D02*
X189115935Y-101215819D01*
X189115935Y-100644390D02*
X189068316Y-100596771D01*
X189068316Y-100596771D02*
X188973078Y-100549152D01*
X188973078Y-100549152D02*
X188830221Y-100549152D01*
X188830221Y-100549152D02*
X188734983Y-100596771D01*
X188734983Y-100596771D02*
X188687364Y-100692009D01*
X188687364Y-100692009D02*
X188687364Y-101215819D01*
X188211173Y-100549152D02*
X188211173Y-101549152D01*
X188211173Y-100596771D02*
X188115935Y-100549152D01*
X188115935Y-100549152D02*
X187925459Y-100549152D01*
X187925459Y-100549152D02*
X187830221Y-100596771D01*
X187830221Y-100596771D02*
X187782602Y-100644390D01*
X187782602Y-100644390D02*
X187734983Y-100739628D01*
X187734983Y-100739628D02*
X187734983Y-101025342D01*
X187734983Y-101025342D02*
X187782602Y-101120580D01*
X187782602Y-101120580D02*
X187830221Y-101168200D01*
X187830221Y-101168200D02*
X187925459Y-101215819D01*
X187925459Y-101215819D02*
X188115935Y-101215819D01*
X188115935Y-101215819D02*
X188211173Y-101168200D01*
X186877840Y-100549152D02*
X186877840Y-101215819D01*
X187306411Y-100549152D02*
X187306411Y-101072961D01*
X187306411Y-101072961D02*
X187258792Y-101168200D01*
X187258792Y-101168200D02*
X187163554Y-101215819D01*
X187163554Y-101215819D02*
X187020697Y-101215819D01*
X187020697Y-101215819D02*
X186925459Y-101168200D01*
X186925459Y-101168200D02*
X186877840Y-101120580D01*
X186544506Y-100549152D02*
X186163554Y-100549152D01*
X186401649Y-100215819D02*
X186401649Y-101072961D01*
X186401649Y-101072961D02*
X186354030Y-101168200D01*
X186354030Y-101168200D02*
X186258792Y-101215819D01*
X186258792Y-101215819D02*
X186163554Y-101215819D01*
X185211172Y-100549152D02*
X184830220Y-100549152D01*
X185068315Y-101215819D02*
X185068315Y-100358676D01*
X185068315Y-100358676D02*
X185020696Y-100263438D01*
X185020696Y-100263438D02*
X184925458Y-100215819D01*
X184925458Y-100215819D02*
X184830220Y-100215819D01*
X184496886Y-101215819D02*
X184496886Y-100549152D01*
X184496886Y-100739628D02*
X184449267Y-100644390D01*
X184449267Y-100644390D02*
X184401648Y-100596771D01*
X184401648Y-100596771D02*
X184306410Y-100549152D01*
X184306410Y-100549152D02*
X184211172Y-100549152D01*
X183734981Y-101215819D02*
X183830219Y-101168200D01*
X183830219Y-101168200D02*
X183877838Y-101120580D01*
X183877838Y-101120580D02*
X183925457Y-101025342D01*
X183925457Y-101025342D02*
X183925457Y-100739628D01*
X183925457Y-100739628D02*
X183877838Y-100644390D01*
X183877838Y-100644390D02*
X183830219Y-100596771D01*
X183830219Y-100596771D02*
X183734981Y-100549152D01*
X183734981Y-100549152D02*
X183592124Y-100549152D01*
X183592124Y-100549152D02*
X183496886Y-100596771D01*
X183496886Y-100596771D02*
X183449267Y-100644390D01*
X183449267Y-100644390D02*
X183401648Y-100739628D01*
X183401648Y-100739628D02*
X183401648Y-101025342D01*
X183401648Y-101025342D02*
X183449267Y-101120580D01*
X183449267Y-101120580D02*
X183496886Y-101168200D01*
X183496886Y-101168200D02*
X183592124Y-101215819D01*
X183592124Y-101215819D02*
X183734981Y-101215819D01*
X182973076Y-101215819D02*
X182973076Y-100549152D01*
X182973076Y-100644390D02*
X182925457Y-100596771D01*
X182925457Y-100596771D02*
X182830219Y-100549152D01*
X182830219Y-100549152D02*
X182687362Y-100549152D01*
X182687362Y-100549152D02*
X182592124Y-100596771D01*
X182592124Y-100596771D02*
X182544505Y-100692009D01*
X182544505Y-100692009D02*
X182544505Y-101215819D01*
X182544505Y-100692009D02*
X182496886Y-100596771D01*
X182496886Y-100596771D02*
X182401648Y-100549152D01*
X182401648Y-100549152D02*
X182258791Y-100549152D01*
X182258791Y-100549152D02*
X182163552Y-100596771D01*
X182163552Y-100596771D02*
X182115933Y-100692009D01*
X182115933Y-100692009D02*
X182115933Y-101215819D01*
X180877838Y-101215819D02*
X180877838Y-100215819D01*
X180877838Y-100215819D02*
X180496886Y-100215819D01*
X180496886Y-100215819D02*
X180401648Y-100263438D01*
X180401648Y-100263438D02*
X180354029Y-100311057D01*
X180354029Y-100311057D02*
X180306410Y-100406295D01*
X180306410Y-100406295D02*
X180306410Y-100549152D01*
X180306410Y-100549152D02*
X180354029Y-100644390D01*
X180354029Y-100644390D02*
X180401648Y-100692009D01*
X180401648Y-100692009D02*
X180496886Y-100739628D01*
X180496886Y-100739628D02*
X180877838Y-100739628D01*
X179877838Y-101215819D02*
X179877838Y-100215819D01*
X179449267Y-101215819D02*
X179449267Y-100692009D01*
X179449267Y-100692009D02*
X179496886Y-100596771D01*
X179496886Y-100596771D02*
X179592124Y-100549152D01*
X179592124Y-100549152D02*
X179734981Y-100549152D01*
X179734981Y-100549152D02*
X179830219Y-100596771D01*
X179830219Y-100596771D02*
X179877838Y-100644390D01*
X178830219Y-101215819D02*
X178925457Y-101168200D01*
X178925457Y-101168200D02*
X178973076Y-101120580D01*
X178973076Y-101120580D02*
X179020695Y-101025342D01*
X179020695Y-101025342D02*
X179020695Y-100739628D01*
X179020695Y-100739628D02*
X178973076Y-100644390D01*
X178973076Y-100644390D02*
X178925457Y-100596771D01*
X178925457Y-100596771D02*
X178830219Y-100549152D01*
X178830219Y-100549152D02*
X178687362Y-100549152D01*
X178687362Y-100549152D02*
X178592124Y-100596771D01*
X178592124Y-100596771D02*
X178544505Y-100644390D01*
X178544505Y-100644390D02*
X178496886Y-100739628D01*
X178496886Y-100739628D02*
X178496886Y-101025342D01*
X178496886Y-101025342D02*
X178544505Y-101120580D01*
X178544505Y-101120580D02*
X178592124Y-101168200D01*
X178592124Y-101168200D02*
X178687362Y-101215819D01*
X178687362Y-101215819D02*
X178830219Y-101215819D01*
X178068314Y-100549152D02*
X178068314Y-101215819D01*
X178068314Y-100644390D02*
X178020695Y-100596771D01*
X178020695Y-100596771D02*
X177925457Y-100549152D01*
X177925457Y-100549152D02*
X177782600Y-100549152D01*
X177782600Y-100549152D02*
X177687362Y-100596771D01*
X177687362Y-100596771D02*
X177639743Y-100692009D01*
X177639743Y-100692009D02*
X177639743Y-101215819D01*
X176782600Y-101168200D02*
X176877838Y-101215819D01*
X176877838Y-101215819D02*
X177068314Y-101215819D01*
X177068314Y-101215819D02*
X177163552Y-101168200D01*
X177163552Y-101168200D02*
X177211171Y-101072961D01*
X177211171Y-101072961D02*
X177211171Y-100692009D01*
X177211171Y-100692009D02*
X177163552Y-100596771D01*
X177163552Y-100596771D02*
X177068314Y-100549152D01*
X177068314Y-100549152D02*
X176877838Y-100549152D01*
X176877838Y-100549152D02*
X176782600Y-100596771D01*
X176782600Y-100596771D02*
X176734981Y-100692009D01*
X176734981Y-100692009D02*
X176734981Y-100787247D01*
X176734981Y-100787247D02*
X177211171Y-100882485D01*
X175258790Y-100215819D02*
X175258790Y-100930104D01*
X175258790Y-100930104D02*
X175306409Y-101072961D01*
X175306409Y-101072961D02*
X175401647Y-101168200D01*
X175401647Y-101168200D02*
X175544504Y-101215819D01*
X175544504Y-101215819D02*
X175639742Y-101215819D01*
X174354028Y-101215819D02*
X174354028Y-100692009D01*
X174354028Y-100692009D02*
X174401647Y-100596771D01*
X174401647Y-100596771D02*
X174496885Y-100549152D01*
X174496885Y-100549152D02*
X174687361Y-100549152D01*
X174687361Y-100549152D02*
X174782599Y-100596771D01*
X174354028Y-101168200D02*
X174449266Y-101215819D01*
X174449266Y-101215819D02*
X174687361Y-101215819D01*
X174687361Y-101215819D02*
X174782599Y-101168200D01*
X174782599Y-101168200D02*
X174830218Y-101072961D01*
X174830218Y-101072961D02*
X174830218Y-100977723D01*
X174830218Y-100977723D02*
X174782599Y-100882485D01*
X174782599Y-100882485D02*
X174687361Y-100834866D01*
X174687361Y-100834866D02*
X174449266Y-100834866D01*
X174449266Y-100834866D02*
X174354028Y-100787247D01*
X173449266Y-101168200D02*
X173544504Y-101215819D01*
X173544504Y-101215819D02*
X173734980Y-101215819D01*
X173734980Y-101215819D02*
X173830218Y-101168200D01*
X173830218Y-101168200D02*
X173877837Y-101120580D01*
X173877837Y-101120580D02*
X173925456Y-101025342D01*
X173925456Y-101025342D02*
X173925456Y-100739628D01*
X173925456Y-100739628D02*
X173877837Y-100644390D01*
X173877837Y-100644390D02*
X173830218Y-100596771D01*
X173830218Y-100596771D02*
X173734980Y-100549152D01*
X173734980Y-100549152D02*
X173544504Y-100549152D01*
X173544504Y-100549152D02*
X173449266Y-100596771D01*
X173020694Y-101215819D02*
X173020694Y-100215819D01*
X172925456Y-100834866D02*
X172639742Y-101215819D01*
X172639742Y-100549152D02*
X173020694Y-100930104D01*
X156571792Y-83467580D02*
X156619411Y-83515200D01*
X156619411Y-83515200D02*
X156762268Y-83562819D01*
X156762268Y-83562819D02*
X156857506Y-83562819D01*
X156857506Y-83562819D02*
X157000363Y-83515200D01*
X157000363Y-83515200D02*
X157095601Y-83419961D01*
X157095601Y-83419961D02*
X157143220Y-83324723D01*
X157143220Y-83324723D02*
X157190839Y-83134247D01*
X157190839Y-83134247D02*
X157190839Y-82991390D01*
X157190839Y-82991390D02*
X157143220Y-82800914D01*
X157143220Y-82800914D02*
X157095601Y-82705676D01*
X157095601Y-82705676D02*
X157000363Y-82610438D01*
X157000363Y-82610438D02*
X156857506Y-82562819D01*
X156857506Y-82562819D02*
X156762268Y-82562819D01*
X156762268Y-82562819D02*
X156619411Y-82610438D01*
X156619411Y-82610438D02*
X156571792Y-82658057D01*
X156143220Y-83562819D02*
X156143220Y-82562819D01*
X156143220Y-83039009D02*
X155571792Y-83039009D01*
X155571792Y-83562819D02*
X155571792Y-82562819D01*
X154952744Y-82991390D02*
X155047982Y-82943771D01*
X155047982Y-82943771D02*
X155095601Y-82896152D01*
X155095601Y-82896152D02*
X155143220Y-82800914D01*
X155143220Y-82800914D02*
X155143220Y-82753295D01*
X155143220Y-82753295D02*
X155095601Y-82658057D01*
X155095601Y-82658057D02*
X155047982Y-82610438D01*
X155047982Y-82610438D02*
X154952744Y-82562819D01*
X154952744Y-82562819D02*
X154762268Y-82562819D01*
X154762268Y-82562819D02*
X154667030Y-82610438D01*
X154667030Y-82610438D02*
X154619411Y-82658057D01*
X154619411Y-82658057D02*
X154571792Y-82753295D01*
X154571792Y-82753295D02*
X154571792Y-82800914D01*
X154571792Y-82800914D02*
X154619411Y-82896152D01*
X154619411Y-82896152D02*
X154667030Y-82943771D01*
X154667030Y-82943771D02*
X154762268Y-82991390D01*
X154762268Y-82991390D02*
X154952744Y-82991390D01*
X154952744Y-82991390D02*
X155047982Y-83039009D01*
X155047982Y-83039009D02*
X155095601Y-83086628D01*
X155095601Y-83086628D02*
X155143220Y-83181866D01*
X155143220Y-83181866D02*
X155143220Y-83372342D01*
X155143220Y-83372342D02*
X155095601Y-83467580D01*
X155095601Y-83467580D02*
X155047982Y-83515200D01*
X155047982Y-83515200D02*
X154952744Y-83562819D01*
X154952744Y-83562819D02*
X154762268Y-83562819D01*
X154762268Y-83562819D02*
X154667030Y-83515200D01*
X154667030Y-83515200D02*
X154619411Y-83467580D01*
X154619411Y-83467580D02*
X154571792Y-83372342D01*
X154571792Y-83372342D02*
X154571792Y-83181866D01*
X154571792Y-83181866D02*
X154619411Y-83086628D01*
X154619411Y-83086628D02*
X154667030Y-83039009D01*
X154667030Y-83039009D02*
X154762268Y-82991390D01*
X176637792Y-83467580D02*
X176685411Y-83515200D01*
X176685411Y-83515200D02*
X176828268Y-83562819D01*
X176828268Y-83562819D02*
X176923506Y-83562819D01*
X176923506Y-83562819D02*
X177066363Y-83515200D01*
X177066363Y-83515200D02*
X177161601Y-83419961D01*
X177161601Y-83419961D02*
X177209220Y-83324723D01*
X177209220Y-83324723D02*
X177256839Y-83134247D01*
X177256839Y-83134247D02*
X177256839Y-82991390D01*
X177256839Y-82991390D02*
X177209220Y-82800914D01*
X177209220Y-82800914D02*
X177161601Y-82705676D01*
X177161601Y-82705676D02*
X177066363Y-82610438D01*
X177066363Y-82610438D02*
X176923506Y-82562819D01*
X176923506Y-82562819D02*
X176828268Y-82562819D01*
X176828268Y-82562819D02*
X176685411Y-82610438D01*
X176685411Y-82610438D02*
X176637792Y-82658057D01*
X176209220Y-83562819D02*
X176209220Y-82562819D01*
X176209220Y-83039009D02*
X175637792Y-83039009D01*
X175637792Y-83562819D02*
X175637792Y-82562819D01*
X174733030Y-82896152D02*
X174733030Y-83562819D01*
X174971125Y-82515200D02*
X175209220Y-83229485D01*
X175209220Y-83229485D02*
X174590173Y-83229485D01*
X153079220Y-90928819D02*
X153079220Y-89928819D01*
X153079220Y-89928819D02*
X152841125Y-89928819D01*
X152841125Y-89928819D02*
X152698268Y-89976438D01*
X152698268Y-89976438D02*
X152603030Y-90071676D01*
X152603030Y-90071676D02*
X152555411Y-90166914D01*
X152555411Y-90166914D02*
X152507792Y-90357390D01*
X152507792Y-90357390D02*
X152507792Y-90500247D01*
X152507792Y-90500247D02*
X152555411Y-90690723D01*
X152555411Y-90690723D02*
X152603030Y-90785961D01*
X152603030Y-90785961D02*
X152698268Y-90881200D01*
X152698268Y-90881200D02*
X152841125Y-90928819D01*
X152841125Y-90928819D02*
X153079220Y-90928819D01*
X152079220Y-90928819D02*
X152079220Y-90262152D01*
X152079220Y-89928819D02*
X152126839Y-89976438D01*
X152126839Y-89976438D02*
X152079220Y-90024057D01*
X152079220Y-90024057D02*
X152031601Y-89976438D01*
X152031601Y-89976438D02*
X152079220Y-89928819D01*
X152079220Y-89928819D02*
X152079220Y-90024057D01*
X151603030Y-90262152D02*
X151603030Y-90928819D01*
X151603030Y-90357390D02*
X151555411Y-90309771D01*
X151555411Y-90309771D02*
X151460173Y-90262152D01*
X151460173Y-90262152D02*
X151317316Y-90262152D01*
X151317316Y-90262152D02*
X151222078Y-90309771D01*
X151222078Y-90309771D02*
X151174459Y-90405009D01*
X151174459Y-90405009D02*
X151174459Y-90928819D01*
X186797792Y-83467580D02*
X186845411Y-83515200D01*
X186845411Y-83515200D02*
X186988268Y-83562819D01*
X186988268Y-83562819D02*
X187083506Y-83562819D01*
X187083506Y-83562819D02*
X187226363Y-83515200D01*
X187226363Y-83515200D02*
X187321601Y-83419961D01*
X187321601Y-83419961D02*
X187369220Y-83324723D01*
X187369220Y-83324723D02*
X187416839Y-83134247D01*
X187416839Y-83134247D02*
X187416839Y-82991390D01*
X187416839Y-82991390D02*
X187369220Y-82800914D01*
X187369220Y-82800914D02*
X187321601Y-82705676D01*
X187321601Y-82705676D02*
X187226363Y-82610438D01*
X187226363Y-82610438D02*
X187083506Y-82562819D01*
X187083506Y-82562819D02*
X186988268Y-82562819D01*
X186988268Y-82562819D02*
X186845411Y-82610438D01*
X186845411Y-82610438D02*
X186797792Y-82658057D01*
X186369220Y-83562819D02*
X186369220Y-82562819D01*
X186369220Y-83039009D02*
X185797792Y-83039009D01*
X185797792Y-83562819D02*
X185797792Y-82562819D01*
X185369220Y-82658057D02*
X185321601Y-82610438D01*
X185321601Y-82610438D02*
X185226363Y-82562819D01*
X185226363Y-82562819D02*
X184988268Y-82562819D01*
X184988268Y-82562819D02*
X184893030Y-82610438D01*
X184893030Y-82610438D02*
X184845411Y-82658057D01*
X184845411Y-82658057D02*
X184797792Y-82753295D01*
X184797792Y-82753295D02*
X184797792Y-82848533D01*
X184797792Y-82848533D02*
X184845411Y-82991390D01*
X184845411Y-82991390D02*
X185416839Y-83562819D01*
X185416839Y-83562819D02*
X184797792Y-83562819D01*
X152888792Y-85626580D02*
X152936411Y-85674200D01*
X152936411Y-85674200D02*
X153079268Y-85721819D01*
X153079268Y-85721819D02*
X153174506Y-85721819D01*
X153174506Y-85721819D02*
X153317363Y-85674200D01*
X153317363Y-85674200D02*
X153412601Y-85578961D01*
X153412601Y-85578961D02*
X153460220Y-85483723D01*
X153460220Y-85483723D02*
X153507839Y-85293247D01*
X153507839Y-85293247D02*
X153507839Y-85150390D01*
X153507839Y-85150390D02*
X153460220Y-84959914D01*
X153460220Y-84959914D02*
X153412601Y-84864676D01*
X153412601Y-84864676D02*
X153317363Y-84769438D01*
X153317363Y-84769438D02*
X153174506Y-84721819D01*
X153174506Y-84721819D02*
X153079268Y-84721819D01*
X153079268Y-84721819D02*
X152936411Y-84769438D01*
X152936411Y-84769438D02*
X152888792Y-84817057D01*
X151984030Y-85721819D02*
X152460220Y-85721819D01*
X152460220Y-85721819D02*
X152460220Y-84721819D01*
X151650696Y-85721819D02*
X151650696Y-84721819D01*
X151079268Y-85721819D02*
X151507839Y-85150390D01*
X151079268Y-84721819D02*
X151650696Y-85293247D01*
X217595220Y-97024819D02*
X217595220Y-96024819D01*
X217119030Y-96358152D02*
X217119030Y-97024819D01*
X217119030Y-96453390D02*
X217071411Y-96405771D01*
X217071411Y-96405771D02*
X216976173Y-96358152D01*
X216976173Y-96358152D02*
X216833316Y-96358152D01*
X216833316Y-96358152D02*
X216738078Y-96405771D01*
X216738078Y-96405771D02*
X216690459Y-96501009D01*
X216690459Y-96501009D02*
X216690459Y-97024819D01*
X216214268Y-96358152D02*
X216214268Y-97358152D01*
X216214268Y-96405771D02*
X216119030Y-96358152D01*
X216119030Y-96358152D02*
X215928554Y-96358152D01*
X215928554Y-96358152D02*
X215833316Y-96405771D01*
X215833316Y-96405771D02*
X215785697Y-96453390D01*
X215785697Y-96453390D02*
X215738078Y-96548628D01*
X215738078Y-96548628D02*
X215738078Y-96834342D01*
X215738078Y-96834342D02*
X215785697Y-96929580D01*
X215785697Y-96929580D02*
X215833316Y-96977200D01*
X215833316Y-96977200D02*
X215928554Y-97024819D01*
X215928554Y-97024819D02*
X216119030Y-97024819D01*
X216119030Y-97024819D02*
X216214268Y-96977200D01*
X214880935Y-96358152D02*
X214880935Y-97024819D01*
X215309506Y-96358152D02*
X215309506Y-96881961D01*
X215309506Y-96881961D02*
X215261887Y-96977200D01*
X215261887Y-96977200D02*
X215166649Y-97024819D01*
X215166649Y-97024819D02*
X215023792Y-97024819D01*
X215023792Y-97024819D02*
X214928554Y-96977200D01*
X214928554Y-96977200D02*
X214880935Y-96929580D01*
X214547601Y-96358152D02*
X214166649Y-96358152D01*
X214404744Y-96024819D02*
X214404744Y-96881961D01*
X214404744Y-96881961D02*
X214357125Y-96977200D01*
X214357125Y-96977200D02*
X214261887Y-97024819D01*
X214261887Y-97024819D02*
X214166649Y-97024819D01*
X213214267Y-96358152D02*
X212833315Y-96358152D01*
X213071410Y-97024819D02*
X213071410Y-96167676D01*
X213071410Y-96167676D02*
X213023791Y-96072438D01*
X213023791Y-96072438D02*
X212928553Y-96024819D01*
X212928553Y-96024819D02*
X212833315Y-96024819D01*
X212499981Y-97024819D02*
X212499981Y-96358152D01*
X212499981Y-96548628D02*
X212452362Y-96453390D01*
X212452362Y-96453390D02*
X212404743Y-96405771D01*
X212404743Y-96405771D02*
X212309505Y-96358152D01*
X212309505Y-96358152D02*
X212214267Y-96358152D01*
X211738076Y-97024819D02*
X211833314Y-96977200D01*
X211833314Y-96977200D02*
X211880933Y-96929580D01*
X211880933Y-96929580D02*
X211928552Y-96834342D01*
X211928552Y-96834342D02*
X211928552Y-96548628D01*
X211928552Y-96548628D02*
X211880933Y-96453390D01*
X211880933Y-96453390D02*
X211833314Y-96405771D01*
X211833314Y-96405771D02*
X211738076Y-96358152D01*
X211738076Y-96358152D02*
X211595219Y-96358152D01*
X211595219Y-96358152D02*
X211499981Y-96405771D01*
X211499981Y-96405771D02*
X211452362Y-96453390D01*
X211452362Y-96453390D02*
X211404743Y-96548628D01*
X211404743Y-96548628D02*
X211404743Y-96834342D01*
X211404743Y-96834342D02*
X211452362Y-96929580D01*
X211452362Y-96929580D02*
X211499981Y-96977200D01*
X211499981Y-96977200D02*
X211595219Y-97024819D01*
X211595219Y-97024819D02*
X211738076Y-97024819D01*
X210976171Y-97024819D02*
X210976171Y-96358152D01*
X210976171Y-96453390D02*
X210928552Y-96405771D01*
X210928552Y-96405771D02*
X210833314Y-96358152D01*
X210833314Y-96358152D02*
X210690457Y-96358152D01*
X210690457Y-96358152D02*
X210595219Y-96405771D01*
X210595219Y-96405771D02*
X210547600Y-96501009D01*
X210547600Y-96501009D02*
X210547600Y-97024819D01*
X210547600Y-96501009D02*
X210499981Y-96405771D01*
X210499981Y-96405771D02*
X210404743Y-96358152D01*
X210404743Y-96358152D02*
X210261886Y-96358152D01*
X210261886Y-96358152D02*
X210166647Y-96405771D01*
X210166647Y-96405771D02*
X210119028Y-96501009D01*
X210119028Y-96501009D02*
X210119028Y-97024819D01*
X209023790Y-96024819D02*
X208452362Y-96024819D01*
X208738076Y-97024819D02*
X208738076Y-96024819D01*
X207738076Y-96977200D02*
X207833314Y-97024819D01*
X207833314Y-97024819D02*
X208023790Y-97024819D01*
X208023790Y-97024819D02*
X208119028Y-96977200D01*
X208119028Y-96977200D02*
X208166647Y-96881961D01*
X208166647Y-96881961D02*
X208166647Y-96501009D01*
X208166647Y-96501009D02*
X208119028Y-96405771D01*
X208119028Y-96405771D02*
X208023790Y-96358152D01*
X208023790Y-96358152D02*
X207833314Y-96358152D01*
X207833314Y-96358152D02*
X207738076Y-96405771D01*
X207738076Y-96405771D02*
X207690457Y-96501009D01*
X207690457Y-96501009D02*
X207690457Y-96596247D01*
X207690457Y-96596247D02*
X208166647Y-96691485D01*
X207309504Y-96977200D02*
X207214266Y-97024819D01*
X207214266Y-97024819D02*
X207023790Y-97024819D01*
X207023790Y-97024819D02*
X206928552Y-96977200D01*
X206928552Y-96977200D02*
X206880933Y-96881961D01*
X206880933Y-96881961D02*
X206880933Y-96834342D01*
X206880933Y-96834342D02*
X206928552Y-96739104D01*
X206928552Y-96739104D02*
X207023790Y-96691485D01*
X207023790Y-96691485D02*
X207166647Y-96691485D01*
X207166647Y-96691485D02*
X207261885Y-96643866D01*
X207261885Y-96643866D02*
X207309504Y-96548628D01*
X207309504Y-96548628D02*
X207309504Y-96501009D01*
X207309504Y-96501009D02*
X207261885Y-96405771D01*
X207261885Y-96405771D02*
X207166647Y-96358152D01*
X207166647Y-96358152D02*
X207023790Y-96358152D01*
X207023790Y-96358152D02*
X206928552Y-96405771D01*
X206595218Y-96358152D02*
X206214266Y-96358152D01*
X206452361Y-96024819D02*
X206452361Y-96881961D01*
X206452361Y-96881961D02*
X206404742Y-96977200D01*
X206404742Y-96977200D02*
X206309504Y-97024819D01*
X206309504Y-97024819D02*
X206214266Y-97024819D01*
X205119027Y-97024819D02*
X205119027Y-96024819D01*
X205119027Y-96024819D02*
X204738075Y-96024819D01*
X204738075Y-96024819D02*
X204642837Y-96072438D01*
X204642837Y-96072438D02*
X204595218Y-96120057D01*
X204595218Y-96120057D02*
X204547599Y-96215295D01*
X204547599Y-96215295D02*
X204547599Y-96358152D01*
X204547599Y-96358152D02*
X204595218Y-96453390D01*
X204595218Y-96453390D02*
X204642837Y-96501009D01*
X204642837Y-96501009D02*
X204738075Y-96548628D01*
X204738075Y-96548628D02*
X205119027Y-96548628D01*
X203976170Y-97024819D02*
X204071408Y-96977200D01*
X204071408Y-96977200D02*
X204119027Y-96929580D01*
X204119027Y-96929580D02*
X204166646Y-96834342D01*
X204166646Y-96834342D02*
X204166646Y-96548628D01*
X204166646Y-96548628D02*
X204119027Y-96453390D01*
X204119027Y-96453390D02*
X204071408Y-96405771D01*
X204071408Y-96405771D02*
X203976170Y-96358152D01*
X203976170Y-96358152D02*
X203833313Y-96358152D01*
X203833313Y-96358152D02*
X203738075Y-96405771D01*
X203738075Y-96405771D02*
X203690456Y-96453390D01*
X203690456Y-96453390D02*
X203642837Y-96548628D01*
X203642837Y-96548628D02*
X203642837Y-96834342D01*
X203642837Y-96834342D02*
X203690456Y-96929580D01*
X203690456Y-96929580D02*
X203738075Y-96977200D01*
X203738075Y-96977200D02*
X203833313Y-97024819D01*
X203833313Y-97024819D02*
X203976170Y-97024819D01*
X203214265Y-97024819D02*
X203214265Y-96358152D01*
X203214265Y-96024819D02*
X203261884Y-96072438D01*
X203261884Y-96072438D02*
X203214265Y-96120057D01*
X203214265Y-96120057D02*
X203166646Y-96072438D01*
X203166646Y-96072438D02*
X203214265Y-96024819D01*
X203214265Y-96024819D02*
X203214265Y-96120057D01*
X202738075Y-96358152D02*
X202738075Y-97024819D01*
X202738075Y-96453390D02*
X202690456Y-96405771D01*
X202690456Y-96405771D02*
X202595218Y-96358152D01*
X202595218Y-96358152D02*
X202452361Y-96358152D01*
X202452361Y-96358152D02*
X202357123Y-96405771D01*
X202357123Y-96405771D02*
X202309504Y-96501009D01*
X202309504Y-96501009D02*
X202309504Y-97024819D01*
X201976170Y-96358152D02*
X201595218Y-96358152D01*
X201833313Y-96024819D02*
X201833313Y-96881961D01*
X201833313Y-96881961D02*
X201785694Y-96977200D01*
X201785694Y-96977200D02*
X201690456Y-97024819D01*
X201690456Y-97024819D02*
X201595218Y-97024819D01*
X200499979Y-96643866D02*
X199738075Y-96643866D01*
X199261884Y-96358152D02*
X198499980Y-96643866D01*
X198499980Y-96643866D02*
X199261884Y-96929580D01*
D11*
X145031734Y-93241895D02*
X145031734Y-92441895D01*
X145031734Y-92441895D02*
X144574591Y-93241895D01*
X144574591Y-93241895D02*
X144574591Y-92441895D01*
X143736496Y-93165704D02*
X143774592Y-93203800D01*
X143774592Y-93203800D02*
X143888877Y-93241895D01*
X143888877Y-93241895D02*
X143965068Y-93241895D01*
X143965068Y-93241895D02*
X144079354Y-93203800D01*
X144079354Y-93203800D02*
X144155544Y-93127609D01*
X144155544Y-93127609D02*
X144193639Y-93051419D01*
X144193639Y-93051419D02*
X144231735Y-92899038D01*
X144231735Y-92899038D02*
X144231735Y-92784752D01*
X144231735Y-92784752D02*
X144193639Y-92632371D01*
X144193639Y-92632371D02*
X144155544Y-92556180D01*
X144155544Y-92556180D02*
X144079354Y-92479990D01*
X144079354Y-92479990D02*
X143965068Y-92441895D01*
X143965068Y-92441895D02*
X143888877Y-92441895D01*
X143888877Y-92441895D02*
X143774592Y-92479990D01*
X143774592Y-92479990D02*
X143736496Y-92518085D01*
X145031734Y-85748895D02*
X145031734Y-84948895D01*
X145031734Y-84948895D02*
X144574591Y-85748895D01*
X144574591Y-85748895D02*
X144574591Y-84948895D01*
X143736496Y-85672704D02*
X143774592Y-85710800D01*
X143774592Y-85710800D02*
X143888877Y-85748895D01*
X143888877Y-85748895D02*
X143965068Y-85748895D01*
X143965068Y-85748895D02*
X144079354Y-85710800D01*
X144079354Y-85710800D02*
X144155544Y-85634609D01*
X144155544Y-85634609D02*
X144193639Y-85558419D01*
X144193639Y-85558419D02*
X144231735Y-85406038D01*
X144231735Y-85406038D02*
X144231735Y-85291752D01*
X144231735Y-85291752D02*
X144193639Y-85139371D01*
X144193639Y-85139371D02*
X144155544Y-85063180D01*
X144155544Y-85063180D02*
X144079354Y-84986990D01*
X144079354Y-84986990D02*
X143965068Y-84948895D01*
X143965068Y-84948895D02*
X143888877Y-84948895D01*
X143888877Y-84948895D02*
X143774592Y-84986990D01*
X143774592Y-84986990D02*
X143736496Y-85025085D01*
X145031734Y-88161895D02*
X145031734Y-87361895D01*
X145031734Y-87361895D02*
X144574591Y-88161895D01*
X144574591Y-88161895D02*
X144574591Y-87361895D01*
X143736496Y-88085704D02*
X143774592Y-88123800D01*
X143774592Y-88123800D02*
X143888877Y-88161895D01*
X143888877Y-88161895D02*
X143965068Y-88161895D01*
X143965068Y-88161895D02*
X144079354Y-88123800D01*
X144079354Y-88123800D02*
X144155544Y-88047609D01*
X144155544Y-88047609D02*
X144193639Y-87971419D01*
X144193639Y-87971419D02*
X144231735Y-87819038D01*
X144231735Y-87819038D02*
X144231735Y-87704752D01*
X144231735Y-87704752D02*
X144193639Y-87552371D01*
X144193639Y-87552371D02*
X144155544Y-87476180D01*
X144155544Y-87476180D02*
X144079354Y-87399990D01*
X144079354Y-87399990D02*
X143965068Y-87361895D01*
X143965068Y-87361895D02*
X143888877Y-87361895D01*
X143888877Y-87361895D02*
X143774592Y-87399990D01*
X143774592Y-87399990D02*
X143736496Y-87438085D01*
D10*
X161524792Y-83467580D02*
X161572411Y-83515200D01*
X161572411Y-83515200D02*
X161715268Y-83562819D01*
X161715268Y-83562819D02*
X161810506Y-83562819D01*
X161810506Y-83562819D02*
X161953363Y-83515200D01*
X161953363Y-83515200D02*
X162048601Y-83419961D01*
X162048601Y-83419961D02*
X162096220Y-83324723D01*
X162096220Y-83324723D02*
X162143839Y-83134247D01*
X162143839Y-83134247D02*
X162143839Y-82991390D01*
X162143839Y-82991390D02*
X162096220Y-82800914D01*
X162096220Y-82800914D02*
X162048601Y-82705676D01*
X162048601Y-82705676D02*
X161953363Y-82610438D01*
X161953363Y-82610438D02*
X161810506Y-82562819D01*
X161810506Y-82562819D02*
X161715268Y-82562819D01*
X161715268Y-82562819D02*
X161572411Y-82610438D01*
X161572411Y-82610438D02*
X161524792Y-82658057D01*
X161096220Y-83562819D02*
X161096220Y-82562819D01*
X161096220Y-83039009D02*
X160524792Y-83039009D01*
X160524792Y-83562819D02*
X160524792Y-82562819D01*
X160143839Y-82562819D02*
X159477173Y-82562819D01*
X159477173Y-82562819D02*
X159905744Y-83562819D01*
X153968220Y-88261819D02*
X153968220Y-87261819D01*
X153968220Y-87261819D02*
X153730125Y-87261819D01*
X153730125Y-87261819D02*
X153587268Y-87309438D01*
X153587268Y-87309438D02*
X153492030Y-87404676D01*
X153492030Y-87404676D02*
X153444411Y-87499914D01*
X153444411Y-87499914D02*
X153396792Y-87690390D01*
X153396792Y-87690390D02*
X153396792Y-87833247D01*
X153396792Y-87833247D02*
X153444411Y-88023723D01*
X153444411Y-88023723D02*
X153492030Y-88118961D01*
X153492030Y-88118961D02*
X153587268Y-88214200D01*
X153587268Y-88214200D02*
X153730125Y-88261819D01*
X153730125Y-88261819D02*
X153968220Y-88261819D01*
X152825363Y-88261819D02*
X152920601Y-88214200D01*
X152920601Y-88214200D02*
X152968220Y-88166580D01*
X152968220Y-88166580D02*
X153015839Y-88071342D01*
X153015839Y-88071342D02*
X153015839Y-87785628D01*
X153015839Y-87785628D02*
X152968220Y-87690390D01*
X152968220Y-87690390D02*
X152920601Y-87642771D01*
X152920601Y-87642771D02*
X152825363Y-87595152D01*
X152825363Y-87595152D02*
X152682506Y-87595152D01*
X152682506Y-87595152D02*
X152587268Y-87642771D01*
X152587268Y-87642771D02*
X152539649Y-87690390D01*
X152539649Y-87690390D02*
X152492030Y-87785628D01*
X152492030Y-87785628D02*
X152492030Y-88071342D01*
X152492030Y-88071342D02*
X152539649Y-88166580D01*
X152539649Y-88166580D02*
X152587268Y-88214200D01*
X152587268Y-88214200D02*
X152682506Y-88261819D01*
X152682506Y-88261819D02*
X152825363Y-88261819D01*
X151634887Y-87595152D02*
X151634887Y-88261819D01*
X152063458Y-87595152D02*
X152063458Y-88118961D01*
X152063458Y-88118961D02*
X152015839Y-88214200D01*
X152015839Y-88214200D02*
X151920601Y-88261819D01*
X151920601Y-88261819D02*
X151777744Y-88261819D01*
X151777744Y-88261819D02*
X151682506Y-88214200D01*
X151682506Y-88214200D02*
X151634887Y-88166580D01*
X151301553Y-87595152D02*
X150920601Y-87595152D01*
X151158696Y-87261819D02*
X151158696Y-88118961D01*
X151158696Y-88118961D02*
X151111077Y-88214200D01*
X151111077Y-88214200D02*
X151015839Y-88261819D01*
X151015839Y-88261819D02*
X150920601Y-88261819D01*
X181590792Y-83467580D02*
X181638411Y-83515200D01*
X181638411Y-83515200D02*
X181781268Y-83562819D01*
X181781268Y-83562819D02*
X181876506Y-83562819D01*
X181876506Y-83562819D02*
X182019363Y-83515200D01*
X182019363Y-83515200D02*
X182114601Y-83419961D01*
X182114601Y-83419961D02*
X182162220Y-83324723D01*
X182162220Y-83324723D02*
X182209839Y-83134247D01*
X182209839Y-83134247D02*
X182209839Y-82991390D01*
X182209839Y-82991390D02*
X182162220Y-82800914D01*
X182162220Y-82800914D02*
X182114601Y-82705676D01*
X182114601Y-82705676D02*
X182019363Y-82610438D01*
X182019363Y-82610438D02*
X181876506Y-82562819D01*
X181876506Y-82562819D02*
X181781268Y-82562819D01*
X181781268Y-82562819D02*
X181638411Y-82610438D01*
X181638411Y-82610438D02*
X181590792Y-82658057D01*
X181162220Y-83562819D02*
X181162220Y-82562819D01*
X181162220Y-83039009D02*
X180590792Y-83039009D01*
X180590792Y-83562819D02*
X180590792Y-82562819D01*
X180209839Y-82562819D02*
X179590792Y-82562819D01*
X179590792Y-82562819D02*
X179924125Y-82943771D01*
X179924125Y-82943771D02*
X179781268Y-82943771D01*
X179781268Y-82943771D02*
X179686030Y-82991390D01*
X179686030Y-82991390D02*
X179638411Y-83039009D01*
X179638411Y-83039009D02*
X179590792Y-83134247D01*
X179590792Y-83134247D02*
X179590792Y-83372342D01*
X179590792Y-83372342D02*
X179638411Y-83467580D01*
X179638411Y-83467580D02*
X179686030Y-83515200D01*
X179686030Y-83515200D02*
X179781268Y-83562819D01*
X179781268Y-83562819D02*
X180066982Y-83562819D01*
X180066982Y-83562819D02*
X180162220Y-83515200D01*
X180162220Y-83515200D02*
X180209839Y-83467580D01*
X191750792Y-83467580D02*
X191798411Y-83515200D01*
X191798411Y-83515200D02*
X191941268Y-83562819D01*
X191941268Y-83562819D02*
X192036506Y-83562819D01*
X192036506Y-83562819D02*
X192179363Y-83515200D01*
X192179363Y-83515200D02*
X192274601Y-83419961D01*
X192274601Y-83419961D02*
X192322220Y-83324723D01*
X192322220Y-83324723D02*
X192369839Y-83134247D01*
X192369839Y-83134247D02*
X192369839Y-82991390D01*
X192369839Y-82991390D02*
X192322220Y-82800914D01*
X192322220Y-82800914D02*
X192274601Y-82705676D01*
X192274601Y-82705676D02*
X192179363Y-82610438D01*
X192179363Y-82610438D02*
X192036506Y-82562819D01*
X192036506Y-82562819D02*
X191941268Y-82562819D01*
X191941268Y-82562819D02*
X191798411Y-82610438D01*
X191798411Y-82610438D02*
X191750792Y-82658057D01*
X191322220Y-83562819D02*
X191322220Y-82562819D01*
X191322220Y-83039009D02*
X190750792Y-83039009D01*
X190750792Y-83562819D02*
X190750792Y-82562819D01*
X189750792Y-83562819D02*
X190322220Y-83562819D01*
X190036506Y-83562819D02*
X190036506Y-82562819D01*
X190036506Y-82562819D02*
X190131744Y-82705676D01*
X190131744Y-82705676D02*
X190226982Y-82800914D01*
X190226982Y-82800914D02*
X190322220Y-82848533D01*
D11*
X145031734Y-90828895D02*
X145031734Y-90028895D01*
X145031734Y-90028895D02*
X144574591Y-90828895D01*
X144574591Y-90828895D02*
X144574591Y-90028895D01*
X143736496Y-90752704D02*
X143774592Y-90790800D01*
X143774592Y-90790800D02*
X143888877Y-90828895D01*
X143888877Y-90828895D02*
X143965068Y-90828895D01*
X143965068Y-90828895D02*
X144079354Y-90790800D01*
X144079354Y-90790800D02*
X144155544Y-90714609D01*
X144155544Y-90714609D02*
X144193639Y-90638419D01*
X144193639Y-90638419D02*
X144231735Y-90486038D01*
X144231735Y-90486038D02*
X144231735Y-90371752D01*
X144231735Y-90371752D02*
X144193639Y-90219371D01*
X144193639Y-90219371D02*
X144155544Y-90143180D01*
X144155544Y-90143180D02*
X144079354Y-90066990D01*
X144079354Y-90066990D02*
X143965068Y-90028895D01*
X143965068Y-90028895D02*
X143888877Y-90028895D01*
X143888877Y-90028895D02*
X143774592Y-90066990D01*
X143774592Y-90066990D02*
X143736496Y-90105085D01*
D10*
X171684792Y-83467580D02*
X171732411Y-83515200D01*
X171732411Y-83515200D02*
X171875268Y-83562819D01*
X171875268Y-83562819D02*
X171970506Y-83562819D01*
X171970506Y-83562819D02*
X172113363Y-83515200D01*
X172113363Y-83515200D02*
X172208601Y-83419961D01*
X172208601Y-83419961D02*
X172256220Y-83324723D01*
X172256220Y-83324723D02*
X172303839Y-83134247D01*
X172303839Y-83134247D02*
X172303839Y-82991390D01*
X172303839Y-82991390D02*
X172256220Y-82800914D01*
X172256220Y-82800914D02*
X172208601Y-82705676D01*
X172208601Y-82705676D02*
X172113363Y-82610438D01*
X172113363Y-82610438D02*
X171970506Y-82562819D01*
X171970506Y-82562819D02*
X171875268Y-82562819D01*
X171875268Y-82562819D02*
X171732411Y-82610438D01*
X171732411Y-82610438D02*
X171684792Y-82658057D01*
X171256220Y-83562819D02*
X171256220Y-82562819D01*
X171256220Y-83039009D02*
X170684792Y-83039009D01*
X170684792Y-83562819D02*
X170684792Y-82562819D01*
X169732411Y-82562819D02*
X170208601Y-82562819D01*
X170208601Y-82562819D02*
X170256220Y-83039009D01*
X170256220Y-83039009D02*
X170208601Y-82991390D01*
X170208601Y-82991390D02*
X170113363Y-82943771D01*
X170113363Y-82943771D02*
X169875268Y-82943771D01*
X169875268Y-82943771D02*
X169780030Y-82991390D01*
X169780030Y-82991390D02*
X169732411Y-83039009D01*
X169732411Y-83039009D02*
X169684792Y-83134247D01*
X169684792Y-83134247D02*
X169684792Y-83372342D01*
X169684792Y-83372342D02*
X169732411Y-83467580D01*
X169732411Y-83467580D02*
X169780030Y-83515200D01*
X169780030Y-83515200D02*
X169875268Y-83562819D01*
X169875268Y-83562819D02*
X170113363Y-83562819D01*
X170113363Y-83562819D02*
X170208601Y-83515200D01*
X170208601Y-83515200D02*
X170256220Y-83467580D01*
X166731792Y-83467580D02*
X166779411Y-83515200D01*
X166779411Y-83515200D02*
X166922268Y-83562819D01*
X166922268Y-83562819D02*
X167017506Y-83562819D01*
X167017506Y-83562819D02*
X167160363Y-83515200D01*
X167160363Y-83515200D02*
X167255601Y-83419961D01*
X167255601Y-83419961D02*
X167303220Y-83324723D01*
X167303220Y-83324723D02*
X167350839Y-83134247D01*
X167350839Y-83134247D02*
X167350839Y-82991390D01*
X167350839Y-82991390D02*
X167303220Y-82800914D01*
X167303220Y-82800914D02*
X167255601Y-82705676D01*
X167255601Y-82705676D02*
X167160363Y-82610438D01*
X167160363Y-82610438D02*
X167017506Y-82562819D01*
X167017506Y-82562819D02*
X166922268Y-82562819D01*
X166922268Y-82562819D02*
X166779411Y-82610438D01*
X166779411Y-82610438D02*
X166731792Y-82658057D01*
X166303220Y-83562819D02*
X166303220Y-82562819D01*
X166303220Y-83039009D02*
X165731792Y-83039009D01*
X165731792Y-83562819D02*
X165731792Y-82562819D01*
X164827030Y-82562819D02*
X165017506Y-82562819D01*
X165017506Y-82562819D02*
X165112744Y-82610438D01*
X165112744Y-82610438D02*
X165160363Y-82658057D01*
X165160363Y-82658057D02*
X165255601Y-82800914D01*
X165255601Y-82800914D02*
X165303220Y-82991390D01*
X165303220Y-82991390D02*
X165303220Y-83372342D01*
X165303220Y-83372342D02*
X165255601Y-83467580D01*
X165255601Y-83467580D02*
X165207982Y-83515200D01*
X165207982Y-83515200D02*
X165112744Y-83562819D01*
X165112744Y-83562819D02*
X164922268Y-83562819D01*
X164922268Y-83562819D02*
X164827030Y-83515200D01*
X164827030Y-83515200D02*
X164779411Y-83467580D01*
X164779411Y-83467580D02*
X164731792Y-83372342D01*
X164731792Y-83372342D02*
X164731792Y-83134247D01*
X164731792Y-83134247D02*
X164779411Y-83039009D01*
X164779411Y-83039009D02*
X164827030Y-82991390D01*
X164827030Y-82991390D02*
X164922268Y-82943771D01*
X164922268Y-82943771D02*
X165112744Y-82943771D01*
X165112744Y-82943771D02*
X165207982Y-82991390D01*
X165207982Y-82991390D02*
X165255601Y-83039009D01*
X165255601Y-83039009D02*
X165303220Y-83134247D01*
X158714839Y-92802152D02*
X158000554Y-92802152D01*
X158429125Y-92373580D02*
X158714839Y-93659295D01*
X158095792Y-93230723D02*
X158810077Y-93230723D01*
X158381506Y-93659295D02*
X158095792Y-92373580D01*
X157095792Y-93373580D02*
X157143411Y-93421200D01*
X157143411Y-93421200D02*
X157286268Y-93468819D01*
X157286268Y-93468819D02*
X157381506Y-93468819D01*
X157381506Y-93468819D02*
X157524363Y-93421200D01*
X157524363Y-93421200D02*
X157619601Y-93325961D01*
X157619601Y-93325961D02*
X157667220Y-93230723D01*
X157667220Y-93230723D02*
X157714839Y-93040247D01*
X157714839Y-93040247D02*
X157714839Y-92897390D01*
X157714839Y-92897390D02*
X157667220Y-92706914D01*
X157667220Y-92706914D02*
X157619601Y-92611676D01*
X157619601Y-92611676D02*
X157524363Y-92516438D01*
X157524363Y-92516438D02*
X157381506Y-92468819D01*
X157381506Y-92468819D02*
X157286268Y-92468819D01*
X157286268Y-92468819D02*
X157143411Y-92516438D01*
X157143411Y-92516438D02*
X157095792Y-92564057D01*
X156714839Y-93421200D02*
X156571982Y-93468819D01*
X156571982Y-93468819D02*
X156333887Y-93468819D01*
X156333887Y-93468819D02*
X156238649Y-93421200D01*
X156238649Y-93421200D02*
X156191030Y-93373580D01*
X156191030Y-93373580D02*
X156143411Y-93278342D01*
X156143411Y-93278342D02*
X156143411Y-93183104D01*
X156143411Y-93183104D02*
X156191030Y-93087866D01*
X156191030Y-93087866D02*
X156238649Y-93040247D01*
X156238649Y-93040247D02*
X156333887Y-92992628D01*
X156333887Y-92992628D02*
X156524363Y-92945009D01*
X156524363Y-92945009D02*
X156619601Y-92897390D01*
X156619601Y-92897390D02*
X156667220Y-92849771D01*
X156667220Y-92849771D02*
X156714839Y-92754533D01*
X156714839Y-92754533D02*
X156714839Y-92659295D01*
X156714839Y-92659295D02*
X156667220Y-92564057D01*
X156667220Y-92564057D02*
X156619601Y-92516438D01*
X156619601Y-92516438D02*
X156524363Y-92468819D01*
X156524363Y-92468819D02*
X156286268Y-92468819D01*
X156286268Y-92468819D02*
X156143411Y-92516438D01*
X155000554Y-92421200D02*
X155857696Y-93706914D01*
X154714839Y-93421200D02*
X154571982Y-93468819D01*
X154571982Y-93468819D02*
X154333887Y-93468819D01*
X154333887Y-93468819D02*
X154238649Y-93421200D01*
X154238649Y-93421200D02*
X154191030Y-93373580D01*
X154191030Y-93373580D02*
X154143411Y-93278342D01*
X154143411Y-93278342D02*
X154143411Y-93183104D01*
X154143411Y-93183104D02*
X154191030Y-93087866D01*
X154191030Y-93087866D02*
X154238649Y-93040247D01*
X154238649Y-93040247D02*
X154333887Y-92992628D01*
X154333887Y-92992628D02*
X154524363Y-92945009D01*
X154524363Y-92945009D02*
X154619601Y-92897390D01*
X154619601Y-92897390D02*
X154667220Y-92849771D01*
X154667220Y-92849771D02*
X154714839Y-92754533D01*
X154714839Y-92754533D02*
X154714839Y-92659295D01*
X154714839Y-92659295D02*
X154667220Y-92564057D01*
X154667220Y-92564057D02*
X154619601Y-92516438D01*
X154619601Y-92516438D02*
X154524363Y-92468819D01*
X154524363Y-92468819D02*
X154286268Y-92468819D01*
X154286268Y-92468819D02*
X154143411Y-92516438D01*
X153714839Y-93468819D02*
X153714839Y-92468819D01*
X153714839Y-92945009D02*
X153143411Y-92945009D01*
X153143411Y-93468819D02*
X153143411Y-92468819D01*
X152667220Y-93468819D02*
X152667220Y-92468819D01*
X152667220Y-92468819D02*
X152429125Y-92468819D01*
X152429125Y-92468819D02*
X152286268Y-92516438D01*
X152286268Y-92516438D02*
X152191030Y-92611676D01*
X152191030Y-92611676D02*
X152143411Y-92706914D01*
X152143411Y-92706914D02*
X152095792Y-92897390D01*
X152095792Y-92897390D02*
X152095792Y-93040247D01*
X152095792Y-93040247D02*
X152143411Y-93230723D01*
X152143411Y-93230723D02*
X152191030Y-93325961D01*
X152191030Y-93325961D02*
X152286268Y-93421200D01*
X152286268Y-93421200D02*
X152429125Y-93468819D01*
X152429125Y-93468819D02*
X152667220Y-93468819D01*
X151667220Y-93468819D02*
X151667220Y-92468819D01*
X151667220Y-92468819D02*
X151095792Y-93468819D01*
X151095792Y-93468819D02*
X151095792Y-92468819D01*
X201448152Y-87058999D02*
X201448152Y-86820904D01*
X201448152Y-86820904D02*
X200019580Y-86820904D01*
X200019580Y-86820904D02*
X200019580Y-87058999D01*
X201114819Y-87439952D02*
X200114819Y-87439952D01*
X200114819Y-87439952D02*
X200829104Y-87773285D01*
X200829104Y-87773285D02*
X200114819Y-88106618D01*
X200114819Y-88106618D02*
X201114819Y-88106618D01*
X201019580Y-89154237D02*
X201067200Y-89106618D01*
X201067200Y-89106618D02*
X201114819Y-88963761D01*
X201114819Y-88963761D02*
X201114819Y-88868523D01*
X201114819Y-88868523D02*
X201067200Y-88725666D01*
X201067200Y-88725666D02*
X200971961Y-88630428D01*
X200971961Y-88630428D02*
X200876723Y-88582809D01*
X200876723Y-88582809D02*
X200686247Y-88535190D01*
X200686247Y-88535190D02*
X200543390Y-88535190D01*
X200543390Y-88535190D02*
X200352914Y-88582809D01*
X200352914Y-88582809D02*
X200257676Y-88630428D01*
X200257676Y-88630428D02*
X200162438Y-88725666D01*
X200162438Y-88725666D02*
X200114819Y-88868523D01*
X200114819Y-88868523D02*
X200114819Y-88963761D01*
X200114819Y-88963761D02*
X200162438Y-89106618D01*
X200162438Y-89106618D02*
X200210057Y-89154237D01*
X201114819Y-89582809D02*
X200114819Y-89582809D01*
X200114819Y-89582809D02*
X200114819Y-89963761D01*
X200114819Y-89963761D02*
X200162438Y-90058999D01*
X200162438Y-90058999D02*
X200210057Y-90106618D01*
X200210057Y-90106618D02*
X200305295Y-90154237D01*
X200305295Y-90154237D02*
X200448152Y-90154237D01*
X200448152Y-90154237D02*
X200543390Y-90106618D01*
X200543390Y-90106618D02*
X200591009Y-90058999D01*
X200591009Y-90058999D02*
X200638628Y-89963761D01*
X200638628Y-89963761D02*
X200638628Y-89582809D01*
X200114819Y-91011380D02*
X200114819Y-90820904D01*
X200114819Y-90820904D02*
X200162438Y-90725666D01*
X200162438Y-90725666D02*
X200210057Y-90678047D01*
X200210057Y-90678047D02*
X200352914Y-90582809D01*
X200352914Y-90582809D02*
X200543390Y-90535190D01*
X200543390Y-90535190D02*
X200924342Y-90535190D01*
X200924342Y-90535190D02*
X201019580Y-90582809D01*
X201019580Y-90582809D02*
X201067200Y-90630428D01*
X201067200Y-90630428D02*
X201114819Y-90725666D01*
X201114819Y-90725666D02*
X201114819Y-90916142D01*
X201114819Y-90916142D02*
X201067200Y-91011380D01*
X201067200Y-91011380D02*
X201019580Y-91058999D01*
X201019580Y-91058999D02*
X200924342Y-91106618D01*
X200924342Y-91106618D02*
X200686247Y-91106618D01*
X200686247Y-91106618D02*
X200591009Y-91058999D01*
X200591009Y-91058999D02*
X200543390Y-91011380D01*
X200543390Y-91011380D02*
X200495771Y-90916142D01*
X200495771Y-90916142D02*
X200495771Y-90725666D01*
X200495771Y-90725666D02*
X200543390Y-90630428D01*
X200543390Y-90630428D02*
X200591009Y-90582809D01*
X200591009Y-90582809D02*
X200686247Y-90535190D01*
X200448152Y-91963761D02*
X201114819Y-91963761D01*
X200067200Y-91725666D02*
X200781485Y-91487571D01*
X200781485Y-91487571D02*
X200781485Y-92106618D01*
X201114819Y-92535190D02*
X201114819Y-92725666D01*
X201114819Y-92725666D02*
X201067200Y-92820904D01*
X201067200Y-92820904D02*
X201019580Y-92868523D01*
X201019580Y-92868523D02*
X200876723Y-92963761D01*
X200876723Y-92963761D02*
X200686247Y-93011380D01*
X200686247Y-93011380D02*
X200305295Y-93011380D01*
X200305295Y-93011380D02*
X200210057Y-92963761D01*
X200210057Y-92963761D02*
X200162438Y-92916142D01*
X200162438Y-92916142D02*
X200114819Y-92820904D01*
X200114819Y-92820904D02*
X200114819Y-92630428D01*
X200114819Y-92630428D02*
X200162438Y-92535190D01*
X200162438Y-92535190D02*
X200210057Y-92487571D01*
X200210057Y-92487571D02*
X200305295Y-92439952D01*
X200305295Y-92439952D02*
X200543390Y-92439952D01*
X200543390Y-92439952D02*
X200638628Y-92487571D01*
X200638628Y-92487571D02*
X200686247Y-92535190D01*
X200686247Y-92535190D02*
X200733866Y-92630428D01*
X200733866Y-92630428D02*
X200733866Y-92820904D01*
X200733866Y-92820904D02*
X200686247Y-92916142D01*
X200686247Y-92916142D02*
X200638628Y-92963761D01*
X200638628Y-92963761D02*
X200543390Y-93011380D01*
X200210057Y-93392333D02*
X200162438Y-93439952D01*
X200162438Y-93439952D02*
X200114819Y-93535190D01*
X200114819Y-93535190D02*
X200114819Y-93773285D01*
X200114819Y-93773285D02*
X200162438Y-93868523D01*
X200162438Y-93868523D02*
X200210057Y-93916142D01*
X200210057Y-93916142D02*
X200305295Y-93963761D01*
X200305295Y-93963761D02*
X200400533Y-93963761D01*
X200400533Y-93963761D02*
X200543390Y-93916142D01*
X200543390Y-93916142D02*
X201114819Y-93344714D01*
X201114819Y-93344714D02*
X201114819Y-93963761D01*
X200114819Y-94249476D02*
X200114819Y-94820904D01*
X201114819Y-94535190D02*
X200114819Y-94535190D01*
X201448152Y-95059000D02*
X201448152Y-95297095D01*
X201448152Y-95297095D02*
X200019580Y-95297095D01*
X200019580Y-95297095D02*
X200019580Y-95059000D01*
%TO.C,G\u002A\u002A\u002A*%
G36*
X210206481Y-91150130D02*
G01*
X210284106Y-91155115D01*
X210336272Y-91163298D01*
X210365522Y-91174855D01*
X210374398Y-91189964D01*
X210369685Y-91197438D01*
X210350103Y-91205730D01*
X210312596Y-91213359D01*
X210254273Y-91220615D01*
X210172238Y-91227785D01*
X210063598Y-91235158D01*
X209925460Y-91243022D01*
X209754930Y-91251664D01*
X209695745Y-91254654D01*
X209559540Y-91262279D01*
X209425547Y-91270703D01*
X209302031Y-91279361D01*
X209197256Y-91287689D01*
X209119488Y-91295120D01*
X209042840Y-91302769D01*
X208927050Y-91311542D01*
X208815670Y-91316999D01*
X208714836Y-91319049D01*
X208630688Y-91317599D01*
X208569364Y-91312557D01*
X208537001Y-91303833D01*
X208528851Y-91297050D01*
X208525967Y-91275919D01*
X208553284Y-91255736D01*
X208606992Y-91238522D01*
X208683280Y-91226295D01*
X209158837Y-91184124D01*
X209825534Y-91151841D01*
X209964685Y-91149048D01*
X210100855Y-91148167D01*
X210206481Y-91150130D01*
G37*
G36*
X210280739Y-86858167D02*
G01*
X210356850Y-86863814D01*
X210447162Y-86872494D01*
X210540406Y-86883217D01*
X210560462Y-86885539D01*
X210642450Y-86892973D01*
X210751116Y-86900700D01*
X210879979Y-86908354D01*
X211022559Y-86915571D01*
X211172372Y-86921987D01*
X211322939Y-86927236D01*
X211486971Y-86932430D01*
X211628174Y-86937433D01*
X211740264Y-86942216D01*
X211826412Y-86947038D01*
X211889788Y-86952156D01*
X211933562Y-86957831D01*
X211960905Y-86964321D01*
X211974985Y-86971884D01*
X211978974Y-86980780D01*
X211978861Y-86983114D01*
X211962446Y-87005233D01*
X211916321Y-87022015D01*
X211837765Y-87034493D01*
X211818691Y-87036609D01*
X211772802Y-87041368D01*
X211731205Y-87044660D01*
X211688247Y-87046463D01*
X211638279Y-87046758D01*
X211575649Y-87045527D01*
X211494706Y-87042749D01*
X211389799Y-87038404D01*
X211255277Y-87032474D01*
X211254183Y-87032425D01*
X211075184Y-87023309D01*
X210898088Y-87012166D01*
X210728461Y-86999486D01*
X210571866Y-86985755D01*
X210433869Y-86971461D01*
X210320033Y-86957092D01*
X210235924Y-86943136D01*
X210233637Y-86942672D01*
X210178460Y-86928577D01*
X210150815Y-86912566D01*
X210143255Y-86890401D01*
X210143813Y-86881455D01*
X210153344Y-86865459D01*
X210181240Y-86858165D01*
X210235924Y-86856491D01*
X210280739Y-86858167D01*
G37*
G36*
X209582137Y-89326818D02*
G01*
X209618035Y-89342416D01*
X209619949Y-89344391D01*
X209630420Y-89361494D01*
X209627245Y-89378431D01*
X209607825Y-89396189D01*
X209569559Y-89415755D01*
X209509848Y-89438115D01*
X209426090Y-89464256D01*
X209315687Y-89495164D01*
X209176038Y-89531827D01*
X209004543Y-89575231D01*
X208916692Y-89597353D01*
X208787227Y-89630508D01*
X208671272Y-89660867D01*
X208572982Y-89687308D01*
X208496511Y-89708705D01*
X208446015Y-89723934D01*
X208425649Y-89731872D01*
X208422074Y-89743045D01*
X208442555Y-89756759D01*
X208502479Y-89773534D01*
X208591724Y-89798574D01*
X208696336Y-89827965D01*
X208809264Y-89859724D01*
X208923458Y-89891866D01*
X209031867Y-89922405D01*
X209127439Y-89949358D01*
X209203124Y-89970739D01*
X209251872Y-89984565D01*
X209296794Y-89997611D01*
X209459528Y-90048843D01*
X209615397Y-90103830D01*
X209759820Y-90160588D01*
X209888217Y-90217131D01*
X209996007Y-90271475D01*
X210078610Y-90321637D01*
X210131445Y-90365630D01*
X210141391Y-90378462D01*
X210150775Y-90419762D01*
X210125752Y-90462179D01*
X210065930Y-90506556D01*
X210047041Y-90516889D01*
X209986675Y-90541784D01*
X209909411Y-90562960D01*
X209811568Y-90581022D01*
X209689468Y-90596571D01*
X209539432Y-90610210D01*
X209357779Y-90622542D01*
X209331236Y-90624117D01*
X209134095Y-90634921D01*
X208963218Y-90642635D01*
X208820086Y-90647238D01*
X208706182Y-90648707D01*
X208622986Y-90647021D01*
X208571982Y-90642160D01*
X208554652Y-90634102D01*
X208554863Y-90630414D01*
X208566146Y-90609178D01*
X208596293Y-90590472D01*
X208647653Y-90573908D01*
X208722573Y-90559094D01*
X208823402Y-90545641D01*
X208952489Y-90533159D01*
X209112180Y-90521258D01*
X209304826Y-90509548D01*
X209342878Y-90507383D01*
X209531942Y-90495248D01*
X209687575Y-90482586D01*
X209811361Y-90469160D01*
X209904883Y-90454734D01*
X209969724Y-90439073D01*
X210007468Y-90421941D01*
X210019697Y-90403103D01*
X210013483Y-90393680D01*
X209979617Y-90370589D01*
X209920904Y-90339815D01*
X209842602Y-90303738D01*
X209749967Y-90264732D01*
X209648257Y-90225176D01*
X209542727Y-90187446D01*
X209460682Y-90160446D01*
X209343814Y-90123852D01*
X209212891Y-90084337D01*
X209078643Y-90045134D01*
X208951803Y-90009474D01*
X208832765Y-89976467D01*
X208670967Y-89930046D01*
X208540045Y-89890102D01*
X208437817Y-89855833D01*
X208362103Y-89826437D01*
X208310722Y-89801112D01*
X208281492Y-89779055D01*
X208272233Y-89759463D01*
X208275219Y-89730496D01*
X208286877Y-89703358D01*
X208310438Y-89678352D01*
X208349125Y-89654078D01*
X208406160Y-89629140D01*
X208484766Y-89602138D01*
X208588165Y-89571673D01*
X208719581Y-89536349D01*
X208882236Y-89494765D01*
X208988256Y-89467631D01*
X209105040Y-89436718D01*
X209208720Y-89408187D01*
X209293998Y-89383535D01*
X209355577Y-89364259D01*
X209388157Y-89351854D01*
X209402528Y-89345240D01*
X209461600Y-89328755D01*
X209525731Y-89322439D01*
X209582137Y-89326818D01*
G37*
G36*
X209749298Y-85408497D02*
G01*
X209735108Y-85439368D01*
X209733264Y-85441542D01*
X209731787Y-85470453D01*
X209752468Y-85511933D01*
X209790100Y-85557944D01*
X209839475Y-85600449D01*
X209887313Y-85634486D01*
X210107953Y-85565277D01*
X210144338Y-85554018D01*
X210289605Y-85513354D01*
X210416062Y-85486922D01*
X210534107Y-85473415D01*
X210654140Y-85471526D01*
X210786559Y-85479947D01*
X210786778Y-85479967D01*
X210935356Y-85497923D01*
X211073542Y-85524515D01*
X211209073Y-85562238D01*
X211349686Y-85613587D01*
X211503118Y-85681057D01*
X211677107Y-85767143D01*
X211799896Y-85832816D01*
X211973401Y-85937105D01*
X212128771Y-86047602D01*
X212276235Y-86171820D01*
X212426020Y-86317273D01*
X212529891Y-86431745D01*
X212644731Y-86586483D01*
X212726362Y-86737815D01*
X212775703Y-86887240D01*
X212777125Y-86893528D01*
X212791815Y-86948197D01*
X212808421Y-86973381D01*
X212834224Y-86973961D01*
X212876504Y-86954817D01*
X212895437Y-86945551D01*
X212987443Y-86909019D01*
X213104741Y-86871955D01*
X213239475Y-86836059D01*
X213383792Y-86803029D01*
X213529838Y-86774563D01*
X213669760Y-86752359D01*
X213795703Y-86738116D01*
X213899814Y-86733532D01*
X213979319Y-86744447D01*
X214065200Y-86782233D01*
X214132654Y-86842252D01*
X214174349Y-86919535D01*
X214174210Y-86931459D01*
X214173993Y-86950102D01*
X214150444Y-87005644D01*
X214103373Y-87075377D01*
X214035667Y-87155622D01*
X213950214Y-87242699D01*
X213849902Y-87332931D01*
X213848896Y-87333784D01*
X213785016Y-87387821D01*
X213735513Y-87428981D01*
X213691795Y-87463984D01*
X213645273Y-87499551D01*
X213587354Y-87542401D01*
X213509447Y-87599257D01*
X213336585Y-87725142D01*
X213381385Y-87780565D01*
X213418387Y-87830706D01*
X213480427Y-87931824D01*
X213542147Y-88050821D01*
X213600915Y-88180869D01*
X213654096Y-88315141D01*
X213699059Y-88446811D01*
X213733171Y-88569051D01*
X213753798Y-88675034D01*
X213758308Y-88757933D01*
X213755434Y-88794396D01*
X213746930Y-88828825D01*
X213726308Y-88846528D01*
X213685428Y-88858772D01*
X213671386Y-88861548D01*
X213611233Y-88865357D01*
X213524207Y-88861857D01*
X213408429Y-88850883D01*
X213262020Y-88832268D01*
X213083099Y-88805848D01*
X213036069Y-88798975D01*
X212960008Y-88789639D01*
X212898522Y-88784273D01*
X212861719Y-88783879D01*
X212843729Y-88786970D01*
X212835435Y-88794775D01*
X212844516Y-88811651D01*
X212873893Y-88842483D01*
X212926488Y-88892156D01*
X213037053Y-88995161D01*
X213153814Y-88939994D01*
X213159591Y-88937282D01*
X213237477Y-88905864D01*
X213291712Y-88896494D01*
X213326049Y-88909255D01*
X213344243Y-88944231D01*
X213348434Y-88966794D01*
X213355187Y-89028684D01*
X213360751Y-89110381D01*
X213364849Y-89202722D01*
X213367200Y-89296540D01*
X213367528Y-89382668D01*
X213365552Y-89451943D01*
X213362308Y-89482725D01*
X213360994Y-89495196D01*
X213346812Y-89541905D01*
X213322422Y-89568537D01*
X213275647Y-89586957D01*
X213249937Y-89593390D01*
X213185560Y-89605903D01*
X213098182Y-89620508D01*
X212995181Y-89636176D01*
X212883937Y-89651879D01*
X212771828Y-89666589D01*
X212666232Y-89679277D01*
X212574529Y-89688916D01*
X212504098Y-89694476D01*
X212475410Y-89695844D01*
X212419389Y-89695666D01*
X212388296Y-89688989D01*
X212374829Y-89674696D01*
X212373566Y-89669589D01*
X212379473Y-89630724D01*
X212402003Y-89574096D01*
X212436885Y-89507988D01*
X212479845Y-89440684D01*
X212526611Y-89380464D01*
X212557705Y-89344067D01*
X212585623Y-89309083D01*
X212596489Y-89292104D01*
X212596489Y-89292054D01*
X212582335Y-89279203D01*
X212548224Y-89260921D01*
X212494292Y-89228371D01*
X212415000Y-89157248D01*
X212331997Y-89058204D01*
X212304179Y-89022139D01*
X212275832Y-88988342D01*
X212261393Y-88975110D01*
X212261348Y-88975108D01*
X212244690Y-88986092D01*
X212209850Y-89014984D01*
X212164311Y-89055583D01*
X212107960Y-89106444D01*
X212012854Y-89187049D01*
X211929614Y-89249278D01*
X211851003Y-89298751D01*
X211830308Y-89311252D01*
X211783564Y-89348445D01*
X211767160Y-89379854D01*
X211776547Y-89408553D01*
X211802678Y-89453313D01*
X211837681Y-89500865D01*
X211873623Y-89539324D01*
X211886885Y-89555386D01*
X211916881Y-89594146D01*
X211958979Y-89649601D01*
X212008655Y-89715836D01*
X212018281Y-89728797D01*
X212079300Y-89815516D01*
X212124664Y-89891927D01*
X212161750Y-89971789D01*
X212197933Y-90068859D01*
X212201097Y-90078005D01*
X212260383Y-90255648D01*
X212306498Y-90409717D01*
X212340958Y-90548320D01*
X212365279Y-90679568D01*
X212380976Y-90811570D01*
X212389565Y-90952436D01*
X212392561Y-91110276D01*
X212392789Y-91202436D01*
X212391963Y-91288180D01*
X212388984Y-91353484D01*
X212382850Y-91406483D01*
X212372557Y-91455311D01*
X212357102Y-91508102D01*
X212335482Y-91572989D01*
X212304950Y-91659361D01*
X212233355Y-91833825D01*
X212155368Y-91981704D01*
X212066400Y-92109059D01*
X211961864Y-92221950D01*
X211837170Y-92326438D01*
X211687730Y-92428584D01*
X211542114Y-92506976D01*
X211349429Y-92580713D01*
X211134517Y-92635402D01*
X210902254Y-92669545D01*
X210872334Y-92671603D01*
X210800808Y-92674184D01*
X210702665Y-92676106D01*
X210583148Y-92677391D01*
X210447500Y-92678058D01*
X210300963Y-92678130D01*
X210148781Y-92677625D01*
X209996197Y-92676566D01*
X209848452Y-92674972D01*
X209710791Y-92672864D01*
X209588455Y-92670264D01*
X209486688Y-92667191D01*
X209410732Y-92663667D01*
X209323897Y-92657729D01*
X209121597Y-92640084D01*
X208886601Y-92615057D01*
X208618465Y-92582597D01*
X208316743Y-92542651D01*
X207980990Y-92495165D01*
X207964889Y-92492830D01*
X207830920Y-92473619D01*
X207672358Y-92451190D01*
X207498339Y-92426818D01*
X207317995Y-92401777D01*
X207140462Y-92377341D01*
X206974874Y-92354786D01*
X206833312Y-92335622D01*
X206691511Y-92316287D01*
X206575205Y-92300046D01*
X206479224Y-92285980D01*
X206398401Y-92273171D01*
X206327565Y-92260700D01*
X206261548Y-92247648D01*
X206195180Y-92233097D01*
X206123293Y-92216127D01*
X206040716Y-92195820D01*
X205942282Y-92171257D01*
X205908435Y-92162791D01*
X205772013Y-92128273D01*
X205663920Y-92100009D01*
X205579198Y-92076503D01*
X205512886Y-92056258D01*
X205460025Y-92037779D01*
X205415655Y-92019571D01*
X205374816Y-92000138D01*
X205358202Y-91991491D01*
X205302187Y-91959914D01*
X205240529Y-91922614D01*
X205182325Y-91885358D01*
X205136676Y-91853910D01*
X205112678Y-91834037D01*
X205108872Y-91830365D01*
X205082428Y-91809807D01*
X205042074Y-91781243D01*
X205034016Y-91775637D01*
X204981078Y-91735221D01*
X204936167Y-91695965D01*
X204893897Y-91658270D01*
X204853061Y-91627153D01*
X204841725Y-91619075D01*
X204783418Y-91563699D01*
X204715998Y-91481180D01*
X204642351Y-91376286D01*
X204565364Y-91253787D01*
X204487923Y-91118452D01*
X204412914Y-90975050D01*
X204343224Y-90828350D01*
X204281738Y-90683121D01*
X204274293Y-90662720D01*
X204248240Y-90559849D01*
X204228728Y-90426016D01*
X204216114Y-90264277D01*
X204210756Y-90077684D01*
X204213025Y-89934008D01*
X204224394Y-89814613D01*
X204247674Y-89712073D01*
X204285663Y-89617405D01*
X204341158Y-89521629D01*
X204416957Y-89415766D01*
X204478129Y-89342650D01*
X204562214Y-89253139D01*
X204658438Y-89158358D01*
X204758424Y-89066275D01*
X204853793Y-88984855D01*
X204936167Y-88922066D01*
X204951174Y-88911501D01*
X204987875Y-88884424D01*
X205006771Y-88868529D01*
X205020849Y-88856557D01*
X205065669Y-88829083D01*
X205131237Y-88794739D01*
X205210055Y-88757194D01*
X205294624Y-88720116D01*
X205377445Y-88687173D01*
X205390490Y-88682395D01*
X205506093Y-88645381D01*
X205645844Y-88608008D01*
X205800004Y-88572539D01*
X205958838Y-88541237D01*
X206112606Y-88516364D01*
X206121082Y-88515201D01*
X206174791Y-88508394D01*
X206257801Y-88498382D01*
X206365502Y-88485702D01*
X206493285Y-88470889D01*
X206636542Y-88454478D01*
X206790661Y-88437004D01*
X206951035Y-88419003D01*
X207095605Y-88402836D01*
X207333695Y-88376103D01*
X207556824Y-88350914D01*
X207762476Y-88327559D01*
X207948135Y-88306328D01*
X208111284Y-88287509D01*
X208249407Y-88271393D01*
X208359988Y-88258269D01*
X208440511Y-88248425D01*
X208488460Y-88242152D01*
X208505419Y-88239812D01*
X208539655Y-88238803D01*
X208552624Y-88253383D01*
X208554652Y-88291206D01*
X208554652Y-88349690D01*
X208329600Y-88371517D01*
X208297193Y-88374739D01*
X208200334Y-88384891D01*
X208080763Y-88397948D01*
X207947111Y-88412945D01*
X207808011Y-88428919D01*
X207672094Y-88444906D01*
X207642962Y-88448366D01*
X207490682Y-88466082D01*
X207326221Y-88484707D01*
X207161382Y-88502932D01*
X207007972Y-88519450D01*
X206877793Y-88532951D01*
X206813001Y-88539553D01*
X206554290Y-88567634D01*
X206326172Y-88595665D01*
X206124837Y-88624404D01*
X205946474Y-88654611D01*
X205787271Y-88687046D01*
X205643418Y-88722469D01*
X205511104Y-88761640D01*
X205386518Y-88805317D01*
X205265848Y-88854260D01*
X205151791Y-88910078D01*
X205006083Y-88999191D01*
X204864438Y-89104225D01*
X204730920Y-89220945D01*
X204609597Y-89345115D01*
X204504535Y-89472501D01*
X204419798Y-89598866D01*
X204359454Y-89719976D01*
X204327569Y-89831595D01*
X204325859Y-89843834D01*
X204319513Y-89922625D01*
X204316608Y-90023693D01*
X204316990Y-90136353D01*
X204320503Y-90249923D01*
X204326994Y-90353717D01*
X204336309Y-90437051D01*
X204350341Y-90511952D01*
X204375184Y-90604211D01*
X204411073Y-90704920D01*
X204460602Y-90821218D01*
X204526364Y-90960242D01*
X204552944Y-91013693D01*
X204655597Y-91202800D01*
X204755445Y-91358295D01*
X204853304Y-91481361D01*
X204949992Y-91573180D01*
X204970314Y-91589557D01*
X205006106Y-91619710D01*
X205024292Y-91636998D01*
X205041633Y-91652952D01*
X205083158Y-91684929D01*
X205140718Y-91726549D01*
X205206994Y-91772724D01*
X205274669Y-91818368D01*
X205336426Y-91858394D01*
X205384948Y-91887714D01*
X205431897Y-91909985D01*
X205512022Y-91940291D01*
X205609562Y-91971646D01*
X205715164Y-92000845D01*
X205812127Y-92025538D01*
X205934042Y-92056717D01*
X206053292Y-92087331D01*
X206154096Y-92113337D01*
X206225943Y-92130098D01*
X206332845Y-92151563D01*
X206455920Y-92173617D01*
X206585047Y-92194458D01*
X206710107Y-92212287D01*
X206770650Y-92220370D01*
X206892836Y-92237143D01*
X207038242Y-92257529D01*
X207199634Y-92280495D01*
X207369779Y-92305010D01*
X207541444Y-92330042D01*
X207707397Y-92354558D01*
X207736046Y-92358821D01*
X207990538Y-92396467D01*
X208215156Y-92429069D01*
X208414430Y-92456999D01*
X208592889Y-92480634D01*
X208755061Y-92500346D01*
X208905475Y-92516511D01*
X209048659Y-92529503D01*
X209189144Y-92539697D01*
X209331457Y-92547466D01*
X209480127Y-92553186D01*
X209639683Y-92557231D01*
X209814654Y-92559976D01*
X210009569Y-92561795D01*
X210228956Y-92563062D01*
X210309182Y-92563434D01*
X210474918Y-92564043D01*
X210611120Y-92564147D01*
X210721836Y-92563584D01*
X210811116Y-92562191D01*
X210883009Y-92559808D01*
X210941563Y-92556273D01*
X210990829Y-92551425D01*
X211034853Y-92545102D01*
X211077687Y-92537142D01*
X211123378Y-92527384D01*
X211197892Y-92510380D01*
X211305462Y-92482616D01*
X211394747Y-92453946D01*
X211476340Y-92420793D01*
X211560829Y-92379577D01*
X211713479Y-92287546D01*
X211876373Y-92153061D01*
X212013834Y-91994337D01*
X212125528Y-91811844D01*
X212211120Y-91606054D01*
X212270278Y-91377440D01*
X212279270Y-91323320D01*
X212293214Y-91131539D01*
X212284196Y-90913201D01*
X212252212Y-90668179D01*
X212251033Y-90661391D01*
X212234657Y-90585186D01*
X212209843Y-90488632D01*
X212179013Y-90379529D01*
X212144592Y-90265679D01*
X212109001Y-90154882D01*
X212074665Y-90054940D01*
X212044006Y-89973654D01*
X212019447Y-89918824D01*
X212000548Y-89887351D01*
X211959290Y-89827001D01*
X211906313Y-89754767D01*
X211848149Y-89679275D01*
X211791334Y-89609154D01*
X211742403Y-89553031D01*
X211723062Y-89531718D01*
X211682996Y-89485151D01*
X211655118Y-89449552D01*
X211628673Y-89411797D01*
X211459683Y-89448962D01*
X211402334Y-89460663D01*
X211292688Y-89479930D01*
X211167604Y-89499107D01*
X211035443Y-89517142D01*
X210904563Y-89532984D01*
X210783322Y-89545578D01*
X210680081Y-89553873D01*
X210603196Y-89556816D01*
X210562562Y-89554948D01*
X210480394Y-89545851D01*
X210386176Y-89530917D01*
X210293290Y-89512077D01*
X210237205Y-89499362D01*
X210137279Y-89477324D01*
X210042304Y-89457041D01*
X209966984Y-89441684D01*
X209889252Y-89421203D01*
X209794068Y-89387299D01*
X209694346Y-89345009D01*
X209599734Y-89298744D01*
X209519886Y-89252918D01*
X209464452Y-89211942D01*
X209458621Y-89206648D01*
X209424289Y-89179648D01*
X209401907Y-89168650D01*
X209398613Y-89168021D01*
X209372502Y-89152544D01*
X209336624Y-89122819D01*
X209321739Y-89109116D01*
X209276873Y-89068203D01*
X209218946Y-89015690D01*
X209156739Y-88959546D01*
X209121500Y-88927772D01*
X209068141Y-88879467D01*
X209027495Y-88842433D01*
X209006340Y-88822828D01*
X208996337Y-88813991D01*
X208957149Y-88788082D01*
X208918078Y-88771173D01*
X208892907Y-88769718D01*
X208890633Y-88770304D01*
X208861227Y-88772897D01*
X208801479Y-88776168D01*
X208715251Y-88779965D01*
X208606407Y-88784138D01*
X208478811Y-88788536D01*
X208336325Y-88793008D01*
X208182813Y-88797404D01*
X208019243Y-88802101D01*
X207723404Y-88812074D01*
X207459602Y-88823311D01*
X207225680Y-88836147D01*
X207019477Y-88850913D01*
X206838838Y-88867942D01*
X206681602Y-88887568D01*
X206545612Y-88910123D01*
X206428710Y-88935941D01*
X206328737Y-88965354D01*
X206243534Y-88998695D01*
X206170945Y-89036297D01*
X206108809Y-89078493D01*
X206054970Y-89125616D01*
X206030897Y-89150792D01*
X205974872Y-89230729D01*
X205953711Y-89306255D01*
X205967325Y-89376613D01*
X206015627Y-89441049D01*
X206098527Y-89498807D01*
X206177698Y-89537953D01*
X206276186Y-89577581D01*
X206388685Y-89613541D01*
X206519445Y-89646905D01*
X206672717Y-89678742D01*
X206852751Y-89710126D01*
X207063796Y-89742126D01*
X207078939Y-89744298D01*
X207242068Y-89767997D01*
X207373740Y-89787945D01*
X207477229Y-89804894D01*
X207555811Y-89819595D01*
X207612761Y-89832799D01*
X207651355Y-89845257D01*
X207674866Y-89857719D01*
X207686572Y-89870938D01*
X207689746Y-89885663D01*
X207689363Y-89895668D01*
X207685333Y-89911466D01*
X207684431Y-89911578D01*
X207660168Y-89912855D01*
X207607016Y-89915135D01*
X207530341Y-89918203D01*
X207435513Y-89921843D01*
X207327897Y-89925839D01*
X206974874Y-89938743D01*
X206801350Y-90013305D01*
X206767844Y-90027915D01*
X206614911Y-90101883D01*
X206486334Y-90178866D01*
X206373152Y-90264764D01*
X206266402Y-90365479D01*
X206241957Y-90391718D01*
X206183307Y-90469590D01*
X206157509Y-90536087D01*
X206164612Y-90592511D01*
X206204661Y-90640163D01*
X206277703Y-90680345D01*
X206335468Y-90700463D01*
X206419136Y-90716435D01*
X206514135Y-90718894D01*
X206627578Y-90707885D01*
X206766577Y-90683454D01*
X206833955Y-90671798D01*
X206941593Y-90658618D01*
X207059825Y-90648989D01*
X207182131Y-90643005D01*
X207301988Y-90640760D01*
X207412878Y-90642349D01*
X207508279Y-90647864D01*
X207581671Y-90657400D01*
X207626533Y-90671052D01*
X207678052Y-90699583D01*
X207635358Y-90726679D01*
X207634384Y-90727275D01*
X207595935Y-90740746D01*
X207526404Y-90755365D01*
X207429784Y-90770617D01*
X207310068Y-90785988D01*
X207171248Y-90800962D01*
X207017318Y-90815025D01*
X206852270Y-90827662D01*
X206836602Y-90828762D01*
X206735449Y-90836892D01*
X206660483Y-90845655D01*
X206603664Y-90856542D01*
X206556950Y-90871043D01*
X206512298Y-90890648D01*
X206479128Y-90908283D01*
X206397314Y-90961239D01*
X206316884Y-91024267D01*
X206248019Y-91088985D01*
X206200899Y-91147015D01*
X206161872Y-91227839D01*
X206149770Y-91313483D01*
X206171373Y-91390312D01*
X206225997Y-91456114D01*
X206312956Y-91508678D01*
X206387933Y-91536934D01*
X206496700Y-91569877D01*
X206626310Y-91603372D01*
X206769321Y-91635744D01*
X206918291Y-91665317D01*
X207065778Y-91690416D01*
X207204339Y-91709365D01*
X207255995Y-91715033D01*
X207418346Y-91729662D01*
X207610296Y-91743150D01*
X207827692Y-91755373D01*
X208066380Y-91766206D01*
X208322205Y-91775525D01*
X208591013Y-91783206D01*
X208868649Y-91789124D01*
X209150960Y-91793154D01*
X209433790Y-91795172D01*
X209712987Y-91795053D01*
X209984395Y-91792673D01*
X210143723Y-91790392D01*
X210352188Y-91786735D01*
X210530151Y-91782565D01*
X210680481Y-91777680D01*
X210806043Y-91771875D01*
X210909705Y-91764948D01*
X210994333Y-91756693D01*
X211062795Y-91746908D01*
X211117957Y-91735389D01*
X211162686Y-91721933D01*
X211199848Y-91706335D01*
X211306662Y-91649566D01*
X211412893Y-91584185D01*
X211510001Y-91515892D01*
X211592220Y-91449041D01*
X211653786Y-91387985D01*
X211688931Y-91337078D01*
X211696954Y-91320200D01*
X211718031Y-91283691D01*
X211732679Y-91269137D01*
X211735864Y-91267973D01*
X211754390Y-91244998D01*
X211780866Y-91198178D01*
X211811972Y-91134850D01*
X211844391Y-91062348D01*
X211874804Y-90988009D01*
X211899893Y-90919168D01*
X211916338Y-90863160D01*
X211939290Y-90726470D01*
X211941063Y-90571784D01*
X211914735Y-90420162D01*
X211859226Y-90268767D01*
X211773455Y-90114759D01*
X211656342Y-89955302D01*
X211506806Y-89787557D01*
X211474947Y-89752847D01*
X211429301Y-89691527D01*
X211414076Y-89647456D01*
X211429154Y-89620383D01*
X211453029Y-89623458D01*
X211494736Y-89648944D01*
X211548551Y-89692400D01*
X211609311Y-89749007D01*
X211671855Y-89813943D01*
X211731020Y-89882389D01*
X211781645Y-89949524D01*
X211804675Y-89982189D01*
X211838273Y-90027124D01*
X211861338Y-90054607D01*
X211866905Y-90061118D01*
X211891751Y-90101893D01*
X211922782Y-90164590D01*
X211956181Y-90240257D01*
X211988127Y-90319940D01*
X212014801Y-90394689D01*
X212032385Y-90455551D01*
X212033259Y-90459447D01*
X212044257Y-90546273D01*
X212046180Y-90653022D01*
X212039753Y-90766438D01*
X212025702Y-90873264D01*
X212004753Y-90960242D01*
X212001339Y-90970247D01*
X211974901Y-91038453D01*
X211941437Y-91114392D01*
X211905841Y-91187883D01*
X211873005Y-91248743D01*
X211847824Y-91286788D01*
X211841047Y-91295532D01*
X211815138Y-91334612D01*
X211786068Y-91383869D01*
X211772934Y-91403867D01*
X211723462Y-91459633D01*
X211652247Y-91525277D01*
X211565734Y-91595918D01*
X211470370Y-91666679D01*
X211372600Y-91732678D01*
X211278868Y-91789036D01*
X211195622Y-91830874D01*
X211163313Y-91842013D01*
X211119382Y-91851812D01*
X211061735Y-91860324D01*
X210988215Y-91867632D01*
X210896663Y-91873817D01*
X210784920Y-91878962D01*
X210650828Y-91883147D01*
X210492229Y-91886456D01*
X210306964Y-91888969D01*
X210092876Y-91890769D01*
X209847805Y-91891937D01*
X209569593Y-91892556D01*
X209507069Y-91892621D01*
X209210445Y-91892483D01*
X208944577Y-91891479D01*
X208705673Y-91889495D01*
X208489943Y-91886419D01*
X208293595Y-91882135D01*
X208112839Y-91876531D01*
X207943883Y-91869492D01*
X207782937Y-91860905D01*
X207626209Y-91850655D01*
X207469909Y-91838630D01*
X207310246Y-91824714D01*
X207302525Y-91824003D01*
X207067195Y-91798740D01*
X206860851Y-91768735D01*
X206677538Y-91732826D01*
X206511302Y-91689851D01*
X206356186Y-91638649D01*
X206318170Y-91623244D01*
X206233786Y-91579580D01*
X206156089Y-91527657D01*
X206091629Y-91472745D01*
X206046958Y-91420117D01*
X206028625Y-91375044D01*
X206027431Y-91302339D01*
X206040307Y-91226410D01*
X206072113Y-91154561D01*
X206126442Y-91079076D01*
X206206888Y-90992240D01*
X206257256Y-90940425D01*
X206304439Y-90889055D01*
X206336460Y-90850809D01*
X206348258Y-90831442D01*
X206339415Y-90817067D01*
X206308543Y-90801147D01*
X206284607Y-90793764D01*
X206187641Y-90751941D01*
X206113042Y-90699263D01*
X206065121Y-90639454D01*
X206048189Y-90576238D01*
X206048225Y-90573537D01*
X206054361Y-90528954D01*
X206068012Y-90476343D01*
X206084831Y-90430003D01*
X206100471Y-90404230D01*
X206103279Y-90401561D01*
X206123474Y-90376821D01*
X206151751Y-90338017D01*
X206184185Y-90299666D01*
X206235166Y-90249411D01*
X206292110Y-90200129D01*
X206293261Y-90199205D01*
X206347777Y-90155373D01*
X206394939Y-90117337D01*
X206424652Y-90093239D01*
X206453076Y-90073192D01*
X206499669Y-90047369D01*
X206528266Y-90031236D01*
X206542421Y-90015874D01*
X206542622Y-90015255D01*
X206561194Y-90002962D01*
X206605582Y-89980635D01*
X206669603Y-89951241D01*
X206747072Y-89917744D01*
X206951724Y-89831631D01*
X206725413Y-89792523D01*
X206632582Y-89775831D01*
X206534573Y-89756982D01*
X206448127Y-89739175D01*
X206384885Y-89724726D01*
X206342615Y-89713130D01*
X206259748Y-89686202D01*
X206175582Y-89654559D01*
X206098921Y-89621825D01*
X206038569Y-89591628D01*
X206003331Y-89567592D01*
X205976721Y-89542990D01*
X205937331Y-89509791D01*
X205906832Y-89482703D01*
X205854007Y-89409286D01*
X205835492Y-89329052D01*
X205851207Y-89242743D01*
X205901075Y-89151103D01*
X205985018Y-89054872D01*
X206035572Y-89008493D01*
X206114401Y-88948521D01*
X206200322Y-88899635D01*
X206298977Y-88859687D01*
X206416006Y-88826528D01*
X206557053Y-88798010D01*
X206727758Y-88771983D01*
X206758519Y-88768002D01*
X206864069Y-88756523D01*
X206988350Y-88745589D01*
X207127507Y-88735328D01*
X207277686Y-88725868D01*
X207435035Y-88717336D01*
X207595697Y-88709862D01*
X207755821Y-88703573D01*
X207911551Y-88698597D01*
X208059035Y-88695063D01*
X208194417Y-88693097D01*
X208313844Y-88692829D01*
X208413462Y-88694385D01*
X208489417Y-88697895D01*
X208537855Y-88703486D01*
X208554922Y-88711287D01*
X208554927Y-88711673D01*
X208558416Y-88726259D01*
X208571889Y-88709720D01*
X208590835Y-88695717D01*
X208640897Y-88682885D01*
X208723131Y-88674418D01*
X208857678Y-88665593D01*
X208802762Y-88559686D01*
X208757989Y-88484194D01*
X208704651Y-88416768D01*
X208652792Y-88372566D01*
X208607327Y-88356697D01*
X208594113Y-88355382D01*
X208576829Y-88339575D01*
X208572303Y-88298449D01*
X208572313Y-88296484D01*
X208577633Y-88251338D01*
X208589783Y-88222719D01*
X208598329Y-88198562D01*
X208589783Y-88144288D01*
X208575626Y-88088226D01*
X208575143Y-88055124D01*
X208591968Y-88042038D01*
X208628652Y-88042271D01*
X208658744Y-88047547D01*
X208684848Y-88066666D01*
X208700848Y-88109581D01*
X208707104Y-88132359D01*
X208728035Y-88181355D01*
X208759526Y-88208347D01*
X208811222Y-88223267D01*
X208838496Y-88230762D01*
X208868411Y-88252717D01*
X208866231Y-88279626D01*
X208830636Y-88305866D01*
X208788900Y-88324882D01*
X208864979Y-88451110D01*
X208915190Y-88528413D01*
X208976603Y-88614041D01*
X209034686Y-88687483D01*
X209049105Y-88704176D01*
X209137836Y-88798506D01*
X209240486Y-88896468D01*
X209349758Y-88991909D01*
X209458353Y-89078672D01*
X209558971Y-89150605D01*
X209644314Y-89201550D01*
X209690972Y-89223939D01*
X209732317Y-89236755D01*
X209759913Y-89231414D01*
X209782840Y-89208365D01*
X209803378Y-89189644D01*
X209830205Y-89195127D01*
X209936974Y-89267058D01*
X210051239Y-89329001D01*
X210169732Y-89375912D01*
X210202760Y-89386762D01*
X210246548Y-89399733D01*
X210288703Y-89409162D01*
X210335382Y-89415599D01*
X210392739Y-89419592D01*
X210466931Y-89421693D01*
X210564113Y-89422450D01*
X210690441Y-89422413D01*
X210796566Y-89421985D01*
X210906935Y-89420473D01*
X210995440Y-89417344D01*
X211069628Y-89412020D01*
X211137045Y-89403920D01*
X211205238Y-89392468D01*
X211281754Y-89377084D01*
X211313225Y-89370284D01*
X211516264Y-89316989D01*
X211687492Y-89253841D01*
X211828939Y-89180108D01*
X211900064Y-89134140D01*
X212009869Y-89053016D01*
X212092229Y-88975049D01*
X212151374Y-88895939D01*
X212155893Y-88886424D01*
X212346406Y-88886424D01*
X212391922Y-88964090D01*
X212448761Y-89040804D01*
X212548385Y-89124853D01*
X212674039Y-89188527D01*
X212713396Y-89205362D01*
X212757226Y-89231330D01*
X212773276Y-89252981D01*
X212765985Y-89269258D01*
X212738366Y-89307391D01*
X212694961Y-89359109D01*
X212640892Y-89418024D01*
X212597103Y-89464867D01*
X212551262Y-89516580D01*
X212520041Y-89555098D01*
X212508509Y-89574433D01*
X212511626Y-89581441D01*
X212537528Y-89588890D01*
X212591353Y-89587358D01*
X212675140Y-89576718D01*
X212790927Y-89556845D01*
X212810901Y-89553191D01*
X212912621Y-89535548D01*
X213020068Y-89518138D01*
X213113060Y-89504257D01*
X213267508Y-89482725D01*
X213266602Y-89383054D01*
X213265161Y-89331205D01*
X213260473Y-89254041D01*
X213253514Y-89177148D01*
X213245241Y-89109274D01*
X213236611Y-89059170D01*
X213228581Y-89035584D01*
X213222241Y-89034047D01*
X213192617Y-89041397D01*
X213152102Y-89058514D01*
X213113846Y-89079420D01*
X213090996Y-89098137D01*
X213067761Y-89116923D01*
X213026188Y-89139748D01*
X212978572Y-89161003D01*
X212937080Y-89175262D01*
X212913880Y-89177102D01*
X212908714Y-89170021D01*
X212900197Y-89135272D01*
X212896834Y-89084236D01*
X212896164Y-89053794D01*
X212890320Y-89019251D01*
X212874013Y-88987985D01*
X212842003Y-88951011D01*
X212789051Y-88899342D01*
X212778415Y-88889357D01*
X212717886Y-88836637D01*
X212659357Y-88791409D01*
X212614168Y-88762548D01*
X212561848Y-88725411D01*
X212530811Y-88679545D01*
X212514554Y-88630774D01*
X212468088Y-88680912D01*
X212456094Y-88694898D01*
X212417544Y-88749482D01*
X212384014Y-88808737D01*
X212346406Y-88886424D01*
X212155893Y-88886424D01*
X212191535Y-88811382D01*
X212216652Y-88764270D01*
X212254961Y-88737174D01*
X212276297Y-88727200D01*
X212313822Y-88691816D01*
X212358491Y-88630100D01*
X212411894Y-88539754D01*
X212420379Y-88523608D01*
X212572433Y-88523608D01*
X212575100Y-88528753D01*
X212603456Y-88557830D01*
X212651365Y-88592678D01*
X212708480Y-88626375D01*
X212764450Y-88652003D01*
X212765606Y-88652423D01*
X212810773Y-88663648D01*
X212876788Y-88674334D01*
X212949787Y-88682219D01*
X212995481Y-88686640D01*
X213085115Y-88697629D01*
X213185702Y-88711979D01*
X213282881Y-88727725D01*
X213351074Y-88738802D01*
X213440270Y-88751140D01*
X213517728Y-88759560D01*
X213571986Y-88762674D01*
X213660381Y-88762674D01*
X213648169Y-88670005D01*
X213629772Y-88577540D01*
X213590534Y-88447705D01*
X213533548Y-88297699D01*
X213460391Y-88132046D01*
X213436300Y-88081996D01*
X213389770Y-87991723D01*
X213344978Y-87912254D01*
X213305163Y-87848911D01*
X213273564Y-87807019D01*
X213253422Y-87791902D01*
X213247182Y-87794173D01*
X213219045Y-87812857D01*
X213179844Y-87844237D01*
X213159149Y-87863166D01*
X213127399Y-87906411D01*
X213118065Y-87954516D01*
X213117758Y-87969169D01*
X213112038Y-87999026D01*
X213091273Y-88012296D01*
X213045342Y-88017787D01*
X213010848Y-88018102D01*
X212961418Y-88005332D01*
X212939634Y-87976915D01*
X212948525Y-87935428D01*
X212948823Y-87934890D01*
X212970963Y-87908655D01*
X213014896Y-87865993D01*
X213074744Y-87811976D01*
X213144632Y-87751678D01*
X213218682Y-87690172D01*
X213291018Y-87632533D01*
X213355764Y-87583833D01*
X213442220Y-87521451D01*
X213525376Y-87461199D01*
X213589889Y-87413888D01*
X213641248Y-87375312D01*
X213684941Y-87341264D01*
X213726458Y-87307536D01*
X213771286Y-87269922D01*
X213824914Y-87224214D01*
X213898009Y-87157650D01*
X213967665Y-87086301D01*
X214023744Y-87020549D01*
X214059006Y-86968309D01*
X214067985Y-86931459D01*
X214049855Y-86892070D01*
X214002323Y-86862270D01*
X213928506Y-86845004D01*
X213918251Y-86843973D01*
X213838921Y-86843087D01*
X213739780Y-86851123D01*
X213626313Y-86866746D01*
X213504002Y-86888623D01*
X213378332Y-86915419D01*
X213254785Y-86945799D01*
X213138845Y-86978431D01*
X213035996Y-87011979D01*
X212951721Y-87045110D01*
X212891504Y-87076489D01*
X212860828Y-87104781D01*
X212856157Y-87121507D01*
X212848691Y-87170441D01*
X212840710Y-87243309D01*
X212832908Y-87333531D01*
X212825983Y-87434523D01*
X212825225Y-87446982D01*
X212810179Y-87643296D01*
X212790190Y-87811997D01*
X212763743Y-87960201D01*
X212729325Y-88095022D01*
X212685421Y-88223576D01*
X212630516Y-88352978D01*
X212616192Y-88385119D01*
X212590872Y-88448607D01*
X212575310Y-88497637D01*
X212572433Y-88523608D01*
X212420379Y-88523608D01*
X212475624Y-88418476D01*
X212506734Y-88355838D01*
X212572146Y-88213268D01*
X212621739Y-88083596D01*
X212658991Y-87955573D01*
X212687382Y-87817949D01*
X212710393Y-87659477D01*
X212718153Y-87578828D01*
X212723845Y-87433920D01*
X212721433Y-87282560D01*
X212711272Y-87138430D01*
X212693714Y-87015210D01*
X212689422Y-86995362D01*
X212661672Y-86901202D01*
X212621705Y-86795779D01*
X212575422Y-86693615D01*
X212528726Y-86609234D01*
X212526946Y-86606446D01*
X212441164Y-86490299D01*
X212330171Y-86366909D01*
X212201061Y-86242687D01*
X212060930Y-86124044D01*
X211916873Y-86017390D01*
X211775986Y-85929137D01*
X211739103Y-85907984D01*
X211690953Y-85878990D01*
X211661254Y-85859326D01*
X211646506Y-85850392D01*
X211602656Y-85828076D01*
X211540093Y-85798605D01*
X211467091Y-85765956D01*
X211316127Y-85704933D01*
X211084774Y-85632470D01*
X210862384Y-85590741D01*
X210644562Y-85579328D01*
X210426911Y-85597813D01*
X210205034Y-85645775D01*
X210126076Y-85669391D01*
X210111442Y-85675150D01*
X210068787Y-85691936D01*
X210028922Y-85716467D01*
X209997633Y-85747316D01*
X209985788Y-85761758D01*
X209959557Y-85797692D01*
X209949092Y-85818678D01*
X209938185Y-85832322D01*
X209913361Y-85826253D01*
X209887482Y-85803353D01*
X209884546Y-85799503D01*
X209870112Y-85787990D01*
X209848489Y-85788175D01*
X209811653Y-85801628D01*
X209751581Y-85829915D01*
X209744807Y-85833252D01*
X209679055Y-85869255D01*
X209618799Y-85907980D01*
X209569048Y-85945340D01*
X209534808Y-85977248D01*
X209521090Y-85999617D01*
X209532901Y-86008360D01*
X209577484Y-86022565D01*
X209615823Y-86060314D01*
X209631372Y-86108912D01*
X209626130Y-86133101D01*
X209598514Y-86149571D01*
X209548676Y-86141119D01*
X209478286Y-86107761D01*
X209448113Y-86091368D01*
X209415267Y-86079829D01*
X209385149Y-86082916D01*
X209351129Y-86103491D01*
X209306576Y-86144419D01*
X209244860Y-86208562D01*
X209187468Y-86269521D01*
X209101044Y-86363198D01*
X209032463Y-86441536D01*
X208977188Y-86510762D01*
X208930680Y-86577101D01*
X208888400Y-86646777D01*
X208845812Y-86726018D01*
X208798376Y-86821048D01*
X208788597Y-86841221D01*
X208725228Y-86986178D01*
X208680970Y-87121415D01*
X208651814Y-87261547D01*
X208633752Y-87421187D01*
X208632739Y-87436359D01*
X208631086Y-87510681D01*
X208632786Y-87601087D01*
X208637273Y-87699013D01*
X208643980Y-87795895D01*
X208652338Y-87883167D01*
X208661782Y-87952267D01*
X208671742Y-87994629D01*
X208673877Y-88002250D01*
X208664787Y-88017158D01*
X208627145Y-88021326D01*
X208572303Y-88021326D01*
X208564775Y-87306454D01*
X208542685Y-87888942D01*
X208546305Y-87527094D01*
X208547379Y-87440123D01*
X208550313Y-87319843D01*
X208555755Y-87223589D01*
X208564933Y-87144328D01*
X208579080Y-87075023D01*
X208599426Y-87008640D01*
X208627202Y-86938144D01*
X208663638Y-86856499D01*
X208676123Y-86830288D01*
X208711864Y-86760956D01*
X208754155Y-86684306D01*
X208798438Y-86608071D01*
X208840159Y-86539986D01*
X208874761Y-86487785D01*
X208897689Y-86459199D01*
X208910106Y-86445866D01*
X208940275Y-86409306D01*
X208976818Y-86362118D01*
X209001405Y-86330306D01*
X209038654Y-86285043D01*
X209065303Y-86256211D01*
X209086216Y-86235314D01*
X209125798Y-86191715D01*
X209171379Y-86138539D01*
X209217074Y-86082984D01*
X209256999Y-86032247D01*
X209285269Y-85993526D01*
X209296000Y-85974020D01*
X209294906Y-85969805D01*
X209275883Y-85942686D01*
X209238088Y-85901060D01*
X209187901Y-85851327D01*
X209131702Y-85799891D01*
X209075874Y-85753153D01*
X209056665Y-85738070D01*
X209007139Y-85700952D01*
X208977962Y-85683794D01*
X208964127Y-85684292D01*
X208960628Y-85700144D01*
X208960805Y-85702549D01*
X208977616Y-85730461D01*
X209013470Y-85758387D01*
X209018267Y-85761202D01*
X209052390Y-85787220D01*
X209066423Y-85809117D01*
X209064704Y-85816789D01*
X209052279Y-85827516D01*
X209023767Y-85836953D01*
X208999790Y-85841409D01*
X208974393Y-85846129D01*
X208899382Y-85856072D01*
X208793957Y-85867812D01*
X208743635Y-85873379D01*
X208677759Y-85881458D01*
X208631453Y-85888154D01*
X208612495Y-85892414D01*
X208619452Y-85901908D01*
X208650785Y-85918169D01*
X208697424Y-85937056D01*
X208749603Y-85954959D01*
X208797556Y-85968268D01*
X208831517Y-85973374D01*
X208865038Y-85968540D01*
X208923250Y-85952553D01*
X208987105Y-85929328D01*
X209009125Y-85920394D01*
X209077645Y-85895893D01*
X209122344Y-85887825D01*
X209148969Y-85895877D01*
X209163266Y-85919735D01*
X209166842Y-85940949D01*
X209151174Y-85984424D01*
X209104828Y-86020390D01*
X209030692Y-86047612D01*
X208931652Y-86064852D01*
X208810593Y-86070874D01*
X208791253Y-86070757D01*
X208722090Y-86066717D01*
X208673608Y-86055079D01*
X208634082Y-86033350D01*
X208606844Y-86016154D01*
X208547924Y-85984647D01*
X208484047Y-85955277D01*
X208447615Y-85938692D01*
X208371350Y-85897991D01*
X208305171Y-85856005D01*
X208284059Y-85841409D01*
X208466396Y-85841409D01*
X208475222Y-85850235D01*
X208484047Y-85841409D01*
X208475222Y-85832584D01*
X208466396Y-85841409D01*
X208284059Y-85841409D01*
X208269781Y-85831538D01*
X208230178Y-85806845D01*
X208209038Y-85797281D01*
X208189974Y-85790190D01*
X208148498Y-85765390D01*
X208094543Y-85728101D01*
X208036129Y-85683913D01*
X207981275Y-85638421D01*
X207953218Y-85613562D01*
X207885846Y-85552578D01*
X207866401Y-85534583D01*
X207989815Y-85534583D01*
X207991988Y-85539549D01*
X208015326Y-85560304D01*
X208056007Y-85585816D01*
X208104933Y-85613586D01*
X208169990Y-85651672D01*
X208236931Y-85691736D01*
X208245678Y-85696988D01*
X208303656Y-85729337D01*
X208350986Y-85751795D01*
X208378140Y-85759771D01*
X208379582Y-85759635D01*
X208410555Y-85745491D01*
X208447221Y-85715904D01*
X208459812Y-85704455D01*
X208523620Y-85661146D01*
X208604862Y-85620375D01*
X208689831Y-85588380D01*
X208764820Y-85571396D01*
X208842605Y-85562601D01*
X208773646Y-85501075D01*
X208714839Y-85449903D01*
X208670388Y-85416354D01*
X208638340Y-85401666D01*
X208612028Y-85402873D01*
X208584786Y-85417008D01*
X208548341Y-85434533D01*
X208474824Y-85456944D01*
X208378325Y-85477526D01*
X208265815Y-85494847D01*
X208144263Y-85507478D01*
X208112550Y-85510308D01*
X208049677Y-85518108D01*
X208006109Y-85526666D01*
X207989815Y-85534583D01*
X207866401Y-85534583D01*
X207815609Y-85487579D01*
X207748331Y-85424090D01*
X207689832Y-85367636D01*
X207645935Y-85323742D01*
X207622462Y-85297932D01*
X207603047Y-85274338D01*
X207567237Y-85236153D01*
X207538328Y-85203524D01*
X207505885Y-85158897D01*
X207493643Y-85138130D01*
X207485533Y-85106257D01*
X207498929Y-85073586D01*
X207519707Y-85047779D01*
X207582591Y-85003090D01*
X207671649Y-84964929D01*
X207781055Y-84935091D01*
X207904980Y-84915371D01*
X208037599Y-84907566D01*
X208069534Y-84907371D01*
X208145501Y-84908520D01*
X208195786Y-84913036D01*
X208227575Y-84921892D01*
X208248057Y-84936062D01*
X208263769Y-84953046D01*
X208264861Y-84968406D01*
X208235575Y-84982047D01*
X208225941Y-84984928D01*
X208179259Y-84993752D01*
X208112344Y-85002456D01*
X208036270Y-85009513D01*
X207955669Y-85017316D01*
X207863195Y-85030079D01*
X207776782Y-85045557D01*
X207703703Y-85062259D01*
X207651231Y-85078697D01*
X207626640Y-85093382D01*
X207626925Y-85116515D01*
X207643596Y-85152406D01*
X207651837Y-85163681D01*
X207682609Y-85200198D01*
X207726294Y-85248437D01*
X207776796Y-85302078D01*
X207828021Y-85354801D01*
X207873872Y-85400286D01*
X207908255Y-85432212D01*
X207925072Y-85444258D01*
X207925875Y-85444161D01*
X207946053Y-85431654D01*
X207978248Y-85404543D01*
X207987648Y-85397156D01*
X208030712Y-85371377D01*
X208093741Y-85339228D01*
X208168181Y-85304477D01*
X208245481Y-85270891D01*
X208317089Y-85242237D01*
X208374453Y-85222282D01*
X208409020Y-85214793D01*
X208411542Y-85214945D01*
X208443787Y-85229872D01*
X208479163Y-85261772D01*
X208484677Y-85268023D01*
X208512303Y-85294137D01*
X208527954Y-85300328D01*
X208527373Y-85287821D01*
X208510267Y-85255183D01*
X208480686Y-85212339D01*
X208445326Y-85168108D01*
X208410884Y-85131313D01*
X208384055Y-85110772D01*
X208368237Y-85101445D01*
X208353594Y-85074593D01*
X208364785Y-85043242D01*
X208483641Y-85043242D01*
X208526648Y-85099628D01*
X208551047Y-85130913D01*
X208617183Y-85208603D01*
X208692845Y-85286773D01*
X208784559Y-85371925D01*
X208898849Y-85470561D01*
X208920200Y-85488558D01*
X208992923Y-85550212D01*
X209007403Y-85562601D01*
X209057710Y-85605644D01*
X209108180Y-85649377D01*
X209137957Y-85675931D01*
X209165099Y-85700264D01*
X209215601Y-85743560D01*
X209270341Y-85788924D01*
X209312707Y-85823210D01*
X209357428Y-85859051D01*
X209385433Y-85881069D01*
X209400568Y-85888188D01*
X209427084Y-85885733D01*
X209468329Y-85868108D01*
X209531510Y-85832937D01*
X209613532Y-85783829D01*
X209691735Y-85733204D01*
X209739043Y-85696854D01*
X209754930Y-85675150D01*
X209752186Y-85668498D01*
X209729494Y-85639064D01*
X209687793Y-85593034D01*
X209631847Y-85535380D01*
X209566418Y-85471077D01*
X209496271Y-85405095D01*
X209302831Y-85239789D01*
X209254524Y-85204659D01*
X209458500Y-85204659D01*
X209459982Y-85220376D01*
X209488142Y-85255659D01*
X209542360Y-85309459D01*
X209542570Y-85309655D01*
X209588081Y-85350791D01*
X209623434Y-85380120D01*
X209640993Y-85391305D01*
X209642937Y-85390084D01*
X209645964Y-85367401D01*
X209642221Y-85325113D01*
X209639351Y-85305383D01*
X209630292Y-85238955D01*
X209621608Y-85170666D01*
X209611568Y-85105949D01*
X209585975Y-85006321D01*
X209552159Y-84928596D01*
X209512600Y-84879398D01*
X209509048Y-84876641D01*
X209477127Y-84855428D01*
X209460243Y-84850504D01*
X209462374Y-84865948D01*
X209475977Y-84905241D01*
X209498240Y-84958854D01*
X209511534Y-84991463D01*
X209522436Y-85028621D01*
X209533625Y-85066759D01*
X209541487Y-85131834D01*
X209535462Y-85181024D01*
X209515892Y-85208665D01*
X209483118Y-85209094D01*
X209458500Y-85204659D01*
X209254524Y-85204659D01*
X209019335Y-85033625D01*
X208949140Y-84985210D01*
X208886573Y-84935757D01*
X209102835Y-84935757D01*
X209105213Y-84954433D01*
X209133629Y-84986559D01*
X209185680Y-85028847D01*
X209223456Y-85055463D01*
X209263536Y-85080826D01*
X209285296Y-85090798D01*
X209285669Y-85090778D01*
X209291645Y-85073467D01*
X209291938Y-85028621D01*
X209286482Y-84963265D01*
X209280103Y-84892860D01*
X209275770Y-84809757D01*
X209275481Y-84742136D01*
X209273458Y-84669238D01*
X209256527Y-84608469D01*
X209220722Y-84558665D01*
X209219017Y-84556867D01*
X209191765Y-84525382D01*
X209158827Y-84484303D01*
X209119488Y-84433382D01*
X209119795Y-84528431D01*
X209122534Y-84582432D01*
X209131918Y-84664624D01*
X209145619Y-84743910D01*
X209150992Y-84770140D01*
X209160617Y-84831372D01*
X209160166Y-84871051D01*
X209149892Y-84898358D01*
X209134074Y-84919170D01*
X209115243Y-84932375D01*
X209102835Y-84935757D01*
X208886573Y-84935757D01*
X208886568Y-84935753D01*
X208848793Y-84894864D01*
X208832128Y-84858359D01*
X208832887Y-84822055D01*
X208834548Y-84816414D01*
X208857716Y-84794690D01*
X208894476Y-84795319D01*
X208932695Y-84818708D01*
X208937729Y-84823393D01*
X208947731Y-84827471D01*
X208953918Y-84816049D01*
X208956933Y-84784180D01*
X208957420Y-84726920D01*
X208956020Y-84639325D01*
X208955875Y-84631981D01*
X208955242Y-84538228D01*
X208957799Y-84475242D01*
X208963892Y-84438874D01*
X208973867Y-84424974D01*
X208978587Y-84423172D01*
X208994622Y-84405426D01*
X208984435Y-84375662D01*
X208946726Y-84331751D01*
X208880194Y-84271562D01*
X208813901Y-84218491D01*
X208758220Y-84182710D01*
X208724712Y-84174049D01*
X208713512Y-84192573D01*
X208713800Y-84195774D01*
X208719567Y-84227253D01*
X208731609Y-84284338D01*
X208748439Y-84360136D01*
X208768570Y-84447755D01*
X208783371Y-84513701D01*
X208803120Y-84615840D01*
X208812603Y-84689852D01*
X208811415Y-84733039D01*
X208810566Y-84736040D01*
X208787286Y-84777398D01*
X208742697Y-84831406D01*
X208683694Y-84891044D01*
X208617175Y-84949291D01*
X208550036Y-84999126D01*
X208483641Y-85043242D01*
X208364785Y-85043242D01*
X208366963Y-85037140D01*
X208409387Y-84987076D01*
X208481909Y-84922393D01*
X208518480Y-84892102D01*
X208589346Y-84832388D01*
X208638358Y-84788294D01*
X208669515Y-84755216D01*
X208686818Y-84728546D01*
X208694267Y-84703679D01*
X208695861Y-84676008D01*
X208695340Y-84663757D01*
X208688644Y-84610060D01*
X208675850Y-84538423D01*
X208659022Y-84460890D01*
X208646323Y-84397525D01*
X208634138Y-84314040D01*
X208624920Y-84226221D01*
X208619182Y-84141908D01*
X208617441Y-84068941D01*
X208620210Y-84015159D01*
X208628004Y-83988402D01*
X208637425Y-83984683D01*
X208673803Y-83994896D01*
X208730933Y-84027487D01*
X208806276Y-84080429D01*
X208897292Y-84151691D01*
X209001444Y-84239243D01*
X209116191Y-84341057D01*
X209238995Y-84455103D01*
X209367318Y-84579352D01*
X209381347Y-84593258D01*
X209461102Y-84673984D01*
X209533088Y-84749557D01*
X209592885Y-84815148D01*
X209636073Y-84865929D01*
X209658231Y-84897073D01*
X209665932Y-84914947D01*
X209684221Y-84973202D01*
X209703864Y-85051603D01*
X209722795Y-85140103D01*
X209738946Y-85228654D01*
X209750250Y-85307205D01*
X209754639Y-85365711D01*
X209754428Y-85367401D01*
X209749298Y-85408497D01*
G37*
%TD*%
M02*
