M48
; DRILL file {KiCad 7.0.9} date Sat Dec  2 22:57:26 2023
; FORMAT={-:-/ absolute / inch / decimal}
; #@! TF.CreationDate,2023-12-02T22:57:26+09:00
; #@! TF.GenerationSoftware,Kicad,Pcbnew,7.0.9
; #@! TF.FileFunction,Plated,1,2,PTH
FMAT,2
INCH
; #@! TA.AperFunction,Plated,PTH,ViaDrill
T1C0.0098
; #@! TA.AperFunction,Plated,PTH,ViaDrill
T2C0.0157
; #@! TA.AperFunction,Plated,PTH,ComponentDrill
T3C0.0276
; #@! TA.AperFunction,Plated,PTH,ComponentDrill
T4C0.0287
; #@! TA.AperFunction,Plated,PTH,ComponentDrill
T5C0.0315
; #@! TA.AperFunction,Plated,PTH,ComponentDrill
T6C0.0394
; #@! TA.AperFunction,Plated,PTH,ComponentDrill
T7C0.0433
; #@! TA.AperFunction,Plated,PTH,ComponentDrill
T8C0.0472
%
G90
G05
T1
X6.235Y-3.295
X6.635Y-3.295
X7.035Y-3.295
X7.43Y-3.295
X7.845Y-3.55
X7.845Y-3.65
X7.845Y-3.745
X8.295Y-3.33
T2
X7.61Y-3.67
X7.715Y-3.45
T3
X8.545Y-3.33
X8.545Y-3.51
T4
X7.43Y-3.7016
X7.43Y-3.8
X7.43Y-3.8984
T5
X6.1726Y-3.83
X6.3104Y-3.83
X6.4894Y-3.6004
X6.4894Y-3.9004
X6.5894Y-3.6004
X6.5894Y-3.9004
X6.6894Y-3.6004
X6.6894Y-3.9004
X6.7894Y-3.6004
X6.7894Y-3.9004
X6.8894Y-3.6004
X6.8894Y-3.9004
X6.9894Y-3.6004
X6.9894Y-3.9004
X7.0894Y-3.6004
X7.0894Y-3.9004
X7.1894Y-3.6004
X7.1894Y-3.9004
T6
X5.78Y-3.36
X5.78Y-3.46
X5.78Y-3.56
X5.78Y-3.66
X5.78Y-3.76
X5.78Y-3.86
X5.88Y-3.36
X5.88Y-3.46
X5.88Y-3.56
X5.88Y-3.66
X5.88Y-3.76
X5.88Y-3.86
X7.6502Y-3.8398
X7.6502Y-3.9398
X7.7502Y-3.8398
X7.7502Y-3.9398
T7
X6.13Y-3.38
X6.33Y-3.38
X6.53Y-3.38
X6.73Y-3.38
X6.93Y-3.38
X7.13Y-3.38
X7.33Y-3.38
X7.53Y-3.38
T8
X8.1425Y-3.7098
X8.1425Y-3.887
X8.4378Y-3.6843
X8.4378Y-3.9126
T0
M30
