%TF.GenerationSoftware,KiCad,Pcbnew,7.0.5*%
%TF.CreationDate,2024-01-04T17:18:43+09:00*%
%TF.ProjectId,Pmod_ADC,506d6f64-5f41-4444-932e-6b696361645f,rev?*%
%TF.SameCoordinates,Original*%
%TF.FileFunction,Paste,Top*%
%TF.FilePolarity,Positive*%
%FSLAX46Y46*%
G04 Gerber Fmt 4.6, Leading zero omitted, Abs format (unit mm)*
G04 Created by KiCad (PCBNEW 7.0.5) date 2024-01-04 17:18:43*
%MOMM*%
%LPD*%
G01*
G04 APERTURE LIST*
G04 Aperture macros list*
%AMRoundRect*
0 Rectangle with rounded corners*
0 $1 Rounding radius*
0 $2 $3 $4 $5 $6 $7 $8 $9 X,Y pos of 4 corners*
0 Add a 4 corners polygon primitive as box body*
4,1,4,$2,$3,$4,$5,$6,$7,$8,$9,$2,$3,0*
0 Add four circle primitives for the rounded corners*
1,1,$1+$1,$2,$3*
1,1,$1+$1,$4,$5*
1,1,$1+$1,$6,$7*
1,1,$1+$1,$8,$9*
0 Add four rect primitives between the rounded corners*
20,1,$1+$1,$2,$3,$4,$5,0*
20,1,$1+$1,$4,$5,$6,$7,0*
20,1,$1+$1,$6,$7,$8,$9,0*
20,1,$1+$1,$8,$9,$2,$3,0*%
G04 Aperture macros list end*
%ADD10RoundRect,0.237500X0.237500X-0.300000X0.237500X0.300000X-0.237500X0.300000X-0.237500X-0.300000X0*%
%ADD11RoundRect,0.237500X0.300000X0.237500X-0.300000X0.237500X-0.300000X-0.237500X0.300000X-0.237500X0*%
%ADD12RoundRect,0.237500X0.250000X0.237500X-0.250000X0.237500X-0.250000X-0.237500X0.250000X-0.237500X0*%
%ADD13RoundRect,0.237500X-0.237500X0.250000X-0.237500X-0.250000X0.237500X-0.250000X0.237500X0.250000X0*%
%ADD14RoundRect,0.237500X-0.250000X-0.237500X0.250000X-0.237500X0.250000X0.237500X-0.250000X0.237500X0*%
%ADD15RoundRect,0.237500X0.237500X-0.250000X0.237500X0.250000X-0.237500X0.250000X-0.237500X-0.250000X0*%
%ADD16RoundRect,0.150000X0.825000X0.150000X-0.825000X0.150000X-0.825000X-0.150000X0.825000X-0.150000X0*%
%ADD17RoundRect,0.237500X-0.300000X-0.237500X0.300000X-0.237500X0.300000X0.237500X-0.300000X0.237500X0*%
%ADD18RoundRect,0.237500X-0.237500X0.300000X-0.237500X-0.300000X0.237500X-0.300000X0.237500X0.300000X0*%
G04 APERTURE END LIST*
D10*
%TO.C,C4*%
X201879200Y-99973300D03*
X201879200Y-98248300D03*
%TD*%
D11*
%TO.C,C3*%
X208380500Y-90271600D03*
X206655500Y-90271600D03*
%TD*%
%TO.C,C5*%
X214476500Y-84582000D03*
X212751500Y-84582000D03*
%TD*%
D12*
%TO.C,R7*%
X204216000Y-87630000D03*
X202391000Y-87630000D03*
%TD*%
D13*
%TO.C,R5*%
X203860400Y-98198300D03*
X203860400Y-100023300D03*
%TD*%
D14*
%TO.C,R6*%
X198581000Y-87630000D03*
X200406000Y-87630000D03*
%TD*%
%TO.C,R2*%
X177380500Y-96774000D03*
X179205500Y-96774000D03*
%TD*%
%TO.C,R8*%
X192381500Y-91440000D03*
X194206500Y-91440000D03*
%TD*%
D12*
%TO.C,R4*%
X212748500Y-90271600D03*
X210923500Y-90271600D03*
%TD*%
D15*
%TO.C,R9*%
X199898000Y-100023300D03*
X199898000Y-98198300D03*
%TD*%
D16*
%TO.C,U3*%
X201676000Y-93448500D03*
X201676000Y-92178500D03*
X201676000Y-90908500D03*
X201676000Y-89638500D03*
X196726000Y-89638500D03*
X196726000Y-90908500D03*
X196726000Y-92178500D03*
X196726000Y-93448500D03*
%TD*%
D17*
%TO.C,C6*%
X194717500Y-94996000D03*
X196442500Y-94996000D03*
%TD*%
D18*
%TO.C,C2*%
X185047500Y-99060000D03*
X185047500Y-100785000D03*
%TD*%
D12*
%TO.C,R10*%
X203198100Y-95808800D03*
X201373100Y-95808800D03*
%TD*%
D14*
%TO.C,R11*%
X198581000Y-85598000D03*
X200406000Y-85598000D03*
%TD*%
D11*
%TO.C,C7*%
X208380500Y-87630000D03*
X206655500Y-87630000D03*
%TD*%
D12*
%TO.C,R12*%
X208430500Y-85598000D03*
X206605500Y-85598000D03*
%TD*%
D14*
%TO.C,R1*%
X180936500Y-96774000D03*
X182761500Y-96774000D03*
%TD*%
M02*
