G04*
G04 #@! TF.GenerationSoftware,Altium Limited,Altium Designer,24.1.2 (44)*
G04*
G04 Layer_Color=32896*
%FSLAX43Y43*%
%MOMM*%
G71*
G04*
G04 #@! TF.SameCoordinates,A54E5831-EF6A-4B72-99D3-3794B9BD2B5D*
G04*
G04*
G04 #@! TF.FilePolarity,Positive*
G04*
G01*
G75*
%ADD10C,0.200*%
%ADD12C,0.178*%
%ADD13C,0.150*%
%ADD48C,0.254*%
G36*
X20223Y26937D02*
X19910Y26937D01*
X19910Y27460D01*
X19251Y26937D01*
X18848Y26937D01*
X19718Y27627D01*
X18843Y28312D01*
X19251Y28312D01*
X19910Y27795D01*
X19910Y28312D01*
X20223Y28312D01*
X20223Y26937D01*
X20223Y26937D02*
G37*
G36*
X21847Y27412D02*
X21845Y27377D01*
X21842Y27342D01*
X21825Y27277D01*
X21802Y27220D01*
X21777Y27172D01*
X21765Y27150D01*
X21752Y27132D01*
X21740Y27115D01*
X21730Y27102D01*
X21720Y27092D01*
X21712Y27085D01*
X21710Y27080D01*
X21707Y27077D01*
X21680Y27052D01*
X21652Y27032D01*
X21622Y27012D01*
X21595Y26997D01*
X21538Y26972D01*
X21485Y26955D01*
X21438Y26945D01*
X21418Y26942D01*
X21400Y26940D01*
X21388Y26937D01*
X20955Y26937D01*
X20918Y26940D01*
X20883Y26942D01*
X20818Y26960D01*
X20760Y26982D01*
X20710Y27007D01*
X20688Y27020D01*
X20670Y27032D01*
X20653Y27045D01*
X20640Y27055D01*
X20630Y27065D01*
X20623Y27072D01*
X20618Y27075D01*
X20615Y27077D01*
X20590Y27105D01*
X20568Y27132D01*
X20550Y27160D01*
X20533Y27190D01*
X20518Y27217D01*
X20508Y27245D01*
X20490Y27297D01*
X20480Y27342D01*
X20478Y27362D01*
X20475Y27380D01*
X20473Y27392D01*
X20473Y27405D01*
X20473Y27410D01*
X20473Y27412D01*
X20473Y28312D01*
X20785Y28312D01*
X20785Y27417D01*
X20788Y27392D01*
X20793Y27370D01*
X20803Y27350D01*
X20810Y27332D01*
X20820Y27320D01*
X20830Y27310D01*
X20835Y27302D01*
X20838Y27300D01*
X20858Y27282D01*
X20878Y27270D01*
X20898Y27262D01*
X20918Y27257D01*
X20935Y27252D01*
X20948Y27250D01*
X21363Y27250D01*
X21388Y27252D01*
X21410Y27257D01*
X21433Y27265D01*
X21450Y27275D01*
X21465Y27285D01*
X21475Y27292D01*
X21483Y27297D01*
X21485Y27300D01*
X21503Y27320D01*
X21515Y27340D01*
X21523Y27360D01*
X21528Y27377D01*
X21533Y27392D01*
X21535Y27407D01*
X21535Y27415D01*
X21535Y27417D01*
X21535Y28312D01*
X21847Y28312D01*
X21847Y27412D01*
X21847Y27412D02*
G37*
G36*
X21408Y26687D02*
X21443Y26685D01*
X21475Y26677D01*
X21508Y26667D01*
X21565Y26645D01*
X21612Y26617D01*
X21635Y26605D01*
X21652Y26590D01*
X21670Y26577D01*
X21682Y26567D01*
X21692Y26557D01*
X21700Y26552D01*
X21705Y26547D01*
X21707Y26545D01*
X21732Y26517D01*
X21752Y26490D01*
X21772Y26460D01*
X21787Y26430D01*
X21812Y26372D01*
X21830Y26320D01*
X21840Y26272D01*
X21842Y26252D01*
X21845Y26235D01*
X21847Y26220D01*
X21847Y26210D01*
X21847Y26202D01*
X21847Y26200D01*
X21847Y25798D01*
X21845Y25750D01*
X21837Y25708D01*
X21827Y25665D01*
X21815Y25630D01*
X21802Y25600D01*
X21792Y25578D01*
X21785Y25563D01*
X21782Y25560D01*
X21782Y25558D01*
X21757Y25518D01*
X21727Y25483D01*
X21700Y25453D01*
X21672Y25428D01*
X21647Y25408D01*
X21627Y25393D01*
X21615Y25383D01*
X21610Y25380D01*
X21568Y25358D01*
X21528Y25343D01*
X21488Y25330D01*
X21450Y25323D01*
X21418Y25318D01*
X21395Y25315D01*
X20473Y25315D01*
X20473Y25628D01*
X21368Y25628D01*
X21393Y25630D01*
X21415Y25635D01*
X21435Y25643D01*
X21453Y25653D01*
X21465Y25663D01*
X21475Y25670D01*
X21483Y25675D01*
X21485Y25678D01*
X21503Y25698D01*
X21515Y25718D01*
X21523Y25738D01*
X21528Y25758D01*
X21533Y25773D01*
X21535Y25785D01*
X21535Y25795D01*
X21535Y25798D01*
X21535Y26200D01*
X21533Y26227D01*
X21528Y26250D01*
X21520Y26272D01*
X21510Y26290D01*
X21500Y26305D01*
X21493Y26315D01*
X21488Y26322D01*
X21485Y26325D01*
X21465Y26342D01*
X21445Y26355D01*
X21425Y26365D01*
X21408Y26370D01*
X21393Y26375D01*
X21378Y26377D01*
X20473Y26377D01*
X20473Y26690D01*
X21373Y26690D01*
X21408Y26687D01*
X21408Y26687D02*
G37*
G36*
X19778Y26687D02*
X19813Y26685D01*
X19878Y26667D01*
X19935Y26645D01*
X19985Y26620D01*
X20008Y26607D01*
X20028Y26595D01*
X20043Y26582D01*
X20058Y26572D01*
X20068Y26562D01*
X20075Y26555D01*
X20080Y26552D01*
X20083Y26550D01*
X20108Y26522D01*
X20128Y26495D01*
X20148Y26467D01*
X20163Y26437D01*
X20188Y26382D01*
X20205Y26330D01*
X20215Y26282D01*
X20218Y26262D01*
X20220Y26245D01*
X20223Y26232D01*
X20223Y26222D01*
X20223Y26215D01*
X20223Y26212D01*
X20223Y25315D01*
X19910Y25315D01*
X19910Y25628D01*
X19161Y25628D01*
X19161Y25315D01*
X18848Y25315D01*
X18848Y26212D01*
X18851Y26250D01*
X18853Y26285D01*
X18861Y26317D01*
X18871Y26347D01*
X18893Y26405D01*
X18918Y26455D01*
X18933Y26477D01*
X18946Y26495D01*
X18958Y26512D01*
X18968Y26525D01*
X18978Y26535D01*
X18986Y26542D01*
X18988Y26547D01*
X18991Y26550D01*
X19018Y26575D01*
X19046Y26597D01*
X19073Y26615D01*
X19103Y26630D01*
X19158Y26655D01*
X19211Y26672D01*
X19258Y26682D01*
X19278Y26685D01*
X19296Y26687D01*
X19308Y26690D01*
X19740Y26690D01*
X19778Y26687D01*
X19778Y26687D02*
G37*
G36*
X6603Y4924D02*
X5973Y4264D01*
X5956Y4087D01*
X5916Y3661D01*
X5883Y3351D01*
X6560Y2654D01*
X6513Y2611D01*
X5880Y3264D01*
X5840Y2864D01*
X5820Y2864D01*
X5820Y2711D01*
X5680Y2711D01*
X5680Y2864D01*
X5240Y2864D01*
X5227Y2834D01*
X5207Y2804D01*
X5173Y2771D01*
X5130Y2741D01*
X5087Y2728D01*
X5040Y2721D01*
X4993Y2724D01*
X4960Y2734D01*
X4923Y2748D01*
X4890Y2771D01*
X4863Y2794D01*
X4837Y2834D01*
X4817Y2874D01*
X4807Y2914D01*
X4803Y2944D01*
X4807Y2984D01*
X4813Y3014D01*
X4823Y3041D01*
X4840Y3074D01*
X4860Y3101D01*
X4887Y3124D01*
X4913Y3144D01*
X4940Y3154D01*
X4933Y3191D01*
X4377Y2611D01*
X4330Y2658D01*
X4930Y3277D01*
X4880Y3814D01*
X4847Y4207D01*
X4667Y4207D01*
X4667Y4457D01*
X4717Y4457D01*
X4263Y4924D01*
X4310Y4967D01*
X4737Y4527D01*
X4737Y4560D01*
X4727Y4567D01*
X4717Y4574D01*
X4703Y4587D01*
X4693Y4600D01*
X4687Y4614D01*
X4683Y4630D01*
X4680Y4650D01*
X4683Y4674D01*
X4690Y4687D01*
X4707Y4710D01*
X4723Y4730D01*
X4750Y4740D01*
X4773Y4744D01*
X4800Y4740D01*
X4823Y4730D01*
X4840Y4720D01*
X4850Y4707D01*
X4867Y4724D01*
X4897Y4740D01*
X4930Y4760D01*
X4980Y4777D01*
X5030Y4794D01*
X5083Y4804D01*
X5137Y4814D01*
X5183Y4820D01*
X5183Y4874D01*
X5540Y4874D01*
X5540Y4827D01*
X5566Y4827D01*
X5613Y4820D01*
X5663Y4814D01*
X5710Y4807D01*
X5710Y4837D01*
X5863Y4837D01*
X5863Y4764D01*
X5883Y4754D01*
X5906Y4744D01*
X5933Y4727D01*
X5956Y4710D01*
X5976Y4694D01*
X5990Y4680D01*
X6003Y4667D01*
X6010Y4654D01*
X6006Y4627D01*
X6096Y4627D01*
X6096Y4514D01*
X5996Y4514D01*
X5980Y4367D01*
X6560Y4967D01*
X6603Y4924D01*
X6603Y4924D02*
G37*
G36*
X6466Y2098D02*
X6466Y2088D01*
X6466Y2074D01*
X6466Y2061D01*
X6466Y2048D01*
X6466Y2034D01*
X6466Y2024D01*
X6466Y2021D01*
X6466Y1961D01*
X6466Y1931D01*
X6466Y1904D01*
X6466Y1878D01*
X6466Y1861D01*
X6466Y1848D01*
X6466Y1844D01*
X6466Y1778D01*
X6466Y1748D01*
X6466Y1721D01*
X6466Y1698D01*
X6466Y1681D01*
X6466Y1671D01*
X6466Y1668D01*
X6466Y1641D01*
X6466Y1625D01*
X6466Y1611D01*
X6466Y1601D01*
X6466Y1595D01*
X6466Y1591D01*
X4433Y1591D01*
X4433Y1595D01*
X4433Y1605D01*
X4433Y1615D01*
X4433Y1631D01*
X4433Y1645D01*
X4433Y1655D01*
X4433Y1664D01*
X4433Y1668D01*
X4433Y1728D01*
X4433Y1758D01*
X4433Y1788D01*
X4433Y1811D01*
X4433Y1828D01*
X4433Y1841D01*
X4433Y1844D01*
X4433Y1914D01*
X4433Y1944D01*
X4433Y1968D01*
X4433Y1991D01*
X4433Y2008D01*
X4433Y2018D01*
X4433Y2021D01*
X4433Y2048D01*
X4433Y2068D01*
X4433Y2081D01*
X4433Y2091D01*
X4433Y2098D01*
X4433Y2101D01*
X6466Y2101D01*
X6466Y2098D01*
X6466Y2098D02*
G37*
G36*
X17522Y4752D02*
X17145Y4752D01*
X17145Y4776D01*
X17145Y4796D01*
X17142Y4809D01*
X17142Y4822D01*
X17139Y4836D01*
X17139Y4839D01*
X17132Y4852D01*
X17125Y4866D01*
X17119Y4872D01*
X17115Y4876D01*
X17102Y4889D01*
X17089Y4892D01*
X17079Y4896D01*
X17059Y4896D01*
X17045Y4889D01*
X17025Y4879D01*
X17015Y4866D01*
X17012Y4862D01*
X17012Y4859D01*
X17005Y4846D01*
X17002Y4826D01*
X16999Y4786D01*
X16995Y4769D01*
X16995Y4752D01*
X16995Y4742D01*
X16995Y4739D01*
X16995Y4419D01*
X16995Y4389D01*
X16995Y4362D01*
X16995Y4319D01*
X16995Y4286D01*
X16995Y4259D01*
X16999Y4246D01*
X16999Y4236D01*
X16999Y4229D01*
X17002Y4216D01*
X17009Y4202D01*
X17015Y4192D01*
X17019Y4189D01*
X17032Y4179D01*
X17049Y4172D01*
X17059Y4169D01*
X17065Y4169D01*
X17085Y4172D01*
X17102Y4179D01*
X17115Y4189D01*
X17125Y4202D01*
X17135Y4222D01*
X17139Y4229D01*
X17139Y4232D01*
X17142Y4262D01*
X17142Y4296D01*
X17145Y4369D01*
X17145Y4402D01*
X17145Y4429D01*
X17145Y4449D01*
X17145Y4452D01*
X17145Y4456D01*
X17145Y4556D01*
X17522Y4556D01*
X17522Y4472D01*
X17518Y4392D01*
X17515Y4322D01*
X17508Y4266D01*
X17498Y4219D01*
X17488Y4182D01*
X17482Y4156D01*
X17478Y4142D01*
X17475Y4136D01*
X17455Y4099D01*
X17432Y4066D01*
X17405Y4039D01*
X17378Y4016D01*
X17355Y3999D01*
X17335Y3986D01*
X17322Y3979D01*
X17319Y3976D01*
X17275Y3959D01*
X17229Y3946D01*
X17185Y3936D01*
X17145Y3929D01*
X17112Y3926D01*
X17082Y3922D01*
X17059Y3922D01*
X17012Y3926D01*
X16972Y3929D01*
X16935Y3936D01*
X16902Y3942D01*
X16879Y3949D01*
X16859Y3952D01*
X16845Y3959D01*
X16842Y3959D01*
X16809Y3976D01*
X16782Y3992D01*
X16759Y4009D01*
X16739Y4029D01*
X16722Y4042D01*
X16712Y4056D01*
X16705Y4062D01*
X16702Y4066D01*
X16685Y4092D01*
X16669Y4119D01*
X16649Y4166D01*
X16642Y4186D01*
X16639Y4199D01*
X16635Y4209D01*
X16635Y4212D01*
X16629Y4246D01*
X16625Y4282D01*
X16622Y4326D01*
X16622Y4366D01*
X16619Y4402D01*
X16619Y4432D01*
X16619Y4452D01*
X16619Y4456D01*
X16619Y4459D01*
X16619Y4689D01*
X16619Y4736D01*
X16622Y4782D01*
X16625Y4822D01*
X16632Y4859D01*
X16639Y4889D01*
X16645Y4919D01*
X16652Y4945D01*
X16659Y4969D01*
X16672Y5002D01*
X16685Y5029D01*
X16695Y5042D01*
X16699Y5045D01*
X16732Y5075D01*
X16769Y5099D01*
X16809Y5115D01*
X16845Y5129D01*
X16879Y5135D01*
X16905Y5139D01*
X16932Y5139D01*
X16982Y5135D01*
X17029Y5122D01*
X17069Y5105D01*
X17102Y5085D01*
X17125Y5065D01*
X17145Y5049D01*
X17159Y5035D01*
X17162Y5032D01*
X17162Y5299D01*
X16692Y5299D01*
X16692Y5555D01*
X17502Y5555D01*
X17522Y4752D01*
X17522Y4752D02*
G37*
G36*
X16685Y6752D02*
X16785Y6745D01*
X16879Y6732D01*
X16972Y6712D01*
X17059Y6692D01*
X17142Y6668D01*
X17219Y6645D01*
X17292Y6622D01*
X17355Y6595D01*
X17415Y6572D01*
X17465Y6548D01*
X17508Y6528D01*
X17542Y6512D01*
X17568Y6498D01*
X17582Y6488D01*
X17588Y6485D01*
X17672Y6432D01*
X17752Y6378D01*
X17825Y6318D01*
X17895Y6258D01*
X17958Y6199D01*
X18018Y6139D01*
X18075Y6079D01*
X18122Y6022D01*
X18168Y5969D01*
X18205Y5919D01*
X18238Y5872D01*
X18265Y5835D01*
X18288Y5802D01*
X18302Y5779D01*
X18312Y5765D01*
X18315Y5759D01*
X18362Y5672D01*
X18402Y5582D01*
X18438Y5495D01*
X18468Y5409D01*
X18495Y5322D01*
X18515Y5239D01*
X18535Y5159D01*
X18548Y5085D01*
X18558Y5015D01*
X18568Y4952D01*
X18575Y4896D01*
X18578Y4849D01*
X18578Y4809D01*
X18582Y4779D01*
X18582Y4762D01*
X18582Y4756D01*
X18895Y4756D01*
X18235Y4119D01*
X17572Y4756D01*
X17915Y4756D01*
X17912Y4859D01*
X17898Y4955D01*
X17878Y5049D01*
X17855Y5135D01*
X17825Y5219D01*
X17792Y5295D01*
X17758Y5369D01*
X17722Y5432D01*
X17685Y5492D01*
X17652Y5545D01*
X17618Y5589D01*
X17588Y5625D01*
X17565Y5655D01*
X17545Y5679D01*
X17532Y5692D01*
X17528Y5695D01*
X17455Y5765D01*
X17375Y5825D01*
X17295Y5875D01*
X17215Y5922D01*
X17135Y5959D01*
X17059Y5989D01*
X16982Y6015D01*
X16912Y6035D01*
X16842Y6052D01*
X16782Y6065D01*
X16725Y6072D01*
X16679Y6079D01*
X16639Y6082D01*
X16609Y6085D01*
X16585Y6085D01*
X16505Y6082D01*
X16429Y6075D01*
X16355Y6062D01*
X16282Y6045D01*
X16215Y6029D01*
X16152Y6005D01*
X16092Y5985D01*
X16039Y5962D01*
X15989Y5939D01*
X15942Y5915D01*
X15906Y5892D01*
X15872Y5875D01*
X15846Y5859D01*
X15829Y5845D01*
X15816Y5839D01*
X15812Y5835D01*
X15749Y5789D01*
X15692Y5735D01*
X15639Y5685D01*
X15589Y5629D01*
X15546Y5575D01*
X15506Y5522D01*
X15469Y5469D01*
X15439Y5419D01*
X15412Y5369D01*
X15389Y5325D01*
X15369Y5285D01*
X15352Y5252D01*
X15342Y5225D01*
X15332Y5202D01*
X15326Y5189D01*
X15326Y5185D01*
X14936Y5555D01*
X14663Y5292D01*
X14699Y5412D01*
X14746Y5522D01*
X14796Y5629D01*
X14852Y5729D01*
X14909Y5822D01*
X14969Y5909D01*
X15029Y5989D01*
X15089Y6062D01*
X15146Y6125D01*
X15199Y6182D01*
X15249Y6232D01*
X15292Y6272D01*
X15329Y6302D01*
X15356Y6325D01*
X15372Y6342D01*
X15379Y6345D01*
X15479Y6418D01*
X15582Y6482D01*
X15689Y6535D01*
X15792Y6582D01*
X15896Y6622D01*
X15996Y6655D01*
X16092Y6682D01*
X16182Y6705D01*
X16265Y6722D01*
X16345Y6735D01*
X16412Y6742D01*
X16472Y6748D01*
X16519Y6752D01*
X16539Y6755D01*
X16585Y6755D01*
X16685Y6752D01*
X16685Y6752D02*
G37*
G36*
X16155Y5585D02*
X16205Y5579D01*
X16252Y5565D01*
X16289Y5555D01*
X16319Y5542D01*
X16342Y5529D01*
X16359Y5522D01*
X16362Y5519D01*
X16399Y5492D01*
X16429Y5462D01*
X16452Y5432D01*
X16472Y5405D01*
X16485Y5382D01*
X16495Y5362D01*
X16499Y5345D01*
X16502Y5342D01*
X16515Y5299D01*
X16522Y5245D01*
X16529Y5192D01*
X16535Y5139D01*
X16535Y5089D01*
X16539Y5049D01*
X16539Y5032D01*
X16539Y5022D01*
X16539Y5015D01*
X16539Y5012D01*
X16539Y4456D01*
X16539Y4396D01*
X16535Y4346D01*
X16532Y4306D01*
X16525Y4269D01*
X16522Y4242D01*
X16519Y4226D01*
X16515Y4212D01*
X16515Y4209D01*
X16492Y4152D01*
X16482Y4126D01*
X16469Y4106D01*
X16455Y4086D01*
X16449Y4072D01*
X16442Y4062D01*
X16439Y4059D01*
X16395Y4016D01*
X16349Y3982D01*
X16329Y3972D01*
X16312Y3962D01*
X16302Y3959D01*
X16299Y3956D01*
X16262Y3946D01*
X16225Y3936D01*
X16189Y3929D01*
X16152Y3926D01*
X16119Y3926D01*
X16095Y3922D01*
X16036Y3922D01*
X15999Y3926D01*
X15969Y3932D01*
X15939Y3939D01*
X15919Y3942D01*
X15899Y3949D01*
X15889Y3952D01*
X15886Y3952D01*
X15856Y3966D01*
X15829Y3982D01*
X15806Y4002D01*
X15786Y4019D01*
X15769Y4036D01*
X15756Y4046D01*
X15749Y4056D01*
X15746Y4059D01*
X15726Y4089D01*
X15709Y4116D01*
X15696Y4142D01*
X15686Y4166D01*
X15679Y4186D01*
X15672Y4202D01*
X15669Y4212D01*
X15669Y4216D01*
X15662Y4252D01*
X15656Y4292D01*
X15652Y4336D01*
X15652Y4379D01*
X15649Y4419D01*
X15649Y4452D01*
X15649Y4466D01*
X15649Y4476D01*
X15649Y4479D01*
X15649Y4482D01*
X15649Y5012D01*
X15649Y5075D01*
X15652Y5132D01*
X15656Y5179D01*
X15656Y5215D01*
X15659Y5242D01*
X15662Y5262D01*
X15666Y5275D01*
X15666Y5279D01*
X15682Y5339D01*
X15692Y5362D01*
X15706Y5385D01*
X15716Y5402D01*
X15726Y5419D01*
X15729Y5425D01*
X15732Y5429D01*
X15752Y5455D01*
X15776Y5475D01*
X15822Y5512D01*
X15846Y5525D01*
X15862Y5535D01*
X15876Y5539D01*
X15879Y5542D01*
X15916Y5559D01*
X15956Y5569D01*
X15992Y5579D01*
X16026Y5582D01*
X16056Y5585D01*
X16079Y5589D01*
X16099Y5589D01*
X16155Y5585D01*
X16155Y5585D02*
G37*
G36*
X15602Y4756D02*
X15256Y4756D01*
X15259Y4656D01*
X15272Y4556D01*
X15292Y4462D01*
X15316Y4376D01*
X15346Y4292D01*
X15379Y4216D01*
X15416Y4142D01*
X15452Y4079D01*
X15489Y4019D01*
X15526Y3966D01*
X15559Y3922D01*
X15589Y3886D01*
X15612Y3856D01*
X15632Y3832D01*
X15646Y3819D01*
X15649Y3816D01*
X15722Y3749D01*
X15802Y3689D01*
X15879Y3636D01*
X15959Y3592D01*
X16039Y3556D01*
X16115Y3523D01*
X16192Y3499D01*
X16262Y3479D01*
X16329Y3463D01*
X16392Y3449D01*
X16445Y3443D01*
X16495Y3436D01*
X16532Y3433D01*
X16562Y3429D01*
X16585Y3429D01*
X16665Y3433D01*
X16742Y3439D01*
X16815Y3453D01*
X16885Y3469D01*
X16955Y3486D01*
X17019Y3506D01*
X17079Y3529D01*
X17132Y3553D01*
X17185Y3576D01*
X17229Y3599D01*
X17269Y3619D01*
X17302Y3636D01*
X17325Y3652D01*
X17345Y3666D01*
X17358Y3672D01*
X17362Y3676D01*
X17425Y3722D01*
X17482Y3776D01*
X17535Y3829D01*
X17582Y3882D01*
X17628Y3936D01*
X17668Y3992D01*
X17702Y4042D01*
X17732Y4096D01*
X17762Y4142D01*
X17785Y4189D01*
X17802Y4226D01*
X17818Y4262D01*
X17828Y4289D01*
X17838Y4312D01*
X17842Y4326D01*
X17845Y4329D01*
X18235Y3959D01*
X18508Y4219D01*
X18468Y4099D01*
X18425Y3986D01*
X18375Y3879D01*
X18318Y3779D01*
X18262Y3686D01*
X18202Y3599D01*
X18142Y3519D01*
X18082Y3446D01*
X18025Y3383D01*
X17968Y3326D01*
X17922Y3276D01*
X17878Y3236D01*
X17842Y3206D01*
X17815Y3183D01*
X17798Y3166D01*
X17792Y3163D01*
X17692Y3093D01*
X17585Y3029D01*
X17482Y2976D01*
X17378Y2929D01*
X17275Y2889D01*
X17175Y2859D01*
X17079Y2833D01*
X16989Y2809D01*
X16905Y2793D01*
X16825Y2779D01*
X16759Y2773D01*
X16699Y2766D01*
X16652Y2763D01*
X16632Y2759D01*
X16585Y2759D01*
X16485Y2763D01*
X16385Y2769D01*
X16292Y2783D01*
X16199Y2803D01*
X16112Y2823D01*
X16029Y2843D01*
X15952Y2869D01*
X15882Y2893D01*
X15816Y2916D01*
X15759Y2943D01*
X15709Y2963D01*
X15666Y2986D01*
X15632Y3003D01*
X15606Y3016D01*
X15592Y3023D01*
X15586Y3026D01*
X15502Y3079D01*
X15422Y3136D01*
X15349Y3193D01*
X15279Y3253D01*
X15212Y3316D01*
X15152Y3376D01*
X15099Y3436D01*
X15049Y3493D01*
X15006Y3546D01*
X14969Y3596D01*
X14936Y3642D01*
X14909Y3679D01*
X14886Y3712D01*
X14872Y3736D01*
X14862Y3749D01*
X14859Y3756D01*
X14812Y3842D01*
X14769Y3932D01*
X14733Y4019D01*
X14703Y4106D01*
X14676Y4192D01*
X14656Y4276D01*
X14636Y4352D01*
X14623Y4429D01*
X14613Y4499D01*
X14603Y4559D01*
X14596Y4616D01*
X14593Y4666D01*
X14593Y4702D01*
X14589Y4732D01*
X14589Y4749D01*
X14589Y4756D01*
X14276Y4756D01*
X14936Y5389D01*
X15602Y4756D01*
X15602Y4756D02*
G37*
G36*
X19099Y20039D02*
X19119Y20029D01*
X19134Y20024D01*
X19139Y20019D01*
X19154Y20009D01*
X19164Y20004D01*
X19169Y20004D01*
X19264Y19944D01*
X19354Y19874D01*
X19439Y19804D01*
X19519Y19739D01*
X19584Y19679D01*
X19634Y19629D01*
X19654Y19609D01*
X19669Y19594D01*
X19674Y19589D01*
X19679Y19584D01*
X19774Y19484D01*
X19854Y19394D01*
X19929Y19304D01*
X19989Y19229D01*
X20039Y19164D01*
X20079Y19119D01*
X20089Y19099D01*
X20099Y19084D01*
X20109Y19079D01*
X20109Y19074D01*
X20139Y19029D01*
X20164Y18994D01*
X20188Y18959D01*
X20208Y18934D01*
X20238Y18889D01*
X20258Y18859D01*
X20268Y18844D01*
X20273Y18834D01*
X20278Y18829D01*
X20278Y18834D01*
X20283Y18844D01*
X20298Y18874D01*
X20318Y18904D01*
X20323Y18914D01*
X20323Y18919D01*
X20358Y18989D01*
X20393Y19054D01*
X20408Y19079D01*
X20418Y19099D01*
X20423Y19114D01*
X20428Y19119D01*
X20458Y19154D01*
X20488Y19174D01*
X20513Y19189D01*
X20518Y19194D01*
X20523Y19194D01*
X20548Y19199D01*
X20573Y19194D01*
X20603Y19179D01*
X20628Y19169D01*
X20648Y19154D01*
X20668Y19139D01*
X20678Y19129D01*
X20683Y19124D01*
X20713Y19094D01*
X20738Y19074D01*
X20753Y19059D01*
X20768Y19049D01*
X20778Y19039D01*
X20758Y19039D01*
X20733Y19029D01*
X20713Y19014D01*
X20693Y18994D01*
X20648Y18944D01*
X20608Y18884D01*
X20573Y18824D01*
X20548Y18769D01*
X20538Y18749D01*
X20528Y18734D01*
X20523Y18724D01*
X20523Y18719D01*
X20498Y18664D01*
X20473Y18614D01*
X20458Y18569D01*
X20438Y18529D01*
X20423Y18499D01*
X20413Y18474D01*
X20398Y18434D01*
X20383Y18409D01*
X20378Y18399D01*
X20378Y18394D01*
X20114Y18594D01*
X20079Y18674D01*
X20039Y18754D01*
X19994Y18839D01*
X19949Y18919D01*
X19904Y18984D01*
X19869Y19039D01*
X19859Y19059D01*
X19849Y19074D01*
X19839Y19084D01*
X19839Y19089D01*
X19764Y19199D01*
X19684Y19304D01*
X19609Y19399D01*
X19534Y19484D01*
X19474Y19549D01*
X19429Y19604D01*
X19409Y19624D01*
X19394Y19639D01*
X19389Y19644D01*
X19384Y19649D01*
X19304Y19734D01*
X19269Y19774D01*
X19234Y19809D01*
X19204Y19839D01*
X19179Y19859D01*
X19164Y19874D01*
X19159Y19879D01*
X19119Y19919D01*
X19089Y19944D01*
X19069Y19964D01*
X19054Y19979D01*
X19044Y19989D01*
X19039Y19994D01*
X19044Y19999D01*
X19049Y20004D01*
X19054Y20009D01*
X19059Y20014D01*
X19069Y20029D01*
X19074Y20039D01*
X19079Y20049D01*
X19099Y20039D01*
X19099Y20039D02*
G37*
G36*
X19944Y17780D02*
X19884Y17780D01*
X19884Y18079D01*
X19534Y18079D01*
X19534Y17780D01*
X19479Y17780D01*
X19479Y18399D01*
X19534Y18399D01*
X19534Y18134D01*
X19884Y18134D01*
X19884Y18399D01*
X19944Y18399D01*
X19944Y17780D01*
X19944Y17780D02*
G37*
G36*
X20973Y17780D02*
X20918Y17780D01*
X20918Y18054D01*
X20693Y18054D01*
X20663Y18049D01*
X20648Y18044D01*
X20643Y18039D01*
X20628Y18009D01*
X20618Y17974D01*
X20608Y17944D01*
X20608Y17934D01*
X20608Y17929D01*
X20603Y17850D01*
X20603Y17830D01*
X20603Y17825D01*
X20598Y17815D01*
X20598Y17810D01*
X20593Y17795D01*
X20593Y17785D01*
X20593Y17780D01*
X20528Y17780D01*
X20528Y17790D01*
X20533Y17795D01*
X20538Y17805D01*
X20543Y17810D01*
X20543Y17815D01*
X20543Y17820D01*
X20548Y17825D01*
X20548Y17840D01*
X20548Y17850D01*
X20558Y17944D01*
X20563Y17989D01*
X20568Y18024D01*
X20573Y18039D01*
X20578Y18044D01*
X20593Y18059D01*
X20613Y18074D01*
X20628Y18079D01*
X20633Y18084D01*
X20603Y18099D01*
X20578Y18119D01*
X20563Y18134D01*
X20558Y18139D01*
X20543Y18174D01*
X20538Y18204D01*
X20533Y18229D01*
X20533Y18239D01*
X20538Y18269D01*
X20543Y18294D01*
X20548Y18314D01*
X20553Y18319D01*
X20573Y18344D01*
X20588Y18359D01*
X20603Y18369D01*
X20608Y18374D01*
X20628Y18384D01*
X20643Y18389D01*
X20663Y18394D01*
X20678Y18394D01*
X20688Y18399D01*
X20973Y18399D01*
X20973Y17780D01*
X20973Y17780D02*
G37*
G36*
X20313Y18229D02*
X20363Y18209D01*
X20393Y18189D01*
X20398Y18184D01*
X20403Y18179D01*
X20433Y18124D01*
X20448Y18069D01*
X20448Y18044D01*
X20453Y18024D01*
X20453Y18009D01*
X20453Y18004D01*
X20453Y17964D01*
X20443Y17929D01*
X20438Y17899D01*
X20428Y17874D01*
X20418Y17860D01*
X20413Y17844D01*
X20403Y17840D01*
X20403Y17834D01*
X20378Y17815D01*
X20353Y17800D01*
X20303Y17780D01*
X20283Y17775D01*
X20263Y17770D01*
X20248Y17770D01*
X20213Y17775D01*
X20184Y17780D01*
X20139Y17805D01*
X20109Y17825D01*
X20099Y17830D01*
X20099Y17834D01*
X20079Y17860D01*
X20069Y17884D01*
X20049Y17944D01*
X20049Y17964D01*
X20044Y17984D01*
X20044Y17999D01*
X20044Y18004D01*
X20044Y18044D01*
X20054Y18074D01*
X20069Y18129D01*
X20079Y18149D01*
X20089Y18169D01*
X20094Y18174D01*
X20099Y18179D01*
X20119Y18199D01*
X20144Y18214D01*
X20194Y18234D01*
X20213Y18234D01*
X20233Y18239D01*
X20283Y18239D01*
X20313Y18229D01*
X20313Y18229D02*
G37*
G36*
X19214Y18409D02*
X19259Y18394D01*
X19289Y18379D01*
X19294Y18369D01*
X19299Y18369D01*
X19319Y18349D01*
X19329Y18329D01*
X19349Y18294D01*
X19354Y18264D01*
X19354Y18254D01*
X19354Y18249D01*
X19349Y18204D01*
X19334Y18169D01*
X19324Y18149D01*
X19319Y18144D01*
X19304Y18129D01*
X19284Y18119D01*
X19239Y18099D01*
X19219Y18094D01*
X19199Y18089D01*
X19189Y18084D01*
X19184Y18084D01*
X19129Y18064D01*
X19074Y18049D01*
X19039Y18034D01*
X19014Y18024D01*
X19009Y18019D01*
X18994Y17994D01*
X18989Y17969D01*
X18984Y17949D01*
X18984Y17939D01*
X18989Y17904D01*
X19004Y17874D01*
X19019Y17854D01*
X19024Y17850D01*
X19064Y17830D01*
X19104Y17820D01*
X19129Y17815D01*
X19139Y17815D01*
X19194Y17820D01*
X19234Y17834D01*
X19259Y17850D01*
X19269Y17854D01*
X19294Y17889D01*
X19304Y17929D01*
X19309Y17959D01*
X19309Y17964D01*
X19309Y17969D01*
X19369Y17969D01*
X19369Y17964D01*
X19364Y17929D01*
X19359Y17899D01*
X19339Y17854D01*
X19319Y17830D01*
X19309Y17820D01*
X19284Y17800D01*
X19259Y17790D01*
X19199Y17770D01*
X19179Y17770D01*
X19159Y17765D01*
X19139Y17765D01*
X19074Y17775D01*
X19024Y17790D01*
X18994Y17805D01*
X18984Y17815D01*
X18964Y17830D01*
X18949Y17850D01*
X18929Y17894D01*
X18929Y17914D01*
X18924Y17929D01*
X18924Y17939D01*
X18924Y17944D01*
X18934Y17989D01*
X18949Y18024D01*
X18964Y18044D01*
X18974Y18054D01*
X18994Y18069D01*
X19014Y18084D01*
X19064Y18104D01*
X19084Y18114D01*
X19104Y18119D01*
X19114Y18124D01*
X19119Y18124D01*
X19194Y18139D01*
X19229Y18154D01*
X19254Y18164D01*
X19269Y18174D01*
X19274Y18179D01*
X19284Y18199D01*
X19289Y18219D01*
X19294Y18239D01*
X19294Y18244D01*
X19289Y18284D01*
X19274Y18314D01*
X19264Y18329D01*
X19259Y18334D01*
X19229Y18354D01*
X19194Y18359D01*
X19164Y18364D01*
X19154Y18364D01*
X19109Y18359D01*
X19074Y18349D01*
X19049Y18334D01*
X19044Y18329D01*
X19019Y18299D01*
X19009Y18264D01*
X19004Y18239D01*
X19004Y18234D01*
X19004Y18229D01*
X18944Y18229D01*
X18944Y18259D01*
X18954Y18284D01*
X18974Y18329D01*
X18994Y18354D01*
X18999Y18364D01*
X19004Y18364D01*
X19029Y18384D01*
X19054Y18394D01*
X19099Y18414D01*
X19124Y18414D01*
X19139Y18419D01*
X19154Y18419D01*
X19214Y18409D01*
X19214Y18409D02*
G37*
G36*
X15257Y19430D02*
X15334Y19420D01*
X15404Y19407D01*
X15474Y19387D01*
X15537Y19363D01*
X15600Y19337D01*
X15654Y19310D01*
X15707Y19283D01*
X15754Y19253D01*
X15794Y19227D01*
X15830Y19200D01*
X15860Y19177D01*
X15884Y19157D01*
X15900Y19143D01*
X15910Y19133D01*
X15914Y19130D01*
X15967Y19073D01*
X16014Y19010D01*
X16054Y18950D01*
X16090Y18887D01*
X16117Y18827D01*
X16144Y18763D01*
X16164Y18707D01*
X16180Y18650D01*
X16190Y18597D01*
X16200Y18550D01*
X16207Y18507D01*
X16214Y18470D01*
X16214Y18440D01*
X16217Y18417D01*
X16217Y18403D01*
X16217Y18397D01*
X16214Y18317D01*
X16204Y18244D01*
X16190Y18170D01*
X16170Y18100D01*
X16147Y18037D01*
X16120Y17977D01*
X16094Y17920D01*
X16064Y17870D01*
X16037Y17824D01*
X16010Y17784D01*
X15984Y17747D01*
X15960Y17717D01*
X15940Y17694D01*
X15927Y17677D01*
X15917Y17667D01*
X15914Y17664D01*
X15854Y17610D01*
X15794Y17564D01*
X15730Y17524D01*
X15670Y17487D01*
X15607Y17460D01*
X15547Y17434D01*
X15487Y17414D01*
X15430Y17397D01*
X15377Y17387D01*
X15330Y17377D01*
X15287Y17370D01*
X15250Y17364D01*
X15217Y17364D01*
X15197Y17360D01*
X15140Y17360D01*
X15107Y17364D01*
X15074Y17364D01*
X15074Y17677D01*
X15111Y17674D01*
X15144Y17670D01*
X15177Y17670D01*
X15234Y17674D01*
X15287Y17680D01*
X15337Y17690D01*
X15387Y17704D01*
X15474Y17737D01*
X15514Y17757D01*
X15550Y17777D01*
X15580Y17797D01*
X15610Y17817D01*
X15634Y17834D01*
X15657Y17850D01*
X15670Y17864D01*
X15684Y17874D01*
X15690Y17880D01*
X15694Y17884D01*
X15730Y17924D01*
X15764Y17967D01*
X15790Y18010D01*
X15814Y18054D01*
X15834Y18097D01*
X15854Y18140D01*
X15877Y18220D01*
X15887Y18257D01*
X15894Y18290D01*
X15897Y18320D01*
X15900Y18347D01*
X15904Y18367D01*
X15904Y18383D01*
X15904Y18393D01*
X15904Y18397D01*
X15900Y18453D01*
X15894Y18503D01*
X15884Y18557D01*
X15870Y18603D01*
X15837Y18690D01*
X15817Y18730D01*
X15797Y18767D01*
X15780Y18797D01*
X15760Y18827D01*
X15744Y18850D01*
X15727Y18873D01*
X15714Y18890D01*
X15704Y18900D01*
X15697Y18907D01*
X15694Y18910D01*
X15654Y18947D01*
X15610Y18980D01*
X15567Y19010D01*
X15524Y19033D01*
X15480Y19053D01*
X15437Y19070D01*
X15354Y19097D01*
X15317Y19107D01*
X15284Y19113D01*
X15254Y19117D01*
X15227Y19120D01*
X15207Y19123D01*
X15140Y19123D01*
X15107Y19120D01*
X15094Y19120D01*
X15084Y19117D01*
X15074Y19117D01*
X15074Y19430D01*
X15111Y19433D01*
X15177Y19433D01*
X15257Y19430D01*
X15257Y19430D02*
G37*
G36*
X13494Y19430D02*
X13568Y19420D01*
X13641Y19407D01*
X13711Y19387D01*
X13774Y19363D01*
X13834Y19337D01*
X13891Y19310D01*
X13941Y19283D01*
X13987Y19253D01*
X14027Y19227D01*
X14064Y19200D01*
X14094Y19177D01*
X14117Y19157D01*
X14134Y19143D01*
X14144Y19133D01*
X14147Y19130D01*
X14201Y19073D01*
X14247Y19010D01*
X14287Y18950D01*
X14324Y18887D01*
X14351Y18827D01*
X14377Y18763D01*
X14397Y18707D01*
X14414Y18650D01*
X14424Y18597D01*
X14434Y18550D01*
X14441Y18507D01*
X14447Y18470D01*
X14447Y18440D01*
X14451Y18417D01*
X14451Y18403D01*
X14451Y18397D01*
X14447Y18317D01*
X14437Y18244D01*
X14424Y18170D01*
X14404Y18100D01*
X14381Y18037D01*
X14354Y17977D01*
X14327Y17920D01*
X14297Y17870D01*
X14271Y17824D01*
X14244Y17784D01*
X14217Y17747D01*
X14194Y17717D01*
X14174Y17694D01*
X14161Y17677D01*
X14151Y17667D01*
X14147Y17664D01*
X14091Y17610D01*
X14027Y17564D01*
X13967Y17524D01*
X13904Y17487D01*
X13844Y17460D01*
X13781Y17434D01*
X13724Y17414D01*
X13668Y17397D01*
X13614Y17387D01*
X13568Y17377D01*
X13524Y17370D01*
X13488Y17364D01*
X13454Y17364D01*
X13434Y17360D01*
X13378Y17360D01*
X13344Y17364D01*
X13311Y17364D01*
X13311Y17677D01*
X13348Y17674D01*
X13381Y17670D01*
X13414Y17670D01*
X13461Y17674D01*
X13508Y17677D01*
X13594Y17697D01*
X13671Y17720D01*
X13738Y17750D01*
X13768Y17767D01*
X13794Y17780D01*
X13817Y17794D01*
X13834Y17807D01*
X13851Y17817D01*
X13861Y17824D01*
X13867Y17827D01*
X13871Y17830D01*
X13907Y17860D01*
X13937Y17894D01*
X13994Y17964D01*
X14037Y18030D01*
X14071Y18097D01*
X14097Y18154D01*
X14104Y18177D01*
X14114Y18200D01*
X14117Y18217D01*
X14121Y18230D01*
X14124Y18237D01*
X14124Y18240D01*
X13518Y18240D01*
X13518Y18553D01*
X14124Y18553D01*
X14111Y18600D01*
X14097Y18643D01*
X14061Y18723D01*
X14021Y18793D01*
X13977Y18853D01*
X13937Y18900D01*
X13917Y18920D01*
X13904Y18933D01*
X13891Y18947D01*
X13881Y18957D01*
X13874Y18960D01*
X13871Y18963D01*
X13834Y18990D01*
X13794Y19017D01*
X13714Y19057D01*
X13638Y19083D01*
X13568Y19103D01*
X13504Y19117D01*
X13481Y19120D01*
X13458Y19120D01*
X13438Y19123D01*
X13374Y19123D01*
X13341Y19120D01*
X13331Y19120D01*
X13321Y19117D01*
X13311Y19117D01*
X13311Y19430D01*
X13351Y19433D01*
X13414Y19433D01*
X13494Y19430D01*
X13494Y19430D02*
G37*
G36*
X15789Y12072D02*
X15790Y12071D01*
X15790Y12071D01*
X15790Y12071D01*
X15790Y12071D01*
X15790Y12071D01*
X15789Y12071D01*
X15789Y12071D01*
X15789Y12069D01*
X15789Y12069D01*
X15789Y12072D01*
X15789Y12072D01*
X15789Y12072D01*
X15789Y12072D02*
G37*
G36*
X15785Y12072D02*
X15785Y12071D01*
X15785Y12071D01*
X15785Y12071D01*
X15785Y12070D01*
X15785Y12070D01*
X15785Y12070D01*
X15784Y12070D01*
X15784Y12070D01*
X15784Y12070D01*
X15784Y12070D01*
X15784Y12070D01*
X15784Y12069D01*
X15784Y12069D01*
X15785Y12069D01*
X15785Y12069D01*
X15785Y12070D01*
X15785Y12070D01*
X15785Y12069D01*
X15785Y12069D01*
X15784Y12069D01*
X15784Y12069D01*
X15784Y12069D01*
X15784Y12070D01*
X15784Y12070D01*
X15784Y12071D01*
X15784Y12071D01*
X15784Y12071D01*
X15784Y12072D01*
X15784Y12072D01*
X15785Y12072D01*
X15785Y12072D01*
X15785Y12072D02*
G37*
G36*
X15787Y12072D02*
X15787Y12071D01*
X15788Y12071D01*
X15788Y12071D01*
X15788Y12070D01*
X15787Y12069D01*
X15787Y12070D01*
X15787Y12070D01*
X15787Y12070D01*
X15787Y12071D01*
X15787Y12071D01*
X15787Y12072D01*
X15787Y12072D01*
X15786Y12071D01*
X15786Y12071D01*
X15786Y12071D01*
X15786Y12070D01*
X15786Y12070D01*
X15786Y12069D01*
X15786Y12069D01*
X15787Y12069D01*
X15787Y12069D01*
X15787Y12069D01*
X15786Y12069D01*
X15786Y12069D01*
X15786Y12070D01*
X15786Y12070D01*
X15786Y12071D01*
X15786Y12071D01*
X15786Y12071D01*
X15786Y12071D01*
X15786Y12072D01*
X15786Y12072D01*
X15787Y12072D01*
X15787Y12072D01*
X15787Y12072D01*
X15787Y12072D02*
G37*
G36*
X15793Y12069D02*
X15793Y12069D01*
X15793Y12070D01*
X15792Y12070D01*
X15792Y12070D01*
X15792Y12070D01*
X15792Y12070D01*
X15792Y12070D01*
X15791Y12069D01*
X15791Y12069D01*
X15791Y12069D01*
X15791Y12069D01*
X15791Y12070D01*
X15791Y12070D01*
X15792Y12070D01*
X15792Y12070D01*
X15791Y12070D01*
X15791Y12070D01*
X15791Y12071D01*
X15791Y12071D01*
X15791Y12071D01*
X15791Y12071D01*
X15791Y12072D01*
X15791Y12072D01*
X15792Y12072D01*
X15793Y12072D01*
X15793Y12069D01*
X15793Y12069D02*
G37*
G36*
X19066Y8389D02*
X19066Y8388D01*
X19066Y8388D01*
X19066Y8388D01*
X19066Y8388D01*
X19066Y8388D01*
X19066Y8388D01*
X19066Y8388D01*
X19066Y8386D01*
X19065Y8386D01*
X19065Y8389D01*
X19066Y8389D01*
X19066Y8389D01*
X19066Y8389D02*
G37*
G36*
X19064Y8389D02*
X19064Y8388D01*
X19064Y8388D01*
X19064Y8388D01*
X19064Y8387D01*
X19064Y8386D01*
X19064Y8387D01*
X19064Y8387D01*
X19064Y8387D01*
X19064Y8388D01*
X19064Y8388D01*
X19064Y8389D01*
X19063Y8389D01*
X19063Y8388D01*
X19063Y8388D01*
X19063Y8388D01*
X19063Y8387D01*
X19063Y8387D01*
X19063Y8386D01*
X19063Y8386D01*
X19064Y8386D01*
X19064Y8386D01*
X19063Y8386D01*
X19063Y8386D01*
X19063Y8386D01*
X19063Y8387D01*
X19063Y8387D01*
X19063Y8388D01*
X19063Y8388D01*
X19063Y8388D01*
X19063Y8388D01*
X19063Y8389D01*
X19063Y8389D01*
X19063Y8389D01*
X19064Y8389D01*
X19064Y8389D01*
X19064Y8389D02*
G37*
G36*
X19062Y8389D02*
X19062Y8388D01*
X19062Y8388D01*
X19062Y8388D01*
X19062Y8387D01*
X19062Y8386D01*
X19062Y8387D01*
X19062Y8387D01*
X19062Y8387D01*
X19062Y8388D01*
X19062Y8388D01*
X19062Y8389D01*
X19061Y8389D01*
X19061Y8388D01*
X19061Y8388D01*
X19061Y8388D01*
X19061Y8387D01*
X19061Y8387D01*
X19061Y8386D01*
X19061Y8386D01*
X19062Y8386D01*
X19062Y8386D01*
X19061Y8386D01*
X19061Y8386D01*
X19061Y8386D01*
X19060Y8387D01*
X19060Y8387D01*
X19060Y8388D01*
X19061Y8388D01*
X19061Y8388D01*
X19061Y8388D01*
X19061Y8389D01*
X19061Y8389D01*
X19061Y8389D01*
X19062Y8389D01*
X19062Y8389D01*
X19062Y8389D02*
G37*
G36*
X19069Y8386D02*
X19069Y8386D01*
X19069Y8387D01*
X19069Y8387D01*
X19069Y8387D01*
X19068Y8387D01*
X19068Y8387D01*
X19068Y8387D01*
X19068Y8386D01*
X19067Y8386D01*
X19067Y8386D01*
X19068Y8386D01*
X19068Y8387D01*
X19068Y8387D01*
X19068Y8387D01*
X19068Y8387D01*
X19068Y8387D01*
X19067Y8387D01*
X19067Y8388D01*
X19067Y8388D01*
X19067Y8388D01*
X19067Y8388D01*
X19067Y8389D01*
X19068Y8389D01*
X19068Y8389D01*
X19069Y8389D01*
X19069Y8386D01*
X19069Y8386D02*
G37*
G36*
X18226Y10624D02*
X18226Y10624D01*
X18226Y10623D01*
X18226Y10623D01*
X18226Y10624D01*
X18226Y10624D01*
X18225Y10624D01*
X18225Y10624D01*
X18225Y10623D01*
X18225Y10623D01*
X18225Y10623D01*
X18225Y10623D01*
X18225Y10622D01*
X18225Y10622D01*
X18226Y10622D01*
X18226Y10621D01*
X18226Y10621D01*
X18224Y10621D01*
X18224Y10621D01*
X18226Y10621D01*
X18225Y10622D01*
X18225Y10622D01*
X18225Y10622D01*
X18225Y10622D01*
X18225Y10623D01*
X18224Y10623D01*
X18224Y10623D01*
X18224Y10624D01*
X18225Y10624D01*
X18225Y10624D01*
X18226Y10624D01*
X18226Y10624D01*
X18226Y10624D02*
G37*
G36*
X18228Y10624D02*
X18228Y10624D01*
X18228Y10623D01*
X18228Y10623D01*
X18228Y10623D01*
X18228Y10623D01*
X18228Y10623D01*
X18227Y10624D01*
X18227Y10621D01*
X18227Y10621D01*
X18227Y10624D01*
X18227Y10624D01*
X18228Y10624D01*
X18228Y10624D02*
G37*
G36*
X18224Y10623D02*
X18224Y10623D01*
X18223Y10623D01*
X18223Y10623D01*
X18223Y10623D01*
X18223Y10623D01*
X18224Y10623D01*
X18224Y10624D01*
X18222Y10624D01*
X18222Y10624D01*
X18224Y10624D01*
X18224Y10623D01*
X18224Y10623D02*
G37*
G36*
X18223Y10623D02*
X18223Y10623D01*
X18223Y10623D01*
X18223Y10623D01*
X18223Y10623D02*
G37*
G36*
X18231Y10621D02*
X18231Y10621D01*
X18231Y10622D01*
X18230Y10622D01*
X18230Y10622D01*
X18230Y10622D01*
X18230Y10622D01*
X18230Y10622D01*
X18230Y10622D01*
X18229Y10621D01*
X18229Y10621D01*
X18229Y10622D01*
X18230Y10622D01*
X18230Y10622D01*
X18230Y10622D01*
X18230Y10622D01*
X18229Y10623D01*
X18229Y10623D01*
X18229Y10623D01*
X18229Y10623D01*
X18229Y10623D01*
X18229Y10624D01*
X18229Y10624D01*
X18229Y10624D01*
X18230Y10624D01*
X18231Y10624D01*
X18231Y10621D01*
X18231Y10621D02*
G37*
G36*
X18222Y10622D02*
X18222Y10622D01*
X18223Y10621D01*
X18224Y10621D01*
X18224Y10622D01*
X18224Y10622D01*
X18224Y10622D01*
X18224Y10621D01*
X18224Y10621D01*
X18223Y10621D01*
X18223Y10621D01*
X18222Y10621D01*
X18222Y10622D01*
X18222Y10622D01*
X18222Y10622D01*
X18222Y10622D01*
X18222Y10622D02*
G37*
G36*
X19039Y16542D02*
X19039Y16542D01*
X19039Y16542D01*
X19039Y16542D01*
X19039Y16542D01*
X19038Y16542D01*
X19038Y16542D01*
X19038Y16542D01*
X19037Y16542D01*
X19037Y16541D01*
X19037Y16541D01*
X19038Y16541D01*
X19038Y16540D01*
X19038Y16540D01*
X19039Y16540D01*
X19039Y16539D01*
X19039Y16539D01*
X19037Y16539D01*
X19037Y16539D01*
X19039Y16539D01*
X19038Y16540D01*
X19038Y16540D01*
X19038Y16540D01*
X19038Y16540D01*
X19037Y16541D01*
X19037Y16541D01*
X19037Y16541D01*
X19037Y16542D01*
X19037Y16542D01*
X19038Y16542D01*
X19038Y16542D01*
X19039Y16542D01*
X19039Y16542D02*
G37*
G36*
X19040Y16542D02*
X19041Y16542D01*
X19041Y16542D01*
X19041Y16542D01*
X19041Y16541D01*
X19041Y16541D01*
X19040Y16542D01*
X19040Y16542D01*
X19040Y16539D01*
X19040Y16539D01*
X19040Y16542D01*
X19040Y16542D01*
X19040Y16542D01*
X19040Y16542D02*
G37*
G36*
X19044Y16539D02*
X19044Y16539D01*
X19044Y16540D01*
X19043Y16540D01*
X19043Y16540D01*
X19043Y16540D01*
X19043Y16540D01*
X19043Y16540D01*
X19042Y16540D01*
X19042Y16539D01*
X19042Y16539D01*
X19042Y16540D01*
X19042Y16540D01*
X19042Y16540D01*
X19043Y16540D01*
X19043Y16540D01*
X19042Y16541D01*
X19042Y16541D01*
X19042Y16541D01*
X19042Y16541D01*
X19042Y16542D01*
X19042Y16542D01*
X19042Y16542D01*
X19042Y16542D01*
X19043Y16542D01*
X19044Y16542D01*
X19044Y16539D01*
X19044Y16539D02*
G37*
G36*
X19037Y16542D02*
X19035Y16542D01*
X19036Y16541D01*
X19036Y16541D01*
X19036Y16540D01*
X19036Y16540D01*
X19036Y16539D01*
X19036Y16539D01*
X19036Y16539D01*
X19036Y16540D01*
X19036Y16540D01*
X19036Y16541D01*
X19035Y16541D01*
X19035Y16542D01*
X19035Y16542D01*
X19035Y16542D01*
X19037Y16542D01*
X19037Y16542D01*
X19037Y16542D02*
G37*
%LPC*%
G36*
X19748Y26377D02*
X19333Y26377D01*
X19308Y26375D01*
X19286Y26370D01*
X19263Y26362D01*
X19246Y26352D01*
X19233Y26342D01*
X19223Y26335D01*
X19216Y26330D01*
X19213Y26327D01*
X19196Y26307D01*
X19183Y26287D01*
X19173Y26267D01*
X19168Y26250D01*
X19163Y26235D01*
X19161Y26222D01*
X19161Y26212D01*
X19161Y26210D01*
X19161Y25940D01*
X19910Y25940D01*
X19910Y26210D01*
X19908Y26232D01*
X19903Y26252D01*
X19898Y26267D01*
X19895Y26270D01*
X19895Y26272D01*
X19883Y26292D01*
X19873Y26310D01*
X19863Y26320D01*
X19860Y26325D01*
X19843Y26342D01*
X19825Y26352D01*
X19810Y26360D01*
X19808Y26362D01*
X19805Y26362D01*
X19780Y26372D01*
X19758Y26375D01*
X19748Y26377D01*
X19748Y26377D02*
G37*
G36*
X5473Y4810D02*
X5247Y4810D01*
X5247Y4774D01*
X5473Y4774D01*
X5473Y4810D01*
X5473Y4810D02*
G37*
G36*
X5540Y4757D02*
X5540Y4707D01*
X5183Y4707D01*
X5183Y4750D01*
X5107Y4740D01*
X5040Y4724D01*
X4983Y4707D01*
X4940Y4687D01*
X4903Y4667D01*
X4880Y4644D01*
X4880Y4627D01*
X5710Y4627D01*
X5710Y4737D01*
X5656Y4747D01*
X5603Y4754D01*
X5540Y4757D01*
X5540Y4757D02*
G37*
G36*
X5800Y4774D02*
X5773Y4774D01*
X5773Y4687D01*
X5800Y4687D01*
X5800Y4774D01*
X5800Y4774D02*
G37*
G36*
X5863Y4690D02*
X5863Y4627D01*
X5940Y4627D01*
X5943Y4637D01*
X5923Y4657D01*
X5900Y4674D01*
X5863Y4690D01*
X5863Y4690D02*
G37*
G36*
X4783Y4677D02*
X4777Y4677D01*
X4760Y4674D01*
X4750Y4664D01*
X4747Y4650D01*
X4747Y4647D01*
X4750Y4627D01*
X4760Y4617D01*
X4773Y4614D01*
X4777Y4614D01*
X4797Y4620D01*
X4807Y4630D01*
X4810Y4640D01*
X4810Y4647D01*
X4803Y4664D01*
X4793Y4674D01*
X4783Y4677D01*
X4783Y4677D02*
G37*
G36*
X4857Y4394D02*
X4733Y4394D01*
X4733Y4271D01*
X4857Y4271D01*
X4857Y4394D01*
X4857Y4394D02*
G37*
G36*
X5483Y4114D02*
X5147Y4114D01*
X5147Y4091D01*
X5483Y4091D01*
X5483Y4114D01*
X5483Y4114D02*
G37*
G36*
X5930Y4514D02*
X4887Y4514D01*
X4893Y4457D01*
X4923Y4457D01*
X4923Y4337D01*
X5077Y4177D01*
X5546Y4177D01*
X5546Y4031D01*
X5223Y4031D01*
X5440Y3807D01*
X5910Y4294D01*
X5930Y4514D01*
X5930Y4514D02*
G37*
G36*
X5900Y4191D02*
X5483Y3761D01*
X5826Y3407D01*
X5900Y4191D01*
X5900Y4191D02*
G37*
G36*
X4923Y4244D02*
X4923Y4207D01*
X4913Y4207D01*
X4990Y3337D01*
X5393Y3761D01*
X5130Y4031D01*
X5077Y4031D01*
X5077Y4084D01*
X4923Y4244D01*
X4923Y4244D02*
G37*
G36*
X5440Y3714D02*
X4997Y3254D01*
X5003Y3174D01*
X5067Y3174D01*
X5107Y3161D01*
X5147Y3141D01*
X5177Y3121D01*
X5203Y3094D01*
X5230Y3057D01*
X5250Y3014D01*
X5260Y2964D01*
X5257Y2931D01*
X5783Y2931D01*
X5820Y3324D01*
X5440Y3714D01*
X5440Y3714D02*
G37*
G36*
X5050Y3061D02*
X5033Y3061D01*
X4997Y3057D01*
X4967Y3044D01*
X4947Y3027D01*
X4933Y3007D01*
X4927Y2984D01*
X4920Y2967D01*
X4920Y2954D01*
X4920Y2951D01*
X4923Y2914D01*
X4937Y2884D01*
X4957Y2864D01*
X4977Y2851D01*
X4997Y2844D01*
X5017Y2841D01*
X5030Y2838D01*
X5033Y2838D01*
X5070Y2841D01*
X5097Y2854D01*
X5117Y2874D01*
X5130Y2894D01*
X5137Y2914D01*
X5140Y2934D01*
X5143Y2947D01*
X5143Y2951D01*
X5140Y2987D01*
X5127Y3014D01*
X5110Y3034D01*
X5087Y3047D01*
X5067Y3054D01*
X5050Y3061D01*
X5050Y3061D02*
G37*
G36*
X5756Y2864D02*
X5743Y2864D01*
X5743Y2774D01*
X5756Y2774D01*
X5756Y2864D01*
X5756Y2864D02*
G37*
%LPD*%
G36*
X5057Y3021D02*
X5077Y3014D01*
X5090Y3001D01*
X5097Y2987D01*
X5103Y2974D01*
X5107Y2961D01*
X5107Y2954D01*
X5107Y2951D01*
X5103Y2924D01*
X5097Y2908D01*
X5083Y2894D01*
X5070Y2884D01*
X5057Y2878D01*
X5043Y2874D01*
X5033Y2874D01*
X5007Y2878D01*
X4990Y2888D01*
X4977Y2898D01*
X4967Y2914D01*
X4960Y2928D01*
X4957Y2938D01*
X4957Y2947D01*
X4957Y2951D01*
X4960Y2974D01*
X4970Y2994D01*
X4980Y3007D01*
X4993Y3014D01*
X5010Y3021D01*
X5020Y3024D01*
X5033Y3024D01*
X5057Y3021D01*
X5057Y3021D02*
G37*
%LPC*%
G36*
X5037Y2961D02*
X5027Y2961D01*
X5020Y2957D01*
X5020Y2954D01*
X5020Y2951D01*
X5023Y2944D01*
X5027Y2941D01*
X5030Y2938D01*
X5033Y2938D01*
X5040Y2941D01*
X5043Y2944D01*
X5043Y2947D01*
X5043Y2951D01*
X5040Y2957D01*
X5037Y2961D01*
X5037Y2961D02*
G37*
G36*
X16099Y5345D02*
X16079Y5345D01*
X16066Y5339D01*
X16049Y5329D01*
X16042Y5315D01*
X16039Y5312D01*
X16039Y5309D01*
X16036Y5292D01*
X16032Y5269D01*
X16029Y5245D01*
X16026Y5219D01*
X16026Y5192D01*
X16026Y5172D01*
X16026Y5159D01*
X16026Y5152D01*
X16026Y4359D01*
X16026Y4319D01*
X16029Y4286D01*
X16032Y4256D01*
X16032Y4236D01*
X16036Y4219D01*
X16039Y4209D01*
X16042Y4206D01*
X16042Y4202D01*
X16056Y4182D01*
X16072Y4172D01*
X16089Y4169D01*
X16095Y4169D01*
X16122Y4172D01*
X16135Y4182D01*
X16145Y4192D01*
X16149Y4196D01*
X16152Y4212D01*
X16155Y4236D01*
X16159Y4262D01*
X16159Y4292D01*
X16162Y4322D01*
X16162Y4346D01*
X16162Y4362D01*
X16162Y4369D01*
X16162Y5152D01*
X16162Y5195D01*
X16159Y5229D01*
X16159Y5255D01*
X16155Y5275D01*
X16152Y5292D01*
X16152Y5302D01*
X16149Y5309D01*
X16142Y5322D01*
X16135Y5329D01*
X16115Y5342D01*
X16099Y5345D01*
X16099Y5345D02*
G37*
G36*
X20918Y18349D02*
X20723Y18349D01*
X20703Y18344D01*
X20688Y18339D01*
X20663Y18339D01*
X20648Y18334D01*
X20643Y18329D01*
X20638Y18329D01*
X20623Y18314D01*
X20613Y18304D01*
X20603Y18294D01*
X20603Y18289D01*
X20598Y18264D01*
X20593Y18244D01*
X20593Y18234D01*
X20593Y18229D01*
X20598Y18189D01*
X20608Y18159D01*
X20623Y18144D01*
X20628Y18139D01*
X20668Y18124D01*
X20708Y18114D01*
X20738Y18109D01*
X20918Y18109D01*
X20918Y18349D01*
X20918Y18349D02*
G37*
G36*
X20258Y18194D02*
X20223Y18194D01*
X20204Y18184D01*
X20169Y18169D01*
X20149Y18149D01*
X20144Y18144D01*
X20144Y18139D01*
X20129Y18124D01*
X20119Y18099D01*
X20104Y18059D01*
X20099Y18034D01*
X20099Y18019D01*
X20099Y18009D01*
X20099Y18004D01*
X20104Y17944D01*
X20119Y17904D01*
X20139Y17874D01*
X20144Y17869D01*
X20144Y17865D01*
X20174Y17834D01*
X20208Y17820D01*
X20238Y17815D01*
X20248Y17815D01*
X20298Y17825D01*
X20333Y17840D01*
X20353Y17854D01*
X20358Y17865D01*
X20383Y17909D01*
X20398Y17954D01*
X20398Y17974D01*
X20403Y17989D01*
X20403Y17999D01*
X20403Y18004D01*
X20398Y18059D01*
X20378Y18104D01*
X20363Y18129D01*
X20358Y18139D01*
X20343Y18159D01*
X20328Y18169D01*
X20288Y18189D01*
X20258Y18194D01*
X20258Y18194D02*
G37*
G36*
X15785Y12072D02*
X15784Y12072D01*
X15784Y12071D01*
X15784Y12071D01*
X15784Y12071D01*
X15784Y12070D01*
X15784Y12070D01*
X15785Y12070D01*
X15785Y12070D01*
X15785Y12071D01*
X15785Y12071D01*
X15785Y12071D01*
X15785Y12072D01*
X15785Y12072D02*
G37*
G36*
X15793Y12072D02*
X15791Y12072D01*
X15791Y12071D01*
X15791Y12071D01*
X15791Y12071D01*
X15791Y12071D01*
X15791Y12070D01*
X15793Y12070D01*
X15793Y12072D01*
X15793Y12072D02*
G37*
G36*
X19069Y8389D02*
X19068Y8389D01*
X19068Y8388D01*
X19067Y8388D01*
X19067Y8388D01*
X19067Y8388D01*
X19068Y8387D01*
X19069Y8387D01*
X19069Y8389D01*
X19069Y8389D02*
G37*
G36*
X18231Y10624D02*
X18230Y10624D01*
X18229Y10624D01*
X18229Y10623D01*
X18229Y10623D01*
X18229Y10623D01*
X18229Y10623D01*
X18231Y10623D01*
X18231Y10624D01*
X18231Y10624D02*
G37*
G36*
X19044Y16542D02*
X19042Y16542D01*
X19042Y16542D01*
X19042Y16542D01*
X19042Y16541D01*
X19042Y16541D01*
X19042Y16541D01*
X19044Y16541D01*
X19044Y16542D01*
X19044Y16542D02*
G37*
%LPD*%
D10*
X10389Y18732D02*
X10389Y20232D01*
X8889Y20232D02*
X10389Y20232D01*
X10389Y14032D02*
X10389Y15532D01*
X8889Y14032D02*
X10389Y14032D01*
X4189Y18732D02*
X4189Y20232D01*
X5689Y20232D01*
X4189Y14032D02*
X4189Y15532D01*
X4189Y14032D02*
X5689Y14032D01*
D12*
X287392Y-142073D02*
X286678Y-143072D01*
X287749Y-143072D01*
X287392Y-142073D02*
X287392Y-143572D01*
D13*
X251500Y-142250D02*
X251500Y-143750D01*
X251500Y-142250D02*
X252143Y-142250D01*
X252357Y-142322D01*
X252428Y-142393D01*
X252500Y-142536D01*
X252500Y-142679D01*
X252428Y-142822D01*
X252357Y-142893D01*
X252143Y-142964D01*
X251500Y-142964D02*
X252143Y-142964D01*
X252357Y-143036D01*
X252428Y-143107D01*
X252500Y-143250D01*
X252500Y-143464D01*
X252428Y-143607D01*
X252357Y-143679D01*
X252143Y-143750D01*
X251500Y-143750D01*
X253192Y-142750D02*
X253050Y-142822D01*
X252907Y-142964D01*
X252835Y-143179D01*
X252835Y-143322D01*
X252907Y-143536D01*
X253050Y-143679D01*
X253192Y-143750D01*
X253407Y-143750D01*
X253550Y-143679D01*
X253692Y-143536D01*
X253764Y-143322D01*
X253764Y-143179D01*
X253692Y-142964D01*
X253550Y-142822D01*
X253407Y-142750D01*
X253192Y-142750D01*
X254307Y-142250D02*
X254307Y-143464D01*
X254378Y-143679D01*
X254521Y-143750D01*
X254664Y-143750D01*
X254092Y-142750D02*
X254592Y-142750D01*
X255092Y-142250D02*
X255092Y-143464D01*
X255163Y-143679D01*
X255306Y-143750D01*
X255449Y-143750D01*
X254878Y-142750D02*
X255378Y-142750D01*
X256020Y-142750D02*
X255878Y-142822D01*
X255735Y-142964D01*
X255663Y-143179D01*
X255663Y-143322D01*
X255735Y-143536D01*
X255878Y-143679D01*
X256020Y-143750D01*
X256235Y-143750D01*
X256378Y-143679D01*
X256520Y-143536D01*
X256592Y-143322D01*
X256592Y-143179D01*
X256520Y-142964D01*
X256378Y-142822D01*
X256235Y-142750D01*
X256020Y-142750D01*
X256920Y-142750D02*
X256920Y-143750D01*
X256920Y-143036D02*
X257134Y-142822D01*
X257277Y-142750D01*
X257492Y-142750D01*
X257634Y-142822D01*
X257706Y-143036D01*
X257706Y-143750D01*
X257706Y-143036D02*
X257920Y-142822D01*
X258063Y-142750D01*
X258277Y-142750D01*
X258420Y-142822D01*
X258491Y-143036D01*
X258491Y-143750D01*
X260569Y-142250D02*
X260427Y-142322D01*
X260284Y-142465D01*
X260212Y-142607D01*
X260141Y-142822D01*
X260141Y-143179D01*
X260212Y-143393D01*
X260284Y-143536D01*
X260427Y-143679D01*
X260569Y-143750D01*
X260855Y-143750D01*
X260998Y-143679D01*
X261141Y-143536D01*
X261212Y-143393D01*
X261284Y-143179D01*
X261284Y-142822D01*
X261212Y-142607D01*
X261141Y-142465D01*
X260998Y-142322D01*
X260855Y-142250D01*
X260569Y-142250D01*
X261634Y-142750D02*
X262062Y-143750D01*
X262491Y-142750D02*
X262062Y-143750D01*
X262733Y-143179D02*
X263590Y-143179D01*
X263590Y-143036D01*
X263519Y-142893D01*
X263447Y-142822D01*
X263305Y-142750D01*
X263090Y-142750D01*
X262948Y-142822D01*
X262805Y-142964D01*
X262733Y-143179D01*
X262733Y-143322D01*
X262805Y-143536D01*
X262948Y-143679D01*
X263090Y-143750D01*
X263305Y-143750D01*
X263447Y-143679D01*
X263590Y-143536D01*
X263912Y-142750D02*
X263912Y-143750D01*
X263912Y-143179D02*
X263983Y-142964D01*
X264126Y-142822D01*
X264269Y-142750D01*
X264483Y-142750D01*
X264619Y-142250D02*
X264619Y-143750D01*
X265790Y-142750D02*
X265790Y-143750D01*
X265790Y-142964D02*
X265647Y-142822D01*
X265504Y-142750D01*
X265290Y-142750D01*
X265147Y-142822D01*
X265004Y-142964D01*
X264933Y-143179D01*
X264933Y-143322D01*
X265004Y-143536D01*
X265147Y-143679D01*
X265290Y-143750D01*
X265504Y-143750D01*
X265647Y-143679D01*
X265790Y-143536D01*
X266261Y-142750D02*
X266690Y-143750D01*
X267118Y-142750D02*
X266690Y-143750D01*
X266547Y-144036D01*
X266404Y-144178D01*
X266261Y-144250D01*
X266190Y-144250D01*
D48*
X22422Y15427D02*
X22168Y15427D01*
X22168Y15173D01*
X22422Y15173D01*
X22422Y15427D01*
X855Y15427D02*
X601Y15427D01*
X601Y15173D01*
X855Y15173D01*
X855Y15427D01*
M02*
