G04*
G04 #@! TF.GenerationSoftware,Altium Limited,Altium Designer,24.1.2 (44)*
G04*
G04 Layer_Color=128*
%FSLAX43Y43*%
%MOMM*%
G71*
G04*
G04 #@! TF.SameCoordinates,A54E5831-EF6A-4B72-99D3-3794B9BD2B5D*
G04*
G04*
G04 #@! TF.FilePolarity,Positive*
G04*
G01*
G75*
%ADD51C,0.051*%
D51*
X9100Y28600D02*
X10400Y28600D01*
X9750Y27950D02*
X9750Y29250D01*
X12600Y28600D02*
X13900Y28600D01*
X13250Y27950D02*
X13250Y29250D01*
X16950Y29570D02*
X17850Y29570D01*
X17400Y29120D02*
X17400Y30020D01*
X16950Y27030D02*
X17850Y27030D01*
X17400Y26580D02*
X17400Y27480D01*
X5150Y29570D02*
X6050Y29570D01*
X5600Y29120D02*
X5600Y30020D01*
X5150Y27030D02*
X6050Y27030D01*
X5600Y26580D02*
X5600Y27480D01*
X20073Y15300D02*
X20708Y15300D01*
X20390Y14982D02*
X20390Y15617D01*
X20073Y14030D02*
X20708Y14030D01*
X20390Y13712D02*
X20390Y14347D01*
X20073Y12760D02*
X20708Y12760D01*
X20390Y12442D02*
X20390Y13077D01*
X20073Y11490D02*
X20708Y11490D01*
X20390Y11172D02*
X20390Y11807D01*
X20073Y8950D02*
X20708Y8950D01*
X20390Y8632D02*
X20390Y9267D01*
X20073Y7680D02*
X20708Y7680D01*
X20390Y7362D02*
X20390Y7997D01*
X20073Y6410D02*
X20708Y6410D01*
X20390Y6092D02*
X20390Y6727D01*
X20073Y5140D02*
X20708Y5140D01*
X20390Y4822D02*
X20390Y5457D01*
X20073Y3870D02*
X20708Y3870D01*
X20390Y3552D02*
X20390Y4187D01*
X20073Y1330D02*
X20708Y1330D01*
X20390Y1012D02*
X20390Y1647D01*
X20073Y10220D02*
X20708Y10220D01*
X20390Y9902D02*
X20390Y10537D01*
X20073Y2600D02*
X20708Y2600D01*
X20390Y2282D02*
X20390Y2917D01*
X2293Y15300D02*
X2928Y15300D01*
X2610Y14982D02*
X2610Y15617D01*
X2293Y14030D02*
X2928Y14030D01*
X2610Y13712D02*
X2610Y14347D01*
X2293Y12760D02*
X2928Y12760D01*
X2610Y12442D02*
X2610Y13077D01*
X2293Y11490D02*
X2928Y11490D01*
X2610Y11172D02*
X2610Y11807D01*
X2293Y8950D02*
X2928Y8950D01*
X2610Y8632D02*
X2610Y9267D01*
X2293Y7680D02*
X2928Y7680D01*
X2610Y7362D02*
X2610Y7997D01*
X2293Y6410D02*
X2928Y6410D01*
X2610Y6092D02*
X2610Y6727D01*
X2293Y5140D02*
X2928Y5140D01*
X2610Y4822D02*
X2610Y5457D01*
X2293Y3870D02*
X2928Y3870D01*
X2610Y3552D02*
X2610Y4187D01*
X2293Y1330D02*
X2928Y1330D01*
X2610Y1012D02*
X2610Y1647D01*
X2293Y10220D02*
X2928Y10220D01*
X2610Y9902D02*
X2610Y10537D01*
X2293Y2600D02*
X2928Y2600D01*
X2610Y2282D02*
X2610Y2917D01*
X2250Y21650D02*
X2950Y21650D01*
X2600Y21300D02*
X2600Y22000D01*
X2250Y22920D02*
X2950Y22920D01*
X2600Y22570D02*
X2600Y23270D01*
X2250Y24190D02*
X2950Y24190D01*
X2600Y23840D02*
X2600Y24540D01*
X20040Y21650D02*
X20740Y21650D01*
X20390Y21300D02*
X20390Y22000D01*
X20040Y22920D02*
X20740Y22920D01*
X20390Y22570D02*
X20390Y23270D01*
X20040Y24190D02*
X20740Y24190D01*
X20390Y23840D02*
X20390Y24540D01*
X14225Y6400D02*
X14525Y6400D01*
X14375Y6250D02*
X14375Y6550D01*
X7069Y12700D02*
X7369Y12700D01*
X7219Y12550D02*
X7219Y12850D01*
X6176Y12554D02*
X6476Y12554D01*
X6326Y12404D02*
X6326Y12704D01*
X7900Y13391D02*
X8200Y13391D01*
X8050Y13241D02*
X8050Y13541D01*
X9517Y4450D02*
X9817Y4450D01*
X9667Y4300D02*
X9667Y4600D01*
X9950Y8000D02*
X10250Y8000D01*
X10100Y7850D02*
X10100Y8150D01*
X10950Y8000D02*
X11250Y8000D01*
X11100Y7850D02*
X11100Y8150D01*
X11950Y8000D02*
X12250Y8000D01*
X12100Y7850D02*
X12100Y8150D01*
X11950Y10000D02*
X12250Y10000D01*
X12100Y9850D02*
X12100Y10150D01*
X9950Y10000D02*
X10250Y10000D01*
X10100Y9850D02*
X10100Y10150D01*
X10950Y10000D02*
X11250Y10000D01*
X11100Y9850D02*
X11100Y10150D01*
X11950Y9000D02*
X12250Y9000D01*
X12100Y8850D02*
X12100Y9150D01*
X9950Y9000D02*
X10250Y9000D01*
X10100Y8850D02*
X10100Y9150D01*
X10950Y9000D02*
X11250Y9000D01*
X11100Y8850D02*
X11100Y9150D01*
X21386Y17581D02*
X21686Y17581D01*
X21536Y17431D02*
X21536Y17731D01*
X9625Y1035D02*
X9925Y1035D01*
X9775Y885D02*
X9775Y1185D01*
X8832Y14173D02*
X9132Y14173D01*
X8982Y14023D02*
X8982Y14323D01*
X18875Y7789D02*
X19175Y7789D01*
X19025Y7639D02*
X19025Y7939D01*
X18182Y8775D02*
X18482Y8775D01*
X18332Y8625D02*
X18332Y8925D01*
X16950Y7902D02*
X17250Y7902D01*
X17100Y7752D02*
X17100Y8052D01*
X16696Y7110D02*
X16996Y7110D01*
X16846Y6960D02*
X16846Y7260D01*
X5681Y2600D02*
X5981Y2600D01*
X5831Y2450D02*
X5831Y2750D01*
X12400Y5615D02*
X12700Y5615D01*
X12550Y5465D02*
X12550Y5765D01*
X10449Y5365D02*
X10749Y5365D01*
X10599Y5215D02*
X10599Y5515D01*
X13642Y31200D02*
X13942Y31200D01*
X13792Y31050D02*
X13792Y31350D01*
X12050Y31200D02*
X12350Y31200D01*
X12200Y31050D02*
X12200Y31350D01*
X10459Y31200D02*
X10759Y31200D01*
X10609Y31050D02*
X10609Y31350D01*
X8867Y31200D02*
X9167Y31200D01*
X9017Y31050D02*
X9017Y31350D01*
X7211Y26995D02*
X7511Y26995D01*
X7361Y26845D02*
X7361Y27145D01*
X14103Y15025D02*
X14503Y15025D01*
X14303Y14825D02*
X14303Y15225D01*
X11248Y15010D02*
X11648Y15010D01*
X11448Y14810D02*
X11448Y15210D01*
X15924Y26000D02*
X16224Y26000D01*
X16074Y25850D02*
X16074Y26150D01*
X18253Y25330D02*
X18553Y25330D01*
X18403Y25180D02*
X18403Y25480D01*
X6611Y18480D02*
X6911Y18480D01*
X6761Y18330D02*
X6761Y18630D01*
X6372Y23170D02*
X6672Y23170D01*
X6522Y23020D02*
X6522Y23320D01*
X16326Y23148D02*
X16626Y23148D01*
X16476Y22998D02*
X16476Y23298D01*
X6578Y20965D02*
X6878Y20965D01*
X6728Y20815D02*
X6728Y21115D01*
X16284Y21115D02*
X16583Y21115D01*
X16434Y20965D02*
X16434Y21265D01*
X15466Y31200D02*
X15766Y31200D01*
X15616Y31050D02*
X15616Y31350D01*
X7211Y31200D02*
X7511Y31200D01*
X7361Y31050D02*
X7361Y31350D01*
X9014Y16610D02*
X9314Y16610D01*
X9164Y16460D02*
X9164Y16760D01*
X7700Y7167D02*
X8000Y7167D01*
X7850Y7017D02*
X7850Y7317D01*
X14438Y12684D02*
X14738Y12684D01*
X14588Y12534D02*
X14588Y12834D01*
X18844Y17405D02*
X19144Y17405D01*
X18994Y17255D02*
X18994Y17555D01*
X7100Y4576D02*
X7400Y4576D01*
X7250Y4426D02*
X7250Y4726D01*
X7442Y5463D02*
X7742Y5463D01*
X7592Y5313D02*
X7592Y5613D01*
X6900Y6150D02*
X7200Y6150D01*
X7050Y6000D02*
X7050Y6300D01*
X18471Y16136D02*
X18771Y16136D01*
X18621Y15986D02*
X18621Y16286D01*
X11137Y13011D02*
X11437Y13011D01*
X11287Y12861D02*
X11287Y13161D01*
X12750Y12280D02*
X13050Y12280D01*
X12900Y12130D02*
X12900Y12430D01*
X14375Y13617D02*
X14675Y13617D01*
X14525Y13467D02*
X14525Y13767D01*
X4958Y5650D02*
X5358Y5650D01*
X5158Y5450D02*
X5158Y5850D01*
X550Y6700D02*
X850Y6700D01*
X700Y6550D02*
X700Y6850D01*
X550Y700D02*
X850Y700D01*
X700Y550D02*
X700Y850D01*
X4450Y700D02*
X4750Y700D01*
X4600Y550D02*
X4600Y850D01*
X550Y4700D02*
X850Y4700D01*
X700Y4550D02*
X700Y4850D01*
X550Y2700D02*
X850Y2700D01*
X700Y2550D02*
X700Y2850D01*
X4426Y11854D02*
X4726Y11854D01*
X4576Y11704D02*
X4576Y12004D01*
X15924Y10483D02*
X16224Y10483D01*
X16074Y10333D02*
X16074Y10633D01*
X16950Y13917D02*
X17250Y13917D01*
X17100Y13767D02*
X17100Y14067D01*
X18579Y5650D02*
X18879Y5650D01*
X18729Y5500D02*
X18729Y5800D01*
X15500Y8750D02*
X15800Y8750D01*
X15650Y8600D02*
X15650Y8900D01*
X18267Y9562D02*
X18567Y9562D01*
X18417Y9413D02*
X18417Y9712D01*
X17650Y16136D02*
X17950Y16136D01*
X17800Y15986D02*
X17800Y16286D01*
X15006Y9500D02*
X15306Y9500D01*
X15156Y9350D02*
X15156Y9650D01*
X4850Y10775D02*
X5150Y10775D01*
X5000Y10625D02*
X5000Y10925D01*
X5000Y9650D02*
X5300Y9650D01*
X5150Y9500D02*
X5150Y9800D01*
X14954Y6500D02*
X15254Y6500D01*
X15104Y6350D02*
X15104Y6650D01*
X14329Y9844D02*
X14629Y9844D01*
X14479Y9694D02*
X14479Y9994D01*
X15275Y12725D02*
X15575Y12725D01*
X15425Y12575D02*
X15425Y12875D01*
X19976Y18976D02*
X20276Y18976D01*
X20126Y18826D02*
X20126Y19126D01*
X20877Y19900D02*
X21177Y19900D01*
X21027Y19750D02*
X21027Y20050D01*
X21350Y30800D02*
X21650Y30800D01*
X21500Y30650D02*
X21500Y30950D01*
X19375Y30800D02*
X19675Y30800D01*
X19525Y30650D02*
X19525Y30950D01*
X3375Y30800D02*
X3675Y30800D01*
X3525Y30650D02*
X3525Y30950D01*
X1350Y30800D02*
X1650Y30800D01*
X1500Y30650D02*
X1500Y30950D01*
X22150Y30300D02*
X22450Y30300D01*
X22300Y30150D02*
X22300Y30450D01*
X22150Y28700D02*
X22450Y28700D01*
X22300Y28550D02*
X22300Y28850D01*
X22150Y26700D02*
X22450Y26700D01*
X22300Y26550D02*
X22300Y26850D01*
X22150Y24700D02*
X22450Y24700D01*
X22300Y24550D02*
X22300Y24850D01*
X22150Y22700D02*
X22450Y22700D01*
X22300Y22550D02*
X22300Y22850D01*
X22150Y20700D02*
X22450Y20700D01*
X22300Y20550D02*
X22300Y20850D01*
X21950Y18700D02*
X22250Y18700D01*
X22100Y18550D02*
X22100Y18850D01*
X550Y30300D02*
X850Y30300D01*
X700Y30150D02*
X700Y30450D01*
X550Y28700D02*
X850Y28700D01*
X700Y28550D02*
X700Y28850D01*
X550Y24700D02*
X850Y24700D01*
X700Y24550D02*
X700Y24850D01*
X550Y22700D02*
X850Y22700D01*
X700Y22550D02*
X700Y22850D01*
X550Y20700D02*
X850Y20700D01*
X700Y20550D02*
X700Y20850D01*
X550Y26700D02*
X850Y26700D01*
X700Y26550D02*
X700Y26850D01*
X550Y18700D02*
X850Y18700D01*
X700Y18550D02*
X700Y18850D01*
X550Y10700D02*
X850Y10700D01*
X700Y10550D02*
X700Y10850D01*
X550Y12700D02*
X850Y12700D01*
X700Y12550D02*
X700Y12850D01*
X550Y14700D02*
X850Y14700D01*
X700Y14550D02*
X700Y14850D01*
X550Y16700D02*
X850Y16700D01*
X700Y16550D02*
X700Y16850D01*
X550Y8700D02*
X850Y8700D01*
X700Y8550D02*
X700Y8850D01*
X22150Y10700D02*
X22450Y10700D01*
X22300Y10550D02*
X22300Y10850D01*
X22150Y12700D02*
X22450Y12700D01*
X22300Y12550D02*
X22300Y12850D01*
X22150Y14700D02*
X22450Y14700D01*
X22300Y14550D02*
X22300Y14850D01*
X22150Y16700D02*
X22450Y16700D01*
X22300Y16550D02*
X22300Y16850D01*
X22150Y2700D02*
X22450Y2700D01*
X22300Y2550D02*
X22300Y2850D01*
X22150Y4700D02*
X22450Y4700D01*
X22300Y4550D02*
X22300Y4850D01*
X22150Y6700D02*
X22450Y6700D01*
X22300Y6550D02*
X22300Y6850D01*
X22150Y8700D02*
X22450Y8700D01*
X22300Y8550D02*
X22300Y8850D01*
X16350Y700D02*
X16650Y700D01*
X16500Y550D02*
X16500Y850D01*
X14350Y700D02*
X14650Y700D01*
X14500Y550D02*
X14500Y850D01*
X12350Y700D02*
X12650Y700D01*
X12500Y550D02*
X12500Y850D01*
X10350Y700D02*
X10650Y700D01*
X10500Y550D02*
X10500Y850D01*
X8350Y700D02*
X8650Y700D01*
X8500Y550D02*
X8500Y850D01*
X6350Y700D02*
X6650Y700D01*
X6500Y550D02*
X6500Y850D01*
X22150Y700D02*
X22450Y700D01*
X22300Y550D02*
X22300Y850D01*
X18350Y700D02*
X18650Y700D01*
X18500Y550D02*
X18500Y850D01*
X3319Y17025D02*
X3619Y17025D01*
X3469Y16875D02*
X3469Y17175D01*
X14225Y7725D02*
X14525Y7725D01*
X14375Y7575D02*
X14375Y7875D01*
X2450Y20025D02*
X2750Y20025D01*
X2600Y19875D02*
X2600Y20175D01*
X12175Y23375D02*
X12475Y23375D01*
X12325Y23225D02*
X12325Y23525D01*
X10525Y23385D02*
X10825Y23385D01*
X10675Y23235D02*
X10675Y23535D01*
X15470Y29020D02*
X15770Y29020D01*
X15620Y28870D02*
X15620Y29170D01*
X15470Y28004D02*
X15770Y28004D01*
X15620Y27854D02*
X15620Y28154D01*
X15470Y26995D02*
X15770Y26995D01*
X15620Y26845D02*
X15620Y27145D01*
X7211Y29049D02*
X7511Y29049D01*
X7361Y28899D02*
X7361Y29199D01*
X7211Y27991D02*
X7511Y27991D01*
X7361Y27841D02*
X7361Y28141D01*
X2075Y26700D02*
X2375Y26700D01*
X2225Y26550D02*
X2225Y26850D01*
X4209Y25450D02*
X4509Y25450D01*
X4359Y25300D02*
X4359Y25600D01*
X3938Y21175D02*
X4238Y21175D01*
X4088Y21025D02*
X4088Y21325D01*
X6668Y26021D02*
X6968Y26021D01*
X6818Y25871D02*
X6818Y26171D01*
X9269Y20075D02*
X9569Y20075D01*
X9419Y19925D02*
X9419Y20225D01*
X13425Y20225D02*
X13725Y20225D01*
X13575Y20075D02*
X13575Y20375D01*
X14726Y18800D02*
X15026Y18800D01*
X14876Y18650D02*
X14876Y18950D01*
X17964Y18675D02*
X18264Y18675D01*
X18114Y18525D02*
X18114Y18825D01*
X20877Y26000D02*
X21177Y26000D01*
X21027Y25850D02*
X21027Y26150D01*
X20768Y28725D02*
X21068Y28725D01*
X20918Y28575D02*
X20918Y28875D01*
X10808Y12325D02*
X11108Y12325D01*
X10958Y12175D02*
X10958Y12475D01*
M02*
