G04*
G04 #@! TF.GenerationSoftware,Altium Limited,Altium Designer,24.1.2 (44)*
G04*
G04 Layer_Color=2752767*
%FSLAX43Y43*%
%MOMM*%
G71*
G04*
G04 #@! TF.SameCoordinates,A54E5831-EF6A-4B72-99D3-3794B9BD2B5D*
G04*
G04*
G04 #@! TF.FilePolarity,Positive*
G04*
G01*
G75*
%ADD12C,0.178*%
%ADD13C,0.150*%
%ADD30C,0.250*%
%ADD32C,0.300*%
%ADD51C,0.051*%
%ADD52C,0.400*%
%ADD53C,0.180*%
D12*
X287392Y-142073D02*
X286678Y-143072D01*
X287749Y-143072D01*
X287392Y-142073D02*
X287392Y-143572D01*
D13*
X269750Y-134850D02*
X269750Y-136000D01*
X269750Y-134850D02*
X270133Y-134850D01*
X270297Y-134905D01*
X270407Y-135014D01*
X270462Y-135124D01*
X270517Y-135288D01*
X270517Y-135562D01*
X270462Y-135726D01*
X270407Y-135836D01*
X270297Y-135945D01*
X270133Y-136000D01*
X269750Y-136000D01*
X271102Y-134850D02*
X270993Y-134905D01*
X270883Y-135014D01*
X270829Y-135124D01*
X270774Y-135288D01*
X270774Y-135562D01*
X270829Y-135726D01*
X270883Y-135836D01*
X270993Y-135945D01*
X271102Y-136000D01*
X271321Y-136000D01*
X271431Y-135945D01*
X271540Y-135836D01*
X271595Y-135726D01*
X271650Y-135562D01*
X271650Y-135288D01*
X271595Y-135124D01*
X271540Y-135014D01*
X271431Y-134905D01*
X271321Y-134850D01*
X271102Y-134850D01*
X272739Y-135124D02*
X272685Y-135014D01*
X272575Y-134905D01*
X272466Y-134850D01*
X272247Y-134850D01*
X272137Y-134905D01*
X272028Y-135014D01*
X271973Y-135124D01*
X271918Y-135288D01*
X271918Y-135562D01*
X271973Y-135726D01*
X272028Y-135836D01*
X272137Y-135945D01*
X272247Y-136000D01*
X272466Y-136000D01*
X272575Y-135945D01*
X272685Y-135836D01*
X272739Y-135726D01*
X273062Y-134850D02*
X273062Y-135671D01*
X273117Y-135836D01*
X273227Y-135945D01*
X273391Y-136000D01*
X273500Y-136000D01*
X273665Y-135945D01*
X273774Y-135836D01*
X273829Y-135671D01*
X273829Y-134850D01*
X274146Y-134850D02*
X274146Y-136000D01*
X274146Y-134850D02*
X274584Y-136000D01*
X275022Y-134850D02*
X274584Y-136000D01*
X275022Y-134850D02*
X275022Y-136000D01*
X276063Y-134850D02*
X275351Y-134850D01*
X275351Y-136000D01*
X276063Y-136000D01*
X275351Y-135398D02*
X275789Y-135398D01*
X276254Y-134850D02*
X276254Y-136000D01*
X276254Y-134850D02*
X277021Y-136000D01*
X277021Y-134850D02*
X277021Y-136000D01*
X277722Y-134850D02*
X277722Y-136000D01*
X277338Y-134850D02*
X278105Y-134850D01*
X279145Y-134850D02*
X279145Y-136000D01*
X279145Y-134850D02*
X279912Y-136000D01*
X279912Y-134850D02*
X279912Y-136000D01*
X280229Y-134850D02*
X280229Y-135671D01*
X280284Y-135836D01*
X280393Y-135945D01*
X280558Y-136000D01*
X280667Y-136000D01*
X280831Y-135945D01*
X280941Y-135836D01*
X280996Y-135671D01*
X280996Y-134850D01*
X281313Y-134850D02*
X281313Y-136000D01*
X281313Y-134850D02*
X281751Y-136000D01*
X282189Y-134850D02*
X281751Y-136000D01*
X282189Y-134850D02*
X282189Y-136000D01*
X282518Y-134850D02*
X282518Y-136000D01*
X282518Y-134850D02*
X283010Y-134850D01*
X283175Y-134905D01*
X283229Y-134960D01*
X283284Y-135069D01*
X283284Y-135179D01*
X283229Y-135288D01*
X283175Y-135343D01*
X283010Y-135398D01*
X282518Y-135398D02*
X283010Y-135398D01*
X283175Y-135452D01*
X283229Y-135507D01*
X283284Y-135617D01*
X283284Y-135781D01*
X283229Y-135890D01*
X283175Y-135945D01*
X283010Y-136000D01*
X282518Y-136000D01*
X284253Y-134850D02*
X283542Y-134850D01*
X283542Y-136000D01*
X284253Y-136000D01*
X283542Y-135398D02*
X283980Y-135398D01*
X284445Y-134850D02*
X284445Y-136000D01*
X284445Y-134850D02*
X284938Y-134850D01*
X285102Y-134905D01*
X285157Y-134960D01*
X285211Y-135069D01*
X285211Y-135179D01*
X285157Y-135288D01*
X285102Y-135343D01*
X284938Y-135398D01*
X284445Y-135398D01*
X284828Y-135398D02*
X285211Y-136000D01*
X285524Y-135233D02*
X285469Y-135288D01*
X285524Y-135343D01*
X285578Y-135288D01*
X285524Y-135233D01*
X285524Y-135890D02*
X285469Y-135945D01*
X285524Y-136000D01*
X285578Y-135945D01*
X285524Y-135890D01*
D30*
X-53514Y-60095D02*
G03*
X-53514Y-60095I-833J0D01*
G01*
X-54348Y-49679D02*
X-53514Y-48012D01*
X-55181Y-48012D02*
X-53514Y-48012D01*
X-55181Y-48012D02*
X-54348Y-49679D01*
X-55181Y-53012D02*
X-54764Y-53012D01*
X-55181Y-53012D02*
X-55181Y-52179D01*
X-54764Y-52179D01*
X-54764Y-51762D01*
X-53931Y-51762D01*
X-53931Y-52179D02*
X-53931Y-51762D01*
X-53931Y-52179D02*
X-53514Y-52179D01*
X-53514Y-53012D02*
X-53514Y-52179D01*
X-53931Y-53012D02*
X-53514Y-53012D01*
X-53931Y-53429D02*
X-53931Y-53012D01*
X-54764Y-53429D02*
X-53931Y-53429D01*
X-54764Y-53429D02*
X-54764Y-53012D01*
X-55181Y-57179D02*
X-53514Y-57179D01*
X-53514Y-55512D01*
X-55181Y-55512D02*
X-53514Y-55512D01*
X-55181Y-57179D02*
X-55181Y-55512D01*
X-55181Y-64679D02*
X-54348Y-64262D01*
X-53514Y-64679D01*
X-53931Y-63845D02*
X-53514Y-64679D01*
X-53931Y-63845D02*
X-53514Y-63012D01*
X-54348Y-63429D02*
X-53514Y-63012D01*
X-55181Y-63012D02*
X-54348Y-63429D01*
X-55181Y-63012D02*
X-54764Y-63845D01*
X-55181Y-64679D02*
X-54764Y-63845D01*
X-54764Y-68012D02*
X-54348Y-68429D01*
X-55181Y-68012D02*
X-54764Y-68012D01*
X-55181Y-68012D02*
X-54764Y-67595D01*
X-55181Y-67179D02*
X-54764Y-67595D01*
X-55181Y-67179D02*
X-54764Y-67179D01*
X-54348Y-66762D01*
X-53931Y-67179D01*
X-53514Y-67179D01*
X-53931Y-67595D02*
X-53514Y-67179D01*
X-53931Y-67595D02*
X-53514Y-68012D01*
X-53931Y-68012D02*
X-53514Y-68012D01*
X-54348Y-68429D02*
X-53931Y-68012D01*
X114177Y-48929D02*
X115177Y-48929D01*
X114177Y-52679D02*
X115177Y-52679D01*
X114177Y-56429D02*
X115177Y-56429D01*
X114177Y-60179D02*
X115177Y-60179D01*
X114177Y-63929D02*
X115177Y-63929D01*
X114177Y-67679D02*
X115177Y-67679D01*
X92533Y-48929D02*
X93533Y-48929D01*
X92533Y-52679D02*
X93533Y-52679D01*
X92533Y-56429D02*
X93533Y-56429D01*
X92533Y-60179D02*
X93533Y-60179D01*
X92533Y-63929D02*
X93533Y-63929D01*
X92533Y-67679D02*
X93533Y-67679D01*
X74188Y-49679D02*
X74188Y-48179D01*
X74938Y-48179D01*
X75188Y-48429D01*
X75188Y-48929D01*
X74938Y-49179D01*
X74188Y-49179D01*
X74688Y-49179D02*
X75188Y-49679D01*
X75938Y-49679D02*
X76438Y-49679D01*
X76688Y-49429D01*
X76688Y-48929D01*
X76438Y-48679D01*
X75938Y-48679D01*
X75688Y-48929D01*
X75688Y-49429D01*
X75938Y-49679D01*
X77187Y-48679D02*
X77187Y-49429D01*
X77437Y-49679D01*
X78187Y-49679D01*
X78187Y-48679D01*
X78687Y-49679D02*
X78687Y-48679D01*
X79437Y-48679D01*
X79687Y-48929D01*
X79687Y-49679D01*
X81186Y-48179D02*
X81186Y-49679D01*
X80436Y-49679D01*
X80186Y-49429D01*
X80186Y-48929D01*
X80436Y-48679D01*
X81186Y-48679D01*
X74188Y-53429D02*
X74188Y-51929D01*
X74938Y-51929D01*
X75188Y-52179D01*
X75188Y-52679D01*
X74938Y-52929D01*
X74188Y-52929D01*
X74688Y-52929D02*
X75188Y-53429D01*
X75938Y-53429D02*
X76438Y-53429D01*
X76688Y-53179D01*
X76688Y-52679D01*
X76438Y-52429D01*
X75938Y-52429D01*
X75688Y-52679D01*
X75688Y-53179D01*
X75938Y-53429D01*
X77187Y-52429D02*
X77187Y-53179D01*
X77437Y-53429D01*
X78187Y-53429D01*
X78187Y-52429D01*
X78687Y-53429D02*
X78687Y-52429D01*
X79437Y-52429D01*
X79687Y-52679D01*
X79687Y-53429D01*
X81186Y-51929D02*
X81186Y-53429D01*
X80436Y-53429D01*
X80186Y-53179D01*
X80186Y-52679D01*
X80436Y-52429D01*
X81186Y-52429D01*
X74188Y-57179D02*
X74188Y-55679D01*
X74938Y-55679D01*
X75188Y-55929D01*
X75188Y-56429D01*
X74938Y-56679D01*
X74188Y-56679D01*
X74688Y-56679D02*
X75188Y-57179D01*
X75938Y-57179D02*
X76438Y-57179D01*
X76688Y-56929D01*
X76688Y-56429D01*
X76438Y-56179D01*
X75938Y-56179D01*
X75688Y-56429D01*
X75688Y-56929D01*
X75938Y-57179D01*
X77187Y-56179D02*
X77187Y-56929D01*
X77437Y-57179D01*
X78187Y-57179D01*
X78187Y-56179D01*
X78687Y-57179D02*
X78687Y-56179D01*
X79437Y-56179D01*
X79687Y-56429D01*
X79687Y-57179D01*
X81186Y-55679D02*
X81186Y-57179D01*
X80436Y-57179D01*
X80186Y-56929D01*
X80186Y-56429D01*
X80436Y-56179D01*
X81186Y-56179D01*
X74188Y-60929D02*
X74188Y-59429D01*
X74938Y-59429D01*
X75188Y-59679D01*
X75188Y-60179D01*
X74938Y-60429D01*
X74188Y-60429D01*
X74688Y-60429D02*
X75188Y-60929D01*
X75938Y-60929D02*
X76438Y-60929D01*
X76688Y-60679D01*
X76688Y-60179D01*
X76438Y-59929D01*
X75938Y-59929D01*
X75688Y-60179D01*
X75688Y-60679D01*
X75938Y-60929D01*
X77187Y-59929D02*
X77187Y-60679D01*
X77437Y-60929D01*
X78187Y-60929D01*
X78187Y-59929D01*
X78687Y-60929D02*
X78687Y-59929D01*
X79437Y-59929D01*
X79687Y-60179D01*
X79687Y-60929D01*
X81186Y-59429D02*
X81186Y-60929D01*
X80436Y-60929D01*
X80186Y-60679D01*
X80186Y-60179D01*
X80436Y-59929D01*
X81186Y-59929D01*
X74188Y-64679D02*
X74188Y-63179D01*
X74938Y-63179D01*
X75188Y-63429D01*
X75188Y-63929D01*
X74938Y-64179D01*
X74188Y-64179D01*
X74688Y-64179D02*
X75188Y-64679D01*
X75938Y-64679D02*
X76438Y-64679D01*
X76688Y-64429D01*
X76688Y-63929D01*
X76438Y-63679D01*
X75938Y-63679D01*
X75688Y-63929D01*
X75688Y-64429D01*
X75938Y-64679D01*
X77187Y-63679D02*
X77187Y-64429D01*
X77437Y-64679D01*
X78187Y-64679D01*
X78187Y-63679D01*
X78687Y-64679D02*
X78687Y-63679D01*
X79437Y-63679D01*
X79687Y-63929D01*
X79687Y-64679D01*
X81186Y-63179D02*
X81186Y-64679D01*
X80436Y-64679D01*
X80186Y-64429D01*
X80186Y-63929D01*
X80436Y-63679D01*
X81186Y-63679D01*
X74188Y-68429D02*
X74188Y-66929D01*
X74938Y-66929D01*
X75188Y-67179D01*
X75188Y-67679D01*
X74938Y-67929D01*
X74188Y-67929D01*
X74688Y-67929D02*
X75188Y-68429D01*
X75938Y-68429D02*
X76438Y-68429D01*
X76688Y-68179D01*
X76688Y-67679D01*
X76438Y-67429D01*
X75938Y-67429D01*
X75688Y-67679D01*
X75688Y-68179D01*
X75938Y-68429D01*
X77187Y-67429D02*
X77187Y-68179D01*
X77437Y-68429D01*
X78187Y-68429D01*
X78187Y-67429D01*
X78687Y-68429D02*
X78687Y-67429D01*
X79437Y-67429D01*
X79687Y-67679D01*
X79687Y-68429D01*
X81186Y-66929D02*
X81186Y-68429D01*
X80436Y-68429D01*
X80186Y-68179D01*
X80186Y-67679D01*
X80436Y-67429D01*
X81186Y-67429D01*
X59442Y-49679D02*
X59442Y-48179D01*
X60192Y-48179D01*
X60442Y-48429D01*
X60442Y-48929D01*
X60192Y-49179D01*
X59442Y-49179D01*
X61192Y-48679D02*
X61691Y-48679D01*
X61941Y-48929D01*
X61941Y-49679D01*
X61192Y-49679D01*
X60942Y-49429D01*
X61192Y-49179D01*
X61941Y-49179D01*
X63441Y-48179D02*
X63441Y-49679D01*
X62691Y-49679D01*
X62441Y-49429D01*
X62441Y-48929D01*
X62691Y-48679D01*
X63441Y-48679D01*
X59442Y-51929D02*
X59442Y-52929D01*
X59942Y-53429D01*
X60442Y-52929D01*
X60442Y-51929D01*
X60942Y-53429D02*
X61442Y-53429D01*
X61192Y-53429D01*
X61192Y-52429D01*
X60942Y-52429D01*
X62441Y-52429D02*
X62941Y-52429D01*
X63191Y-52679D01*
X63191Y-53429D01*
X62441Y-53429D01*
X62191Y-53179D01*
X62441Y-52929D01*
X63191Y-52929D01*
X59442Y-57179D02*
X59442Y-55679D01*
X60192Y-55679D01*
X60442Y-55929D01*
X60442Y-56429D01*
X60192Y-56679D01*
X59442Y-56679D01*
X61192Y-56179D02*
X61691Y-56179D01*
X61941Y-56429D01*
X61941Y-57179D01*
X61192Y-57179D01*
X60942Y-56929D01*
X61192Y-56679D01*
X61941Y-56679D01*
X63441Y-55679D02*
X63441Y-57179D01*
X62691Y-57179D01*
X62441Y-56929D01*
X62441Y-56429D01*
X62691Y-56179D01*
X63441Y-56179D01*
X59442Y-60929D02*
X59442Y-59429D01*
X60192Y-59429D01*
X60442Y-59679D01*
X60442Y-60179D01*
X60192Y-60429D01*
X59442Y-60429D01*
X61192Y-59929D02*
X61691Y-59929D01*
X61941Y-60179D01*
X61941Y-60929D01*
X61192Y-60929D01*
X60942Y-60679D01*
X61192Y-60429D01*
X61941Y-60429D01*
X63441Y-59429D02*
X63441Y-60929D01*
X62691Y-60929D01*
X62441Y-60679D01*
X62441Y-60179D01*
X62691Y-59929D01*
X63441Y-59929D01*
X59442Y-64679D02*
X59442Y-63179D01*
X60192Y-63179D01*
X60442Y-63429D01*
X60442Y-63929D01*
X60192Y-64179D01*
X59442Y-64179D01*
X61192Y-63679D02*
X61691Y-63679D01*
X61941Y-63929D01*
X61941Y-64679D01*
X61192Y-64679D01*
X60942Y-64429D01*
X61192Y-64179D01*
X61941Y-64179D01*
X63441Y-63179D02*
X63441Y-64679D01*
X62691Y-64679D01*
X62441Y-64429D01*
X62441Y-63929D01*
X62691Y-63679D01*
X63441Y-63679D01*
X59442Y-66929D02*
X59442Y-67929D01*
X59942Y-68429D01*
X60442Y-67929D01*
X60442Y-66929D01*
X60942Y-68429D02*
X61442Y-68429D01*
X61192Y-68429D01*
X61192Y-67429D01*
X60942Y-67429D01*
X62441Y-67429D02*
X62941Y-67429D01*
X63191Y-67679D01*
X63191Y-68429D01*
X62441Y-68429D01*
X62191Y-68179D01*
X62441Y-67929D01*
X63191Y-67929D01*
X21953Y-48179D02*
X22953Y-48179D01*
X22453Y-48179D01*
X22453Y-49679D01*
X23703Y-49679D02*
X24203Y-49679D01*
X24453Y-49429D01*
X24453Y-48929D01*
X24203Y-48679D01*
X23703Y-48679D01*
X23453Y-48929D01*
X23453Y-49429D01*
X23703Y-49679D01*
X24952Y-50178D02*
X24952Y-48679D01*
X25702Y-48679D01*
X25952Y-48929D01*
X25952Y-49429D01*
X25702Y-49679D01*
X24952Y-49679D01*
X27951Y-48179D02*
X27951Y-49679D01*
X28951Y-49679D01*
X29701Y-48679D02*
X30201Y-48679D01*
X30451Y-48929D01*
X30451Y-49679D01*
X29701Y-49679D01*
X29451Y-49429D01*
X29701Y-49179D01*
X30451Y-49179D01*
X30951Y-48679D02*
X30951Y-49429D01*
X31200Y-49679D01*
X31950Y-49679D01*
X31950Y-49928D01*
X31700Y-50178D01*
X31450Y-50178D01*
X31950Y-49679D02*
X31950Y-48679D01*
X33200Y-49679D02*
X32700Y-49679D01*
X32450Y-49429D01*
X32450Y-48929D01*
X32700Y-48679D01*
X33200Y-48679D01*
X33450Y-48929D01*
X33450Y-49179D01*
X32450Y-49179D01*
X33950Y-48679D02*
X33950Y-49679D01*
X33950Y-49179D01*
X34199Y-48929D01*
X34449Y-48679D01*
X34699Y-48679D01*
X36949Y-48929D02*
X37948Y-48929D01*
X39948Y-48179D02*
X39948Y-49679D01*
X40697Y-49679D01*
X40947Y-49429D01*
X40947Y-49179D01*
X40697Y-48929D01*
X39948Y-48929D01*
X40697Y-48929D01*
X40947Y-48679D01*
X40947Y-48429D01*
X40697Y-48179D01*
X39948Y-48179D01*
X41697Y-49679D02*
X42197Y-49679D01*
X42447Y-49429D01*
X42447Y-48929D01*
X42197Y-48679D01*
X41697Y-48679D01*
X41447Y-48929D01*
X41447Y-49429D01*
X41697Y-49679D01*
X43197Y-48429D02*
X43197Y-48679D01*
X42947Y-48679D01*
X43446Y-48679D01*
X43197Y-48679D01*
X43197Y-49429D01*
X43446Y-49679D01*
X44446Y-48429D02*
X44446Y-48679D01*
X44196Y-48679D01*
X44696Y-48679D01*
X44446Y-48679D01*
X44446Y-49429D01*
X44696Y-49679D01*
X45696Y-49679D02*
X46196Y-49679D01*
X46446Y-49429D01*
X46446Y-48929D01*
X46196Y-48679D01*
X45696Y-48679D01*
X45446Y-48929D01*
X45446Y-49429D01*
X45696Y-49679D01*
X46945Y-49679D02*
X46945Y-48679D01*
X47195Y-48679D01*
X47445Y-48929D01*
X47445Y-49679D01*
X47445Y-48929D01*
X47695Y-48679D01*
X47945Y-48929D01*
X47945Y-49679D01*
X49944Y-48179D02*
X49944Y-49679D01*
X50944Y-49679D01*
X51694Y-48679D02*
X52194Y-48679D01*
X52444Y-48929D01*
X52444Y-49679D01*
X51694Y-49679D01*
X51444Y-49429D01*
X51694Y-49179D01*
X52444Y-49179D01*
X52943Y-48679D02*
X52943Y-49429D01*
X53193Y-49679D01*
X53943Y-49679D01*
X53943Y-49928D01*
X53693Y-50178D01*
X53443Y-50178D01*
X53943Y-49679D02*
X53943Y-48679D01*
X55193Y-49679D02*
X54693Y-49679D01*
X54443Y-49429D01*
X54443Y-48929D01*
X54693Y-48679D01*
X55193Y-48679D01*
X55443Y-48929D01*
X55443Y-49179D01*
X54443Y-49179D01*
X55942Y-48679D02*
X55942Y-49679D01*
X55942Y-49179D01*
X56192Y-48929D01*
X56442Y-48679D01*
X56692Y-48679D01*
X21953Y-51929D02*
X22953Y-51929D01*
X22453Y-51929D01*
X22453Y-53429D01*
X23703Y-53429D02*
X24203Y-53429D01*
X24453Y-53179D01*
X24453Y-52679D01*
X24203Y-52429D01*
X23703Y-52429D01*
X23453Y-52679D01*
X23453Y-53179D01*
X23703Y-53429D01*
X24952Y-53928D02*
X24952Y-52429D01*
X25702Y-52429D01*
X25952Y-52679D01*
X25952Y-53179D01*
X25702Y-53429D01*
X24952Y-53429D01*
X27951Y-51929D02*
X27951Y-53429D01*
X28951Y-53429D01*
X29701Y-52429D02*
X30201Y-52429D01*
X30451Y-52679D01*
X30451Y-53429D01*
X29701Y-53429D01*
X29451Y-53179D01*
X29701Y-52929D01*
X30451Y-52929D01*
X30951Y-52429D02*
X30951Y-53179D01*
X31200Y-53429D01*
X31950Y-53429D01*
X31950Y-53678D01*
X31700Y-53928D01*
X31450Y-53928D01*
X31950Y-53429D02*
X31950Y-52429D01*
X33200Y-53429D02*
X32700Y-53429D01*
X32450Y-53179D01*
X32450Y-52679D01*
X32700Y-52429D01*
X33200Y-52429D01*
X33450Y-52679D01*
X33450Y-52929D01*
X32450Y-52929D01*
X33950Y-52429D02*
X33950Y-53429D01*
X33950Y-52929D01*
X34199Y-52679D01*
X34449Y-52429D01*
X34699Y-52429D01*
X36949Y-52679D02*
X37948Y-52679D01*
X39948Y-51929D02*
X39948Y-53429D01*
X40697Y-53429D01*
X40947Y-53179D01*
X40947Y-52929D01*
X40697Y-52679D01*
X39948Y-52679D01*
X40697Y-52679D01*
X40947Y-52429D01*
X40947Y-52179D01*
X40697Y-51929D01*
X39948Y-51929D01*
X41697Y-53429D02*
X42197Y-53429D01*
X42447Y-53179D01*
X42447Y-52679D01*
X42197Y-52429D01*
X41697Y-52429D01*
X41447Y-52679D01*
X41447Y-53179D01*
X41697Y-53429D01*
X43197Y-52179D02*
X43197Y-52429D01*
X42947Y-52429D01*
X43446Y-52429D01*
X43197Y-52429D01*
X43197Y-53179D01*
X43446Y-53429D01*
X44446Y-52179D02*
X44446Y-52429D01*
X44196Y-52429D01*
X44696Y-52429D01*
X44446Y-52429D01*
X44446Y-53179D01*
X44696Y-53429D01*
X45696Y-53429D02*
X46196Y-53429D01*
X46446Y-53179D01*
X46446Y-52679D01*
X46196Y-52429D01*
X45696Y-52429D01*
X45446Y-52679D01*
X45446Y-53179D01*
X45696Y-53429D01*
X46945Y-53429D02*
X46945Y-52429D01*
X47195Y-52429D01*
X47445Y-52679D01*
X47445Y-53429D01*
X47445Y-52679D01*
X47695Y-52429D01*
X47945Y-52679D01*
X47945Y-53429D01*
X49944Y-51929D02*
X49944Y-53429D01*
X50944Y-53429D01*
X51694Y-52429D02*
X52194Y-52429D01*
X52444Y-52679D01*
X52444Y-53429D01*
X51694Y-53429D01*
X51444Y-53179D01*
X51694Y-52929D01*
X52444Y-52929D01*
X52943Y-52429D02*
X52943Y-53179D01*
X53193Y-53429D01*
X53943Y-53429D01*
X53943Y-53678D01*
X53693Y-53928D01*
X53443Y-53928D01*
X53943Y-53429D02*
X53943Y-52429D01*
X55193Y-53429D02*
X54693Y-53429D01*
X54443Y-53179D01*
X54443Y-52679D01*
X54693Y-52429D01*
X55193Y-52429D01*
X55443Y-52679D01*
X55443Y-52929D01*
X54443Y-52929D01*
X55942Y-52429D02*
X55942Y-53429D01*
X55942Y-52929D01*
X56192Y-52679D01*
X56442Y-52429D01*
X56692Y-52429D01*
X21953Y-55679D02*
X22953Y-55679D01*
X22453Y-55679D01*
X22453Y-57179D01*
X23703Y-57179D02*
X24203Y-57179D01*
X24453Y-56929D01*
X24453Y-56429D01*
X24203Y-56179D01*
X23703Y-56179D01*
X23453Y-56429D01*
X23453Y-56929D01*
X23703Y-57179D01*
X24952Y-57678D02*
X24952Y-56179D01*
X25702Y-56179D01*
X25952Y-56429D01*
X25952Y-56929D01*
X25702Y-57179D01*
X24952Y-57179D01*
X27951Y-55679D02*
X27951Y-57179D01*
X28951Y-57179D01*
X29701Y-56179D02*
X30201Y-56179D01*
X30451Y-56429D01*
X30451Y-57179D01*
X29701Y-57179D01*
X29451Y-56929D01*
X29701Y-56679D01*
X30451Y-56679D01*
X30951Y-56179D02*
X30951Y-56929D01*
X31200Y-57179D01*
X31950Y-57179D01*
X31950Y-57428D01*
X31700Y-57678D01*
X31450Y-57678D01*
X31950Y-57179D02*
X31950Y-56179D01*
X33200Y-57179D02*
X32700Y-57179D01*
X32450Y-56929D01*
X32450Y-56429D01*
X32700Y-56179D01*
X33200Y-56179D01*
X33450Y-56429D01*
X33450Y-56679D01*
X32450Y-56679D01*
X33950Y-56179D02*
X33950Y-57179D01*
X33950Y-56679D01*
X34199Y-56429D01*
X34449Y-56179D01*
X34699Y-56179D01*
X36949Y-56429D02*
X37948Y-56429D01*
X39948Y-55679D02*
X39948Y-57179D01*
X40697Y-57179D01*
X40947Y-56929D01*
X40947Y-56679D01*
X40697Y-56429D01*
X39948Y-56429D01*
X40697Y-56429D01*
X40947Y-56179D01*
X40947Y-55929D01*
X40697Y-55679D01*
X39948Y-55679D01*
X41697Y-57179D02*
X42197Y-57179D01*
X42447Y-56929D01*
X42447Y-56429D01*
X42197Y-56179D01*
X41697Y-56179D01*
X41447Y-56429D01*
X41447Y-56929D01*
X41697Y-57179D01*
X43197Y-55929D02*
X43197Y-56179D01*
X42947Y-56179D01*
X43446Y-56179D01*
X43197Y-56179D01*
X43197Y-56929D01*
X43446Y-57179D01*
X44446Y-55929D02*
X44446Y-56179D01*
X44196Y-56179D01*
X44696Y-56179D01*
X44446Y-56179D01*
X44446Y-56929D01*
X44696Y-57179D01*
X45696Y-57179D02*
X46196Y-57179D01*
X46446Y-56929D01*
X46446Y-56429D01*
X46196Y-56179D01*
X45696Y-56179D01*
X45446Y-56429D01*
X45446Y-56929D01*
X45696Y-57179D01*
X46945Y-57179D02*
X46945Y-56179D01*
X47195Y-56179D01*
X47445Y-56429D01*
X47445Y-57179D01*
X47445Y-56429D01*
X47695Y-56179D01*
X47945Y-56429D01*
X47945Y-57179D01*
X49944Y-55679D02*
X49944Y-57179D01*
X50944Y-57179D01*
X51694Y-56179D02*
X52194Y-56179D01*
X52444Y-56429D01*
X52444Y-57179D01*
X51694Y-57179D01*
X51444Y-56929D01*
X51694Y-56679D01*
X52444Y-56679D01*
X52943Y-56179D02*
X52943Y-56929D01*
X53193Y-57179D01*
X53943Y-57179D01*
X53943Y-57428D01*
X53693Y-57678D01*
X53443Y-57678D01*
X53943Y-57179D02*
X53943Y-56179D01*
X55193Y-57179D02*
X54693Y-57179D01*
X54443Y-56929D01*
X54443Y-56429D01*
X54693Y-56179D01*
X55193Y-56179D01*
X55443Y-56429D01*
X55443Y-56679D01*
X54443Y-56679D01*
X55942Y-56179D02*
X55942Y-57179D01*
X55942Y-56679D01*
X56192Y-56429D01*
X56442Y-56179D01*
X56692Y-56179D01*
X21953Y-59429D02*
X22953Y-59429D01*
X22453Y-59429D01*
X22453Y-60929D01*
X23703Y-60929D02*
X24203Y-60929D01*
X24453Y-60679D01*
X24453Y-60179D01*
X24203Y-59929D01*
X23703Y-59929D01*
X23453Y-60179D01*
X23453Y-60679D01*
X23703Y-60929D01*
X24952Y-61428D02*
X24952Y-59929D01*
X25702Y-59929D01*
X25952Y-60179D01*
X25952Y-60679D01*
X25702Y-60929D01*
X24952Y-60929D01*
X27951Y-59429D02*
X27951Y-60929D01*
X28951Y-60929D01*
X29701Y-59929D02*
X30201Y-59929D01*
X30451Y-60179D01*
X30451Y-60929D01*
X29701Y-60929D01*
X29451Y-60679D01*
X29701Y-60429D01*
X30451Y-60429D01*
X30951Y-59929D02*
X30951Y-60679D01*
X31200Y-60929D01*
X31950Y-60929D01*
X31950Y-61178D01*
X31700Y-61428D01*
X31450Y-61428D01*
X31950Y-60929D02*
X31950Y-59929D01*
X33200Y-60929D02*
X32700Y-60929D01*
X32450Y-60679D01*
X32450Y-60179D01*
X32700Y-59929D01*
X33200Y-59929D01*
X33450Y-60179D01*
X33450Y-60429D01*
X32450Y-60429D01*
X33950Y-59929D02*
X33950Y-60929D01*
X33950Y-60429D01*
X34199Y-60179D01*
X34449Y-59929D01*
X34699Y-59929D01*
X36949Y-60179D02*
X37948Y-60179D01*
X39948Y-59429D02*
X39948Y-60929D01*
X40697Y-60929D01*
X40947Y-60679D01*
X40947Y-60429D01*
X40697Y-60179D01*
X39948Y-60179D01*
X40697Y-60179D01*
X40947Y-59929D01*
X40947Y-59679D01*
X40697Y-59429D01*
X39948Y-59429D01*
X41697Y-60929D02*
X42197Y-60929D01*
X42447Y-60679D01*
X42447Y-60179D01*
X42197Y-59929D01*
X41697Y-59929D01*
X41447Y-60179D01*
X41447Y-60679D01*
X41697Y-60929D01*
X43197Y-59679D02*
X43197Y-59929D01*
X42947Y-59929D01*
X43446Y-59929D01*
X43197Y-59929D01*
X43197Y-60679D01*
X43446Y-60929D01*
X44446Y-59679D02*
X44446Y-59929D01*
X44196Y-59929D01*
X44696Y-59929D01*
X44446Y-59929D01*
X44446Y-60679D01*
X44696Y-60929D01*
X45696Y-60929D02*
X46196Y-60929D01*
X46446Y-60679D01*
X46446Y-60179D01*
X46196Y-59929D01*
X45696Y-59929D01*
X45446Y-60179D01*
X45446Y-60679D01*
X45696Y-60929D01*
X46945Y-60929D02*
X46945Y-59929D01*
X47195Y-59929D01*
X47445Y-60179D01*
X47445Y-60929D01*
X47445Y-60179D01*
X47695Y-59929D01*
X47945Y-60179D01*
X47945Y-60929D01*
X49944Y-59429D02*
X49944Y-60929D01*
X50944Y-60929D01*
X51694Y-59929D02*
X52194Y-59929D01*
X52444Y-60179D01*
X52444Y-60929D01*
X51694Y-60929D01*
X51444Y-60679D01*
X51694Y-60429D01*
X52444Y-60429D01*
X52943Y-59929D02*
X52943Y-60679D01*
X53193Y-60929D01*
X53943Y-60929D01*
X53943Y-61178D01*
X53693Y-61428D01*
X53443Y-61428D01*
X53943Y-60929D02*
X53943Y-59929D01*
X55193Y-60929D02*
X54693Y-60929D01*
X54443Y-60679D01*
X54443Y-60179D01*
X54693Y-59929D01*
X55193Y-59929D01*
X55443Y-60179D01*
X55443Y-60429D01*
X54443Y-60429D01*
X55942Y-59929D02*
X55942Y-60929D01*
X55942Y-60429D01*
X56192Y-60179D01*
X56442Y-59929D01*
X56692Y-59929D01*
X21953Y-63179D02*
X22953Y-63179D01*
X22453Y-63179D01*
X22453Y-64679D01*
X23703Y-64679D02*
X24203Y-64679D01*
X24453Y-64429D01*
X24453Y-63929D01*
X24203Y-63679D01*
X23703Y-63679D01*
X23453Y-63929D01*
X23453Y-64429D01*
X23703Y-64679D01*
X24952Y-65178D02*
X24952Y-63679D01*
X25702Y-63679D01*
X25952Y-63929D01*
X25952Y-64429D01*
X25702Y-64679D01*
X24952Y-64679D01*
X27951Y-63179D02*
X27951Y-64679D01*
X28951Y-64679D01*
X29701Y-63679D02*
X30201Y-63679D01*
X30451Y-63929D01*
X30451Y-64679D01*
X29701Y-64679D01*
X29451Y-64429D01*
X29701Y-64179D01*
X30451Y-64179D01*
X30951Y-63679D02*
X30951Y-64429D01*
X31200Y-64679D01*
X31950Y-64679D01*
X31950Y-64928D01*
X31700Y-65178D01*
X31450Y-65178D01*
X31950Y-64679D02*
X31950Y-63679D01*
X33200Y-64679D02*
X32700Y-64679D01*
X32450Y-64429D01*
X32450Y-63929D01*
X32700Y-63679D01*
X33200Y-63679D01*
X33450Y-63929D01*
X33450Y-64179D01*
X32450Y-64179D01*
X33950Y-63679D02*
X33950Y-64679D01*
X33950Y-64179D01*
X34199Y-63929D01*
X34449Y-63679D01*
X34699Y-63679D01*
X36949Y-63929D02*
X37948Y-63929D01*
X39948Y-63179D02*
X39948Y-64679D01*
X40697Y-64679D01*
X40947Y-64429D01*
X40947Y-64179D01*
X40697Y-63929D01*
X39948Y-63929D01*
X40697Y-63929D01*
X40947Y-63679D01*
X40947Y-63429D01*
X40697Y-63179D01*
X39948Y-63179D01*
X41697Y-64679D02*
X42197Y-64679D01*
X42447Y-64429D01*
X42447Y-63929D01*
X42197Y-63679D01*
X41697Y-63679D01*
X41447Y-63929D01*
X41447Y-64429D01*
X41697Y-64679D01*
X43197Y-63429D02*
X43197Y-63679D01*
X42947Y-63679D01*
X43446Y-63679D01*
X43197Y-63679D01*
X43197Y-64429D01*
X43446Y-64679D01*
X44446Y-63429D02*
X44446Y-63679D01*
X44196Y-63679D01*
X44696Y-63679D01*
X44446Y-63679D01*
X44446Y-64429D01*
X44696Y-64679D01*
X45696Y-64679D02*
X46196Y-64679D01*
X46446Y-64429D01*
X46446Y-63929D01*
X46196Y-63679D01*
X45696Y-63679D01*
X45446Y-63929D01*
X45446Y-64429D01*
X45696Y-64679D01*
X46945Y-64679D02*
X46945Y-63679D01*
X47195Y-63679D01*
X47445Y-63929D01*
X47445Y-64679D01*
X47445Y-63929D01*
X47695Y-63679D01*
X47945Y-63929D01*
X47945Y-64679D01*
X49944Y-63179D02*
X49944Y-64679D01*
X50944Y-64679D01*
X51694Y-63679D02*
X52194Y-63679D01*
X52444Y-63929D01*
X52444Y-64679D01*
X51694Y-64679D01*
X51444Y-64429D01*
X51694Y-64179D01*
X52444Y-64179D01*
X52943Y-63679D02*
X52943Y-64429D01*
X53193Y-64679D01*
X53943Y-64679D01*
X53943Y-64928D01*
X53693Y-65178D01*
X53443Y-65178D01*
X53943Y-64679D02*
X53943Y-63679D01*
X55193Y-64679D02*
X54693Y-64679D01*
X54443Y-64429D01*
X54443Y-63929D01*
X54693Y-63679D01*
X55193Y-63679D01*
X55443Y-63929D01*
X55443Y-64179D01*
X54443Y-64179D01*
X55942Y-63679D02*
X55942Y-64679D01*
X55942Y-64179D01*
X56192Y-63929D01*
X56442Y-63679D01*
X56692Y-63679D01*
X21953Y-66929D02*
X22953Y-66929D01*
X22453Y-66929D01*
X22453Y-68429D01*
X23703Y-68429D02*
X24203Y-68429D01*
X24453Y-68179D01*
X24453Y-67679D01*
X24203Y-67429D01*
X23703Y-67429D01*
X23453Y-67679D01*
X23453Y-68179D01*
X23703Y-68429D01*
X24952Y-68928D02*
X24952Y-67429D01*
X25702Y-67429D01*
X25952Y-67679D01*
X25952Y-68179D01*
X25702Y-68429D01*
X24952Y-68429D01*
X27951Y-66929D02*
X27951Y-68429D01*
X28951Y-68429D01*
X29701Y-67429D02*
X30201Y-67429D01*
X30451Y-67679D01*
X30451Y-68429D01*
X29701Y-68429D01*
X29451Y-68179D01*
X29701Y-67929D01*
X30451Y-67929D01*
X30951Y-67429D02*
X30951Y-68179D01*
X31200Y-68429D01*
X31950Y-68429D01*
X31950Y-68678D01*
X31700Y-68928D01*
X31450Y-68928D01*
X31950Y-68429D02*
X31950Y-67429D01*
X33200Y-68429D02*
X32700Y-68429D01*
X32450Y-68179D01*
X32450Y-67679D01*
X32700Y-67429D01*
X33200Y-67429D01*
X33450Y-67679D01*
X33450Y-67929D01*
X32450Y-67929D01*
X33950Y-67429D02*
X33950Y-68429D01*
X33950Y-67929D01*
X34199Y-67679D01*
X34449Y-67429D01*
X34699Y-67429D01*
X36949Y-67679D02*
X37948Y-67679D01*
X39948Y-66929D02*
X39948Y-68429D01*
X40697Y-68429D01*
X40947Y-68179D01*
X40947Y-67929D01*
X40697Y-67679D01*
X39948Y-67679D01*
X40697Y-67679D01*
X40947Y-67429D01*
X40947Y-67179D01*
X40697Y-66929D01*
X39948Y-66929D01*
X41697Y-68429D02*
X42197Y-68429D01*
X42447Y-68179D01*
X42447Y-67679D01*
X42197Y-67429D01*
X41697Y-67429D01*
X41447Y-67679D01*
X41447Y-68179D01*
X41697Y-68429D01*
X43197Y-67179D02*
X43197Y-67429D01*
X42947Y-67429D01*
X43446Y-67429D01*
X43197Y-67429D01*
X43197Y-68179D01*
X43446Y-68429D01*
X44446Y-67179D02*
X44446Y-67429D01*
X44196Y-67429D01*
X44696Y-67429D01*
X44446Y-67429D01*
X44446Y-68179D01*
X44696Y-68429D01*
X45696Y-68429D02*
X46196Y-68429D01*
X46446Y-68179D01*
X46446Y-67679D01*
X46196Y-67429D01*
X45696Y-67429D01*
X45446Y-67679D01*
X45446Y-68179D01*
X45696Y-68429D01*
X46945Y-68429D02*
X46945Y-67429D01*
X47195Y-67429D01*
X47445Y-67679D01*
X47445Y-68429D01*
X47445Y-67679D01*
X47695Y-67429D01*
X47945Y-67679D01*
X47945Y-68429D01*
X49944Y-66929D02*
X49944Y-68429D01*
X50944Y-68429D01*
X51694Y-67429D02*
X52194Y-67429D01*
X52444Y-67679D01*
X52444Y-68429D01*
X51694Y-68429D01*
X51444Y-68179D01*
X51694Y-67929D01*
X52444Y-67929D01*
X52943Y-67429D02*
X52943Y-68179D01*
X53193Y-68429D01*
X53943Y-68429D01*
X53943Y-68678D01*
X53693Y-68928D01*
X53443Y-68928D01*
X53943Y-68429D02*
X53943Y-67429D01*
X55193Y-68429D02*
X54693Y-68429D01*
X54443Y-68179D01*
X54443Y-67679D01*
X54693Y-67429D01*
X55193Y-67429D01*
X55443Y-67679D01*
X55443Y-67929D01*
X54443Y-67929D01*
X55942Y-67429D02*
X55942Y-68429D01*
X55942Y-67929D01*
X56192Y-67679D01*
X56442Y-67429D01*
X56692Y-67429D01*
X9307Y-49679D02*
X9307Y-48179D01*
X10056Y-48179D01*
X10306Y-48429D01*
X10306Y-48929D01*
X10056Y-49179D01*
X9307Y-49179D01*
X10806Y-48179D02*
X11806Y-48179D01*
X11306Y-48179D01*
X11306Y-49679D01*
X12306Y-48179D02*
X12306Y-49679D01*
X12306Y-48929D01*
X13305Y-48929D01*
X13305Y-48179D01*
X13305Y-49679D01*
X9307Y-53429D02*
X9307Y-51929D01*
X10056Y-51929D01*
X10306Y-52179D01*
X10306Y-52679D01*
X10056Y-52929D01*
X9307Y-52929D01*
X10806Y-51929D02*
X11806Y-51929D01*
X11306Y-51929D01*
X11306Y-53429D01*
X12306Y-51929D02*
X12306Y-53429D01*
X12306Y-52679D01*
X13305Y-52679D01*
X13305Y-51929D01*
X13305Y-53429D01*
X9307Y-57179D02*
X9307Y-55679D01*
X10056Y-55679D01*
X10306Y-55929D01*
X10306Y-56429D01*
X10056Y-56679D01*
X9307Y-56679D01*
X10806Y-55679D02*
X11806Y-55679D01*
X11306Y-55679D01*
X11306Y-57179D01*
X12306Y-55679D02*
X12306Y-57179D01*
X12306Y-56429D01*
X13305Y-56429D01*
X13305Y-55679D01*
X13305Y-57179D01*
X9307Y-60929D02*
X9307Y-59429D01*
X10056Y-59429D01*
X10306Y-59679D01*
X10306Y-60179D01*
X10056Y-60429D01*
X9307Y-60429D01*
X10806Y-59429D02*
X11806Y-59429D01*
X11306Y-59429D01*
X11306Y-60929D01*
X12306Y-59429D02*
X12306Y-60929D01*
X12306Y-60179D01*
X13305Y-60179D01*
X13305Y-59429D01*
X13305Y-60929D01*
X9307Y-64679D02*
X9307Y-63179D01*
X10056Y-63179D01*
X10306Y-63429D01*
X10306Y-63929D01*
X10056Y-64179D01*
X9307Y-64179D01*
X10806Y-63179D02*
X11806Y-63179D01*
X11306Y-63179D01*
X11306Y-64679D01*
X12306Y-63179D02*
X12306Y-64679D01*
X12306Y-63929D01*
X13305Y-63929D01*
X13305Y-63179D01*
X13305Y-64679D01*
X9307Y-68429D02*
X9307Y-66929D01*
X10056Y-66929D01*
X10306Y-67179D01*
X10306Y-67679D01*
X10056Y-67929D01*
X9307Y-67929D01*
X10806Y-66929D02*
X11806Y-66929D01*
X11306Y-66929D01*
X11306Y-68429D01*
X12306Y-66929D02*
X12306Y-68429D01*
X12306Y-67679D01*
X13305Y-67679D01*
X13305Y-66929D01*
X13305Y-68429D01*
X-24334Y-49679D02*
X-23834Y-49679D01*
X-24084Y-49679D01*
X-24084Y-48179D01*
X-24334Y-48429D01*
X-22834Y-49928D02*
X-22584Y-49679D01*
X-22584Y-49429D01*
X-22834Y-49429D01*
X-22834Y-49679D01*
X-22584Y-49679D01*
X-22834Y-49928D01*
X-23084Y-50178D01*
X-21584Y-48429D02*
X-21335Y-48179D01*
X-20835Y-48179D01*
X-20585Y-48429D01*
X-20585Y-48679D01*
X-20835Y-48929D01*
X-21085Y-48929D01*
X-20835Y-48929D01*
X-20585Y-49179D01*
X-20585Y-49429D01*
X-20835Y-49679D01*
X-21335Y-49679D01*
X-21584Y-49429D01*
X-20085Y-48429D02*
X-19835Y-48179D01*
X-19335Y-48179D01*
X-19085Y-48429D01*
X-19085Y-49429D01*
X-19335Y-49679D01*
X-19835Y-49679D01*
X-20085Y-49429D01*
X-20085Y-48429D01*
X-18585Y-48429D02*
X-18335Y-48179D01*
X-17836Y-48179D01*
X-17586Y-48429D01*
X-17586Y-49429D01*
X-17836Y-49679D01*
X-18335Y-49679D01*
X-18585Y-49429D01*
X-18585Y-48429D01*
X-17086Y-49679D02*
X-17086Y-48679D01*
X-16836Y-48679D01*
X-16586Y-48929D01*
X-16586Y-49679D01*
X-16586Y-48929D01*
X-16336Y-48679D01*
X-16086Y-48929D01*
X-16086Y-49679D01*
X-15586Y-49679D02*
X-15586Y-48679D01*
X-15336Y-48679D01*
X-15087Y-48929D01*
X-15087Y-49679D01*
X-15087Y-48929D01*
X-14837Y-48679D01*
X-14587Y-48929D01*
X-14587Y-49679D01*
X-12087Y-49679D02*
X-12587Y-49179D01*
X-12587Y-48679D01*
X-12087Y-48179D01*
X-10338Y-48179D02*
X-11338Y-48179D01*
X-11338Y-48929D01*
X-10838Y-48679D01*
X-10588Y-48679D01*
X-10338Y-48929D01*
X-10338Y-49429D01*
X-10588Y-49679D01*
X-11088Y-49679D01*
X-11338Y-49429D01*
X-9838Y-49679D02*
X-9338Y-49679D01*
X-9588Y-49679D01*
X-9588Y-48179D01*
X-9838Y-48429D01*
X-8339Y-49928D02*
X-8089Y-49679D01*
X-8089Y-49429D01*
X-8339Y-49429D01*
X-8339Y-49679D01*
X-8089Y-49679D01*
X-8339Y-49928D01*
X-8589Y-50178D01*
X-7089Y-49679D02*
X-6589Y-49679D01*
X-6839Y-49679D01*
X-6839Y-48179D01*
X-7089Y-48429D01*
X-5840Y-48429D02*
X-5590Y-48179D01*
X-5090Y-48179D01*
X-4840Y-48429D01*
X-4840Y-48679D01*
X-5090Y-48929D01*
X-4840Y-49179D01*
X-4840Y-49429D01*
X-5090Y-49679D01*
X-5590Y-49679D01*
X-5840Y-49429D01*
X-5840Y-49179D01*
X-5590Y-48929D01*
X-5840Y-48679D01*
X-5840Y-48429D01*
X-5590Y-48929D02*
X-5090Y-48929D01*
X-4340Y-49679D02*
X-4340Y-48679D01*
X-4090Y-48679D01*
X-3840Y-48929D01*
X-3840Y-49679D01*
X-3840Y-48929D01*
X-3590Y-48679D01*
X-3340Y-48929D01*
X-3340Y-49679D01*
X-2840Y-49679D02*
X-2341Y-49679D01*
X-2591Y-49679D01*
X-2591Y-48679D01*
X-2840Y-48679D01*
X-1591Y-49679D02*
X-1091Y-49679D01*
X-1341Y-49679D01*
X-1341Y-48179D01*
X-1591Y-48179D01*
X-341Y-49679D02*
X159Y-49179D01*
X159Y-48679D01*
X-341Y-48179D01*
X-24334Y-52179D02*
X-24084Y-51929D01*
X-23584Y-51929D01*
X-23334Y-52179D01*
X-23334Y-53179D01*
X-23584Y-53429D01*
X-24084Y-53429D01*
X-24334Y-53179D01*
X-24334Y-52179D01*
X-22584Y-53678D02*
X-22334Y-53429D01*
X-22334Y-53179D01*
X-22584Y-53179D01*
X-22584Y-53429D01*
X-22334Y-53429D01*
X-22584Y-53678D01*
X-22834Y-53928D01*
X-20585Y-53429D02*
X-20585Y-51929D01*
X-21335Y-52679D01*
X-20335Y-52679D01*
X-19835Y-52179D02*
X-19585Y-51929D01*
X-19085Y-51929D01*
X-18835Y-52179D01*
X-18835Y-53179D01*
X-19085Y-53429D01*
X-19585Y-53429D01*
X-19835Y-53179D01*
X-19835Y-52179D01*
X-18335Y-52179D02*
X-18086Y-51929D01*
X-17586Y-51929D01*
X-17336Y-52179D01*
X-17336Y-53179D01*
X-17586Y-53429D01*
X-18086Y-53429D01*
X-18335Y-53179D01*
X-18335Y-52179D01*
X-16836Y-53429D02*
X-16836Y-52429D01*
X-16586Y-52429D01*
X-16336Y-52679D01*
X-16336Y-53429D01*
X-16336Y-52679D01*
X-16086Y-52429D01*
X-15836Y-52679D01*
X-15836Y-53429D01*
X-15336Y-53429D02*
X-15336Y-52429D01*
X-15087Y-52429D01*
X-14837Y-52679D01*
X-14837Y-53429D01*
X-14837Y-52679D01*
X-14587Y-52429D01*
X-14337Y-52679D01*
X-14337Y-53429D01*
X-11838Y-53429D02*
X-12337Y-52929D01*
X-12337Y-52429D01*
X-11838Y-51929D01*
X-11088Y-53429D02*
X-10588Y-53429D01*
X-10838Y-53429D01*
X-10838Y-51929D01*
X-11088Y-52179D01*
X-8839Y-51929D02*
X-9838Y-51929D01*
X-9838Y-52679D01*
X-9338Y-52429D01*
X-9088Y-52429D01*
X-8839Y-52679D01*
X-8839Y-53179D01*
X-9088Y-53429D01*
X-9588Y-53429D01*
X-9838Y-53179D01*
X-8089Y-53678D02*
X-7839Y-53429D01*
X-7839Y-53179D01*
X-8089Y-53179D01*
X-8089Y-53429D01*
X-7839Y-53429D01*
X-8089Y-53678D01*
X-8339Y-53928D01*
X-6839Y-51929D02*
X-5840Y-51929D01*
X-5840Y-52179D01*
X-6839Y-53179D01*
X-6839Y-53429D01*
X-4340Y-51929D02*
X-5340Y-51929D01*
X-5340Y-52679D01*
X-4840Y-52429D01*
X-4590Y-52429D01*
X-4340Y-52679D01*
X-4340Y-53179D01*
X-4590Y-53429D01*
X-5090Y-53429D01*
X-5340Y-53179D01*
X-3840Y-53429D02*
X-3840Y-52429D01*
X-3590Y-52429D01*
X-3340Y-52679D01*
X-3340Y-53429D01*
X-3340Y-52679D01*
X-3090Y-52429D01*
X-2840Y-52679D01*
X-2840Y-53429D01*
X-2341Y-53429D02*
X-1841Y-53429D01*
X-2091Y-53429D01*
X-2091Y-52429D01*
X-2341Y-52429D01*
X-1091Y-53429D02*
X-591Y-53429D01*
X-841Y-53429D01*
X-841Y-51929D01*
X-1091Y-51929D01*
X159Y-53429D02*
X658Y-52929D01*
X658Y-52429D01*
X159Y-51929D01*
X-24334Y-55929D02*
X-24084Y-55679D01*
X-23584Y-55679D01*
X-23334Y-55929D01*
X-23334Y-56929D01*
X-23584Y-57179D01*
X-24084Y-57179D01*
X-24334Y-56929D01*
X-24334Y-55929D01*
X-22584Y-57428D02*
X-22334Y-57179D01*
X-22334Y-56929D01*
X-22584Y-56929D01*
X-22584Y-57179D01*
X-22334Y-57179D01*
X-22584Y-57428D01*
X-22834Y-57678D01*
X-21335Y-56929D02*
X-21085Y-57179D01*
X-20585Y-57179D01*
X-20335Y-56929D01*
X-20335Y-55929D01*
X-20585Y-55679D01*
X-21085Y-55679D01*
X-21335Y-55929D01*
X-21335Y-56179D01*
X-21085Y-56429D01*
X-20335Y-56429D01*
X-19835Y-55929D02*
X-19585Y-55679D01*
X-19085Y-55679D01*
X-18835Y-55929D01*
X-18835Y-56929D01*
X-19085Y-57179D01*
X-19585Y-57179D01*
X-19835Y-56929D01*
X-19835Y-55929D01*
X-18335Y-55929D02*
X-18086Y-55679D01*
X-17586Y-55679D01*
X-17336Y-55929D01*
X-17336Y-56929D01*
X-17586Y-57179D01*
X-18086Y-57179D01*
X-18335Y-56929D01*
X-18335Y-55929D01*
X-16836Y-57179D02*
X-16836Y-56179D01*
X-16586Y-56179D01*
X-16336Y-56429D01*
X-16336Y-57179D01*
X-16336Y-56429D01*
X-16086Y-56179D01*
X-15836Y-56429D01*
X-15836Y-57179D01*
X-15336Y-57179D02*
X-15336Y-56179D01*
X-15087Y-56179D01*
X-14837Y-56429D01*
X-14837Y-57179D01*
X-14837Y-56429D01*
X-14587Y-56179D01*
X-14337Y-56429D01*
X-14337Y-57179D01*
X-11838Y-57179D02*
X-12337Y-56679D01*
X-12337Y-56179D01*
X-11838Y-55679D01*
X-11088Y-55929D02*
X-10838Y-55679D01*
X-10338Y-55679D01*
X-10088Y-55929D01*
X-10088Y-56179D01*
X-10338Y-56429D01*
X-10588Y-56429D01*
X-10338Y-56429D01*
X-10088Y-56679D01*
X-10088Y-56929D01*
X-10338Y-57179D01*
X-10838Y-57179D01*
X-11088Y-56929D01*
X-8589Y-55679D02*
X-9588Y-55679D01*
X-9588Y-56429D01*
X-9088Y-56179D01*
X-8839Y-56179D01*
X-8589Y-56429D01*
X-8589Y-56929D01*
X-8839Y-57179D01*
X-9338Y-57179D01*
X-9588Y-56929D01*
X-7839Y-57428D02*
X-7589Y-57179D01*
X-7589Y-56929D01*
X-7839Y-56929D01*
X-7839Y-57179D01*
X-7589Y-57179D01*
X-7839Y-57428D01*
X-8089Y-57678D01*
X-5840Y-57179D02*
X-5840Y-55679D01*
X-6589Y-56429D01*
X-5590Y-56429D01*
X-5090Y-55929D02*
X-4840Y-55679D01*
X-4340Y-55679D01*
X-4090Y-55929D01*
X-4090Y-56179D01*
X-4340Y-56429D01*
X-4590Y-56429D01*
X-4340Y-56429D01*
X-4090Y-56679D01*
X-4090Y-56929D01*
X-4340Y-57179D01*
X-4840Y-57179D01*
X-5090Y-56929D01*
X-3590Y-57179D02*
X-3590Y-56179D01*
X-3340Y-56179D01*
X-3090Y-56429D01*
X-3090Y-57179D01*
X-3090Y-56429D01*
X-2840Y-56179D01*
X-2591Y-56429D01*
X-2591Y-57179D01*
X-2091Y-57179D02*
X-1591Y-57179D01*
X-1841Y-57179D01*
X-1841Y-56179D01*
X-2091Y-56179D01*
X-841Y-57179D02*
X-341Y-57179D01*
X-591Y-57179D01*
X-591Y-55679D01*
X-841Y-55679D01*
X408Y-57179D02*
X908Y-56679D01*
X908Y-56179D01*
X408Y-55679D01*
X-24334Y-59679D02*
X-24084Y-59429D01*
X-23584Y-59429D01*
X-23334Y-59679D01*
X-23334Y-60679D01*
X-23584Y-60929D01*
X-24084Y-60929D01*
X-24334Y-60679D01*
X-24334Y-59679D01*
X-22584Y-61178D02*
X-22334Y-60929D01*
X-22334Y-60679D01*
X-22584Y-60679D01*
X-22584Y-60929D01*
X-22334Y-60929D01*
X-22584Y-61178D01*
X-22834Y-61428D01*
X-21335Y-59429D02*
X-20335Y-59429D01*
X-20335Y-59679D01*
X-21335Y-60679D01*
X-21335Y-60929D01*
X-19835Y-59679D02*
X-19585Y-59429D01*
X-19085Y-59429D01*
X-18835Y-59679D01*
X-18835Y-60679D01*
X-19085Y-60929D01*
X-19585Y-60929D01*
X-19835Y-60679D01*
X-19835Y-59679D01*
X-18335Y-59679D02*
X-18086Y-59429D01*
X-17586Y-59429D01*
X-17336Y-59679D01*
X-17336Y-60679D01*
X-17586Y-60929D01*
X-18086Y-60929D01*
X-18335Y-60679D01*
X-18335Y-59679D01*
X-16836Y-60929D02*
X-16836Y-59929D01*
X-16586Y-59929D01*
X-16336Y-60179D01*
X-16336Y-60929D01*
X-16336Y-60179D01*
X-16086Y-59929D01*
X-15836Y-60179D01*
X-15836Y-60929D01*
X-15336Y-60929D02*
X-15336Y-59929D01*
X-15087Y-59929D01*
X-14837Y-60179D01*
X-14837Y-60929D01*
X-14837Y-60179D01*
X-14587Y-59929D01*
X-14337Y-60179D01*
X-14337Y-60929D01*
X-11838Y-60929D02*
X-12337Y-60429D01*
X-12337Y-59929D01*
X-11838Y-59429D01*
X-10088Y-60929D02*
X-11088Y-60929D01*
X-10088Y-59929D01*
X-10088Y-59679D01*
X-10338Y-59429D01*
X-10838Y-59429D01*
X-11088Y-59679D01*
X-9588Y-59429D02*
X-8589Y-59429D01*
X-8589Y-59679D01*
X-9588Y-60679D01*
X-9588Y-60929D01*
X-7839Y-61178D02*
X-7589Y-60929D01*
X-7589Y-60679D01*
X-7839Y-60679D01*
X-7839Y-60929D01*
X-7589Y-60929D01*
X-7839Y-61178D01*
X-8089Y-61428D01*
X-5590Y-59429D02*
X-6589Y-59429D01*
X-6589Y-60179D01*
X-6089Y-59929D01*
X-5840Y-59929D01*
X-5590Y-60179D01*
X-5590Y-60679D01*
X-5840Y-60929D01*
X-6339Y-60929D01*
X-6589Y-60679D01*
X-4090Y-59429D02*
X-4590Y-59679D01*
X-5090Y-60179D01*
X-5090Y-60679D01*
X-4840Y-60929D01*
X-4340Y-60929D01*
X-4090Y-60679D01*
X-4090Y-60429D01*
X-4340Y-60179D01*
X-5090Y-60179D01*
X-3590Y-60929D02*
X-3590Y-59929D01*
X-3340Y-59929D01*
X-3090Y-60179D01*
X-3090Y-60929D01*
X-3090Y-60179D01*
X-2840Y-59929D01*
X-2591Y-60179D01*
X-2591Y-60929D01*
X-2091Y-60929D02*
X-1591Y-60929D01*
X-1841Y-60929D01*
X-1841Y-59929D01*
X-2091Y-59929D01*
X-841Y-60929D02*
X-341Y-60929D01*
X-591Y-60929D01*
X-591Y-59429D01*
X-841Y-59429D01*
X408Y-60929D02*
X908Y-60429D01*
X908Y-59929D01*
X408Y-59429D01*
X-24334Y-63429D02*
X-24084Y-63179D01*
X-23584Y-63179D01*
X-23334Y-63429D01*
X-23334Y-64429D01*
X-23584Y-64679D01*
X-24084Y-64679D01*
X-24334Y-64429D01*
X-24334Y-63429D01*
X-22584Y-64928D02*
X-22334Y-64679D01*
X-22334Y-64429D01*
X-22584Y-64429D01*
X-22584Y-64679D01*
X-22334Y-64679D01*
X-22584Y-64928D01*
X-22834Y-65178D01*
X-20335Y-63179D02*
X-20835Y-63429D01*
X-21335Y-63929D01*
X-21335Y-64429D01*
X-21085Y-64679D01*
X-20585Y-64679D01*
X-20335Y-64429D01*
X-20335Y-64179D01*
X-20585Y-63929D01*
X-21335Y-63929D01*
X-19835Y-63429D02*
X-19585Y-63179D01*
X-19085Y-63179D01*
X-18835Y-63429D01*
X-18835Y-63679D01*
X-19085Y-63929D01*
X-19335Y-63929D01*
X-19085Y-63929D01*
X-18835Y-64179D01*
X-18835Y-64429D01*
X-19085Y-64679D01*
X-19585Y-64679D01*
X-19835Y-64429D01*
X-17336Y-63179D02*
X-18335Y-63179D01*
X-18335Y-63929D01*
X-17836Y-63679D01*
X-17586Y-63679D01*
X-17336Y-63929D01*
X-17336Y-64429D01*
X-17586Y-64679D01*
X-18086Y-64679D01*
X-18335Y-64429D01*
X-16836Y-64679D02*
X-16836Y-63679D01*
X-16586Y-63679D01*
X-16336Y-63929D01*
X-16336Y-64679D01*
X-16336Y-63929D01*
X-16086Y-63679D01*
X-15836Y-63929D01*
X-15836Y-64679D01*
X-15336Y-64679D02*
X-15336Y-63679D01*
X-15087Y-63679D01*
X-14837Y-63929D01*
X-14837Y-64679D01*
X-14837Y-63929D01*
X-14587Y-63679D01*
X-14337Y-63929D01*
X-14337Y-64679D01*
X-11838Y-64679D02*
X-12337Y-64179D01*
X-12337Y-63679D01*
X-11838Y-63179D01*
X-10088Y-64679D02*
X-11088Y-64679D01*
X-10088Y-63679D01*
X-10088Y-63429D01*
X-10338Y-63179D01*
X-10838Y-63179D01*
X-11088Y-63429D01*
X-8589Y-63179D02*
X-9588Y-63179D01*
X-9588Y-63929D01*
X-9088Y-63679D01*
X-8839Y-63679D01*
X-8589Y-63929D01*
X-8589Y-64429D01*
X-8839Y-64679D01*
X-9338Y-64679D01*
X-9588Y-64429D01*
X-7839Y-64928D02*
X-7589Y-64679D01*
X-7589Y-64429D01*
X-7839Y-64429D01*
X-7839Y-64679D01*
X-7589Y-64679D01*
X-7839Y-64928D01*
X-8089Y-65178D01*
X-6589Y-63429D02*
X-6339Y-63179D01*
X-5840Y-63179D01*
X-5590Y-63429D01*
X-5590Y-64429D01*
X-5840Y-64679D01*
X-6339Y-64679D01*
X-6589Y-64429D01*
X-6589Y-63429D01*
X-5090Y-63429D02*
X-4840Y-63179D01*
X-4340Y-63179D01*
X-4090Y-63429D01*
X-4090Y-64429D01*
X-4340Y-64679D01*
X-4840Y-64679D01*
X-5090Y-64429D01*
X-5090Y-63429D01*
X-3590Y-64679D02*
X-3590Y-63679D01*
X-3340Y-63679D01*
X-3090Y-63929D01*
X-3090Y-64679D01*
X-3090Y-63929D01*
X-2840Y-63679D01*
X-2591Y-63929D01*
X-2591Y-64679D01*
X-2091Y-64679D02*
X-1591Y-64679D01*
X-1841Y-64679D01*
X-1841Y-63679D01*
X-2091Y-63679D01*
X-841Y-64679D02*
X-341Y-64679D01*
X-591Y-64679D01*
X-591Y-63179D01*
X-841Y-63179D01*
X408Y-64679D02*
X908Y-64179D01*
X908Y-63679D01*
X408Y-63179D01*
X-24334Y-67179D02*
X-24084Y-66929D01*
X-23584Y-66929D01*
X-23334Y-67179D01*
X-23334Y-68179D01*
X-23584Y-68429D01*
X-24084Y-68429D01*
X-24334Y-68179D01*
X-24334Y-67179D01*
X-22584Y-68678D02*
X-22334Y-68429D01*
X-22334Y-68179D01*
X-22584Y-68179D01*
X-22584Y-68429D01*
X-22334Y-68429D01*
X-22584Y-68678D01*
X-22834Y-68928D01*
X-21335Y-67179D02*
X-21085Y-66929D01*
X-20585Y-66929D01*
X-20335Y-67179D01*
X-20335Y-67429D01*
X-20585Y-67679D01*
X-20835Y-67679D01*
X-20585Y-67679D01*
X-20335Y-67929D01*
X-20335Y-68179D01*
X-20585Y-68429D01*
X-21085Y-68429D01*
X-21335Y-68179D01*
X-19835Y-67179D02*
X-19585Y-66929D01*
X-19085Y-66929D01*
X-18835Y-67179D01*
X-18835Y-68179D01*
X-19085Y-68429D01*
X-19585Y-68429D01*
X-19835Y-68179D01*
X-19835Y-67179D01*
X-18335Y-67179D02*
X-18086Y-66929D01*
X-17586Y-66929D01*
X-17336Y-67179D01*
X-17336Y-68179D01*
X-17586Y-68429D01*
X-18086Y-68429D01*
X-18335Y-68179D01*
X-18335Y-67179D01*
X-16836Y-68429D02*
X-16836Y-67429D01*
X-16586Y-67429D01*
X-16336Y-67679D01*
X-16336Y-68429D01*
X-16336Y-67679D01*
X-16086Y-67429D01*
X-15836Y-67679D01*
X-15836Y-68429D01*
X-15336Y-68429D02*
X-15336Y-67429D01*
X-15087Y-67429D01*
X-14837Y-67679D01*
X-14837Y-68429D01*
X-14837Y-67679D01*
X-14587Y-67429D01*
X-14337Y-67679D01*
X-14337Y-68429D01*
X-11838Y-68429D02*
X-12337Y-67929D01*
X-12337Y-67429D01*
X-11838Y-66929D01*
X-11088Y-68429D02*
X-10588Y-68429D01*
X-10838Y-68429D01*
X-10838Y-66929D01*
X-11088Y-67179D01*
X-9838Y-68429D02*
X-9338Y-68429D01*
X-9588Y-68429D01*
X-9588Y-66929D01*
X-9838Y-67179D01*
X-8339Y-68678D02*
X-8089Y-68429D01*
X-8089Y-68179D01*
X-8339Y-68179D01*
X-8339Y-68429D01*
X-8089Y-68429D01*
X-8339Y-68678D01*
X-8589Y-68928D01*
X-7089Y-67179D02*
X-6839Y-66929D01*
X-6339Y-66929D01*
X-6089Y-67179D01*
X-6089Y-67429D01*
X-6339Y-67679D01*
X-6089Y-67929D01*
X-6089Y-68179D01*
X-6339Y-68429D01*
X-6839Y-68429D01*
X-7089Y-68179D01*
X-7089Y-67929D01*
X-6839Y-67679D01*
X-7089Y-67429D01*
X-7089Y-67179D01*
X-6839Y-67679D02*
X-6339Y-67679D01*
X-5590Y-68429D02*
X-5090Y-68429D01*
X-5340Y-68429D01*
X-5340Y-66929D01*
X-5590Y-67179D01*
X-4340Y-68429D02*
X-4340Y-67429D01*
X-4090Y-67429D01*
X-3840Y-67679D01*
X-3840Y-68429D01*
X-3840Y-67679D01*
X-3590Y-67429D01*
X-3340Y-67679D01*
X-3340Y-68429D01*
X-2840Y-68429D02*
X-2341Y-68429D01*
X-2591Y-68429D01*
X-2591Y-67429D01*
X-2840Y-67429D01*
X-1591Y-68429D02*
X-1091Y-68429D01*
X-1341Y-68429D01*
X-1341Y-66929D01*
X-1591Y-66929D01*
X-341Y-68429D02*
X159Y-67929D01*
X159Y-67429D01*
X-341Y-66929D01*
X-41779Y-72178D02*
X-41279Y-72178D01*
X-41529Y-72178D01*
X-41529Y-70679D01*
X-41779Y-70929D01*
X-39530Y-70679D02*
X-40029Y-70929D01*
X-40529Y-71429D01*
X-40529Y-71929D01*
X-40279Y-72178D01*
X-39780Y-72178D01*
X-39530Y-71929D01*
X-39530Y-71679D01*
X-39780Y-71429D01*
X-40529Y-71429D01*
X-39030Y-70929D02*
X-38780Y-70679D01*
X-38280Y-70679D01*
X-38030Y-70929D01*
X-38030Y-71179D01*
X-38280Y-71429D01*
X-38030Y-71679D01*
X-38030Y-71929D01*
X-38280Y-72178D01*
X-38780Y-72178D01*
X-39030Y-71929D01*
X-39030Y-71679D01*
X-38780Y-71429D01*
X-39030Y-71179D01*
X-39030Y-70929D01*
X-38780Y-71429D02*
X-38280Y-71429D01*
X-36031Y-70679D02*
X-35031Y-70679D01*
X-35531Y-70679D01*
X-35531Y-72178D01*
X-34281Y-72178D02*
X-33781Y-72178D01*
X-33532Y-71929D01*
X-33532Y-71429D01*
X-33781Y-71179D01*
X-34281Y-71179D01*
X-34531Y-71429D01*
X-34531Y-71929D01*
X-34281Y-72178D01*
X-32782Y-70929D02*
X-32782Y-71179D01*
X-33032Y-71179D01*
X-32532Y-71179D01*
X-32782Y-71179D01*
X-32782Y-71929D01*
X-32532Y-72178D01*
X-31532Y-71179D02*
X-31032Y-71179D01*
X-30782Y-71429D01*
X-30782Y-72178D01*
X-31532Y-72178D01*
X-31782Y-71929D01*
X-31532Y-71679D01*
X-30782Y-71679D01*
X-30283Y-72178D02*
X-29783Y-72178D01*
X-30033Y-72178D01*
X-30033Y-70679D01*
X-30283Y-70679D01*
X-40779Y-49679D02*
X-41779Y-49679D01*
X-40779Y-48679D01*
X-40779Y-48429D01*
X-41029Y-48179D01*
X-41529Y-48179D01*
X-41779Y-48429D01*
X-41779Y-52179D02*
X-41529Y-51929D01*
X-41029Y-51929D01*
X-40779Y-52179D01*
X-40779Y-52429D01*
X-41029Y-52679D01*
X-41279Y-52679D01*
X-41029Y-52679D01*
X-40779Y-52929D01*
X-40779Y-53179D01*
X-41029Y-53429D01*
X-41529Y-53429D01*
X-41779Y-53179D01*
X-41029Y-57179D02*
X-41029Y-55679D01*
X-41779Y-56429D01*
X-40779Y-56429D01*
X-40779Y-59429D02*
X-41279Y-59679D01*
X-41779Y-60179D01*
X-41779Y-60679D01*
X-41529Y-60929D01*
X-41029Y-60929D01*
X-40779Y-60679D01*
X-40779Y-60429D01*
X-41029Y-60179D01*
X-41779Y-60179D01*
X-40779Y-64679D02*
X-41779Y-64679D01*
X-40779Y-63679D01*
X-40779Y-63429D01*
X-41029Y-63179D01*
X-41529Y-63179D01*
X-41779Y-63429D01*
X-39530Y-64679D02*
X-39530Y-63179D01*
X-40279Y-63929D01*
X-39280Y-63929D01*
X-41779Y-68429D02*
X-41279Y-68429D01*
X-41529Y-68429D01*
X-41529Y-66929D01*
X-41779Y-67179D01*
X-39530Y-68429D02*
X-40529Y-68429D01*
X-39530Y-67429D01*
X-39530Y-67179D01*
X-39780Y-66929D01*
X-40279Y-66929D01*
X-40529Y-67179D01*
X-39030Y-68179D02*
X-38780Y-68429D01*
X-38280Y-68429D01*
X-38030Y-68179D01*
X-38030Y-67179D01*
X-38280Y-66929D01*
X-38780Y-66929D01*
X-39030Y-67179D01*
X-39030Y-67429D01*
X-38780Y-67679D01*
X-38030Y-67679D01*
D32*
X-56676Y-47054D02*
X148117Y-47054D01*
X-56676Y-69554D02*
X148117Y-69554D01*
X-56676Y-73303D02*
X148117Y-73303D01*
X148117Y-43304D01*
X-56676Y-43304D02*
X148117Y-43304D01*
X-56676Y-73303D02*
X-56676Y-43304D01*
X113052Y-73303D02*
X113052Y-43304D01*
X91408Y-73303D02*
X91408Y-43304D01*
X73063Y-73303D02*
X73063Y-43304D01*
X58317Y-73303D02*
X58317Y-43304D01*
X20828Y-73303D02*
X20828Y-43304D01*
X8182Y-73303D02*
X8182Y-43304D01*
X-25459Y-73303D02*
X-25459Y-43304D01*
X-42904Y-73303D02*
X-42904Y-43304D01*
D51*
X20644Y24190D02*
G03*
X20644Y24190I-254J0D01*
G01*
X20644Y22920D02*
G03*
X20644Y22920I-254J0D01*
G01*
X20644Y21650D02*
G03*
X20644Y21650I-254J0D01*
G01*
X2854Y24190D02*
G03*
X2854Y24190I-254J0D01*
G01*
X2854Y22920D02*
G03*
X2854Y22920I-254J0D01*
G01*
X2854Y21650D02*
G03*
X2854Y21650I-254J0D01*
G01*
X10831Y12198D02*
X10958Y12071D01*
X10704Y12198D02*
X10831Y12198D01*
X10704Y12198D02*
X10831Y12325D01*
X10704Y12452D02*
X10831Y12325D01*
X10704Y12452D02*
X10831Y12452D01*
X10958Y12579D01*
X11085Y12452D01*
X11212Y12452D01*
X11085Y12325D02*
X11212Y12452D01*
X11085Y12325D02*
X11212Y12198D01*
X11085Y12198D02*
X11212Y12198D01*
X10958Y12071D02*
X11085Y12198D01*
X20791Y28598D02*
X20918Y28471D01*
X20664Y28598D02*
X20791Y28598D01*
X20664Y28598D02*
X20791Y28725D01*
X20664Y28852D02*
X20791Y28725D01*
X20664Y28852D02*
X20791Y28852D01*
X20918Y28979D01*
X21045Y28852D01*
X21172Y28852D01*
X21045Y28725D02*
X21172Y28852D01*
X21045Y28725D02*
X21172Y28598D01*
X21045Y28598D02*
X21172Y28598D01*
X20918Y28471D02*
X21045Y28598D01*
X20900Y25873D02*
X21027Y25746D01*
X20773Y25873D02*
X20900Y25873D01*
X20773Y25873D02*
X20900Y26000D01*
X20773Y26127D02*
X20900Y26000D01*
X20773Y26127D02*
X20900Y26127D01*
X21027Y26254D01*
X21154Y26127D01*
X21281Y26127D01*
X21154Y26000D02*
X21281Y26127D01*
X21154Y26000D02*
X21281Y25873D01*
X21154Y25873D02*
X21281Y25873D01*
X21027Y25746D02*
X21154Y25873D01*
X17987Y18548D02*
X18114Y18421D01*
X17860Y18548D02*
X17987Y18548D01*
X17860Y18548D02*
X17987Y18675D01*
X17860Y18802D02*
X17987Y18675D01*
X17860Y18802D02*
X17987Y18802D01*
X18114Y18929D01*
X18241Y18802D01*
X18368Y18802D01*
X18241Y18675D02*
X18368Y18802D01*
X18241Y18675D02*
X18368Y18548D01*
X18241Y18548D02*
X18368Y18548D01*
X18114Y18421D02*
X18241Y18548D01*
X14749Y18673D02*
X14876Y18546D01*
X14622Y18673D02*
X14749Y18673D01*
X14622Y18673D02*
X14749Y18800D01*
X14622Y18927D02*
X14749Y18800D01*
X14622Y18927D02*
X14749Y18927D01*
X14876Y19054D01*
X15003Y18927D01*
X15130Y18927D01*
X15003Y18800D02*
X15130Y18927D01*
X15003Y18800D02*
X15130Y18673D01*
X15003Y18673D02*
X15130Y18673D01*
X14876Y18546D02*
X15003Y18673D01*
X13448Y20098D02*
X13575Y19971D01*
X13321Y20098D02*
X13448Y20098D01*
X13321Y20098D02*
X13448Y20225D01*
X13321Y20352D02*
X13448Y20225D01*
X13321Y20352D02*
X13448Y20352D01*
X13575Y20479D01*
X13702Y20352D01*
X13829Y20352D01*
X13702Y20225D02*
X13829Y20352D01*
X13702Y20225D02*
X13829Y20098D01*
X13702Y20098D02*
X13829Y20098D01*
X13575Y19971D02*
X13702Y20098D01*
X9292Y19948D02*
X9419Y19821D01*
X9165Y19948D02*
X9292Y19948D01*
X9165Y19948D02*
X9292Y20075D01*
X9165Y20202D02*
X9292Y20075D01*
X9165Y20202D02*
X9292Y20202D01*
X9419Y20329D01*
X9546Y20202D01*
X9673Y20202D01*
X9546Y20075D02*
X9673Y20202D01*
X9546Y20075D02*
X9673Y19948D01*
X9546Y19948D02*
X9673Y19948D01*
X9419Y19821D02*
X9546Y19948D01*
X6691Y25894D02*
X6818Y25767D01*
X6564Y25894D02*
X6691Y25894D01*
X6564Y25894D02*
X6691Y26021D01*
X6564Y26148D02*
X6691Y26021D01*
X6564Y26148D02*
X6691Y26148D01*
X6818Y26275D01*
X6945Y26148D01*
X7072Y26148D01*
X6945Y26021D02*
X7072Y26148D01*
X6945Y26021D02*
X7072Y25894D01*
X6945Y25894D02*
X7072Y25894D01*
X6818Y25767D02*
X6945Y25894D01*
X3961Y21048D02*
X4088Y20921D01*
X3834Y21048D02*
X3961Y21048D01*
X3834Y21048D02*
X3961Y21175D01*
X3834Y21302D02*
X3961Y21175D01*
X3834Y21302D02*
X3961Y21302D01*
X4088Y21429D01*
X4215Y21302D01*
X4342Y21302D01*
X4215Y21175D02*
X4342Y21302D01*
X4215Y21175D02*
X4342Y21048D01*
X4215Y21048D02*
X4342Y21048D01*
X4088Y20921D02*
X4215Y21048D01*
X4232Y25323D02*
X4359Y25196D01*
X4105Y25323D02*
X4232Y25323D01*
X4105Y25323D02*
X4232Y25450D01*
X4105Y25577D02*
X4232Y25450D01*
X4105Y25577D02*
X4232Y25577D01*
X4359Y25704D01*
X4486Y25577D01*
X4613Y25577D01*
X4486Y25450D02*
X4613Y25577D01*
X4486Y25450D02*
X4613Y25323D01*
X4486Y25323D02*
X4613Y25323D01*
X4359Y25196D02*
X4486Y25323D01*
X2098Y26573D02*
X2225Y26446D01*
X1971Y26573D02*
X2098Y26573D01*
X1971Y26573D02*
X2098Y26700D01*
X1971Y26827D02*
X2098Y26700D01*
X1971Y26827D02*
X2098Y26827D01*
X2225Y26954D01*
X2352Y26827D01*
X2479Y26827D01*
X2352Y26700D02*
X2479Y26827D01*
X2352Y26700D02*
X2479Y26573D01*
X2352Y26573D02*
X2479Y26573D01*
X2225Y26446D02*
X2352Y26573D01*
X7234Y27864D02*
X7361Y27737D01*
X7107Y27864D02*
X7234Y27864D01*
X7107Y27864D02*
X7234Y27991D01*
X7107Y28118D02*
X7234Y27991D01*
X7107Y28118D02*
X7234Y28118D01*
X7361Y28245D01*
X7488Y28118D01*
X7615Y28118D01*
X7488Y27991D02*
X7615Y28118D01*
X7488Y27991D02*
X7615Y27864D01*
X7488Y27864D02*
X7615Y27864D01*
X7361Y27737D02*
X7488Y27864D01*
X7234Y28922D02*
X7361Y28795D01*
X7107Y28922D02*
X7234Y28922D01*
X7107Y28922D02*
X7234Y29049D01*
X7107Y29176D02*
X7234Y29049D01*
X7107Y29176D02*
X7234Y29176D01*
X7361Y29303D01*
X7488Y29176D01*
X7615Y29176D01*
X7488Y29049D02*
X7615Y29176D01*
X7488Y29049D02*
X7615Y28922D01*
X7488Y28922D02*
X7615Y28922D01*
X7361Y28795D02*
X7488Y28922D01*
X15493Y26868D02*
X15620Y26741D01*
X15366Y26868D02*
X15493Y26868D01*
X15366Y26868D02*
X15493Y26995D01*
X15366Y27122D02*
X15493Y26995D01*
X15366Y27122D02*
X15493Y27122D01*
X15620Y27249D01*
X15747Y27122D01*
X15874Y27122D01*
X15747Y26995D02*
X15874Y27122D01*
X15747Y26995D02*
X15874Y26868D01*
X15747Y26868D02*
X15874Y26868D01*
X15620Y26741D02*
X15747Y26868D01*
X15493Y27877D02*
X15620Y27750D01*
X15366Y27877D02*
X15493Y27877D01*
X15366Y27877D02*
X15493Y28004D01*
X15366Y28131D02*
X15493Y28004D01*
X15366Y28131D02*
X15493Y28131D01*
X15620Y28258D01*
X15747Y28131D01*
X15874Y28131D01*
X15747Y28004D02*
X15874Y28131D01*
X15747Y28004D02*
X15874Y27877D01*
X15747Y27877D02*
X15874Y27877D01*
X15620Y27750D02*
X15747Y27877D01*
X15493Y28893D02*
X15620Y28766D01*
X15366Y28893D02*
X15493Y28893D01*
X15366Y28893D02*
X15493Y29020D01*
X15366Y29147D02*
X15493Y29020D01*
X15366Y29147D02*
X15493Y29147D01*
X15620Y29274D01*
X15747Y29147D01*
X15874Y29147D01*
X15747Y29020D02*
X15874Y29147D01*
X15747Y29020D02*
X15874Y28893D01*
X15747Y28893D02*
X15874Y28893D01*
X15620Y28766D02*
X15747Y28893D01*
X10548Y23258D02*
X10675Y23131D01*
X10421Y23258D02*
X10548Y23258D01*
X10421Y23258D02*
X10548Y23385D01*
X10421Y23512D02*
X10548Y23385D01*
X10421Y23512D02*
X10548Y23512D01*
X10675Y23639D01*
X10802Y23512D01*
X10929Y23512D01*
X10802Y23385D02*
X10929Y23512D01*
X10802Y23385D02*
X10929Y23258D01*
X10802Y23258D02*
X10929Y23258D01*
X10675Y23131D02*
X10802Y23258D01*
X12198Y23248D02*
X12325Y23121D01*
X12071Y23248D02*
X12198Y23248D01*
X12071Y23248D02*
X12198Y23375D01*
X12071Y23502D02*
X12198Y23375D01*
X12071Y23502D02*
X12198Y23502D01*
X12325Y23629D01*
X12452Y23502D01*
X12579Y23502D01*
X12452Y23375D02*
X12579Y23502D01*
X12452Y23375D02*
X12579Y23248D01*
X12452Y23248D02*
X12579Y23248D01*
X12325Y23121D02*
X12452Y23248D01*
X2473Y19898D02*
X2600Y19771D01*
X2346Y19898D02*
X2473Y19898D01*
X2346Y19898D02*
X2473Y20025D01*
X2346Y20152D02*
X2473Y20025D01*
X2346Y20152D02*
X2473Y20152D01*
X2600Y20279D01*
X2727Y20152D01*
X2854Y20152D01*
X2727Y20025D02*
X2854Y20152D01*
X2727Y20025D02*
X2854Y19898D01*
X2727Y19898D02*
X2854Y19898D01*
X2600Y19771D02*
X2727Y19898D01*
X14248Y7598D02*
X14375Y7471D01*
X14121Y7598D02*
X14248Y7598D01*
X14121Y7598D02*
X14248Y7725D01*
X14121Y7852D02*
X14248Y7725D01*
X14121Y7852D02*
X14248Y7852D01*
X14375Y7979D01*
X14502Y7852D01*
X14629Y7852D01*
X14502Y7725D02*
X14629Y7852D01*
X14502Y7725D02*
X14629Y7598D01*
X14502Y7598D02*
X14629Y7598D01*
X14375Y7471D02*
X14502Y7598D01*
X3342Y16898D02*
X3469Y16771D01*
X3215Y16898D02*
X3342Y16898D01*
X3215Y16898D02*
X3342Y17025D01*
X3215Y17152D02*
X3342Y17025D01*
X3215Y17152D02*
X3342Y17152D01*
X3469Y17279D01*
X3596Y17152D01*
X3723Y17152D01*
X3596Y17025D02*
X3723Y17152D01*
X3596Y17025D02*
X3723Y16898D01*
X3596Y16898D02*
X3723Y16898D01*
X3469Y16771D02*
X3596Y16898D01*
X18373Y573D02*
X18500Y446D01*
X18246Y573D02*
X18373Y573D01*
X18246Y573D02*
X18373Y700D01*
X18246Y827D02*
X18373Y700D01*
X18246Y827D02*
X18373Y827D01*
X18500Y954D01*
X18627Y827D01*
X18754Y827D01*
X18627Y700D02*
X18754Y827D01*
X18627Y700D02*
X18754Y573D01*
X18627Y573D02*
X18754Y573D01*
X18500Y446D02*
X18627Y573D01*
X22173Y573D02*
X22300Y446D01*
X22046Y573D02*
X22173Y573D01*
X22046Y573D02*
X22173Y700D01*
X22046Y827D02*
X22173Y700D01*
X22046Y827D02*
X22173Y827D01*
X22300Y954D01*
X22427Y827D01*
X22554Y827D01*
X22427Y700D02*
X22554Y827D01*
X22427Y700D02*
X22554Y573D01*
X22427Y573D02*
X22554Y573D01*
X22300Y446D02*
X22427Y573D01*
X6373Y573D02*
X6500Y446D01*
X6246Y573D02*
X6373Y573D01*
X6246Y573D02*
X6373Y700D01*
X6246Y827D02*
X6373Y700D01*
X6246Y827D02*
X6373Y827D01*
X6500Y954D01*
X6627Y827D01*
X6754Y827D01*
X6627Y700D02*
X6754Y827D01*
X6627Y700D02*
X6754Y573D01*
X6627Y573D02*
X6754Y573D01*
X6500Y446D02*
X6627Y573D01*
X8373Y573D02*
X8500Y446D01*
X8246Y573D02*
X8373Y573D01*
X8246Y573D02*
X8373Y700D01*
X8246Y827D02*
X8373Y700D01*
X8246Y827D02*
X8373Y827D01*
X8500Y954D01*
X8627Y827D01*
X8754Y827D01*
X8627Y700D02*
X8754Y827D01*
X8627Y700D02*
X8754Y573D01*
X8627Y573D02*
X8754Y573D01*
X8500Y446D02*
X8627Y573D01*
X10373Y573D02*
X10500Y446D01*
X10246Y573D02*
X10373Y573D01*
X10246Y573D02*
X10373Y700D01*
X10246Y827D02*
X10373Y700D01*
X10246Y827D02*
X10373Y827D01*
X10500Y954D01*
X10627Y827D01*
X10754Y827D01*
X10627Y700D02*
X10754Y827D01*
X10627Y700D02*
X10754Y573D01*
X10627Y573D02*
X10754Y573D01*
X10500Y446D02*
X10627Y573D01*
X12373Y573D02*
X12500Y446D01*
X12246Y573D02*
X12373Y573D01*
X12246Y573D02*
X12373Y700D01*
X12246Y827D02*
X12373Y700D01*
X12246Y827D02*
X12373Y827D01*
X12500Y954D01*
X12627Y827D01*
X12754Y827D01*
X12627Y700D02*
X12754Y827D01*
X12627Y700D02*
X12754Y573D01*
X12627Y573D02*
X12754Y573D01*
X12500Y446D02*
X12627Y573D01*
X14373Y573D02*
X14500Y446D01*
X14246Y573D02*
X14373Y573D01*
X14246Y573D02*
X14373Y700D01*
X14246Y827D02*
X14373Y700D01*
X14246Y827D02*
X14373Y827D01*
X14500Y954D01*
X14627Y827D01*
X14754Y827D01*
X14627Y700D02*
X14754Y827D01*
X14627Y700D02*
X14754Y573D01*
X14627Y573D02*
X14754Y573D01*
X14500Y446D02*
X14627Y573D01*
X16373Y573D02*
X16500Y446D01*
X16246Y573D02*
X16373Y573D01*
X16246Y573D02*
X16373Y700D01*
X16246Y827D02*
X16373Y700D01*
X16246Y827D02*
X16373Y827D01*
X16500Y954D01*
X16627Y827D01*
X16754Y827D01*
X16627Y700D02*
X16754Y827D01*
X16627Y700D02*
X16754Y573D01*
X16627Y573D02*
X16754Y573D01*
X16500Y446D02*
X16627Y573D01*
X22173Y8573D02*
X22300Y8446D01*
X22046Y8573D02*
X22173Y8573D01*
X22046Y8573D02*
X22173Y8700D01*
X22046Y8827D02*
X22173Y8700D01*
X22046Y8827D02*
X22173Y8827D01*
X22300Y8954D01*
X22427Y8827D01*
X22554Y8827D01*
X22427Y8700D02*
X22554Y8827D01*
X22427Y8700D02*
X22554Y8573D01*
X22427Y8573D02*
X22554Y8573D01*
X22300Y8446D02*
X22427Y8573D01*
X22173Y6573D02*
X22300Y6446D01*
X22046Y6573D02*
X22173Y6573D01*
X22046Y6573D02*
X22173Y6700D01*
X22046Y6827D02*
X22173Y6700D01*
X22046Y6827D02*
X22173Y6827D01*
X22300Y6954D01*
X22427Y6827D01*
X22554Y6827D01*
X22427Y6700D02*
X22554Y6827D01*
X22427Y6700D02*
X22554Y6573D01*
X22427Y6573D02*
X22554Y6573D01*
X22300Y6446D02*
X22427Y6573D01*
X22173Y4573D02*
X22300Y4446D01*
X22046Y4573D02*
X22173Y4573D01*
X22046Y4573D02*
X22173Y4700D01*
X22046Y4827D02*
X22173Y4700D01*
X22046Y4827D02*
X22173Y4827D01*
X22300Y4954D01*
X22427Y4827D01*
X22554Y4827D01*
X22427Y4700D02*
X22554Y4827D01*
X22427Y4700D02*
X22554Y4573D01*
X22427Y4573D02*
X22554Y4573D01*
X22300Y4446D02*
X22427Y4573D01*
X22173Y2573D02*
X22300Y2446D01*
X22046Y2573D02*
X22173Y2573D01*
X22046Y2573D02*
X22173Y2700D01*
X22046Y2827D02*
X22173Y2700D01*
X22046Y2827D02*
X22173Y2827D01*
X22300Y2954D01*
X22427Y2827D01*
X22554Y2827D01*
X22427Y2700D02*
X22554Y2827D01*
X22427Y2700D02*
X22554Y2573D01*
X22427Y2573D02*
X22554Y2573D01*
X22300Y2446D02*
X22427Y2573D01*
X22173Y16573D02*
X22300Y16446D01*
X22046Y16573D02*
X22173Y16573D01*
X22046Y16573D02*
X22173Y16700D01*
X22046Y16827D02*
X22173Y16700D01*
X22046Y16827D02*
X22173Y16827D01*
X22300Y16954D01*
X22427Y16827D01*
X22554Y16827D01*
X22427Y16700D02*
X22554Y16827D01*
X22427Y16700D02*
X22554Y16573D01*
X22427Y16573D02*
X22554Y16573D01*
X22300Y16446D02*
X22427Y16573D01*
X22173Y14573D02*
X22300Y14446D01*
X22046Y14573D02*
X22173Y14573D01*
X22046Y14573D02*
X22173Y14700D01*
X22046Y14827D02*
X22173Y14700D01*
X22046Y14827D02*
X22173Y14827D01*
X22300Y14954D01*
X22427Y14827D01*
X22554Y14827D01*
X22427Y14700D02*
X22554Y14827D01*
X22427Y14700D02*
X22554Y14573D01*
X22427Y14573D02*
X22554Y14573D01*
X22300Y14446D02*
X22427Y14573D01*
X22173Y12573D02*
X22300Y12446D01*
X22046Y12573D02*
X22173Y12573D01*
X22046Y12573D02*
X22173Y12700D01*
X22046Y12827D02*
X22173Y12700D01*
X22046Y12827D02*
X22173Y12827D01*
X22300Y12954D01*
X22427Y12827D01*
X22554Y12827D01*
X22427Y12700D02*
X22554Y12827D01*
X22427Y12700D02*
X22554Y12573D01*
X22427Y12573D02*
X22554Y12573D01*
X22300Y12446D02*
X22427Y12573D01*
X22173Y10573D02*
X22300Y10446D01*
X22046Y10573D02*
X22173Y10573D01*
X22046Y10573D02*
X22173Y10700D01*
X22046Y10827D02*
X22173Y10700D01*
X22046Y10827D02*
X22173Y10827D01*
X22300Y10954D01*
X22427Y10827D01*
X22554Y10827D01*
X22427Y10700D02*
X22554Y10827D01*
X22427Y10700D02*
X22554Y10573D01*
X22427Y10573D02*
X22554Y10573D01*
X22300Y10446D02*
X22427Y10573D01*
X573Y8573D02*
X700Y8446D01*
X446Y8573D02*
X573Y8573D01*
X446Y8573D02*
X573Y8700D01*
X446Y8827D02*
X573Y8700D01*
X446Y8827D02*
X573Y8827D01*
X700Y8954D01*
X827Y8827D01*
X954Y8827D01*
X827Y8700D02*
X954Y8827D01*
X827Y8700D02*
X954Y8573D01*
X827Y8573D02*
X954Y8573D01*
X700Y8446D02*
X827Y8573D01*
X573Y16573D02*
X700Y16446D01*
X446Y16573D02*
X573Y16573D01*
X446Y16573D02*
X573Y16700D01*
X446Y16827D02*
X573Y16700D01*
X446Y16827D02*
X573Y16827D01*
X700Y16954D01*
X827Y16827D01*
X954Y16827D01*
X827Y16700D02*
X954Y16827D01*
X827Y16700D02*
X954Y16573D01*
X827Y16573D02*
X954Y16573D01*
X700Y16446D02*
X827Y16573D01*
X573Y14573D02*
X700Y14446D01*
X446Y14573D02*
X573Y14573D01*
X446Y14573D02*
X573Y14700D01*
X446Y14827D02*
X573Y14700D01*
X446Y14827D02*
X573Y14827D01*
X700Y14954D01*
X827Y14827D01*
X954Y14827D01*
X827Y14700D02*
X954Y14827D01*
X827Y14700D02*
X954Y14573D01*
X827Y14573D02*
X954Y14573D01*
X700Y14446D02*
X827Y14573D01*
X573Y12573D02*
X700Y12446D01*
X446Y12573D02*
X573Y12573D01*
X446Y12573D02*
X573Y12700D01*
X446Y12827D02*
X573Y12700D01*
X446Y12827D02*
X573Y12827D01*
X700Y12954D01*
X827Y12827D01*
X954Y12827D01*
X827Y12700D02*
X954Y12827D01*
X827Y12700D02*
X954Y12573D01*
X827Y12573D02*
X954Y12573D01*
X700Y12446D02*
X827Y12573D01*
X573Y10573D02*
X700Y10446D01*
X446Y10573D02*
X573Y10573D01*
X446Y10573D02*
X573Y10700D01*
X446Y10827D02*
X573Y10700D01*
X446Y10827D02*
X573Y10827D01*
X700Y10954D01*
X827Y10827D01*
X954Y10827D01*
X827Y10700D02*
X954Y10827D01*
X827Y10700D02*
X954Y10573D01*
X827Y10573D02*
X954Y10573D01*
X700Y10446D02*
X827Y10573D01*
X573Y18573D02*
X700Y18446D01*
X446Y18573D02*
X573Y18573D01*
X446Y18573D02*
X573Y18700D01*
X446Y18827D02*
X573Y18700D01*
X446Y18827D02*
X573Y18827D01*
X700Y18954D01*
X827Y18827D01*
X954Y18827D01*
X827Y18700D02*
X954Y18827D01*
X827Y18700D02*
X954Y18573D01*
X827Y18573D02*
X954Y18573D01*
X700Y18446D02*
X827Y18573D01*
X573Y26573D02*
X700Y26446D01*
X446Y26573D02*
X573Y26573D01*
X446Y26573D02*
X573Y26700D01*
X446Y26827D02*
X573Y26700D01*
X446Y26827D02*
X573Y26827D01*
X700Y26954D01*
X827Y26827D01*
X954Y26827D01*
X827Y26700D02*
X954Y26827D01*
X827Y26700D02*
X954Y26573D01*
X827Y26573D02*
X954Y26573D01*
X700Y26446D02*
X827Y26573D01*
X573Y20573D02*
X700Y20446D01*
X446Y20573D02*
X573Y20573D01*
X446Y20573D02*
X573Y20700D01*
X446Y20827D02*
X573Y20700D01*
X446Y20827D02*
X573Y20827D01*
X700Y20954D01*
X827Y20827D01*
X954Y20827D01*
X827Y20700D02*
X954Y20827D01*
X827Y20700D02*
X954Y20573D01*
X827Y20573D02*
X954Y20573D01*
X700Y20446D02*
X827Y20573D01*
X573Y22573D02*
X700Y22446D01*
X446Y22573D02*
X573Y22573D01*
X446Y22573D02*
X573Y22700D01*
X446Y22827D02*
X573Y22700D01*
X446Y22827D02*
X573Y22827D01*
X700Y22954D01*
X827Y22827D01*
X954Y22827D01*
X827Y22700D02*
X954Y22827D01*
X827Y22700D02*
X954Y22573D01*
X827Y22573D02*
X954Y22573D01*
X700Y22446D02*
X827Y22573D01*
X573Y24573D02*
X700Y24446D01*
X446Y24573D02*
X573Y24573D01*
X446Y24573D02*
X573Y24700D01*
X446Y24827D02*
X573Y24700D01*
X446Y24827D02*
X573Y24827D01*
X700Y24954D01*
X827Y24827D01*
X954Y24827D01*
X827Y24700D02*
X954Y24827D01*
X827Y24700D02*
X954Y24573D01*
X827Y24573D02*
X954Y24573D01*
X700Y24446D02*
X827Y24573D01*
X573Y28573D02*
X700Y28446D01*
X446Y28573D02*
X573Y28573D01*
X446Y28573D02*
X573Y28700D01*
X446Y28827D02*
X573Y28700D01*
X446Y28827D02*
X573Y28827D01*
X700Y28954D01*
X827Y28827D01*
X954Y28827D01*
X827Y28700D02*
X954Y28827D01*
X827Y28700D02*
X954Y28573D01*
X827Y28573D02*
X954Y28573D01*
X700Y28446D02*
X827Y28573D01*
X573Y30173D02*
X700Y30046D01*
X446Y30173D02*
X573Y30173D01*
X446Y30173D02*
X573Y30300D01*
X446Y30427D02*
X573Y30300D01*
X446Y30427D02*
X573Y30427D01*
X700Y30554D01*
X827Y30427D01*
X954Y30427D01*
X827Y30300D02*
X954Y30427D01*
X827Y30300D02*
X954Y30173D01*
X827Y30173D02*
X954Y30173D01*
X700Y30046D02*
X827Y30173D01*
X21973Y18573D02*
X22100Y18446D01*
X21846Y18573D02*
X21973Y18573D01*
X21846Y18573D02*
X21973Y18700D01*
X21846Y18827D02*
X21973Y18700D01*
X21846Y18827D02*
X21973Y18827D01*
X22100Y18954D01*
X22227Y18827D01*
X22354Y18827D01*
X22227Y18700D02*
X22354Y18827D01*
X22227Y18700D02*
X22354Y18573D01*
X22227Y18573D02*
X22354Y18573D01*
X22100Y18446D02*
X22227Y18573D01*
X22173Y20573D02*
X22300Y20446D01*
X22046Y20573D02*
X22173Y20573D01*
X22046Y20573D02*
X22173Y20700D01*
X22046Y20827D02*
X22173Y20700D01*
X22046Y20827D02*
X22173Y20827D01*
X22300Y20954D01*
X22427Y20827D01*
X22554Y20827D01*
X22427Y20700D02*
X22554Y20827D01*
X22427Y20700D02*
X22554Y20573D01*
X22427Y20573D02*
X22554Y20573D01*
X22300Y20446D02*
X22427Y20573D01*
X22173Y22573D02*
X22300Y22446D01*
X22046Y22573D02*
X22173Y22573D01*
X22046Y22573D02*
X22173Y22700D01*
X22046Y22827D02*
X22173Y22700D01*
X22046Y22827D02*
X22173Y22827D01*
X22300Y22954D01*
X22427Y22827D01*
X22554Y22827D01*
X22427Y22700D02*
X22554Y22827D01*
X22427Y22700D02*
X22554Y22573D01*
X22427Y22573D02*
X22554Y22573D01*
X22300Y22446D02*
X22427Y22573D01*
X22173Y24573D02*
X22300Y24446D01*
X22046Y24573D02*
X22173Y24573D01*
X22046Y24573D02*
X22173Y24700D01*
X22046Y24827D02*
X22173Y24700D01*
X22046Y24827D02*
X22173Y24827D01*
X22300Y24954D01*
X22427Y24827D01*
X22554Y24827D01*
X22427Y24700D02*
X22554Y24827D01*
X22427Y24700D02*
X22554Y24573D01*
X22427Y24573D02*
X22554Y24573D01*
X22300Y24446D02*
X22427Y24573D01*
X22173Y26573D02*
X22300Y26446D01*
X22046Y26573D02*
X22173Y26573D01*
X22046Y26573D02*
X22173Y26700D01*
X22046Y26827D02*
X22173Y26700D01*
X22046Y26827D02*
X22173Y26827D01*
X22300Y26954D01*
X22427Y26827D01*
X22554Y26827D01*
X22427Y26700D02*
X22554Y26827D01*
X22427Y26700D02*
X22554Y26573D01*
X22427Y26573D02*
X22554Y26573D01*
X22300Y26446D02*
X22427Y26573D01*
X22173Y28573D02*
X22300Y28446D01*
X22046Y28573D02*
X22173Y28573D01*
X22046Y28573D02*
X22173Y28700D01*
X22046Y28827D02*
X22173Y28700D01*
X22046Y28827D02*
X22173Y28827D01*
X22300Y28954D01*
X22427Y28827D01*
X22554Y28827D01*
X22427Y28700D02*
X22554Y28827D01*
X22427Y28700D02*
X22554Y28573D01*
X22427Y28573D02*
X22554Y28573D01*
X22300Y28446D02*
X22427Y28573D01*
X22173Y30173D02*
X22300Y30046D01*
X22046Y30173D02*
X22173Y30173D01*
X22046Y30173D02*
X22173Y30300D01*
X22046Y30427D02*
X22173Y30300D01*
X22046Y30427D02*
X22173Y30427D01*
X22300Y30554D01*
X22427Y30427D01*
X22554Y30427D01*
X22427Y30300D02*
X22554Y30427D01*
X22427Y30300D02*
X22554Y30173D01*
X22427Y30173D02*
X22554Y30173D01*
X22300Y30046D02*
X22427Y30173D01*
X1373Y30673D02*
X1500Y30546D01*
X1246Y30673D02*
X1373Y30673D01*
X1246Y30673D02*
X1373Y30800D01*
X1246Y30927D02*
X1373Y30800D01*
X1246Y30927D02*
X1373Y30927D01*
X1500Y31054D01*
X1627Y30927D01*
X1754Y30927D01*
X1627Y30800D02*
X1754Y30927D01*
X1627Y30800D02*
X1754Y30673D01*
X1627Y30673D02*
X1754Y30673D01*
X1500Y30546D02*
X1627Y30673D01*
X3398Y30673D02*
X3525Y30546D01*
X3271Y30673D02*
X3398Y30673D01*
X3271Y30673D02*
X3398Y30800D01*
X3271Y30927D02*
X3398Y30800D01*
X3271Y30927D02*
X3398Y30927D01*
X3525Y31054D01*
X3652Y30927D01*
X3779Y30927D01*
X3652Y30800D02*
X3779Y30927D01*
X3652Y30800D02*
X3779Y30673D01*
X3652Y30673D02*
X3779Y30673D01*
X3525Y30546D02*
X3652Y30673D01*
X19398Y30673D02*
X19525Y30546D01*
X19271Y30673D02*
X19398Y30673D01*
X19271Y30673D02*
X19398Y30800D01*
X19271Y30927D02*
X19398Y30800D01*
X19271Y30927D02*
X19398Y30927D01*
X19525Y31054D01*
X19652Y30927D01*
X19779Y30927D01*
X19652Y30800D02*
X19779Y30927D01*
X19652Y30800D02*
X19779Y30673D01*
X19652Y30673D02*
X19779Y30673D01*
X19525Y30546D02*
X19652Y30673D01*
X21373Y30673D02*
X21500Y30546D01*
X21246Y30673D02*
X21373Y30673D01*
X21246Y30673D02*
X21373Y30800D01*
X21246Y30927D02*
X21373Y30800D01*
X21246Y30927D02*
X21373Y30927D01*
X21500Y31054D01*
X21627Y30927D01*
X21754Y30927D01*
X21627Y30800D02*
X21754Y30927D01*
X21627Y30800D02*
X21754Y30673D01*
X21627Y30673D02*
X21754Y30673D01*
X21500Y30546D02*
X21627Y30673D01*
X20900Y19773D02*
X21027Y19646D01*
X20773Y19773D02*
X20900Y19773D01*
X20773Y19773D02*
X20900Y19900D01*
X20773Y20027D02*
X20900Y19900D01*
X20773Y20027D02*
X20900Y20027D01*
X21027Y20154D01*
X21154Y20027D01*
X21281Y20027D01*
X21154Y19900D02*
X21281Y20027D01*
X21154Y19900D02*
X21281Y19773D01*
X21154Y19773D02*
X21281Y19773D01*
X21027Y19646D02*
X21154Y19773D01*
X19999Y18849D02*
X20126Y18722D01*
X19872Y18849D02*
X19999Y18849D01*
X19872Y18849D02*
X19999Y18976D01*
X19872Y19103D02*
X19999Y18976D01*
X19872Y19103D02*
X19999Y19103D01*
X20126Y19230D01*
X20253Y19103D01*
X20380Y19103D01*
X20253Y18976D02*
X20380Y19103D01*
X20253Y18976D02*
X20380Y18849D01*
X20253Y18849D02*
X20380Y18849D01*
X20126Y18722D02*
X20253Y18849D01*
X15298Y12598D02*
X15425Y12471D01*
X15171Y12598D02*
X15298Y12598D01*
X15171Y12598D02*
X15298Y12725D01*
X15171Y12852D02*
X15298Y12725D01*
X15171Y12852D02*
X15298Y12852D01*
X15425Y12979D01*
X15552Y12852D01*
X15679Y12852D01*
X15552Y12725D02*
X15679Y12852D01*
X15552Y12725D02*
X15679Y12598D01*
X15552Y12598D02*
X15679Y12598D01*
X15425Y12471D02*
X15552Y12598D01*
X14352Y9717D02*
X14479Y9590D01*
X14225Y9717D02*
X14352Y9717D01*
X14225Y9717D02*
X14352Y9844D01*
X14225Y9971D02*
X14352Y9844D01*
X14225Y9971D02*
X14352Y9971D01*
X14479Y10098D01*
X14606Y9971D01*
X14733Y9971D01*
X14606Y9844D02*
X14733Y9971D01*
X14606Y9844D02*
X14733Y9717D01*
X14606Y9717D02*
X14733Y9717D01*
X14479Y9590D02*
X14606Y9717D01*
X14977Y6373D02*
X15104Y6246D01*
X14850Y6373D02*
X14977Y6373D01*
X14850Y6373D02*
X14977Y6500D01*
X14850Y6627D02*
X14977Y6500D01*
X14850Y6627D02*
X14977Y6627D01*
X15104Y6754D01*
X15231Y6627D01*
X15358Y6627D01*
X15231Y6500D02*
X15358Y6627D01*
X15231Y6500D02*
X15358Y6373D01*
X15231Y6373D02*
X15358Y6373D01*
X15104Y6246D02*
X15231Y6373D01*
X5023Y9523D02*
X5150Y9396D01*
X4896Y9523D02*
X5023Y9523D01*
X4896Y9523D02*
X5023Y9650D01*
X4896Y9777D02*
X5023Y9650D01*
X4896Y9777D02*
X5023Y9777D01*
X5150Y9904D01*
X5277Y9777D01*
X5404Y9777D01*
X5277Y9650D02*
X5404Y9777D01*
X5277Y9650D02*
X5404Y9523D01*
X5277Y9523D02*
X5404Y9523D01*
X5150Y9396D02*
X5277Y9523D01*
X4873Y10648D02*
X5000Y10521D01*
X4746Y10648D02*
X4873Y10648D01*
X4746Y10648D02*
X4873Y10775D01*
X4746Y10902D02*
X4873Y10775D01*
X4746Y10902D02*
X4873Y10902D01*
X5000Y11029D01*
X5127Y10902D01*
X5254Y10902D01*
X5127Y10775D02*
X5254Y10902D01*
X5127Y10775D02*
X5254Y10648D01*
X5127Y10648D02*
X5254Y10648D01*
X5000Y10521D02*
X5127Y10648D01*
X15029Y9373D02*
X15156Y9246D01*
X14902Y9373D02*
X15029Y9373D01*
X14902Y9373D02*
X15029Y9500D01*
X14902Y9627D02*
X15029Y9500D01*
X14902Y9627D02*
X15029Y9627D01*
X15156Y9754D01*
X15283Y9627D01*
X15410Y9627D01*
X15283Y9500D02*
X15410Y9627D01*
X15283Y9500D02*
X15410Y9373D01*
X15283Y9373D02*
X15410Y9373D01*
X15156Y9246D02*
X15283Y9373D01*
X17673Y16009D02*
X17800Y15882D01*
X17546Y16009D02*
X17673Y16009D01*
X17546Y16009D02*
X17673Y16136D01*
X17546Y16263D02*
X17673Y16136D01*
X17546Y16263D02*
X17673Y16263D01*
X17800Y16390D01*
X17927Y16263D01*
X18054Y16263D01*
X17927Y16136D02*
X18054Y16263D01*
X17927Y16136D02*
X18054Y16009D01*
X17927Y16009D02*
X18054Y16009D01*
X17800Y15882D02*
X17927Y16009D01*
X18290Y9436D02*
X18417Y9309D01*
X18163Y9436D02*
X18290Y9436D01*
X18163Y9436D02*
X18290Y9562D01*
X18163Y9689D02*
X18290Y9562D01*
X18163Y9689D02*
X18290Y9689D01*
X18417Y9816D01*
X18544Y9689D01*
X18671Y9689D01*
X18544Y9562D02*
X18671Y9689D01*
X18544Y9562D02*
X18671Y9436D01*
X18544Y9436D02*
X18671Y9436D01*
X18417Y9309D02*
X18544Y9436D01*
X15523Y8623D02*
X15650Y8496D01*
X15396Y8623D02*
X15523Y8623D01*
X15396Y8623D02*
X15523Y8750D01*
X15396Y8877D02*
X15523Y8750D01*
X15396Y8877D02*
X15523Y8877D01*
X15650Y9004D01*
X15777Y8877D01*
X15904Y8877D01*
X15777Y8750D02*
X15904Y8877D01*
X15777Y8750D02*
X15904Y8623D01*
X15777Y8623D02*
X15904Y8623D01*
X15650Y8496D02*
X15777Y8623D01*
X18602Y5523D02*
X18729Y5396D01*
X18475Y5523D02*
X18602Y5523D01*
X18475Y5523D02*
X18602Y5650D01*
X18475Y5777D02*
X18602Y5650D01*
X18475Y5777D02*
X18602Y5777D01*
X18729Y5904D01*
X18856Y5777D01*
X18983Y5777D01*
X18856Y5650D02*
X18983Y5777D01*
X18856Y5650D02*
X18983Y5523D01*
X18856Y5523D02*
X18983Y5523D01*
X18729Y5396D02*
X18856Y5523D01*
X16973Y13790D02*
X17100Y13663D01*
X16846Y13790D02*
X16973Y13790D01*
X16846Y13790D02*
X16973Y13917D01*
X16846Y14044D02*
X16973Y13917D01*
X16846Y14044D02*
X16973Y14044D01*
X17100Y14171D01*
X17227Y14044D01*
X17354Y14044D01*
X17227Y13917D02*
X17354Y14044D01*
X17227Y13917D02*
X17354Y13790D01*
X17227Y13790D02*
X17354Y13790D01*
X17100Y13663D02*
X17227Y13790D01*
X15947Y10356D02*
X16074Y10229D01*
X15820Y10356D02*
X15947Y10356D01*
X15820Y10356D02*
X15947Y10483D01*
X15820Y10610D02*
X15947Y10483D01*
X15820Y10610D02*
X15947Y10610D01*
X16074Y10737D01*
X16201Y10610D01*
X16328Y10610D01*
X16201Y10483D02*
X16328Y10610D01*
X16201Y10483D02*
X16328Y10356D01*
X16201Y10356D02*
X16328Y10356D01*
X16074Y10229D02*
X16201Y10356D01*
X4449Y11727D02*
X4576Y11600D01*
X4322Y11727D02*
X4449Y11727D01*
X4322Y11727D02*
X4449Y11854D01*
X4322Y11981D02*
X4449Y11854D01*
X4322Y11981D02*
X4449Y11981D01*
X4576Y12108D01*
X4703Y11981D01*
X4830Y11981D01*
X4703Y11854D02*
X4830Y11981D01*
X4703Y11854D02*
X4830Y11727D01*
X4703Y11727D02*
X4830Y11727D01*
X4576Y11600D02*
X4703Y11727D01*
X573Y2573D02*
X700Y2446D01*
X446Y2573D02*
X573Y2573D01*
X446Y2573D02*
X573Y2700D01*
X446Y2827D02*
X573Y2700D01*
X446Y2827D02*
X573Y2827D01*
X700Y2954D01*
X827Y2827D01*
X954Y2827D01*
X827Y2700D02*
X954Y2827D01*
X827Y2700D02*
X954Y2573D01*
X827Y2573D02*
X954Y2573D01*
X700Y2446D02*
X827Y2573D01*
X573Y4573D02*
X700Y4446D01*
X446Y4573D02*
X573Y4573D01*
X446Y4573D02*
X573Y4700D01*
X446Y4827D02*
X573Y4700D01*
X446Y4827D02*
X573Y4827D01*
X700Y4954D01*
X827Y4827D01*
X954Y4827D01*
X827Y4700D02*
X954Y4827D01*
X827Y4700D02*
X954Y4573D01*
X827Y4573D02*
X954Y4573D01*
X700Y4446D02*
X827Y4573D01*
X4473Y573D02*
X4600Y446D01*
X4346Y573D02*
X4473Y573D01*
X4346Y573D02*
X4473Y700D01*
X4346Y827D02*
X4473Y700D01*
X4346Y827D02*
X4473Y827D01*
X4600Y954D01*
X4727Y827D01*
X4854Y827D01*
X4727Y700D02*
X4854Y827D01*
X4727Y700D02*
X4854Y573D01*
X4727Y573D02*
X4854Y573D01*
X4600Y446D02*
X4727Y573D01*
X573Y573D02*
X700Y446D01*
X446Y573D02*
X573Y573D01*
X446Y573D02*
X573Y700D01*
X446Y827D02*
X573Y700D01*
X446Y827D02*
X573Y827D01*
X700Y954D01*
X827Y827D01*
X954Y827D01*
X827Y700D02*
X954Y827D01*
X827Y700D02*
X954Y573D01*
X827Y573D02*
X954Y573D01*
X700Y446D02*
X827Y573D01*
X573Y6573D02*
X700Y6446D01*
X446Y6573D02*
X573Y6573D01*
X446Y6573D02*
X573Y6700D01*
X446Y6827D02*
X573Y6700D01*
X446Y6827D02*
X573Y6827D01*
X700Y6954D01*
X827Y6827D01*
X954Y6827D01*
X827Y6700D02*
X954Y6827D01*
X827Y6700D02*
X954Y6573D01*
X827Y6573D02*
X954Y6573D01*
X700Y6446D02*
X827Y6573D01*
X4904Y5523D02*
X5031Y5523D01*
X4904Y5523D02*
X4904Y5777D01*
X5031Y5777D01*
X5031Y5904D01*
X5285Y5904D01*
X5285Y5777D02*
X5285Y5904D01*
X5285Y5777D02*
X5412Y5777D01*
X5412Y5523D02*
X5412Y5777D01*
X5285Y5523D02*
X5412Y5523D01*
X5285Y5396D02*
X5285Y5523D01*
X5031Y5396D02*
X5285Y5396D01*
X5031Y5396D02*
X5031Y5523D01*
X14398Y13490D02*
X14525Y13363D01*
X14271Y13490D02*
X14398Y13490D01*
X14271Y13490D02*
X14398Y13617D01*
X14271Y13744D02*
X14398Y13617D01*
X14271Y13744D02*
X14398Y13744D01*
X14525Y13871D01*
X14652Y13744D01*
X14779Y13744D01*
X14652Y13617D02*
X14779Y13744D01*
X14652Y13617D02*
X14779Y13490D01*
X14652Y13490D02*
X14779Y13490D01*
X14525Y13363D02*
X14652Y13490D01*
X12773Y12153D02*
X12900Y12026D01*
X12646Y12153D02*
X12773Y12153D01*
X12646Y12153D02*
X12773Y12280D01*
X12646Y12407D02*
X12773Y12280D01*
X12646Y12407D02*
X12773Y12407D01*
X12900Y12534D01*
X13027Y12407D01*
X13154Y12407D01*
X13027Y12280D02*
X13154Y12407D01*
X13027Y12280D02*
X13154Y12153D01*
X13027Y12153D02*
X13154Y12153D01*
X12900Y12026D02*
X13027Y12153D01*
X11160Y12884D02*
X11287Y12757D01*
X11033Y12884D02*
X11160Y12884D01*
X11033Y12884D02*
X11160Y13011D01*
X11033Y13138D02*
X11160Y13011D01*
X11033Y13138D02*
X11160Y13138D01*
X11287Y13265D01*
X11414Y13138D01*
X11541Y13138D01*
X11414Y13011D02*
X11541Y13138D01*
X11414Y13011D02*
X11541Y12884D01*
X11414Y12884D02*
X11541Y12884D01*
X11287Y12757D02*
X11414Y12884D01*
X18494Y16009D02*
X18621Y15882D01*
X18367Y16009D02*
X18494Y16009D01*
X18367Y16009D02*
X18494Y16136D01*
X18367Y16263D02*
X18494Y16136D01*
X18367Y16263D02*
X18494Y16263D01*
X18621Y16390D01*
X18748Y16263D01*
X18875Y16263D01*
X18748Y16136D02*
X18875Y16263D01*
X18748Y16136D02*
X18875Y16009D01*
X18748Y16009D02*
X18875Y16009D01*
X18621Y15882D02*
X18748Y16009D01*
X6923Y6023D02*
X7050Y5896D01*
X6796Y6023D02*
X6923Y6023D01*
X6796Y6023D02*
X6923Y6150D01*
X6796Y6277D02*
X6923Y6150D01*
X6796Y6277D02*
X6923Y6277D01*
X7050Y6404D01*
X7177Y6277D01*
X7304Y6277D01*
X7177Y6150D02*
X7304Y6277D01*
X7177Y6150D02*
X7304Y6023D01*
X7177Y6023D02*
X7304Y6023D01*
X7050Y5896D02*
X7177Y6023D01*
X7465Y5336D02*
X7592Y5209D01*
X7338Y5336D02*
X7465Y5336D01*
X7338Y5336D02*
X7465Y5463D01*
X7338Y5590D02*
X7465Y5463D01*
X7338Y5590D02*
X7465Y5590D01*
X7592Y5717D01*
X7719Y5590D01*
X7846Y5590D01*
X7719Y5463D02*
X7846Y5590D01*
X7719Y5463D02*
X7846Y5336D01*
X7719Y5336D02*
X7846Y5336D01*
X7592Y5209D02*
X7719Y5336D01*
X7123Y4449D02*
X7250Y4322D01*
X6996Y4449D02*
X7123Y4449D01*
X6996Y4449D02*
X7123Y4576D01*
X6996Y4703D02*
X7123Y4576D01*
X6996Y4703D02*
X7123Y4703D01*
X7250Y4830D01*
X7377Y4703D01*
X7504Y4703D01*
X7377Y4576D02*
X7504Y4703D01*
X7377Y4576D02*
X7504Y4449D01*
X7377Y4449D02*
X7504Y4449D01*
X7250Y4322D02*
X7377Y4449D01*
X18867Y17278D02*
X18994Y17151D01*
X18740Y17278D02*
X18867Y17278D01*
X18740Y17278D02*
X18867Y17405D01*
X18740Y17532D02*
X18867Y17405D01*
X18740Y17532D02*
X18867Y17532D01*
X18994Y17659D01*
X19121Y17532D01*
X19248Y17532D01*
X19121Y17405D02*
X19248Y17532D01*
X19121Y17405D02*
X19248Y17278D01*
X19121Y17278D02*
X19248Y17278D01*
X18994Y17151D02*
X19121Y17278D01*
X14461Y12557D02*
X14588Y12430D01*
X14334Y12557D02*
X14461Y12557D01*
X14334Y12557D02*
X14461Y12684D01*
X14334Y12811D02*
X14461Y12684D01*
X14334Y12811D02*
X14461Y12811D01*
X14588Y12938D01*
X14715Y12811D01*
X14842Y12811D01*
X14715Y12684D02*
X14842Y12811D01*
X14715Y12684D02*
X14842Y12557D01*
X14715Y12557D02*
X14842Y12557D01*
X14588Y12430D02*
X14715Y12557D01*
X7723Y7040D02*
X7850Y6913D01*
X7596Y7040D02*
X7723Y7040D01*
X7596Y7040D02*
X7723Y7167D01*
X7596Y7294D02*
X7723Y7167D01*
X7596Y7294D02*
X7723Y7294D01*
X7850Y7421D01*
X7977Y7294D01*
X8104Y7294D01*
X7977Y7167D02*
X8104Y7294D01*
X7977Y7167D02*
X8104Y7040D01*
X7977Y7040D02*
X8104Y7040D01*
X7850Y6913D02*
X7977Y7040D01*
X9037Y16483D02*
X9164Y16356D01*
X8910Y16483D02*
X9037Y16483D01*
X8910Y16483D02*
X9037Y16610D01*
X8910Y16737D02*
X9037Y16610D01*
X8910Y16737D02*
X9037Y16737D01*
X9164Y16864D01*
X9291Y16737D01*
X9418Y16737D01*
X9291Y16610D02*
X9418Y16737D01*
X9291Y16610D02*
X9418Y16483D01*
X9291Y16483D02*
X9418Y16483D01*
X9164Y16356D02*
X9291Y16483D01*
X7234Y31073D02*
X7361Y30946D01*
X7107Y31073D02*
X7234Y31073D01*
X7107Y31073D02*
X7234Y31200D01*
X7107Y31327D02*
X7234Y31200D01*
X7107Y31327D02*
X7234Y31327D01*
X7361Y31454D01*
X7488Y31327D01*
X7615Y31327D01*
X7488Y31200D02*
X7615Y31327D01*
X7488Y31200D02*
X7615Y31073D01*
X7488Y31073D02*
X7615Y31073D01*
X7361Y30946D02*
X7488Y31073D01*
X15489Y31073D02*
X15616Y30946D01*
X15362Y31073D02*
X15489Y31073D01*
X15362Y31073D02*
X15489Y31200D01*
X15362Y31327D02*
X15489Y31200D01*
X15362Y31327D02*
X15489Y31327D01*
X15616Y31454D01*
X15743Y31327D01*
X15870Y31327D01*
X15743Y31200D02*
X15870Y31327D01*
X15743Y31200D02*
X15870Y31073D01*
X15743Y31073D02*
X15870Y31073D01*
X15616Y30946D02*
X15743Y31073D01*
X16306Y20988D02*
X16434Y20861D01*
X16180Y20988D02*
X16306Y20988D01*
X16180Y20988D02*
X16306Y21115D01*
X16180Y21242D02*
X16306Y21115D01*
X16180Y21242D02*
X16306Y21242D01*
X16434Y21369D01*
X16560Y21242D01*
X16688Y21242D01*
X16560Y21115D02*
X16688Y21242D01*
X16560Y21115D02*
X16688Y20988D01*
X16560Y20988D02*
X16688Y20988D01*
X16434Y20861D02*
X16560Y20988D01*
X6601Y20838D02*
X6728Y20711D01*
X6474Y20838D02*
X6601Y20838D01*
X6474Y20838D02*
X6601Y20965D01*
X6474Y21092D02*
X6601Y20965D01*
X6474Y21092D02*
X6601Y21092D01*
X6728Y21219D01*
X6855Y21092D01*
X6982Y21092D01*
X6855Y20965D02*
X6982Y21092D01*
X6855Y20965D02*
X6982Y20838D01*
X6855Y20838D02*
X6982Y20838D01*
X6728Y20711D02*
X6855Y20838D01*
X16349Y23021D02*
X16476Y22894D01*
X16222Y23021D02*
X16349Y23021D01*
X16222Y23021D02*
X16349Y23148D01*
X16222Y23275D02*
X16349Y23148D01*
X16222Y23275D02*
X16349Y23275D01*
X16476Y23402D01*
X16603Y23275D01*
X16730Y23275D01*
X16603Y23148D02*
X16730Y23275D01*
X16603Y23148D02*
X16730Y23021D01*
X16603Y23021D02*
X16730Y23021D01*
X16476Y22894D02*
X16603Y23021D01*
X6395Y23043D02*
X6522Y22916D01*
X6268Y23043D02*
X6395Y23043D01*
X6268Y23043D02*
X6395Y23170D01*
X6268Y23297D02*
X6395Y23170D01*
X6268Y23297D02*
X6395Y23297D01*
X6522Y23424D01*
X6649Y23297D01*
X6776Y23297D01*
X6649Y23170D02*
X6776Y23297D01*
X6649Y23170D02*
X6776Y23043D01*
X6649Y23043D02*
X6776Y23043D01*
X6522Y22916D02*
X6649Y23043D01*
X6634Y18353D02*
X6761Y18226D01*
X6507Y18353D02*
X6634Y18353D01*
X6507Y18353D02*
X6634Y18480D01*
X6507Y18607D02*
X6634Y18480D01*
X6507Y18607D02*
X6634Y18607D01*
X6761Y18734D01*
X6888Y18607D01*
X7015Y18607D01*
X6888Y18480D02*
X7015Y18607D01*
X6888Y18480D02*
X7015Y18353D01*
X6888Y18353D02*
X7015Y18353D01*
X6761Y18226D02*
X6888Y18353D01*
X18276Y25203D02*
X18403Y25076D01*
X18149Y25203D02*
X18276Y25203D01*
X18149Y25203D02*
X18276Y25330D01*
X18149Y25457D02*
X18276Y25330D01*
X18149Y25457D02*
X18276Y25457D01*
X18403Y25584D01*
X18530Y25457D01*
X18657Y25457D01*
X18530Y25330D02*
X18657Y25457D01*
X18530Y25330D02*
X18657Y25203D01*
X18530Y25203D02*
X18657Y25203D01*
X18403Y25076D02*
X18530Y25203D01*
X15947Y25873D02*
X16074Y25746D01*
X15820Y25873D02*
X15947Y25873D01*
X15820Y25873D02*
X15947Y26000D01*
X15820Y26127D02*
X15947Y26000D01*
X15820Y26127D02*
X15947Y26127D01*
X16074Y26254D01*
X16201Y26127D01*
X16328Y26127D01*
X16201Y26000D02*
X16328Y26127D01*
X16201Y26000D02*
X16328Y25873D01*
X16201Y25873D02*
X16328Y25873D01*
X16074Y25746D02*
X16201Y25873D01*
X11194Y14883D02*
X11321Y14883D01*
X11194Y14883D02*
X11194Y15137D01*
X11321Y15137D01*
X11321Y15264D01*
X11575Y15264D01*
X11575Y15137D02*
X11575Y15264D01*
X11575Y15137D02*
X11702Y15137D01*
X11702Y14883D02*
X11702Y15137D01*
X11575Y14883D02*
X11702Y14883D01*
X11575Y14756D02*
X11575Y14883D01*
X11321Y14756D02*
X11575Y14756D01*
X11321Y14756D02*
X11321Y14883D01*
X14049Y14898D02*
X14176Y14898D01*
X14049Y14898D02*
X14049Y15152D01*
X14176Y15152D01*
X14176Y15279D01*
X14430Y15279D01*
X14430Y15152D02*
X14430Y15279D01*
X14430Y15152D02*
X14557Y15152D01*
X14557Y14898D02*
X14557Y15152D01*
X14430Y14898D02*
X14557Y14898D01*
X14430Y14771D02*
X14430Y14898D01*
X14176Y14771D02*
X14430Y14771D01*
X14176Y14771D02*
X14176Y14898D01*
X7234Y26868D02*
X7361Y26741D01*
X7107Y26868D02*
X7234Y26868D01*
X7107Y26868D02*
X7234Y26995D01*
X7107Y27122D02*
X7234Y26995D01*
X7107Y27122D02*
X7234Y27122D01*
X7361Y27249D01*
X7488Y27122D01*
X7615Y27122D01*
X7488Y26995D02*
X7615Y27122D01*
X7488Y26995D02*
X7615Y26868D01*
X7488Y26868D02*
X7615Y26868D01*
X7361Y26741D02*
X7488Y26868D01*
X8890Y31073D02*
X9017Y30946D01*
X8763Y31073D02*
X8890Y31073D01*
X8763Y31073D02*
X8890Y31200D01*
X8763Y31327D02*
X8890Y31200D01*
X8763Y31327D02*
X8890Y31327D01*
X9017Y31454D01*
X9144Y31327D01*
X9271Y31327D01*
X9144Y31200D02*
X9271Y31327D01*
X9144Y31200D02*
X9271Y31073D01*
X9144Y31073D02*
X9271Y31073D01*
X9017Y30946D02*
X9144Y31073D01*
X10482Y31073D02*
X10609Y30946D01*
X10355Y31073D02*
X10482Y31073D01*
X10355Y31073D02*
X10482Y31200D01*
X10355Y31327D02*
X10482Y31200D01*
X10355Y31327D02*
X10482Y31327D01*
X10609Y31454D01*
X10736Y31327D01*
X10863Y31327D01*
X10736Y31200D02*
X10863Y31327D01*
X10736Y31200D02*
X10863Y31073D01*
X10736Y31073D02*
X10863Y31073D01*
X10609Y30946D02*
X10736Y31073D01*
X12073Y31073D02*
X12200Y30946D01*
X11946Y31073D02*
X12073Y31073D01*
X11946Y31073D02*
X12073Y31200D01*
X11946Y31327D02*
X12073Y31200D01*
X11946Y31327D02*
X12073Y31327D01*
X12200Y31454D01*
X12327Y31327D01*
X12454Y31327D01*
X12327Y31200D02*
X12454Y31327D01*
X12327Y31200D02*
X12454Y31073D01*
X12327Y31073D02*
X12454Y31073D01*
X12200Y30946D02*
X12327Y31073D01*
X13665Y31073D02*
X13792Y30946D01*
X13538Y31073D02*
X13665Y31073D01*
X13538Y31073D02*
X13665Y31200D01*
X13538Y31327D02*
X13665Y31200D01*
X13538Y31327D02*
X13665Y31327D01*
X13792Y31454D01*
X13919Y31327D01*
X14046Y31327D01*
X13919Y31200D02*
X14046Y31327D01*
X13919Y31200D02*
X14046Y31073D01*
X13919Y31073D02*
X14046Y31073D01*
X13792Y30946D02*
X13919Y31073D01*
X10472Y5238D02*
X10599Y5111D01*
X10345Y5238D02*
X10472Y5238D01*
X10345Y5238D02*
X10472Y5365D01*
X10345Y5492D02*
X10472Y5365D01*
X10345Y5492D02*
X10472Y5492D01*
X10599Y5619D01*
X10726Y5492D01*
X10853Y5492D01*
X10726Y5365D02*
X10853Y5492D01*
X10726Y5365D02*
X10853Y5238D01*
X10726Y5238D02*
X10853Y5238D01*
X10599Y5111D02*
X10726Y5238D01*
X12423Y5488D02*
X12550Y5361D01*
X12296Y5488D02*
X12423Y5488D01*
X12296Y5488D02*
X12423Y5615D01*
X12296Y5742D02*
X12423Y5615D01*
X12296Y5742D02*
X12423Y5742D01*
X12550Y5869D01*
X12677Y5742D01*
X12804Y5742D01*
X12677Y5615D02*
X12804Y5742D01*
X12677Y5615D02*
X12804Y5488D01*
X12677Y5488D02*
X12804Y5488D01*
X12550Y5361D02*
X12677Y5488D01*
X5704Y2473D02*
X5831Y2346D01*
X5577Y2473D02*
X5704Y2473D01*
X5577Y2473D02*
X5704Y2600D01*
X5577Y2727D02*
X5704Y2600D01*
X5577Y2727D02*
X5704Y2727D01*
X5831Y2854D01*
X5958Y2727D01*
X6085Y2727D01*
X5958Y2600D02*
X6085Y2727D01*
X5958Y2600D02*
X6085Y2473D01*
X5958Y2473D02*
X6085Y2473D01*
X5831Y2346D02*
X5958Y2473D01*
X16719Y6983D02*
X16846Y6856D01*
X16592Y6983D02*
X16719Y6983D01*
X16592Y6983D02*
X16719Y7110D01*
X16592Y7237D02*
X16719Y7110D01*
X16592Y7237D02*
X16719Y7237D01*
X16846Y7364D01*
X16973Y7237D01*
X17100Y7237D01*
X16973Y7110D02*
X17100Y7237D01*
X16973Y7110D02*
X17100Y6983D01*
X16973Y6983D02*
X17100Y6983D01*
X16846Y6856D02*
X16973Y6983D01*
X16973Y7775D02*
X17100Y7648D01*
X16846Y7775D02*
X16973Y7775D01*
X16846Y7775D02*
X16973Y7902D01*
X16846Y8029D02*
X16973Y7902D01*
X16846Y8029D02*
X16973Y8029D01*
X17100Y8156D01*
X17227Y8029D01*
X17354Y8029D01*
X17227Y7902D02*
X17354Y8029D01*
X17227Y7902D02*
X17354Y7775D01*
X17227Y7775D02*
X17354Y7775D01*
X17100Y7648D02*
X17227Y7775D01*
X18205Y8648D02*
X18332Y8521D01*
X18078Y8648D02*
X18205Y8648D01*
X18078Y8648D02*
X18205Y8775D01*
X18078Y8902D02*
X18205Y8775D01*
X18078Y8902D02*
X18205Y8902D01*
X18332Y9029D01*
X18459Y8902D01*
X18586Y8902D01*
X18459Y8775D02*
X18586Y8902D01*
X18459Y8775D02*
X18586Y8648D01*
X18459Y8648D02*
X18586Y8648D01*
X18332Y8521D02*
X18459Y8648D01*
X18898Y7662D02*
X19025Y7535D01*
X18771Y7662D02*
X18898Y7662D01*
X18771Y7662D02*
X18898Y7789D01*
X18771Y7916D02*
X18898Y7789D01*
X18771Y7916D02*
X18898Y7916D01*
X19025Y8043D01*
X19152Y7916D01*
X19279Y7916D01*
X19152Y7789D02*
X19279Y7916D01*
X19152Y7789D02*
X19279Y7662D01*
X19152Y7662D02*
X19279Y7662D01*
X19025Y7535D02*
X19152Y7662D01*
X8855Y14046D02*
X8982Y13919D01*
X8728Y14046D02*
X8855Y14046D01*
X8728Y14046D02*
X8855Y14173D01*
X8728Y14300D02*
X8855Y14173D01*
X8728Y14300D02*
X8855Y14300D01*
X8982Y14427D01*
X9109Y14300D01*
X9236Y14300D01*
X9109Y14173D02*
X9236Y14300D01*
X9109Y14173D02*
X9236Y14046D01*
X9109Y14046D02*
X9236Y14046D01*
X8982Y13919D02*
X9109Y14046D01*
X9648Y908D02*
X9775Y781D01*
X9521Y908D02*
X9648Y908D01*
X9521Y908D02*
X9648Y1035D01*
X9521Y1162D02*
X9648Y1035D01*
X9521Y1162D02*
X9648Y1162D01*
X9775Y1289D01*
X9902Y1162D01*
X10029Y1162D01*
X9902Y1035D02*
X10029Y1162D01*
X9902Y1035D02*
X10029Y908D01*
X9902Y908D02*
X10029Y908D01*
X9775Y781D02*
X9902Y908D01*
X21409Y17454D02*
X21536Y17327D01*
X21282Y17454D02*
X21409Y17454D01*
X21282Y17454D02*
X21409Y17581D01*
X21282Y17708D02*
X21409Y17581D01*
X21282Y17708D02*
X21409Y17708D01*
X21536Y17835D01*
X21663Y17708D01*
X21790Y17708D01*
X21663Y17581D02*
X21790Y17708D01*
X21663Y17581D02*
X21790Y17454D01*
X21663Y17454D02*
X21790Y17454D01*
X21536Y17327D02*
X21663Y17454D01*
X10973Y8873D02*
X11100Y8746D01*
X10846Y8873D02*
X10973Y8873D01*
X10846Y8873D02*
X10973Y9000D01*
X10846Y9127D02*
X10973Y9000D01*
X10846Y9127D02*
X10973Y9127D01*
X11100Y9254D01*
X11227Y9127D01*
X11354Y9127D01*
X11227Y9000D02*
X11354Y9127D01*
X11227Y9000D02*
X11354Y8873D01*
X11227Y8873D02*
X11354Y8873D01*
X11100Y8746D02*
X11227Y8873D01*
X9973Y8873D02*
X10100Y8746D01*
X9846Y8873D02*
X9973Y8873D01*
X9846Y8873D02*
X9973Y9000D01*
X9846Y9127D02*
X9973Y9000D01*
X9846Y9127D02*
X9973Y9127D01*
X10100Y9254D01*
X10227Y9127D01*
X10354Y9127D01*
X10227Y9000D02*
X10354Y9127D01*
X10227Y9000D02*
X10354Y8873D01*
X10227Y8873D02*
X10354Y8873D01*
X10100Y8746D02*
X10227Y8873D01*
X11973Y8873D02*
X12100Y8746D01*
X11846Y8873D02*
X11973Y8873D01*
X11846Y8873D02*
X11973Y9000D01*
X11846Y9127D02*
X11973Y9000D01*
X11846Y9127D02*
X11973Y9127D01*
X12100Y9254D01*
X12227Y9127D01*
X12354Y9127D01*
X12227Y9000D02*
X12354Y9127D01*
X12227Y9000D02*
X12354Y8873D01*
X12227Y8873D02*
X12354Y8873D01*
X12100Y8746D02*
X12227Y8873D01*
X10973Y9873D02*
X11100Y9746D01*
X10846Y9873D02*
X10973Y9873D01*
X10846Y9873D02*
X10973Y10000D01*
X10846Y10127D02*
X10973Y10000D01*
X10846Y10127D02*
X10973Y10127D01*
X11100Y10254D01*
X11227Y10127D01*
X11354Y10127D01*
X11227Y10000D02*
X11354Y10127D01*
X11227Y10000D02*
X11354Y9873D01*
X11227Y9873D02*
X11354Y9873D01*
X11100Y9746D02*
X11227Y9873D01*
X9973Y9873D02*
X10100Y9746D01*
X9846Y9873D02*
X9973Y9873D01*
X9846Y9873D02*
X9973Y10000D01*
X9846Y10127D02*
X9973Y10000D01*
X9846Y10127D02*
X9973Y10127D01*
X10100Y10254D01*
X10227Y10127D01*
X10354Y10127D01*
X10227Y10000D02*
X10354Y10127D01*
X10227Y10000D02*
X10354Y9873D01*
X10227Y9873D02*
X10354Y9873D01*
X10100Y9746D02*
X10227Y9873D01*
X11973Y9873D02*
X12100Y9746D01*
X11846Y9873D02*
X11973Y9873D01*
X11846Y9873D02*
X11973Y10000D01*
X11846Y10127D02*
X11973Y10000D01*
X11846Y10127D02*
X11973Y10127D01*
X12100Y10254D01*
X12227Y10127D01*
X12354Y10127D01*
X12227Y10000D02*
X12354Y10127D01*
X12227Y10000D02*
X12354Y9873D01*
X12227Y9873D02*
X12354Y9873D01*
X12100Y9746D02*
X12227Y9873D01*
X11973Y7873D02*
X12100Y7746D01*
X11846Y7873D02*
X11973Y7873D01*
X11846Y7873D02*
X11973Y8000D01*
X11846Y8127D02*
X11973Y8000D01*
X11846Y8127D02*
X11973Y8127D01*
X12100Y8254D01*
X12227Y8127D01*
X12354Y8127D01*
X12227Y8000D02*
X12354Y8127D01*
X12227Y8000D02*
X12354Y7873D01*
X12227Y7873D02*
X12354Y7873D01*
X12100Y7746D02*
X12227Y7873D01*
X10973Y7873D02*
X11100Y7746D01*
X10846Y7873D02*
X10973Y7873D01*
X10846Y7873D02*
X10973Y8000D01*
X10846Y8127D02*
X10973Y8000D01*
X10846Y8127D02*
X10973Y8127D01*
X11100Y8254D01*
X11227Y8127D01*
X11354Y8127D01*
X11227Y8000D02*
X11354Y8127D01*
X11227Y8000D02*
X11354Y7873D01*
X11227Y7873D02*
X11354Y7873D01*
X11100Y7746D02*
X11227Y7873D01*
X9973Y7873D02*
X10100Y7746D01*
X9846Y7873D02*
X9973Y7873D01*
X9846Y7873D02*
X9973Y8000D01*
X9846Y8127D02*
X9973Y8000D01*
X9846Y8127D02*
X9973Y8127D01*
X10100Y8254D01*
X10227Y8127D01*
X10354Y8127D01*
X10227Y8000D02*
X10354Y8127D01*
X10227Y8000D02*
X10354Y7873D01*
X10227Y7873D02*
X10354Y7873D01*
X10100Y7746D02*
X10227Y7873D01*
X9540Y4323D02*
X9667Y4196D01*
X9413Y4323D02*
X9540Y4323D01*
X9413Y4323D02*
X9540Y4450D01*
X9413Y4577D02*
X9540Y4450D01*
X9413Y4577D02*
X9540Y4577D01*
X9667Y4704D01*
X9794Y4577D01*
X9921Y4577D01*
X9794Y4450D02*
X9921Y4577D01*
X9794Y4450D02*
X9921Y4323D01*
X9794Y4323D02*
X9921Y4323D01*
X9667Y4196D02*
X9794Y4323D01*
X7924Y13264D02*
X8050Y13137D01*
X7797Y13264D02*
X7924Y13264D01*
X7797Y13264D02*
X7924Y13391D01*
X7797Y13518D02*
X7924Y13391D01*
X7797Y13518D02*
X7924Y13518D01*
X8050Y13645D01*
X8177Y13518D01*
X8304Y13518D01*
X8177Y13391D02*
X8304Y13518D01*
X8177Y13391D02*
X8304Y13264D01*
X8177Y13264D02*
X8304Y13264D01*
X8050Y13137D02*
X8177Y13264D01*
X6199Y12427D02*
X6326Y12300D01*
X6072Y12427D02*
X6199Y12427D01*
X6072Y12427D02*
X6199Y12554D01*
X6072Y12681D02*
X6199Y12554D01*
X6072Y12681D02*
X6199Y12681D01*
X6326Y12808D01*
X6453Y12681D01*
X6580Y12681D01*
X6453Y12554D02*
X6580Y12681D01*
X6453Y12554D02*
X6580Y12427D01*
X6453Y12427D02*
X6580Y12427D01*
X6326Y12300D02*
X6453Y12427D01*
X7092Y12573D02*
X7219Y12446D01*
X6965Y12573D02*
X7092Y12573D01*
X6965Y12573D02*
X7092Y12700D01*
X6965Y12827D02*
X7092Y12700D01*
X6965Y12827D02*
X7092Y12827D01*
X7219Y12954D01*
X7346Y12827D01*
X7473Y12827D01*
X7346Y12700D02*
X7473Y12827D01*
X7346Y12700D02*
X7473Y12573D01*
X7346Y12573D02*
X7473Y12573D01*
X7219Y12446D02*
X7346Y12573D01*
X14248Y6273D02*
X14375Y6146D01*
X14121Y6273D02*
X14248Y6273D01*
X14121Y6273D02*
X14248Y6400D01*
X14121Y6527D02*
X14248Y6400D01*
X14121Y6527D02*
X14248Y6527D01*
X14375Y6654D01*
X14502Y6527D01*
X14629Y6527D01*
X14502Y6400D02*
X14629Y6527D01*
X14502Y6400D02*
X14629Y6273D01*
X14502Y6273D02*
X14629Y6273D01*
X14375Y6146D02*
X14502Y6273D01*
X2356Y2346D02*
X2610Y2473D01*
X2864Y2346D01*
X2737Y2600D02*
X2864Y2346D01*
X2737Y2600D02*
X2864Y2854D01*
X2610Y2727D02*
X2864Y2854D01*
X2356Y2854D02*
X2610Y2727D01*
X2356Y2854D02*
X2483Y2600D01*
X2356Y2346D02*
X2483Y2600D01*
X2356Y9966D02*
X2610Y10093D01*
X2864Y9966D01*
X2737Y10220D02*
X2864Y9966D01*
X2737Y10220D02*
X2864Y10474D01*
X2610Y10347D02*
X2864Y10474D01*
X2356Y10474D02*
X2610Y10347D01*
X2356Y10474D02*
X2483Y10220D01*
X2356Y9966D02*
X2483Y10220D01*
X2356Y1076D02*
X2610Y1203D01*
X2864Y1076D01*
X2737Y1330D02*
X2864Y1076D01*
X2737Y1330D02*
X2864Y1584D01*
X2610Y1457D02*
X2864Y1584D01*
X2356Y1584D02*
X2610Y1457D01*
X2356Y1584D02*
X2483Y1330D01*
X2356Y1076D02*
X2483Y1330D01*
X2356Y3616D02*
X2610Y3743D01*
X2864Y3616D01*
X2737Y3870D02*
X2864Y3616D01*
X2737Y3870D02*
X2864Y4124D01*
X2610Y3997D02*
X2864Y4124D01*
X2356Y4124D02*
X2610Y3997D01*
X2356Y4124D02*
X2483Y3870D01*
X2356Y3616D02*
X2483Y3870D01*
X2356Y4886D02*
X2610Y5013D01*
X2864Y4886D01*
X2737Y5140D02*
X2864Y4886D01*
X2737Y5140D02*
X2864Y5394D01*
X2610Y5267D02*
X2864Y5394D01*
X2356Y5394D02*
X2610Y5267D01*
X2356Y5394D02*
X2483Y5140D01*
X2356Y4886D02*
X2483Y5140D01*
X2356Y6156D02*
X2610Y6283D01*
X2864Y6156D01*
X2737Y6410D02*
X2864Y6156D01*
X2737Y6410D02*
X2864Y6664D01*
X2610Y6537D02*
X2864Y6664D01*
X2356Y6664D02*
X2610Y6537D01*
X2356Y6664D02*
X2483Y6410D01*
X2356Y6156D02*
X2483Y6410D01*
X2356Y7426D02*
X2610Y7553D01*
X2864Y7426D01*
X2737Y7680D02*
X2864Y7426D01*
X2737Y7680D02*
X2864Y7934D01*
X2610Y7807D02*
X2864Y7934D01*
X2356Y7934D02*
X2610Y7807D01*
X2356Y7934D02*
X2483Y7680D01*
X2356Y7426D02*
X2483Y7680D01*
X2356Y8696D02*
X2610Y8823D01*
X2864Y8696D01*
X2737Y8950D02*
X2864Y8696D01*
X2737Y8950D02*
X2864Y9204D01*
X2610Y9077D02*
X2864Y9204D01*
X2356Y9204D02*
X2610Y9077D01*
X2356Y9204D02*
X2483Y8950D01*
X2356Y8696D02*
X2483Y8950D01*
X2356Y11236D02*
X2610Y11363D01*
X2864Y11236D01*
X2737Y11490D02*
X2864Y11236D01*
X2737Y11490D02*
X2864Y11744D01*
X2610Y11617D02*
X2864Y11744D01*
X2356Y11744D02*
X2610Y11617D01*
X2356Y11744D02*
X2483Y11490D01*
X2356Y11236D02*
X2483Y11490D01*
X2356Y12506D02*
X2610Y12633D01*
X2864Y12506D01*
X2737Y12760D02*
X2864Y12506D01*
X2737Y12760D02*
X2864Y13014D01*
X2610Y12887D02*
X2864Y13014D01*
X2356Y13014D02*
X2610Y12887D01*
X2356Y13014D02*
X2483Y12760D01*
X2356Y12506D02*
X2483Y12760D01*
X2356Y13776D02*
X2610Y13903D01*
X2864Y13776D01*
X2737Y14030D02*
X2864Y13776D01*
X2737Y14030D02*
X2864Y14284D01*
X2610Y14157D02*
X2864Y14284D01*
X2356Y14284D02*
X2610Y14157D01*
X2356Y14284D02*
X2483Y14030D01*
X2356Y13776D02*
X2483Y14030D01*
X2356Y15046D02*
X2610Y15173D01*
X2864Y15046D01*
X2737Y15300D02*
X2864Y15046D01*
X2737Y15300D02*
X2864Y15554D01*
X2610Y15427D02*
X2864Y15554D01*
X2356Y15554D02*
X2610Y15427D01*
X2356Y15554D02*
X2483Y15300D01*
X2356Y15046D02*
X2483Y15300D01*
X20136Y2346D02*
X20390Y2473D01*
X20644Y2346D01*
X20517Y2600D02*
X20644Y2346D01*
X20517Y2600D02*
X20644Y2854D01*
X20390Y2727D02*
X20644Y2854D01*
X20136Y2854D02*
X20390Y2727D01*
X20136Y2854D02*
X20263Y2600D01*
X20136Y2346D02*
X20263Y2600D01*
X20136Y9966D02*
X20390Y10093D01*
X20644Y9966D01*
X20517Y10220D02*
X20644Y9966D01*
X20517Y10220D02*
X20644Y10474D01*
X20390Y10347D02*
X20644Y10474D01*
X20136Y10474D02*
X20390Y10347D01*
X20136Y10474D02*
X20263Y10220D01*
X20136Y9966D02*
X20263Y10220D01*
X20136Y1076D02*
X20390Y1203D01*
X20644Y1076D01*
X20517Y1330D02*
X20644Y1076D01*
X20517Y1330D02*
X20644Y1584D01*
X20390Y1457D02*
X20644Y1584D01*
X20136Y1584D02*
X20390Y1457D01*
X20136Y1584D02*
X20263Y1330D01*
X20136Y1076D02*
X20263Y1330D01*
X20136Y3616D02*
X20390Y3743D01*
X20644Y3616D01*
X20517Y3870D02*
X20644Y3616D01*
X20517Y3870D02*
X20644Y4124D01*
X20390Y3997D02*
X20644Y4124D01*
X20136Y4124D02*
X20390Y3997D01*
X20136Y4124D02*
X20263Y3870D01*
X20136Y3616D02*
X20263Y3870D01*
X20136Y4886D02*
X20390Y5013D01*
X20644Y4886D01*
X20517Y5140D02*
X20644Y4886D01*
X20517Y5140D02*
X20644Y5394D01*
X20390Y5267D02*
X20644Y5394D01*
X20136Y5394D02*
X20390Y5267D01*
X20136Y5394D02*
X20263Y5140D01*
X20136Y4886D02*
X20263Y5140D01*
X20136Y6156D02*
X20390Y6283D01*
X20644Y6156D01*
X20517Y6410D02*
X20644Y6156D01*
X20517Y6410D02*
X20644Y6664D01*
X20390Y6537D02*
X20644Y6664D01*
X20136Y6664D02*
X20390Y6537D01*
X20136Y6664D02*
X20263Y6410D01*
X20136Y6156D02*
X20263Y6410D01*
X20136Y7426D02*
X20390Y7553D01*
X20644Y7426D01*
X20517Y7680D02*
X20644Y7426D01*
X20517Y7680D02*
X20644Y7934D01*
X20390Y7807D02*
X20644Y7934D01*
X20136Y7934D02*
X20390Y7807D01*
X20136Y7934D02*
X20263Y7680D01*
X20136Y7426D02*
X20263Y7680D01*
X20136Y8696D02*
X20390Y8823D01*
X20644Y8696D01*
X20517Y8950D02*
X20644Y8696D01*
X20517Y8950D02*
X20644Y9204D01*
X20390Y9077D02*
X20644Y9204D01*
X20136Y9204D02*
X20390Y9077D01*
X20136Y9204D02*
X20263Y8950D01*
X20136Y8696D02*
X20263Y8950D01*
X20136Y11236D02*
X20390Y11363D01*
X20644Y11236D01*
X20517Y11490D02*
X20644Y11236D01*
X20517Y11490D02*
X20644Y11744D01*
X20390Y11617D02*
X20644Y11744D01*
X20136Y11744D02*
X20390Y11617D01*
X20136Y11744D02*
X20263Y11490D01*
X20136Y11236D02*
X20263Y11490D01*
X20136Y12506D02*
X20390Y12633D01*
X20644Y12506D01*
X20517Y12760D02*
X20644Y12506D01*
X20517Y12760D02*
X20644Y13014D01*
X20390Y12887D02*
X20644Y13014D01*
X20136Y13014D02*
X20390Y12887D01*
X20136Y13014D02*
X20263Y12760D01*
X20136Y12506D02*
X20263Y12760D01*
X20136Y13776D02*
X20390Y13903D01*
X20644Y13776D01*
X20517Y14030D02*
X20644Y13776D01*
X20517Y14030D02*
X20644Y14284D01*
X20390Y14157D02*
X20644Y14284D01*
X20136Y14284D02*
X20390Y14157D01*
X20136Y14284D02*
X20263Y14030D01*
X20136Y13776D02*
X20263Y14030D01*
X20136Y15046D02*
X20390Y15173D01*
X20644Y15046D01*
X20517Y15300D02*
X20644Y15046D01*
X20517Y15300D02*
X20644Y15554D01*
X20390Y15427D02*
X20644Y15554D01*
X20136Y15554D02*
X20390Y15427D01*
X20136Y15554D02*
X20263Y15300D01*
X20136Y15046D02*
X20263Y15300D01*
X5346Y26776D02*
X5854Y26776D01*
X5854Y27284D01*
X5346Y27284D02*
X5854Y27284D01*
X5346Y26776D02*
X5346Y27284D01*
X5346Y29316D02*
X5854Y29316D01*
X5854Y29824D01*
X5346Y29824D02*
X5854Y29824D01*
X5346Y29316D02*
X5346Y29824D01*
X17146Y26776D02*
X17654Y26776D01*
X17654Y27284D01*
X17146Y27284D02*
X17654Y27284D01*
X17146Y26776D02*
X17146Y27284D01*
X17146Y29316D02*
X17654Y29316D01*
X17654Y29824D01*
X17146Y29824D02*
X17654Y29824D01*
X17146Y29316D02*
X17146Y29824D01*
X13250Y28346D02*
X13504Y28854D01*
X12996Y28854D02*
X13504Y28854D01*
X12996Y28854D02*
X13250Y28346D01*
X9750Y28346D02*
X10004Y28854D01*
X9496Y28854D02*
X10004Y28854D01*
X9496Y28854D02*
X9750Y28346D01*
D52*
X114177Y-45929D02*
X114177Y-44129D01*
X115077Y-44129D01*
X115377Y-44429D01*
X115377Y-45029D01*
X115077Y-45329D01*
X114177Y-45329D01*
X114777Y-45329D02*
X115377Y-45929D01*
X116277Y-45929D02*
X116877Y-45929D01*
X117176Y-45629D01*
X117176Y-45029D01*
X116877Y-44729D01*
X116277Y-44729D01*
X115977Y-45029D01*
X115977Y-45629D01*
X116277Y-45929D01*
X117776Y-44729D02*
X117776Y-45629D01*
X118076Y-45929D01*
X118976Y-45929D01*
X118976Y-44729D01*
X119876Y-44429D02*
X119876Y-44729D01*
X119576Y-44729D01*
X120175Y-44729D01*
X119876Y-44729D01*
X119876Y-45629D01*
X120175Y-45929D01*
X121975Y-45929D02*
X121375Y-45929D01*
X121075Y-45629D01*
X121075Y-45029D01*
X121375Y-44729D01*
X121975Y-44729D01*
X122275Y-45029D01*
X122275Y-45329D01*
X121075Y-45329D01*
X124074Y-44129D02*
X124074Y-45929D01*
X123174Y-45929D01*
X122875Y-45629D01*
X122875Y-45029D01*
X123174Y-44729D01*
X124074Y-44729D01*
X126473Y-45929D02*
X126473Y-44129D01*
X127373Y-44129D01*
X127673Y-44429D01*
X127673Y-45029D01*
X127373Y-45329D01*
X126473Y-45329D01*
X128573Y-44729D02*
X129173Y-44729D01*
X129472Y-45029D01*
X129472Y-45929D01*
X128573Y-45929D01*
X128273Y-45629D01*
X128573Y-45329D01*
X129472Y-45329D01*
X130372Y-44429D02*
X130372Y-44729D01*
X130072Y-44729D01*
X130672Y-44729D01*
X130372Y-44729D01*
X130372Y-45629D01*
X130672Y-45929D01*
X131572Y-44129D02*
X131572Y-45929D01*
X131572Y-45029D01*
X131872Y-44729D01*
X132471Y-44729D01*
X132771Y-45029D01*
X132771Y-45929D01*
X135171Y-44129D02*
X135171Y-45929D01*
X136370Y-45929D01*
X137870Y-45929D02*
X137270Y-45929D01*
X136970Y-45629D01*
X136970Y-45029D01*
X137270Y-44729D01*
X137870Y-44729D01*
X138170Y-45029D01*
X138170Y-45329D01*
X136970Y-45329D01*
X138769Y-45929D02*
X138769Y-44729D01*
X139669Y-44729D01*
X139969Y-45029D01*
X139969Y-45929D01*
X141169Y-46528D02*
X141469Y-46528D01*
X141768Y-46228D01*
X141768Y-44729D01*
X140869Y-44729D01*
X140569Y-45029D01*
X140569Y-45629D01*
X140869Y-45929D01*
X141768Y-45929D01*
X142668Y-44429D02*
X142668Y-44729D01*
X142368Y-44729D01*
X142968Y-44729D01*
X142668Y-44729D01*
X142668Y-45629D01*
X142968Y-45929D01*
X143868Y-44129D02*
X143868Y-45929D01*
X143868Y-45029D01*
X144168Y-44729D01*
X144768Y-44729D01*
X145067Y-45029D01*
X145067Y-45929D01*
X92533Y-44129D02*
X92533Y-45929D01*
X92533Y-45029D01*
X93733Y-45029D01*
X93733Y-44129D01*
X93733Y-45929D01*
X94633Y-45929D02*
X95233Y-45929D01*
X95532Y-45629D01*
X95532Y-45029D01*
X95233Y-44729D01*
X94633Y-44729D01*
X94333Y-45029D01*
X94333Y-45629D01*
X94633Y-45929D01*
X96132Y-45929D02*
X96732Y-45929D01*
X96432Y-45929D01*
X96432Y-44129D01*
X96132Y-44129D01*
X98532Y-45929D02*
X97932Y-45929D01*
X97632Y-45629D01*
X97632Y-45029D01*
X97932Y-44729D01*
X98532Y-44729D01*
X98831Y-45029D01*
X98831Y-45329D01*
X97632Y-45329D01*
X101231Y-44129D02*
X101231Y-45929D01*
X102430Y-45929D01*
X103930Y-45929D02*
X103330Y-45929D01*
X103030Y-45629D01*
X103030Y-45029D01*
X103330Y-44729D01*
X103930Y-44729D01*
X104230Y-45029D01*
X104230Y-45329D01*
X103030Y-45329D01*
X104829Y-45929D02*
X104829Y-44729D01*
X105729Y-44729D01*
X106029Y-45029D01*
X106029Y-45929D01*
X107229Y-46528D02*
X107529Y-46528D01*
X107828Y-46228D01*
X107828Y-44729D01*
X106929Y-44729D01*
X106629Y-45029D01*
X106629Y-45629D01*
X106929Y-45929D01*
X107828Y-45929D01*
X108728Y-44429D02*
X108728Y-44729D01*
X108428Y-44729D01*
X109028Y-44729D01*
X108728Y-44729D01*
X108728Y-45629D01*
X109028Y-45929D01*
X109928Y-44129D02*
X109928Y-45929D01*
X109928Y-45029D01*
X110228Y-44729D01*
X110828Y-44729D01*
X111127Y-45029D01*
X111127Y-45929D01*
X74188Y-44129D02*
X74188Y-45929D01*
X74188Y-45029D01*
X75388Y-45029D01*
X75388Y-44129D01*
X75388Y-45929D01*
X76288Y-45929D02*
X76888Y-45929D01*
X77187Y-45629D01*
X77187Y-45029D01*
X76888Y-44729D01*
X76288Y-44729D01*
X75988Y-45029D01*
X75988Y-45629D01*
X76288Y-45929D01*
X77787Y-45929D02*
X78387Y-45929D01*
X78087Y-45929D01*
X78087Y-44129D01*
X77787Y-44129D01*
X80186Y-45929D02*
X79587Y-45929D01*
X79287Y-45629D01*
X79287Y-45029D01*
X79587Y-44729D01*
X80186Y-44729D01*
X80486Y-45029D01*
X80486Y-45329D01*
X79287Y-45329D01*
X82886Y-44129D02*
X84085Y-44129D01*
X83485Y-44129D01*
X83485Y-45929D01*
X84685Y-44729D02*
X84685Y-45629D01*
X84985Y-45929D01*
X85885Y-45929D01*
X85885Y-46228D01*
X85585Y-46528D01*
X85285Y-46528D01*
X85885Y-45929D02*
X85885Y-44729D01*
X86484Y-46528D02*
X86484Y-44729D01*
X87384Y-44729D01*
X87684Y-45029D01*
X87684Y-45629D01*
X87384Y-45929D01*
X86484Y-45929D01*
X89184Y-45929D02*
X88584Y-45929D01*
X88284Y-45629D01*
X88284Y-45029D01*
X88584Y-44729D01*
X89184Y-44729D01*
X89483Y-45029D01*
X89483Y-45329D01*
X88284Y-45329D01*
X59442Y-44129D02*
X59442Y-45329D01*
X60042Y-45929D01*
X60642Y-45329D01*
X60642Y-44129D01*
X61242Y-45929D02*
X61841Y-45929D01*
X61542Y-45929D01*
X61542Y-44729D01*
X61242Y-44729D01*
X63041Y-44729D02*
X63641Y-44729D01*
X63941Y-45029D01*
X63941Y-45929D01*
X63041Y-45929D01*
X62741Y-45629D01*
X63041Y-45329D01*
X63941Y-45329D01*
X64541Y-45929D02*
X65740Y-44729D01*
X66340Y-45929D02*
X66340Y-44129D01*
X67240Y-44129D01*
X67540Y-44429D01*
X67540Y-45029D01*
X67240Y-45329D01*
X66340Y-45329D01*
X68439Y-44729D02*
X69039Y-44729D01*
X69339Y-45029D01*
X69339Y-45929D01*
X68439Y-45929D01*
X68139Y-45629D01*
X68439Y-45329D01*
X69339Y-45329D01*
X71138Y-44129D02*
X71138Y-45929D01*
X70239Y-45929D01*
X69939Y-45629D01*
X69939Y-45029D01*
X70239Y-44729D01*
X71138Y-44729D01*
X21953Y-44129D02*
X21953Y-45929D01*
X22853Y-45929D01*
X23153Y-45629D01*
X23153Y-44429D01*
X22853Y-44129D01*
X21953Y-44129D01*
X23753Y-44729D02*
X23753Y-45929D01*
X23753Y-45329D01*
X24053Y-45029D01*
X24353Y-44729D01*
X24653Y-44729D01*
X25552Y-45929D02*
X26152Y-45929D01*
X25852Y-45929D01*
X25852Y-44729D01*
X25552Y-44729D01*
X27052Y-45929D02*
X27652Y-45929D01*
X27352Y-45929D01*
X27352Y-44129D01*
X27052Y-44129D01*
X28551Y-45929D02*
X29151Y-45929D01*
X28851Y-45929D01*
X28851Y-44129D01*
X28551Y-44129D01*
X31850Y-44129D02*
X31850Y-45929D01*
X33050Y-45929D01*
X33950Y-44729D02*
X34549Y-44729D01*
X34849Y-45029D01*
X34849Y-45929D01*
X33950Y-45929D01*
X33650Y-45629D01*
X33950Y-45329D01*
X34849Y-45329D01*
X35449Y-44729D02*
X35449Y-45629D01*
X35749Y-45929D01*
X36649Y-45929D01*
X36649Y-46228D01*
X36349Y-46528D01*
X36049Y-46528D01*
X36649Y-45929D02*
X36649Y-44729D01*
X38148Y-45929D02*
X37548Y-45929D01*
X37248Y-45629D01*
X37248Y-45029D01*
X37548Y-44729D01*
X38148Y-44729D01*
X38448Y-45029D01*
X38448Y-45329D01*
X37248Y-45329D01*
X39048Y-44729D02*
X39048Y-45929D01*
X39048Y-45329D01*
X39348Y-45029D01*
X39648Y-44729D01*
X39948Y-44729D01*
X42647Y-45929D02*
X42647Y-44129D01*
X43546Y-44129D01*
X43846Y-44429D01*
X43846Y-45029D01*
X43546Y-45329D01*
X42647Y-45329D01*
X44746Y-44729D02*
X45346Y-44729D01*
X45646Y-45029D01*
X45646Y-45929D01*
X44746Y-45929D01*
X44446Y-45629D01*
X44746Y-45329D01*
X45646Y-45329D01*
X46246Y-45929D02*
X46845Y-45929D01*
X46545Y-45929D01*
X46545Y-44729D01*
X46246Y-44729D01*
X47745Y-44729D02*
X47745Y-45929D01*
X47745Y-45329D01*
X48045Y-45029D01*
X48345Y-44729D01*
X48645Y-44729D01*
X9307Y-45929D02*
X9307Y-44129D01*
X10206Y-44129D01*
X10506Y-44429D01*
X10506Y-45029D01*
X10206Y-45329D01*
X9307Y-45329D01*
X11106Y-45929D02*
X11706Y-45929D01*
X11406Y-45929D01*
X11406Y-44129D01*
X11106Y-44129D01*
X12905Y-44729D02*
X13505Y-44729D01*
X13805Y-45029D01*
X13805Y-45929D01*
X12905Y-45929D01*
X12605Y-45629D01*
X12905Y-45329D01*
X13805Y-45329D01*
X14705Y-44429D02*
X14705Y-44729D01*
X14405Y-44729D01*
X15005Y-44729D01*
X14705Y-44729D01*
X14705Y-45629D01*
X15005Y-45929D01*
X16804Y-45929D02*
X16204Y-45929D01*
X15904Y-45629D01*
X15904Y-45029D01*
X16204Y-44729D01*
X16804Y-44729D01*
X17104Y-45029D01*
X17104Y-45329D01*
X15904Y-45329D01*
X18903Y-44129D02*
X18903Y-45929D01*
X18004Y-45929D01*
X17704Y-45629D01*
X17704Y-45029D01*
X18004Y-44729D01*
X18903Y-44729D01*
X-23134Y-44129D02*
X-24334Y-44129D01*
X-24334Y-45029D01*
X-23734Y-45029D01*
X-24334Y-45029D01*
X-24334Y-45929D01*
X-22534Y-45929D02*
X-21934Y-45929D01*
X-22234Y-45929D01*
X-22234Y-44729D01*
X-22534Y-44729D01*
X-21035Y-45929D02*
X-21035Y-44729D01*
X-20135Y-44729D01*
X-19835Y-45029D01*
X-19835Y-45929D01*
X-19235Y-45929D02*
X-18635Y-45929D01*
X-18935Y-45929D01*
X-18935Y-44729D01*
X-19235Y-44729D01*
X-17736Y-45929D02*
X-16836Y-45929D01*
X-16536Y-45629D01*
X-16836Y-45329D01*
X-17436Y-45329D01*
X-17736Y-45029D01*
X-17436Y-44729D01*
X-16536Y-44729D01*
X-15936Y-44129D02*
X-15936Y-45929D01*
X-15936Y-45029D01*
X-15636Y-44729D01*
X-15037Y-44729D01*
X-14737Y-45029D01*
X-14737Y-45929D01*
X-13237Y-45929D02*
X-13837Y-45929D01*
X-14137Y-45629D01*
X-14137Y-45029D01*
X-13837Y-44729D01*
X-13237Y-44729D01*
X-12937Y-45029D01*
X-12937Y-45329D01*
X-14137Y-45329D01*
X-11138Y-44129D02*
X-11138Y-45929D01*
X-12038Y-45929D01*
X-12337Y-45629D01*
X-12337Y-45029D01*
X-12038Y-44729D01*
X-11138Y-44729D01*
X-8739Y-44129D02*
X-8739Y-45929D01*
X-8739Y-45029D01*
X-7539Y-45029D01*
X-7539Y-44129D01*
X-7539Y-45929D01*
X-6639Y-45929D02*
X-6039Y-45929D01*
X-5740Y-45629D01*
X-5740Y-45029D01*
X-6039Y-44729D01*
X-6639Y-44729D01*
X-6939Y-45029D01*
X-6939Y-45629D01*
X-6639Y-45929D01*
X-5140Y-45929D02*
X-4540Y-45929D01*
X-4840Y-45929D01*
X-4840Y-44129D01*
X-5140Y-44129D01*
X-2741Y-45929D02*
X-3340Y-45929D01*
X-3640Y-45629D01*
X-3640Y-45029D01*
X-3340Y-44729D01*
X-2741Y-44729D01*
X-2441Y-45029D01*
X-2441Y-45329D01*
X-3640Y-45329D01*
X1158Y-44429D02*
X858Y-44129D01*
X259Y-44129D01*
X-41Y-44429D01*
X-41Y-44729D01*
X259Y-45029D01*
X858Y-45029D01*
X1158Y-45329D01*
X1158Y-45629D01*
X858Y-45929D01*
X259Y-45929D01*
X-41Y-45629D01*
X1758Y-45929D02*
X2358Y-45929D01*
X2058Y-45929D01*
X2058Y-44729D01*
X1758Y-44729D01*
X3258Y-44729D02*
X4457Y-44729D01*
X3258Y-45929D01*
X4457Y-45929D01*
X5957Y-45929D02*
X5357Y-45929D01*
X5057Y-45629D01*
X5057Y-45029D01*
X5357Y-44729D01*
X5957Y-44729D01*
X6257Y-45029D01*
X6257Y-45329D01*
X5057Y-45329D01*
X-41779Y-44129D02*
X-41779Y-45929D01*
X-41779Y-45029D01*
X-40579Y-45029D01*
X-40579Y-44129D01*
X-40579Y-45929D01*
X-39979Y-45929D02*
X-39380Y-45929D01*
X-39680Y-45929D01*
X-39680Y-44729D01*
X-39979Y-44729D01*
X-38180Y-44429D02*
X-38180Y-44729D01*
X-38480Y-44729D01*
X-37880Y-44729D01*
X-38180Y-44729D01*
X-38180Y-45629D01*
X-37880Y-45929D01*
X-33981Y-44429D02*
X-34281Y-44129D01*
X-34881Y-44129D01*
X-35181Y-44429D01*
X-35181Y-45629D01*
X-34881Y-45929D01*
X-34281Y-45929D01*
X-33981Y-45629D01*
X-33082Y-45929D02*
X-32482Y-45929D01*
X-32182Y-45629D01*
X-32182Y-45029D01*
X-32482Y-44729D01*
X-33082Y-44729D01*
X-33382Y-45029D01*
X-33382Y-45629D01*
X-33082Y-45929D01*
X-31582Y-44729D02*
X-31582Y-45629D01*
X-31282Y-45929D01*
X-30383Y-45929D01*
X-30383Y-44729D01*
X-29783Y-45929D02*
X-29783Y-44729D01*
X-28883Y-44729D01*
X-28583Y-45029D01*
X-28583Y-45929D01*
X-27683Y-44429D02*
X-27683Y-44729D01*
X-27983Y-44729D01*
X-27384Y-44729D01*
X-27683Y-44729D01*
X-27683Y-45629D01*
X-27384Y-45929D01*
X-53226Y-44429D02*
X-53526Y-44129D01*
X-54126Y-44129D01*
X-54426Y-44429D01*
X-54426Y-44729D01*
X-54126Y-45029D01*
X-53526Y-45029D01*
X-53226Y-45329D01*
X-53226Y-45629D01*
X-53526Y-45929D01*
X-54126Y-45929D01*
X-54426Y-45629D01*
X-52626Y-44729D02*
X-52626Y-45629D01*
X-52326Y-45929D01*
X-51427Y-45929D01*
X-51427Y-46228D01*
X-51727Y-46528D01*
X-52027Y-46528D01*
X-51427Y-45929D02*
X-51427Y-44729D01*
X-50827Y-45929D02*
X-50827Y-44729D01*
X-50527Y-44729D01*
X-50227Y-45029D01*
X-50227Y-45929D01*
X-50227Y-45029D01*
X-49927Y-44729D01*
X-49627Y-45029D01*
X-49627Y-45929D01*
X-49028Y-44129D02*
X-49028Y-45929D01*
X-48128Y-45929D01*
X-47828Y-45629D01*
X-47828Y-45329D01*
X-47828Y-45029D01*
X-48128Y-44729D01*
X-49028Y-44729D01*
X-46928Y-45929D02*
X-46328Y-45929D01*
X-46028Y-45629D01*
X-46028Y-45029D01*
X-46328Y-44729D01*
X-46928Y-44729D01*
X-47228Y-45029D01*
X-47228Y-45629D01*
X-46928Y-45929D01*
X-45429Y-45929D02*
X-44829Y-45929D01*
X-45129Y-45929D01*
X-45129Y-44129D01*
X-45429Y-44129D01*
D53*
X270457Y-137400D02*
X270229Y-137477D01*
X270076Y-137705D01*
X270000Y-138086D01*
X270000Y-138314D01*
X270076Y-138695D01*
X270229Y-138924D01*
X270457Y-139000D01*
X270609Y-139000D01*
X270838Y-138924D01*
X270990Y-138695D01*
X271066Y-138314D01*
X271066Y-138086D01*
X270990Y-137705D01*
X270838Y-137477D01*
X270609Y-137400D01*
X270457Y-137400D01*
X271501Y-137781D02*
X271501Y-137705D01*
X271577Y-137553D01*
X271653Y-137477D01*
X271805Y-137400D01*
X272110Y-137400D01*
X272262Y-137477D01*
X272339Y-137553D01*
X272415Y-137705D01*
X272415Y-137857D01*
X272339Y-138010D01*
X272186Y-138238D01*
X271424Y-139000D01*
X272491Y-139000D01*
X272849Y-138314D02*
X274220Y-138314D01*
X275149Y-137400D02*
X274921Y-137477D01*
X274768Y-137705D01*
X274692Y-138086D01*
X274692Y-138314D01*
X274768Y-138695D01*
X274921Y-138924D01*
X275149Y-139000D01*
X275302Y-139000D01*
X275530Y-138924D01*
X275683Y-138695D01*
X275759Y-138314D01*
X275759Y-138086D01*
X275683Y-137705D01*
X275530Y-137477D01*
X275302Y-137400D01*
X275149Y-137400D01*
X276574Y-137400D02*
X276345Y-137477D01*
X276193Y-137705D01*
X276117Y-138086D01*
X276117Y-138314D01*
X276193Y-138695D01*
X276345Y-138924D01*
X276574Y-139000D01*
X276726Y-139000D01*
X276955Y-138924D01*
X277107Y-138695D01*
X277183Y-138314D01*
X277183Y-138086D01*
X277107Y-137705D01*
X276955Y-137477D01*
X276726Y-137400D01*
X276574Y-137400D01*
X277617Y-137781D02*
X277617Y-137705D01*
X277694Y-137553D01*
X277770Y-137477D01*
X277922Y-137400D01*
X278227Y-137400D01*
X278379Y-137477D01*
X278455Y-137553D01*
X278531Y-137705D01*
X278531Y-137857D01*
X278455Y-138010D01*
X278303Y-138238D01*
X277541Y-139000D01*
X278608Y-139000D01*
X279880Y-137400D02*
X279118Y-137400D01*
X279042Y-138086D01*
X279118Y-138010D01*
X279347Y-137934D01*
X279575Y-137934D01*
X279804Y-138010D01*
X279956Y-138162D01*
X280032Y-138391D01*
X280032Y-138543D01*
X279956Y-138771D01*
X279804Y-138924D01*
X279575Y-139000D01*
X279347Y-139000D01*
X279118Y-138924D01*
X279042Y-138848D01*
X278966Y-138695D01*
X281304Y-137400D02*
X280542Y-137400D01*
X280466Y-138086D01*
X280542Y-138010D01*
X280771Y-137934D01*
X281000Y-137934D01*
X281228Y-138010D01*
X281380Y-138162D01*
X281457Y-138391D01*
X281457Y-138543D01*
X281380Y-138771D01*
X281228Y-138924D01*
X281000Y-139000D01*
X280771Y-139000D01*
X280542Y-138924D01*
X280466Y-138848D01*
X280390Y-138695D01*
X281815Y-138314D02*
X283186Y-138314D01*
X283658Y-137400D02*
X283658Y-139000D01*
X283658Y-137400D02*
X284191Y-137400D01*
X284420Y-137477D01*
X284572Y-137629D01*
X284648Y-137781D01*
X284724Y-138010D01*
X284724Y-138391D01*
X284648Y-138619D01*
X284572Y-138771D01*
X284420Y-138924D01*
X284191Y-139000D01*
X283658Y-139000D01*
M02*
