G04*
G04 #@! TF.GenerationSoftware,Altium Limited,Altium Designer,24.1.2 (44)*
G04*
G04 Layer_Physical_Order=3*
G04 Layer_Color=16440176*
%FSLAX43Y43*%
%MOMM*%
G71*
G04*
G04 #@! TF.SameCoordinates,A54E5831-EF6A-4B72-99D3-3794B9BD2B5D*
G04*
G04*
G04 #@! TF.FilePolarity,Positive*
G04*
G01*
G75*
%ADD22C,0.500*%
G04:AMPARAMS|DCode=25|XSize=1.7mm|YSize=1.7mm|CornerRadius=0mm|HoleSize=0mm|Usage=FLASHONLY|Rotation=270.000|XOffset=0mm|YOffset=0mm|HoleType=Round|Shape=Octagon|*
%AMOCTAGOND25*
4,1,8,-0.425,-0.850,0.425,-0.850,0.850,-0.425,0.850,0.425,0.425,0.850,-0.425,0.850,-0.850,0.425,-0.850,-0.425,-0.425,-0.850,0.0*
%
%ADD25OCTAGOND25*%

%ADD33C,0.600*%
%ADD34C,0.800*%
%ADD35C,1.100*%
%ADD36O,1.300X1.000*%
%ADD37R,0.800X18.850*%
%ADD38R,0.892X18.700*%
%ADD39R,16.000X0.500*%
G36*
X22930Y0D02*
X0Y0D01*
X0Y31800D01*
X22930Y31800D01*
X22930Y0D01*
X22930Y0D02*
G37*
%LPC*%
G36*
X6150Y30670D02*
X5800Y30670D01*
X5800Y29770D01*
X6700Y29770D01*
X6700Y30120D01*
X6150Y30670D01*
X6150Y30670D02*
G37*
G36*
X5400Y30670D02*
X5050Y30670D01*
X4500Y30120D01*
X4500Y29770D01*
X5400Y29770D01*
X5400Y30670D01*
X5400Y30670D02*
G37*
G36*
X17950Y30670D02*
X17600Y30670D01*
X17600Y29770D01*
X18500Y29770D01*
X18500Y30120D01*
X17950Y30670D01*
X17950Y30670D02*
G37*
G36*
X17200Y30670D02*
X16850Y30670D01*
X16300Y30120D01*
X16300Y29770D01*
X17200Y29770D01*
X17200Y30670D01*
X17200Y30670D02*
G37*
G36*
X18500Y29370D02*
X17600Y29370D01*
X17600Y28470D01*
X17950Y28470D01*
X18500Y29020D01*
X18500Y29370D01*
X18500Y29370D02*
G37*
G36*
X17200Y29370D02*
X16300Y29370D01*
X16300Y29020D01*
X16850Y28470D01*
X17200Y28470D01*
X17200Y29370D01*
X17200Y29370D02*
G37*
G36*
X6700Y29370D02*
X5800Y29370D01*
X5800Y28470D01*
X6150Y28470D01*
X6700Y29020D01*
X6700Y29370D01*
X6700Y29370D02*
G37*
G36*
X5400Y29370D02*
X4500Y29370D01*
X4500Y29020D01*
X5050Y28470D01*
X5400Y28470D01*
X5400Y29370D01*
X5400Y29370D02*
G37*
G36*
X17400Y28039D02*
X17139Y28004D01*
X16896Y27903D01*
X16687Y27743D01*
X16526Y27534D01*
X16426Y27291D01*
X16391Y27030D01*
X16426Y26769D01*
X16526Y26526D01*
X16687Y26317D01*
X16896Y26156D01*
X17139Y26056D01*
X17400Y26021D01*
X17661Y26056D01*
X17904Y26156D01*
X18113Y26317D01*
X18273Y26526D01*
X18374Y26769D01*
X18409Y27030D01*
X18374Y27291D01*
X18273Y27534D01*
X18113Y27743D01*
X17904Y27903D01*
X17661Y28004D01*
X17400Y28039D01*
X17400Y28039D02*
G37*
G36*
X5600Y28039D02*
X5339Y28004D01*
X5096Y27903D01*
X4887Y27743D01*
X4726Y27534D01*
X4626Y27291D01*
X4591Y27030D01*
X4626Y26769D01*
X4726Y26526D01*
X4887Y26317D01*
X5096Y26156D01*
X5339Y26056D01*
X5600Y26021D01*
X5861Y26056D01*
X6104Y26156D01*
X6313Y26317D01*
X6473Y26526D01*
X6574Y26769D01*
X6609Y27030D01*
X6574Y27291D01*
X6473Y27534D01*
X6313Y27743D01*
X6104Y27903D01*
X5861Y28004D01*
X5600Y28039D01*
X5600Y28039D02*
G37*
G36*
X2800Y24940D02*
X2800Y24390D01*
X3479Y24390D01*
X3405Y24568D01*
X3285Y24725D01*
X3128Y24845D01*
X2946Y24921D01*
X2800Y24940D01*
X2800Y24940D02*
G37*
G36*
X2400Y24940D02*
X2254Y24921D01*
X2072Y24845D01*
X1915Y24725D01*
X1795Y24568D01*
X1721Y24390D01*
X2400Y24390D01*
X2400Y24940D01*
X2400Y24940D02*
G37*
G36*
X20590Y24940D02*
X20590Y24390D01*
X21269Y24390D01*
X21195Y24568D01*
X21075Y24725D01*
X20918Y24845D01*
X20736Y24921D01*
X20590Y24940D01*
X20590Y24940D02*
G37*
G36*
X20190Y24940D02*
X20044Y24921D01*
X19862Y24845D01*
X19705Y24725D01*
X19585Y24568D01*
X19511Y24390D01*
X20190Y24390D01*
X20190Y24940D01*
X20190Y24940D02*
G37*
G36*
X3479Y23990D02*
X2600Y23990D01*
X1721Y23990D01*
X1795Y23812D01*
X1915Y23655D01*
X1963Y23618D01*
X1963Y23491D01*
X1915Y23455D01*
X1795Y23298D01*
X1721Y23120D01*
X2600Y23120D01*
X3479Y23120D01*
X3405Y23298D01*
X3285Y23455D01*
X3237Y23491D01*
X3237Y23618D01*
X3285Y23655D01*
X3405Y23812D01*
X3479Y23990D01*
X3479Y23990D02*
G37*
G36*
X21269Y23990D02*
X20390Y23990D01*
X19511Y23990D01*
X19585Y23812D01*
X19705Y23655D01*
X19753Y23618D01*
X19753Y23491D01*
X19705Y23455D01*
X19585Y23298D01*
X19511Y23120D01*
X20390Y23120D01*
X21269Y23120D01*
X21195Y23298D01*
X21075Y23455D01*
X21027Y23491D01*
X21027Y23618D01*
X21075Y23655D01*
X21195Y23812D01*
X21269Y23990D01*
X21269Y23990D02*
G37*
G36*
X3479Y22720D02*
X2600Y22720D01*
X1721Y22720D01*
X1795Y22542D01*
X1915Y22385D01*
X1963Y22348D01*
X1963Y22221D01*
X1915Y22185D01*
X1795Y22028D01*
X1721Y21850D01*
X2600Y21850D01*
X3479Y21850D01*
X3405Y22028D01*
X3285Y22185D01*
X3237Y22221D01*
X3237Y22348D01*
X3285Y22385D01*
X3405Y22542D01*
X3479Y22720D01*
X3479Y22720D02*
G37*
G36*
X21269Y22720D02*
X20390Y22720D01*
X19511Y22720D01*
X19585Y22542D01*
X19705Y22385D01*
X19753Y22348D01*
X19753Y22221D01*
X19705Y22185D01*
X19585Y22028D01*
X19511Y21850D01*
X20390Y21850D01*
X21269Y21850D01*
X21195Y22028D01*
X21075Y22185D01*
X21027Y22221D01*
X21027Y22348D01*
X21075Y22385D01*
X21195Y22542D01*
X21269Y22720D01*
X21269Y22720D02*
G37*
G36*
X3479Y21450D02*
X2800Y21450D01*
X2800Y20900D01*
X2946Y20919D01*
X3128Y20995D01*
X3285Y21115D01*
X3405Y21272D01*
X3479Y21450D01*
X3479Y21450D02*
G37*
G36*
X21269Y21450D02*
X20590Y21450D01*
X20590Y20900D01*
X20736Y20919D01*
X20918Y20995D01*
X21075Y21115D01*
X21195Y21272D01*
X21269Y21450D01*
X21269Y21450D02*
G37*
G36*
X20190Y21450D02*
X19511Y21450D01*
X19585Y21272D01*
X19705Y21115D01*
X19862Y20995D01*
X20044Y20919D01*
X20190Y20900D01*
X20190Y21450D01*
X20190Y21450D02*
G37*
G36*
X2400Y21450D02*
X1721Y21450D01*
X1795Y21272D01*
X1915Y21115D01*
X2072Y20995D01*
X2254Y20919D01*
X2400Y20900D01*
X2400Y21450D01*
X2400Y21450D02*
G37*
G36*
X14946Y30471D02*
X8043Y30471D01*
X8043Y20683D01*
X9850Y20683D01*
X9850Y18137D01*
X1462Y18137D01*
X1348Y18090D01*
X1300Y17975D01*
X1300Y1150D01*
X1348Y1035D01*
X1462Y988D01*
X1831Y988D01*
X1837Y990D01*
X1842Y988D01*
X1854Y994D01*
X1996Y977D01*
X2023Y946D01*
X2111Y831D01*
X2257Y719D01*
X2427Y648D01*
X2610Y624D01*
X2793Y648D01*
X2963Y719D01*
X3109Y831D01*
X3197Y946D01*
X3224Y977D01*
X3366Y994D01*
X3378Y988D01*
X3383Y990D01*
X3389Y988D01*
X3470Y988D01*
X3500Y1000D01*
X3532Y1000D01*
X3532Y1000D01*
X9392Y1000D01*
X9436Y1018D01*
X9483Y1027D01*
X9492Y1041D01*
X9507Y1048D01*
X9525Y1091D01*
X9531Y1099D01*
X9533Y1101D01*
X9604Y1207D01*
X9682Y1259D01*
X9775Y1277D01*
X9868Y1259D01*
X9946Y1207D01*
X10017Y1101D01*
X10019Y1099D01*
X10025Y1091D01*
X10043Y1048D01*
X10058Y1041D01*
X10067Y1027D01*
X10114Y1018D01*
X10158Y1000D01*
X19468Y1000D01*
X19468Y1000D01*
X19500Y1000D01*
X19530Y988D01*
X19611Y988D01*
X19617Y990D01*
X19622Y988D01*
X19634Y994D01*
X19776Y977D01*
X19803Y946D01*
X19891Y831D01*
X20037Y719D01*
X20207Y648D01*
X20390Y624D01*
X20573Y648D01*
X20743Y719D01*
X20889Y831D01*
X20977Y946D01*
X21004Y977D01*
X21146Y994D01*
X21158Y988D01*
X21163Y990D01*
X21169Y988D01*
X21625Y988D01*
X21740Y1035D01*
X21787Y1150D01*
X21787Y17049D01*
X21784Y17057D01*
X21787Y17065D01*
X21761Y17113D01*
X21740Y17164D01*
X21732Y17167D01*
X21728Y17174D01*
X21639Y17248D01*
X21600Y17259D01*
X21567Y17281D01*
X21423Y17310D01*
X21328Y17373D01*
X21265Y17469D01*
X21242Y17581D01*
X21265Y17693D01*
X21308Y17758D01*
X21313Y17782D01*
X21328Y17801D01*
X21324Y17841D01*
X21332Y17880D01*
X21319Y17900D01*
X21316Y17925D01*
X21248Y18052D01*
X21229Y18067D01*
X21220Y18090D01*
X21183Y18105D01*
X21152Y18130D01*
X21128Y18128D01*
X21105Y18137D01*
X19089Y18137D01*
X19038Y18116D01*
X18994Y18103D01*
X18950Y18116D01*
X18900Y18137D01*
X13150Y18137D01*
X13150Y20683D01*
X14946Y20683D01*
X14946Y30471D01*
X14946Y30471D02*
G37*
%LPD*%
G36*
X21173Y17848D02*
X21112Y17756D01*
X21077Y17581D01*
X21112Y17405D01*
X21211Y17256D01*
X21360Y17157D01*
X21536Y17122D01*
X21625Y17049D01*
X21625Y1150D01*
X21169Y1150D01*
X21085Y1245D01*
X21096Y1330D01*
X21072Y1513D01*
X21001Y1683D01*
X20889Y1829D01*
X20815Y1886D01*
X20815Y2044D01*
X20889Y2101D01*
X21001Y2247D01*
X21072Y2417D01*
X21096Y2600D01*
X21072Y2783D01*
X21001Y2953D01*
X20889Y3099D01*
X20815Y3156D01*
X20815Y3314D01*
X20889Y3371D01*
X21001Y3517D01*
X21072Y3687D01*
X21096Y3870D01*
X21072Y4053D01*
X21001Y4223D01*
X20889Y4369D01*
X20815Y4426D01*
X20815Y4584D01*
X20889Y4641D01*
X21001Y4787D01*
X21072Y4957D01*
X21096Y5140D01*
X21072Y5323D01*
X21001Y5493D01*
X20889Y5639D01*
X20815Y5696D01*
X20815Y5854D01*
X20889Y5911D01*
X21001Y6057D01*
X21072Y6227D01*
X21096Y6410D01*
X21072Y6593D01*
X21001Y6763D01*
X20889Y6909D01*
X20815Y6966D01*
X20815Y7124D01*
X20889Y7181D01*
X21001Y7327D01*
X21072Y7497D01*
X21096Y7680D01*
X21072Y7863D01*
X21001Y8033D01*
X20889Y8179D01*
X20815Y8236D01*
X20815Y8394D01*
X20889Y8451D01*
X21001Y8597D01*
X21072Y8767D01*
X21096Y8950D01*
X21072Y9133D01*
X21001Y9303D01*
X20889Y9449D01*
X20815Y9506D01*
X20815Y9664D01*
X20889Y9721D01*
X21001Y9867D01*
X21072Y10037D01*
X21096Y10220D01*
X21072Y10403D01*
X21001Y10573D01*
X20889Y10719D01*
X20815Y10776D01*
X20815Y10934D01*
X20889Y10991D01*
X21001Y11137D01*
X21072Y11307D01*
X21096Y11490D01*
X21072Y11673D01*
X21001Y11843D01*
X20889Y11989D01*
X20815Y12046D01*
X20815Y12204D01*
X20889Y12261D01*
X21001Y12407D01*
X21072Y12577D01*
X21096Y12760D01*
X21072Y12943D01*
X21001Y13113D01*
X20889Y13259D01*
X20815Y13316D01*
X20815Y13474D01*
X20889Y13531D01*
X21001Y13677D01*
X21072Y13847D01*
X21096Y14030D01*
X21072Y14213D01*
X21001Y14383D01*
X20889Y14529D01*
X20815Y14586D01*
X20815Y14744D01*
X20889Y14801D01*
X21001Y14947D01*
X21072Y15117D01*
X21096Y15300D01*
X21072Y15483D01*
X21001Y15653D01*
X20889Y15799D01*
X20743Y15911D01*
X20573Y15982D01*
X20390Y16006D01*
X20207Y15982D01*
X20037Y15911D01*
X19891Y15799D01*
X19779Y15653D01*
X19708Y15483D01*
X19684Y15300D01*
X19708Y15117D01*
X19779Y14947D01*
X19891Y14801D01*
X19965Y14744D01*
X19965Y14586D01*
X19891Y14529D01*
X19779Y14383D01*
X19708Y14213D01*
X19684Y14030D01*
X19708Y13847D01*
X19779Y13677D01*
X19891Y13531D01*
X19965Y13474D01*
X19965Y13316D01*
X19891Y13259D01*
X19779Y13113D01*
X19708Y12943D01*
X19684Y12760D01*
X19708Y12577D01*
X19779Y12407D01*
X19891Y12261D01*
X19965Y12204D01*
X19965Y12046D01*
X19891Y11989D01*
X19779Y11843D01*
X19708Y11673D01*
X19684Y11490D01*
X19708Y11307D01*
X19779Y11137D01*
X19891Y10991D01*
X19965Y10934D01*
X19965Y10776D01*
X19891Y10719D01*
X19779Y10573D01*
X19708Y10403D01*
X19684Y10220D01*
X19708Y10037D01*
X19779Y9867D01*
X19891Y9721D01*
X19965Y9664D01*
X19965Y9506D01*
X19891Y9449D01*
X19779Y9303D01*
X19708Y9133D01*
X19684Y8950D01*
X19708Y8767D01*
X19779Y8597D01*
X19891Y8451D01*
X19965Y8394D01*
X19965Y8236D01*
X19891Y8179D01*
X19779Y8033D01*
X19708Y7863D01*
X19684Y7680D01*
X19708Y7497D01*
X19779Y7327D01*
X19891Y7181D01*
X19965Y7124D01*
X19965Y6966D01*
X19891Y6909D01*
X19779Y6763D01*
X19708Y6593D01*
X19684Y6410D01*
X19708Y6227D01*
X19779Y6057D01*
X19891Y5911D01*
X19965Y5854D01*
X19965Y5696D01*
X19891Y5639D01*
X19779Y5493D01*
X19708Y5323D01*
X19684Y5140D01*
X19708Y4957D01*
X19779Y4787D01*
X19891Y4641D01*
X19965Y4584D01*
X19965Y4426D01*
X19891Y4369D01*
X19779Y4223D01*
X19708Y4053D01*
X19684Y3870D01*
X19708Y3687D01*
X19779Y3517D01*
X19891Y3371D01*
X19965Y3314D01*
X19965Y3156D01*
X19891Y3099D01*
X19779Y2953D01*
X19708Y2783D01*
X19684Y2600D01*
X19708Y2417D01*
X19779Y2247D01*
X19891Y2101D01*
X19965Y2044D01*
X19965Y1886D01*
X19891Y1829D01*
X19779Y1683D01*
X19708Y1513D01*
X19684Y1330D01*
X19695Y1245D01*
X19611Y1150D01*
X19530Y1150D01*
X19500Y1162D01*
X10158Y1162D01*
X10152Y1191D01*
X10063Y1324D01*
X9931Y1412D01*
X9775Y1443D01*
X9619Y1412D01*
X9487Y1324D01*
X9398Y1191D01*
X9392Y1162D01*
X3500Y1162D01*
X3470Y1150D01*
X3389Y1150D01*
X3305Y1245D01*
X3316Y1330D01*
X3292Y1513D01*
X3221Y1683D01*
X3109Y1829D01*
X3035Y1886D01*
X3035Y2044D01*
X3109Y2101D01*
X3221Y2247D01*
X3292Y2417D01*
X3316Y2600D01*
X3292Y2783D01*
X3221Y2953D01*
X3109Y3099D01*
X3097Y3108D01*
X3097Y3235D01*
X3181Y3299D01*
X3309Y3467D01*
X3389Y3661D01*
X3391Y3670D01*
X2610Y3670D01*
X1829Y3670D01*
X1831Y3661D01*
X1911Y3467D01*
X2039Y3299D01*
X2123Y3235D01*
X2123Y3108D01*
X2111Y3099D01*
X1999Y2953D01*
X1928Y2783D01*
X1904Y2600D01*
X1928Y2417D01*
X1999Y2247D01*
X2111Y2101D01*
X2185Y2044D01*
X2185Y1886D01*
X2111Y1829D01*
X1999Y1683D01*
X1928Y1513D01*
X1904Y1330D01*
X1915Y1245D01*
X1831Y1150D01*
X1462Y1150D01*
X1462Y17975D01*
X9850Y17975D01*
X9850Y16850D01*
X13150Y16850D01*
X13150Y17975D01*
X18900Y17975D01*
X18912Y17848D01*
X18819Y17829D01*
X18670Y17730D01*
X18570Y17581D01*
X18535Y17405D01*
X18570Y17230D01*
X18670Y17081D01*
X18819Y16982D01*
X18994Y16947D01*
X19170Y16982D01*
X19319Y17081D01*
X19418Y17230D01*
X19453Y17405D01*
X19418Y17581D01*
X19319Y17730D01*
X19170Y17829D01*
X19076Y17848D01*
X19089Y17975D01*
X21105Y17975D01*
X21173Y17848D01*
X21173Y17848D02*
G37*
%LPC*%
G36*
X3469Y17484D02*
X3293Y17449D01*
X3145Y17349D01*
X3045Y17201D01*
X3010Y17025D01*
X3045Y16849D01*
X3145Y16701D01*
X3293Y16601D01*
X3469Y16566D01*
X3645Y16601D01*
X3793Y16701D01*
X3893Y16849D01*
X3928Y17025D01*
X3893Y17201D01*
X3793Y17349D01*
X3645Y17449D01*
X3469Y17484D01*
X3469Y17484D02*
G37*
G36*
X9164Y17069D02*
X8989Y17034D01*
X8840Y16935D01*
X8741Y16786D01*
X8706Y16610D01*
X8741Y16435D01*
X8840Y16286D01*
X8989Y16186D01*
X9164Y16151D01*
X9340Y16186D01*
X9489Y16286D01*
X9588Y16435D01*
X9623Y16610D01*
X9588Y16786D01*
X9489Y16935D01*
X9340Y17034D01*
X9164Y17069D01*
X9164Y17069D02*
G37*
G36*
X17800Y16543D02*
X17644Y16512D01*
X17512Y16424D01*
X17423Y16292D01*
X17392Y16136D01*
X17423Y15979D01*
X17512Y15847D01*
X17644Y15759D01*
X17800Y15728D01*
X17956Y15759D01*
X18088Y15847D01*
X18177Y15979D01*
X18208Y16136D01*
X18177Y16292D01*
X18088Y16424D01*
X17956Y16512D01*
X17800Y16543D01*
X17800Y16543D02*
G37*
G36*
X14303Y15586D02*
X14089Y15543D01*
X13907Y15422D01*
X13785Y15240D01*
X13742Y15025D01*
X13785Y14810D01*
X13907Y14628D01*
X14089Y14507D01*
X14303Y14464D01*
X14518Y14507D01*
X14700Y14628D01*
X14821Y14810D01*
X14864Y15025D01*
X14821Y15240D01*
X14700Y15422D01*
X14518Y15543D01*
X14303Y15586D01*
X14303Y15586D02*
G37*
G36*
X11990Y15657D02*
X11134Y15657D01*
X11019Y15610D01*
X9564Y14154D01*
X9523Y14161D01*
X9434Y14204D01*
X9406Y14349D01*
X9306Y14498D01*
X9157Y14597D01*
X8982Y14632D01*
X8806Y14597D01*
X8657Y14498D01*
X8558Y14349D01*
X8523Y14173D01*
X8558Y13998D01*
X8657Y13849D01*
X8806Y13749D01*
X8950Y13721D01*
X8994Y13632D01*
X9000Y13591D01*
X8597Y13187D01*
X8482Y13252D01*
X8509Y13391D01*
X8474Y13567D01*
X8375Y13715D01*
X8226Y13815D01*
X8050Y13850D01*
X7875Y13815D01*
X7726Y13715D01*
X7627Y13567D01*
X7592Y13391D01*
X7627Y13215D01*
X7726Y13067D01*
X7875Y12967D01*
X8050Y12932D01*
X8190Y12960D01*
X8254Y12845D01*
X7185Y11776D01*
X7138Y11661D01*
X7138Y10690D01*
X4426Y7979D01*
X4379Y7864D01*
X4379Y5233D01*
X4375Y5222D01*
X4376Y5194D01*
X4375Y5193D01*
X4376Y5192D01*
X4364Y5165D01*
X4377Y5133D01*
X4378Y5098D01*
X4400Y5077D01*
X4412Y5050D01*
X4589Y4872D01*
X4589Y4823D01*
X4637Y4708D01*
X4752Y4661D01*
X5400Y4661D01*
X5515Y4708D01*
X6017Y5210D01*
X6064Y5325D01*
X6064Y7167D01*
X8950Y10052D01*
X8997Y10167D01*
X8997Y11242D01*
X10630Y12875D01*
X10781Y12846D01*
X10804Y12793D01*
X10786Y12756D01*
X10773Y12742D01*
X10634Y12649D01*
X10535Y12501D01*
X10500Y12325D01*
X10535Y12149D01*
X10634Y12001D01*
X10783Y11901D01*
X10958Y11866D01*
X11134Y11901D01*
X11283Y12001D01*
X11382Y12149D01*
X11417Y12325D01*
X11394Y12443D01*
X11463Y12587D01*
X11612Y12686D01*
X11711Y12835D01*
X11746Y13011D01*
X11711Y13186D01*
X11612Y13335D01*
X11463Y13435D01*
X11385Y13450D01*
X11343Y13588D01*
X12105Y14349D01*
X12152Y14464D01*
X12152Y15495D01*
X12105Y15610D01*
X11990Y15657D01*
X11990Y15657D02*
G37*
G36*
X17100Y14324D02*
X16944Y14293D01*
X16812Y14205D01*
X16723Y14073D01*
X16692Y13917D01*
X16723Y13761D01*
X16812Y13628D01*
X16944Y13540D01*
X17100Y13509D01*
X17256Y13540D01*
X17388Y13628D01*
X17477Y13761D01*
X17508Y13917D01*
X17477Y14073D01*
X17388Y14205D01*
X17256Y14293D01*
X17100Y14324D01*
X17100Y14324D02*
G37*
G36*
X14525Y14076D02*
X14349Y14041D01*
X14201Y13941D01*
X14101Y13792D01*
X14066Y13617D01*
X14101Y13441D01*
X14201Y13292D01*
X14349Y13193D01*
X14525Y13158D01*
X14701Y13193D01*
X14849Y13292D01*
X14949Y13441D01*
X14984Y13617D01*
X14949Y13792D01*
X14849Y13941D01*
X14701Y14041D01*
X14525Y14076D01*
X14525Y14076D02*
G37*
G36*
X7219Y13159D02*
X7044Y13124D01*
X6895Y13024D01*
X6796Y12876D01*
X6663Y12860D01*
X6651Y12879D01*
X6502Y12978D01*
X6326Y13013D01*
X6151Y12978D01*
X6002Y12879D01*
X5902Y12730D01*
X5867Y12554D01*
X5902Y12379D01*
X6002Y12230D01*
X6151Y12130D01*
X6326Y12095D01*
X6502Y12130D01*
X6651Y12230D01*
X6750Y12379D01*
X6883Y12394D01*
X6895Y12376D01*
X7044Y12276D01*
X7219Y12241D01*
X7395Y12276D01*
X7544Y12376D01*
X7643Y12524D01*
X7678Y12700D01*
X7643Y12876D01*
X7544Y13024D01*
X7395Y13124D01*
X7219Y13159D01*
X7219Y13159D02*
G37*
G36*
X15425Y13133D02*
X15269Y13102D01*
X15137Y13013D01*
X15048Y12881D01*
X15017Y12725D01*
X15048Y12569D01*
X15137Y12437D01*
X15269Y12348D01*
X15425Y12317D01*
X15581Y12348D01*
X15713Y12437D01*
X15802Y12569D01*
X15833Y12725D01*
X15802Y12881D01*
X15713Y13013D01*
X15581Y13102D01*
X15425Y13133D01*
X15425Y13133D02*
G37*
G36*
X12900Y12739D02*
X12724Y12704D01*
X12576Y12605D01*
X12476Y12456D01*
X12441Y12280D01*
X12476Y12105D01*
X12576Y11956D01*
X12724Y11856D01*
X12900Y11821D01*
X13076Y11856D01*
X13224Y11956D01*
X13324Y12105D01*
X13359Y12280D01*
X13324Y12456D01*
X13224Y12605D01*
X13076Y12704D01*
X12900Y12739D01*
X12900Y12739D02*
G37*
G36*
X4576Y12313D02*
X4401Y12278D01*
X4252Y12178D01*
X4152Y12029D01*
X4117Y11854D01*
X4152Y11678D01*
X4252Y11529D01*
X4401Y11430D01*
X4576Y11395D01*
X4752Y11430D01*
X4901Y11529D01*
X5000Y11678D01*
X5035Y11854D01*
X5000Y12029D01*
X4901Y12178D01*
X4752Y12278D01*
X4576Y12313D01*
X4576Y12313D02*
G37*
G36*
X5000Y11183D02*
X4844Y11152D01*
X4712Y11063D01*
X4623Y10931D01*
X4592Y10775D01*
X4623Y10619D01*
X4712Y10487D01*
X4844Y10398D01*
X5000Y10367D01*
X5156Y10398D01*
X5288Y10487D01*
X5377Y10619D01*
X5408Y10775D01*
X5377Y10931D01*
X5288Y11063D01*
X5156Y11152D01*
X5000Y11183D01*
X5000Y11183D02*
G37*
G36*
X16074Y10891D02*
X15918Y10860D01*
X15786Y10772D01*
X15697Y10639D01*
X15666Y10483D01*
X15697Y10327D01*
X15786Y10195D01*
X15918Y10106D01*
X16074Y10075D01*
X16230Y10106D01*
X16362Y10195D01*
X16451Y10327D01*
X16482Y10483D01*
X16451Y10639D01*
X16362Y10772D01*
X16230Y10860D01*
X16074Y10891D01*
X16074Y10891D02*
G37*
G36*
X12100Y10408D02*
X11944Y10377D01*
X11812Y10288D01*
X11723Y10156D01*
X11692Y10000D01*
X11723Y9844D01*
X11812Y9712D01*
X11944Y9623D01*
X12100Y9592D01*
X12256Y9623D01*
X12388Y9712D01*
X12477Y9844D01*
X12508Y10000D01*
X12477Y10156D01*
X12388Y10288D01*
X12256Y10377D01*
X12100Y10408D01*
X12100Y10408D02*
G37*
G36*
X11100Y10408D02*
X10944Y10377D01*
X10812Y10288D01*
X10723Y10156D01*
X10692Y10000D01*
X10723Y9844D01*
X10812Y9712D01*
X10944Y9623D01*
X11100Y9592D01*
X11256Y9623D01*
X11388Y9712D01*
X11477Y9844D01*
X11508Y10000D01*
X11477Y10156D01*
X11388Y10288D01*
X11256Y10377D01*
X11100Y10408D01*
X11100Y10408D02*
G37*
G36*
X10100Y10408D02*
X9944Y10377D01*
X9812Y10288D01*
X9723Y10156D01*
X9692Y10000D01*
X9723Y9844D01*
X9812Y9712D01*
X9944Y9623D01*
X10100Y9592D01*
X10256Y9623D01*
X10388Y9712D01*
X10477Y9844D01*
X10508Y10000D01*
X10477Y10156D01*
X10388Y10288D01*
X10256Y10377D01*
X10100Y10408D01*
X10100Y10408D02*
G37*
G36*
X5150Y10109D02*
X4974Y10074D01*
X4826Y9974D01*
X4726Y9826D01*
X4691Y9650D01*
X4726Y9474D01*
X4826Y9326D01*
X4974Y9226D01*
X5150Y9191D01*
X5326Y9226D01*
X5474Y9326D01*
X5574Y9474D01*
X5609Y9650D01*
X5574Y9826D01*
X5474Y9974D01*
X5326Y10074D01*
X5150Y10109D01*
X5150Y10109D02*
G37*
G36*
X12100Y9408D02*
X11944Y9377D01*
X11812Y9288D01*
X11723Y9156D01*
X11692Y9000D01*
X11723Y8844D01*
X11812Y8712D01*
X11944Y8623D01*
X12100Y8592D01*
X12256Y8623D01*
X12388Y8712D01*
X12477Y8844D01*
X12508Y9000D01*
X12477Y9156D01*
X12388Y9288D01*
X12256Y9377D01*
X12100Y9408D01*
X12100Y9408D02*
G37*
G36*
X11100Y9408D02*
X10944Y9377D01*
X10812Y9288D01*
X10723Y9156D01*
X10692Y9000D01*
X10723Y8844D01*
X10812Y8712D01*
X10944Y8623D01*
X11100Y8592D01*
X11256Y8623D01*
X11388Y8712D01*
X11477Y8844D01*
X11508Y9000D01*
X11477Y9156D01*
X11388Y9288D01*
X11256Y9377D01*
X11100Y9408D01*
X11100Y9408D02*
G37*
G36*
X10100Y9408D02*
X9944Y9377D01*
X9812Y9288D01*
X9723Y9156D01*
X9692Y9000D01*
X9723Y8844D01*
X9812Y8712D01*
X9944Y8623D01*
X10100Y8592D01*
X10256Y8623D01*
X10388Y8712D01*
X10477Y8844D01*
X10508Y9000D01*
X10477Y9156D01*
X10388Y9288D01*
X10256Y9377D01*
X10100Y9408D01*
X10100Y9408D02*
G37*
G36*
X18332Y9183D02*
X18176Y9152D01*
X18043Y9063D01*
X17955Y8931D01*
X17924Y8775D01*
X17955Y8619D01*
X18043Y8487D01*
X18176Y8398D01*
X18332Y8367D01*
X18488Y8398D01*
X18620Y8487D01*
X18708Y8619D01*
X18739Y8775D01*
X18708Y8931D01*
X18620Y9063D01*
X18488Y9152D01*
X18332Y9183D01*
X18332Y9183D02*
G37*
G36*
X14479Y10303D02*
X14303Y10268D01*
X14154Y10168D01*
X14055Y10020D01*
X14020Y9844D01*
X14055Y9668D01*
X14154Y9520D01*
X14303Y9420D01*
X14479Y9385D01*
X14636Y9416D01*
X14688Y9408D01*
X14774Y9373D01*
X14780Y9344D01*
X14868Y9212D01*
X15000Y9124D01*
X15156Y9092D01*
X15263Y9114D01*
X15335Y8999D01*
X15273Y8906D01*
X15242Y8750D01*
X15273Y8594D01*
X15362Y8462D01*
X15494Y8373D01*
X15650Y8342D01*
X15806Y8373D01*
X15938Y8462D01*
X16027Y8594D01*
X16058Y8750D01*
X16027Y8906D01*
X15938Y9038D01*
X15806Y9127D01*
X15650Y9158D01*
X15543Y9137D01*
X15471Y9252D01*
X15533Y9344D01*
X15564Y9500D01*
X15533Y9656D01*
X15445Y9789D01*
X15312Y9877D01*
X15156Y9908D01*
X15049Y9887D01*
X15000Y9877D01*
X14912Y9971D01*
X14903Y10020D01*
X14803Y10168D01*
X14654Y10268D01*
X14479Y10303D01*
X14479Y10303D02*
G37*
G36*
X12100Y8408D02*
X11944Y8377D01*
X11812Y8288D01*
X11723Y8156D01*
X11692Y8000D01*
X11723Y7844D01*
X11812Y7712D01*
X11944Y7623D01*
X12100Y7592D01*
X12256Y7623D01*
X12388Y7712D01*
X12477Y7844D01*
X12508Y8000D01*
X12477Y8156D01*
X12388Y8288D01*
X12256Y8377D01*
X12100Y8408D01*
X12100Y8408D02*
G37*
G36*
X11100Y8408D02*
X10944Y8377D01*
X10812Y8288D01*
X10723Y8156D01*
X10692Y8000D01*
X10723Y7844D01*
X10812Y7712D01*
X10944Y7623D01*
X11100Y7592D01*
X11256Y7623D01*
X11388Y7712D01*
X11477Y7844D01*
X11508Y8000D01*
X11477Y8156D01*
X11388Y8288D01*
X11256Y8377D01*
X11100Y8408D01*
X11100Y8408D02*
G37*
G36*
X10100Y8408D02*
X9944Y8377D01*
X9812Y8288D01*
X9723Y8156D01*
X9692Y8000D01*
X9723Y7844D01*
X9812Y7712D01*
X9944Y7623D01*
X10100Y7592D01*
X10256Y7623D01*
X10388Y7712D01*
X10477Y7844D01*
X10508Y8000D01*
X10477Y8156D01*
X10388Y8288D01*
X10256Y8377D01*
X10100Y8408D01*
X10100Y8408D02*
G37*
G36*
X17100Y8310D02*
X16944Y8279D01*
X16812Y8190D01*
X16723Y8058D01*
X16692Y7902D01*
X16723Y7746D01*
X16796Y7637D01*
X16776Y7543D01*
X16754Y7499D01*
X16690Y7486D01*
X16558Y7398D01*
X16469Y7266D01*
X16438Y7110D01*
X16469Y6954D01*
X16558Y6821D01*
X16690Y6733D01*
X16846Y6702D01*
X17002Y6733D01*
X17134Y6821D01*
X17223Y6954D01*
X17254Y7110D01*
X17223Y7266D01*
X17150Y7374D01*
X17170Y7469D01*
X17192Y7512D01*
X17256Y7525D01*
X17388Y7613D01*
X17477Y7746D01*
X17508Y7902D01*
X17477Y8058D01*
X17388Y8190D01*
X17256Y8279D01*
X17100Y8310D01*
X17100Y8310D02*
G37*
G36*
X14375Y6808D02*
X14219Y6777D01*
X14087Y6688D01*
X13998Y6556D01*
X13967Y6400D01*
X13998Y6244D01*
X14087Y6112D01*
X14219Y6023D01*
X14375Y5992D01*
X14531Y6023D01*
X14663Y6112D01*
X14752Y6244D01*
X14783Y6400D01*
X14752Y6556D01*
X14663Y6688D01*
X14531Y6777D01*
X14375Y6808D01*
X14375Y6808D02*
G37*
G36*
X7050Y6609D02*
X6874Y6574D01*
X6726Y6474D01*
X6626Y6326D01*
X6591Y6150D01*
X6626Y5974D01*
X6726Y5826D01*
X6874Y5726D01*
X7050Y5691D01*
X7226Y5726D01*
X7374Y5826D01*
X7474Y5974D01*
X7509Y6150D01*
X7474Y6326D01*
X7374Y6474D01*
X7226Y6574D01*
X7050Y6609D01*
X7050Y6609D02*
G37*
G36*
X18729Y6058D02*
X18573Y6027D01*
X18441Y5938D01*
X18353Y5806D01*
X18322Y5650D01*
X18353Y5494D01*
X18441Y5362D01*
X18573Y5273D01*
X18729Y5242D01*
X18885Y5273D01*
X19018Y5362D01*
X19106Y5494D01*
X19137Y5650D01*
X19106Y5806D01*
X19018Y5938D01*
X18885Y6027D01*
X18729Y6058D01*
X18729Y6058D02*
G37*
G36*
X12550Y6074D02*
X12374Y6039D01*
X12226Y5939D01*
X12126Y5790D01*
X12091Y5615D01*
X12126Y5439D01*
X12226Y5290D01*
X12374Y5191D01*
X12550Y5156D01*
X12726Y5191D01*
X12874Y5290D01*
X12974Y5439D01*
X13009Y5615D01*
X12974Y5790D01*
X12874Y5939D01*
X12726Y6039D01*
X12550Y6074D01*
X12550Y6074D02*
G37*
G36*
X10599Y5773D02*
X10443Y5742D01*
X10311Y5654D01*
X10222Y5521D01*
X10191Y5365D01*
X10222Y5209D01*
X10311Y5077D01*
X10443Y4988D01*
X10599Y4957D01*
X10755Y4988D01*
X10887Y5077D01*
X10976Y5209D01*
X11007Y5365D01*
X10976Y5521D01*
X10887Y5654D01*
X10755Y5742D01*
X10599Y5773D01*
X10599Y5773D02*
G37*
G36*
X7250Y5035D02*
X7074Y5000D01*
X6926Y4901D01*
X6826Y4752D01*
X6791Y4576D01*
X6826Y4401D01*
X6926Y4252D01*
X7074Y4153D01*
X7250Y4118D01*
X7426Y4153D01*
X7574Y4252D01*
X7674Y4401D01*
X7709Y4576D01*
X7674Y4752D01*
X7574Y4901D01*
X7426Y5000D01*
X7250Y5035D01*
X7250Y5035D02*
G37*
G36*
X2610Y16006D02*
X2427Y15982D01*
X2257Y15911D01*
X2111Y15799D01*
X1999Y15653D01*
X1928Y15483D01*
X1904Y15300D01*
X1928Y15117D01*
X1999Y14947D01*
X2111Y14801D01*
X2185Y14744D01*
X2185Y14586D01*
X2111Y14529D01*
X1999Y14383D01*
X1928Y14213D01*
X1904Y14030D01*
X1928Y13847D01*
X1999Y13677D01*
X2111Y13531D01*
X2185Y13474D01*
X2185Y13316D01*
X2111Y13259D01*
X1999Y13113D01*
X1928Y12943D01*
X1904Y12760D01*
X1928Y12577D01*
X1999Y12407D01*
X2111Y12261D01*
X2185Y12204D01*
X2185Y12046D01*
X2111Y11989D01*
X1999Y11843D01*
X1928Y11673D01*
X1904Y11490D01*
X1928Y11307D01*
X1999Y11137D01*
X2111Y10991D01*
X2185Y10934D01*
X2185Y10776D01*
X2111Y10719D01*
X1999Y10573D01*
X1928Y10403D01*
X1904Y10220D01*
X1928Y10037D01*
X1999Y9867D01*
X2111Y9721D01*
X2185Y9664D01*
X2185Y9506D01*
X2111Y9449D01*
X1999Y9303D01*
X1928Y9133D01*
X1904Y8950D01*
X1928Y8767D01*
X1999Y8597D01*
X2111Y8451D01*
X2185Y8394D01*
X2185Y8236D01*
X2111Y8179D01*
X1999Y8033D01*
X1928Y7863D01*
X1904Y7680D01*
X1928Y7497D01*
X1999Y7327D01*
X2111Y7181D01*
X2185Y7124D01*
X2185Y6966D01*
X2111Y6909D01*
X1999Y6763D01*
X1928Y6593D01*
X1904Y6410D01*
X1928Y6227D01*
X1999Y6057D01*
X2111Y5911D01*
X2185Y5854D01*
X2185Y5696D01*
X2111Y5639D01*
X1999Y5493D01*
X1928Y5323D01*
X1904Y5140D01*
X1928Y4957D01*
X1999Y4787D01*
X2111Y4641D01*
X2123Y4631D01*
X2123Y4504D01*
X2039Y4441D01*
X1911Y4273D01*
X1831Y4079D01*
X1829Y4070D01*
X2610Y4070D01*
X3391Y4070D01*
X3389Y4079D01*
X3309Y4273D01*
X3181Y4441D01*
X3097Y4504D01*
X3097Y4631D01*
X3109Y4641D01*
X3221Y4787D01*
X3292Y4957D01*
X3316Y5140D01*
X3292Y5323D01*
X3221Y5493D01*
X3109Y5639D01*
X3035Y5696D01*
X3035Y5854D01*
X3109Y5911D01*
X3221Y6057D01*
X3292Y6227D01*
X3316Y6410D01*
X3292Y6593D01*
X3221Y6763D01*
X3109Y6909D01*
X3035Y6966D01*
X3035Y7124D01*
X3109Y7181D01*
X3221Y7327D01*
X3292Y7497D01*
X3316Y7680D01*
X3292Y7863D01*
X3221Y8033D01*
X3109Y8179D01*
X3035Y8236D01*
X3035Y8394D01*
X3109Y8451D01*
X3221Y8597D01*
X3292Y8767D01*
X3316Y8950D01*
X3292Y9133D01*
X3221Y9303D01*
X3109Y9449D01*
X3035Y9506D01*
X3035Y9664D01*
X3109Y9721D01*
X3221Y9867D01*
X3292Y10037D01*
X3316Y10220D01*
X3292Y10403D01*
X3221Y10573D01*
X3109Y10719D01*
X3035Y10776D01*
X3035Y10934D01*
X3109Y10991D01*
X3221Y11137D01*
X3292Y11307D01*
X3316Y11490D01*
X3292Y11673D01*
X3221Y11843D01*
X3109Y11989D01*
X3035Y12046D01*
X3035Y12204D01*
X3109Y12261D01*
X3221Y12407D01*
X3292Y12577D01*
X3316Y12760D01*
X3292Y12943D01*
X3221Y13113D01*
X3109Y13259D01*
X3035Y13316D01*
X3035Y13474D01*
X3109Y13531D01*
X3221Y13677D01*
X3292Y13847D01*
X3316Y14030D01*
X3292Y14213D01*
X3221Y14383D01*
X3109Y14529D01*
X3035Y14586D01*
X3035Y14744D01*
X3109Y14801D01*
X3221Y14947D01*
X3292Y15117D01*
X3316Y15300D01*
X3292Y15483D01*
X3221Y15653D01*
X3109Y15799D01*
X2963Y15911D01*
X2793Y15982D01*
X2610Y16006D01*
X2610Y16006D02*
G37*
G36*
X9667Y4858D02*
X9511Y4827D01*
X9379Y4739D01*
X9290Y4606D01*
X9259Y4450D01*
X9290Y4294D01*
X9379Y4162D01*
X9511Y4073D01*
X9667Y4042D01*
X9823Y4073D01*
X9956Y4162D01*
X10044Y4294D01*
X10075Y4450D01*
X10044Y4606D01*
X9956Y4739D01*
X9823Y4827D01*
X9667Y4858D01*
X9667Y4858D02*
G37*
G36*
X5831Y3008D02*
X5675Y2977D01*
X5543Y2888D01*
X5454Y2756D01*
X5423Y2600D01*
X5454Y2444D01*
X5543Y2312D01*
X5675Y2223D01*
X5831Y2192D01*
X5987Y2223D01*
X6119Y2312D01*
X6208Y2444D01*
X6239Y2600D01*
X6208Y2756D01*
X6119Y2888D01*
X5987Y2977D01*
X5831Y3008D01*
X5831Y3008D02*
G37*
%LPD*%
G36*
X11990Y14464D02*
X8835Y11309D01*
X8835Y10167D01*
X5902Y7234D01*
X5902Y5325D01*
X5400Y4823D01*
X4752Y4823D01*
X4752Y4939D01*
X4527Y5165D01*
X4537Y5193D01*
X4541Y5197D01*
X4541Y7864D01*
X7300Y10623D01*
X7300Y11661D01*
X11134Y15495D01*
X11990Y15495D01*
X11990Y14464D01*
X11990Y14464D02*
G37*
D22*
X9775Y1035D02*
D03*
X19025Y7789D02*
D03*
X14588Y12684D02*
D03*
X18621Y16136D02*
D03*
X18417Y9562D02*
D03*
X15104Y6500D02*
D03*
D25*
X17400Y29570D02*
D03*
X5600Y29570D02*
D03*
D33*
X21536Y17581D02*
D03*
X13792Y31200D02*
D03*
X12200Y31200D02*
D03*
X10609Y31200D02*
D03*
X9017Y31200D02*
D03*
X7361Y26995D02*
D03*
X16074Y26000D02*
D03*
X18403Y25330D02*
D03*
X6761Y18480D02*
D03*
X6522Y23170D02*
D03*
X16476Y23148D02*
D03*
X6728Y20965D02*
D03*
X16434Y21115D02*
D03*
X15616Y31200D02*
D03*
X7361Y31200D02*
D03*
X7850Y7167D02*
D03*
X7592Y5463D02*
D03*
X700Y6700D02*
D03*
X700Y700D02*
D03*
X4600Y700D02*
D03*
X700Y4700D02*
D03*
X700Y2700D02*
D03*
X20126Y18976D02*
D03*
X21027Y19900D02*
D03*
X21500Y30800D02*
D03*
X19525Y30800D02*
D03*
X3525Y30800D02*
D03*
X1500Y30800D02*
D03*
X22300Y30300D02*
D03*
X22300Y28700D02*
D03*
X22300Y26700D02*
D03*
X22300Y24700D02*
D03*
X22300Y22700D02*
D03*
X22300Y20700D02*
D03*
X22100Y18700D02*
D03*
X700Y30300D02*
D03*
X700Y28700D02*
D03*
X700Y24700D02*
D03*
X700Y22700D02*
D03*
X700Y20700D02*
D03*
X700Y26700D02*
D03*
X700Y18700D02*
D03*
X700Y10700D02*
D03*
X700Y12700D02*
D03*
X700Y14700D02*
D03*
X700Y16700D02*
D03*
X700Y8700D02*
D03*
X22300Y10700D02*
D03*
X22300Y12700D02*
D03*
X22300Y14700D02*
D03*
X22300Y16700D02*
D03*
X22300Y2700D02*
D03*
X22300Y4700D02*
D03*
X22300Y6700D02*
D03*
X22300Y8700D02*
D03*
X16500Y700D02*
D03*
X14500Y700D02*
D03*
X12500Y700D02*
D03*
X10500Y700D02*
D03*
X8500Y700D02*
D03*
X6500Y700D02*
D03*
X22300Y700D02*
D03*
X18500Y700D02*
D03*
X14375Y7725D02*
D03*
X2600Y20025D02*
D03*
X15620Y29020D02*
D03*
X15620Y28004D02*
D03*
X15620Y26995D02*
D03*
X7361Y29049D02*
D03*
X7361Y27991D02*
D03*
X2225Y26700D02*
D03*
X4359Y25450D02*
D03*
X4088Y21175D02*
D03*
X6818Y26021D02*
D03*
X9419Y20075D02*
D03*
X13575Y20225D02*
D03*
X14876Y18800D02*
D03*
X18114Y18675D02*
D03*
X21027Y26000D02*
D03*
X20918Y28725D02*
D03*
D34*
X11448Y15010D02*
D03*
X5158Y5650D02*
D03*
D35*
X2610Y3870D02*
D03*
D36*
X2600Y21650D02*
D03*
X2600Y22920D02*
D03*
X2600Y24190D02*
D03*
X20390Y21650D02*
D03*
X20390Y22920D02*
D03*
X20390Y24190D02*
D03*
D37*
X22200Y9825D02*
D03*
D38*
X854Y9750D02*
D03*
D39*
X11500Y750D02*
D03*
M02*
