M48
;Layer_Color=9474304
;FILE_FORMAT=4:3
METRIC,TZ
;TYPE=PLATED
T01F00S00C0.300
T02F00S00C0.400
T03F00S00C0.635
T04F00S00C0.700
T05F00S00C0.900
T06F00S00C1.300
%
T01
X22300Y700
X22300Y2700
X22300Y4700
X22300Y6700
X22300Y8700
X22300Y10700
X22300Y12700
X22300Y14700
X22300Y16700
X21536Y17581
X22100Y18700
X22300Y20700
X21027Y19900
X20126Y18976
X18114Y18675
X18994Y17405
X18621Y16136
X17800Y16136
X17100Y13917
X15425Y12725
X14588Y12684
X14525Y13617
X12900Y12280
X10958Y12325
X11287Y13011
X11100Y10000
X12100Y10000
X12100Y9000
X12100Y8000
X11100Y8000
X10100Y8000
X10100Y9000
X10100Y10000
X11100Y9000
X10599Y5365
X9667Y4450
X7250Y4576
X7592Y5463
X7050Y6150
X7850Y7167
X5150Y9650
X5000Y10775
X4576Y11854
X6326Y12554
X7219Y12700
X8050Y13391
X8982Y14173
X9164Y16610
X9419Y20075
X6728Y20965
X6761Y18480
X3469Y17025
X700Y16700
X700Y14700
X700Y12700
X700Y10700
X700Y8700
X700Y6700
X700Y4700
X700Y2700
X700Y700
X4600Y700
X6500Y700
X8500Y700
X9775Y1035
X10500Y700
X12500Y700
X14500Y700
X16500Y700
X18500Y700
X18729Y5650
X19025Y7789
X18332Y8775
X18417Y9562
X17100Y7902
X16846Y7110
X15104Y6500
X14375Y6400
X14375Y7725
X14479Y9844
X15156Y9500
X15650Y8750
X16074Y10483
X12550Y5615
X5831Y2600
X4088Y21175
X2600Y20025
X700Y20700
X700Y18700
X14876Y18800
X13575Y20225
X16434Y21115
X16476Y23148
X16074Y26000
X15620Y26995
X15620Y28004
X15620Y29020
X15616Y31200
X13792Y31200
X12200Y31200
X10609Y31200
X9017Y31200
X7361Y31200
X7361Y29049
X7361Y27991
X7361Y26995
X6818Y26021
X4359Y25450
X2225Y26700
X700Y26700
X700Y28700
X700Y30300
X1500Y30800
X3525Y30800
X700Y24700
X700Y22700
X6522Y23170
X10675Y23385
X12325Y23375
X18403Y25330
X19525Y30800
X21500Y30800
X22300Y30300
X22300Y28700
X20918Y28725
X21027Y26000
X22300Y26700
X22300Y24700
X22300Y22700
T02
X5158Y5650
X11448Y15010
X14303Y15025
T03
X2610Y1330
X2610Y2600
X2610Y3870
X2610Y5140
X2610Y6410
X2610Y7680
X2610Y8950
X2610Y10220
X2610Y11490
X2610Y12760
X2610Y14030
X2610Y15300
X20390Y15300
X20390Y14030
X20390Y12760
X20390Y11490
X20390Y10220
X20390Y8950
X20390Y7680
X20390Y6410
X20390Y5140
X20390Y3870
X20390Y2600
X20390Y1330
T04
X2600Y21650
X20390Y21650
X20390Y22920
X20390Y24190
X2600Y24190
X2600Y22920
T05
X5600Y27030
X5600Y29570
X17400Y29570
X17400Y27030
T06
X9750Y28600
X13250Y28600
M30
