M48
; DRILL file {KiCad 7.0.9} date Sat Dec  2 23:08:10 2023
; FORMAT={-:-/ absolute / metric / decimal}
; #@! TF.CreationDate,2023-12-02T23:08:10+09:00
; #@! TF.GenerationSoftware,Kicad,Pcbnew,7.0.9
; #@! TF.FileFunction,NonPlated,1,2,NPTH
FMAT,2
METRIC
; #@! TA.AperFunction,NonPlated,NPTH,ComponentDrill
T1C0.500
; #@! TA.AperFunction,NonPlated,NPTH,ComponentDrill
T2C1.000
%
G90
G05
T1
X104.987Y-26.0
X104.987Y-113.28
X105.844Y-26.0
X105.844Y-113.28
X106.702Y-26.0
X106.702Y-113.28
X107.559Y-26.0
X107.559Y-113.28
X110.073Y-34.41
X110.073Y-35.285
X110.073Y-36.16
X110.073Y-37.035
X110.073Y-37.91
X110.073Y-56.73
X110.073Y-57.605
X110.073Y-58.48
X110.073Y-59.355
X110.073Y-60.23
X110.073Y-79.05
X110.073Y-79.925
X110.073Y-80.8
X110.073Y-81.675
X110.073Y-82.55
X110.073Y-101.37
X110.073Y-102.245
X110.073Y-103.12
X110.073Y-103.995
X110.073Y-104.87
X110.273Y-20.714
X110.273Y-21.571
X110.273Y-22.429
X110.273Y-23.286
X110.273Y-115.994
X110.273Y-116.851
X110.273Y-117.709
X110.273Y-118.566
X134.008Y-25.8
X134.008Y-46.52
X134.008Y-48.12
X134.008Y-68.84
X134.008Y-70.44
X134.008Y-91.16
X134.008Y-92.76
X134.008Y-113.48
X134.883Y-25.8
X134.883Y-46.52
X134.883Y-48.12
X134.883Y-68.84
X134.883Y-70.44
X134.883Y-91.16
X134.883Y-92.76
X134.883Y-113.48
X135.758Y-25.8
X135.758Y-46.52
X135.758Y-48.12
X135.758Y-68.84
X135.758Y-70.44
X135.758Y-91.16
X135.758Y-92.76
X135.758Y-113.48
X136.633Y-25.8
X136.633Y-46.52
X136.633Y-48.12
X136.633Y-68.84
X136.633Y-70.44
X136.633Y-91.16
X136.633Y-92.76
X136.633Y-113.48
X137.508Y-25.8
X137.508Y-46.52
X137.508Y-48.12
X137.508Y-68.84
X137.508Y-70.44
X137.508Y-91.16
X137.508Y-92.76
X137.508Y-113.48
X159.492Y-25.8
X159.492Y-46.52
X159.492Y-48.12
X159.492Y-68.84
X159.492Y-70.44
X159.492Y-91.16
X159.492Y-92.76
X159.492Y-113.48
X160.367Y-25.8
X160.367Y-46.52
X160.367Y-48.12
X160.367Y-68.84
X160.367Y-70.44
X160.367Y-91.16
X160.367Y-92.76
X160.367Y-113.48
X161.242Y-25.8
X161.242Y-46.52
X161.242Y-48.12
X161.242Y-68.84
X161.242Y-70.44
X161.242Y-91.16
X161.242Y-92.76
X161.242Y-113.48
X162.117Y-25.8
X162.117Y-46.52
X162.117Y-48.12
X162.117Y-68.84
X162.117Y-70.44
X162.117Y-91.16
X162.117Y-92.76
X162.117Y-113.48
X162.992Y-25.8
X162.992Y-46.52
X162.992Y-48.12
X162.992Y-68.84
X162.992Y-70.44
X162.992Y-91.16
X162.992Y-92.76
X162.992Y-113.48
X186.727Y-20.714
X186.727Y-21.571
X186.727Y-22.429
X186.727Y-23.286
X186.727Y-115.994
X186.727Y-116.851
X186.727Y-117.709
X186.727Y-118.566
X186.927Y-34.41
X186.927Y-35.285
X186.927Y-36.16
X186.927Y-37.035
X186.927Y-37.91
X186.927Y-56.73
X186.927Y-57.605
X186.927Y-58.48
X186.927Y-59.355
X186.927Y-60.23
X186.927Y-79.05
X186.927Y-79.925
X186.927Y-80.8
X186.927Y-81.675
X186.927Y-82.55
X186.927Y-101.37
X186.927Y-102.245
X186.927Y-103.12
X186.927Y-103.995
X186.927Y-104.87
X189.441Y-26.0
X189.441Y-113.28
X190.298Y-26.0
X190.298Y-113.28
X191.156Y-26.0
X191.156Y-113.28
X192.013Y-26.0
X192.013Y-113.28
T2
X178.448Y-38.446
X178.448Y-43.446
X178.448Y-60.766
X178.448Y-65.766
X178.448Y-83.086
X178.448Y-88.086
X178.448Y-105.406
X178.448Y-110.406
T0
M30
