M48
; DRILL file {KiCad 7.0.9} date Sat Dec  2 23:08:10 2023
; FORMAT={-:-/ absolute / metric / decimal}
; #@! TF.CreationDate,2023-12-02T23:08:10+09:00
; #@! TF.GenerationSoftware,Kicad,Pcbnew,7.0.9
; #@! TF.FileFunction,Plated,1,2,PTH
FMAT,2
METRIC
; #@! TA.AperFunction,Plated,PTH,ViaDrill
T1C0.250
; #@! TA.AperFunction,Plated,PTH,ViaDrill
T2C0.400
; #@! TA.AperFunction,Plated,PTH,ComponentDrill
T3C0.700
; #@! TA.AperFunction,Plated,PTH,ComponentDrill
T4C0.730
; #@! TA.AperFunction,Plated,PTH,ComponentDrill
T5C0.800
; #@! TA.AperFunction,Plated,PTH,ComponentDrill
T6C1.000
; #@! TA.AperFunction,Plated,PTH,ComponentDrill
T7C1.100
; #@! TA.AperFunction,Plated,PTH,ComponentDrill
T8C1.200
%
G90
G05
T1
X125.997Y-28.159
X125.997Y-50.479
X125.997Y-72.799
X125.997Y-95.119
X136.157Y-28.159
X136.157Y-50.479
X136.157Y-72.799
X136.157Y-95.119
X146.317Y-28.159
X146.317Y-50.479
X146.317Y-72.799
X146.317Y-95.119
X156.35Y-28.159
X156.35Y-50.479
X156.35Y-72.799
X156.35Y-95.119
X166.891Y-34.636
X166.891Y-37.176
X166.891Y-39.589
X166.891Y-56.956
X166.891Y-59.496
X166.891Y-61.909
X166.891Y-79.276
X166.891Y-81.816
X166.891Y-84.229
X166.891Y-101.596
X166.891Y-104.136
X166.891Y-106.549
X178.321Y-29.048
X178.321Y-51.368
X178.321Y-73.688
X178.321Y-96.008
T2
X160.922Y-37.684
X160.922Y-60.004
X160.922Y-82.324
X160.922Y-104.644
X163.589Y-32.096
X163.589Y-54.416
X163.589Y-76.736
X163.589Y-99.056
T3
X184.671Y-29.048
X184.671Y-33.62
X184.671Y-51.368
X184.671Y-55.94
X184.671Y-73.688
X184.671Y-78.26
X184.671Y-96.008
X184.671Y-100.58
T4
X156.35Y-38.486
X156.35Y-40.986
X156.35Y-43.486
X156.35Y-60.806
X156.35Y-63.306
X156.35Y-65.806
X156.35Y-83.126
X156.35Y-85.626
X156.35Y-88.126
X156.35Y-105.446
X156.35Y-107.946
X156.35Y-110.446
T5
X124.413Y-41.748
X124.413Y-64.068
X124.413Y-86.388
X124.413Y-108.708
X127.913Y-41.748
X127.913Y-64.068
X127.913Y-86.388
X127.913Y-108.708
X132.459Y-35.916
X132.459Y-43.536
X132.459Y-58.236
X132.459Y-65.856
X132.459Y-80.556
X132.459Y-88.176
X132.459Y-102.876
X132.459Y-110.496
X134.999Y-35.916
X134.999Y-43.536
X134.999Y-58.236
X134.999Y-65.856
X134.999Y-80.556
X134.999Y-88.176
X134.999Y-102.876
X134.999Y-110.496
X137.54Y-35.916
X137.54Y-43.536
X137.54Y-58.236
X137.54Y-65.856
X137.54Y-80.556
X137.54Y-88.176
X137.54Y-102.876
X137.54Y-110.496
X140.079Y-35.916
X140.079Y-43.536
X140.079Y-58.236
X140.079Y-65.856
X140.079Y-80.556
X140.079Y-88.176
X140.079Y-102.876
X140.079Y-110.496
X142.619Y-35.916
X142.619Y-43.536
X142.619Y-58.236
X142.619Y-65.856
X142.619Y-80.556
X142.619Y-88.176
X142.619Y-102.876
X142.619Y-110.496
X145.159Y-35.916
X145.159Y-43.536
X145.159Y-58.236
X145.159Y-65.856
X145.159Y-80.556
X145.159Y-88.176
X145.159Y-102.876
X145.159Y-110.496
X147.7Y-35.916
X147.7Y-43.536
X147.7Y-58.236
X147.7Y-65.856
X147.7Y-80.556
X147.7Y-88.176
X147.7Y-102.876
X147.7Y-110.496
X150.239Y-35.916
X150.239Y-43.536
X150.239Y-58.236
X150.239Y-65.856
X150.239Y-80.556
X150.239Y-88.176
X150.239Y-102.876
X150.239Y-110.496
T6
X114.441Y-29.81
X114.441Y-32.35
X114.441Y-34.89
X114.441Y-37.43
X114.441Y-39.97
X114.441Y-42.51
X114.441Y-52.13
X114.441Y-54.67
X114.441Y-57.21
X114.441Y-59.75
X114.441Y-62.29
X114.441Y-64.83
X114.441Y-74.45
X114.441Y-76.99
X114.441Y-79.53
X114.441Y-82.07
X114.441Y-84.61
X114.441Y-87.15
X114.441Y-96.77
X114.441Y-99.31
X114.441Y-101.85
X114.441Y-104.39
X114.441Y-106.93
X114.441Y-109.47
X116.98Y-29.81
X116.98Y-32.35
X116.98Y-34.89
X116.98Y-37.43
X116.98Y-39.97
X116.98Y-42.51
X116.98Y-52.13
X116.98Y-54.67
X116.98Y-57.21
X116.98Y-59.75
X116.98Y-62.29
X116.98Y-64.83
X116.98Y-74.45
X116.98Y-76.99
X116.98Y-79.53
X116.98Y-82.07
X116.98Y-84.61
X116.98Y-87.15
X116.98Y-96.77
X116.98Y-99.31
X116.98Y-101.85
X116.98Y-104.39
X116.98Y-106.93
X116.98Y-109.47
X161.944Y-41.997
X161.944Y-44.537
X161.944Y-64.317
X161.944Y-66.857
X161.944Y-86.637
X161.944Y-89.177
X161.944Y-108.957
X161.944Y-111.497
X164.483Y-41.997
X164.483Y-44.537
X164.483Y-64.317
X164.483Y-66.857
X164.483Y-86.637
X164.483Y-89.177
X164.483Y-108.957
X164.483Y-111.497
T7
X123.331Y-30.318
X123.331Y-52.638
X123.331Y-74.958
X123.331Y-97.278
X128.41Y-30.318
X128.41Y-52.638
X128.41Y-74.958
X128.41Y-97.278
X133.49Y-30.318
X133.49Y-52.638
X133.49Y-74.958
X133.49Y-97.278
X138.57Y-30.318
X138.57Y-52.638
X138.57Y-74.958
X138.57Y-97.278
X143.65Y-30.318
X143.65Y-52.638
X143.65Y-74.958
X143.65Y-97.278
X148.731Y-30.318
X148.731Y-52.638
X148.731Y-74.958
X148.731Y-97.278
X153.81Y-30.318
X153.81Y-52.638
X153.81Y-74.958
X153.81Y-97.278
X158.891Y-30.318
X158.891Y-52.638
X158.891Y-74.958
X158.891Y-97.278
T8
X174.448Y-38.696
X174.448Y-43.196
X174.448Y-61.016
X174.448Y-65.516
X174.448Y-83.336
X174.448Y-87.836
X174.448Y-105.656
X174.448Y-110.156
X181.948Y-38.046
X181.948Y-43.846
X181.948Y-60.366
X181.948Y-66.166
X181.948Y-82.686
X181.948Y-88.486
X181.948Y-105.006
X181.948Y-110.806
T0
M30
