%TF.GenerationSoftware,KiCad,Pcbnew,7.0.9*%
%TF.CreationDate,2023-12-02T23:05:05+09:00*%
%TF.ProjectId,kikit,6b696b69-742e-46b6-9963-61645f706362,rev?*%
%TF.SameCoordinates,Original*%
%TF.FileFunction,Paste,Top*%
%TF.FilePolarity,Positive*%
%FSLAX46Y46*%
G04 Gerber Fmt 4.6, Leading zero omitted, Abs format (unit mm)*
G04 Created by KiCad (PCBNEW 7.0.9) date 2023-12-02 23:05:05*
%MOMM*%
%LPD*%
G01*
G04 APERTURE LIST*
G04 Aperture macros list*
%AMRoundRect*
0 Rectangle with rounded corners*
0 $1 Rounding radius*
0 $2 $3 $4 $5 $6 $7 $8 $9 X,Y pos of 4 corners*
0 Add a 4 corners polygon primitive as box body*
4,1,4,$2,$3,$4,$5,$6,$7,$8,$9,$2,$3,0*
0 Add four circle primitives for the rounded corners*
1,1,$1+$1,$2,$3*
1,1,$1+$1,$4,$5*
1,1,$1+$1,$6,$7*
1,1,$1+$1,$8,$9*
0 Add four rect primitives between the rounded corners*
20,1,$1+$1,$2,$3,$4,$5,0*
20,1,$1+$1,$4,$5,$6,$7,0*
20,1,$1+$1,$6,$7,$8,$9,0*
20,1,$1+$1,$8,$9,$2,$3,0*%
G04 Aperture macros list end*
%ADD10RoundRect,0.237500X0.300000X0.237500X-0.300000X0.237500X-0.300000X-0.237500X0.300000X-0.237500X0*%
%ADD11RoundRect,0.237500X0.250000X0.237500X-0.250000X0.237500X-0.250000X-0.237500X0.250000X-0.237500X0*%
%ADD12RoundRect,0.237500X0.237500X-0.300000X0.237500X0.300000X-0.237500X0.300000X-0.237500X-0.300000X0*%
%ADD13RoundRect,0.237500X-0.237500X0.300000X-0.237500X-0.300000X0.237500X-0.300000X0.237500X0.300000X0*%
%ADD14RoundRect,0.237500X-0.250000X-0.237500X0.250000X-0.237500X0.250000X0.237500X-0.250000X0.237500X0*%
%ADD15RoundRect,0.237500X-0.237500X0.250000X-0.237500X-0.250000X0.237500X-0.250000X0.237500X0.250000X0*%
%ADD16RoundRect,0.150000X0.825000X0.150000X-0.825000X0.150000X-0.825000X-0.150000X0.825000X-0.150000X0*%
%ADD17RoundRect,0.237500X-0.300000X-0.237500X0.300000X-0.237500X0.300000X0.237500X-0.300000X0.237500X0*%
%ADD18RoundRect,0.237500X0.237500X-0.250000X0.237500X0.250000X-0.237500X0.250000X-0.237500X-0.250000X0*%
G04 APERTURE END LIST*
D10*
%TO.C,C5*%
X182105000Y-29048000D03*
X180380000Y-29048000D03*
%TD*%
D11*
%TO.C,R10*%
X171233000Y-62036000D03*
X169408000Y-62036000D03*
%TD*%
D10*
%TO.C,C7*%
X176009000Y-32096000D03*
X174284000Y-32096000D03*
%TD*%
D11*
%TO.C,R7*%
X171844500Y-54416000D03*
X170019500Y-54416000D03*
%TD*%
D12*
%TO.C,C3*%
X169812500Y-111856500D03*
X169812500Y-110131500D03*
%TD*%
D10*
%TO.C,C4*%
X175501000Y-102612000D03*
X173776000Y-102612000D03*
%TD*%
D13*
%TO.C,C2*%
X152676000Y-110486000D03*
X152676000Y-112211000D03*
%TD*%
D14*
%TO.C,R8*%
X160010000Y-35906000D03*
X161835000Y-35906000D03*
%TD*%
D12*
%TO.C,C3*%
X169812500Y-44896500D03*
X169812500Y-43171500D03*
%TD*%
D15*
%TO.C,R4*%
X171844500Y-65441500D03*
X171844500Y-67266500D03*
%TD*%
D10*
%TO.C,C7*%
X176009000Y-76736000D03*
X174284000Y-76736000D03*
%TD*%
D16*
%TO.C,U3*%
X169304500Y-104874500D03*
X169304500Y-103604500D03*
X169304500Y-102334500D03*
X169304500Y-101064500D03*
X164354500Y-101064500D03*
X164354500Y-102334500D03*
X164354500Y-103604500D03*
X164354500Y-104874500D03*
%TD*%
D14*
%TO.C,R2*%
X145009000Y-108200000D03*
X146834000Y-108200000D03*
%TD*%
D11*
%TO.C,R12*%
X176059000Y-97024000D03*
X174234000Y-97024000D03*
%TD*%
D14*
%TO.C,R8*%
X160010000Y-102866000D03*
X161835000Y-102866000D03*
%TD*%
D17*
%TO.C,C6*%
X162346000Y-39462000D03*
X164071000Y-39462000D03*
%TD*%
D11*
%TO.C,R5*%
X179361000Y-80292000D03*
X177536000Y-80292000D03*
%TD*%
D14*
%TO.C,R11*%
X166209500Y-97024000D03*
X168034500Y-97024000D03*
%TD*%
D11*
%TO.C,R12*%
X176059000Y-74704000D03*
X174234000Y-74704000D03*
%TD*%
D16*
%TO.C,U3*%
X169304500Y-37914500D03*
X169304500Y-36644500D03*
X169304500Y-35374500D03*
X169304500Y-34104500D03*
X164354500Y-34104500D03*
X164354500Y-35374500D03*
X164354500Y-36644500D03*
X164354500Y-37914500D03*
%TD*%
D17*
%TO.C,C6*%
X162346000Y-61782000D03*
X164071000Y-61782000D03*
%TD*%
D12*
%TO.C,C3*%
X169812500Y-67216500D03*
X169812500Y-65491500D03*
%TD*%
D17*
%TO.C,C6*%
X162346000Y-106422000D03*
X164071000Y-106422000D03*
%TD*%
D10*
%TO.C,C7*%
X176009000Y-54416000D03*
X174284000Y-54416000D03*
%TD*%
D14*
%TO.C,R1*%
X148565000Y-63560000D03*
X150390000Y-63560000D03*
%TD*%
D18*
%TO.C,R9*%
X167526500Y-111906500D03*
X167526500Y-110081500D03*
%TD*%
D10*
%TO.C,C5*%
X182105000Y-96008000D03*
X180380000Y-96008000D03*
%TD*%
%TO.C,C4*%
X175501000Y-80292000D03*
X173776000Y-80292000D03*
%TD*%
D11*
%TO.C,R10*%
X171233000Y-39716000D03*
X169408000Y-39716000D03*
%TD*%
D13*
%TO.C,C2*%
X152676000Y-88166000D03*
X152676000Y-89891000D03*
%TD*%
D10*
%TO.C,C5*%
X182105000Y-73688000D03*
X180380000Y-73688000D03*
%TD*%
D11*
%TO.C,R12*%
X176059000Y-30064000D03*
X174234000Y-30064000D03*
%TD*%
D15*
%TO.C,R4*%
X171844500Y-87761500D03*
X171844500Y-89586500D03*
%TD*%
D14*
%TO.C,R11*%
X166209500Y-52384000D03*
X168034500Y-52384000D03*
%TD*%
D11*
%TO.C,R10*%
X171233000Y-84356000D03*
X169408000Y-84356000D03*
%TD*%
D14*
%TO.C,R1*%
X148565000Y-41240000D03*
X150390000Y-41240000D03*
%TD*%
%TO.C,R8*%
X160010000Y-58226000D03*
X161835000Y-58226000D03*
%TD*%
D11*
%TO.C,R5*%
X179361000Y-57972000D03*
X177536000Y-57972000D03*
%TD*%
D16*
%TO.C,U3*%
X169304500Y-82554500D03*
X169304500Y-81284500D03*
X169304500Y-80014500D03*
X169304500Y-78744500D03*
X164354500Y-78744500D03*
X164354500Y-80014500D03*
X164354500Y-81284500D03*
X164354500Y-82554500D03*
%TD*%
D10*
%TO.C,C4*%
X175501000Y-57972000D03*
X173776000Y-57972000D03*
%TD*%
D13*
%TO.C,C2*%
X152676000Y-65846000D03*
X152676000Y-67571000D03*
%TD*%
D14*
%TO.C,R6*%
X166209500Y-99056000D03*
X168034500Y-99056000D03*
%TD*%
%TO.C,R6*%
X166209500Y-76736000D03*
X168034500Y-76736000D03*
%TD*%
D17*
%TO.C,C6*%
X162346000Y-84102000D03*
X164071000Y-84102000D03*
%TD*%
D14*
%TO.C,R2*%
X145009000Y-85880000D03*
X146834000Y-85880000D03*
%TD*%
D13*
%TO.C,C2*%
X152676000Y-43526000D03*
X152676000Y-45251000D03*
%TD*%
D10*
%TO.C,C4*%
X175501000Y-35652000D03*
X173776000Y-35652000D03*
%TD*%
%TO.C,C5*%
X182105000Y-51368000D03*
X180380000Y-51368000D03*
%TD*%
D11*
%TO.C,R7*%
X171844500Y-99056000D03*
X170019500Y-99056000D03*
%TD*%
D14*
%TO.C,R1*%
X148565000Y-85880000D03*
X150390000Y-85880000D03*
%TD*%
D11*
%TO.C,R5*%
X179361000Y-102612000D03*
X177536000Y-102612000D03*
%TD*%
D14*
%TO.C,R11*%
X166209500Y-74704000D03*
X168034500Y-74704000D03*
%TD*%
D11*
%TO.C,R7*%
X171844500Y-76736000D03*
X170019500Y-76736000D03*
%TD*%
D10*
%TO.C,C7*%
X176009000Y-99056000D03*
X174284000Y-99056000D03*
%TD*%
D16*
%TO.C,U3*%
X169304500Y-60234500D03*
X169304500Y-58964500D03*
X169304500Y-57694500D03*
X169304500Y-56424500D03*
X164354500Y-56424500D03*
X164354500Y-57694500D03*
X164354500Y-58964500D03*
X164354500Y-60234500D03*
%TD*%
D15*
%TO.C,R4*%
X171844500Y-110081500D03*
X171844500Y-111906500D03*
%TD*%
D11*
%TO.C,R5*%
X179361000Y-35652000D03*
X177536000Y-35652000D03*
%TD*%
D14*
%TO.C,R6*%
X166209500Y-54416000D03*
X168034500Y-54416000D03*
%TD*%
D11*
%TO.C,R10*%
X171233000Y-106676000D03*
X169408000Y-106676000D03*
%TD*%
D14*
%TO.C,R11*%
X166209500Y-30064000D03*
X168034500Y-30064000D03*
%TD*%
D12*
%TO.C,C3*%
X169812500Y-89536500D03*
X169812500Y-87811500D03*
%TD*%
D14*
%TO.C,R2*%
X145009000Y-63560000D03*
X146834000Y-63560000D03*
%TD*%
%TO.C,R8*%
X160010000Y-80546000D03*
X161835000Y-80546000D03*
%TD*%
D18*
%TO.C,R9*%
X167526500Y-44946500D03*
X167526500Y-43121500D03*
%TD*%
D14*
%TO.C,R6*%
X166209500Y-32096000D03*
X168034500Y-32096000D03*
%TD*%
D18*
%TO.C,R9*%
X167526500Y-67266500D03*
X167526500Y-65441500D03*
%TD*%
D15*
%TO.C,R4*%
X171844500Y-43121500D03*
X171844500Y-44946500D03*
%TD*%
D18*
%TO.C,R9*%
X167526500Y-89586500D03*
X167526500Y-87761500D03*
%TD*%
D11*
%TO.C,R7*%
X171844500Y-32096000D03*
X170019500Y-32096000D03*
%TD*%
D14*
%TO.C,R1*%
X148565000Y-108200000D03*
X150390000Y-108200000D03*
%TD*%
%TO.C,R2*%
X145009000Y-41240000D03*
X146834000Y-41240000D03*
%TD*%
D11*
%TO.C,R12*%
X176059000Y-52384000D03*
X174234000Y-52384000D03*
%TD*%
M02*
