%TF.GenerationSoftware,KiCad,Pcbnew,7.0.9*%
%TF.CreationDate,2024-01-17T02:10:24+09:00*%
%TF.ProjectId,Pmod_CAN,506d6f64-5f43-4414-9e2e-6b696361645f,rev?*%
%TF.SameCoordinates,Original*%
%TF.FileFunction,Copper,L1,Top*%
%TF.FilePolarity,Positive*%
%FSLAX46Y46*%
G04 Gerber Fmt 4.6, Leading zero omitted, Abs format (unit mm)*
G04 Created by KiCad (PCBNEW 7.0.9) date 2024-01-17 02:10:24*
%MOMM*%
%LPD*%
G01*
G04 APERTURE LIST*
G04 Aperture macros list*
%AMRoundRect*
0 Rectangle with rounded corners*
0 $1 Rounding radius*
0 $2 $3 $4 $5 $6 $7 $8 $9 X,Y pos of 4 corners*
0 Add a 4 corners polygon primitive as box body*
4,1,4,$2,$3,$4,$5,$6,$7,$8,$9,$2,$3,0*
0 Add four circle primitives for the rounded corners*
1,1,$1+$1,$2,$3*
1,1,$1+$1,$4,$5*
1,1,$1+$1,$6,$7*
1,1,$1+$1,$8,$9*
0 Add four rect primitives between the rounded corners*
20,1,$1+$1,$2,$3,$4,$5,0*
20,1,$1+$1,$4,$5,$6,$7,0*
20,1,$1+$1,$6,$7,$8,$9,0*
20,1,$1+$1,$8,$9,$2,$3,0*%
G04 Aperture macros list end*
%TA.AperFunction,SMDPad,CuDef*%
%ADD10R,0.700000X1.550000*%
%TD*%
%TA.AperFunction,ComponentPad*%
%ADD11R,1.700000X1.700000*%
%TD*%
%TA.AperFunction,ComponentPad*%
%ADD12O,1.700000X1.700000*%
%TD*%
%TA.AperFunction,SMDPad,CuDef*%
%ADD13RoundRect,0.237500X0.300000X0.237500X-0.300000X0.237500X-0.300000X-0.237500X0.300000X-0.237500X0*%
%TD*%
%TA.AperFunction,SMDPad,CuDef*%
%ADD14R,0.900000X1.500000*%
%TD*%
%TA.AperFunction,SMDPad,CuDef*%
%ADD15RoundRect,0.237500X-0.250000X-0.237500X0.250000X-0.237500X0.250000X0.237500X-0.250000X0.237500X0*%
%TD*%
%TA.AperFunction,ComponentPad*%
%ADD16C,1.600000*%
%TD*%
%TA.AperFunction,ComponentPad*%
%ADD17O,1.600000X1.600000*%
%TD*%
%TA.AperFunction,ComponentPad*%
%ADD18R,1.650000X1.650000*%
%TD*%
%TA.AperFunction,ComponentPad*%
%ADD19C,1.650000*%
%TD*%
%TA.AperFunction,SMDPad,CuDef*%
%ADD20R,0.800000X1.800000*%
%TD*%
%TA.AperFunction,SMDPad,CuDef*%
%ADD21RoundRect,0.237500X0.237500X-0.250000X0.237500X0.250000X-0.237500X0.250000X-0.237500X-0.250000X0*%
%TD*%
%TA.AperFunction,SMDPad,CuDef*%
%ADD22R,1.600000X2.070000*%
%TD*%
%TA.AperFunction,ViaPad*%
%ADD23C,0.500000*%
%TD*%
%TA.AperFunction,ViaPad*%
%ADD24C,0.800000*%
%TD*%
%TA.AperFunction,ViaPad*%
%ADD25C,0.600000*%
%TD*%
%TA.AperFunction,Conductor*%
%ADD26C,0.500000*%
%TD*%
%TA.AperFunction,Conductor*%
%ADD27C,0.250000*%
%TD*%
G04 APERTURE END LIST*
D10*
%TO.P,IC1,1,TXD*%
%TO.N,Net-(IC1-TXD)*%
X155829000Y-107119000D03*
%TO.P,IC1,2,GND*%
%TO.N,GND*%
X157099000Y-107119000D03*
%TO.P,IC1,3,VCC*%
%TO.N,/+5V*%
X158369000Y-107119000D03*
%TO.P,IC1,4,RXD*%
%TO.N,Net-(IC1-RXD)*%
X159639000Y-107119000D03*
%TO.P,IC1,5,VIO*%
%TO.N,+3V3*%
X159639000Y-101669000D03*
%TO.P,IC1,6,CANL*%
%TO.N,Net-(IC1-CANL)*%
X158369000Y-101669000D03*
%TO.P,IC1,7,CANH*%
%TO.N,Net-(IC1-CANH)*%
X157099000Y-101669000D03*
%TO.P,IC1,8,S*%
%TO.N,Net-(IC1-S)*%
X155829000Y-101669000D03*
%TD*%
D11*
%TO.P,J2,1,Pin_1*%
%TO.N,Net-(IC1-S)*%
X139573000Y-91821000D03*
D12*
%TO.P,J2,2,Pin_2*%
%TO.N,Net-(IC1-RXD)*%
X139573000Y-94361000D03*
%TO.P,J2,3,Pin_3*%
%TO.N,Net-(IC1-TXD)*%
X139573000Y-96901000D03*
%TO.P,J2,4,Pin_4*%
%TO.N,Net-(J2-Pin_4)*%
X139573000Y-99441000D03*
%TO.P,J2,5,Pin_5*%
%TO.N,GND*%
X139573000Y-101981000D03*
%TO.P,J2,6,Pin_6*%
%TO.N,+3V3*%
X139573000Y-104521000D03*
%TO.P,J2,7,Pin_7*%
%TO.N,unconnected-(J2-Pin_7-Pad7)*%
X137033000Y-91821000D03*
%TO.P,J2,8,Pin_8*%
%TO.N,unconnected-(J2-Pin_8-Pad8)*%
X137033000Y-94361000D03*
%TO.P,J2,9,Pin_9*%
%TO.N,unconnected-(J2-Pin_9-Pad9)*%
X137033000Y-96901000D03*
%TO.P,J2,10,Pin_10*%
%TO.N,unconnected-(J2-Pin_10-Pad10)*%
X137033000Y-99441000D03*
%TO.P,J2,11,Pin_11*%
%TO.N,GND*%
X137033000Y-101981000D03*
%TO.P,J2,12,Pin_12*%
%TO.N,+3V3*%
X137033000Y-104521000D03*
%TD*%
D13*
%TO.P,C1,1*%
%TO.N,GND*%
X163168500Y-105156000D03*
%TO.P,C1,2*%
%TO.N,/+5V*%
X161443500Y-105156000D03*
%TD*%
D14*
%TO.P,D3,1,VDD*%
%TO.N,/+5V*%
X159132000Y-94652000D03*
%TO.P,D3,2,DOUT*%
%TO.N,unconnected-(D3-DOUT-Pad2)*%
X162432000Y-94652000D03*
%TO.P,D3,3,VSS*%
%TO.N,GND*%
X162432000Y-89752000D03*
%TO.P,D3,4,DIN*%
%TO.N,Net-(D2-DOUT)*%
X159132000Y-89752000D03*
%TD*%
D15*
%TO.P,R5,1*%
%TO.N,+3V3*%
X141581500Y-106934000D03*
%TO.P,R5,2*%
%TO.N,Net-(Q1-B)*%
X143406500Y-106934000D03*
%TD*%
%TO.P,R2,1*%
%TO.N,Net-(IC1-RXD)*%
X142193000Y-91694000D03*
%TO.P,R2,2*%
%TO.N,GND*%
X144018000Y-91694000D03*
%TD*%
D16*
%TO.P,R1,1*%
%TO.N,Net-(IC1-CANH)*%
X156864000Y-98552000D03*
D17*
%TO.P,R1,2*%
%TO.N,Net-(IC1-CANL)*%
X159404000Y-98552000D03*
%TD*%
D14*
%TO.P,D2,1,VDD*%
%TO.N,/+5V*%
X152782000Y-94652000D03*
%TO.P,D2,2,DOUT*%
%TO.N,Net-(D2-DOUT)*%
X156082000Y-94652000D03*
%TO.P,D2,3,VSS*%
%TO.N,GND*%
X156082000Y-89752000D03*
%TO.P,D2,4,DIN*%
%TO.N,Net-(D1-DOUT)*%
X152782000Y-89752000D03*
%TD*%
D18*
%TO.P,J1,1,1*%
%TO.N,Net-(IC1-CANH)*%
X164592000Y-101346000D03*
D19*
%TO.P,J1,2,2*%
%TO.N,Net-(IC1-CANL)*%
X164592000Y-98846000D03*
%TD*%
D14*
%TO.P,D1,1,VDD*%
%TO.N,/+5V*%
X146432000Y-94652000D03*
%TO.P,D1,2,DOUT*%
%TO.N,Net-(D1-DOUT)*%
X149732000Y-94652000D03*
%TO.P,D1,3,VSS*%
%TO.N,GND*%
X149732000Y-89752000D03*
%TO.P,D1,4,DIN*%
%TO.N,Net-(D1-DIN)*%
X146432000Y-89752000D03*
%TD*%
D15*
%TO.P,R6,1*%
%TO.N,Net-(D1-DIN)*%
X143359500Y-98298000D03*
%TO.P,R6,2*%
%TO.N,/+5V*%
X145184500Y-98298000D03*
%TD*%
%TO.P,R4,1*%
%TO.N,Net-(IC1-S)*%
X139549500Y-89154000D03*
%TO.P,R4,2*%
%TO.N,GND*%
X141374500Y-89154000D03*
%TD*%
D20*
%TO.P,Q1,1,B*%
%TO.N,Net-(Q1-B)*%
X142560000Y-103884000D03*
%TO.P,Q1,2,E*%
%TO.N,Net-(J2-Pin_4)*%
X144460000Y-103884000D03*
%TO.P,Q1,3,C*%
%TO.N,Net-(D1-DIN)*%
X143510000Y-100584000D03*
%TD*%
D21*
%TO.P,R3,1*%
%TO.N,Net-(IC1-TXD)*%
X142240000Y-96416500D03*
%TO.P,R3,2*%
%TO.N,GND*%
X142240000Y-94591500D03*
%TD*%
D22*
%TO.P,IC2,1*%
%TO.N,/+5V*%
X147828000Y-106788000D03*
X147828000Y-98698000D03*
%TO.P,IC2,2,G*%
%TO.N,GND*%
X150368000Y-106788000D03*
X150368000Y-98698000D03*
%TO.P,IC2,3*%
%TO.N,+3V3*%
X152908000Y-106788000D03*
X152908000Y-98698000D03*
%TD*%
D23*
%TO.N,GND*%
X164846000Y-91948000D03*
X148590000Y-101600000D03*
X152400000Y-102743000D03*
X160680400Y-100025200D03*
X161290000Y-91948000D03*
X154940000Y-91948000D03*
X144526000Y-89154000D03*
X162814000Y-107569000D03*
X148463000Y-91948000D03*
%TO.N,Net-(IC1-TXD)*%
X154686000Y-105156000D03*
%TO.N,Net-(IC1-RXD)*%
X160909000Y-107061000D03*
D24*
%TO.N,+3V3*%
X148463000Y-103886000D03*
D25*
%TO.N,Net-(IC1-S)*%
X154813000Y-100711000D03*
D23*
%TO.N,Net-(J2-Pin_4)*%
X145745200Y-102006400D03*
%TD*%
D26*
%TO.N,/+5V*%
X147428000Y-98298000D02*
X147828000Y-98698000D01*
X152782000Y-95757000D02*
X152782000Y-95759000D01*
X159132000Y-96011000D02*
X159132000Y-94652000D01*
X146432000Y-94652000D02*
X146432000Y-96647000D01*
X159168000Y-94652000D02*
X162052000Y-97536000D01*
X158369000Y-106172000D02*
X159385000Y-105156000D01*
X162052000Y-97536000D02*
X162052000Y-103505000D01*
X152782000Y-95759000D02*
X153670000Y-96647000D01*
X146432000Y-96647000D02*
X151892000Y-96647000D01*
X146432000Y-96647000D02*
X146432000Y-98170000D01*
X161443500Y-104113500D02*
X161443500Y-105156000D01*
X158496000Y-96647000D02*
X159132000Y-96011000D01*
X159385000Y-105156000D02*
X161443500Y-105156000D01*
X146432000Y-98170000D02*
X146304000Y-98298000D01*
X153670000Y-96647000D02*
X158496000Y-96647000D01*
X162052000Y-103505000D02*
X161443500Y-104113500D01*
X159132000Y-94652000D02*
X159168000Y-94652000D01*
X145184500Y-98298000D02*
X146304000Y-98298000D01*
X151892000Y-96647000D02*
X152782000Y-95757000D01*
X146304000Y-98298000D02*
X147428000Y-98298000D01*
X152782000Y-95757000D02*
X152782000Y-94652000D01*
X158369000Y-107119000D02*
X158369000Y-106172000D01*
D27*
%TO.N,Net-(D1-DOUT)*%
X152782000Y-91185000D02*
X152782000Y-89752000D01*
X149732000Y-94235000D02*
X152782000Y-91185000D01*
%TO.N,Net-(D1-DIN)*%
X143359500Y-100433500D02*
X143510000Y-100584000D01*
X144780000Y-93980000D02*
X146432000Y-92328000D01*
X146432000Y-92328000D02*
X146432000Y-90514000D01*
X144780000Y-96393000D02*
X144780000Y-93980000D01*
X143359500Y-98298000D02*
X143359500Y-100433500D01*
X143359500Y-97813500D02*
X144780000Y-96393000D01*
X143359500Y-98298000D02*
X143359500Y-97813500D01*
%TO.N,Net-(D2-DOUT)*%
X156082000Y-94362000D02*
X159132000Y-91312000D01*
X159132000Y-91312000D02*
X159132000Y-89752000D01*
%TO.N,Net-(IC1-TXD)*%
X140716000Y-96774000D02*
X141073500Y-96416500D01*
X155829000Y-106299000D02*
X155829000Y-107119000D01*
X141073500Y-96416500D02*
X142240000Y-96416500D01*
X154686000Y-105156000D02*
X155829000Y-106299000D01*
X139700000Y-96774000D02*
X140716000Y-96774000D01*
X139573000Y-96901000D02*
X139700000Y-96774000D01*
%TO.N,Net-(IC1-RXD)*%
X139954000Y-94361000D02*
X139573000Y-94361000D01*
X160909000Y-107061000D02*
X159697000Y-107061000D01*
X142193000Y-92122000D02*
X139954000Y-94361000D01*
X159697000Y-107061000D02*
X159639000Y-107119000D01*
X142193000Y-91694000D02*
X142193000Y-92122000D01*
%TO.N,+3V3*%
X159639000Y-102616000D02*
X159639000Y-101669000D01*
D26*
X151511000Y-103886000D02*
X152908000Y-105283000D01*
D27*
X152908000Y-101092000D02*
X155321000Y-103505000D01*
D26*
X148463000Y-103886000D02*
X151511000Y-103886000D01*
D27*
X155321000Y-103505000D02*
X158750000Y-103505000D01*
X141581500Y-106934000D02*
X140716000Y-106934000D01*
X139573000Y-105791000D02*
X139573000Y-104521000D01*
D26*
X152908000Y-105283000D02*
X152908000Y-106788000D01*
D27*
X140716000Y-106934000D02*
X139573000Y-105791000D01*
X158750000Y-103505000D02*
X159639000Y-102616000D01*
X152908000Y-98698000D02*
X152908000Y-101092000D01*
%TO.N,Net-(IC1-CANL)*%
X158369000Y-100330000D02*
X159404000Y-99295000D01*
X159404000Y-99295000D02*
X159404000Y-98552000D01*
X158369000Y-101669000D02*
X158369000Y-100330000D01*
%TO.N,Net-(IC1-CANH)*%
X157099000Y-98787000D02*
X156864000Y-98552000D01*
X157099000Y-101669000D02*
X157099000Y-98787000D01*
%TO.N,Net-(IC1-S)*%
X139573000Y-89177500D02*
X139549500Y-89154000D01*
X139573000Y-91821000D02*
X139573000Y-89177500D01*
X154813000Y-100711000D02*
X155771000Y-101669000D01*
X155771000Y-101669000D02*
X155829000Y-101669000D01*
%TO.N,Net-(J2-Pin_4)*%
X145745200Y-102006400D02*
X145745200Y-102598800D01*
X145745200Y-102598800D02*
X144460000Y-103884000D01*
%TO.N,Net-(Q1-B)*%
X142597500Y-103921500D02*
X142560000Y-103884000D01*
X143406500Y-106934000D02*
X143406500Y-105814500D01*
X143406500Y-105814500D02*
X142560000Y-104968000D01*
X142560000Y-104968000D02*
X142560000Y-103884000D01*
%TD*%
%TA.AperFunction,Conductor*%
%TO.N,Net-(IC1-TXD)*%
G36*
X141917656Y-95955692D02*
G01*
X142236284Y-96409780D01*
X142238231Y-96418520D01*
X142236284Y-96423220D01*
X141917656Y-96877307D01*
X141910099Y-96882111D01*
X141902409Y-96880821D01*
X141296030Y-96544841D01*
X141290454Y-96537834D01*
X141290000Y-96534607D01*
X141290000Y-96298392D01*
X141293427Y-96290119D01*
X141296025Y-96288161D01*
X141902410Y-95952177D01*
X141911306Y-95951166D01*
X141917656Y-95955692D01*
G37*
%TD.AperFunction*%
%TD*%
%TA.AperFunction,Conductor*%
%TO.N,Net-(IC1-CANH)*%
G36*
X157225885Y-100547427D02*
G01*
X157227454Y-100549373D01*
X157445564Y-100888655D01*
X157447155Y-100897467D01*
X157446387Y-100899792D01*
X157109665Y-101646354D01*
X157103140Y-101652487D01*
X157094190Y-101652209D01*
X157088335Y-101646354D01*
X156751612Y-100899792D01*
X156751334Y-100890842D01*
X156752431Y-100888662D01*
X156970546Y-100549373D01*
X156977903Y-100544267D01*
X156980388Y-100544000D01*
X157217612Y-100544000D01*
X157225885Y-100547427D01*
G37*
%TD.AperFunction*%
%TD*%
%TA.AperFunction,Conductor*%
%TO.N,/+5V*%
G36*
X152788214Y-94664848D02*
G01*
X152792476Y-94669299D01*
X153187109Y-95396650D01*
X153188042Y-95405556D01*
X153187297Y-95407448D01*
X152898850Y-95986400D01*
X152892094Y-95992276D01*
X152883160Y-95991654D01*
X152880105Y-95989455D01*
X152538231Y-95647581D01*
X152537887Y-95647206D01*
X152337366Y-95408391D01*
X152334670Y-95399851D01*
X152336294Y-95394847D01*
X152772162Y-94668855D01*
X152779357Y-94663528D01*
X152788214Y-94664848D01*
G37*
%TD.AperFunction*%
%TD*%
%TA.AperFunction,Conductor*%
%TO.N,Net-(D1-DIN)*%
G36*
X143366220Y-98301715D02*
G01*
X143820307Y-98620343D01*
X143825111Y-98627900D01*
X143823821Y-98635590D01*
X143487841Y-99241970D01*
X143480834Y-99247546D01*
X143477607Y-99248000D01*
X143241393Y-99248000D01*
X143233120Y-99244573D01*
X143231159Y-99241970D01*
X142895178Y-98635590D01*
X142894166Y-98626693D01*
X142898691Y-98620343D01*
X143352780Y-98301714D01*
X143361520Y-98299768D01*
X143366220Y-98301715D01*
G37*
%TD.AperFunction*%
%TD*%
%TA.AperFunction,Conductor*%
%TO.N,/+5V*%
G36*
X146438014Y-94663726D02*
G01*
X146442034Y-94667746D01*
X146878876Y-95396786D01*
X146880189Y-95405644D01*
X146879532Y-95407552D01*
X146685088Y-95845052D01*
X146678596Y-95851220D01*
X146674396Y-95852000D01*
X146189604Y-95852000D01*
X146181331Y-95848573D01*
X146178912Y-95845052D01*
X145984466Y-95407550D01*
X145984239Y-95398600D01*
X145985117Y-95396797D01*
X146421965Y-94667747D01*
X146429156Y-94662413D01*
X146438014Y-94663726D01*
G37*
%TD.AperFunction*%
%TD*%
%TA.AperFunction,Conductor*%
%TO.N,Net-(J2-Pin_4)*%
G36*
X145966791Y-102098145D02*
G01*
X145973100Y-102104501D01*
X145973592Y-102111904D01*
X145872489Y-102497666D01*
X145867076Y-102504800D01*
X145861171Y-102506400D01*
X145629229Y-102506400D01*
X145620956Y-102502973D01*
X145617911Y-102497666D01*
X145516807Y-102111904D01*
X145518025Y-102103033D01*
X145523606Y-102098146D01*
X145740684Y-102007289D01*
X145749637Y-102007257D01*
X145966791Y-102098145D01*
G37*
%TD.AperFunction*%
%TD*%
%TA.AperFunction,Conductor*%
%TO.N,Net-(IC1-S)*%
G36*
X155483616Y-100905666D02*
G01*
X155485687Y-100908790D01*
X155824844Y-101658952D01*
X155825130Y-101667902D01*
X155819003Y-101674433D01*
X155818910Y-101674475D01*
X155488783Y-101820273D01*
X155479830Y-101820480D01*
X155473820Y-101815237D01*
X155387298Y-101658952D01*
X155147391Y-101225608D01*
X155146383Y-101216712D01*
X155149353Y-101211672D01*
X155319901Y-101041125D01*
X155467083Y-100905019D01*
X155475483Y-100901919D01*
X155483616Y-100905666D01*
G37*
%TD.AperFunction*%
%TD*%
%TA.AperFunction,Conductor*%
%TO.N,Net-(IC1-CANH)*%
G36*
X156871232Y-98554005D02*
G01*
X157452686Y-98795638D01*
X157593317Y-98854080D01*
X157599642Y-98860419D01*
X157600021Y-98868287D01*
X157226522Y-100096959D01*
X157220837Y-100103878D01*
X157215328Y-100105256D01*
X156980171Y-100105256D01*
X156971898Y-100101829D01*
X156970515Y-100100163D01*
X156303793Y-99125691D01*
X156301949Y-99116928D01*
X156305168Y-99110819D01*
X156858466Y-98556543D01*
X156866735Y-98553110D01*
X156871232Y-98554005D01*
G37*
%TD.AperFunction*%
%TD*%
%TA.AperFunction,Conductor*%
%TO.N,Net-(IC1-CANL)*%
G36*
X159408122Y-98554717D02*
G01*
X159408139Y-98554734D01*
X159960497Y-99108474D01*
X159963914Y-99116752D01*
X159960477Y-99125020D01*
X159959556Y-99125847D01*
X158887342Y-99990020D01*
X158878750Y-99992543D01*
X158871727Y-99989183D01*
X158705441Y-99822897D01*
X158702049Y-99815529D01*
X158647824Y-99116752D01*
X158604977Y-98564592D01*
X158607754Y-98556080D01*
X158615737Y-98552023D01*
X158616609Y-98551988D01*
X159399846Y-98551297D01*
X159408122Y-98554717D01*
G37*
%TD.AperFunction*%
%TD*%
%TA.AperFunction,Conductor*%
%TO.N,/+5V*%
G36*
X158326613Y-105878988D02*
G01*
X158330138Y-105881408D01*
X158669909Y-106221179D01*
X158672532Y-106225190D01*
X158717204Y-106339409D01*
X158717026Y-106348362D01*
X158716969Y-106348491D01*
X158380553Y-107092589D01*
X158374022Y-107098716D01*
X158365072Y-107098430D01*
X158358945Y-107091899D01*
X158358803Y-107091500D01*
X158108790Y-106348362D01*
X158108775Y-106348315D01*
X158109170Y-106339838D01*
X158311174Y-105884930D01*
X158317661Y-105878762D01*
X158326613Y-105878988D01*
G37*
%TD.AperFunction*%
%TD*%
%TA.AperFunction,Conductor*%
%TO.N,Net-(D1-DOUT)*%
G36*
X150301475Y-93502080D02*
G01*
X150466840Y-93667445D01*
X150470267Y-93675718D01*
X150469885Y-93678682D01*
X150185008Y-94766455D01*
X150179597Y-94773590D01*
X150170726Y-94774809D01*
X150170558Y-94774764D01*
X149739070Y-94654868D01*
X149732016Y-94649351D01*
X149730551Y-94644673D01*
X149662700Y-93909074D01*
X149665353Y-93900523D01*
X149668022Y-93898160D01*
X150286878Y-93500509D01*
X150295690Y-93498921D01*
X150301475Y-93502080D01*
G37*
%TD.AperFunction*%
%TD*%
%TA.AperFunction,Conductor*%
%TO.N,Net-(Q1-B)*%
G36*
X143532880Y-105987427D02*
G01*
X143534841Y-105990030D01*
X143870821Y-106596409D01*
X143871833Y-106605306D01*
X143867307Y-106611656D01*
X143413220Y-106930284D01*
X143404480Y-106932231D01*
X143399780Y-106930284D01*
X142945692Y-106611656D01*
X142940888Y-106604099D01*
X142942177Y-106596410D01*
X143278159Y-105990030D01*
X143285166Y-105984454D01*
X143288393Y-105984000D01*
X143524607Y-105984000D01*
X143532880Y-105987427D01*
G37*
%TD.AperFunction*%
%TD*%
%TA.AperFunction,Conductor*%
%TO.N,/+5V*%
G36*
X145533392Y-97843743D02*
G01*
X146138995Y-98045335D01*
X146145763Y-98051199D01*
X146147000Y-98056436D01*
X146147000Y-98539563D01*
X146143573Y-98547836D01*
X146138995Y-98550664D01*
X145533393Y-98752255D01*
X145524461Y-98751617D01*
X145520330Y-98748163D01*
X145188743Y-98305008D01*
X145186531Y-98296332D01*
X145188744Y-98290991D01*
X145520332Y-97847834D01*
X145528030Y-97843264D01*
X145533392Y-97843743D01*
G37*
%TD.AperFunction*%
%TD*%
%TA.AperFunction,Conductor*%
%TO.N,/+5V*%
G36*
X161693891Y-104209427D02*
G01*
X161696461Y-104213305D01*
X161915291Y-104753215D01*
X161915223Y-104762170D01*
X161911939Y-104766598D01*
X161450991Y-105150756D01*
X161442441Y-105153420D01*
X161436009Y-105150756D01*
X160975060Y-104766598D01*
X160970899Y-104758669D01*
X160971708Y-104753215D01*
X161190539Y-104213305D01*
X161196822Y-104206925D01*
X161201382Y-104206000D01*
X161685618Y-104206000D01*
X161693891Y-104209427D01*
G37*
%TD.AperFunction*%
%TD*%
%TA.AperFunction,Conductor*%
%TO.N,Net-(IC1-TXD)*%
G36*
X139586933Y-96053734D02*
G01*
X140981613Y-96327425D01*
X140987632Y-96330633D01*
X141153653Y-96496654D01*
X141157080Y-96504927D01*
X141153692Y-96513161D01*
X140182304Y-97493699D01*
X140174047Y-97497165D01*
X140165758Y-97493777D01*
X140165729Y-97493748D01*
X139575734Y-96905139D01*
X139572297Y-96896870D01*
X139572297Y-96896846D01*
X139572630Y-96496654D01*
X139572988Y-96065205D01*
X139576422Y-96056936D01*
X139584698Y-96053516D01*
X139586933Y-96053734D01*
G37*
%TD.AperFunction*%
%TD*%
%TA.AperFunction,Conductor*%
%TO.N,+3V3*%
G36*
X148476817Y-103488590D02*
G01*
X149253457Y-103634210D01*
X149260956Y-103639103D01*
X149263000Y-103645710D01*
X149263000Y-104126289D01*
X149259573Y-104134562D01*
X149253456Y-104137789D01*
X148476820Y-104283408D01*
X148468057Y-104281564D01*
X148463164Y-104274064D01*
X148462964Y-104271946D01*
X148462000Y-103886000D01*
X148462964Y-103500059D01*
X148466412Y-103491797D01*
X148474693Y-103488391D01*
X148476817Y-103488590D01*
G37*
%TD.AperFunction*%
%TD*%
%TA.AperFunction,Conductor*%
%TO.N,/+5V*%
G36*
X159138014Y-94663726D02*
G01*
X159142034Y-94667746D01*
X159578876Y-95396786D01*
X159580189Y-95405644D01*
X159579532Y-95407552D01*
X159385088Y-95845052D01*
X159378596Y-95851220D01*
X159374396Y-95852000D01*
X158889604Y-95852000D01*
X158881331Y-95848573D01*
X158878912Y-95845052D01*
X158684466Y-95407550D01*
X158684239Y-95398600D01*
X158685117Y-95396797D01*
X159121965Y-94667747D01*
X159129156Y-94662413D01*
X159138014Y-94663726D01*
G37*
%TD.AperFunction*%
%TD*%
%TA.AperFunction,Conductor*%
%TO.N,Net-(D1-DIN)*%
G36*
X143487193Y-99287427D02*
G01*
X143488012Y-99288337D01*
X143804413Y-99679029D01*
X143806957Y-99687614D01*
X143806428Y-99690070D01*
X143519518Y-100556264D01*
X143513663Y-100563040D01*
X143504732Y-100563692D01*
X143497956Y-100557837D01*
X143497717Y-100557332D01*
X143111785Y-99688021D01*
X143111308Y-99679797D01*
X143111548Y-99679028D01*
X143231941Y-99292223D01*
X143237671Y-99285342D01*
X143243112Y-99284000D01*
X143478920Y-99284000D01*
X143487193Y-99287427D01*
G37*
%TD.AperFunction*%
%TD*%
%TA.AperFunction,Conductor*%
%TO.N,Net-(D1-DIN)*%
G36*
X143607580Y-97403265D02*
G01*
X143774290Y-97569975D01*
X143777599Y-97576587D01*
X143845789Y-98052062D01*
X143843571Y-98060738D01*
X143839338Y-98064238D01*
X143367728Y-98294347D01*
X143358790Y-98294895D01*
X143353048Y-98290592D01*
X143039271Y-97847372D01*
X143037287Y-97838640D01*
X143041626Y-97831384D01*
X143592114Y-97402309D01*
X143600746Y-97399927D01*
X143607580Y-97403265D01*
G37*
%TD.AperFunction*%
%TD*%
%TA.AperFunction,Conductor*%
%TO.N,Net-(D2-DOUT)*%
G36*
X156768138Y-93511743D02*
G01*
X156933312Y-93676917D01*
X156936739Y-93685190D01*
X156936032Y-93689196D01*
X156535857Y-94787295D01*
X156529804Y-94793895D01*
X156521277Y-94794426D01*
X156089280Y-94655279D01*
X156082457Y-94649481D01*
X156081169Y-94644318D01*
X156070385Y-93908891D01*
X156073690Y-93900569D01*
X156076263Y-93898571D01*
X156754044Y-93509867D01*
X156762926Y-93508723D01*
X156768138Y-93511743D01*
G37*
%TD.AperFunction*%
%TD*%
%TA.AperFunction,Conductor*%
%TO.N,GND*%
G36*
X138991566Y-88030685D02*
G01*
X139037321Y-88083489D01*
X139047265Y-88152647D01*
X139018240Y-88216203D01*
X138989624Y-88240539D01*
X138985485Y-88243091D01*
X138985484Y-88243092D01*
X138882306Y-88306732D01*
X138838648Y-88333661D01*
X138716661Y-88455648D01*
X138626093Y-88602481D01*
X138626091Y-88602486D01*
X138612185Y-88644452D01*
X138571826Y-88766247D01*
X138571826Y-88766248D01*
X138571825Y-88766248D01*
X138561500Y-88867315D01*
X138561500Y-89440669D01*
X138561501Y-89440687D01*
X138571825Y-89541752D01*
X138626020Y-89705300D01*
X138626092Y-89705516D01*
X138629693Y-89711355D01*
X138643143Y-89733160D01*
X138652229Y-89750960D01*
X138652948Y-89752704D01*
X138704687Y-89840186D01*
X138789995Y-89984430D01*
X138807179Y-90052153D01*
X138785020Y-90118416D01*
X138777607Y-90128021D01*
X138345406Y-90634740D01*
X138324188Y-90661384D01*
X138324183Y-90661392D01*
X138314472Y-90679337D01*
X138304685Y-90694629D01*
X138279206Y-90728664D01*
X138279203Y-90728670D01*
X138261695Y-90775608D01*
X138258137Y-90783442D01*
X138255713Y-90787924D01*
X138252919Y-90795503D01*
X138252918Y-90795506D01*
X138249968Y-90806321D01*
X138248243Y-90811677D01*
X138230189Y-90860083D01*
X138188317Y-90916016D01*
X138122853Y-90940433D01*
X138054580Y-90925581D01*
X138026326Y-90904430D01*
X137904402Y-90782506D01*
X137904395Y-90782501D01*
X137884015Y-90768231D01*
X137827517Y-90728670D01*
X137710834Y-90646967D01*
X137710830Y-90646965D01*
X137684609Y-90634738D01*
X137496663Y-90547097D01*
X137496659Y-90547096D01*
X137496655Y-90547094D01*
X137268413Y-90485938D01*
X137268403Y-90485936D01*
X137033001Y-90465341D01*
X137032999Y-90465341D01*
X136797596Y-90485936D01*
X136797586Y-90485938D01*
X136569344Y-90547094D01*
X136569337Y-90547096D01*
X136569337Y-90547097D01*
X136555816Y-90553401D01*
X136355171Y-90646964D01*
X136355169Y-90646965D01*
X136161597Y-90782505D01*
X135994505Y-90949597D01*
X135858965Y-91143169D01*
X135858964Y-91143171D01*
X135759098Y-91357335D01*
X135759094Y-91357344D01*
X135697938Y-91585586D01*
X135697936Y-91585596D01*
X135677341Y-91820999D01*
X135677341Y-91821000D01*
X135697936Y-92056403D01*
X135697938Y-92056413D01*
X135759094Y-92284655D01*
X135759096Y-92284659D01*
X135759097Y-92284663D01*
X135816152Y-92407018D01*
X135858965Y-92498830D01*
X135858967Y-92498834D01*
X135994501Y-92692395D01*
X135994506Y-92692402D01*
X136161597Y-92859493D01*
X136161603Y-92859498D01*
X136347158Y-92989425D01*
X136390783Y-93044002D01*
X136397977Y-93113500D01*
X136366454Y-93175855D01*
X136347158Y-93192575D01*
X136161597Y-93322505D01*
X135994505Y-93489597D01*
X135858965Y-93683169D01*
X135858964Y-93683171D01*
X135759098Y-93897335D01*
X135759094Y-93897344D01*
X135697938Y-94125586D01*
X135697936Y-94125596D01*
X135677341Y-94360999D01*
X135677341Y-94361000D01*
X135697936Y-94596403D01*
X135697938Y-94596413D01*
X135759094Y-94824655D01*
X135759096Y-94824659D01*
X135759097Y-94824663D01*
X135839004Y-94996023D01*
X135858965Y-95038830D01*
X135858967Y-95038834D01*
X135940518Y-95155300D01*
X135994501Y-95232396D01*
X135994506Y-95232402D01*
X136161597Y-95399493D01*
X136161603Y-95399498D01*
X136347158Y-95529425D01*
X136390783Y-95584002D01*
X136397977Y-95653500D01*
X136366454Y-95715855D01*
X136347158Y-95732575D01*
X136161597Y-95862505D01*
X135994505Y-96029597D01*
X135858965Y-96223169D01*
X135858964Y-96223171D01*
X135759098Y-96437335D01*
X135759094Y-96437344D01*
X135697938Y-96665586D01*
X135697936Y-96665596D01*
X135677341Y-96900999D01*
X135677341Y-96901000D01*
X135697936Y-97136403D01*
X135697938Y-97136413D01*
X135759094Y-97364655D01*
X135759096Y-97364659D01*
X135759097Y-97364663D01*
X135848094Y-97555517D01*
X135858965Y-97578830D01*
X135858967Y-97578834D01*
X135967281Y-97733521D01*
X135994501Y-97772396D01*
X135994506Y-97772402D01*
X136161597Y-97939493D01*
X136161603Y-97939498D01*
X136347158Y-98069425D01*
X136390783Y-98124002D01*
X136397977Y-98193500D01*
X136366454Y-98255855D01*
X136347158Y-98272575D01*
X136161597Y-98402505D01*
X135994505Y-98569597D01*
X135858965Y-98763169D01*
X135858964Y-98763171D01*
X135759098Y-98977335D01*
X135759094Y-98977344D01*
X135697938Y-99205586D01*
X135697936Y-99205596D01*
X135677341Y-99440999D01*
X135677341Y-99441000D01*
X135697936Y-99676403D01*
X135697938Y-99676413D01*
X135759094Y-99904655D01*
X135759096Y-99904659D01*
X135759097Y-99904663D01*
X135845610Y-100090190D01*
X135858965Y-100118830D01*
X135858967Y-100118834D01*
X135934425Y-100226598D01*
X135994501Y-100312396D01*
X135994506Y-100312402D01*
X136161597Y-100479493D01*
X136161603Y-100479498D01*
X136347594Y-100609730D01*
X136391219Y-100664307D01*
X136398413Y-100733805D01*
X136366890Y-100796160D01*
X136347595Y-100812880D01*
X136161922Y-100942890D01*
X136161920Y-100942891D01*
X135994891Y-101109920D01*
X135994886Y-101109926D01*
X135859400Y-101303420D01*
X135859399Y-101303422D01*
X135759570Y-101517507D01*
X135759567Y-101517513D01*
X135702364Y-101730999D01*
X135702364Y-101731000D01*
X136599314Y-101731000D01*
X136573507Y-101771156D01*
X136533000Y-101909111D01*
X136533000Y-102052889D01*
X136573507Y-102190844D01*
X136599314Y-102231000D01*
X135702364Y-102231000D01*
X135759567Y-102444486D01*
X135759570Y-102444492D01*
X135859399Y-102658578D01*
X135994894Y-102852082D01*
X136161917Y-103019105D01*
X136347595Y-103149119D01*
X136391219Y-103203696D01*
X136398412Y-103273195D01*
X136366890Y-103335549D01*
X136347595Y-103352269D01*
X136161594Y-103482508D01*
X135994505Y-103649597D01*
X135858965Y-103843169D01*
X135858964Y-103843171D01*
X135759098Y-104057335D01*
X135759094Y-104057344D01*
X135697938Y-104285586D01*
X135697936Y-104285596D01*
X135677341Y-104520999D01*
X135677341Y-104521000D01*
X135697936Y-104756403D01*
X135697938Y-104756413D01*
X135759094Y-104984655D01*
X135759096Y-104984659D01*
X135759097Y-104984663D01*
X135838993Y-105156000D01*
X135858965Y-105198830D01*
X135858967Y-105198834D01*
X135936561Y-105309649D01*
X135994505Y-105392401D01*
X136161599Y-105559495D01*
X136232097Y-105608858D01*
X136355165Y-105695032D01*
X136355167Y-105695033D01*
X136355170Y-105695035D01*
X136569337Y-105794903D01*
X136797592Y-105856063D01*
X136953792Y-105869729D01*
X137032999Y-105876659D01*
X137033000Y-105876659D01*
X137033001Y-105876659D01*
X137075919Y-105872904D01*
X137268408Y-105856063D01*
X137496663Y-105794903D01*
X137710830Y-105695035D01*
X137904401Y-105559495D01*
X138071495Y-105392401D01*
X138201425Y-105206842D01*
X138256002Y-105163217D01*
X138325500Y-105156023D01*
X138387855Y-105187546D01*
X138404575Y-105206842D01*
X138534501Y-105392396D01*
X138534506Y-105392402D01*
X138562971Y-105420867D01*
X138574625Y-105435133D01*
X138574888Y-105434931D01*
X138944112Y-105914778D01*
X138961131Y-105944750D01*
X138979489Y-105991119D01*
X138981382Y-105996647D01*
X138993303Y-106037679D01*
X138994382Y-106041390D01*
X138997500Y-106046663D01*
X139004580Y-106058634D01*
X139013136Y-106076100D01*
X139018665Y-106090063D01*
X139020514Y-106094732D01*
X139047898Y-106132423D01*
X139051106Y-106137307D01*
X139074827Y-106177416D01*
X139074833Y-106177424D01*
X139088990Y-106191580D01*
X139101627Y-106206375D01*
X139113406Y-106222587D01*
X139142278Y-106246472D01*
X139149309Y-106252288D01*
X139153620Y-106256210D01*
X139382118Y-106484708D01*
X139386152Y-106489154D01*
X139395387Y-106500381D01*
X139401815Y-106507696D01*
X139401816Y-106507697D01*
X139465039Y-106568281D01*
X139470161Y-106572751D01*
X140183679Y-107286270D01*
X140188758Y-107292019D01*
X140189621Y-107293127D01*
X140189622Y-107293128D01*
X140194666Y-107297488D01*
X140197963Y-107300554D01*
X140215197Y-107317788D01*
X140225022Y-107330051D01*
X140225243Y-107329869D01*
X140230214Y-107335878D01*
X140253553Y-107357794D01*
X140280635Y-107383226D01*
X140301529Y-107404120D01*
X140307011Y-107408373D01*
X140311443Y-107412157D01*
X140345418Y-107444062D01*
X140362976Y-107453714D01*
X140379235Y-107464395D01*
X140395064Y-107476673D01*
X140437838Y-107495182D01*
X140443056Y-107497738D01*
X140483908Y-107520197D01*
X140483912Y-107520198D01*
X140501352Y-107524676D01*
X140537429Y-107540385D01*
X140641179Y-107606886D01*
X140865609Y-107750740D01*
X140870602Y-107754302D01*
X140870650Y-107754340D01*
X140885881Y-107763735D01*
X140950025Y-107804850D01*
X140961471Y-107811699D01*
X140976680Y-107820801D01*
X140976683Y-107820802D01*
X140982008Y-107823392D01*
X140987448Y-107826382D01*
X141017479Y-107844905D01*
X141017484Y-107844908D01*
X141181247Y-107899174D01*
X141282323Y-107909500D01*
X141880676Y-107909499D01*
X141880684Y-107909498D01*
X141880687Y-107909498D01*
X141936030Y-107903844D01*
X141981753Y-107899174D01*
X142145516Y-107844908D01*
X142292350Y-107754340D01*
X142406319Y-107640371D01*
X142467642Y-107606886D01*
X142537334Y-107611870D01*
X142581681Y-107640371D01*
X142695650Y-107754340D01*
X142842484Y-107844908D01*
X143006247Y-107899174D01*
X143107323Y-107909500D01*
X143705676Y-107909499D01*
X143705684Y-107909498D01*
X143705687Y-107909498D01*
X143761030Y-107903844D01*
X143806753Y-107899174D01*
X143970516Y-107844908D01*
X144117350Y-107754340D01*
X144239340Y-107632350D01*
X144329908Y-107485516D01*
X144384174Y-107321753D01*
X144394500Y-107220677D01*
X144394499Y-106647324D01*
X144388654Y-106590109D01*
X144384174Y-106546247D01*
X144371400Y-106507699D01*
X144329908Y-106382484D01*
X144329904Y-106382478D01*
X144329903Y-106382475D01*
X144322767Y-106370906D01*
X144315086Y-106355321D01*
X144314849Y-106355432D01*
X144312987Y-106351421D01*
X144302125Y-106331818D01*
X144061970Y-105898384D01*
X144047852Y-105872904D01*
X144032377Y-105816697D01*
X144032000Y-105804683D01*
X144032000Y-105775154D01*
X144032000Y-105775150D01*
X144031131Y-105768272D01*
X144030672Y-105762443D01*
X144029209Y-105715872D01*
X144023622Y-105696644D01*
X144019674Y-105677584D01*
X144018997Y-105672222D01*
X144017164Y-105657708D01*
X144017163Y-105657706D01*
X144017163Y-105657704D01*
X144000012Y-105614387D01*
X143998119Y-105608858D01*
X143985118Y-105564109D01*
X143985116Y-105564106D01*
X143974923Y-105546871D01*
X143966361Y-105529394D01*
X143958987Y-105510770D01*
X143958915Y-105510671D01*
X143937636Y-105481383D01*
X143914157Y-105415578D01*
X143929982Y-105347524D01*
X143980088Y-105298829D01*
X144037951Y-105284499D01*
X144907872Y-105284499D01*
X144967483Y-105278091D01*
X145102331Y-105227796D01*
X145217546Y-105141546D01*
X145303796Y-105026331D01*
X145354091Y-104891483D01*
X145360500Y-104831873D01*
X145360499Y-104205423D01*
X145373077Y-104151009D01*
X145383093Y-104130500D01*
X145646050Y-103592062D01*
X145669787Y-103558802D01*
X146128988Y-103099601D01*
X146141242Y-103089786D01*
X146141059Y-103089564D01*
X146147066Y-103084592D01*
X146147077Y-103084586D01*
X146178274Y-103051364D01*
X146194427Y-103034164D01*
X146204871Y-103023718D01*
X146215320Y-103013271D01*
X146219579Y-103007778D01*
X146223352Y-103003361D01*
X146255262Y-102969382D01*
X146264913Y-102951824D01*
X146275596Y-102935561D01*
X146287873Y-102919736D01*
X146306385Y-102876953D01*
X146308938Y-102871741D01*
X146331397Y-102830892D01*
X146336380Y-102811480D01*
X146342681Y-102793080D01*
X146350637Y-102774696D01*
X146357929Y-102728652D01*
X146359106Y-102722971D01*
X146370700Y-102677819D01*
X146370700Y-102657783D01*
X146372227Y-102638383D01*
X146374116Y-102626455D01*
X146375360Y-102618604D01*
X146374247Y-102606835D01*
X146377746Y-102563730D01*
X146462577Y-102240060D01*
X146466992Y-102221843D01*
X146466992Y-102221842D01*
X146468171Y-102216978D01*
X146468239Y-102216994D01*
X146472377Y-102200564D01*
X146481513Y-102174459D01*
X146500449Y-102006400D01*
X146500449Y-102006397D01*
X146481514Y-101838343D01*
X146425654Y-101678705D01*
X146425652Y-101678702D01*
X146335681Y-101535515D01*
X146335676Y-101535509D01*
X146216090Y-101415923D01*
X146216084Y-101415918D01*
X146072897Y-101325947D01*
X146072894Y-101325945D01*
X145913256Y-101270085D01*
X145745203Y-101251151D01*
X145745197Y-101251151D01*
X145577143Y-101270085D01*
X145417505Y-101325945D01*
X145417502Y-101325947D01*
X145274315Y-101415918D01*
X145274309Y-101415923D01*
X145154723Y-101535509D01*
X145154718Y-101535515D01*
X145064747Y-101678702D01*
X145064745Y-101678705D01*
X145008885Y-101838343D01*
X144989951Y-102006397D01*
X144989951Y-102006402D01*
X145008885Y-102174453D01*
X145008886Y-102174458D01*
X145008887Y-102174459D01*
X145018016Y-102200549D01*
X145021292Y-102209909D01*
X145027451Y-102236810D01*
X145027821Y-102240057D01*
X145027824Y-102240071D01*
X145049558Y-102323000D01*
X145047512Y-102392839D01*
X145017290Y-102442117D01*
X145011253Y-102448154D01*
X144949930Y-102481639D01*
X144910331Y-102483764D01*
X144908566Y-102483574D01*
X144907873Y-102483500D01*
X144907872Y-102483500D01*
X144012129Y-102483500D01*
X144012123Y-102483501D01*
X143952516Y-102489908D01*
X143817671Y-102540202D01*
X143817664Y-102540206D01*
X143702455Y-102626452D01*
X143702452Y-102626455D01*
X143610888Y-102748769D01*
X143608618Y-102747070D01*
X143569420Y-102786264D01*
X143501146Y-102801111D01*
X143435683Y-102776690D01*
X143410554Y-102747689D01*
X143409112Y-102748769D01*
X143317547Y-102626455D01*
X143317544Y-102626452D01*
X143202335Y-102540206D01*
X143202328Y-102540202D01*
X143067482Y-102489908D01*
X143067483Y-102489908D01*
X143007883Y-102483501D01*
X143007881Y-102483500D01*
X143007873Y-102483500D01*
X143007864Y-102483500D01*
X142112129Y-102483500D01*
X142112123Y-102483501D01*
X142052516Y-102489908D01*
X141917671Y-102540202D01*
X141917664Y-102540206D01*
X141802455Y-102626452D01*
X141802452Y-102626455D01*
X141716206Y-102741664D01*
X141716202Y-102741671D01*
X141665908Y-102876517D01*
X141659501Y-102936116D01*
X141659500Y-102936135D01*
X141659500Y-104831870D01*
X141659501Y-104831876D01*
X141665908Y-104891483D01*
X141716202Y-105026328D01*
X141716206Y-105026335D01*
X141802452Y-105141544D01*
X141802455Y-105141547D01*
X141917664Y-105227793D01*
X141917671Y-105227797D01*
X141930275Y-105232497D01*
X141962104Y-105244369D01*
X142018038Y-105286238D01*
X142019033Y-105287588D01*
X142027201Y-105298829D01*
X142034899Y-105309425D01*
X142038106Y-105314307D01*
X142061827Y-105354416D01*
X142061833Y-105354424D01*
X142075990Y-105368580D01*
X142088627Y-105383375D01*
X142100406Y-105399587D01*
X142126129Y-105420867D01*
X142136309Y-105429288D01*
X142140620Y-105433210D01*
X142178113Y-105470703D01*
X142212608Y-105505198D01*
X142216276Y-105509201D01*
X142217591Y-105510770D01*
X142235955Y-105532674D01*
X142244198Y-105541666D01*
X142244197Y-105541666D01*
X142263199Y-105559495D01*
X142299638Y-105593686D01*
X142299647Y-105593691D01*
X142302002Y-105595462D01*
X142308595Y-105601185D01*
X142472779Y-105765369D01*
X142633186Y-105925776D01*
X142666671Y-105987099D01*
X142661687Y-106056791D01*
X142653969Y-106073554D01*
X142590508Y-106188089D01*
X142540799Y-106237189D01*
X142472435Y-106251619D01*
X142407123Y-106226799D01*
X142394363Y-106215673D01*
X142292351Y-106113661D01*
X142292350Y-106113660D01*
X142169165Y-106037679D01*
X142145518Y-106023093D01*
X142145513Y-106023091D01*
X142104694Y-106009565D01*
X141981753Y-105968826D01*
X141981751Y-105968825D01*
X141880678Y-105958500D01*
X141282330Y-105958500D01*
X141282312Y-105958501D01*
X141181248Y-105968825D01*
X141117028Y-105990105D01*
X141109669Y-105992051D01*
X141106255Y-105992733D01*
X141106242Y-105992737D01*
X141097063Y-105996546D01*
X141092804Y-105998133D01*
X141077100Y-106003337D01*
X141017484Y-106023092D01*
X141017482Y-106023092D01*
X141017482Y-106023093D01*
X141017478Y-106023094D01*
X140993832Y-106037679D01*
X140976279Y-106046663D01*
X140973357Y-106047875D01*
X140973356Y-106047876D01*
X140893819Y-106095133D01*
X140826130Y-106112453D01*
X140759823Y-106090428D01*
X140742806Y-106076216D01*
X140597641Y-105931050D01*
X140564158Y-105869729D01*
X140567872Y-105803609D01*
X140833592Y-105018748D01*
X140835557Y-105012152D01*
X140842015Y-104995143D01*
X140846903Y-104984663D01*
X140908063Y-104756408D01*
X140928659Y-104521000D01*
X140924567Y-104474235D01*
X140919795Y-104419685D01*
X140908063Y-104285592D01*
X140849960Y-104068746D01*
X140846905Y-104057344D01*
X140846904Y-104057343D01*
X140846903Y-104057337D01*
X140747035Y-103843171D01*
X140741425Y-103835158D01*
X140611494Y-103649597D01*
X140444402Y-103482506D01*
X140444401Y-103482505D01*
X140258405Y-103352269D01*
X140214781Y-103297692D01*
X140207588Y-103228193D01*
X140239110Y-103165839D01*
X140258405Y-103149119D01*
X140444082Y-103019105D01*
X140611105Y-102852082D01*
X140746600Y-102658578D01*
X140846429Y-102444492D01*
X140846432Y-102444486D01*
X140903636Y-102231000D01*
X140006686Y-102231000D01*
X140032493Y-102190844D01*
X140073000Y-102052889D01*
X140073000Y-101909111D01*
X140032493Y-101771156D01*
X140006686Y-101731000D01*
X140903636Y-101731000D01*
X140903635Y-101730999D01*
X140846432Y-101517513D01*
X140846429Y-101517507D01*
X140746600Y-101303422D01*
X140746599Y-101303420D01*
X140611113Y-101109926D01*
X140611108Y-101109920D01*
X140444078Y-100942890D01*
X140258405Y-100812879D01*
X140214780Y-100758302D01*
X140207588Y-100688804D01*
X140239110Y-100626449D01*
X140258406Y-100609730D01*
X140444401Y-100479495D01*
X140611495Y-100312401D01*
X140747035Y-100118830D01*
X140846903Y-99904663D01*
X140908063Y-99676408D01*
X140928659Y-99441000D01*
X140908063Y-99205592D01*
X140852573Y-98998497D01*
X140846905Y-98977344D01*
X140846904Y-98977343D01*
X140846903Y-98977337D01*
X140747035Y-98763171D01*
X140741425Y-98755158D01*
X140611494Y-98569597D01*
X140444402Y-98402506D01*
X140444401Y-98402505D01*
X140258842Y-98272575D01*
X140258841Y-98272574D01*
X140215216Y-98217997D01*
X140208024Y-98148498D01*
X140239546Y-98086144D01*
X140258836Y-98069428D01*
X140444401Y-97939495D01*
X140509777Y-97874117D01*
X140516221Y-97868507D01*
X140541418Y-97849462D01*
X141207570Y-97177034D01*
X141268732Y-97143264D01*
X141338446Y-97147921D01*
X141355750Y-97155838D01*
X141453665Y-97210091D01*
X141657416Y-97322985D01*
X141678330Y-97333843D01*
X141682306Y-97336097D01*
X141688484Y-97339908D01*
X141852247Y-97394174D01*
X141953323Y-97404500D01*
X142424855Y-97404499D01*
X142491894Y-97424183D01*
X142537649Y-97476987D01*
X142547593Y-97546146D01*
X142530394Y-97593595D01*
X142436095Y-97746477D01*
X142436091Y-97746486D01*
X142414863Y-97810549D01*
X142381826Y-97910247D01*
X142381826Y-97910248D01*
X142381825Y-97910248D01*
X142371500Y-98011315D01*
X142371500Y-98584669D01*
X142371501Y-98584687D01*
X142381825Y-98685752D01*
X142407479Y-98763169D01*
X142436092Y-98849516D01*
X142436096Y-98849522D01*
X142443233Y-98861094D01*
X142450917Y-98876684D01*
X142451154Y-98876575D01*
X142453016Y-98880589D01*
X142574775Y-99100337D01*
X142669131Y-99270631D01*
X142684404Y-99338809D01*
X142679066Y-99367577D01*
X142656005Y-99441671D01*
X142628647Y-99529568D01*
X142623618Y-99548118D01*
X142616701Y-99573638D01*
X142616281Y-99574943D01*
X142615910Y-99576512D01*
X142615909Y-99576517D01*
X142615908Y-99576522D01*
X142615908Y-99576524D01*
X142609782Y-99633505D01*
X142609501Y-99636123D01*
X142609500Y-99636135D01*
X142609500Y-99672999D01*
X142609277Y-99678256D01*
X142606656Y-99709063D01*
X142606656Y-99709074D01*
X142607133Y-99717294D01*
X142609220Y-99739172D01*
X142609500Y-99745062D01*
X142609500Y-101531870D01*
X142609501Y-101531876D01*
X142615908Y-101591483D01*
X142666202Y-101726328D01*
X142666206Y-101726335D01*
X142752452Y-101841544D01*
X142752455Y-101841547D01*
X142867664Y-101927793D01*
X142867671Y-101927797D01*
X143002517Y-101978091D01*
X143002516Y-101978091D01*
X143009444Y-101978835D01*
X143062127Y-101984500D01*
X143957872Y-101984499D01*
X144017483Y-101978091D01*
X144152331Y-101927796D01*
X144267546Y-101841546D01*
X144353796Y-101726331D01*
X144404091Y-101591483D01*
X144410500Y-101531873D01*
X144410499Y-99636128D01*
X144404091Y-99576517D01*
X144403017Y-99573638D01*
X144353797Y-99441671D01*
X144353793Y-99441664D01*
X144267547Y-99326455D01*
X144178375Y-99259700D01*
X144136505Y-99203766D01*
X144131521Y-99134074D01*
X144144220Y-99100343D01*
X144175491Y-99043905D01*
X144225199Y-98994808D01*
X144293562Y-98980378D01*
X144358874Y-99005198D01*
X144371634Y-99016324D01*
X144473650Y-99118340D01*
X144620484Y-99208908D01*
X144784247Y-99263174D01*
X144885323Y-99273500D01*
X145483676Y-99273499D01*
X145483684Y-99273498D01*
X145483687Y-99273498D01*
X145511772Y-99270629D01*
X145584753Y-99263174D01*
X145658464Y-99238748D01*
X145666934Y-99236592D01*
X145691190Y-99232215D01*
X145693044Y-99231881D01*
X145693044Y-99231880D01*
X145693049Y-99231880D01*
X146004623Y-99128163D01*
X146074444Y-99125667D01*
X146130030Y-99156725D01*
X146305355Y-99326454D01*
X146489748Y-99504962D01*
X146524223Y-99565734D01*
X146527500Y-99594052D01*
X146527500Y-99780869D01*
X146527501Y-99780876D01*
X146533908Y-99840483D01*
X146584202Y-99975328D01*
X146584206Y-99975335D01*
X146670452Y-100090544D01*
X146670455Y-100090547D01*
X146785664Y-100176793D01*
X146785671Y-100176797D01*
X146920517Y-100227091D01*
X146920516Y-100227091D01*
X146927444Y-100227835D01*
X146980127Y-100233500D01*
X148675872Y-100233499D01*
X148735483Y-100227091D01*
X148870331Y-100176796D01*
X148985546Y-100090546D01*
X148999047Y-100072510D01*
X149054977Y-100030642D01*
X149124669Y-100025657D01*
X149185993Y-100059141D01*
X149197579Y-100072513D01*
X149210811Y-100090189D01*
X149210812Y-100090190D01*
X149325906Y-100176350D01*
X149325913Y-100176354D01*
X149460620Y-100226596D01*
X149460627Y-100226598D01*
X149520155Y-100232999D01*
X149520172Y-100233000D01*
X150118000Y-100233000D01*
X150118000Y-98572000D01*
X150137685Y-98504961D01*
X150190489Y-98459206D01*
X150242000Y-98448000D01*
X150494000Y-98448000D01*
X150561039Y-98467685D01*
X150606794Y-98520489D01*
X150618000Y-98572000D01*
X150618000Y-100233000D01*
X151215828Y-100233000D01*
X151215844Y-100232999D01*
X151275372Y-100226598D01*
X151275379Y-100226596D01*
X151410086Y-100176354D01*
X151410093Y-100176350D01*
X151525187Y-100090190D01*
X151536462Y-100075129D01*
X151592395Y-100033257D01*
X151662086Y-100028271D01*
X151723410Y-100061755D01*
X151730502Y-100069474D01*
X152124517Y-100536454D01*
X152253062Y-100688804D01*
X152253272Y-100689052D01*
X152281459Y-100752984D01*
X152282500Y-100769016D01*
X152282500Y-101009255D01*
X152280775Y-101024872D01*
X152281061Y-101024899D01*
X152280326Y-101032665D01*
X152282500Y-101101814D01*
X152282500Y-101131343D01*
X152282501Y-101131360D01*
X152283368Y-101138231D01*
X152283826Y-101144050D01*
X152285290Y-101190624D01*
X152285291Y-101190627D01*
X152290880Y-101209867D01*
X152294824Y-101228911D01*
X152297336Y-101248792D01*
X152305767Y-101270087D01*
X152314490Y-101292119D01*
X152316382Y-101297647D01*
X152328924Y-101340816D01*
X152329382Y-101342390D01*
X152332018Y-101346848D01*
X152339580Y-101359634D01*
X152348138Y-101377103D01*
X152355514Y-101395732D01*
X152382898Y-101433423D01*
X152386106Y-101438307D01*
X152409827Y-101478416D01*
X152409833Y-101478424D01*
X152423990Y-101492580D01*
X152436628Y-101507376D01*
X152448405Y-101523586D01*
X152448406Y-101523587D01*
X152484309Y-101553288D01*
X152488620Y-101557210D01*
X154255818Y-103324409D01*
X154820197Y-103888788D01*
X154830022Y-103901051D01*
X154830243Y-103900869D01*
X154835214Y-103906878D01*
X154856043Y-103926437D01*
X154885635Y-103954226D01*
X154906529Y-103975120D01*
X154912011Y-103979373D01*
X154916443Y-103983157D01*
X154950418Y-104015062D01*
X154967976Y-104024714D01*
X154984235Y-104035395D01*
X155000064Y-104047673D01*
X155042838Y-104066182D01*
X155048056Y-104068738D01*
X155088908Y-104091197D01*
X155108316Y-104096180D01*
X155126717Y-104102480D01*
X155145104Y-104110437D01*
X155188488Y-104117308D01*
X155191119Y-104117725D01*
X155196839Y-104118909D01*
X155241981Y-104130500D01*
X155262016Y-104130500D01*
X155281414Y-104132026D01*
X155301194Y-104135159D01*
X155301195Y-104135160D01*
X155301195Y-104135159D01*
X155301196Y-104135160D01*
X155347584Y-104130775D01*
X155353422Y-104130500D01*
X158667257Y-104130500D01*
X158682877Y-104132224D01*
X158682904Y-104131939D01*
X158690660Y-104132671D01*
X158690667Y-104132673D01*
X158759814Y-104130500D01*
X158789350Y-104130500D01*
X158796228Y-104129630D01*
X158802041Y-104129172D01*
X158848627Y-104127709D01*
X158867869Y-104122117D01*
X158886912Y-104118174D01*
X158906792Y-104115664D01*
X158950122Y-104098507D01*
X158955646Y-104096617D01*
X158959396Y-104095527D01*
X159000390Y-104083618D01*
X159017629Y-104073422D01*
X159035103Y-104064862D01*
X159053727Y-104057488D01*
X159053727Y-104057487D01*
X159053732Y-104057486D01*
X159091449Y-104030082D01*
X159096305Y-104026892D01*
X159136420Y-104003170D01*
X159150589Y-103988999D01*
X159165379Y-103976368D01*
X159181587Y-103964594D01*
X159211299Y-103928676D01*
X159215212Y-103924376D01*
X160022787Y-103116802D01*
X160035042Y-103106986D01*
X160034859Y-103106764D01*
X160040866Y-103101792D01*
X160040877Y-103101786D01*
X160071775Y-103068882D01*
X160088227Y-103051364D01*
X160098671Y-103040918D01*
X160109120Y-103030471D01*
X160113379Y-103024978D01*
X160117152Y-103020561D01*
X160149062Y-102986582D01*
X160158715Y-102969020D01*
X160169389Y-102952770D01*
X160181673Y-102936936D01*
X160181678Y-102936923D01*
X160183543Y-102933772D01*
X160185873Y-102931520D01*
X160186457Y-102930768D01*
X160186565Y-102930851D01*
X160224815Y-102893893D01*
X160224231Y-102893112D01*
X160230416Y-102888481D01*
X160230861Y-102888052D01*
X160231324Y-102887798D01*
X160231331Y-102887796D01*
X160249376Y-102874288D01*
X160307345Y-102830892D01*
X160346546Y-102801546D01*
X160432796Y-102686331D01*
X160483091Y-102551483D01*
X160489500Y-102491873D01*
X160489499Y-100846128D01*
X160483091Y-100786517D01*
X160481237Y-100781547D01*
X160432797Y-100651671D01*
X160432793Y-100651664D01*
X160346547Y-100536455D01*
X160346544Y-100536452D01*
X160231335Y-100450206D01*
X160231328Y-100450202D01*
X160096482Y-100399908D01*
X160096483Y-100399908D01*
X160036883Y-100393501D01*
X160036881Y-100393500D01*
X160036873Y-100393500D01*
X160036865Y-100393500D01*
X159543724Y-100393500D01*
X159476685Y-100373815D01*
X159430930Y-100321011D01*
X159420986Y-100251853D01*
X159450011Y-100188297D01*
X159465903Y-100172961D01*
X160189406Y-99589838D01*
X160192701Y-99587361D01*
X160243139Y-99552047D01*
X160269209Y-99525975D01*
X160274131Y-99521553D01*
X160282015Y-99515200D01*
X160287911Y-99510182D01*
X160292279Y-99506467D01*
X160298206Y-99501146D01*
X160298204Y-99501147D01*
X160298210Y-99501141D01*
X160353678Y-99442704D01*
X160353687Y-99442687D01*
X160354819Y-99441194D01*
X160360419Y-99434765D01*
X160404047Y-99391139D01*
X160534568Y-99204734D01*
X160630739Y-98998496D01*
X160689635Y-98778692D01*
X160707928Y-98569599D01*
X160709468Y-98552001D01*
X160709468Y-98551998D01*
X160702091Y-98467685D01*
X160689635Y-98325308D01*
X160642259Y-98148498D01*
X160630741Y-98105511D01*
X160630738Y-98105502D01*
X160613915Y-98069425D01*
X160534568Y-97899266D01*
X160404047Y-97712861D01*
X160404045Y-97712858D01*
X160243141Y-97551954D01*
X160056734Y-97421432D01*
X160056732Y-97421431D01*
X159850497Y-97325261D01*
X159850488Y-97325258D01*
X159630697Y-97266366D01*
X159630693Y-97266365D01*
X159630692Y-97266365D01*
X159630691Y-97266364D01*
X159630686Y-97266364D01*
X159404002Y-97246532D01*
X159403998Y-97246532D01*
X159254448Y-97259616D01*
X159185948Y-97245849D01*
X159135765Y-97197234D01*
X159119832Y-97129205D01*
X159143207Y-97063362D01*
X159155960Y-97048407D01*
X159385000Y-96819367D01*
X159617642Y-96586724D01*
X159631271Y-96574947D01*
X159650530Y-96560610D01*
X159684101Y-96520601D01*
X159687761Y-96516606D01*
X159693591Y-96510777D01*
X159703765Y-96497908D01*
X159713941Y-96485040D01*
X159729949Y-96465962D01*
X159788120Y-96427260D01*
X159857981Y-96426152D01*
X159912619Y-96457987D01*
X161265181Y-97810549D01*
X161298666Y-97871872D01*
X161301500Y-97898230D01*
X161301500Y-103142769D01*
X161281815Y-103209808D01*
X161265181Y-103230450D01*
X160957858Y-103537772D01*
X160944229Y-103549551D01*
X160924968Y-103563890D01*
X160891398Y-103603897D01*
X160887753Y-103607876D01*
X160881909Y-103613722D01*
X160861559Y-103639459D01*
X160812195Y-103698289D01*
X160808229Y-103704319D01*
X160808182Y-103704288D01*
X160804130Y-103710647D01*
X160804179Y-103710677D01*
X160800389Y-103716821D01*
X160767924Y-103786441D01*
X160733460Y-103855066D01*
X160730988Y-103861857D01*
X160730932Y-103861836D01*
X160728460Y-103868950D01*
X160728515Y-103868969D01*
X160726242Y-103875827D01*
X160720905Y-103901677D01*
X160710707Y-103951065D01*
X160701652Y-103989272D01*
X160692998Y-104025786D01*
X160692161Y-104032954D01*
X160692101Y-104032947D01*
X160691335Y-104040446D01*
X160691395Y-104040452D01*
X160690765Y-104047642D01*
X160691446Y-104071038D01*
X160682418Y-104121220D01*
X160625044Y-104262777D01*
X160581619Y-104317513D01*
X160549288Y-104333852D01*
X160353119Y-104399153D01*
X160313955Y-104405500D01*
X159448705Y-104405500D01*
X159430735Y-104404191D01*
X159406972Y-104400710D01*
X159361533Y-104404686D01*
X159354931Y-104405264D01*
X159349530Y-104405500D01*
X159341289Y-104405500D01*
X159319579Y-104408037D01*
X159308724Y-104409306D01*
X159293419Y-104410645D01*
X159232199Y-104416001D01*
X159225132Y-104417460D01*
X159225120Y-104417404D01*
X159217763Y-104419035D01*
X159217777Y-104419092D01*
X159210743Y-104420759D01*
X159138575Y-104447025D01*
X159065665Y-104471185D01*
X159059126Y-104474235D01*
X159059101Y-104474183D01*
X159052308Y-104477471D01*
X159052334Y-104477522D01*
X159045884Y-104480761D01*
X158981716Y-104522964D01*
X158916347Y-104563285D01*
X158910677Y-104567769D01*
X158910641Y-104567723D01*
X158904798Y-104572484D01*
X158904835Y-104572528D01*
X158899310Y-104577164D01*
X158846614Y-104633017D01*
X157883358Y-105596272D01*
X157869729Y-105608051D01*
X157850468Y-105622390D01*
X157816898Y-105662397D01*
X157813253Y-105666376D01*
X157807409Y-105672222D01*
X157787059Y-105697959D01*
X157737695Y-105756789D01*
X157733729Y-105762819D01*
X157733682Y-105762788D01*
X157729630Y-105769147D01*
X157729679Y-105769177D01*
X157725889Y-105775322D01*
X157719354Y-105789336D01*
X157673181Y-105841774D01*
X157605987Y-105860925D01*
X157563641Y-105853111D01*
X157556382Y-105850403D01*
X157556372Y-105850401D01*
X157496844Y-105844000D01*
X157349000Y-105844000D01*
X157349000Y-107245000D01*
X157329315Y-107312039D01*
X157276511Y-107357794D01*
X157225000Y-107369000D01*
X156973000Y-107369000D01*
X156905961Y-107349315D01*
X156860206Y-107296511D01*
X156849000Y-107245000D01*
X156849000Y-105844000D01*
X156701155Y-105844000D01*
X156641627Y-105850401D01*
X156641617Y-105850403D01*
X156508046Y-105900222D01*
X156438355Y-105905206D01*
X156421381Y-105900222D01*
X156279215Y-105847198D01*
X156280172Y-105844631D01*
X156232798Y-105818208D01*
X156155733Y-105741142D01*
X156124561Y-105707516D01*
X156077483Y-105656733D01*
X156073901Y-105653011D01*
X156026868Y-105609941D01*
X156025131Y-105608652D01*
X156011350Y-105596760D01*
X155552702Y-105138111D01*
X155533337Y-105113017D01*
X155358486Y-104813961D01*
X155348758Y-104798006D01*
X155345813Y-104793953D01*
X155345874Y-104793908D01*
X155338844Y-104784366D01*
X155276477Y-104685110D01*
X155156890Y-104565523D01*
X155156884Y-104565518D01*
X155013697Y-104475547D01*
X155013694Y-104475545D01*
X154854056Y-104419685D01*
X154686003Y-104400751D01*
X154685997Y-104400751D01*
X154517943Y-104419685D01*
X154358305Y-104475545D01*
X154358302Y-104475547D01*
X154215115Y-104565518D01*
X154215109Y-104565523D01*
X154095523Y-104685109D01*
X154095518Y-104685115D01*
X154005547Y-104828302D01*
X154005545Y-104828305D01*
X153949685Y-104987943D01*
X153940536Y-105069152D01*
X153913469Y-105133566D01*
X153855875Y-105173121D01*
X153786038Y-105175258D01*
X153726131Y-105139300D01*
X153721612Y-105134115D01*
X153615358Y-105005144D01*
X153596028Y-104970138D01*
X153595868Y-104970214D01*
X153594769Y-104967858D01*
X153593353Y-104965293D01*
X153592814Y-104963665D01*
X153592812Y-104963661D01*
X153589763Y-104957122D01*
X153589817Y-104957096D01*
X153586533Y-104950313D01*
X153586480Y-104950340D01*
X153583238Y-104943886D01*
X153583237Y-104943883D01*
X153541038Y-104879723D01*
X153500712Y-104814344D01*
X153500711Y-104814343D01*
X153500710Y-104814341D01*
X153496234Y-104808681D01*
X153496280Y-104808643D01*
X153491519Y-104802799D01*
X153491474Y-104802838D01*
X153486834Y-104797308D01*
X153430982Y-104744613D01*
X153261278Y-104574910D01*
X153257264Y-104570490D01*
X153255022Y-104567769D01*
X153245840Y-104556623D01*
X153237754Y-104547283D01*
X153232845Y-104541885D01*
X153176061Y-104488393D01*
X153176059Y-104488391D01*
X153174259Y-104487035D01*
X153167722Y-104481354D01*
X152086729Y-103400361D01*
X152074949Y-103386730D01*
X152067482Y-103376701D01*
X152060612Y-103367472D01*
X152060610Y-103367470D01*
X152020587Y-103333886D01*
X152016612Y-103330244D01*
X152013690Y-103327322D01*
X152010780Y-103324411D01*
X151985040Y-103304059D01*
X151926209Y-103254694D01*
X151920180Y-103250729D01*
X151920212Y-103250680D01*
X151913853Y-103246628D01*
X151913822Y-103246679D01*
X151907680Y-103242891D01*
X151907678Y-103242890D01*
X151907677Y-103242889D01*
X151868474Y-103224608D01*
X151838058Y-103210424D01*
X151789299Y-103185937D01*
X151769433Y-103175960D01*
X151769431Y-103175959D01*
X151769430Y-103175959D01*
X151762645Y-103173489D01*
X151762665Y-103173433D01*
X151755549Y-103170959D01*
X151755531Y-103171015D01*
X151748671Y-103168742D01*
X151720841Y-103162996D01*
X151673434Y-103153207D01*
X151624472Y-103141603D01*
X151598719Y-103135499D01*
X151591547Y-103134661D01*
X151591553Y-103134601D01*
X151584055Y-103133835D01*
X151584050Y-103133895D01*
X151576860Y-103133265D01*
X151500083Y-103135500D01*
X149348176Y-103135500D01*
X149325324Y-103133376D01*
X148714768Y-103018897D01*
X148557646Y-102985500D01*
X148529069Y-102985500D01*
X148523277Y-102985229D01*
X148521849Y-102985095D01*
X148521847Y-102985095D01*
X148449570Y-102985500D01*
X148368354Y-102985500D01*
X148335897Y-102992398D01*
X148183197Y-103024855D01*
X148183192Y-103024857D01*
X148010270Y-103101848D01*
X148010265Y-103101851D01*
X147857129Y-103213111D01*
X147730466Y-103353785D01*
X147635821Y-103517715D01*
X147635818Y-103517722D01*
X147604626Y-103613723D01*
X147577326Y-103697744D01*
X147557540Y-103886000D01*
X147577326Y-104074256D01*
X147577327Y-104074259D01*
X147635818Y-104254277D01*
X147635821Y-104254284D01*
X147730467Y-104418216D01*
X147824783Y-104522964D01*
X147857129Y-104558888D01*
X148010265Y-104670148D01*
X148010270Y-104670151D01*
X148183192Y-104747142D01*
X148183197Y-104747144D01*
X148368354Y-104786500D01*
X148368355Y-104786500D01*
X148557644Y-104786500D01*
X148557646Y-104786500D01*
X148714809Y-104753094D01*
X149325318Y-104638624D01*
X149348170Y-104636500D01*
X151148770Y-104636500D01*
X151215809Y-104656185D01*
X151236451Y-104672819D01*
X151759786Y-105196154D01*
X151793271Y-105257477D01*
X151788287Y-105327169D01*
X151771763Y-105357621D01*
X151734049Y-105408559D01*
X151678337Y-105450725D01*
X151608673Y-105456077D01*
X151547174Y-105422916D01*
X151535123Y-105409083D01*
X151525185Y-105395808D01*
X151410093Y-105309649D01*
X151410086Y-105309645D01*
X151275379Y-105259403D01*
X151275372Y-105259401D01*
X151215844Y-105253000D01*
X150618000Y-105253000D01*
X150618000Y-106914000D01*
X150598315Y-106981039D01*
X150545511Y-107026794D01*
X150494000Y-107038000D01*
X150242000Y-107038000D01*
X150174961Y-107018315D01*
X150129206Y-106965511D01*
X150118000Y-106914000D01*
X150118000Y-105253000D01*
X149520155Y-105253000D01*
X149460627Y-105259401D01*
X149460620Y-105259403D01*
X149325913Y-105309645D01*
X149325906Y-105309649D01*
X149210812Y-105395809D01*
X149197578Y-105413488D01*
X149141644Y-105455359D01*
X149071952Y-105460342D01*
X149010629Y-105426856D01*
X148999046Y-105413487D01*
X148985547Y-105395455D01*
X148985544Y-105395452D01*
X148870335Y-105309206D01*
X148870328Y-105309202D01*
X148735482Y-105258908D01*
X148735483Y-105258908D01*
X148675883Y-105252501D01*
X148675881Y-105252500D01*
X148675873Y-105252500D01*
X148675864Y-105252500D01*
X146980129Y-105252500D01*
X146980123Y-105252501D01*
X146920516Y-105258908D01*
X146785671Y-105309202D01*
X146785664Y-105309206D01*
X146670455Y-105395452D01*
X146670452Y-105395455D01*
X146584206Y-105510664D01*
X146584202Y-105510671D01*
X146533908Y-105645517D01*
X146527501Y-105705116D01*
X146527500Y-105705135D01*
X146527500Y-107870870D01*
X146527501Y-107870876D01*
X146533908Y-107930483D01*
X146584202Y-108065328D01*
X146584204Y-108065331D01*
X146634628Y-108132689D01*
X146659046Y-108198152D01*
X146644195Y-108266426D01*
X146594790Y-108315831D01*
X146535362Y-108331000D01*
X135125000Y-108331000D01*
X135057961Y-108311315D01*
X135012206Y-108258511D01*
X135001000Y-108207000D01*
X135001000Y-88135000D01*
X135020685Y-88067961D01*
X135073489Y-88022206D01*
X135125000Y-88011000D01*
X138924527Y-88011000D01*
X138991566Y-88030685D01*
G37*
%TD.AperFunction*%
%TA.AperFunction,Conductor*%
G36*
X164099677Y-88030685D02*
G01*
X164120319Y-88047319D01*
X166968681Y-90895681D01*
X167002166Y-90957004D01*
X167005000Y-90983362D01*
X167005000Y-105358638D01*
X166985315Y-105425677D01*
X166968681Y-105446319D01*
X164120319Y-108294681D01*
X164058996Y-108328166D01*
X164032638Y-108331000D01*
X160534789Y-108331000D01*
X160467750Y-108311315D01*
X160421995Y-108258511D01*
X160412051Y-108189353D01*
X160430377Y-108145114D01*
X160428546Y-108144114D01*
X160432793Y-108136334D01*
X160432796Y-108136331D01*
X160483091Y-108001483D01*
X160489500Y-107941873D01*
X160489499Y-107890357D01*
X160509182Y-107823320D01*
X160561985Y-107777565D01*
X160631144Y-107767620D01*
X160644937Y-107770410D01*
X160675337Y-107778377D01*
X160698416Y-107783970D01*
X160698399Y-107784037D01*
X160714841Y-107788181D01*
X160740939Y-107797313D01*
X160908997Y-107816249D01*
X160909000Y-107816249D01*
X160909003Y-107816249D01*
X161077056Y-107797314D01*
X161077059Y-107797313D01*
X161236690Y-107741456D01*
X161236692Y-107741454D01*
X161236694Y-107741454D01*
X161236697Y-107741452D01*
X161379884Y-107651481D01*
X161379885Y-107651480D01*
X161379890Y-107651477D01*
X161499477Y-107531890D01*
X161520931Y-107497746D01*
X161589452Y-107388697D01*
X161589454Y-107388694D01*
X161589454Y-107388692D01*
X161589456Y-107388690D01*
X161645313Y-107229059D01*
X161645313Y-107229058D01*
X161645314Y-107229056D01*
X161664249Y-107061002D01*
X161664249Y-107060997D01*
X161645314Y-106892943D01*
X161589454Y-106733305D01*
X161589452Y-106733302D01*
X161499481Y-106590115D01*
X161499476Y-106590109D01*
X161379890Y-106470523D01*
X161379884Y-106470518D01*
X161236697Y-106380547D01*
X161236688Y-106380543D01*
X161213818Y-106372540D01*
X161157042Y-106331818D01*
X161131296Y-106266865D01*
X161144753Y-106198303D01*
X161193141Y-106147901D01*
X161254771Y-106131499D01*
X161792676Y-106131499D01*
X161792684Y-106131498D01*
X161792687Y-106131498D01*
X161848030Y-106125844D01*
X161893753Y-106121174D01*
X162057516Y-106066908D01*
X162204350Y-105976340D01*
X162218671Y-105962018D01*
X162279989Y-105928533D01*
X162349681Y-105933514D01*
X162394034Y-105962017D01*
X162407961Y-105975944D01*
X162407965Y-105975947D01*
X162554688Y-106066448D01*
X162554699Y-106066453D01*
X162718347Y-106120680D01*
X162819351Y-106130999D01*
X162918500Y-106130998D01*
X162918500Y-105406000D01*
X163418500Y-105406000D01*
X163418500Y-106130999D01*
X163517640Y-106130999D01*
X163517654Y-106130998D01*
X163618652Y-106120680D01*
X163782300Y-106066453D01*
X163782311Y-106066448D01*
X163929034Y-105975947D01*
X163929038Y-105975944D01*
X164050944Y-105854038D01*
X164050947Y-105854034D01*
X164141448Y-105707311D01*
X164141453Y-105707300D01*
X164195680Y-105543652D01*
X164205999Y-105442654D01*
X164206000Y-105442641D01*
X164206000Y-105406000D01*
X163418500Y-105406000D01*
X162918500Y-105406000D01*
X162918500Y-104181000D01*
X163418500Y-104181000D01*
X163418500Y-104906000D01*
X164205999Y-104906000D01*
X164205999Y-104869360D01*
X164205998Y-104869345D01*
X164195680Y-104768347D01*
X164141453Y-104604699D01*
X164141448Y-104604688D01*
X164050947Y-104457965D01*
X164050944Y-104457961D01*
X163929038Y-104336055D01*
X163929034Y-104336052D01*
X163782311Y-104245551D01*
X163782300Y-104245546D01*
X163618652Y-104191319D01*
X163517654Y-104181000D01*
X163418500Y-104181000D01*
X162918500Y-104181000D01*
X162918500Y-104180999D01*
X162819360Y-104181000D01*
X162819339Y-104181002D01*
X162735713Y-104189544D01*
X162667021Y-104176774D01*
X162616137Y-104128893D01*
X162599217Y-104061102D01*
X162621634Y-103994926D01*
X162625831Y-103989295D01*
X162633940Y-103979040D01*
X162683302Y-103920214D01*
X162683306Y-103920205D01*
X162687274Y-103914175D01*
X162687325Y-103914208D01*
X162691372Y-103907856D01*
X162691320Y-103907824D01*
X162695112Y-103901675D01*
X162727575Y-103832058D01*
X162762036Y-103763440D01*
X162762040Y-103763433D01*
X162762042Y-103763421D01*
X162764509Y-103756646D01*
X162764567Y-103756667D01*
X162767043Y-103749546D01*
X162766986Y-103749528D01*
X162769257Y-103742673D01*
X162784792Y-103667434D01*
X162802498Y-103592728D01*
X162802500Y-103592721D01*
X162802500Y-103592710D01*
X162803338Y-103585548D01*
X162803398Y-103585555D01*
X162804164Y-103578055D01*
X162804105Y-103578050D01*
X162804734Y-103570860D01*
X162802500Y-103494083D01*
X162802500Y-98846001D01*
X163261437Y-98846001D01*
X163281650Y-99077044D01*
X163281651Y-99077051D01*
X163341678Y-99301074D01*
X163341679Y-99301076D01*
X163341680Y-99301079D01*
X163439699Y-99511282D01*
X163552935Y-99672999D01*
X163572730Y-99701269D01*
X163697048Y-99825587D01*
X163730533Y-99886910D01*
X163725549Y-99956602D01*
X163683677Y-100012535D01*
X163652701Y-100029450D01*
X163524669Y-100077203D01*
X163524664Y-100077206D01*
X163409455Y-100163452D01*
X163409452Y-100163455D01*
X163323206Y-100278664D01*
X163323202Y-100278671D01*
X163272908Y-100413517D01*
X163268964Y-100450206D01*
X163266501Y-100473123D01*
X163266500Y-100473135D01*
X163266500Y-102218870D01*
X163266501Y-102218876D01*
X163272908Y-102278483D01*
X163323202Y-102413328D01*
X163323206Y-102413335D01*
X163409452Y-102528544D01*
X163409455Y-102528547D01*
X163524664Y-102614793D01*
X163524671Y-102614797D01*
X163659517Y-102665091D01*
X163659516Y-102665091D01*
X163666444Y-102665835D01*
X163719127Y-102671500D01*
X165464872Y-102671499D01*
X165524483Y-102665091D01*
X165659331Y-102614796D01*
X165774546Y-102528546D01*
X165860796Y-102413331D01*
X165911091Y-102278483D01*
X165917500Y-102218873D01*
X165917499Y-100473128D01*
X165911091Y-100413517D01*
X165906994Y-100402533D01*
X165860797Y-100278671D01*
X165860793Y-100278664D01*
X165774547Y-100163455D01*
X165774544Y-100163452D01*
X165659335Y-100077206D01*
X165659330Y-100077203D01*
X165531298Y-100029450D01*
X165475365Y-99987578D01*
X165450948Y-99922114D01*
X165465800Y-99853841D01*
X165486945Y-99825593D01*
X165611270Y-99701269D01*
X165744301Y-99511282D01*
X165842320Y-99301079D01*
X165902349Y-99077050D01*
X165920636Y-98868021D01*
X165922563Y-98846001D01*
X165922563Y-98845998D01*
X165902349Y-98614955D01*
X165902349Y-98614950D01*
X165842320Y-98390921D01*
X165744301Y-98180719D01*
X165744299Y-98180716D01*
X165744298Y-98180714D01*
X165611273Y-97990735D01*
X165611268Y-97990729D01*
X165447269Y-97826730D01*
X165369681Y-97772402D01*
X165257282Y-97693699D01*
X165047079Y-97595680D01*
X165047076Y-97595679D01*
X165047074Y-97595678D01*
X164823051Y-97535651D01*
X164823044Y-97535650D01*
X164592002Y-97515437D01*
X164591998Y-97515437D01*
X164360955Y-97535650D01*
X164360948Y-97535651D01*
X164136917Y-97595681D01*
X163926718Y-97693699D01*
X163926714Y-97693701D01*
X163736735Y-97826726D01*
X163736729Y-97826731D01*
X163572731Y-97990729D01*
X163572726Y-97990735D01*
X163439701Y-98180714D01*
X163439699Y-98180718D01*
X163341681Y-98390917D01*
X163281651Y-98614948D01*
X163281650Y-98614955D01*
X163261437Y-98845998D01*
X163261437Y-98846001D01*
X162802500Y-98846001D01*
X162802500Y-97599705D01*
X162803809Y-97581735D01*
X162805887Y-97567546D01*
X162807289Y-97557977D01*
X162805368Y-97536023D01*
X162802736Y-97505934D01*
X162802500Y-97500528D01*
X162802500Y-97492297D01*
X162802500Y-97492291D01*
X162798693Y-97459724D01*
X162795343Y-97421431D01*
X162791999Y-97383201D01*
X162790539Y-97376129D01*
X162790597Y-97376116D01*
X162788965Y-97368757D01*
X162788906Y-97368772D01*
X162787242Y-97361753D01*
X162787241Y-97361745D01*
X162760974Y-97289576D01*
X162736814Y-97216666D01*
X162736809Y-97216659D01*
X162733760Y-97210118D01*
X162733815Y-97210091D01*
X162730533Y-97203313D01*
X162730480Y-97203340D01*
X162727235Y-97196880D01*
X162685028Y-97132708D01*
X162644710Y-97067342D01*
X162640234Y-97061682D01*
X162640281Y-97061644D01*
X162635519Y-97055799D01*
X162635474Y-97055838D01*
X162630834Y-97050308D01*
X162574964Y-96997596D01*
X161637955Y-96060587D01*
X161604470Y-95999264D01*
X161609454Y-95929572D01*
X161651326Y-95873639D01*
X161716790Y-95849222D01*
X161768968Y-95856723D01*
X161874517Y-95896091D01*
X161874516Y-95896091D01*
X161878321Y-95896500D01*
X161934127Y-95902500D01*
X162929872Y-95902499D01*
X162989483Y-95896091D01*
X163124331Y-95845796D01*
X163239546Y-95759546D01*
X163325796Y-95644331D01*
X163376091Y-95509483D01*
X163382500Y-95449873D01*
X163382499Y-93854128D01*
X163376091Y-93794517D01*
X163372806Y-93785710D01*
X163325797Y-93659671D01*
X163325793Y-93659664D01*
X163239547Y-93544455D01*
X163239544Y-93544452D01*
X163124335Y-93458206D01*
X163124328Y-93458202D01*
X162989482Y-93407908D01*
X162989483Y-93407908D01*
X162929883Y-93401501D01*
X162929881Y-93401500D01*
X162929873Y-93401500D01*
X162929864Y-93401500D01*
X161934129Y-93401500D01*
X161934123Y-93401501D01*
X161874516Y-93407908D01*
X161739671Y-93458202D01*
X161739664Y-93458206D01*
X161624455Y-93544452D01*
X161624452Y-93544455D01*
X161538206Y-93659664D01*
X161538202Y-93659671D01*
X161487908Y-93794517D01*
X161481930Y-93850127D01*
X161481501Y-93854123D01*
X161481500Y-93854135D01*
X161481500Y-95449870D01*
X161481501Y-95449876D01*
X161487908Y-95509483D01*
X161527275Y-95615030D01*
X161532259Y-95684722D01*
X161498774Y-95746045D01*
X161437450Y-95779529D01*
X161367759Y-95774544D01*
X161323412Y-95746044D01*
X160493112Y-94915744D01*
X160477375Y-94896479D01*
X160473521Y-94890654D01*
X160315536Y-94651844D01*
X160103081Y-94330698D01*
X160082510Y-94263926D01*
X160082499Y-94262282D01*
X160082499Y-93854129D01*
X160082498Y-93854123D01*
X160082497Y-93854116D01*
X160076091Y-93794517D01*
X160072806Y-93785710D01*
X160025797Y-93659671D01*
X160025793Y-93659664D01*
X159939547Y-93544455D01*
X159939544Y-93544452D01*
X159824335Y-93458206D01*
X159824328Y-93458202D01*
X159689482Y-93407908D01*
X159689483Y-93407908D01*
X159629883Y-93401501D01*
X159629881Y-93401500D01*
X159629873Y-93401500D01*
X159629864Y-93401500D01*
X158634129Y-93401500D01*
X158634123Y-93401501D01*
X158574516Y-93407908D01*
X158439671Y-93458202D01*
X158439664Y-93458206D01*
X158324455Y-93544452D01*
X158324452Y-93544455D01*
X158238206Y-93659664D01*
X158238202Y-93659671D01*
X158187908Y-93794517D01*
X158181930Y-93850127D01*
X158181501Y-93854123D01*
X158181500Y-93854135D01*
X158181500Y-95385738D01*
X158181073Y-95393004D01*
X158178902Y-95411413D01*
X158178902Y-95411420D01*
X158179129Y-95420375D01*
X158183404Y-95474395D01*
X158184853Y-95482489D01*
X158185468Y-95486785D01*
X158187909Y-95509484D01*
X158187909Y-95509485D01*
X158209362Y-95567004D01*
X158210934Y-95571809D01*
X158222534Y-95612850D01*
X158222535Y-95612854D01*
X158263714Y-95705508D01*
X158272953Y-95774764D01*
X158243282Y-95838021D01*
X158238085Y-95843547D01*
X158221451Y-95860180D01*
X158160132Y-95893665D01*
X158133770Y-95896500D01*
X157034745Y-95896500D01*
X156967706Y-95876815D01*
X156921951Y-95824011D01*
X156912007Y-95754853D01*
X156935478Y-95698189D01*
X156962458Y-95662148D01*
X156975796Y-95644331D01*
X157026091Y-95509483D01*
X157032500Y-95449873D01*
X157032499Y-94922726D01*
X157039994Y-94880270D01*
X157060259Y-94824663D01*
X157369845Y-93975141D01*
X157398666Y-93929922D01*
X159515788Y-91812801D01*
X159528042Y-91802986D01*
X159527859Y-91802764D01*
X159533866Y-91797792D01*
X159533877Y-91797786D01*
X159564775Y-91764882D01*
X159581227Y-91747364D01*
X159591671Y-91736918D01*
X159602120Y-91726471D01*
X159606379Y-91720978D01*
X159610152Y-91716561D01*
X159642062Y-91682582D01*
X159651713Y-91665024D01*
X159662396Y-91648761D01*
X159674673Y-91632936D01*
X159693185Y-91590153D01*
X159695738Y-91584941D01*
X159718197Y-91544092D01*
X159723180Y-91524680D01*
X159729481Y-91506280D01*
X159737437Y-91487896D01*
X159744729Y-91441852D01*
X159745906Y-91436171D01*
X159757500Y-91391019D01*
X159757500Y-91370983D01*
X159759027Y-91351582D01*
X159762160Y-91331804D01*
X159757775Y-91285415D01*
X159757500Y-91279577D01*
X159757500Y-91162473D01*
X159777185Y-91095434D01*
X159780967Y-91089884D01*
X159987284Y-90804215D01*
X160008396Y-90768220D01*
X160012236Y-90762443D01*
X160025796Y-90744331D01*
X160027939Y-90738583D01*
X160034769Y-90724294D01*
X160034430Y-90724117D01*
X160035790Y-90721521D01*
X160035800Y-90721505D01*
X160037664Y-90717499D01*
X160040078Y-90712231D01*
X160047361Y-90687018D01*
X160048829Y-90682573D01*
X160076091Y-90609483D01*
X160079548Y-90577324D01*
X160080009Y-90574012D01*
X160080012Y-90574004D01*
X160080011Y-90573995D01*
X160080236Y-90572388D01*
X160080378Y-90569598D01*
X160082500Y-90549873D01*
X160082499Y-90002000D01*
X161482000Y-90002000D01*
X161482000Y-90549844D01*
X161488401Y-90609372D01*
X161488403Y-90609379D01*
X161538645Y-90744086D01*
X161538649Y-90744093D01*
X161624809Y-90859187D01*
X161624812Y-90859190D01*
X161739906Y-90945350D01*
X161739913Y-90945354D01*
X161874620Y-90995596D01*
X161874627Y-90995598D01*
X161934155Y-91001999D01*
X161934172Y-91002000D01*
X162182000Y-91002000D01*
X162182000Y-90002000D01*
X162682000Y-90002000D01*
X162682000Y-91002000D01*
X162929828Y-91002000D01*
X162929844Y-91001999D01*
X162989372Y-90995598D01*
X162989379Y-90995596D01*
X163124086Y-90945354D01*
X163124093Y-90945350D01*
X163239187Y-90859190D01*
X163239190Y-90859187D01*
X163325350Y-90744093D01*
X163325354Y-90744086D01*
X163375596Y-90609379D01*
X163375598Y-90609372D01*
X163381999Y-90549844D01*
X163382000Y-90549827D01*
X163382000Y-90002000D01*
X162682000Y-90002000D01*
X162182000Y-90002000D01*
X161482000Y-90002000D01*
X160082499Y-90002000D01*
X160082499Y-89502000D01*
X161482000Y-89502000D01*
X162182000Y-89502000D01*
X162182000Y-88502000D01*
X162682000Y-88502000D01*
X162682000Y-89502000D01*
X163382000Y-89502000D01*
X163382000Y-88954172D01*
X163381999Y-88954155D01*
X163375598Y-88894627D01*
X163375596Y-88894620D01*
X163325354Y-88759913D01*
X163325350Y-88759906D01*
X163239190Y-88644812D01*
X163239187Y-88644809D01*
X163124093Y-88558649D01*
X163124086Y-88558645D01*
X162989379Y-88508403D01*
X162989372Y-88508401D01*
X162929844Y-88502000D01*
X162682000Y-88502000D01*
X162182000Y-88502000D01*
X161934155Y-88502000D01*
X161874627Y-88508401D01*
X161874620Y-88508403D01*
X161739913Y-88558645D01*
X161739906Y-88558649D01*
X161624812Y-88644809D01*
X161624809Y-88644812D01*
X161538649Y-88759906D01*
X161538645Y-88759913D01*
X161488403Y-88894620D01*
X161488401Y-88894627D01*
X161482000Y-88954155D01*
X161482000Y-89502000D01*
X160082499Y-89502000D01*
X160082499Y-88954128D01*
X160076091Y-88894517D01*
X160065948Y-88867323D01*
X160025797Y-88759671D01*
X160025793Y-88759664D01*
X159939547Y-88644455D01*
X159939544Y-88644452D01*
X159824335Y-88558206D01*
X159824328Y-88558202D01*
X159689482Y-88507908D01*
X159689483Y-88507908D01*
X159629883Y-88501501D01*
X159629881Y-88501500D01*
X159629873Y-88501500D01*
X159629864Y-88501500D01*
X158634129Y-88501500D01*
X158634123Y-88501501D01*
X158574516Y-88507908D01*
X158439671Y-88558202D01*
X158439664Y-88558206D01*
X158324455Y-88644452D01*
X158324452Y-88644455D01*
X158238206Y-88759664D01*
X158238202Y-88759671D01*
X158187908Y-88894517D01*
X158181501Y-88954116D01*
X158181501Y-88954123D01*
X158181500Y-88954135D01*
X158181500Y-90451377D01*
X158179953Y-90467153D01*
X158179651Y-90472866D01*
X158181249Y-90490566D01*
X158181500Y-90496139D01*
X158181500Y-90549868D01*
X158181501Y-90549877D01*
X158187908Y-90609482D01*
X158197639Y-90635572D01*
X158199023Y-90639727D01*
X158209931Y-90676773D01*
X158218783Y-90693664D01*
X158221956Y-90700771D01*
X158229690Y-90721505D01*
X158238202Y-90744327D01*
X158238204Y-90744331D01*
X158251756Y-90762435D01*
X158256020Y-90768130D01*
X158266583Y-90784880D01*
X158272152Y-90795506D01*
X158276716Y-90804215D01*
X158415538Y-90996432D01*
X158438830Y-91062304D01*
X158422812Y-91130313D01*
X158402694Y-91156713D01*
X156480203Y-93079204D01*
X156454211Y-93099089D01*
X155955555Y-93385066D01*
X155893866Y-93401500D01*
X155584130Y-93401500D01*
X155584123Y-93401501D01*
X155524516Y-93407908D01*
X155389671Y-93458202D01*
X155389664Y-93458206D01*
X155274455Y-93544452D01*
X155274452Y-93544455D01*
X155188206Y-93659664D01*
X155188202Y-93659671D01*
X155137908Y-93794517D01*
X155131930Y-93850127D01*
X155131501Y-93854123D01*
X155131500Y-93854135D01*
X155131500Y-95449870D01*
X155131501Y-95449876D01*
X155137908Y-95509483D01*
X155188202Y-95644328D01*
X155188204Y-95644331D01*
X155228522Y-95698189D01*
X155252939Y-95763653D01*
X155238087Y-95831926D01*
X155188682Y-95881332D01*
X155129255Y-95896500D01*
X154032229Y-95896500D01*
X153965190Y-95876815D01*
X153944548Y-95860181D01*
X153746516Y-95662148D01*
X153713031Y-95600825D01*
X153718014Y-95531136D01*
X153726091Y-95509483D01*
X153732500Y-95449873D01*
X153732499Y-93854128D01*
X153726091Y-93794517D01*
X153722806Y-93785710D01*
X153675797Y-93659671D01*
X153675793Y-93659664D01*
X153589547Y-93544455D01*
X153589544Y-93544452D01*
X153474335Y-93458206D01*
X153474328Y-93458202D01*
X153339482Y-93407908D01*
X153339483Y-93407908D01*
X153279883Y-93401501D01*
X153279881Y-93401500D01*
X153279873Y-93401500D01*
X153279864Y-93401500D01*
X152284129Y-93401500D01*
X152284123Y-93401501D01*
X152224516Y-93407908D01*
X152089671Y-93458202D01*
X152089664Y-93458206D01*
X151974455Y-93544452D01*
X151974452Y-93544455D01*
X151888206Y-93659664D01*
X151888202Y-93659671D01*
X151837908Y-93794517D01*
X151831930Y-93850127D01*
X151831501Y-93854123D01*
X151831500Y-93854135D01*
X151831500Y-95388167D01*
X151831034Y-95395754D01*
X151829272Y-95410053D01*
X151829273Y-95410060D01*
X151829858Y-95413619D01*
X151831500Y-95433724D01*
X151831500Y-95449857D01*
X151831501Y-95449872D01*
X151837908Y-95509484D01*
X151837909Y-95509485D01*
X151845441Y-95529681D01*
X151850423Y-95599373D01*
X151816939Y-95660691D01*
X151617449Y-95860182D01*
X151556129Y-95893666D01*
X151529770Y-95896500D01*
X150684745Y-95896500D01*
X150617706Y-95876815D01*
X150571951Y-95824011D01*
X150562007Y-95754853D01*
X150585478Y-95698189D01*
X150612458Y-95662148D01*
X150625796Y-95644331D01*
X150676091Y-95509483D01*
X150682500Y-95449873D01*
X150682499Y-94878095D01*
X150686544Y-94846681D01*
X150692310Y-94824663D01*
X150919884Y-93955694D01*
X150952156Y-93899432D01*
X153165788Y-91685801D01*
X153178042Y-91675986D01*
X153177859Y-91675764D01*
X153183866Y-91670792D01*
X153183877Y-91670786D01*
X153214775Y-91637882D01*
X153231227Y-91620364D01*
X153241671Y-91609918D01*
X153252120Y-91599471D01*
X153256379Y-91593978D01*
X153260152Y-91589561D01*
X153292062Y-91555582D01*
X153301713Y-91538024D01*
X153312396Y-91521761D01*
X153324673Y-91505936D01*
X153343185Y-91463153D01*
X153345738Y-91457941D01*
X153368197Y-91417092D01*
X153373180Y-91397680D01*
X153379481Y-91379280D01*
X153387437Y-91360896D01*
X153394729Y-91314852D01*
X153395906Y-91309171D01*
X153407500Y-91264019D01*
X153407500Y-91243983D01*
X153409027Y-91224582D01*
X153412160Y-91204804D01*
X153409121Y-91172658D01*
X153422409Y-91104066D01*
X153432043Y-91088394D01*
X153637284Y-90804215D01*
X153658396Y-90768220D01*
X153662236Y-90762443D01*
X153675796Y-90744331D01*
X153677939Y-90738583D01*
X153684769Y-90724294D01*
X153684430Y-90724117D01*
X153685790Y-90721521D01*
X153685800Y-90721505D01*
X153687664Y-90717499D01*
X153690078Y-90712231D01*
X153697361Y-90687018D01*
X153698829Y-90682573D01*
X153726091Y-90609483D01*
X153729548Y-90577324D01*
X153730009Y-90574012D01*
X153730012Y-90574004D01*
X153730011Y-90573995D01*
X153730236Y-90572388D01*
X153730378Y-90569598D01*
X153732500Y-90549873D01*
X153732499Y-90002000D01*
X155132000Y-90002000D01*
X155132000Y-90549844D01*
X155138401Y-90609372D01*
X155138403Y-90609379D01*
X155188645Y-90744086D01*
X155188649Y-90744093D01*
X155274809Y-90859187D01*
X155274812Y-90859190D01*
X155389906Y-90945350D01*
X155389913Y-90945354D01*
X155524620Y-90995596D01*
X155524627Y-90995598D01*
X155584155Y-91001999D01*
X155584172Y-91002000D01*
X155832000Y-91002000D01*
X155832000Y-90002000D01*
X156332000Y-90002000D01*
X156332000Y-91002000D01*
X156579828Y-91002000D01*
X156579844Y-91001999D01*
X156639372Y-90995598D01*
X156639379Y-90995596D01*
X156774086Y-90945354D01*
X156774093Y-90945350D01*
X156889187Y-90859190D01*
X156889190Y-90859187D01*
X156975350Y-90744093D01*
X156975354Y-90744086D01*
X157025596Y-90609379D01*
X157025598Y-90609372D01*
X157031999Y-90549844D01*
X157032000Y-90549827D01*
X157032000Y-90002000D01*
X156332000Y-90002000D01*
X155832000Y-90002000D01*
X155132000Y-90002000D01*
X153732499Y-90002000D01*
X153732499Y-89502000D01*
X155132000Y-89502000D01*
X155832000Y-89502000D01*
X155832000Y-88502000D01*
X156332000Y-88502000D01*
X156332000Y-89502000D01*
X157032000Y-89502000D01*
X157032000Y-88954172D01*
X157031999Y-88954155D01*
X157025598Y-88894627D01*
X157025596Y-88894620D01*
X156975354Y-88759913D01*
X156975350Y-88759906D01*
X156889190Y-88644812D01*
X156889187Y-88644809D01*
X156774093Y-88558649D01*
X156774086Y-88558645D01*
X156639379Y-88508403D01*
X156639372Y-88508401D01*
X156579844Y-88502000D01*
X156332000Y-88502000D01*
X155832000Y-88502000D01*
X155584155Y-88502000D01*
X155524627Y-88508401D01*
X155524620Y-88508403D01*
X155389913Y-88558645D01*
X155389906Y-88558649D01*
X155274812Y-88644809D01*
X155274809Y-88644812D01*
X155188649Y-88759906D01*
X155188645Y-88759913D01*
X155138403Y-88894620D01*
X155138401Y-88894627D01*
X155132000Y-88954155D01*
X155132000Y-89502000D01*
X153732499Y-89502000D01*
X153732499Y-88954128D01*
X153726091Y-88894517D01*
X153715948Y-88867323D01*
X153675797Y-88759671D01*
X153675793Y-88759664D01*
X153589547Y-88644455D01*
X153589544Y-88644452D01*
X153474335Y-88558206D01*
X153474328Y-88558202D01*
X153339482Y-88507908D01*
X153339483Y-88507908D01*
X153279883Y-88501501D01*
X153279881Y-88501500D01*
X153279873Y-88501500D01*
X153279864Y-88501500D01*
X152284129Y-88501500D01*
X152284123Y-88501501D01*
X152224516Y-88507908D01*
X152089671Y-88558202D01*
X152089664Y-88558206D01*
X151974455Y-88644452D01*
X151974452Y-88644455D01*
X151888206Y-88759664D01*
X151888202Y-88759671D01*
X151837908Y-88894517D01*
X151831501Y-88954116D01*
X151831501Y-88954123D01*
X151831500Y-88954135D01*
X151831500Y-90451377D01*
X151829953Y-90467153D01*
X151829651Y-90472866D01*
X151831249Y-90490566D01*
X151831500Y-90496139D01*
X151831500Y-90549868D01*
X151831501Y-90549877D01*
X151837908Y-90609482D01*
X151847639Y-90635572D01*
X151849023Y-90639727D01*
X151859931Y-90676773D01*
X151868783Y-90693664D01*
X151871956Y-90700771D01*
X151879690Y-90721505D01*
X151888202Y-90744327D01*
X151888204Y-90744331D01*
X151901756Y-90762435D01*
X151906020Y-90768130D01*
X151916583Y-90784880D01*
X151922152Y-90795506D01*
X151926716Y-90804215D01*
X152012280Y-90922690D01*
X152035572Y-90988563D01*
X152019554Y-91056571D01*
X151999436Y-91082971D01*
X150005025Y-93077382D01*
X149984376Y-93094021D01*
X149536481Y-93381820D01*
X149469450Y-93401500D01*
X149234130Y-93401500D01*
X149234123Y-93401501D01*
X149174516Y-93407908D01*
X149039671Y-93458202D01*
X149039664Y-93458206D01*
X148924455Y-93544452D01*
X148924452Y-93544455D01*
X148838206Y-93659664D01*
X148838202Y-93659671D01*
X148787908Y-93794517D01*
X148781930Y-93850127D01*
X148781501Y-93854123D01*
X148781500Y-93854135D01*
X148781500Y-95449870D01*
X148781501Y-95449876D01*
X148787908Y-95509483D01*
X148838202Y-95644328D01*
X148838204Y-95644331D01*
X148878522Y-95698189D01*
X148902939Y-95763653D01*
X148888087Y-95831926D01*
X148838682Y-95881332D01*
X148779255Y-95896500D01*
X147406206Y-95896500D01*
X147339167Y-95876815D01*
X147293412Y-95824011D01*
X147283468Y-95754853D01*
X147292893Y-95722139D01*
X147300285Y-95705508D01*
X147345909Y-95602852D01*
X147350550Y-95591060D01*
X147353926Y-95582483D01*
X147357601Y-95571809D01*
X147358147Y-95570224D01*
X147365713Y-95538621D01*
X147367920Y-95531390D01*
X147376090Y-95509485D01*
X147376091Y-95509483D01*
X147378437Y-95487663D01*
X147379789Y-95479841D01*
X147380852Y-95475404D01*
X147380824Y-95469053D01*
X147381178Y-95462161D01*
X147382500Y-95449873D01*
X147382499Y-93854128D01*
X147376091Y-93794517D01*
X147372806Y-93785710D01*
X147325797Y-93659671D01*
X147325793Y-93659664D01*
X147239547Y-93544455D01*
X147239544Y-93544452D01*
X147124335Y-93458206D01*
X147124328Y-93458202D01*
X146989482Y-93407908D01*
X146989483Y-93407908D01*
X146929883Y-93401501D01*
X146929881Y-93401500D01*
X146929873Y-93401500D01*
X146929865Y-93401500D01*
X146542451Y-93401500D01*
X146475412Y-93381815D01*
X146429657Y-93329011D01*
X146419713Y-93259853D01*
X146448738Y-93196297D01*
X146454770Y-93189819D01*
X146531089Y-93113500D01*
X146815787Y-92828802D01*
X146828042Y-92818986D01*
X146827859Y-92818764D01*
X146833866Y-92813792D01*
X146833877Y-92813786D01*
X146864775Y-92780882D01*
X146881227Y-92763364D01*
X146891671Y-92752918D01*
X146902120Y-92742471D01*
X146906379Y-92736978D01*
X146910152Y-92732561D01*
X146942062Y-92698582D01*
X146951715Y-92681020D01*
X146962389Y-92664770D01*
X146974673Y-92648936D01*
X146993180Y-92606167D01*
X146995749Y-92600924D01*
X147018196Y-92560093D01*
X147018197Y-92560092D01*
X147023177Y-92540691D01*
X147029478Y-92522288D01*
X147037438Y-92503896D01*
X147044730Y-92457849D01*
X147045911Y-92452152D01*
X147057500Y-92407019D01*
X147057500Y-92386983D01*
X147059027Y-92367582D01*
X147062160Y-92347804D01*
X147057775Y-92301415D01*
X147057500Y-92295577D01*
X147057500Y-91055861D01*
X147077185Y-90988822D01*
X147117418Y-90951362D01*
X147117231Y-90951112D01*
X147119565Y-90949364D01*
X147122076Y-90947027D01*
X147124323Y-90945798D01*
X147124331Y-90945796D01*
X147239546Y-90859546D01*
X147325796Y-90744331D01*
X147376091Y-90609483D01*
X147382500Y-90549873D01*
X147382499Y-90002000D01*
X148782000Y-90002000D01*
X148782000Y-90549844D01*
X148788401Y-90609372D01*
X148788403Y-90609379D01*
X148838645Y-90744086D01*
X148838649Y-90744093D01*
X148924809Y-90859187D01*
X148924812Y-90859190D01*
X149039906Y-90945350D01*
X149039913Y-90945354D01*
X149174620Y-90995596D01*
X149174627Y-90995598D01*
X149234155Y-91001999D01*
X149234172Y-91002000D01*
X149482000Y-91002000D01*
X149482000Y-90002000D01*
X149982000Y-90002000D01*
X149982000Y-91002000D01*
X150229828Y-91002000D01*
X150229844Y-91001999D01*
X150289372Y-90995598D01*
X150289379Y-90995596D01*
X150424086Y-90945354D01*
X150424093Y-90945350D01*
X150539187Y-90859190D01*
X150539190Y-90859187D01*
X150625350Y-90744093D01*
X150625354Y-90744086D01*
X150675596Y-90609379D01*
X150675598Y-90609372D01*
X150681999Y-90549844D01*
X150682000Y-90549827D01*
X150682000Y-90002000D01*
X149982000Y-90002000D01*
X149482000Y-90002000D01*
X148782000Y-90002000D01*
X147382499Y-90002000D01*
X147382499Y-89502000D01*
X148782000Y-89502000D01*
X149482000Y-89502000D01*
X149482000Y-88502000D01*
X149982000Y-88502000D01*
X149982000Y-89502000D01*
X150682000Y-89502000D01*
X150682000Y-88954172D01*
X150681999Y-88954155D01*
X150675598Y-88894627D01*
X150675596Y-88894620D01*
X150625354Y-88759913D01*
X150625350Y-88759906D01*
X150539190Y-88644812D01*
X150539187Y-88644809D01*
X150424093Y-88558649D01*
X150424086Y-88558645D01*
X150289379Y-88508403D01*
X150289372Y-88508401D01*
X150229844Y-88502000D01*
X149982000Y-88502000D01*
X149482000Y-88502000D01*
X149234155Y-88502000D01*
X149174627Y-88508401D01*
X149174620Y-88508403D01*
X149039913Y-88558645D01*
X149039906Y-88558649D01*
X148924812Y-88644809D01*
X148924809Y-88644812D01*
X148838649Y-88759906D01*
X148838645Y-88759913D01*
X148788403Y-88894620D01*
X148788401Y-88894627D01*
X148782000Y-88954155D01*
X148782000Y-89502000D01*
X147382499Y-89502000D01*
X147382499Y-88954128D01*
X147376091Y-88894517D01*
X147365948Y-88867323D01*
X147325797Y-88759671D01*
X147325793Y-88759664D01*
X147239547Y-88644455D01*
X147239544Y-88644452D01*
X147124335Y-88558206D01*
X147124328Y-88558202D01*
X146989482Y-88507908D01*
X146989483Y-88507908D01*
X146929883Y-88501501D01*
X146929881Y-88501500D01*
X146929873Y-88501500D01*
X146929864Y-88501500D01*
X145934129Y-88501500D01*
X145934123Y-88501501D01*
X145874516Y-88507908D01*
X145739671Y-88558202D01*
X145739664Y-88558206D01*
X145624455Y-88644452D01*
X145624452Y-88644455D01*
X145538206Y-88759664D01*
X145538202Y-88759671D01*
X145487908Y-88894517D01*
X145481501Y-88954116D01*
X145481501Y-88954123D01*
X145481500Y-88954135D01*
X145481500Y-90549870D01*
X145481501Y-90549876D01*
X145487908Y-90609483D01*
X145538202Y-90744328D01*
X145538206Y-90744335D01*
X145624452Y-90859544D01*
X145624455Y-90859547D01*
X145739663Y-90945792D01*
X145739665Y-90945793D01*
X145739669Y-90945796D01*
X145739673Y-90945797D01*
X145741924Y-90947027D01*
X145743746Y-90948849D01*
X145746769Y-90951112D01*
X145746443Y-90951546D01*
X145791331Y-90996431D01*
X145806500Y-91055861D01*
X145806500Y-92017546D01*
X145786815Y-92084585D01*
X145770181Y-92105227D01*
X144396208Y-93479199D01*
X144383951Y-93489020D01*
X144384134Y-93489241D01*
X144378123Y-93494213D01*
X144330772Y-93544636D01*
X144309889Y-93565519D01*
X144309877Y-93565532D01*
X144305621Y-93571017D01*
X144301837Y-93575447D01*
X144269937Y-93609418D01*
X144269936Y-93609420D01*
X144260284Y-93626976D01*
X144249610Y-93643226D01*
X144237329Y-93659061D01*
X144237324Y-93659068D01*
X144218815Y-93701838D01*
X144216245Y-93707084D01*
X144193803Y-93747906D01*
X144188822Y-93767307D01*
X144182521Y-93785710D01*
X144174562Y-93804102D01*
X144174561Y-93804105D01*
X144167271Y-93850127D01*
X144166087Y-93855846D01*
X144154501Y-93900972D01*
X144154500Y-93900982D01*
X144154500Y-93921016D01*
X144152973Y-93940415D01*
X144149840Y-93960194D01*
X144149840Y-93960195D01*
X144154225Y-94006583D01*
X144154500Y-94012421D01*
X144154500Y-96082546D01*
X144134815Y-96149585D01*
X144118181Y-96170227D01*
X143421315Y-96867092D01*
X143359992Y-96900577D01*
X143290300Y-96895593D01*
X143234367Y-96853721D01*
X143209950Y-96788257D01*
X143210275Y-96766812D01*
X143215500Y-96715677D01*
X143215499Y-96117324D01*
X143211946Y-96082546D01*
X143205174Y-96016247D01*
X143190023Y-95970524D01*
X143150908Y-95852484D01*
X143060340Y-95705650D01*
X142946017Y-95591327D01*
X142912532Y-95530004D01*
X142917516Y-95460312D01*
X142946017Y-95415964D01*
X143059948Y-95302033D01*
X143150448Y-95155311D01*
X143150453Y-95155300D01*
X143204680Y-94991652D01*
X143214999Y-94890654D01*
X143215000Y-94890641D01*
X143215000Y-94841500D01*
X141265001Y-94841500D01*
X141265001Y-94890654D01*
X141275319Y-94991652D01*
X141329546Y-95155300D01*
X141329551Y-95155311D01*
X141420052Y-95302034D01*
X141420055Y-95302038D01*
X141522129Y-95404112D01*
X141555614Y-95465435D01*
X141550630Y-95535127D01*
X141508758Y-95591060D01*
X141494548Y-95600254D01*
X141439059Y-95631000D01*
X141181725Y-95773582D01*
X141125524Y-95789057D01*
X141063703Y-95791000D01*
X141034150Y-95791000D01*
X141033429Y-95791090D01*
X141027257Y-95791869D01*
X141021445Y-95792326D01*
X140974872Y-95793790D01*
X140974870Y-95793791D01*
X140968508Y-95795639D01*
X140910046Y-95798238D01*
X140387475Y-95695690D01*
X140325481Y-95663465D01*
X140290750Y-95602838D01*
X140294310Y-95533059D01*
X140335031Y-95476282D01*
X140340220Y-95472443D01*
X140444401Y-95399495D01*
X140611495Y-95232401D01*
X140747035Y-95038830D01*
X140790673Y-94945247D01*
X140803639Y-94923541D01*
X140804246Y-94922727D01*
X140807487Y-94918379D01*
X141092402Y-94394017D01*
X141141705Y-94344510D01*
X141209947Y-94329517D01*
X141242280Y-94341500D01*
X141990000Y-94341500D01*
X141990000Y-93604000D01*
X142490000Y-93604000D01*
X142490000Y-94341500D01*
X143214999Y-94341500D01*
X143214999Y-94292360D01*
X143214998Y-94292345D01*
X143204680Y-94191347D01*
X143150453Y-94027699D01*
X143150448Y-94027688D01*
X143059947Y-93880965D01*
X143059944Y-93880961D01*
X142938038Y-93759055D01*
X142938034Y-93759052D01*
X142791311Y-93668551D01*
X142791300Y-93668546D01*
X142627652Y-93614319D01*
X142526654Y-93604000D01*
X142490000Y-93604000D01*
X141990000Y-93604000D01*
X141953361Y-93604000D01*
X141953343Y-93604001D01*
X141901626Y-93609285D01*
X141832933Y-93596515D01*
X141782048Y-93548635D01*
X141765128Y-93480845D01*
X141787544Y-93414668D01*
X141801343Y-93398246D01*
X141817774Y-93381815D01*
X142194963Y-93004626D01*
X142209877Y-92991904D01*
X142717440Y-92624131D01*
X142751193Y-92606837D01*
X142757016Y-92604908D01*
X142903850Y-92514340D01*
X143018175Y-92400014D01*
X143079494Y-92366532D01*
X143149186Y-92371516D01*
X143193534Y-92400017D01*
X143307461Y-92513944D01*
X143307465Y-92513947D01*
X143454188Y-92604448D01*
X143454199Y-92604453D01*
X143617847Y-92658680D01*
X143718851Y-92668999D01*
X143767999Y-92668998D01*
X143768000Y-92668998D01*
X143768000Y-91944000D01*
X144268000Y-91944000D01*
X144268000Y-92668999D01*
X144317140Y-92668999D01*
X144317154Y-92668998D01*
X144418152Y-92658680D01*
X144581800Y-92604453D01*
X144581811Y-92604448D01*
X144728534Y-92513947D01*
X144728538Y-92513944D01*
X144850444Y-92392038D01*
X144850447Y-92392034D01*
X144940948Y-92245311D01*
X144940953Y-92245300D01*
X144995180Y-92081652D01*
X145005499Y-91980654D01*
X145005500Y-91980641D01*
X145005500Y-91944000D01*
X144268000Y-91944000D01*
X143768000Y-91944000D01*
X143768000Y-90719000D01*
X144268000Y-90719000D01*
X144268000Y-91444000D01*
X145005499Y-91444000D01*
X145005499Y-91407360D01*
X145005498Y-91407345D01*
X144995180Y-91306347D01*
X144940953Y-91142699D01*
X144940948Y-91142688D01*
X144850447Y-90995965D01*
X144850444Y-90995961D01*
X144728538Y-90874055D01*
X144728534Y-90874052D01*
X144581811Y-90783551D01*
X144581800Y-90783546D01*
X144418152Y-90729319D01*
X144317154Y-90719000D01*
X144268000Y-90719000D01*
X143768000Y-90719000D01*
X143767999Y-90718999D01*
X143718861Y-90719000D01*
X143718843Y-90719001D01*
X143617847Y-90729319D01*
X143454199Y-90783546D01*
X143454188Y-90783551D01*
X143307465Y-90874052D01*
X143193534Y-90987983D01*
X143132211Y-91021467D01*
X143062519Y-91016483D01*
X143018172Y-90987982D01*
X142903851Y-90873661D01*
X142903850Y-90873660D01*
X142777147Y-90795509D01*
X142757018Y-90783093D01*
X142757013Y-90783091D01*
X142734431Y-90775608D01*
X142593253Y-90728826D01*
X142593251Y-90728825D01*
X142492178Y-90718500D01*
X141893830Y-90718500D01*
X141893812Y-90718501D01*
X141792747Y-90728825D01*
X141628984Y-90783092D01*
X141628981Y-90783093D01*
X141482148Y-90873661D01*
X141360161Y-90995648D01*
X141269593Y-91142481D01*
X141269591Y-91142486D01*
X141258375Y-91176335D01*
X141215326Y-91306247D01*
X141215326Y-91306248D01*
X141215325Y-91306248D01*
X141205000Y-91407315D01*
X141205000Y-91911921D01*
X141204630Y-91918690D01*
X141200536Y-91955990D01*
X141200536Y-91955992D01*
X141207606Y-92167222D01*
X141190175Y-92234882D01*
X141171357Y-92259050D01*
X141135181Y-92295227D01*
X141073859Y-92328713D01*
X141004167Y-92323729D01*
X140948233Y-92281859D01*
X140923815Y-92216395D01*
X140923499Y-92207547D01*
X140923499Y-90965625D01*
X140923909Y-90958502D01*
X140924055Y-90957236D01*
X140923809Y-90948377D01*
X140923923Y-90948373D01*
X140923499Y-90943408D01*
X140923499Y-90923129D01*
X140923498Y-90923123D01*
X140923451Y-90922690D01*
X140917091Y-90863517D01*
X140901767Y-90822434D01*
X140899656Y-90815587D01*
X140899635Y-90815505D01*
X140899626Y-90815449D01*
X140896865Y-90806930D01*
X140896861Y-90806919D01*
X140896862Y-90806920D01*
X140887474Y-90782501D01*
X140877433Y-90756381D01*
X140877430Y-90756377D01*
X140877098Y-90755512D01*
X140875085Y-90750895D01*
X140866798Y-90728673D01*
X140866796Y-90728669D01*
X140861433Y-90721505D01*
X140824275Y-90671868D01*
X140821499Y-90667836D01*
X140800592Y-90634739D01*
X140800591Y-90634738D01*
X140351477Y-90108191D01*
X140322948Y-90044411D01*
X140333431Y-89975333D01*
X140335605Y-89970903D01*
X140368517Y-89907154D01*
X140416761Y-89856618D01*
X140484670Y-89840186D01*
X140550684Y-89863077D01*
X140566378Y-89876361D01*
X140663961Y-89973944D01*
X140663965Y-89973947D01*
X140810688Y-90064448D01*
X140810699Y-90064453D01*
X140974347Y-90118680D01*
X141075351Y-90128999D01*
X141124499Y-90128998D01*
X141124500Y-90128998D01*
X141124500Y-89404000D01*
X141624500Y-89404000D01*
X141624500Y-90128999D01*
X141673640Y-90128999D01*
X141673654Y-90128998D01*
X141774652Y-90118680D01*
X141938300Y-90064453D01*
X141938311Y-90064448D01*
X142085034Y-89973947D01*
X142085038Y-89973944D01*
X142206944Y-89852038D01*
X142206947Y-89852034D01*
X142297448Y-89705311D01*
X142297453Y-89705300D01*
X142351680Y-89541652D01*
X142361999Y-89440654D01*
X142362000Y-89440641D01*
X142362000Y-89404000D01*
X141624500Y-89404000D01*
X141124500Y-89404000D01*
X141124500Y-89028000D01*
X141144185Y-88960961D01*
X141196989Y-88915206D01*
X141248500Y-88904000D01*
X142361999Y-88904000D01*
X142361999Y-88867360D01*
X142361998Y-88867345D01*
X142351680Y-88766347D01*
X142297453Y-88602699D01*
X142297448Y-88602688D01*
X142206947Y-88455965D01*
X142206944Y-88455961D01*
X142085038Y-88334055D01*
X142085034Y-88334052D01*
X141933425Y-88240538D01*
X141886700Y-88188590D01*
X141875479Y-88119628D01*
X141903322Y-88055546D01*
X141961391Y-88016690D01*
X141998522Y-88011000D01*
X164032638Y-88011000D01*
X164099677Y-88030685D01*
G37*
%TD.AperFunction*%
%TA.AperFunction,Conductor*%
G36*
X139113507Y-101771156D02*
G01*
X139073000Y-101909111D01*
X139073000Y-102052889D01*
X139113507Y-102190844D01*
X139139314Y-102231000D01*
X137466686Y-102231000D01*
X137492493Y-102190844D01*
X137533000Y-102052889D01*
X137533000Y-101909111D01*
X137492493Y-101771156D01*
X137466686Y-101731000D01*
X139139314Y-101731000D01*
X139113507Y-101771156D01*
G37*
%TD.AperFunction*%
%TD*%
%TA.AperFunction,Conductor*%
%TO.N,Net-(IC1-S)*%
G36*
X155089247Y-100600275D02*
G01*
X155095105Y-100605652D01*
X155294974Y-100988164D01*
X155321673Y-101039259D01*
X155322467Y-101048178D01*
X155319576Y-101052950D01*
X155154950Y-101217576D01*
X155146677Y-101221003D01*
X155141260Y-101219673D01*
X154707652Y-100993105D01*
X154701907Y-100986237D01*
X154702247Y-100978293D01*
X154810436Y-100714814D01*
X154816746Y-100708464D01*
X155080293Y-100600248D01*
X155089247Y-100600275D01*
G37*
%TD.AperFunction*%
%TD*%
%TA.AperFunction,Conductor*%
%TO.N,Net-(IC1-TXD)*%
G36*
X154916518Y-105064217D02*
G01*
X154922101Y-105069105D01*
X155123385Y-105413371D01*
X155124603Y-105422241D01*
X155121558Y-105427548D01*
X154957548Y-105591558D01*
X154949275Y-105594985D01*
X154943371Y-105593385D01*
X154599105Y-105392101D01*
X154593692Y-105384967D01*
X154594183Y-105377565D01*
X154683436Y-105159822D01*
X154689743Y-105153468D01*
X154907565Y-105064184D01*
X154916518Y-105064217D01*
G37*
%TD.AperFunction*%
%TD*%
%TA.AperFunction,Conductor*%
%TO.N,+3V3*%
G36*
X139579526Y-104523293D02*
G01*
X140348188Y-104842088D01*
X140354517Y-104848422D01*
X140354788Y-104856647D01*
X139966320Y-106004078D01*
X139963511Y-106008599D01*
X139798088Y-106174022D01*
X139789815Y-106177449D01*
X139781542Y-106174022D01*
X139780542Y-106172884D01*
X138978216Y-105130173D01*
X138975887Y-105121526D01*
X138979204Y-105114778D01*
X139566762Y-104525836D01*
X139575030Y-104522400D01*
X139579526Y-104523293D01*
G37*
%TD.AperFunction*%
%TD*%
%TA.AperFunction,Conductor*%
%TO.N,Net-(D2-DOUT)*%
G36*
X159138014Y-89763726D02*
G01*
X159142034Y-89767746D01*
X159314850Y-90056157D01*
X159578036Y-90495386D01*
X159579349Y-90504244D01*
X159577485Y-90508250D01*
X159260503Y-90947150D01*
X159252881Y-90951851D01*
X159251018Y-90952000D01*
X159012982Y-90952000D01*
X159004709Y-90948573D01*
X159003497Y-90947150D01*
X158686514Y-90508250D01*
X158684448Y-90499537D01*
X158685963Y-90495386D01*
X159121965Y-89767747D01*
X159129156Y-89762413D01*
X159138014Y-89763726D01*
G37*
%TD.AperFunction*%
%TD*%
%TA.AperFunction,Conductor*%
%TO.N,/+5V*%
G36*
X159587377Y-94467350D02*
G01*
X160071701Y-95199450D01*
X160073408Y-95208240D01*
X160070216Y-95214178D01*
X159728609Y-95555785D01*
X159720336Y-95559212D01*
X159716491Y-95558562D01*
X159488076Y-95479062D01*
X159273116Y-95404246D01*
X159266429Y-95398290D01*
X159265449Y-95395277D01*
X159132948Y-94660472D01*
X159134852Y-94651724D01*
X159139873Y-94647636D01*
X159573033Y-94463041D01*
X159581986Y-94462951D01*
X159587377Y-94467350D01*
G37*
%TD.AperFunction*%
%TD*%
%TA.AperFunction,Conductor*%
%TO.N,/+5V*%
G36*
X161054086Y-104702199D02*
G01*
X161057730Y-104705045D01*
X161437967Y-105148383D01*
X161440752Y-105156894D01*
X161437967Y-105163617D01*
X161057730Y-105606954D01*
X161049743Y-105611003D01*
X161045154Y-105610438D01*
X160439005Y-105408664D01*
X160432237Y-105402800D01*
X160431000Y-105397563D01*
X160431000Y-104914436D01*
X160434427Y-104906163D01*
X160439003Y-104903335D01*
X161045156Y-104701561D01*
X161054086Y-104702199D01*
G37*
%TD.AperFunction*%
%TD*%
%TA.AperFunction,Conductor*%
%TO.N,Net-(IC1-RXD)*%
G36*
X140842081Y-93301931D02*
G01*
X140843561Y-93303184D01*
X141009897Y-93469520D01*
X141013324Y-93477793D01*
X141011904Y-93483379D01*
X140363320Y-94677037D01*
X140356359Y-94682670D01*
X140348574Y-94682265D01*
X139579533Y-94364696D01*
X139573194Y-94358371D01*
X139572299Y-94353874D01*
X139572991Y-93520892D01*
X139576425Y-93512624D01*
X139582755Y-93509366D01*
X140833356Y-93299918D01*
X140842081Y-93301931D01*
G37*
%TD.AperFunction*%
%TD*%
%TA.AperFunction,Conductor*%
%TO.N,Net-(IC1-CANL)*%
G36*
X158495885Y-100547427D02*
G01*
X158497454Y-100549373D01*
X158715564Y-100888655D01*
X158717155Y-100897467D01*
X158716387Y-100899792D01*
X158379665Y-101646354D01*
X158373140Y-101652487D01*
X158364190Y-101652209D01*
X158358335Y-101646354D01*
X158021612Y-100899792D01*
X158021334Y-100890842D01*
X158022431Y-100888662D01*
X158240546Y-100549373D01*
X158247903Y-100544267D01*
X158250388Y-100544000D01*
X158487612Y-100544000D01*
X158495885Y-100547427D01*
G37*
%TD.AperFunction*%
%TD*%
%TA.AperFunction,Conductor*%
%TO.N,Net-(IC1-TXD)*%
G36*
X155709674Y-106003537D02*
G01*
X155709981Y-106003856D01*
X156020984Y-106339342D01*
X156024096Y-106347739D01*
X156023749Y-106350157D01*
X155837903Y-107087202D01*
X155832557Y-107094386D01*
X155823697Y-107095686D01*
X155816513Y-107090340D01*
X155815897Y-107089161D01*
X155480719Y-106347802D01*
X155480075Y-106339968D01*
X155524136Y-106174754D01*
X155527165Y-106169500D01*
X155693129Y-106003536D01*
X155701401Y-106000110D01*
X155709674Y-106003537D01*
G37*
%TD.AperFunction*%
%TD*%
%TA.AperFunction,Conductor*%
%TO.N,Net-(IC1-RXD)*%
G36*
X159997060Y-106743304D02*
G01*
X160333044Y-106932644D01*
X160338569Y-106939690D01*
X160339000Y-106942836D01*
X160339000Y-107180051D01*
X160335573Y-107188324D01*
X160334192Y-107189505D01*
X159996743Y-107435508D01*
X159988039Y-107437613D01*
X159981940Y-107434674D01*
X159710999Y-107186000D01*
X159646643Y-107126933D01*
X159642866Y-107118815D01*
X159645934Y-107110404D01*
X159982723Y-106745561D01*
X159990852Y-106741807D01*
X159997060Y-106743304D01*
G37*
%TD.AperFunction*%
%TD*%
%TA.AperFunction,Conductor*%
%TO.N,Net-(J2-Pin_4)*%
G36*
X144869825Y-102990699D02*
G01*
X144871523Y-102991631D01*
X145053474Y-103112120D01*
X145055287Y-103113602D01*
X145225326Y-103283641D01*
X145228753Y-103291914D01*
X145227566Y-103297048D01*
X144864817Y-104039821D01*
X144858107Y-104045752D01*
X144849850Y-104045506D01*
X144762790Y-104009662D01*
X144470418Y-103889287D01*
X144464073Y-103882969D01*
X144464054Y-103874015D01*
X144464158Y-103873770D01*
X144854380Y-102996631D01*
X144860873Y-102990467D01*
X144869825Y-102990699D01*
G37*
%TD.AperFunction*%
%TD*%
%TA.AperFunction,Conductor*%
%TO.N,Net-(IC1-S)*%
G36*
X139556273Y-89157753D02*
G01*
X140010559Y-89476519D01*
X140015363Y-89484076D01*
X140014235Y-89491463D01*
X139701270Y-90097667D01*
X139694430Y-90103447D01*
X139690874Y-90104000D01*
X139454674Y-90104000D01*
X139446401Y-90100573D01*
X139444603Y-90098256D01*
X139088053Y-89495382D01*
X139086792Y-89486516D01*
X139091326Y-89479904D01*
X139542764Y-89157806D01*
X139551486Y-89155791D01*
X139556273Y-89157753D01*
G37*
%TD.AperFunction*%
%TD*%
%TA.AperFunction,Conductor*%
%TO.N,+3V3*%
G36*
X141246911Y-106485517D02*
G01*
X141576872Y-106927560D01*
X141579075Y-106936240D01*
X141576730Y-106941744D01*
X141238360Y-107376606D01*
X141230575Y-107381031D01*
X141222812Y-107379271D01*
X141218654Y-107376606D01*
X140571259Y-106961641D01*
X140566144Y-106954293D01*
X140567724Y-106945478D01*
X140569296Y-106943524D01*
X140734766Y-106778054D01*
X140737054Y-106776276D01*
X141231560Y-106482457D01*
X141240421Y-106481178D01*
X141246911Y-106485517D01*
G37*
%TD.AperFunction*%
%TD*%
%TA.AperFunction,Conductor*%
%TO.N,Net-(Q1-B)*%
G36*
X142571439Y-103910637D02*
G01*
X142571711Y-103911206D01*
X142957439Y-104778244D01*
X142957671Y-104787196D01*
X142956605Y-104789305D01*
X142801806Y-105031277D01*
X142800223Y-105033245D01*
X142633378Y-105200090D01*
X142625105Y-105203517D01*
X142616832Y-105200090D01*
X142616139Y-105199334D01*
X142272074Y-104788959D01*
X142269385Y-104780418D01*
X142269908Y-104777841D01*
X142549889Y-103912359D01*
X142555696Y-103905544D01*
X142564622Y-103904830D01*
X142571439Y-103910637D01*
G37*
%TD.AperFunction*%
%TD*%
%TA.AperFunction,Conductor*%
%TO.N,Net-(IC1-RXD)*%
G36*
X142199363Y-91701882D02*
G01*
X142350577Y-91931500D01*
X142493417Y-92148401D01*
X142495106Y-92157195D01*
X142490511Y-92164310D01*
X141906594Y-92587408D01*
X141897884Y-92589488D01*
X141891456Y-92586207D01*
X141725001Y-92419752D01*
X141721581Y-92411870D01*
X141705753Y-91939078D01*
X141708901Y-91930697D01*
X141712311Y-91928176D01*
X142184463Y-91697802D01*
X142193400Y-91697255D01*
X142199363Y-91701882D01*
G37*
%TD.AperFunction*%
%TD*%
%TA.AperFunction,Conductor*%
%TO.N,+3V3*%
G36*
X152858867Y-104881989D02*
G01*
X152859620Y-104882817D01*
X153143285Y-105227129D01*
X153571094Y-105746403D01*
X153573710Y-105754968D01*
X153571897Y-105760183D01*
X152917674Y-106774799D01*
X152910311Y-106779895D01*
X152901501Y-106778292D01*
X152898586Y-106775616D01*
X152113413Y-105760002D01*
X152111065Y-105751362D01*
X152113265Y-105745888D01*
X152497368Y-105227121D01*
X152498485Y-105225825D01*
X152842322Y-104881988D01*
X152850594Y-104878562D01*
X152858867Y-104881989D01*
G37*
%TD.AperFunction*%
%TD*%
%TA.AperFunction,Conductor*%
%TO.N,Net-(D1-DOUT)*%
G36*
X152788014Y-89763726D02*
G01*
X152792034Y-89767746D01*
X152964850Y-90056157D01*
X153228036Y-90495386D01*
X153229349Y-90504244D01*
X153227485Y-90508250D01*
X152910503Y-90947150D01*
X152902881Y-90951851D01*
X152901018Y-90952000D01*
X152662982Y-90952000D01*
X152654709Y-90948573D01*
X152653497Y-90947150D01*
X152336514Y-90508250D01*
X152334448Y-90499537D01*
X152335963Y-90495386D01*
X152771965Y-89767747D01*
X152779156Y-89762413D01*
X152788014Y-89763726D01*
G37*
%TD.AperFunction*%
%TD*%
%TA.AperFunction,Conductor*%
%TO.N,Net-(IC1-S)*%
G36*
X139700874Y-90124427D02*
G01*
X139701503Y-90125107D01*
X140415990Y-90962781D01*
X140418751Y-90971300D01*
X140415366Y-90978642D01*
X139581278Y-91813712D01*
X139573007Y-91817144D01*
X139564732Y-91813722D01*
X139564722Y-91813712D01*
X138730633Y-90978642D01*
X138727211Y-90970367D01*
X138730007Y-90962783D01*
X139444497Y-90125107D01*
X139452473Y-90121037D01*
X139453399Y-90121000D01*
X139692601Y-90121000D01*
X139700874Y-90124427D01*
G37*
%TD.AperFunction*%
%TD*%
%TA.AperFunction,Conductor*%
%TO.N,+3V3*%
G36*
X159642927Y-101689569D02*
G01*
X159649054Y-101696100D01*
X159649196Y-101696499D01*
X159898679Y-102438059D01*
X159898069Y-102446993D01*
X159896840Y-102448954D01*
X159609656Y-102819753D01*
X159601881Y-102824196D01*
X159593242Y-102821839D01*
X159592133Y-102820862D01*
X159425622Y-102654351D01*
X159424076Y-102652441D01*
X159292474Y-102449361D01*
X159290851Y-102440554D01*
X159291632Y-102438178D01*
X159291686Y-102438059D01*
X159627447Y-101695408D01*
X159633977Y-101689283D01*
X159642927Y-101689569D01*
G37*
%TD.AperFunction*%
%TD*%
%TA.AperFunction,Conductor*%
%TO.N,/+5V*%
G36*
X147033739Y-97680625D02*
G01*
X147326723Y-98055439D01*
X147821785Y-98688770D01*
X147824180Y-98697398D01*
X147819772Y-98705193D01*
X147819761Y-98705202D01*
X147036022Y-99316210D01*
X147027390Y-99318594D01*
X147020691Y-99315389D01*
X146231562Y-98551448D01*
X146228002Y-98543232D01*
X146228000Y-98543042D01*
X146228000Y-98055439D01*
X146231427Y-98047166D01*
X146234735Y-98044845D01*
X147019560Y-97677235D01*
X147028505Y-97676830D01*
X147033739Y-97680625D01*
G37*
%TD.AperFunction*%
%TD*%
%TA.AperFunction,Conductor*%
%TO.N,Net-(IC1-RXD)*%
G36*
X160812366Y-106833825D02*
G01*
X160817254Y-106839408D01*
X160908109Y-107056483D01*
X160908142Y-107065437D01*
X160908109Y-107065517D01*
X160817254Y-107282591D01*
X160810898Y-107288900D01*
X160803495Y-107289392D01*
X160417734Y-107188289D01*
X160410600Y-107182876D01*
X160409000Y-107176971D01*
X160409000Y-106945028D01*
X160412427Y-106936755D01*
X160417731Y-106933711D01*
X160803495Y-106832607D01*
X160812366Y-106833825D01*
G37*
%TD.AperFunction*%
%TD*%
%TA.AperFunction,Conductor*%
%TO.N,+3V3*%
G36*
X152915151Y-98706882D02*
G01*
X152917257Y-98708988D01*
X153450732Y-99399837D01*
X153702226Y-99725523D01*
X153704571Y-99734166D01*
X153701908Y-99740219D01*
X153036506Y-100528845D01*
X153028552Y-100532958D01*
X153027564Y-100533000D01*
X152788436Y-100533000D01*
X152780163Y-100529573D01*
X152779494Y-100528845D01*
X152114091Y-99740219D01*
X152111375Y-99731686D01*
X152113772Y-99725524D01*
X152898740Y-98708990D01*
X152906508Y-98704537D01*
X152915151Y-98706882D01*
G37*
%TD.AperFunction*%
%TD*%
M02*
