M48
; DRILL file {KiCad 7.0.9} date Wed Jan 17 02:10:28 2024
; FORMAT={-:-/ absolute / metric / decimal}
; #@! TF.CreationDate,2024-01-17T02:10:28+09:00
; #@! TF.GenerationSoftware,Kicad,Pcbnew,7.0.9
; #@! TF.FileFunction,Plated,1,2,PTH
FMAT,2
METRIC
; #@! TA.AperFunction,Plated,PTH,ViaDrill
T1C0.300
; #@! TA.AperFunction,Plated,PTH,ViaDrill
T2C0.400
; #@! TA.AperFunction,Plated,PTH,ComponentDrill
T3C0.800
; #@! TA.AperFunction,Plated,PTH,ComponentDrill
T4C1.000
; #@! TA.AperFunction,Plated,PTH,ComponentDrill
T5C1.100
%
G90
G05
T1
X144.526Y-89.154
X145.745Y-102.006
X148.463Y-91.948
X148.59Y-101.6
X152.4Y-102.743
X154.686Y-105.156
X154.813Y-100.711
X154.94Y-91.948
X160.68Y-100.025
X160.909Y-107.061
X161.29Y-91.948
X162.814Y-107.569
X164.846Y-91.948
T2
X148.463Y-103.886
T3
X156.864Y-98.552
X159.404Y-98.552
T4
X137.033Y-91.821
X137.033Y-94.361
X137.033Y-96.901
X137.033Y-99.441
X137.033Y-101.981
X137.033Y-104.521
X139.573Y-91.821
X139.573Y-94.361
X139.573Y-96.901
X139.573Y-99.441
X139.573Y-101.981
X139.573Y-104.521
T5
X164.592Y-98.846
X164.592Y-101.346
T0
M30
