%TF.GenerationSoftware,KiCad,Pcbnew,7.0.9*%
%TF.CreationDate,2024-01-17T02:10:25+09:00*%
%TF.ProjectId,Pmod_CAN,506d6f64-5f43-4414-9e2e-6b696361645f,rev?*%
%TF.SameCoordinates,Original*%
%TF.FileFunction,Soldermask,Top*%
%TF.FilePolarity,Negative*%
%FSLAX46Y46*%
G04 Gerber Fmt 4.6, Leading zero omitted, Abs format (unit mm)*
G04 Created by KiCad (PCBNEW 7.0.9) date 2024-01-17 02:10:25*
%MOMM*%
%LPD*%
G01*
G04 APERTURE LIST*
G04 Aperture macros list*
%AMRoundRect*
0 Rectangle with rounded corners*
0 $1 Rounding radius*
0 $2 $3 $4 $5 $6 $7 $8 $9 X,Y pos of 4 corners*
0 Add a 4 corners polygon primitive as box body*
4,1,4,$2,$3,$4,$5,$6,$7,$8,$9,$2,$3,0*
0 Add four circle primitives for the rounded corners*
1,1,$1+$1,$2,$3*
1,1,$1+$1,$4,$5*
1,1,$1+$1,$6,$7*
1,1,$1+$1,$8,$9*
0 Add four rect primitives between the rounded corners*
20,1,$1+$1,$2,$3,$4,$5,0*
20,1,$1+$1,$4,$5,$6,$7,0*
20,1,$1+$1,$6,$7,$8,$9,0*
20,1,$1+$1,$8,$9,$2,$3,0*%
G04 Aperture macros list end*
%ADD10R,0.700000X1.550000*%
%ADD11R,1.700000X1.700000*%
%ADD12O,1.700000X1.700000*%
%ADD13RoundRect,0.237500X0.300000X0.237500X-0.300000X0.237500X-0.300000X-0.237500X0.300000X-0.237500X0*%
%ADD14R,0.900000X1.500000*%
%ADD15RoundRect,0.237500X-0.250000X-0.237500X0.250000X-0.237500X0.250000X0.237500X-0.250000X0.237500X0*%
%ADD16C,1.600000*%
%ADD17O,1.600000X1.600000*%
%ADD18R,1.650000X1.650000*%
%ADD19C,1.650000*%
%ADD20R,0.800000X1.800000*%
%ADD21RoundRect,0.237500X0.237500X-0.250000X0.237500X0.250000X-0.237500X0.250000X-0.237500X-0.250000X0*%
%ADD22R,1.600000X2.070000*%
G04 APERTURE END LIST*
D10*
%TO.C,IC1*%
X155829000Y-107119000D03*
X157099000Y-107119000D03*
X158369000Y-107119000D03*
X159639000Y-107119000D03*
X159639000Y-101669000D03*
X158369000Y-101669000D03*
X157099000Y-101669000D03*
X155829000Y-101669000D03*
%TD*%
D11*
%TO.C,J2*%
X139573000Y-91821000D03*
D12*
X139573000Y-94361000D03*
X139573000Y-96901000D03*
X139573000Y-99441000D03*
X139573000Y-101981000D03*
X139573000Y-104521000D03*
X137033000Y-91821000D03*
X137033000Y-94361000D03*
X137033000Y-96901000D03*
X137033000Y-99441000D03*
X137033000Y-101981000D03*
X137033000Y-104521000D03*
%TD*%
D13*
%TO.C,C1*%
X163168500Y-105156000D03*
X161443500Y-105156000D03*
%TD*%
D14*
%TO.C,D3*%
X159132000Y-94652000D03*
X162432000Y-94652000D03*
X162432000Y-89752000D03*
X159132000Y-89752000D03*
%TD*%
D15*
%TO.C,R5*%
X141581500Y-106934000D03*
X143406500Y-106934000D03*
%TD*%
%TO.C,R2*%
X142193000Y-91694000D03*
X144018000Y-91694000D03*
%TD*%
D16*
%TO.C,R1*%
X156864000Y-98552000D03*
D17*
X159404000Y-98552000D03*
%TD*%
D14*
%TO.C,D2*%
X152782000Y-94652000D03*
X156082000Y-94652000D03*
X156082000Y-89752000D03*
X152782000Y-89752000D03*
%TD*%
D18*
%TO.C,J1*%
X164592000Y-101346000D03*
D19*
X164592000Y-98846000D03*
%TD*%
D14*
%TO.C,D1*%
X146432000Y-94652000D03*
X149732000Y-94652000D03*
X149732000Y-89752000D03*
X146432000Y-89752000D03*
%TD*%
D15*
%TO.C,R6*%
X143359500Y-98298000D03*
X145184500Y-98298000D03*
%TD*%
%TO.C,R4*%
X139549500Y-89154000D03*
X141374500Y-89154000D03*
%TD*%
D20*
%TO.C,Q1*%
X142560000Y-103884000D03*
X144460000Y-103884000D03*
X143510000Y-100584000D03*
%TD*%
D21*
%TO.C,R3*%
X142240000Y-96416500D03*
X142240000Y-94591500D03*
%TD*%
D22*
%TO.C,IC2*%
X147828000Y-106788000D03*
X147828000Y-98698000D03*
X150368000Y-106788000D03*
X150368000Y-98698000D03*
X152908000Y-106788000D03*
X152908000Y-98698000D03*
%TD*%
M02*
