%TF.GenerationSoftware,KiCad,Pcbnew,(6.0.9)*%
%TF.CreationDate,2023-03-11T18:38:12+09:00*%
%TF.ProjectId,Pmod_Matrix2,506d6f64-5f4d-4617-9472-6978322e6b69,rev?*%
%TF.SameCoordinates,Original*%
%TF.FileFunction,Copper,L6,Bot*%
%TF.FilePolarity,Positive*%
%FSLAX46Y46*%
G04 Gerber Fmt 4.6, Leading zero omitted, Abs format (unit mm)*
G04 Created by KiCad (PCBNEW (6.0.9)) date 2023-03-11 18:38:12*
%MOMM*%
%LPD*%
G01*
G04 APERTURE LIST*
%TA.AperFunction,ComponentPad*%
%ADD10C,1.700000*%
%TD*%
%TA.AperFunction,ComponentPad*%
%ADD11O,1.700000X1.700000*%
%TD*%
%TA.AperFunction,ComponentPad*%
%ADD12R,1.700000X1.700000*%
%TD*%
%TA.AperFunction,ViaPad*%
%ADD13C,0.500000*%
%TD*%
%TA.AperFunction,ViaPad*%
%ADD14C,0.800000*%
%TD*%
G04 APERTURE END LIST*
D10*
%TO.P,U4,24,COL1G*%
%TO.N,Net-(R9-Pad1)*%
X118483500Y-87760000D03*
D11*
%TO.P,U4,23,COL1R*%
%TO.N,Net-(R10-Pad1)*%
X121023500Y-87760000D03*
%TO.P,U4,22,ROW1*%
%TO.N,/ROW1*%
X123563500Y-87760000D03*
%TO.P,U4,21,COL2G*%
%TO.N,Net-(R11-Pad1)*%
X126103500Y-87760000D03*
%TO.P,U4,20,COL2R*%
%TO.N,Net-(R12-Pad1)*%
X128643500Y-87760000D03*
%TO.P,U4,19,ROW2*%
%TO.N,/ROW2*%
X131183500Y-87760000D03*
%TO.P,U4,18,COL3G*%
%TO.N,Net-(R13-Pad1)*%
X133723500Y-87760000D03*
%TO.P,U4,17,COL3R*%
%TO.N,Net-(R14-Pad1)*%
X136263500Y-87760000D03*
%TO.P,U4,16,ROW3*%
%TO.N,/ROW3*%
X138803500Y-87760000D03*
%TO.P,U4,15,COL4G*%
%TO.N,Net-(R15-Pad1)*%
X141343500Y-87760000D03*
%TO.P,U4,14,COL4R*%
%TO.N,Net-(R16-Pad1)*%
X143883500Y-87760000D03*
%TO.P,U4,13,ROW4*%
%TO.N,/ROW4*%
X146203500Y-87760000D03*
%TO.P,U4,12,ROW8*%
%TO.N,/ROW8*%
X146203500Y-111820000D03*
%TO.P,U4,11,COL8R*%
%TO.N,Net-(R8-Pad2)*%
X143663500Y-111820000D03*
%TO.P,U4,10,COL8G*%
%TO.N,Net-(R7-Pad2)*%
X141123500Y-111820000D03*
%TO.P,U4,9,ROW7*%
%TO.N,/ROW7*%
X138583500Y-111820000D03*
%TO.P,U4,8,COL7R*%
%TO.N,Net-(R6-Pad2)*%
X136043500Y-111820000D03*
%TO.P,U4,7,COL7G*%
%TO.N,Net-(R5-Pad2)*%
X133503500Y-111820000D03*
%TO.P,U4,6,ROW6*%
%TO.N,/ROW6*%
X130963500Y-111820000D03*
%TO.P,U4,5,COL6R*%
%TO.N,Net-(R4-Pad2)*%
X128423500Y-111820000D03*
%TO.P,U4,4,COL6G*%
%TO.N,Net-(R3-Pad2)*%
X125883500Y-111820000D03*
%TO.P,U4,3,ROW5*%
%TO.N,/ROW5*%
X123343500Y-111820000D03*
%TO.P,U4,2,COL5R*%
%TO.N,Net-(R2-Pad2)*%
X120803500Y-111820000D03*
D12*
%TO.P,U4,1,COL5G*%
%TO.N,Net-(R1-Pad2)*%
X118263500Y-111820000D03*
%TD*%
D10*
%TO.P,J1,11,6*%
%TO.N,VCC*%
X107250000Y-106045000D03*
D11*
%TO.P,J1,12,12*%
X104710000Y-106045000D03*
%TO.P,J1,9,5*%
%TO.N,GND*%
X107250000Y-103505000D03*
%TO.P,J1,10,11*%
X104710000Y-103505000D03*
%TO.P,J1,7,4*%
%TO.N,/RCLK*%
X107250000Y-100965000D03*
%TO.P,J1,8,10*%
%TO.N,/CLK*%
X104710000Y-100965000D03*
%TO.P,J1,5,3*%
%TO.N,Net-(J1-Pad5)*%
X107250000Y-98425000D03*
%TO.P,J1,6,9*%
%TO.N,Net-(J1-Pad6)*%
X104710000Y-98425000D03*
%TO.P,J1,3,2*%
%TO.N,/SER_Red*%
X107250000Y-95885000D03*
%TO.P,J1,4,8*%
%TO.N,Net-(J1-Pad4)*%
X104710000Y-95885000D03*
D12*
%TO.P,J1,1,1*%
%TO.N,/SER_Row*%
X107250000Y-93345000D03*
D11*
%TO.P,J1,2,7*%
%TO.N,/SER_Green*%
X104710000Y-93345000D03*
%TD*%
D13*
%TO.N,Net-(R14-Pad2)*%
X144272000Y-102997000D03*
%TO.N,Net-(R16-Pad2)*%
X144272000Y-101727000D03*
%TO.N,Net-(R8-Pad1)*%
X144272000Y-96647000D03*
%TO.N,Net-(R12-Pad2)*%
X144272000Y-104267000D03*
%TO.N,Net-(R15-Pad2)*%
X135001000Y-101727000D03*
%TO.N,/CLK*%
X141351000Y-97917000D03*
%TO.N,Net-(R10-Pad2)*%
X141351000Y-103124000D03*
%TO.N,Net-(R7-Pad1)*%
X135128000Y-96647000D03*
%TO.N,Net-(R6-Pad1)*%
X144272000Y-97917000D03*
%TO.N,Net-(R4-Pad1)*%
X144272000Y-99187000D03*
%TO.N,Net-(R2-Pad1)*%
X144272000Y-100457000D03*
%TO.N,Net-(R5-Pad1)*%
X130238500Y-106997500D03*
%TO.N,Net-(J1-Pad6)*%
X137414000Y-96647000D03*
%TO.N,Net-(J1-Pad4)*%
X128397000Y-96520000D03*
%TO.N,Net-(R9-Pad2)*%
X114490500Y-92646500D03*
%TO.N,/SER_Red*%
X141351000Y-101727000D03*
%TO.N,/CLK*%
X124206000Y-97917000D03*
%TO.N,Net-(R5-Pad1)*%
X131064000Y-96647000D03*
%TO.N,Net-(R1-Pad1)*%
X131318000Y-101727000D03*
X118745000Y-106934000D03*
%TO.N,Net-(R3-Pad1)*%
X131318000Y-100076000D03*
%TO.N,Net-(R11-Pad2)*%
X131318000Y-104267000D03*
%TO.N,Net-(R13-Pad2)*%
X131318000Y-102997000D03*
X130175000Y-92329000D03*
%TO.N,Net-(R11-Pad2)*%
X122301000Y-92329000D03*
%TO.N,Net-(R9-Pad2)*%
X128397000Y-102997000D03*
%TO.N,Net-(R10-Pad2)*%
X124968000Y-90551000D03*
%TO.N,Net-(R12-Pad2)*%
X132588000Y-90551000D03*
%TO.N,Net-(R14-Pad2)*%
X140462000Y-90551000D03*
%TO.N,Net-(R15-Pad2)*%
X136525000Y-92329000D03*
%TO.N,Net-(R16-Pad2)*%
X145669000Y-92202000D03*
%TO.N,Net-(R3-Pad1)*%
X122301000Y-106934000D03*
%TO.N,Net-(R2-Pad1)*%
X124714000Y-108839000D03*
%TO.N,Net-(R4-Pad1)*%
X132207000Y-108839000D03*
%TO.N,Net-(R7-Pad1)*%
X136906000Y-107061000D03*
%TO.N,Net-(R6-Pad1)*%
X139827000Y-108839000D03*
%TO.N,Net-(R8-Pad1)*%
X145415000Y-107061000D03*
D14*
%TO.N,VCC*%
X137186500Y-104267000D03*
D13*
%TO.N,/SER_Green*%
X128397000Y-101727000D03*
D14*
%TO.N,VCC*%
X124386000Y-104267000D03*
D13*
%TO.N,/ROW2*%
X118110000Y-105664000D03*
%TO.N,/ROW3*%
X118110000Y-104140000D03*
%TO.N,/ROW4*%
X118110000Y-102743000D03*
%TO.N,/RCLK*%
X141351000Y-99187000D03*
X129032000Y-99187000D03*
X115443000Y-99187000D03*
%TO.N,/ROW8*%
X118110000Y-95758000D03*
%TO.N,/ROW1*%
X115443000Y-102997000D03*
%TO.N,/CLK*%
X111125000Y-97917000D03*
%TO.N,/SER_Row*%
X111252000Y-100457000D03*
%TO.N,/ROW7*%
X118110000Y-97155000D03*
%TO.N,/ROW6*%
X118110000Y-99949000D03*
%TO.N,/ROW5*%
X118110000Y-101219000D03*
%TD*%
%TA.AperFunction,Conductor*%
%TO.N,VCC*%
G36*
X116867250Y-86618502D02*
G01*
X116913743Y-86672158D01*
X116923847Y-86742432D01*
X116908083Y-86787786D01*
X116817455Y-86943813D01*
X116719074Y-87186703D01*
X116655899Y-87441032D01*
X116629188Y-87701726D01*
X116639477Y-87963582D01*
X116686558Y-88221376D01*
X116769494Y-88469965D01*
X116771487Y-88473953D01*
X116848518Y-88628116D01*
X116886628Y-88704387D01*
X117035624Y-88919967D01*
X117141730Y-89034751D01*
X117156821Y-89051076D01*
X117213510Y-89112402D01*
X117216964Y-89115214D01*
X117413278Y-89275039D01*
X117413282Y-89275042D01*
X117416735Y-89277853D01*
X117420557Y-89280154D01*
X117572158Y-89371425D01*
X117641245Y-89413019D01*
X117754045Y-89460784D01*
X117878462Y-89513468D01*
X117878466Y-89513469D01*
X117882560Y-89515203D01*
X117886852Y-89516341D01*
X117886855Y-89516342D01*
X117987625Y-89543061D01*
X118135865Y-89582366D01*
X118140289Y-89582890D01*
X118140291Y-89582890D01*
X118291072Y-89600736D01*
X118396107Y-89613167D01*
X118658092Y-89606993D01*
X118662486Y-89606262D01*
X118662493Y-89606261D01*
X118912192Y-89564700D01*
X118912196Y-89564699D01*
X118916594Y-89563967D01*
X119080561Y-89512111D01*
X119162209Y-89486289D01*
X119162211Y-89486288D01*
X119166455Y-89484946D01*
X119170466Y-89483020D01*
X119170471Y-89483018D01*
X119398669Y-89373439D01*
X119398670Y-89373438D01*
X119402688Y-89371509D01*
X119571959Y-89258406D01*
X119616874Y-89228395D01*
X119616879Y-89228391D01*
X119620582Y-89225917D01*
X119623898Y-89222946D01*
X119623903Y-89222943D01*
X119670106Y-89181560D01*
X119734194Y-89151011D01*
X119804625Y-89159960D01*
X119833721Y-89177704D01*
X119953278Y-89275039D01*
X119953282Y-89275042D01*
X119956735Y-89277853D01*
X119960557Y-89280154D01*
X120112158Y-89371425D01*
X120181245Y-89413019D01*
X120294045Y-89460784D01*
X120418462Y-89513468D01*
X120418466Y-89513469D01*
X120422560Y-89515203D01*
X120426852Y-89516341D01*
X120426855Y-89516342D01*
X120527625Y-89543061D01*
X120675865Y-89582366D01*
X120680289Y-89582890D01*
X120680291Y-89582890D01*
X120831072Y-89600736D01*
X120936107Y-89613167D01*
X121198092Y-89606993D01*
X121202486Y-89606262D01*
X121202493Y-89606261D01*
X121452192Y-89564700D01*
X121452196Y-89564699D01*
X121456594Y-89563967D01*
X121620561Y-89512111D01*
X121702209Y-89486289D01*
X121702211Y-89486288D01*
X121706455Y-89484946D01*
X121710466Y-89483020D01*
X121710471Y-89483018D01*
X121938669Y-89373439D01*
X121938670Y-89373438D01*
X121942688Y-89371509D01*
X122111959Y-89258406D01*
X122156874Y-89228395D01*
X122156879Y-89228391D01*
X122160582Y-89225917D01*
X122163898Y-89222946D01*
X122163903Y-89222943D01*
X122210106Y-89181560D01*
X122274194Y-89151011D01*
X122344625Y-89159960D01*
X122373721Y-89177704D01*
X122493278Y-89275039D01*
X122493282Y-89275042D01*
X122496735Y-89277853D01*
X122500557Y-89280154D01*
X122652158Y-89371425D01*
X122721245Y-89413019D01*
X122834045Y-89460784D01*
X122958462Y-89513468D01*
X122958466Y-89513469D01*
X122962560Y-89515203D01*
X122966852Y-89516341D01*
X122966855Y-89516342D01*
X123067625Y-89543061D01*
X123215865Y-89582366D01*
X123220289Y-89582890D01*
X123220291Y-89582890D01*
X123371072Y-89600736D01*
X123476107Y-89613167D01*
X123738092Y-89606993D01*
X123742486Y-89606262D01*
X123742493Y-89606261D01*
X123854450Y-89587626D01*
X123924930Y-89596172D01*
X123979601Y-89641466D01*
X124001106Y-89709128D01*
X123982616Y-89777674D01*
X123978365Y-89784165D01*
X123880898Y-89923362D01*
X123788425Y-90121670D01*
X123731793Y-90333023D01*
X123712723Y-90551000D01*
X123731793Y-90768977D01*
X123788425Y-90980330D01*
X123790747Y-90985310D01*
X123790748Y-90985312D01*
X123867276Y-91149425D01*
X123880898Y-91178638D01*
X124006402Y-91357877D01*
X124161123Y-91512598D01*
X124165631Y-91515755D01*
X124165634Y-91515757D01*
X124335852Y-91634945D01*
X124340361Y-91638102D01*
X124345343Y-91640425D01*
X124345348Y-91640428D01*
X124486704Y-91706343D01*
X124538670Y-91730575D01*
X124543978Y-91731997D01*
X124543980Y-91731998D01*
X124555419Y-91735063D01*
X124750023Y-91787207D01*
X124968000Y-91806277D01*
X125185977Y-91787207D01*
X125380581Y-91735063D01*
X125392020Y-91731998D01*
X125392022Y-91731997D01*
X125397330Y-91730575D01*
X125449296Y-91706343D01*
X125590652Y-91640428D01*
X125590657Y-91640425D01*
X125595639Y-91638102D01*
X125600148Y-91634945D01*
X125770366Y-91515757D01*
X125770369Y-91515755D01*
X125774877Y-91512598D01*
X125929598Y-91357877D01*
X126055102Y-91178638D01*
X126068725Y-91149425D01*
X126145252Y-90985312D01*
X126145253Y-90985310D01*
X126147575Y-90980330D01*
X126204207Y-90768977D01*
X126223277Y-90551000D01*
X126204207Y-90333023D01*
X126147575Y-90121670D01*
X126055102Y-89923362D01*
X125975719Y-89809991D01*
X125953031Y-89742718D01*
X125970316Y-89673857D01*
X126022086Y-89625273D01*
X126075962Y-89611756D01*
X126278092Y-89606993D01*
X126282486Y-89606262D01*
X126282493Y-89606261D01*
X126532192Y-89564700D01*
X126532196Y-89564699D01*
X126536594Y-89563967D01*
X126700561Y-89512111D01*
X126782209Y-89486289D01*
X126782211Y-89486288D01*
X126786455Y-89484946D01*
X126790466Y-89483020D01*
X126790471Y-89483018D01*
X127018669Y-89373439D01*
X127018670Y-89373438D01*
X127022688Y-89371509D01*
X127191959Y-89258406D01*
X127236874Y-89228395D01*
X127236879Y-89228391D01*
X127240582Y-89225917D01*
X127243898Y-89222946D01*
X127243903Y-89222943D01*
X127290106Y-89181560D01*
X127354194Y-89151011D01*
X127424625Y-89159960D01*
X127453721Y-89177704D01*
X127573278Y-89275039D01*
X127573282Y-89275042D01*
X127576735Y-89277853D01*
X127580557Y-89280154D01*
X127732158Y-89371425D01*
X127801245Y-89413019D01*
X127914045Y-89460784D01*
X128038462Y-89513468D01*
X128038466Y-89513469D01*
X128042560Y-89515203D01*
X128046852Y-89516341D01*
X128046855Y-89516342D01*
X128147625Y-89543061D01*
X128295865Y-89582366D01*
X128300289Y-89582890D01*
X128300291Y-89582890D01*
X128451072Y-89600736D01*
X128556107Y-89613167D01*
X128818092Y-89606993D01*
X128822486Y-89606262D01*
X128822493Y-89606261D01*
X129072192Y-89564700D01*
X129072196Y-89564699D01*
X129076594Y-89563967D01*
X129240561Y-89512111D01*
X129322209Y-89486289D01*
X129322211Y-89486288D01*
X129326455Y-89484946D01*
X129330466Y-89483020D01*
X129330471Y-89483018D01*
X129558669Y-89373439D01*
X129558670Y-89373438D01*
X129562688Y-89371509D01*
X129731959Y-89258406D01*
X129776874Y-89228395D01*
X129776879Y-89228391D01*
X129780582Y-89225917D01*
X129783898Y-89222946D01*
X129783903Y-89222943D01*
X129830106Y-89181560D01*
X129894194Y-89151011D01*
X129964625Y-89159960D01*
X129993721Y-89177704D01*
X130113278Y-89275039D01*
X130113282Y-89275042D01*
X130116735Y-89277853D01*
X130120557Y-89280154D01*
X130272158Y-89371425D01*
X130341245Y-89413019D01*
X130454045Y-89460784D01*
X130578462Y-89513468D01*
X130578466Y-89513469D01*
X130582560Y-89515203D01*
X130586852Y-89516341D01*
X130586855Y-89516342D01*
X130687625Y-89543061D01*
X130835865Y-89582366D01*
X130840289Y-89582890D01*
X130840291Y-89582890D01*
X130991072Y-89600736D01*
X131096107Y-89613167D01*
X131358092Y-89606993D01*
X131362486Y-89606262D01*
X131362493Y-89606261D01*
X131474450Y-89587626D01*
X131544930Y-89596172D01*
X131599601Y-89641466D01*
X131621106Y-89709128D01*
X131602616Y-89777674D01*
X131598365Y-89784165D01*
X131500898Y-89923362D01*
X131408425Y-90121670D01*
X131351793Y-90333023D01*
X131332723Y-90551000D01*
X131351793Y-90768977D01*
X131408425Y-90980330D01*
X131410747Y-90985310D01*
X131410748Y-90985312D01*
X131487276Y-91149425D01*
X131500898Y-91178638D01*
X131626402Y-91357877D01*
X131781123Y-91512598D01*
X131785631Y-91515755D01*
X131785634Y-91515757D01*
X131955852Y-91634945D01*
X131960361Y-91638102D01*
X131965343Y-91640425D01*
X131965348Y-91640428D01*
X132106704Y-91706343D01*
X132158670Y-91730575D01*
X132163978Y-91731997D01*
X132163980Y-91731998D01*
X132175419Y-91735063D01*
X132370023Y-91787207D01*
X132588000Y-91806277D01*
X132805977Y-91787207D01*
X133000581Y-91735063D01*
X133012020Y-91731998D01*
X133012022Y-91731997D01*
X133017330Y-91730575D01*
X133069296Y-91706343D01*
X133210652Y-91640428D01*
X133210657Y-91640425D01*
X133215639Y-91638102D01*
X133220148Y-91634945D01*
X133390366Y-91515757D01*
X133390369Y-91515755D01*
X133394877Y-91512598D01*
X133549598Y-91357877D01*
X133675102Y-91178638D01*
X133688725Y-91149425D01*
X133765252Y-90985312D01*
X133765253Y-90985310D01*
X133767575Y-90980330D01*
X133824207Y-90768977D01*
X133843277Y-90551000D01*
X133824207Y-90333023D01*
X133767575Y-90121670D01*
X133675102Y-89923362D01*
X133595719Y-89809991D01*
X133573031Y-89742718D01*
X133590316Y-89673857D01*
X133642086Y-89625273D01*
X133695962Y-89611756D01*
X133898092Y-89606993D01*
X133902486Y-89606262D01*
X133902493Y-89606261D01*
X134152192Y-89564700D01*
X134152196Y-89564699D01*
X134156594Y-89563967D01*
X134320561Y-89512111D01*
X134402209Y-89486289D01*
X134402211Y-89486288D01*
X134406455Y-89484946D01*
X134410466Y-89483020D01*
X134410471Y-89483018D01*
X134638669Y-89373439D01*
X134638670Y-89373438D01*
X134642688Y-89371509D01*
X134811959Y-89258406D01*
X134856874Y-89228395D01*
X134856879Y-89228391D01*
X134860582Y-89225917D01*
X134863898Y-89222946D01*
X134863903Y-89222943D01*
X134910106Y-89181560D01*
X134974194Y-89151011D01*
X135044625Y-89159960D01*
X135073721Y-89177704D01*
X135193278Y-89275039D01*
X135193282Y-89275042D01*
X135196735Y-89277853D01*
X135200557Y-89280154D01*
X135352158Y-89371425D01*
X135421245Y-89413019D01*
X135534045Y-89460784D01*
X135658462Y-89513468D01*
X135658466Y-89513469D01*
X135662560Y-89515203D01*
X135666852Y-89516341D01*
X135666855Y-89516342D01*
X135767625Y-89543061D01*
X135915865Y-89582366D01*
X135920289Y-89582890D01*
X135920291Y-89582890D01*
X136071072Y-89600736D01*
X136176107Y-89613167D01*
X136438092Y-89606993D01*
X136442486Y-89606262D01*
X136442493Y-89606261D01*
X136692192Y-89564700D01*
X136692196Y-89564699D01*
X136696594Y-89563967D01*
X136860561Y-89512111D01*
X136942209Y-89486289D01*
X136942211Y-89486288D01*
X136946455Y-89484946D01*
X136950466Y-89483020D01*
X136950471Y-89483018D01*
X137178669Y-89373439D01*
X137178670Y-89373438D01*
X137182688Y-89371509D01*
X137351959Y-89258406D01*
X137396874Y-89228395D01*
X137396879Y-89228391D01*
X137400582Y-89225917D01*
X137403898Y-89222946D01*
X137403903Y-89222943D01*
X137450106Y-89181560D01*
X137514194Y-89151011D01*
X137584625Y-89159960D01*
X137613721Y-89177704D01*
X137733278Y-89275039D01*
X137733282Y-89275042D01*
X137736735Y-89277853D01*
X137740557Y-89280154D01*
X137892158Y-89371425D01*
X137961245Y-89413019D01*
X138074045Y-89460784D01*
X138198462Y-89513468D01*
X138198466Y-89513469D01*
X138202560Y-89515203D01*
X138206852Y-89516341D01*
X138206855Y-89516342D01*
X138307625Y-89543061D01*
X138455865Y-89582366D01*
X138460289Y-89582890D01*
X138460291Y-89582890D01*
X138611072Y-89600736D01*
X138716107Y-89613167D01*
X138978092Y-89606993D01*
X138982486Y-89606262D01*
X138982493Y-89606261D01*
X139232192Y-89564700D01*
X139232196Y-89564699D01*
X139236594Y-89563967D01*
X139394031Y-89514176D01*
X139465011Y-89512706D01*
X139525519Y-89549844D01*
X139556343Y-89613801D01*
X139547697Y-89684269D01*
X139521119Y-89723406D01*
X139500402Y-89744123D01*
X139374898Y-89923362D01*
X139282425Y-90121670D01*
X139225793Y-90333023D01*
X139206723Y-90551000D01*
X139225793Y-90768977D01*
X139282425Y-90980330D01*
X139284747Y-90985310D01*
X139284748Y-90985312D01*
X139361276Y-91149425D01*
X139374898Y-91178638D01*
X139500402Y-91357877D01*
X139655123Y-91512598D01*
X139659631Y-91515755D01*
X139659634Y-91515757D01*
X139829852Y-91634945D01*
X139834361Y-91638102D01*
X139839343Y-91640425D01*
X139839348Y-91640428D01*
X139980704Y-91706343D01*
X140032670Y-91730575D01*
X140037978Y-91731997D01*
X140037980Y-91731998D01*
X140049419Y-91735063D01*
X140244023Y-91787207D01*
X140462000Y-91806277D01*
X140679977Y-91787207D01*
X140874581Y-91735063D01*
X140886020Y-91731998D01*
X140886022Y-91731997D01*
X140891330Y-91730575D01*
X140943296Y-91706343D01*
X141084652Y-91640428D01*
X141084657Y-91640425D01*
X141089639Y-91638102D01*
X141094148Y-91634945D01*
X141264366Y-91515757D01*
X141264369Y-91515755D01*
X141268877Y-91512598D01*
X141423598Y-91357877D01*
X141549102Y-91178638D01*
X141562725Y-91149425D01*
X141639252Y-90985312D01*
X141639253Y-90985310D01*
X141641575Y-90980330D01*
X141698207Y-90768977D01*
X141717277Y-90551000D01*
X141698207Y-90333023D01*
X141641575Y-90121670D01*
X141549102Y-89923362D01*
X141462117Y-89799134D01*
X141439429Y-89731860D01*
X141456714Y-89663000D01*
X141508484Y-89614416D01*
X141544643Y-89602574D01*
X141772192Y-89564700D01*
X141772196Y-89564699D01*
X141776594Y-89563967D01*
X141940561Y-89512111D01*
X142022209Y-89486289D01*
X142022211Y-89486288D01*
X142026455Y-89484946D01*
X142030466Y-89483020D01*
X142030471Y-89483018D01*
X142258669Y-89373439D01*
X142258670Y-89373438D01*
X142262688Y-89371509D01*
X142431959Y-89258406D01*
X142476874Y-89228395D01*
X142476879Y-89228391D01*
X142480582Y-89225917D01*
X142483898Y-89222946D01*
X142483903Y-89222943D01*
X142530106Y-89181560D01*
X142594194Y-89151011D01*
X142664625Y-89159960D01*
X142693721Y-89177704D01*
X142813278Y-89275039D01*
X142813282Y-89275042D01*
X142816735Y-89277853D01*
X142820557Y-89280154D01*
X142972158Y-89371425D01*
X143041245Y-89413019D01*
X143154045Y-89460784D01*
X143278462Y-89513468D01*
X143278466Y-89513469D01*
X143282560Y-89515203D01*
X143286852Y-89516341D01*
X143286855Y-89516342D01*
X143387625Y-89543061D01*
X143535865Y-89582366D01*
X143540289Y-89582890D01*
X143540291Y-89582890D01*
X143691072Y-89600736D01*
X143796107Y-89613167D01*
X144058092Y-89606993D01*
X144062486Y-89606262D01*
X144062493Y-89606261D01*
X144312192Y-89564700D01*
X144312196Y-89564699D01*
X144316594Y-89563967D01*
X144480561Y-89512111D01*
X144562209Y-89486289D01*
X144562211Y-89486288D01*
X144566455Y-89484946D01*
X144570466Y-89483020D01*
X144570471Y-89483018D01*
X144798669Y-89373439D01*
X144798670Y-89373438D01*
X144802688Y-89371509D01*
X144971959Y-89258406D01*
X145039711Y-89237191D01*
X145108178Y-89255974D01*
X145121510Y-89265458D01*
X145133278Y-89275039D01*
X145133282Y-89275042D01*
X145136735Y-89277853D01*
X145140557Y-89280154D01*
X145292158Y-89371425D01*
X145361245Y-89413019D01*
X145474045Y-89460784D01*
X145598462Y-89513468D01*
X145598466Y-89513469D01*
X145602560Y-89515203D01*
X145606852Y-89516341D01*
X145606855Y-89516342D01*
X145707625Y-89543061D01*
X145855865Y-89582366D01*
X145860289Y-89582890D01*
X145860291Y-89582890D01*
X146011072Y-89600736D01*
X146116107Y-89613167D01*
X146378092Y-89606993D01*
X146382486Y-89606262D01*
X146382493Y-89606261D01*
X146632192Y-89564700D01*
X146632196Y-89564699D01*
X146636594Y-89563967D01*
X146800561Y-89512111D01*
X146882209Y-89486289D01*
X146882211Y-89486288D01*
X146886455Y-89484946D01*
X146890466Y-89483020D01*
X146890471Y-89483018D01*
X147118669Y-89373439D01*
X147118670Y-89373438D01*
X147122688Y-89371509D01*
X147291959Y-89258406D01*
X147336880Y-89228391D01*
X147336884Y-89228388D01*
X147340582Y-89225917D01*
X147535787Y-89051076D01*
X147645996Y-88919967D01*
X147701543Y-88853886D01*
X147701545Y-88853884D01*
X147704410Y-88850475D01*
X147737588Y-88797276D01*
X147790608Y-88750060D01*
X147860738Y-88739004D01*
X147925713Y-88767618D01*
X147964903Y-88826818D01*
X147970500Y-88863953D01*
X147970500Y-110714814D01*
X147950498Y-110782935D01*
X147896842Y-110829428D01*
X147826568Y-110839532D01*
X147761988Y-110810038D01*
X147743149Y-110789673D01*
X147616878Y-110618715D01*
X147616870Y-110618705D01*
X147614226Y-110615126D01*
X147430384Y-110428374D01*
X147275063Y-110309837D01*
X147225607Y-110272093D01*
X147225603Y-110272090D01*
X147222062Y-110269388D01*
X146993417Y-110141340D01*
X146989268Y-110139735D01*
X146989264Y-110139733D01*
X146839518Y-110081801D01*
X146749012Y-110046787D01*
X146744691Y-110045785D01*
X146744683Y-110045783D01*
X146548353Y-110000277D01*
X146493721Y-109987614D01*
X146232641Y-109965002D01*
X146228206Y-109965246D01*
X146228202Y-109965246D01*
X145975421Y-109979157D01*
X145975414Y-109979158D01*
X145970978Y-109979402D01*
X145713956Y-110030527D01*
X145709746Y-110032005D01*
X145709744Y-110032006D01*
X145586726Y-110075207D01*
X145466701Y-110117357D01*
X145462750Y-110119410D01*
X145462744Y-110119412D01*
X145413120Y-110145190D01*
X145234147Y-110238159D01*
X145230532Y-110240742D01*
X145230526Y-110240746D01*
X145024555Y-110387935D01*
X145024551Y-110387938D01*
X145020934Y-110390523D01*
X145017715Y-110393594D01*
X145014277Y-110396438D01*
X145013400Y-110395378D01*
X144955617Y-110425172D01*
X144884941Y-110418429D01*
X144855320Y-110401614D01*
X144685607Y-110272093D01*
X144685603Y-110272090D01*
X144682062Y-110269388D01*
X144453417Y-110141340D01*
X144449268Y-110139735D01*
X144449264Y-110139733D01*
X144299518Y-110081801D01*
X144209012Y-110046787D01*
X144204691Y-110045785D01*
X144204683Y-110045783D01*
X144008353Y-110000277D01*
X143953721Y-109987614D01*
X143692641Y-109965002D01*
X143688206Y-109965246D01*
X143688202Y-109965246D01*
X143435421Y-109979157D01*
X143435414Y-109979158D01*
X143430978Y-109979402D01*
X143173956Y-110030527D01*
X143169746Y-110032005D01*
X143169744Y-110032006D01*
X143046726Y-110075207D01*
X142926701Y-110117357D01*
X142922750Y-110119410D01*
X142922744Y-110119412D01*
X142873120Y-110145190D01*
X142694147Y-110238159D01*
X142690532Y-110240742D01*
X142690526Y-110240746D01*
X142484555Y-110387935D01*
X142484551Y-110387938D01*
X142480934Y-110390523D01*
X142477715Y-110393594D01*
X142474277Y-110396438D01*
X142473400Y-110395378D01*
X142415617Y-110425172D01*
X142344941Y-110418429D01*
X142315320Y-110401614D01*
X142145607Y-110272093D01*
X142145603Y-110272090D01*
X142142062Y-110269388D01*
X141913417Y-110141340D01*
X141909268Y-110139735D01*
X141909264Y-110139733D01*
X141759518Y-110081801D01*
X141669012Y-110046787D01*
X141664691Y-110045785D01*
X141664683Y-110045783D01*
X141468353Y-110000277D01*
X141413721Y-109987614D01*
X141152641Y-109965002D01*
X141148206Y-109965246D01*
X141148202Y-109965246D01*
X140895421Y-109979157D01*
X140895414Y-109979158D01*
X140890978Y-109979402D01*
X140754220Y-110006605D01*
X140683506Y-110000277D01*
X140627439Y-109956723D01*
X140603820Y-109889770D01*
X140620147Y-109820676D01*
X140640544Y-109793931D01*
X140788598Y-109645877D01*
X140914102Y-109466638D01*
X141006575Y-109268330D01*
X141063207Y-109056977D01*
X141082277Y-108839000D01*
X141063207Y-108621023D01*
X141006575Y-108409670D01*
X140954356Y-108297686D01*
X140916425Y-108216343D01*
X140916423Y-108216340D01*
X140914102Y-108211362D01*
X140788598Y-108032123D01*
X140633877Y-107877402D01*
X140629369Y-107874245D01*
X140629366Y-107874243D01*
X140459148Y-107755055D01*
X140459145Y-107755053D01*
X140454639Y-107751898D01*
X140449657Y-107749575D01*
X140449652Y-107749572D01*
X140261312Y-107661748D01*
X140261311Y-107661747D01*
X140256330Y-107659425D01*
X140251022Y-107658003D01*
X140251020Y-107658002D01*
X140128369Y-107625138D01*
X140044977Y-107602793D01*
X139827000Y-107583723D01*
X139609023Y-107602793D01*
X139525631Y-107625138D01*
X139402980Y-107658002D01*
X139402978Y-107658003D01*
X139397670Y-107659425D01*
X139392690Y-107661747D01*
X139392688Y-107661748D01*
X139204343Y-107749575D01*
X139204340Y-107749577D01*
X139199362Y-107751898D01*
X139020123Y-107877402D01*
X138865402Y-108032123D01*
X138739898Y-108211362D01*
X138737577Y-108216340D01*
X138737575Y-108216343D01*
X138699644Y-108297686D01*
X138647425Y-108409670D01*
X138590793Y-108621023D01*
X138571723Y-108839000D01*
X138590793Y-109056977D01*
X138647425Y-109268330D01*
X138739898Y-109466638D01*
X138865402Y-109645877D01*
X138996514Y-109776989D01*
X139030540Y-109839301D01*
X139025475Y-109910116D01*
X138982928Y-109966952D01*
X138916408Y-109991763D01*
X138882496Y-109989107D01*
X138882463Y-109989317D01*
X138879807Y-109988896D01*
X138878972Y-109988831D01*
X138878061Y-109988620D01*
X138878062Y-109988620D01*
X138873721Y-109987614D01*
X138612641Y-109965002D01*
X138608206Y-109965246D01*
X138608202Y-109965246D01*
X138355421Y-109979157D01*
X138355414Y-109979158D01*
X138350978Y-109979402D01*
X138093956Y-110030527D01*
X138089746Y-110032005D01*
X138089744Y-110032006D01*
X137966726Y-110075207D01*
X137846701Y-110117357D01*
X137842750Y-110119410D01*
X137842744Y-110119412D01*
X137793120Y-110145190D01*
X137614147Y-110238159D01*
X137610532Y-110240742D01*
X137610526Y-110240746D01*
X137404555Y-110387935D01*
X137404551Y-110387938D01*
X137400934Y-110390523D01*
X137397715Y-110393594D01*
X137394277Y-110396438D01*
X137393400Y-110395378D01*
X137335617Y-110425172D01*
X137264941Y-110418429D01*
X137235320Y-110401614D01*
X137065607Y-110272093D01*
X137065603Y-110272090D01*
X137062062Y-110269388D01*
X136833417Y-110141340D01*
X136829268Y-110139735D01*
X136829264Y-110139733D01*
X136679518Y-110081801D01*
X136589012Y-110046787D01*
X136584691Y-110045785D01*
X136584683Y-110045783D01*
X136388353Y-110000277D01*
X136333721Y-109987614D01*
X136072641Y-109965002D01*
X136068206Y-109965246D01*
X136068202Y-109965246D01*
X135815421Y-109979157D01*
X135815414Y-109979158D01*
X135810978Y-109979402D01*
X135553956Y-110030527D01*
X135549746Y-110032005D01*
X135549744Y-110032006D01*
X135426726Y-110075207D01*
X135306701Y-110117357D01*
X135302750Y-110119410D01*
X135302744Y-110119412D01*
X135253120Y-110145190D01*
X135074147Y-110238159D01*
X135070532Y-110240742D01*
X135070526Y-110240746D01*
X134864555Y-110387935D01*
X134864551Y-110387938D01*
X134860934Y-110390523D01*
X134857715Y-110393594D01*
X134854277Y-110396438D01*
X134853400Y-110395378D01*
X134795617Y-110425172D01*
X134724941Y-110418429D01*
X134695320Y-110401614D01*
X134525607Y-110272093D01*
X134525603Y-110272090D01*
X134522062Y-110269388D01*
X134293417Y-110141340D01*
X134289268Y-110139735D01*
X134289264Y-110139733D01*
X134139518Y-110081801D01*
X134049012Y-110046787D01*
X134044691Y-110045785D01*
X134044683Y-110045783D01*
X133848353Y-110000277D01*
X133793721Y-109987614D01*
X133532641Y-109965002D01*
X133528206Y-109965246D01*
X133528202Y-109965246D01*
X133275421Y-109979157D01*
X133275414Y-109979158D01*
X133270978Y-109979402D01*
X133134220Y-110006605D01*
X133063506Y-110000277D01*
X133007439Y-109956723D01*
X132983820Y-109889770D01*
X133000147Y-109820676D01*
X133020544Y-109793931D01*
X133168598Y-109645877D01*
X133294102Y-109466638D01*
X133386575Y-109268330D01*
X133443207Y-109056977D01*
X133462277Y-108839000D01*
X133443207Y-108621023D01*
X133386575Y-108409670D01*
X133334356Y-108297686D01*
X133296425Y-108216343D01*
X133296423Y-108216340D01*
X133294102Y-108211362D01*
X133168598Y-108032123D01*
X133013877Y-107877402D01*
X133009369Y-107874245D01*
X133009366Y-107874243D01*
X132839148Y-107755055D01*
X132839145Y-107755053D01*
X132834639Y-107751898D01*
X132829657Y-107749575D01*
X132829652Y-107749572D01*
X132641312Y-107661748D01*
X132641311Y-107661747D01*
X132636330Y-107659425D01*
X132631022Y-107658003D01*
X132631020Y-107658002D01*
X132508369Y-107625138D01*
X132424977Y-107602793D01*
X132207000Y-107583723D01*
X131989023Y-107602793D01*
X131905631Y-107625138D01*
X131782980Y-107658002D01*
X131782978Y-107658003D01*
X131777670Y-107659425D01*
X131772690Y-107661747D01*
X131772688Y-107661748D01*
X131584343Y-107749575D01*
X131584340Y-107749577D01*
X131579362Y-107751898D01*
X131510858Y-107799865D01*
X131492723Y-107812563D01*
X131425449Y-107835251D01*
X131356589Y-107817966D01*
X131308005Y-107766196D01*
X131295123Y-107696378D01*
X131317239Y-107637082D01*
X131325602Y-107625138D01*
X131344915Y-107583723D01*
X131415752Y-107431812D01*
X131415753Y-107431810D01*
X131418075Y-107426830D01*
X131431801Y-107375606D01*
X131447989Y-107315191D01*
X131474707Y-107215477D01*
X131488222Y-107061000D01*
X135650723Y-107061000D01*
X135669793Y-107278977D01*
X135726425Y-107490330D01*
X135728747Y-107495310D01*
X135728748Y-107495312D01*
X135805276Y-107659425D01*
X135818898Y-107688638D01*
X135944402Y-107867877D01*
X136099123Y-108022598D01*
X136103631Y-108025755D01*
X136103634Y-108025757D01*
X136273852Y-108144945D01*
X136278361Y-108148102D01*
X136283343Y-108150425D01*
X136283348Y-108150428D01*
X136471688Y-108238252D01*
X136476670Y-108240575D01*
X136481978Y-108241997D01*
X136481980Y-108241998D01*
X136522208Y-108252777D01*
X136688023Y-108297207D01*
X136906000Y-108316277D01*
X137123977Y-108297207D01*
X137289792Y-108252777D01*
X137330020Y-108241998D01*
X137330022Y-108241997D01*
X137335330Y-108240575D01*
X137340312Y-108238252D01*
X137528652Y-108150428D01*
X137528657Y-108150425D01*
X137533639Y-108148102D01*
X137538148Y-108144945D01*
X137708366Y-108025757D01*
X137708369Y-108025755D01*
X137712877Y-108022598D01*
X137867598Y-107867877D01*
X137993102Y-107688638D01*
X138006725Y-107659425D01*
X138083252Y-107495312D01*
X138083253Y-107495310D01*
X138085575Y-107490330D01*
X138142207Y-107278977D01*
X138161277Y-107061000D01*
X144159723Y-107061000D01*
X144178793Y-107278977D01*
X144235425Y-107490330D01*
X144237747Y-107495310D01*
X144237748Y-107495312D01*
X144314276Y-107659425D01*
X144327898Y-107688638D01*
X144453402Y-107867877D01*
X144608123Y-108022598D01*
X144612631Y-108025755D01*
X144612634Y-108025757D01*
X144782852Y-108144945D01*
X144787361Y-108148102D01*
X144792343Y-108150425D01*
X144792348Y-108150428D01*
X144980688Y-108238252D01*
X144985670Y-108240575D01*
X144990978Y-108241997D01*
X144990980Y-108241998D01*
X145031208Y-108252777D01*
X145197023Y-108297207D01*
X145415000Y-108316277D01*
X145632977Y-108297207D01*
X145798792Y-108252777D01*
X145839020Y-108241998D01*
X145839022Y-108241997D01*
X145844330Y-108240575D01*
X145849312Y-108238252D01*
X146037652Y-108150428D01*
X146037657Y-108150425D01*
X146042639Y-108148102D01*
X146047148Y-108144945D01*
X146217366Y-108025757D01*
X146217369Y-108025755D01*
X146221877Y-108022598D01*
X146376598Y-107867877D01*
X146502102Y-107688638D01*
X146515725Y-107659425D01*
X146592252Y-107495312D01*
X146592253Y-107495310D01*
X146594575Y-107490330D01*
X146651207Y-107278977D01*
X146670277Y-107061000D01*
X146651207Y-106843023D01*
X146594575Y-106631670D01*
X146591744Y-106625598D01*
X146504425Y-106438343D01*
X146504423Y-106438340D01*
X146502102Y-106433362D01*
X146376598Y-106254123D01*
X146221877Y-106099402D01*
X146217369Y-106096245D01*
X146217366Y-106096243D01*
X146047148Y-105977055D01*
X146047145Y-105977053D01*
X146042639Y-105973898D01*
X146037657Y-105971575D01*
X146037652Y-105971572D01*
X145849312Y-105883748D01*
X145849311Y-105883747D01*
X145844330Y-105881425D01*
X145839022Y-105880003D01*
X145839020Y-105880002D01*
X145773255Y-105862380D01*
X145632977Y-105824793D01*
X145415000Y-105805723D01*
X145197023Y-105824793D01*
X145056745Y-105862380D01*
X144990980Y-105880002D01*
X144990978Y-105880003D01*
X144985670Y-105881425D01*
X144980690Y-105883747D01*
X144980688Y-105883748D01*
X144792343Y-105971575D01*
X144792340Y-105971577D01*
X144787362Y-105973898D01*
X144608123Y-106099402D01*
X144453402Y-106254123D01*
X144327898Y-106433362D01*
X144325577Y-106438340D01*
X144325575Y-106438343D01*
X144238256Y-106625598D01*
X144235425Y-106631670D01*
X144178793Y-106843023D01*
X144159723Y-107061000D01*
X138161277Y-107061000D01*
X138142207Y-106843023D01*
X138085575Y-106631670D01*
X138082744Y-106625598D01*
X137995425Y-106438343D01*
X137995423Y-106438340D01*
X137993102Y-106433362D01*
X137867598Y-106254123D01*
X137712877Y-106099402D01*
X137708369Y-106096245D01*
X137708366Y-106096243D01*
X137538148Y-105977055D01*
X137538145Y-105977053D01*
X137533639Y-105973898D01*
X137528657Y-105971575D01*
X137528652Y-105971572D01*
X137340312Y-105883748D01*
X137340311Y-105883747D01*
X137335330Y-105881425D01*
X137330022Y-105880003D01*
X137330020Y-105880002D01*
X137264255Y-105862380D01*
X137123977Y-105824793D01*
X136906000Y-105805723D01*
X136688023Y-105824793D01*
X136547745Y-105862380D01*
X136481980Y-105880002D01*
X136481978Y-105880003D01*
X136476670Y-105881425D01*
X136471690Y-105883747D01*
X136471688Y-105883748D01*
X136283343Y-105971575D01*
X136283340Y-105971577D01*
X136278362Y-105973898D01*
X136099123Y-106099402D01*
X135944402Y-106254123D01*
X135818898Y-106433362D01*
X135816577Y-106438340D01*
X135816575Y-106438343D01*
X135729256Y-106625598D01*
X135726425Y-106631670D01*
X135669793Y-106843023D01*
X135650723Y-107061000D01*
X131488222Y-107061000D01*
X131493777Y-106997500D01*
X131474707Y-106779523D01*
X131418075Y-106568170D01*
X131405719Y-106541672D01*
X131327925Y-106374843D01*
X131327923Y-106374840D01*
X131325602Y-106369862D01*
X131200098Y-106190623D01*
X131045377Y-106035902D01*
X131040869Y-106032745D01*
X131040866Y-106032743D01*
X130870648Y-105913555D01*
X130870645Y-105913553D01*
X130866139Y-105910398D01*
X130861157Y-105908075D01*
X130861152Y-105908072D01*
X130672812Y-105820248D01*
X130672811Y-105820247D01*
X130667830Y-105817925D01*
X130662522Y-105816503D01*
X130662520Y-105816502D01*
X130596755Y-105798880D01*
X130456477Y-105761293D01*
X130238500Y-105742223D01*
X130020523Y-105761293D01*
X129880245Y-105798880D01*
X129814480Y-105816502D01*
X129814478Y-105816503D01*
X129809170Y-105817925D01*
X129804190Y-105820247D01*
X129804188Y-105820248D01*
X129615843Y-105908075D01*
X129615840Y-105908077D01*
X129610862Y-105910398D01*
X129431623Y-106035902D01*
X129276902Y-106190623D01*
X129151398Y-106369862D01*
X129149077Y-106374840D01*
X129149075Y-106374843D01*
X129071281Y-106541672D01*
X129058925Y-106568170D01*
X129002293Y-106779523D01*
X128983223Y-106997500D01*
X129002293Y-107215477D01*
X129029011Y-107315191D01*
X129045200Y-107375606D01*
X129058925Y-107426830D01*
X129061247Y-107431810D01*
X129061248Y-107431812D01*
X129132086Y-107583723D01*
X129151398Y-107625138D01*
X129276902Y-107804377D01*
X129431623Y-107959098D01*
X129436131Y-107962255D01*
X129436134Y-107962257D01*
X129606352Y-108081445D01*
X129610861Y-108084602D01*
X129615843Y-108086925D01*
X129615848Y-108086928D01*
X129804188Y-108174752D01*
X129809170Y-108177075D01*
X129814478Y-108178497D01*
X129814480Y-108178498D01*
X129854708Y-108189277D01*
X130020523Y-108233707D01*
X130238500Y-108252777D01*
X130456477Y-108233707D01*
X130622292Y-108189277D01*
X130662520Y-108178498D01*
X130662522Y-108178497D01*
X130667830Y-108177075D01*
X130672812Y-108174752D01*
X130861152Y-108086928D01*
X130861157Y-108086925D01*
X130866139Y-108084602D01*
X130952775Y-108023939D01*
X131020048Y-108001251D01*
X131088908Y-108018536D01*
X131137493Y-108070305D01*
X131150376Y-108140123D01*
X131128260Y-108199420D01*
X131119898Y-108211362D01*
X131117577Y-108216340D01*
X131117575Y-108216343D01*
X131079644Y-108297686D01*
X131027425Y-108409670D01*
X130970793Y-108621023D01*
X130951723Y-108839000D01*
X130970793Y-109056977D01*
X131027425Y-109268330D01*
X131119898Y-109466638D01*
X131245402Y-109645877D01*
X131376514Y-109776989D01*
X131410540Y-109839301D01*
X131405475Y-109910116D01*
X131362928Y-109966952D01*
X131296408Y-109991763D01*
X131262496Y-109989107D01*
X131262463Y-109989317D01*
X131259807Y-109988896D01*
X131258972Y-109988831D01*
X131258061Y-109988620D01*
X131258062Y-109988620D01*
X131253721Y-109987614D01*
X130992641Y-109965002D01*
X130988206Y-109965246D01*
X130988202Y-109965246D01*
X130735421Y-109979157D01*
X130735414Y-109979158D01*
X130730978Y-109979402D01*
X130473956Y-110030527D01*
X130469746Y-110032005D01*
X130469744Y-110032006D01*
X130346726Y-110075207D01*
X130226701Y-110117357D01*
X130222750Y-110119410D01*
X130222744Y-110119412D01*
X130173120Y-110145190D01*
X129994147Y-110238159D01*
X129990532Y-110240742D01*
X129990526Y-110240746D01*
X129784555Y-110387935D01*
X129784551Y-110387938D01*
X129780934Y-110390523D01*
X129777715Y-110393594D01*
X129774277Y-110396438D01*
X129773400Y-110395378D01*
X129715617Y-110425172D01*
X129644941Y-110418429D01*
X129615320Y-110401614D01*
X129445607Y-110272093D01*
X129445603Y-110272090D01*
X129442062Y-110269388D01*
X129213417Y-110141340D01*
X129209268Y-110139735D01*
X129209264Y-110139733D01*
X129059518Y-110081801D01*
X128969012Y-110046787D01*
X128964691Y-110045785D01*
X128964683Y-110045783D01*
X128768353Y-110000277D01*
X128713721Y-109987614D01*
X128452641Y-109965002D01*
X128448206Y-109965246D01*
X128448202Y-109965246D01*
X128195421Y-109979157D01*
X128195414Y-109979158D01*
X128190978Y-109979402D01*
X127933956Y-110030527D01*
X127929746Y-110032005D01*
X127929744Y-110032006D01*
X127806726Y-110075207D01*
X127686701Y-110117357D01*
X127682750Y-110119410D01*
X127682744Y-110119412D01*
X127633120Y-110145190D01*
X127454147Y-110238159D01*
X127450532Y-110240742D01*
X127450526Y-110240746D01*
X127244555Y-110387935D01*
X127244551Y-110387938D01*
X127240934Y-110390523D01*
X127237715Y-110393594D01*
X127234277Y-110396438D01*
X127233400Y-110395378D01*
X127175617Y-110425172D01*
X127104941Y-110418429D01*
X127075320Y-110401614D01*
X126905607Y-110272093D01*
X126905603Y-110272090D01*
X126902062Y-110269388D01*
X126673417Y-110141340D01*
X126669268Y-110139735D01*
X126669264Y-110139733D01*
X126519518Y-110081801D01*
X126429012Y-110046787D01*
X126424691Y-110045785D01*
X126424683Y-110045783D01*
X126228353Y-110000277D01*
X126173721Y-109987614D01*
X125912641Y-109965002D01*
X125908206Y-109965246D01*
X125908201Y-109965246D01*
X125653114Y-109979284D01*
X125583998Y-109963055D01*
X125534627Y-109912035D01*
X125520677Y-109842422D01*
X125546577Y-109776319D01*
X125557096Y-109764379D01*
X125675598Y-109645877D01*
X125801102Y-109466638D01*
X125893575Y-109268330D01*
X125950207Y-109056977D01*
X125969277Y-108839000D01*
X125950207Y-108621023D01*
X125893575Y-108409670D01*
X125841356Y-108297686D01*
X125803425Y-108216343D01*
X125803423Y-108216340D01*
X125801102Y-108211362D01*
X125675598Y-108032123D01*
X125520877Y-107877402D01*
X125516369Y-107874245D01*
X125516366Y-107874243D01*
X125346148Y-107755055D01*
X125346145Y-107755053D01*
X125341639Y-107751898D01*
X125336657Y-107749575D01*
X125336652Y-107749572D01*
X125148312Y-107661748D01*
X125148311Y-107661747D01*
X125143330Y-107659425D01*
X125138022Y-107658003D01*
X125138020Y-107658002D01*
X125015369Y-107625138D01*
X124931977Y-107602793D01*
X124714000Y-107583723D01*
X124496023Y-107602793D01*
X124412631Y-107625138D01*
X124289980Y-107658002D01*
X124289978Y-107658003D01*
X124284670Y-107659425D01*
X124279690Y-107661747D01*
X124279688Y-107661748D01*
X124091343Y-107749575D01*
X124091340Y-107749577D01*
X124086362Y-107751898D01*
X123907123Y-107877402D01*
X123752402Y-108032123D01*
X123626898Y-108211362D01*
X123624577Y-108216340D01*
X123624575Y-108216343D01*
X123586644Y-108297686D01*
X123534425Y-108409670D01*
X123477793Y-108621023D01*
X123458723Y-108839000D01*
X123477793Y-109056977D01*
X123534425Y-109268330D01*
X123626898Y-109466638D01*
X123752402Y-109645877D01*
X123907123Y-109800598D01*
X123911634Y-109803757D01*
X123915847Y-109807292D01*
X123914638Y-109808733D01*
X123953755Y-109857656D01*
X123961073Y-109928274D01*
X123929051Y-109991639D01*
X123867855Y-110027632D01*
X123808711Y-110028174D01*
X123688353Y-110000277D01*
X123633721Y-109987614D01*
X123372641Y-109965002D01*
X123368206Y-109965246D01*
X123368202Y-109965246D01*
X123115421Y-109979157D01*
X123115414Y-109979158D01*
X123110978Y-109979402D01*
X122853956Y-110030527D01*
X122849746Y-110032005D01*
X122849744Y-110032006D01*
X122726726Y-110075207D01*
X122606701Y-110117357D01*
X122602750Y-110119410D01*
X122602744Y-110119412D01*
X122553120Y-110145190D01*
X122374147Y-110238159D01*
X122370532Y-110240742D01*
X122370526Y-110240746D01*
X122164555Y-110387935D01*
X122164551Y-110387938D01*
X122160934Y-110390523D01*
X122157715Y-110393594D01*
X122154277Y-110396438D01*
X122153400Y-110395378D01*
X122095617Y-110425172D01*
X122024941Y-110418429D01*
X121995320Y-110401614D01*
X121825607Y-110272093D01*
X121825603Y-110272090D01*
X121822062Y-110269388D01*
X121593417Y-110141340D01*
X121589268Y-110139735D01*
X121589264Y-110139733D01*
X121439518Y-110081801D01*
X121349012Y-110046787D01*
X121344691Y-110045785D01*
X121344683Y-110045783D01*
X121148353Y-110000277D01*
X121093721Y-109987614D01*
X120832641Y-109965002D01*
X120828206Y-109965246D01*
X120828202Y-109965246D01*
X120575421Y-109979157D01*
X120575414Y-109979158D01*
X120570978Y-109979402D01*
X120313956Y-110030527D01*
X120309746Y-110032005D01*
X120309744Y-110032006D01*
X120186726Y-110075207D01*
X120066701Y-110117357D01*
X120062750Y-110119410D01*
X120062744Y-110119412D01*
X119886309Y-110211063D01*
X119816637Y-110224715D01*
X119748591Y-110196892D01*
X119683147Y-110143518D01*
X119667096Y-110130427D01*
X119486970Y-110036259D01*
X119291587Y-109980234D01*
X119259955Y-109977411D01*
X119174109Y-109969749D01*
X119174103Y-109969749D01*
X119171316Y-109969500D01*
X117355684Y-109969500D01*
X117352897Y-109969749D01*
X117352891Y-109969749D01*
X117267045Y-109977411D01*
X117235413Y-109980234D01*
X117040030Y-110036259D01*
X116926158Y-110095790D01*
X116874417Y-110122840D01*
X116859904Y-110130427D01*
X116854961Y-110134458D01*
X116854960Y-110134459D01*
X116744295Y-110224715D01*
X116702391Y-110258891D01*
X116698362Y-110263831D01*
X116597146Y-110387935D01*
X116573927Y-110416404D01*
X116479759Y-110596530D01*
X116423734Y-110791913D01*
X116413000Y-110912184D01*
X116413000Y-112727816D01*
X116423734Y-112848087D01*
X116434253Y-112884771D01*
X116433803Y-112955764D01*
X116395041Y-113015246D01*
X116330275Y-113044329D01*
X116313134Y-113045500D01*
X101456500Y-113045500D01*
X101388379Y-113025498D01*
X101341886Y-112971842D01*
X101330500Y-112919500D01*
X101330500Y-106312966D01*
X103378257Y-106312966D01*
X103408565Y-106447446D01*
X103411645Y-106457275D01*
X103491770Y-106654603D01*
X103496413Y-106663794D01*
X103607694Y-106845388D01*
X103613777Y-106853699D01*
X103753213Y-107014667D01*
X103760580Y-107021883D01*
X103924434Y-107157916D01*
X103932881Y-107163831D01*
X104116756Y-107271279D01*
X104126042Y-107275729D01*
X104325001Y-107351703D01*
X104334899Y-107354579D01*
X104438250Y-107375606D01*
X104452299Y-107374410D01*
X104456000Y-107364065D01*
X104456000Y-106317115D01*
X104451525Y-106301876D01*
X104450135Y-106300671D01*
X104442452Y-106299000D01*
X103393225Y-106299000D01*
X103379694Y-106302973D01*
X103378257Y-106312966D01*
X101330500Y-106312966D01*
X101330500Y-103446726D01*
X102855688Y-103446726D01*
X102855863Y-103451177D01*
X102863634Y-103648941D01*
X102865977Y-103708582D01*
X102866777Y-103712962D01*
X102911638Y-103958598D01*
X102913058Y-103966376D01*
X102995994Y-104214965D01*
X103024730Y-104272475D01*
X103075018Y-104373116D01*
X103113128Y-104449387D01*
X103262124Y-104664967D01*
X103352428Y-104762657D01*
X103422201Y-104838136D01*
X103440010Y-104857402D01*
X103524958Y-104926560D01*
X103631129Y-105012997D01*
X103671328Y-105071517D01*
X103673508Y-105142480D01*
X103650848Y-105187337D01*
X103651019Y-105187454D01*
X103650131Y-105188755D01*
X103649501Y-105190003D01*
X103648100Y-105191734D01*
X103528098Y-105367649D01*
X103523000Y-105376623D01*
X103433338Y-105569783D01*
X103429775Y-105579470D01*
X103374389Y-105779183D01*
X103375912Y-105787607D01*
X103388292Y-105791000D01*
X104838000Y-105791000D01*
X104906121Y-105811002D01*
X104952614Y-105864658D01*
X104964000Y-105917000D01*
X104964000Y-107363517D01*
X104968064Y-107377359D01*
X104981478Y-107379393D01*
X104988184Y-107378534D01*
X104998262Y-107376392D01*
X105202255Y-107315191D01*
X105211842Y-107311433D01*
X105403095Y-107217739D01*
X105411945Y-107212464D01*
X105471684Y-107169853D01*
X106489977Y-107169853D01*
X106495258Y-107176907D01*
X106656756Y-107271279D01*
X106666042Y-107275729D01*
X106865001Y-107351703D01*
X106874899Y-107354579D01*
X107083595Y-107397038D01*
X107093823Y-107398257D01*
X107306650Y-107406062D01*
X107316936Y-107405595D01*
X107528185Y-107378534D01*
X107538262Y-107376392D01*
X107742255Y-107315191D01*
X107751842Y-107311433D01*
X107943098Y-107217738D01*
X107951944Y-107212465D01*
X107999247Y-107178723D01*
X108007648Y-107168023D01*
X108000660Y-107154870D01*
X107262812Y-106417022D01*
X107248868Y-106409408D01*
X107247035Y-106409539D01*
X107240420Y-106413790D01*
X106496737Y-107157473D01*
X106489977Y-107169853D01*
X105471684Y-107169853D01*
X105585328Y-107088792D01*
X105593200Y-107082139D01*
X105744052Y-106931812D01*
X105750730Y-106923965D01*
X105878022Y-106746819D01*
X105879148Y-106747628D01*
X105926658Y-106703881D01*
X105996595Y-106691661D01*
X106062037Y-106719191D01*
X106089868Y-106751027D01*
X106116459Y-106794419D01*
X106126916Y-106803880D01*
X106135694Y-106800096D01*
X107160905Y-105774885D01*
X107223217Y-105740859D01*
X107294032Y-105745924D01*
X107339095Y-105774885D01*
X108360474Y-106796264D01*
X108372484Y-106802823D01*
X108384223Y-106793855D01*
X108415004Y-106751019D01*
X108420315Y-106742180D01*
X108514670Y-106551267D01*
X108518469Y-106541672D01*
X108580376Y-106337915D01*
X108582555Y-106327834D01*
X108610590Y-106114887D01*
X108611109Y-106108212D01*
X108612572Y-106048364D01*
X108612378Y-106041646D01*
X108594781Y-105827604D01*
X108593096Y-105817424D01*
X108541214Y-105610875D01*
X108537894Y-105601124D01*
X108452972Y-105405814D01*
X108448105Y-105396739D01*
X108332426Y-105217926D01*
X108326136Y-105209757D01*
X108312528Y-105194803D01*
X108281475Y-105130958D01*
X108289869Y-105060459D01*
X108335719Y-105005237D01*
X108383374Y-104973395D01*
X108383378Y-104973392D01*
X108387082Y-104970917D01*
X108582287Y-104796076D01*
X108661945Y-104701312D01*
X108748043Y-104598886D01*
X108748045Y-104598884D01*
X108750910Y-104595475D01*
X108889586Y-104373116D01*
X108895082Y-104360686D01*
X108993749Y-104137503D01*
X108995547Y-104133436D01*
X109066681Y-103881216D01*
X109089588Y-103710670D01*
X109101139Y-103624673D01*
X109101140Y-103624665D01*
X109101566Y-103621491D01*
X109105227Y-103505000D01*
X109086719Y-103243596D01*
X109033628Y-102997000D01*
X114187723Y-102997000D01*
X114206793Y-103214977D01*
X114263425Y-103426330D01*
X114265747Y-103431310D01*
X114265748Y-103431312D01*
X114324970Y-103558312D01*
X114355898Y-103624638D01*
X114481402Y-103803877D01*
X114636123Y-103958598D01*
X114640631Y-103961755D01*
X114640634Y-103961757D01*
X114647231Y-103966376D01*
X114815361Y-104084102D01*
X114820343Y-104086425D01*
X114820348Y-104086428D01*
X115008688Y-104174252D01*
X115013670Y-104176575D01*
X115018978Y-104177997D01*
X115018980Y-104177998D01*
X115084745Y-104195620D01*
X115225023Y-104233207D01*
X115443000Y-104252277D01*
X115660977Y-104233207D01*
X115801255Y-104195620D01*
X115867020Y-104177998D01*
X115867022Y-104177997D01*
X115872330Y-104176575D01*
X115877312Y-104174252D01*
X116065652Y-104086428D01*
X116065657Y-104086425D01*
X116070639Y-104084102D01*
X116238769Y-103966376D01*
X116245366Y-103961757D01*
X116245369Y-103961755D01*
X116249877Y-103958598D01*
X116404598Y-103803877D01*
X116530102Y-103624638D01*
X116561031Y-103558312D01*
X116620252Y-103431312D01*
X116620253Y-103431310D01*
X116622575Y-103426330D01*
X116679207Y-103214977D01*
X116681575Y-103187907D01*
X116707438Y-103121789D01*
X116764941Y-103080149D01*
X116835828Y-103076208D01*
X116897593Y-103111216D01*
X116926433Y-103162096D01*
X116927119Y-103161846D01*
X116928604Y-103165925D01*
X116928802Y-103166275D01*
X116929000Y-103167014D01*
X116929002Y-103167020D01*
X116930425Y-103172330D01*
X117022898Y-103370638D01*
X117026053Y-103375143D01*
X117027991Y-103378501D01*
X117044728Y-103447497D01*
X117027991Y-103504499D01*
X117026053Y-103507857D01*
X117022898Y-103512362D01*
X116930425Y-103710670D01*
X116929003Y-103715978D01*
X116929002Y-103715980D01*
X116911380Y-103781745D01*
X116873793Y-103922023D01*
X116854723Y-104140000D01*
X116873793Y-104357977D01*
X116930425Y-104569330D01*
X116932747Y-104574310D01*
X116932748Y-104574312D01*
X116991970Y-104701312D01*
X117022898Y-104767638D01*
X117044893Y-104799050D01*
X117066375Y-104829730D01*
X117089063Y-104897004D01*
X117071778Y-104965864D01*
X117066375Y-104974270D01*
X117022898Y-105036362D01*
X117020577Y-105041340D01*
X117020575Y-105041343D01*
X116933256Y-105228598D01*
X116930425Y-105234670D01*
X116873793Y-105446023D01*
X116854723Y-105664000D01*
X116873793Y-105881977D01*
X116930425Y-106093330D01*
X116932747Y-106098310D01*
X116932748Y-106098312D01*
X116977898Y-106195135D01*
X117022898Y-106291638D01*
X117148402Y-106470877D01*
X117303123Y-106625598D01*
X117307631Y-106628755D01*
X117307634Y-106628757D01*
X117444785Y-106724791D01*
X117489113Y-106780248D01*
X117498035Y-106838985D01*
X117496748Y-106853699D01*
X117489723Y-106934000D01*
X117508793Y-107151977D01*
X117540760Y-107271279D01*
X117562310Y-107351703D01*
X117565425Y-107363330D01*
X117567747Y-107368310D01*
X117567748Y-107368312D01*
X117626970Y-107495312D01*
X117657898Y-107561638D01*
X117783402Y-107740877D01*
X117938123Y-107895598D01*
X117942631Y-107898755D01*
X117942634Y-107898757D01*
X118089011Y-108001251D01*
X118117361Y-108021102D01*
X118122343Y-108023425D01*
X118122348Y-108023428D01*
X118253537Y-108084602D01*
X118315670Y-108113575D01*
X118320978Y-108114997D01*
X118320980Y-108114998D01*
X118386745Y-108132620D01*
X118527023Y-108170207D01*
X118745000Y-108189277D01*
X118962977Y-108170207D01*
X119103255Y-108132620D01*
X119169020Y-108114998D01*
X119169022Y-108114997D01*
X119174330Y-108113575D01*
X119236463Y-108084602D01*
X119367652Y-108023428D01*
X119367657Y-108023425D01*
X119372639Y-108021102D01*
X119400989Y-108001251D01*
X119547366Y-107898757D01*
X119547369Y-107898755D01*
X119551877Y-107895598D01*
X119706598Y-107740877D01*
X119832102Y-107561638D01*
X119863031Y-107495312D01*
X119922252Y-107368312D01*
X119922253Y-107368310D01*
X119924575Y-107363330D01*
X119927691Y-107351703D01*
X119949240Y-107271279D01*
X119981207Y-107151977D01*
X120000277Y-106934000D01*
X121045723Y-106934000D01*
X121064793Y-107151977D01*
X121096760Y-107271279D01*
X121118310Y-107351703D01*
X121121425Y-107363330D01*
X121123747Y-107368310D01*
X121123748Y-107368312D01*
X121182970Y-107495312D01*
X121213898Y-107561638D01*
X121339402Y-107740877D01*
X121494123Y-107895598D01*
X121498631Y-107898755D01*
X121498634Y-107898757D01*
X121645011Y-108001251D01*
X121673361Y-108021102D01*
X121678343Y-108023425D01*
X121678348Y-108023428D01*
X121809537Y-108084602D01*
X121871670Y-108113575D01*
X121876978Y-108114997D01*
X121876980Y-108114998D01*
X121942745Y-108132620D01*
X122083023Y-108170207D01*
X122301000Y-108189277D01*
X122518977Y-108170207D01*
X122659255Y-108132620D01*
X122725020Y-108114998D01*
X122725022Y-108114997D01*
X122730330Y-108113575D01*
X122792463Y-108084602D01*
X122923652Y-108023428D01*
X122923657Y-108023425D01*
X122928639Y-108021102D01*
X122956989Y-108001251D01*
X123103366Y-107898757D01*
X123103369Y-107898755D01*
X123107877Y-107895598D01*
X123262598Y-107740877D01*
X123388102Y-107561638D01*
X123419031Y-107495312D01*
X123478252Y-107368312D01*
X123478253Y-107368310D01*
X123480575Y-107363330D01*
X123483691Y-107351703D01*
X123505240Y-107271279D01*
X123537207Y-107151977D01*
X123556277Y-106934000D01*
X123537207Y-106716023D01*
X123480575Y-106504670D01*
X123449646Y-106438343D01*
X123390425Y-106311343D01*
X123390423Y-106311340D01*
X123388102Y-106306362D01*
X123262598Y-106127123D01*
X123107877Y-105972402D01*
X123103369Y-105969245D01*
X123103366Y-105969243D01*
X122933148Y-105850055D01*
X122933145Y-105850053D01*
X122928639Y-105846898D01*
X122923657Y-105844575D01*
X122923652Y-105844572D01*
X122735312Y-105756748D01*
X122735311Y-105756747D01*
X122730330Y-105754425D01*
X122725022Y-105753003D01*
X122725020Y-105753002D01*
X122659255Y-105735380D01*
X122518977Y-105697793D01*
X122301000Y-105678723D01*
X122083023Y-105697793D01*
X121942745Y-105735380D01*
X121876980Y-105753002D01*
X121876978Y-105753003D01*
X121871670Y-105754425D01*
X121866690Y-105756747D01*
X121866688Y-105756748D01*
X121678343Y-105844575D01*
X121678340Y-105844577D01*
X121673362Y-105846898D01*
X121494123Y-105972402D01*
X121339402Y-106127123D01*
X121213898Y-106306362D01*
X121211577Y-106311340D01*
X121211575Y-106311343D01*
X121152354Y-106438343D01*
X121121425Y-106504670D01*
X121064793Y-106716023D01*
X121045723Y-106934000D01*
X120000277Y-106934000D01*
X119981207Y-106716023D01*
X119924575Y-106504670D01*
X119893646Y-106438343D01*
X119834425Y-106311343D01*
X119834423Y-106311340D01*
X119832102Y-106306362D01*
X119706598Y-106127123D01*
X119551877Y-105972402D01*
X119547369Y-105969245D01*
X119547366Y-105969243D01*
X119410215Y-105873209D01*
X119365887Y-105817752D01*
X119356965Y-105759015D01*
X119364798Y-105669475D01*
X119365277Y-105664000D01*
X119346207Y-105446023D01*
X119289575Y-105234670D01*
X119286744Y-105228598D01*
X119199425Y-105041343D01*
X119199423Y-105041340D01*
X119197102Y-105036362D01*
X119153625Y-104974270D01*
X119130937Y-104906996D01*
X119148222Y-104838136D01*
X119153625Y-104829730D01*
X119175107Y-104799050D01*
X119197102Y-104767638D01*
X119228031Y-104701312D01*
X119287252Y-104574312D01*
X119287253Y-104574310D01*
X119289575Y-104569330D01*
X119346207Y-104357977D01*
X119365277Y-104140000D01*
X119346207Y-103922023D01*
X119308620Y-103781745D01*
X119290998Y-103715980D01*
X119290997Y-103715978D01*
X119289575Y-103710670D01*
X119197102Y-103512362D01*
X119193947Y-103507857D01*
X119192009Y-103504499D01*
X119175272Y-103435503D01*
X119192009Y-103378501D01*
X119193947Y-103375143D01*
X119197102Y-103370638D01*
X119289575Y-103172330D01*
X119291000Y-103167014D01*
X119315331Y-103076208D01*
X119336555Y-102997000D01*
X127141723Y-102997000D01*
X127160793Y-103214977D01*
X127217425Y-103426330D01*
X127219747Y-103431310D01*
X127219748Y-103431312D01*
X127278970Y-103558312D01*
X127309898Y-103624638D01*
X127435402Y-103803877D01*
X127590123Y-103958598D01*
X127594631Y-103961755D01*
X127594634Y-103961757D01*
X127601231Y-103966376D01*
X127769361Y-104084102D01*
X127774343Y-104086425D01*
X127774348Y-104086428D01*
X127962688Y-104174252D01*
X127967670Y-104176575D01*
X127972978Y-104177997D01*
X127972980Y-104177998D01*
X128038745Y-104195620D01*
X128179023Y-104233207D01*
X128397000Y-104252277D01*
X128614977Y-104233207D01*
X128755255Y-104195620D01*
X128821020Y-104177998D01*
X128821022Y-104177997D01*
X128826330Y-104176575D01*
X128831312Y-104174252D01*
X129019652Y-104086428D01*
X129019657Y-104086425D01*
X129024639Y-104084102D01*
X129192769Y-103966376D01*
X129199366Y-103961757D01*
X129199369Y-103961755D01*
X129203877Y-103958598D01*
X129358598Y-103803877D01*
X129484102Y-103624638D01*
X129515031Y-103558312D01*
X129574252Y-103431312D01*
X129574253Y-103431310D01*
X129576575Y-103426330D01*
X129633207Y-103214977D01*
X129652277Y-102997000D01*
X129633207Y-102779023D01*
X129595620Y-102638745D01*
X129577998Y-102572980D01*
X129577997Y-102572978D01*
X129576575Y-102567670D01*
X129505500Y-102415250D01*
X129494839Y-102345059D01*
X129505500Y-102308750D01*
X129574252Y-102161312D01*
X129574253Y-102161310D01*
X129576575Y-102156330D01*
X129578011Y-102150973D01*
X129607934Y-102039297D01*
X129633207Y-101944977D01*
X129652277Y-101727000D01*
X129633207Y-101509023D01*
X129576575Y-101297670D01*
X129558713Y-101259365D01*
X129486425Y-101104343D01*
X129486423Y-101104340D01*
X129484102Y-101099362D01*
X129358598Y-100920123D01*
X129203877Y-100765402D01*
X129199369Y-100762245D01*
X129199366Y-100762243D01*
X129058148Y-100663361D01*
X129013820Y-100607904D01*
X129006511Y-100537284D01*
X129038542Y-100473924D01*
X129099743Y-100437939D01*
X129119433Y-100434628D01*
X129249977Y-100423207D01*
X129417460Y-100378330D01*
X129456020Y-100367998D01*
X129456022Y-100367997D01*
X129461330Y-100366575D01*
X129591028Y-100306096D01*
X129654652Y-100276428D01*
X129654657Y-100276425D01*
X129659639Y-100274102D01*
X129757293Y-100205724D01*
X129834366Y-100151757D01*
X129834369Y-100151755D01*
X129838877Y-100148598D01*
X129859489Y-100127986D01*
X129921801Y-100093960D01*
X129992616Y-100099025D01*
X130049452Y-100141572D01*
X130074105Y-100206100D01*
X130081793Y-100293977D01*
X130105730Y-100383312D01*
X130121785Y-100443227D01*
X130138425Y-100505330D01*
X130140747Y-100510310D01*
X130140748Y-100510312D01*
X130220011Y-100680290D01*
X130230898Y-100703638D01*
X130276873Y-100769297D01*
X130318838Y-100829230D01*
X130341526Y-100896504D01*
X130324241Y-100965364D01*
X130318838Y-100973770D01*
X130230898Y-101099362D01*
X130228577Y-101104340D01*
X130228575Y-101104343D01*
X130156287Y-101259365D01*
X130138425Y-101297670D01*
X130081793Y-101509023D01*
X130062723Y-101727000D01*
X130081793Y-101944977D01*
X130107066Y-102039297D01*
X130136990Y-102150973D01*
X130138425Y-102156330D01*
X130140747Y-102161310D01*
X130140748Y-102161312D01*
X130209500Y-102308750D01*
X130220161Y-102378941D01*
X130209500Y-102415250D01*
X130138425Y-102567670D01*
X130137003Y-102572978D01*
X130137002Y-102572980D01*
X130119380Y-102638745D01*
X130081793Y-102779023D01*
X130062723Y-102997000D01*
X130081793Y-103214977D01*
X130138425Y-103426330D01*
X130140747Y-103431310D01*
X130140748Y-103431312D01*
X130209500Y-103578750D01*
X130220161Y-103648941D01*
X130209500Y-103685250D01*
X130138425Y-103837670D01*
X130081793Y-104049023D01*
X130062723Y-104267000D01*
X130081793Y-104484977D01*
X130138425Y-104696330D01*
X130140747Y-104701310D01*
X130140748Y-104701312D01*
X130214846Y-104860214D01*
X130230898Y-104894638D01*
X130356402Y-105073877D01*
X130511123Y-105228598D01*
X130515631Y-105231755D01*
X130515634Y-105231757D01*
X130652178Y-105327366D01*
X130690361Y-105354102D01*
X130695343Y-105356425D01*
X130695348Y-105356428D01*
X130876092Y-105440710D01*
X130888670Y-105446575D01*
X130893978Y-105447997D01*
X130893980Y-105447998D01*
X130959745Y-105465620D01*
X131100023Y-105503207D01*
X131318000Y-105522277D01*
X131535977Y-105503207D01*
X131676255Y-105465620D01*
X131742020Y-105447998D01*
X131742022Y-105447997D01*
X131747330Y-105446575D01*
X131759908Y-105440710D01*
X131940652Y-105356428D01*
X131940657Y-105356425D01*
X131945639Y-105354102D01*
X131983822Y-105327366D01*
X132120366Y-105231757D01*
X132120369Y-105231755D01*
X132124877Y-105228598D01*
X132279598Y-105073877D01*
X132405102Y-104894638D01*
X132421155Y-104860214D01*
X132495252Y-104701312D01*
X132495253Y-104701310D01*
X132497575Y-104696330D01*
X132554207Y-104484977D01*
X132573277Y-104267000D01*
X132554207Y-104049023D01*
X132497575Y-103837670D01*
X132426500Y-103685250D01*
X132415839Y-103615059D01*
X132426500Y-103578750D01*
X132495252Y-103431312D01*
X132495253Y-103431310D01*
X132497575Y-103426330D01*
X132554207Y-103214977D01*
X132562166Y-103124000D01*
X140095723Y-103124000D01*
X140114793Y-103341977D01*
X140171425Y-103553330D01*
X140173747Y-103558310D01*
X140173748Y-103558312D01*
X140243821Y-103708582D01*
X140263898Y-103751638D01*
X140389402Y-103930877D01*
X140544123Y-104085598D01*
X140548631Y-104088755D01*
X140548634Y-104088757D01*
X140718852Y-104207945D01*
X140723361Y-104211102D01*
X140728343Y-104213425D01*
X140728348Y-104213428D01*
X140916688Y-104301252D01*
X140921670Y-104303575D01*
X140926978Y-104304997D01*
X140926980Y-104304998D01*
X140992745Y-104322620D01*
X141133023Y-104360207D01*
X141351000Y-104379277D01*
X141568977Y-104360207D01*
X141709255Y-104322620D01*
X141775020Y-104304998D01*
X141775022Y-104304997D01*
X141780330Y-104303575D01*
X141785312Y-104301252D01*
X141858766Y-104267000D01*
X143016723Y-104267000D01*
X143035793Y-104484977D01*
X143092425Y-104696330D01*
X143094747Y-104701310D01*
X143094748Y-104701312D01*
X143168846Y-104860214D01*
X143184898Y-104894638D01*
X143310402Y-105073877D01*
X143465123Y-105228598D01*
X143469631Y-105231755D01*
X143469634Y-105231757D01*
X143606178Y-105327366D01*
X143644361Y-105354102D01*
X143649343Y-105356425D01*
X143649348Y-105356428D01*
X143830092Y-105440710D01*
X143842670Y-105446575D01*
X143847978Y-105447997D01*
X143847980Y-105447998D01*
X143913745Y-105465620D01*
X144054023Y-105503207D01*
X144272000Y-105522277D01*
X144489977Y-105503207D01*
X144630255Y-105465620D01*
X144696020Y-105447998D01*
X144696022Y-105447997D01*
X144701330Y-105446575D01*
X144713908Y-105440710D01*
X144894652Y-105356428D01*
X144894657Y-105356425D01*
X144899639Y-105354102D01*
X144937822Y-105327366D01*
X145074366Y-105231757D01*
X145074369Y-105231755D01*
X145078877Y-105228598D01*
X145233598Y-105073877D01*
X145359102Y-104894638D01*
X145375155Y-104860214D01*
X145449252Y-104701312D01*
X145449253Y-104701310D01*
X145451575Y-104696330D01*
X145508207Y-104484977D01*
X145527277Y-104267000D01*
X145508207Y-104049023D01*
X145451575Y-103837670D01*
X145380500Y-103685250D01*
X145369839Y-103615059D01*
X145380500Y-103578750D01*
X145449252Y-103431312D01*
X145449253Y-103431310D01*
X145451575Y-103426330D01*
X145508207Y-103214977D01*
X145527277Y-102997000D01*
X145508207Y-102779023D01*
X145470620Y-102638745D01*
X145452998Y-102572980D01*
X145452997Y-102572978D01*
X145451575Y-102567670D01*
X145380500Y-102415250D01*
X145369839Y-102345059D01*
X145380500Y-102308750D01*
X145449252Y-102161312D01*
X145449253Y-102161310D01*
X145451575Y-102156330D01*
X145453011Y-102150973D01*
X145482934Y-102039297D01*
X145508207Y-101944977D01*
X145527277Y-101727000D01*
X145508207Y-101509023D01*
X145451575Y-101297670D01*
X145417444Y-101224475D01*
X145380500Y-101145250D01*
X145369839Y-101075059D01*
X145380500Y-101038750D01*
X145449252Y-100891312D01*
X145449253Y-100891310D01*
X145451575Y-100886330D01*
X145508207Y-100674977D01*
X145527277Y-100457000D01*
X145508207Y-100239023D01*
X145451575Y-100027670D01*
X145417444Y-99954475D01*
X145380500Y-99875250D01*
X145369839Y-99805059D01*
X145380500Y-99768750D01*
X145449252Y-99621312D01*
X145449253Y-99621310D01*
X145451575Y-99616330D01*
X145453011Y-99610973D01*
X145482934Y-99499297D01*
X145508207Y-99404977D01*
X145527277Y-99187000D01*
X145508207Y-98969023D01*
X145454725Y-98769425D01*
X145452998Y-98762980D01*
X145452997Y-98762978D01*
X145451575Y-98757670D01*
X145431313Y-98714217D01*
X145380500Y-98605250D01*
X145369839Y-98535059D01*
X145380500Y-98498750D01*
X145449252Y-98351312D01*
X145449253Y-98351310D01*
X145451575Y-98346330D01*
X145454344Y-98335998D01*
X145482934Y-98229297D01*
X145508207Y-98134977D01*
X145527277Y-97917000D01*
X145508207Y-97699023D01*
X145451575Y-97487670D01*
X145446927Y-97477701D01*
X145380500Y-97335250D01*
X145369839Y-97265059D01*
X145380500Y-97228750D01*
X145449252Y-97081312D01*
X145449253Y-97081310D01*
X145451575Y-97076330D01*
X145453011Y-97070973D01*
X145482934Y-96959297D01*
X145508207Y-96864977D01*
X145527277Y-96647000D01*
X145508207Y-96429023D01*
X145451575Y-96217670D01*
X145394830Y-96095980D01*
X145361425Y-96024343D01*
X145361423Y-96024340D01*
X145359102Y-96019362D01*
X145233598Y-95840123D01*
X145078877Y-95685402D01*
X145074369Y-95682245D01*
X145074366Y-95682243D01*
X144904148Y-95563055D01*
X144904145Y-95563053D01*
X144899639Y-95559898D01*
X144894657Y-95557575D01*
X144894652Y-95557572D01*
X144706312Y-95469748D01*
X144706311Y-95469747D01*
X144701330Y-95467425D01*
X144696022Y-95466003D01*
X144696020Y-95466002D01*
X144630255Y-95448380D01*
X144489977Y-95410793D01*
X144272000Y-95391723D01*
X144054023Y-95410793D01*
X143913745Y-95448380D01*
X143847980Y-95466002D01*
X143847978Y-95466003D01*
X143842670Y-95467425D01*
X143837690Y-95469747D01*
X143837688Y-95469748D01*
X143649343Y-95557575D01*
X143649340Y-95557577D01*
X143644362Y-95559898D01*
X143465123Y-95685402D01*
X143310402Y-95840123D01*
X143184898Y-96019362D01*
X143182577Y-96024340D01*
X143182575Y-96024343D01*
X143149170Y-96095980D01*
X143092425Y-96217670D01*
X143035793Y-96429023D01*
X143016723Y-96647000D01*
X143035793Y-96864977D01*
X143061066Y-96959297D01*
X143090990Y-97070973D01*
X143092425Y-97076330D01*
X143094747Y-97081310D01*
X143094748Y-97081312D01*
X143163500Y-97228750D01*
X143174161Y-97298941D01*
X143163500Y-97335250D01*
X143097074Y-97477701D01*
X143092425Y-97487670D01*
X143035793Y-97699023D01*
X143016723Y-97917000D01*
X143035793Y-98134977D01*
X143061066Y-98229297D01*
X143089657Y-98335998D01*
X143092425Y-98346330D01*
X143094747Y-98351310D01*
X143094748Y-98351312D01*
X143163500Y-98498750D01*
X143174161Y-98568941D01*
X143163500Y-98605250D01*
X143112688Y-98714217D01*
X143092425Y-98757670D01*
X143091003Y-98762978D01*
X143091002Y-98762980D01*
X143089275Y-98769425D01*
X143035793Y-98969023D01*
X143016723Y-99187000D01*
X143035793Y-99404977D01*
X143061066Y-99499297D01*
X143090990Y-99610973D01*
X143092425Y-99616330D01*
X143094747Y-99621310D01*
X143094748Y-99621312D01*
X143163500Y-99768750D01*
X143174161Y-99838941D01*
X143163500Y-99875250D01*
X143126557Y-99954475D01*
X143092425Y-100027670D01*
X143035793Y-100239023D01*
X143016723Y-100457000D01*
X143035793Y-100674977D01*
X143092425Y-100886330D01*
X143094747Y-100891310D01*
X143094748Y-100891312D01*
X143163500Y-101038750D01*
X143174161Y-101108941D01*
X143163500Y-101145250D01*
X143126557Y-101224475D01*
X143092425Y-101297670D01*
X143035793Y-101509023D01*
X143016723Y-101727000D01*
X143035793Y-101944977D01*
X143061066Y-102039297D01*
X143090990Y-102150973D01*
X143092425Y-102156330D01*
X143094747Y-102161310D01*
X143094748Y-102161312D01*
X143163500Y-102308750D01*
X143174161Y-102378941D01*
X143163500Y-102415250D01*
X143092425Y-102567670D01*
X143091003Y-102572978D01*
X143091002Y-102572980D01*
X143073380Y-102638745D01*
X143035793Y-102779023D01*
X143016723Y-102997000D01*
X143035793Y-103214977D01*
X143092425Y-103426330D01*
X143094747Y-103431310D01*
X143094748Y-103431312D01*
X143163500Y-103578750D01*
X143174161Y-103648941D01*
X143163500Y-103685250D01*
X143092425Y-103837670D01*
X143035793Y-104049023D01*
X143016723Y-104267000D01*
X141858766Y-104267000D01*
X141973652Y-104213428D01*
X141973657Y-104213425D01*
X141978639Y-104211102D01*
X141983148Y-104207945D01*
X142153366Y-104088757D01*
X142153369Y-104088755D01*
X142157877Y-104085598D01*
X142312598Y-103930877D01*
X142438102Y-103751638D01*
X142458180Y-103708582D01*
X142528252Y-103558312D01*
X142528253Y-103558310D01*
X142530575Y-103553330D01*
X142587207Y-103341977D01*
X142606277Y-103124000D01*
X142587207Y-102906023D01*
X142530575Y-102694670D01*
X142438102Y-102496362D01*
X142434947Y-102491857D01*
X142433009Y-102488499D01*
X142416272Y-102419503D01*
X142433009Y-102362501D01*
X142434947Y-102359143D01*
X142438102Y-102354638D01*
X142530575Y-102156330D01*
X142532011Y-102150973D01*
X142561934Y-102039297D01*
X142587207Y-101944977D01*
X142606277Y-101727000D01*
X142587207Y-101509023D01*
X142530575Y-101297670D01*
X142512713Y-101259365D01*
X142440425Y-101104343D01*
X142440423Y-101104340D01*
X142438102Y-101099362D01*
X142312598Y-100920123D01*
X142157877Y-100765402D01*
X142153369Y-100762245D01*
X142153366Y-100762243D01*
X141983148Y-100643055D01*
X141983145Y-100643053D01*
X141978639Y-100639898D01*
X141973657Y-100637575D01*
X141973652Y-100637572D01*
X141831305Y-100571195D01*
X141778020Y-100524278D01*
X141758559Y-100456000D01*
X141779101Y-100388040D01*
X141831305Y-100342805D01*
X141973652Y-100276428D01*
X141973657Y-100276425D01*
X141978639Y-100274102D01*
X142076293Y-100205724D01*
X142153366Y-100151757D01*
X142153369Y-100151755D01*
X142157877Y-100148598D01*
X142312598Y-99993877D01*
X142438102Y-99814638D01*
X142460360Y-99766907D01*
X142528252Y-99621312D01*
X142528253Y-99621310D01*
X142530575Y-99616330D01*
X142532011Y-99610973D01*
X142561934Y-99499297D01*
X142587207Y-99404977D01*
X142606277Y-99187000D01*
X142587207Y-98969023D01*
X142533725Y-98769425D01*
X142531998Y-98762980D01*
X142531997Y-98762978D01*
X142530575Y-98757670D01*
X142510313Y-98714217D01*
X142459500Y-98605250D01*
X142448839Y-98535059D01*
X142459500Y-98498750D01*
X142528252Y-98351312D01*
X142528253Y-98351310D01*
X142530575Y-98346330D01*
X142533344Y-98335998D01*
X142561934Y-98229297D01*
X142587207Y-98134977D01*
X142606277Y-97917000D01*
X142587207Y-97699023D01*
X142530575Y-97487670D01*
X142527744Y-97481598D01*
X142440425Y-97294343D01*
X142440423Y-97294340D01*
X142438102Y-97289362D01*
X142312598Y-97110123D01*
X142157877Y-96955402D01*
X142153369Y-96952245D01*
X142153366Y-96952243D01*
X141983148Y-96833055D01*
X141983145Y-96833053D01*
X141978639Y-96829898D01*
X141973657Y-96827575D01*
X141973652Y-96827572D01*
X141785312Y-96739748D01*
X141785311Y-96739747D01*
X141780330Y-96737425D01*
X141775022Y-96736003D01*
X141775020Y-96736002D01*
X141709255Y-96718380D01*
X141568977Y-96680793D01*
X141351000Y-96661723D01*
X141133023Y-96680793D01*
X140992745Y-96718380D01*
X140926980Y-96736002D01*
X140926978Y-96736003D01*
X140921670Y-96737425D01*
X140916690Y-96739747D01*
X140916688Y-96739748D01*
X140728343Y-96827575D01*
X140728340Y-96827577D01*
X140723362Y-96829898D01*
X140544123Y-96955402D01*
X140389402Y-97110123D01*
X140263898Y-97289362D01*
X140261577Y-97294340D01*
X140261575Y-97294343D01*
X140174256Y-97481598D01*
X140171425Y-97487670D01*
X140114793Y-97699023D01*
X140095723Y-97917000D01*
X140114793Y-98134977D01*
X140140066Y-98229297D01*
X140168657Y-98335998D01*
X140171425Y-98346330D01*
X140173747Y-98351310D01*
X140173748Y-98351312D01*
X140242500Y-98498750D01*
X140253161Y-98568941D01*
X140242500Y-98605250D01*
X140191688Y-98714217D01*
X140171425Y-98757670D01*
X140170003Y-98762978D01*
X140170002Y-98762980D01*
X140168275Y-98769425D01*
X140114793Y-98969023D01*
X140095723Y-99187000D01*
X140114793Y-99404977D01*
X140140066Y-99499297D01*
X140169990Y-99610973D01*
X140171425Y-99616330D01*
X140173747Y-99621310D01*
X140173748Y-99621312D01*
X140241641Y-99766907D01*
X140263898Y-99814638D01*
X140389402Y-99993877D01*
X140544123Y-100148598D01*
X140548631Y-100151755D01*
X140548634Y-100151757D01*
X140625707Y-100205724D01*
X140723361Y-100274102D01*
X140728343Y-100276425D01*
X140728348Y-100276428D01*
X140870695Y-100342805D01*
X140923980Y-100389722D01*
X140943441Y-100458000D01*
X140922899Y-100525960D01*
X140870695Y-100571195D01*
X140728343Y-100637575D01*
X140728340Y-100637577D01*
X140723362Y-100639898D01*
X140544123Y-100765402D01*
X140389402Y-100920123D01*
X140263898Y-101099362D01*
X140261577Y-101104340D01*
X140261575Y-101104343D01*
X140189287Y-101259365D01*
X140171425Y-101297670D01*
X140114793Y-101509023D01*
X140095723Y-101727000D01*
X140114793Y-101944977D01*
X140140066Y-102039297D01*
X140169990Y-102150973D01*
X140171425Y-102156330D01*
X140263898Y-102354638D01*
X140267053Y-102359143D01*
X140268991Y-102362501D01*
X140285728Y-102431497D01*
X140268991Y-102488499D01*
X140267053Y-102491857D01*
X140263898Y-102496362D01*
X140171425Y-102694670D01*
X140114793Y-102906023D01*
X140095723Y-103124000D01*
X132562166Y-103124000D01*
X132573277Y-102997000D01*
X132554207Y-102779023D01*
X132516620Y-102638745D01*
X132498998Y-102572980D01*
X132498997Y-102572978D01*
X132497575Y-102567670D01*
X132426500Y-102415250D01*
X132415839Y-102345059D01*
X132426500Y-102308750D01*
X132495252Y-102161312D01*
X132495253Y-102161310D01*
X132497575Y-102156330D01*
X132499011Y-102150973D01*
X132528934Y-102039297D01*
X132554207Y-101944977D01*
X132573277Y-101727000D01*
X133745723Y-101727000D01*
X133764793Y-101944977D01*
X133790066Y-102039297D01*
X133819990Y-102150973D01*
X133821425Y-102156330D01*
X133823747Y-102161310D01*
X133823748Y-102161312D01*
X133891641Y-102306907D01*
X133913898Y-102354638D01*
X134039402Y-102533877D01*
X134194123Y-102688598D01*
X134198631Y-102691755D01*
X134198634Y-102691757D01*
X134271817Y-102743000D01*
X134373361Y-102814102D01*
X134378343Y-102816425D01*
X134378348Y-102816428D01*
X134559092Y-102900710D01*
X134571670Y-102906575D01*
X134576978Y-102907997D01*
X134576980Y-102907998D01*
X134642745Y-102925620D01*
X134783023Y-102963207D01*
X135001000Y-102982277D01*
X135218977Y-102963207D01*
X135359255Y-102925620D01*
X135425020Y-102907998D01*
X135425022Y-102907997D01*
X135430330Y-102906575D01*
X135442908Y-102900710D01*
X135623652Y-102816428D01*
X135623657Y-102816425D01*
X135628639Y-102814102D01*
X135730183Y-102743000D01*
X135803366Y-102691757D01*
X135803369Y-102691755D01*
X135807877Y-102688598D01*
X135962598Y-102533877D01*
X136088102Y-102354638D01*
X136110360Y-102306907D01*
X136178252Y-102161312D01*
X136178253Y-102161310D01*
X136180575Y-102156330D01*
X136182011Y-102150973D01*
X136211934Y-102039297D01*
X136237207Y-101944977D01*
X136256277Y-101727000D01*
X136237207Y-101509023D01*
X136180575Y-101297670D01*
X136162713Y-101259365D01*
X136090425Y-101104343D01*
X136090423Y-101104340D01*
X136088102Y-101099362D01*
X135962598Y-100920123D01*
X135807877Y-100765402D01*
X135803369Y-100762245D01*
X135803366Y-100762243D01*
X135633148Y-100643055D01*
X135633145Y-100643053D01*
X135628639Y-100639898D01*
X135623657Y-100637575D01*
X135623652Y-100637572D01*
X135435312Y-100549748D01*
X135435311Y-100549747D01*
X135430330Y-100547425D01*
X135425022Y-100546003D01*
X135425020Y-100546002D01*
X135343944Y-100524278D01*
X135218977Y-100490793D01*
X135001000Y-100471723D01*
X134783023Y-100490793D01*
X134658056Y-100524278D01*
X134576980Y-100546002D01*
X134576978Y-100546003D01*
X134571670Y-100547425D01*
X134566690Y-100549747D01*
X134566688Y-100549748D01*
X134378343Y-100637575D01*
X134378340Y-100637577D01*
X134373362Y-100639898D01*
X134194123Y-100765402D01*
X134039402Y-100920123D01*
X133913898Y-101099362D01*
X133911577Y-101104340D01*
X133911575Y-101104343D01*
X133839287Y-101259365D01*
X133821425Y-101297670D01*
X133764793Y-101509023D01*
X133745723Y-101727000D01*
X132573277Y-101727000D01*
X132554207Y-101509023D01*
X132497575Y-101297670D01*
X132479713Y-101259365D01*
X132407425Y-101104343D01*
X132407423Y-101104340D01*
X132405102Y-101099362D01*
X132317162Y-100973770D01*
X132294474Y-100906496D01*
X132311759Y-100837636D01*
X132317162Y-100829230D01*
X132359127Y-100769297D01*
X132405102Y-100703638D01*
X132415990Y-100680290D01*
X132495252Y-100510312D01*
X132495253Y-100510310D01*
X132497575Y-100505330D01*
X132514216Y-100443227D01*
X132530270Y-100383312D01*
X132554207Y-100293977D01*
X132573277Y-100076000D01*
X132554207Y-99858023D01*
X132497575Y-99646670D01*
X132480929Y-99610973D01*
X132407425Y-99453343D01*
X132407423Y-99453340D01*
X132405102Y-99448362D01*
X132279598Y-99269123D01*
X132124877Y-99114402D01*
X132120369Y-99111245D01*
X132120366Y-99111243D01*
X131950148Y-98992055D01*
X131950145Y-98992053D01*
X131945639Y-98988898D01*
X131940657Y-98986575D01*
X131940652Y-98986572D01*
X131752312Y-98898748D01*
X131752311Y-98898747D01*
X131747330Y-98896425D01*
X131742022Y-98895003D01*
X131742020Y-98895002D01*
X131666255Y-98874701D01*
X131535977Y-98839793D01*
X131318000Y-98820723D01*
X131100023Y-98839793D01*
X130969745Y-98874701D01*
X130893980Y-98895002D01*
X130893978Y-98895003D01*
X130888670Y-98896425D01*
X130883690Y-98898747D01*
X130883688Y-98898748D01*
X130695343Y-98986575D01*
X130695340Y-98986577D01*
X130690362Y-98988898D01*
X130511123Y-99114402D01*
X130490511Y-99135014D01*
X130428199Y-99169040D01*
X130357384Y-99163975D01*
X130300548Y-99121428D01*
X130275895Y-99056900D01*
X130274759Y-99043914D01*
X130268207Y-98969023D01*
X130214725Y-98769425D01*
X130212998Y-98762980D01*
X130212997Y-98762978D01*
X130211575Y-98757670D01*
X130193713Y-98719365D01*
X130121425Y-98564343D01*
X130121423Y-98564340D01*
X130119102Y-98559362D01*
X129993598Y-98380123D01*
X129838877Y-98225402D01*
X129834369Y-98222245D01*
X129834366Y-98222243D01*
X129664148Y-98103055D01*
X129664145Y-98103053D01*
X129659639Y-98099898D01*
X129654657Y-98097575D01*
X129654652Y-98097572D01*
X129466312Y-98009748D01*
X129466307Y-98009746D01*
X129461330Y-98007425D01*
X129456022Y-98006003D01*
X129456020Y-98006002D01*
X129390255Y-97988380D01*
X129249977Y-97950793D01*
X129032000Y-97931723D01*
X128873179Y-97945618D01*
X128803575Y-97931629D01*
X128752582Y-97882229D01*
X128736392Y-97813103D01*
X128760144Y-97746198D01*
X128819101Y-97701697D01*
X128821028Y-97700996D01*
X128826330Y-97699575D01*
X128831305Y-97697255D01*
X128831308Y-97697254D01*
X129019652Y-97609428D01*
X129019657Y-97609425D01*
X129024639Y-97607102D01*
X129057161Y-97584330D01*
X129199366Y-97484757D01*
X129199369Y-97484755D01*
X129203877Y-97481598D01*
X129358598Y-97326877D01*
X129484102Y-97147638D01*
X129515031Y-97081312D01*
X129574252Y-96954312D01*
X129574253Y-96954310D01*
X129576575Y-96949330D01*
X129591778Y-96892590D01*
X129628730Y-96831968D01*
X129692590Y-96800947D01*
X129763085Y-96809375D01*
X129817832Y-96854578D01*
X129835192Y-96892591D01*
X129882990Y-97070973D01*
X129884425Y-97076330D01*
X129886747Y-97081310D01*
X129886748Y-97081312D01*
X129954641Y-97226907D01*
X129976898Y-97274638D01*
X130102402Y-97453877D01*
X130257123Y-97608598D01*
X130261631Y-97611755D01*
X130261634Y-97611757D01*
X130390082Y-97701697D01*
X130436361Y-97734102D01*
X130441343Y-97736425D01*
X130441348Y-97736428D01*
X130605779Y-97813103D01*
X130634670Y-97826575D01*
X130639978Y-97827997D01*
X130639980Y-97827998D01*
X130705745Y-97845620D01*
X130846023Y-97883207D01*
X131064000Y-97902277D01*
X131281977Y-97883207D01*
X131422255Y-97845620D01*
X131488020Y-97827998D01*
X131488022Y-97827997D01*
X131493330Y-97826575D01*
X131522221Y-97813103D01*
X131686652Y-97736428D01*
X131686657Y-97736425D01*
X131691639Y-97734102D01*
X131737918Y-97701697D01*
X131866366Y-97611757D01*
X131866369Y-97611755D01*
X131870877Y-97608598D01*
X132025598Y-97453877D01*
X132151102Y-97274638D01*
X132173360Y-97226907D01*
X132241252Y-97081312D01*
X132241253Y-97081310D01*
X132243575Y-97076330D01*
X132245011Y-97070973D01*
X132274934Y-96959297D01*
X132300207Y-96864977D01*
X132319277Y-96647000D01*
X133872723Y-96647000D01*
X133891793Y-96864977D01*
X133917066Y-96959297D01*
X133946990Y-97070973D01*
X133948425Y-97076330D01*
X133950747Y-97081310D01*
X133950748Y-97081312D01*
X134018641Y-97226907D01*
X134040898Y-97274638D01*
X134166402Y-97453877D01*
X134321123Y-97608598D01*
X134325631Y-97611755D01*
X134325634Y-97611757D01*
X134454082Y-97701697D01*
X134500361Y-97734102D01*
X134505343Y-97736425D01*
X134505348Y-97736428D01*
X134669779Y-97813103D01*
X134698670Y-97826575D01*
X134703978Y-97827997D01*
X134703980Y-97827998D01*
X134769745Y-97845620D01*
X134910023Y-97883207D01*
X135128000Y-97902277D01*
X135345977Y-97883207D01*
X135486255Y-97845620D01*
X135552020Y-97827998D01*
X135552022Y-97827997D01*
X135557330Y-97826575D01*
X135586221Y-97813103D01*
X135750652Y-97736428D01*
X135750657Y-97736425D01*
X135755639Y-97734102D01*
X135801918Y-97701697D01*
X135930366Y-97611757D01*
X135930369Y-97611755D01*
X135934877Y-97608598D01*
X136089598Y-97453877D01*
X136167787Y-97342211D01*
X136223244Y-97297882D01*
X136293863Y-97290573D01*
X136357224Y-97322603D01*
X136374213Y-97342211D01*
X136452402Y-97453877D01*
X136607123Y-97608598D01*
X136611631Y-97611755D01*
X136611634Y-97611757D01*
X136740082Y-97701697D01*
X136786361Y-97734102D01*
X136791343Y-97736425D01*
X136791348Y-97736428D01*
X136955779Y-97813103D01*
X136984670Y-97826575D01*
X136989978Y-97827997D01*
X136989980Y-97827998D01*
X137055745Y-97845620D01*
X137196023Y-97883207D01*
X137414000Y-97902277D01*
X137631977Y-97883207D01*
X137772255Y-97845620D01*
X137838020Y-97827998D01*
X137838022Y-97827997D01*
X137843330Y-97826575D01*
X137872221Y-97813103D01*
X138036652Y-97736428D01*
X138036657Y-97736425D01*
X138041639Y-97734102D01*
X138087918Y-97701697D01*
X138216366Y-97611757D01*
X138216369Y-97611755D01*
X138220877Y-97608598D01*
X138375598Y-97453877D01*
X138501102Y-97274638D01*
X138523360Y-97226907D01*
X138591252Y-97081312D01*
X138591253Y-97081310D01*
X138593575Y-97076330D01*
X138595011Y-97070973D01*
X138624934Y-96959297D01*
X138650207Y-96864977D01*
X138669277Y-96647000D01*
X138650207Y-96429023D01*
X138593575Y-96217670D01*
X138536830Y-96095980D01*
X138503425Y-96024343D01*
X138503423Y-96024340D01*
X138501102Y-96019362D01*
X138375598Y-95840123D01*
X138220877Y-95685402D01*
X138216369Y-95682245D01*
X138216366Y-95682243D01*
X138046148Y-95563055D01*
X138046145Y-95563053D01*
X138041639Y-95559898D01*
X138036657Y-95557575D01*
X138036652Y-95557572D01*
X137848312Y-95469748D01*
X137848311Y-95469747D01*
X137843330Y-95467425D01*
X137838022Y-95466003D01*
X137838020Y-95466002D01*
X137772255Y-95448380D01*
X137631977Y-95410793D01*
X137414000Y-95391723D01*
X137196023Y-95410793D01*
X137055745Y-95448380D01*
X136989980Y-95466002D01*
X136989978Y-95466003D01*
X136984670Y-95467425D01*
X136979690Y-95469747D01*
X136979688Y-95469748D01*
X136791343Y-95557575D01*
X136791340Y-95557577D01*
X136786362Y-95559898D01*
X136607123Y-95685402D01*
X136452402Y-95840123D01*
X136418723Y-95888222D01*
X136374213Y-95951789D01*
X136318756Y-95996118D01*
X136248137Y-96003427D01*
X136184776Y-95971397D01*
X136167787Y-95951789D01*
X136123277Y-95888222D01*
X136089598Y-95840123D01*
X135934877Y-95685402D01*
X135930369Y-95682245D01*
X135930366Y-95682243D01*
X135760148Y-95563055D01*
X135760145Y-95563053D01*
X135755639Y-95559898D01*
X135750657Y-95557575D01*
X135750652Y-95557572D01*
X135562312Y-95469748D01*
X135562311Y-95469747D01*
X135557330Y-95467425D01*
X135552022Y-95466003D01*
X135552020Y-95466002D01*
X135486255Y-95448380D01*
X135345977Y-95410793D01*
X135128000Y-95391723D01*
X134910023Y-95410793D01*
X134769745Y-95448380D01*
X134703980Y-95466002D01*
X134703978Y-95466003D01*
X134698670Y-95467425D01*
X134693690Y-95469747D01*
X134693688Y-95469748D01*
X134505343Y-95557575D01*
X134505340Y-95557577D01*
X134500362Y-95559898D01*
X134321123Y-95685402D01*
X134166402Y-95840123D01*
X134040898Y-96019362D01*
X134038577Y-96024340D01*
X134038575Y-96024343D01*
X134005170Y-96095980D01*
X133948425Y-96217670D01*
X133891793Y-96429023D01*
X133872723Y-96647000D01*
X132319277Y-96647000D01*
X132300207Y-96429023D01*
X132243575Y-96217670D01*
X132186830Y-96095980D01*
X132153425Y-96024343D01*
X132153423Y-96024340D01*
X132151102Y-96019362D01*
X132025598Y-95840123D01*
X131870877Y-95685402D01*
X131866369Y-95682245D01*
X131866366Y-95682243D01*
X131696148Y-95563055D01*
X131696145Y-95563053D01*
X131691639Y-95559898D01*
X131686657Y-95557575D01*
X131686652Y-95557572D01*
X131498312Y-95469748D01*
X131498311Y-95469747D01*
X131493330Y-95467425D01*
X131488022Y-95466003D01*
X131488020Y-95466002D01*
X131422255Y-95448380D01*
X131281977Y-95410793D01*
X131064000Y-95391723D01*
X130846023Y-95410793D01*
X130705745Y-95448380D01*
X130639980Y-95466002D01*
X130639978Y-95466003D01*
X130634670Y-95467425D01*
X130629690Y-95469747D01*
X130629688Y-95469748D01*
X130441343Y-95557575D01*
X130441340Y-95557577D01*
X130436362Y-95559898D01*
X130257123Y-95685402D01*
X130102402Y-95840123D01*
X129976898Y-96019362D01*
X129974577Y-96024340D01*
X129974575Y-96024343D01*
X129941170Y-96095980D01*
X129884425Y-96217670D01*
X129883003Y-96222978D01*
X129883002Y-96222980D01*
X129869222Y-96274409D01*
X129832270Y-96335032D01*
X129768410Y-96366053D01*
X129697915Y-96357625D01*
X129643168Y-96312422D01*
X129625808Y-96274409D01*
X129577998Y-96095980D01*
X129577997Y-96095978D01*
X129576575Y-96090670D01*
X129545646Y-96024343D01*
X129486425Y-95897343D01*
X129486423Y-95897340D01*
X129484102Y-95892362D01*
X129358598Y-95713123D01*
X129203877Y-95558402D01*
X129199369Y-95555245D01*
X129199366Y-95555243D01*
X129029148Y-95436055D01*
X129029145Y-95436053D01*
X129024639Y-95432898D01*
X129019657Y-95430575D01*
X129019652Y-95430572D01*
X128831312Y-95342748D01*
X128831311Y-95342747D01*
X128826330Y-95340425D01*
X128821022Y-95339003D01*
X128821020Y-95339002D01*
X128719138Y-95311703D01*
X128614977Y-95283793D01*
X128397000Y-95264723D01*
X128179023Y-95283793D01*
X128074862Y-95311703D01*
X127972980Y-95339002D01*
X127972978Y-95339003D01*
X127967670Y-95340425D01*
X127962690Y-95342747D01*
X127962688Y-95342748D01*
X127774343Y-95430575D01*
X127774340Y-95430577D01*
X127769362Y-95432898D01*
X127590123Y-95558402D01*
X127435402Y-95713123D01*
X127309898Y-95892362D01*
X127307577Y-95897340D01*
X127307575Y-95897343D01*
X127248354Y-96024343D01*
X127217425Y-96090670D01*
X127160793Y-96302023D01*
X127141723Y-96520000D01*
X127160793Y-96737977D01*
X127217425Y-96949330D01*
X127219747Y-96954310D01*
X127219748Y-96954312D01*
X127278970Y-97081312D01*
X127309898Y-97147638D01*
X127435402Y-97326877D01*
X127590123Y-97481598D01*
X127594631Y-97484755D01*
X127594634Y-97484757D01*
X127736839Y-97584330D01*
X127769361Y-97607102D01*
X127774343Y-97609425D01*
X127774348Y-97609428D01*
X127895076Y-97665724D01*
X127967670Y-97699575D01*
X127972978Y-97700997D01*
X127972980Y-97700998D01*
X128038745Y-97718620D01*
X128179023Y-97756207D01*
X128397000Y-97775277D01*
X128555821Y-97761382D01*
X128625425Y-97775371D01*
X128676418Y-97824771D01*
X128692608Y-97893897D01*
X128668856Y-97960802D01*
X128609899Y-98005303D01*
X128607972Y-98006004D01*
X128602670Y-98007425D01*
X128597695Y-98009745D01*
X128597692Y-98009746D01*
X128409343Y-98097575D01*
X128409340Y-98097577D01*
X128404362Y-98099898D01*
X128225123Y-98225402D01*
X128070402Y-98380123D01*
X127944898Y-98559362D01*
X127942577Y-98564340D01*
X127942575Y-98564343D01*
X127870287Y-98719365D01*
X127852425Y-98757670D01*
X127851003Y-98762978D01*
X127851002Y-98762980D01*
X127849275Y-98769425D01*
X127795793Y-98969023D01*
X127776723Y-99187000D01*
X127795793Y-99404977D01*
X127821066Y-99499297D01*
X127850990Y-99610973D01*
X127852425Y-99616330D01*
X127854747Y-99621310D01*
X127854748Y-99621312D01*
X127922641Y-99766907D01*
X127944898Y-99814638D01*
X128070402Y-99993877D01*
X128225123Y-100148598D01*
X128229631Y-100151755D01*
X128229634Y-100151757D01*
X128370852Y-100250639D01*
X128415180Y-100306096D01*
X128422489Y-100376716D01*
X128390458Y-100440076D01*
X128329257Y-100476061D01*
X128309567Y-100479372D01*
X128179023Y-100490793D01*
X128054056Y-100524278D01*
X127972980Y-100546002D01*
X127972978Y-100546003D01*
X127967670Y-100547425D01*
X127962690Y-100549747D01*
X127962688Y-100549748D01*
X127774343Y-100637575D01*
X127774340Y-100637577D01*
X127769362Y-100639898D01*
X127590123Y-100765402D01*
X127435402Y-100920123D01*
X127309898Y-101099362D01*
X127307577Y-101104340D01*
X127307575Y-101104343D01*
X127235287Y-101259365D01*
X127217425Y-101297670D01*
X127160793Y-101509023D01*
X127141723Y-101727000D01*
X127160793Y-101944977D01*
X127186066Y-102039297D01*
X127215990Y-102150973D01*
X127217425Y-102156330D01*
X127219747Y-102161310D01*
X127219748Y-102161312D01*
X127288500Y-102308750D01*
X127299161Y-102378941D01*
X127288500Y-102415250D01*
X127217425Y-102567670D01*
X127216003Y-102572978D01*
X127216002Y-102572980D01*
X127198380Y-102638745D01*
X127160793Y-102779023D01*
X127141723Y-102997000D01*
X119336555Y-102997000D01*
X119346207Y-102960977D01*
X119365277Y-102743000D01*
X119346207Y-102525023D01*
X119302525Y-102362000D01*
X119290998Y-102318980D01*
X119290997Y-102318978D01*
X119289575Y-102313670D01*
X119287252Y-102308688D01*
X119199425Y-102120343D01*
X119199423Y-102120340D01*
X119197102Y-102115362D01*
X119153625Y-102053270D01*
X119130937Y-101985996D01*
X119148222Y-101917136D01*
X119153625Y-101908730D01*
X119162176Y-101896518D01*
X119197102Y-101846638D01*
X119203408Y-101833116D01*
X119287252Y-101653312D01*
X119287253Y-101653310D01*
X119289575Y-101648330D01*
X119292344Y-101637998D01*
X119344783Y-101442290D01*
X119346207Y-101436977D01*
X119365277Y-101219000D01*
X119346207Y-101001023D01*
X119308620Y-100860745D01*
X119290998Y-100794980D01*
X119290997Y-100794978D01*
X119289575Y-100789670D01*
X119251513Y-100708045D01*
X119218500Y-100637250D01*
X119207839Y-100567059D01*
X119218500Y-100530750D01*
X119287252Y-100383312D01*
X119287253Y-100383310D01*
X119289575Y-100378330D01*
X119292344Y-100367998D01*
X119335724Y-100206100D01*
X119346207Y-100166977D01*
X119365277Y-99949000D01*
X119346207Y-99731023D01*
X119289575Y-99519670D01*
X119258646Y-99453343D01*
X119199425Y-99326343D01*
X119199423Y-99326340D01*
X119197102Y-99321362D01*
X119071598Y-99142123D01*
X118916877Y-98987402D01*
X118912369Y-98984245D01*
X118912366Y-98984243D01*
X118742148Y-98865055D01*
X118742145Y-98865053D01*
X118737639Y-98861898D01*
X118732657Y-98859575D01*
X118732652Y-98859572D01*
X118544312Y-98771748D01*
X118544311Y-98771747D01*
X118539330Y-98769425D01*
X118534022Y-98768003D01*
X118534020Y-98768002D01*
X118468255Y-98750380D01*
X118327977Y-98712793D01*
X118110000Y-98693723D01*
X117892023Y-98712793D01*
X117751745Y-98750380D01*
X117685980Y-98768002D01*
X117685978Y-98768003D01*
X117680670Y-98769425D01*
X117675690Y-98771747D01*
X117675688Y-98771748D01*
X117487343Y-98859575D01*
X117487340Y-98859577D01*
X117482362Y-98861898D01*
X117303123Y-98987402D01*
X117148402Y-99142123D01*
X117022898Y-99321362D01*
X117020577Y-99326340D01*
X117020575Y-99326343D01*
X116961354Y-99453343D01*
X116930425Y-99519670D01*
X116873793Y-99731023D01*
X116854723Y-99949000D01*
X116873793Y-100166977D01*
X116884276Y-100206100D01*
X116927657Y-100367998D01*
X116930425Y-100378330D01*
X116932747Y-100383310D01*
X116932748Y-100383312D01*
X117001500Y-100530750D01*
X117012161Y-100600941D01*
X117001500Y-100637250D01*
X116968488Y-100708045D01*
X116930425Y-100789670D01*
X116929003Y-100794978D01*
X116929002Y-100794980D01*
X116911380Y-100860745D01*
X116873793Y-101001023D01*
X116854723Y-101219000D01*
X116873793Y-101436977D01*
X116875217Y-101442290D01*
X116927657Y-101637998D01*
X116930425Y-101648330D01*
X116932747Y-101653310D01*
X116932748Y-101653312D01*
X117016593Y-101833116D01*
X117022898Y-101846638D01*
X117057824Y-101896518D01*
X117066375Y-101908730D01*
X117089063Y-101976004D01*
X117071778Y-102044864D01*
X117066375Y-102053270D01*
X117022898Y-102115362D01*
X117020577Y-102120340D01*
X117020575Y-102120343D01*
X116932748Y-102308688D01*
X116930425Y-102313670D01*
X116929003Y-102318978D01*
X116929002Y-102318980D01*
X116917475Y-102362000D01*
X116873793Y-102525023D01*
X116872678Y-102537772D01*
X116871425Y-102552092D01*
X116845562Y-102618211D01*
X116788059Y-102659851D01*
X116717172Y-102663792D01*
X116655407Y-102628784D01*
X116626567Y-102577904D01*
X116625881Y-102578154D01*
X116624396Y-102574075D01*
X116624198Y-102573725D01*
X116624000Y-102572986D01*
X116623998Y-102572980D01*
X116622575Y-102567670D01*
X116591648Y-102501347D01*
X116532425Y-102374343D01*
X116532423Y-102374340D01*
X116530102Y-102369362D01*
X116404598Y-102190123D01*
X116249877Y-102035402D01*
X116245369Y-102032245D01*
X116245366Y-102032243D01*
X116075148Y-101913055D01*
X116075145Y-101913053D01*
X116070639Y-101909898D01*
X116065657Y-101907575D01*
X116065652Y-101907572D01*
X115877312Y-101819748D01*
X115877311Y-101819747D01*
X115872330Y-101817425D01*
X115867022Y-101816003D01*
X115867020Y-101816002D01*
X115801255Y-101798380D01*
X115660977Y-101760793D01*
X115443000Y-101741723D01*
X115225023Y-101760793D01*
X115084745Y-101798380D01*
X115018980Y-101816002D01*
X115018978Y-101816003D01*
X115013670Y-101817425D01*
X115008690Y-101819747D01*
X115008688Y-101819748D01*
X114820343Y-101907575D01*
X114820340Y-101907577D01*
X114815362Y-101909898D01*
X114636123Y-102035402D01*
X114481402Y-102190123D01*
X114355898Y-102369362D01*
X114353577Y-102374340D01*
X114353575Y-102374343D01*
X114294352Y-102501347D01*
X114263425Y-102567670D01*
X114262003Y-102572978D01*
X114262002Y-102572980D01*
X114244380Y-102638745D01*
X114206793Y-102779023D01*
X114187723Y-102997000D01*
X109033628Y-102997000D01*
X109031563Y-102987408D01*
X109029671Y-102982277D01*
X108942401Y-102745724D01*
X108940860Y-102741547D01*
X108816420Y-102510920D01*
X108813774Y-102507337D01*
X108665735Y-102306907D01*
X108641353Y-102240228D01*
X108656890Y-102170953D01*
X108670636Y-102150973D01*
X108748045Y-102058883D01*
X108750910Y-102055475D01*
X108889586Y-101833116D01*
X108921772Y-101760314D01*
X108993749Y-101597503D01*
X108995547Y-101593436D01*
X109066681Y-101341216D01*
X109082361Y-101224475D01*
X109101139Y-101084673D01*
X109101140Y-101084665D01*
X109101566Y-101081491D01*
X109104262Y-100995710D01*
X109105126Y-100968222D01*
X109105126Y-100968217D01*
X109105227Y-100965000D01*
X109092461Y-100784688D01*
X109087034Y-100708045D01*
X109086719Y-100703596D01*
X109031563Y-100447408D01*
X109029671Y-100442277D01*
X108942401Y-100205724D01*
X108940860Y-100201547D01*
X108816420Y-99970920D01*
X108796186Y-99943525D01*
X108665735Y-99766907D01*
X108641353Y-99700228D01*
X108656890Y-99630953D01*
X108670636Y-99610973D01*
X108742920Y-99524980D01*
X108750910Y-99515475D01*
X108889586Y-99293116D01*
X108895497Y-99279747D01*
X108993749Y-99057503D01*
X108995547Y-99053436D01*
X109066681Y-98801216D01*
X109089280Y-98632962D01*
X109101139Y-98544673D01*
X109101140Y-98544665D01*
X109101566Y-98541491D01*
X109105227Y-98425000D01*
X109086719Y-98163596D01*
X109033628Y-97917000D01*
X109869723Y-97917000D01*
X109888793Y-98134977D01*
X109914066Y-98229297D01*
X109942657Y-98335998D01*
X109945425Y-98346330D01*
X109947747Y-98351310D01*
X109947748Y-98351312D01*
X109982110Y-98425000D01*
X110037898Y-98544638D01*
X110163402Y-98723877D01*
X110318123Y-98878598D01*
X110322631Y-98881755D01*
X110322634Y-98881757D01*
X110479076Y-98991299D01*
X110497361Y-99004102D01*
X110502343Y-99006425D01*
X110502348Y-99006428D01*
X110582738Y-99043914D01*
X110695670Y-99096575D01*
X110699871Y-99097701D01*
X110756756Y-99139586D01*
X110782093Y-99205908D01*
X110767551Y-99275399D01*
X110717748Y-99325997D01*
X110709739Y-99330086D01*
X110629343Y-99367575D01*
X110629340Y-99367577D01*
X110624362Y-99369898D01*
X110445123Y-99495402D01*
X110290402Y-99650123D01*
X110164898Y-99829362D01*
X110162577Y-99834340D01*
X110162575Y-99834343D01*
X110100559Y-99967337D01*
X110072425Y-100027670D01*
X110015793Y-100239023D01*
X109996723Y-100457000D01*
X110015793Y-100674977D01*
X110072425Y-100886330D01*
X110074747Y-100891310D01*
X110074748Y-100891312D01*
X110109110Y-100965000D01*
X110164898Y-101084638D01*
X110290402Y-101263877D01*
X110445123Y-101418598D01*
X110449631Y-101421755D01*
X110449634Y-101421757D01*
X110566675Y-101503710D01*
X110624361Y-101544102D01*
X110629343Y-101546425D01*
X110629348Y-101546428D01*
X110817688Y-101634252D01*
X110822670Y-101636575D01*
X110827978Y-101637997D01*
X110827980Y-101637998D01*
X110846723Y-101643020D01*
X111034023Y-101693207D01*
X111252000Y-101712277D01*
X111469977Y-101693207D01*
X111657277Y-101643020D01*
X111676020Y-101637998D01*
X111676022Y-101637997D01*
X111681330Y-101636575D01*
X111686312Y-101634252D01*
X111874652Y-101546428D01*
X111874657Y-101546425D01*
X111879639Y-101544102D01*
X111937325Y-101503710D01*
X112054366Y-101421757D01*
X112054369Y-101421755D01*
X112058877Y-101418598D01*
X112213598Y-101263877D01*
X112339102Y-101084638D01*
X112394891Y-100965000D01*
X112429252Y-100891312D01*
X112429253Y-100891310D01*
X112431575Y-100886330D01*
X112488207Y-100674977D01*
X112507277Y-100457000D01*
X112488207Y-100239023D01*
X112431575Y-100027670D01*
X112403441Y-99967337D01*
X112341425Y-99834343D01*
X112341423Y-99834340D01*
X112339102Y-99829362D01*
X112213598Y-99650123D01*
X112058877Y-99495402D01*
X112054369Y-99492245D01*
X112054366Y-99492243D01*
X111884148Y-99373055D01*
X111884145Y-99373053D01*
X111879639Y-99369898D01*
X111874657Y-99367575D01*
X111874652Y-99367572D01*
X111706260Y-99289050D01*
X111681330Y-99277425D01*
X111677129Y-99276299D01*
X111620244Y-99234414D01*
X111602130Y-99187000D01*
X114187723Y-99187000D01*
X114206793Y-99404977D01*
X114232066Y-99499297D01*
X114261990Y-99610973D01*
X114263425Y-99616330D01*
X114265747Y-99621310D01*
X114265748Y-99621312D01*
X114333641Y-99766907D01*
X114355898Y-99814638D01*
X114481402Y-99993877D01*
X114636123Y-100148598D01*
X114640631Y-100151755D01*
X114640634Y-100151757D01*
X114717707Y-100205724D01*
X114815361Y-100274102D01*
X114820343Y-100276425D01*
X114820348Y-100276428D01*
X114883972Y-100306096D01*
X115013670Y-100366575D01*
X115018978Y-100367997D01*
X115018980Y-100367998D01*
X115057540Y-100378330D01*
X115225023Y-100423207D01*
X115443000Y-100442277D01*
X115660977Y-100423207D01*
X115828460Y-100378330D01*
X115867020Y-100367998D01*
X115867022Y-100367997D01*
X115872330Y-100366575D01*
X116002028Y-100306096D01*
X116065652Y-100276428D01*
X116065657Y-100276425D01*
X116070639Y-100274102D01*
X116168293Y-100205724D01*
X116245366Y-100151757D01*
X116245369Y-100151755D01*
X116249877Y-100148598D01*
X116404598Y-99993877D01*
X116530102Y-99814638D01*
X116552360Y-99766907D01*
X116620252Y-99621312D01*
X116620253Y-99621310D01*
X116622575Y-99616330D01*
X116624011Y-99610973D01*
X116653934Y-99499297D01*
X116679207Y-99404977D01*
X116698277Y-99187000D01*
X116679207Y-98969023D01*
X116625725Y-98769425D01*
X116623998Y-98762980D01*
X116623997Y-98762978D01*
X116622575Y-98757670D01*
X116604713Y-98719365D01*
X116532425Y-98564343D01*
X116532423Y-98564340D01*
X116530102Y-98559362D01*
X116404598Y-98380123D01*
X116249877Y-98225402D01*
X116245369Y-98222245D01*
X116245366Y-98222243D01*
X116075148Y-98103055D01*
X116075145Y-98103053D01*
X116070639Y-98099898D01*
X116065657Y-98097575D01*
X116065652Y-98097572D01*
X115877312Y-98009748D01*
X115877307Y-98009746D01*
X115872330Y-98007425D01*
X115867022Y-98006003D01*
X115867020Y-98006002D01*
X115801255Y-97988380D01*
X115660977Y-97950793D01*
X115443000Y-97931723D01*
X115225023Y-97950793D01*
X115084745Y-97988380D01*
X115018980Y-98006002D01*
X115018978Y-98006003D01*
X115013670Y-98007425D01*
X115008693Y-98009746D01*
X115008688Y-98009748D01*
X114820343Y-98097575D01*
X114820340Y-98097577D01*
X114815362Y-98099898D01*
X114636123Y-98225402D01*
X114481402Y-98380123D01*
X114355898Y-98559362D01*
X114353577Y-98564340D01*
X114353575Y-98564343D01*
X114281287Y-98719365D01*
X114263425Y-98757670D01*
X114262003Y-98762978D01*
X114262002Y-98762980D01*
X114260275Y-98769425D01*
X114206793Y-98969023D01*
X114187723Y-99187000D01*
X111602130Y-99187000D01*
X111594907Y-99168092D01*
X111609449Y-99098601D01*
X111659252Y-99048003D01*
X111667262Y-99043914D01*
X111747648Y-99006430D01*
X111747654Y-99006427D01*
X111752639Y-99004102D01*
X111770924Y-98991299D01*
X111927366Y-98881757D01*
X111927369Y-98881755D01*
X111931877Y-98878598D01*
X112086598Y-98723877D01*
X112212102Y-98544638D01*
X112267891Y-98425000D01*
X112302252Y-98351312D01*
X112302253Y-98351310D01*
X112304575Y-98346330D01*
X112307344Y-98335998D01*
X112335934Y-98229297D01*
X112361207Y-98134977D01*
X112380277Y-97917000D01*
X112361207Y-97699023D01*
X112304575Y-97487670D01*
X112301744Y-97481598D01*
X112214425Y-97294343D01*
X112214423Y-97294340D01*
X112212102Y-97289362D01*
X112118021Y-97155000D01*
X116854723Y-97155000D01*
X116873793Y-97372977D01*
X116930425Y-97584330D01*
X116932747Y-97589310D01*
X116932748Y-97589312D01*
X117005906Y-97746198D01*
X117022898Y-97782638D01*
X117148402Y-97961877D01*
X117303123Y-98116598D01*
X117307631Y-98119755D01*
X117307634Y-98119757D01*
X117464076Y-98229299D01*
X117482361Y-98242102D01*
X117487343Y-98244425D01*
X117487348Y-98244428D01*
X117675688Y-98332252D01*
X117680670Y-98334575D01*
X117685978Y-98335997D01*
X117685980Y-98335998D01*
X117704723Y-98341020D01*
X117892023Y-98391207D01*
X118110000Y-98410277D01*
X118327977Y-98391207D01*
X118515277Y-98341020D01*
X118534020Y-98335998D01*
X118534022Y-98335997D01*
X118539330Y-98334575D01*
X118544312Y-98332252D01*
X118732652Y-98244428D01*
X118732657Y-98244425D01*
X118737639Y-98242102D01*
X118755924Y-98229299D01*
X118912366Y-98119757D01*
X118912369Y-98119755D01*
X118916877Y-98116598D01*
X119071598Y-97961877D01*
X119103021Y-97917000D01*
X122950723Y-97917000D01*
X122969793Y-98134977D01*
X122995066Y-98229297D01*
X123023657Y-98335998D01*
X123026425Y-98346330D01*
X123028747Y-98351310D01*
X123028748Y-98351312D01*
X123063110Y-98425000D01*
X123118898Y-98544638D01*
X123244402Y-98723877D01*
X123399123Y-98878598D01*
X123403631Y-98881755D01*
X123403634Y-98881757D01*
X123560076Y-98991299D01*
X123578361Y-99004102D01*
X123583343Y-99006425D01*
X123583348Y-99006428D01*
X123771688Y-99094252D01*
X123776670Y-99096575D01*
X123781978Y-99097997D01*
X123781980Y-99097998D01*
X123843201Y-99114402D01*
X123988023Y-99153207D01*
X124206000Y-99172277D01*
X124423977Y-99153207D01*
X124568799Y-99114402D01*
X124630020Y-99097998D01*
X124630022Y-99097997D01*
X124635330Y-99096575D01*
X124640312Y-99094252D01*
X124828652Y-99006428D01*
X124828657Y-99006425D01*
X124833639Y-99004102D01*
X124851924Y-98991299D01*
X125008366Y-98881757D01*
X125008369Y-98881755D01*
X125012877Y-98878598D01*
X125167598Y-98723877D01*
X125293102Y-98544638D01*
X125348891Y-98425000D01*
X125383252Y-98351312D01*
X125383253Y-98351310D01*
X125385575Y-98346330D01*
X125388344Y-98335998D01*
X125416934Y-98229297D01*
X125442207Y-98134977D01*
X125461277Y-97917000D01*
X125442207Y-97699023D01*
X125385575Y-97487670D01*
X125382744Y-97481598D01*
X125295425Y-97294343D01*
X125295423Y-97294340D01*
X125293102Y-97289362D01*
X125167598Y-97110123D01*
X125012877Y-96955402D01*
X125008369Y-96952245D01*
X125008366Y-96952243D01*
X124838148Y-96833055D01*
X124838145Y-96833053D01*
X124833639Y-96829898D01*
X124828657Y-96827575D01*
X124828652Y-96827572D01*
X124640312Y-96739748D01*
X124640311Y-96739747D01*
X124635330Y-96737425D01*
X124630022Y-96736003D01*
X124630020Y-96736002D01*
X124564255Y-96718380D01*
X124423977Y-96680793D01*
X124206000Y-96661723D01*
X123988023Y-96680793D01*
X123847745Y-96718380D01*
X123781980Y-96736002D01*
X123781978Y-96736003D01*
X123776670Y-96737425D01*
X123771690Y-96739747D01*
X123771688Y-96739748D01*
X123583343Y-96827575D01*
X123583340Y-96827577D01*
X123578362Y-96829898D01*
X123399123Y-96955402D01*
X123244402Y-97110123D01*
X123118898Y-97289362D01*
X123116577Y-97294340D01*
X123116575Y-97294343D01*
X123029256Y-97481598D01*
X123026425Y-97487670D01*
X122969793Y-97699023D01*
X122950723Y-97917000D01*
X119103021Y-97917000D01*
X119197102Y-97782638D01*
X119214095Y-97746198D01*
X119287252Y-97589312D01*
X119287253Y-97589310D01*
X119289575Y-97584330D01*
X119346207Y-97372977D01*
X119365277Y-97155000D01*
X119346207Y-96937023D01*
X119308620Y-96796745D01*
X119290998Y-96730980D01*
X119290997Y-96730978D01*
X119289575Y-96725670D01*
X119197102Y-96527362D01*
X119193947Y-96522857D01*
X119192009Y-96519499D01*
X119175272Y-96450503D01*
X119192009Y-96393501D01*
X119193947Y-96390143D01*
X119197102Y-96385638D01*
X119289575Y-96187330D01*
X119346207Y-95975977D01*
X119365277Y-95758000D01*
X119346207Y-95540023D01*
X119292725Y-95340425D01*
X119290998Y-95333980D01*
X119290997Y-95333978D01*
X119289575Y-95328670D01*
X119279736Y-95307570D01*
X119199425Y-95135343D01*
X119199423Y-95135340D01*
X119197102Y-95130362D01*
X119071598Y-94951123D01*
X118916877Y-94796402D01*
X118912369Y-94793245D01*
X118912366Y-94793243D01*
X118742148Y-94674055D01*
X118742145Y-94674053D01*
X118737639Y-94670898D01*
X118732657Y-94668575D01*
X118732652Y-94668572D01*
X118544312Y-94580748D01*
X118544311Y-94580747D01*
X118539330Y-94578425D01*
X118534022Y-94577003D01*
X118534020Y-94577002D01*
X118468255Y-94559380D01*
X118327977Y-94521793D01*
X118110000Y-94502723D01*
X117892023Y-94521793D01*
X117751745Y-94559380D01*
X117685980Y-94577002D01*
X117685978Y-94577003D01*
X117680670Y-94578425D01*
X117675690Y-94580747D01*
X117675688Y-94580748D01*
X117487343Y-94668575D01*
X117487340Y-94668577D01*
X117482362Y-94670898D01*
X117303123Y-94796402D01*
X117148402Y-94951123D01*
X117022898Y-95130362D01*
X117020577Y-95135340D01*
X117020575Y-95135343D01*
X116940264Y-95307570D01*
X116930425Y-95328670D01*
X116929003Y-95333978D01*
X116929002Y-95333980D01*
X116927275Y-95340425D01*
X116873793Y-95540023D01*
X116854723Y-95758000D01*
X116873793Y-95975977D01*
X116930425Y-96187330D01*
X117022898Y-96385638D01*
X117026053Y-96390143D01*
X117027991Y-96393501D01*
X117044728Y-96462497D01*
X117027991Y-96519499D01*
X117026053Y-96522857D01*
X117022898Y-96527362D01*
X116930425Y-96725670D01*
X116929003Y-96730978D01*
X116929002Y-96730980D01*
X116911380Y-96796745D01*
X116873793Y-96937023D01*
X116854723Y-97155000D01*
X112118021Y-97155000D01*
X112086598Y-97110123D01*
X111931877Y-96955402D01*
X111927369Y-96952245D01*
X111927366Y-96952243D01*
X111757148Y-96833055D01*
X111757145Y-96833053D01*
X111752639Y-96829898D01*
X111747657Y-96827575D01*
X111747652Y-96827572D01*
X111559312Y-96739748D01*
X111559311Y-96739747D01*
X111554330Y-96737425D01*
X111549022Y-96736003D01*
X111549020Y-96736002D01*
X111483255Y-96718380D01*
X111342977Y-96680793D01*
X111125000Y-96661723D01*
X110907023Y-96680793D01*
X110766745Y-96718380D01*
X110700980Y-96736002D01*
X110700978Y-96736003D01*
X110695670Y-96737425D01*
X110690690Y-96739747D01*
X110690688Y-96739748D01*
X110502343Y-96827575D01*
X110502340Y-96827577D01*
X110497362Y-96829898D01*
X110318123Y-96955402D01*
X110163402Y-97110123D01*
X110037898Y-97289362D01*
X110035577Y-97294340D01*
X110035575Y-97294343D01*
X109948256Y-97481598D01*
X109945425Y-97487670D01*
X109888793Y-97699023D01*
X109869723Y-97917000D01*
X109033628Y-97917000D01*
X109031563Y-97907408D01*
X109029671Y-97902277D01*
X108942401Y-97665724D01*
X108940860Y-97661547D01*
X108816420Y-97430920D01*
X108813774Y-97427337D01*
X108665735Y-97226907D01*
X108641353Y-97160228D01*
X108656890Y-97090953D01*
X108670636Y-97070973D01*
X108748045Y-96978883D01*
X108750910Y-96975475D01*
X108889586Y-96753116D01*
X108898702Y-96732498D01*
X108993749Y-96517503D01*
X108995547Y-96513436D01*
X109066681Y-96261216D01*
X109089588Y-96090670D01*
X109101139Y-96004673D01*
X109101140Y-96004665D01*
X109101566Y-96001491D01*
X109105227Y-95885000D01*
X109086719Y-95623596D01*
X109031563Y-95367408D01*
X109022466Y-95342748D01*
X108942401Y-95125724D01*
X108940860Y-95121547D01*
X108859254Y-94970304D01*
X108844510Y-94900855D01*
X108872498Y-94830838D01*
X108939573Y-94748596D01*
X109033741Y-94568470D01*
X109089766Y-94373087D01*
X109100500Y-94252816D01*
X109100500Y-92646500D01*
X113235223Y-92646500D01*
X113254293Y-92864477D01*
X113310925Y-93075830D01*
X113313247Y-93080810D01*
X113313248Y-93080812D01*
X113338926Y-93135877D01*
X113403398Y-93274138D01*
X113528902Y-93453377D01*
X113683623Y-93608098D01*
X113688131Y-93611255D01*
X113688134Y-93611257D01*
X113858352Y-93730445D01*
X113862861Y-93733602D01*
X113867843Y-93735925D01*
X113867848Y-93735928D01*
X114056188Y-93823752D01*
X114061170Y-93826075D01*
X114066478Y-93827497D01*
X114066480Y-93827498D01*
X114132245Y-93845120D01*
X114272523Y-93882707D01*
X114490500Y-93901777D01*
X114708477Y-93882707D01*
X114848755Y-93845120D01*
X114914520Y-93827498D01*
X114914522Y-93827497D01*
X114919830Y-93826075D01*
X114924812Y-93823752D01*
X115113152Y-93735928D01*
X115113157Y-93735925D01*
X115118139Y-93733602D01*
X115122648Y-93730445D01*
X115292866Y-93611257D01*
X115292869Y-93611255D01*
X115297377Y-93608098D01*
X115452098Y-93453377D01*
X115577602Y-93274138D01*
X115642075Y-93135877D01*
X115667752Y-93080812D01*
X115667753Y-93080810D01*
X115670075Y-93075830D01*
X115726707Y-92864477D01*
X115745777Y-92646500D01*
X115726707Y-92428523D01*
X115700040Y-92329000D01*
X121045723Y-92329000D01*
X121064793Y-92546977D01*
X121121425Y-92758330D01*
X121123747Y-92763310D01*
X121123748Y-92763312D01*
X121154677Y-92829638D01*
X121213898Y-92956638D01*
X121339402Y-93135877D01*
X121494123Y-93290598D01*
X121498631Y-93293755D01*
X121498634Y-93293757D01*
X121668852Y-93412945D01*
X121673361Y-93416102D01*
X121678343Y-93418425D01*
X121678348Y-93418428D01*
X121866688Y-93506252D01*
X121871670Y-93508575D01*
X121876978Y-93509997D01*
X121876980Y-93509998D01*
X121942745Y-93527620D01*
X122083023Y-93565207D01*
X122301000Y-93584277D01*
X122518977Y-93565207D01*
X122659255Y-93527620D01*
X122725020Y-93509998D01*
X122725022Y-93509997D01*
X122730330Y-93508575D01*
X122735312Y-93506252D01*
X122923652Y-93418428D01*
X122923657Y-93418425D01*
X122928639Y-93416102D01*
X122933148Y-93412945D01*
X123103366Y-93293757D01*
X123103369Y-93293755D01*
X123107877Y-93290598D01*
X123262598Y-93135877D01*
X123388102Y-92956638D01*
X123447324Y-92829638D01*
X123478252Y-92763312D01*
X123478253Y-92763310D01*
X123480575Y-92758330D01*
X123537207Y-92546977D01*
X123556277Y-92329000D01*
X128919723Y-92329000D01*
X128938793Y-92546977D01*
X128995425Y-92758330D01*
X128997747Y-92763310D01*
X128997748Y-92763312D01*
X129028677Y-92829638D01*
X129087898Y-92956638D01*
X129213402Y-93135877D01*
X129368123Y-93290598D01*
X129372631Y-93293755D01*
X129372634Y-93293757D01*
X129542852Y-93412945D01*
X129547361Y-93416102D01*
X129552343Y-93418425D01*
X129552348Y-93418428D01*
X129740688Y-93506252D01*
X129745670Y-93508575D01*
X129750978Y-93509997D01*
X129750980Y-93509998D01*
X129816745Y-93527620D01*
X129957023Y-93565207D01*
X130175000Y-93584277D01*
X130392977Y-93565207D01*
X130533255Y-93527620D01*
X130599020Y-93509998D01*
X130599022Y-93509997D01*
X130604330Y-93508575D01*
X130609312Y-93506252D01*
X130797652Y-93418428D01*
X130797657Y-93418425D01*
X130802639Y-93416102D01*
X130807148Y-93412945D01*
X130977366Y-93293757D01*
X130977369Y-93293755D01*
X130981877Y-93290598D01*
X131136598Y-93135877D01*
X131262102Y-92956638D01*
X131321324Y-92829638D01*
X131352252Y-92763312D01*
X131352253Y-92763310D01*
X131354575Y-92758330D01*
X131411207Y-92546977D01*
X131430277Y-92329000D01*
X135269723Y-92329000D01*
X135288793Y-92546977D01*
X135345425Y-92758330D01*
X135347747Y-92763310D01*
X135347748Y-92763312D01*
X135378677Y-92829638D01*
X135437898Y-92956638D01*
X135563402Y-93135877D01*
X135718123Y-93290598D01*
X135722631Y-93293755D01*
X135722634Y-93293757D01*
X135892852Y-93412945D01*
X135897361Y-93416102D01*
X135902343Y-93418425D01*
X135902348Y-93418428D01*
X136090688Y-93506252D01*
X136095670Y-93508575D01*
X136100978Y-93509997D01*
X136100980Y-93509998D01*
X136166745Y-93527620D01*
X136307023Y-93565207D01*
X136525000Y-93584277D01*
X136742977Y-93565207D01*
X136883255Y-93527620D01*
X136949020Y-93509998D01*
X136949022Y-93509997D01*
X136954330Y-93508575D01*
X136959312Y-93506252D01*
X137147652Y-93418428D01*
X137147657Y-93418425D01*
X137152639Y-93416102D01*
X137157148Y-93412945D01*
X137327366Y-93293757D01*
X137327369Y-93293755D01*
X137331877Y-93290598D01*
X137486598Y-93135877D01*
X137612102Y-92956638D01*
X137671324Y-92829638D01*
X137702252Y-92763312D01*
X137702253Y-92763310D01*
X137704575Y-92758330D01*
X137761207Y-92546977D01*
X137780277Y-92329000D01*
X137769166Y-92202000D01*
X144413723Y-92202000D01*
X144432793Y-92419977D01*
X144489425Y-92631330D01*
X144491747Y-92636310D01*
X144491748Y-92636312D01*
X144550970Y-92763312D01*
X144581898Y-92829638D01*
X144707402Y-93008877D01*
X144862123Y-93163598D01*
X144866631Y-93166755D01*
X144866634Y-93166757D01*
X145036852Y-93285945D01*
X145041361Y-93289102D01*
X145046343Y-93291425D01*
X145046348Y-93291428D01*
X145234688Y-93379252D01*
X145239670Y-93381575D01*
X145244978Y-93382997D01*
X145244980Y-93382998D01*
X145310745Y-93400620D01*
X145451023Y-93438207D01*
X145669000Y-93457277D01*
X145886977Y-93438207D01*
X146027255Y-93400620D01*
X146093020Y-93382998D01*
X146093022Y-93382997D01*
X146098330Y-93381575D01*
X146103312Y-93379252D01*
X146291652Y-93291428D01*
X146291657Y-93291425D01*
X146296639Y-93289102D01*
X146301148Y-93285945D01*
X146471366Y-93166757D01*
X146471369Y-93166755D01*
X146475877Y-93163598D01*
X146630598Y-93008877D01*
X146756102Y-92829638D01*
X146787031Y-92763312D01*
X146846252Y-92636312D01*
X146846253Y-92636310D01*
X146848575Y-92631330D01*
X146905207Y-92419977D01*
X146924277Y-92202000D01*
X146905207Y-91984023D01*
X146848575Y-91772670D01*
X146838156Y-91750326D01*
X146758425Y-91579343D01*
X146758423Y-91579340D01*
X146756102Y-91574362D01*
X146630598Y-91395123D01*
X146475877Y-91240402D01*
X146471369Y-91237245D01*
X146471366Y-91237243D01*
X146301148Y-91118055D01*
X146301145Y-91118053D01*
X146296639Y-91114898D01*
X146291657Y-91112575D01*
X146291652Y-91112572D01*
X146103312Y-91024748D01*
X146103311Y-91024747D01*
X146098330Y-91022425D01*
X146093022Y-91021003D01*
X146093020Y-91021002D01*
X146027255Y-91003380D01*
X145886977Y-90965793D01*
X145669000Y-90946723D01*
X145451023Y-90965793D01*
X145310745Y-91003380D01*
X145244980Y-91021002D01*
X145244978Y-91021003D01*
X145239670Y-91022425D01*
X145234690Y-91024747D01*
X145234688Y-91024748D01*
X145046343Y-91112575D01*
X145046340Y-91112577D01*
X145041362Y-91114898D01*
X144862123Y-91240402D01*
X144707402Y-91395123D01*
X144581898Y-91574362D01*
X144579577Y-91579340D01*
X144579575Y-91579343D01*
X144499844Y-91750326D01*
X144489425Y-91772670D01*
X144432793Y-91984023D01*
X144413723Y-92202000D01*
X137769166Y-92202000D01*
X137761207Y-92111023D01*
X137708823Y-91915523D01*
X137705998Y-91904980D01*
X137705997Y-91904978D01*
X137704575Y-91899670D01*
X137702252Y-91894688D01*
X137614425Y-91706343D01*
X137614423Y-91706340D01*
X137612102Y-91701362D01*
X137486598Y-91522123D01*
X137331877Y-91367402D01*
X137327369Y-91364245D01*
X137327366Y-91364243D01*
X137157148Y-91245055D01*
X137157145Y-91245053D01*
X137152639Y-91241898D01*
X137147657Y-91239575D01*
X137147652Y-91239572D01*
X136959312Y-91151748D01*
X136959311Y-91151747D01*
X136954330Y-91149425D01*
X136949022Y-91148003D01*
X136949020Y-91148002D01*
X136883255Y-91130380D01*
X136742977Y-91092793D01*
X136525000Y-91073723D01*
X136307023Y-91092793D01*
X136166745Y-91130380D01*
X136100980Y-91148002D01*
X136100978Y-91148003D01*
X136095670Y-91149425D01*
X136090690Y-91151747D01*
X136090688Y-91151748D01*
X135902343Y-91239575D01*
X135902340Y-91239577D01*
X135897362Y-91241898D01*
X135718123Y-91367402D01*
X135563402Y-91522123D01*
X135437898Y-91701362D01*
X135435577Y-91706340D01*
X135435575Y-91706343D01*
X135347748Y-91894688D01*
X135345425Y-91899670D01*
X135344003Y-91904978D01*
X135344002Y-91904980D01*
X135341177Y-91915523D01*
X135288793Y-92111023D01*
X135269723Y-92329000D01*
X131430277Y-92329000D01*
X131411207Y-92111023D01*
X131358823Y-91915523D01*
X131355998Y-91904980D01*
X131355997Y-91904978D01*
X131354575Y-91899670D01*
X131352252Y-91894688D01*
X131264425Y-91706343D01*
X131264423Y-91706340D01*
X131262102Y-91701362D01*
X131136598Y-91522123D01*
X130981877Y-91367402D01*
X130977369Y-91364245D01*
X130977366Y-91364243D01*
X130807148Y-91245055D01*
X130807145Y-91245053D01*
X130802639Y-91241898D01*
X130797657Y-91239575D01*
X130797652Y-91239572D01*
X130609312Y-91151748D01*
X130609311Y-91151747D01*
X130604330Y-91149425D01*
X130599022Y-91148003D01*
X130599020Y-91148002D01*
X130533255Y-91130380D01*
X130392977Y-91092793D01*
X130175000Y-91073723D01*
X129957023Y-91092793D01*
X129816745Y-91130380D01*
X129750980Y-91148002D01*
X129750978Y-91148003D01*
X129745670Y-91149425D01*
X129740690Y-91151747D01*
X129740688Y-91151748D01*
X129552343Y-91239575D01*
X129552340Y-91239577D01*
X129547362Y-91241898D01*
X129368123Y-91367402D01*
X129213402Y-91522123D01*
X129087898Y-91701362D01*
X129085577Y-91706340D01*
X129085575Y-91706343D01*
X128997748Y-91894688D01*
X128995425Y-91899670D01*
X128994003Y-91904978D01*
X128994002Y-91904980D01*
X128991177Y-91915523D01*
X128938793Y-92111023D01*
X128919723Y-92329000D01*
X123556277Y-92329000D01*
X123537207Y-92111023D01*
X123484823Y-91915523D01*
X123481998Y-91904980D01*
X123481997Y-91904978D01*
X123480575Y-91899670D01*
X123478252Y-91894688D01*
X123390425Y-91706343D01*
X123390423Y-91706340D01*
X123388102Y-91701362D01*
X123262598Y-91522123D01*
X123107877Y-91367402D01*
X123103369Y-91364245D01*
X123103366Y-91364243D01*
X122933148Y-91245055D01*
X122933145Y-91245053D01*
X122928639Y-91241898D01*
X122923657Y-91239575D01*
X122923652Y-91239572D01*
X122735312Y-91151748D01*
X122735311Y-91151747D01*
X122730330Y-91149425D01*
X122725022Y-91148003D01*
X122725020Y-91148002D01*
X122659255Y-91130380D01*
X122518977Y-91092793D01*
X122301000Y-91073723D01*
X122083023Y-91092793D01*
X121942745Y-91130380D01*
X121876980Y-91148002D01*
X121876978Y-91148003D01*
X121871670Y-91149425D01*
X121866690Y-91151747D01*
X121866688Y-91151748D01*
X121678343Y-91239575D01*
X121678340Y-91239577D01*
X121673362Y-91241898D01*
X121494123Y-91367402D01*
X121339402Y-91522123D01*
X121213898Y-91701362D01*
X121211577Y-91706340D01*
X121211575Y-91706343D01*
X121123748Y-91894688D01*
X121121425Y-91899670D01*
X121120003Y-91904978D01*
X121120002Y-91904980D01*
X121117177Y-91915523D01*
X121064793Y-92111023D01*
X121045723Y-92329000D01*
X115700040Y-92329000D01*
X115670075Y-92217170D01*
X115660448Y-92196525D01*
X115579925Y-92023843D01*
X115579923Y-92023840D01*
X115577602Y-92018862D01*
X115452098Y-91839623D01*
X115297377Y-91684902D01*
X115292869Y-91681745D01*
X115292866Y-91681743D01*
X115122648Y-91562555D01*
X115122645Y-91562553D01*
X115118139Y-91559398D01*
X115113157Y-91557075D01*
X115113152Y-91557072D01*
X114924812Y-91469248D01*
X114924811Y-91469247D01*
X114919830Y-91466925D01*
X114914522Y-91465503D01*
X114914520Y-91465502D01*
X114848755Y-91447880D01*
X114708477Y-91410293D01*
X114490500Y-91391223D01*
X114272523Y-91410293D01*
X114132245Y-91447880D01*
X114066480Y-91465502D01*
X114066478Y-91465503D01*
X114061170Y-91466925D01*
X114056190Y-91469247D01*
X114056188Y-91469248D01*
X113867843Y-91557075D01*
X113867840Y-91557077D01*
X113862862Y-91559398D01*
X113683623Y-91684902D01*
X113528902Y-91839623D01*
X113403398Y-92018862D01*
X113401077Y-92023840D01*
X113401075Y-92023843D01*
X113320552Y-92196525D01*
X113310925Y-92217170D01*
X113254293Y-92428523D01*
X113235223Y-92646500D01*
X109100500Y-92646500D01*
X109100500Y-92437184D01*
X109099439Y-92425290D01*
X109090299Y-92322886D01*
X109089766Y-92316913D01*
X109033741Y-92121530D01*
X108939573Y-91941404D01*
X108916355Y-91912935D01*
X108815138Y-91788831D01*
X108811109Y-91783891D01*
X108742889Y-91728252D01*
X108658540Y-91659459D01*
X108658539Y-91659458D01*
X108653596Y-91655427D01*
X108620457Y-91638102D01*
X108613662Y-91634550D01*
X108473470Y-91561259D01*
X108278087Y-91505234D01*
X108246455Y-91502411D01*
X108160609Y-91494749D01*
X108160603Y-91494749D01*
X108157816Y-91494500D01*
X106342184Y-91494500D01*
X106339397Y-91494749D01*
X106339391Y-91494749D01*
X106253545Y-91502411D01*
X106221913Y-91505234D01*
X106026530Y-91561259D01*
X105846404Y-91655427D01*
X105763829Y-91722773D01*
X105698400Y-91750326D01*
X105622632Y-91735064D01*
X105499917Y-91666340D01*
X105495772Y-91664736D01*
X105495769Y-91664735D01*
X105275043Y-91579343D01*
X105255512Y-91571787D01*
X105251191Y-91570785D01*
X105251183Y-91570783D01*
X105060712Y-91526635D01*
X105000221Y-91512614D01*
X104739141Y-91490002D01*
X104734706Y-91490246D01*
X104734702Y-91490246D01*
X104481921Y-91504157D01*
X104481914Y-91504158D01*
X104477478Y-91504402D01*
X104220456Y-91555527D01*
X104216246Y-91557005D01*
X104216244Y-91557006D01*
X104166822Y-91574362D01*
X103973201Y-91642357D01*
X103969250Y-91644410D01*
X103969244Y-91644412D01*
X103891298Y-91684902D01*
X103740647Y-91763159D01*
X103737032Y-91765742D01*
X103737026Y-91765746D01*
X103531055Y-91912935D01*
X103531051Y-91912938D01*
X103527434Y-91915523D01*
X103337816Y-92096409D01*
X103335060Y-92099905D01*
X103313174Y-92127668D01*
X103175578Y-92302208D01*
X103173346Y-92306050D01*
X103173343Y-92306055D01*
X103107172Y-92419977D01*
X103043955Y-92528813D01*
X103042290Y-92532925D01*
X103042287Y-92532930D01*
X102994069Y-92651975D01*
X102945574Y-92771703D01*
X102882399Y-93026032D01*
X102855688Y-93286726D01*
X102855863Y-93291177D01*
X102862371Y-93456798D01*
X102865977Y-93548582D01*
X102913058Y-93806376D01*
X102995994Y-94054965D01*
X102997987Y-94058953D01*
X103094855Y-94252816D01*
X103113128Y-94289387D01*
X103262124Y-94504967D01*
X103285855Y-94530638D01*
X103317406Y-94594237D01*
X103309565Y-94664800D01*
X103292279Y-94694171D01*
X103178338Y-94838705D01*
X103178328Y-94838719D01*
X103175578Y-94842208D01*
X103173346Y-94846050D01*
X103173343Y-94846055D01*
X103141513Y-94900855D01*
X103043955Y-95068813D01*
X103042290Y-95072925D01*
X103042287Y-95072930D01*
X103019025Y-95130362D01*
X102945574Y-95311703D01*
X102882399Y-95566032D01*
X102855688Y-95826726D01*
X102865977Y-96088582D01*
X102913058Y-96346376D01*
X102914467Y-96350599D01*
X102970817Y-96519499D01*
X102995994Y-96594965D01*
X103038880Y-96680793D01*
X103103129Y-96809375D01*
X103113128Y-96829387D01*
X103115657Y-96833046D01*
X103187520Y-96937023D01*
X103262124Y-97044967D01*
X103285855Y-97070638D01*
X103317406Y-97134237D01*
X103309565Y-97204800D01*
X103292279Y-97234171D01*
X103178338Y-97378705D01*
X103178328Y-97378719D01*
X103175578Y-97382208D01*
X103173346Y-97386050D01*
X103173343Y-97386055D01*
X103111236Y-97492980D01*
X103043955Y-97608813D01*
X103042290Y-97612925D01*
X103042287Y-97612930D01*
X102947248Y-97847570D01*
X102945574Y-97851703D01*
X102882399Y-98106032D01*
X102855688Y-98366726D01*
X102856392Y-98384635D01*
X102863634Y-98568941D01*
X102865977Y-98628582D01*
X102881617Y-98714217D01*
X102911638Y-98878598D01*
X102913058Y-98886376D01*
X102995994Y-99134965D01*
X103024730Y-99192475D01*
X103075018Y-99293116D01*
X103113128Y-99369387D01*
X103115657Y-99373046D01*
X103220665Y-99524980D01*
X103262124Y-99584967D01*
X103285855Y-99610638D01*
X103317406Y-99674237D01*
X103309565Y-99744800D01*
X103292279Y-99774171D01*
X103178338Y-99918705D01*
X103178328Y-99918719D01*
X103175578Y-99922208D01*
X103173346Y-99926050D01*
X103173343Y-99926055D01*
X103111236Y-100032980D01*
X103043955Y-100148813D01*
X103042290Y-100152925D01*
X103042287Y-100152930D01*
X102953141Y-100373020D01*
X102945574Y-100391703D01*
X102882399Y-100646032D01*
X102855688Y-100906726D01*
X102856392Y-100924635D01*
X102863634Y-101108941D01*
X102865977Y-101168582D01*
X102866777Y-101172962D01*
X102911638Y-101418598D01*
X102913058Y-101426376D01*
X102995994Y-101674965D01*
X103038880Y-101760793D01*
X103075018Y-101833116D01*
X103113128Y-101909387D01*
X103115657Y-101913046D01*
X103255486Y-102115362D01*
X103262124Y-102124967D01*
X103285855Y-102150638D01*
X103317406Y-102214237D01*
X103309565Y-102284800D01*
X103292279Y-102314171D01*
X103178338Y-102458705D01*
X103178328Y-102458719D01*
X103175578Y-102462208D01*
X103173346Y-102466050D01*
X103173343Y-102466055D01*
X103058488Y-102663792D01*
X103043955Y-102688813D01*
X103042290Y-102692925D01*
X103042287Y-102692930D01*
X102953756Y-102911502D01*
X102945574Y-102931703D01*
X102882399Y-103186032D01*
X102855688Y-103446726D01*
X101330500Y-103446726D01*
X101330500Y-86724500D01*
X101350502Y-86656379D01*
X101404158Y-86609886D01*
X101456500Y-86598500D01*
X116799129Y-86598500D01*
X116867250Y-86618502D01*
G37*
%TD.AperFunction*%
%TD*%
M02*
