%TF.GenerationSoftware,KiCad,Pcbnew,(6.0.9)*%
%TF.CreationDate,2023-03-11T18:38:12+09:00*%
%TF.ProjectId,Pmod_Matrix2,506d6f64-5f4d-4617-9472-6978322e6b69,rev?*%
%TF.SameCoordinates,Original*%
%TF.FileFunction,Copper,L2,Inr*%
%TF.FilePolarity,Positive*%
%FSLAX46Y46*%
G04 Gerber Fmt 4.6, Leading zero omitted, Abs format (unit mm)*
G04 Created by KiCad (PCBNEW (6.0.9)) date 2023-03-11 18:38:12*
%MOMM*%
%LPD*%
G01*
G04 APERTURE LIST*
%TA.AperFunction,ComponentPad*%
%ADD10C,1.700000*%
%TD*%
%TA.AperFunction,ComponentPad*%
%ADD11O,1.700000X1.700000*%
%TD*%
%TA.AperFunction,ComponentPad*%
%ADD12R,1.700000X1.700000*%
%TD*%
%TA.AperFunction,ViaPad*%
%ADD13C,0.500000*%
%TD*%
%TA.AperFunction,ViaPad*%
%ADD14C,0.800000*%
%TD*%
%TA.AperFunction,Conductor*%
%ADD15C,0.250000*%
%TD*%
G04 APERTURE END LIST*
D10*
%TO.N,Net-(R9-Pad1)*%
%TO.C,U4*%
X118483500Y-87760000D03*
D11*
%TO.N,Net-(R10-Pad1)*%
X121023500Y-87760000D03*
%TO.N,/ROW1*%
X123563500Y-87760000D03*
%TO.N,Net-(R11-Pad1)*%
X126103500Y-87760000D03*
%TO.N,Net-(R12-Pad1)*%
X128643500Y-87760000D03*
%TO.N,/ROW2*%
X131183500Y-87760000D03*
%TO.N,Net-(R13-Pad1)*%
X133723500Y-87760000D03*
%TO.N,Net-(R14-Pad1)*%
X136263500Y-87760000D03*
%TO.N,/ROW3*%
X138803500Y-87760000D03*
%TO.N,Net-(R15-Pad1)*%
X141343500Y-87760000D03*
%TO.N,Net-(R16-Pad1)*%
X143883500Y-87760000D03*
%TO.N,/ROW4*%
X146203500Y-87760000D03*
%TO.N,/ROW8*%
X146203500Y-111820000D03*
%TO.N,Net-(R8-Pad2)*%
X143663500Y-111820000D03*
%TO.N,Net-(R7-Pad2)*%
X141123500Y-111820000D03*
%TO.N,/ROW7*%
X138583500Y-111820000D03*
%TO.N,Net-(R6-Pad2)*%
X136043500Y-111820000D03*
%TO.N,Net-(R5-Pad2)*%
X133503500Y-111820000D03*
%TO.N,/ROW6*%
X130963500Y-111820000D03*
%TO.N,Net-(R4-Pad2)*%
X128423500Y-111820000D03*
%TO.N,Net-(R3-Pad2)*%
X125883500Y-111820000D03*
%TO.N,/ROW5*%
X123343500Y-111820000D03*
%TO.N,Net-(R2-Pad2)*%
X120803500Y-111820000D03*
D12*
%TO.N,Net-(R1-Pad2)*%
X118263500Y-111820000D03*
%TD*%
D10*
%TO.N,VCC*%
%TO.C,J1*%
X107250000Y-106045000D03*
D11*
X104710000Y-106045000D03*
%TO.N,GND*%
X107250000Y-103505000D03*
X104710000Y-103505000D03*
%TO.N,/RCLK*%
X107250000Y-100965000D03*
%TO.N,/CLK*%
X104710000Y-100965000D03*
%TO.N,Net-(J1-Pad5)*%
X107250000Y-98425000D03*
%TO.N,Net-(J1-Pad6)*%
X104710000Y-98425000D03*
%TO.N,/SER_Red*%
X107250000Y-95885000D03*
%TO.N,Net-(J1-Pad4)*%
X104710000Y-95885000D03*
D12*
%TO.N,/SER_Row*%
X107250000Y-93345000D03*
D11*
%TO.N,/SER_Green*%
X104710000Y-93345000D03*
%TD*%
D13*
%TO.N,Net-(R14-Pad2)*%
X144272000Y-102997000D03*
%TO.N,Net-(R16-Pad2)*%
X144272000Y-101727000D03*
%TO.N,Net-(R8-Pad1)*%
X144272000Y-96647000D03*
%TO.N,Net-(R12-Pad2)*%
X144272000Y-104267000D03*
%TO.N,Net-(R15-Pad2)*%
X135001000Y-101727000D03*
%TO.N,/CLK*%
X141351000Y-97917000D03*
%TO.N,Net-(R10-Pad2)*%
X141351000Y-103124000D03*
%TO.N,Net-(R7-Pad1)*%
X135128000Y-96647000D03*
%TO.N,Net-(R6-Pad1)*%
X144272000Y-97917000D03*
%TO.N,Net-(R4-Pad1)*%
X144272000Y-99187000D03*
%TO.N,Net-(R2-Pad1)*%
X144272000Y-100457000D03*
%TO.N,Net-(R5-Pad1)*%
X130238500Y-106997500D03*
%TO.N,Net-(J1-Pad6)*%
X137414000Y-96647000D03*
%TO.N,Net-(J1-Pad4)*%
X128397000Y-96520000D03*
%TO.N,Net-(R9-Pad2)*%
X114490500Y-92646500D03*
%TO.N,/SER_Red*%
X141351000Y-101727000D03*
%TO.N,/CLK*%
X124206000Y-97917000D03*
%TO.N,Net-(R5-Pad1)*%
X131064000Y-96647000D03*
%TO.N,Net-(R1-Pad1)*%
X131318000Y-101727000D03*
X118745000Y-106934000D03*
%TO.N,Net-(R3-Pad1)*%
X131318000Y-100076000D03*
%TO.N,Net-(R11-Pad2)*%
X131318000Y-104267000D03*
%TO.N,Net-(R13-Pad2)*%
X131318000Y-102997000D03*
X130175000Y-92329000D03*
%TO.N,Net-(R11-Pad2)*%
X122301000Y-92329000D03*
%TO.N,Net-(R9-Pad2)*%
X128397000Y-102997000D03*
%TO.N,Net-(R10-Pad2)*%
X124968000Y-90551000D03*
%TO.N,Net-(R12-Pad2)*%
X132588000Y-90551000D03*
%TO.N,Net-(R14-Pad2)*%
X140462000Y-90551000D03*
%TO.N,Net-(R15-Pad2)*%
X136525000Y-92329000D03*
%TO.N,Net-(R16-Pad2)*%
X145669000Y-92202000D03*
%TO.N,Net-(R3-Pad1)*%
X122301000Y-106934000D03*
%TO.N,Net-(R2-Pad1)*%
X124714000Y-108839000D03*
%TO.N,Net-(R4-Pad1)*%
X132207000Y-108839000D03*
%TO.N,Net-(R7-Pad1)*%
X136906000Y-107061000D03*
%TO.N,Net-(R6-Pad1)*%
X139827000Y-108839000D03*
%TO.N,Net-(R8-Pad1)*%
X145415000Y-107061000D03*
D14*
%TO.N,VCC*%
X137186500Y-104267000D03*
D13*
%TO.N,/SER_Green*%
X128397000Y-101727000D03*
D14*
%TO.N,VCC*%
X124386000Y-104267000D03*
D13*
%TO.N,/ROW2*%
X118110000Y-105664000D03*
%TO.N,/ROW3*%
X118110000Y-104140000D03*
%TO.N,/ROW4*%
X118110000Y-102743000D03*
%TO.N,/RCLK*%
X141351000Y-99187000D03*
X129032000Y-99187000D03*
X115443000Y-99187000D03*
%TO.N,/ROW8*%
X118110000Y-95758000D03*
%TO.N,/ROW1*%
X115443000Y-102997000D03*
%TO.N,/CLK*%
X111125000Y-97917000D03*
%TO.N,/SER_Row*%
X111252000Y-100457000D03*
%TO.N,/ROW7*%
X118110000Y-97155000D03*
%TO.N,/ROW6*%
X118110000Y-99949000D03*
%TO.N,/ROW5*%
X118110000Y-101219000D03*
%TD*%
D15*
%TO.N,/SER_Row*%
X108077000Y-93345000D02*
X107250000Y-93345000D01*
X109347000Y-94615000D02*
X108077000Y-93345000D01*
X111252000Y-100457000D02*
X109347000Y-98552000D01*
X109347000Y-98552000D02*
X109347000Y-94615000D01*
%TO.N,Net-(R14-Pad2)*%
X144018000Y-102997000D02*
X144272000Y-102997000D01*
X143764000Y-102997000D02*
X144018000Y-102997000D01*
X142748000Y-92837000D02*
X143129000Y-93218000D01*
X143129000Y-93218000D02*
X143129000Y-102362000D01*
X140462000Y-90551000D02*
X142748000Y-92837000D01*
X143129000Y-102362000D02*
X143764000Y-102997000D01*
%TO.N,Net-(R16-Pad2)*%
X145161000Y-101727000D02*
X144272000Y-101727000D01*
X145288000Y-101600000D02*
X145161000Y-101727000D01*
X145669000Y-101219000D02*
X145288000Y-101600000D01*
X145669000Y-92202000D02*
X145669000Y-101219000D01*
%TO.N,Net-(R12-Pad2)*%
X143129000Y-104267000D02*
X144272000Y-104267000D01*
X142367000Y-103505000D02*
X143129000Y-104267000D01*
X142367000Y-100965000D02*
X142367000Y-103505000D01*
X139827000Y-99695000D02*
X140589000Y-100457000D01*
X140589000Y-100457000D02*
X141859000Y-100457000D01*
X136525000Y-90551000D02*
X139827000Y-93853000D01*
X132588000Y-90551000D02*
X136525000Y-90551000D01*
X139827000Y-93853000D02*
X139827000Y-99695000D01*
X141859000Y-100457000D02*
X142367000Y-100965000D01*
%TO.N,Net-(R10-Pad2)*%
X138176000Y-95123000D02*
X138938000Y-95885000D01*
X133477000Y-91440000D02*
X137160000Y-95123000D01*
X125857000Y-91440000D02*
X133477000Y-91440000D01*
X138938000Y-95885000D02*
X138938000Y-101727000D01*
X140335000Y-103124000D02*
X141351000Y-103124000D01*
X124968000Y-90551000D02*
X125857000Y-91440000D01*
X137160000Y-95123000D02*
X138176000Y-95123000D01*
X138938000Y-101727000D02*
X140335000Y-103124000D01*
%TO.N,/ROW8*%
X146381801Y-105995773D02*
G75*
G03*
X144967573Y-105410000I-1414201J-1414227D01*
G01*
X146480228Y-106094200D02*
G75*
G02*
X147066000Y-107508427I-1414228J-1414200D01*
G01*
%TO.N,Net-(R13-Pad2)*%
X129794000Y-92710000D02*
X130175000Y-92329000D01*
X130175000Y-102997000D02*
X129794000Y-102616000D01*
X129794000Y-102616000D02*
X129794000Y-92710000D01*
X131318000Y-102997000D02*
X130175000Y-102997000D01*
%TO.N,Net-(R11-Pad2)*%
X122936000Y-99695000D02*
X122936000Y-92964000D01*
X127508000Y-104267000D02*
X122936000Y-99695000D01*
X122936000Y-92964000D02*
X122301000Y-92329000D01*
X131318000Y-104267000D02*
X127508000Y-104267000D01*
%TO.N,/ROW1*%
X123563500Y-90812500D02*
X123563500Y-87760000D01*
X122936000Y-91440000D02*
X123563500Y-90812500D01*
X118872000Y-91440000D02*
X122936000Y-91440000D01*
X116840000Y-100076000D02*
X116840000Y-93472000D01*
X116840000Y-93472000D02*
X118872000Y-91440000D01*
X115443000Y-101473000D02*
X116840000Y-100076000D01*
X115443000Y-102997000D02*
X115443000Y-101473000D01*
%TO.N,/ROW8*%
X146381787Y-105995787D02*
X146480214Y-106094214D01*
X121920000Y-104394000D02*
X122936000Y-105410000D01*
X147066000Y-107508427D02*
X147066000Y-110957500D01*
X147066000Y-110957500D02*
X146203500Y-111820000D01*
X121920000Y-98171000D02*
X121920000Y-104394000D01*
X119507000Y-95758000D02*
X121920000Y-98171000D01*
X118110000Y-95758000D02*
X119507000Y-95758000D01*
X122936000Y-105410000D02*
X144967573Y-105410000D01*
%TO.N,/ROW7*%
X138583500Y-107087500D02*
X138583500Y-111820000D01*
X137541000Y-106045000D02*
X138583500Y-107087500D01*
X121158000Y-105029000D02*
X122174000Y-106045000D01*
X121158000Y-100457000D02*
X121158000Y-105029000D01*
X122174000Y-106045000D02*
X137541000Y-106045000D01*
X118110000Y-97409000D02*
X121158000Y-100457000D01*
X118110000Y-97155000D02*
X118110000Y-97409000D01*
%TO.N,/ROW6*%
X128905000Y-107950000D02*
X130963500Y-110008500D01*
X120015000Y-107061000D02*
X120904000Y-107950000D01*
X120904000Y-107950000D02*
X128905000Y-107950000D01*
X120015000Y-101854000D02*
X120015000Y-107061000D01*
X130963500Y-110008500D02*
X130963500Y-111820000D01*
X118110000Y-99949000D02*
X120015000Y-101854000D01*
%TO.N,/ROW5*%
X122428000Y-109347000D02*
X123343500Y-110262500D01*
X117094000Y-106807000D02*
X119634000Y-109347000D01*
X117094000Y-102235000D02*
X117094000Y-106807000D01*
X118110000Y-101219000D02*
X117094000Y-102235000D01*
X123343500Y-110262500D02*
X123343500Y-111820000D01*
X119634000Y-109347000D02*
X122428000Y-109347000D01*
%TD*%
M02*
