M48
; DRILL file {KiCad (6.0.9)} date Sat Mar 11 18:38:16 2023
; FORMAT={-:-/ absolute / inch / decimal}
; #@! TF.CreationDate,2023-03-11T18:38:16+09:00
; #@! TF.GenerationSoftware,Kicad,Pcbnew,(6.0.9)
; #@! TF.FileFunction,Plated,1,6,PTH
FMAT,2
INCH
; #@! TA.AperFunction,Plated,PTH,ViaDrill
T1C0.0079
; #@! TA.AperFunction,Plated,PTH,ViaDrill
T2C0.0157
; #@! TA.AperFunction,Plated,PTH,ComponentDrill
T3C0.0394
%
G90
G05
T1
X4.375Y-3.855
X4.38Y-3.955
X4.5075Y-3.6475
X4.545Y-3.905
X4.545Y-4.055
X4.65Y-3.77
X4.65Y-3.825
X4.65Y-3.935
X4.65Y-3.985
X4.65Y-4.045
X4.65Y-4.1
X4.65Y-4.16
X4.675Y-4.21
X4.815Y-3.635
X4.815Y-4.21
X4.89Y-3.855
X4.91Y-4.285
X4.92Y-3.565
X5.055Y-3.8
X5.055Y-4.005
X5.055Y-4.055
X5.08Y-3.905
X5.125Y-3.635
X5.1275Y-4.2125
X5.16Y-3.805
X5.17Y-3.94
X5.17Y-4.005
X5.17Y-4.055
X5.17Y-4.105
X5.205Y-4.285
X5.22Y-3.565
X5.315Y-4.005
X5.32Y-3.805
X5.375Y-3.635
X5.39Y-4.215
X5.41Y-3.805
X5.505Y-4.285
X5.53Y-3.565
X5.565Y-3.855
X5.565Y-3.905
X5.565Y-4.005
X5.565Y-4.06
X5.68Y-3.805
X5.68Y-3.855
X5.68Y-3.905
X5.68Y-3.955
X5.68Y-4.005
X5.68Y-4.055
X5.68Y-4.105
X5.725Y-4.215
X5.735Y-3.63
T2
X4.8971Y-4.105
X5.401Y-4.105
T3
X4.1224Y-3.675
X4.1224Y-3.775
X4.1224Y-3.875
X4.1224Y-3.975
X4.1224Y-4.075
X4.1224Y-4.175
X4.2224Y-3.675
X4.2224Y-3.775
X4.2224Y-3.875
X4.2224Y-3.975
X4.2224Y-4.075
X4.2224Y-4.175
X4.656Y-4.4024
X4.6647Y-3.4551
X4.756Y-4.4024
X4.7647Y-3.4551
X4.856Y-4.4024
X4.8647Y-3.4551
X4.956Y-4.4024
X4.9647Y-3.4551
X5.056Y-4.4024
X5.0647Y-3.4551
X5.156Y-4.4024
X5.1647Y-3.4551
X5.256Y-4.4024
X5.2647Y-3.4551
X5.356Y-4.4024
X5.3647Y-3.4551
X5.456Y-4.4024
X5.4647Y-3.4551
X5.556Y-4.4024
X5.5647Y-3.4551
X5.656Y-4.4024
X5.6647Y-3.4551
X5.756Y-3.4551
X5.756Y-4.4024
T0
M30
