%TF.GenerationSoftware,KiCad,Pcbnew,(6.0.9)*%
%TF.CreationDate,2023-03-11T18:38:12+09:00*%
%TF.ProjectId,Pmod_Matrix2,506d6f64-5f4d-4617-9472-6978322e6b69,rev?*%
%TF.SameCoordinates,Original*%
%TF.FileFunction,Legend,Bot*%
%TF.FilePolarity,Positive*%
%FSLAX46Y46*%
G04 Gerber Fmt 4.6, Leading zero omitted, Abs format (unit mm)*
G04 Created by KiCad (PCBNEW (6.0.9)) date 2023-03-11 18:38:12*
%MOMM*%
%LPD*%
G01*
G04 APERTURE LIST*
%ADD10C,0.150000*%
G04 APERTURE END LIST*
D10*
X146778023Y-93230619D02*
X146730404Y-93183000D01*
X146635166Y-93135380D01*
X146397071Y-93135380D01*
X146301833Y-93183000D01*
X146254214Y-93230619D01*
X146206595Y-93325857D01*
X146206595Y-93421095D01*
X146254214Y-93563952D01*
X146825642Y-94135380D01*
X146206595Y-94135380D01*
X145778023Y-93754428D02*
X145016119Y-93754428D01*
X143968500Y-94040142D02*
X144016119Y-94087761D01*
X144158976Y-94135380D01*
X144254214Y-94135380D01*
X144397071Y-94087761D01*
X144492309Y-93992523D01*
X144539928Y-93897285D01*
X144587547Y-93706809D01*
X144587547Y-93563952D01*
X144539928Y-93373476D01*
X144492309Y-93278238D01*
X144397071Y-93183000D01*
X144254214Y-93135380D01*
X144158976Y-93135380D01*
X144016119Y-93183000D01*
X143968500Y-93230619D01*
X143397071Y-94135380D02*
X143492309Y-94087761D01*
X143539928Y-94040142D01*
X143587547Y-93944904D01*
X143587547Y-93659190D01*
X143539928Y-93563952D01*
X143492309Y-93516333D01*
X143397071Y-93468714D01*
X143254214Y-93468714D01*
X143158976Y-93516333D01*
X143111357Y-93563952D01*
X143063738Y-93659190D01*
X143063738Y-93944904D01*
X143111357Y-94040142D01*
X143158976Y-94087761D01*
X143254214Y-94135380D01*
X143397071Y-94135380D01*
X142492309Y-94135380D02*
X142587547Y-94087761D01*
X142635166Y-93992523D01*
X142635166Y-93135380D01*
X141968500Y-94135380D02*
X142063738Y-94087761D01*
X142111357Y-94040142D01*
X142158976Y-93944904D01*
X142158976Y-93659190D01*
X142111357Y-93563952D01*
X142063738Y-93516333D01*
X141968500Y-93468714D01*
X141825642Y-93468714D01*
X141730404Y-93516333D01*
X141682785Y-93563952D01*
X141635166Y-93659190D01*
X141635166Y-93944904D01*
X141682785Y-94040142D01*
X141730404Y-94087761D01*
X141825642Y-94135380D01*
X141968500Y-94135380D01*
X141206595Y-94135380D02*
X141206595Y-93468714D01*
X141206595Y-93659190D02*
X141158976Y-93563952D01*
X141111357Y-93516333D01*
X141016119Y-93468714D01*
X140920880Y-93468714D01*
X139825642Y-94135380D02*
X139825642Y-93135380D01*
X139492309Y-93849666D01*
X139158976Y-93135380D01*
X139158976Y-94135380D01*
X138254214Y-94135380D02*
X138254214Y-93611571D01*
X138301833Y-93516333D01*
X138397071Y-93468714D01*
X138587547Y-93468714D01*
X138682785Y-93516333D01*
X138254214Y-94087761D02*
X138349452Y-94135380D01*
X138587547Y-94135380D01*
X138682785Y-94087761D01*
X138730404Y-93992523D01*
X138730404Y-93897285D01*
X138682785Y-93802047D01*
X138587547Y-93754428D01*
X138349452Y-93754428D01*
X138254214Y-93706809D01*
X137920880Y-93468714D02*
X137539928Y-93468714D01*
X137778023Y-93135380D02*
X137778023Y-93992523D01*
X137730404Y-94087761D01*
X137635166Y-94135380D01*
X137539928Y-94135380D01*
X137206595Y-94135380D02*
X137206595Y-93468714D01*
X137206595Y-93659190D02*
X137158976Y-93563952D01*
X137111357Y-93516333D01*
X137016119Y-93468714D01*
X136920880Y-93468714D01*
X136587547Y-94135380D02*
X136587547Y-93468714D01*
X136587547Y-93135380D02*
X136635166Y-93183000D01*
X136587547Y-93230619D01*
X136539928Y-93183000D01*
X136587547Y-93135380D01*
X136587547Y-93230619D01*
X136206595Y-94135380D02*
X135682785Y-93468714D01*
X136206595Y-93468714D02*
X135682785Y-94135380D01*
X134063738Y-94135380D02*
X134539928Y-94135380D01*
X134539928Y-93135380D01*
X133730404Y-93611571D02*
X133397071Y-93611571D01*
X133254214Y-94135380D02*
X133730404Y-94135380D01*
X133730404Y-93135380D01*
X133254214Y-93135380D01*
X132825642Y-94135380D02*
X132825642Y-93135380D01*
X132587547Y-93135380D01*
X132444690Y-93183000D01*
X132349452Y-93278238D01*
X132301833Y-93373476D01*
X132254214Y-93563952D01*
X132254214Y-93706809D01*
X132301833Y-93897285D01*
X132349452Y-93992523D01*
X132444690Y-94087761D01*
X132587547Y-94135380D01*
X132825642Y-94135380D01*
X130778023Y-94468714D02*
X131016119Y-94468714D01*
X131016119Y-93040142D01*
X130778023Y-93040142D01*
X129920880Y-94135380D02*
X130397071Y-94135380D01*
X130397071Y-93135380D01*
X129730404Y-93135380D02*
X129158976Y-93135380D01*
X129444690Y-94135380D02*
X129444690Y-93135380D01*
X128825642Y-94135380D02*
X128825642Y-93135380D01*
X128444690Y-93135380D01*
X128349452Y-93183000D01*
X128301833Y-93230619D01*
X128254214Y-93325857D01*
X128254214Y-93468714D01*
X128301833Y-93563952D01*
X128349452Y-93611571D01*
X128444690Y-93659190D01*
X128825642Y-93659190D01*
X127301833Y-94135380D02*
X127873261Y-94135380D01*
X127587547Y-94135380D02*
X127587547Y-93135380D01*
X127682785Y-93278238D01*
X127778023Y-93373476D01*
X127873261Y-93421095D01*
X126920880Y-93230619D02*
X126873261Y-93183000D01*
X126778023Y-93135380D01*
X126539928Y-93135380D01*
X126444690Y-93183000D01*
X126397071Y-93230619D01*
X126349452Y-93325857D01*
X126349452Y-93421095D01*
X126397071Y-93563952D01*
X126968500Y-94135380D01*
X126349452Y-94135380D01*
X125397071Y-94135380D02*
X125968500Y-94135380D01*
X125682785Y-94135380D02*
X125682785Y-93135380D01*
X125778023Y-93278238D01*
X125873261Y-93373476D01*
X125968500Y-93421095D01*
X124825642Y-93563952D02*
X124920880Y-93516333D01*
X124968500Y-93468714D01*
X125016119Y-93373476D01*
X125016119Y-93325857D01*
X124968500Y-93230619D01*
X124920880Y-93183000D01*
X124825642Y-93135380D01*
X124635166Y-93135380D01*
X124539928Y-93183000D01*
X124492309Y-93230619D01*
X124444690Y-93325857D01*
X124444690Y-93373476D01*
X124492309Y-93468714D01*
X124539928Y-93516333D01*
X124635166Y-93563952D01*
X124825642Y-93563952D01*
X124920880Y-93611571D01*
X124968500Y-93659190D01*
X125016119Y-93754428D01*
X125016119Y-93944904D01*
X124968500Y-94040142D01*
X124920880Y-94087761D01*
X124825642Y-94135380D01*
X124635166Y-94135380D01*
X124539928Y-94087761D01*
X124492309Y-94040142D01*
X124444690Y-93944904D01*
X124444690Y-93754428D01*
X124492309Y-93659190D01*
X124539928Y-93611571D01*
X124635166Y-93563952D01*
X123873261Y-93563952D02*
X123968500Y-93516333D01*
X124016119Y-93468714D01*
X124063738Y-93373476D01*
X124063738Y-93325857D01*
X124016119Y-93230619D01*
X123968500Y-93183000D01*
X123873261Y-93135380D01*
X123682785Y-93135380D01*
X123587547Y-93183000D01*
X123539928Y-93230619D01*
X123492309Y-93325857D01*
X123492309Y-93373476D01*
X123539928Y-93468714D01*
X123587547Y-93516333D01*
X123682785Y-93563952D01*
X123873261Y-93563952D01*
X123968500Y-93611571D01*
X124016119Y-93659190D01*
X124063738Y-93754428D01*
X124063738Y-93944904D01*
X124016119Y-94040142D01*
X123968500Y-94087761D01*
X123873261Y-94135380D01*
X123682785Y-94135380D01*
X123587547Y-94087761D01*
X123539928Y-94040142D01*
X123492309Y-93944904D01*
X123492309Y-93754428D01*
X123539928Y-93659190D01*
X123587547Y-93611571D01*
X123682785Y-93563952D01*
X123158976Y-94468714D02*
X122920880Y-94468714D01*
X122920880Y-93040142D01*
X123158976Y-93040142D01*
X146778023Y-95697761D02*
X146635166Y-95745380D01*
X146397071Y-95745380D01*
X146301833Y-95697761D01*
X146254214Y-95650142D01*
X146206595Y-95554904D01*
X146206595Y-95459666D01*
X146254214Y-95364428D01*
X146301833Y-95316809D01*
X146397071Y-95269190D01*
X146587547Y-95221571D01*
X146682785Y-95173952D01*
X146730404Y-95126333D01*
X146778023Y-95031095D01*
X146778023Y-94935857D01*
X146730404Y-94840619D01*
X146682785Y-94793000D01*
X146587547Y-94745380D01*
X146349452Y-94745380D01*
X146206595Y-94793000D01*
X145778023Y-95745380D02*
X145778023Y-94745380D01*
X145349452Y-95745380D02*
X145349452Y-95221571D01*
X145397071Y-95126333D01*
X145492309Y-95078714D01*
X145635166Y-95078714D01*
X145730404Y-95126333D01*
X145778023Y-95173952D01*
X144873261Y-95745380D02*
X144873261Y-95078714D01*
X144873261Y-94745380D02*
X144920880Y-94793000D01*
X144873261Y-94840619D01*
X144825642Y-94793000D01*
X144873261Y-94745380D01*
X144873261Y-94840619D01*
X144539928Y-95078714D02*
X144158976Y-95078714D01*
X144397071Y-95745380D02*
X144397071Y-94888238D01*
X144349452Y-94793000D01*
X144254214Y-94745380D01*
X144158976Y-94745380D01*
X143968500Y-95078714D02*
X143587547Y-95078714D01*
X143825642Y-94745380D02*
X143825642Y-95602523D01*
X143778023Y-95697761D01*
X143682785Y-95745380D01*
X143587547Y-95745380D01*
X141920880Y-95745380D02*
X142254214Y-95269190D01*
X142492309Y-95745380D02*
X142492309Y-94745380D01*
X142111357Y-94745380D01*
X142016119Y-94793000D01*
X141968500Y-94840619D01*
X141920880Y-94935857D01*
X141920880Y-95078714D01*
X141968500Y-95173952D01*
X142016119Y-95221571D01*
X142111357Y-95269190D01*
X142492309Y-95269190D01*
X141111357Y-95697761D02*
X141206595Y-95745380D01*
X141397071Y-95745380D01*
X141492309Y-95697761D01*
X141539928Y-95602523D01*
X141539928Y-95221571D01*
X141492309Y-95126333D01*
X141397071Y-95078714D01*
X141206595Y-95078714D01*
X141111357Y-95126333D01*
X141063738Y-95221571D01*
X141063738Y-95316809D01*
X141539928Y-95412047D01*
X140206595Y-95078714D02*
X140206595Y-95888238D01*
X140254214Y-95983476D01*
X140301833Y-96031095D01*
X140397071Y-96078714D01*
X140539928Y-96078714D01*
X140635166Y-96031095D01*
X140206595Y-95697761D02*
X140301833Y-95745380D01*
X140492309Y-95745380D01*
X140587547Y-95697761D01*
X140635166Y-95650142D01*
X140682785Y-95554904D01*
X140682785Y-95269190D01*
X140635166Y-95173952D01*
X140587547Y-95126333D01*
X140492309Y-95078714D01*
X140301833Y-95078714D01*
X140206595Y-95126333D01*
X139730404Y-95745380D02*
X139730404Y-95078714D01*
X139730404Y-94745380D02*
X139778023Y-94793000D01*
X139730404Y-94840619D01*
X139682785Y-94793000D01*
X139730404Y-94745380D01*
X139730404Y-94840619D01*
X139301833Y-95697761D02*
X139206595Y-95745380D01*
X139016119Y-95745380D01*
X138920880Y-95697761D01*
X138873261Y-95602523D01*
X138873261Y-95554904D01*
X138920880Y-95459666D01*
X139016119Y-95412047D01*
X139158976Y-95412047D01*
X139254214Y-95364428D01*
X139301833Y-95269190D01*
X139301833Y-95221571D01*
X139254214Y-95126333D01*
X139158976Y-95078714D01*
X139016119Y-95078714D01*
X138920880Y-95126333D01*
X138587547Y-95078714D02*
X138206595Y-95078714D01*
X138444690Y-94745380D02*
X138444690Y-95602523D01*
X138397071Y-95697761D01*
X138301833Y-95745380D01*
X138206595Y-95745380D01*
X137492309Y-95697761D02*
X137587547Y-95745380D01*
X137778023Y-95745380D01*
X137873261Y-95697761D01*
X137920880Y-95602523D01*
X137920880Y-95221571D01*
X137873261Y-95126333D01*
X137778023Y-95078714D01*
X137587547Y-95078714D01*
X137492309Y-95126333D01*
X137444690Y-95221571D01*
X137444690Y-95316809D01*
X137920880Y-95412047D01*
X137016119Y-95745380D02*
X137016119Y-95078714D01*
X137016119Y-95269190D02*
X136968500Y-95173952D01*
X136920880Y-95126333D01*
X136825642Y-95078714D01*
X136730404Y-95078714D01*
X135349452Y-96078714D02*
X135587547Y-96078714D01*
X135587547Y-94650142D01*
X135349452Y-94650142D01*
X135063738Y-94745380D02*
X134397071Y-94745380D01*
X134825642Y-95745380D01*
X133587547Y-95078714D02*
X133587547Y-95745380D01*
X133825642Y-94697761D02*
X134063738Y-95412047D01*
X133444690Y-95412047D01*
X133063738Y-95745380D02*
X133063738Y-94745380D01*
X133063738Y-95221571D02*
X132492309Y-95221571D01*
X132492309Y-95745380D02*
X132492309Y-94745380D01*
X131444690Y-95650142D02*
X131492309Y-95697761D01*
X131635166Y-95745380D01*
X131730404Y-95745380D01*
X131873261Y-95697761D01*
X131968500Y-95602523D01*
X132016119Y-95507285D01*
X132063738Y-95316809D01*
X132063738Y-95173952D01*
X132016119Y-94983476D01*
X131968500Y-94888238D01*
X131873261Y-94793000D01*
X131730404Y-94745380D01*
X131635166Y-94745380D01*
X131492309Y-94793000D01*
X131444690Y-94840619D01*
X130539928Y-94745380D02*
X131016119Y-94745380D01*
X131063738Y-95221571D01*
X131016119Y-95173952D01*
X130920880Y-95126333D01*
X130682785Y-95126333D01*
X130587547Y-95173952D01*
X130539928Y-95221571D01*
X130492309Y-95316809D01*
X130492309Y-95554904D01*
X130539928Y-95650142D01*
X130587547Y-95697761D01*
X130682785Y-95745380D01*
X130920880Y-95745380D01*
X131016119Y-95697761D01*
X131063738Y-95650142D01*
X130016119Y-95745380D02*
X129825642Y-95745380D01*
X129730404Y-95697761D01*
X129682785Y-95650142D01*
X129587547Y-95507285D01*
X129539928Y-95316809D01*
X129539928Y-94935857D01*
X129587547Y-94840619D01*
X129635166Y-94793000D01*
X129730404Y-94745380D01*
X129920880Y-94745380D01*
X130016119Y-94793000D01*
X130063738Y-94840619D01*
X130111357Y-94935857D01*
X130111357Y-95173952D01*
X130063738Y-95269190D01*
X130016119Y-95316809D01*
X129920880Y-95364428D01*
X129730404Y-95364428D01*
X129635166Y-95316809D01*
X129587547Y-95269190D01*
X129539928Y-95173952D01*
X128635166Y-94745380D02*
X129111357Y-94745380D01*
X129158976Y-95221571D01*
X129111357Y-95173952D01*
X129016119Y-95126333D01*
X128778023Y-95126333D01*
X128682785Y-95173952D01*
X128635166Y-95221571D01*
X128587547Y-95316809D01*
X128587547Y-95554904D01*
X128635166Y-95650142D01*
X128682785Y-95697761D01*
X128778023Y-95745380D01*
X129016119Y-95745380D01*
X129111357Y-95697761D01*
X129158976Y-95650142D01*
X128254214Y-96078714D02*
X128016119Y-96078714D01*
X128016119Y-94650142D01*
X128254214Y-94650142D01*
X113157000Y-100838000D02*
X113157000Y-108839000D01*
X109601000Y-100838000D02*
X113157000Y-100838000D01*
X101981000Y-100965000D02*
X102997000Y-100965000D01*
X101981000Y-108966000D02*
X101981000Y-100965000D01*
X114641047Y-110434380D02*
X114974380Y-109958190D01*
X115212476Y-110434380D02*
X115212476Y-109434380D01*
X114831523Y-109434380D01*
X114736285Y-109482000D01*
X114688666Y-109529619D01*
X114641047Y-109624857D01*
X114641047Y-109767714D01*
X114688666Y-109862952D01*
X114736285Y-109910571D01*
X114831523Y-109958190D01*
X115212476Y-109958190D01*
X113641047Y-110339142D02*
X113688666Y-110386761D01*
X113831523Y-110434380D01*
X113926761Y-110434380D01*
X114069619Y-110386761D01*
X114164857Y-110291523D01*
X114212476Y-110196285D01*
X114260095Y-110005809D01*
X114260095Y-109862952D01*
X114212476Y-109672476D01*
X114164857Y-109577238D01*
X114069619Y-109482000D01*
X113926761Y-109434380D01*
X113831523Y-109434380D01*
X113688666Y-109482000D01*
X113641047Y-109529619D01*
X112736285Y-110434380D02*
X113212476Y-110434380D01*
X113212476Y-109434380D01*
X112212476Y-109434380D02*
X112022000Y-109434380D01*
X111926761Y-109482000D01*
X111831523Y-109577238D01*
X111783904Y-109767714D01*
X111783904Y-110101047D01*
X111831523Y-110291523D01*
X111926761Y-110386761D01*
X112022000Y-110434380D01*
X112212476Y-110434380D01*
X112307714Y-110386761D01*
X112402952Y-110291523D01*
X112450571Y-110101047D01*
X112450571Y-109767714D01*
X112402952Y-109577238D01*
X112307714Y-109482000D01*
X112212476Y-109434380D01*
X110783904Y-110339142D02*
X110831523Y-110386761D01*
X110974380Y-110434380D01*
X111069619Y-110434380D01*
X111212476Y-110386761D01*
X111307714Y-110291523D01*
X111355333Y-110196285D01*
X111402952Y-110005809D01*
X111402952Y-109862952D01*
X111355333Y-109672476D01*
X111307714Y-109577238D01*
X111212476Y-109482000D01*
X111069619Y-109434380D01*
X110974380Y-109434380D01*
X110831523Y-109482000D01*
X110783904Y-109529619D01*
X110355333Y-110434380D02*
X110355333Y-109434380D01*
X109783904Y-110434380D02*
X110212476Y-109862952D01*
X109783904Y-109434380D02*
X110355333Y-110005809D01*
X105251047Y-110339142D02*
X105298666Y-110386761D01*
X105441523Y-110434380D01*
X105536761Y-110434380D01*
X105679619Y-110386761D01*
X105774857Y-110291523D01*
X105822476Y-110196285D01*
X105870095Y-110005809D01*
X105870095Y-109862952D01*
X105822476Y-109672476D01*
X105774857Y-109577238D01*
X105679619Y-109482000D01*
X105536761Y-109434380D01*
X105441523Y-109434380D01*
X105298666Y-109482000D01*
X105251047Y-109529619D01*
X104346285Y-110434380D02*
X104822476Y-110434380D01*
X104822476Y-109434380D01*
X103822476Y-109434380D02*
X103632000Y-109434380D01*
X103536761Y-109482000D01*
X103441523Y-109577238D01*
X103393904Y-109767714D01*
X103393904Y-110101047D01*
X103441523Y-110291523D01*
X103536761Y-110386761D01*
X103632000Y-110434380D01*
X103822476Y-110434380D01*
X103917714Y-110386761D01*
X104012952Y-110291523D01*
X104060571Y-110101047D01*
X104060571Y-109767714D01*
X104012952Y-109577238D01*
X103917714Y-109482000D01*
X103822476Y-109434380D01*
X102393904Y-110339142D02*
X102441523Y-110386761D01*
X102584380Y-110434380D01*
X102679619Y-110434380D01*
X102822476Y-110386761D01*
X102917714Y-110291523D01*
X102965333Y-110196285D01*
X103012952Y-110005809D01*
X103012952Y-109862952D01*
X102965333Y-109672476D01*
X102917714Y-109577238D01*
X102822476Y-109482000D01*
X102679619Y-109434380D01*
X102584380Y-109434380D01*
X102441523Y-109482000D01*
X102393904Y-109529619D01*
X101965333Y-110434380D02*
X101965333Y-109434380D01*
X101393904Y-110434380D02*
X101822476Y-109862952D01*
X101393904Y-109434380D02*
X101965333Y-110005809D01*
X110370857Y-99274285D02*
X110399428Y-99302857D01*
X110485142Y-99331428D01*
X110542285Y-99331428D01*
X110628000Y-99302857D01*
X110685142Y-99245714D01*
X110713714Y-99188571D01*
X110742285Y-99074285D01*
X110742285Y-98988571D01*
X110713714Y-98874285D01*
X110685142Y-98817142D01*
X110628000Y-98760000D01*
X110542285Y-98731428D01*
X110485142Y-98731428D01*
X110399428Y-98760000D01*
X110370857Y-98788571D01*
X109828000Y-99331428D02*
X110113714Y-99331428D01*
X110113714Y-98731428D01*
X109285142Y-99331428D02*
X109485142Y-99045714D01*
X109628000Y-99331428D02*
X109628000Y-98731428D01*
X109399428Y-98731428D01*
X109342285Y-98760000D01*
X109313714Y-98788571D01*
X109285142Y-98845714D01*
X109285142Y-98931428D01*
X109313714Y-98988571D01*
X109342285Y-99017142D01*
X109399428Y-99045714D01*
X109628000Y-99045714D01*
X109085142Y-98731428D02*
X108713714Y-98731428D01*
X108913714Y-98960000D01*
X108828000Y-98960000D01*
X108770857Y-98988571D01*
X108742285Y-99017142D01*
X108713714Y-99074285D01*
X108713714Y-99217142D01*
X108742285Y-99274285D01*
X108770857Y-99302857D01*
X108828000Y-99331428D01*
X108999428Y-99331428D01*
X109056571Y-99302857D01*
X109085142Y-99274285D01*
X102750857Y-98766285D02*
X102779428Y-98794857D01*
X102865142Y-98823428D01*
X102922285Y-98823428D01*
X103008000Y-98794857D01*
X103065142Y-98737714D01*
X103093714Y-98680571D01*
X103122285Y-98566285D01*
X103122285Y-98480571D01*
X103093714Y-98366285D01*
X103065142Y-98309142D01*
X103008000Y-98252000D01*
X102922285Y-98223428D01*
X102865142Y-98223428D01*
X102779428Y-98252000D01*
X102750857Y-98280571D01*
X102208000Y-98823428D02*
X102493714Y-98823428D01*
X102493714Y-98223428D01*
X101665142Y-98823428D02*
X101865142Y-98537714D01*
X102008000Y-98823428D02*
X102008000Y-98223428D01*
X101779428Y-98223428D01*
X101722285Y-98252000D01*
X101693714Y-98280571D01*
X101665142Y-98337714D01*
X101665142Y-98423428D01*
X101693714Y-98480571D01*
X101722285Y-98509142D01*
X101779428Y-98537714D01*
X102008000Y-98537714D01*
X101436571Y-98280571D02*
X101408000Y-98252000D01*
X101350857Y-98223428D01*
X101208000Y-98223428D01*
X101150857Y-98252000D01*
X101122285Y-98280571D01*
X101093714Y-98337714D01*
X101093714Y-98394857D01*
X101122285Y-98480571D01*
X101465142Y-98823428D01*
X101093714Y-98823428D01*
X102750857Y-96099285D02*
X102779428Y-96127857D01*
X102865142Y-96156428D01*
X102922285Y-96156428D01*
X103008000Y-96127857D01*
X103065142Y-96070714D01*
X103093714Y-96013571D01*
X103122285Y-95899285D01*
X103122285Y-95813571D01*
X103093714Y-95699285D01*
X103065142Y-95642142D01*
X103008000Y-95585000D01*
X102922285Y-95556428D01*
X102865142Y-95556428D01*
X102779428Y-95585000D01*
X102750857Y-95613571D01*
X102208000Y-96156428D02*
X102493714Y-96156428D01*
X102493714Y-95556428D01*
X101665142Y-96156428D02*
X101865142Y-95870714D01*
X102008000Y-96156428D02*
X102008000Y-95556428D01*
X101779428Y-95556428D01*
X101722285Y-95585000D01*
X101693714Y-95613571D01*
X101665142Y-95670714D01*
X101665142Y-95756428D01*
X101693714Y-95813571D01*
X101722285Y-95842142D01*
X101779428Y-95870714D01*
X102008000Y-95870714D01*
X101093714Y-96156428D02*
X101436571Y-96156428D01*
X101265142Y-96156428D02*
X101265142Y-95556428D01*
X101322285Y-95642142D01*
X101379428Y-95699285D01*
X101436571Y-95727857D01*
X102235000Y-93345000D02*
X103124000Y-93345000D01*
X102235000Y-89281000D02*
X102235000Y-93345000D01*
X108584571Y-88876142D02*
X108632190Y-88923761D01*
X108775047Y-88971380D01*
X108870285Y-88971380D01*
X109013142Y-88923761D01*
X109108380Y-88828523D01*
X109156000Y-88733285D01*
X109203619Y-88542809D01*
X109203619Y-88399952D01*
X109156000Y-88209476D01*
X109108380Y-88114238D01*
X109013142Y-88019000D01*
X108870285Y-87971380D01*
X108775047Y-87971380D01*
X108632190Y-88019000D01*
X108584571Y-88066619D01*
X107965523Y-87971380D02*
X107775047Y-87971380D01*
X107679809Y-88019000D01*
X107584571Y-88114238D01*
X107536952Y-88304714D01*
X107536952Y-88638047D01*
X107584571Y-88828523D01*
X107679809Y-88923761D01*
X107775047Y-88971380D01*
X107965523Y-88971380D01*
X108060761Y-88923761D01*
X108156000Y-88828523D01*
X108203619Y-88638047D01*
X108203619Y-88304714D01*
X108156000Y-88114238D01*
X108060761Y-88019000D01*
X107965523Y-87971380D01*
X106632190Y-88971380D02*
X107108380Y-88971380D01*
X107108380Y-87971380D01*
X106536952Y-89066619D02*
X105775047Y-89066619D01*
X105013142Y-88019000D02*
X105108380Y-87971380D01*
X105251238Y-87971380D01*
X105394095Y-88019000D01*
X105489333Y-88114238D01*
X105536952Y-88209476D01*
X105584571Y-88399952D01*
X105584571Y-88542809D01*
X105536952Y-88733285D01*
X105489333Y-88828523D01*
X105394095Y-88923761D01*
X105251238Y-88971380D01*
X105156000Y-88971380D01*
X105013142Y-88923761D01*
X104965523Y-88876142D01*
X104965523Y-88542809D01*
X105156000Y-88542809D01*
X103965523Y-88971380D02*
X104298857Y-88495190D01*
X104536952Y-88971380D02*
X104536952Y-87971380D01*
X104156000Y-87971380D01*
X104060761Y-88019000D01*
X104013142Y-88066619D01*
X103965523Y-88161857D01*
X103965523Y-88304714D01*
X104013142Y-88399952D01*
X104060761Y-88447571D01*
X104156000Y-88495190D01*
X104536952Y-88495190D01*
X103536952Y-88447571D02*
X103203619Y-88447571D01*
X103060761Y-88971380D02*
X103536952Y-88971380D01*
X103536952Y-87971380D01*
X103060761Y-87971380D01*
X102632190Y-88447571D02*
X102298857Y-88447571D01*
X102156000Y-88971380D02*
X102632190Y-88971380D01*
X102632190Y-87971380D01*
X102156000Y-87971380D01*
X101727428Y-88971380D02*
X101727428Y-87971380D01*
X101156000Y-88971380D01*
X101156000Y-87971380D01*
X110617000Y-93218000D02*
X110617000Y-91059000D01*
X109220000Y-93218000D02*
X110617000Y-93218000D01*
X111275714Y-90749380D02*
X111609047Y-90273190D01*
X111847142Y-90749380D02*
X111847142Y-89749380D01*
X111466190Y-89749380D01*
X111370952Y-89797000D01*
X111323333Y-89844619D01*
X111275714Y-89939857D01*
X111275714Y-90082714D01*
X111323333Y-90177952D01*
X111370952Y-90225571D01*
X111466190Y-90273190D01*
X111847142Y-90273190D01*
X110656666Y-89749380D02*
X110466190Y-89749380D01*
X110370952Y-89797000D01*
X110275714Y-89892238D01*
X110228095Y-90082714D01*
X110228095Y-90416047D01*
X110275714Y-90606523D01*
X110370952Y-90701761D01*
X110466190Y-90749380D01*
X110656666Y-90749380D01*
X110751904Y-90701761D01*
X110847142Y-90606523D01*
X110894761Y-90416047D01*
X110894761Y-90082714D01*
X110847142Y-89892238D01*
X110751904Y-89797000D01*
X110656666Y-89749380D01*
X109894761Y-89749380D02*
X109656666Y-90749380D01*
X109466190Y-90035095D01*
X109275714Y-90749380D01*
X109037619Y-89749380D01*
X113411000Y-95885000D02*
X109093000Y-95885000D01*
X113411000Y-88074500D02*
X113411000Y-95885000D01*
X115355380Y-87479142D02*
X115403000Y-87526761D01*
X115545857Y-87574380D01*
X115641095Y-87574380D01*
X115783952Y-87526761D01*
X115879190Y-87431523D01*
X115926809Y-87336285D01*
X115974428Y-87145809D01*
X115974428Y-87002952D01*
X115926809Y-86812476D01*
X115879190Y-86717238D01*
X115783952Y-86622000D01*
X115641095Y-86574380D01*
X115545857Y-86574380D01*
X115403000Y-86622000D01*
X115355380Y-86669619D01*
X114736333Y-86574380D02*
X114545857Y-86574380D01*
X114450619Y-86622000D01*
X114355380Y-86717238D01*
X114307761Y-86907714D01*
X114307761Y-87241047D01*
X114355380Y-87431523D01*
X114450619Y-87526761D01*
X114545857Y-87574380D01*
X114736333Y-87574380D01*
X114831571Y-87526761D01*
X114926809Y-87431523D01*
X114974428Y-87241047D01*
X114974428Y-86907714D01*
X114926809Y-86717238D01*
X114831571Y-86622000D01*
X114736333Y-86574380D01*
X113403000Y-87574380D02*
X113879190Y-87574380D01*
X113879190Y-86574380D01*
X113307761Y-87669619D02*
X112545857Y-87669619D01*
X111736333Y-87574380D02*
X112069666Y-87098190D01*
X112307761Y-87574380D02*
X112307761Y-86574380D01*
X111926809Y-86574380D01*
X111831571Y-86622000D01*
X111783952Y-86669619D01*
X111736333Y-86764857D01*
X111736333Y-86907714D01*
X111783952Y-87002952D01*
X111831571Y-87050571D01*
X111926809Y-87098190D01*
X112307761Y-87098190D01*
X111307761Y-87050571D02*
X110974428Y-87050571D01*
X110831571Y-87574380D02*
X111307761Y-87574380D01*
X111307761Y-86574380D01*
X110831571Y-86574380D01*
X110403000Y-87574380D02*
X110403000Y-86574380D01*
X110164904Y-86574380D01*
X110022047Y-86622000D01*
X109926809Y-86717238D01*
X109879190Y-86812476D01*
X109831571Y-87002952D01*
X109831571Y-87145809D01*
X109879190Y-87336285D01*
X109926809Y-87431523D01*
X110022047Y-87526761D01*
X110164904Y-87574380D01*
X110403000Y-87574380D01*
X111378904Y-103005000D02*
X111474142Y-102957380D01*
X111617000Y-102957380D01*
X111759857Y-103005000D01*
X111855095Y-103100238D01*
X111902714Y-103195476D01*
X111950333Y-103385952D01*
X111950333Y-103528809D01*
X111902714Y-103719285D01*
X111855095Y-103814523D01*
X111759857Y-103909761D01*
X111617000Y-103957380D01*
X111521761Y-103957380D01*
X111378904Y-103909761D01*
X111331285Y-103862142D01*
X111331285Y-103528809D01*
X111521761Y-103528809D01*
X110902714Y-103957380D02*
X110902714Y-102957380D01*
X110331285Y-103957380D01*
X110331285Y-102957380D01*
X109855095Y-103957380D02*
X109855095Y-102957380D01*
X109617000Y-102957380D01*
X109474142Y-103005000D01*
X109378904Y-103100238D01*
X109331285Y-103195476D01*
X109283666Y-103385952D01*
X109283666Y-103528809D01*
X109331285Y-103719285D01*
X109378904Y-103814523D01*
X109474142Y-103909761D01*
X109617000Y-103957380D01*
X109855095Y-103957380D01*
X111950333Y-105624380D02*
X111617000Y-106624380D01*
X111283666Y-105624380D01*
X110378904Y-106529142D02*
X110426523Y-106576761D01*
X110569380Y-106624380D01*
X110664619Y-106624380D01*
X110807476Y-106576761D01*
X110902714Y-106481523D01*
X110950333Y-106386285D01*
X110997952Y-106195809D01*
X110997952Y-106052952D01*
X110950333Y-105862476D01*
X110902714Y-105767238D01*
X110807476Y-105672000D01*
X110664619Y-105624380D01*
X110569380Y-105624380D01*
X110426523Y-105672000D01*
X110378904Y-105719619D01*
X109378904Y-106529142D02*
X109426523Y-106576761D01*
X109569380Y-106624380D01*
X109664619Y-106624380D01*
X109807476Y-106576761D01*
X109902714Y-106481523D01*
X109950333Y-106386285D01*
X109997952Y-106195809D01*
X109997952Y-106052952D01*
X109950333Y-105862476D01*
X109902714Y-105767238D01*
X109807476Y-105672000D01*
X109664619Y-105624380D01*
X109569380Y-105624380D01*
X109426523Y-105672000D01*
X109378904Y-105719619D01*
%TO.C,U4*%
X116331904Y-111339380D02*
X116331904Y-112148904D01*
X116284285Y-112244142D01*
X116236666Y-112291761D01*
X116141428Y-112339380D01*
X115950952Y-112339380D01*
X115855714Y-112291761D01*
X115808095Y-112244142D01*
X115760476Y-112148904D01*
X115760476Y-111339380D01*
X114855714Y-111672714D02*
X114855714Y-112339380D01*
X115093809Y-111291761D02*
X115331904Y-112006047D01*
X114712857Y-112006047D01*
%TD*%
M02*
