%TF.GenerationSoftware,KiCad,Pcbnew,(6.0.9)*%
%TF.CreationDate,2023-03-11T18:38:12+09:00*%
%TF.ProjectId,Pmod_Matrix2,506d6f64-5f4d-4617-9472-6978322e6b69,rev?*%
%TF.SameCoordinates,Original*%
%TF.FileFunction,Copper,L1,Top*%
%TF.FilePolarity,Positive*%
%FSLAX46Y46*%
G04 Gerber Fmt 4.6, Leading zero omitted, Abs format (unit mm)*
G04 Created by KiCad (PCBNEW (6.0.9)) date 2023-03-11 18:38:12*
%MOMM*%
%LPD*%
G01*
G04 APERTURE LIST*
G04 Aperture macros list*
%AMRoundRect*
0 Rectangle with rounded corners*
0 $1 Rounding radius*
0 $2 $3 $4 $5 $6 $7 $8 $9 X,Y pos of 4 corners*
0 Add a 4 corners polygon primitive as box body*
4,1,4,$2,$3,$4,$5,$6,$7,$8,$9,$2,$3,0*
0 Add four circle primitives for the rounded corners*
1,1,$1+$1,$2,$3*
1,1,$1+$1,$4,$5*
1,1,$1+$1,$6,$7*
1,1,$1+$1,$8,$9*
0 Add four rect primitives between the rounded corners*
20,1,$1+$1,$2,$3,$4,$5,0*
20,1,$1+$1,$4,$5,$6,$7,0*
20,1,$1+$1,$6,$7,$8,$9,0*
20,1,$1+$1,$8,$9,$2,$3,0*%
G04 Aperture macros list end*
%TA.AperFunction,ComponentPad*%
%ADD10C,1.700000*%
%TD*%
%TA.AperFunction,ComponentPad*%
%ADD11O,1.700000X1.700000*%
%TD*%
%TA.AperFunction,ComponentPad*%
%ADD12R,1.700000X1.700000*%
%TD*%
%TA.AperFunction,SMDPad,CuDef*%
%ADD13RoundRect,0.150000X0.650000X0.150000X-0.650000X0.150000X-0.650000X-0.150000X0.650000X-0.150000X0*%
%TD*%
%TA.AperFunction,SMDPad,CuDef*%
%ADD14RoundRect,0.237500X-0.250000X-0.237500X0.250000X-0.237500X0.250000X0.237500X-0.250000X0.237500X0*%
%TD*%
%TA.AperFunction,SMDPad,CuDef*%
%ADD15RoundRect,0.237500X0.250000X0.237500X-0.250000X0.237500X-0.250000X-0.237500X0.250000X-0.237500X0*%
%TD*%
%TA.AperFunction,SMDPad,CuDef*%
%ADD16RoundRect,0.237500X-0.237500X0.300000X-0.237500X-0.300000X0.237500X-0.300000X0.237500X0.300000X0*%
%TD*%
%TA.AperFunction,ViaPad*%
%ADD17C,0.500000*%
%TD*%
%TA.AperFunction,ViaPad*%
%ADD18C,0.800000*%
%TD*%
%TA.AperFunction,Conductor*%
%ADD19C,0.250000*%
%TD*%
%TA.AperFunction,Conductor*%
%ADD20C,0.500000*%
%TD*%
G04 APERTURE END LIST*
D10*
%TO.P,U4,24,COL1G*%
%TO.N,Net-(R9-Pad1)*%
X118483500Y-87760000D03*
D11*
%TO.P,U4,23,COL1R*%
%TO.N,Net-(R10-Pad1)*%
X121023500Y-87760000D03*
%TO.P,U4,22,ROW1*%
%TO.N,/ROW1*%
X123563500Y-87760000D03*
%TO.P,U4,21,COL2G*%
%TO.N,Net-(R11-Pad1)*%
X126103500Y-87760000D03*
%TO.P,U4,20,COL2R*%
%TO.N,Net-(R12-Pad1)*%
X128643500Y-87760000D03*
%TO.P,U4,19,ROW2*%
%TO.N,/ROW2*%
X131183500Y-87760000D03*
%TO.P,U4,18,COL3G*%
%TO.N,Net-(R13-Pad1)*%
X133723500Y-87760000D03*
%TO.P,U4,17,COL3R*%
%TO.N,Net-(R14-Pad1)*%
X136263500Y-87760000D03*
%TO.P,U4,16,ROW3*%
%TO.N,/ROW3*%
X138803500Y-87760000D03*
%TO.P,U4,15,COL4G*%
%TO.N,Net-(R15-Pad1)*%
X141343500Y-87760000D03*
%TO.P,U4,14,COL4R*%
%TO.N,Net-(R16-Pad1)*%
X143883500Y-87760000D03*
%TO.P,U4,13,ROW4*%
%TO.N,/ROW4*%
X146203500Y-87760000D03*
%TO.P,U4,12,ROW8*%
%TO.N,/ROW8*%
X146203500Y-111820000D03*
%TO.P,U4,11,COL8R*%
%TO.N,Net-(R8-Pad2)*%
X143663500Y-111820000D03*
%TO.P,U4,10,COL8G*%
%TO.N,Net-(R7-Pad2)*%
X141123500Y-111820000D03*
%TO.P,U4,9,ROW7*%
%TO.N,/ROW7*%
X138583500Y-111820000D03*
%TO.P,U4,8,COL7R*%
%TO.N,Net-(R6-Pad2)*%
X136043500Y-111820000D03*
%TO.P,U4,7,COL7G*%
%TO.N,Net-(R5-Pad2)*%
X133503500Y-111820000D03*
%TO.P,U4,6,ROW6*%
%TO.N,/ROW6*%
X130963500Y-111820000D03*
%TO.P,U4,5,COL6R*%
%TO.N,Net-(R4-Pad2)*%
X128423500Y-111820000D03*
%TO.P,U4,4,COL6G*%
%TO.N,Net-(R3-Pad2)*%
X125883500Y-111820000D03*
%TO.P,U4,3,ROW5*%
%TO.N,/ROW5*%
X123343500Y-111820000D03*
%TO.P,U4,2,COL5R*%
%TO.N,Net-(R2-Pad2)*%
X120803500Y-111820000D03*
D12*
%TO.P,U4,1,COL5G*%
%TO.N,Net-(R1-Pad2)*%
X118263500Y-111820000D03*
%TD*%
D13*
%TO.P,U1,1,QB*%
%TO.N,/ROW2*%
X120090000Y-104267000D03*
%TO.P,U1,2,QC*%
%TO.N,/ROW3*%
X120090000Y-102997000D03*
%TO.P,U1,3,QD*%
%TO.N,/ROW4*%
X120090000Y-101727000D03*
%TO.P,U1,4,QE*%
%TO.N,/ROW5*%
X120090000Y-100457000D03*
%TO.P,U1,5,QF*%
%TO.N,/ROW6*%
X120090000Y-99187000D03*
%TO.P,U1,6,QG*%
%TO.N,/ROW7*%
X120090000Y-97917000D03*
%TO.P,U1,7,QH*%
%TO.N,/ROW8*%
X120090000Y-96647000D03*
%TO.P,U1,8,GND*%
%TO.N,GND*%
X120090000Y-95377000D03*
%TO.P,U1,9,QH'*%
%TO.N,unconnected-(U1-Pad9)*%
X113590000Y-95377000D03*
%TO.P,U1,10,~{SRCLR}*%
%TO.N,Net-(J1-Pad5)*%
X113590000Y-96647000D03*
%TO.P,U1,11,SRCLK*%
%TO.N,/CLK*%
X113590000Y-97917000D03*
%TO.P,U1,12,RCLK*%
%TO.N,/RCLK*%
X113590000Y-99187000D03*
%TO.P,U1,13,~{OE}*%
%TO.N,GND*%
X113590000Y-100457000D03*
%TO.P,U1,14,SER*%
%TO.N,/SER_Row*%
X113590000Y-101727000D03*
%TO.P,U1,15,QA*%
%TO.N,/ROW1*%
X113590000Y-102997000D03*
%TO.P,U1,16,VCC*%
%TO.N,VCC*%
X113590000Y-104267000D03*
%TD*%
D10*
%TO.P,J1,11,6*%
%TO.N,VCC*%
X107250000Y-106045000D03*
D11*
%TO.P,J1,12,12*%
X104710000Y-106045000D03*
%TO.P,J1,9,5*%
%TO.N,GND*%
X107250000Y-103505000D03*
%TO.P,J1,10,11*%
X104710000Y-103505000D03*
%TO.P,J1,7,4*%
%TO.N,/RCLK*%
X107250000Y-100965000D03*
%TO.P,J1,8,10*%
%TO.N,/CLK*%
X104710000Y-100965000D03*
%TO.P,J1,5,3*%
%TO.N,Net-(J1-Pad5)*%
X107250000Y-98425000D03*
%TO.P,J1,6,9*%
%TO.N,Net-(J1-Pad6)*%
X104710000Y-98425000D03*
%TO.P,J1,3,2*%
%TO.N,/SER_Red*%
X107250000Y-95885000D03*
%TO.P,J1,4,8*%
%TO.N,Net-(J1-Pad4)*%
X104710000Y-95885000D03*
D12*
%TO.P,J1,1,1*%
%TO.N,/SER_Row*%
X107250000Y-93345000D03*
D11*
%TO.P,J1,2,7*%
%TO.N,/SER_Green*%
X104710000Y-93345000D03*
%TD*%
D13*
%TO.P,U3,16,VCC*%
%TO.N,VCC*%
X139371000Y-104267000D03*
%TO.P,U3,15,QA*%
%TO.N,Net-(R10-Pad2)*%
X139371000Y-102997000D03*
%TO.P,U3,14,SER*%
%TO.N,/SER_Red*%
X139371000Y-101727000D03*
%TO.P,U3,13,~{OE}*%
%TO.N,GND*%
X139371000Y-100457000D03*
%TO.P,U3,12,RCLK*%
%TO.N,/RCLK*%
X139371000Y-99187000D03*
%TO.P,U3,11,SRCLK*%
%TO.N,/CLK*%
X139371000Y-97917000D03*
%TO.P,U3,10,~{SRCLR}*%
%TO.N,Net-(J1-Pad6)*%
X139371000Y-96647000D03*
%TO.P,U3,9,QH'*%
%TO.N,unconnected-(U3-Pad9)*%
X139371000Y-95377000D03*
%TO.P,U3,8,GND*%
%TO.N,GND*%
X145871000Y-95377000D03*
%TO.P,U3,7,QH*%
%TO.N,Net-(R8-Pad1)*%
X145871000Y-96647000D03*
%TO.P,U3,6,QG*%
%TO.N,Net-(R6-Pad1)*%
X145871000Y-97917000D03*
%TO.P,U3,5,QF*%
%TO.N,Net-(R4-Pad1)*%
X145871000Y-99187000D03*
%TO.P,U3,4,QE*%
%TO.N,Net-(R2-Pad1)*%
X145871000Y-100457000D03*
%TO.P,U3,3,QD*%
%TO.N,Net-(R16-Pad2)*%
X145871000Y-101727000D03*
%TO.P,U3,2,QC*%
%TO.N,Net-(R14-Pad2)*%
X145871000Y-102997000D03*
%TO.P,U3,1,QB*%
%TO.N,Net-(R12-Pad2)*%
X145871000Y-104267000D03*
%TD*%
%TO.P,U2,1,QB*%
%TO.N,Net-(R11-Pad2)*%
X133044000Y-104267000D03*
%TO.P,U2,2,QC*%
%TO.N,Net-(R13-Pad2)*%
X133044000Y-102997000D03*
%TO.P,U2,3,QD*%
%TO.N,Net-(R15-Pad2)*%
X133044000Y-101727000D03*
%TO.P,U2,4,QE*%
%TO.N,Net-(R1-Pad1)*%
X133044000Y-100457000D03*
%TO.P,U2,5,QF*%
%TO.N,Net-(R3-Pad1)*%
X133044000Y-99187000D03*
%TO.P,U2,6,QG*%
%TO.N,Net-(R5-Pad1)*%
X133044000Y-97917000D03*
%TO.P,U2,7,QH*%
%TO.N,Net-(R7-Pad1)*%
X133044000Y-96647000D03*
%TO.P,U2,8,GND*%
%TO.N,GND*%
X133044000Y-95377000D03*
%TO.P,U2,9,QH'*%
%TO.N,unconnected-(U2-Pad9)*%
X126544000Y-95377000D03*
%TO.P,U2,10,~{SRCLR}*%
%TO.N,Net-(J1-Pad4)*%
X126544000Y-96647000D03*
%TO.P,U2,11,SRCLK*%
%TO.N,/CLK*%
X126544000Y-97917000D03*
%TO.P,U2,12,RCLK*%
%TO.N,/RCLK*%
X126544000Y-99187000D03*
%TO.P,U2,13,~{OE}*%
%TO.N,GND*%
X126544000Y-100457000D03*
%TO.P,U2,14,SER*%
%TO.N,/SER_Green*%
X126544000Y-101727000D03*
%TO.P,U2,15,QA*%
%TO.N,Net-(R9-Pad2)*%
X126544000Y-102997000D03*
%TO.P,U2,16,VCC*%
%TO.N,VCC*%
X126544000Y-104267000D03*
%TD*%
D14*
%TO.P,R16,1*%
%TO.N,Net-(R16-Pad1)*%
X143867500Y-90551000D03*
%TO.P,R16,2*%
%TO.N,Net-(R16-Pad2)*%
X145692500Y-90551000D03*
%TD*%
D15*
%TO.P,R15,1*%
%TO.N,Net-(R15-Pad1)*%
X141374500Y-92329000D03*
%TO.P,R15,2*%
%TO.N,Net-(R15-Pad2)*%
X139549500Y-92329000D03*
%TD*%
D14*
%TO.P,R14,1*%
%TO.N,Net-(R14-Pad1)*%
X136247500Y-90551000D03*
%TO.P,R14,2*%
%TO.N,Net-(R14-Pad2)*%
X138072500Y-90551000D03*
%TD*%
D15*
%TO.P,R13,1*%
%TO.N,Net-(R13-Pad1)*%
X133754500Y-92329000D03*
%TO.P,R13,2*%
%TO.N,Net-(R13-Pad2)*%
X131929500Y-92329000D03*
%TD*%
D14*
%TO.P,R12,1*%
%TO.N,Net-(R12-Pad1)*%
X128627500Y-90551000D03*
%TO.P,R12,2*%
%TO.N,Net-(R12-Pad2)*%
X130452500Y-90551000D03*
%TD*%
D15*
%TO.P,R11,1*%
%TO.N,Net-(R11-Pad1)*%
X126134500Y-92329000D03*
%TO.P,R11,2*%
%TO.N,Net-(R11-Pad2)*%
X124309500Y-92329000D03*
%TD*%
D14*
%TO.P,R10,1*%
%TO.N,Net-(R10-Pad1)*%
X121007500Y-90551000D03*
%TO.P,R10,2*%
%TO.N,Net-(R10-Pad2)*%
X122832500Y-90551000D03*
%TD*%
D15*
%TO.P,R9,1*%
%TO.N,Net-(R9-Pad1)*%
X118387500Y-92329000D03*
%TO.P,R9,2*%
%TO.N,Net-(R9-Pad2)*%
X116562500Y-92329000D03*
%TD*%
%TO.P,R8,1*%
%TO.N,Net-(R8-Pad1)*%
X145438500Y-108839000D03*
%TO.P,R8,2*%
%TO.N,Net-(R8-Pad2)*%
X143613500Y-108839000D03*
%TD*%
D14*
%TO.P,R7,1*%
%TO.N,Net-(R7-Pad1)*%
X139295500Y-107061000D03*
%TO.P,R7,2*%
%TO.N,Net-(R7-Pad2)*%
X141120500Y-107061000D03*
%TD*%
D15*
%TO.P,R6,1*%
%TO.N,Net-(R6-Pad1)*%
X137818500Y-108839000D03*
%TO.P,R6,2*%
%TO.N,Net-(R6-Pad2)*%
X135993500Y-108839000D03*
%TD*%
D14*
%TO.P,R5,1*%
%TO.N,Net-(R5-Pad1)*%
X131675500Y-107061000D03*
%TO.P,R5,2*%
%TO.N,Net-(R5-Pad2)*%
X133500500Y-107061000D03*
%TD*%
D15*
%TO.P,R4,1*%
%TO.N,Net-(R4-Pad1)*%
X130198500Y-108839000D03*
%TO.P,R4,2*%
%TO.N,Net-(R4-Pad2)*%
X128373500Y-108839000D03*
%TD*%
D14*
%TO.P,R3,1*%
%TO.N,Net-(R3-Pad1)*%
X124055500Y-106934000D03*
%TO.P,R3,2*%
%TO.N,Net-(R3-Pad2)*%
X125880500Y-106934000D03*
%TD*%
D15*
%TO.P,R2,1*%
%TO.N,Net-(R2-Pad1)*%
X122578500Y-108839000D03*
%TO.P,R2,2*%
%TO.N,Net-(R2-Pad2)*%
X120753500Y-108839000D03*
%TD*%
D14*
%TO.P,R1,1*%
%TO.N,Net-(R1-Pad1)*%
X116459000Y-108839000D03*
%TO.P,R1,2*%
%TO.N,Net-(R1-Pad2)*%
X118284000Y-108839000D03*
%TD*%
D16*
%TO.P,C3,1*%
%TO.N,GND*%
X137160000Y-100864500D03*
%TO.P,C3,2*%
%TO.N,VCC*%
X137160000Y-102589500D03*
%TD*%
%TO.P,C2,1*%
%TO.N,GND*%
X124333000Y-100737500D03*
%TO.P,C2,2*%
%TO.N,VCC*%
X124333000Y-102462500D03*
%TD*%
%TO.P,C1,1*%
%TO.N,GND*%
X110617000Y-103023500D03*
%TO.P,C1,2*%
%TO.N,VCC*%
X110617000Y-104748500D03*
%TD*%
D17*
%TO.N,Net-(R14-Pad2)*%
X144272000Y-102997000D03*
%TO.N,Net-(R16-Pad2)*%
X144272000Y-101727000D03*
%TO.N,Net-(R8-Pad1)*%
X144272000Y-96647000D03*
%TO.N,Net-(R12-Pad2)*%
X144272000Y-104267000D03*
%TO.N,Net-(R15-Pad2)*%
X135001000Y-101727000D03*
%TO.N,/CLK*%
X141351000Y-97917000D03*
%TO.N,Net-(R10-Pad2)*%
X141351000Y-103124000D03*
%TO.N,Net-(R7-Pad1)*%
X135128000Y-96647000D03*
%TO.N,Net-(R6-Pad1)*%
X144272000Y-97917000D03*
%TO.N,Net-(R4-Pad1)*%
X144272000Y-99187000D03*
%TO.N,Net-(R2-Pad1)*%
X144272000Y-100457000D03*
%TO.N,Net-(R5-Pad1)*%
X130238500Y-106997500D03*
%TO.N,Net-(J1-Pad6)*%
X137414000Y-96647000D03*
%TO.N,Net-(J1-Pad4)*%
X128397000Y-96520000D03*
%TO.N,Net-(R9-Pad2)*%
X114490500Y-92646500D03*
%TO.N,/SER_Red*%
X141351000Y-101727000D03*
%TO.N,/CLK*%
X124206000Y-97917000D03*
%TO.N,Net-(R5-Pad1)*%
X131064000Y-96647000D03*
%TO.N,Net-(R1-Pad1)*%
X131318000Y-101727000D03*
X118745000Y-106934000D03*
%TO.N,Net-(R3-Pad1)*%
X131318000Y-100076000D03*
%TO.N,Net-(R11-Pad2)*%
X131318000Y-104267000D03*
%TO.N,Net-(R13-Pad2)*%
X131318000Y-102997000D03*
X130175000Y-92329000D03*
%TO.N,Net-(R11-Pad2)*%
X122301000Y-92329000D03*
%TO.N,Net-(R9-Pad2)*%
X128397000Y-102997000D03*
%TO.N,Net-(R10-Pad2)*%
X124968000Y-90551000D03*
%TO.N,Net-(R12-Pad2)*%
X132588000Y-90551000D03*
%TO.N,Net-(R14-Pad2)*%
X140462000Y-90551000D03*
%TO.N,Net-(R15-Pad2)*%
X136525000Y-92329000D03*
%TO.N,Net-(R16-Pad2)*%
X145669000Y-92202000D03*
%TO.N,Net-(R3-Pad1)*%
X122301000Y-106934000D03*
%TO.N,Net-(R2-Pad1)*%
X124714000Y-108839000D03*
%TO.N,Net-(R4-Pad1)*%
X132207000Y-108839000D03*
%TO.N,Net-(R7-Pad1)*%
X136906000Y-107061000D03*
%TO.N,Net-(R6-Pad1)*%
X139827000Y-108839000D03*
%TO.N,Net-(R8-Pad1)*%
X145415000Y-107061000D03*
D18*
%TO.N,VCC*%
X137186500Y-104267000D03*
D17*
%TO.N,/SER_Green*%
X128397000Y-101727000D03*
D18*
%TO.N,VCC*%
X124386000Y-104267000D03*
D17*
%TO.N,/ROW2*%
X118110000Y-105664000D03*
%TO.N,/ROW3*%
X118110000Y-104140000D03*
%TO.N,/ROW4*%
X118110000Y-102743000D03*
%TO.N,/RCLK*%
X141351000Y-99187000D03*
X129032000Y-99187000D03*
X115443000Y-99187000D03*
%TO.N,/ROW8*%
X118110000Y-95758000D03*
%TO.N,/ROW1*%
X115443000Y-102997000D03*
%TO.N,/CLK*%
X111125000Y-97917000D03*
%TO.N,/SER_Row*%
X111252000Y-100457000D03*
%TO.N,/ROW7*%
X118110000Y-97155000D03*
%TO.N,/ROW6*%
X118110000Y-99949000D03*
%TO.N,/ROW5*%
X118110000Y-101219000D03*
%TD*%
D19*
%TO.N,Net-(R15-Pad1)*%
X141986000Y-88402500D02*
X141343500Y-87760000D01*
X141374500Y-92329000D02*
X141986000Y-91717500D01*
X141986000Y-91717500D02*
X141986000Y-88402500D01*
%TO.N,Net-(R9-Pad2)*%
X114808000Y-92329000D02*
X114490500Y-92646500D01*
X116562500Y-92329000D02*
X114808000Y-92329000D01*
%TO.N,Net-(R9-Pad1)*%
X118387500Y-87856000D02*
X118483500Y-87760000D01*
X118387500Y-92329000D02*
X118387500Y-87856000D01*
D20*
%TO.N,VCC*%
X113108500Y-104748500D02*
X113590000Y-104267000D01*
X110617000Y-104748500D02*
X113108500Y-104748500D01*
X109574500Y-105055500D02*
X109881500Y-104748500D01*
X109881500Y-104748500D02*
X110617000Y-104748500D01*
D19*
%TO.N,/CLK*%
X113590000Y-97917000D02*
X111125000Y-97917000D01*
%TO.N,/SER_Row*%
X111252000Y-100457000D02*
X112522000Y-101727000D01*
X112522000Y-101727000D02*
X113590000Y-101727000D01*
%TO.N,Net-(R14-Pad2)*%
X144272000Y-102997000D02*
X145871000Y-102997000D01*
%TO.N,Net-(R16-Pad2)*%
X144272000Y-101727000D02*
X145871000Y-101727000D01*
%TO.N,Net-(R8-Pad1)*%
X144272000Y-96647000D02*
X145871000Y-96647000D01*
%TO.N,Net-(R12-Pad2)*%
X144272000Y-104267000D02*
X145871000Y-104267000D01*
%TO.N,Net-(R5-Pad1)*%
X132334000Y-97917000D02*
X133044000Y-97917000D01*
X131064000Y-96647000D02*
X132334000Y-97917000D01*
%TO.N,Net-(R15-Pad2)*%
X133044000Y-101727000D02*
X135001000Y-101727000D01*
%TO.N,Net-(R7-Pad1)*%
X135128000Y-96647000D02*
X133044000Y-96647000D01*
%TO.N,/CLK*%
X141351000Y-97917000D02*
X139371000Y-97917000D01*
%TO.N,Net-(R10-Pad2)*%
X139498000Y-103124000D02*
X139371000Y-102997000D01*
X141351000Y-103124000D02*
X139498000Y-103124000D01*
%TO.N,Net-(R6-Pad1)*%
X144272000Y-97917000D02*
X145871000Y-97917000D01*
%TO.N,VCC*%
X137186500Y-102616000D02*
X137160000Y-102589500D01*
X137186500Y-104267000D02*
X137186500Y-102616000D01*
%TO.N,/SER_Red*%
X141351000Y-101727000D02*
X139371000Y-101727000D01*
%TO.N,/RCLK*%
X139371000Y-99187000D02*
X141351000Y-99187000D01*
%TO.N,Net-(R4-Pad1)*%
X144272000Y-99187000D02*
X145871000Y-99187000D01*
%TO.N,Net-(R2-Pad1)*%
X144272000Y-100457000D02*
X145871000Y-100457000D01*
%TO.N,Net-(R5-Pad1)*%
X130302000Y-107061000D02*
X131675500Y-107061000D01*
X130238500Y-106997500D02*
X130302000Y-107061000D01*
%TO.N,Net-(J1-Pad6)*%
X137414000Y-96647000D02*
X139371000Y-96647000D01*
%TO.N,Net-(J1-Pad4)*%
X126671000Y-96520000D02*
X126544000Y-96647000D01*
X128397000Y-96520000D02*
X126671000Y-96520000D01*
%TO.N,/CLK*%
X124206000Y-97917000D02*
X126544000Y-97917000D01*
%TO.N,/SER_Green*%
X126544000Y-101727000D02*
X128397000Y-101727000D01*
%TO.N,Net-(R9-Pad2)*%
X126544000Y-102997000D02*
X128397000Y-102997000D01*
%TO.N,Net-(R3-Pad1)*%
X132207000Y-99187000D02*
X133044000Y-99187000D01*
X131318000Y-100076000D02*
X132207000Y-99187000D01*
%TO.N,Net-(R1-Pad1)*%
X132588000Y-100457000D02*
X133044000Y-100457000D01*
X131318000Y-101727000D02*
X132588000Y-100457000D01*
%TO.N,Net-(R13-Pad2)*%
X133044000Y-102997000D02*
X131318000Y-102997000D01*
%TO.N,Net-(R11-Pad2)*%
X133044000Y-104267000D02*
X131318000Y-104267000D01*
%TO.N,Net-(R1-Pad1)*%
X117348000Y-106934000D02*
X118745000Y-106934000D01*
X117221000Y-107061000D02*
X117348000Y-106934000D01*
X116459000Y-107823000D02*
X117221000Y-107061000D01*
X116459000Y-108839000D02*
X116459000Y-107823000D01*
%TO.N,/RCLK*%
X126544000Y-99187000D02*
X129032000Y-99187000D01*
%TO.N,Net-(R13-Pad2)*%
X131929500Y-92329000D02*
X130175000Y-92329000D01*
%TO.N,Net-(R11-Pad2)*%
X124309500Y-92329000D02*
X122301000Y-92329000D01*
D20*
%TO.N,VCC*%
X124333000Y-104214000D02*
X124333000Y-102462500D01*
D19*
X124386000Y-104267000D02*
X124333000Y-104214000D01*
%TO.N,Net-(R11-Pad1)*%
X126492000Y-88148500D02*
X126103500Y-87760000D01*
X126492000Y-91971500D02*
X126492000Y-88148500D01*
X126134500Y-92329000D02*
X126492000Y-91971500D01*
%TO.N,Net-(R10-Pad2)*%
X122832500Y-90551000D02*
X124968000Y-90551000D01*
%TO.N,Net-(R13-Pad1)*%
X134239000Y-91844500D02*
X133754500Y-92329000D01*
X134239000Y-88900000D02*
X134239000Y-91844500D01*
X133723500Y-88384500D02*
X134239000Y-88900000D01*
X133723500Y-87760000D02*
X133723500Y-88384500D01*
%TO.N,Net-(R12-Pad2)*%
X130452500Y-90551000D02*
X132588000Y-90551000D01*
%TO.N,Net-(R14-Pad2)*%
X138072500Y-90551000D02*
X140462000Y-90551000D01*
%TO.N,Net-(R15-Pad2)*%
X139549500Y-92329000D02*
X136525000Y-92329000D01*
%TO.N,Net-(R16-Pad2)*%
X145692500Y-92178500D02*
X145669000Y-92202000D01*
X145692500Y-90551000D02*
X145692500Y-92178500D01*
%TO.N,Net-(R10-Pad1)*%
X121007500Y-87776000D02*
X121023500Y-87760000D01*
X121007500Y-90551000D02*
X121007500Y-87776000D01*
%TO.N,Net-(R12-Pad1)*%
X128627500Y-90551000D02*
X128627500Y-87776000D01*
X128627500Y-87776000D02*
X128643500Y-87760000D01*
%TO.N,Net-(R14-Pad1)*%
X136247500Y-87776000D02*
X136263500Y-87760000D01*
X136247500Y-90551000D02*
X136247500Y-87776000D01*
%TO.N,Net-(R16-Pad1)*%
X143867500Y-87776000D02*
X143883500Y-87760000D01*
X143867500Y-90551000D02*
X143867500Y-87776000D01*
%TO.N,Net-(R3-Pad1)*%
X124055500Y-106934000D02*
X122301000Y-106934000D01*
%TO.N,Net-(R2-Pad1)*%
X122578500Y-108839000D02*
X124714000Y-108839000D01*
%TO.N,Net-(R4-Pad1)*%
X130198500Y-108839000D02*
X132207000Y-108839000D01*
%TO.N,Net-(R7-Pad1)*%
X139295500Y-107061000D02*
X136906000Y-107061000D01*
%TO.N,Net-(R6-Pad1)*%
X137818500Y-108839000D02*
X139827000Y-108839000D01*
%TO.N,Net-(R8-Pad1)*%
X145438500Y-107084500D02*
X145415000Y-107061000D01*
X145438500Y-108839000D02*
X145438500Y-107084500D01*
%TO.N,Net-(R8-Pad2)*%
X143663500Y-108889000D02*
X143613500Y-108839000D01*
X143663500Y-111820000D02*
X143663500Y-108889000D01*
%TO.N,Net-(R7-Pad2)*%
X141859000Y-107799500D02*
X141120500Y-107061000D01*
X141123500Y-111479500D02*
X141859000Y-110744000D01*
X141123500Y-111820000D02*
X141123500Y-111479500D01*
X141859000Y-110744000D02*
X141859000Y-107799500D01*
%TO.N,Net-(R6-Pad2)*%
X136043500Y-108889000D02*
X135993500Y-108839000D01*
X136043500Y-111820000D02*
X136043500Y-108889000D01*
%TO.N,Net-(R5-Pad2)*%
X134112000Y-110871000D02*
X134112000Y-107672500D01*
X133503500Y-111479500D02*
X134112000Y-110871000D01*
X133503500Y-111820000D02*
X133503500Y-111479500D01*
X134112000Y-107672500D02*
X133500500Y-107061000D01*
%TO.N,Net-(R4-Pad2)*%
X128423500Y-108889000D02*
X128373500Y-108839000D01*
X128423500Y-111820000D02*
X128423500Y-108889000D01*
%TO.N,Net-(R3-Pad2)*%
X126365000Y-107418500D02*
X125880500Y-106934000D01*
X126365000Y-111338500D02*
X126365000Y-107418500D01*
X125883500Y-111820000D02*
X126365000Y-111338500D01*
%TO.N,Net-(R2-Pad2)*%
X120803500Y-108889000D02*
X120753500Y-108839000D01*
X120803500Y-111820000D02*
X120803500Y-108889000D01*
%TO.N,Net-(R1-Pad2)*%
X118263500Y-108859500D02*
X118284000Y-108839000D01*
X118263500Y-111820000D02*
X118263500Y-108859500D01*
D20*
%TO.N,VCC*%
X108585000Y-106045000D02*
X109574500Y-105055500D01*
X107250000Y-106045000D02*
X108585000Y-106045000D01*
X139371000Y-104267000D02*
X137186500Y-104267000D01*
D19*
%TO.N,/ROW1*%
X113590000Y-102997000D02*
X115443000Y-102997000D01*
%TO.N,/RCLK*%
X113590000Y-99187000D02*
X115443000Y-99187000D01*
D20*
%TO.N,VCC*%
X126544000Y-104267000D02*
X124386000Y-104267000D01*
D19*
%TO.N,/ROW2*%
X119507000Y-104267000D02*
X118110000Y-105664000D01*
X120090000Y-104267000D02*
X119507000Y-104267000D01*
%TO.N,/ROW3*%
X119253000Y-102997000D02*
X118110000Y-104140000D01*
X120090000Y-102997000D02*
X119253000Y-102997000D01*
%TO.N,/ROW4*%
X119126000Y-101727000D02*
X118110000Y-102743000D01*
X120090000Y-101727000D02*
X119126000Y-101727000D01*
%TO.N,/ROW5*%
X118872000Y-100457000D02*
X120090000Y-100457000D01*
X118110000Y-101219000D02*
X118872000Y-100457000D01*
%TO.N,/ROW6*%
X118872000Y-99187000D02*
X120090000Y-99187000D01*
X118110000Y-99949000D02*
X118872000Y-99187000D01*
%TO.N,/ROW7*%
X118872000Y-97917000D02*
X118110000Y-97155000D01*
X120090000Y-97917000D02*
X118872000Y-97917000D01*
%TO.N,/ROW8*%
X118999000Y-96647000D02*
X118110000Y-95758000D01*
X120090000Y-96647000D02*
X118999000Y-96647000D01*
%TO.N,Net-(J1-Pad5)*%
X108267500Y-98425000D02*
X107250000Y-98425000D01*
X113590000Y-96647000D02*
X110045500Y-96647000D01*
X110045500Y-96647000D02*
X108267500Y-98425000D01*
%TO.N,/RCLK*%
X108331000Y-100965000D02*
X107250000Y-100965000D01*
X113590000Y-99187000D02*
X110109000Y-99187000D01*
X110109000Y-99187000D02*
X108331000Y-100965000D01*
%TD*%
%TA.AperFunction,Conductor*%
%TO.N,GND*%
G36*
X148404621Y-86126502D02*
G01*
X148451114Y-86180158D01*
X148462500Y-86232500D01*
X148462500Y-113411500D01*
X148442498Y-113479621D01*
X148388842Y-113526114D01*
X148336500Y-113537500D01*
X100964500Y-113537500D01*
X100896379Y-113517498D01*
X100849886Y-113463842D01*
X100838500Y-113411500D01*
X100838500Y-109126072D01*
X115463000Y-109126072D01*
X115463337Y-109129318D01*
X115463337Y-109129322D01*
X115470025Y-109193773D01*
X115473793Y-109230093D01*
X115528846Y-109395107D01*
X115620384Y-109543031D01*
X115625566Y-109548204D01*
X115738316Y-109660758D01*
X115738321Y-109660762D01*
X115743497Y-109665929D01*
X115749727Y-109669769D01*
X115749728Y-109669770D01*
X115880422Y-109750331D01*
X115891580Y-109757209D01*
X116056691Y-109811974D01*
X116063527Y-109812674D01*
X116063530Y-109812675D01*
X116112032Y-109817644D01*
X116159428Y-109822500D01*
X116758572Y-109822500D01*
X116761818Y-109822163D01*
X116761822Y-109822163D01*
X116855735Y-109812419D01*
X116855739Y-109812418D01*
X116862593Y-109811707D01*
X116869129Y-109809526D01*
X116869131Y-109809526D01*
X117008118Y-109763156D01*
X117027607Y-109756654D01*
X117175531Y-109665116D01*
X117239042Y-109601494D01*
X117282247Y-109558214D01*
X117344530Y-109524135D01*
X117415350Y-109529138D01*
X117460437Y-109558059D01*
X117563312Y-109660754D01*
X117563317Y-109660758D01*
X117568497Y-109665929D01*
X117574728Y-109669770D01*
X117580473Y-109674307D01*
X117578737Y-109676505D01*
X117617610Y-109719701D01*
X117630000Y-109774187D01*
X117630000Y-110335500D01*
X117609998Y-110403621D01*
X117556342Y-110450114D01*
X117504000Y-110461500D01*
X117365366Y-110461500D01*
X117303184Y-110468255D01*
X117166795Y-110519385D01*
X117050239Y-110606739D01*
X116962885Y-110723295D01*
X116911755Y-110859684D01*
X116905000Y-110921866D01*
X116905000Y-112718134D01*
X116911755Y-112780316D01*
X116962885Y-112916705D01*
X117050239Y-113033261D01*
X117166795Y-113120615D01*
X117303184Y-113171745D01*
X117365366Y-113178500D01*
X119161634Y-113178500D01*
X119223816Y-113171745D01*
X119360205Y-113120615D01*
X119476761Y-113033261D01*
X119564115Y-112916705D01*
X119586299Y-112857529D01*
X119608098Y-112799382D01*
X119650740Y-112742618D01*
X119717302Y-112717918D01*
X119786650Y-112733126D01*
X119821317Y-112761114D01*
X119849750Y-112793938D01*
X120021626Y-112936632D01*
X120214500Y-113049338D01*
X120423192Y-113129030D01*
X120428260Y-113130061D01*
X120428263Y-113130062D01*
X120535517Y-113151883D01*
X120642097Y-113173567D01*
X120647272Y-113173757D01*
X120647274Y-113173757D01*
X120860173Y-113181564D01*
X120860177Y-113181564D01*
X120865337Y-113181753D01*
X120870457Y-113181097D01*
X120870459Y-113181097D01*
X121081788Y-113154025D01*
X121081789Y-113154025D01*
X121086916Y-113153368D01*
X121091866Y-113151883D01*
X121295929Y-113090661D01*
X121295934Y-113090659D01*
X121300884Y-113089174D01*
X121501494Y-112990896D01*
X121683360Y-112861173D01*
X121841596Y-112703489D01*
X121971953Y-112522077D01*
X121973276Y-112523028D01*
X122020145Y-112479857D01*
X122090080Y-112467625D01*
X122155526Y-112495144D01*
X122183375Y-112526994D01*
X122243487Y-112625088D01*
X122389750Y-112793938D01*
X122561626Y-112936632D01*
X122754500Y-113049338D01*
X122963192Y-113129030D01*
X122968260Y-113130061D01*
X122968263Y-113130062D01*
X123075517Y-113151883D01*
X123182097Y-113173567D01*
X123187272Y-113173757D01*
X123187274Y-113173757D01*
X123400173Y-113181564D01*
X123400177Y-113181564D01*
X123405337Y-113181753D01*
X123410457Y-113181097D01*
X123410459Y-113181097D01*
X123621788Y-113154025D01*
X123621789Y-113154025D01*
X123626916Y-113153368D01*
X123631866Y-113151883D01*
X123835929Y-113090661D01*
X123835934Y-113090659D01*
X123840884Y-113089174D01*
X124041494Y-112990896D01*
X124223360Y-112861173D01*
X124381596Y-112703489D01*
X124511953Y-112522077D01*
X124513276Y-112523028D01*
X124560145Y-112479857D01*
X124630080Y-112467625D01*
X124695526Y-112495144D01*
X124723375Y-112526994D01*
X124783487Y-112625088D01*
X124929750Y-112793938D01*
X125101626Y-112936632D01*
X125294500Y-113049338D01*
X125503192Y-113129030D01*
X125508260Y-113130061D01*
X125508263Y-113130062D01*
X125615517Y-113151883D01*
X125722097Y-113173567D01*
X125727272Y-113173757D01*
X125727274Y-113173757D01*
X125940173Y-113181564D01*
X125940177Y-113181564D01*
X125945337Y-113181753D01*
X125950457Y-113181097D01*
X125950459Y-113181097D01*
X126161788Y-113154025D01*
X126161789Y-113154025D01*
X126166916Y-113153368D01*
X126171866Y-113151883D01*
X126375929Y-113090661D01*
X126375934Y-113090659D01*
X126380884Y-113089174D01*
X126581494Y-112990896D01*
X126763360Y-112861173D01*
X126921596Y-112703489D01*
X127051953Y-112522077D01*
X127053276Y-112523028D01*
X127100145Y-112479857D01*
X127170080Y-112467625D01*
X127235526Y-112495144D01*
X127263375Y-112526994D01*
X127323487Y-112625088D01*
X127469750Y-112793938D01*
X127641626Y-112936632D01*
X127834500Y-113049338D01*
X128043192Y-113129030D01*
X128048260Y-113130061D01*
X128048263Y-113130062D01*
X128155517Y-113151883D01*
X128262097Y-113173567D01*
X128267272Y-113173757D01*
X128267274Y-113173757D01*
X128480173Y-113181564D01*
X128480177Y-113181564D01*
X128485337Y-113181753D01*
X128490457Y-113181097D01*
X128490459Y-113181097D01*
X128701788Y-113154025D01*
X128701789Y-113154025D01*
X128706916Y-113153368D01*
X128711866Y-113151883D01*
X128915929Y-113090661D01*
X128915934Y-113090659D01*
X128920884Y-113089174D01*
X129121494Y-112990896D01*
X129303360Y-112861173D01*
X129461596Y-112703489D01*
X129591953Y-112522077D01*
X129593276Y-112523028D01*
X129640145Y-112479857D01*
X129710080Y-112467625D01*
X129775526Y-112495144D01*
X129803375Y-112526994D01*
X129863487Y-112625088D01*
X130009750Y-112793938D01*
X130181626Y-112936632D01*
X130374500Y-113049338D01*
X130583192Y-113129030D01*
X130588260Y-113130061D01*
X130588263Y-113130062D01*
X130695517Y-113151883D01*
X130802097Y-113173567D01*
X130807272Y-113173757D01*
X130807274Y-113173757D01*
X131020173Y-113181564D01*
X131020177Y-113181564D01*
X131025337Y-113181753D01*
X131030457Y-113181097D01*
X131030459Y-113181097D01*
X131241788Y-113154025D01*
X131241789Y-113154025D01*
X131246916Y-113153368D01*
X131251866Y-113151883D01*
X131455929Y-113090661D01*
X131455934Y-113090659D01*
X131460884Y-113089174D01*
X131661494Y-112990896D01*
X131843360Y-112861173D01*
X132001596Y-112703489D01*
X132131953Y-112522077D01*
X132133276Y-112523028D01*
X132180145Y-112479857D01*
X132250080Y-112467625D01*
X132315526Y-112495144D01*
X132343375Y-112526994D01*
X132403487Y-112625088D01*
X132549750Y-112793938D01*
X132721626Y-112936632D01*
X132914500Y-113049338D01*
X133123192Y-113129030D01*
X133128260Y-113130061D01*
X133128263Y-113130062D01*
X133235517Y-113151883D01*
X133342097Y-113173567D01*
X133347272Y-113173757D01*
X133347274Y-113173757D01*
X133560173Y-113181564D01*
X133560177Y-113181564D01*
X133565337Y-113181753D01*
X133570457Y-113181097D01*
X133570459Y-113181097D01*
X133781788Y-113154025D01*
X133781789Y-113154025D01*
X133786916Y-113153368D01*
X133791866Y-113151883D01*
X133995929Y-113090661D01*
X133995934Y-113090659D01*
X134000884Y-113089174D01*
X134201494Y-112990896D01*
X134383360Y-112861173D01*
X134541596Y-112703489D01*
X134671953Y-112522077D01*
X134673276Y-112523028D01*
X134720145Y-112479857D01*
X134790080Y-112467625D01*
X134855526Y-112495144D01*
X134883375Y-112526994D01*
X134943487Y-112625088D01*
X135089750Y-112793938D01*
X135261626Y-112936632D01*
X135454500Y-113049338D01*
X135663192Y-113129030D01*
X135668260Y-113130061D01*
X135668263Y-113130062D01*
X135775517Y-113151883D01*
X135882097Y-113173567D01*
X135887272Y-113173757D01*
X135887274Y-113173757D01*
X136100173Y-113181564D01*
X136100177Y-113181564D01*
X136105337Y-113181753D01*
X136110457Y-113181097D01*
X136110459Y-113181097D01*
X136321788Y-113154025D01*
X136321789Y-113154025D01*
X136326916Y-113153368D01*
X136331866Y-113151883D01*
X136535929Y-113090661D01*
X136535934Y-113090659D01*
X136540884Y-113089174D01*
X136741494Y-112990896D01*
X136923360Y-112861173D01*
X137081596Y-112703489D01*
X137211953Y-112522077D01*
X137213276Y-112523028D01*
X137260145Y-112479857D01*
X137330080Y-112467625D01*
X137395526Y-112495144D01*
X137423375Y-112526994D01*
X137483487Y-112625088D01*
X137629750Y-112793938D01*
X137801626Y-112936632D01*
X137994500Y-113049338D01*
X138203192Y-113129030D01*
X138208260Y-113130061D01*
X138208263Y-113130062D01*
X138315517Y-113151883D01*
X138422097Y-113173567D01*
X138427272Y-113173757D01*
X138427274Y-113173757D01*
X138640173Y-113181564D01*
X138640177Y-113181564D01*
X138645337Y-113181753D01*
X138650457Y-113181097D01*
X138650459Y-113181097D01*
X138861788Y-113154025D01*
X138861789Y-113154025D01*
X138866916Y-113153368D01*
X138871866Y-113151883D01*
X139075929Y-113090661D01*
X139075934Y-113090659D01*
X139080884Y-113089174D01*
X139281494Y-112990896D01*
X139463360Y-112861173D01*
X139621596Y-112703489D01*
X139751953Y-112522077D01*
X139753276Y-112523028D01*
X139800145Y-112479857D01*
X139870080Y-112467625D01*
X139935526Y-112495144D01*
X139963375Y-112526994D01*
X140023487Y-112625088D01*
X140169750Y-112793938D01*
X140341626Y-112936632D01*
X140534500Y-113049338D01*
X140743192Y-113129030D01*
X140748260Y-113130061D01*
X140748263Y-113130062D01*
X140855517Y-113151883D01*
X140962097Y-113173567D01*
X140967272Y-113173757D01*
X140967274Y-113173757D01*
X141180173Y-113181564D01*
X141180177Y-113181564D01*
X141185337Y-113181753D01*
X141190457Y-113181097D01*
X141190459Y-113181097D01*
X141401788Y-113154025D01*
X141401789Y-113154025D01*
X141406916Y-113153368D01*
X141411866Y-113151883D01*
X141615929Y-113090661D01*
X141615934Y-113090659D01*
X141620884Y-113089174D01*
X141821494Y-112990896D01*
X142003360Y-112861173D01*
X142161596Y-112703489D01*
X142291953Y-112522077D01*
X142293276Y-112523028D01*
X142340145Y-112479857D01*
X142410080Y-112467625D01*
X142475526Y-112495144D01*
X142503375Y-112526994D01*
X142563487Y-112625088D01*
X142709750Y-112793938D01*
X142881626Y-112936632D01*
X143074500Y-113049338D01*
X143283192Y-113129030D01*
X143288260Y-113130061D01*
X143288263Y-113130062D01*
X143395517Y-113151883D01*
X143502097Y-113173567D01*
X143507272Y-113173757D01*
X143507274Y-113173757D01*
X143720173Y-113181564D01*
X143720177Y-113181564D01*
X143725337Y-113181753D01*
X143730457Y-113181097D01*
X143730459Y-113181097D01*
X143941788Y-113154025D01*
X143941789Y-113154025D01*
X143946916Y-113153368D01*
X143951866Y-113151883D01*
X144155929Y-113090661D01*
X144155934Y-113090659D01*
X144160884Y-113089174D01*
X144361494Y-112990896D01*
X144543360Y-112861173D01*
X144701596Y-112703489D01*
X144831953Y-112522077D01*
X144833276Y-112523028D01*
X144880145Y-112479857D01*
X144950080Y-112467625D01*
X145015526Y-112495144D01*
X145043375Y-112526994D01*
X145103487Y-112625088D01*
X145249750Y-112793938D01*
X145421626Y-112936632D01*
X145614500Y-113049338D01*
X145823192Y-113129030D01*
X145828260Y-113130061D01*
X145828263Y-113130062D01*
X145935517Y-113151883D01*
X146042097Y-113173567D01*
X146047272Y-113173757D01*
X146047274Y-113173757D01*
X146260173Y-113181564D01*
X146260177Y-113181564D01*
X146265337Y-113181753D01*
X146270457Y-113181097D01*
X146270459Y-113181097D01*
X146481788Y-113154025D01*
X146481789Y-113154025D01*
X146486916Y-113153368D01*
X146491866Y-113151883D01*
X146695929Y-113090661D01*
X146695934Y-113090659D01*
X146700884Y-113089174D01*
X146901494Y-112990896D01*
X147083360Y-112861173D01*
X147241596Y-112703489D01*
X147371953Y-112522077D01*
X147392820Y-112479857D01*
X147468636Y-112326453D01*
X147468637Y-112326451D01*
X147470930Y-112321811D01*
X147535870Y-112108069D01*
X147565029Y-111886590D01*
X147566656Y-111820000D01*
X147548352Y-111597361D01*
X147493931Y-111380702D01*
X147404854Y-111175840D01*
X147318500Y-111042357D01*
X147286322Y-110992617D01*
X147286320Y-110992614D01*
X147283514Y-110988277D01*
X147133170Y-110823051D01*
X147129119Y-110819852D01*
X147129115Y-110819848D01*
X146961914Y-110687800D01*
X146961910Y-110687798D01*
X146957859Y-110684598D01*
X146953331Y-110682098D01*
X146837488Y-110618150D01*
X146762289Y-110576638D01*
X146757420Y-110574914D01*
X146757416Y-110574912D01*
X146556587Y-110503795D01*
X146556583Y-110503794D01*
X146551712Y-110502069D01*
X146546619Y-110501162D01*
X146546616Y-110501161D01*
X146336873Y-110463800D01*
X146336867Y-110463799D01*
X146331784Y-110462894D01*
X146257952Y-110461992D01*
X146113581Y-110460228D01*
X146113579Y-110460228D01*
X146108411Y-110460165D01*
X145887591Y-110493955D01*
X145675256Y-110563357D01*
X145644943Y-110579137D01*
X145501475Y-110653822D01*
X145477107Y-110666507D01*
X145472974Y-110669610D01*
X145472971Y-110669612D01*
X145347182Y-110764057D01*
X145298465Y-110800635D01*
X145294893Y-110804373D01*
X145174266Y-110930602D01*
X145144129Y-110962138D01*
X145036701Y-111119621D01*
X144981793Y-111164621D01*
X144911268Y-111172792D01*
X144847521Y-111141538D01*
X144826824Y-111117054D01*
X144746322Y-110992617D01*
X144746320Y-110992614D01*
X144743514Y-110988277D01*
X144593170Y-110823051D01*
X144589119Y-110819852D01*
X144589115Y-110819848D01*
X144421914Y-110687800D01*
X144421910Y-110687798D01*
X144417859Y-110684598D01*
X144413335Y-110682101D01*
X144413331Y-110682098D01*
X144362108Y-110653822D01*
X144312136Y-110603390D01*
X144297000Y-110543513D01*
X144297000Y-109750331D01*
X144317002Y-109682210D01*
X144333827Y-109661313D01*
X144436747Y-109558214D01*
X144499030Y-109524135D01*
X144569850Y-109529138D01*
X144614937Y-109558059D01*
X144717812Y-109660754D01*
X144717817Y-109660758D01*
X144722997Y-109665929D01*
X144729227Y-109669769D01*
X144729228Y-109669770D01*
X144859922Y-109750331D01*
X144871080Y-109757209D01*
X145036191Y-109811974D01*
X145043027Y-109812674D01*
X145043030Y-109812675D01*
X145091532Y-109817644D01*
X145138928Y-109822500D01*
X145738072Y-109822500D01*
X145741318Y-109822163D01*
X145741322Y-109822163D01*
X145835235Y-109812419D01*
X145835239Y-109812418D01*
X145842093Y-109811707D01*
X145848629Y-109809526D01*
X145848631Y-109809526D01*
X145987618Y-109763156D01*
X146007107Y-109756654D01*
X146155031Y-109665116D01*
X146160204Y-109659934D01*
X146272758Y-109547184D01*
X146272762Y-109547179D01*
X146277929Y-109542003D01*
X146284983Y-109530559D01*
X146365369Y-109400150D01*
X146365370Y-109400148D01*
X146369209Y-109393920D01*
X146423974Y-109228809D01*
X146434500Y-109126072D01*
X146434500Y-108551928D01*
X146430756Y-108515846D01*
X146424419Y-108454765D01*
X146424418Y-108454761D01*
X146423707Y-108447907D01*
X146368654Y-108282893D01*
X146277116Y-108134969D01*
X146154003Y-108012071D01*
X146147776Y-108008233D01*
X146147774Y-108008231D01*
X146131884Y-107998436D01*
X146084391Y-107945664D01*
X146072000Y-107891176D01*
X146072000Y-107480892D01*
X146089366Y-107423366D01*
X146086773Y-107422033D01*
X146089989Y-107415775D01*
X146093891Y-107409902D01*
X146154319Y-107250825D01*
X146178001Y-107082313D01*
X146178299Y-107061000D01*
X146159331Y-106891892D01*
X146103368Y-106731189D01*
X146098764Y-106723820D01*
X146065074Y-106669907D01*
X146013192Y-106586879D01*
X146001016Y-106574617D01*
X145898248Y-106471129D01*
X145893286Y-106466132D01*
X145877039Y-106455821D01*
X145800033Y-106406952D01*
X145749608Y-106374951D01*
X145589300Y-106317868D01*
X145420329Y-106297720D01*
X145413326Y-106298456D01*
X145413325Y-106298456D01*
X145258101Y-106314770D01*
X145258097Y-106314771D01*
X145251093Y-106315507D01*
X145244422Y-106317778D01*
X145096673Y-106368075D01*
X145096670Y-106368076D01*
X145090003Y-106370346D01*
X145084005Y-106374036D01*
X145084003Y-106374037D01*
X144951065Y-106455821D01*
X144951063Y-106455823D01*
X144945066Y-106459512D01*
X144823486Y-106578573D01*
X144819675Y-106584487D01*
X144819673Y-106584489D01*
X144760205Y-106676765D01*
X144731304Y-106721610D01*
X144701347Y-106803915D01*
X144682400Y-106855974D01*
X144673103Y-106881516D01*
X144651775Y-107050343D01*
X144668381Y-107219699D01*
X144722094Y-107381167D01*
X144725741Y-107387189D01*
X144725742Y-107387191D01*
X144786776Y-107487970D01*
X144805000Y-107553241D01*
X144805000Y-107891301D01*
X144784998Y-107959422D01*
X144745302Y-107998445D01*
X144721969Y-108012884D01*
X144716796Y-108018066D01*
X144615253Y-108119786D01*
X144552970Y-108153865D01*
X144482150Y-108148862D01*
X144437063Y-108119941D01*
X144334188Y-108017246D01*
X144334183Y-108017242D01*
X144329003Y-108012071D01*
X144250586Y-107963734D01*
X144187150Y-107924631D01*
X144187148Y-107924630D01*
X144180920Y-107920791D01*
X144015809Y-107866026D01*
X144008973Y-107865326D01*
X144008970Y-107865325D01*
X143945466Y-107858819D01*
X143913072Y-107855500D01*
X143313928Y-107855500D01*
X143310682Y-107855837D01*
X143310678Y-107855837D01*
X143216765Y-107865581D01*
X143216761Y-107865582D01*
X143209907Y-107866293D01*
X143203371Y-107868474D01*
X143203369Y-107868474D01*
X143134949Y-107891301D01*
X143044893Y-107921346D01*
X142896969Y-108012884D01*
X142891796Y-108018066D01*
X142779242Y-108130816D01*
X142779238Y-108130821D01*
X142774071Y-108135997D01*
X142770231Y-108142227D01*
X142770230Y-108142228D01*
X142725760Y-108214372D01*
X142672988Y-108261865D01*
X142602916Y-108273289D01*
X142537792Y-108245015D01*
X142498293Y-108186021D01*
X142492500Y-108148256D01*
X142492500Y-107878268D01*
X142493027Y-107867085D01*
X142494702Y-107859592D01*
X142494296Y-107846658D01*
X142492562Y-107791502D01*
X142492500Y-107787544D01*
X142492500Y-107759644D01*
X142491996Y-107755653D01*
X142491063Y-107743811D01*
X142490885Y-107738126D01*
X142489674Y-107699611D01*
X142487462Y-107691997D01*
X142487461Y-107691992D01*
X142484023Y-107680159D01*
X142480012Y-107660795D01*
X142478467Y-107648564D01*
X142477474Y-107640703D01*
X142474557Y-107633336D01*
X142474556Y-107633331D01*
X142461198Y-107599592D01*
X142457354Y-107588365D01*
X142452128Y-107570379D01*
X142445018Y-107545907D01*
X142434707Y-107528472D01*
X142426012Y-107510724D01*
X142418552Y-107491883D01*
X142405645Y-107474117D01*
X142392564Y-107456113D01*
X142386048Y-107446193D01*
X142367580Y-107414965D01*
X142367578Y-107414962D01*
X142363542Y-107408138D01*
X142349221Y-107393817D01*
X142336380Y-107378783D01*
X142336079Y-107378368D01*
X142324472Y-107362393D01*
X142290401Y-107334207D01*
X142281622Y-107326218D01*
X142153405Y-107198001D01*
X142119379Y-107135689D01*
X142116500Y-107108906D01*
X142116500Y-106773928D01*
X142116163Y-106770678D01*
X142106419Y-106676765D01*
X142106418Y-106676761D01*
X142105707Y-106669907D01*
X142096957Y-106643678D01*
X142052972Y-106511841D01*
X142050654Y-106504893D01*
X141959116Y-106356969D01*
X141950113Y-106347982D01*
X141841184Y-106239242D01*
X141841179Y-106239238D01*
X141836003Y-106234071D01*
X141829772Y-106230230D01*
X141694150Y-106146631D01*
X141694148Y-106146630D01*
X141687920Y-106142791D01*
X141522809Y-106088026D01*
X141515973Y-106087326D01*
X141515970Y-106087325D01*
X141464474Y-106082049D01*
X141420072Y-106077500D01*
X140820928Y-106077500D01*
X140817682Y-106077837D01*
X140817678Y-106077837D01*
X140723765Y-106087581D01*
X140723761Y-106087582D01*
X140716907Y-106088293D01*
X140710371Y-106090474D01*
X140710369Y-106090474D01*
X140645123Y-106112242D01*
X140551893Y-106143346D01*
X140403969Y-106234884D01*
X140398796Y-106240066D01*
X140297253Y-106341786D01*
X140234970Y-106375865D01*
X140164150Y-106370862D01*
X140119063Y-106341941D01*
X140016188Y-106239246D01*
X140016183Y-106239242D01*
X140011003Y-106234071D01*
X140004772Y-106230230D01*
X139869150Y-106146631D01*
X139869148Y-106146630D01*
X139862920Y-106142791D01*
X139697809Y-106088026D01*
X139690973Y-106087326D01*
X139690970Y-106087325D01*
X139639474Y-106082049D01*
X139595072Y-106077500D01*
X138995928Y-106077500D01*
X138992682Y-106077837D01*
X138992678Y-106077837D01*
X138898765Y-106087581D01*
X138898761Y-106087582D01*
X138891907Y-106088293D01*
X138885371Y-106090474D01*
X138885369Y-106090474D01*
X138820123Y-106112242D01*
X138726893Y-106143346D01*
X138578969Y-106234884D01*
X138573796Y-106240066D01*
X138461242Y-106352816D01*
X138461238Y-106352821D01*
X138456071Y-106357997D01*
X138452231Y-106364227D01*
X138452230Y-106364228D01*
X138450143Y-106367614D01*
X138448114Y-106369441D01*
X138447693Y-106369973D01*
X138447602Y-106369901D01*
X138397372Y-106415108D01*
X138342882Y-106427500D01*
X137360018Y-106427500D01*
X137292506Y-106407887D01*
X137240608Y-106374951D01*
X137080300Y-106317868D01*
X136911329Y-106297720D01*
X136904326Y-106298456D01*
X136904325Y-106298456D01*
X136749101Y-106314770D01*
X136749097Y-106314771D01*
X136742093Y-106315507D01*
X136735422Y-106317778D01*
X136587673Y-106368075D01*
X136587670Y-106368076D01*
X136581003Y-106370346D01*
X136575005Y-106374036D01*
X136575003Y-106374037D01*
X136442065Y-106455821D01*
X136442063Y-106455823D01*
X136436066Y-106459512D01*
X136314486Y-106578573D01*
X136310675Y-106584487D01*
X136310673Y-106584489D01*
X136251205Y-106676765D01*
X136222304Y-106721610D01*
X136192347Y-106803915D01*
X136173400Y-106855974D01*
X136164103Y-106881516D01*
X136142775Y-107050343D01*
X136159381Y-107219699D01*
X136213094Y-107381167D01*
X136216741Y-107387189D01*
X136216742Y-107387191D01*
X136293361Y-107513703D01*
X136301246Y-107526723D01*
X136306135Y-107531786D01*
X136306136Y-107531787D01*
X136319772Y-107545907D01*
X136415002Y-107644521D01*
X136447933Y-107707415D01*
X136441633Y-107778132D01*
X136398101Y-107834216D01*
X136331158Y-107857863D01*
X136311524Y-107857390D01*
X136296276Y-107855828D01*
X136296271Y-107855828D01*
X136293072Y-107855500D01*
X135693928Y-107855500D01*
X135690682Y-107855837D01*
X135690678Y-107855837D01*
X135596765Y-107865581D01*
X135596761Y-107865582D01*
X135589907Y-107866293D01*
X135583371Y-107868474D01*
X135583369Y-107868474D01*
X135514949Y-107891301D01*
X135424893Y-107921346D01*
X135276969Y-108012884D01*
X135271796Y-108018066D01*
X135159242Y-108130816D01*
X135159238Y-108130821D01*
X135154071Y-108135997D01*
X135150231Y-108142227D01*
X135150230Y-108142228D01*
X135067364Y-108276662D01*
X135062791Y-108284080D01*
X135008026Y-108449191D01*
X134997500Y-108551928D01*
X134997500Y-108555146D01*
X134997336Y-108558356D01*
X134973885Y-108625368D01*
X134917927Y-108669063D01*
X134847229Y-108675568D01*
X134784237Y-108642819D01*
X134748950Y-108581212D01*
X134745500Y-108551928D01*
X134745500Y-107751268D01*
X134746027Y-107740085D01*
X134747702Y-107732592D01*
X134746666Y-107699611D01*
X134745562Y-107664502D01*
X134745500Y-107660544D01*
X134745500Y-107632644D01*
X134744996Y-107628653D01*
X134744063Y-107616811D01*
X134743773Y-107607562D01*
X134742674Y-107572611D01*
X134737128Y-107553522D01*
X134737021Y-107553152D01*
X134733012Y-107533793D01*
X134732846Y-107532483D01*
X134730474Y-107513703D01*
X134727558Y-107506337D01*
X134727556Y-107506331D01*
X134714200Y-107472598D01*
X134710355Y-107461368D01*
X134700230Y-107426517D01*
X134700230Y-107426516D01*
X134698019Y-107418907D01*
X134691900Y-107408560D01*
X134687705Y-107401466D01*
X134679008Y-107383713D01*
X134675416Y-107374641D01*
X134671552Y-107364883D01*
X134645563Y-107329112D01*
X134639047Y-107319192D01*
X134636959Y-107315661D01*
X134616542Y-107281138D01*
X134602221Y-107266817D01*
X134589380Y-107251783D01*
X134582132Y-107241807D01*
X134577472Y-107235393D01*
X134543401Y-107207207D01*
X134534622Y-107199218D01*
X134533405Y-107198001D01*
X134499379Y-107135689D01*
X134496500Y-107108906D01*
X134496500Y-106773928D01*
X134496163Y-106770678D01*
X134486419Y-106676765D01*
X134486418Y-106676761D01*
X134485707Y-106669907D01*
X134476957Y-106643678D01*
X134432972Y-106511841D01*
X134430654Y-106504893D01*
X134339116Y-106356969D01*
X134330113Y-106347982D01*
X134221184Y-106239242D01*
X134221179Y-106239238D01*
X134216003Y-106234071D01*
X134209772Y-106230230D01*
X134074150Y-106146631D01*
X134074148Y-106146630D01*
X134067920Y-106142791D01*
X133902809Y-106088026D01*
X133895973Y-106087326D01*
X133895970Y-106087325D01*
X133844474Y-106082049D01*
X133800072Y-106077500D01*
X133200928Y-106077500D01*
X133197682Y-106077837D01*
X133197678Y-106077837D01*
X133103765Y-106087581D01*
X133103761Y-106087582D01*
X133096907Y-106088293D01*
X133090371Y-106090474D01*
X133090369Y-106090474D01*
X133025123Y-106112242D01*
X132931893Y-106143346D01*
X132783969Y-106234884D01*
X132778796Y-106240066D01*
X132677253Y-106341786D01*
X132614970Y-106375865D01*
X132544150Y-106370862D01*
X132499063Y-106341941D01*
X132396188Y-106239246D01*
X132396183Y-106239242D01*
X132391003Y-106234071D01*
X132384772Y-106230230D01*
X132249150Y-106146631D01*
X132249148Y-106146630D01*
X132242920Y-106142791D01*
X132077809Y-106088026D01*
X132070973Y-106087326D01*
X132070970Y-106087325D01*
X132019474Y-106082049D01*
X131975072Y-106077500D01*
X131375928Y-106077500D01*
X131372682Y-106077837D01*
X131372678Y-106077837D01*
X131278765Y-106087581D01*
X131278761Y-106087582D01*
X131271907Y-106088293D01*
X131265371Y-106090474D01*
X131265369Y-106090474D01*
X131200123Y-106112242D01*
X131106893Y-106143346D01*
X130958969Y-106234884D01*
X130953796Y-106240066D01*
X130878764Y-106315229D01*
X130836071Y-106357997D01*
X130834309Y-106356238D01*
X130786014Y-106390484D01*
X130715091Y-106393721D01*
X130677526Y-106377717D01*
X130671728Y-106374037D01*
X130637031Y-106352018D01*
X130579062Y-106315229D01*
X130579058Y-106315227D01*
X130573108Y-106311451D01*
X130412800Y-106254368D01*
X130243829Y-106234220D01*
X130236826Y-106234956D01*
X130236825Y-106234956D01*
X130081601Y-106251270D01*
X130081597Y-106251271D01*
X130074593Y-106252007D01*
X130067922Y-106254278D01*
X129920173Y-106304575D01*
X129920170Y-106304576D01*
X129913503Y-106306846D01*
X129907505Y-106310536D01*
X129907503Y-106310537D01*
X129774565Y-106392321D01*
X129774563Y-106392323D01*
X129768566Y-106396012D01*
X129646986Y-106515073D01*
X129643175Y-106520987D01*
X129643173Y-106520989D01*
X129559705Y-106650505D01*
X129554804Y-106658110D01*
X129496603Y-106818016D01*
X129475275Y-106986843D01*
X129491881Y-107156199D01*
X129494105Y-107162884D01*
X129494105Y-107162885D01*
X129505787Y-107198001D01*
X129545594Y-107317667D01*
X129549241Y-107323689D01*
X129549242Y-107323691D01*
X129628541Y-107454628D01*
X129633746Y-107463223D01*
X129751955Y-107585632D01*
X129757851Y-107589490D01*
X129757852Y-107589491D01*
X129833841Y-107639217D01*
X129879890Y-107693254D01*
X129889413Y-107763609D01*
X129859388Y-107827945D01*
X129799350Y-107865832D01*
X129794907Y-107866293D01*
X129788371Y-107868474D01*
X129788369Y-107868474D01*
X129719949Y-107891301D01*
X129629893Y-107921346D01*
X129481969Y-108012884D01*
X129476796Y-108018066D01*
X129375253Y-108119786D01*
X129312970Y-108153865D01*
X129242150Y-108148862D01*
X129197063Y-108119941D01*
X129094188Y-108017246D01*
X129094183Y-108017242D01*
X129089003Y-108012071D01*
X129010586Y-107963734D01*
X128947150Y-107924631D01*
X128947148Y-107924630D01*
X128940920Y-107920791D01*
X128775809Y-107866026D01*
X128768973Y-107865326D01*
X128768970Y-107865325D01*
X128705466Y-107858819D01*
X128673072Y-107855500D01*
X128073928Y-107855500D01*
X128070682Y-107855837D01*
X128070678Y-107855837D01*
X127976765Y-107865581D01*
X127976761Y-107865582D01*
X127969907Y-107866293D01*
X127963371Y-107868474D01*
X127963369Y-107868474D01*
X127894949Y-107891301D01*
X127804893Y-107921346D01*
X127656969Y-108012884D01*
X127651796Y-108018066D01*
X127539242Y-108130816D01*
X127539238Y-108130821D01*
X127534071Y-108135997D01*
X127530231Y-108142227D01*
X127530230Y-108142228D01*
X127447364Y-108276662D01*
X127442791Y-108284080D01*
X127388026Y-108449191D01*
X127377500Y-108551928D01*
X127377500Y-109126072D01*
X127377837Y-109129318D01*
X127377837Y-109129322D01*
X127384525Y-109193773D01*
X127388293Y-109230093D01*
X127443346Y-109395107D01*
X127534884Y-109543031D01*
X127540066Y-109548204D01*
X127652816Y-109660758D01*
X127652821Y-109660762D01*
X127657997Y-109665929D01*
X127664227Y-109669769D01*
X127664228Y-109669770D01*
X127730116Y-109710384D01*
X127777609Y-109763156D01*
X127790000Y-109817644D01*
X127790000Y-110541692D01*
X127769998Y-110609813D01*
X127722183Y-110653453D01*
X127697107Y-110666507D01*
X127692974Y-110669610D01*
X127692971Y-110669612D01*
X127567182Y-110764057D01*
X127518465Y-110800635D01*
X127514893Y-110804373D01*
X127394266Y-110930602D01*
X127364129Y-110962138D01*
X127256701Y-111119621D01*
X127201793Y-111164621D01*
X127131268Y-111172792D01*
X127067521Y-111141538D01*
X127046824Y-111117055D01*
X127018707Y-111073593D01*
X126998500Y-111005154D01*
X126998500Y-107497263D01*
X126999027Y-107486079D01*
X127000701Y-107478591D01*
X126998562Y-107410532D01*
X126998500Y-107406575D01*
X126998500Y-107378644D01*
X126997994Y-107374638D01*
X126997061Y-107362792D01*
X126997049Y-107362393D01*
X126995673Y-107318610D01*
X126990022Y-107299158D01*
X126986014Y-107279806D01*
X126984468Y-107267568D01*
X126984467Y-107267566D01*
X126983474Y-107259703D01*
X126967194Y-107218586D01*
X126963359Y-107207385D01*
X126951018Y-107164906D01*
X126946985Y-107158087D01*
X126946983Y-107158082D01*
X126940707Y-107147471D01*
X126932010Y-107129721D01*
X126924552Y-107110883D01*
X126911341Y-107092699D01*
X126900565Y-107077868D01*
X126876706Y-107011000D01*
X126876500Y-107003806D01*
X126876500Y-106646928D01*
X126875909Y-106641230D01*
X126866419Y-106549765D01*
X126866418Y-106549761D01*
X126865707Y-106542907D01*
X126855187Y-106511373D01*
X126812972Y-106384841D01*
X126810654Y-106377893D01*
X126719116Y-106229969D01*
X126704062Y-106214941D01*
X126601184Y-106112242D01*
X126601179Y-106112238D01*
X126596003Y-106107071D01*
X126589772Y-106103230D01*
X126454150Y-106019631D01*
X126454148Y-106019630D01*
X126447920Y-106015791D01*
X126282809Y-105961026D01*
X126275973Y-105960326D01*
X126275970Y-105960325D01*
X126224474Y-105955049D01*
X126180072Y-105950500D01*
X125580928Y-105950500D01*
X125577682Y-105950837D01*
X125577678Y-105950837D01*
X125483765Y-105960581D01*
X125483761Y-105960582D01*
X125476907Y-105961293D01*
X125470371Y-105963474D01*
X125470369Y-105963474D01*
X125408345Y-105984167D01*
X125311893Y-106016346D01*
X125163969Y-106107884D01*
X125158796Y-106113066D01*
X125057253Y-106214786D01*
X124994970Y-106248865D01*
X124924150Y-106243862D01*
X124879063Y-106214941D01*
X124776188Y-106112246D01*
X124776183Y-106112242D01*
X124771003Y-106107071D01*
X124764772Y-106103230D01*
X124629150Y-106019631D01*
X124629148Y-106019630D01*
X124622920Y-106015791D01*
X124457809Y-105961026D01*
X124450973Y-105960326D01*
X124450970Y-105960325D01*
X124399474Y-105955049D01*
X124355072Y-105950500D01*
X123755928Y-105950500D01*
X123752682Y-105950837D01*
X123752678Y-105950837D01*
X123658765Y-105960581D01*
X123658761Y-105960582D01*
X123651907Y-105961293D01*
X123645371Y-105963474D01*
X123645369Y-105963474D01*
X123583345Y-105984167D01*
X123486893Y-106016346D01*
X123338969Y-106107884D01*
X123333796Y-106113066D01*
X123221242Y-106225816D01*
X123221238Y-106225821D01*
X123216071Y-106230997D01*
X123212231Y-106237227D01*
X123212230Y-106237228D01*
X123210143Y-106240614D01*
X123208114Y-106242441D01*
X123207693Y-106242973D01*
X123207602Y-106242901D01*
X123157372Y-106288108D01*
X123102882Y-106300500D01*
X122755018Y-106300500D01*
X122687506Y-106280887D01*
X122635608Y-106247951D01*
X122475300Y-106190868D01*
X122306329Y-106170720D01*
X122299326Y-106171456D01*
X122299325Y-106171456D01*
X122144101Y-106187770D01*
X122144097Y-106187771D01*
X122137093Y-106188507D01*
X122130422Y-106190778D01*
X121982673Y-106241075D01*
X121982670Y-106241076D01*
X121976003Y-106243346D01*
X121970005Y-106247036D01*
X121970003Y-106247037D01*
X121837065Y-106328821D01*
X121837063Y-106328823D01*
X121831066Y-106332512D01*
X121709486Y-106451573D01*
X121705675Y-106457487D01*
X121705673Y-106457489D01*
X121622286Y-106586879D01*
X121617304Y-106594610D01*
X121600712Y-106640197D01*
X121561811Y-106747077D01*
X121559103Y-106754516D01*
X121537775Y-106923343D01*
X121554381Y-107092699D01*
X121556605Y-107099384D01*
X121556605Y-107099385D01*
X121566927Y-107130414D01*
X121608094Y-107254167D01*
X121611741Y-107260189D01*
X121611742Y-107260191D01*
X121686417Y-107383493D01*
X121696246Y-107399723D01*
X121814455Y-107522132D01*
X121840356Y-107539081D01*
X121945006Y-107607562D01*
X121956846Y-107615310D01*
X122080816Y-107661414D01*
X122137689Y-107703905D01*
X122162563Y-107770402D01*
X122147538Y-107839790D01*
X122097384Y-107890040D01*
X122076770Y-107899033D01*
X122016846Y-107919026D01*
X122016844Y-107919027D01*
X122009893Y-107921346D01*
X121861969Y-108012884D01*
X121856796Y-108018066D01*
X121755253Y-108119786D01*
X121692970Y-108153865D01*
X121622150Y-108148862D01*
X121577063Y-108119941D01*
X121474188Y-108017246D01*
X121474183Y-108017242D01*
X121469003Y-108012071D01*
X121390586Y-107963734D01*
X121327150Y-107924631D01*
X121327148Y-107924630D01*
X121320920Y-107920791D01*
X121155809Y-107866026D01*
X121148973Y-107865326D01*
X121148970Y-107865325D01*
X121085466Y-107858819D01*
X121053072Y-107855500D01*
X120453928Y-107855500D01*
X120450682Y-107855837D01*
X120450678Y-107855837D01*
X120356765Y-107865581D01*
X120356761Y-107865582D01*
X120349907Y-107866293D01*
X120343371Y-107868474D01*
X120343369Y-107868474D01*
X120274949Y-107891301D01*
X120184893Y-107921346D01*
X120036969Y-108012884D01*
X120031796Y-108018066D01*
X119919242Y-108130816D01*
X119919238Y-108130821D01*
X119914071Y-108135997D01*
X119910231Y-108142227D01*
X119910230Y-108142228D01*
X119827364Y-108276662D01*
X119822791Y-108284080D01*
X119768026Y-108449191D01*
X119757500Y-108551928D01*
X119757500Y-109126072D01*
X119757837Y-109129318D01*
X119757837Y-109129322D01*
X119764525Y-109193773D01*
X119768293Y-109230093D01*
X119823346Y-109395107D01*
X119914884Y-109543031D01*
X119920066Y-109548204D01*
X120032816Y-109660758D01*
X120032821Y-109660762D01*
X120037997Y-109665929D01*
X120044227Y-109669769D01*
X120044228Y-109669770D01*
X120110116Y-109710384D01*
X120157609Y-109763156D01*
X120170000Y-109817644D01*
X120170000Y-110541692D01*
X120149998Y-110609813D01*
X120102183Y-110653453D01*
X120077107Y-110666507D01*
X120072974Y-110669610D01*
X120072971Y-110669612D01*
X119947182Y-110764057D01*
X119898465Y-110800635D01*
X119819599Y-110883164D01*
X119817783Y-110885064D01*
X119756259Y-110920494D01*
X119685346Y-110917037D01*
X119627560Y-110875791D01*
X119608707Y-110842243D01*
X119567267Y-110731703D01*
X119564115Y-110723295D01*
X119476761Y-110606739D01*
X119360205Y-110519385D01*
X119223816Y-110468255D01*
X119161634Y-110461500D01*
X119023000Y-110461500D01*
X118954879Y-110441498D01*
X118908386Y-110387842D01*
X118897000Y-110335500D01*
X118897000Y-109799385D01*
X118917002Y-109731264D01*
X118956696Y-109692242D01*
X119000531Y-109665116D01*
X119005704Y-109659934D01*
X119118258Y-109547184D01*
X119118262Y-109547179D01*
X119123429Y-109542003D01*
X119130483Y-109530559D01*
X119210869Y-109400150D01*
X119210870Y-109400148D01*
X119214709Y-109393920D01*
X119269474Y-109228809D01*
X119280000Y-109126072D01*
X119280000Y-108551928D01*
X119276256Y-108515846D01*
X119269919Y-108454765D01*
X119269918Y-108454761D01*
X119269207Y-108447907D01*
X119214154Y-108282893D01*
X119122616Y-108134969D01*
X119107562Y-108119941D01*
X119004684Y-108017242D01*
X119004679Y-108017238D01*
X118999503Y-108012071D01*
X118921086Y-107963734D01*
X118857650Y-107924631D01*
X118857648Y-107924630D01*
X118851420Y-107920791D01*
X118849899Y-107920286D01*
X118798377Y-107874923D01*
X118778915Y-107806646D01*
X118799456Y-107738685D01*
X118853479Y-107692619D01*
X118884711Y-107684458D01*
X118884568Y-107683763D01*
X118891462Y-107682348D01*
X118898483Y-107681709D01*
X118905185Y-107679531D01*
X118905187Y-107679531D01*
X119053623Y-107631301D01*
X119053626Y-107631300D01*
X119060322Y-107629124D01*
X119206490Y-107541990D01*
X119211584Y-107537139D01*
X119211588Y-107537136D01*
X119298229Y-107454628D01*
X119329721Y-107424639D01*
X119336149Y-107414965D01*
X119395527Y-107325593D01*
X119423891Y-107282902D01*
X119484319Y-107123825D01*
X119508001Y-106955313D01*
X119508299Y-106934000D01*
X119489331Y-106764892D01*
X119484840Y-106751994D01*
X119458642Y-106676765D01*
X119433368Y-106604189D01*
X119427383Y-106594610D01*
X119390989Y-106536369D01*
X119343192Y-106459879D01*
X119336003Y-106452639D01*
X119285264Y-106401545D01*
X119223286Y-106339132D01*
X119207039Y-106328821D01*
X119093446Y-106256733D01*
X119079608Y-106247951D01*
X118919300Y-106190868D01*
X118912305Y-106190034D01*
X118912301Y-106190033D01*
X118895427Y-106188021D01*
X118889425Y-106187306D01*
X118824152Y-106159380D01*
X118784339Y-106100597D01*
X118782626Y-106029621D01*
X118789050Y-106012962D01*
X118788891Y-106012902D01*
X118846818Y-105860409D01*
X118849319Y-105853825D01*
X118850299Y-105846848D01*
X118851138Y-105843582D01*
X118884085Y-105785819D01*
X119557499Y-105112405D01*
X119619811Y-105078379D01*
X119646594Y-105075500D01*
X120806502Y-105075500D01*
X120808950Y-105075307D01*
X120808958Y-105075307D01*
X120837421Y-105073067D01*
X120837426Y-105073066D01*
X120843831Y-105072562D01*
X120992074Y-105029494D01*
X120995988Y-105028357D01*
X120995990Y-105028356D01*
X121003601Y-105026145D01*
X121071888Y-104985760D01*
X121139980Y-104945491D01*
X121139983Y-104945489D01*
X121146807Y-104941453D01*
X121264453Y-104823807D01*
X121268489Y-104816983D01*
X121268491Y-104816980D01*
X121345108Y-104687427D01*
X121349145Y-104680601D01*
X121359698Y-104644279D01*
X121378231Y-104580484D01*
X121395562Y-104520831D01*
X121398500Y-104483502D01*
X121398500Y-104050498D01*
X121396963Y-104030970D01*
X121396067Y-104019579D01*
X121396066Y-104019574D01*
X121395562Y-104013169D01*
X121359699Y-103889726D01*
X121351357Y-103861012D01*
X121351356Y-103861010D01*
X121349145Y-103853399D01*
X121264453Y-103710193D01*
X121261771Y-103707511D01*
X121236498Y-103643139D01*
X121250400Y-103573516D01*
X121260572Y-103557688D01*
X121264453Y-103553807D01*
X121349145Y-103410601D01*
X121359116Y-103376282D01*
X121378231Y-103310484D01*
X121395562Y-103250831D01*
X121398500Y-103213502D01*
X121398500Y-102812072D01*
X123349500Y-102812072D01*
X123349837Y-102815318D01*
X123349837Y-102815322D01*
X123358800Y-102901699D01*
X123360293Y-102916093D01*
X123362474Y-102922629D01*
X123362474Y-102922631D01*
X123401455Y-103039470D01*
X123415346Y-103081107D01*
X123506884Y-103229031D01*
X123512066Y-103234204D01*
X123537518Y-103259612D01*
X123571597Y-103321895D01*
X123574500Y-103348785D01*
X123574500Y-103821799D01*
X123557620Y-103884798D01*
X123551473Y-103895444D01*
X123492458Y-104077072D01*
X123491768Y-104083633D01*
X123491768Y-104083635D01*
X123477297Y-104221325D01*
X123472496Y-104267000D01*
X123492458Y-104456928D01*
X123551473Y-104638556D01*
X123646960Y-104803944D01*
X123651378Y-104808851D01*
X123651379Y-104808852D01*
X123721320Y-104886529D01*
X123774747Y-104945866D01*
X123812570Y-104973346D01*
X123923904Y-105054235D01*
X123929248Y-105058118D01*
X123935276Y-105060802D01*
X123935278Y-105060803D01*
X124097681Y-105133109D01*
X124103712Y-105135794D01*
X124197113Y-105155647D01*
X124284056Y-105174128D01*
X124284061Y-105174128D01*
X124290513Y-105175500D01*
X124481487Y-105175500D01*
X124487939Y-105174128D01*
X124487944Y-105174128D01*
X124574888Y-105155647D01*
X124668288Y-105135794D01*
X124674319Y-105133109D01*
X124836722Y-105060803D01*
X124836724Y-105060802D01*
X124842752Y-105058118D01*
X124848091Y-105054239D01*
X124848098Y-105054235D01*
X124854528Y-105049563D01*
X124928587Y-105025500D01*
X125610246Y-105025500D01*
X125645398Y-105030503D01*
X125783989Y-105070767D01*
X125783993Y-105070768D01*
X125790169Y-105072562D01*
X125796574Y-105073066D01*
X125796579Y-105073067D01*
X125825042Y-105075307D01*
X125825050Y-105075307D01*
X125827498Y-105075500D01*
X127260502Y-105075500D01*
X127262950Y-105075307D01*
X127262958Y-105075307D01*
X127291421Y-105073067D01*
X127291426Y-105073066D01*
X127297831Y-105072562D01*
X127446074Y-105029494D01*
X127449988Y-105028357D01*
X127449990Y-105028356D01*
X127457601Y-105026145D01*
X127525888Y-104985760D01*
X127593980Y-104945491D01*
X127593983Y-104945489D01*
X127600807Y-104941453D01*
X127718453Y-104823807D01*
X127722489Y-104816983D01*
X127722491Y-104816980D01*
X127799108Y-104687427D01*
X127803145Y-104680601D01*
X127813698Y-104644279D01*
X127832231Y-104580484D01*
X127849562Y-104520831D01*
X127852500Y-104483502D01*
X127852500Y-104050498D01*
X127850963Y-104030970D01*
X127850067Y-104019579D01*
X127850066Y-104019574D01*
X127849562Y-104013169D01*
X127813699Y-103889726D01*
X127805357Y-103861012D01*
X127805356Y-103861010D01*
X127803145Y-103853399D01*
X127783769Y-103820637D01*
X127766311Y-103751822D01*
X127788828Y-103684491D01*
X127844173Y-103640022D01*
X127892224Y-103630500D01*
X127942223Y-103630500D01*
X128011216Y-103651068D01*
X128033289Y-103665512D01*
X128052846Y-103678310D01*
X128059450Y-103680766D01*
X128059452Y-103680767D01*
X128132594Y-103707968D01*
X128212341Y-103737626D01*
X128381015Y-103760132D01*
X128388026Y-103759494D01*
X128388030Y-103759494D01*
X128543462Y-103745348D01*
X128550483Y-103744709D01*
X128557185Y-103742531D01*
X128557187Y-103742531D01*
X128705623Y-103694301D01*
X128705626Y-103694300D01*
X128712322Y-103692124D01*
X128858490Y-103604990D01*
X128863584Y-103600139D01*
X128863588Y-103600136D01*
X128943131Y-103524388D01*
X128981721Y-103487639D01*
X128991513Y-103472902D01*
X129046792Y-103389699D01*
X129075891Y-103345902D01*
X129136319Y-103186825D01*
X129160001Y-103018313D01*
X129160299Y-102997000D01*
X129141331Y-102827892D01*
X129085368Y-102667189D01*
X129079383Y-102657610D01*
X129037767Y-102591012D01*
X128995192Y-102522879D01*
X128923516Y-102450700D01*
X128889710Y-102388271D01*
X128895022Y-102317474D01*
X128926031Y-102270672D01*
X128964834Y-102233720D01*
X128981721Y-102217639D01*
X128987296Y-102209249D01*
X129043420Y-102124774D01*
X129075891Y-102075902D01*
X129136319Y-101916825D01*
X129160001Y-101748313D01*
X129160299Y-101727000D01*
X129141331Y-101557892D01*
X129132317Y-101532006D01*
X129087686Y-101403846D01*
X129085368Y-101397189D01*
X129079383Y-101387610D01*
X129037767Y-101321012D01*
X128995192Y-101252879D01*
X128875286Y-101132132D01*
X128863048Y-101124365D01*
X128814412Y-101093500D01*
X128731608Y-101040951D01*
X128571300Y-100983868D01*
X128402329Y-100963720D01*
X128395326Y-100964456D01*
X128395325Y-100964456D01*
X128240101Y-100980770D01*
X128240097Y-100980771D01*
X128233093Y-100981507D01*
X128072003Y-101036346D01*
X128009468Y-101074818D01*
X127943448Y-101093500D01*
X127891643Y-101093500D01*
X127823522Y-101073498D01*
X127777029Y-101019842D01*
X127766925Y-100949568D01*
X127783189Y-100903361D01*
X127798648Y-100877221D01*
X127804893Y-100862790D01*
X127843939Y-100728395D01*
X127843899Y-100714294D01*
X127836630Y-100711000D01*
X126416000Y-100711000D01*
X126347879Y-100690998D01*
X126301386Y-100637342D01*
X126290000Y-100585000D01*
X126290000Y-100329000D01*
X126310002Y-100260879D01*
X126363658Y-100214386D01*
X126416000Y-100203000D01*
X127830878Y-100203000D01*
X127844409Y-100199027D01*
X127845544Y-100191129D01*
X127804893Y-100051210D01*
X127798648Y-100036779D01*
X127783189Y-100010639D01*
X127765730Y-99941823D01*
X127788247Y-99874491D01*
X127843591Y-99830022D01*
X127891643Y-99820500D01*
X128577223Y-99820500D01*
X128646216Y-99841068D01*
X128668289Y-99855512D01*
X128687846Y-99868310D01*
X128694450Y-99870766D01*
X128694452Y-99870767D01*
X128725969Y-99882488D01*
X128847341Y-99927626D01*
X129016015Y-99950132D01*
X129023026Y-99949494D01*
X129023030Y-99949494D01*
X129178462Y-99935348D01*
X129185483Y-99934709D01*
X129192185Y-99932531D01*
X129192187Y-99932531D01*
X129340623Y-99884301D01*
X129340626Y-99884300D01*
X129347322Y-99882124D01*
X129493490Y-99794990D01*
X129498584Y-99790139D01*
X129498588Y-99790136D01*
X129587047Y-99705897D01*
X129616721Y-99677639D01*
X129654674Y-99620516D01*
X129672963Y-99592988D01*
X129710891Y-99535902D01*
X129771319Y-99376825D01*
X129795001Y-99208313D01*
X129795299Y-99187000D01*
X129776331Y-99017892D01*
X129767317Y-98992006D01*
X129722686Y-98863846D01*
X129720368Y-98857189D01*
X129714383Y-98847610D01*
X129672767Y-98781012D01*
X129630192Y-98712879D01*
X129611874Y-98694432D01*
X129554863Y-98637022D01*
X129510286Y-98592132D01*
X129502181Y-98586988D01*
X129453865Y-98556326D01*
X129366608Y-98500951D01*
X129206300Y-98443868D01*
X129037329Y-98423720D01*
X129030326Y-98424456D01*
X129030325Y-98424456D01*
X128875101Y-98440770D01*
X128875097Y-98440771D01*
X128868093Y-98441507D01*
X128707003Y-98496346D01*
X128644468Y-98534818D01*
X128578448Y-98553500D01*
X127892224Y-98553500D01*
X127824103Y-98533498D01*
X127777610Y-98479842D01*
X127767506Y-98409568D01*
X127783769Y-98363364D01*
X127803145Y-98330601D01*
X127849562Y-98170831D01*
X127852500Y-98133502D01*
X127852500Y-97700498D01*
X127849562Y-97663169D01*
X127803145Y-97503399D01*
X127718453Y-97360193D01*
X127715771Y-97357511D01*
X127690498Y-97293139D01*
X127704400Y-97223516D01*
X127714573Y-97207687D01*
X127718453Y-97203807D01*
X127720084Y-97201049D01*
X127775935Y-97160709D01*
X127817944Y-97153500D01*
X127942223Y-97153500D01*
X128011216Y-97174068D01*
X128014525Y-97176233D01*
X128052846Y-97201310D01*
X128059450Y-97203766D01*
X128059452Y-97203767D01*
X128128670Y-97229509D01*
X128212341Y-97260626D01*
X128381015Y-97283132D01*
X128388026Y-97282494D01*
X128388030Y-97282494D01*
X128543462Y-97268348D01*
X128550483Y-97267709D01*
X128557185Y-97265531D01*
X128557187Y-97265531D01*
X128705623Y-97217301D01*
X128705626Y-97217300D01*
X128712322Y-97215124D01*
X128858490Y-97127990D01*
X128863584Y-97123139D01*
X128863588Y-97123136D01*
X128937250Y-97052988D01*
X128981721Y-97010639D01*
X128987706Y-97001632D01*
X129071990Y-96874773D01*
X129075891Y-96868902D01*
X129136319Y-96709825D01*
X129146646Y-96636343D01*
X130300775Y-96636343D01*
X130317381Y-96805699D01*
X130371094Y-96967167D01*
X130374741Y-96973189D01*
X130374742Y-96973191D01*
X130439741Y-97080516D01*
X130459246Y-97112723D01*
X130577455Y-97235132D01*
X130629391Y-97269118D01*
X130700289Y-97315512D01*
X130719846Y-97328310D01*
X130726450Y-97330766D01*
X130726452Y-97330767D01*
X130762844Y-97344301D01*
X130879341Y-97387626D01*
X130884257Y-97388282D01*
X130942111Y-97421015D01*
X131734608Y-98213512D01*
X131766509Y-98267454D01*
X131784855Y-98330601D01*
X131869547Y-98473807D01*
X131872229Y-98476489D01*
X131897502Y-98540861D01*
X131883600Y-98610484D01*
X131873426Y-98626314D01*
X131869547Y-98630193D01*
X131865512Y-98637016D01*
X131860652Y-98643281D01*
X131859096Y-98642074D01*
X131828237Y-98672932D01*
X131828727Y-98673563D01*
X131823729Y-98677440D01*
X131823159Y-98678010D01*
X131815638Y-98682458D01*
X131801317Y-98696779D01*
X131786284Y-98709619D01*
X131769893Y-98721528D01*
X131764842Y-98727633D01*
X131764837Y-98727638D01*
X131741701Y-98755604D01*
X131733713Y-98764382D01*
X131195287Y-99302808D01*
X131146798Y-99332990D01*
X131104141Y-99347512D01*
X130999673Y-99383075D01*
X130999670Y-99383076D01*
X130993003Y-99385346D01*
X130987005Y-99389036D01*
X130987003Y-99389037D01*
X130854065Y-99470821D01*
X130854063Y-99470823D01*
X130848066Y-99474512D01*
X130726486Y-99593573D01*
X130722675Y-99599487D01*
X130722673Y-99599489D01*
X130654878Y-99704685D01*
X130634304Y-99736610D01*
X130607044Y-99811507D01*
X130579171Y-99888088D01*
X130576103Y-99896516D01*
X130554775Y-100065343D01*
X130571381Y-100234699D01*
X130573605Y-100241384D01*
X130573605Y-100241385D01*
X130588959Y-100287542D01*
X130625094Y-100396167D01*
X130628741Y-100402189D01*
X130628742Y-100402191D01*
X130695106Y-100511770D01*
X130713246Y-100541723D01*
X130831455Y-100664132D01*
X130837351Y-100667990D01*
X130942157Y-100736573D01*
X130973846Y-100757310D01*
X130980450Y-100759766D01*
X130980452Y-100759767D01*
X131043072Y-100783055D01*
X131099948Y-100825547D01*
X131124822Y-100892044D01*
X131109797Y-100961432D01*
X131059643Y-101011682D01*
X131039759Y-101020429D01*
X130993003Y-101036346D01*
X130987005Y-101040036D01*
X130987003Y-101040037D01*
X130854065Y-101121821D01*
X130854063Y-101121823D01*
X130848066Y-101125512D01*
X130788206Y-101184132D01*
X130763483Y-101208343D01*
X130726486Y-101244573D01*
X130722675Y-101250487D01*
X130722673Y-101250489D01*
X130647202Y-101367596D01*
X130634304Y-101387610D01*
X130602150Y-101475953D01*
X130580419Y-101535659D01*
X130576103Y-101547516D01*
X130554775Y-101716343D01*
X130571381Y-101885699D01*
X130625094Y-102047167D01*
X130628741Y-102053189D01*
X130628742Y-102053191D01*
X130708182Y-102184361D01*
X130713246Y-102192723D01*
X130791763Y-102274030D01*
X130792506Y-102274799D01*
X130825438Y-102337696D01*
X130819138Y-102408412D01*
X130790030Y-102452346D01*
X130726486Y-102514573D01*
X130722675Y-102520487D01*
X130722673Y-102520489D01*
X130642508Y-102644880D01*
X130634304Y-102657610D01*
X130576103Y-102817516D01*
X130554775Y-102986343D01*
X130571381Y-103155699D01*
X130573605Y-103162384D01*
X130573605Y-103162385D01*
X130591426Y-103215958D01*
X130625094Y-103317167D01*
X130628741Y-103323189D01*
X130628742Y-103323191D01*
X130705145Y-103449346D01*
X130713246Y-103462723D01*
X130792506Y-103544799D01*
X130825438Y-103607696D01*
X130819138Y-103678412D01*
X130790030Y-103722346D01*
X130726486Y-103784573D01*
X130722675Y-103790487D01*
X130722673Y-103790489D01*
X130640077Y-103918652D01*
X130634304Y-103927610D01*
X130576103Y-104087516D01*
X130554775Y-104256343D01*
X130571381Y-104425699D01*
X130625094Y-104587167D01*
X130628741Y-104593189D01*
X130628742Y-104593191D01*
X130704908Y-104718955D01*
X130713246Y-104732723D01*
X130831455Y-104855132D01*
X130837351Y-104858990D01*
X130947484Y-104931059D01*
X130973846Y-104948310D01*
X130980450Y-104950766D01*
X130980452Y-104950767D01*
X131016844Y-104964301D01*
X131133341Y-105007626D01*
X131302015Y-105030132D01*
X131309026Y-105029494D01*
X131309030Y-105029494D01*
X131464462Y-105015348D01*
X131471483Y-105014709D01*
X131478185Y-105012531D01*
X131478187Y-105012531D01*
X131626623Y-104964301D01*
X131626626Y-104964300D01*
X131633322Y-104962124D01*
X131639373Y-104958517D01*
X131639375Y-104958516D01*
X131706887Y-104918271D01*
X131771404Y-104900500D01*
X131894050Y-104900500D01*
X131962171Y-104920502D01*
X131975271Y-104931059D01*
X131975325Y-104930989D01*
X131981584Y-104935844D01*
X131987193Y-104941453D01*
X131994017Y-104945489D01*
X131994020Y-104945491D01*
X132062112Y-104985760D01*
X132130399Y-105026145D01*
X132138010Y-105028356D01*
X132138012Y-105028357D01*
X132141926Y-105029494D01*
X132290169Y-105072562D01*
X132296574Y-105073066D01*
X132296579Y-105073067D01*
X132325042Y-105075307D01*
X132325050Y-105075307D01*
X132327498Y-105075500D01*
X133760502Y-105075500D01*
X133762950Y-105075307D01*
X133762958Y-105075307D01*
X133791421Y-105073067D01*
X133791426Y-105073066D01*
X133797831Y-105072562D01*
X133946074Y-105029494D01*
X133949988Y-105028357D01*
X133949990Y-105028356D01*
X133957601Y-105026145D01*
X134025888Y-104985760D01*
X134093980Y-104945491D01*
X134093983Y-104945489D01*
X134100807Y-104941453D01*
X134218453Y-104823807D01*
X134222489Y-104816983D01*
X134222491Y-104816980D01*
X134299108Y-104687427D01*
X134303145Y-104680601D01*
X134313698Y-104644279D01*
X134332231Y-104580484D01*
X134349562Y-104520831D01*
X134352500Y-104483502D01*
X134352500Y-104050498D01*
X134350963Y-104030970D01*
X134350067Y-104019579D01*
X134350066Y-104019574D01*
X134349562Y-104013169D01*
X134313699Y-103889726D01*
X134305357Y-103861012D01*
X134305356Y-103861010D01*
X134303145Y-103853399D01*
X134218453Y-103710193D01*
X134215771Y-103707511D01*
X134190498Y-103643139D01*
X134204400Y-103573516D01*
X134214572Y-103557688D01*
X134218453Y-103553807D01*
X134303145Y-103410601D01*
X134313116Y-103376282D01*
X134332231Y-103310484D01*
X134349562Y-103250831D01*
X134352500Y-103213502D01*
X134352500Y-102939072D01*
X136176500Y-102939072D01*
X136176837Y-102942318D01*
X136176837Y-102942322D01*
X136185128Y-103022223D01*
X136187293Y-103043093D01*
X136189474Y-103049629D01*
X136189474Y-103049631D01*
X136193990Y-103063167D01*
X136242346Y-103208107D01*
X136333884Y-103356031D01*
X136339066Y-103361204D01*
X136451816Y-103473758D01*
X136451821Y-103473762D01*
X136456997Y-103478929D01*
X136463229Y-103482771D01*
X136463231Y-103482772D01*
X136467653Y-103485498D01*
X136515146Y-103538270D01*
X136526568Y-103608342D01*
X136495173Y-103677065D01*
X136447460Y-103730056D01*
X136398118Y-103815518D01*
X136365308Y-103872348D01*
X136351973Y-103895444D01*
X136292958Y-104077072D01*
X136292268Y-104083633D01*
X136292268Y-104083635D01*
X136277797Y-104221325D01*
X136272996Y-104267000D01*
X136292958Y-104456928D01*
X136351973Y-104638556D01*
X136447460Y-104803944D01*
X136451878Y-104808851D01*
X136451879Y-104808852D01*
X136521820Y-104886529D01*
X136575247Y-104945866D01*
X136613070Y-104973346D01*
X136724404Y-105054235D01*
X136729748Y-105058118D01*
X136735776Y-105060802D01*
X136735778Y-105060803D01*
X136898181Y-105133109D01*
X136904212Y-105135794D01*
X136997613Y-105155647D01*
X137084556Y-105174128D01*
X137084561Y-105174128D01*
X137091013Y-105175500D01*
X137281987Y-105175500D01*
X137288439Y-105174128D01*
X137288444Y-105174128D01*
X137375388Y-105155647D01*
X137468788Y-105135794D01*
X137474819Y-105133109D01*
X137637222Y-105060803D01*
X137637224Y-105060802D01*
X137643252Y-105058118D01*
X137648591Y-105054239D01*
X137648598Y-105054235D01*
X137655028Y-105049563D01*
X137729087Y-105025500D01*
X138437246Y-105025500D01*
X138472398Y-105030503D01*
X138610989Y-105070767D01*
X138610993Y-105070768D01*
X138617169Y-105072562D01*
X138623574Y-105073066D01*
X138623579Y-105073067D01*
X138652042Y-105075307D01*
X138652050Y-105075307D01*
X138654498Y-105075500D01*
X140087502Y-105075500D01*
X140089950Y-105075307D01*
X140089958Y-105075307D01*
X140118421Y-105073067D01*
X140118426Y-105073066D01*
X140124831Y-105072562D01*
X140273074Y-105029494D01*
X140276988Y-105028357D01*
X140276990Y-105028356D01*
X140284601Y-105026145D01*
X140352888Y-104985760D01*
X140420980Y-104945491D01*
X140420983Y-104945489D01*
X140427807Y-104941453D01*
X140545453Y-104823807D01*
X140549489Y-104816983D01*
X140549491Y-104816980D01*
X140626108Y-104687427D01*
X140630145Y-104680601D01*
X140640698Y-104644279D01*
X140659231Y-104580484D01*
X140676562Y-104520831D01*
X140679500Y-104483502D01*
X140679500Y-104256343D01*
X143508775Y-104256343D01*
X143525381Y-104425699D01*
X143579094Y-104587167D01*
X143582741Y-104593189D01*
X143582742Y-104593191D01*
X143658908Y-104718955D01*
X143667246Y-104732723D01*
X143785455Y-104855132D01*
X143791351Y-104858990D01*
X143901484Y-104931059D01*
X143927846Y-104948310D01*
X143934450Y-104950766D01*
X143934452Y-104950767D01*
X143970844Y-104964301D01*
X144087341Y-105007626D01*
X144256015Y-105030132D01*
X144263026Y-105029494D01*
X144263030Y-105029494D01*
X144418462Y-105015348D01*
X144425483Y-105014709D01*
X144432185Y-105012531D01*
X144432187Y-105012531D01*
X144580623Y-104964301D01*
X144580626Y-104964300D01*
X144587322Y-104962124D01*
X144658159Y-104919897D01*
X144726913Y-104902197D01*
X144794323Y-104924479D01*
X144802248Y-104931088D01*
X144802325Y-104930989D01*
X144808584Y-104935844D01*
X144814193Y-104941453D01*
X144821017Y-104945489D01*
X144821020Y-104945491D01*
X144889112Y-104985760D01*
X144957399Y-105026145D01*
X144965010Y-105028356D01*
X144965012Y-105028357D01*
X144968926Y-105029494D01*
X145117169Y-105072562D01*
X145123574Y-105073066D01*
X145123579Y-105073067D01*
X145152042Y-105075307D01*
X145152050Y-105075307D01*
X145154498Y-105075500D01*
X146587502Y-105075500D01*
X146589950Y-105075307D01*
X146589958Y-105075307D01*
X146618421Y-105073067D01*
X146618426Y-105073066D01*
X146624831Y-105072562D01*
X146773074Y-105029494D01*
X146776988Y-105028357D01*
X146776990Y-105028356D01*
X146784601Y-105026145D01*
X146852888Y-104985760D01*
X146920980Y-104945491D01*
X146920983Y-104945489D01*
X146927807Y-104941453D01*
X147045453Y-104823807D01*
X147049489Y-104816983D01*
X147049491Y-104816980D01*
X147126108Y-104687427D01*
X147130145Y-104680601D01*
X147140698Y-104644279D01*
X147159231Y-104580484D01*
X147176562Y-104520831D01*
X147179500Y-104483502D01*
X147179500Y-104050498D01*
X147177963Y-104030970D01*
X147177067Y-104019579D01*
X147177066Y-104019574D01*
X147176562Y-104013169D01*
X147140699Y-103889726D01*
X147132357Y-103861012D01*
X147132356Y-103861010D01*
X147130145Y-103853399D01*
X147045453Y-103710193D01*
X147042771Y-103707511D01*
X147017498Y-103643139D01*
X147031400Y-103573516D01*
X147041572Y-103557688D01*
X147045453Y-103553807D01*
X147130145Y-103410601D01*
X147140116Y-103376282D01*
X147159231Y-103310484D01*
X147176562Y-103250831D01*
X147179500Y-103213502D01*
X147179500Y-102780498D01*
X147179307Y-102778042D01*
X147177067Y-102749579D01*
X147177066Y-102749574D01*
X147176562Y-102743169D01*
X147130145Y-102583399D01*
X147045453Y-102440193D01*
X147042771Y-102437511D01*
X147017498Y-102373139D01*
X147031400Y-102303516D01*
X147041572Y-102287688D01*
X147045453Y-102283807D01*
X147130145Y-102140601D01*
X147133799Y-102128026D01*
X147155785Y-102052346D01*
X147176562Y-101980831D01*
X147177742Y-101965850D01*
X147179307Y-101945958D01*
X147179307Y-101945950D01*
X147179500Y-101943502D01*
X147179500Y-101510498D01*
X147178561Y-101498564D01*
X147177067Y-101479579D01*
X147177066Y-101479574D01*
X147176562Y-101473169D01*
X147130145Y-101313399D01*
X147045453Y-101170193D01*
X147042771Y-101167511D01*
X147017498Y-101103139D01*
X147031400Y-101033516D01*
X147041572Y-101017688D01*
X147045453Y-101013807D01*
X147130145Y-100870601D01*
X147132415Y-100862790D01*
X147162345Y-100759767D01*
X147176562Y-100710831D01*
X147179500Y-100673502D01*
X147179500Y-100240498D01*
X147177445Y-100214386D01*
X147177067Y-100209579D01*
X147177066Y-100209574D01*
X147176562Y-100203169D01*
X147140463Y-100078913D01*
X147132357Y-100051012D01*
X147132356Y-100051010D01*
X147130145Y-100043399D01*
X147045453Y-99900193D01*
X147042771Y-99897511D01*
X147017498Y-99833139D01*
X147031400Y-99763516D01*
X147041572Y-99747688D01*
X147045453Y-99743807D01*
X147130145Y-99600601D01*
X147176562Y-99440831D01*
X147179500Y-99403502D01*
X147179500Y-98970498D01*
X147176562Y-98933169D01*
X147130145Y-98773399D01*
X147045453Y-98630193D01*
X147042771Y-98627511D01*
X147017498Y-98563139D01*
X147031400Y-98493516D01*
X147041572Y-98477688D01*
X147045453Y-98473807D01*
X147130145Y-98330601D01*
X147176562Y-98170831D01*
X147179500Y-98133502D01*
X147179500Y-97700498D01*
X147176562Y-97663169D01*
X147130145Y-97503399D01*
X147045453Y-97360193D01*
X147042771Y-97357511D01*
X147017498Y-97293139D01*
X147031400Y-97223516D01*
X147041572Y-97207688D01*
X147045453Y-97203807D01*
X147130145Y-97060601D01*
X147143249Y-97015498D01*
X147159231Y-96960484D01*
X147176562Y-96900831D01*
X147179500Y-96863502D01*
X147179500Y-96430498D01*
X147179307Y-96428042D01*
X147177067Y-96399579D01*
X147177066Y-96399574D01*
X147176562Y-96393169D01*
X147130145Y-96233399D01*
X147076363Y-96142458D01*
X147049493Y-96097024D01*
X147049492Y-96097023D01*
X147045453Y-96090193D01*
X147042513Y-96087253D01*
X147017180Y-96022734D01*
X147031079Y-95953111D01*
X147043126Y-95934364D01*
X147049090Y-95926676D01*
X147125648Y-95797221D01*
X147131893Y-95782790D01*
X147170939Y-95648395D01*
X147170899Y-95634294D01*
X147163630Y-95631000D01*
X144584122Y-95631000D01*
X144570591Y-95634973D01*
X144569456Y-95642871D01*
X144599928Y-95747756D01*
X144599725Y-95818752D01*
X144561172Y-95878368D01*
X144496507Y-95907677D01*
X144451243Y-95905628D01*
X144446300Y-95903868D01*
X144439308Y-95903034D01*
X144439307Y-95903034D01*
X144348262Y-95892178D01*
X144277329Y-95883720D01*
X144270326Y-95884456D01*
X144270325Y-95884456D01*
X144115101Y-95900770D01*
X144115097Y-95900771D01*
X144108093Y-95901507D01*
X144094210Y-95906233D01*
X143953673Y-95954075D01*
X143953670Y-95954076D01*
X143947003Y-95956346D01*
X143941005Y-95960036D01*
X143941003Y-95960037D01*
X143808065Y-96041821D01*
X143808063Y-96041823D01*
X143802066Y-96045512D01*
X143680486Y-96164573D01*
X143676675Y-96170487D01*
X143676673Y-96170489D01*
X143644654Y-96220173D01*
X143588304Y-96307610D01*
X143530103Y-96467516D01*
X143508775Y-96636343D01*
X143525381Y-96805699D01*
X143579094Y-96967167D01*
X143582741Y-96973189D01*
X143582742Y-96973191D01*
X143647741Y-97080516D01*
X143667246Y-97112723D01*
X143746506Y-97194799D01*
X143779438Y-97257696D01*
X143773138Y-97328412D01*
X143744030Y-97372346D01*
X143680486Y-97434573D01*
X143676675Y-97440487D01*
X143676673Y-97440489D01*
X143597461Y-97563401D01*
X143588304Y-97577610D01*
X143530103Y-97737516D01*
X143508775Y-97906343D01*
X143525381Y-98075699D01*
X143579094Y-98237167D01*
X143582741Y-98243189D01*
X143582742Y-98243191D01*
X143661599Y-98373398D01*
X143667246Y-98382723D01*
X143746506Y-98464799D01*
X143779438Y-98527696D01*
X143773138Y-98598412D01*
X143744030Y-98642346D01*
X143680486Y-98704573D01*
X143676675Y-98710487D01*
X143676673Y-98710489D01*
X143644654Y-98760173D01*
X143588304Y-98847610D01*
X143554830Y-98939579D01*
X143534419Y-98995659D01*
X143530103Y-99007516D01*
X143508775Y-99176343D01*
X143525381Y-99345699D01*
X143579094Y-99507167D01*
X143582741Y-99513189D01*
X143582742Y-99513191D01*
X143647741Y-99620516D01*
X143667246Y-99652723D01*
X143742535Y-99730687D01*
X143746506Y-99734799D01*
X143779438Y-99797696D01*
X143773138Y-99868412D01*
X143744030Y-99912346D01*
X143680486Y-99974573D01*
X143676675Y-99980487D01*
X143676673Y-99980489D01*
X143599531Y-100100189D01*
X143588304Y-100117610D01*
X143530103Y-100277516D01*
X143508775Y-100446343D01*
X143525381Y-100615699D01*
X143527605Y-100622384D01*
X143527605Y-100622385D01*
X143541492Y-100664132D01*
X143579094Y-100777167D01*
X143582741Y-100783189D01*
X143582742Y-100783191D01*
X143641136Y-100879610D01*
X143667246Y-100922723D01*
X143724013Y-100981507D01*
X143746506Y-101004799D01*
X143779438Y-101067696D01*
X143773138Y-101138412D01*
X143744030Y-101182346D01*
X143680486Y-101244573D01*
X143676675Y-101250487D01*
X143676673Y-101250489D01*
X143601202Y-101367596D01*
X143588304Y-101387610D01*
X143556150Y-101475953D01*
X143534419Y-101535659D01*
X143530103Y-101547516D01*
X143508775Y-101716343D01*
X143525381Y-101885699D01*
X143579094Y-102047167D01*
X143582741Y-102053189D01*
X143582742Y-102053191D01*
X143662182Y-102184361D01*
X143667246Y-102192723D01*
X143745763Y-102274030D01*
X143746506Y-102274799D01*
X143779438Y-102337696D01*
X143773138Y-102408412D01*
X143744030Y-102452346D01*
X143680486Y-102514573D01*
X143676675Y-102520487D01*
X143676673Y-102520489D01*
X143596508Y-102644880D01*
X143588304Y-102657610D01*
X143530103Y-102817516D01*
X143508775Y-102986343D01*
X143525381Y-103155699D01*
X143527605Y-103162384D01*
X143527605Y-103162385D01*
X143545426Y-103215958D01*
X143579094Y-103317167D01*
X143582741Y-103323189D01*
X143582742Y-103323191D01*
X143659145Y-103449346D01*
X143667246Y-103462723D01*
X143746506Y-103544799D01*
X143779438Y-103607696D01*
X143773138Y-103678412D01*
X143744030Y-103722346D01*
X143680486Y-103784573D01*
X143676675Y-103790487D01*
X143676673Y-103790489D01*
X143594077Y-103918652D01*
X143588304Y-103927610D01*
X143530103Y-104087516D01*
X143508775Y-104256343D01*
X140679500Y-104256343D01*
X140679500Y-104050498D01*
X140677963Y-104030970D01*
X140677067Y-104019579D01*
X140677066Y-104019574D01*
X140676562Y-104013169D01*
X140674768Y-104006993D01*
X140674767Y-104006989D01*
X140649103Y-103918652D01*
X140649306Y-103847656D01*
X140687860Y-103788040D01*
X140752525Y-103758732D01*
X140770100Y-103757500D01*
X140896223Y-103757500D01*
X140965216Y-103778068D01*
X140999664Y-103800610D01*
X141006846Y-103805310D01*
X141013450Y-103807766D01*
X141013452Y-103807767D01*
X141048064Y-103820639D01*
X141166341Y-103864626D01*
X141335015Y-103887132D01*
X141342026Y-103886494D01*
X141342030Y-103886494D01*
X141497462Y-103872348D01*
X141504483Y-103871709D01*
X141511185Y-103869531D01*
X141511187Y-103869531D01*
X141659623Y-103821301D01*
X141659626Y-103821300D01*
X141666322Y-103819124D01*
X141812490Y-103731990D01*
X141817584Y-103727139D01*
X141817588Y-103727136D01*
X141890636Y-103657573D01*
X141935721Y-103614639D01*
X141939738Y-103608594D01*
X142016871Y-103492498D01*
X142029891Y-103472902D01*
X142090319Y-103313825D01*
X142092747Y-103296552D01*
X142099625Y-103247607D01*
X142114001Y-103145313D01*
X142114299Y-103124000D01*
X142095331Y-102954892D01*
X142084097Y-102922631D01*
X142051020Y-102827649D01*
X142039368Y-102794189D01*
X142023941Y-102769500D01*
X141996351Y-102725349D01*
X141949192Y-102649879D01*
X141829286Y-102529132D01*
X141823334Y-102525354D01*
X141821236Y-102523668D01*
X141780680Y-102465395D01*
X141778066Y-102394447D01*
X141813295Y-102334224D01*
X141890636Y-102260573D01*
X141935721Y-102217639D01*
X141941296Y-102209249D01*
X141997420Y-102124774D01*
X142029891Y-102075902D01*
X142090319Y-101916825D01*
X142114001Y-101748313D01*
X142114299Y-101727000D01*
X142095331Y-101557892D01*
X142086317Y-101532006D01*
X142041686Y-101403846D01*
X142039368Y-101397189D01*
X142033383Y-101387610D01*
X141991767Y-101321012D01*
X141949192Y-101252879D01*
X141829286Y-101132132D01*
X141817048Y-101124365D01*
X141768412Y-101093500D01*
X141685608Y-101040951D01*
X141525300Y-100983868D01*
X141356329Y-100963720D01*
X141349326Y-100964456D01*
X141349325Y-100964456D01*
X141194101Y-100980770D01*
X141194097Y-100980771D01*
X141187093Y-100981507D01*
X141026003Y-101036346D01*
X140963468Y-101074818D01*
X140897448Y-101093500D01*
X140718643Y-101093500D01*
X140650522Y-101073498D01*
X140604029Y-101019842D01*
X140593925Y-100949568D01*
X140610189Y-100903361D01*
X140625648Y-100877221D01*
X140631893Y-100862790D01*
X140670939Y-100728395D01*
X140670899Y-100714294D01*
X140663630Y-100711000D01*
X139243000Y-100711000D01*
X139174879Y-100690998D01*
X139128386Y-100637342D01*
X139117000Y-100585000D01*
X139117000Y-100329000D01*
X139137002Y-100260879D01*
X139190658Y-100214386D01*
X139243000Y-100203000D01*
X140657878Y-100203000D01*
X140671409Y-100199027D01*
X140672544Y-100191129D01*
X140631893Y-100051210D01*
X140625648Y-100036779D01*
X140610189Y-100010639D01*
X140592730Y-99941823D01*
X140615247Y-99874491D01*
X140670591Y-99830022D01*
X140718643Y-99820500D01*
X140896223Y-99820500D01*
X140965216Y-99841068D01*
X140987289Y-99855512D01*
X141006846Y-99868310D01*
X141013450Y-99870766D01*
X141013452Y-99870767D01*
X141044969Y-99882488D01*
X141166341Y-99927626D01*
X141335015Y-99950132D01*
X141342026Y-99949494D01*
X141342030Y-99949494D01*
X141497462Y-99935348D01*
X141504483Y-99934709D01*
X141511185Y-99932531D01*
X141511187Y-99932531D01*
X141659623Y-99884301D01*
X141659626Y-99884300D01*
X141666322Y-99882124D01*
X141812490Y-99794990D01*
X141817584Y-99790139D01*
X141817588Y-99790136D01*
X141906047Y-99705897D01*
X141935721Y-99677639D01*
X141973674Y-99620516D01*
X141991963Y-99592988D01*
X142029891Y-99535902D01*
X142090319Y-99376825D01*
X142114001Y-99208313D01*
X142114299Y-99187000D01*
X142095331Y-99017892D01*
X142086317Y-98992006D01*
X142041686Y-98863846D01*
X142039368Y-98857189D01*
X142033383Y-98847610D01*
X141991767Y-98781012D01*
X141949192Y-98712879D01*
X141877516Y-98640700D01*
X141843710Y-98578271D01*
X141849022Y-98507474D01*
X141880031Y-98460672D01*
X141908474Y-98433586D01*
X141935721Y-98407639D01*
X141941292Y-98399255D01*
X141996939Y-98315498D01*
X142029891Y-98265902D01*
X142090319Y-98106825D01*
X142114001Y-97938313D01*
X142114299Y-97917000D01*
X142095331Y-97747892D01*
X142039368Y-97587189D01*
X142033383Y-97577610D01*
X141991767Y-97511012D01*
X141949192Y-97442879D01*
X141930874Y-97424432D01*
X141861089Y-97354158D01*
X141829286Y-97322132D01*
X141821838Y-97317405D01*
X141766827Y-97282494D01*
X141685608Y-97230951D01*
X141525300Y-97173868D01*
X141356329Y-97153720D01*
X141349326Y-97154456D01*
X141349325Y-97154456D01*
X141194101Y-97170770D01*
X141194097Y-97170771D01*
X141187093Y-97171507D01*
X141026003Y-97226346D01*
X140963468Y-97264818D01*
X140897448Y-97283500D01*
X140719224Y-97283500D01*
X140651103Y-97263498D01*
X140604610Y-97209842D01*
X140594506Y-97139568D01*
X140610769Y-97093364D01*
X140630145Y-97060601D01*
X140643249Y-97015498D01*
X140659231Y-96960484D01*
X140676562Y-96900831D01*
X140679500Y-96863502D01*
X140679500Y-96430498D01*
X140679307Y-96428042D01*
X140677067Y-96399579D01*
X140677066Y-96399574D01*
X140676562Y-96393169D01*
X140630145Y-96233399D01*
X140545453Y-96090193D01*
X140542771Y-96087511D01*
X140517498Y-96023139D01*
X140531400Y-95953516D01*
X140541572Y-95937688D01*
X140545453Y-95933807D01*
X140630145Y-95790601D01*
X140632415Y-95782790D01*
X140665902Y-95667522D01*
X140676562Y-95630831D01*
X140678309Y-95608642D01*
X140679307Y-95595958D01*
X140679307Y-95595950D01*
X140679500Y-95593502D01*
X140679500Y-95160498D01*
X140679307Y-95158042D01*
X140677067Y-95129579D01*
X140677066Y-95129574D01*
X140676562Y-95123169D01*
X140671459Y-95105605D01*
X144571061Y-95105605D01*
X144571101Y-95119706D01*
X144578370Y-95123000D01*
X145598885Y-95123000D01*
X145614124Y-95118525D01*
X145615329Y-95117135D01*
X145617000Y-95109452D01*
X145617000Y-95104885D01*
X146125000Y-95104885D01*
X146129475Y-95120124D01*
X146130865Y-95121329D01*
X146138548Y-95123000D01*
X147157878Y-95123000D01*
X147171409Y-95119027D01*
X147172544Y-95111129D01*
X147131893Y-94971210D01*
X147125648Y-94956779D01*
X147049089Y-94827322D01*
X147039449Y-94814896D01*
X146933104Y-94708551D01*
X146920678Y-94698911D01*
X146791221Y-94622352D01*
X146776790Y-94616107D01*
X146630935Y-94573731D01*
X146618333Y-94571430D01*
X146589916Y-94569193D01*
X146584986Y-94569000D01*
X146143115Y-94569000D01*
X146127876Y-94573475D01*
X146126671Y-94574865D01*
X146125000Y-94582548D01*
X146125000Y-95104885D01*
X145617000Y-95104885D01*
X145617000Y-94587116D01*
X145612525Y-94571877D01*
X145611135Y-94570672D01*
X145603452Y-94569001D01*
X145157017Y-94569001D01*
X145152080Y-94569195D01*
X145123664Y-94571430D01*
X145111069Y-94573730D01*
X144965210Y-94616107D01*
X144950779Y-94622352D01*
X144821322Y-94698911D01*
X144808896Y-94708551D01*
X144702551Y-94814896D01*
X144692911Y-94827322D01*
X144616352Y-94956779D01*
X144610107Y-94971210D01*
X144571061Y-95105605D01*
X140671459Y-95105605D01*
X140639458Y-94995456D01*
X140632357Y-94971012D01*
X140632356Y-94971010D01*
X140630145Y-94963399D01*
X140613107Y-94934589D01*
X140549491Y-94827020D01*
X140549489Y-94827017D01*
X140545453Y-94820193D01*
X140427807Y-94702547D01*
X140420983Y-94698511D01*
X140420980Y-94698509D01*
X140291427Y-94621892D01*
X140291428Y-94621892D01*
X140284601Y-94617855D01*
X140276990Y-94615644D01*
X140276988Y-94615643D01*
X140224769Y-94600472D01*
X140124831Y-94571438D01*
X140118426Y-94570934D01*
X140118421Y-94570933D01*
X140089958Y-94568693D01*
X140089950Y-94568693D01*
X140087502Y-94568500D01*
X138654498Y-94568500D01*
X138652050Y-94568693D01*
X138652042Y-94568693D01*
X138623579Y-94570933D01*
X138623574Y-94570934D01*
X138617169Y-94571438D01*
X138517231Y-94600472D01*
X138465012Y-94615643D01*
X138465010Y-94615644D01*
X138457399Y-94617855D01*
X138450572Y-94621892D01*
X138450573Y-94621892D01*
X138321020Y-94698509D01*
X138321017Y-94698511D01*
X138314193Y-94702547D01*
X138196547Y-94820193D01*
X138192511Y-94827017D01*
X138192509Y-94827020D01*
X138128893Y-94934589D01*
X138111855Y-94963399D01*
X138109644Y-94971010D01*
X138109643Y-94971012D01*
X138102542Y-94995456D01*
X138065438Y-95123169D01*
X138064934Y-95129574D01*
X138064933Y-95129579D01*
X138062693Y-95158042D01*
X138062500Y-95160498D01*
X138062500Y-95593502D01*
X138062693Y-95595950D01*
X138062693Y-95595958D01*
X138063692Y-95608642D01*
X138065438Y-95630831D01*
X138076098Y-95667522D01*
X138109586Y-95782790D01*
X138111855Y-95790601D01*
X138131231Y-95823363D01*
X138148689Y-95892178D01*
X138126172Y-95959509D01*
X138070827Y-96003978D01*
X138022776Y-96013500D01*
X137868018Y-96013500D01*
X137800506Y-95993887D01*
X137748608Y-95960951D01*
X137588300Y-95903868D01*
X137419329Y-95883720D01*
X137412326Y-95884456D01*
X137412325Y-95884456D01*
X137257101Y-95900770D01*
X137257097Y-95900771D01*
X137250093Y-95901507D01*
X137236210Y-95906233D01*
X137095673Y-95954075D01*
X137095670Y-95954076D01*
X137089003Y-95956346D01*
X137083005Y-95960036D01*
X137083003Y-95960037D01*
X136950065Y-96041821D01*
X136950063Y-96041823D01*
X136944066Y-96045512D01*
X136822486Y-96164573D01*
X136818675Y-96170487D01*
X136818673Y-96170489D01*
X136786654Y-96220173D01*
X136730304Y-96307610D01*
X136672103Y-96467516D01*
X136650775Y-96636343D01*
X136667381Y-96805699D01*
X136721094Y-96967167D01*
X136724741Y-96973189D01*
X136724742Y-96973191D01*
X136789741Y-97080516D01*
X136809246Y-97112723D01*
X136927455Y-97235132D01*
X136979391Y-97269118D01*
X137050289Y-97315512D01*
X137069846Y-97328310D01*
X137076450Y-97330766D01*
X137076452Y-97330767D01*
X137112844Y-97344301D01*
X137229341Y-97387626D01*
X137398015Y-97410132D01*
X137405026Y-97409494D01*
X137405030Y-97409494D01*
X137560462Y-97395348D01*
X137567483Y-97394709D01*
X137574185Y-97392531D01*
X137574187Y-97392531D01*
X137722623Y-97344301D01*
X137722626Y-97344300D01*
X137729322Y-97342124D01*
X137735373Y-97338517D01*
X137735375Y-97338516D01*
X137802887Y-97298271D01*
X137867404Y-97280500D01*
X138022776Y-97280500D01*
X138090897Y-97300502D01*
X138137390Y-97354158D01*
X138147494Y-97424432D01*
X138131231Y-97470636D01*
X138111855Y-97503399D01*
X138065438Y-97663169D01*
X138062500Y-97700498D01*
X138062500Y-98133502D01*
X138065438Y-98170831D01*
X138111855Y-98330601D01*
X138196547Y-98473807D01*
X138199229Y-98476489D01*
X138224502Y-98540861D01*
X138210600Y-98610484D01*
X138200428Y-98626312D01*
X138196547Y-98630193D01*
X138111855Y-98773399D01*
X138065438Y-98933169D01*
X138062500Y-98970498D01*
X138062500Y-99403502D01*
X138065438Y-99440831D01*
X138111855Y-99600601D01*
X138115892Y-99607427D01*
X138176622Y-99710115D01*
X138196547Y-99743807D01*
X138199487Y-99746747D01*
X138224820Y-99811266D01*
X138210921Y-99880889D01*
X138198874Y-99899636D01*
X138192908Y-99907328D01*
X138127603Y-100017754D01*
X138075710Y-100066207D01*
X138005860Y-100078913D01*
X137940229Y-100051838D01*
X137930131Y-100042789D01*
X137867871Y-99980637D01*
X137856460Y-99971625D01*
X137720937Y-99888088D01*
X137707759Y-99881944D01*
X137556234Y-99831685D01*
X137542868Y-99828819D01*
X137450230Y-99819328D01*
X137443815Y-99819000D01*
X137432115Y-99819000D01*
X137416876Y-99823475D01*
X137415671Y-99824865D01*
X137414000Y-99832548D01*
X137414000Y-100992500D01*
X137393998Y-101060621D01*
X137340342Y-101107114D01*
X137288000Y-101118500D01*
X136195115Y-101118500D01*
X136179876Y-101122975D01*
X136178671Y-101124365D01*
X136177000Y-101132048D01*
X136177000Y-101210766D01*
X136177337Y-101217282D01*
X136187075Y-101311132D01*
X136189968Y-101324528D01*
X136240488Y-101475953D01*
X136246653Y-101489115D01*
X136330426Y-101624492D01*
X136339464Y-101635894D01*
X136341139Y-101637567D01*
X136341919Y-101638993D01*
X136344007Y-101641627D01*
X136343556Y-101641984D01*
X136375219Y-101699849D01*
X136370216Y-101770669D01*
X136341299Y-101815754D01*
X136338476Y-101818583D01*
X136333071Y-101823997D01*
X136329231Y-101830227D01*
X136329230Y-101830228D01*
X136260185Y-101942240D01*
X136241791Y-101972080D01*
X136187026Y-102137191D01*
X136186326Y-102144027D01*
X136186325Y-102144030D01*
X136181336Y-102192723D01*
X136176500Y-102239928D01*
X136176500Y-102939072D01*
X134352500Y-102939072D01*
X134352500Y-102780498D01*
X134352307Y-102778042D01*
X134350067Y-102749579D01*
X134350066Y-102749574D01*
X134349562Y-102743169D01*
X134303145Y-102583399D01*
X134283769Y-102550637D01*
X134266311Y-102481822D01*
X134288828Y-102414491D01*
X134344173Y-102370022D01*
X134392224Y-102360500D01*
X134546223Y-102360500D01*
X134615216Y-102381068D01*
X134649664Y-102403610D01*
X134656846Y-102408310D01*
X134663450Y-102410766D01*
X134663452Y-102410767D01*
X134724165Y-102433346D01*
X134816341Y-102467626D01*
X134985015Y-102490132D01*
X134992026Y-102489494D01*
X134992030Y-102489494D01*
X135147462Y-102475348D01*
X135154483Y-102474709D01*
X135161185Y-102472531D01*
X135161187Y-102472531D01*
X135309623Y-102424301D01*
X135309626Y-102424300D01*
X135316322Y-102422124D01*
X135462490Y-102334990D01*
X135467584Y-102330139D01*
X135467588Y-102330136D01*
X135540636Y-102260573D01*
X135585721Y-102217639D01*
X135591296Y-102209249D01*
X135647420Y-102124774D01*
X135679891Y-102075902D01*
X135740319Y-101916825D01*
X135764001Y-101748313D01*
X135764299Y-101727000D01*
X135745331Y-101557892D01*
X135736317Y-101532006D01*
X135691686Y-101403846D01*
X135689368Y-101397189D01*
X135683383Y-101387610D01*
X135641767Y-101321012D01*
X135599192Y-101252879D01*
X135479286Y-101132132D01*
X135467048Y-101124365D01*
X135418412Y-101093500D01*
X135335608Y-101040951D01*
X135175300Y-100983868D01*
X135006329Y-100963720D01*
X134999326Y-100964456D01*
X134999325Y-100964456D01*
X134844101Y-100980770D01*
X134844097Y-100980771D01*
X134837093Y-100981507D01*
X134676003Y-101036346D01*
X134613468Y-101074818D01*
X134547448Y-101093500D01*
X134392224Y-101093500D01*
X134324103Y-101073498D01*
X134277610Y-101019842D01*
X134267506Y-100949568D01*
X134283769Y-100903364D01*
X134303145Y-100870601D01*
X134305415Y-100862790D01*
X134335345Y-100759767D01*
X134349562Y-100710831D01*
X134352500Y-100673502D01*
X134352500Y-100592385D01*
X136177000Y-100592385D01*
X136181475Y-100607624D01*
X136182865Y-100608829D01*
X136190548Y-100610500D01*
X136887885Y-100610500D01*
X136903124Y-100606025D01*
X136904329Y-100604635D01*
X136906000Y-100596952D01*
X136906000Y-99837115D01*
X136901525Y-99821876D01*
X136900135Y-99820671D01*
X136892452Y-99819000D01*
X136876234Y-99819000D01*
X136869718Y-99819337D01*
X136775868Y-99829075D01*
X136762472Y-99831968D01*
X136611047Y-99882488D01*
X136597885Y-99888653D01*
X136462508Y-99972426D01*
X136451110Y-99981460D01*
X136338637Y-100094129D01*
X136329625Y-100105540D01*
X136246088Y-100241063D01*
X136239944Y-100254241D01*
X136189685Y-100405766D01*
X136186819Y-100419132D01*
X136177328Y-100511770D01*
X136177000Y-100518185D01*
X136177000Y-100592385D01*
X134352500Y-100592385D01*
X134352500Y-100240498D01*
X134350445Y-100214386D01*
X134350067Y-100209579D01*
X134350066Y-100209574D01*
X134349562Y-100203169D01*
X134313463Y-100078913D01*
X134305357Y-100051012D01*
X134305356Y-100051010D01*
X134303145Y-100043399D01*
X134218453Y-99900193D01*
X134215771Y-99897511D01*
X134190498Y-99833139D01*
X134204400Y-99763516D01*
X134214572Y-99747688D01*
X134218453Y-99743807D01*
X134303145Y-99600601D01*
X134349562Y-99440831D01*
X134352500Y-99403502D01*
X134352500Y-98970498D01*
X134349562Y-98933169D01*
X134303145Y-98773399D01*
X134218453Y-98630193D01*
X134215771Y-98627511D01*
X134190498Y-98563139D01*
X134204400Y-98493516D01*
X134214572Y-98477688D01*
X134218453Y-98473807D01*
X134303145Y-98330601D01*
X134349562Y-98170831D01*
X134352500Y-98133502D01*
X134352500Y-97700498D01*
X134349562Y-97663169D01*
X134303145Y-97503399D01*
X134283769Y-97470637D01*
X134266311Y-97401822D01*
X134288828Y-97334491D01*
X134344173Y-97290022D01*
X134392224Y-97280500D01*
X134673223Y-97280500D01*
X134742216Y-97301068D01*
X134764289Y-97315512D01*
X134783846Y-97328310D01*
X134790450Y-97330766D01*
X134790452Y-97330767D01*
X134826844Y-97344301D01*
X134943341Y-97387626D01*
X135112015Y-97410132D01*
X135119026Y-97409494D01*
X135119030Y-97409494D01*
X135274462Y-97395348D01*
X135281483Y-97394709D01*
X135288185Y-97392531D01*
X135288187Y-97392531D01*
X135436623Y-97344301D01*
X135436626Y-97344300D01*
X135443322Y-97342124D01*
X135589490Y-97254990D01*
X135594584Y-97250139D01*
X135594588Y-97250136D01*
X135696065Y-97153500D01*
X135712721Y-97137639D01*
X135716738Y-97131594D01*
X135793871Y-97015498D01*
X135806891Y-96995902D01*
X135867319Y-96836825D01*
X135891001Y-96668313D01*
X135891299Y-96647000D01*
X135872331Y-96477892D01*
X135816368Y-96317189D01*
X135810383Y-96307610D01*
X135768767Y-96241012D01*
X135726192Y-96172879D01*
X135720002Y-96166645D01*
X135650855Y-96097014D01*
X135606286Y-96052132D01*
X135598181Y-96046988D01*
X135549865Y-96016326D01*
X135462608Y-95960951D01*
X135302300Y-95903868D01*
X135133329Y-95883720D01*
X135126326Y-95884456D01*
X135126325Y-95884456D01*
X134971101Y-95900770D01*
X134971097Y-95900771D01*
X134964093Y-95901507D01*
X134803003Y-95956346D01*
X134740468Y-95994818D01*
X134674448Y-96013500D01*
X134391643Y-96013500D01*
X134323522Y-95993498D01*
X134277029Y-95939842D01*
X134266925Y-95869568D01*
X134283189Y-95823361D01*
X134298648Y-95797221D01*
X134304893Y-95782790D01*
X134343939Y-95648395D01*
X134343899Y-95634294D01*
X134336630Y-95631000D01*
X131757122Y-95631000D01*
X131743591Y-95634973D01*
X131742456Y-95642871D01*
X131783107Y-95782790D01*
X131789352Y-95797221D01*
X131865911Y-95926677D01*
X131871871Y-95934360D01*
X131897820Y-96000444D01*
X131883922Y-96070067D01*
X131873579Y-96086161D01*
X131869547Y-96090193D01*
X131853737Y-96116927D01*
X131844489Y-96132564D01*
X131792596Y-96181016D01*
X131722745Y-96193721D01*
X131657114Y-96166645D01*
X131646630Y-96157207D01*
X131547253Y-96057133D01*
X131547248Y-96057129D01*
X131542286Y-96052132D01*
X131534181Y-96046988D01*
X131485865Y-96016326D01*
X131398608Y-95960951D01*
X131238300Y-95903868D01*
X131069329Y-95883720D01*
X131062326Y-95884456D01*
X131062325Y-95884456D01*
X130907101Y-95900770D01*
X130907097Y-95900771D01*
X130900093Y-95901507D01*
X130886210Y-95906233D01*
X130745673Y-95954075D01*
X130745670Y-95954076D01*
X130739003Y-95956346D01*
X130733005Y-95960036D01*
X130733003Y-95960037D01*
X130600065Y-96041821D01*
X130600063Y-96041823D01*
X130594066Y-96045512D01*
X130472486Y-96164573D01*
X130468675Y-96170487D01*
X130468673Y-96170489D01*
X130436654Y-96220173D01*
X130380304Y-96307610D01*
X130322103Y-96467516D01*
X130300775Y-96636343D01*
X129146646Y-96636343D01*
X129160001Y-96541313D01*
X129160299Y-96520000D01*
X129141331Y-96350892D01*
X129085368Y-96190189D01*
X129074552Y-96172879D01*
X129049359Y-96132564D01*
X128995192Y-96045879D01*
X128972611Y-96023139D01*
X128914604Y-95964726D01*
X128875286Y-95925132D01*
X128850954Y-95909690D01*
X128784972Y-95867817D01*
X128731608Y-95833951D01*
X128571300Y-95776868D01*
X128402329Y-95756720D01*
X128395326Y-95757456D01*
X128395325Y-95757456D01*
X128240101Y-95773770D01*
X128240097Y-95773771D01*
X128233093Y-95774507D01*
X128072003Y-95829346D01*
X128009468Y-95867818D01*
X127943448Y-95886500D01*
X127943100Y-95886500D01*
X127874979Y-95866498D01*
X127828486Y-95812842D01*
X127818382Y-95742568D01*
X127822103Y-95725348D01*
X127847767Y-95637011D01*
X127847768Y-95637007D01*
X127849562Y-95630831D01*
X127851309Y-95608642D01*
X127852307Y-95595958D01*
X127852307Y-95595950D01*
X127852500Y-95593502D01*
X127852500Y-95160498D01*
X127852307Y-95158042D01*
X127850067Y-95129579D01*
X127850066Y-95129574D01*
X127849562Y-95123169D01*
X127844459Y-95105605D01*
X131744061Y-95105605D01*
X131744101Y-95119706D01*
X131751370Y-95123000D01*
X132771885Y-95123000D01*
X132787124Y-95118525D01*
X132788329Y-95117135D01*
X132790000Y-95109452D01*
X132790000Y-95104885D01*
X133298000Y-95104885D01*
X133302475Y-95120124D01*
X133303865Y-95121329D01*
X133311548Y-95123000D01*
X134330878Y-95123000D01*
X134344409Y-95119027D01*
X134345544Y-95111129D01*
X134304893Y-94971210D01*
X134298648Y-94956779D01*
X134222089Y-94827322D01*
X134212449Y-94814896D01*
X134106104Y-94708551D01*
X134093678Y-94698911D01*
X133964221Y-94622352D01*
X133949790Y-94616107D01*
X133803935Y-94573731D01*
X133791333Y-94571430D01*
X133762916Y-94569193D01*
X133757986Y-94569000D01*
X133316115Y-94569000D01*
X133300876Y-94573475D01*
X133299671Y-94574865D01*
X133298000Y-94582548D01*
X133298000Y-95104885D01*
X132790000Y-95104885D01*
X132790000Y-94587116D01*
X132785525Y-94571877D01*
X132784135Y-94570672D01*
X132776452Y-94569001D01*
X132330017Y-94569001D01*
X132325080Y-94569195D01*
X132296664Y-94571430D01*
X132284069Y-94573730D01*
X132138210Y-94616107D01*
X132123779Y-94622352D01*
X131994322Y-94698911D01*
X131981896Y-94708551D01*
X131875551Y-94814896D01*
X131865911Y-94827322D01*
X131789352Y-94956779D01*
X131783107Y-94971210D01*
X131744061Y-95105605D01*
X127844459Y-95105605D01*
X127812458Y-94995456D01*
X127805357Y-94971012D01*
X127805356Y-94971010D01*
X127803145Y-94963399D01*
X127786107Y-94934589D01*
X127722491Y-94827020D01*
X127722489Y-94827017D01*
X127718453Y-94820193D01*
X127600807Y-94702547D01*
X127593983Y-94698511D01*
X127593980Y-94698509D01*
X127464427Y-94621892D01*
X127464428Y-94621892D01*
X127457601Y-94617855D01*
X127449990Y-94615644D01*
X127449988Y-94615643D01*
X127397769Y-94600472D01*
X127297831Y-94571438D01*
X127291426Y-94570934D01*
X127291421Y-94570933D01*
X127262958Y-94568693D01*
X127262950Y-94568693D01*
X127260502Y-94568500D01*
X125827498Y-94568500D01*
X125825050Y-94568693D01*
X125825042Y-94568693D01*
X125796579Y-94570933D01*
X125796574Y-94570934D01*
X125790169Y-94571438D01*
X125690231Y-94600472D01*
X125638012Y-94615643D01*
X125638010Y-94615644D01*
X125630399Y-94617855D01*
X125623572Y-94621892D01*
X125623573Y-94621892D01*
X125494020Y-94698509D01*
X125494017Y-94698511D01*
X125487193Y-94702547D01*
X125369547Y-94820193D01*
X125365511Y-94827017D01*
X125365509Y-94827020D01*
X125301893Y-94934589D01*
X125284855Y-94963399D01*
X125282644Y-94971010D01*
X125282643Y-94971012D01*
X125275542Y-94995456D01*
X125238438Y-95123169D01*
X125237934Y-95129574D01*
X125237933Y-95129579D01*
X125235693Y-95158042D01*
X125235500Y-95160498D01*
X125235500Y-95593502D01*
X125235693Y-95595950D01*
X125235693Y-95595958D01*
X125236692Y-95608642D01*
X125238438Y-95630831D01*
X125249098Y-95667522D01*
X125282586Y-95782790D01*
X125284855Y-95790601D01*
X125369547Y-95933807D01*
X125372229Y-95936489D01*
X125397502Y-96000861D01*
X125383600Y-96070484D01*
X125373428Y-96086312D01*
X125369547Y-96090193D01*
X125284855Y-96233399D01*
X125238438Y-96393169D01*
X125237934Y-96399574D01*
X125237933Y-96399579D01*
X125235693Y-96428042D01*
X125235500Y-96430498D01*
X125235500Y-96863502D01*
X125238438Y-96900831D01*
X125255769Y-96960484D01*
X125271752Y-97015498D01*
X125284855Y-97060601D01*
X125304231Y-97093363D01*
X125321689Y-97162178D01*
X125299172Y-97229509D01*
X125243827Y-97273978D01*
X125195776Y-97283500D01*
X124660018Y-97283500D01*
X124592506Y-97263887D01*
X124540608Y-97230951D01*
X124380300Y-97173868D01*
X124211329Y-97153720D01*
X124204326Y-97154456D01*
X124204325Y-97154456D01*
X124049101Y-97170770D01*
X124049097Y-97170771D01*
X124042093Y-97171507D01*
X124035422Y-97173778D01*
X123887673Y-97224075D01*
X123887670Y-97224076D01*
X123881003Y-97226346D01*
X123875005Y-97230036D01*
X123875003Y-97230037D01*
X123742065Y-97311821D01*
X123742063Y-97311823D01*
X123736066Y-97315512D01*
X123665510Y-97384607D01*
X123624842Y-97424432D01*
X123614486Y-97434573D01*
X123610675Y-97440487D01*
X123610673Y-97440489D01*
X123531461Y-97563401D01*
X123522304Y-97577610D01*
X123464103Y-97737516D01*
X123442775Y-97906343D01*
X123459381Y-98075699D01*
X123513094Y-98237167D01*
X123516741Y-98243189D01*
X123516742Y-98243191D01*
X123595599Y-98373398D01*
X123601246Y-98382723D01*
X123719455Y-98505132D01*
X123769724Y-98538027D01*
X123842289Y-98585512D01*
X123861846Y-98598310D01*
X123868450Y-98600766D01*
X123868452Y-98600767D01*
X123919542Y-98619767D01*
X124021341Y-98657626D01*
X124190015Y-98680132D01*
X124197026Y-98679494D01*
X124197030Y-98679494D01*
X124352462Y-98665348D01*
X124359483Y-98664709D01*
X124366185Y-98662531D01*
X124366187Y-98662531D01*
X124514623Y-98614301D01*
X124514626Y-98614300D01*
X124521322Y-98612124D01*
X124527373Y-98608517D01*
X124527375Y-98608516D01*
X124594887Y-98568271D01*
X124659404Y-98550500D01*
X125195776Y-98550500D01*
X125263897Y-98570502D01*
X125310390Y-98624158D01*
X125320494Y-98694432D01*
X125304231Y-98740636D01*
X125284855Y-98773399D01*
X125238438Y-98933169D01*
X125235500Y-98970498D01*
X125235500Y-99403502D01*
X125238438Y-99440831D01*
X125284855Y-99600601D01*
X125288892Y-99607427D01*
X125349622Y-99710115D01*
X125369547Y-99743807D01*
X125372487Y-99746747D01*
X125397820Y-99811266D01*
X125383921Y-99880889D01*
X125371874Y-99899636D01*
X125365908Y-99907327D01*
X125347829Y-99937898D01*
X125295937Y-99986351D01*
X125226086Y-99999057D01*
X125160455Y-99971982D01*
X125150357Y-99962933D01*
X125040871Y-99853637D01*
X125029460Y-99844625D01*
X124893937Y-99761088D01*
X124880759Y-99754944D01*
X124729234Y-99704685D01*
X124715868Y-99701819D01*
X124623230Y-99692328D01*
X124616815Y-99692000D01*
X124605115Y-99692000D01*
X124589876Y-99696475D01*
X124588671Y-99697865D01*
X124587000Y-99705548D01*
X124587000Y-100865500D01*
X124566998Y-100933621D01*
X124513342Y-100980114D01*
X124461000Y-100991500D01*
X123368115Y-100991500D01*
X123352876Y-100995975D01*
X123351671Y-100997365D01*
X123350000Y-101005048D01*
X123350000Y-101083766D01*
X123350337Y-101090282D01*
X123360075Y-101184132D01*
X123362968Y-101197528D01*
X123413488Y-101348953D01*
X123419653Y-101362115D01*
X123503426Y-101497492D01*
X123512464Y-101508894D01*
X123514139Y-101510567D01*
X123514919Y-101511993D01*
X123517007Y-101514627D01*
X123516556Y-101514984D01*
X123548219Y-101572849D01*
X123543216Y-101643669D01*
X123514299Y-101688754D01*
X123513268Y-101689787D01*
X123506071Y-101696997D01*
X123502231Y-101703227D01*
X123502230Y-101703228D01*
X123438183Y-101807132D01*
X123414791Y-101845080D01*
X123360026Y-102010191D01*
X123359326Y-102017027D01*
X123359325Y-102017030D01*
X123356188Y-102047653D01*
X123349500Y-102112928D01*
X123349500Y-102812072D01*
X121398500Y-102812072D01*
X121398500Y-102780498D01*
X121398307Y-102778042D01*
X121396067Y-102749579D01*
X121396066Y-102749574D01*
X121395562Y-102743169D01*
X121349145Y-102583399D01*
X121264453Y-102440193D01*
X121261771Y-102437511D01*
X121236498Y-102373139D01*
X121250400Y-102303516D01*
X121260572Y-102287688D01*
X121264453Y-102283807D01*
X121349145Y-102140601D01*
X121352799Y-102128026D01*
X121374785Y-102052346D01*
X121395562Y-101980831D01*
X121396742Y-101965850D01*
X121398307Y-101945958D01*
X121398307Y-101945950D01*
X121398500Y-101943502D01*
X121398500Y-101510498D01*
X121397561Y-101498564D01*
X121396067Y-101479579D01*
X121396066Y-101479574D01*
X121395562Y-101473169D01*
X121349145Y-101313399D01*
X121264453Y-101170193D01*
X121261771Y-101167511D01*
X121236498Y-101103139D01*
X121250400Y-101033516D01*
X121260572Y-101017688D01*
X121264453Y-101013807D01*
X121349145Y-100870601D01*
X121351415Y-100862790D01*
X121381345Y-100759767D01*
X121395562Y-100710831D01*
X121398500Y-100673502D01*
X121398500Y-100465385D01*
X123350000Y-100465385D01*
X123354475Y-100480624D01*
X123355865Y-100481829D01*
X123363548Y-100483500D01*
X124060885Y-100483500D01*
X124076124Y-100479025D01*
X124077329Y-100477635D01*
X124079000Y-100469952D01*
X124079000Y-99710115D01*
X124074525Y-99694876D01*
X124073135Y-99693671D01*
X124065452Y-99692000D01*
X124049234Y-99692000D01*
X124042718Y-99692337D01*
X123948868Y-99702075D01*
X123935472Y-99704968D01*
X123784047Y-99755488D01*
X123770885Y-99761653D01*
X123635508Y-99845426D01*
X123624110Y-99854460D01*
X123511637Y-99967129D01*
X123502625Y-99978540D01*
X123419088Y-100114063D01*
X123412944Y-100127241D01*
X123362685Y-100278766D01*
X123359819Y-100292132D01*
X123350328Y-100384770D01*
X123350000Y-100391185D01*
X123350000Y-100465385D01*
X121398500Y-100465385D01*
X121398500Y-100240498D01*
X121396445Y-100214386D01*
X121396067Y-100209579D01*
X121396066Y-100209574D01*
X121395562Y-100203169D01*
X121359463Y-100078913D01*
X121351357Y-100051012D01*
X121351356Y-100051010D01*
X121349145Y-100043399D01*
X121264453Y-99900193D01*
X121261771Y-99897511D01*
X121236498Y-99833139D01*
X121250400Y-99763516D01*
X121260572Y-99747688D01*
X121264453Y-99743807D01*
X121349145Y-99600601D01*
X121395562Y-99440831D01*
X121398500Y-99403502D01*
X121398500Y-98970498D01*
X121395562Y-98933169D01*
X121349145Y-98773399D01*
X121264453Y-98630193D01*
X121261771Y-98627511D01*
X121236498Y-98563139D01*
X121250400Y-98493516D01*
X121260572Y-98477688D01*
X121264453Y-98473807D01*
X121349145Y-98330601D01*
X121395562Y-98170831D01*
X121398500Y-98133502D01*
X121398500Y-97700498D01*
X121395562Y-97663169D01*
X121349145Y-97503399D01*
X121264453Y-97360193D01*
X121261771Y-97357511D01*
X121236498Y-97293139D01*
X121250400Y-97223516D01*
X121260572Y-97207688D01*
X121264453Y-97203807D01*
X121349145Y-97060601D01*
X121362249Y-97015498D01*
X121378231Y-96960484D01*
X121395562Y-96900831D01*
X121398500Y-96863502D01*
X121398500Y-96430498D01*
X121398307Y-96428042D01*
X121396067Y-96399579D01*
X121396066Y-96399574D01*
X121395562Y-96393169D01*
X121349145Y-96233399D01*
X121295363Y-96142458D01*
X121268493Y-96097024D01*
X121268492Y-96097023D01*
X121264453Y-96090193D01*
X121261513Y-96087253D01*
X121236180Y-96022734D01*
X121250079Y-95953111D01*
X121262126Y-95934364D01*
X121268090Y-95926676D01*
X121344648Y-95797221D01*
X121350893Y-95782790D01*
X121389939Y-95648395D01*
X121389899Y-95634294D01*
X121382630Y-95631000D01*
X119962000Y-95631000D01*
X119893879Y-95610998D01*
X119847386Y-95557342D01*
X119836000Y-95505000D01*
X119836000Y-95104885D01*
X120344000Y-95104885D01*
X120348475Y-95120124D01*
X120349865Y-95121329D01*
X120357548Y-95123000D01*
X121376878Y-95123000D01*
X121390409Y-95119027D01*
X121391544Y-95111129D01*
X121350893Y-94971210D01*
X121344648Y-94956779D01*
X121268089Y-94827322D01*
X121258449Y-94814896D01*
X121152104Y-94708551D01*
X121139678Y-94698911D01*
X121010221Y-94622352D01*
X120995790Y-94616107D01*
X120849935Y-94573731D01*
X120837333Y-94571430D01*
X120808916Y-94569193D01*
X120803986Y-94569000D01*
X120362115Y-94569000D01*
X120346876Y-94573475D01*
X120345671Y-94574865D01*
X120344000Y-94582548D01*
X120344000Y-95104885D01*
X119836000Y-95104885D01*
X119836000Y-94587116D01*
X119831525Y-94571877D01*
X119830135Y-94570672D01*
X119822452Y-94569001D01*
X119376017Y-94569001D01*
X119371080Y-94569195D01*
X119342664Y-94571430D01*
X119330069Y-94573730D01*
X119184210Y-94616107D01*
X119169779Y-94622352D01*
X119040322Y-94698911D01*
X119027896Y-94708551D01*
X118921551Y-94814896D01*
X118911911Y-94827322D01*
X118835352Y-94956779D01*
X118829106Y-94971212D01*
X118790777Y-95103140D01*
X118752564Y-95162976D01*
X118688067Y-95192653D01*
X118617765Y-95182749D01*
X118592082Y-95166954D01*
X118588286Y-95163132D01*
X118444608Y-95071951D01*
X118284300Y-95014868D01*
X118115329Y-94994720D01*
X118108326Y-94995456D01*
X118108325Y-94995456D01*
X117953101Y-95011770D01*
X117953097Y-95011771D01*
X117946093Y-95012507D01*
X117939422Y-95014778D01*
X117791673Y-95065075D01*
X117791670Y-95065076D01*
X117785003Y-95067346D01*
X117779005Y-95071036D01*
X117779003Y-95071037D01*
X117646065Y-95152821D01*
X117646063Y-95152823D01*
X117640066Y-95156512D01*
X117518486Y-95275573D01*
X117514675Y-95281487D01*
X117514673Y-95281489D01*
X117432104Y-95409610D01*
X117426304Y-95418610D01*
X117368103Y-95578516D01*
X117346775Y-95747343D01*
X117363381Y-95916699D01*
X117365605Y-95923384D01*
X117365605Y-95923385D01*
X117369072Y-95933807D01*
X117417094Y-96078167D01*
X117420741Y-96084189D01*
X117420742Y-96084191D01*
X117500330Y-96215605D01*
X117505246Y-96223723D01*
X117623455Y-96346132D01*
X117629350Y-96349990D01*
X117629353Y-96349992D01*
X117630374Y-96350660D01*
X117630883Y-96351258D01*
X117634776Y-96354478D01*
X117634210Y-96355162D01*
X117676421Y-96404699D01*
X117685943Y-96475054D01*
X117655916Y-96539388D01*
X117642561Y-96551977D01*
X117640066Y-96553512D01*
X117635033Y-96558441D01*
X117526867Y-96664366D01*
X117518486Y-96672573D01*
X117514675Y-96678487D01*
X117514673Y-96678489D01*
X117456672Y-96768489D01*
X117426304Y-96815610D01*
X117368103Y-96975516D01*
X117346775Y-97144343D01*
X117363381Y-97313699D01*
X117365605Y-97320384D01*
X117365605Y-97320385D01*
X117371636Y-97338516D01*
X117417094Y-97475167D01*
X117420741Y-97481189D01*
X117420742Y-97481191D01*
X117488969Y-97593846D01*
X117505246Y-97620723D01*
X117623455Y-97743132D01*
X117765846Y-97836310D01*
X117772450Y-97838766D01*
X117772452Y-97838767D01*
X117918733Y-97893169D01*
X117918737Y-97893170D01*
X117925341Y-97895626D01*
X117930257Y-97896282D01*
X117988110Y-97929015D01*
X118368348Y-98309253D01*
X118375888Y-98317539D01*
X118380000Y-98324018D01*
X118385777Y-98329443D01*
X118429651Y-98370643D01*
X118432493Y-98373398D01*
X118452230Y-98393135D01*
X118455427Y-98395615D01*
X118464447Y-98403318D01*
X118496679Y-98433586D01*
X118503625Y-98437405D01*
X118503628Y-98437407D01*
X118512879Y-98442493D01*
X118562936Y-98492839D01*
X118577828Y-98562257D01*
X118552825Y-98628705D01*
X118516314Y-98661359D01*
X118480638Y-98682458D01*
X118466317Y-98696779D01*
X118451284Y-98709619D01*
X118434893Y-98721528D01*
X118419083Y-98740639D01*
X118406712Y-98755593D01*
X118398722Y-98764374D01*
X117987286Y-99175809D01*
X117938796Y-99205991D01*
X117791673Y-99256075D01*
X117791670Y-99256076D01*
X117785003Y-99258346D01*
X117779005Y-99262036D01*
X117779003Y-99262037D01*
X117646065Y-99343821D01*
X117646063Y-99343823D01*
X117640066Y-99347512D01*
X117518486Y-99466573D01*
X117514675Y-99472487D01*
X117514673Y-99472489D01*
X117432110Y-99600601D01*
X117426304Y-99609610D01*
X117399775Y-99682498D01*
X117371171Y-99761088D01*
X117368103Y-99769516D01*
X117346775Y-99938343D01*
X117363381Y-100107699D01*
X117417094Y-100269167D01*
X117420741Y-100275189D01*
X117420742Y-100275191D01*
X117489961Y-100389484D01*
X117505246Y-100414723D01*
X117584506Y-100496799D01*
X117617438Y-100559696D01*
X117611138Y-100630412D01*
X117582030Y-100674346D01*
X117518486Y-100736573D01*
X117514675Y-100742487D01*
X117514673Y-100742489D01*
X117437144Y-100862790D01*
X117426304Y-100879610D01*
X117395423Y-100964456D01*
X117377258Y-101014364D01*
X117368103Y-101039516D01*
X117346775Y-101208343D01*
X117363381Y-101377699D01*
X117417094Y-101539167D01*
X117420741Y-101545189D01*
X117420742Y-101545191D01*
X117497103Y-101671277D01*
X117505246Y-101684723D01*
X117623455Y-101807132D01*
X117692230Y-101852137D01*
X117728747Y-101876033D01*
X117774796Y-101930070D01*
X117784319Y-102000425D01*
X117754295Y-102064760D01*
X117725776Y-102088783D01*
X117646065Y-102137821D01*
X117646063Y-102137823D01*
X117640066Y-102141512D01*
X117593922Y-102186700D01*
X117526185Y-102253034D01*
X117518486Y-102260573D01*
X117514675Y-102266487D01*
X117514673Y-102266489D01*
X117447950Y-102370022D01*
X117426304Y-102403610D01*
X117415481Y-102433346D01*
X117378798Y-102534133D01*
X117368103Y-102563516D01*
X117346775Y-102732343D01*
X117363381Y-102901699D01*
X117417094Y-103063167D01*
X117420741Y-103069189D01*
X117420742Y-103069191D01*
X117495975Y-103193414D01*
X117505246Y-103208723D01*
X117623455Y-103331132D01*
X117629350Y-103334990D01*
X117629353Y-103334992D01*
X117630374Y-103335660D01*
X117630883Y-103336258D01*
X117634776Y-103339478D01*
X117634210Y-103340162D01*
X117676421Y-103389699D01*
X117685943Y-103460054D01*
X117655916Y-103524388D01*
X117642561Y-103536977D01*
X117640066Y-103538512D01*
X117592460Y-103585132D01*
X117525129Y-103651068D01*
X117518486Y-103657573D01*
X117514675Y-103663487D01*
X117514673Y-103663489D01*
X117430121Y-103794687D01*
X117426304Y-103800610D01*
X117368103Y-103960516D01*
X117346775Y-104129343D01*
X117363381Y-104298699D01*
X117417094Y-104460167D01*
X117420741Y-104466189D01*
X117420742Y-104466191D01*
X117489961Y-104580484D01*
X117505246Y-104605723D01*
X117623455Y-104728132D01*
X117682323Y-104766654D01*
X117728747Y-104797033D01*
X117774796Y-104851070D01*
X117784319Y-104921425D01*
X117754295Y-104985760D01*
X117725776Y-105009783D01*
X117646065Y-105058821D01*
X117646063Y-105058823D01*
X117640066Y-105062512D01*
X117589117Y-105112405D01*
X117526089Y-105174128D01*
X117518486Y-105181573D01*
X117514675Y-105187487D01*
X117514673Y-105187489D01*
X117498054Y-105213277D01*
X117426304Y-105324610D01*
X117410729Y-105367401D01*
X117375080Y-105465348D01*
X117368103Y-105484516D01*
X117346775Y-105653343D01*
X117363381Y-105822699D01*
X117417094Y-105984167D01*
X117491920Y-106107719D01*
X117510098Y-106176346D01*
X117488288Y-106243909D01*
X117433412Y-106288956D01*
X117388103Y-106298926D01*
X117342998Y-106300344D01*
X117340014Y-106300438D01*
X117336055Y-106300500D01*
X117308144Y-106300500D01*
X117304210Y-106300997D01*
X117304209Y-106300997D01*
X117304144Y-106301005D01*
X117292307Y-106301938D01*
X117260490Y-106302938D01*
X117256029Y-106303078D01*
X117248110Y-106303327D01*
X117235997Y-106306846D01*
X117228658Y-106308978D01*
X117209306Y-106312986D01*
X117202235Y-106313880D01*
X117189203Y-106315526D01*
X117181834Y-106318443D01*
X117181832Y-106318444D01*
X117148097Y-106331800D01*
X117136869Y-106335645D01*
X117094407Y-106347982D01*
X117087584Y-106352017D01*
X117087582Y-106352018D01*
X117076972Y-106358293D01*
X117059224Y-106366988D01*
X117040383Y-106374448D01*
X117033967Y-106379110D01*
X117033966Y-106379110D01*
X117004613Y-106400436D01*
X116994693Y-106406952D01*
X116963465Y-106425420D01*
X116963462Y-106425422D01*
X116956638Y-106429458D01*
X116942314Y-106443782D01*
X116927287Y-106456617D01*
X116910893Y-106468528D01*
X116905840Y-106474636D01*
X116905838Y-106474638D01*
X116882713Y-106502592D01*
X116874723Y-106511373D01*
X116807522Y-106578573D01*
X116744865Y-106641230D01*
X116744862Y-106641234D01*
X116066742Y-107319353D01*
X116058463Y-107326887D01*
X116051982Y-107331000D01*
X116011148Y-107374484D01*
X116005357Y-107380651D01*
X116002602Y-107383493D01*
X115982865Y-107403230D01*
X115980385Y-107406427D01*
X115972682Y-107415447D01*
X115942414Y-107447679D01*
X115938595Y-107454625D01*
X115938593Y-107454628D01*
X115932652Y-107465434D01*
X115921801Y-107481953D01*
X115909386Y-107497959D01*
X115906241Y-107505228D01*
X115906238Y-107505232D01*
X115891826Y-107538537D01*
X115886609Y-107549187D01*
X115865305Y-107587940D01*
X115863334Y-107595615D01*
X115863334Y-107595616D01*
X115860267Y-107607562D01*
X115853863Y-107626266D01*
X115845819Y-107644855D01*
X115844580Y-107652678D01*
X115844577Y-107652688D01*
X115838901Y-107688524D01*
X115836495Y-107700144D01*
X115827686Y-107734456D01*
X115825500Y-107742970D01*
X115825500Y-107763224D01*
X115823949Y-107782934D01*
X115820780Y-107802943D01*
X115824782Y-107845274D01*
X115824941Y-107846961D01*
X115825500Y-107858819D01*
X115825500Y-107891301D01*
X115805498Y-107959422D01*
X115765802Y-107998445D01*
X115742469Y-108012884D01*
X115737296Y-108018066D01*
X115624742Y-108130816D01*
X115624738Y-108130821D01*
X115619571Y-108135997D01*
X115615731Y-108142227D01*
X115615730Y-108142228D01*
X115532864Y-108276662D01*
X115528291Y-108284080D01*
X115473526Y-108449191D01*
X115463000Y-108551928D01*
X115463000Y-109126072D01*
X100838500Y-109126072D01*
X100838500Y-106011695D01*
X103347251Y-106011695D01*
X103347548Y-106016848D01*
X103347548Y-106016851D01*
X103356914Y-106179285D01*
X103360110Y-106234715D01*
X103361247Y-106239761D01*
X103361248Y-106239767D01*
X103381318Y-106328821D01*
X103409222Y-106452639D01*
X103458358Y-106573648D01*
X103486876Y-106643878D01*
X103493266Y-106659616D01*
X103531256Y-106721610D01*
X103607291Y-106845688D01*
X103609987Y-106850088D01*
X103756250Y-107018938D01*
X103874180Y-107116845D01*
X103913140Y-107149190D01*
X103928126Y-107161632D01*
X104121000Y-107274338D01*
X104125825Y-107276180D01*
X104125826Y-107276181D01*
X104135319Y-107279806D01*
X104329692Y-107354030D01*
X104334760Y-107355061D01*
X104334763Y-107355062D01*
X104442017Y-107376883D01*
X104548597Y-107398567D01*
X104553772Y-107398757D01*
X104553774Y-107398757D01*
X104766673Y-107406564D01*
X104766677Y-107406564D01*
X104771837Y-107406753D01*
X104776957Y-107406097D01*
X104776959Y-107406097D01*
X104988288Y-107379025D01*
X104988289Y-107379025D01*
X104993416Y-107378368D01*
X105013782Y-107372258D01*
X105202429Y-107315661D01*
X105202434Y-107315659D01*
X105207384Y-107314174D01*
X105407994Y-107215896D01*
X105589860Y-107086173D01*
X105597695Y-107078366D01*
X105738591Y-106937961D01*
X105748096Y-106928489D01*
X105756820Y-106916349D01*
X105878453Y-106747077D01*
X105879776Y-106748028D01*
X105926645Y-106704857D01*
X105996580Y-106692625D01*
X106062026Y-106720144D01*
X106089875Y-106751994D01*
X106093701Y-106758238D01*
X106149987Y-106850088D01*
X106296250Y-107018938D01*
X106414180Y-107116845D01*
X106453140Y-107149190D01*
X106468126Y-107161632D01*
X106661000Y-107274338D01*
X106665825Y-107276180D01*
X106665826Y-107276181D01*
X106675319Y-107279806D01*
X106869692Y-107354030D01*
X106874760Y-107355061D01*
X106874763Y-107355062D01*
X106982017Y-107376883D01*
X107088597Y-107398567D01*
X107093772Y-107398757D01*
X107093774Y-107398757D01*
X107306673Y-107406564D01*
X107306677Y-107406564D01*
X107311837Y-107406753D01*
X107316957Y-107406097D01*
X107316959Y-107406097D01*
X107528288Y-107379025D01*
X107528289Y-107379025D01*
X107533416Y-107378368D01*
X107553782Y-107372258D01*
X107742429Y-107315661D01*
X107742434Y-107315659D01*
X107747384Y-107314174D01*
X107947994Y-107215896D01*
X108129860Y-107086173D01*
X108137695Y-107078366D01*
X108278591Y-106937961D01*
X108288096Y-106928489D01*
X108296820Y-106916349D01*
X108340203Y-106855974D01*
X108396198Y-106812326D01*
X108442526Y-106803500D01*
X108517930Y-106803500D01*
X108536880Y-106804933D01*
X108551115Y-106807099D01*
X108551119Y-106807099D01*
X108558349Y-106808199D01*
X108565641Y-106807606D01*
X108565644Y-106807606D01*
X108611018Y-106803915D01*
X108621233Y-106803500D01*
X108629293Y-106803500D01*
X108642583Y-106801951D01*
X108657507Y-106800211D01*
X108661882Y-106799778D01*
X108727339Y-106794454D01*
X108727342Y-106794453D01*
X108734637Y-106793860D01*
X108741601Y-106791604D01*
X108747560Y-106790413D01*
X108753415Y-106789029D01*
X108760681Y-106788182D01*
X108829327Y-106763265D01*
X108833455Y-106761848D01*
X108895936Y-106741607D01*
X108895938Y-106741606D01*
X108902899Y-106739351D01*
X108909154Y-106735555D01*
X108914628Y-106733049D01*
X108920058Y-106730330D01*
X108926937Y-106727833D01*
X108987976Y-106687814D01*
X108991680Y-106685477D01*
X109054107Y-106647595D01*
X109062484Y-106640197D01*
X109062508Y-106640224D01*
X109065500Y-106637571D01*
X109068733Y-106634868D01*
X109074852Y-106630856D01*
X109128128Y-106574617D01*
X109130506Y-106572175D01*
X109940569Y-105762112D01*
X110002881Y-105728086D01*
X110069331Y-105731614D01*
X110227191Y-105783974D01*
X110234027Y-105784674D01*
X110234030Y-105784675D01*
X110285526Y-105789951D01*
X110329928Y-105794500D01*
X110904072Y-105794500D01*
X110907318Y-105794163D01*
X110907322Y-105794163D01*
X111001235Y-105784419D01*
X111001239Y-105784418D01*
X111008093Y-105783707D01*
X111014629Y-105781526D01*
X111014631Y-105781526D01*
X111166159Y-105730972D01*
X111173107Y-105728654D01*
X111321031Y-105637116D01*
X111326204Y-105631934D01*
X111326209Y-105631930D01*
X111414002Y-105543983D01*
X111476284Y-105509903D01*
X111503175Y-105507000D01*
X113041430Y-105507000D01*
X113060380Y-105508433D01*
X113074615Y-105510599D01*
X113074619Y-105510599D01*
X113081849Y-105511699D01*
X113089141Y-105511106D01*
X113089144Y-105511106D01*
X113134518Y-105507415D01*
X113144733Y-105507000D01*
X113152793Y-105507000D01*
X113166083Y-105505451D01*
X113181007Y-105503711D01*
X113185382Y-105503278D01*
X113250839Y-105497954D01*
X113250842Y-105497953D01*
X113258137Y-105497360D01*
X113265101Y-105495104D01*
X113271060Y-105493913D01*
X113276915Y-105492529D01*
X113284181Y-105491682D01*
X113352827Y-105466765D01*
X113356955Y-105465348D01*
X113419436Y-105445107D01*
X113419438Y-105445106D01*
X113426399Y-105442851D01*
X113432654Y-105439055D01*
X113438128Y-105436549D01*
X113443558Y-105433830D01*
X113450437Y-105431333D01*
X113456558Y-105427320D01*
X113511476Y-105391314D01*
X113515180Y-105388977D01*
X113577607Y-105351095D01*
X113585984Y-105343697D01*
X113586008Y-105343724D01*
X113588999Y-105341072D01*
X113592233Y-105338368D01*
X113598352Y-105334356D01*
X113651612Y-105278134D01*
X113653989Y-105275692D01*
X113817276Y-105112405D01*
X113879588Y-105078379D01*
X113906371Y-105075500D01*
X114306502Y-105075500D01*
X114308950Y-105075307D01*
X114308958Y-105075307D01*
X114337421Y-105073067D01*
X114337426Y-105073066D01*
X114343831Y-105072562D01*
X114492074Y-105029494D01*
X114495988Y-105028357D01*
X114495990Y-105028356D01*
X114503601Y-105026145D01*
X114571888Y-104985760D01*
X114639980Y-104945491D01*
X114639983Y-104945489D01*
X114646807Y-104941453D01*
X114764453Y-104823807D01*
X114768489Y-104816983D01*
X114768491Y-104816980D01*
X114845108Y-104687427D01*
X114849145Y-104680601D01*
X114859698Y-104644279D01*
X114878231Y-104580484D01*
X114895562Y-104520831D01*
X114898500Y-104483502D01*
X114898500Y-104050498D01*
X114896963Y-104030970D01*
X114896067Y-104019579D01*
X114896066Y-104019574D01*
X114895562Y-104013169D01*
X114859699Y-103889726D01*
X114851357Y-103861012D01*
X114851356Y-103861010D01*
X114849145Y-103853399D01*
X114829769Y-103820637D01*
X114812311Y-103751822D01*
X114834828Y-103684491D01*
X114890173Y-103640022D01*
X114938224Y-103630500D01*
X114988223Y-103630500D01*
X115057216Y-103651068D01*
X115079289Y-103665512D01*
X115098846Y-103678310D01*
X115105450Y-103680766D01*
X115105452Y-103680767D01*
X115178594Y-103707968D01*
X115258341Y-103737626D01*
X115427015Y-103760132D01*
X115434026Y-103759494D01*
X115434030Y-103759494D01*
X115589462Y-103745348D01*
X115596483Y-103744709D01*
X115603185Y-103742531D01*
X115603187Y-103742531D01*
X115751623Y-103694301D01*
X115751626Y-103694300D01*
X115758322Y-103692124D01*
X115904490Y-103604990D01*
X115909584Y-103600139D01*
X115909588Y-103600136D01*
X115989131Y-103524388D01*
X116027721Y-103487639D01*
X116037513Y-103472902D01*
X116092792Y-103389699D01*
X116121891Y-103345902D01*
X116182319Y-103186825D01*
X116206001Y-103018313D01*
X116206299Y-102997000D01*
X116187331Y-102827892D01*
X116131368Y-102667189D01*
X116125383Y-102657610D01*
X116083767Y-102591012D01*
X116041192Y-102522879D01*
X115921286Y-102402132D01*
X115909177Y-102394447D01*
X115860412Y-102363500D01*
X115777608Y-102310951D01*
X115617300Y-102253868D01*
X115448329Y-102233720D01*
X115441326Y-102234456D01*
X115441325Y-102234456D01*
X115286101Y-102250770D01*
X115286097Y-102250771D01*
X115279093Y-102251507D01*
X115118003Y-102306346D01*
X115055468Y-102344818D01*
X114989448Y-102363500D01*
X114938224Y-102363500D01*
X114870103Y-102343498D01*
X114823610Y-102289842D01*
X114813506Y-102219568D01*
X114829769Y-102173364D01*
X114849145Y-102140601D01*
X114852799Y-102128026D01*
X114874785Y-102052346D01*
X114895562Y-101980831D01*
X114896742Y-101965850D01*
X114898307Y-101945958D01*
X114898307Y-101945950D01*
X114898500Y-101943502D01*
X114898500Y-101510498D01*
X114897561Y-101498564D01*
X114896067Y-101479579D01*
X114896066Y-101479574D01*
X114895562Y-101473169D01*
X114849145Y-101313399D01*
X114764453Y-101170193D01*
X114761513Y-101167253D01*
X114736180Y-101102734D01*
X114750079Y-101033111D01*
X114762126Y-101014364D01*
X114768090Y-101006676D01*
X114844648Y-100877221D01*
X114850893Y-100862790D01*
X114889939Y-100728395D01*
X114889899Y-100714294D01*
X114882630Y-100711000D01*
X113462000Y-100711000D01*
X113393879Y-100690998D01*
X113347386Y-100637342D01*
X113336000Y-100585000D01*
X113336000Y-100329000D01*
X113356002Y-100260879D01*
X113409658Y-100214386D01*
X113462000Y-100203000D01*
X114876878Y-100203000D01*
X114890409Y-100199027D01*
X114891544Y-100191129D01*
X114850893Y-100051210D01*
X114844648Y-100036779D01*
X114829189Y-100010639D01*
X114811730Y-99941823D01*
X114834247Y-99874491D01*
X114889591Y-99830022D01*
X114937643Y-99820500D01*
X114988223Y-99820500D01*
X115057216Y-99841068D01*
X115079289Y-99855512D01*
X115098846Y-99868310D01*
X115105450Y-99870766D01*
X115105452Y-99870767D01*
X115136969Y-99882488D01*
X115258341Y-99927626D01*
X115427015Y-99950132D01*
X115434026Y-99949494D01*
X115434030Y-99949494D01*
X115589462Y-99935348D01*
X115596483Y-99934709D01*
X115603185Y-99932531D01*
X115603187Y-99932531D01*
X115751623Y-99884301D01*
X115751626Y-99884300D01*
X115758322Y-99882124D01*
X115904490Y-99794990D01*
X115909584Y-99790139D01*
X115909588Y-99790136D01*
X115998047Y-99705897D01*
X116027721Y-99677639D01*
X116065674Y-99620516D01*
X116083963Y-99592988D01*
X116121891Y-99535902D01*
X116182319Y-99376825D01*
X116206001Y-99208313D01*
X116206299Y-99187000D01*
X116187331Y-99017892D01*
X116178317Y-98992006D01*
X116133686Y-98863846D01*
X116131368Y-98857189D01*
X116125383Y-98847610D01*
X116083767Y-98781012D01*
X116041192Y-98712879D01*
X116022874Y-98694432D01*
X115965863Y-98637022D01*
X115921286Y-98592132D01*
X115913181Y-98586988D01*
X115864865Y-98556326D01*
X115777608Y-98500951D01*
X115617300Y-98443868D01*
X115448329Y-98423720D01*
X115441326Y-98424456D01*
X115441325Y-98424456D01*
X115286101Y-98440770D01*
X115286097Y-98440771D01*
X115279093Y-98441507D01*
X115118003Y-98496346D01*
X115055468Y-98534818D01*
X114989448Y-98553500D01*
X114938224Y-98553500D01*
X114870103Y-98533498D01*
X114823610Y-98479842D01*
X114813506Y-98409568D01*
X114829769Y-98363364D01*
X114849145Y-98330601D01*
X114895562Y-98170831D01*
X114898500Y-98133502D01*
X114898500Y-97700498D01*
X114895562Y-97663169D01*
X114849145Y-97503399D01*
X114764453Y-97360193D01*
X114761771Y-97357511D01*
X114736498Y-97293139D01*
X114750400Y-97223516D01*
X114760572Y-97207688D01*
X114764453Y-97203807D01*
X114849145Y-97060601D01*
X114862249Y-97015498D01*
X114878231Y-96960484D01*
X114895562Y-96900831D01*
X114898500Y-96863502D01*
X114898500Y-96430498D01*
X114898307Y-96428042D01*
X114896067Y-96399579D01*
X114896066Y-96399574D01*
X114895562Y-96393169D01*
X114849145Y-96233399D01*
X114764453Y-96090193D01*
X114761771Y-96087511D01*
X114736498Y-96023139D01*
X114750400Y-95953516D01*
X114760572Y-95937688D01*
X114764453Y-95933807D01*
X114849145Y-95790601D01*
X114851415Y-95782790D01*
X114884902Y-95667522D01*
X114895562Y-95630831D01*
X114897309Y-95608642D01*
X114898307Y-95595958D01*
X114898307Y-95595950D01*
X114898500Y-95593502D01*
X114898500Y-95160498D01*
X114898307Y-95158042D01*
X114896067Y-95129579D01*
X114896066Y-95129574D01*
X114895562Y-95123169D01*
X114858458Y-94995456D01*
X114851357Y-94971012D01*
X114851356Y-94971010D01*
X114849145Y-94963399D01*
X114832107Y-94934589D01*
X114768491Y-94827020D01*
X114768489Y-94827017D01*
X114764453Y-94820193D01*
X114646807Y-94702547D01*
X114639983Y-94698511D01*
X114639980Y-94698509D01*
X114510427Y-94621892D01*
X114510428Y-94621892D01*
X114503601Y-94617855D01*
X114495990Y-94615644D01*
X114495988Y-94615643D01*
X114443769Y-94600472D01*
X114343831Y-94571438D01*
X114337426Y-94570934D01*
X114337421Y-94570933D01*
X114308958Y-94568693D01*
X114308950Y-94568693D01*
X114306502Y-94568500D01*
X112873498Y-94568500D01*
X112871050Y-94568693D01*
X112871042Y-94568693D01*
X112842579Y-94570933D01*
X112842574Y-94570934D01*
X112836169Y-94571438D01*
X112736231Y-94600472D01*
X112684012Y-94615643D01*
X112684010Y-94615644D01*
X112676399Y-94617855D01*
X112669572Y-94621892D01*
X112669573Y-94621892D01*
X112540020Y-94698509D01*
X112540017Y-94698511D01*
X112533193Y-94702547D01*
X112415547Y-94820193D01*
X112411511Y-94827017D01*
X112411509Y-94827020D01*
X112347893Y-94934589D01*
X112330855Y-94963399D01*
X112328644Y-94971010D01*
X112328643Y-94971012D01*
X112321542Y-94995456D01*
X112284438Y-95123169D01*
X112283934Y-95129574D01*
X112283933Y-95129579D01*
X112281693Y-95158042D01*
X112281500Y-95160498D01*
X112281500Y-95593502D01*
X112281693Y-95595950D01*
X112281693Y-95595958D01*
X112282692Y-95608642D01*
X112284438Y-95630831D01*
X112295098Y-95667522D01*
X112328586Y-95782790D01*
X112330855Y-95790601D01*
X112350231Y-95823363D01*
X112367689Y-95892178D01*
X112345172Y-95959509D01*
X112289827Y-96003978D01*
X112241776Y-96013500D01*
X110124268Y-96013500D01*
X110113085Y-96012973D01*
X110105592Y-96011298D01*
X110097666Y-96011547D01*
X110097665Y-96011547D01*
X110037502Y-96013438D01*
X110033544Y-96013500D01*
X110005644Y-96013500D01*
X110001654Y-96014004D01*
X109989820Y-96014936D01*
X109945611Y-96016326D01*
X109937997Y-96018538D01*
X109937992Y-96018539D01*
X109926159Y-96021977D01*
X109906796Y-96025988D01*
X109886703Y-96028526D01*
X109879336Y-96031443D01*
X109879331Y-96031444D01*
X109845592Y-96044802D01*
X109834365Y-96048646D01*
X109791907Y-96060982D01*
X109785081Y-96065019D01*
X109774472Y-96071293D01*
X109756724Y-96079988D01*
X109737883Y-96087448D01*
X109731467Y-96092110D01*
X109731466Y-96092110D01*
X109702113Y-96113436D01*
X109692193Y-96119952D01*
X109660965Y-96138420D01*
X109660962Y-96138422D01*
X109654138Y-96142458D01*
X109639817Y-96156779D01*
X109624784Y-96169619D01*
X109608393Y-96181528D01*
X109603342Y-96187634D01*
X109580202Y-96215605D01*
X109572212Y-96224384D01*
X108363050Y-97433546D01*
X108300738Y-97467572D01*
X108229923Y-97462507D01*
X108188061Y-97434189D01*
X108186931Y-97435401D01*
X108183145Y-97431870D01*
X108179670Y-97428051D01*
X108175619Y-97424852D01*
X108175615Y-97424848D01*
X108008414Y-97292800D01*
X108008410Y-97292798D01*
X108004359Y-97289598D01*
X107963053Y-97266796D01*
X107913084Y-97216364D01*
X107898312Y-97146921D01*
X107923428Y-97080516D01*
X107950780Y-97053909D01*
X108019673Y-97004768D01*
X108129860Y-96926173D01*
X108187332Y-96868902D01*
X108284435Y-96772137D01*
X108288096Y-96768489D01*
X108325516Y-96716414D01*
X108415435Y-96591277D01*
X108418453Y-96587077D01*
X108439139Y-96545223D01*
X108515136Y-96391453D01*
X108515137Y-96391451D01*
X108517430Y-96386811D01*
X108575146Y-96196846D01*
X108580865Y-96178023D01*
X108580865Y-96178021D01*
X108582370Y-96173069D01*
X108611529Y-95951590D01*
X108611950Y-95934360D01*
X108613074Y-95888365D01*
X108613074Y-95888361D01*
X108613156Y-95885000D01*
X108594852Y-95662361D01*
X108540431Y-95445702D01*
X108451354Y-95240840D01*
X108401082Y-95163132D01*
X108332822Y-95057617D01*
X108332820Y-95057614D01*
X108330014Y-95053277D01*
X108326532Y-95049450D01*
X108182798Y-94891488D01*
X108151746Y-94827642D01*
X108160141Y-94757143D01*
X108205317Y-94702375D01*
X108231761Y-94688706D01*
X108338297Y-94648767D01*
X108346705Y-94645615D01*
X108463261Y-94558261D01*
X108550615Y-94441705D01*
X108601745Y-94305316D01*
X108608500Y-94243134D01*
X108608500Y-92635843D01*
X113727275Y-92635843D01*
X113743881Y-92805199D01*
X113797594Y-92966667D01*
X113801241Y-92972689D01*
X113801242Y-92972691D01*
X113869010Y-93084588D01*
X113885746Y-93112223D01*
X114003955Y-93234632D01*
X114009851Y-93238490D01*
X114122449Y-93312172D01*
X114146346Y-93327810D01*
X114152950Y-93330266D01*
X114152952Y-93330267D01*
X114189344Y-93343801D01*
X114305841Y-93387126D01*
X114474515Y-93409632D01*
X114481526Y-93408994D01*
X114481530Y-93408994D01*
X114636962Y-93394848D01*
X114643983Y-93394209D01*
X114650685Y-93392031D01*
X114650687Y-93392031D01*
X114799123Y-93343801D01*
X114799126Y-93343800D01*
X114805822Y-93341624D01*
X114951990Y-93254490D01*
X114957084Y-93249639D01*
X114957088Y-93249636D01*
X115052296Y-93158970D01*
X115075221Y-93137139D01*
X115153864Y-93018772D01*
X115208220Y-92973102D01*
X115258811Y-92962500D01*
X115610036Y-92962500D01*
X115678157Y-92982502D01*
X115717179Y-93022196D01*
X115723884Y-93033031D01*
X115729066Y-93038204D01*
X115841816Y-93150758D01*
X115841821Y-93150762D01*
X115846997Y-93155929D01*
X115853227Y-93159769D01*
X115853228Y-93159770D01*
X115966455Y-93229564D01*
X115995080Y-93247209D01*
X116160191Y-93301974D01*
X116167027Y-93302674D01*
X116167030Y-93302675D01*
X116204971Y-93306562D01*
X116262928Y-93312500D01*
X116862072Y-93312500D01*
X116865318Y-93312163D01*
X116865322Y-93312163D01*
X116959235Y-93302419D01*
X116959239Y-93302418D01*
X116966093Y-93301707D01*
X116972629Y-93299526D01*
X116972631Y-93299526D01*
X117122169Y-93249636D01*
X117131107Y-93246654D01*
X117279031Y-93155116D01*
X117296977Y-93137139D01*
X117385747Y-93048214D01*
X117448030Y-93014135D01*
X117518850Y-93019138D01*
X117563937Y-93048059D01*
X117666812Y-93150754D01*
X117666817Y-93150758D01*
X117671997Y-93155929D01*
X117678227Y-93159769D01*
X117678228Y-93159770D01*
X117791455Y-93229564D01*
X117820080Y-93247209D01*
X117985191Y-93301974D01*
X117992027Y-93302674D01*
X117992030Y-93302675D01*
X118029971Y-93306562D01*
X118087928Y-93312500D01*
X118687072Y-93312500D01*
X118690318Y-93312163D01*
X118690322Y-93312163D01*
X118784235Y-93302419D01*
X118784239Y-93302418D01*
X118791093Y-93301707D01*
X118797629Y-93299526D01*
X118797631Y-93299526D01*
X118947169Y-93249636D01*
X118956107Y-93246654D01*
X119104031Y-93155116D01*
X119121977Y-93137139D01*
X119221758Y-93037184D01*
X119221762Y-93037179D01*
X119226929Y-93032003D01*
X119268724Y-92964200D01*
X119314369Y-92890150D01*
X119314370Y-92890148D01*
X119318209Y-92883920D01*
X119372974Y-92718809D01*
X119375158Y-92697498D01*
X119383172Y-92619271D01*
X119383500Y-92616072D01*
X119383500Y-92041928D01*
X119382809Y-92035270D01*
X119373419Y-91944765D01*
X119373418Y-91944761D01*
X119372707Y-91937907D01*
X119361485Y-91904269D01*
X119319972Y-91779841D01*
X119317654Y-91772893D01*
X119226116Y-91624969D01*
X119201775Y-91600670D01*
X119124677Y-91523707D01*
X119103003Y-91502071D01*
X119096776Y-91498233D01*
X119096774Y-91498231D01*
X119080884Y-91488436D01*
X119033391Y-91435664D01*
X119021000Y-91381176D01*
X119021000Y-89088102D01*
X119041002Y-89019981D01*
X119091568Y-88974950D01*
X119176859Y-88933167D01*
X119176862Y-88933165D01*
X119181494Y-88930896D01*
X119363360Y-88801173D01*
X119372064Y-88792500D01*
X119451162Y-88713677D01*
X119521596Y-88643489D01*
X119538161Y-88620437D01*
X119651953Y-88462077D01*
X119653276Y-88463028D01*
X119700145Y-88419857D01*
X119770080Y-88407625D01*
X119835526Y-88435144D01*
X119863375Y-88466994D01*
X119923487Y-88565088D01*
X120069750Y-88733938D01*
X120241626Y-88876632D01*
X120311572Y-88917505D01*
X120360294Y-88969143D01*
X120374000Y-89026292D01*
X120374000Y-89603301D01*
X120353998Y-89671422D01*
X120314302Y-89710445D01*
X120290969Y-89724884D01*
X120285796Y-89730066D01*
X120173242Y-89842816D01*
X120173238Y-89842821D01*
X120168071Y-89847997D01*
X120164231Y-89854227D01*
X120164230Y-89854228D01*
X120081364Y-89988662D01*
X120076791Y-89996080D01*
X120022026Y-90161191D01*
X120021326Y-90168027D01*
X120021325Y-90168030D01*
X120018001Y-90200478D01*
X120011500Y-90263928D01*
X120011500Y-90838072D01*
X120011837Y-90841318D01*
X120011837Y-90841322D01*
X120018525Y-90905773D01*
X120022293Y-90942093D01*
X120024474Y-90948629D01*
X120024474Y-90948631D01*
X120053545Y-91035768D01*
X120077346Y-91107107D01*
X120168884Y-91255031D01*
X120174066Y-91260204D01*
X120286816Y-91372758D01*
X120286821Y-91372762D01*
X120291997Y-91377929D01*
X120298227Y-91381769D01*
X120298228Y-91381770D01*
X120411695Y-91451712D01*
X120440080Y-91469209D01*
X120605191Y-91523974D01*
X120612027Y-91524674D01*
X120612030Y-91524675D01*
X120663526Y-91529951D01*
X120707928Y-91534500D01*
X121307072Y-91534500D01*
X121310318Y-91534163D01*
X121310322Y-91534163D01*
X121404235Y-91524419D01*
X121404239Y-91524418D01*
X121411093Y-91523707D01*
X121417629Y-91521526D01*
X121417631Y-91521526D01*
X121550395Y-91477232D01*
X121576107Y-91468654D01*
X121724031Y-91377116D01*
X121732609Y-91368523D01*
X121830747Y-91270214D01*
X121893030Y-91236135D01*
X121963850Y-91241138D01*
X122008937Y-91270059D01*
X122111813Y-91372755D01*
X122111816Y-91372757D01*
X122116997Y-91377929D01*
X122123226Y-91381769D01*
X122124166Y-91382511D01*
X122165228Y-91440428D01*
X122168460Y-91511351D01*
X122132834Y-91572762D01*
X122086680Y-91600669D01*
X121976003Y-91638346D01*
X121970005Y-91642036D01*
X121970003Y-91642037D01*
X121837065Y-91723821D01*
X121837063Y-91723823D01*
X121831066Y-91727512D01*
X121791088Y-91766662D01*
X121715835Y-91840356D01*
X121709486Y-91846573D01*
X121705675Y-91852487D01*
X121705673Y-91852489D01*
X121636703Y-91959509D01*
X121617304Y-91989610D01*
X121601551Y-92032892D01*
X121563561Y-92137269D01*
X121559103Y-92149516D01*
X121537775Y-92318343D01*
X121554381Y-92487699D01*
X121608094Y-92649167D01*
X121611741Y-92655189D01*
X121611742Y-92655191D01*
X121650271Y-92718809D01*
X121696246Y-92794723D01*
X121814455Y-92917132D01*
X121879940Y-92959984D01*
X121910942Y-92980271D01*
X121956846Y-93010310D01*
X121963450Y-93012766D01*
X121963452Y-93012767D01*
X122029108Y-93037184D01*
X122116341Y-93069626D01*
X122285015Y-93092132D01*
X122292026Y-93091494D01*
X122292030Y-93091494D01*
X122447462Y-93077348D01*
X122454483Y-93076709D01*
X122461185Y-93074531D01*
X122461187Y-93074531D01*
X122609623Y-93026301D01*
X122609626Y-93026300D01*
X122616322Y-93024124D01*
X122622373Y-93020517D01*
X122622375Y-93020516D01*
X122689887Y-92980271D01*
X122754404Y-92962500D01*
X123357036Y-92962500D01*
X123425157Y-92982502D01*
X123464179Y-93022196D01*
X123470884Y-93033031D01*
X123476066Y-93038204D01*
X123588816Y-93150758D01*
X123588821Y-93150762D01*
X123593997Y-93155929D01*
X123600227Y-93159769D01*
X123600228Y-93159770D01*
X123713455Y-93229564D01*
X123742080Y-93247209D01*
X123907191Y-93301974D01*
X123914027Y-93302674D01*
X123914030Y-93302675D01*
X123951971Y-93306562D01*
X124009928Y-93312500D01*
X124609072Y-93312500D01*
X124612318Y-93312163D01*
X124612322Y-93312163D01*
X124706235Y-93302419D01*
X124706239Y-93302418D01*
X124713093Y-93301707D01*
X124719629Y-93299526D01*
X124719631Y-93299526D01*
X124869169Y-93249636D01*
X124878107Y-93246654D01*
X125026031Y-93155116D01*
X125043977Y-93137139D01*
X125132747Y-93048214D01*
X125195030Y-93014135D01*
X125265850Y-93019138D01*
X125310937Y-93048059D01*
X125413812Y-93150754D01*
X125413817Y-93150758D01*
X125418997Y-93155929D01*
X125425227Y-93159769D01*
X125425228Y-93159770D01*
X125538455Y-93229564D01*
X125567080Y-93247209D01*
X125732191Y-93301974D01*
X125739027Y-93302674D01*
X125739030Y-93302675D01*
X125776971Y-93306562D01*
X125834928Y-93312500D01*
X126434072Y-93312500D01*
X126437318Y-93312163D01*
X126437322Y-93312163D01*
X126531235Y-93302419D01*
X126531239Y-93302418D01*
X126538093Y-93301707D01*
X126544629Y-93299526D01*
X126544631Y-93299526D01*
X126694169Y-93249636D01*
X126703107Y-93246654D01*
X126851031Y-93155116D01*
X126868977Y-93137139D01*
X126968758Y-93037184D01*
X126968762Y-93037179D01*
X126973929Y-93032003D01*
X127015724Y-92964200D01*
X127061369Y-92890150D01*
X127061370Y-92890148D01*
X127065209Y-92883920D01*
X127119974Y-92718809D01*
X127122158Y-92697498D01*
X127130172Y-92619271D01*
X127130500Y-92616072D01*
X127130500Y-92041928D01*
X127128934Y-92026837D01*
X127129459Y-92007332D01*
X127128730Y-92007309D01*
X127128979Y-91999387D01*
X127130219Y-91991557D01*
X127126059Y-91947546D01*
X127125500Y-91935689D01*
X127125500Y-88706465D01*
X127149177Y-88632939D01*
X127271953Y-88462077D01*
X127273276Y-88463028D01*
X127320145Y-88419857D01*
X127390080Y-88407625D01*
X127455526Y-88435144D01*
X127483375Y-88466994D01*
X127543487Y-88565088D01*
X127689750Y-88733938D01*
X127861626Y-88876632D01*
X127931572Y-88917505D01*
X127980294Y-88969143D01*
X127994000Y-89026292D01*
X127994000Y-89603301D01*
X127973998Y-89671422D01*
X127934302Y-89710445D01*
X127910969Y-89724884D01*
X127905796Y-89730066D01*
X127793242Y-89842816D01*
X127793238Y-89842821D01*
X127788071Y-89847997D01*
X127784231Y-89854227D01*
X127784230Y-89854228D01*
X127701364Y-89988662D01*
X127696791Y-89996080D01*
X127642026Y-90161191D01*
X127641326Y-90168027D01*
X127641325Y-90168030D01*
X127638001Y-90200478D01*
X127631500Y-90263928D01*
X127631500Y-90838072D01*
X127631837Y-90841318D01*
X127631837Y-90841322D01*
X127638525Y-90905773D01*
X127642293Y-90942093D01*
X127644474Y-90948629D01*
X127644474Y-90948631D01*
X127673545Y-91035768D01*
X127697346Y-91107107D01*
X127788884Y-91255031D01*
X127794066Y-91260204D01*
X127906816Y-91372758D01*
X127906821Y-91372762D01*
X127911997Y-91377929D01*
X127918227Y-91381769D01*
X127918228Y-91381770D01*
X128031695Y-91451712D01*
X128060080Y-91469209D01*
X128225191Y-91523974D01*
X128232027Y-91524674D01*
X128232030Y-91524675D01*
X128283526Y-91529951D01*
X128327928Y-91534500D01*
X128927072Y-91534500D01*
X128930318Y-91534163D01*
X128930322Y-91534163D01*
X129024235Y-91524419D01*
X129024239Y-91524418D01*
X129031093Y-91523707D01*
X129037629Y-91521526D01*
X129037631Y-91521526D01*
X129170395Y-91477232D01*
X129196107Y-91468654D01*
X129344031Y-91377116D01*
X129352609Y-91368523D01*
X129450747Y-91270214D01*
X129513030Y-91236135D01*
X129583850Y-91241138D01*
X129628937Y-91270059D01*
X129731812Y-91372754D01*
X129731816Y-91372757D01*
X129736997Y-91377929D01*
X129743227Y-91381769D01*
X129743228Y-91381770D01*
X129830710Y-91435695D01*
X129878204Y-91488468D01*
X129889627Y-91558539D01*
X129861353Y-91623663D01*
X129830616Y-91650273D01*
X129711065Y-91723821D01*
X129711063Y-91723823D01*
X129705066Y-91727512D01*
X129665088Y-91766662D01*
X129589835Y-91840356D01*
X129583486Y-91846573D01*
X129579675Y-91852487D01*
X129579673Y-91852489D01*
X129510703Y-91959509D01*
X129491304Y-91989610D01*
X129475551Y-92032892D01*
X129437561Y-92137269D01*
X129433103Y-92149516D01*
X129411775Y-92318343D01*
X129428381Y-92487699D01*
X129482094Y-92649167D01*
X129485741Y-92655189D01*
X129485742Y-92655191D01*
X129524271Y-92718809D01*
X129570246Y-92794723D01*
X129688455Y-92917132D01*
X129753940Y-92959984D01*
X129784942Y-92980271D01*
X129830846Y-93010310D01*
X129837450Y-93012766D01*
X129837452Y-93012767D01*
X129903108Y-93037184D01*
X129990341Y-93069626D01*
X130159015Y-93092132D01*
X130166026Y-93091494D01*
X130166030Y-93091494D01*
X130321462Y-93077348D01*
X130328483Y-93076709D01*
X130335185Y-93074531D01*
X130335187Y-93074531D01*
X130483623Y-93026301D01*
X130483626Y-93026300D01*
X130490322Y-93024124D01*
X130496373Y-93020517D01*
X130496375Y-93020516D01*
X130563887Y-92980271D01*
X130628404Y-92962500D01*
X130977036Y-92962500D01*
X131045157Y-92982502D01*
X131084179Y-93022196D01*
X131090884Y-93033031D01*
X131096066Y-93038204D01*
X131208816Y-93150758D01*
X131208821Y-93150762D01*
X131213997Y-93155929D01*
X131220227Y-93159769D01*
X131220228Y-93159770D01*
X131333455Y-93229564D01*
X131362080Y-93247209D01*
X131527191Y-93301974D01*
X131534027Y-93302674D01*
X131534030Y-93302675D01*
X131571971Y-93306562D01*
X131629928Y-93312500D01*
X132229072Y-93312500D01*
X132232318Y-93312163D01*
X132232322Y-93312163D01*
X132326235Y-93302419D01*
X132326239Y-93302418D01*
X132333093Y-93301707D01*
X132339629Y-93299526D01*
X132339631Y-93299526D01*
X132489169Y-93249636D01*
X132498107Y-93246654D01*
X132646031Y-93155116D01*
X132663977Y-93137139D01*
X132752747Y-93048214D01*
X132815030Y-93014135D01*
X132885850Y-93019138D01*
X132930937Y-93048059D01*
X133033812Y-93150754D01*
X133033817Y-93150758D01*
X133038997Y-93155929D01*
X133045227Y-93159769D01*
X133045228Y-93159770D01*
X133158455Y-93229564D01*
X133187080Y-93247209D01*
X133352191Y-93301974D01*
X133359027Y-93302674D01*
X133359030Y-93302675D01*
X133396971Y-93306562D01*
X133454928Y-93312500D01*
X134054072Y-93312500D01*
X134057318Y-93312163D01*
X134057322Y-93312163D01*
X134151235Y-93302419D01*
X134151239Y-93302418D01*
X134158093Y-93301707D01*
X134164629Y-93299526D01*
X134164631Y-93299526D01*
X134314169Y-93249636D01*
X134323107Y-93246654D01*
X134471031Y-93155116D01*
X134488977Y-93137139D01*
X134588758Y-93037184D01*
X134588762Y-93037179D01*
X134593929Y-93032003D01*
X134635724Y-92964200D01*
X134681369Y-92890150D01*
X134681370Y-92890148D01*
X134685209Y-92883920D01*
X134739974Y-92718809D01*
X134742158Y-92697498D01*
X134750172Y-92619271D01*
X134750500Y-92616072D01*
X134750500Y-92261815D01*
X134770502Y-92193694D01*
X134776942Y-92184587D01*
X134783752Y-92175808D01*
X134783753Y-92175807D01*
X134788613Y-92169541D01*
X134806176Y-92128957D01*
X134811383Y-92118327D01*
X134832695Y-92079560D01*
X134834666Y-92071883D01*
X134834668Y-92071878D01*
X134837732Y-92059942D01*
X134844138Y-92041230D01*
X134844718Y-92039891D01*
X134852181Y-92022645D01*
X134854607Y-92007332D01*
X134859097Y-91978981D01*
X134861504Y-91967360D01*
X134870528Y-91932211D01*
X134870528Y-91932210D01*
X134872500Y-91924530D01*
X134872500Y-91904269D01*
X134874051Y-91884558D01*
X134875556Y-91875060D01*
X134877219Y-91864557D01*
X134873059Y-91820546D01*
X134872500Y-91808689D01*
X134872500Y-88978767D01*
X134873027Y-88967584D01*
X134874702Y-88960091D01*
X134872562Y-88892014D01*
X134872500Y-88888055D01*
X134872500Y-88860144D01*
X134871995Y-88856144D01*
X134871062Y-88844301D01*
X134869922Y-88808029D01*
X134869673Y-88800110D01*
X134864022Y-88780658D01*
X134860014Y-88761306D01*
X134858467Y-88749063D01*
X134857474Y-88741203D01*
X134846576Y-88713677D01*
X134841200Y-88700097D01*
X134837355Y-88688870D01*
X134825018Y-88646408D01*
X134826836Y-88645880D01*
X134819390Y-88585530D01*
X134841400Y-88532431D01*
X134891953Y-88462078D01*
X134893276Y-88463028D01*
X134940145Y-88419857D01*
X135010080Y-88407625D01*
X135075526Y-88435144D01*
X135103375Y-88466994D01*
X135163487Y-88565088D01*
X135309750Y-88733938D01*
X135481626Y-88876632D01*
X135551572Y-88917505D01*
X135600294Y-88969143D01*
X135614000Y-89026292D01*
X135614000Y-89603301D01*
X135593998Y-89671422D01*
X135554302Y-89710445D01*
X135530969Y-89724884D01*
X135525796Y-89730066D01*
X135413242Y-89842816D01*
X135413238Y-89842821D01*
X135408071Y-89847997D01*
X135404231Y-89854227D01*
X135404230Y-89854228D01*
X135321364Y-89988662D01*
X135316791Y-89996080D01*
X135262026Y-90161191D01*
X135261326Y-90168027D01*
X135261325Y-90168030D01*
X135258001Y-90200478D01*
X135251500Y-90263928D01*
X135251500Y-90838072D01*
X135251837Y-90841318D01*
X135251837Y-90841322D01*
X135258525Y-90905773D01*
X135262293Y-90942093D01*
X135264474Y-90948629D01*
X135264474Y-90948631D01*
X135293545Y-91035768D01*
X135317346Y-91107107D01*
X135408884Y-91255031D01*
X135414066Y-91260204D01*
X135526816Y-91372758D01*
X135526821Y-91372762D01*
X135531997Y-91377929D01*
X135538227Y-91381769D01*
X135538228Y-91381770D01*
X135651695Y-91451712D01*
X135680080Y-91469209D01*
X135845191Y-91523974D01*
X135852027Y-91524674D01*
X135852030Y-91524675D01*
X135944726Y-91534172D01*
X135944727Y-91534172D01*
X135947928Y-91534500D01*
X135950224Y-91534500D01*
X136017078Y-91557899D01*
X136060771Y-91613859D01*
X136067273Y-91684557D01*
X136031792Y-91750304D01*
X136015088Y-91766662D01*
X135939835Y-91840356D01*
X135933486Y-91846573D01*
X135929675Y-91852487D01*
X135929673Y-91852489D01*
X135860703Y-91959509D01*
X135841304Y-91989610D01*
X135825551Y-92032892D01*
X135787561Y-92137269D01*
X135783103Y-92149516D01*
X135761775Y-92318343D01*
X135778381Y-92487699D01*
X135832094Y-92649167D01*
X135835741Y-92655189D01*
X135835742Y-92655191D01*
X135874271Y-92718809D01*
X135920246Y-92794723D01*
X136038455Y-92917132D01*
X136103940Y-92959984D01*
X136134942Y-92980271D01*
X136180846Y-93010310D01*
X136187450Y-93012766D01*
X136187452Y-93012767D01*
X136253108Y-93037184D01*
X136340341Y-93069626D01*
X136509015Y-93092132D01*
X136516026Y-93091494D01*
X136516030Y-93091494D01*
X136671462Y-93077348D01*
X136678483Y-93076709D01*
X136685185Y-93074531D01*
X136685187Y-93074531D01*
X136833623Y-93026301D01*
X136833626Y-93026300D01*
X136840322Y-93024124D01*
X136846373Y-93020517D01*
X136846375Y-93020516D01*
X136913887Y-92980271D01*
X136978404Y-92962500D01*
X138597036Y-92962500D01*
X138665157Y-92982502D01*
X138704179Y-93022196D01*
X138710884Y-93033031D01*
X138716066Y-93038204D01*
X138828816Y-93150758D01*
X138828821Y-93150762D01*
X138833997Y-93155929D01*
X138840227Y-93159769D01*
X138840228Y-93159770D01*
X138953455Y-93229564D01*
X138982080Y-93247209D01*
X139147191Y-93301974D01*
X139154027Y-93302674D01*
X139154030Y-93302675D01*
X139191971Y-93306562D01*
X139249928Y-93312500D01*
X139849072Y-93312500D01*
X139852318Y-93312163D01*
X139852322Y-93312163D01*
X139946235Y-93302419D01*
X139946239Y-93302418D01*
X139953093Y-93301707D01*
X139959629Y-93299526D01*
X139959631Y-93299526D01*
X140109169Y-93249636D01*
X140118107Y-93246654D01*
X140266031Y-93155116D01*
X140283977Y-93137139D01*
X140372747Y-93048214D01*
X140435030Y-93014135D01*
X140505850Y-93019138D01*
X140550937Y-93048059D01*
X140653812Y-93150754D01*
X140653817Y-93150758D01*
X140658997Y-93155929D01*
X140665227Y-93159769D01*
X140665228Y-93159770D01*
X140778455Y-93229564D01*
X140807080Y-93247209D01*
X140972191Y-93301974D01*
X140979027Y-93302674D01*
X140979030Y-93302675D01*
X141016971Y-93306562D01*
X141074928Y-93312500D01*
X141674072Y-93312500D01*
X141677318Y-93312163D01*
X141677322Y-93312163D01*
X141771235Y-93302419D01*
X141771239Y-93302418D01*
X141778093Y-93301707D01*
X141784629Y-93299526D01*
X141784631Y-93299526D01*
X141934169Y-93249636D01*
X141943107Y-93246654D01*
X142091031Y-93155116D01*
X142108977Y-93137139D01*
X142208758Y-93037184D01*
X142208762Y-93037179D01*
X142213929Y-93032003D01*
X142255724Y-92964200D01*
X142301369Y-92890150D01*
X142301370Y-92890148D01*
X142305209Y-92883920D01*
X142359974Y-92718809D01*
X142362158Y-92697498D01*
X142370172Y-92619271D01*
X142370500Y-92616072D01*
X142370500Y-92283366D01*
X142390502Y-92215245D01*
X142404650Y-92197113D01*
X142439658Y-92159833D01*
X142442413Y-92156991D01*
X142462135Y-92137269D01*
X142464612Y-92134076D01*
X142472317Y-92125055D01*
X142497159Y-92098600D01*
X142502586Y-92092821D01*
X142506407Y-92085871D01*
X142512346Y-92075068D01*
X142523202Y-92058541D01*
X142530757Y-92048802D01*
X142530758Y-92048800D01*
X142535614Y-92042540D01*
X142553174Y-92001960D01*
X142558391Y-91991312D01*
X142575875Y-91959509D01*
X142575876Y-91959507D01*
X142579695Y-91952560D01*
X142581697Y-91944765D01*
X142584733Y-91932938D01*
X142591137Y-91914234D01*
X142596033Y-91902920D01*
X142596033Y-91902919D01*
X142599181Y-91895645D01*
X142600420Y-91887822D01*
X142600423Y-91887812D01*
X142606099Y-91851976D01*
X142608505Y-91840356D01*
X142617528Y-91805211D01*
X142617528Y-91805210D01*
X142619500Y-91797530D01*
X142619500Y-91777276D01*
X142621051Y-91757565D01*
X142622980Y-91745386D01*
X142624220Y-91737557D01*
X142620059Y-91693538D01*
X142619500Y-91681681D01*
X142619500Y-90838072D01*
X142639502Y-90769951D01*
X142693158Y-90723458D01*
X142763432Y-90713354D01*
X142828012Y-90742848D01*
X142866396Y-90802574D01*
X142871332Y-90831560D01*
X142871500Y-90834806D01*
X142871500Y-90838072D01*
X142871837Y-90841318D01*
X142871837Y-90841322D01*
X142878525Y-90905773D01*
X142882293Y-90942093D01*
X142884474Y-90948629D01*
X142884474Y-90948631D01*
X142913545Y-91035768D01*
X142937346Y-91107107D01*
X143028884Y-91255031D01*
X143034066Y-91260204D01*
X143146816Y-91372758D01*
X143146821Y-91372762D01*
X143151997Y-91377929D01*
X143158227Y-91381769D01*
X143158228Y-91381770D01*
X143271695Y-91451712D01*
X143300080Y-91469209D01*
X143465191Y-91523974D01*
X143472027Y-91524674D01*
X143472030Y-91524675D01*
X143523526Y-91529951D01*
X143567928Y-91534500D01*
X144167072Y-91534500D01*
X144170318Y-91534163D01*
X144170322Y-91534163D01*
X144264235Y-91524419D01*
X144264239Y-91524418D01*
X144271093Y-91523707D01*
X144277629Y-91521526D01*
X144277631Y-91521526D01*
X144410395Y-91477232D01*
X144436107Y-91468654D01*
X144584031Y-91377116D01*
X144592609Y-91368523D01*
X144690747Y-91270214D01*
X144753030Y-91236135D01*
X144823850Y-91241138D01*
X144868937Y-91270059D01*
X144971815Y-91372757D01*
X144971820Y-91372761D01*
X144976997Y-91377929D01*
X144983224Y-91381767D01*
X144983226Y-91381769D01*
X144999116Y-91391564D01*
X145046609Y-91444336D01*
X145059000Y-91498824D01*
X145059000Y-91711173D01*
X145038911Y-91779429D01*
X145026345Y-91798927D01*
X144991827Y-91852489D01*
X144985304Y-91862610D01*
X144965653Y-91916601D01*
X144932630Y-92007332D01*
X144927103Y-92022516D01*
X144905775Y-92191343D01*
X144922381Y-92360699D01*
X144976094Y-92522167D01*
X144979741Y-92528189D01*
X144979742Y-92528191D01*
X145048961Y-92642484D01*
X145064246Y-92667723D01*
X145182455Y-92790132D01*
X145205384Y-92805136D01*
X145315161Y-92876972D01*
X145324846Y-92883310D01*
X145331450Y-92885766D01*
X145331452Y-92885767D01*
X145367844Y-92899301D01*
X145484341Y-92942626D01*
X145653015Y-92965132D01*
X145660026Y-92964494D01*
X145660030Y-92964494D01*
X145815462Y-92950348D01*
X145822483Y-92949709D01*
X145829185Y-92947531D01*
X145829187Y-92947531D01*
X145977623Y-92899301D01*
X145977626Y-92899300D01*
X145984322Y-92897124D01*
X146130490Y-92809990D01*
X146135584Y-92805139D01*
X146135588Y-92805136D01*
X146219387Y-92725335D01*
X146253721Y-92692639D01*
X146278602Y-92655191D01*
X146343990Y-92556773D01*
X146347891Y-92550902D01*
X146408319Y-92391825D01*
X146432001Y-92223313D01*
X146432299Y-92202000D01*
X146413331Y-92032892D01*
X146405507Y-92010423D01*
X146381551Y-91941632D01*
X146357368Y-91872189D01*
X146345145Y-91852629D01*
X146326000Y-91785860D01*
X146326000Y-91498699D01*
X146346002Y-91430578D01*
X146385699Y-91391554D01*
X146392210Y-91387525D01*
X146409031Y-91377116D01*
X146417609Y-91368523D01*
X146526758Y-91259184D01*
X146526762Y-91259179D01*
X146531929Y-91254003D01*
X146536786Y-91246124D01*
X146619369Y-91112150D01*
X146619370Y-91112148D01*
X146623209Y-91105920D01*
X146677974Y-90940809D01*
X146681666Y-90904779D01*
X146688172Y-90841271D01*
X146688500Y-90838072D01*
X146688500Y-90263928D01*
X146684756Y-90227846D01*
X146678419Y-90166765D01*
X146678418Y-90166761D01*
X146677707Y-90159907D01*
X146622654Y-89994893D01*
X146531116Y-89846969D01*
X146516062Y-89831941D01*
X146413184Y-89729242D01*
X146413179Y-89729238D01*
X146408003Y-89724071D01*
X146385883Y-89710436D01*
X146266150Y-89636631D01*
X146266148Y-89636630D01*
X146259920Y-89632791D01*
X146094809Y-89578026D01*
X146087973Y-89577326D01*
X146087970Y-89577325D01*
X146036474Y-89572049D01*
X145992072Y-89567500D01*
X145392928Y-89567500D01*
X145389682Y-89567837D01*
X145389678Y-89567837D01*
X145295765Y-89577581D01*
X145295761Y-89577582D01*
X145288907Y-89578293D01*
X145282371Y-89580474D01*
X145282369Y-89580474D01*
X145213949Y-89603301D01*
X145123893Y-89633346D01*
X144975969Y-89724884D01*
X144970796Y-89730066D01*
X144869253Y-89831786D01*
X144806970Y-89865865D01*
X144736150Y-89860862D01*
X144691063Y-89831941D01*
X144588185Y-89729243D01*
X144588180Y-89729239D01*
X144583003Y-89724071D01*
X144576776Y-89720233D01*
X144576774Y-89720231D01*
X144560884Y-89710436D01*
X144513391Y-89657664D01*
X144501000Y-89603176D01*
X144501000Y-89048910D01*
X144521002Y-88980789D01*
X144571568Y-88935759D01*
X144573715Y-88934707D01*
X144576853Y-88933170D01*
X144576858Y-88933167D01*
X144581494Y-88930896D01*
X144585698Y-88927898D01*
X144585702Y-88927895D01*
X144702896Y-88844301D01*
X144763360Y-88801173D01*
X144772064Y-88792500D01*
X144851162Y-88713677D01*
X144921596Y-88643489D01*
X144941761Y-88615427D01*
X144997753Y-88571780D01*
X145068457Y-88565333D01*
X145131422Y-88598135D01*
X145139320Y-88606455D01*
X145246365Y-88730031D01*
X145246369Y-88730035D01*
X145249750Y-88733938D01*
X145421626Y-88876632D01*
X145614500Y-88989338D01*
X145823192Y-89069030D01*
X145828260Y-89070061D01*
X145828263Y-89070062D01*
X145916933Y-89088102D01*
X146042097Y-89113567D01*
X146047272Y-89113757D01*
X146047274Y-89113757D01*
X146260173Y-89121564D01*
X146260177Y-89121564D01*
X146265337Y-89121753D01*
X146270457Y-89121097D01*
X146270459Y-89121097D01*
X146481788Y-89094025D01*
X146481789Y-89094025D01*
X146486916Y-89093368D01*
X146491866Y-89091883D01*
X146695929Y-89030661D01*
X146695934Y-89030659D01*
X146700884Y-89029174D01*
X146901494Y-88930896D01*
X147083360Y-88801173D01*
X147092064Y-88792500D01*
X147171162Y-88713677D01*
X147241596Y-88643489D01*
X147258161Y-88620437D01*
X147368935Y-88466277D01*
X147371953Y-88462077D01*
X147392820Y-88419857D01*
X147468636Y-88266453D01*
X147468637Y-88266451D01*
X147470930Y-88261811D01*
X147535870Y-88048069D01*
X147565029Y-87826590D01*
X147566656Y-87760000D01*
X147548352Y-87537361D01*
X147493931Y-87320702D01*
X147404854Y-87115840D01*
X147297558Y-86949986D01*
X147286322Y-86932617D01*
X147286320Y-86932614D01*
X147283514Y-86928277D01*
X147133170Y-86763051D01*
X147129119Y-86759852D01*
X147129115Y-86759848D01*
X146961914Y-86627800D01*
X146961910Y-86627798D01*
X146957859Y-86624598D01*
X146762289Y-86516638D01*
X146757420Y-86514914D01*
X146757416Y-86514912D01*
X146556587Y-86443795D01*
X146556583Y-86443794D01*
X146551712Y-86442069D01*
X146546619Y-86441162D01*
X146546616Y-86441161D01*
X146336873Y-86403800D01*
X146336867Y-86403799D01*
X146331784Y-86402894D01*
X146257952Y-86401992D01*
X146113581Y-86400228D01*
X146113579Y-86400228D01*
X146108411Y-86400165D01*
X145887591Y-86433955D01*
X145675256Y-86503357D01*
X145477107Y-86606507D01*
X145472974Y-86609610D01*
X145472971Y-86609612D01*
X145448747Y-86627800D01*
X145298465Y-86740635D01*
X145144129Y-86902138D01*
X145141210Y-86906417D01*
X145140525Y-86907263D01*
X145082112Y-86947618D01*
X145011155Y-86949986D01*
X144949408Y-86912773D01*
X144816652Y-86766876D01*
X144816642Y-86766867D01*
X144813170Y-86763051D01*
X144809119Y-86759852D01*
X144809115Y-86759848D01*
X144641914Y-86627800D01*
X144641910Y-86627798D01*
X144637859Y-86624598D01*
X144442289Y-86516638D01*
X144437420Y-86514914D01*
X144437416Y-86514912D01*
X144236587Y-86443795D01*
X144236583Y-86443794D01*
X144231712Y-86442069D01*
X144226619Y-86441162D01*
X144226616Y-86441161D01*
X144016873Y-86403800D01*
X144016867Y-86403799D01*
X144011784Y-86402894D01*
X143937952Y-86401992D01*
X143793581Y-86400228D01*
X143793579Y-86400228D01*
X143788411Y-86400165D01*
X143567591Y-86433955D01*
X143355256Y-86503357D01*
X143157107Y-86606507D01*
X143152974Y-86609610D01*
X143152971Y-86609612D01*
X143128747Y-86627800D01*
X142978465Y-86740635D01*
X142824129Y-86902138D01*
X142716701Y-87059621D01*
X142661793Y-87104621D01*
X142591268Y-87112792D01*
X142527521Y-87081538D01*
X142506824Y-87057054D01*
X142426322Y-86932617D01*
X142426320Y-86932614D01*
X142423514Y-86928277D01*
X142273170Y-86763051D01*
X142269119Y-86759852D01*
X142269115Y-86759848D01*
X142101914Y-86627800D01*
X142101910Y-86627798D01*
X142097859Y-86624598D01*
X141902289Y-86516638D01*
X141897420Y-86514914D01*
X141897416Y-86514912D01*
X141696587Y-86443795D01*
X141696583Y-86443794D01*
X141691712Y-86442069D01*
X141686619Y-86441162D01*
X141686616Y-86441161D01*
X141476873Y-86403800D01*
X141476867Y-86403799D01*
X141471784Y-86402894D01*
X141397952Y-86401992D01*
X141253581Y-86400228D01*
X141253579Y-86400228D01*
X141248411Y-86400165D01*
X141027591Y-86433955D01*
X140815256Y-86503357D01*
X140617107Y-86606507D01*
X140612974Y-86609610D01*
X140612971Y-86609612D01*
X140588747Y-86627800D01*
X140438465Y-86740635D01*
X140284129Y-86902138D01*
X140176701Y-87059621D01*
X140121793Y-87104621D01*
X140051268Y-87112792D01*
X139987521Y-87081538D01*
X139966824Y-87057054D01*
X139886322Y-86932617D01*
X139886320Y-86932614D01*
X139883514Y-86928277D01*
X139733170Y-86763051D01*
X139729119Y-86759852D01*
X139729115Y-86759848D01*
X139561914Y-86627800D01*
X139561910Y-86627798D01*
X139557859Y-86624598D01*
X139362289Y-86516638D01*
X139357420Y-86514914D01*
X139357416Y-86514912D01*
X139156587Y-86443795D01*
X139156583Y-86443794D01*
X139151712Y-86442069D01*
X139146619Y-86441162D01*
X139146616Y-86441161D01*
X138936873Y-86403800D01*
X138936867Y-86403799D01*
X138931784Y-86402894D01*
X138857952Y-86401992D01*
X138713581Y-86400228D01*
X138713579Y-86400228D01*
X138708411Y-86400165D01*
X138487591Y-86433955D01*
X138275256Y-86503357D01*
X138077107Y-86606507D01*
X138072974Y-86609610D01*
X138072971Y-86609612D01*
X138048747Y-86627800D01*
X137898465Y-86740635D01*
X137744129Y-86902138D01*
X137636701Y-87059621D01*
X137581793Y-87104621D01*
X137511268Y-87112792D01*
X137447521Y-87081538D01*
X137426824Y-87057054D01*
X137346322Y-86932617D01*
X137346320Y-86932614D01*
X137343514Y-86928277D01*
X137193170Y-86763051D01*
X137189119Y-86759852D01*
X137189115Y-86759848D01*
X137021914Y-86627800D01*
X137021910Y-86627798D01*
X137017859Y-86624598D01*
X136822289Y-86516638D01*
X136817420Y-86514914D01*
X136817416Y-86514912D01*
X136616587Y-86443795D01*
X136616583Y-86443794D01*
X136611712Y-86442069D01*
X136606619Y-86441162D01*
X136606616Y-86441161D01*
X136396873Y-86403800D01*
X136396867Y-86403799D01*
X136391784Y-86402894D01*
X136317952Y-86401992D01*
X136173581Y-86400228D01*
X136173579Y-86400228D01*
X136168411Y-86400165D01*
X135947591Y-86433955D01*
X135735256Y-86503357D01*
X135537107Y-86606507D01*
X135532974Y-86609610D01*
X135532971Y-86609612D01*
X135508747Y-86627800D01*
X135358465Y-86740635D01*
X135204129Y-86902138D01*
X135096701Y-87059621D01*
X135041793Y-87104621D01*
X134971268Y-87112792D01*
X134907521Y-87081538D01*
X134886824Y-87057054D01*
X134806322Y-86932617D01*
X134806320Y-86932614D01*
X134803514Y-86928277D01*
X134653170Y-86763051D01*
X134649119Y-86759852D01*
X134649115Y-86759848D01*
X134481914Y-86627800D01*
X134481910Y-86627798D01*
X134477859Y-86624598D01*
X134282289Y-86516638D01*
X134277420Y-86514914D01*
X134277416Y-86514912D01*
X134076587Y-86443795D01*
X134076583Y-86443794D01*
X134071712Y-86442069D01*
X134066619Y-86441162D01*
X134066616Y-86441161D01*
X133856873Y-86403800D01*
X133856867Y-86403799D01*
X133851784Y-86402894D01*
X133777952Y-86401992D01*
X133633581Y-86400228D01*
X133633579Y-86400228D01*
X133628411Y-86400165D01*
X133407591Y-86433955D01*
X133195256Y-86503357D01*
X132997107Y-86606507D01*
X132992974Y-86609610D01*
X132992971Y-86609612D01*
X132968747Y-86627800D01*
X132818465Y-86740635D01*
X132664129Y-86902138D01*
X132556701Y-87059621D01*
X132501793Y-87104621D01*
X132431268Y-87112792D01*
X132367521Y-87081538D01*
X132346824Y-87057054D01*
X132266322Y-86932617D01*
X132266320Y-86932614D01*
X132263514Y-86928277D01*
X132113170Y-86763051D01*
X132109119Y-86759852D01*
X132109115Y-86759848D01*
X131941914Y-86627800D01*
X131941910Y-86627798D01*
X131937859Y-86624598D01*
X131742289Y-86516638D01*
X131737420Y-86514914D01*
X131737416Y-86514912D01*
X131536587Y-86443795D01*
X131536583Y-86443794D01*
X131531712Y-86442069D01*
X131526619Y-86441162D01*
X131526616Y-86441161D01*
X131316873Y-86403800D01*
X131316867Y-86403799D01*
X131311784Y-86402894D01*
X131237952Y-86401992D01*
X131093581Y-86400228D01*
X131093579Y-86400228D01*
X131088411Y-86400165D01*
X130867591Y-86433955D01*
X130655256Y-86503357D01*
X130457107Y-86606507D01*
X130452974Y-86609610D01*
X130452971Y-86609612D01*
X130428747Y-86627800D01*
X130278465Y-86740635D01*
X130124129Y-86902138D01*
X130016701Y-87059621D01*
X129961793Y-87104621D01*
X129891268Y-87112792D01*
X129827521Y-87081538D01*
X129806824Y-87057054D01*
X129726322Y-86932617D01*
X129726320Y-86932614D01*
X129723514Y-86928277D01*
X129573170Y-86763051D01*
X129569119Y-86759852D01*
X129569115Y-86759848D01*
X129401914Y-86627800D01*
X129401910Y-86627798D01*
X129397859Y-86624598D01*
X129202289Y-86516638D01*
X129197420Y-86514914D01*
X129197416Y-86514912D01*
X128996587Y-86443795D01*
X128996583Y-86443794D01*
X128991712Y-86442069D01*
X128986619Y-86441162D01*
X128986616Y-86441161D01*
X128776873Y-86403800D01*
X128776867Y-86403799D01*
X128771784Y-86402894D01*
X128697952Y-86401992D01*
X128553581Y-86400228D01*
X128553579Y-86400228D01*
X128548411Y-86400165D01*
X128327591Y-86433955D01*
X128115256Y-86503357D01*
X127917107Y-86606507D01*
X127912974Y-86609610D01*
X127912971Y-86609612D01*
X127888747Y-86627800D01*
X127738465Y-86740635D01*
X127584129Y-86902138D01*
X127476701Y-87059621D01*
X127421793Y-87104621D01*
X127351268Y-87112792D01*
X127287521Y-87081538D01*
X127266824Y-87057054D01*
X127186322Y-86932617D01*
X127186320Y-86932614D01*
X127183514Y-86928277D01*
X127033170Y-86763051D01*
X127029119Y-86759852D01*
X127029115Y-86759848D01*
X126861914Y-86627800D01*
X126861910Y-86627798D01*
X126857859Y-86624598D01*
X126662289Y-86516638D01*
X126657420Y-86514914D01*
X126657416Y-86514912D01*
X126456587Y-86443795D01*
X126456583Y-86443794D01*
X126451712Y-86442069D01*
X126446619Y-86441162D01*
X126446616Y-86441161D01*
X126236873Y-86403800D01*
X126236867Y-86403799D01*
X126231784Y-86402894D01*
X126157952Y-86401992D01*
X126013581Y-86400228D01*
X126013579Y-86400228D01*
X126008411Y-86400165D01*
X125787591Y-86433955D01*
X125575256Y-86503357D01*
X125377107Y-86606507D01*
X125372974Y-86609610D01*
X125372971Y-86609612D01*
X125348747Y-86627800D01*
X125198465Y-86740635D01*
X125044129Y-86902138D01*
X124936701Y-87059621D01*
X124881793Y-87104621D01*
X124811268Y-87112792D01*
X124747521Y-87081538D01*
X124726824Y-87057054D01*
X124646322Y-86932617D01*
X124646320Y-86932614D01*
X124643514Y-86928277D01*
X124493170Y-86763051D01*
X124489119Y-86759852D01*
X124489115Y-86759848D01*
X124321914Y-86627800D01*
X124321910Y-86627798D01*
X124317859Y-86624598D01*
X124122289Y-86516638D01*
X124117420Y-86514914D01*
X124117416Y-86514912D01*
X123916587Y-86443795D01*
X123916583Y-86443794D01*
X123911712Y-86442069D01*
X123906619Y-86441162D01*
X123906616Y-86441161D01*
X123696873Y-86403800D01*
X123696867Y-86403799D01*
X123691784Y-86402894D01*
X123617952Y-86401992D01*
X123473581Y-86400228D01*
X123473579Y-86400228D01*
X123468411Y-86400165D01*
X123247591Y-86433955D01*
X123035256Y-86503357D01*
X122837107Y-86606507D01*
X122832974Y-86609610D01*
X122832971Y-86609612D01*
X122808747Y-86627800D01*
X122658465Y-86740635D01*
X122504129Y-86902138D01*
X122396701Y-87059621D01*
X122341793Y-87104621D01*
X122271268Y-87112792D01*
X122207521Y-87081538D01*
X122186824Y-87057054D01*
X122106322Y-86932617D01*
X122106320Y-86932614D01*
X122103514Y-86928277D01*
X121953170Y-86763051D01*
X121949119Y-86759852D01*
X121949115Y-86759848D01*
X121781914Y-86627800D01*
X121781910Y-86627798D01*
X121777859Y-86624598D01*
X121582289Y-86516638D01*
X121577420Y-86514914D01*
X121577416Y-86514912D01*
X121376587Y-86443795D01*
X121376583Y-86443794D01*
X121371712Y-86442069D01*
X121366619Y-86441162D01*
X121366616Y-86441161D01*
X121156873Y-86403800D01*
X121156867Y-86403799D01*
X121151784Y-86402894D01*
X121077952Y-86401992D01*
X120933581Y-86400228D01*
X120933579Y-86400228D01*
X120928411Y-86400165D01*
X120707591Y-86433955D01*
X120495256Y-86503357D01*
X120297107Y-86606507D01*
X120292974Y-86609610D01*
X120292971Y-86609612D01*
X120268747Y-86627800D01*
X120118465Y-86740635D01*
X119964129Y-86902138D01*
X119856701Y-87059621D01*
X119801793Y-87104621D01*
X119731268Y-87112792D01*
X119667521Y-87081538D01*
X119646824Y-87057054D01*
X119566322Y-86932617D01*
X119566320Y-86932614D01*
X119563514Y-86928277D01*
X119413170Y-86763051D01*
X119409119Y-86759852D01*
X119409115Y-86759848D01*
X119241914Y-86627800D01*
X119241910Y-86627798D01*
X119237859Y-86624598D01*
X119042289Y-86516638D01*
X119037420Y-86514914D01*
X119037416Y-86514912D01*
X118836587Y-86443795D01*
X118836583Y-86443794D01*
X118831712Y-86442069D01*
X118826619Y-86441162D01*
X118826616Y-86441161D01*
X118616873Y-86403800D01*
X118616867Y-86403799D01*
X118611784Y-86402894D01*
X118537952Y-86401992D01*
X118393581Y-86400228D01*
X118393579Y-86400228D01*
X118388411Y-86400165D01*
X118167591Y-86433955D01*
X117955256Y-86503357D01*
X117757107Y-86606507D01*
X117752974Y-86609610D01*
X117752971Y-86609612D01*
X117728747Y-86627800D01*
X117578465Y-86740635D01*
X117424129Y-86902138D01*
X117298243Y-87086680D01*
X117204188Y-87289305D01*
X117144489Y-87504570D01*
X117120751Y-87726695D01*
X117121048Y-87731848D01*
X117121048Y-87731851D01*
X117126511Y-87826590D01*
X117133610Y-87949715D01*
X117134747Y-87954761D01*
X117134748Y-87954767D01*
X117154619Y-88042939D01*
X117182722Y-88167639D01*
X117266766Y-88374616D01*
X117317519Y-88457438D01*
X117380791Y-88560688D01*
X117383487Y-88565088D01*
X117529750Y-88733938D01*
X117701083Y-88876181D01*
X117701626Y-88876632D01*
X117701533Y-88876744D01*
X117744600Y-88930626D01*
X117754000Y-88978379D01*
X117754000Y-91381301D01*
X117733998Y-91449422D01*
X117694302Y-91488445D01*
X117670969Y-91502884D01*
X117665796Y-91508066D01*
X117564253Y-91609786D01*
X117501970Y-91643865D01*
X117431150Y-91638862D01*
X117386063Y-91609941D01*
X117283188Y-91507246D01*
X117283183Y-91507242D01*
X117278003Y-91502071D01*
X117228429Y-91471513D01*
X117136150Y-91414631D01*
X117136148Y-91414630D01*
X117129920Y-91410791D01*
X116964809Y-91356026D01*
X116957973Y-91355326D01*
X116957970Y-91355325D01*
X116906474Y-91350049D01*
X116862072Y-91345500D01*
X116262928Y-91345500D01*
X116259682Y-91345837D01*
X116259678Y-91345837D01*
X116165765Y-91355581D01*
X116165761Y-91355582D01*
X116158907Y-91356293D01*
X116152371Y-91358474D01*
X116152369Y-91358474D01*
X116083949Y-91381301D01*
X115993893Y-91411346D01*
X115845969Y-91502884D01*
X115840796Y-91508066D01*
X115728242Y-91620816D01*
X115728238Y-91620821D01*
X115723071Y-91625997D01*
X115719231Y-91632227D01*
X115719230Y-91632228D01*
X115717143Y-91635614D01*
X115715114Y-91637441D01*
X115714693Y-91637973D01*
X115714602Y-91637901D01*
X115664372Y-91683108D01*
X115609882Y-91695500D01*
X114886767Y-91695500D01*
X114875584Y-91694973D01*
X114868091Y-91693298D01*
X114860165Y-91693547D01*
X114860164Y-91693547D01*
X114800001Y-91695438D01*
X114796043Y-91695500D01*
X114768144Y-91695500D01*
X114764154Y-91696004D01*
X114752320Y-91696936D01*
X114708111Y-91698326D01*
X114700497Y-91700538D01*
X114700492Y-91700539D01*
X114688659Y-91703977D01*
X114669296Y-91707988D01*
X114649203Y-91710526D01*
X114641836Y-91713443D01*
X114641831Y-91713444D01*
X114608092Y-91726802D01*
X114596865Y-91730646D01*
X114554407Y-91742982D01*
X114547581Y-91747019D01*
X114536972Y-91753293D01*
X114519224Y-91761988D01*
X114500383Y-91769448D01*
X114493967Y-91774110D01*
X114493966Y-91774110D01*
X114464613Y-91795436D01*
X114454692Y-91801952D01*
X114416638Y-91824458D01*
X114411031Y-91830064D01*
X114402315Y-91838780D01*
X114387281Y-91851621D01*
X114377306Y-91858868D01*
X114377304Y-91858870D01*
X114370893Y-91863528D01*
X114365839Y-91869637D01*
X114360065Y-91875060D01*
X114358657Y-91873561D01*
X114311349Y-91906197D01*
X114287739Y-91914234D01*
X114172173Y-91953575D01*
X114172170Y-91953576D01*
X114165503Y-91955846D01*
X114159505Y-91959536D01*
X114159503Y-91959537D01*
X114026565Y-92041321D01*
X114026563Y-92041323D01*
X114020566Y-92045012D01*
X113962742Y-92101638D01*
X113938830Y-92125055D01*
X113898986Y-92164073D01*
X113895175Y-92169987D01*
X113895173Y-92169989D01*
X113863058Y-92219821D01*
X113806804Y-92307110D01*
X113748603Y-92467016D01*
X113727275Y-92635843D01*
X108608500Y-92635843D01*
X108608500Y-92446866D01*
X108601745Y-92384684D01*
X108550615Y-92248295D01*
X108463261Y-92131739D01*
X108346705Y-92044385D01*
X108210316Y-91993255D01*
X108148134Y-91986500D01*
X106351866Y-91986500D01*
X106289684Y-91993255D01*
X106153295Y-92044385D01*
X106036739Y-92131739D01*
X105949385Y-92248295D01*
X105946233Y-92256703D01*
X105904919Y-92366907D01*
X105862277Y-92423671D01*
X105795716Y-92448371D01*
X105726367Y-92433163D01*
X105693743Y-92407476D01*
X105643151Y-92351875D01*
X105643142Y-92351866D01*
X105639670Y-92348051D01*
X105635619Y-92344852D01*
X105635615Y-92344848D01*
X105468414Y-92212800D01*
X105468410Y-92212798D01*
X105464359Y-92209598D01*
X105443462Y-92198062D01*
X105392607Y-92169989D01*
X105268789Y-92101638D01*
X105263920Y-92099914D01*
X105263916Y-92099912D01*
X105063087Y-92028795D01*
X105063083Y-92028794D01*
X105058212Y-92027069D01*
X105053119Y-92026162D01*
X105053116Y-92026161D01*
X104843373Y-91988800D01*
X104843367Y-91988799D01*
X104838284Y-91987894D01*
X104764452Y-91986992D01*
X104620081Y-91985228D01*
X104620079Y-91985228D01*
X104614911Y-91985165D01*
X104394091Y-92018955D01*
X104181756Y-92088357D01*
X104151443Y-92104137D01*
X104024943Y-92169989D01*
X103983607Y-92191507D01*
X103979474Y-92194610D01*
X103979471Y-92194612D01*
X103829638Y-92307110D01*
X103804965Y-92325635D01*
X103778155Y-92353690D01*
X103711280Y-92423671D01*
X103650629Y-92487138D01*
X103647715Y-92491410D01*
X103647714Y-92491411D01*
X103611626Y-92544314D01*
X103524743Y-92671680D01*
X103430688Y-92874305D01*
X103370989Y-93089570D01*
X103347251Y-93311695D01*
X103347548Y-93316848D01*
X103347548Y-93316851D01*
X103352045Y-93394848D01*
X103360110Y-93534715D01*
X103361247Y-93539761D01*
X103361248Y-93539767D01*
X103385304Y-93646508D01*
X103409222Y-93752639D01*
X103493266Y-93959616D01*
X103609987Y-94150088D01*
X103756250Y-94318938D01*
X103928126Y-94461632D01*
X103998595Y-94502811D01*
X104001445Y-94504476D01*
X104050169Y-94556114D01*
X104063240Y-94625897D01*
X104036509Y-94691669D01*
X103996055Y-94725027D01*
X103983607Y-94731507D01*
X103979474Y-94734610D01*
X103979471Y-94734612D01*
X103872543Y-94814896D01*
X103804965Y-94865635D01*
X103801393Y-94869373D01*
X103662441Y-95014778D01*
X103650629Y-95027138D01*
X103524743Y-95211680D01*
X103430688Y-95414305D01*
X103370989Y-95629570D01*
X103347251Y-95851695D01*
X103347548Y-95856848D01*
X103347548Y-95856851D01*
X103357447Y-96028526D01*
X103360110Y-96074715D01*
X103361247Y-96079761D01*
X103361248Y-96079767D01*
X103382275Y-96173069D01*
X103409222Y-96292639D01*
X103493266Y-96499616D01*
X103544019Y-96582438D01*
X103607291Y-96685688D01*
X103609987Y-96690088D01*
X103613367Y-96693990D01*
X103624352Y-96706671D01*
X103756250Y-96858938D01*
X103928126Y-97001632D01*
X103933493Y-97004768D01*
X104001445Y-97044476D01*
X104050169Y-97096114D01*
X104063240Y-97165897D01*
X104036509Y-97231669D01*
X103996055Y-97265027D01*
X103983607Y-97271507D01*
X103979474Y-97274610D01*
X103979471Y-97274612D01*
X103819517Y-97394709D01*
X103804965Y-97405635D01*
X103650629Y-97567138D01*
X103524743Y-97751680D01*
X103487250Y-97832452D01*
X103446166Y-97920961D01*
X103430688Y-97954305D01*
X103370989Y-98169570D01*
X103347251Y-98391695D01*
X103347548Y-98396848D01*
X103347548Y-98396851D01*
X103357432Y-98568271D01*
X103360110Y-98614715D01*
X103361247Y-98619761D01*
X103361248Y-98619767D01*
X103383132Y-98716869D01*
X103409222Y-98832639D01*
X103464203Y-98968042D01*
X103488142Y-99026996D01*
X103493266Y-99039616D01*
X103544019Y-99122438D01*
X103607291Y-99225688D01*
X103609987Y-99230088D01*
X103756250Y-99398938D01*
X103928126Y-99541632D01*
X103998595Y-99582811D01*
X104001445Y-99584476D01*
X104050169Y-99636114D01*
X104063240Y-99705897D01*
X104036509Y-99771669D01*
X103996055Y-99805027D01*
X103983607Y-99811507D01*
X103979474Y-99814610D01*
X103979471Y-99814612D01*
X103814677Y-99938343D01*
X103804965Y-99945635D01*
X103757313Y-99995500D01*
X103657270Y-100100189D01*
X103650629Y-100107138D01*
X103524743Y-100291680D01*
X103507420Y-100329000D01*
X103437781Y-100479025D01*
X103430688Y-100494305D01*
X103370989Y-100709570D01*
X103347251Y-100931695D01*
X103347548Y-100936848D01*
X103347548Y-100936851D01*
X103355427Y-101073498D01*
X103360110Y-101154715D01*
X103361247Y-101159761D01*
X103361248Y-101159767D01*
X103383579Y-101258854D01*
X103409222Y-101372639D01*
X103464203Y-101508042D01*
X103486662Y-101563351D01*
X103493266Y-101579616D01*
X103531266Y-101641627D01*
X103607291Y-101765688D01*
X103609987Y-101770088D01*
X103756250Y-101938938D01*
X103928126Y-102081632D01*
X103981683Y-102112928D01*
X104001955Y-102124774D01*
X104050679Y-102176412D01*
X104063750Y-102246195D01*
X104037019Y-102311967D01*
X103996562Y-102345327D01*
X103988457Y-102349546D01*
X103979738Y-102355036D01*
X103809433Y-102482905D01*
X103801726Y-102489748D01*
X103654590Y-102643717D01*
X103648104Y-102651727D01*
X103528098Y-102827649D01*
X103523000Y-102836623D01*
X103433338Y-103029783D01*
X103429775Y-103039470D01*
X103374389Y-103239183D01*
X103375912Y-103247607D01*
X103388292Y-103251000D01*
X108568344Y-103251000D01*
X108581875Y-103247027D01*
X108583180Y-103237947D01*
X108541214Y-103070875D01*
X108537894Y-103061124D01*
X108452972Y-102865814D01*
X108448105Y-102856739D01*
X108379949Y-102751385D01*
X109634000Y-102751385D01*
X109638475Y-102766624D01*
X109639865Y-102767829D01*
X109647548Y-102769500D01*
X110344885Y-102769500D01*
X110360124Y-102765025D01*
X110361329Y-102763635D01*
X110363000Y-102755952D01*
X110363000Y-102751385D01*
X110871000Y-102751385D01*
X110875475Y-102766624D01*
X110876865Y-102767829D01*
X110884548Y-102769500D01*
X111581885Y-102769500D01*
X111597124Y-102765025D01*
X111598329Y-102763635D01*
X111600000Y-102755952D01*
X111600000Y-102677234D01*
X111599663Y-102670718D01*
X111589925Y-102576868D01*
X111587032Y-102563472D01*
X111536512Y-102412047D01*
X111530347Y-102398885D01*
X111446574Y-102263508D01*
X111437540Y-102252110D01*
X111324871Y-102139637D01*
X111313460Y-102130625D01*
X111177937Y-102047088D01*
X111164759Y-102040944D01*
X111013234Y-101990685D01*
X110999868Y-101987819D01*
X110907230Y-101978328D01*
X110900815Y-101978000D01*
X110889115Y-101978000D01*
X110873876Y-101982475D01*
X110872671Y-101983865D01*
X110871000Y-101991548D01*
X110871000Y-102751385D01*
X110363000Y-102751385D01*
X110363000Y-101996115D01*
X110358525Y-101980876D01*
X110357135Y-101979671D01*
X110349452Y-101978000D01*
X110333234Y-101978000D01*
X110326718Y-101978337D01*
X110232868Y-101988075D01*
X110219472Y-101990968D01*
X110068047Y-102041488D01*
X110054885Y-102047653D01*
X109919508Y-102131426D01*
X109908110Y-102140460D01*
X109795637Y-102253129D01*
X109786625Y-102264540D01*
X109703088Y-102400063D01*
X109696944Y-102413241D01*
X109646685Y-102564766D01*
X109643819Y-102578132D01*
X109634328Y-102670770D01*
X109634000Y-102677185D01*
X109634000Y-102751385D01*
X108379949Y-102751385D01*
X108332426Y-102677926D01*
X108326136Y-102669757D01*
X108182806Y-102512240D01*
X108175273Y-102505215D01*
X108008139Y-102373222D01*
X107999556Y-102367520D01*
X107962602Y-102347120D01*
X107912631Y-102296687D01*
X107897859Y-102227245D01*
X107922975Y-102160839D01*
X107950327Y-102134232D01*
X108014044Y-102088783D01*
X108129860Y-102006173D01*
X108138557Y-101997507D01*
X108257789Y-101878690D01*
X108288096Y-101848489D01*
X108347594Y-101765689D01*
X108415435Y-101671277D01*
X108418453Y-101667077D01*
X108430981Y-101641728D01*
X108479095Y-101589521D01*
X108497551Y-101580404D01*
X108520939Y-101571144D01*
X108530913Y-101567195D01*
X108542142Y-101563351D01*
X108576983Y-101553229D01*
X108576984Y-101553229D01*
X108584593Y-101551018D01*
X108591412Y-101546985D01*
X108591417Y-101546983D01*
X108602028Y-101540707D01*
X108619776Y-101532012D01*
X108638617Y-101524552D01*
X108651787Y-101514984D01*
X108674387Y-101498564D01*
X108684307Y-101492048D01*
X108715535Y-101473580D01*
X108715538Y-101473578D01*
X108722362Y-101469542D01*
X108736683Y-101455221D01*
X108751717Y-101442380D01*
X108761694Y-101435131D01*
X108768107Y-101430472D01*
X108796298Y-101396395D01*
X108804288Y-101387616D01*
X110334499Y-99857405D01*
X110396811Y-99823379D01*
X110423594Y-99820500D01*
X110528679Y-99820500D01*
X110596800Y-99840502D01*
X110643293Y-99894158D01*
X110653397Y-99964432D01*
X110634591Y-100014754D01*
X110568304Y-100117610D01*
X110510103Y-100277516D01*
X110488775Y-100446343D01*
X110505381Y-100615699D01*
X110507605Y-100622384D01*
X110507605Y-100622385D01*
X110521492Y-100664132D01*
X110559094Y-100777167D01*
X110562741Y-100783189D01*
X110562742Y-100783191D01*
X110621136Y-100879610D01*
X110647246Y-100922723D01*
X110765455Y-101045132D01*
X110824494Y-101083766D01*
X110898277Y-101132048D01*
X110907846Y-101138310D01*
X110914450Y-101140766D01*
X110914452Y-101140767D01*
X110938061Y-101149547D01*
X111067341Y-101197626D01*
X111072257Y-101198282D01*
X111130111Y-101231015D01*
X112018343Y-102119247D01*
X112025887Y-102127537D01*
X112030000Y-102134018D01*
X112035777Y-102139443D01*
X112079667Y-102180658D01*
X112082509Y-102183413D01*
X112102230Y-102203134D01*
X112105425Y-102205612D01*
X112114447Y-102213318D01*
X112146679Y-102243586D01*
X112153628Y-102247406D01*
X112164432Y-102253346D01*
X112180956Y-102264199D01*
X112196959Y-102276613D01*
X112237543Y-102294176D01*
X112248173Y-102299383D01*
X112286940Y-102320695D01*
X112297400Y-102323381D01*
X112299342Y-102324537D01*
X112301990Y-102325585D01*
X112301821Y-102326012D01*
X112358407Y-102359692D01*
X112390098Y-102423223D01*
X112382411Y-102493803D01*
X112374527Y-102509553D01*
X112330855Y-102583399D01*
X112284438Y-102743169D01*
X112283934Y-102749574D01*
X112283933Y-102749579D01*
X112281693Y-102778042D01*
X112281500Y-102780498D01*
X112281500Y-103213502D01*
X112284438Y-103250831D01*
X112301769Y-103310484D01*
X112320885Y-103376282D01*
X112330855Y-103410601D01*
X112415547Y-103553807D01*
X112418229Y-103556489D01*
X112443502Y-103620861D01*
X112429600Y-103690484D01*
X112419428Y-103706312D01*
X112415547Y-103710193D01*
X112330855Y-103853399D01*
X112328644Y-103861010D01*
X112328643Y-103861012D01*
X112317562Y-103899153D01*
X112279349Y-103958989D01*
X112214852Y-103988666D01*
X112196565Y-103990000D01*
X111543534Y-103990000D01*
X111475413Y-103969998D01*
X111428920Y-103916342D01*
X111418816Y-103846068D01*
X111444651Y-103785909D01*
X111447375Y-103782460D01*
X111530912Y-103646937D01*
X111537056Y-103633759D01*
X111587315Y-103482234D01*
X111590181Y-103468868D01*
X111599672Y-103376230D01*
X111600000Y-103369815D01*
X111600000Y-103295615D01*
X111595525Y-103280376D01*
X111594135Y-103279171D01*
X111586452Y-103277500D01*
X109652115Y-103277500D01*
X109636876Y-103281975D01*
X109635671Y-103283365D01*
X109634000Y-103291048D01*
X109634000Y-103369766D01*
X109634337Y-103376282D01*
X109644075Y-103470132D01*
X109646968Y-103483528D01*
X109697488Y-103634953D01*
X109703653Y-103648115D01*
X109787427Y-103783493D01*
X109800348Y-103799795D01*
X109826986Y-103865604D01*
X109813816Y-103935369D01*
X109765019Y-103986938D01*
X109731893Y-103999495D01*
X109731933Y-103999617D01*
X109731055Y-103999902D01*
X109730498Y-104000024D01*
X109729433Y-104000428D01*
X109724904Y-104001895D01*
X109718968Y-104003081D01*
X109713088Y-104004471D01*
X109705819Y-104005318D01*
X109698943Y-104007814D01*
X109698934Y-104007816D01*
X109637202Y-104030225D01*
X109633098Y-104031635D01*
X109563601Y-104054148D01*
X109557346Y-104057944D01*
X109551887Y-104060443D01*
X109546439Y-104063171D01*
X109539563Y-104065667D01*
X109478510Y-104105695D01*
X109474837Y-104108013D01*
X109412393Y-104145905D01*
X109404017Y-104153302D01*
X109403993Y-104153275D01*
X109400999Y-104155930D01*
X109397768Y-104158632D01*
X109391648Y-104162644D01*
X109386616Y-104167956D01*
X109338372Y-104218883D01*
X109335994Y-104221325D01*
X108430094Y-105127225D01*
X108367782Y-105161251D01*
X108296967Y-105156186D01*
X108247806Y-105122930D01*
X108183152Y-105051876D01*
X108183142Y-105051867D01*
X108179670Y-105048051D01*
X108175619Y-105044852D01*
X108175615Y-105044848D01*
X108008414Y-104912800D01*
X108008410Y-104912798D01*
X108004359Y-104909598D01*
X107962569Y-104886529D01*
X107912598Y-104836097D01*
X107897826Y-104766654D01*
X107922942Y-104700248D01*
X107950294Y-104673641D01*
X108125328Y-104548792D01*
X108133200Y-104542139D01*
X108284052Y-104391812D01*
X108290730Y-104383965D01*
X108415003Y-104211020D01*
X108420313Y-104202183D01*
X108514670Y-104011267D01*
X108518469Y-104001672D01*
X108580377Y-103797910D01*
X108582555Y-103787837D01*
X108583986Y-103776962D01*
X108581775Y-103762778D01*
X108568617Y-103759000D01*
X103393225Y-103759000D01*
X103379694Y-103762973D01*
X103378257Y-103772966D01*
X103408565Y-103907446D01*
X103411645Y-103917275D01*
X103491770Y-104114603D01*
X103496413Y-104123794D01*
X103607694Y-104305388D01*
X103613777Y-104313699D01*
X103753213Y-104474667D01*
X103760580Y-104481883D01*
X103924434Y-104617916D01*
X103932881Y-104623831D01*
X104001969Y-104664203D01*
X104050693Y-104715842D01*
X104063764Y-104785625D01*
X104037033Y-104851396D01*
X103996584Y-104884752D01*
X103983607Y-104891507D01*
X103979474Y-104894610D01*
X103979471Y-104894612D01*
X103809100Y-105022530D01*
X103804965Y-105025635D01*
X103759638Y-105073067D01*
X103661751Y-105175500D01*
X103650629Y-105187138D01*
X103647720Y-105191403D01*
X103647714Y-105191411D01*
X103588556Y-105278134D01*
X103524743Y-105371680D01*
X103481264Y-105465348D01*
X103459749Y-105511699D01*
X103430688Y-105574305D01*
X103370989Y-105789570D01*
X103347251Y-106011695D01*
X100838500Y-106011695D01*
X100838500Y-86232500D01*
X100858502Y-86164379D01*
X100912158Y-86117886D01*
X100964500Y-86106500D01*
X148336500Y-86106500D01*
X148404621Y-86126502D01*
G37*
%TD.AperFunction*%
%TD*%
M02*
