%TF.GenerationSoftware,KiCad,Pcbnew,(6.0.9)*%
%TF.CreationDate,2023-03-11T18:38:12+09:00*%
%TF.ProjectId,Pmod_Matrix2,506d6f64-5f4d-4617-9472-6978322e6b69,rev?*%
%TF.SameCoordinates,Original*%
%TF.FileFunction,Legend,Top*%
%TF.FilePolarity,Positive*%
%FSLAX46Y46*%
G04 Gerber Fmt 4.6, Leading zero omitted, Abs format (unit mm)*
G04 Created by KiCad (PCBNEW (6.0.9)) date 2023-03-11 18:38:12*
%MOMM*%
%LPD*%
G01*
G04 APERTURE LIST*
%ADD10C,0.150000*%
%ADD11C,0.120000*%
G04 APERTURE END LIST*
D10*
X102775095Y-112799761D02*
X102917952Y-112847380D01*
X103156047Y-112847380D01*
X103251285Y-112799761D01*
X103298904Y-112752142D01*
X103346523Y-112656904D01*
X103346523Y-112561666D01*
X103298904Y-112466428D01*
X103251285Y-112418809D01*
X103156047Y-112371190D01*
X102965571Y-112323571D01*
X102870333Y-112275952D01*
X102822714Y-112228333D01*
X102775095Y-112133095D01*
X102775095Y-112037857D01*
X102822714Y-111942619D01*
X102870333Y-111895000D01*
X102965571Y-111847380D01*
X103203666Y-111847380D01*
X103346523Y-111895000D01*
X104203666Y-112180714D02*
X104203666Y-112847380D01*
X103775095Y-112180714D02*
X103775095Y-112704523D01*
X103822714Y-112799761D01*
X103917952Y-112847380D01*
X104060809Y-112847380D01*
X104156047Y-112799761D01*
X104203666Y-112752142D01*
X105108428Y-112180714D02*
X105108428Y-112990238D01*
X105060809Y-113085476D01*
X105013190Y-113133095D01*
X104917952Y-113180714D01*
X104775095Y-113180714D01*
X104679857Y-113133095D01*
X105108428Y-112799761D02*
X105013190Y-112847380D01*
X104822714Y-112847380D01*
X104727476Y-112799761D01*
X104679857Y-112752142D01*
X104632238Y-112656904D01*
X104632238Y-112371190D01*
X104679857Y-112275952D01*
X104727476Y-112228333D01*
X104822714Y-112180714D01*
X105013190Y-112180714D01*
X105108428Y-112228333D01*
X106013190Y-112847380D02*
X106013190Y-112323571D01*
X105965571Y-112228333D01*
X105870333Y-112180714D01*
X105679857Y-112180714D01*
X105584619Y-112228333D01*
X106013190Y-112799761D02*
X105917952Y-112847380D01*
X105679857Y-112847380D01*
X105584619Y-112799761D01*
X105537000Y-112704523D01*
X105537000Y-112609285D01*
X105584619Y-112514047D01*
X105679857Y-112466428D01*
X105917952Y-112466428D01*
X106013190Y-112418809D01*
X106489380Y-112847380D02*
X106489380Y-112180714D01*
X106489380Y-112275952D02*
X106537000Y-112228333D01*
X106632238Y-112180714D01*
X106775095Y-112180714D01*
X106870333Y-112228333D01*
X106917952Y-112323571D01*
X106917952Y-112847380D01*
X106917952Y-112323571D02*
X106965571Y-112228333D01*
X107060809Y-112180714D01*
X107203666Y-112180714D01*
X107298904Y-112228333D01*
X107346523Y-112323571D01*
X107346523Y-112847380D01*
X107965571Y-112847380D02*
X107870333Y-112799761D01*
X107822714Y-112752142D01*
X107775095Y-112656904D01*
X107775095Y-112371190D01*
X107822714Y-112275952D01*
X107870333Y-112228333D01*
X107965571Y-112180714D01*
X108108428Y-112180714D01*
X108203666Y-112228333D01*
X108251285Y-112275952D01*
X108298904Y-112371190D01*
X108298904Y-112656904D01*
X108251285Y-112752142D01*
X108203666Y-112799761D01*
X108108428Y-112847380D01*
X107965571Y-112847380D01*
X102021476Y-88547380D02*
X102021476Y-87547380D01*
X102402428Y-87547380D01*
X102497666Y-87595000D01*
X102545285Y-87642619D01*
X102592904Y-87737857D01*
X102592904Y-87880714D01*
X102545285Y-87975952D01*
X102497666Y-88023571D01*
X102402428Y-88071190D01*
X102021476Y-88071190D01*
X103021476Y-88547380D02*
X103021476Y-87880714D01*
X103021476Y-87975952D02*
X103069095Y-87928333D01*
X103164333Y-87880714D01*
X103307190Y-87880714D01*
X103402428Y-87928333D01*
X103450047Y-88023571D01*
X103450047Y-88547380D01*
X103450047Y-88023571D02*
X103497666Y-87928333D01*
X103592904Y-87880714D01*
X103735761Y-87880714D01*
X103831000Y-87928333D01*
X103878619Y-88023571D01*
X103878619Y-88547380D01*
X104497666Y-88547380D02*
X104402428Y-88499761D01*
X104354809Y-88452142D01*
X104307190Y-88356904D01*
X104307190Y-88071190D01*
X104354809Y-87975952D01*
X104402428Y-87928333D01*
X104497666Y-87880714D01*
X104640523Y-87880714D01*
X104735761Y-87928333D01*
X104783380Y-87975952D01*
X104831000Y-88071190D01*
X104831000Y-88356904D01*
X104783380Y-88452142D01*
X104735761Y-88499761D01*
X104640523Y-88547380D01*
X104497666Y-88547380D01*
X105688142Y-88547380D02*
X105688142Y-87547380D01*
X105688142Y-88499761D02*
X105592904Y-88547380D01*
X105402428Y-88547380D01*
X105307190Y-88499761D01*
X105259571Y-88452142D01*
X105211952Y-88356904D01*
X105211952Y-88071190D01*
X105259571Y-87975952D01*
X105307190Y-87928333D01*
X105402428Y-87880714D01*
X105592904Y-87880714D01*
X105688142Y-87928333D01*
X105926238Y-88642619D02*
X106688142Y-88642619D01*
X106926238Y-88547380D02*
X106926238Y-87547380D01*
X107259571Y-88261666D01*
X107592904Y-87547380D01*
X107592904Y-88547380D01*
X108497666Y-88547380D02*
X108497666Y-88023571D01*
X108450047Y-87928333D01*
X108354809Y-87880714D01*
X108164333Y-87880714D01*
X108069095Y-87928333D01*
X108497666Y-88499761D02*
X108402428Y-88547380D01*
X108164333Y-88547380D01*
X108069095Y-88499761D01*
X108021476Y-88404523D01*
X108021476Y-88309285D01*
X108069095Y-88214047D01*
X108164333Y-88166428D01*
X108402428Y-88166428D01*
X108497666Y-88118809D01*
X108831000Y-87880714D02*
X109211952Y-87880714D01*
X108973857Y-87547380D02*
X108973857Y-88404523D01*
X109021476Y-88499761D01*
X109116714Y-88547380D01*
X109211952Y-88547380D01*
X109545285Y-88547380D02*
X109545285Y-87880714D01*
X109545285Y-88071190D02*
X109592904Y-87975952D01*
X109640523Y-87928333D01*
X109735761Y-87880714D01*
X109831000Y-87880714D01*
X110164333Y-88547380D02*
X110164333Y-87880714D01*
X110164333Y-87547380D02*
X110116714Y-87595000D01*
X110164333Y-87642619D01*
X110211952Y-87595000D01*
X110164333Y-87547380D01*
X110164333Y-87642619D01*
X110545285Y-88547380D02*
X111069095Y-87880714D01*
X110545285Y-87880714D02*
X111069095Y-88547380D01*
X111926238Y-88547380D02*
X111450047Y-88547380D01*
X111450047Y-87547380D01*
X112259571Y-88023571D02*
X112592904Y-88023571D01*
X112735761Y-88547380D02*
X112259571Y-88547380D01*
X112259571Y-87547380D01*
X112735761Y-87547380D01*
X113164333Y-88547380D02*
X113164333Y-87547380D01*
X113402428Y-87547380D01*
X113545285Y-87595000D01*
X113640523Y-87690238D01*
X113688142Y-87785476D01*
X113735761Y-87975952D01*
X113735761Y-88118809D01*
X113688142Y-88309285D01*
X113640523Y-88404523D01*
X113545285Y-88499761D01*
X113402428Y-88547380D01*
X113164333Y-88547380D01*
X114116714Y-87642619D02*
X114164333Y-87595000D01*
X114259571Y-87547380D01*
X114497666Y-87547380D01*
X114592904Y-87595000D01*
X114640523Y-87642619D01*
X114688142Y-87737857D01*
X114688142Y-87833095D01*
X114640523Y-87975952D01*
X114069095Y-88547380D01*
X114688142Y-88547380D01*
X108735761Y-89157380D02*
X109069095Y-90157380D01*
X109402428Y-89157380D01*
X110116714Y-90109761D02*
X110021476Y-90157380D01*
X109831000Y-90157380D01*
X109735761Y-90109761D01*
X109688142Y-90014523D01*
X109688142Y-89633571D01*
X109735761Y-89538333D01*
X109831000Y-89490714D01*
X110021476Y-89490714D01*
X110116714Y-89538333D01*
X110164333Y-89633571D01*
X110164333Y-89728809D01*
X109688142Y-89824047D01*
X110592904Y-90157380D02*
X110592904Y-89490714D01*
X110592904Y-89681190D02*
X110640523Y-89585952D01*
X110688142Y-89538333D01*
X110783380Y-89490714D01*
X110878619Y-89490714D01*
X112164333Y-89157380D02*
X112259571Y-89157380D01*
X112354809Y-89205000D01*
X112402428Y-89252619D01*
X112450047Y-89347857D01*
X112497666Y-89538333D01*
X112497666Y-89776428D01*
X112450047Y-89966904D01*
X112402428Y-90062142D01*
X112354809Y-90109761D01*
X112259571Y-90157380D01*
X112164333Y-90157380D01*
X112069095Y-90109761D01*
X112021476Y-90062142D01*
X111973857Y-89966904D01*
X111926238Y-89776428D01*
X111926238Y-89538333D01*
X111973857Y-89347857D01*
X112021476Y-89252619D01*
X112069095Y-89205000D01*
X112164333Y-89157380D01*
X112926238Y-90062142D02*
X112973857Y-90109761D01*
X112926238Y-90157380D01*
X112878619Y-90109761D01*
X112926238Y-90062142D01*
X112926238Y-90157380D01*
X113926238Y-90157380D02*
X113354809Y-90157380D01*
X113640523Y-90157380D02*
X113640523Y-89157380D01*
X113545285Y-89300238D01*
X113450047Y-89395476D01*
X113354809Y-89443095D01*
%TO.C,U1*%
X116078095Y-105374380D02*
X116078095Y-106183904D01*
X116125714Y-106279142D01*
X116173333Y-106326761D01*
X116268571Y-106374380D01*
X116459047Y-106374380D01*
X116554285Y-106326761D01*
X116601904Y-106279142D01*
X116649523Y-106183904D01*
X116649523Y-105374380D01*
X117649523Y-106374380D02*
X117078095Y-106374380D01*
X117363809Y-106374380D02*
X117363809Y-105374380D01*
X117268571Y-105517238D01*
X117173333Y-105612476D01*
X117078095Y-105660095D01*
%TO.C,J1*%
X101261666Y-107767380D02*
X101261666Y-108481666D01*
X101214047Y-108624523D01*
X101118809Y-108719761D01*
X100975952Y-108767380D01*
X100880714Y-108767380D01*
X102261666Y-108767380D02*
X101690238Y-108767380D01*
X101975952Y-108767380D02*
X101975952Y-107767380D01*
X101880714Y-107910238D01*
X101785476Y-108005476D01*
X101690238Y-108053095D01*
%TO.C,U3*%
X141859095Y-105374380D02*
X141859095Y-106183904D01*
X141906714Y-106279142D01*
X141954333Y-106326761D01*
X142049571Y-106374380D01*
X142240047Y-106374380D01*
X142335285Y-106326761D01*
X142382904Y-106279142D01*
X142430523Y-106183904D01*
X142430523Y-105374380D01*
X142811476Y-105374380D02*
X143430523Y-105374380D01*
X143097190Y-105755333D01*
X143240047Y-105755333D01*
X143335285Y-105802952D01*
X143382904Y-105850571D01*
X143430523Y-105945809D01*
X143430523Y-106183904D01*
X143382904Y-106279142D01*
X143335285Y-106326761D01*
X143240047Y-106374380D01*
X142954333Y-106374380D01*
X142859095Y-106326761D01*
X142811476Y-106279142D01*
%TO.C,U2*%
X129032095Y-105374380D02*
X129032095Y-106183904D01*
X129079714Y-106279142D01*
X129127333Y-106326761D01*
X129222571Y-106374380D01*
X129413047Y-106374380D01*
X129508285Y-106326761D01*
X129555904Y-106279142D01*
X129603523Y-106183904D01*
X129603523Y-105374380D01*
X130032095Y-105469619D02*
X130079714Y-105422000D01*
X130174952Y-105374380D01*
X130413047Y-105374380D01*
X130508285Y-105422000D01*
X130555904Y-105469619D01*
X130603523Y-105564857D01*
X130603523Y-105660095D01*
X130555904Y-105802952D01*
X129984476Y-106374380D01*
X130603523Y-106374380D01*
%TO.C,R16*%
X144137142Y-89896904D02*
X143803809Y-89515952D01*
X143565714Y-89896904D02*
X143565714Y-89096904D01*
X143946666Y-89096904D01*
X144041904Y-89135000D01*
X144089523Y-89173095D01*
X144137142Y-89249285D01*
X144137142Y-89363571D01*
X144089523Y-89439761D01*
X144041904Y-89477857D01*
X143946666Y-89515952D01*
X143565714Y-89515952D01*
X145089523Y-89896904D02*
X144518095Y-89896904D01*
X144803809Y-89896904D02*
X144803809Y-89096904D01*
X144708571Y-89211190D01*
X144613333Y-89287380D01*
X144518095Y-89325476D01*
X145946666Y-89096904D02*
X145756190Y-89096904D01*
X145660952Y-89135000D01*
X145613333Y-89173095D01*
X145518095Y-89287380D01*
X145470476Y-89439761D01*
X145470476Y-89744523D01*
X145518095Y-89820714D01*
X145565714Y-89858809D01*
X145660952Y-89896904D01*
X145851428Y-89896904D01*
X145946666Y-89858809D01*
X145994285Y-89820714D01*
X146041904Y-89744523D01*
X146041904Y-89554047D01*
X145994285Y-89477857D01*
X145946666Y-89439761D01*
X145851428Y-89401666D01*
X145660952Y-89401666D01*
X145565714Y-89439761D01*
X145518095Y-89477857D01*
X145470476Y-89554047D01*
%TO.C,R15*%
X139819142Y-93833904D02*
X139485809Y-93452952D01*
X139247714Y-93833904D02*
X139247714Y-93033904D01*
X139628666Y-93033904D01*
X139723904Y-93072000D01*
X139771523Y-93110095D01*
X139819142Y-93186285D01*
X139819142Y-93300571D01*
X139771523Y-93376761D01*
X139723904Y-93414857D01*
X139628666Y-93452952D01*
X139247714Y-93452952D01*
X140771523Y-93833904D02*
X140200095Y-93833904D01*
X140485809Y-93833904D02*
X140485809Y-93033904D01*
X140390571Y-93148190D01*
X140295333Y-93224380D01*
X140200095Y-93262476D01*
X141676285Y-93033904D02*
X141200095Y-93033904D01*
X141152476Y-93414857D01*
X141200095Y-93376761D01*
X141295333Y-93338666D01*
X141533428Y-93338666D01*
X141628666Y-93376761D01*
X141676285Y-93414857D01*
X141723904Y-93491047D01*
X141723904Y-93681523D01*
X141676285Y-93757714D01*
X141628666Y-93795809D01*
X141533428Y-93833904D01*
X141295333Y-93833904D01*
X141200095Y-93795809D01*
X141152476Y-93757714D01*
%TO.C,R14*%
X136517142Y-89896904D02*
X136183809Y-89515952D01*
X135945714Y-89896904D02*
X135945714Y-89096904D01*
X136326666Y-89096904D01*
X136421904Y-89135000D01*
X136469523Y-89173095D01*
X136517142Y-89249285D01*
X136517142Y-89363571D01*
X136469523Y-89439761D01*
X136421904Y-89477857D01*
X136326666Y-89515952D01*
X135945714Y-89515952D01*
X137469523Y-89896904D02*
X136898095Y-89896904D01*
X137183809Y-89896904D02*
X137183809Y-89096904D01*
X137088571Y-89211190D01*
X136993333Y-89287380D01*
X136898095Y-89325476D01*
X138326666Y-89363571D02*
X138326666Y-89896904D01*
X138088571Y-89058809D02*
X137850476Y-89630238D01*
X138469523Y-89630238D01*
%TO.C,R13*%
X132199142Y-93833904D02*
X131865809Y-93452952D01*
X131627714Y-93833904D02*
X131627714Y-93033904D01*
X132008666Y-93033904D01*
X132103904Y-93072000D01*
X132151523Y-93110095D01*
X132199142Y-93186285D01*
X132199142Y-93300571D01*
X132151523Y-93376761D01*
X132103904Y-93414857D01*
X132008666Y-93452952D01*
X131627714Y-93452952D01*
X133151523Y-93833904D02*
X132580095Y-93833904D01*
X132865809Y-93833904D02*
X132865809Y-93033904D01*
X132770571Y-93148190D01*
X132675333Y-93224380D01*
X132580095Y-93262476D01*
X133484857Y-93033904D02*
X134103904Y-93033904D01*
X133770571Y-93338666D01*
X133913428Y-93338666D01*
X134008666Y-93376761D01*
X134056285Y-93414857D01*
X134103904Y-93491047D01*
X134103904Y-93681523D01*
X134056285Y-93757714D01*
X134008666Y-93795809D01*
X133913428Y-93833904D01*
X133627714Y-93833904D01*
X133532476Y-93795809D01*
X133484857Y-93757714D01*
%TO.C,R12*%
X128897142Y-89896904D02*
X128563809Y-89515952D01*
X128325714Y-89896904D02*
X128325714Y-89096904D01*
X128706666Y-89096904D01*
X128801904Y-89135000D01*
X128849523Y-89173095D01*
X128897142Y-89249285D01*
X128897142Y-89363571D01*
X128849523Y-89439761D01*
X128801904Y-89477857D01*
X128706666Y-89515952D01*
X128325714Y-89515952D01*
X129849523Y-89896904D02*
X129278095Y-89896904D01*
X129563809Y-89896904D02*
X129563809Y-89096904D01*
X129468571Y-89211190D01*
X129373333Y-89287380D01*
X129278095Y-89325476D01*
X130230476Y-89173095D02*
X130278095Y-89135000D01*
X130373333Y-89096904D01*
X130611428Y-89096904D01*
X130706666Y-89135000D01*
X130754285Y-89173095D01*
X130801904Y-89249285D01*
X130801904Y-89325476D01*
X130754285Y-89439761D01*
X130182857Y-89896904D01*
X130801904Y-89896904D01*
%TO.C,R11*%
X124579142Y-93833904D02*
X124245809Y-93452952D01*
X124007714Y-93833904D02*
X124007714Y-93033904D01*
X124388666Y-93033904D01*
X124483904Y-93072000D01*
X124531523Y-93110095D01*
X124579142Y-93186285D01*
X124579142Y-93300571D01*
X124531523Y-93376761D01*
X124483904Y-93414857D01*
X124388666Y-93452952D01*
X124007714Y-93452952D01*
X125531523Y-93833904D02*
X124960095Y-93833904D01*
X125245809Y-93833904D02*
X125245809Y-93033904D01*
X125150571Y-93148190D01*
X125055333Y-93224380D01*
X124960095Y-93262476D01*
X126483904Y-93833904D02*
X125912476Y-93833904D01*
X126198190Y-93833904D02*
X126198190Y-93033904D01*
X126102952Y-93148190D01*
X126007714Y-93224380D01*
X125912476Y-93262476D01*
%TO.C,R10*%
X121277142Y-89896904D02*
X120943809Y-89515952D01*
X120705714Y-89896904D02*
X120705714Y-89096904D01*
X121086666Y-89096904D01*
X121181904Y-89135000D01*
X121229523Y-89173095D01*
X121277142Y-89249285D01*
X121277142Y-89363571D01*
X121229523Y-89439761D01*
X121181904Y-89477857D01*
X121086666Y-89515952D01*
X120705714Y-89515952D01*
X122229523Y-89896904D02*
X121658095Y-89896904D01*
X121943809Y-89896904D02*
X121943809Y-89096904D01*
X121848571Y-89211190D01*
X121753333Y-89287380D01*
X121658095Y-89325476D01*
X122848571Y-89096904D02*
X122943809Y-89096904D01*
X123039047Y-89135000D01*
X123086666Y-89173095D01*
X123134285Y-89249285D01*
X123181904Y-89401666D01*
X123181904Y-89592142D01*
X123134285Y-89744523D01*
X123086666Y-89820714D01*
X123039047Y-89858809D01*
X122943809Y-89896904D01*
X122848571Y-89896904D01*
X122753333Y-89858809D01*
X122705714Y-89820714D01*
X122658095Y-89744523D01*
X122610476Y-89592142D01*
X122610476Y-89401666D01*
X122658095Y-89249285D01*
X122705714Y-89173095D01*
X122753333Y-89135000D01*
X122848571Y-89096904D01*
%TO.C,R9*%
X117308333Y-93833904D02*
X116975000Y-93452952D01*
X116736904Y-93833904D02*
X116736904Y-93033904D01*
X117117857Y-93033904D01*
X117213095Y-93072000D01*
X117260714Y-93110095D01*
X117308333Y-93186285D01*
X117308333Y-93300571D01*
X117260714Y-93376761D01*
X117213095Y-93414857D01*
X117117857Y-93452952D01*
X116736904Y-93452952D01*
X117784523Y-93833904D02*
X117975000Y-93833904D01*
X118070238Y-93795809D01*
X118117857Y-93757714D01*
X118213095Y-93643428D01*
X118260714Y-93491047D01*
X118260714Y-93186285D01*
X118213095Y-93110095D01*
X118165476Y-93072000D01*
X118070238Y-93033904D01*
X117879761Y-93033904D01*
X117784523Y-93072000D01*
X117736904Y-93110095D01*
X117689285Y-93186285D01*
X117689285Y-93376761D01*
X117736904Y-93452952D01*
X117784523Y-93491047D01*
X117879761Y-93529142D01*
X118070238Y-93529142D01*
X118165476Y-93491047D01*
X118213095Y-93452952D01*
X118260714Y-93376761D01*
%TO.C,R8*%
X144486333Y-110343904D02*
X144153000Y-109962952D01*
X143914904Y-110343904D02*
X143914904Y-109543904D01*
X144295857Y-109543904D01*
X144391095Y-109582000D01*
X144438714Y-109620095D01*
X144486333Y-109696285D01*
X144486333Y-109810571D01*
X144438714Y-109886761D01*
X144391095Y-109924857D01*
X144295857Y-109962952D01*
X143914904Y-109962952D01*
X145057761Y-109886761D02*
X144962523Y-109848666D01*
X144914904Y-109810571D01*
X144867285Y-109734380D01*
X144867285Y-109696285D01*
X144914904Y-109620095D01*
X144962523Y-109582000D01*
X145057761Y-109543904D01*
X145248238Y-109543904D01*
X145343476Y-109582000D01*
X145391095Y-109620095D01*
X145438714Y-109696285D01*
X145438714Y-109734380D01*
X145391095Y-109810571D01*
X145343476Y-109848666D01*
X145248238Y-109886761D01*
X145057761Y-109886761D01*
X144962523Y-109924857D01*
X144914904Y-109962952D01*
X144867285Y-110039142D01*
X144867285Y-110191523D01*
X144914904Y-110267714D01*
X144962523Y-110305809D01*
X145057761Y-110343904D01*
X145248238Y-110343904D01*
X145343476Y-110305809D01*
X145391095Y-110267714D01*
X145438714Y-110191523D01*
X145438714Y-110039142D01*
X145391095Y-109962952D01*
X145343476Y-109924857D01*
X145248238Y-109886761D01*
%TO.C,R7*%
X140041333Y-105992904D02*
X139708000Y-105611952D01*
X139469904Y-105992904D02*
X139469904Y-105192904D01*
X139850857Y-105192904D01*
X139946095Y-105231000D01*
X139993714Y-105269095D01*
X140041333Y-105345285D01*
X140041333Y-105459571D01*
X139993714Y-105535761D01*
X139946095Y-105573857D01*
X139850857Y-105611952D01*
X139469904Y-105611952D01*
X140374666Y-105192904D02*
X141041333Y-105192904D01*
X140612761Y-105992904D01*
%TO.C,R6*%
X136739333Y-110343904D02*
X136406000Y-109962952D01*
X136167904Y-110343904D02*
X136167904Y-109543904D01*
X136548857Y-109543904D01*
X136644095Y-109582000D01*
X136691714Y-109620095D01*
X136739333Y-109696285D01*
X136739333Y-109810571D01*
X136691714Y-109886761D01*
X136644095Y-109924857D01*
X136548857Y-109962952D01*
X136167904Y-109962952D01*
X137596476Y-109543904D02*
X137406000Y-109543904D01*
X137310761Y-109582000D01*
X137263142Y-109620095D01*
X137167904Y-109734380D01*
X137120285Y-109886761D01*
X137120285Y-110191523D01*
X137167904Y-110267714D01*
X137215523Y-110305809D01*
X137310761Y-110343904D01*
X137501238Y-110343904D01*
X137596476Y-110305809D01*
X137644095Y-110267714D01*
X137691714Y-110191523D01*
X137691714Y-110001047D01*
X137644095Y-109924857D01*
X137596476Y-109886761D01*
X137501238Y-109848666D01*
X137310761Y-109848666D01*
X137215523Y-109886761D01*
X137167904Y-109924857D01*
X137120285Y-110001047D01*
%TO.C,R5*%
X132421333Y-105992904D02*
X132088000Y-105611952D01*
X131849904Y-105992904D02*
X131849904Y-105192904D01*
X132230857Y-105192904D01*
X132326095Y-105231000D01*
X132373714Y-105269095D01*
X132421333Y-105345285D01*
X132421333Y-105459571D01*
X132373714Y-105535761D01*
X132326095Y-105573857D01*
X132230857Y-105611952D01*
X131849904Y-105611952D01*
X133326095Y-105192904D02*
X132849904Y-105192904D01*
X132802285Y-105573857D01*
X132849904Y-105535761D01*
X132945142Y-105497666D01*
X133183238Y-105497666D01*
X133278476Y-105535761D01*
X133326095Y-105573857D01*
X133373714Y-105650047D01*
X133373714Y-105840523D01*
X133326095Y-105916714D01*
X133278476Y-105954809D01*
X133183238Y-105992904D01*
X132945142Y-105992904D01*
X132849904Y-105954809D01*
X132802285Y-105916714D01*
%TO.C,R4*%
X129119333Y-110343904D02*
X128786000Y-109962952D01*
X128547904Y-110343904D02*
X128547904Y-109543904D01*
X128928857Y-109543904D01*
X129024095Y-109582000D01*
X129071714Y-109620095D01*
X129119333Y-109696285D01*
X129119333Y-109810571D01*
X129071714Y-109886761D01*
X129024095Y-109924857D01*
X128928857Y-109962952D01*
X128547904Y-109962952D01*
X129976476Y-109810571D02*
X129976476Y-110343904D01*
X129738380Y-109505809D02*
X129500285Y-110077238D01*
X130119333Y-110077238D01*
%TO.C,R3*%
X124801333Y-105865904D02*
X124468000Y-105484952D01*
X124229904Y-105865904D02*
X124229904Y-105065904D01*
X124610857Y-105065904D01*
X124706095Y-105104000D01*
X124753714Y-105142095D01*
X124801333Y-105218285D01*
X124801333Y-105332571D01*
X124753714Y-105408761D01*
X124706095Y-105446857D01*
X124610857Y-105484952D01*
X124229904Y-105484952D01*
X125134666Y-105065904D02*
X125753714Y-105065904D01*
X125420380Y-105370666D01*
X125563238Y-105370666D01*
X125658476Y-105408761D01*
X125706095Y-105446857D01*
X125753714Y-105523047D01*
X125753714Y-105713523D01*
X125706095Y-105789714D01*
X125658476Y-105827809D01*
X125563238Y-105865904D01*
X125277523Y-105865904D01*
X125182285Y-105827809D01*
X125134666Y-105789714D01*
%TO.C,R2*%
X121372333Y-110343904D02*
X121039000Y-109962952D01*
X120800904Y-110343904D02*
X120800904Y-109543904D01*
X121181857Y-109543904D01*
X121277095Y-109582000D01*
X121324714Y-109620095D01*
X121372333Y-109696285D01*
X121372333Y-109810571D01*
X121324714Y-109886761D01*
X121277095Y-109924857D01*
X121181857Y-109962952D01*
X120800904Y-109962952D01*
X121753285Y-109620095D02*
X121800904Y-109582000D01*
X121896142Y-109543904D01*
X122134238Y-109543904D01*
X122229476Y-109582000D01*
X122277095Y-109620095D01*
X122324714Y-109696285D01*
X122324714Y-109772476D01*
X122277095Y-109886761D01*
X121705666Y-110343904D01*
X122324714Y-110343904D01*
%TO.C,R1*%
X117204833Y-107770904D02*
X116871500Y-107389952D01*
X116633404Y-107770904D02*
X116633404Y-106970904D01*
X117014357Y-106970904D01*
X117109595Y-107009000D01*
X117157214Y-107047095D01*
X117204833Y-107123285D01*
X117204833Y-107237571D01*
X117157214Y-107313761D01*
X117109595Y-107351857D01*
X117014357Y-107389952D01*
X116633404Y-107389952D01*
X118157214Y-107770904D02*
X117585785Y-107770904D01*
X117871500Y-107770904D02*
X117871500Y-106970904D01*
X117776261Y-107085190D01*
X117681023Y-107161380D01*
X117585785Y-107199476D01*
%TO.C,C3*%
X136866333Y-99544142D02*
X136818714Y-99591761D01*
X136675857Y-99639380D01*
X136580619Y-99639380D01*
X136437761Y-99591761D01*
X136342523Y-99496523D01*
X136294904Y-99401285D01*
X136247285Y-99210809D01*
X136247285Y-99067952D01*
X136294904Y-98877476D01*
X136342523Y-98782238D01*
X136437761Y-98687000D01*
X136580619Y-98639380D01*
X136675857Y-98639380D01*
X136818714Y-98687000D01*
X136866333Y-98734619D01*
X137199666Y-98639380D02*
X137818714Y-98639380D01*
X137485380Y-99020333D01*
X137628238Y-99020333D01*
X137723476Y-99067952D01*
X137771095Y-99115571D01*
X137818714Y-99210809D01*
X137818714Y-99448904D01*
X137771095Y-99544142D01*
X137723476Y-99591761D01*
X137628238Y-99639380D01*
X137342523Y-99639380D01*
X137247285Y-99591761D01*
X137199666Y-99544142D01*
%TO.C,C2*%
X124166333Y-99544142D02*
X124118714Y-99591761D01*
X123975857Y-99639380D01*
X123880619Y-99639380D01*
X123737761Y-99591761D01*
X123642523Y-99496523D01*
X123594904Y-99401285D01*
X123547285Y-99210809D01*
X123547285Y-99067952D01*
X123594904Y-98877476D01*
X123642523Y-98782238D01*
X123737761Y-98687000D01*
X123880619Y-98639380D01*
X123975857Y-98639380D01*
X124118714Y-98687000D01*
X124166333Y-98734619D01*
X124547285Y-98734619D02*
X124594904Y-98687000D01*
X124690142Y-98639380D01*
X124928238Y-98639380D01*
X125023476Y-98687000D01*
X125071095Y-98734619D01*
X125118714Y-98829857D01*
X125118714Y-98925095D01*
X125071095Y-99067952D01*
X124499666Y-99639380D01*
X125118714Y-99639380D01*
%TO.C,C1*%
X110196333Y-101957142D02*
X110148714Y-102004761D01*
X110005857Y-102052380D01*
X109910619Y-102052380D01*
X109767761Y-102004761D01*
X109672523Y-101909523D01*
X109624904Y-101814285D01*
X109577285Y-101623809D01*
X109577285Y-101480952D01*
X109624904Y-101290476D01*
X109672523Y-101195238D01*
X109767761Y-101100000D01*
X109910619Y-101052380D01*
X110005857Y-101052380D01*
X110148714Y-101100000D01*
X110196333Y-101147619D01*
X111148714Y-102052380D02*
X110577285Y-102052380D01*
X110863000Y-102052380D02*
X110863000Y-101052380D01*
X110767761Y-101195238D01*
X110672523Y-101290476D01*
X110577285Y-101338095D01*
%TO.C,G\u002A\u002A\u002A*%
G36*
X112130721Y-106655516D02*
G01*
X112118296Y-106644789D01*
X112116577Y-106637117D01*
X112130610Y-106615220D01*
X112164733Y-106589202D01*
X112169530Y-106586387D01*
X112205384Y-106558461D01*
X112222195Y-106530549D01*
X112222372Y-106528144D01*
X112218873Y-106512292D01*
X112205038Y-106511794D01*
X112175861Y-106528952D01*
X112126335Y-106566070D01*
X112107126Y-106581153D01*
X112051298Y-106627891D01*
X111995099Y-106679327D01*
X111944912Y-106729060D01*
X111907117Y-106770686D01*
X111888094Y-106797805D01*
X111887000Y-106802020D01*
X111897731Y-106821526D01*
X111926001Y-106860247D01*
X111965926Y-106910984D01*
X112011621Y-106966539D01*
X112057202Y-107019715D01*
X112096784Y-107063314D01*
X112117697Y-107084211D01*
X112144346Y-107113043D01*
X112181595Y-107158306D01*
X112206182Y-107190118D01*
X112242725Y-107237306D01*
X112272894Y-107273866D01*
X112285311Y-107287199D01*
X112308239Y-107315785D01*
X112342841Y-107367986D01*
X112384562Y-107436071D01*
X112428845Y-107512306D01*
X112471136Y-107588956D01*
X112506877Y-107658288D01*
X112519362Y-107684499D01*
X112555798Y-107766144D01*
X112583574Y-107836640D01*
X112603920Y-107903023D01*
X112618067Y-107972328D01*
X112627245Y-108051589D01*
X112632687Y-108147843D01*
X112635621Y-108268123D01*
X112636695Y-108355094D01*
X112640315Y-108716942D01*
X112618225Y-108134454D01*
X112610697Y-108849326D01*
X112555855Y-108849326D01*
X112518213Y-108845158D01*
X112509123Y-108830250D01*
X112511258Y-108822629D01*
X112521218Y-108780267D01*
X112530662Y-108711167D01*
X112539020Y-108623895D01*
X112545727Y-108527013D01*
X112550214Y-108429087D01*
X112551914Y-108338681D01*
X112550261Y-108264359D01*
X112549248Y-108249187D01*
X112531186Y-108089547D01*
X112502030Y-107949415D01*
X112457772Y-107814178D01*
X112394403Y-107669221D01*
X112384624Y-107649048D01*
X112337188Y-107554018D01*
X112294600Y-107474777D01*
X112252320Y-107405101D01*
X112205812Y-107338762D01*
X112150537Y-107269536D01*
X112081956Y-107191198D01*
X111995532Y-107097521D01*
X111938140Y-107036562D01*
X111876424Y-106972419D01*
X111831871Y-106931491D01*
X111797851Y-106910916D01*
X111767733Y-106907829D01*
X111734887Y-106919368D01*
X111704714Y-106935761D01*
X111634324Y-106969119D01*
X111584486Y-106977571D01*
X111556870Y-106961101D01*
X111551628Y-106936912D01*
X111567177Y-106888314D01*
X111605516Y-106850565D01*
X111650099Y-106836360D01*
X111661910Y-106827617D01*
X111648192Y-106805248D01*
X111613952Y-106773340D01*
X111564201Y-106735980D01*
X111503945Y-106697255D01*
X111438193Y-106661252D01*
X111431419Y-106657915D01*
X111371347Y-106629628D01*
X111334511Y-106616175D01*
X111312888Y-106615990D01*
X111298454Y-106627503D01*
X111295518Y-106631353D01*
X111269639Y-106654253D01*
X111244815Y-106660322D01*
X111233908Y-106646678D01*
X111223443Y-106625692D01*
X111197212Y-106589758D01*
X111185367Y-106575316D01*
X111154078Y-106544467D01*
X111114213Y-106519936D01*
X111071558Y-106503150D01*
X111428070Y-106503150D01*
X111443957Y-106524854D01*
X111491265Y-106561204D01*
X111569468Y-106611829D01*
X111651490Y-106660937D01*
X111714671Y-106696108D01*
X111755916Y-106713733D01*
X111782432Y-106716188D01*
X111797567Y-106709069D01*
X111825572Y-106687051D01*
X111870293Y-106651210D01*
X111912659Y-106616924D01*
X111967399Y-106571560D01*
X112017901Y-106528264D01*
X112045043Y-106503931D01*
X112074820Y-106477377D01*
X112125290Y-106433644D01*
X112175597Y-106390601D01*
X112340395Y-106390601D01*
X112418180Y-106399396D01*
X112493169Y-106416380D01*
X112578138Y-106448375D01*
X112659380Y-106489146D01*
X112723188Y-106532455D01*
X112735779Y-106543904D01*
X112772445Y-106573491D01*
X112803418Y-106587635D01*
X112804860Y-106587771D01*
X112832014Y-106579795D01*
X112879344Y-106557337D01*
X112937322Y-106524988D01*
X112946069Y-106519736D01*
X113013010Y-106479672D01*
X113078067Y-106441586D01*
X113126993Y-106413816D01*
X113167674Y-106388304D01*
X113191012Y-106367549D01*
X113193185Y-106362583D01*
X113176891Y-106354666D01*
X113133323Y-106346108D01*
X113070450Y-106338308D01*
X113038737Y-106335478D01*
X112917185Y-106322847D01*
X112804675Y-106305526D01*
X112708176Y-106284944D01*
X112634659Y-106262533D01*
X112598214Y-106245008D01*
X112570972Y-106230873D01*
X112544660Y-106229666D01*
X112512612Y-106244354D01*
X112468161Y-106277903D01*
X112409354Y-106329075D01*
X112340395Y-106390601D01*
X112175597Y-106390601D01*
X112190077Y-106378212D01*
X112262800Y-106316558D01*
X112284151Y-106298561D01*
X112398441Y-106199925D01*
X112490155Y-106114773D01*
X112565817Y-106036603D01*
X112631953Y-105958913D01*
X112656352Y-105927628D01*
X112699359Y-105871242D01*
X112632964Y-105827126D01*
X112565825Y-105777291D01*
X112499306Y-105719044D01*
X112440303Y-105659406D01*
X112395714Y-105605398D01*
X112372434Y-105564040D01*
X112371585Y-105561039D01*
X112370397Y-105517852D01*
X112379880Y-105443840D01*
X112399629Y-105341701D01*
X112414430Y-105275755D01*
X112434561Y-105188136D01*
X112451391Y-105112338D01*
X112463433Y-105055253D01*
X112469200Y-105023774D01*
X112469488Y-105020573D01*
X112458288Y-105002049D01*
X112424780Y-105010710D01*
X112369099Y-105046491D01*
X112302806Y-105099562D01*
X112236274Y-105159751D01*
X112198565Y-105203662D01*
X112188378Y-105233426D01*
X112204413Y-105251172D01*
X112209133Y-105252974D01*
X112219108Y-105266874D01*
X112225201Y-105303242D01*
X112227758Y-105366228D01*
X112227125Y-105459981D01*
X112226980Y-105467325D01*
X112225580Y-105554920D01*
X112226067Y-105612180D01*
X112229082Y-105644049D01*
X112235269Y-105655471D01*
X112245271Y-105651393D01*
X112250305Y-105646708D01*
X112288524Y-105623319D01*
X112325284Y-105622690D01*
X112348452Y-105644414D01*
X112350113Y-105650055D01*
X112350872Y-105686359D01*
X112334207Y-105722864D01*
X112296432Y-105763753D01*
X112233860Y-105813210D01*
X112163665Y-105861625D01*
X111880169Y-106067789D01*
X111686729Y-106233095D01*
X111616582Y-106299077D01*
X111551153Y-106363380D01*
X111495207Y-106421034D01*
X111453506Y-106467064D01*
X111430814Y-106496498D01*
X111428070Y-106503150D01*
X111071558Y-106503150D01*
X111056924Y-106497391D01*
X110977966Y-106473775D01*
X110756089Y-106425813D01*
X110538438Y-106407328D01*
X110320616Y-106418741D01*
X110098226Y-106460470D01*
X109866873Y-106532933D01*
X109715909Y-106593956D01*
X109642907Y-106626605D01*
X109580344Y-106656076D01*
X109536494Y-106678392D01*
X109521746Y-106687326D01*
X109492047Y-106706990D01*
X109443897Y-106735984D01*
X109407014Y-106757137D01*
X109266127Y-106845390D01*
X109122070Y-106952044D01*
X108981939Y-107070687D01*
X108852829Y-107194909D01*
X108741836Y-107318299D01*
X108656054Y-107434446D01*
X108654274Y-107437234D01*
X108607578Y-107521615D01*
X108561295Y-107623779D01*
X108521328Y-107729202D01*
X108493578Y-107823362D01*
X108489286Y-107843210D01*
X108471728Y-107966430D01*
X108461567Y-108110560D01*
X108459155Y-108261920D01*
X108464847Y-108406828D01*
X108472607Y-108487477D01*
X108495618Y-108645949D01*
X108524009Y-108783573D01*
X108561261Y-108911596D01*
X108610854Y-109041268D01*
X108676266Y-109183838D01*
X108707376Y-109246476D01*
X108771106Y-109367754D01*
X108824509Y-109458100D01*
X108869178Y-109519816D01*
X108906703Y-109555200D01*
X108928039Y-109565174D01*
X108966348Y-109592270D01*
X108991465Y-109639382D01*
X109031626Y-109723939D01*
X109090771Y-109803049D01*
X109173131Y-109881016D01*
X109282936Y-109962140D01*
X109354061Y-110008108D01*
X109495508Y-110081841D01*
X109666736Y-110144989D01*
X109869775Y-110198284D01*
X109901246Y-110205084D01*
X109977762Y-110220468D01*
X110045955Y-110231920D01*
X110113372Y-110240020D01*
X110187560Y-110245344D01*
X110276065Y-110248473D01*
X110386434Y-110249985D01*
X110492559Y-110250413D01*
X110618887Y-110250450D01*
X110716069Y-110249693D01*
X110790261Y-110247592D01*
X110847618Y-110243599D01*
X110894297Y-110237162D01*
X110936452Y-110227733D01*
X110980240Y-110214762D01*
X111013268Y-110203912D01*
X111131761Y-110157001D01*
X111246026Y-110095058D01*
X111352795Y-110023127D01*
X111379622Y-110017644D01*
X111400160Y-110036365D01*
X111423087Y-110059414D01*
X111450683Y-110064755D01*
X111492028Y-110051939D01*
X111538686Y-110029550D01*
X111624029Y-109978605D01*
X111724647Y-109906672D01*
X111833242Y-109819909D01*
X111942514Y-109724468D01*
X112045164Y-109626506D01*
X112133895Y-109532176D01*
X112148314Y-109515483D01*
X112206397Y-109442041D01*
X112267810Y-109356413D01*
X112318021Y-109279110D01*
X112394100Y-109152882D01*
X112352364Y-109133866D01*
X112316769Y-109107626D01*
X112314589Y-109080717D01*
X112344504Y-109058762D01*
X112371778Y-109051267D01*
X112423474Y-109036347D01*
X112454965Y-109009355D01*
X112475896Y-108960359D01*
X112482152Y-108937581D01*
X112498152Y-108894666D01*
X112524256Y-108875547D01*
X112554348Y-108870271D01*
X112591032Y-108870038D01*
X112607857Y-108883124D01*
X112607374Y-108916226D01*
X112593217Y-108972288D01*
X112584671Y-109026562D01*
X112593217Y-109050719D01*
X112605367Y-109079338D01*
X112610687Y-109124484D01*
X112610697Y-109126449D01*
X112606171Y-109167575D01*
X112588887Y-109183382D01*
X112575673Y-109184697D01*
X112530208Y-109200566D01*
X112478349Y-109244768D01*
X112425011Y-109312194D01*
X112380238Y-109387686D01*
X112325322Y-109493593D01*
X112459869Y-109502418D01*
X112542103Y-109510885D01*
X112592165Y-109523717D01*
X112611111Y-109537720D01*
X112624584Y-109554259D01*
X112628073Y-109539673D01*
X112628078Y-109539287D01*
X112645145Y-109531486D01*
X112693583Y-109525895D01*
X112769538Y-109522385D01*
X112869156Y-109520829D01*
X112988583Y-109521097D01*
X113123965Y-109523063D01*
X113271449Y-109526597D01*
X113427179Y-109531573D01*
X113587303Y-109537862D01*
X113747965Y-109545336D01*
X113905314Y-109553868D01*
X114055493Y-109563328D01*
X114194650Y-109573589D01*
X114318931Y-109584523D01*
X114424481Y-109596002D01*
X114455242Y-109599983D01*
X114625947Y-109626010D01*
X114766994Y-109654528D01*
X114884023Y-109687687D01*
X114982678Y-109727635D01*
X115068599Y-109776521D01*
X115147428Y-109836493D01*
X115197982Y-109882872D01*
X115281925Y-109979103D01*
X115331793Y-110070743D01*
X115347508Y-110157052D01*
X115328993Y-110237286D01*
X115276168Y-110310703D01*
X115245669Y-110337791D01*
X115206279Y-110370990D01*
X115179669Y-110395592D01*
X115144431Y-110419628D01*
X115084079Y-110449825D01*
X115007418Y-110482559D01*
X114923252Y-110514202D01*
X114840385Y-110541130D01*
X114798115Y-110552726D01*
X114734873Y-110567175D01*
X114648427Y-110584982D01*
X114550418Y-110603831D01*
X114457587Y-110620523D01*
X114231276Y-110659631D01*
X114435928Y-110745744D01*
X114513397Y-110779241D01*
X114577418Y-110808635D01*
X114621806Y-110830962D01*
X114640378Y-110843255D01*
X114640579Y-110843874D01*
X114654734Y-110859236D01*
X114683331Y-110875369D01*
X114729924Y-110901192D01*
X114758348Y-110921239D01*
X114788061Y-110945337D01*
X114835223Y-110983373D01*
X114889739Y-111027205D01*
X114890890Y-111028129D01*
X114947834Y-111077411D01*
X114998815Y-111127666D01*
X115031249Y-111166017D01*
X115059526Y-111204821D01*
X115079721Y-111229561D01*
X115082529Y-111232230D01*
X115098169Y-111258003D01*
X115114988Y-111304343D01*
X115128639Y-111356954D01*
X115134775Y-111401537D01*
X115134811Y-111404238D01*
X115117879Y-111467454D01*
X115069958Y-111527263D01*
X114995359Y-111579941D01*
X114898393Y-111621764D01*
X114874457Y-111629147D01*
X114843585Y-111645067D01*
X114834742Y-111659442D01*
X114846540Y-111678809D01*
X114878561Y-111717055D01*
X114925744Y-111768425D01*
X114976112Y-111820240D01*
X115056558Y-111907076D01*
X115110887Y-111982561D01*
X115142693Y-112054410D01*
X115155569Y-112130339D01*
X115154375Y-112203044D01*
X115136042Y-112248117D01*
X115091371Y-112300745D01*
X115026911Y-112355657D01*
X114949214Y-112407580D01*
X114864830Y-112451244D01*
X114826814Y-112466649D01*
X114671698Y-112517851D01*
X114505462Y-112560826D01*
X114322149Y-112596735D01*
X114115805Y-112626740D01*
X113880475Y-112652003D01*
X113872754Y-112652714D01*
X113713091Y-112666630D01*
X113556791Y-112678655D01*
X113400063Y-112688905D01*
X113239117Y-112697492D01*
X113070161Y-112704531D01*
X112889405Y-112710135D01*
X112693057Y-112714419D01*
X112477327Y-112717495D01*
X112238423Y-112719479D01*
X111972555Y-112720483D01*
X111675931Y-112720621D01*
X111613407Y-112720556D01*
X111335195Y-112719937D01*
X111090124Y-112718769D01*
X110876036Y-112716969D01*
X110690771Y-112714456D01*
X110532172Y-112711147D01*
X110398080Y-112706962D01*
X110286337Y-112701817D01*
X110194785Y-112695632D01*
X110121265Y-112688324D01*
X110063618Y-112679812D01*
X110019687Y-112670013D01*
X109987378Y-112658874D01*
X109904132Y-112617036D01*
X109810400Y-112560678D01*
X109712630Y-112494679D01*
X109617266Y-112423918D01*
X109530753Y-112353277D01*
X109459538Y-112287633D01*
X109410066Y-112231867D01*
X109396932Y-112211869D01*
X109367862Y-112162612D01*
X109341953Y-112123532D01*
X109335176Y-112114788D01*
X109309995Y-112076743D01*
X109277159Y-112015883D01*
X109241563Y-111942392D01*
X109208099Y-111866453D01*
X109181661Y-111798247D01*
X109178247Y-111788242D01*
X109157298Y-111701264D01*
X109143247Y-111594438D01*
X109136820Y-111481022D01*
X109138743Y-111374273D01*
X109149741Y-111287447D01*
X109150615Y-111283551D01*
X109168199Y-111222689D01*
X109194873Y-111147940D01*
X109226819Y-111068257D01*
X109260218Y-110992590D01*
X109291249Y-110929893D01*
X109316095Y-110889118D01*
X109321662Y-110882607D01*
X109344727Y-110855124D01*
X109378325Y-110810189D01*
X109401355Y-110777524D01*
X109451980Y-110710389D01*
X109511145Y-110641943D01*
X109573689Y-110577007D01*
X109634449Y-110520400D01*
X109688264Y-110476944D01*
X109729971Y-110451458D01*
X109753846Y-110448383D01*
X109768924Y-110475456D01*
X109753699Y-110519527D01*
X109708053Y-110580847D01*
X109676194Y-110615557D01*
X109526658Y-110783302D01*
X109409545Y-110942759D01*
X109323774Y-111096767D01*
X109268265Y-111248162D01*
X109241937Y-111399784D01*
X109243710Y-111554470D01*
X109266662Y-111691160D01*
X109283107Y-111747168D01*
X109308196Y-111816009D01*
X109338609Y-111890348D01*
X109371028Y-111962850D01*
X109402134Y-112026178D01*
X109428610Y-112072998D01*
X109447136Y-112095973D01*
X109450321Y-112097137D01*
X109464969Y-112111691D01*
X109486046Y-112148200D01*
X109494069Y-112165078D01*
X109529214Y-112215985D01*
X109590780Y-112277041D01*
X109672999Y-112343892D01*
X109770107Y-112412185D01*
X109876338Y-112477566D01*
X109983152Y-112534335D01*
X110020314Y-112549933D01*
X110065043Y-112563389D01*
X110120205Y-112574908D01*
X110188667Y-112584693D01*
X110273295Y-112592948D01*
X110376957Y-112599875D01*
X110502519Y-112605680D01*
X110652849Y-112610565D01*
X110830812Y-112614735D01*
X111039277Y-112618392D01*
X111198605Y-112620673D01*
X111470013Y-112623053D01*
X111749210Y-112623172D01*
X112032040Y-112621154D01*
X112314351Y-112617124D01*
X112591987Y-112611206D01*
X112860795Y-112603525D01*
X113116620Y-112594206D01*
X113355308Y-112583373D01*
X113572704Y-112571150D01*
X113764654Y-112557662D01*
X113927005Y-112543033D01*
X113978661Y-112537365D01*
X114117222Y-112518416D01*
X114264709Y-112493317D01*
X114413679Y-112463744D01*
X114556690Y-112431372D01*
X114686300Y-112397877D01*
X114795067Y-112364934D01*
X114870044Y-112336678D01*
X114957003Y-112284114D01*
X115011627Y-112218312D01*
X115033230Y-112141483D01*
X115021128Y-112055839D01*
X114982101Y-111975015D01*
X114934981Y-111916985D01*
X114866116Y-111852267D01*
X114785686Y-111789239D01*
X114703872Y-111736283D01*
X114670702Y-111718648D01*
X114626050Y-111699043D01*
X114579336Y-111684542D01*
X114522517Y-111673655D01*
X114447551Y-111664892D01*
X114346398Y-111656762D01*
X114330730Y-111655662D01*
X114165682Y-111643025D01*
X114011752Y-111628962D01*
X113872932Y-111613988D01*
X113753216Y-111598617D01*
X113656596Y-111583365D01*
X113587065Y-111568746D01*
X113548616Y-111555275D01*
X113547642Y-111554679D01*
X113504948Y-111527583D01*
X113556467Y-111499052D01*
X113601329Y-111485400D01*
X113674721Y-111475864D01*
X113770122Y-111470349D01*
X113881012Y-111468760D01*
X114000869Y-111471005D01*
X114123175Y-111476989D01*
X114241407Y-111486618D01*
X114349045Y-111499798D01*
X114416423Y-111511454D01*
X114555422Y-111535885D01*
X114668865Y-111546894D01*
X114763864Y-111544435D01*
X114847532Y-111528463D01*
X114905297Y-111508345D01*
X114978339Y-111468163D01*
X115018388Y-111420511D01*
X115025491Y-111364087D01*
X114999693Y-111297590D01*
X114941043Y-111219718D01*
X114916598Y-111193479D01*
X114809848Y-111092764D01*
X114696666Y-111006866D01*
X114568089Y-110929883D01*
X114415156Y-110855915D01*
X114381650Y-110841305D01*
X114208126Y-110766743D01*
X113855103Y-110753839D01*
X113747487Y-110749843D01*
X113652659Y-110746203D01*
X113575984Y-110743135D01*
X113522832Y-110740855D01*
X113498569Y-110739578D01*
X113497667Y-110739466D01*
X113493637Y-110723668D01*
X113493254Y-110713663D01*
X113496428Y-110698938D01*
X113508134Y-110685719D01*
X113531645Y-110673257D01*
X113570239Y-110660799D01*
X113627189Y-110647595D01*
X113705771Y-110632894D01*
X113809260Y-110615945D01*
X113940932Y-110595997D01*
X114104061Y-110572298D01*
X114119204Y-110570126D01*
X114330249Y-110538126D01*
X114510283Y-110506742D01*
X114663555Y-110474905D01*
X114794315Y-110441541D01*
X114906814Y-110405581D01*
X115005302Y-110365953D01*
X115084473Y-110326807D01*
X115167373Y-110269049D01*
X115215675Y-110204613D01*
X115229289Y-110134255D01*
X115208128Y-110058729D01*
X115152103Y-109978792D01*
X115128030Y-109953616D01*
X115074191Y-109906493D01*
X115012055Y-109864297D01*
X114939466Y-109826695D01*
X114854263Y-109793354D01*
X114754290Y-109763941D01*
X114637388Y-109738123D01*
X114501398Y-109715568D01*
X114344162Y-109695942D01*
X114163523Y-109678913D01*
X113957320Y-109664147D01*
X113723398Y-109651311D01*
X113459596Y-109640074D01*
X113163757Y-109630101D01*
X113000187Y-109625404D01*
X112846675Y-109621008D01*
X112704189Y-109616536D01*
X112576593Y-109612138D01*
X112467749Y-109607965D01*
X112381521Y-109604168D01*
X112321773Y-109600897D01*
X112292367Y-109598304D01*
X112290093Y-109597718D01*
X112264922Y-109599173D01*
X112225851Y-109616082D01*
X112186663Y-109641991D01*
X112176660Y-109650828D01*
X112155505Y-109670433D01*
X112114859Y-109707467D01*
X112061500Y-109755772D01*
X112026261Y-109787546D01*
X111964054Y-109843690D01*
X111906127Y-109896203D01*
X111861261Y-109937116D01*
X111846376Y-109950819D01*
X111810498Y-109980544D01*
X111784387Y-109996021D01*
X111781093Y-109996650D01*
X111758711Y-110007648D01*
X111724379Y-110034648D01*
X111718548Y-110039942D01*
X111663114Y-110080918D01*
X111583266Y-110126744D01*
X111488654Y-110173009D01*
X111388932Y-110215299D01*
X111293748Y-110249203D01*
X111216016Y-110269684D01*
X111140696Y-110285041D01*
X111045721Y-110305324D01*
X110945795Y-110327362D01*
X110889710Y-110340077D01*
X110796824Y-110358917D01*
X110702606Y-110373851D01*
X110620438Y-110382948D01*
X110579804Y-110384816D01*
X110502919Y-110381873D01*
X110399678Y-110373578D01*
X110278437Y-110360984D01*
X110147557Y-110345142D01*
X110015396Y-110327107D01*
X109890312Y-110307930D01*
X109780666Y-110288663D01*
X109723317Y-110276962D01*
X109554327Y-110239797D01*
X109527882Y-110277552D01*
X109500004Y-110313151D01*
X109459938Y-110359718D01*
X109440597Y-110381031D01*
X109391666Y-110437154D01*
X109334851Y-110507275D01*
X109276687Y-110582767D01*
X109223710Y-110655001D01*
X109182452Y-110715351D01*
X109163553Y-110746824D01*
X109138994Y-110801654D01*
X109108335Y-110882940D01*
X109073999Y-110982882D01*
X109038408Y-111093679D01*
X109003987Y-111207529D01*
X108973157Y-111316632D01*
X108948343Y-111413186D01*
X108931967Y-111489391D01*
X108930788Y-111496179D01*
X108898804Y-111741201D01*
X108889786Y-111959539D01*
X108903730Y-112151320D01*
X108912722Y-112205440D01*
X108971880Y-112434054D01*
X109057472Y-112639844D01*
X109169166Y-112822337D01*
X109306627Y-112981061D01*
X109469521Y-113115546D01*
X109622171Y-113207577D01*
X109706660Y-113248793D01*
X109788253Y-113281946D01*
X109877538Y-113310616D01*
X109985108Y-113338380D01*
X110059622Y-113355384D01*
X110105313Y-113365142D01*
X110148147Y-113373102D01*
X110192171Y-113379425D01*
X110241437Y-113384273D01*
X110299991Y-113387808D01*
X110371884Y-113390191D01*
X110461164Y-113391584D01*
X110571880Y-113392147D01*
X110708082Y-113392043D01*
X110873818Y-113391434D01*
X110954044Y-113391062D01*
X111173431Y-113389795D01*
X111368346Y-113387976D01*
X111543317Y-113385231D01*
X111702873Y-113381186D01*
X111851543Y-113375466D01*
X111993856Y-113367697D01*
X112134341Y-113357503D01*
X112277525Y-113344511D01*
X112427939Y-113328346D01*
X112590111Y-113308634D01*
X112768570Y-113284999D01*
X112967844Y-113257069D01*
X113192462Y-113224467D01*
X113446954Y-113186821D01*
X113475603Y-113182558D01*
X113641556Y-113158042D01*
X113813221Y-113133010D01*
X113983366Y-113108495D01*
X114144758Y-113085529D01*
X114290164Y-113065143D01*
X114412350Y-113048370D01*
X114472893Y-113040287D01*
X114597953Y-113022458D01*
X114727080Y-113001617D01*
X114850155Y-112979563D01*
X114957057Y-112958098D01*
X115028904Y-112941337D01*
X115129708Y-112915331D01*
X115248958Y-112884717D01*
X115370873Y-112853538D01*
X115467836Y-112828845D01*
X115573438Y-112799646D01*
X115670978Y-112768291D01*
X115751103Y-112737985D01*
X115798052Y-112715714D01*
X115846574Y-112686394D01*
X115908331Y-112646368D01*
X115976006Y-112600724D01*
X116042282Y-112554549D01*
X116099842Y-112512929D01*
X116141367Y-112480952D01*
X116158708Y-112464998D01*
X116176894Y-112447710D01*
X116212686Y-112417557D01*
X116233008Y-112401180D01*
X116329696Y-112309361D01*
X116427555Y-112186295D01*
X116527403Y-112030800D01*
X116630056Y-111841693D01*
X116656636Y-111788242D01*
X116722398Y-111649218D01*
X116771927Y-111532920D01*
X116807816Y-111432211D01*
X116832659Y-111339952D01*
X116846691Y-111265051D01*
X116856006Y-111181717D01*
X116862497Y-111077923D01*
X116866010Y-110964353D01*
X116866392Y-110851693D01*
X116863487Y-110750625D01*
X116857141Y-110671834D01*
X116855431Y-110659595D01*
X116823546Y-110547976D01*
X116763202Y-110426866D01*
X116678465Y-110300501D01*
X116573403Y-110173115D01*
X116452080Y-110048945D01*
X116318562Y-109932225D01*
X116176917Y-109827191D01*
X116031209Y-109738078D01*
X115917152Y-109682260D01*
X115796482Y-109633317D01*
X115671896Y-109589640D01*
X115539582Y-109550469D01*
X115395729Y-109515046D01*
X115236526Y-109482611D01*
X115058163Y-109452404D01*
X114856828Y-109423665D01*
X114628710Y-109395634D01*
X114369999Y-109367553D01*
X114305207Y-109360951D01*
X114175028Y-109347450D01*
X114021618Y-109330932D01*
X113856779Y-109312707D01*
X113692318Y-109294082D01*
X113540038Y-109276366D01*
X113510906Y-109272906D01*
X113374989Y-109256919D01*
X113235889Y-109240945D01*
X113102237Y-109225948D01*
X112982666Y-109212891D01*
X112885807Y-109202739D01*
X112853400Y-109199517D01*
X112628348Y-109177690D01*
X112628348Y-109119206D01*
X112630376Y-109081383D01*
X112643345Y-109066803D01*
X112677581Y-109067812D01*
X112694540Y-109070152D01*
X112742489Y-109076425D01*
X112823012Y-109086269D01*
X112933593Y-109099393D01*
X113071716Y-109115509D01*
X113234865Y-109134328D01*
X113420524Y-109155559D01*
X113626176Y-109178914D01*
X113849305Y-109204103D01*
X114087395Y-109230836D01*
X114231965Y-109247003D01*
X114392339Y-109265004D01*
X114546458Y-109282478D01*
X114689715Y-109298889D01*
X114817498Y-109313702D01*
X114925199Y-109326382D01*
X115008209Y-109336394D01*
X115061918Y-109343201D01*
X115070394Y-109344364D01*
X115224162Y-109369237D01*
X115382996Y-109400539D01*
X115537156Y-109436008D01*
X115676907Y-109473381D01*
X115792510Y-109510395D01*
X115805555Y-109515173D01*
X115888376Y-109548116D01*
X115972945Y-109585194D01*
X116051763Y-109622739D01*
X116117331Y-109657083D01*
X116162151Y-109684557D01*
X116176229Y-109696529D01*
X116195125Y-109712424D01*
X116231826Y-109739501D01*
X116246833Y-109750066D01*
X116329207Y-109812855D01*
X116424576Y-109894275D01*
X116524562Y-109986358D01*
X116620786Y-110081139D01*
X116704871Y-110170650D01*
X116766043Y-110243766D01*
X116841842Y-110349629D01*
X116897337Y-110445405D01*
X116935326Y-110540073D01*
X116958606Y-110642613D01*
X116969975Y-110762008D01*
X116972244Y-110905684D01*
X116966886Y-111092277D01*
X116954272Y-111254016D01*
X116934760Y-111387849D01*
X116908707Y-111490720D01*
X116901262Y-111511121D01*
X116839776Y-111656350D01*
X116770086Y-111803050D01*
X116695077Y-111946452D01*
X116617636Y-112081787D01*
X116540649Y-112204286D01*
X116467002Y-112309180D01*
X116399582Y-112391699D01*
X116341275Y-112447075D01*
X116329939Y-112455153D01*
X116289103Y-112486270D01*
X116246833Y-112523965D01*
X116201922Y-112563221D01*
X116148984Y-112603637D01*
X116140926Y-112609243D01*
X116100572Y-112637807D01*
X116074128Y-112658365D01*
X116070322Y-112662037D01*
X116046324Y-112681910D01*
X116000675Y-112713358D01*
X115942471Y-112750614D01*
X115880813Y-112787914D01*
X115824798Y-112819491D01*
X115808184Y-112828138D01*
X115767345Y-112847571D01*
X115722975Y-112865779D01*
X115670114Y-112884258D01*
X115603802Y-112904503D01*
X115519080Y-112928009D01*
X115410987Y-112956273D01*
X115274565Y-112990791D01*
X115240718Y-112999257D01*
X115142284Y-113023820D01*
X115059707Y-113044127D01*
X114987820Y-113061097D01*
X114921452Y-113075648D01*
X114855435Y-113088700D01*
X114784599Y-113101171D01*
X114703776Y-113113980D01*
X114607795Y-113128046D01*
X114491489Y-113144287D01*
X114349688Y-113163622D01*
X114208126Y-113182786D01*
X114042538Y-113205341D01*
X113865005Y-113229777D01*
X113684661Y-113254818D01*
X113510642Y-113279190D01*
X113352080Y-113301619D01*
X113218111Y-113320830D01*
X113202010Y-113323165D01*
X112866257Y-113370651D01*
X112564535Y-113410597D01*
X112296399Y-113443057D01*
X112061403Y-113468084D01*
X111859103Y-113485729D01*
X111772268Y-113491667D01*
X111696312Y-113495191D01*
X111594545Y-113498264D01*
X111472209Y-113500864D01*
X111334548Y-113502972D01*
X111186803Y-113504566D01*
X111034219Y-113505625D01*
X110882037Y-113506130D01*
X110735500Y-113506058D01*
X110599852Y-113505391D01*
X110480335Y-113504106D01*
X110382192Y-113502184D01*
X110310666Y-113499603D01*
X110280746Y-113497545D01*
X110048483Y-113463402D01*
X109833571Y-113408713D01*
X109640886Y-113334976D01*
X109495270Y-113256584D01*
X109345830Y-113154438D01*
X109221136Y-113049950D01*
X109116600Y-112937059D01*
X109027632Y-112809704D01*
X108949645Y-112661825D01*
X108878050Y-112487361D01*
X108847518Y-112400989D01*
X108825898Y-112336102D01*
X108810443Y-112283311D01*
X108800150Y-112234483D01*
X108794016Y-112181484D01*
X108791037Y-112116180D01*
X108790211Y-112030436D01*
X108790439Y-111938276D01*
X108793435Y-111780436D01*
X108802024Y-111639570D01*
X108817721Y-111507568D01*
X108842042Y-111376320D01*
X108876502Y-111237717D01*
X108922617Y-111083648D01*
X108981903Y-110906005D01*
X108985067Y-110896859D01*
X109021250Y-110799789D01*
X109058336Y-110719927D01*
X109103700Y-110643516D01*
X109164719Y-110556797D01*
X109174345Y-110543836D01*
X109224021Y-110477601D01*
X109266119Y-110422146D01*
X109296115Y-110383386D01*
X109309377Y-110367324D01*
X109345319Y-110328865D01*
X109380322Y-110281313D01*
X109406453Y-110236553D01*
X109415840Y-110207854D01*
X109399436Y-110176445D01*
X109352692Y-110139252D01*
X109331997Y-110126751D01*
X109253386Y-110077278D01*
X109170146Y-110015049D01*
X109075040Y-109934444D01*
X109018689Y-109883583D01*
X108973150Y-109842984D01*
X108938310Y-109814092D01*
X108921652Y-109803108D01*
X108921607Y-109803110D01*
X108907168Y-109816342D01*
X108878821Y-109850139D01*
X108851003Y-109886204D01*
X108768000Y-109985248D01*
X108688708Y-110056371D01*
X108634776Y-110088921D01*
X108600665Y-110107203D01*
X108586511Y-110120054D01*
X108586511Y-110120104D01*
X108597377Y-110137083D01*
X108625295Y-110172067D01*
X108656389Y-110208464D01*
X108703155Y-110268684D01*
X108746115Y-110335988D01*
X108780997Y-110402096D01*
X108803527Y-110458724D01*
X108809434Y-110497589D01*
X108808171Y-110502696D01*
X108794704Y-110516989D01*
X108763611Y-110523666D01*
X108707590Y-110523844D01*
X108678902Y-110522476D01*
X108608471Y-110516916D01*
X108516768Y-110507277D01*
X108411172Y-110494589D01*
X108299063Y-110479879D01*
X108187819Y-110464176D01*
X108084818Y-110448508D01*
X107997440Y-110433903D01*
X107933063Y-110421390D01*
X107907353Y-110414957D01*
X107860578Y-110396537D01*
X107836188Y-110369905D01*
X107822006Y-110323196D01*
X107820692Y-110310725D01*
X107915492Y-110310725D01*
X108069940Y-110332257D01*
X108162932Y-110346138D01*
X108270379Y-110363548D01*
X108372099Y-110381191D01*
X108392073Y-110384845D01*
X108507860Y-110404718D01*
X108591647Y-110415358D01*
X108645472Y-110416890D01*
X108671374Y-110409441D01*
X108674491Y-110402433D01*
X108662959Y-110383098D01*
X108631738Y-110344580D01*
X108585897Y-110292867D01*
X108542108Y-110246024D01*
X108488039Y-110187109D01*
X108444634Y-110135391D01*
X108417015Y-110097258D01*
X108409724Y-110080981D01*
X108425774Y-110059330D01*
X108469604Y-110033362D01*
X108508961Y-110016527D01*
X108634615Y-109952853D01*
X108734239Y-109868804D01*
X108791078Y-109792090D01*
X108836594Y-109714424D01*
X108798986Y-109636737D01*
X108765456Y-109577482D01*
X108726906Y-109522898D01*
X108714912Y-109508912D01*
X108668446Y-109458774D01*
X108652189Y-109507545D01*
X108621152Y-109553411D01*
X108568832Y-109590548D01*
X108523643Y-109619409D01*
X108465114Y-109664637D01*
X108404585Y-109717357D01*
X108393949Y-109727342D01*
X108340997Y-109779011D01*
X108308987Y-109815985D01*
X108292680Y-109847251D01*
X108286836Y-109881794D01*
X108286166Y-109912236D01*
X108282803Y-109963272D01*
X108274286Y-109998021D01*
X108269120Y-110005102D01*
X108245920Y-110003262D01*
X108204428Y-109989003D01*
X108156812Y-109967748D01*
X108115239Y-109944923D01*
X108092004Y-109926137D01*
X108069154Y-109907420D01*
X108030898Y-109886514D01*
X107990383Y-109869397D01*
X107960759Y-109862047D01*
X107954419Y-109863584D01*
X107946389Y-109887170D01*
X107937759Y-109937274D01*
X107929486Y-110005148D01*
X107922527Y-110082041D01*
X107917839Y-110159205D01*
X107916398Y-110211054D01*
X107915492Y-110310725D01*
X107820692Y-110310725D01*
X107817448Y-110279943D01*
X107815472Y-110210668D01*
X107815800Y-110124540D01*
X107818151Y-110030722D01*
X107822249Y-109938381D01*
X107827813Y-109856684D01*
X107834566Y-109794794D01*
X107838757Y-109772231D01*
X107856951Y-109737255D01*
X107891288Y-109724494D01*
X107945523Y-109733864D01*
X108023409Y-109765282D01*
X108029186Y-109767994D01*
X108145947Y-109823161D01*
X108256512Y-109720156D01*
X108309107Y-109670483D01*
X108338484Y-109639651D01*
X108347565Y-109622775D01*
X108339271Y-109614970D01*
X108321281Y-109611879D01*
X108284478Y-109612273D01*
X108222992Y-109617639D01*
X108146931Y-109626975D01*
X108099901Y-109633848D01*
X107920980Y-109660268D01*
X107774571Y-109678883D01*
X107658793Y-109689857D01*
X107571767Y-109693357D01*
X107511614Y-109689548D01*
X107497572Y-109686772D01*
X107456692Y-109674528D01*
X107436070Y-109656825D01*
X107427566Y-109622396D01*
X107424692Y-109585933D01*
X107429202Y-109503034D01*
X107449829Y-109397051D01*
X107483941Y-109274811D01*
X107528904Y-109143141D01*
X107582085Y-109008869D01*
X107640853Y-108878821D01*
X107702573Y-108759824D01*
X107764613Y-108658706D01*
X107801615Y-108608565D01*
X107846415Y-108553142D01*
X107673553Y-108427257D01*
X107595646Y-108370401D01*
X107537727Y-108327551D01*
X107491205Y-108291984D01*
X107447487Y-108256981D01*
X107397984Y-108215821D01*
X107334104Y-108161784D01*
X107333098Y-108160931D01*
X107232786Y-108070699D01*
X107147333Y-107983622D01*
X107079627Y-107903377D01*
X107032556Y-107833644D01*
X107009007Y-107778102D01*
X107008790Y-107759459D01*
X107115015Y-107759459D01*
X107123994Y-107796309D01*
X107159256Y-107848549D01*
X107215335Y-107914301D01*
X107284991Y-107985650D01*
X107358086Y-108052214D01*
X107411714Y-108097922D01*
X107456542Y-108135536D01*
X107498059Y-108169264D01*
X107541752Y-108203312D01*
X107593111Y-108241888D01*
X107657624Y-108289199D01*
X107740780Y-108349451D01*
X107827236Y-108411833D01*
X107891982Y-108460533D01*
X107964318Y-108518172D01*
X108038368Y-108579678D01*
X108108256Y-108639976D01*
X108168104Y-108693993D01*
X108212037Y-108736655D01*
X108234177Y-108762890D01*
X108234475Y-108763428D01*
X108243366Y-108804915D01*
X108221582Y-108833332D01*
X108172152Y-108846102D01*
X108137658Y-108845787D01*
X108091727Y-108840296D01*
X108070962Y-108827026D01*
X108065242Y-108797169D01*
X108064935Y-108782516D01*
X108055601Y-108734411D01*
X108023851Y-108691166D01*
X108003156Y-108672237D01*
X107963955Y-108640857D01*
X107935818Y-108622173D01*
X107929578Y-108619902D01*
X107909436Y-108635019D01*
X107877837Y-108676911D01*
X107838022Y-108740254D01*
X107793230Y-108819723D01*
X107746700Y-108909996D01*
X107722609Y-108960046D01*
X107649452Y-109125699D01*
X107592466Y-109275705D01*
X107553228Y-109405540D01*
X107534831Y-109498005D01*
X107522619Y-109590674D01*
X107611014Y-109590674D01*
X107665272Y-109587560D01*
X107742730Y-109579140D01*
X107831926Y-109566802D01*
X107900119Y-109555725D01*
X107997298Y-109539979D01*
X108097885Y-109525629D01*
X108187519Y-109514640D01*
X108233213Y-109510219D01*
X108306212Y-109502334D01*
X108372227Y-109491648D01*
X108417394Y-109480423D01*
X108418550Y-109480003D01*
X108474520Y-109454375D01*
X108531635Y-109420678D01*
X108579544Y-109385830D01*
X108607900Y-109356753D01*
X108610567Y-109351608D01*
X108607690Y-109325637D01*
X108592128Y-109276607D01*
X108566808Y-109213119D01*
X108552484Y-109180978D01*
X108497579Y-109051576D01*
X108453675Y-108923022D01*
X108419257Y-108788201D01*
X108392810Y-108639997D01*
X108372821Y-108471296D01*
X108357775Y-108274982D01*
X108357017Y-108262523D01*
X108350092Y-108161531D01*
X108342290Y-108071309D01*
X108334309Y-107998441D01*
X108326843Y-107949507D01*
X108322172Y-107932781D01*
X108291496Y-107904489D01*
X108231279Y-107873110D01*
X108147004Y-107839979D01*
X108044155Y-107806431D01*
X107928215Y-107773799D01*
X107804668Y-107743419D01*
X107678998Y-107716623D01*
X107556687Y-107694746D01*
X107443220Y-107679123D01*
X107344079Y-107671087D01*
X107264749Y-107671973D01*
X107254494Y-107673004D01*
X107180677Y-107690270D01*
X107133145Y-107720070D01*
X107115015Y-107759459D01*
X107008790Y-107759459D01*
X107008651Y-107747535D01*
X107050346Y-107670252D01*
X107117800Y-107610233D01*
X107203681Y-107572447D01*
X107283186Y-107561532D01*
X107387297Y-107566116D01*
X107513240Y-107580359D01*
X107653162Y-107602563D01*
X107799208Y-107631029D01*
X107943525Y-107664059D01*
X108078259Y-107699955D01*
X108195557Y-107737019D01*
X108287563Y-107773551D01*
X108306496Y-107782817D01*
X108348776Y-107801961D01*
X108374579Y-107801381D01*
X108391185Y-107776197D01*
X108405875Y-107721528D01*
X108407297Y-107715240D01*
X108456638Y-107565815D01*
X108538269Y-107414483D01*
X108653109Y-107259745D01*
X108756980Y-107145273D01*
X108906765Y-106999820D01*
X109054229Y-106875602D01*
X109209599Y-106765105D01*
X109383104Y-106660816D01*
X109505893Y-106595143D01*
X109679882Y-106509057D01*
X109833314Y-106441587D01*
X109973927Y-106390238D01*
X110109458Y-106352515D01*
X110247644Y-106325923D01*
X110396222Y-106307967D01*
X110396441Y-106307947D01*
X110528860Y-106299526D01*
X110648893Y-106301415D01*
X110766938Y-106314922D01*
X110893395Y-106341354D01*
X111038662Y-106382018D01*
X111075047Y-106393277D01*
X111295687Y-106462486D01*
X111343525Y-106428449D01*
X111392900Y-106385944D01*
X111430532Y-106339933D01*
X111451213Y-106298453D01*
X111449736Y-106269542D01*
X111447892Y-106267368D01*
X111433702Y-106236497D01*
X111428572Y-106195401D01*
X111537036Y-106195401D01*
X111540063Y-106218084D01*
X111542007Y-106219305D01*
X111559566Y-106208120D01*
X111594919Y-106178791D01*
X111640430Y-106137655D01*
X111640640Y-106137459D01*
X111694858Y-106083659D01*
X111723018Y-106048376D01*
X111724500Y-106032659D01*
X111699882Y-106037094D01*
X111667108Y-106036665D01*
X111647538Y-106009024D01*
X111641513Y-105959834D01*
X111649375Y-105894759D01*
X111660564Y-105856621D01*
X111891062Y-105856621D01*
X111891355Y-105901467D01*
X111897331Y-105918778D01*
X111897704Y-105918798D01*
X111919464Y-105908826D01*
X111959544Y-105883463D01*
X111997320Y-105856847D01*
X112049371Y-105814559D01*
X112077787Y-105782433D01*
X112080165Y-105763757D01*
X112067757Y-105760375D01*
X112048926Y-105747170D01*
X112033108Y-105726358D01*
X112022834Y-105699051D01*
X112022383Y-105659372D01*
X112032008Y-105598140D01*
X112037381Y-105571910D01*
X112051082Y-105492624D01*
X112060466Y-105410432D01*
X112063205Y-105356431D01*
X112063512Y-105261382D01*
X112024173Y-105312303D01*
X111991235Y-105353382D01*
X111963983Y-105384867D01*
X111962278Y-105386665D01*
X111926473Y-105436469D01*
X111909542Y-105497238D01*
X111907519Y-105570136D01*
X111907230Y-105637757D01*
X111902897Y-105720860D01*
X111896518Y-105791265D01*
X111891062Y-105856621D01*
X111660564Y-105856621D01*
X111671466Y-105819463D01*
X111684760Y-105786854D01*
X111707023Y-105733241D01*
X111720626Y-105693948D01*
X111722757Y-105678504D01*
X111705873Y-105683428D01*
X111673952Y-105704641D01*
X111670400Y-105707398D01*
X111630841Y-105756596D01*
X111597025Y-105834321D01*
X111571432Y-105933949D01*
X111561392Y-105998666D01*
X111552708Y-106066955D01*
X111543649Y-106133383D01*
X111540779Y-106153113D01*
X111537036Y-106195401D01*
X111428572Y-106195401D01*
X111428361Y-106193711D01*
X111432750Y-106135205D01*
X111444054Y-106056654D01*
X111460205Y-105968103D01*
X111479136Y-105879603D01*
X111498779Y-105801202D01*
X111517068Y-105742947D01*
X111524769Y-105725073D01*
X111546927Y-105693929D01*
X111590115Y-105643148D01*
X111649912Y-105577557D01*
X111721898Y-105501984D01*
X111801653Y-105421258D01*
X111815682Y-105407352D01*
X111944005Y-105283103D01*
X112066809Y-105169057D01*
X112181556Y-105067243D01*
X112285708Y-104979691D01*
X112376724Y-104908429D01*
X112452067Y-104855487D01*
X112509197Y-104822896D01*
X112545575Y-104812683D01*
X112554996Y-104816402D01*
X112562790Y-104843159D01*
X112565559Y-104896941D01*
X112563818Y-104969908D01*
X112558080Y-105054221D01*
X112548862Y-105142040D01*
X112536677Y-105225525D01*
X112523978Y-105288890D01*
X112507150Y-105366423D01*
X112494356Y-105438060D01*
X112487660Y-105491757D01*
X112487139Y-105504008D01*
X112488733Y-105531679D01*
X112496182Y-105556546D01*
X112513485Y-105583216D01*
X112544642Y-105616294D01*
X112593654Y-105660388D01*
X112664520Y-105720102D01*
X112701091Y-105750393D01*
X112773613Y-105815076D01*
X112816037Y-105865140D01*
X112829406Y-105902593D01*
X112814763Y-105929445D01*
X112798945Y-105938772D01*
X112772116Y-105959313D01*
X112737674Y-105996108D01*
X112702314Y-106040339D01*
X112672733Y-106083183D01*
X112655627Y-106115821D01*
X112655046Y-106128328D01*
X112670697Y-106122137D01*
X112698323Y-106096023D01*
X112703837Y-106089772D01*
X112739213Y-106057872D01*
X112771458Y-106042945D01*
X112773980Y-106042793D01*
X112808547Y-106050282D01*
X112865911Y-106070237D01*
X112937519Y-106098891D01*
X113014819Y-106132477D01*
X113089259Y-106167228D01*
X113152288Y-106199377D01*
X113195352Y-106225156D01*
X113204752Y-106232543D01*
X113236947Y-106259654D01*
X113257125Y-106272161D01*
X113257928Y-106272258D01*
X113274745Y-106260212D01*
X113309128Y-106228286D01*
X113354979Y-106182801D01*
X113406204Y-106130078D01*
X113456706Y-106076437D01*
X113500391Y-106028198D01*
X113531163Y-105991681D01*
X113539404Y-105980406D01*
X113556075Y-105944515D01*
X113556360Y-105921382D01*
X113531769Y-105906697D01*
X113479297Y-105890259D01*
X113406218Y-105873557D01*
X113319805Y-105858079D01*
X113227331Y-105845316D01*
X113146730Y-105837513D01*
X113070656Y-105830456D01*
X113003741Y-105821752D01*
X112957059Y-105812928D01*
X112947425Y-105810047D01*
X112918139Y-105796406D01*
X112919231Y-105781046D01*
X112934943Y-105764062D01*
X112955425Y-105749892D01*
X112987214Y-105741036D01*
X113037499Y-105736520D01*
X113113466Y-105735371D01*
X113145401Y-105735566D01*
X113278020Y-105743371D01*
X113401945Y-105763091D01*
X113511351Y-105792929D01*
X113600409Y-105831090D01*
X113663293Y-105875779D01*
X113684071Y-105901586D01*
X113697467Y-105934257D01*
X113689357Y-105966130D01*
X113677115Y-105986897D01*
X113644672Y-106031524D01*
X113615763Y-106064153D01*
X113579953Y-106102338D01*
X113560538Y-106125932D01*
X113537065Y-106151742D01*
X113493168Y-106195636D01*
X113434669Y-106252090D01*
X113367391Y-106315579D01*
X113297154Y-106380578D01*
X113229782Y-106441562D01*
X113201725Y-106466421D01*
X113146871Y-106511913D01*
X113088457Y-106556101D01*
X113034502Y-106593390D01*
X112993026Y-106618190D01*
X112973962Y-106625281D01*
X112952822Y-106634845D01*
X112913219Y-106659538D01*
X112877829Y-106684005D01*
X112811650Y-106725991D01*
X112735385Y-106766692D01*
X112698953Y-106783277D01*
X112635076Y-106812647D01*
X112576156Y-106844154D01*
X112548918Y-106861350D01*
X112509392Y-106883079D01*
X112460910Y-106894717D01*
X112391747Y-106898757D01*
X112372407Y-106898874D01*
X112251348Y-106892852D01*
X112152308Y-106875612D01*
X112078172Y-106848390D01*
X112031826Y-106812424D01*
X112016158Y-106768949D01*
X112019734Y-106747735D01*
X112034031Y-106723877D01*
X112060656Y-106715825D01*
X112105355Y-106723893D01*
X112173875Y-106748394D01*
X112195895Y-106757328D01*
X112259750Y-106780553D01*
X112317962Y-106796540D01*
X112351483Y-106801374D01*
X112385444Y-106796268D01*
X112433397Y-106782959D01*
X112485576Y-106765056D01*
X112532215Y-106746169D01*
X112563548Y-106729908D01*
X112570505Y-106720414D01*
X112551547Y-106716154D01*
X112505241Y-106709458D01*
X112439365Y-106701379D01*
X112389043Y-106695812D01*
X112283618Y-106684072D01*
X112208607Y-106674129D01*
X112183210Y-106669409D01*
X112698953Y-106669409D01*
X112707778Y-106678235D01*
X112716604Y-106669409D01*
X112707778Y-106660584D01*
X112698953Y-106669409D01*
X112183210Y-106669409D01*
X112159233Y-106664953D01*
X112130721Y-106655516D01*
G37*
G36*
X111218315Y-111977048D02*
G01*
X111357466Y-111979841D01*
X112024163Y-112012124D01*
X112499720Y-112054295D01*
X112576008Y-112066522D01*
X112629716Y-112083736D01*
X112657033Y-112103919D01*
X112654149Y-112125050D01*
X112645999Y-112131833D01*
X112613636Y-112140557D01*
X112552312Y-112145599D01*
X112468164Y-112147049D01*
X112367330Y-112144999D01*
X112255950Y-112139542D01*
X112140160Y-112130769D01*
X112063512Y-112123120D01*
X111985744Y-112115689D01*
X111880969Y-112107361D01*
X111757453Y-112098703D01*
X111623460Y-112090279D01*
X111487255Y-112082654D01*
X111428070Y-112079664D01*
X111257540Y-112071022D01*
X111119402Y-112063158D01*
X111010762Y-112055785D01*
X110928727Y-112048615D01*
X110870404Y-112041359D01*
X110832897Y-112033730D01*
X110813315Y-112025438D01*
X110808602Y-112017964D01*
X110817478Y-112002855D01*
X110846728Y-111991298D01*
X110898894Y-111983115D01*
X110976519Y-111978130D01*
X111082145Y-111976167D01*
X111218315Y-111977048D01*
G37*
G36*
X111721400Y-110156755D02*
G01*
X111780472Y-110173240D01*
X111794843Y-110179854D01*
X111827423Y-110192259D01*
X111889002Y-110211535D01*
X111974280Y-110236187D01*
X112077960Y-110264718D01*
X112194744Y-110295631D01*
X112300764Y-110322765D01*
X112463419Y-110364349D01*
X112594835Y-110399673D01*
X112698234Y-110430138D01*
X112776840Y-110457140D01*
X112833875Y-110482078D01*
X112872562Y-110506352D01*
X112896123Y-110531358D01*
X112907781Y-110558496D01*
X112910767Y-110587463D01*
X112901508Y-110607055D01*
X112872278Y-110629112D01*
X112820897Y-110654437D01*
X112745183Y-110683833D01*
X112642955Y-110718102D01*
X112512033Y-110758046D01*
X112350235Y-110804467D01*
X112231197Y-110837474D01*
X112104357Y-110873134D01*
X111970109Y-110912337D01*
X111839186Y-110951852D01*
X111722318Y-110988446D01*
X111640273Y-111015446D01*
X111534743Y-111053176D01*
X111433033Y-111092732D01*
X111340398Y-111131738D01*
X111262096Y-111167815D01*
X111203383Y-111198589D01*
X111169517Y-111221680D01*
X111163303Y-111231103D01*
X111175532Y-111249941D01*
X111213276Y-111267073D01*
X111278117Y-111282734D01*
X111371639Y-111297160D01*
X111495425Y-111310586D01*
X111651058Y-111323248D01*
X111840122Y-111335383D01*
X111878174Y-111337548D01*
X112070820Y-111349258D01*
X112230511Y-111361159D01*
X112359598Y-111373641D01*
X112460427Y-111387094D01*
X112535347Y-111401908D01*
X112586707Y-111418472D01*
X112616854Y-111437178D01*
X112628137Y-111458414D01*
X112628348Y-111462102D01*
X112611018Y-111470160D01*
X112560014Y-111475021D01*
X112476818Y-111476707D01*
X112362914Y-111475238D01*
X112219782Y-111470635D01*
X112048905Y-111462921D01*
X111851764Y-111452117D01*
X111825221Y-111450542D01*
X111643568Y-111438210D01*
X111493532Y-111424571D01*
X111371432Y-111409022D01*
X111273589Y-111390960D01*
X111196325Y-111369784D01*
X111135959Y-111344889D01*
X111117070Y-111334556D01*
X111057248Y-111290179D01*
X111032225Y-111247762D01*
X111041609Y-111206462D01*
X111051555Y-111193630D01*
X111104390Y-111149637D01*
X111186993Y-111099475D01*
X111294783Y-111045131D01*
X111423180Y-110988588D01*
X111567603Y-110931830D01*
X111723472Y-110876843D01*
X111886206Y-110825611D01*
X111931128Y-110812565D01*
X111979876Y-110798739D01*
X112055561Y-110777358D01*
X112151133Y-110750405D01*
X112259542Y-110719866D01*
X112373736Y-110687724D01*
X112486664Y-110655965D01*
X112591276Y-110626574D01*
X112680521Y-110601534D01*
X112740445Y-110584759D01*
X112760926Y-110571045D01*
X112757351Y-110559872D01*
X112736985Y-110551934D01*
X112686489Y-110536705D01*
X112610018Y-110515308D01*
X112511728Y-110488867D01*
X112395773Y-110458508D01*
X112266308Y-110425353D01*
X112178457Y-110403231D01*
X112006962Y-110359827D01*
X111867313Y-110323164D01*
X111756910Y-110292256D01*
X111673152Y-110266115D01*
X111613441Y-110243755D01*
X111575175Y-110224189D01*
X111555755Y-110206431D01*
X111552580Y-110189494D01*
X111563051Y-110172391D01*
X111564965Y-110170416D01*
X111600863Y-110154818D01*
X111657269Y-110150439D01*
X111721400Y-110156755D01*
G37*
G36*
X111001760Y-107686165D02*
G01*
X111029656Y-107693459D01*
X111039187Y-107709455D01*
X111039745Y-107718401D01*
X111032185Y-107740566D01*
X111004540Y-107756577D01*
X110949363Y-107770672D01*
X110947076Y-107771136D01*
X110862967Y-107785092D01*
X110749131Y-107799461D01*
X110611134Y-107813755D01*
X110454539Y-107827486D01*
X110284912Y-107840166D01*
X110107816Y-107851309D01*
X109928817Y-107860425D01*
X109927723Y-107860474D01*
X109793201Y-107866404D01*
X109688294Y-107870749D01*
X109607351Y-107873527D01*
X109544721Y-107874758D01*
X109494753Y-107874463D01*
X109451795Y-107872660D01*
X109410198Y-107869368D01*
X109364309Y-107864609D01*
X109345235Y-107862493D01*
X109266679Y-107850015D01*
X109220554Y-107833233D01*
X109204139Y-107811114D01*
X109204026Y-107808780D01*
X109208015Y-107799884D01*
X109222095Y-107792321D01*
X109249438Y-107785831D01*
X109293212Y-107780156D01*
X109356588Y-107775038D01*
X109442736Y-107770216D01*
X109554826Y-107765433D01*
X109696029Y-107760430D01*
X109860061Y-107755236D01*
X110010628Y-107749987D01*
X110160441Y-107743571D01*
X110303021Y-107736354D01*
X110431884Y-107728700D01*
X110540550Y-107720973D01*
X110622538Y-107713539D01*
X110642594Y-107711217D01*
X110735838Y-107700494D01*
X110826150Y-107691814D01*
X110902261Y-107686167D01*
X110947076Y-107684491D01*
X111001760Y-107686165D01*
G37*
D11*
%TO.C,U4*%
X119533500Y-113150000D02*
X147473500Y-113150000D01*
X118263500Y-113150000D02*
X116933500Y-113150000D01*
X147473500Y-113150000D02*
X147473500Y-110490000D01*
X116993500Y-86430000D02*
X147473500Y-86430000D01*
X119533500Y-113150000D02*
X119533500Y-110490000D01*
X119533500Y-110490000D02*
X147473500Y-110490000D01*
X116993500Y-89090000D02*
X116993500Y-86430000D01*
X147473500Y-89090000D02*
X147473500Y-86430000D01*
X116993500Y-89090000D02*
X147473500Y-89090000D01*
X116933500Y-113150000D02*
X116933500Y-111820000D01*
%TO.C,U1*%
X119225000Y-105082000D02*
X119225000Y-104827000D01*
X116840000Y-105082000D02*
X119225000Y-105082000D01*
X116840000Y-94562000D02*
X114455000Y-94562000D01*
X119225000Y-94562000D02*
X119225000Y-94817000D01*
X114455000Y-94562000D02*
X114455000Y-94817000D01*
X114455000Y-105082000D02*
X114455000Y-104827000D01*
X116840000Y-105082000D02*
X114455000Y-105082000D01*
X119225000Y-104827000D02*
X120890000Y-104827000D01*
X116840000Y-94562000D02*
X119225000Y-94562000D01*
%TO.C,J1*%
X100610000Y-103885000D02*
X94610000Y-103885000D01*
X103667071Y-105665000D02*
X103270000Y-105665000D01*
X94610000Y-105665000D02*
X100610000Y-105665000D01*
X103667071Y-98805000D02*
X103270000Y-98805000D01*
X94610000Y-98045000D02*
X100610000Y-98045000D01*
X106207071Y-92965000D02*
X105752929Y-92965000D01*
X106207071Y-101345000D02*
X105752929Y-101345000D01*
X100610000Y-106245000D02*
X94610000Y-106245000D01*
X103270000Y-92015000D02*
X100610000Y-92015000D01*
X103270000Y-107375000D02*
X103270000Y-92015000D01*
X106207071Y-98805000D02*
X105752929Y-98805000D01*
X100610000Y-106365000D02*
X94610000Y-106365000D01*
X106207071Y-96265000D02*
X105752929Y-96265000D01*
X103270000Y-97155000D02*
X100610000Y-97155000D01*
X106207071Y-93725000D02*
X105752929Y-93725000D01*
X103667071Y-103885000D02*
X103270000Y-103885000D01*
X108520000Y-107315000D02*
X107250000Y-107315000D01*
X103270000Y-99695000D02*
X100610000Y-99695000D01*
X100610000Y-93725000D02*
X94610000Y-93725000D01*
X103667071Y-106425000D02*
X103270000Y-106425000D01*
X100610000Y-106125000D02*
X94610000Y-106125000D01*
X94610000Y-106425000D02*
X94610000Y-105665000D01*
X94610000Y-100585000D02*
X100610000Y-100585000D01*
X100610000Y-92015000D02*
X100610000Y-107375000D01*
X108520000Y-106045000D02*
X108520000Y-107315000D01*
X94610000Y-96265000D02*
X94610000Y-95505000D01*
X100610000Y-106425000D02*
X94610000Y-106425000D01*
X100610000Y-105765000D02*
X94610000Y-105765000D01*
X94610000Y-98805000D02*
X94610000Y-98045000D01*
X94610000Y-103125000D02*
X100610000Y-103125000D01*
X103667071Y-93725000D02*
X103270000Y-93725000D01*
X100610000Y-98805000D02*
X94610000Y-98805000D01*
X106140000Y-106425000D02*
X105752929Y-106425000D01*
X100610000Y-105885000D02*
X94610000Y-105885000D01*
X106140000Y-105665000D02*
X105752929Y-105665000D01*
X106207071Y-98045000D02*
X105752929Y-98045000D01*
X103667071Y-98045000D02*
X103270000Y-98045000D01*
X103270000Y-104775000D02*
X100610000Y-104775000D01*
X103667071Y-100585000D02*
X103270000Y-100585000D01*
X103667071Y-92965000D02*
X103270000Y-92965000D01*
X94610000Y-92965000D02*
X100610000Y-92965000D01*
X106207071Y-100585000D02*
X105752929Y-100585000D01*
X106207071Y-103125000D02*
X105752929Y-103125000D01*
X94610000Y-93725000D02*
X94610000Y-92965000D01*
X100610000Y-106005000D02*
X94610000Y-106005000D01*
X103667071Y-95505000D02*
X103270000Y-95505000D01*
X106207071Y-95505000D02*
X105752929Y-95505000D01*
X94610000Y-95505000D02*
X100610000Y-95505000D01*
X94610000Y-103885000D02*
X94610000Y-103125000D01*
X103270000Y-102235000D02*
X100610000Y-102235000D01*
X103270000Y-94615000D02*
X100610000Y-94615000D01*
X100610000Y-101345000D02*
X94610000Y-101345000D01*
X103667071Y-96265000D02*
X103270000Y-96265000D01*
X100610000Y-107375000D02*
X103270000Y-107375000D01*
X100610000Y-96265000D02*
X94610000Y-96265000D01*
X94610000Y-101345000D02*
X94610000Y-100585000D01*
X103667071Y-101345000D02*
X103270000Y-101345000D01*
X103667071Y-103125000D02*
X103270000Y-103125000D01*
X106207071Y-103885000D02*
X105752929Y-103885000D01*
%TO.C,U3*%
X142621000Y-94562000D02*
X145006000Y-94562000D01*
X145006000Y-104827000D02*
X146671000Y-104827000D01*
X142621000Y-105082000D02*
X140236000Y-105082000D01*
X140236000Y-105082000D02*
X140236000Y-104827000D01*
X140236000Y-94562000D02*
X140236000Y-94817000D01*
X145006000Y-94562000D02*
X145006000Y-94817000D01*
X142621000Y-94562000D02*
X140236000Y-94562000D01*
X142621000Y-105082000D02*
X145006000Y-105082000D01*
X145006000Y-105082000D02*
X145006000Y-104827000D01*
%TO.C,U2*%
X132179000Y-105082000D02*
X132179000Y-104827000D01*
X129794000Y-105082000D02*
X132179000Y-105082000D01*
X129794000Y-94562000D02*
X127409000Y-94562000D01*
X132179000Y-94562000D02*
X132179000Y-94817000D01*
X127409000Y-94562000D02*
X127409000Y-94817000D01*
X127409000Y-105082000D02*
X127409000Y-104827000D01*
X129794000Y-105082000D02*
X127409000Y-105082000D01*
X132179000Y-104827000D02*
X133844000Y-104827000D01*
X129794000Y-94562000D02*
X132179000Y-94562000D01*
%TO.C,R16*%
X144525276Y-90028500D02*
X145034724Y-90028500D01*
X144525276Y-91073500D02*
X145034724Y-91073500D01*
%TO.C,R15*%
X140716724Y-92851500D02*
X140207276Y-92851500D01*
X140716724Y-91806500D02*
X140207276Y-91806500D01*
%TO.C,R14*%
X136905276Y-90028500D02*
X137414724Y-90028500D01*
X136905276Y-91073500D02*
X137414724Y-91073500D01*
%TO.C,R13*%
X133096724Y-92851500D02*
X132587276Y-92851500D01*
X133096724Y-91806500D02*
X132587276Y-91806500D01*
%TO.C,R12*%
X129285276Y-90028500D02*
X129794724Y-90028500D01*
X129285276Y-91073500D02*
X129794724Y-91073500D01*
%TO.C,R11*%
X125476724Y-92851500D02*
X124967276Y-92851500D01*
X125476724Y-91806500D02*
X124967276Y-91806500D01*
%TO.C,R10*%
X121665276Y-90028500D02*
X122174724Y-90028500D01*
X121665276Y-91073500D02*
X122174724Y-91073500D01*
%TO.C,R9*%
X117729724Y-92851500D02*
X117220276Y-92851500D01*
X117729724Y-91806500D02*
X117220276Y-91806500D01*
%TO.C,R8*%
X144780724Y-109361500D02*
X144271276Y-109361500D01*
X144780724Y-108316500D02*
X144271276Y-108316500D01*
%TO.C,R7*%
X139953276Y-106538500D02*
X140462724Y-106538500D01*
X139953276Y-107583500D02*
X140462724Y-107583500D01*
%TO.C,R6*%
X137160724Y-109361500D02*
X136651276Y-109361500D01*
X137160724Y-108316500D02*
X136651276Y-108316500D01*
%TO.C,R5*%
X132333276Y-106538500D02*
X132842724Y-106538500D01*
X132333276Y-107583500D02*
X132842724Y-107583500D01*
%TO.C,R4*%
X129540724Y-109361500D02*
X129031276Y-109361500D01*
X129540724Y-108316500D02*
X129031276Y-108316500D01*
%TO.C,R3*%
X124713276Y-106411500D02*
X125222724Y-106411500D01*
X124713276Y-107456500D02*
X125222724Y-107456500D01*
%TO.C,R2*%
X121920724Y-109361500D02*
X121411276Y-109361500D01*
X121920724Y-108316500D02*
X121411276Y-108316500D01*
%TO.C,R1*%
X117116776Y-108316500D02*
X117626224Y-108316500D01*
X117116776Y-109361500D02*
X117626224Y-109361500D01*
%TO.C,C3*%
X137670000Y-101580733D02*
X137670000Y-101873267D01*
X136650000Y-101580733D02*
X136650000Y-101873267D01*
%TO.C,C2*%
X124843000Y-101453733D02*
X124843000Y-101746267D01*
X123823000Y-101453733D02*
X123823000Y-101746267D01*
%TO.C,C1*%
X111127000Y-103739733D02*
X111127000Y-104032267D01*
X110107000Y-103739733D02*
X110107000Y-104032267D01*
%TD*%
M02*
