%TF.GenerationSoftware,KiCad,Pcbnew,9.0.2*%
%TF.CreationDate,2025-11-10T02:45:49+09:00*%
%TF.ProjectId,Pmod_PLED,506d6f64-5f50-44c4-9544-2e6b69636164,rev?*%
%TF.SameCoordinates,Original*%
%TF.FileFunction,Soldermask,Top*%
%TF.FilePolarity,Negative*%
%FSLAX46Y46*%
G04 Gerber Fmt 4.6, Leading zero omitted, Abs format (unit mm)*
G04 Created by KiCad (PCBNEW 9.0.2) date 2025-11-10 02:45:49*
%MOMM*%
%LPD*%
G01*
G04 APERTURE LIST*
G04 Aperture macros list*
%AMRoundRect*
0 Rectangle with rounded corners*
0 $1 Rounding radius*
0 $2 $3 $4 $5 $6 $7 $8 $9 X,Y pos of 4 corners*
0 Add a 4 corners polygon primitive as box body*
4,1,4,$2,$3,$4,$5,$6,$7,$8,$9,$2,$3,0*
0 Add four circle primitives for the rounded corners*
1,1,$1+$1,$2,$3*
1,1,$1+$1,$4,$5*
1,1,$1+$1,$6,$7*
1,1,$1+$1,$8,$9*
0 Add four rect primitives between the rounded corners*
20,1,$1+$1,$2,$3,$4,$5,0*
20,1,$1+$1,$4,$5,$6,$7,0*
20,1,$1+$1,$6,$7,$8,$9,0*
20,1,$1+$1,$8,$9,$2,$3,0*%
%AMFreePoly0*
4,1,5,2.000000,-1.100000,-2.000000,-1.100000,-2.000000,1.100000,2.000000,1.100000,2.000000,-1.100000,2.000000,-1.100000,$1*%
%AMFreePoly1*
4,1,5,2.200000,-2.420000,-2.200000,-2.420000,-2.200000,2.420000,2.200000,2.420000,2.200000,-2.420000,2.200000,-2.420000,$1*%
G04 Aperture macros list end*
%ADD10RoundRect,0.200000X0.900000X0.200000X-0.900000X0.200000X-0.900000X-0.200000X0.900000X-0.200000X0*%
%ADD11RoundRect,0.249997X2.950003X2.650003X-2.950003X2.650003X-2.950003X-2.650003X2.950003X-2.650003X0*%
%ADD12RoundRect,0.514250X0.585750X0.514250X-0.585750X0.514250X-0.585750X-0.514250X0.585750X-0.514250X0*%
%ADD13R,2.000000X2.000000*%
%ADD14R,1.000000X2.510000*%
%ADD15R,1.008000X2.521000*%
%ADD16R,1.016000X2.540000*%
%ADD17RoundRect,0.162500X0.162500X-0.837500X0.162500X0.837500X-0.162500X0.837500X-0.162500X-0.837500X0*%
%ADD18RoundRect,0.162500X0.162500X-1.133500X0.162500X1.133500X-0.162500X1.133500X-0.162500X-1.133500X0*%
%ADD19R,1.000000X1.000000*%
%ADD20RoundRect,0.237500X0.250000X0.237500X-0.250000X0.237500X-0.250000X-0.237500X0.250000X-0.237500X0*%
%ADD21RoundRect,0.237500X0.237500X-0.250000X0.237500X0.250000X-0.237500X0.250000X-0.237500X-0.250000X0*%
%ADD22RoundRect,0.243750X-0.882750X0.243750X-0.882750X-0.243750X0.882750X-0.243750X0.882750X0.243750X0*%
%ADD23RoundRect,0.237500X-0.237500X0.250000X-0.237500X-0.250000X0.237500X-0.250000X0.237500X0.250000X0*%
%ADD24RoundRect,0.162500X1.387500X0.162500X-1.387500X0.162500X-1.387500X-0.162500X1.387500X-0.162500X0*%
%ADD25RoundRect,0.162500X0.837500X0.162500X-0.837500X0.162500X-0.837500X-0.162500X0.837500X-0.162500X0*%
%ADD26RoundRect,0.200000X0.200000X-0.900000X0.200000X0.900000X-0.200000X0.900000X-0.200000X-0.900000X0*%
%ADD27RoundRect,0.249997X2.650003X-2.950003X2.650003X2.950003X-2.650003X2.950003X-2.650003X-2.950003X0*%
%ADD28RoundRect,0.200000X-0.900000X-0.200000X0.900000X-0.200000X0.900000X0.200000X-0.900000X0.200000X0*%
%ADD29RoundRect,0.249997X-2.950003X-2.650003X2.950003X-2.650003X2.950003X2.650003X-2.950003X2.650003X0*%
%ADD30RoundRect,0.237500X-0.250000X-0.237500X0.250000X-0.237500X0.250000X0.237500X-0.250000X0.237500X0*%
%ADD31C,4.300000*%
%ADD32FreePoly0,180.000000*%
%ADD33FreePoly1,180.000000*%
G04 APERTURE END LIST*
D10*
%TO.C,U3*%
X148092800Y-96957800D03*
X148092800Y-98097800D03*
D11*
X141792800Y-99237800D03*
D10*
X148092800Y-99237800D03*
X148092800Y-100377800D03*
D12*
X148092800Y-102146300D03*
%TD*%
D13*
%TO.C,REF\u002A\u002A*%
X138201400Y-105435400D03*
%TD*%
D14*
%TO.C,J2*%
X147040600Y-64381000D03*
D15*
X144496600Y-67696500D03*
D14*
X141960600Y-64381000D03*
X139420600Y-67691000D03*
D16*
X136880600Y-64385000D03*
D14*
X134340600Y-67691000D03*
%TD*%
D17*
%TO.C,Q4*%
X120690600Y-92134000D03*
D18*
X122590600Y-92430000D03*
D17*
X121640600Y-88714000D03*
%TD*%
D19*
%TO.C,REF\u002A\u002A*%
X137261600Y-69189600D03*
%TD*%
D20*
%TO.C,R7*%
X120343300Y-95351600D03*
X118518300Y-95351600D03*
%TD*%
D21*
%TO.C,R3*%
X152984200Y-97409000D03*
X152984200Y-99234000D03*
%TD*%
%TO.C,R6*%
X152958800Y-102262300D03*
X152958800Y-104087300D03*
%TD*%
D22*
%TO.C,R5*%
X135416300Y-76985500D03*
D23*
X136067800Y-75160500D03*
%TD*%
D24*
%TO.C,Q1*%
X138151200Y-72186800D03*
D25*
X142121200Y-71236800D03*
X142121200Y-73136800D03*
%TD*%
D26*
%TO.C,U1*%
X126892400Y-83616800D03*
X125752400Y-83616800D03*
D27*
X124612400Y-77316800D03*
D26*
X124612400Y-83616800D03*
X123472400Y-83616800D03*
X122332400Y-83616800D03*
%TD*%
D28*
%TO.C,U2*%
X139951800Y-82011600D03*
X139951800Y-80871600D03*
D29*
X146251800Y-79731600D03*
D28*
X139951800Y-79731600D03*
X139951800Y-78591600D03*
X139951800Y-77451600D03*
%TD*%
D20*
%TO.C,R11*%
X145112100Y-75184000D03*
X146937100Y-75184000D03*
%TD*%
%TO.C,R10*%
X139854300Y-75158600D03*
X141679300Y-75158600D03*
%TD*%
D23*
%TO.C,R8*%
X125704600Y-94460700D03*
X125704600Y-92635700D03*
%TD*%
D30*
%TO.C,R4*%
X120343300Y-86029800D03*
X118518300Y-86029800D03*
%TD*%
D31*
%TO.C,REF\u002A\u002A*%
X124588200Y-104660000D03*
%TD*%
%TO.C,REF\u002A\u002A*%
X159613600Y-73660000D03*
%TD*%
D20*
%TO.C,R15*%
X160373700Y-106883200D03*
X158548700Y-106883200D03*
%TD*%
D25*
%TO.C,Q2*%
X159418600Y-103204500D03*
X159418600Y-101304500D03*
X155998600Y-102254500D03*
%TD*%
D23*
%TO.C,R1*%
X136093200Y-79961100D03*
X136093200Y-81786100D03*
%TD*%
D30*
%TO.C,R2*%
X124893700Y-89128600D03*
X126718700Y-89128600D03*
%TD*%
D20*
%TO.C,R14*%
X154785700Y-106832400D03*
X152960700Y-106832400D03*
%TD*%
D32*
%TO.C,D1*%
X152259000Y-93654000D03*
D33*
X152259000Y-89154000D03*
D32*
X152259000Y-84654000D03*
X131559000Y-84654000D03*
D33*
X131459000Y-89154000D03*
D32*
X131559000Y-93654000D03*
%TD*%
M02*
