%TF.GenerationSoftware,KiCad,Pcbnew,9.0.2*%
%TF.CreationDate,2025-11-10T02:45:49+09:00*%
%TF.ProjectId,Pmod_PLED,506d6f64-5f50-44c4-9544-2e6b69636164,rev?*%
%TF.SameCoordinates,Original*%
%TF.FileFunction,Copper,L1,Top*%
%TF.FilePolarity,Positive*%
%FSLAX46Y46*%
G04 Gerber Fmt 4.6, Leading zero omitted, Abs format (unit mm)*
G04 Created by KiCad (PCBNEW 9.0.2) date 2025-11-10 02:45:49*
%MOMM*%
%LPD*%
G01*
G04 APERTURE LIST*
G04 Aperture macros list*
%AMRoundRect*
0 Rectangle with rounded corners*
0 $1 Rounding radius*
0 $2 $3 $4 $5 $6 $7 $8 $9 X,Y pos of 4 corners*
0 Add a 4 corners polygon primitive as box body*
4,1,4,$2,$3,$4,$5,$6,$7,$8,$9,$2,$3,0*
0 Add four circle primitives for the rounded corners*
1,1,$1+$1,$2,$3*
1,1,$1+$1,$4,$5*
1,1,$1+$1,$6,$7*
1,1,$1+$1,$8,$9*
0 Add four rect primitives between the rounded corners*
20,1,$1+$1,$2,$3,$4,$5,0*
20,1,$1+$1,$4,$5,$6,$7,0*
20,1,$1+$1,$6,$7,$8,$9,0*
20,1,$1+$1,$8,$9,$2,$3,0*%
%AMFreePoly0*
4,1,5,2.000000,-1.100000,-2.000000,-1.100000,-2.000000,1.100000,2.000000,1.100000,2.000000,-1.100000,2.000000,-1.100000,$1*%
%AMFreePoly1*
4,1,5,2.200000,-2.420000,-2.200000,-2.420000,-2.200000,2.420000,2.200000,2.420000,2.200000,-2.420000,2.200000,-2.420000,$1*%
G04 Aperture macros list end*
%TA.AperFunction,SMDPad,CuDef*%
%ADD10RoundRect,0.200000X0.900000X0.200000X-0.900000X0.200000X-0.900000X-0.200000X0.900000X-0.200000X0*%
%TD*%
%TA.AperFunction,SMDPad,CuDef*%
%ADD11RoundRect,0.249997X2.950003X2.650003X-2.950003X2.650003X-2.950003X-2.650003X2.950003X-2.650003X0*%
%TD*%
%TA.AperFunction,SMDPad,CuDef*%
%ADD12RoundRect,0.514250X0.585750X0.514250X-0.585750X0.514250X-0.585750X-0.514250X0.585750X-0.514250X0*%
%TD*%
%TA.AperFunction,SMDPad,CuDef*%
%ADD13R,2.000000X2.000000*%
%TD*%
%TA.AperFunction,SMDPad,CuDef*%
%ADD14R,1.000000X2.510000*%
%TD*%
%TA.AperFunction,SMDPad,CuDef*%
%ADD15R,1.008000X2.521000*%
%TD*%
%TA.AperFunction,SMDPad,CuDef*%
%ADD16R,1.016000X2.540000*%
%TD*%
%TA.AperFunction,SMDPad,CuDef*%
%ADD17RoundRect,0.162500X0.162500X-0.837500X0.162500X0.837500X-0.162500X0.837500X-0.162500X-0.837500X0*%
%TD*%
%TA.AperFunction,SMDPad,CuDef*%
%ADD18RoundRect,0.162500X0.162500X-1.133500X0.162500X1.133500X-0.162500X1.133500X-0.162500X-1.133500X0*%
%TD*%
%TA.AperFunction,SMDPad,CuDef*%
%ADD19R,1.000000X1.000000*%
%TD*%
%TA.AperFunction,SMDPad,CuDef*%
%ADD20RoundRect,0.237500X0.250000X0.237500X-0.250000X0.237500X-0.250000X-0.237500X0.250000X-0.237500X0*%
%TD*%
%TA.AperFunction,SMDPad,CuDef*%
%ADD21RoundRect,0.237500X0.237500X-0.250000X0.237500X0.250000X-0.237500X0.250000X-0.237500X-0.250000X0*%
%TD*%
%TA.AperFunction,SMDPad,CuDef*%
%ADD22RoundRect,0.243750X-0.882750X0.243750X-0.882750X-0.243750X0.882750X-0.243750X0.882750X0.243750X0*%
%TD*%
%TA.AperFunction,SMDPad,CuDef*%
%ADD23RoundRect,0.237500X-0.237500X0.250000X-0.237500X-0.250000X0.237500X-0.250000X0.237500X0.250000X0*%
%TD*%
%TA.AperFunction,SMDPad,CuDef*%
%ADD24RoundRect,0.162500X1.387500X0.162500X-1.387500X0.162500X-1.387500X-0.162500X1.387500X-0.162500X0*%
%TD*%
%TA.AperFunction,SMDPad,CuDef*%
%ADD25RoundRect,0.162500X0.837500X0.162500X-0.837500X0.162500X-0.837500X-0.162500X0.837500X-0.162500X0*%
%TD*%
%TA.AperFunction,SMDPad,CuDef*%
%ADD26RoundRect,0.200000X0.200000X-0.900000X0.200000X0.900000X-0.200000X0.900000X-0.200000X-0.900000X0*%
%TD*%
%TA.AperFunction,SMDPad,CuDef*%
%ADD27RoundRect,0.249997X2.650003X-2.950003X2.650003X2.950003X-2.650003X2.950003X-2.650003X-2.950003X0*%
%TD*%
%TA.AperFunction,SMDPad,CuDef*%
%ADD28RoundRect,0.200000X-0.900000X-0.200000X0.900000X-0.200000X0.900000X0.200000X-0.900000X0.200000X0*%
%TD*%
%TA.AperFunction,SMDPad,CuDef*%
%ADD29RoundRect,0.249997X-2.950003X-2.650003X2.950003X-2.650003X2.950003X2.650003X-2.950003X2.650003X0*%
%TD*%
%TA.AperFunction,SMDPad,CuDef*%
%ADD30RoundRect,0.237500X-0.250000X-0.237500X0.250000X-0.237500X0.250000X0.237500X-0.250000X0.237500X0*%
%TD*%
%TA.AperFunction,SMDPad,CuDef*%
%ADD31FreePoly0,180.000000*%
%TD*%
%TA.AperFunction,SMDPad,CuDef*%
%ADD32FreePoly1,180.000000*%
%TD*%
%TA.AperFunction,Conductor*%
%ADD33C,0.800000*%
%TD*%
%TA.AperFunction,Conductor*%
%ADD34C,0.500000*%
%TD*%
%TA.AperFunction,Conductor*%
%ADD35C,0.250000*%
%TD*%
%TA.AperFunction,Conductor*%
%ADD36C,1.000000*%
%TD*%
G04 APERTURE END LIST*
D10*
%TO.P,U3,5,LED*%
%TO.N,/Cathode_B*%
X148092800Y-96957800D03*
%TO.P,U3,4,Rs*%
%TO.N,Net-(U3-Rs)*%
X148092800Y-98097800D03*
D11*
%TO.P,U3,3,GND*%
%TO.N,GND*%
X141792800Y-99237800D03*
D10*
X148092800Y-99237800D03*
%TO.P,U3,2,EN/PWM*%
%TO.N,Net-(Q2-D)*%
X148092800Y-100377800D03*
D12*
%TO.P,U3,1,VDD*%
%TO.N,/5V*%
X148092800Y-102146300D03*
%TD*%
D13*
%TO.P,REF\u002A\u002A,1*%
%TO.N,/5V*%
X138201400Y-105435400D03*
%TD*%
D14*
%TO.P,J2,6,Pin_6*%
%TO.N,/EN_B*%
X147040600Y-64381000D03*
D15*
%TO.P,J2,5,Pin_5*%
%TO.N,GND*%
X144496600Y-67696500D03*
D14*
%TO.P,J2,4,Pin_4*%
%TO.N,/EN_G*%
X141960600Y-64381000D03*
%TO.P,J2,3,Pin_3*%
%TO.N,unconnected-(J2-Pin_3-Pad3)*%
X139420600Y-67691000D03*
D16*
%TO.P,J2,2,Pin_2*%
%TO.N,/EN_R*%
X136880600Y-64385000D03*
D14*
%TO.P,J2,1,Pin_1*%
%TO.N,/5V*%
X134340600Y-67691000D03*
%TD*%
D17*
%TO.P,Q4,1,G*%
%TO.N,Net-(Q4-G)*%
X120690600Y-92134000D03*
D18*
%TO.P,Q4,2,S*%
%TO.N,/EN_R*%
X122590600Y-92430000D03*
D17*
%TO.P,Q4,3,D*%
%TO.N,Net-(Q4-D)*%
X121640600Y-88714000D03*
%TD*%
D19*
%TO.P,REF\u002A\u002A,1*%
%TO.N,/EN_R*%
X137261600Y-69189600D03*
%TD*%
D20*
%TO.P,R7,1*%
%TO.N,Net-(Q4-G)*%
X120343300Y-95351600D03*
%TO.P,R7,2*%
%TO.N,/5V*%
X118518300Y-95351600D03*
%TD*%
D21*
%TO.P,R3,2*%
%TO.N,Net-(U3-Rs)*%
X152984200Y-97409000D03*
%TO.P,R3,1*%
%TO.N,GND*%
X152984200Y-99234000D03*
%TD*%
%TO.P,R6,2*%
%TO.N,Net-(Q2-D)*%
X152958800Y-102262300D03*
%TO.P,R6,1*%
%TO.N,/5V*%
X152958800Y-104087300D03*
%TD*%
D22*
%TO.P,R5,2*%
%TO.N,Net-(Q1-D)*%
X135416300Y-76985500D03*
D23*
%TO.P,R5,1*%
%TO.N,/5V*%
X136067800Y-75160500D03*
%TD*%
D24*
%TO.P,Q1,3,D*%
%TO.N,Net-(Q1-D)*%
X138151200Y-72186800D03*
D25*
%TO.P,Q1,2,S*%
%TO.N,/EN_G*%
X142121200Y-71236800D03*
%TO.P,Q1,1,G*%
%TO.N,Net-(Q1-G)*%
X142121200Y-73136800D03*
%TD*%
D26*
%TO.P,U1,5,LED*%
%TO.N,/Cathode_R*%
X126892400Y-83616800D03*
%TO.P,U1,4,Rs*%
%TO.N,Net-(U1-Rs)*%
X125752400Y-83616800D03*
D27*
%TO.P,U1,3,GND*%
%TO.N,GND*%
X124612400Y-77316800D03*
D26*
X124612400Y-83616800D03*
%TO.P,U1,2,EN/PWM*%
%TO.N,Net-(Q4-D)*%
X123472400Y-83616800D03*
%TO.P,U1,1,VDD*%
%TO.N,/5V*%
X122332400Y-83616800D03*
%TD*%
D28*
%TO.P,U2,5,LED*%
%TO.N,/Cathode_G*%
X139951800Y-82011600D03*
%TO.P,U2,4,Rs*%
%TO.N,Net-(U2-Rs)*%
X139951800Y-80871600D03*
D29*
%TO.P,U2,3,GND*%
%TO.N,GND*%
X146251800Y-79731600D03*
D28*
X139951800Y-79731600D03*
%TO.P,U2,2,EN/PWM*%
%TO.N,Net-(Q1-D)*%
X139951800Y-78591600D03*
%TO.P,U2,1,VDD*%
%TO.N,/5V*%
X139951800Y-77451600D03*
%TD*%
D20*
%TO.P,R11,2*%
%TO.N,Net-(Q1-G)*%
X145112100Y-75184000D03*
%TO.P,R11,1*%
%TO.N,GND*%
X146937100Y-75184000D03*
%TD*%
%TO.P,R10,2*%
%TO.N,/5V*%
X139854300Y-75158600D03*
%TO.P,R10,1*%
%TO.N,Net-(Q1-G)*%
X141679300Y-75158600D03*
%TD*%
D23*
%TO.P,R8,2*%
%TO.N,Net-(Q4-G)*%
X125704600Y-94460700D03*
%TO.P,R8,1*%
%TO.N,GND*%
X125704600Y-92635700D03*
%TD*%
D30*
%TO.P,R4,2*%
%TO.N,Net-(Q4-D)*%
X120343300Y-86029800D03*
%TO.P,R4,1*%
%TO.N,/5V*%
X118518300Y-86029800D03*
%TD*%
D20*
%TO.P,R15,1*%
%TO.N,GND*%
X160373700Y-106883200D03*
%TO.P,R15,2*%
%TO.N,Net-(Q2-G)*%
X158548700Y-106883200D03*
%TD*%
D25*
%TO.P,Q2,1,G*%
%TO.N,Net-(Q2-G)*%
X159418600Y-103204500D03*
%TO.P,Q2,2,S*%
%TO.N,/EN_B*%
X159418600Y-101304500D03*
%TO.P,Q2,3,D*%
%TO.N,Net-(Q2-D)*%
X155998600Y-102254500D03*
%TD*%
D23*
%TO.P,R1,1*%
%TO.N,GND*%
X136093200Y-79961100D03*
%TO.P,R1,2*%
%TO.N,Net-(U2-Rs)*%
X136093200Y-81786100D03*
%TD*%
D30*
%TO.P,R2,1*%
%TO.N,GND*%
X124893700Y-89128600D03*
%TO.P,R2,2*%
%TO.N,Net-(U1-Rs)*%
X126718700Y-89128600D03*
%TD*%
D20*
%TO.P,R14,1*%
%TO.N,Net-(Q2-G)*%
X154785700Y-106832400D03*
%TO.P,R14,2*%
%TO.N,/5V*%
X152960700Y-106832400D03*
%TD*%
D31*
%TO.P,D1,1,GK*%
%TO.N,/Cathode_B*%
X152259000Y-93654000D03*
D32*
%TO.P,D1,2,RK*%
%TO.N,/Cathode_R*%
X152259000Y-89154000D03*
D31*
%TO.P,D1,3,BK*%
%TO.N,/Cathode_G*%
X152259000Y-84654000D03*
%TO.P,D1,4,RA*%
%TO.N,/5V*%
X131559000Y-84654000D03*
D32*
%TO.P,D1,5,RK*%
%TO.N,/Cathode_R*%
X131459000Y-89154000D03*
D31*
%TO.P,D1,6,A*%
%TO.N,/5V*%
X131559000Y-93654000D03*
%TD*%
D33*
%TO.N,GND*%
X149809200Y-111556800D02*
X141792800Y-103540400D01*
X156577332Y-111556800D02*
X149809200Y-111556800D01*
X141792800Y-103540400D02*
X141792800Y-99237800D01*
X163271200Y-106934000D02*
X160112866Y-110092334D01*
X160112866Y-110092334D02*
G75*
G02*
X156577332Y-111556823I-3535566J3535534D01*
G01*
D34*
X146939000Y-70138900D02*
X146937100Y-70140800D01*
D33*
X146937100Y-70140800D02*
X146937100Y-75184000D01*
X144496600Y-67696500D02*
X146939000Y-70138900D01*
D35*
%TO.N,/EN_B*%
X151638000Y-74777600D02*
X159418600Y-82558200D01*
X151638000Y-66776600D02*
X151638000Y-74777600D01*
X159418600Y-82558200D02*
X159418600Y-101304500D01*
X149242400Y-64381000D02*
X151638000Y-66776600D01*
X147040600Y-64381000D02*
X149242400Y-64381000D01*
D34*
%TO.N,/5V*%
X120497600Y-98958400D02*
X131444400Y-98958400D01*
X131444400Y-98958400D02*
X131559000Y-98843800D01*
X118518300Y-96979100D02*
X120497600Y-98958400D01*
X118518300Y-95351600D02*
X118518300Y-96979100D01*
X138150600Y-105435400D02*
X138201400Y-105435400D01*
X131559000Y-96202800D02*
X131559000Y-98843800D01*
X131559000Y-98843800D02*
X138150600Y-105435400D01*
D35*
%TO.N,GND*%
X160373700Y-106883200D02*
X163220400Y-106883200D01*
X163220400Y-106883200D02*
X163271200Y-106934000D01*
%TO.N,Net-(Q2-G)*%
X158548700Y-104074400D02*
X159418600Y-103204500D01*
X158548700Y-106883200D02*
X158548700Y-104074400D01*
X158497900Y-106832400D02*
X158548700Y-106883200D01*
X154785700Y-106832400D02*
X158497900Y-106832400D01*
D33*
%TO.N,GND*%
X163457734Y-106747466D02*
G75*
G03*
X164922223Y-103211932I-3535534J3535566D01*
G01*
X147001532Y-61620400D02*
G75*
G02*
X150537050Y-63084882I-32J-5000000D01*
G01*
X164922200Y-85699600D02*
X164922200Y-103211932D01*
X154482800Y-75260200D02*
X164922200Y-85699600D01*
X150537066Y-63084866D02*
X154482800Y-67030600D01*
X154482800Y-67030600D02*
X154482800Y-75260200D01*
D34*
X163457734Y-106747466D02*
X163271200Y-106934000D01*
D33*
X145338800Y-61620400D02*
X147001532Y-61620400D01*
X144500600Y-62458600D02*
X145338800Y-61620400D01*
D35*
%TO.N,/5V*%
X148943700Y-104087300D02*
X152958800Y-104087300D01*
X148092800Y-101828800D02*
X148092800Y-103236400D01*
X148092800Y-103236400D02*
X148943700Y-104087300D01*
X152960700Y-104089200D02*
X152958800Y-104087300D01*
X152960700Y-106832400D02*
X152960700Y-104089200D01*
%TO.N,Net-(Q2-D)*%
X155990800Y-102262300D02*
X155998600Y-102254500D01*
X152958800Y-102262300D02*
X155990800Y-102262300D01*
X151074300Y-100377800D02*
X152958800Y-102262300D01*
X148092800Y-100377800D02*
X151074300Y-100377800D01*
D34*
%TO.N,GND*%
X148092800Y-99237800D02*
X141792800Y-99237800D01*
D35*
X152980400Y-99237800D02*
X152984200Y-99234000D01*
X148092800Y-99237800D02*
X152980400Y-99237800D01*
%TO.N,Net-(U3-Rs)*%
X151152400Y-98097800D02*
X151841200Y-97409000D01*
X151841200Y-97409000D02*
X152984200Y-97409000D01*
X148092800Y-98097800D02*
X151152400Y-98097800D01*
D33*
%TO.N,/Cathode_B*%
X151396600Y-93654000D02*
X152259000Y-93654000D01*
X148092800Y-96957800D02*
X151396600Y-93654000D01*
D36*
%TO.N,GND*%
X144500600Y-62458600D02*
X144500600Y-68014000D01*
D33*
X143662400Y-61620400D02*
X144500600Y-62458600D01*
X137326068Y-61620400D02*
X143662400Y-61620400D01*
D36*
%TO.N,/5V*%
X135763000Y-92303600D02*
X134412600Y-93654000D01*
X135280400Y-85191600D02*
X135305800Y-85191600D01*
X135305800Y-85191600D02*
X135763000Y-85648800D01*
X135763000Y-85648800D02*
X135763000Y-92303600D01*
X134742800Y-84654000D02*
X135280400Y-85191600D01*
X134412600Y-93654000D02*
X131559000Y-93654000D01*
X131559000Y-84654000D02*
X134742800Y-84654000D01*
D34*
X131559000Y-96202800D02*
X131559000Y-93654000D01*
D35*
%TO.N,Net-(Q4-G)*%
X120343300Y-96289500D02*
X120343300Y-95351600D01*
X121031000Y-96977200D02*
X120343300Y-96289500D01*
X124612400Y-96977200D02*
X121031000Y-96977200D01*
X125704600Y-95885000D02*
X124612400Y-96977200D01*
X125704600Y-94460700D02*
X125704600Y-95885000D01*
%TO.N,GND*%
X124893700Y-89128600D02*
X124893700Y-91824800D01*
X124893700Y-91824800D02*
X125704600Y-92635700D01*
D34*
X124612400Y-83616800D02*
X124612400Y-77316800D01*
D36*
%TO.N,/5V*%
X131559000Y-70472600D02*
X134340600Y-67691000D01*
X131559000Y-75184000D02*
X131559000Y-70472600D01*
D35*
%TO.N,/EN_G*%
X141960600Y-71076200D02*
X142121200Y-71236800D01*
X141960600Y-64381000D02*
X141960600Y-71076200D01*
%TO.N,/EN_R*%
X136880600Y-68808600D02*
X137261600Y-69189600D01*
X136880600Y-64385000D02*
X136880600Y-68808600D01*
D33*
%TO.N,GND*%
X133790534Y-63084866D02*
X124612400Y-72263000D01*
X124612400Y-72263000D02*
X124612400Y-77316800D01*
X137326068Y-61620400D02*
G75*
G03*
X133790550Y-63084882I32J-5000000D01*
G01*
D35*
%TO.N,Net-(Q4-D)*%
X121640600Y-88714000D02*
X121640600Y-86029800D01*
X121640600Y-86029800D02*
X123012200Y-86029800D01*
X123472400Y-85569600D02*
X123472400Y-83616800D01*
X123012200Y-86029800D02*
X123472400Y-85569600D01*
X120343300Y-86029800D02*
X121640600Y-86029800D01*
%TO.N,Net-(U1-Rs)*%
X126718700Y-88009100D02*
X126718700Y-89128600D01*
X125752400Y-87042800D02*
X126718700Y-88009100D01*
X125752400Y-83616800D02*
X125752400Y-87042800D01*
D34*
%TO.N,/Cathode_R*%
X129452400Y-87147400D02*
X131459000Y-89154000D01*
D33*
X128600200Y-87147400D02*
X129452400Y-87147400D01*
X126892400Y-85439600D02*
X128600200Y-87147400D01*
X126892400Y-83616800D02*
X126892400Y-85439600D01*
D35*
%TO.N,Net-(Q4-G)*%
X120343300Y-92481300D02*
X120690600Y-92134000D01*
X120343300Y-95351600D02*
X120343300Y-92481300D01*
%TO.N,GND*%
X124612400Y-88847300D02*
X124893700Y-89128600D01*
X124612400Y-83616800D02*
X124612400Y-88847300D01*
D34*
%TO.N,/5V*%
X118518300Y-95351600D02*
X118518300Y-86029800D01*
X119532400Y-83616800D02*
X122332400Y-83616800D01*
X118518300Y-84630900D02*
X119532400Y-83616800D01*
X118518300Y-86029800D02*
X118518300Y-84630900D01*
D35*
%TO.N,/EN_G*%
X142121200Y-63453400D02*
X142062200Y-63394400D01*
%TO.N,Net-(Q1-G)*%
X141679300Y-75158600D02*
X141679300Y-73166400D01*
D34*
%TO.N,GND*%
X146937100Y-79046300D02*
X146251800Y-79731600D01*
D33*
X146937100Y-75184000D02*
X146937100Y-79046300D01*
D34*
X139951800Y-79731600D02*
X146251800Y-79731600D01*
D35*
%TO.N,/5V*%
X131582500Y-75160500D02*
X131559000Y-75184000D01*
X136067800Y-75160500D02*
X131582500Y-75160500D01*
D36*
X131559000Y-75184000D02*
X131559000Y-84654000D01*
D35*
%TO.N,Net-(Q1-D)*%
X136015100Y-77038200D02*
X136067800Y-76985500D01*
X136910000Y-78591600D02*
X139951800Y-78591600D01*
X136067800Y-77749400D02*
X136910000Y-78591600D01*
X136067800Y-76985500D02*
X136067800Y-77749400D01*
%TO.N,/5V*%
X139951800Y-77451600D02*
X139951800Y-75256100D01*
X139852400Y-75160500D02*
X139854300Y-75158600D01*
X136067800Y-75160500D02*
X139852400Y-75160500D01*
X139951800Y-75256100D02*
X139854300Y-75158600D01*
%TO.N,Net-(U2-Rs)*%
X137238100Y-81786100D02*
X138152600Y-80871600D01*
X136093200Y-81786100D02*
X137238100Y-81786100D01*
X138152600Y-80871600D02*
X139951800Y-80871600D01*
%TO.N,GND*%
X139951800Y-79731600D02*
X136322700Y-79731600D01*
X136322700Y-79731600D02*
X136093200Y-79961100D01*
D33*
%TO.N,/Cathode_G*%
X139951800Y-82011600D02*
X139951800Y-83563800D01*
X141042000Y-84654000D02*
X152259000Y-84654000D01*
X139951800Y-83563800D02*
X141042000Y-84654000D01*
D35*
%TO.N,Net-(Q1-G)*%
X141679300Y-75158600D02*
X145086700Y-75158600D01*
X145086700Y-75158600D02*
X145112100Y-75184000D01*
%TD*%
M02*
