M48
; DRILL file {KiCad 7.0.2} date Sat Aug 12 01:48:46 2023
; FORMAT={-:-/ absolute / inch / decimal}
; #@! TF.CreationDate,2023-08-12T01:48:46+09:00
; #@! TF.GenerationSoftware,Kicad,Pcbnew,7.0.2
; #@! TF.FileFunction,Plated,1,2,PTH
FMAT,2
INCH
; #@! TA.AperFunction,Plated,PTH,ViaDrill
T1C0.0157
; #@! TA.AperFunction,Plated,PTH,ViaDrill
T2C0.0197
; #@! TA.AperFunction,Plated,PTH,ComponentDrill
T3C0.0394
; #@! TA.AperFunction,Plated,PTH,ComponentDrill
T4C0.0433
%
G90
G05
T1
X4.614Y-1.9074
X4.614Y-3.6461
X4.704Y-1.8174
X4.704Y-3.5561
X4.714Y-1.6474
X4.714Y-3.3861
X4.889Y-1.1224
X4.889Y-2.8611
X4.984Y-1.5124
X4.984Y-3.2511
X5.024Y-1.1234
X5.024Y-2.2254
X5.024Y-2.8621
X5.024Y-3.9641
X5.269Y-1.5824
X5.269Y-3.3211
X5.304Y-1.4524
X5.304Y-3.1911
X5.309Y-1.2824
X5.309Y-3.0211
X5.579Y-1.5324
X5.579Y-3.2711
X5.9665Y-1.5049
X5.9665Y-3.2436
X6.044Y-1.3824
X6.044Y-3.1211
X6.088Y-1.1694
X6.088Y-2.9081
X6.329Y-1.4524
X6.329Y-3.1911
X6.409Y-1.5574
X6.409Y-3.2961
X6.604Y-1.3674
X6.604Y-1.4524
X6.604Y-1.5274
X6.604Y-3.1061
X6.604Y-3.1911
X6.604Y-3.2661
X6.686Y-1.1894
X6.686Y-1.3254
X6.686Y-2.9281
X6.686Y-3.0641
X6.746Y-1.6254
X6.746Y-3.3641
X6.756Y-1.9134
X6.756Y-3.6521
X6.884Y-1.1874
X6.884Y-1.3274
X6.884Y-2.9261
X6.884Y-3.0661
T2
X4.939Y-2.0374
X4.939Y-3.7761
X5.884Y-1.3774
X5.884Y-3.1161
X6.184Y-1.6874
X6.184Y-3.4261
T3
X4.1864Y-1.7974
X4.1864Y-1.8974
X4.1864Y-1.9974
X4.1864Y-2.0974
X4.1864Y-2.1974
X4.1864Y-2.2974
X4.1864Y-3.5361
X4.1864Y-3.6361
X4.1864Y-3.7361
X4.1864Y-3.8361
X4.1864Y-3.9361
X4.1864Y-4.0361
X4.2864Y-1.7974
X4.2864Y-1.8974
X4.2864Y-1.9974
X4.2864Y-2.0974
X4.2864Y-2.1974
X4.2864Y-2.2974
X4.2864Y-3.5361
X4.2864Y-3.6361
X4.2864Y-3.7361
X4.2864Y-3.8361
X4.2864Y-3.9361
X4.2864Y-4.0361
T4
X5.284Y-1.0174
X5.284Y-2.2087
X5.284Y-2.7561
X5.284Y-3.9475
X5.384Y-1.0174
X5.384Y-2.2087
X5.384Y-2.7561
X5.384Y-3.9475
X5.484Y-1.0174
X5.484Y-2.2087
X5.484Y-2.7561
X5.484Y-3.9475
X5.584Y-1.0174
X5.584Y-2.2087
X5.584Y-2.7561
X5.584Y-3.9475
X5.684Y-1.0174
X5.684Y-2.2087
X5.684Y-2.7561
X5.684Y-3.9475
X5.784Y-1.0174
X5.784Y-2.2087
X5.784Y-2.7561
X5.784Y-3.9475
X5.884Y-1.0174
X5.884Y-2.2087
X5.884Y-2.7561
X5.884Y-3.9475
X5.984Y-1.0174
X5.984Y-2.2087
X5.984Y-2.7561
X5.984Y-3.9475
X6.084Y-1.0174
X6.084Y-2.2087
X6.084Y-2.7561
X6.084Y-3.9475
X6.184Y-1.0174
X6.184Y-2.2087
X6.184Y-2.7561
X6.184Y-3.9475
X6.284Y-1.0174
X6.284Y-2.2087
X6.284Y-2.7561
X6.284Y-3.9475
X6.384Y-1.0174
X6.384Y-2.2087
X6.384Y-2.7561
X6.384Y-3.9475
X6.484Y-1.0174
X6.484Y-2.2087
X6.484Y-2.7561
X6.484Y-3.9475
X6.584Y-1.0174
X6.584Y-2.2087
X6.584Y-2.7561
X6.584Y-3.9475
X6.684Y-1.0174
X6.684Y-2.2087
X6.684Y-2.7561
X6.684Y-3.9475
X6.784Y-1.0174
X6.784Y-2.2087
X6.784Y-2.7561
X6.784Y-3.9475
T0
M30
