%TF.GenerationSoftware,KiCad,Pcbnew,7.0.2*%
%TF.CreationDate,2023-08-12T01:48:42+09:00*%
%TF.ProjectId,Pmod_Matrix256,506d6f64-5f4d-4617-9472-69783235362e,rev?*%
%TF.SameCoordinates,Original*%
%TF.FileFunction,Profile,NP*%
%FSLAX46Y46*%
G04 Gerber Fmt 4.6, Leading zero omitted, Abs format (unit mm)*
G04 Created by KiCad (PCBNEW 7.0.2) date 2023-08-12 01:48:42*
%MOMM*%
%LPD*%
G01*
G04 APERTURE LIST*
%TA.AperFunction,Profile*%
%ADD10C,0.100000*%
%TD*%
G04 APERTURE END LIST*
D10*
X194776107Y-103631504D02*
X194787649Y-103479947D01*
X102746209Y-21286195D02*
X102662567Y-21413107D01*
X102836172Y-65327682D02*
X102746209Y-65450195D01*
X194067774Y-105282117D02*
X194163827Y-105164317D01*
X194163827Y-65327682D02*
X194067774Y-65209882D01*
X194163827Y-61000317D02*
X194253790Y-60877804D01*
X194484913Y-21678817D02*
X194414539Y-21544094D01*
X135569500Y-62164000D02*
X135569500Y-62164000D01*
X103141599Y-64989621D02*
X103034121Y-65097099D01*
X102243095Y-103782283D02*
X102269910Y-103931895D01*
X194548373Y-21816932D02*
X194484913Y-21678817D01*
X194730089Y-59767895D02*
X194756904Y-59618283D01*
X194756904Y-103782283D02*
X194776107Y-103631504D01*
X166430500Y-62164000D02*
X191791500Y-62164000D01*
X194776107Y-59467504D02*
X194787649Y-59315947D01*
X102585460Y-60619905D02*
X102662567Y-60750892D01*
X102836172Y-21163682D02*
X102746209Y-21286195D01*
X104456542Y-20095768D02*
X104310410Y-20137582D01*
X194163827Y-105164317D02*
X194253790Y-105041804D01*
X104025432Y-64407126D02*
X103887317Y-64470586D01*
X192095004Y-106312607D02*
X192245783Y-106293404D01*
X104166584Y-20186743D02*
X104025432Y-20243126D01*
X194653917Y-66265910D02*
X194604756Y-66122084D01*
X104025432Y-20243126D02*
X103887317Y-20306586D01*
X103372182Y-64791672D02*
X103254382Y-64887725D01*
X102515086Y-65842817D02*
X102451626Y-65980932D01*
X102208500Y-23000000D02*
X102208500Y-59164000D01*
X194791500Y-59164000D02*
X194791500Y-23000000D01*
X103141599Y-105502378D02*
X103254382Y-105604274D01*
X102836172Y-105164317D02*
X102932225Y-105282117D01*
X130569500Y-64164000D02*
X105208500Y-64164000D01*
X102208500Y-59164000D02*
X102212350Y-59315947D01*
X104166584Y-106141256D02*
X104310410Y-106190417D01*
X194604756Y-104369915D02*
X194653917Y-104226089D01*
X192689589Y-62026417D02*
X192833415Y-61977256D01*
X102304268Y-22248042D02*
X102269910Y-22396104D01*
X103752594Y-64540960D02*
X103621607Y-64618067D01*
X194791500Y-67164000D02*
X194787649Y-67012052D01*
X194695731Y-59915957D02*
X194730089Y-59767895D01*
X103494695Y-61626290D02*
X103621607Y-61709932D01*
X194337432Y-65577107D02*
X194253790Y-65450195D01*
X194776107Y-66860495D02*
X194756904Y-66709716D01*
X194756904Y-66709716D02*
X194730089Y-66560104D01*
X192095004Y-64179392D02*
X191943447Y-64167850D01*
X104904995Y-106312607D02*
X105056552Y-106324149D01*
X102223892Y-66860495D02*
X102212350Y-67012052D01*
X104904995Y-20015392D02*
X104754216Y-20034595D01*
X102662567Y-60750892D02*
X102746209Y-60877804D01*
X194163827Y-21163682D02*
X194067774Y-21045882D01*
X191943447Y-106324149D02*
X192095004Y-106312607D01*
X102346082Y-104226089D02*
X102395243Y-104369915D01*
X192095004Y-20015392D02*
X191943447Y-20003850D01*
X105208500Y-106328000D02*
X191791500Y-106328000D01*
X194414539Y-65708094D02*
X194337432Y-65577107D01*
X104754216Y-62129404D02*
X104904995Y-62148607D01*
X104604604Y-64225410D02*
X104456542Y-64259768D01*
X105056552Y-62160149D02*
X105208500Y-62164000D01*
X192245783Y-62129404D02*
X192395395Y-62102589D01*
X102932225Y-61118117D02*
X103034121Y-61230900D01*
X102269910Y-59767895D02*
X102304268Y-59915957D01*
X102346082Y-22101910D02*
X102304268Y-22248042D01*
X193505304Y-64701709D02*
X193378392Y-64618067D01*
X193745617Y-105604274D02*
X193858400Y-105502378D01*
X161430500Y-63164000D02*
X161430500Y-64164000D01*
X194787649Y-22848052D02*
X194776107Y-22696495D01*
X194791500Y-103328000D02*
X194791500Y-67164000D01*
X102746209Y-65450195D02*
X102662567Y-65577107D01*
X193627817Y-105700327D02*
X193745617Y-105604274D01*
X194337432Y-104914892D02*
X194414539Y-104783905D01*
X103254382Y-61440274D02*
X103372182Y-61536327D01*
X194253790Y-105041804D02*
X194337432Y-104914892D01*
X104754216Y-64198595D02*
X104604604Y-64225410D01*
X104754216Y-106293404D02*
X104904995Y-106312607D01*
X192833415Y-106141256D02*
X192974567Y-106084873D01*
X192395395Y-106266589D02*
X192543457Y-106232231D01*
X135569500Y-63164000D02*
X135569500Y-62164000D01*
X192543457Y-20095768D02*
X192395395Y-20061410D01*
X194776107Y-22696495D02*
X194756904Y-22545716D01*
X192689589Y-20137582D02*
X192543457Y-20095768D01*
X192689589Y-106190417D02*
X192833415Y-106141256D01*
X194548373Y-104511067D02*
X194604756Y-104369915D01*
X191943447Y-20003850D02*
X191791500Y-20000000D01*
X102346082Y-66265910D02*
X102304268Y-66412042D01*
X192974567Y-20243126D02*
X192833415Y-20186743D01*
X194791500Y-23000000D02*
X194787649Y-22848052D01*
X103494695Y-64701709D02*
X103372182Y-64791672D01*
X103372182Y-20627672D02*
X103254382Y-20723725D01*
X194604756Y-21958084D02*
X194548373Y-21816932D01*
X191791500Y-62164000D02*
X191943447Y-62160149D01*
X102223892Y-103631504D02*
X102243095Y-103782283D01*
X194414539Y-104783905D02*
X194484913Y-104649182D01*
X194653917Y-104226089D02*
X194695731Y-104079957D01*
X104604604Y-62102589D02*
X104754216Y-62129404D01*
X103141599Y-61338378D02*
X103254382Y-61440274D01*
X102395243Y-60205915D02*
X102451626Y-60347067D01*
X103254382Y-105604274D02*
X103372182Y-105700327D01*
X103621607Y-61709932D02*
X103752594Y-61787039D01*
X194484913Y-104649182D02*
X194548373Y-104511067D01*
X103254382Y-20723725D02*
X103141599Y-20825621D01*
X102223892Y-22696495D02*
X102212350Y-22848052D01*
X192833415Y-64350743D02*
X192689589Y-64301582D01*
X104904995Y-62148607D02*
X105056552Y-62160149D01*
X104166584Y-61977256D02*
X104310410Y-62026417D01*
X166430500Y-64164000D02*
X166430500Y-63164000D01*
X102243095Y-22545716D02*
X102223892Y-22696495D01*
X194730089Y-22396104D02*
X194695731Y-22248042D01*
X194756904Y-59618283D02*
X194776107Y-59467504D01*
X103254382Y-64887725D02*
X103141599Y-64989621D01*
X192974567Y-106084873D02*
X193112682Y-106021413D01*
X103887317Y-64470586D02*
X103752594Y-64540960D01*
X102451626Y-21816932D02*
X102395243Y-21958084D01*
X102212350Y-59315947D02*
X102223892Y-59467504D01*
X103494695Y-105790290D02*
X103621607Y-105873932D01*
X193627817Y-61536327D02*
X193745617Y-61440274D01*
X194548373Y-60347067D02*
X194604756Y-60205915D01*
X193378392Y-64618067D02*
X193247405Y-64540960D01*
X103372182Y-61536327D02*
X103494695Y-61626290D01*
X102395243Y-104369915D02*
X102451626Y-104511067D01*
X194695731Y-104079957D02*
X194730089Y-103931895D01*
X102746209Y-105041804D02*
X102836172Y-105164317D01*
X103494695Y-20537709D02*
X103372182Y-20627672D01*
X193627817Y-64791672D02*
X193505304Y-64701709D01*
X102662567Y-65577107D02*
X102585460Y-65708094D01*
X102585460Y-65708094D02*
X102515086Y-65842817D01*
X193247405Y-61787039D02*
X193378392Y-61709932D01*
X194787649Y-103479947D02*
X194791500Y-103328000D01*
X194604756Y-66122084D02*
X194548373Y-65980932D01*
X104904995Y-64179392D02*
X104754216Y-64198595D01*
X194604756Y-60205915D02*
X194653917Y-60062089D01*
X105056552Y-64167850D02*
X104904995Y-64179392D01*
X104310410Y-20137582D02*
X104166584Y-20186743D01*
X102932225Y-105282117D02*
X103034121Y-105394900D01*
X194067774Y-61118117D02*
X194163827Y-61000317D01*
X102208500Y-103328000D02*
X102212350Y-103479947D01*
X194414539Y-60619905D02*
X194484913Y-60485182D01*
X103752594Y-105951039D02*
X103887317Y-106021413D01*
X193112682Y-64470586D02*
X192974567Y-64407126D01*
X194067774Y-21045882D02*
X193965878Y-20933099D01*
X103621607Y-64618067D02*
X103494695Y-64701709D01*
X102395243Y-21958084D02*
X102346082Y-22101910D01*
X192395395Y-64225410D02*
X192245783Y-64198595D01*
X105056552Y-20003850D02*
X104904995Y-20015392D01*
X102662567Y-21413107D02*
X102585460Y-21544094D01*
X192833415Y-61977256D02*
X192974567Y-61920873D01*
X104604604Y-20061410D02*
X104456542Y-20095768D01*
X105208500Y-20000000D02*
X105056552Y-20003850D01*
X193627817Y-20627672D02*
X193505304Y-20537709D01*
X135569500Y-62164000D02*
X161430500Y-62164000D01*
X166430500Y-63164000D02*
X166430500Y-62164000D01*
X193858400Y-61338378D02*
X193965878Y-61230900D01*
X102304268Y-104079957D02*
X102346082Y-104226089D01*
X161430500Y-62164000D02*
X161430500Y-63164000D01*
X193745617Y-64887725D02*
X193627817Y-64791672D01*
X193378392Y-61709932D02*
X193505304Y-61626290D01*
X103621607Y-105873932D02*
X103752594Y-105951039D01*
X103621607Y-20454067D02*
X103494695Y-20537709D01*
X102746209Y-60877804D02*
X102836172Y-61000317D01*
X102243095Y-66709716D02*
X102223892Y-66860495D01*
X194653917Y-22101910D02*
X194604756Y-21958084D01*
X194484913Y-65842817D02*
X194414539Y-65708094D01*
X103141599Y-20825621D02*
X103034121Y-20933099D01*
X102304268Y-66412042D02*
X102269910Y-66560104D01*
X104166584Y-64350743D02*
X104025432Y-64407126D01*
X103887317Y-20306586D02*
X103752594Y-20376960D01*
X104604604Y-106266589D02*
X104754216Y-106293404D01*
X102212350Y-67012052D02*
X102208500Y-67164000D01*
X192245783Y-20034595D02*
X192095004Y-20015392D01*
X102585460Y-104783905D02*
X102662567Y-104914892D01*
X104456542Y-106232231D02*
X104604604Y-106266589D01*
X104456542Y-64259768D02*
X104310410Y-64301582D01*
X194337432Y-60750892D02*
X194414539Y-60619905D01*
X102212350Y-22848052D02*
X102208500Y-23000000D01*
X104310410Y-64301582D02*
X104166584Y-64350743D01*
X192543457Y-106232231D02*
X192689589Y-106190417D01*
X192095004Y-62148607D02*
X192245783Y-62129404D01*
X102451626Y-65980932D02*
X102395243Y-66122084D01*
X102212350Y-103479947D02*
X102223892Y-103631504D01*
X104025432Y-106084873D02*
X104166584Y-106141256D01*
X193965878Y-105394900D02*
X194067774Y-105282117D01*
X192245783Y-64198595D02*
X192095004Y-64179392D01*
X105056552Y-106324149D02*
X105208500Y-106328000D01*
X194337432Y-21413107D02*
X194253790Y-21286195D01*
X193378392Y-20454067D02*
X193247405Y-20376960D01*
X192395395Y-62102589D02*
X192543457Y-62068231D01*
X191791500Y-106328000D02*
X191943447Y-106324149D01*
X193505304Y-20537709D02*
X193378392Y-20454067D01*
X103034121Y-20933099D02*
X102932225Y-21045882D01*
X193745617Y-61440274D02*
X193858400Y-61338378D01*
X103887317Y-61857413D02*
X104025432Y-61920873D01*
X193965878Y-61230900D02*
X194067774Y-61118117D01*
X102243095Y-59618283D02*
X102269910Y-59767895D01*
X104310410Y-106190417D02*
X104456542Y-106232231D01*
X102269910Y-22396104D02*
X102243095Y-22545716D01*
X193378392Y-105873932D02*
X193505304Y-105790290D01*
X103752594Y-20376960D02*
X103621607Y-20454067D01*
X130569500Y-62164000D02*
X130569500Y-63164000D01*
X104310410Y-62026417D02*
X104456542Y-62068231D01*
X193745617Y-20723725D02*
X193627817Y-20627672D01*
X103887317Y-106021413D02*
X104025432Y-106084873D01*
X102932225Y-65209882D02*
X102836172Y-65327682D01*
X194787649Y-67012052D02*
X194776107Y-66860495D01*
X192395395Y-20061410D02*
X192245783Y-20034595D01*
X194653917Y-60062089D02*
X194695731Y-59915957D01*
X192689589Y-64301582D02*
X192543457Y-64259768D01*
X194548373Y-65980932D02*
X194484913Y-65842817D01*
X194253790Y-65450195D02*
X194163827Y-65327682D01*
X102304268Y-59915957D02*
X102346082Y-60062089D01*
X192543457Y-64259768D02*
X192395395Y-64225410D01*
X194787649Y-59315947D02*
X194791500Y-59164000D01*
X102451626Y-104511067D02*
X102515086Y-104649182D01*
X194253790Y-60877804D02*
X194337432Y-60750892D01*
X193858400Y-105502378D02*
X193965878Y-105394900D01*
X102515086Y-60485182D02*
X102585460Y-60619905D01*
X102269910Y-103931895D02*
X102304268Y-104079957D01*
X191791500Y-20000000D02*
X105208500Y-20000000D01*
X102269910Y-66560104D02*
X102243095Y-66709716D01*
X193247405Y-64540960D02*
X193112682Y-64470586D01*
X130569500Y-63164000D02*
X130569500Y-64164000D01*
X103034121Y-61230900D02*
X103141599Y-61338378D01*
X102932225Y-21045882D02*
X102836172Y-21163682D01*
X192245783Y-106293404D02*
X192395395Y-106266589D01*
X102662567Y-104914892D02*
X102746209Y-105041804D01*
X193505304Y-105790290D02*
X193627817Y-105700327D01*
X194730089Y-103931895D02*
X194756904Y-103782283D01*
X194695731Y-22248042D02*
X194653917Y-22101910D01*
X102515086Y-104649182D02*
X102585460Y-104783905D01*
X104754216Y-20034595D02*
X104604604Y-20061410D01*
X102208500Y-67164000D02*
X102208500Y-103328000D01*
X102451626Y-60347067D02*
X102515086Y-60485182D01*
X193965878Y-65097099D02*
X193858400Y-64989621D01*
X194730089Y-66560104D02*
X194695731Y-66412042D01*
X193112682Y-61857413D02*
X193247405Y-61787039D01*
X102836172Y-61000317D02*
X102932225Y-61118117D01*
X135569500Y-64164000D02*
X135569500Y-63164000D01*
X193112682Y-20306586D02*
X192974567Y-20243126D01*
X191943447Y-64167850D02*
X191791500Y-64164000D01*
X193505304Y-61626290D02*
X193627817Y-61536327D01*
X103752594Y-61787039D02*
X103887317Y-61857413D01*
X194756904Y-22545716D02*
X194730089Y-22396104D01*
X193247405Y-20376960D02*
X193112682Y-20306586D01*
X102346082Y-60062089D02*
X102395243Y-60205915D01*
X194695731Y-66412042D02*
X194653917Y-66265910D01*
X102395243Y-66122084D02*
X102346082Y-66265910D01*
X161430500Y-64164000D02*
X135569500Y-64164000D01*
X192974567Y-64407126D02*
X192833415Y-64350743D01*
X192833415Y-20186743D02*
X192689589Y-20137582D01*
X104025432Y-61920873D02*
X104166584Y-61977256D01*
X192543457Y-62068231D02*
X192689589Y-62026417D01*
X103034121Y-105394900D02*
X103141599Y-105502378D01*
X192974567Y-61920873D02*
X193112682Y-61857413D01*
X193858400Y-20825621D02*
X193745617Y-20723725D01*
X105208500Y-62164000D02*
X130569500Y-62164000D01*
X102515086Y-21678817D02*
X102451626Y-21816932D01*
X193858400Y-64989621D02*
X193745617Y-64887725D01*
X191791500Y-64164000D02*
X166430500Y-64164000D01*
X194253790Y-21286195D02*
X194163827Y-21163682D01*
X194067774Y-65209882D02*
X193965878Y-65097099D01*
X191943447Y-62160149D02*
X192095004Y-62148607D01*
X194414539Y-21544094D02*
X194337432Y-21413107D01*
X104456542Y-62068231D02*
X104604604Y-62102589D01*
X103034121Y-65097099D02*
X102932225Y-65209882D01*
X102223892Y-59467504D02*
X102243095Y-59618283D01*
X105208500Y-64164000D02*
X105056552Y-64167850D01*
X104754216Y-20034595D02*
X104754216Y-20034595D01*
X194484913Y-60485182D02*
X194548373Y-60347067D01*
X193112682Y-106021413D02*
X193247405Y-105951039D01*
X193965878Y-20933099D02*
X193858400Y-20825621D01*
X103372182Y-105700327D02*
X103494695Y-105790290D01*
X193247405Y-105951039D02*
X193378392Y-105873932D01*
X102585460Y-21544094D02*
X102515086Y-21678817D01*
M02*
