M48
; DRILL file {KiCad 8.0.2} date 2024-12-11T20:23:43+0900
; FORMAT={-:-/ absolute / inch / decimal}
; #@! TF.CreationDate,2024-12-11T20:23:43+09:00
; #@! TF.GenerationSoftware,Kicad,Pcbnew,8.0.2
; #@! TF.FileFunction,Plated,1,2,PTH
FMAT,2
INCH
; #@! TA.AperFunction,Plated,PTH,ViaDrill
T1C0.0157
; #@! TA.AperFunction,Plated,PTH,ComponentDrill
T2C0.0315
; #@! TA.AperFunction,Plated,PTH,ComponentDrill
T3C0.0394
; #@! TA.AperFunction,Plated,PTH,ComponentDrill
T4C0.0472
; #@! TA.AperFunction,Plated,PTH,ComponentDrill
T5C0.1063
%
G90
G05
T1
X3.515Y-3.095
X4.375Y-3.72
X4.62Y-3.78
X5.01Y-3.01
X5.19Y-3.85
X6.175Y-3.01
X6.175Y-3.85
X6.48Y-3.85
X6.905Y-3.01
X6.955Y-3.985
X6.955Y-4.11
T2
X4.515Y-3.8706
X4.515Y-3.9706
X4.515Y-4.0706
T3
X3.595Y-3.555
X3.595Y-3.655
X3.595Y-3.755
X3.595Y-3.855
X3.595Y-3.955
X3.595Y-4.055
X3.695Y-3.555
X3.695Y-3.655
X3.695Y-3.755
X3.695Y-3.855
X3.695Y-3.955
X3.695Y-4.055
X4.51Y-3.455
X4.51Y-3.555
X4.51Y-3.655
X4.755Y-3.795
X4.755Y-3.895
T4
X4.051Y-3.2616
X4.051Y-3.3616
X4.051Y-3.4616
X4.051Y-3.5616
X4.051Y-3.6616
X4.051Y-3.7616
X4.051Y-3.8616
X4.151Y-3.2616
X4.151Y-3.3616
X4.151Y-3.4616
X4.151Y-3.5616
X4.151Y-3.6616
X4.151Y-3.7616
X4.151Y-3.8616
X7.24Y-3.3616
X7.24Y-3.4616
X7.24Y-3.6616
X7.24Y-3.7616
T5
X4.051Y-3.0891
X4.051Y-4.034
X7.24Y-3.0891
X7.24Y-4.034
M30
