M48
; DRILL file {KiCad 7.0.9} date Sun Jan  7 02:48:40 2024
; FORMAT={-:-/ absolute / metric / decimal}
; #@! TF.CreationDate,2024-01-07T02:48:40+09:00
; #@! TF.GenerationSoftware,Kicad,Pcbnew,7.0.9
; #@! TF.FileFunction,Plated,1,2,PTH
FMAT,2
METRIC
; #@! TA.AperFunction,Plated,PTH,ViaDrill
T1C0.400
; #@! TA.AperFunction,Plated,PTH,ComponentDrill
T2C0.800
; #@! TA.AperFunction,Plated,PTH,ComponentDrill
T3C1.000
; #@! TA.AperFunction,Plated,PTH,ComponentDrill
T4C1.200
; #@! TA.AperFunction,Plated,PTH,ComponentDrill
T5C2.700
%
G90
G05
T1
X96.774Y-76.454
X120.523Y-96.012
X120.523Y-100.203
X127.254Y-76.454
X127.254Y-104.521
X156.845Y-76.454
X156.845Y-97.79
X156.845Y-104.394
X164.592Y-97.79
X175.387Y-76.454
X175.387Y-104.521
T2
X145.721Y-97.157
X145.721Y-99.697
X145.721Y-102.237
T3
X91.313Y-90.297
X91.313Y-92.837
X91.313Y-95.377
X91.313Y-97.917
X91.313Y-100.457
X91.313Y-102.997
X93.853Y-90.297
X93.853Y-92.837
X93.853Y-95.377
X93.853Y-97.917
X93.853Y-100.457
X93.853Y-102.997
X152.019Y-99.695
T4
X102.896Y-82.844
X102.896Y-85.384
X102.896Y-87.924
X102.896Y-90.464
X102.896Y-93.004
X102.896Y-95.544
X102.896Y-98.084
X105.436Y-82.844
X105.436Y-85.384
X105.436Y-87.924
X105.436Y-90.464
X105.436Y-93.004
X105.436Y-95.544
X105.436Y-98.084
X183.896Y-85.384
X183.896Y-87.924
X183.896Y-93.004
X183.896Y-95.544
T5
X102.896Y-78.464
X102.896Y-102.464
X183.896Y-78.464
X183.896Y-102.464
T0
M30
