%TF.GenerationSoftware,KiCad,Pcbnew,8.0.2*%
%TF.CreationDate,2024-12-11T20:23:40+09:00*%
%TF.ProjectId,Pmod_SC1602,506d6f64-5f53-4433-9136-30322e6b6963,rev?*%
%TF.SameCoordinates,Original*%
%TF.FileFunction,Legend,Bot*%
%TF.FilePolarity,Positive*%
%FSLAX46Y46*%
G04 Gerber Fmt 4.6, Leading zero omitted, Abs format (unit mm)*
G04 Created by KiCad (PCBNEW 8.0.2) date 2024-12-11 20:23:40*
%MOMM*%
%LPD*%
G01*
G04 APERTURE LIST*
%ADD10C,0.150000*%
%ADD11C,0.000000*%
G04 APERTURE END LIST*
D10*
X89325220Y-90801819D02*
X89325220Y-89801819D01*
X89325220Y-89801819D02*
X89087125Y-89801819D01*
X89087125Y-89801819D02*
X88944268Y-89849438D01*
X88944268Y-89849438D02*
X88849030Y-89944676D01*
X88849030Y-89944676D02*
X88801411Y-90039914D01*
X88801411Y-90039914D02*
X88753792Y-90230390D01*
X88753792Y-90230390D02*
X88753792Y-90373247D01*
X88753792Y-90373247D02*
X88801411Y-90563723D01*
X88801411Y-90563723D02*
X88849030Y-90658961D01*
X88849030Y-90658961D02*
X88944268Y-90754200D01*
X88944268Y-90754200D02*
X89087125Y-90801819D01*
X89087125Y-90801819D02*
X89325220Y-90801819D01*
X88420458Y-89801819D02*
X87753792Y-89801819D01*
X87753792Y-89801819D02*
X88182363Y-90801819D01*
X108629220Y-83308819D02*
X108629220Y-82308819D01*
X108629220Y-82308819D02*
X108391125Y-82308819D01*
X108391125Y-82308819D02*
X108248268Y-82356438D01*
X108248268Y-82356438D02*
X108153030Y-82451676D01*
X108153030Y-82451676D02*
X108105411Y-82546914D01*
X108105411Y-82546914D02*
X108057792Y-82737390D01*
X108057792Y-82737390D02*
X108057792Y-82880247D01*
X108057792Y-82880247D02*
X108105411Y-83070723D01*
X108105411Y-83070723D02*
X108153030Y-83165961D01*
X108153030Y-83165961D02*
X108248268Y-83261200D01*
X108248268Y-83261200D02*
X108391125Y-83308819D01*
X108391125Y-83308819D02*
X108629220Y-83308819D01*
X107200649Y-82308819D02*
X107391125Y-82308819D01*
X107391125Y-82308819D02*
X107486363Y-82356438D01*
X107486363Y-82356438D02*
X107533982Y-82404057D01*
X107533982Y-82404057D02*
X107629220Y-82546914D01*
X107629220Y-82546914D02*
X107676839Y-82737390D01*
X107676839Y-82737390D02*
X107676839Y-83118342D01*
X107676839Y-83118342D02*
X107629220Y-83213580D01*
X107629220Y-83213580D02*
X107581601Y-83261200D01*
X107581601Y-83261200D02*
X107486363Y-83308819D01*
X107486363Y-83308819D02*
X107295887Y-83308819D01*
X107295887Y-83308819D02*
X107200649Y-83261200D01*
X107200649Y-83261200D02*
X107153030Y-83213580D01*
X107153030Y-83213580D02*
X107105411Y-83118342D01*
X107105411Y-83118342D02*
X107105411Y-82880247D01*
X107105411Y-82880247D02*
X107153030Y-82785009D01*
X107153030Y-82785009D02*
X107200649Y-82737390D01*
X107200649Y-82737390D02*
X107295887Y-82689771D01*
X107295887Y-82689771D02*
X107486363Y-82689771D01*
X107486363Y-82689771D02*
X107581601Y-82737390D01*
X107581601Y-82737390D02*
X107629220Y-82785009D01*
X107629220Y-82785009D02*
X107676839Y-82880247D01*
X108629220Y-85975819D02*
X108629220Y-84975819D01*
X108629220Y-84975819D02*
X108391125Y-84975819D01*
X108391125Y-84975819D02*
X108248268Y-85023438D01*
X108248268Y-85023438D02*
X108153030Y-85118676D01*
X108153030Y-85118676D02*
X108105411Y-85213914D01*
X108105411Y-85213914D02*
X108057792Y-85404390D01*
X108057792Y-85404390D02*
X108057792Y-85547247D01*
X108057792Y-85547247D02*
X108105411Y-85737723D01*
X108105411Y-85737723D02*
X108153030Y-85832961D01*
X108153030Y-85832961D02*
X108248268Y-85928200D01*
X108248268Y-85928200D02*
X108391125Y-85975819D01*
X108391125Y-85975819D02*
X108629220Y-85975819D01*
X107200649Y-85309152D02*
X107200649Y-85975819D01*
X107438744Y-84928200D02*
X107676839Y-85642485D01*
X107676839Y-85642485D02*
X107057792Y-85642485D01*
X100247220Y-85848819D02*
X100247220Y-84848819D01*
X100247220Y-84848819D02*
X100009125Y-84848819D01*
X100009125Y-84848819D02*
X99866268Y-84896438D01*
X99866268Y-84896438D02*
X99771030Y-84991676D01*
X99771030Y-84991676D02*
X99723411Y-85086914D01*
X99723411Y-85086914D02*
X99675792Y-85277390D01*
X99675792Y-85277390D02*
X99675792Y-85420247D01*
X99675792Y-85420247D02*
X99723411Y-85610723D01*
X99723411Y-85610723D02*
X99771030Y-85705961D01*
X99771030Y-85705961D02*
X99866268Y-85801200D01*
X99866268Y-85801200D02*
X100009125Y-85848819D01*
X100009125Y-85848819D02*
X100247220Y-85848819D01*
X98771030Y-84848819D02*
X99247220Y-84848819D01*
X99247220Y-84848819D02*
X99294839Y-85325009D01*
X99294839Y-85325009D02*
X99247220Y-85277390D01*
X99247220Y-85277390D02*
X99151982Y-85229771D01*
X99151982Y-85229771D02*
X98913887Y-85229771D01*
X98913887Y-85229771D02*
X98818649Y-85277390D01*
X98818649Y-85277390D02*
X98771030Y-85325009D01*
X98771030Y-85325009D02*
X98723411Y-85420247D01*
X98723411Y-85420247D02*
X98723411Y-85658342D01*
X98723411Y-85658342D02*
X98771030Y-85753580D01*
X98771030Y-85753580D02*
X98818649Y-85801200D01*
X98818649Y-85801200D02*
X98913887Y-85848819D01*
X98913887Y-85848819D02*
X99151982Y-85848819D01*
X99151982Y-85848819D02*
X99247220Y-85801200D01*
X99247220Y-85801200D02*
X99294839Y-85753580D01*
X100247220Y-83308819D02*
X100247220Y-82308819D01*
X100247220Y-82308819D02*
X100009125Y-82308819D01*
X100009125Y-82308819D02*
X99866268Y-82356438D01*
X99866268Y-82356438D02*
X99771030Y-82451676D01*
X99771030Y-82451676D02*
X99723411Y-82546914D01*
X99723411Y-82546914D02*
X99675792Y-82737390D01*
X99675792Y-82737390D02*
X99675792Y-82880247D01*
X99675792Y-82880247D02*
X99723411Y-83070723D01*
X99723411Y-83070723D02*
X99771030Y-83165961D01*
X99771030Y-83165961D02*
X99866268Y-83261200D01*
X99866268Y-83261200D02*
X100009125Y-83308819D01*
X100009125Y-83308819D02*
X100247220Y-83308819D01*
X99342458Y-82308819D02*
X98675792Y-82308819D01*
X98675792Y-82308819D02*
X99104363Y-83308819D01*
X88753792Y-95786580D02*
X88801411Y-95834200D01*
X88801411Y-95834200D02*
X88944268Y-95881819D01*
X88944268Y-95881819D02*
X89039506Y-95881819D01*
X89039506Y-95881819D02*
X89182363Y-95834200D01*
X89182363Y-95834200D02*
X89277601Y-95738961D01*
X89277601Y-95738961D02*
X89325220Y-95643723D01*
X89325220Y-95643723D02*
X89372839Y-95453247D01*
X89372839Y-95453247D02*
X89372839Y-95310390D01*
X89372839Y-95310390D02*
X89325220Y-95119914D01*
X89325220Y-95119914D02*
X89277601Y-95024676D01*
X89277601Y-95024676D02*
X89182363Y-94929438D01*
X89182363Y-94929438D02*
X89039506Y-94881819D01*
X89039506Y-94881819D02*
X88944268Y-94881819D01*
X88944268Y-94881819D02*
X88801411Y-94929438D01*
X88801411Y-94929438D02*
X88753792Y-94977057D01*
X88182363Y-95881819D02*
X88277601Y-95834200D01*
X88277601Y-95834200D02*
X88325220Y-95786580D01*
X88325220Y-95786580D02*
X88372839Y-95691342D01*
X88372839Y-95691342D02*
X88372839Y-95405628D01*
X88372839Y-95405628D02*
X88325220Y-95310390D01*
X88325220Y-95310390D02*
X88277601Y-95262771D01*
X88277601Y-95262771D02*
X88182363Y-95215152D01*
X88182363Y-95215152D02*
X88039506Y-95215152D01*
X88039506Y-95215152D02*
X87944268Y-95262771D01*
X87944268Y-95262771D02*
X87896649Y-95310390D01*
X87896649Y-95310390D02*
X87849030Y-95405628D01*
X87849030Y-95405628D02*
X87849030Y-95691342D01*
X87849030Y-95691342D02*
X87896649Y-95786580D01*
X87896649Y-95786580D02*
X87944268Y-95834200D01*
X87944268Y-95834200D02*
X88039506Y-95881819D01*
X88039506Y-95881819D02*
X88182363Y-95881819D01*
X88991887Y-97898009D02*
X88849030Y-97945628D01*
X88849030Y-97945628D02*
X88801411Y-97993247D01*
X88801411Y-97993247D02*
X88753792Y-98088485D01*
X88753792Y-98088485D02*
X88753792Y-98231342D01*
X88753792Y-98231342D02*
X88801411Y-98326580D01*
X88801411Y-98326580D02*
X88849030Y-98374200D01*
X88849030Y-98374200D02*
X88944268Y-98421819D01*
X88944268Y-98421819D02*
X89325220Y-98421819D01*
X89325220Y-98421819D02*
X89325220Y-97421819D01*
X89325220Y-97421819D02*
X88991887Y-97421819D01*
X88991887Y-97421819D02*
X88896649Y-97469438D01*
X88896649Y-97469438D02*
X88849030Y-97517057D01*
X88849030Y-97517057D02*
X88801411Y-97612295D01*
X88801411Y-97612295D02*
X88801411Y-97707533D01*
X88801411Y-97707533D02*
X88849030Y-97802771D01*
X88849030Y-97802771D02*
X88896649Y-97850390D01*
X88896649Y-97850390D02*
X88991887Y-97898009D01*
X88991887Y-97898009D02*
X89325220Y-97898009D01*
X87849030Y-98421819D02*
X88325220Y-98421819D01*
X88325220Y-98421819D02*
X88325220Y-97421819D01*
X89325220Y-93341819D02*
X89325220Y-92341819D01*
X89325220Y-92341819D02*
X89087125Y-92341819D01*
X89087125Y-92341819D02*
X88944268Y-92389438D01*
X88944268Y-92389438D02*
X88849030Y-92484676D01*
X88849030Y-92484676D02*
X88801411Y-92579914D01*
X88801411Y-92579914D02*
X88753792Y-92770390D01*
X88753792Y-92770390D02*
X88753792Y-92913247D01*
X88753792Y-92913247D02*
X88801411Y-93103723D01*
X88801411Y-93103723D02*
X88849030Y-93198961D01*
X88849030Y-93198961D02*
X88944268Y-93294200D01*
X88944268Y-93294200D02*
X89087125Y-93341819D01*
X89087125Y-93341819D02*
X89325220Y-93341819D01*
X87801411Y-93341819D02*
X88372839Y-93341819D01*
X88087125Y-93341819D02*
X88087125Y-92341819D01*
X88087125Y-92341819D02*
X88182363Y-92484676D01*
X88182363Y-92484676D02*
X88277601Y-92579914D01*
X88277601Y-92579914D02*
X88372839Y-92627533D01*
D11*
%TO.C,G\u002A\u002A\u002A*%
G36*
X145056834Y-85997607D02*
G01*
X145366069Y-86036625D01*
X145406296Y-86042479D01*
X145723074Y-86077252D01*
X146119106Y-86105580D01*
X146567886Y-86125883D01*
X147042909Y-86136581D01*
X147303547Y-86140273D01*
X147658045Y-86149392D01*
X147913376Y-86162972D01*
X148076279Y-86181953D01*
X148153494Y-86207272D01*
X148151761Y-86239869D01*
X148077822Y-86280682D01*
X148045033Y-86290457D01*
X147894157Y-86308548D01*
X147662538Y-86316766D01*
X147367512Y-86316137D01*
X147026415Y-86307688D01*
X146656581Y-86292446D01*
X146275346Y-86271437D01*
X145900046Y-86245688D01*
X145548015Y-86216225D01*
X145236591Y-86184076D01*
X144983108Y-86150267D01*
X144804901Y-86115824D01*
X144719306Y-86081775D01*
X144698456Y-86054747D01*
X144718862Y-86006959D01*
X144839710Y-85987816D01*
X145056834Y-85997607D01*
G37*
G36*
X144694257Y-94145504D02*
G01*
X144938574Y-94158040D01*
X145097970Y-94181123D01*
X145160180Y-94214757D01*
X145140133Y-94229333D01*
X145023744Y-94251172D01*
X144810982Y-94272085D01*
X144510026Y-94291333D01*
X144129056Y-94308174D01*
X143818778Y-94321137D01*
X143470247Y-94339163D01*
X143155124Y-94358966D01*
X142898910Y-94378925D01*
X142727108Y-94397415D01*
X142536220Y-94421059D01*
X142267403Y-94443796D01*
X142020261Y-94453764D01*
X141816660Y-94450803D01*
X141678465Y-94434754D01*
X141627541Y-94405456D01*
X141627610Y-94399751D01*
X141633310Y-94373593D01*
X141657480Y-94352159D01*
X141713141Y-94333536D01*
X141813314Y-94315812D01*
X141971018Y-94297074D01*
X142199276Y-94275408D01*
X142511107Y-94248902D01*
X142919532Y-94215643D01*
X143113054Y-94200721D01*
X143574418Y-94171122D01*
X143999915Y-94152049D01*
X144377283Y-94143508D01*
X144694257Y-94145504D01*
G37*
G36*
X143610945Y-90680944D02*
G01*
X143685379Y-90717402D01*
X143689903Y-90773632D01*
X143613052Y-90837005D01*
X143441158Y-90901935D01*
X143166935Y-90971998D01*
X142930972Y-91027071D01*
X142643778Y-91097674D01*
X142397238Y-91161723D01*
X142226017Y-91206890D01*
X141956602Y-91274617D01*
X141721191Y-91330377D01*
X141714206Y-91331956D01*
X141498080Y-91389782D01*
X141391018Y-91440712D01*
X141392396Y-91485296D01*
X141501591Y-91524085D01*
X141544733Y-91534247D01*
X141715135Y-91579523D01*
X141902433Y-91634392D01*
X141940761Y-91645962D01*
X142113693Y-91695902D01*
X142356898Y-91764165D01*
X142643599Y-91843283D01*
X142947022Y-91925785D01*
X143270713Y-92020584D01*
X143628179Y-92141993D01*
X143958867Y-92270915D01*
X144246890Y-92400157D01*
X144476362Y-92522524D01*
X144631396Y-92630823D01*
X144696106Y-92717859D01*
X144695879Y-92753104D01*
X144628801Y-92851596D01*
X144480479Y-92942541D01*
X144271869Y-93015298D01*
X144023923Y-93059224D01*
X143981361Y-93063228D01*
X143776471Y-93079613D01*
X143501552Y-93098753D01*
X143187336Y-93118586D01*
X142864554Y-93137047D01*
X142670496Y-93147533D01*
X142325646Y-93166012D01*
X142071136Y-93178732D01*
X141893658Y-93185601D01*
X141779904Y-93186525D01*
X141716567Y-93181413D01*
X141690338Y-93170172D01*
X141687910Y-93152710D01*
X141695973Y-93128935D01*
X141720637Y-93098272D01*
X141795559Y-93064919D01*
X141929151Y-93035554D01*
X142131664Y-93008885D01*
X142413351Y-92983616D01*
X142784463Y-92958454D01*
X143255253Y-92932105D01*
X143522782Y-92916602D01*
X143903996Y-92886478D01*
X144183391Y-92851493D01*
X144366101Y-92810693D01*
X144457261Y-92763123D01*
X144462003Y-92707831D01*
X144417096Y-92663679D01*
X144267667Y-92575974D01*
X144035011Y-92471340D01*
X143733630Y-92355238D01*
X143378027Y-92233126D01*
X142982707Y-92110464D01*
X142562173Y-91992710D01*
X142274221Y-91915500D01*
X141885750Y-91806711D01*
X141589267Y-91716006D01*
X141375248Y-91639859D01*
X141234169Y-91574744D01*
X141156507Y-91517135D01*
X141132736Y-91463505D01*
X141140638Y-91429301D01*
X141230396Y-91336958D01*
X141407258Y-91247288D01*
X141655030Y-91169409D01*
X141717834Y-91153821D01*
X142103780Y-91057894D01*
X142467840Y-90967194D01*
X142781729Y-90888774D01*
X143017161Y-90829690D01*
X143106077Y-90804998D01*
X143242505Y-90756182D01*
X143309042Y-90716090D01*
X143365133Y-90684566D01*
X143485582Y-90669933D01*
X143610945Y-90680944D01*
G37*
G36*
X143904335Y-83278792D02*
G01*
X143873028Y-83325536D01*
X143901640Y-83396126D01*
X144007179Y-83509430D01*
X144184035Y-83680362D01*
X144541394Y-83567151D01*
X144752344Y-83500886D01*
X144977953Y-83433847D01*
X145149130Y-83391544D01*
X145295020Y-83368325D01*
X145444769Y-83358538D01*
X145627525Y-83356532D01*
X145995280Y-83373944D01*
X146455222Y-83452083D01*
X146925237Y-83600078D01*
X147435006Y-83825631D01*
X147659551Y-83940220D01*
X148136718Y-84216270D01*
X148546141Y-84509789D01*
X148917013Y-84843152D01*
X149278526Y-85238737D01*
X149331462Y-85305882D01*
X149471868Y-85524703D01*
X149592730Y-85766532D01*
X149677433Y-85995267D01*
X149709359Y-86174809D01*
X149716816Y-86234388D01*
X149760146Y-86241260D01*
X149869143Y-86190581D01*
X150015493Y-86125000D01*
X150308066Y-86024995D01*
X150652968Y-85932712D01*
X151019205Y-85854494D01*
X151375783Y-85796682D01*
X151691707Y-85765619D01*
X151935983Y-85767648D01*
X151997004Y-85778572D01*
X152171101Y-85860832D01*
X152298746Y-85993772D01*
X152346991Y-86144069D01*
X152348320Y-86148210D01*
X152342278Y-86183538D01*
X152270296Y-86316102D01*
X152129181Y-86490807D01*
X151934265Y-86692447D01*
X151700880Y-86905816D01*
X151444358Y-87115708D01*
X151180030Y-87306917D01*
X151077105Y-87377161D01*
X150911079Y-87495890D01*
X150796607Y-87585208D01*
X150753948Y-87629766D01*
X150754534Y-87633915D01*
X150795620Y-87702567D01*
X150881616Y-87806770D01*
X150899624Y-87827531D01*
X151017659Y-88002119D01*
X151141695Y-88240106D01*
X151263598Y-88518514D01*
X151375234Y-88814366D01*
X151468465Y-89104684D01*
X151535159Y-89366490D01*
X151567179Y-89576808D01*
X151556390Y-89712660D01*
X151522553Y-89747243D01*
X151389891Y-89781246D01*
X151174405Y-89785738D01*
X150890508Y-89760807D01*
X150552615Y-89706542D01*
X150524597Y-89701255D01*
X150290455Y-89662173D01*
X150077965Y-89634550D01*
X149930081Y-89624074D01*
X149738465Y-89624065D01*
X149962231Y-89847830D01*
X150185997Y-90071596D01*
X150415360Y-89952045D01*
X150415815Y-89951808D01*
X150565253Y-89880453D01*
X150668932Y-89857287D01*
X150735691Y-89894661D01*
X150774366Y-90004928D01*
X150793796Y-90200437D01*
X150802818Y-90493541D01*
X150803435Y-90525204D01*
X150806398Y-90799592D01*
X150795886Y-90984457D01*
X150794460Y-90989210D01*
X150761684Y-91098426D01*
X150693582Y-91160126D01*
X150581367Y-91188184D01*
X150414828Y-91201224D01*
X150379843Y-91203715D01*
X150182512Y-91224865D01*
X149933531Y-91258986D01*
X149678266Y-91299996D01*
X149465963Y-91335525D01*
X149217055Y-91369937D01*
X149054658Y-91379625D01*
X148966339Y-91365040D01*
X148939662Y-91326628D01*
X148950478Y-91257428D01*
X149015550Y-91094406D01*
X149118499Y-90921227D01*
X149234958Y-90782771D01*
X149343138Y-90667712D01*
X149374501Y-90586408D01*
X149310766Y-90556959D01*
X149254822Y-90539913D01*
X149128501Y-90452023D01*
X148982237Y-90309724D01*
X148841695Y-90136047D01*
X148717150Y-89960799D01*
X148448245Y-90225491D01*
X148303321Y-90355599D01*
X148115571Y-90498094D01*
X147956158Y-90593163D01*
X147864857Y-90639164D01*
X147756150Y-90726131D01*
X147746714Y-90816997D01*
X147830582Y-90927659D01*
X147864884Y-90963862D01*
X147972787Y-91092855D01*
X148088608Y-91245926D01*
X148132422Y-91306108D01*
X148258728Y-91472002D01*
X148365762Y-91603285D01*
X148456109Y-91744227D01*
X148517889Y-91915364D01*
X148528442Y-91962530D01*
X148584148Y-92141367D01*
X148658738Y-92327702D01*
X148709520Y-92451648D01*
X148814031Y-92801003D01*
X148894568Y-93205294D01*
X148947844Y-93633082D01*
X148962254Y-93899270D01*
X148970572Y-94052925D01*
X148959465Y-94433386D01*
X148911237Y-94743023D01*
X148830956Y-94998798D01*
X148707617Y-95311318D01*
X148566794Y-95613810D01*
X148429484Y-95857691D01*
X148353785Y-95960338D01*
X148125113Y-96193509D01*
X147834823Y-96422282D01*
X147513956Y-96625944D01*
X147193554Y-96783785D01*
X146904661Y-96875090D01*
X146728523Y-96910151D01*
X146514330Y-96954627D01*
X146355680Y-96989624D01*
X146345793Y-96991769D01*
X146197971Y-97009320D01*
X145960538Y-97022902D01*
X145651779Y-97032518D01*
X145289983Y-97038170D01*
X144893437Y-97039864D01*
X144480426Y-97037600D01*
X144069239Y-97031384D01*
X143678163Y-97021217D01*
X143325484Y-97007103D01*
X143029489Y-96989046D01*
X142992399Y-96986080D01*
X142719491Y-96959737D01*
X142363828Y-96919792D01*
X141947501Y-96869010D01*
X141492603Y-96810158D01*
X141021226Y-96746002D01*
X140555463Y-96679306D01*
X140458973Y-96665143D01*
X139997641Y-96598345D01*
X139540794Y-96533575D01*
X139109279Y-96473699D01*
X138723948Y-96421584D01*
X138405650Y-96380095D01*
X138175236Y-96352099D01*
X137931073Y-96320713D01*
X137607274Y-96269783D01*
X137307963Y-96213435D01*
X137075669Y-96159134D01*
X136816325Y-96088711D01*
X136548621Y-96019626D01*
X136293233Y-95959131D01*
X135998601Y-95894562D01*
X135973152Y-95888613D01*
X135731412Y-95797238D01*
X135445182Y-95641462D01*
X135138505Y-95438337D01*
X134835422Y-95204915D01*
X134559976Y-94958251D01*
X134336207Y-94715397D01*
X134335915Y-94715036D01*
X134223204Y-94553868D01*
X134083938Y-94322937D01*
X133935788Y-94053029D01*
X133796425Y-93774930D01*
X133784662Y-93750142D01*
X133660014Y-93483411D01*
X133573724Y-93280679D01*
X133516829Y-93109591D01*
X133480365Y-92937792D01*
X133455370Y-92732928D01*
X133432881Y-92462645D01*
X133423513Y-92327406D01*
X133417814Y-92044264D01*
X133580828Y-92044264D01*
X133600901Y-92445621D01*
X133604784Y-92495734D01*
X133625740Y-92734008D01*
X133651516Y-92920353D01*
X133690798Y-93084917D01*
X133752273Y-93257845D01*
X133844625Y-93469285D01*
X133976541Y-93749384D01*
X134058038Y-93916897D01*
X134254916Y-94282649D01*
X134452648Y-94579569D01*
X134673126Y-94834306D01*
X134938239Y-95073505D01*
X135269876Y-95323816D01*
X135330399Y-95366568D01*
X135560561Y-95519450D01*
X135752158Y-95622958D01*
X135942264Y-95694794D01*
X136167951Y-95752661D01*
X136182834Y-95755975D01*
X136428642Y-95813233D01*
X136665634Y-95872376D01*
X136844424Y-95921106D01*
X136947075Y-95951173D01*
X137236125Y-96029997D01*
X137489282Y-96085854D01*
X137755108Y-96128402D01*
X138082165Y-96167300D01*
X138098564Y-96169099D01*
X138308266Y-96194879D01*
X138604417Y-96234703D01*
X138966996Y-96285713D01*
X139375981Y-96345050D01*
X139811351Y-96409855D01*
X140253082Y-96477269D01*
X140289370Y-96482870D01*
X140735339Y-96550124D01*
X141176650Y-96614010D01*
X141592523Y-96671707D01*
X141962177Y-96720396D01*
X142264831Y-96757255D01*
X142479706Y-96779464D01*
X142653246Y-96792091D01*
X142957220Y-96808325D01*
X143316175Y-96822579D01*
X143713626Y-96834645D01*
X144133086Y-96844316D01*
X144558068Y-96851385D01*
X144972087Y-96855644D01*
X145358655Y-96856885D01*
X145701287Y-96854902D01*
X145983497Y-96849487D01*
X146188797Y-96840433D01*
X146300701Y-96827531D01*
X146419263Y-96799892D01*
X146626157Y-96755341D01*
X146846446Y-96710842D01*
X147003738Y-96669267D01*
X147325265Y-96533601D01*
X147653461Y-96341061D01*
X147952605Y-96113932D01*
X148186979Y-95874500D01*
X148459277Y-95459297D01*
X148668726Y-94961464D01*
X148784831Y-94433453D01*
X148800142Y-93899270D01*
X148792293Y-93799765D01*
X148743613Y-93384319D01*
X148673649Y-92989906D01*
X148588384Y-92646152D01*
X148493803Y-92382680D01*
X148467714Y-92322576D01*
X148396964Y-92131211D01*
X148352954Y-91970343D01*
X148297366Y-91813116D01*
X148198634Y-91658264D01*
X148093415Y-91531525D01*
X147999717Y-91404935D01*
X147954570Y-91343428D01*
X147843362Y-91206832D01*
X147711005Y-91055197D01*
X147499447Y-90821341D01*
X147133732Y-90906394D01*
X146973832Y-90938587D01*
X146707450Y-90982256D01*
X146402684Y-91024581D01*
X146098955Y-91059721D01*
X145885134Y-91080889D01*
X145654232Y-91098814D01*
X145475399Y-91101251D01*
X145315195Y-91086463D01*
X145140182Y-91052709D01*
X144916920Y-90998252D01*
X144795787Y-90968370D01*
X144566140Y-90915791D01*
X144379103Y-90878156D01*
X144266502Y-90862125D01*
X144221949Y-90855431D01*
X144064867Y-90804084D01*
X143867098Y-90717461D01*
X143664734Y-90613543D01*
X143493862Y-90510308D01*
X143390572Y-90425737D01*
X143341471Y-90376381D01*
X143272659Y-90338783D01*
X143250782Y-90334982D01*
X143214178Y-90314276D01*
X143152452Y-90264824D01*
X143051991Y-90174842D01*
X142899181Y-90032546D01*
X142680409Y-89826152D01*
X142670583Y-89816912D01*
X142525803Y-89692572D01*
X142409304Y-89612828D01*
X142345507Y-89594568D01*
X142297575Y-89602816D01*
X142151321Y-89613775D01*
X141923123Y-89625086D01*
X141628393Y-89636108D01*
X141282539Y-89646198D01*
X140900972Y-89654716D01*
X140667855Y-89659513D01*
X139932108Y-89680435D01*
X139295956Y-89709012D01*
X138751502Y-89746377D01*
X138290849Y-89793660D01*
X137906100Y-89851996D01*
X137589359Y-89922514D01*
X137332727Y-90006349D01*
X137128309Y-90104631D01*
X136968206Y-90218492D01*
X136824068Y-90363247D01*
X136709516Y-90556180D01*
X136700446Y-90732070D01*
X136797759Y-90887387D01*
X136912745Y-90979330D01*
X137118736Y-91092590D01*
X137391086Y-91195536D01*
X137738515Y-91290458D01*
X138169740Y-91379649D01*
X138693479Y-91465402D01*
X139318450Y-91550006D01*
X139367775Y-91556306D01*
X139680290Y-91604814D01*
X139893241Y-91655319D01*
X140003166Y-91706775D01*
X140006603Y-91758134D01*
X139946401Y-91771740D01*
X139797529Y-91783920D01*
X139583807Y-91792560D01*
X139328409Y-91796353D01*
X139254247Y-91796779D01*
X138964129Y-91803822D01*
X138753006Y-91821436D01*
X138595512Y-91852689D01*
X138466286Y-91900650D01*
X138436692Y-91914376D01*
X138226714Y-92011470D01*
X138023336Y-92105142D01*
X137977024Y-92127509D01*
X137808661Y-92224040D01*
X137682020Y-92317767D01*
X137592610Y-92394615D01*
X137539450Y-92427961D01*
X137518173Y-92440643D01*
X137436331Y-92511206D01*
X137320109Y-92623012D01*
X137221579Y-92728692D01*
X137100896Y-92909064D01*
X137080986Y-93055505D01*
X137162124Y-93175329D01*
X137344585Y-93275853D01*
X137445669Y-93312920D01*
X137602820Y-93349846D01*
X137772629Y-93355645D01*
X137986005Y-93330243D01*
X138273861Y-93273564D01*
X138274386Y-93273450D01*
X138535542Y-93227705D01*
X138814182Y-93196572D01*
X139094431Y-93179444D01*
X139360412Y-93175713D01*
X139596249Y-93184768D01*
X139786066Y-93206003D01*
X139913988Y-93238808D01*
X139964138Y-93282574D01*
X139920639Y-93336694D01*
X139919526Y-93337346D01*
X139835064Y-93359905D01*
X139665466Y-93387952D01*
X139434431Y-93418893D01*
X139165654Y-93450137D01*
X138882834Y-93479092D01*
X138609666Y-93503167D01*
X138369847Y-93519768D01*
X138187075Y-93526305D01*
X138047904Y-93533692D01*
X137855997Y-93583067D01*
X137653776Y-93695829D01*
X137474632Y-93824982D01*
X137237733Y-94049125D01*
X137101634Y-94263833D01*
X137066727Y-94463174D01*
X137133408Y-94641214D01*
X137302070Y-94792021D01*
X137573109Y-94909662D01*
X138014762Y-95030968D01*
X138612478Y-95156504D01*
X139181004Y-95234631D01*
X139326888Y-95247674D01*
X139779980Y-95281314D01*
X140288772Y-95310596D01*
X140841439Y-95335463D01*
X141426159Y-95355860D01*
X142031106Y-95371732D01*
X142644456Y-95383023D01*
X143254387Y-95389679D01*
X143849073Y-95391643D01*
X144416690Y-95388860D01*
X144945415Y-95381274D01*
X145423424Y-95368831D01*
X145838892Y-95351475D01*
X146179995Y-95329150D01*
X146434910Y-95301801D01*
X146591812Y-95269373D01*
X146722153Y-95211963D01*
X146901179Y-95112353D01*
X147098982Y-94988522D01*
X147292673Y-94856155D01*
X147459363Y-94730936D01*
X147576162Y-94628551D01*
X147620182Y-94564684D01*
X147639739Y-94516696D01*
X147709178Y-94400901D01*
X147811540Y-94251036D01*
X147850525Y-94192708D01*
X147988563Y-93909855D01*
X148088971Y-93581479D01*
X148140911Y-93250979D01*
X148133542Y-92961755D01*
X148106069Y-92826768D01*
X147958976Y-92422623D01*
X147724073Y-92027718D01*
X147415676Y-91667857D01*
X147270802Y-91521519D01*
X147156817Y-91389974D01*
X147110806Y-91305310D01*
X147123536Y-91254458D01*
X147171246Y-91243246D01*
X147253829Y-91288278D01*
X147381977Y-91400096D01*
X147567804Y-91587789D01*
X147676511Y-91706571D01*
X147983482Y-92118465D01*
X148194947Y-92539953D01*
X148304216Y-92958583D01*
X148310684Y-93018606D01*
X148303556Y-93343969D01*
X148240290Y-93693956D01*
X148131331Y-94024652D01*
X147987118Y-94292143D01*
X147914166Y-94397430D01*
X147822298Y-94541206D01*
X147772362Y-94634676D01*
X147729769Y-94696402D01*
X147605810Y-94814941D01*
X147427525Y-94957889D01*
X147218821Y-95108238D01*
X147003606Y-95248981D01*
X146805788Y-95363111D01*
X146649274Y-95433620D01*
X146583984Y-95452510D01*
X146480737Y-95472861D01*
X146344148Y-95489755D01*
X146163273Y-95503701D01*
X145927167Y-95515210D01*
X145624883Y-95524790D01*
X145245479Y-95532951D01*
X144778007Y-95540201D01*
X144211524Y-95547051D01*
X143899065Y-95549878D01*
X143035203Y-95551213D01*
X142207376Y-95543056D01*
X141424802Y-95525852D01*
X140696703Y-95500046D01*
X140032299Y-95466080D01*
X139440810Y-95424398D01*
X138931456Y-95375445D01*
X138513458Y-95319664D01*
X138196035Y-95257500D01*
X137977506Y-95202411D01*
X137679327Y-95120320D01*
X137457353Y-95045999D01*
X137291564Y-94971251D01*
X137161939Y-94887880D01*
X137048458Y-94787690D01*
X136979189Y-94717435D01*
X136898948Y-94616150D01*
X136869206Y-94515942D01*
X136883346Y-94381253D01*
X136934754Y-94176525D01*
X136936285Y-94171789D01*
X136993834Y-94085357D01*
X137109474Y-93955699D01*
X137260039Y-93808990D01*
X137286601Y-93784469D01*
X137418550Y-93653776D01*
X137501490Y-93556029D01*
X137518434Y-93510827D01*
X137507030Y-93505220D01*
X137411674Y-93468455D01*
X137268559Y-93419884D01*
X137254759Y-93415314D01*
X137046023Y-93302748D01*
X136933768Y-93146459D01*
X136918939Y-92956706D01*
X137002484Y-92743748D01*
X137185349Y-92517845D01*
X137297729Y-92414926D01*
X137475207Y-92269183D01*
X137666725Y-92124985D01*
X137847874Y-91999806D01*
X137994248Y-91911118D01*
X138081437Y-91876392D01*
X138124389Y-91865476D01*
X138247590Y-91818253D01*
X138409174Y-91746755D01*
X138681933Y-91619253D01*
X138409174Y-91580734D01*
X138233735Y-91554264D01*
X137896159Y-91493943D01*
X137594517Y-91428148D01*
X137353288Y-91362497D01*
X137196947Y-91302604D01*
X137191968Y-91300022D01*
X137064623Y-91242689D01*
X136978869Y-91218776D01*
X136943587Y-91205542D01*
X136840797Y-91135606D01*
X136710519Y-91025745D01*
X136628454Y-90948182D01*
X136546045Y-90846387D01*
X136519616Y-90744760D01*
X136530754Y-90599662D01*
X136545927Y-90513108D01*
X136594349Y-90387002D01*
X136689323Y-90263036D01*
X136852394Y-90108299D01*
X136871167Y-90091739D01*
X137031987Y-89961476D01*
X137182754Y-89872114D01*
X137363044Y-89804434D01*
X137612432Y-89739218D01*
X137701017Y-89719070D01*
X137926285Y-89675067D01*
X138177681Y-89636579D01*
X138464519Y-89603044D01*
X138796114Y-89573902D01*
X139181779Y-89548590D01*
X139630830Y-89526547D01*
X140152580Y-89507213D01*
X140756343Y-89490024D01*
X141451433Y-89474421D01*
X142247165Y-89459840D01*
X142256707Y-89451309D01*
X142241462Y-89379233D01*
X142187031Y-89257618D01*
X142108830Y-89115522D01*
X142022274Y-88982002D01*
X141942780Y-88886114D01*
X141912562Y-88859031D01*
X141855866Y-88824405D01*
X141777523Y-88806894D01*
X141655631Y-88805299D01*
X141468283Y-88818418D01*
X141193575Y-88845050D01*
X141030004Y-88862087D01*
X140655016Y-88903459D01*
X140265401Y-88948873D01*
X139923212Y-88991190D01*
X139853780Y-88999981D01*
X139538961Y-89037385D01*
X139166392Y-89078777D01*
X138776900Y-89119713D01*
X138411307Y-89155749D01*
X138210853Y-89175195D01*
X137503859Y-89254453D01*
X136891699Y-89343706D01*
X136362452Y-89447088D01*
X135904194Y-89568738D01*
X135505002Y-89712791D01*
X135152954Y-89883382D01*
X134836127Y-90084649D01*
X134542597Y-90320728D01*
X134260441Y-90595755D01*
X134217106Y-90641737D01*
X133958198Y-90935447D01*
X133775146Y-91194423D01*
X133657921Y-91446797D01*
X133596491Y-91720700D01*
X133580828Y-92044264D01*
X133417814Y-92044264D01*
X133415267Y-91917707D01*
X133451762Y-91576162D01*
X133542792Y-91277639D01*
X133698152Y-90997003D01*
X133927637Y-90709120D01*
X134241042Y-90388855D01*
X134374656Y-90263241D01*
X134663194Y-90015494D01*
X134952138Y-89806362D01*
X135255183Y-89631030D01*
X135586023Y-89484685D01*
X135958350Y-89362509D01*
X136385860Y-89259690D01*
X136882244Y-89171412D01*
X137461198Y-89092861D01*
X138136415Y-89019221D01*
X138401456Y-88992165D01*
X138808980Y-88948843D01*
X139212782Y-88904157D01*
X139577616Y-88862032D01*
X139868234Y-88826392D01*
X140095394Y-88797918D01*
X140477914Y-88752208D01*
X140864142Y-88708225D01*
X141197743Y-88672492D01*
X141464608Y-88643408D01*
X141649937Y-88617153D01*
X141756342Y-88591174D01*
X141799506Y-88561584D01*
X141795114Y-88524497D01*
X141768760Y-88465258D01*
X141714006Y-88254282D01*
X141674089Y-87971421D01*
X141649859Y-87643127D01*
X141645493Y-87445947D01*
X141799169Y-87445947D01*
X141821324Y-87804569D01*
X141868240Y-88117182D01*
X141888047Y-88207409D01*
X141937811Y-88401102D01*
X141985897Y-88513938D01*
X142043632Y-88566526D01*
X142122346Y-88579476D01*
X142158620Y-88581790D01*
X142246309Y-88619483D01*
X142257864Y-88678783D01*
X142180658Y-88727609D01*
X142142237Y-88738662D01*
X142095180Y-88775921D01*
X142141232Y-88847610D01*
X142161967Y-88873671D01*
X142244219Y-88999614D01*
X142331491Y-89156749D01*
X142399775Y-89265872D01*
X142564834Y-89468186D01*
X142784606Y-89697353D01*
X143036865Y-89932963D01*
X143299385Y-90154606D01*
X143549940Y-90341872D01*
X143766304Y-90474350D01*
X143793010Y-90487953D01*
X143904662Y-90537297D01*
X143963244Y-90533501D01*
X144005488Y-90476968D01*
X144008096Y-90472352D01*
X144050518Y-90423303D01*
X144107466Y-90439573D01*
X144209044Y-90528831D01*
X144315340Y-90606101D01*
X144502827Y-90703360D01*
X144712068Y-90783553D01*
X144971279Y-90847584D01*
X145447992Y-90902958D01*
X145984375Y-90901305D01*
X146559606Y-90843092D01*
X147152866Y-90728785D01*
X147178858Y-90722398D01*
X147506133Y-90613676D01*
X147824026Y-90461143D01*
X148113026Y-90278685D01*
X148353624Y-90080186D01*
X148526310Y-89879532D01*
X148561544Y-89801464D01*
X148878154Y-89801464D01*
X148879661Y-89878958D01*
X148925757Y-89962802D01*
X149059437Y-90141236D01*
X149267661Y-90335582D01*
X149472194Y-90426799D01*
X149484877Y-90429289D01*
X149616316Y-90468818D01*
X149688643Y-90514676D01*
X149689509Y-90516397D01*
X149664586Y-90580581D01*
X149575543Y-90692096D01*
X149440633Y-90827891D01*
X149436602Y-90831623D01*
X149296894Y-90969990D01*
X149197454Y-91085339D01*
X149159576Y-91153035D01*
X149162142Y-91175383D01*
X149200809Y-91213475D01*
X149202401Y-91213271D01*
X149279215Y-91200582D01*
X149431098Y-91173944D01*
X149626892Y-91138814D01*
X149828514Y-91104167D01*
X150101156Y-91061436D01*
X150333476Y-91029162D01*
X150655211Y-90989210D01*
X150635647Y-90558412D01*
X150633223Y-90509930D01*
X150618119Y-90309168D01*
X150598832Y-90159546D01*
X150578923Y-90090454D01*
X150542657Y-90090047D01*
X150436843Y-90135928D01*
X150294334Y-90223527D01*
X150262784Y-90245059D01*
X150089114Y-90352370D01*
X149986332Y-90387268D01*
X149944548Y-90350287D01*
X149953876Y-90241965D01*
X149962387Y-90177216D01*
X149941996Y-90087299D01*
X149867892Y-89982280D01*
X149724586Y-89834644D01*
X149585777Y-89710106D01*
X149446835Y-89606029D01*
X149352000Y-89558252D01*
X149289604Y-89530023D01*
X149249679Y-89443278D01*
X149237688Y-89363801D01*
X149182254Y-89360990D01*
X149094336Y-89439835D01*
X148986048Y-89593436D01*
X148927346Y-89692886D01*
X148878154Y-89801464D01*
X148561544Y-89801464D01*
X148611575Y-89690608D01*
X148649566Y-89590705D01*
X148731849Y-89556965D01*
X148769336Y-89548594D01*
X148846101Y-89473451D01*
X148949930Y-89314369D01*
X149059782Y-89112868D01*
X149269532Y-89112868D01*
X149279096Y-89136328D01*
X149353898Y-89216535D01*
X149478656Y-89314206D01*
X149515401Y-89338730D01*
X149719931Y-89432774D01*
X149959717Y-89461061D01*
X150106754Y-89469148D01*
X150350439Y-89498506D01*
X150589013Y-89541597D01*
X150766450Y-89575681D01*
X150999245Y-89608633D01*
X151183735Y-89622133D01*
X151188295Y-89622168D01*
X151333771Y-89616192D01*
X151394526Y-89588350D01*
X151394705Y-89527852D01*
X151390986Y-89513615D01*
X151362853Y-89384320D01*
X151332549Y-89220241D01*
X151320119Y-89163895D01*
X151258218Y-88971053D01*
X151163044Y-88727023D01*
X151048424Y-88462831D01*
X150928184Y-88209505D01*
X150816152Y-87998069D01*
X150726155Y-87859552D01*
X150610482Y-87716900D01*
X150435496Y-87862984D01*
X150362967Y-87928019D01*
X150303914Y-88011690D01*
X150323998Y-88072557D01*
X150355321Y-88125113D01*
X150299037Y-88169986D01*
X150200652Y-88190220D01*
X150072248Y-88169877D01*
X149999274Y-88102328D01*
X150000821Y-88084955D01*
X150061249Y-87999806D01*
X150192577Y-87869045D01*
X150380399Y-87704902D01*
X150610312Y-87519613D01*
X150867912Y-87325409D01*
X151138796Y-87134525D01*
X151205461Y-87088205D01*
X151433071Y-86916251D01*
X151657616Y-86728533D01*
X151862008Y-86541253D01*
X152029159Y-86370614D01*
X152141981Y-86232819D01*
X152183385Y-86144069D01*
X152175296Y-86096002D01*
X152090446Y-85992479D01*
X151935983Y-85935609D01*
X151745348Y-85930200D01*
X151481885Y-85953753D01*
X151174553Y-86001070D01*
X150848906Y-86066460D01*
X150530502Y-86144228D01*
X150244894Y-86228683D01*
X150017640Y-86314131D01*
X149874294Y-86394879D01*
X149874019Y-86395107D01*
X149834257Y-86457381D01*
X149806854Y-86577997D01*
X149789369Y-86774120D01*
X149779363Y-87062919D01*
X149773607Y-87191915D01*
X149768521Y-87305893D01*
X149719522Y-87755483D01*
X149637972Y-88177790D01*
X149529700Y-88545603D01*
X149400535Y-88831709D01*
X149360847Y-88902458D01*
X149295387Y-89034963D01*
X149269532Y-89112868D01*
X149059782Y-89112868D01*
X149087426Y-89062160D01*
X149207498Y-88826227D01*
X149327622Y-88570640D01*
X149413851Y-88351811D01*
X149478831Y-88136694D01*
X149535210Y-87892246D01*
X149553576Y-87799896D01*
X149628322Y-87191915D01*
X149616617Y-86625130D01*
X149519916Y-86107935D01*
X149339678Y-85648724D01*
X149077361Y-85255890D01*
X148639222Y-84807392D01*
X148121975Y-84397224D01*
X147557318Y-84049049D01*
X146969600Y-83777845D01*
X146383169Y-83598588D01*
X146196857Y-83565192D01*
X145896902Y-83534582D01*
X145593159Y-83525324D01*
X145322693Y-83538148D01*
X145122570Y-83573784D01*
X145068274Y-83590024D01*
X144885419Y-83640923D01*
X144688021Y-83692163D01*
X144591965Y-83719340D01*
X144544939Y-83742078D01*
X144445753Y-83790036D01*
X144373256Y-83887249D01*
X144360855Y-83915611D01*
X144298538Y-83996514D01*
X144238438Y-84016467D01*
X144211524Y-83961294D01*
X144211258Y-83953044D01*
X144187958Y-83913926D01*
X144116818Y-83922642D01*
X143983447Y-83983815D01*
X143773455Y-84102069D01*
X143758302Y-84111024D01*
X143601999Y-84213426D01*
X143499355Y-84299125D01*
X143471928Y-84350369D01*
X143484378Y-84365166D01*
X143552824Y-84372989D01*
X143567428Y-84370368D01*
X143628639Y-84413764D01*
X143689267Y-84501332D01*
X143716719Y-84589931D01*
X143690086Y-84620821D01*
X143601162Y-84619030D01*
X143487610Y-84580157D01*
X143389275Y-84513504D01*
X143379460Y-84503743D01*
X143334729Y-84466895D01*
X143288401Y-84459397D01*
X143225770Y-84491438D01*
X143132135Y-84573208D01*
X142992790Y-84714897D01*
X142793031Y-84926695D01*
X142739953Y-84983730D01*
X142490177Y-85269700D01*
X142319140Y-85500082D01*
X142231112Y-85669232D01*
X142212517Y-85722271D01*
X142155487Y-85853996D01*
X142109246Y-85921122D01*
X142107045Y-85922548D01*
X142039876Y-86018010D01*
X141960817Y-86221731D01*
X141869670Y-86534214D01*
X141828996Y-86751122D01*
X141801738Y-87081428D01*
X141799169Y-87445947D01*
X141645493Y-87445947D01*
X141642169Y-87295850D01*
X141651869Y-86956042D01*
X141679813Y-86650153D01*
X141726851Y-86404634D01*
X141831907Y-86101834D01*
X142050614Y-85660996D01*
X142337753Y-85223749D01*
X142675493Y-84819882D01*
X142835386Y-84647062D01*
X142978896Y-84483559D01*
X143076156Y-84362842D01*
X143111957Y-84302926D01*
X143111914Y-84302025D01*
X143073655Y-84245450D01*
X142979020Y-84146126D01*
X142850442Y-84024059D01*
X142710353Y-83899253D01*
X142581185Y-83791713D01*
X142485371Y-83721444D01*
X142445344Y-83708452D01*
X142437050Y-83755081D01*
X142446621Y-83858269D01*
X142523332Y-83906316D01*
X142619283Y-83949186D01*
X142623391Y-83996181D01*
X142538959Y-84034598D01*
X142536977Y-84035500D01*
X142369749Y-84057581D01*
X142292041Y-84062266D01*
X142078409Y-84081051D01*
X141902685Y-84103838D01*
X141710513Y-84136274D01*
X141930174Y-84244359D01*
X141933041Y-84245768D01*
X142088306Y-84310645D01*
X142213418Y-84321663D01*
X142369749Y-84284412D01*
X142414563Y-84269923D01*
X142564873Y-84212502D01*
X142660715Y-84162639D01*
X142702777Y-84140668D01*
X142791717Y-84168846D01*
X142807197Y-84186442D01*
X142828362Y-84281830D01*
X142757108Y-84366316D01*
X142607630Y-84420497D01*
X142399410Y-84457082D01*
X142210021Y-84486248D01*
X142082107Y-84494516D01*
X141989362Y-84480595D01*
X141905482Y-84443190D01*
X141804163Y-84381009D01*
X141741391Y-84343223D01*
X141574291Y-84256522D01*
X141441940Y-84205496D01*
X141339690Y-84166518D01*
X141240499Y-84096097D01*
X141205129Y-84064095D01*
X141185475Y-84051135D01*
X141472331Y-84051135D01*
X141517584Y-84071251D01*
X141546690Y-84067283D01*
X141554237Y-84034598D01*
X141546179Y-84028019D01*
X141480932Y-84034598D01*
X141472331Y-84051135D01*
X141185475Y-84051135D01*
X141083968Y-83984202D01*
X140924568Y-83898694D01*
X140873817Y-83869872D01*
X140728013Y-83764677D01*
X140545465Y-83613683D01*
X140349671Y-83439000D01*
X140501459Y-83439000D01*
X140803353Y-83626333D01*
X140892985Y-83682050D01*
X141094704Y-83807022D01*
X141227282Y-83884277D01*
X141309480Y-83920227D01*
X141360063Y-83921284D01*
X141397792Y-83893858D01*
X141441430Y-83844361D01*
X141463844Y-83821422D01*
X141621105Y-83707091D01*
X141819346Y-83610218D01*
X142016660Y-83548341D01*
X142171141Y-83538996D01*
X142314321Y-83566367D01*
X142177100Y-83457271D01*
X142055799Y-83359116D01*
X141919912Y-83246008D01*
X141882379Y-83215581D01*
X141800860Y-83177134D01*
X141740418Y-83215568D01*
X141738981Y-83217258D01*
X141650962Y-83271209D01*
X141481093Y-83318956D01*
X141220006Y-83362498D01*
X140858331Y-83403835D01*
X140501459Y-83439000D01*
X140349671Y-83439000D01*
X140343491Y-83433486D01*
X140139408Y-83240686D01*
X139950533Y-83051880D01*
X139794181Y-82883667D01*
X139687672Y-82752645D01*
X139648320Y-82675413D01*
X139651204Y-82648128D01*
X139729401Y-82533602D01*
X139909665Y-82429004D01*
X140185673Y-82338301D01*
X140266566Y-82319388D01*
X140503205Y-82281696D01*
X140729874Y-82267497D01*
X140922093Y-82276211D01*
X141055378Y-82307258D01*
X141105247Y-82360061D01*
X141104288Y-82369153D01*
X141059658Y-82409435D01*
X140936952Y-82434018D01*
X140720398Y-82446440D01*
X140718333Y-82446499D01*
X140479117Y-82464100D01*
X140249441Y-82499303D01*
X140054364Y-82546107D01*
X139918943Y-82598511D01*
X139868234Y-82650516D01*
X139876015Y-82680551D01*
X139938700Y-82774572D01*
X140070338Y-82922727D01*
X140278260Y-83133653D01*
X140388004Y-83238975D01*
X140469346Y-83299566D01*
X140520675Y-83298867D01*
X140567066Y-83246693D01*
X140575840Y-83235415D01*
X140685124Y-83149803D01*
X140835840Y-83079830D01*
X140844742Y-83076865D01*
X141023259Y-83009346D01*
X141179284Y-82938515D01*
X141198394Y-82928679D01*
X141348166Y-82870749D01*
X141450810Y-82887178D01*
X141540691Y-82982111D01*
X141608018Y-83054351D01*
X141661432Y-83066075D01*
X141662612Y-83064707D01*
X141651343Y-83001753D01*
X141589843Y-82894503D01*
X141502701Y-82776442D01*
X141414507Y-82681051D01*
X141349851Y-82641813D01*
X141337226Y-82641247D01*
X141290954Y-82604115D01*
X141315570Y-82539698D01*
X141513911Y-82539698D01*
X141739376Y-82808992D01*
X141844364Y-82926843D01*
X142027441Y-83110393D01*
X142194784Y-83256175D01*
X142257824Y-83306219D01*
X142430286Y-83449112D01*
X142567493Y-83566367D01*
X142636447Y-83625294D01*
X142844348Y-83807636D01*
X142971338Y-83919767D01*
X143127020Y-84054278D01*
X143237357Y-84145905D01*
X143284175Y-84179291D01*
X143298915Y-84175399D01*
X143390996Y-84131186D01*
X143530689Y-84052123D01*
X143689295Y-83955944D01*
X143838116Y-83860386D01*
X143948454Y-83783185D01*
X143991610Y-83742078D01*
X143962939Y-83699575D01*
X143868140Y-83595510D01*
X143722779Y-83448655D01*
X143543140Y-83275936D01*
X143318158Y-83070514D01*
X143033218Y-82833379D01*
X142970278Y-82787134D01*
X143320850Y-82787134D01*
X143336347Y-82832211D01*
X143415808Y-82930591D01*
X143542355Y-83054151D01*
X143788626Y-83274065D01*
X143750200Y-83026662D01*
X143744105Y-82987121D01*
X143710032Y-82758732D01*
X143679442Y-82544136D01*
X143674563Y-82512003D01*
X143614629Y-82327559D01*
X143496364Y-82201673D01*
X143345619Y-82094332D01*
X143411022Y-82284579D01*
X143419336Y-82308219D01*
X143472481Y-82439186D01*
X143514105Y-82512504D01*
X143525189Y-82526756D01*
X143530886Y-82550254D01*
X143550755Y-82632199D01*
X143537744Y-82756804D01*
X143490658Y-82838037D01*
X143458766Y-82847722D01*
X143387574Y-82807922D01*
X143364537Y-82781277D01*
X143320850Y-82787134D01*
X142970278Y-82787134D01*
X142727768Y-82608949D01*
X142387629Y-82383613D01*
X142676143Y-82383613D01*
X142680532Y-82386944D01*
X142747405Y-82437641D01*
X142858224Y-82521627D01*
X142878103Y-82536417D01*
X142992563Y-82611312D01*
X143064393Y-82641813D01*
X143084217Y-82633290D01*
X143109007Y-82550254D01*
X143100754Y-82400681D01*
X143059751Y-82211655D01*
X143036085Y-82065456D01*
X143056387Y-81901160D01*
X143058902Y-81894368D01*
X143072165Y-81800691D01*
X143029839Y-81700716D01*
X142918457Y-81561259D01*
X142731685Y-81349822D01*
X142729703Y-81569736D01*
X142729717Y-81586273D01*
X142747401Y-81799222D01*
X142787870Y-82006295D01*
X142819556Y-82146411D01*
X142809792Y-82232618D01*
X142750343Y-82294363D01*
X142694890Y-82342494D01*
X142676143Y-82383613D01*
X142387629Y-82383613D01*
X142362541Y-82366993D01*
X142259106Y-82283344D01*
X142197391Y-82168866D01*
X142234202Y-82069092D01*
X142297454Y-82047686D01*
X142378522Y-82119519D01*
X142402795Y-82149422D01*
X142433917Y-82168338D01*
X142448982Y-82125388D01*
X142451141Y-82004608D01*
X142443544Y-81790032D01*
X142439775Y-81684106D01*
X142440815Y-81489039D01*
X142458154Y-81382606D01*
X142493450Y-81350205D01*
X142543868Y-81337011D01*
X142535310Y-81277583D01*
X142437436Y-81167386D01*
X142247959Y-81003187D01*
X142208116Y-80970905D01*
X142080069Y-80874038D01*
X141999122Y-80835697D01*
X141961616Y-80865399D01*
X141963893Y-80972663D01*
X142002294Y-81167007D01*
X142073161Y-81457949D01*
X142099330Y-81563799D01*
X142143622Y-81782241D01*
X142143737Y-81937978D01*
X142089020Y-82062340D01*
X141968819Y-82186659D01*
X141772480Y-82342266D01*
X141513911Y-82539698D01*
X141315570Y-82539698D01*
X141323290Y-82519497D01*
X141424880Y-82402209D01*
X141586372Y-82267071D01*
X141702913Y-82180720D01*
X141858172Y-82056113D01*
X141943897Y-81953305D01*
X141971779Y-81843204D01*
X141953511Y-81696719D01*
X141900783Y-81484758D01*
X141846372Y-81238048D01*
X141809216Y-80987920D01*
X141793992Y-80770478D01*
X141802372Y-80610361D01*
X141836033Y-80532206D01*
X141846592Y-80529675D01*
X141933099Y-80564411D01*
X142080984Y-80662002D01*
X142276542Y-80811221D01*
X142506071Y-81000843D01*
X142755867Y-81219642D01*
X143012226Y-81456393D01*
X143261444Y-81699871D01*
X143384195Y-81824866D01*
X143591318Y-82045349D01*
X143728775Y-82209694D01*
X143805445Y-82329055D01*
X143830205Y-82414589D01*
X143838324Y-82505352D01*
X143866069Y-82685939D01*
X143906041Y-82889216D01*
X143926812Y-82987903D01*
X143949952Y-83139642D01*
X143942501Y-83227134D01*
X143907827Y-83274065D01*
X143904335Y-83278792D01*
G37*
%TD*%
M02*
