%TF.GenerationSoftware,KiCad,Pcbnew,7.0.9*%
%TF.CreationDate,2024-01-07T02:48:38+09:00*%
%TF.ProjectId,Pmod_SC1602,506d6f64-5f53-4433-9136-30322e6b6963,rev?*%
%TF.SameCoordinates,Original*%
%TF.FileFunction,Legend,Top*%
%TF.FilePolarity,Positive*%
%FSLAX46Y46*%
G04 Gerber Fmt 4.6, Leading zero omitted, Abs format (unit mm)*
G04 Created by KiCad (PCBNEW 7.0.9) date 2024-01-07 02:48:38*
%MOMM*%
%LPD*%
G01*
G04 APERTURE LIST*
%ADD10C,0.150000*%
%ADD11C,0.254000*%
%ADD12C,0.120000*%
%ADD13C,0.200000*%
%ADD14C,0.100000*%
G04 APERTURE END LIST*
D10*
X95983588Y-100009438D02*
X95888350Y-99961819D01*
X95888350Y-99961819D02*
X95745493Y-99961819D01*
X95745493Y-99961819D02*
X95602636Y-100009438D01*
X95602636Y-100009438D02*
X95507398Y-100104676D01*
X95507398Y-100104676D02*
X95459779Y-100199914D01*
X95459779Y-100199914D02*
X95412160Y-100390390D01*
X95412160Y-100390390D02*
X95412160Y-100533247D01*
X95412160Y-100533247D02*
X95459779Y-100723723D01*
X95459779Y-100723723D02*
X95507398Y-100818961D01*
X95507398Y-100818961D02*
X95602636Y-100914200D01*
X95602636Y-100914200D02*
X95745493Y-100961819D01*
X95745493Y-100961819D02*
X95840731Y-100961819D01*
X95840731Y-100961819D02*
X95983588Y-100914200D01*
X95983588Y-100914200D02*
X96031207Y-100866580D01*
X96031207Y-100866580D02*
X96031207Y-100533247D01*
X96031207Y-100533247D02*
X95840731Y-100533247D01*
X96459779Y-100961819D02*
X96459779Y-99961819D01*
X96459779Y-99961819D02*
X97031207Y-100961819D01*
X97031207Y-100961819D02*
X97031207Y-99961819D01*
X97507398Y-100961819D02*
X97507398Y-99961819D01*
X97507398Y-99961819D02*
X97745493Y-99961819D01*
X97745493Y-99961819D02*
X97888350Y-100009438D01*
X97888350Y-100009438D02*
X97983588Y-100104676D01*
X97983588Y-100104676D02*
X98031207Y-100199914D01*
X98031207Y-100199914D02*
X98078826Y-100390390D01*
X98078826Y-100390390D02*
X98078826Y-100533247D01*
X98078826Y-100533247D02*
X98031207Y-100723723D01*
X98031207Y-100723723D02*
X97983588Y-100818961D01*
X97983588Y-100818961D02*
X97888350Y-100914200D01*
X97888350Y-100914200D02*
X97745493Y-100961819D01*
X97745493Y-100961819D02*
X97507398Y-100961819D01*
X96031207Y-95881819D02*
X95697874Y-95405628D01*
X95459779Y-95881819D02*
X95459779Y-94881819D01*
X95459779Y-94881819D02*
X95840731Y-94881819D01*
X95840731Y-94881819D02*
X95935969Y-94929438D01*
X95935969Y-94929438D02*
X95983588Y-94977057D01*
X95983588Y-94977057D02*
X96031207Y-95072295D01*
X96031207Y-95072295D02*
X96031207Y-95215152D01*
X96031207Y-95215152D02*
X95983588Y-95310390D01*
X95983588Y-95310390D02*
X95935969Y-95358009D01*
X95935969Y-95358009D02*
X95840731Y-95405628D01*
X95840731Y-95405628D02*
X95459779Y-95405628D01*
X96412160Y-95834200D02*
X96555017Y-95881819D01*
X96555017Y-95881819D02*
X96793112Y-95881819D01*
X96793112Y-95881819D02*
X96888350Y-95834200D01*
X96888350Y-95834200D02*
X96935969Y-95786580D01*
X96935969Y-95786580D02*
X96983588Y-95691342D01*
X96983588Y-95691342D02*
X96983588Y-95596104D01*
X96983588Y-95596104D02*
X96935969Y-95500866D01*
X96935969Y-95500866D02*
X96888350Y-95453247D01*
X96888350Y-95453247D02*
X96793112Y-95405628D01*
X96793112Y-95405628D02*
X96602636Y-95358009D01*
X96602636Y-95358009D02*
X96507398Y-95310390D01*
X96507398Y-95310390D02*
X96459779Y-95262771D01*
X96459779Y-95262771D02*
X96412160Y-95167533D01*
X96412160Y-95167533D02*
X96412160Y-95072295D01*
X96412160Y-95072295D02*
X96459779Y-94977057D01*
X96459779Y-94977057D02*
X96507398Y-94929438D01*
X96507398Y-94929438D02*
X96602636Y-94881819D01*
X96602636Y-94881819D02*
X96840731Y-94881819D01*
X96840731Y-94881819D02*
X96983588Y-94929438D01*
X96031207Y-98421819D02*
X95697874Y-97945628D01*
X95459779Y-98421819D02*
X95459779Y-97421819D01*
X95459779Y-97421819D02*
X95840731Y-97421819D01*
X95840731Y-97421819D02*
X95935969Y-97469438D01*
X95935969Y-97469438D02*
X95983588Y-97517057D01*
X95983588Y-97517057D02*
X96031207Y-97612295D01*
X96031207Y-97612295D02*
X96031207Y-97755152D01*
X96031207Y-97755152D02*
X95983588Y-97850390D01*
X95983588Y-97850390D02*
X95935969Y-97898009D01*
X95935969Y-97898009D02*
X95840731Y-97945628D01*
X95840731Y-97945628D02*
X95459779Y-97945628D01*
X97174064Y-97374200D02*
X96316922Y-98659914D01*
X97412160Y-97421819D02*
X97650255Y-98421819D01*
X97650255Y-98421819D02*
X97840731Y-97707533D01*
X97840731Y-97707533D02*
X98031207Y-98421819D01*
X98031207Y-98421819D02*
X98269303Y-97421819D01*
X87966779Y-90801819D02*
X87966779Y-89801819D01*
X87966779Y-89801819D02*
X88204874Y-89801819D01*
X88204874Y-89801819D02*
X88347731Y-89849438D01*
X88347731Y-89849438D02*
X88442969Y-89944676D01*
X88442969Y-89944676D02*
X88490588Y-90039914D01*
X88490588Y-90039914D02*
X88538207Y-90230390D01*
X88538207Y-90230390D02*
X88538207Y-90373247D01*
X88538207Y-90373247D02*
X88490588Y-90563723D01*
X88490588Y-90563723D02*
X88442969Y-90658961D01*
X88442969Y-90658961D02*
X88347731Y-90754200D01*
X88347731Y-90754200D02*
X88204874Y-90801819D01*
X88204874Y-90801819D02*
X87966779Y-90801819D01*
X89490588Y-90801819D02*
X88919160Y-90801819D01*
X89204874Y-90801819D02*
X89204874Y-89801819D01*
X89204874Y-89801819D02*
X89109636Y-89944676D01*
X89109636Y-89944676D02*
X89014398Y-90039914D01*
X89014398Y-90039914D02*
X88919160Y-90087533D01*
X178216160Y-85309104D02*
X178692350Y-85309104D01*
X178120922Y-85594819D02*
X178454255Y-84594819D01*
X178454255Y-84594819D02*
X178787588Y-85594819D01*
X179120922Y-84928152D02*
X179120922Y-85594819D01*
X179120922Y-85023390D02*
X179168541Y-84975771D01*
X179168541Y-84975771D02*
X179263779Y-84928152D01*
X179263779Y-84928152D02*
X179406636Y-84928152D01*
X179406636Y-84928152D02*
X179501874Y-84975771D01*
X179501874Y-84975771D02*
X179549493Y-85071009D01*
X179549493Y-85071009D02*
X179549493Y-85594819D01*
X180168541Y-85594819D02*
X180073303Y-85547200D01*
X180073303Y-85547200D02*
X180025684Y-85499580D01*
X180025684Y-85499580D02*
X179978065Y-85404342D01*
X179978065Y-85404342D02*
X179978065Y-85118628D01*
X179978065Y-85118628D02*
X180025684Y-85023390D01*
X180025684Y-85023390D02*
X180073303Y-84975771D01*
X180073303Y-84975771D02*
X180168541Y-84928152D01*
X180168541Y-84928152D02*
X180311398Y-84928152D01*
X180311398Y-84928152D02*
X180406636Y-84975771D01*
X180406636Y-84975771D02*
X180454255Y-85023390D01*
X180454255Y-85023390D02*
X180501874Y-85118628D01*
X180501874Y-85118628D02*
X180501874Y-85404342D01*
X180501874Y-85404342D02*
X180454255Y-85499580D01*
X180454255Y-85499580D02*
X180406636Y-85547200D01*
X180406636Y-85547200D02*
X180311398Y-85594819D01*
X180311398Y-85594819D02*
X180168541Y-85594819D01*
X181359017Y-85594819D02*
X181359017Y-84594819D01*
X181359017Y-85547200D02*
X181263779Y-85594819D01*
X181263779Y-85594819D02*
X181073303Y-85594819D01*
X181073303Y-85594819D02*
X180978065Y-85547200D01*
X180978065Y-85547200D02*
X180930446Y-85499580D01*
X180930446Y-85499580D02*
X180882827Y-85404342D01*
X180882827Y-85404342D02*
X180882827Y-85118628D01*
X180882827Y-85118628D02*
X180930446Y-85023390D01*
X180930446Y-85023390D02*
X180978065Y-84975771D01*
X180978065Y-84975771D02*
X181073303Y-84928152D01*
X181073303Y-84928152D02*
X181263779Y-84928152D01*
X181263779Y-84928152D02*
X181359017Y-84975771D01*
X182216160Y-85547200D02*
X182120922Y-85594819D01*
X182120922Y-85594819D02*
X181930446Y-85594819D01*
X181930446Y-85594819D02*
X181835208Y-85547200D01*
X181835208Y-85547200D02*
X181787589Y-85451961D01*
X181787589Y-85451961D02*
X181787589Y-85071009D01*
X181787589Y-85071009D02*
X181835208Y-84975771D01*
X181835208Y-84975771D02*
X181930446Y-84928152D01*
X181930446Y-84928152D02*
X182120922Y-84928152D01*
X182120922Y-84928152D02*
X182216160Y-84975771D01*
X182216160Y-84975771D02*
X182263779Y-85071009D01*
X182263779Y-85071009D02*
X182263779Y-85166247D01*
X182263779Y-85166247D02*
X181787589Y-85261485D01*
X89109779Y-105914819D02*
X89109779Y-104914819D01*
X89109779Y-104914819D02*
X89490731Y-104914819D01*
X89490731Y-104914819D02*
X89585969Y-104962438D01*
X89585969Y-104962438D02*
X89633588Y-105010057D01*
X89633588Y-105010057D02*
X89681207Y-105105295D01*
X89681207Y-105105295D02*
X89681207Y-105248152D01*
X89681207Y-105248152D02*
X89633588Y-105343390D01*
X89633588Y-105343390D02*
X89585969Y-105391009D01*
X89585969Y-105391009D02*
X89490731Y-105438628D01*
X89490731Y-105438628D02*
X89109779Y-105438628D01*
X90109779Y-105914819D02*
X90109779Y-105248152D01*
X90109779Y-105343390D02*
X90157398Y-105295771D01*
X90157398Y-105295771D02*
X90252636Y-105248152D01*
X90252636Y-105248152D02*
X90395493Y-105248152D01*
X90395493Y-105248152D02*
X90490731Y-105295771D01*
X90490731Y-105295771D02*
X90538350Y-105391009D01*
X90538350Y-105391009D02*
X90538350Y-105914819D01*
X90538350Y-105391009D02*
X90585969Y-105295771D01*
X90585969Y-105295771D02*
X90681207Y-105248152D01*
X90681207Y-105248152D02*
X90824064Y-105248152D01*
X90824064Y-105248152D02*
X90919303Y-105295771D01*
X90919303Y-105295771D02*
X90966922Y-105391009D01*
X90966922Y-105391009D02*
X90966922Y-105914819D01*
X91585969Y-105914819D02*
X91490731Y-105867200D01*
X91490731Y-105867200D02*
X91443112Y-105819580D01*
X91443112Y-105819580D02*
X91395493Y-105724342D01*
X91395493Y-105724342D02*
X91395493Y-105438628D01*
X91395493Y-105438628D02*
X91443112Y-105343390D01*
X91443112Y-105343390D02*
X91490731Y-105295771D01*
X91490731Y-105295771D02*
X91585969Y-105248152D01*
X91585969Y-105248152D02*
X91728826Y-105248152D01*
X91728826Y-105248152D02*
X91824064Y-105295771D01*
X91824064Y-105295771D02*
X91871683Y-105343390D01*
X91871683Y-105343390D02*
X91919302Y-105438628D01*
X91919302Y-105438628D02*
X91919302Y-105724342D01*
X91919302Y-105724342D02*
X91871683Y-105819580D01*
X91871683Y-105819580D02*
X91824064Y-105867200D01*
X91824064Y-105867200D02*
X91728826Y-105914819D01*
X91728826Y-105914819D02*
X91585969Y-105914819D01*
X92776445Y-105914819D02*
X92776445Y-104914819D01*
X92776445Y-105867200D02*
X92681207Y-105914819D01*
X92681207Y-105914819D02*
X92490731Y-105914819D01*
X92490731Y-105914819D02*
X92395493Y-105867200D01*
X92395493Y-105867200D02*
X92347874Y-105819580D01*
X92347874Y-105819580D02*
X92300255Y-105724342D01*
X92300255Y-105724342D02*
X92300255Y-105438628D01*
X92300255Y-105438628D02*
X92347874Y-105343390D01*
X92347874Y-105343390D02*
X92395493Y-105295771D01*
X92395493Y-105295771D02*
X92490731Y-105248152D01*
X92490731Y-105248152D02*
X92681207Y-105248152D01*
X92681207Y-105248152D02*
X92776445Y-105295771D01*
X93014541Y-106010057D02*
X93776445Y-106010057D01*
X93966922Y-105867200D02*
X94109779Y-105914819D01*
X94109779Y-105914819D02*
X94347874Y-105914819D01*
X94347874Y-105914819D02*
X94443112Y-105867200D01*
X94443112Y-105867200D02*
X94490731Y-105819580D01*
X94490731Y-105819580D02*
X94538350Y-105724342D01*
X94538350Y-105724342D02*
X94538350Y-105629104D01*
X94538350Y-105629104D02*
X94490731Y-105533866D01*
X94490731Y-105533866D02*
X94443112Y-105486247D01*
X94443112Y-105486247D02*
X94347874Y-105438628D01*
X94347874Y-105438628D02*
X94157398Y-105391009D01*
X94157398Y-105391009D02*
X94062160Y-105343390D01*
X94062160Y-105343390D02*
X94014541Y-105295771D01*
X94014541Y-105295771D02*
X93966922Y-105200533D01*
X93966922Y-105200533D02*
X93966922Y-105105295D01*
X93966922Y-105105295D02*
X94014541Y-105010057D01*
X94014541Y-105010057D02*
X94062160Y-104962438D01*
X94062160Y-104962438D02*
X94157398Y-104914819D01*
X94157398Y-104914819D02*
X94395493Y-104914819D01*
X94395493Y-104914819D02*
X94538350Y-104962438D01*
X95538350Y-105819580D02*
X95490731Y-105867200D01*
X95490731Y-105867200D02*
X95347874Y-105914819D01*
X95347874Y-105914819D02*
X95252636Y-105914819D01*
X95252636Y-105914819D02*
X95109779Y-105867200D01*
X95109779Y-105867200D02*
X95014541Y-105771961D01*
X95014541Y-105771961D02*
X94966922Y-105676723D01*
X94966922Y-105676723D02*
X94919303Y-105486247D01*
X94919303Y-105486247D02*
X94919303Y-105343390D01*
X94919303Y-105343390D02*
X94966922Y-105152914D01*
X94966922Y-105152914D02*
X95014541Y-105057676D01*
X95014541Y-105057676D02*
X95109779Y-104962438D01*
X95109779Y-104962438D02*
X95252636Y-104914819D01*
X95252636Y-104914819D02*
X95347874Y-104914819D01*
X95347874Y-104914819D02*
X95490731Y-104962438D01*
X95490731Y-104962438D02*
X95538350Y-105010057D01*
X96490731Y-105914819D02*
X95919303Y-105914819D01*
X96205017Y-105914819D02*
X96205017Y-104914819D01*
X96205017Y-104914819D02*
X96109779Y-105057676D01*
X96109779Y-105057676D02*
X96014541Y-105152914D01*
X96014541Y-105152914D02*
X95919303Y-105200533D01*
X97347874Y-104914819D02*
X97157398Y-104914819D01*
X97157398Y-104914819D02*
X97062160Y-104962438D01*
X97062160Y-104962438D02*
X97014541Y-105010057D01*
X97014541Y-105010057D02*
X96919303Y-105152914D01*
X96919303Y-105152914D02*
X96871684Y-105343390D01*
X96871684Y-105343390D02*
X96871684Y-105724342D01*
X96871684Y-105724342D02*
X96919303Y-105819580D01*
X96919303Y-105819580D02*
X96966922Y-105867200D01*
X96966922Y-105867200D02*
X97062160Y-105914819D01*
X97062160Y-105914819D02*
X97252636Y-105914819D01*
X97252636Y-105914819D02*
X97347874Y-105867200D01*
X97347874Y-105867200D02*
X97395493Y-105819580D01*
X97395493Y-105819580D02*
X97443112Y-105724342D01*
X97443112Y-105724342D02*
X97443112Y-105486247D01*
X97443112Y-105486247D02*
X97395493Y-105391009D01*
X97395493Y-105391009D02*
X97347874Y-105343390D01*
X97347874Y-105343390D02*
X97252636Y-105295771D01*
X97252636Y-105295771D02*
X97062160Y-105295771D01*
X97062160Y-105295771D02*
X96966922Y-105343390D01*
X96966922Y-105343390D02*
X96919303Y-105391009D01*
X96919303Y-105391009D02*
X96871684Y-105486247D01*
X98062160Y-104914819D02*
X98157398Y-104914819D01*
X98157398Y-104914819D02*
X98252636Y-104962438D01*
X98252636Y-104962438D02*
X98300255Y-105010057D01*
X98300255Y-105010057D02*
X98347874Y-105105295D01*
X98347874Y-105105295D02*
X98395493Y-105295771D01*
X98395493Y-105295771D02*
X98395493Y-105533866D01*
X98395493Y-105533866D02*
X98347874Y-105724342D01*
X98347874Y-105724342D02*
X98300255Y-105819580D01*
X98300255Y-105819580D02*
X98252636Y-105867200D01*
X98252636Y-105867200D02*
X98157398Y-105914819D01*
X98157398Y-105914819D02*
X98062160Y-105914819D01*
X98062160Y-105914819D02*
X97966922Y-105867200D01*
X97966922Y-105867200D02*
X97919303Y-105819580D01*
X97919303Y-105819580D02*
X97871684Y-105724342D01*
X97871684Y-105724342D02*
X97824065Y-105533866D01*
X97824065Y-105533866D02*
X97824065Y-105295771D01*
X97824065Y-105295771D02*
X97871684Y-105105295D01*
X97871684Y-105105295D02*
X97919303Y-105010057D01*
X97919303Y-105010057D02*
X97966922Y-104962438D01*
X97966922Y-104962438D02*
X98062160Y-104914819D01*
X98776446Y-105010057D02*
X98824065Y-104962438D01*
X98824065Y-104962438D02*
X98919303Y-104914819D01*
X98919303Y-104914819D02*
X99157398Y-104914819D01*
X99157398Y-104914819D02*
X99252636Y-104962438D01*
X99252636Y-104962438D02*
X99300255Y-105010057D01*
X99300255Y-105010057D02*
X99347874Y-105105295D01*
X99347874Y-105105295D02*
X99347874Y-105200533D01*
X99347874Y-105200533D02*
X99300255Y-105343390D01*
X99300255Y-105343390D02*
X98728827Y-105914819D01*
X98728827Y-105914819D02*
X99347874Y-105914819D01*
X95443922Y-102628819D02*
X95777255Y-103628819D01*
X95777255Y-103628819D02*
X96110588Y-102628819D01*
X96872493Y-103581200D02*
X96777255Y-103628819D01*
X96777255Y-103628819D02*
X96586779Y-103628819D01*
X96586779Y-103628819D02*
X96491541Y-103581200D01*
X96491541Y-103581200D02*
X96443922Y-103533580D01*
X96443922Y-103533580D02*
X96396303Y-103438342D01*
X96396303Y-103438342D02*
X96396303Y-103152628D01*
X96396303Y-103152628D02*
X96443922Y-103057390D01*
X96443922Y-103057390D02*
X96491541Y-103009771D01*
X96491541Y-103009771D02*
X96586779Y-102962152D01*
X96586779Y-102962152D02*
X96777255Y-102962152D01*
X96777255Y-102962152D02*
X96872493Y-103009771D01*
X97729636Y-103581200D02*
X97634398Y-103628819D01*
X97634398Y-103628819D02*
X97443922Y-103628819D01*
X97443922Y-103628819D02*
X97348684Y-103581200D01*
X97348684Y-103581200D02*
X97301065Y-103533580D01*
X97301065Y-103533580D02*
X97253446Y-103438342D01*
X97253446Y-103438342D02*
X97253446Y-103152628D01*
X97253446Y-103152628D02*
X97301065Y-103057390D01*
X97301065Y-103057390D02*
X97348684Y-103009771D01*
X97348684Y-103009771D02*
X97443922Y-102962152D01*
X97443922Y-102962152D02*
X97634398Y-102962152D01*
X97634398Y-102962152D02*
X97729636Y-103009771D01*
X117256112Y-79737009D02*
X117398969Y-79784628D01*
X117398969Y-79784628D02*
X117446588Y-79832247D01*
X117446588Y-79832247D02*
X117494207Y-79927485D01*
X117494207Y-79927485D02*
X117494207Y-80070342D01*
X117494207Y-80070342D02*
X117446588Y-80165580D01*
X117446588Y-80165580D02*
X117398969Y-80213200D01*
X117398969Y-80213200D02*
X117303731Y-80260819D01*
X117303731Y-80260819D02*
X116922779Y-80260819D01*
X116922779Y-80260819D02*
X116922779Y-79260819D01*
X116922779Y-79260819D02*
X117256112Y-79260819D01*
X117256112Y-79260819D02*
X117351350Y-79308438D01*
X117351350Y-79308438D02*
X117398969Y-79356057D01*
X117398969Y-79356057D02*
X117446588Y-79451295D01*
X117446588Y-79451295D02*
X117446588Y-79546533D01*
X117446588Y-79546533D02*
X117398969Y-79641771D01*
X117398969Y-79641771D02*
X117351350Y-79689390D01*
X117351350Y-79689390D02*
X117256112Y-79737009D01*
X117256112Y-79737009D02*
X116922779Y-79737009D01*
X118351350Y-80260819D02*
X118351350Y-79737009D01*
X118351350Y-79737009D02*
X118303731Y-79641771D01*
X118303731Y-79641771D02*
X118208493Y-79594152D01*
X118208493Y-79594152D02*
X118018017Y-79594152D01*
X118018017Y-79594152D02*
X117922779Y-79641771D01*
X118351350Y-80213200D02*
X118256112Y-80260819D01*
X118256112Y-80260819D02*
X118018017Y-80260819D01*
X118018017Y-80260819D02*
X117922779Y-80213200D01*
X117922779Y-80213200D02*
X117875160Y-80117961D01*
X117875160Y-80117961D02*
X117875160Y-80022723D01*
X117875160Y-80022723D02*
X117922779Y-79927485D01*
X117922779Y-79927485D02*
X118018017Y-79879866D01*
X118018017Y-79879866D02*
X118256112Y-79879866D01*
X118256112Y-79879866D02*
X118351350Y-79832247D01*
X119256112Y-80213200D02*
X119160874Y-80260819D01*
X119160874Y-80260819D02*
X118970398Y-80260819D01*
X118970398Y-80260819D02*
X118875160Y-80213200D01*
X118875160Y-80213200D02*
X118827541Y-80165580D01*
X118827541Y-80165580D02*
X118779922Y-80070342D01*
X118779922Y-80070342D02*
X118779922Y-79784628D01*
X118779922Y-79784628D02*
X118827541Y-79689390D01*
X118827541Y-79689390D02*
X118875160Y-79641771D01*
X118875160Y-79641771D02*
X118970398Y-79594152D01*
X118970398Y-79594152D02*
X119160874Y-79594152D01*
X119160874Y-79594152D02*
X119256112Y-79641771D01*
X119684684Y-80260819D02*
X119684684Y-79260819D01*
X119779922Y-79879866D02*
X120065636Y-80260819D01*
X120065636Y-79594152D02*
X119684684Y-79975104D01*
X120970398Y-80260819D02*
X120494208Y-80260819D01*
X120494208Y-80260819D02*
X120494208Y-79260819D01*
X121303732Y-80260819D02*
X121303732Y-79594152D01*
X121303732Y-79260819D02*
X121256113Y-79308438D01*
X121256113Y-79308438D02*
X121303732Y-79356057D01*
X121303732Y-79356057D02*
X121351351Y-79308438D01*
X121351351Y-79308438D02*
X121303732Y-79260819D01*
X121303732Y-79260819D02*
X121303732Y-79356057D01*
X122208493Y-79594152D02*
X122208493Y-80403676D01*
X122208493Y-80403676D02*
X122160874Y-80498914D01*
X122160874Y-80498914D02*
X122113255Y-80546533D01*
X122113255Y-80546533D02*
X122018017Y-80594152D01*
X122018017Y-80594152D02*
X121875160Y-80594152D01*
X121875160Y-80594152D02*
X121779922Y-80546533D01*
X122208493Y-80213200D02*
X122113255Y-80260819D01*
X122113255Y-80260819D02*
X121922779Y-80260819D01*
X121922779Y-80260819D02*
X121827541Y-80213200D01*
X121827541Y-80213200D02*
X121779922Y-80165580D01*
X121779922Y-80165580D02*
X121732303Y-80070342D01*
X121732303Y-80070342D02*
X121732303Y-79784628D01*
X121732303Y-79784628D02*
X121779922Y-79689390D01*
X121779922Y-79689390D02*
X121827541Y-79641771D01*
X121827541Y-79641771D02*
X121922779Y-79594152D01*
X121922779Y-79594152D02*
X122113255Y-79594152D01*
X122113255Y-79594152D02*
X122208493Y-79641771D01*
X122684684Y-80260819D02*
X122684684Y-79260819D01*
X123113255Y-80260819D02*
X123113255Y-79737009D01*
X123113255Y-79737009D02*
X123065636Y-79641771D01*
X123065636Y-79641771D02*
X122970398Y-79594152D01*
X122970398Y-79594152D02*
X122827541Y-79594152D01*
X122827541Y-79594152D02*
X122732303Y-79641771D01*
X122732303Y-79641771D02*
X122684684Y-79689390D01*
X123446589Y-79594152D02*
X123827541Y-79594152D01*
X123589446Y-79260819D02*
X123589446Y-80117961D01*
X123589446Y-80117961D02*
X123637065Y-80213200D01*
X123637065Y-80213200D02*
X123732303Y-80260819D01*
X123732303Y-80260819D02*
X123827541Y-80260819D01*
X124446589Y-80641771D02*
X124398970Y-80594152D01*
X124398970Y-80594152D02*
X124303732Y-80451295D01*
X124303732Y-80451295D02*
X124256113Y-80356057D01*
X124256113Y-80356057D02*
X124208494Y-80213200D01*
X124208494Y-80213200D02*
X124160875Y-79975104D01*
X124160875Y-79975104D02*
X124160875Y-79784628D01*
X124160875Y-79784628D02*
X124208494Y-79546533D01*
X124208494Y-79546533D02*
X124256113Y-79403676D01*
X124256113Y-79403676D02*
X124303732Y-79308438D01*
X124303732Y-79308438D02*
X124398970Y-79165580D01*
X124398970Y-79165580D02*
X124446589Y-79117961D01*
X124827542Y-80260819D02*
X124827542Y-79260819D01*
X124827542Y-79260819D02*
X125208494Y-79260819D01*
X125208494Y-79260819D02*
X125303732Y-79308438D01*
X125303732Y-79308438D02*
X125351351Y-79356057D01*
X125351351Y-79356057D02*
X125398970Y-79451295D01*
X125398970Y-79451295D02*
X125398970Y-79594152D01*
X125398970Y-79594152D02*
X125351351Y-79689390D01*
X125351351Y-79689390D02*
X125303732Y-79737009D01*
X125303732Y-79737009D02*
X125208494Y-79784628D01*
X125208494Y-79784628D02*
X124827542Y-79784628D01*
X125827542Y-80260819D02*
X125827542Y-79594152D01*
X125827542Y-79689390D02*
X125875161Y-79641771D01*
X125875161Y-79641771D02*
X125970399Y-79594152D01*
X125970399Y-79594152D02*
X126113256Y-79594152D01*
X126113256Y-79594152D02*
X126208494Y-79641771D01*
X126208494Y-79641771D02*
X126256113Y-79737009D01*
X126256113Y-79737009D02*
X126256113Y-80260819D01*
X126256113Y-79737009D02*
X126303732Y-79641771D01*
X126303732Y-79641771D02*
X126398970Y-79594152D01*
X126398970Y-79594152D02*
X126541827Y-79594152D01*
X126541827Y-79594152D02*
X126637066Y-79641771D01*
X126637066Y-79641771D02*
X126684685Y-79737009D01*
X126684685Y-79737009D02*
X126684685Y-80260819D01*
X127303732Y-80260819D02*
X127208494Y-80213200D01*
X127208494Y-80213200D02*
X127160875Y-80165580D01*
X127160875Y-80165580D02*
X127113256Y-80070342D01*
X127113256Y-80070342D02*
X127113256Y-79784628D01*
X127113256Y-79784628D02*
X127160875Y-79689390D01*
X127160875Y-79689390D02*
X127208494Y-79641771D01*
X127208494Y-79641771D02*
X127303732Y-79594152D01*
X127303732Y-79594152D02*
X127446589Y-79594152D01*
X127446589Y-79594152D02*
X127541827Y-79641771D01*
X127541827Y-79641771D02*
X127589446Y-79689390D01*
X127589446Y-79689390D02*
X127637065Y-79784628D01*
X127637065Y-79784628D02*
X127637065Y-80070342D01*
X127637065Y-80070342D02*
X127589446Y-80165580D01*
X127589446Y-80165580D02*
X127541827Y-80213200D01*
X127541827Y-80213200D02*
X127446589Y-80260819D01*
X127446589Y-80260819D02*
X127303732Y-80260819D01*
X128494208Y-80260819D02*
X128494208Y-79260819D01*
X128494208Y-80213200D02*
X128398970Y-80260819D01*
X128398970Y-80260819D02*
X128208494Y-80260819D01*
X128208494Y-80260819D02*
X128113256Y-80213200D01*
X128113256Y-80213200D02*
X128065637Y-80165580D01*
X128065637Y-80165580D02*
X128018018Y-80070342D01*
X128018018Y-80070342D02*
X128018018Y-79784628D01*
X128018018Y-79784628D02*
X128065637Y-79689390D01*
X128065637Y-79689390D02*
X128113256Y-79641771D01*
X128113256Y-79641771D02*
X128208494Y-79594152D01*
X128208494Y-79594152D02*
X128398970Y-79594152D01*
X128398970Y-79594152D02*
X128494208Y-79641771D01*
X128875161Y-80641771D02*
X128922780Y-80594152D01*
X128922780Y-80594152D02*
X129018018Y-80451295D01*
X129018018Y-80451295D02*
X129065637Y-80356057D01*
X129065637Y-80356057D02*
X129113256Y-80213200D01*
X129113256Y-80213200D02*
X129160875Y-79975104D01*
X129160875Y-79975104D02*
X129160875Y-79784628D01*
X129160875Y-79784628D02*
X129113256Y-79546533D01*
X129113256Y-79546533D02*
X129065637Y-79403676D01*
X129065637Y-79403676D02*
X129018018Y-79308438D01*
X129018018Y-79308438D02*
X128922780Y-79165580D01*
X128922780Y-79165580D02*
X128875161Y-79117961D01*
X130398971Y-79594152D02*
X129637066Y-79879866D01*
X129637066Y-79879866D02*
X130398971Y-80165580D01*
X130875161Y-79879866D02*
X131637066Y-79879866D01*
X132113256Y-79594152D02*
X132875161Y-79879866D01*
X132875161Y-79879866D02*
X132113256Y-80165580D01*
X133684684Y-79737009D02*
X133827541Y-79784628D01*
X133827541Y-79784628D02*
X133875160Y-79832247D01*
X133875160Y-79832247D02*
X133922779Y-79927485D01*
X133922779Y-79927485D02*
X133922779Y-80070342D01*
X133922779Y-80070342D02*
X133875160Y-80165580D01*
X133875160Y-80165580D02*
X133827541Y-80213200D01*
X133827541Y-80213200D02*
X133732303Y-80260819D01*
X133732303Y-80260819D02*
X133351351Y-80260819D01*
X133351351Y-80260819D02*
X133351351Y-79260819D01*
X133351351Y-79260819D02*
X133684684Y-79260819D01*
X133684684Y-79260819D02*
X133779922Y-79308438D01*
X133779922Y-79308438D02*
X133827541Y-79356057D01*
X133827541Y-79356057D02*
X133875160Y-79451295D01*
X133875160Y-79451295D02*
X133875160Y-79546533D01*
X133875160Y-79546533D02*
X133827541Y-79641771D01*
X133827541Y-79641771D02*
X133779922Y-79689390D01*
X133779922Y-79689390D02*
X133684684Y-79737009D01*
X133684684Y-79737009D02*
X133351351Y-79737009D01*
X134779922Y-80260819D02*
X134779922Y-79737009D01*
X134779922Y-79737009D02*
X134732303Y-79641771D01*
X134732303Y-79641771D02*
X134637065Y-79594152D01*
X134637065Y-79594152D02*
X134446589Y-79594152D01*
X134446589Y-79594152D02*
X134351351Y-79641771D01*
X134779922Y-80213200D02*
X134684684Y-80260819D01*
X134684684Y-80260819D02*
X134446589Y-80260819D01*
X134446589Y-80260819D02*
X134351351Y-80213200D01*
X134351351Y-80213200D02*
X134303732Y-80117961D01*
X134303732Y-80117961D02*
X134303732Y-80022723D01*
X134303732Y-80022723D02*
X134351351Y-79927485D01*
X134351351Y-79927485D02*
X134446589Y-79879866D01*
X134446589Y-79879866D02*
X134684684Y-79879866D01*
X134684684Y-79879866D02*
X134779922Y-79832247D01*
X135684684Y-80213200D02*
X135589446Y-80260819D01*
X135589446Y-80260819D02*
X135398970Y-80260819D01*
X135398970Y-80260819D02*
X135303732Y-80213200D01*
X135303732Y-80213200D02*
X135256113Y-80165580D01*
X135256113Y-80165580D02*
X135208494Y-80070342D01*
X135208494Y-80070342D02*
X135208494Y-79784628D01*
X135208494Y-79784628D02*
X135256113Y-79689390D01*
X135256113Y-79689390D02*
X135303732Y-79641771D01*
X135303732Y-79641771D02*
X135398970Y-79594152D01*
X135398970Y-79594152D02*
X135589446Y-79594152D01*
X135589446Y-79594152D02*
X135684684Y-79641771D01*
X136113256Y-80260819D02*
X136113256Y-79260819D01*
X136208494Y-79879866D02*
X136494208Y-80260819D01*
X136494208Y-79594152D02*
X136113256Y-79975104D01*
X137398970Y-80260819D02*
X136922780Y-80260819D01*
X136922780Y-80260819D02*
X136922780Y-79260819D01*
X137732304Y-80260819D02*
X137732304Y-79594152D01*
X137732304Y-79260819D02*
X137684685Y-79308438D01*
X137684685Y-79308438D02*
X137732304Y-79356057D01*
X137732304Y-79356057D02*
X137779923Y-79308438D01*
X137779923Y-79308438D02*
X137732304Y-79260819D01*
X137732304Y-79260819D02*
X137732304Y-79356057D01*
X138637065Y-79594152D02*
X138637065Y-80403676D01*
X138637065Y-80403676D02*
X138589446Y-80498914D01*
X138589446Y-80498914D02*
X138541827Y-80546533D01*
X138541827Y-80546533D02*
X138446589Y-80594152D01*
X138446589Y-80594152D02*
X138303732Y-80594152D01*
X138303732Y-80594152D02*
X138208494Y-80546533D01*
X138637065Y-80213200D02*
X138541827Y-80260819D01*
X138541827Y-80260819D02*
X138351351Y-80260819D01*
X138351351Y-80260819D02*
X138256113Y-80213200D01*
X138256113Y-80213200D02*
X138208494Y-80165580D01*
X138208494Y-80165580D02*
X138160875Y-80070342D01*
X138160875Y-80070342D02*
X138160875Y-79784628D01*
X138160875Y-79784628D02*
X138208494Y-79689390D01*
X138208494Y-79689390D02*
X138256113Y-79641771D01*
X138256113Y-79641771D02*
X138351351Y-79594152D01*
X138351351Y-79594152D02*
X138541827Y-79594152D01*
X138541827Y-79594152D02*
X138637065Y-79641771D01*
X139113256Y-80260819D02*
X139113256Y-79260819D01*
X139541827Y-80260819D02*
X139541827Y-79737009D01*
X139541827Y-79737009D02*
X139494208Y-79641771D01*
X139494208Y-79641771D02*
X139398970Y-79594152D01*
X139398970Y-79594152D02*
X139256113Y-79594152D01*
X139256113Y-79594152D02*
X139160875Y-79641771D01*
X139160875Y-79641771D02*
X139113256Y-79689390D01*
X139875161Y-79594152D02*
X140256113Y-79594152D01*
X140018018Y-79260819D02*
X140018018Y-80117961D01*
X140018018Y-80117961D02*
X140065637Y-80213200D01*
X140065637Y-80213200D02*
X140160875Y-80260819D01*
X140160875Y-80260819D02*
X140256113Y-80260819D01*
X140875161Y-80641771D02*
X140827542Y-80594152D01*
X140827542Y-80594152D02*
X140732304Y-80451295D01*
X140732304Y-80451295D02*
X140684685Y-80356057D01*
X140684685Y-80356057D02*
X140637066Y-80213200D01*
X140637066Y-80213200D02*
X140589447Y-79975104D01*
X140589447Y-79975104D02*
X140589447Y-79784628D01*
X140589447Y-79784628D02*
X140637066Y-79546533D01*
X140637066Y-79546533D02*
X140684685Y-79403676D01*
X140684685Y-79403676D02*
X140732304Y-79308438D01*
X140732304Y-79308438D02*
X140827542Y-79165580D01*
X140827542Y-79165580D02*
X140875161Y-79117961D01*
X141208495Y-80213200D02*
X141351352Y-80260819D01*
X141351352Y-80260819D02*
X141589447Y-80260819D01*
X141589447Y-80260819D02*
X141684685Y-80213200D01*
X141684685Y-80213200D02*
X141732304Y-80165580D01*
X141732304Y-80165580D02*
X141779923Y-80070342D01*
X141779923Y-80070342D02*
X141779923Y-79975104D01*
X141779923Y-79975104D02*
X141732304Y-79879866D01*
X141732304Y-79879866D02*
X141684685Y-79832247D01*
X141684685Y-79832247D02*
X141589447Y-79784628D01*
X141589447Y-79784628D02*
X141398971Y-79737009D01*
X141398971Y-79737009D02*
X141303733Y-79689390D01*
X141303733Y-79689390D02*
X141256114Y-79641771D01*
X141256114Y-79641771D02*
X141208495Y-79546533D01*
X141208495Y-79546533D02*
X141208495Y-79451295D01*
X141208495Y-79451295D02*
X141256114Y-79356057D01*
X141256114Y-79356057D02*
X141303733Y-79308438D01*
X141303733Y-79308438D02*
X141398971Y-79260819D01*
X141398971Y-79260819D02*
X141637066Y-79260819D01*
X141637066Y-79260819D02*
X141779923Y-79308438D01*
X142779923Y-80165580D02*
X142732304Y-80213200D01*
X142732304Y-80213200D02*
X142589447Y-80260819D01*
X142589447Y-80260819D02*
X142494209Y-80260819D01*
X142494209Y-80260819D02*
X142351352Y-80213200D01*
X142351352Y-80213200D02*
X142256114Y-80117961D01*
X142256114Y-80117961D02*
X142208495Y-80022723D01*
X142208495Y-80022723D02*
X142160876Y-79832247D01*
X142160876Y-79832247D02*
X142160876Y-79689390D01*
X142160876Y-79689390D02*
X142208495Y-79498914D01*
X142208495Y-79498914D02*
X142256114Y-79403676D01*
X142256114Y-79403676D02*
X142351352Y-79308438D01*
X142351352Y-79308438D02*
X142494209Y-79260819D01*
X142494209Y-79260819D02*
X142589447Y-79260819D01*
X142589447Y-79260819D02*
X142732304Y-79308438D01*
X142732304Y-79308438D02*
X142779923Y-79356057D01*
X143732304Y-80260819D02*
X143160876Y-80260819D01*
X143446590Y-80260819D02*
X143446590Y-79260819D01*
X143446590Y-79260819D02*
X143351352Y-79403676D01*
X143351352Y-79403676D02*
X143256114Y-79498914D01*
X143256114Y-79498914D02*
X143160876Y-79546533D01*
X144589447Y-79260819D02*
X144398971Y-79260819D01*
X144398971Y-79260819D02*
X144303733Y-79308438D01*
X144303733Y-79308438D02*
X144256114Y-79356057D01*
X144256114Y-79356057D02*
X144160876Y-79498914D01*
X144160876Y-79498914D02*
X144113257Y-79689390D01*
X144113257Y-79689390D02*
X144113257Y-80070342D01*
X144113257Y-80070342D02*
X144160876Y-80165580D01*
X144160876Y-80165580D02*
X144208495Y-80213200D01*
X144208495Y-80213200D02*
X144303733Y-80260819D01*
X144303733Y-80260819D02*
X144494209Y-80260819D01*
X144494209Y-80260819D02*
X144589447Y-80213200D01*
X144589447Y-80213200D02*
X144637066Y-80165580D01*
X144637066Y-80165580D02*
X144684685Y-80070342D01*
X144684685Y-80070342D02*
X144684685Y-79832247D01*
X144684685Y-79832247D02*
X144637066Y-79737009D01*
X144637066Y-79737009D02*
X144589447Y-79689390D01*
X144589447Y-79689390D02*
X144494209Y-79641771D01*
X144494209Y-79641771D02*
X144303733Y-79641771D01*
X144303733Y-79641771D02*
X144208495Y-79689390D01*
X144208495Y-79689390D02*
X144160876Y-79737009D01*
X144160876Y-79737009D02*
X144113257Y-79832247D01*
X145303733Y-79260819D02*
X145398971Y-79260819D01*
X145398971Y-79260819D02*
X145494209Y-79308438D01*
X145494209Y-79308438D02*
X145541828Y-79356057D01*
X145541828Y-79356057D02*
X145589447Y-79451295D01*
X145589447Y-79451295D02*
X145637066Y-79641771D01*
X145637066Y-79641771D02*
X145637066Y-79879866D01*
X145637066Y-79879866D02*
X145589447Y-80070342D01*
X145589447Y-80070342D02*
X145541828Y-80165580D01*
X145541828Y-80165580D02*
X145494209Y-80213200D01*
X145494209Y-80213200D02*
X145398971Y-80260819D01*
X145398971Y-80260819D02*
X145303733Y-80260819D01*
X145303733Y-80260819D02*
X145208495Y-80213200D01*
X145208495Y-80213200D02*
X145160876Y-80165580D01*
X145160876Y-80165580D02*
X145113257Y-80070342D01*
X145113257Y-80070342D02*
X145065638Y-79879866D01*
X145065638Y-79879866D02*
X145065638Y-79641771D01*
X145065638Y-79641771D02*
X145113257Y-79451295D01*
X145113257Y-79451295D02*
X145160876Y-79356057D01*
X145160876Y-79356057D02*
X145208495Y-79308438D01*
X145208495Y-79308438D02*
X145303733Y-79260819D01*
X146018019Y-79356057D02*
X146065638Y-79308438D01*
X146065638Y-79308438D02*
X146160876Y-79260819D01*
X146160876Y-79260819D02*
X146398971Y-79260819D01*
X146398971Y-79260819D02*
X146494209Y-79308438D01*
X146494209Y-79308438D02*
X146541828Y-79356057D01*
X146541828Y-79356057D02*
X146589447Y-79451295D01*
X146589447Y-79451295D02*
X146589447Y-79546533D01*
X146589447Y-79546533D02*
X146541828Y-79689390D01*
X146541828Y-79689390D02*
X145970400Y-80260819D01*
X145970400Y-80260819D02*
X146589447Y-80260819D01*
X146922781Y-80641771D02*
X146970400Y-80594152D01*
X146970400Y-80594152D02*
X147065638Y-80451295D01*
X147065638Y-80451295D02*
X147113257Y-80356057D01*
X147113257Y-80356057D02*
X147160876Y-80213200D01*
X147160876Y-80213200D02*
X147208495Y-79975104D01*
X147208495Y-79975104D02*
X147208495Y-79784628D01*
X147208495Y-79784628D02*
X147160876Y-79546533D01*
X147160876Y-79546533D02*
X147113257Y-79403676D01*
X147113257Y-79403676D02*
X147065638Y-79308438D01*
X147065638Y-79308438D02*
X146970400Y-79165580D01*
X146970400Y-79165580D02*
X146922781Y-79117961D01*
X180486207Y-97945580D02*
X180438588Y-97993200D01*
X180438588Y-97993200D02*
X180295731Y-98040819D01*
X180295731Y-98040819D02*
X180200493Y-98040819D01*
X180200493Y-98040819D02*
X180057636Y-97993200D01*
X180057636Y-97993200D02*
X179962398Y-97897961D01*
X179962398Y-97897961D02*
X179914779Y-97802723D01*
X179914779Y-97802723D02*
X179867160Y-97612247D01*
X179867160Y-97612247D02*
X179867160Y-97469390D01*
X179867160Y-97469390D02*
X179914779Y-97278914D01*
X179914779Y-97278914D02*
X179962398Y-97183676D01*
X179962398Y-97183676D02*
X180057636Y-97088438D01*
X180057636Y-97088438D02*
X180200493Y-97040819D01*
X180200493Y-97040819D02*
X180295731Y-97040819D01*
X180295731Y-97040819D02*
X180438588Y-97088438D01*
X180438588Y-97088438D02*
X180486207Y-97136057D01*
X181343350Y-98040819D02*
X181343350Y-97517009D01*
X181343350Y-97517009D02*
X181295731Y-97421771D01*
X181295731Y-97421771D02*
X181200493Y-97374152D01*
X181200493Y-97374152D02*
X181010017Y-97374152D01*
X181010017Y-97374152D02*
X180914779Y-97421771D01*
X181343350Y-97993200D02*
X181248112Y-98040819D01*
X181248112Y-98040819D02*
X181010017Y-98040819D01*
X181010017Y-98040819D02*
X180914779Y-97993200D01*
X180914779Y-97993200D02*
X180867160Y-97897961D01*
X180867160Y-97897961D02*
X180867160Y-97802723D01*
X180867160Y-97802723D02*
X180914779Y-97707485D01*
X180914779Y-97707485D02*
X181010017Y-97659866D01*
X181010017Y-97659866D02*
X181248112Y-97659866D01*
X181248112Y-97659866D02*
X181343350Y-97612247D01*
X181676684Y-97374152D02*
X182057636Y-97374152D01*
X181819541Y-97040819D02*
X181819541Y-97897961D01*
X181819541Y-97897961D02*
X181867160Y-97993200D01*
X181867160Y-97993200D02*
X181962398Y-98040819D01*
X181962398Y-98040819D02*
X182057636Y-98040819D01*
X182390970Y-98040819D02*
X182390970Y-97040819D01*
X182819541Y-98040819D02*
X182819541Y-97517009D01*
X182819541Y-97517009D02*
X182771922Y-97421771D01*
X182771922Y-97421771D02*
X182676684Y-97374152D01*
X182676684Y-97374152D02*
X182533827Y-97374152D01*
X182533827Y-97374152D02*
X182438589Y-97421771D01*
X182438589Y-97421771D02*
X182390970Y-97469390D01*
X183438589Y-98040819D02*
X183343351Y-97993200D01*
X183343351Y-97993200D02*
X183295732Y-97945580D01*
X183295732Y-97945580D02*
X183248113Y-97850342D01*
X183248113Y-97850342D02*
X183248113Y-97564628D01*
X183248113Y-97564628D02*
X183295732Y-97469390D01*
X183295732Y-97469390D02*
X183343351Y-97421771D01*
X183343351Y-97421771D02*
X183438589Y-97374152D01*
X183438589Y-97374152D02*
X183581446Y-97374152D01*
X183581446Y-97374152D02*
X183676684Y-97421771D01*
X183676684Y-97421771D02*
X183724303Y-97469390D01*
X183724303Y-97469390D02*
X183771922Y-97564628D01*
X183771922Y-97564628D02*
X183771922Y-97850342D01*
X183771922Y-97850342D02*
X183724303Y-97945580D01*
X183724303Y-97945580D02*
X183676684Y-97993200D01*
X183676684Y-97993200D02*
X183581446Y-98040819D01*
X183581446Y-98040819D02*
X183438589Y-98040819D01*
X184629065Y-98040819D02*
X184629065Y-97040819D01*
X184629065Y-97993200D02*
X184533827Y-98040819D01*
X184533827Y-98040819D02*
X184343351Y-98040819D01*
X184343351Y-98040819D02*
X184248113Y-97993200D01*
X184248113Y-97993200D02*
X184200494Y-97945580D01*
X184200494Y-97945580D02*
X184152875Y-97850342D01*
X184152875Y-97850342D02*
X184152875Y-97564628D01*
X184152875Y-97564628D02*
X184200494Y-97469390D01*
X184200494Y-97469390D02*
X184248113Y-97421771D01*
X184248113Y-97421771D02*
X184343351Y-97374152D01*
X184343351Y-97374152D02*
X184533827Y-97374152D01*
X184533827Y-97374152D02*
X184629065Y-97421771D01*
X185486208Y-97993200D02*
X185390970Y-98040819D01*
X185390970Y-98040819D02*
X185200494Y-98040819D01*
X185200494Y-98040819D02*
X185105256Y-97993200D01*
X185105256Y-97993200D02*
X185057637Y-97897961D01*
X185057637Y-97897961D02*
X185057637Y-97517009D01*
X185057637Y-97517009D02*
X185105256Y-97421771D01*
X185105256Y-97421771D02*
X185200494Y-97374152D01*
X185200494Y-97374152D02*
X185390970Y-97374152D01*
X185390970Y-97374152D02*
X185486208Y-97421771D01*
X185486208Y-97421771D02*
X185533827Y-97517009D01*
X185533827Y-97517009D02*
X185533827Y-97612247D01*
X185533827Y-97612247D02*
X185057637Y-97707485D01*
X107254922Y-95008819D02*
X107588255Y-96008819D01*
X107588255Y-96008819D02*
X107921588Y-95008819D01*
X108445398Y-95008819D02*
X108635874Y-95008819D01*
X108635874Y-95008819D02*
X108731112Y-95056438D01*
X108731112Y-95056438D02*
X108826350Y-95151676D01*
X108826350Y-95151676D02*
X108873969Y-95342152D01*
X108873969Y-95342152D02*
X108873969Y-95675485D01*
X108873969Y-95675485D02*
X108826350Y-95865961D01*
X108826350Y-95865961D02*
X108731112Y-95961200D01*
X108731112Y-95961200D02*
X108635874Y-96008819D01*
X108635874Y-96008819D02*
X108445398Y-96008819D01*
X108445398Y-96008819D02*
X108350160Y-95961200D01*
X108350160Y-95961200D02*
X108254922Y-95865961D01*
X108254922Y-95865961D02*
X108207303Y-95675485D01*
X108207303Y-95675485D02*
X108207303Y-95342152D01*
X108207303Y-95342152D02*
X108254922Y-95151676D01*
X108254922Y-95151676D02*
X108350160Y-95056438D01*
X108350160Y-95056438D02*
X108445398Y-95008819D01*
X107254922Y-97548819D02*
X107588255Y-98548819D01*
X107588255Y-98548819D02*
X107921588Y-97548819D01*
X108683493Y-98501200D02*
X108588255Y-98548819D01*
X108588255Y-98548819D02*
X108397779Y-98548819D01*
X108397779Y-98548819D02*
X108302541Y-98501200D01*
X108302541Y-98501200D02*
X108254922Y-98453580D01*
X108254922Y-98453580D02*
X108207303Y-98358342D01*
X108207303Y-98358342D02*
X108207303Y-98072628D01*
X108207303Y-98072628D02*
X108254922Y-97977390D01*
X108254922Y-97977390D02*
X108302541Y-97929771D01*
X108302541Y-97929771D02*
X108397779Y-97882152D01*
X108397779Y-97882152D02*
X108588255Y-97882152D01*
X108588255Y-97882152D02*
X108683493Y-97929771D01*
X109540636Y-98501200D02*
X109445398Y-98548819D01*
X109445398Y-98548819D02*
X109254922Y-98548819D01*
X109254922Y-98548819D02*
X109159684Y-98501200D01*
X109159684Y-98501200D02*
X109112065Y-98453580D01*
X109112065Y-98453580D02*
X109064446Y-98358342D01*
X109064446Y-98358342D02*
X109064446Y-98072628D01*
X109064446Y-98072628D02*
X109112065Y-97977390D01*
X109112065Y-97977390D02*
X109159684Y-97929771D01*
X109159684Y-97929771D02*
X109254922Y-97882152D01*
X109254922Y-97882152D02*
X109445398Y-97882152D01*
X109445398Y-97882152D02*
X109540636Y-97929771D01*
X116906922Y-93357819D02*
X117240255Y-94357819D01*
X117240255Y-94357819D02*
X117573588Y-93357819D01*
X118097398Y-93357819D02*
X118287874Y-93357819D01*
X118287874Y-93357819D02*
X118383112Y-93405438D01*
X118383112Y-93405438D02*
X118478350Y-93500676D01*
X118478350Y-93500676D02*
X118525969Y-93691152D01*
X118525969Y-93691152D02*
X118525969Y-94024485D01*
X118525969Y-94024485D02*
X118478350Y-94214961D01*
X118478350Y-94214961D02*
X118383112Y-94310200D01*
X118383112Y-94310200D02*
X118287874Y-94357819D01*
X118287874Y-94357819D02*
X118097398Y-94357819D01*
X118097398Y-94357819D02*
X118002160Y-94310200D01*
X118002160Y-94310200D02*
X117906922Y-94214961D01*
X117906922Y-94214961D02*
X117859303Y-94024485D01*
X117859303Y-94024485D02*
X117859303Y-93691152D01*
X117859303Y-93691152D02*
X117906922Y-93500676D01*
X117906922Y-93500676D02*
X118002160Y-93405438D01*
X118002160Y-93405438D02*
X118097398Y-93357819D01*
X119240255Y-94738771D02*
X119192636Y-94691152D01*
X119192636Y-94691152D02*
X119097398Y-94548295D01*
X119097398Y-94548295D02*
X119049779Y-94453057D01*
X119049779Y-94453057D02*
X119002160Y-94310200D01*
X119002160Y-94310200D02*
X118954541Y-94072104D01*
X118954541Y-94072104D02*
X118954541Y-93881628D01*
X118954541Y-93881628D02*
X119002160Y-93643533D01*
X119002160Y-93643533D02*
X119049779Y-93500676D01*
X119049779Y-93500676D02*
X119097398Y-93405438D01*
X119097398Y-93405438D02*
X119192636Y-93262580D01*
X119192636Y-93262580D02*
X119240255Y-93214961D01*
X119573589Y-94310200D02*
X119716446Y-94357819D01*
X119716446Y-94357819D02*
X119954541Y-94357819D01*
X119954541Y-94357819D02*
X120049779Y-94310200D01*
X120049779Y-94310200D02*
X120097398Y-94262580D01*
X120097398Y-94262580D02*
X120145017Y-94167342D01*
X120145017Y-94167342D02*
X120145017Y-94072104D01*
X120145017Y-94072104D02*
X120097398Y-93976866D01*
X120097398Y-93976866D02*
X120049779Y-93929247D01*
X120049779Y-93929247D02*
X119954541Y-93881628D01*
X119954541Y-93881628D02*
X119764065Y-93834009D01*
X119764065Y-93834009D02*
X119668827Y-93786390D01*
X119668827Y-93786390D02*
X119621208Y-93738771D01*
X119621208Y-93738771D02*
X119573589Y-93643533D01*
X119573589Y-93643533D02*
X119573589Y-93548295D01*
X119573589Y-93548295D02*
X119621208Y-93453057D01*
X119621208Y-93453057D02*
X119668827Y-93405438D01*
X119668827Y-93405438D02*
X119764065Y-93357819D01*
X119764065Y-93357819D02*
X120002160Y-93357819D01*
X120002160Y-93357819D02*
X120145017Y-93405438D01*
X121145017Y-94262580D02*
X121097398Y-94310200D01*
X121097398Y-94310200D02*
X120954541Y-94357819D01*
X120954541Y-94357819D02*
X120859303Y-94357819D01*
X120859303Y-94357819D02*
X120716446Y-94310200D01*
X120716446Y-94310200D02*
X120621208Y-94214961D01*
X120621208Y-94214961D02*
X120573589Y-94119723D01*
X120573589Y-94119723D02*
X120525970Y-93929247D01*
X120525970Y-93929247D02*
X120525970Y-93786390D01*
X120525970Y-93786390D02*
X120573589Y-93595914D01*
X120573589Y-93595914D02*
X120621208Y-93500676D01*
X120621208Y-93500676D02*
X120716446Y-93405438D01*
X120716446Y-93405438D02*
X120859303Y-93357819D01*
X120859303Y-93357819D02*
X120954541Y-93357819D01*
X120954541Y-93357819D02*
X121097398Y-93405438D01*
X121097398Y-93405438D02*
X121145017Y-93453057D01*
X122097398Y-94357819D02*
X121525970Y-94357819D01*
X121811684Y-94357819D02*
X121811684Y-93357819D01*
X121811684Y-93357819D02*
X121716446Y-93500676D01*
X121716446Y-93500676D02*
X121621208Y-93595914D01*
X121621208Y-93595914D02*
X121525970Y-93643533D01*
X122954541Y-93357819D02*
X122764065Y-93357819D01*
X122764065Y-93357819D02*
X122668827Y-93405438D01*
X122668827Y-93405438D02*
X122621208Y-93453057D01*
X122621208Y-93453057D02*
X122525970Y-93595914D01*
X122525970Y-93595914D02*
X122478351Y-93786390D01*
X122478351Y-93786390D02*
X122478351Y-94167342D01*
X122478351Y-94167342D02*
X122525970Y-94262580D01*
X122525970Y-94262580D02*
X122573589Y-94310200D01*
X122573589Y-94310200D02*
X122668827Y-94357819D01*
X122668827Y-94357819D02*
X122859303Y-94357819D01*
X122859303Y-94357819D02*
X122954541Y-94310200D01*
X122954541Y-94310200D02*
X123002160Y-94262580D01*
X123002160Y-94262580D02*
X123049779Y-94167342D01*
X123049779Y-94167342D02*
X123049779Y-93929247D01*
X123049779Y-93929247D02*
X123002160Y-93834009D01*
X123002160Y-93834009D02*
X122954541Y-93786390D01*
X122954541Y-93786390D02*
X122859303Y-93738771D01*
X122859303Y-93738771D02*
X122668827Y-93738771D01*
X122668827Y-93738771D02*
X122573589Y-93786390D01*
X122573589Y-93786390D02*
X122525970Y-93834009D01*
X122525970Y-93834009D02*
X122478351Y-93929247D01*
X123668827Y-93357819D02*
X123764065Y-93357819D01*
X123764065Y-93357819D02*
X123859303Y-93405438D01*
X123859303Y-93405438D02*
X123906922Y-93453057D01*
X123906922Y-93453057D02*
X123954541Y-93548295D01*
X123954541Y-93548295D02*
X124002160Y-93738771D01*
X124002160Y-93738771D02*
X124002160Y-93976866D01*
X124002160Y-93976866D02*
X123954541Y-94167342D01*
X123954541Y-94167342D02*
X123906922Y-94262580D01*
X123906922Y-94262580D02*
X123859303Y-94310200D01*
X123859303Y-94310200D02*
X123764065Y-94357819D01*
X123764065Y-94357819D02*
X123668827Y-94357819D01*
X123668827Y-94357819D02*
X123573589Y-94310200D01*
X123573589Y-94310200D02*
X123525970Y-94262580D01*
X123525970Y-94262580D02*
X123478351Y-94167342D01*
X123478351Y-94167342D02*
X123430732Y-93976866D01*
X123430732Y-93976866D02*
X123430732Y-93738771D01*
X123430732Y-93738771D02*
X123478351Y-93548295D01*
X123478351Y-93548295D02*
X123525970Y-93453057D01*
X123525970Y-93453057D02*
X123573589Y-93405438D01*
X123573589Y-93405438D02*
X123668827Y-93357819D01*
X124383113Y-93453057D02*
X124430732Y-93405438D01*
X124430732Y-93405438D02*
X124525970Y-93357819D01*
X124525970Y-93357819D02*
X124764065Y-93357819D01*
X124764065Y-93357819D02*
X124859303Y-93405438D01*
X124859303Y-93405438D02*
X124906922Y-93453057D01*
X124906922Y-93453057D02*
X124954541Y-93548295D01*
X124954541Y-93548295D02*
X124954541Y-93643533D01*
X124954541Y-93643533D02*
X124906922Y-93786390D01*
X124906922Y-93786390D02*
X124335494Y-94357819D01*
X124335494Y-94357819D02*
X124954541Y-94357819D01*
X125287875Y-94738771D02*
X125335494Y-94691152D01*
X125335494Y-94691152D02*
X125430732Y-94548295D01*
X125430732Y-94548295D02*
X125478351Y-94453057D01*
X125478351Y-94453057D02*
X125525970Y-94310200D01*
X125525970Y-94310200D02*
X125573589Y-94072104D01*
X125573589Y-94072104D02*
X125573589Y-93881628D01*
X125573589Y-93881628D02*
X125525970Y-93643533D01*
X125525970Y-93643533D02*
X125478351Y-93500676D01*
X125478351Y-93500676D02*
X125430732Y-93405438D01*
X125430732Y-93405438D02*
X125335494Y-93262580D01*
X125335494Y-93262580D02*
X125287875Y-93214961D01*
X126811685Y-93691152D02*
X126049780Y-93976866D01*
X126049780Y-93976866D02*
X126811685Y-94262580D01*
X127287875Y-93976866D02*
X128049780Y-93976866D01*
X128525970Y-93691152D02*
X129287875Y-93976866D01*
X129287875Y-93976866D02*
X128525970Y-94262580D01*
X130335493Y-94357819D02*
X130002160Y-93881628D01*
X129764065Y-94357819D02*
X129764065Y-93357819D01*
X129764065Y-93357819D02*
X130145017Y-93357819D01*
X130145017Y-93357819D02*
X130240255Y-93405438D01*
X130240255Y-93405438D02*
X130287874Y-93453057D01*
X130287874Y-93453057D02*
X130335493Y-93548295D01*
X130335493Y-93548295D02*
X130335493Y-93691152D01*
X130335493Y-93691152D02*
X130287874Y-93786390D01*
X130287874Y-93786390D02*
X130240255Y-93834009D01*
X130240255Y-93834009D02*
X130145017Y-93881628D01*
X130145017Y-93881628D02*
X129764065Y-93881628D01*
X130621208Y-93357819D02*
X130954541Y-94357819D01*
X130954541Y-94357819D02*
X131287874Y-93357819D01*
X132145017Y-94357819D02*
X131573589Y-94357819D01*
X131859303Y-94357819D02*
X131859303Y-93357819D01*
X131859303Y-93357819D02*
X131764065Y-93500676D01*
X131764065Y-93500676D02*
X131668827Y-93595914D01*
X131668827Y-93595914D02*
X131573589Y-93643533D01*
X95459779Y-93468819D02*
X95459779Y-92468819D01*
X95459779Y-92468819D02*
X95697874Y-92468819D01*
X95697874Y-92468819D02*
X95840731Y-92516438D01*
X95840731Y-92516438D02*
X95935969Y-92611676D01*
X95935969Y-92611676D02*
X95983588Y-92706914D01*
X95983588Y-92706914D02*
X96031207Y-92897390D01*
X96031207Y-92897390D02*
X96031207Y-93040247D01*
X96031207Y-93040247D02*
X95983588Y-93230723D01*
X95983588Y-93230723D02*
X95935969Y-93325961D01*
X95935969Y-93325961D02*
X95840731Y-93421200D01*
X95840731Y-93421200D02*
X95697874Y-93468819D01*
X95697874Y-93468819D02*
X95459779Y-93468819D01*
X96412160Y-92564057D02*
X96459779Y-92516438D01*
X96459779Y-92516438D02*
X96555017Y-92468819D01*
X96555017Y-92468819D02*
X96793112Y-92468819D01*
X96793112Y-92468819D02*
X96888350Y-92516438D01*
X96888350Y-92516438D02*
X96935969Y-92564057D01*
X96935969Y-92564057D02*
X96983588Y-92659295D01*
X96983588Y-92659295D02*
X96983588Y-92754533D01*
X96983588Y-92754533D02*
X96935969Y-92897390D01*
X96935969Y-92897390D02*
X96364541Y-93468819D01*
X96364541Y-93468819D02*
X96983588Y-93468819D01*
X88300112Y-97898009D02*
X88442969Y-97945628D01*
X88442969Y-97945628D02*
X88490588Y-97993247D01*
X88490588Y-97993247D02*
X88538207Y-98088485D01*
X88538207Y-98088485D02*
X88538207Y-98231342D01*
X88538207Y-98231342D02*
X88490588Y-98326580D01*
X88490588Y-98326580D02*
X88442969Y-98374200D01*
X88442969Y-98374200D02*
X88347731Y-98421819D01*
X88347731Y-98421819D02*
X87966779Y-98421819D01*
X87966779Y-98421819D02*
X87966779Y-97421819D01*
X87966779Y-97421819D02*
X88300112Y-97421819D01*
X88300112Y-97421819D02*
X88395350Y-97469438D01*
X88395350Y-97469438D02*
X88442969Y-97517057D01*
X88442969Y-97517057D02*
X88490588Y-97612295D01*
X88490588Y-97612295D02*
X88490588Y-97707533D01*
X88490588Y-97707533D02*
X88442969Y-97802771D01*
X88442969Y-97802771D02*
X88395350Y-97850390D01*
X88395350Y-97850390D02*
X88300112Y-97898009D01*
X88300112Y-97898009D02*
X87966779Y-97898009D01*
X89442969Y-98421819D02*
X88966779Y-98421819D01*
X88966779Y-98421819D02*
X88966779Y-97421819D01*
X116922779Y-89389009D02*
X117256112Y-89389009D01*
X117398969Y-89912819D02*
X116922779Y-89912819D01*
X116922779Y-89912819D02*
X116922779Y-88912819D01*
X116922779Y-88912819D02*
X117398969Y-88912819D01*
X118113255Y-90293771D02*
X118065636Y-90246152D01*
X118065636Y-90246152D02*
X117970398Y-90103295D01*
X117970398Y-90103295D02*
X117922779Y-90008057D01*
X117922779Y-90008057D02*
X117875160Y-89865200D01*
X117875160Y-89865200D02*
X117827541Y-89627104D01*
X117827541Y-89627104D02*
X117827541Y-89436628D01*
X117827541Y-89436628D02*
X117875160Y-89198533D01*
X117875160Y-89198533D02*
X117922779Y-89055676D01*
X117922779Y-89055676D02*
X117970398Y-88960438D01*
X117970398Y-88960438D02*
X118065636Y-88817580D01*
X118065636Y-88817580D02*
X118113255Y-88769961D01*
X118446589Y-89865200D02*
X118589446Y-89912819D01*
X118589446Y-89912819D02*
X118827541Y-89912819D01*
X118827541Y-89912819D02*
X118922779Y-89865200D01*
X118922779Y-89865200D02*
X118970398Y-89817580D01*
X118970398Y-89817580D02*
X119018017Y-89722342D01*
X119018017Y-89722342D02*
X119018017Y-89627104D01*
X119018017Y-89627104D02*
X118970398Y-89531866D01*
X118970398Y-89531866D02*
X118922779Y-89484247D01*
X118922779Y-89484247D02*
X118827541Y-89436628D01*
X118827541Y-89436628D02*
X118637065Y-89389009D01*
X118637065Y-89389009D02*
X118541827Y-89341390D01*
X118541827Y-89341390D02*
X118494208Y-89293771D01*
X118494208Y-89293771D02*
X118446589Y-89198533D01*
X118446589Y-89198533D02*
X118446589Y-89103295D01*
X118446589Y-89103295D02*
X118494208Y-89008057D01*
X118494208Y-89008057D02*
X118541827Y-88960438D01*
X118541827Y-88960438D02*
X118637065Y-88912819D01*
X118637065Y-88912819D02*
X118875160Y-88912819D01*
X118875160Y-88912819D02*
X119018017Y-88960438D01*
X120018017Y-89817580D02*
X119970398Y-89865200D01*
X119970398Y-89865200D02*
X119827541Y-89912819D01*
X119827541Y-89912819D02*
X119732303Y-89912819D01*
X119732303Y-89912819D02*
X119589446Y-89865200D01*
X119589446Y-89865200D02*
X119494208Y-89769961D01*
X119494208Y-89769961D02*
X119446589Y-89674723D01*
X119446589Y-89674723D02*
X119398970Y-89484247D01*
X119398970Y-89484247D02*
X119398970Y-89341390D01*
X119398970Y-89341390D02*
X119446589Y-89150914D01*
X119446589Y-89150914D02*
X119494208Y-89055676D01*
X119494208Y-89055676D02*
X119589446Y-88960438D01*
X119589446Y-88960438D02*
X119732303Y-88912819D01*
X119732303Y-88912819D02*
X119827541Y-88912819D01*
X119827541Y-88912819D02*
X119970398Y-88960438D01*
X119970398Y-88960438D02*
X120018017Y-89008057D01*
X120970398Y-89912819D02*
X120398970Y-89912819D01*
X120684684Y-89912819D02*
X120684684Y-88912819D01*
X120684684Y-88912819D02*
X120589446Y-89055676D01*
X120589446Y-89055676D02*
X120494208Y-89150914D01*
X120494208Y-89150914D02*
X120398970Y-89198533D01*
X121827541Y-88912819D02*
X121637065Y-88912819D01*
X121637065Y-88912819D02*
X121541827Y-88960438D01*
X121541827Y-88960438D02*
X121494208Y-89008057D01*
X121494208Y-89008057D02*
X121398970Y-89150914D01*
X121398970Y-89150914D02*
X121351351Y-89341390D01*
X121351351Y-89341390D02*
X121351351Y-89722342D01*
X121351351Y-89722342D02*
X121398970Y-89817580D01*
X121398970Y-89817580D02*
X121446589Y-89865200D01*
X121446589Y-89865200D02*
X121541827Y-89912819D01*
X121541827Y-89912819D02*
X121732303Y-89912819D01*
X121732303Y-89912819D02*
X121827541Y-89865200D01*
X121827541Y-89865200D02*
X121875160Y-89817580D01*
X121875160Y-89817580D02*
X121922779Y-89722342D01*
X121922779Y-89722342D02*
X121922779Y-89484247D01*
X121922779Y-89484247D02*
X121875160Y-89389009D01*
X121875160Y-89389009D02*
X121827541Y-89341390D01*
X121827541Y-89341390D02*
X121732303Y-89293771D01*
X121732303Y-89293771D02*
X121541827Y-89293771D01*
X121541827Y-89293771D02*
X121446589Y-89341390D01*
X121446589Y-89341390D02*
X121398970Y-89389009D01*
X121398970Y-89389009D02*
X121351351Y-89484247D01*
X122541827Y-88912819D02*
X122637065Y-88912819D01*
X122637065Y-88912819D02*
X122732303Y-88960438D01*
X122732303Y-88960438D02*
X122779922Y-89008057D01*
X122779922Y-89008057D02*
X122827541Y-89103295D01*
X122827541Y-89103295D02*
X122875160Y-89293771D01*
X122875160Y-89293771D02*
X122875160Y-89531866D01*
X122875160Y-89531866D02*
X122827541Y-89722342D01*
X122827541Y-89722342D02*
X122779922Y-89817580D01*
X122779922Y-89817580D02*
X122732303Y-89865200D01*
X122732303Y-89865200D02*
X122637065Y-89912819D01*
X122637065Y-89912819D02*
X122541827Y-89912819D01*
X122541827Y-89912819D02*
X122446589Y-89865200D01*
X122446589Y-89865200D02*
X122398970Y-89817580D01*
X122398970Y-89817580D02*
X122351351Y-89722342D01*
X122351351Y-89722342D02*
X122303732Y-89531866D01*
X122303732Y-89531866D02*
X122303732Y-89293771D01*
X122303732Y-89293771D02*
X122351351Y-89103295D01*
X122351351Y-89103295D02*
X122398970Y-89008057D01*
X122398970Y-89008057D02*
X122446589Y-88960438D01*
X122446589Y-88960438D02*
X122541827Y-88912819D01*
X123256113Y-89008057D02*
X123303732Y-88960438D01*
X123303732Y-88960438D02*
X123398970Y-88912819D01*
X123398970Y-88912819D02*
X123637065Y-88912819D01*
X123637065Y-88912819D02*
X123732303Y-88960438D01*
X123732303Y-88960438D02*
X123779922Y-89008057D01*
X123779922Y-89008057D02*
X123827541Y-89103295D01*
X123827541Y-89103295D02*
X123827541Y-89198533D01*
X123827541Y-89198533D02*
X123779922Y-89341390D01*
X123779922Y-89341390D02*
X123208494Y-89912819D01*
X123208494Y-89912819D02*
X123827541Y-89912819D01*
X124160875Y-90293771D02*
X124208494Y-90246152D01*
X124208494Y-90246152D02*
X124303732Y-90103295D01*
X124303732Y-90103295D02*
X124351351Y-90008057D01*
X124351351Y-90008057D02*
X124398970Y-89865200D01*
X124398970Y-89865200D02*
X124446589Y-89627104D01*
X124446589Y-89627104D02*
X124446589Y-89436628D01*
X124446589Y-89436628D02*
X124398970Y-89198533D01*
X124398970Y-89198533D02*
X124351351Y-89055676D01*
X124351351Y-89055676D02*
X124303732Y-88960438D01*
X124303732Y-88960438D02*
X124208494Y-88817580D01*
X124208494Y-88817580D02*
X124160875Y-88769961D01*
X125684685Y-89246152D02*
X124922780Y-89531866D01*
X124922780Y-89531866D02*
X125684685Y-89817580D01*
X126160875Y-89531866D02*
X126922780Y-89531866D01*
X127398970Y-89246152D02*
X128160875Y-89531866D01*
X128160875Y-89531866D02*
X127398970Y-89817580D01*
X129160874Y-88960438D02*
X129065636Y-88912819D01*
X129065636Y-88912819D02*
X128922779Y-88912819D01*
X128922779Y-88912819D02*
X128779922Y-88960438D01*
X128779922Y-88960438D02*
X128684684Y-89055676D01*
X128684684Y-89055676D02*
X128637065Y-89150914D01*
X128637065Y-89150914D02*
X128589446Y-89341390D01*
X128589446Y-89341390D02*
X128589446Y-89484247D01*
X128589446Y-89484247D02*
X128637065Y-89674723D01*
X128637065Y-89674723D02*
X128684684Y-89769961D01*
X128684684Y-89769961D02*
X128779922Y-89865200D01*
X128779922Y-89865200D02*
X128922779Y-89912819D01*
X128922779Y-89912819D02*
X129018017Y-89912819D01*
X129018017Y-89912819D02*
X129160874Y-89865200D01*
X129160874Y-89865200D02*
X129208493Y-89817580D01*
X129208493Y-89817580D02*
X129208493Y-89484247D01*
X129208493Y-89484247D02*
X129018017Y-89484247D01*
X129637065Y-89912819D02*
X129637065Y-88912819D01*
X129637065Y-88912819D02*
X130208493Y-89912819D01*
X130208493Y-89912819D02*
X130208493Y-88912819D01*
X130684684Y-89912819D02*
X130684684Y-88912819D01*
X130684684Y-88912819D02*
X130922779Y-88912819D01*
X130922779Y-88912819D02*
X131065636Y-88960438D01*
X131065636Y-88960438D02*
X131160874Y-89055676D01*
X131160874Y-89055676D02*
X131208493Y-89150914D01*
X131208493Y-89150914D02*
X131256112Y-89341390D01*
X131256112Y-89341390D02*
X131256112Y-89484247D01*
X131256112Y-89484247D02*
X131208493Y-89674723D01*
X131208493Y-89674723D02*
X131160874Y-89769961D01*
X131160874Y-89769961D02*
X131065636Y-89865200D01*
X131065636Y-89865200D02*
X130922779Y-89912819D01*
X130922779Y-89912819D02*
X130684684Y-89912819D01*
X107842207Y-93468819D02*
X107508874Y-92992628D01*
X107270779Y-93468819D02*
X107270779Y-92468819D01*
X107270779Y-92468819D02*
X107651731Y-92468819D01*
X107651731Y-92468819D02*
X107746969Y-92516438D01*
X107746969Y-92516438D02*
X107794588Y-92564057D01*
X107794588Y-92564057D02*
X107842207Y-92659295D01*
X107842207Y-92659295D02*
X107842207Y-92802152D01*
X107842207Y-92802152D02*
X107794588Y-92897390D01*
X107794588Y-92897390D02*
X107746969Y-92945009D01*
X107746969Y-92945009D02*
X107651731Y-92992628D01*
X107651731Y-92992628D02*
X107270779Y-92992628D01*
X108985064Y-92421200D02*
X108127922Y-93706914D01*
X109223160Y-92468819D02*
X109461255Y-93468819D01*
X109461255Y-93468819D02*
X109651731Y-92754533D01*
X109651731Y-92754533D02*
X109842207Y-93468819D01*
X109842207Y-93468819D02*
X110080303Y-92468819D01*
X156943588Y-88452438D02*
X156848350Y-88404819D01*
X156848350Y-88404819D02*
X156705493Y-88404819D01*
X156705493Y-88404819D02*
X156562636Y-88452438D01*
X156562636Y-88452438D02*
X156467398Y-88547676D01*
X156467398Y-88547676D02*
X156419779Y-88642914D01*
X156419779Y-88642914D02*
X156372160Y-88833390D01*
X156372160Y-88833390D02*
X156372160Y-88976247D01*
X156372160Y-88976247D02*
X156419779Y-89166723D01*
X156419779Y-89166723D02*
X156467398Y-89261961D01*
X156467398Y-89261961D02*
X156562636Y-89357200D01*
X156562636Y-89357200D02*
X156705493Y-89404819D01*
X156705493Y-89404819D02*
X156800731Y-89404819D01*
X156800731Y-89404819D02*
X156943588Y-89357200D01*
X156943588Y-89357200D02*
X156991207Y-89309580D01*
X156991207Y-89309580D02*
X156991207Y-88976247D01*
X156991207Y-88976247D02*
X156800731Y-88976247D01*
X157419779Y-89404819D02*
X157419779Y-88404819D01*
X157419779Y-88404819D02*
X157991207Y-89404819D01*
X157991207Y-89404819D02*
X157991207Y-88404819D01*
X158467398Y-89404819D02*
X158467398Y-88404819D01*
X158467398Y-88404819D02*
X158705493Y-88404819D01*
X158705493Y-88404819D02*
X158848350Y-88452438D01*
X158848350Y-88452438D02*
X158943588Y-88547676D01*
X158943588Y-88547676D02*
X158991207Y-88642914D01*
X158991207Y-88642914D02*
X159038826Y-88833390D01*
X159038826Y-88833390D02*
X159038826Y-88976247D01*
X159038826Y-88976247D02*
X158991207Y-89166723D01*
X158991207Y-89166723D02*
X158943588Y-89261961D01*
X158943588Y-89261961D02*
X158848350Y-89357200D01*
X158848350Y-89357200D02*
X158705493Y-89404819D01*
X158705493Y-89404819D02*
X158467398Y-89404819D01*
X160229303Y-88738152D02*
X159467398Y-89023866D01*
X159467398Y-89023866D02*
X160229303Y-89309580D01*
X160705493Y-89023866D02*
X161467398Y-89023866D01*
X161943588Y-88738152D02*
X162705493Y-89023866D01*
X162705493Y-89023866D02*
X161943588Y-89309580D01*
X163753111Y-89309580D02*
X163705492Y-89357200D01*
X163705492Y-89357200D02*
X163562635Y-89404819D01*
X163562635Y-89404819D02*
X163467397Y-89404819D01*
X163467397Y-89404819D02*
X163324540Y-89357200D01*
X163324540Y-89357200D02*
X163229302Y-89261961D01*
X163229302Y-89261961D02*
X163181683Y-89166723D01*
X163181683Y-89166723D02*
X163134064Y-88976247D01*
X163134064Y-88976247D02*
X163134064Y-88833390D01*
X163134064Y-88833390D02*
X163181683Y-88642914D01*
X163181683Y-88642914D02*
X163229302Y-88547676D01*
X163229302Y-88547676D02*
X163324540Y-88452438D01*
X163324540Y-88452438D02*
X163467397Y-88404819D01*
X163467397Y-88404819D02*
X163562635Y-88404819D01*
X163562635Y-88404819D02*
X163705492Y-88452438D01*
X163705492Y-88452438D02*
X163753111Y-88500057D01*
X164610254Y-89404819D02*
X164610254Y-88881009D01*
X164610254Y-88881009D02*
X164562635Y-88785771D01*
X164562635Y-88785771D02*
X164467397Y-88738152D01*
X164467397Y-88738152D02*
X164276921Y-88738152D01*
X164276921Y-88738152D02*
X164181683Y-88785771D01*
X164610254Y-89357200D02*
X164515016Y-89404819D01*
X164515016Y-89404819D02*
X164276921Y-89404819D01*
X164276921Y-89404819D02*
X164181683Y-89357200D01*
X164181683Y-89357200D02*
X164134064Y-89261961D01*
X164134064Y-89261961D02*
X164134064Y-89166723D01*
X164134064Y-89166723D02*
X164181683Y-89071485D01*
X164181683Y-89071485D02*
X164276921Y-89023866D01*
X164276921Y-89023866D02*
X164515016Y-89023866D01*
X164515016Y-89023866D02*
X164610254Y-88976247D01*
X164943588Y-88738152D02*
X165324540Y-88738152D01*
X165086445Y-88404819D02*
X165086445Y-89261961D01*
X165086445Y-89261961D02*
X165134064Y-89357200D01*
X165134064Y-89357200D02*
X165229302Y-89404819D01*
X165229302Y-89404819D02*
X165324540Y-89404819D01*
X165657874Y-89404819D02*
X165657874Y-88404819D01*
X166086445Y-89404819D02*
X166086445Y-88881009D01*
X166086445Y-88881009D02*
X166038826Y-88785771D01*
X166038826Y-88785771D02*
X165943588Y-88738152D01*
X165943588Y-88738152D02*
X165800731Y-88738152D01*
X165800731Y-88738152D02*
X165705493Y-88785771D01*
X165705493Y-88785771D02*
X165657874Y-88833390D01*
X166705493Y-89404819D02*
X166610255Y-89357200D01*
X166610255Y-89357200D02*
X166562636Y-89309580D01*
X166562636Y-89309580D02*
X166515017Y-89214342D01*
X166515017Y-89214342D02*
X166515017Y-88928628D01*
X166515017Y-88928628D02*
X166562636Y-88833390D01*
X166562636Y-88833390D02*
X166610255Y-88785771D01*
X166610255Y-88785771D02*
X166705493Y-88738152D01*
X166705493Y-88738152D02*
X166848350Y-88738152D01*
X166848350Y-88738152D02*
X166943588Y-88785771D01*
X166943588Y-88785771D02*
X166991207Y-88833390D01*
X166991207Y-88833390D02*
X167038826Y-88928628D01*
X167038826Y-88928628D02*
X167038826Y-89214342D01*
X167038826Y-89214342D02*
X166991207Y-89309580D01*
X166991207Y-89309580D02*
X166943588Y-89357200D01*
X166943588Y-89357200D02*
X166848350Y-89404819D01*
X166848350Y-89404819D02*
X166705493Y-89404819D01*
X167895969Y-89404819D02*
X167895969Y-88404819D01*
X167895969Y-89357200D02*
X167800731Y-89404819D01*
X167800731Y-89404819D02*
X167610255Y-89404819D01*
X167610255Y-89404819D02*
X167515017Y-89357200D01*
X167515017Y-89357200D02*
X167467398Y-89309580D01*
X167467398Y-89309580D02*
X167419779Y-89214342D01*
X167419779Y-89214342D02*
X167419779Y-88928628D01*
X167419779Y-88928628D02*
X167467398Y-88833390D01*
X167467398Y-88833390D02*
X167515017Y-88785771D01*
X167515017Y-88785771D02*
X167610255Y-88738152D01*
X167610255Y-88738152D02*
X167800731Y-88738152D01*
X167800731Y-88738152D02*
X167895969Y-88785771D01*
X168753112Y-89357200D02*
X168657874Y-89404819D01*
X168657874Y-89404819D02*
X168467398Y-89404819D01*
X168467398Y-89404819D02*
X168372160Y-89357200D01*
X168372160Y-89357200D02*
X168324541Y-89261961D01*
X168324541Y-89261961D02*
X168324541Y-88881009D01*
X168324541Y-88881009D02*
X168372160Y-88785771D01*
X168372160Y-88785771D02*
X168467398Y-88738152D01*
X168467398Y-88738152D02*
X168657874Y-88738152D01*
X168657874Y-88738152D02*
X168753112Y-88785771D01*
X168753112Y-88785771D02*
X168800731Y-88881009D01*
X168800731Y-88881009D02*
X168800731Y-88976247D01*
X168800731Y-88976247D02*
X168324541Y-89071485D01*
X169515017Y-89785771D02*
X169467398Y-89738152D01*
X169467398Y-89738152D02*
X169372160Y-89595295D01*
X169372160Y-89595295D02*
X169324541Y-89500057D01*
X169324541Y-89500057D02*
X169276922Y-89357200D01*
X169276922Y-89357200D02*
X169229303Y-89119104D01*
X169229303Y-89119104D02*
X169229303Y-88928628D01*
X169229303Y-88928628D02*
X169276922Y-88690533D01*
X169276922Y-88690533D02*
X169324541Y-88547676D01*
X169324541Y-88547676D02*
X169372160Y-88452438D01*
X169372160Y-88452438D02*
X169467398Y-88309580D01*
X169467398Y-88309580D02*
X169515017Y-88261961D01*
X169848351Y-89357200D02*
X169991208Y-89404819D01*
X169991208Y-89404819D02*
X170229303Y-89404819D01*
X170229303Y-89404819D02*
X170324541Y-89357200D01*
X170324541Y-89357200D02*
X170372160Y-89309580D01*
X170372160Y-89309580D02*
X170419779Y-89214342D01*
X170419779Y-89214342D02*
X170419779Y-89119104D01*
X170419779Y-89119104D02*
X170372160Y-89023866D01*
X170372160Y-89023866D02*
X170324541Y-88976247D01*
X170324541Y-88976247D02*
X170229303Y-88928628D01*
X170229303Y-88928628D02*
X170038827Y-88881009D01*
X170038827Y-88881009D02*
X169943589Y-88833390D01*
X169943589Y-88833390D02*
X169895970Y-88785771D01*
X169895970Y-88785771D02*
X169848351Y-88690533D01*
X169848351Y-88690533D02*
X169848351Y-88595295D01*
X169848351Y-88595295D02*
X169895970Y-88500057D01*
X169895970Y-88500057D02*
X169943589Y-88452438D01*
X169943589Y-88452438D02*
X170038827Y-88404819D01*
X170038827Y-88404819D02*
X170276922Y-88404819D01*
X170276922Y-88404819D02*
X170419779Y-88452438D01*
X171419779Y-89309580D02*
X171372160Y-89357200D01*
X171372160Y-89357200D02*
X171229303Y-89404819D01*
X171229303Y-89404819D02*
X171134065Y-89404819D01*
X171134065Y-89404819D02*
X170991208Y-89357200D01*
X170991208Y-89357200D02*
X170895970Y-89261961D01*
X170895970Y-89261961D02*
X170848351Y-89166723D01*
X170848351Y-89166723D02*
X170800732Y-88976247D01*
X170800732Y-88976247D02*
X170800732Y-88833390D01*
X170800732Y-88833390D02*
X170848351Y-88642914D01*
X170848351Y-88642914D02*
X170895970Y-88547676D01*
X170895970Y-88547676D02*
X170991208Y-88452438D01*
X170991208Y-88452438D02*
X171134065Y-88404819D01*
X171134065Y-88404819D02*
X171229303Y-88404819D01*
X171229303Y-88404819D02*
X171372160Y-88452438D01*
X171372160Y-88452438D02*
X171419779Y-88500057D01*
X172372160Y-89404819D02*
X171800732Y-89404819D01*
X172086446Y-89404819D02*
X172086446Y-88404819D01*
X172086446Y-88404819D02*
X171991208Y-88547676D01*
X171991208Y-88547676D02*
X171895970Y-88642914D01*
X171895970Y-88642914D02*
X171800732Y-88690533D01*
X173229303Y-88404819D02*
X173038827Y-88404819D01*
X173038827Y-88404819D02*
X172943589Y-88452438D01*
X172943589Y-88452438D02*
X172895970Y-88500057D01*
X172895970Y-88500057D02*
X172800732Y-88642914D01*
X172800732Y-88642914D02*
X172753113Y-88833390D01*
X172753113Y-88833390D02*
X172753113Y-89214342D01*
X172753113Y-89214342D02*
X172800732Y-89309580D01*
X172800732Y-89309580D02*
X172848351Y-89357200D01*
X172848351Y-89357200D02*
X172943589Y-89404819D01*
X172943589Y-89404819D02*
X173134065Y-89404819D01*
X173134065Y-89404819D02*
X173229303Y-89357200D01*
X173229303Y-89357200D02*
X173276922Y-89309580D01*
X173276922Y-89309580D02*
X173324541Y-89214342D01*
X173324541Y-89214342D02*
X173324541Y-88976247D01*
X173324541Y-88976247D02*
X173276922Y-88881009D01*
X173276922Y-88881009D02*
X173229303Y-88833390D01*
X173229303Y-88833390D02*
X173134065Y-88785771D01*
X173134065Y-88785771D02*
X172943589Y-88785771D01*
X172943589Y-88785771D02*
X172848351Y-88833390D01*
X172848351Y-88833390D02*
X172800732Y-88881009D01*
X172800732Y-88881009D02*
X172753113Y-88976247D01*
X173943589Y-88404819D02*
X174038827Y-88404819D01*
X174038827Y-88404819D02*
X174134065Y-88452438D01*
X174134065Y-88452438D02*
X174181684Y-88500057D01*
X174181684Y-88500057D02*
X174229303Y-88595295D01*
X174229303Y-88595295D02*
X174276922Y-88785771D01*
X174276922Y-88785771D02*
X174276922Y-89023866D01*
X174276922Y-89023866D02*
X174229303Y-89214342D01*
X174229303Y-89214342D02*
X174181684Y-89309580D01*
X174181684Y-89309580D02*
X174134065Y-89357200D01*
X174134065Y-89357200D02*
X174038827Y-89404819D01*
X174038827Y-89404819D02*
X173943589Y-89404819D01*
X173943589Y-89404819D02*
X173848351Y-89357200D01*
X173848351Y-89357200D02*
X173800732Y-89309580D01*
X173800732Y-89309580D02*
X173753113Y-89214342D01*
X173753113Y-89214342D02*
X173705494Y-89023866D01*
X173705494Y-89023866D02*
X173705494Y-88785771D01*
X173705494Y-88785771D02*
X173753113Y-88595295D01*
X173753113Y-88595295D02*
X173800732Y-88500057D01*
X173800732Y-88500057D02*
X173848351Y-88452438D01*
X173848351Y-88452438D02*
X173943589Y-88404819D01*
X174657875Y-88500057D02*
X174705494Y-88452438D01*
X174705494Y-88452438D02*
X174800732Y-88404819D01*
X174800732Y-88404819D02*
X175038827Y-88404819D01*
X175038827Y-88404819D02*
X175134065Y-88452438D01*
X175134065Y-88452438D02*
X175181684Y-88500057D01*
X175181684Y-88500057D02*
X175229303Y-88595295D01*
X175229303Y-88595295D02*
X175229303Y-88690533D01*
X175229303Y-88690533D02*
X175181684Y-88833390D01*
X175181684Y-88833390D02*
X174610256Y-89404819D01*
X174610256Y-89404819D02*
X175229303Y-89404819D01*
X175562637Y-89785771D02*
X175610256Y-89738152D01*
X175610256Y-89738152D02*
X175705494Y-89595295D01*
X175705494Y-89595295D02*
X175753113Y-89500057D01*
X175753113Y-89500057D02*
X175800732Y-89357200D01*
X175800732Y-89357200D02*
X175848351Y-89119104D01*
X175848351Y-89119104D02*
X175848351Y-88928628D01*
X175848351Y-88928628D02*
X175800732Y-88690533D01*
X175800732Y-88690533D02*
X175753113Y-88547676D01*
X175753113Y-88547676D02*
X175705494Y-88452438D01*
X175705494Y-88452438D02*
X175610256Y-88309580D01*
X175610256Y-88309580D02*
X175562637Y-88261961D01*
X117383112Y-84182009D02*
X117525969Y-84229628D01*
X117525969Y-84229628D02*
X117573588Y-84277247D01*
X117573588Y-84277247D02*
X117621207Y-84372485D01*
X117621207Y-84372485D02*
X117621207Y-84515342D01*
X117621207Y-84515342D02*
X117573588Y-84610580D01*
X117573588Y-84610580D02*
X117525969Y-84658200D01*
X117525969Y-84658200D02*
X117430731Y-84705819D01*
X117430731Y-84705819D02*
X117049779Y-84705819D01*
X117049779Y-84705819D02*
X117049779Y-83705819D01*
X117049779Y-83705819D02*
X117383112Y-83705819D01*
X117383112Y-83705819D02*
X117478350Y-83753438D01*
X117478350Y-83753438D02*
X117525969Y-83801057D01*
X117525969Y-83801057D02*
X117573588Y-83896295D01*
X117573588Y-83896295D02*
X117573588Y-83991533D01*
X117573588Y-83991533D02*
X117525969Y-84086771D01*
X117525969Y-84086771D02*
X117478350Y-84134390D01*
X117478350Y-84134390D02*
X117383112Y-84182009D01*
X117383112Y-84182009D02*
X117049779Y-84182009D01*
X118478350Y-84705819D02*
X118478350Y-84182009D01*
X118478350Y-84182009D02*
X118430731Y-84086771D01*
X118430731Y-84086771D02*
X118335493Y-84039152D01*
X118335493Y-84039152D02*
X118145017Y-84039152D01*
X118145017Y-84039152D02*
X118049779Y-84086771D01*
X118478350Y-84658200D02*
X118383112Y-84705819D01*
X118383112Y-84705819D02*
X118145017Y-84705819D01*
X118145017Y-84705819D02*
X118049779Y-84658200D01*
X118049779Y-84658200D02*
X118002160Y-84562961D01*
X118002160Y-84562961D02*
X118002160Y-84467723D01*
X118002160Y-84467723D02*
X118049779Y-84372485D01*
X118049779Y-84372485D02*
X118145017Y-84324866D01*
X118145017Y-84324866D02*
X118383112Y-84324866D01*
X118383112Y-84324866D02*
X118478350Y-84277247D01*
X119383112Y-84658200D02*
X119287874Y-84705819D01*
X119287874Y-84705819D02*
X119097398Y-84705819D01*
X119097398Y-84705819D02*
X119002160Y-84658200D01*
X119002160Y-84658200D02*
X118954541Y-84610580D01*
X118954541Y-84610580D02*
X118906922Y-84515342D01*
X118906922Y-84515342D02*
X118906922Y-84229628D01*
X118906922Y-84229628D02*
X118954541Y-84134390D01*
X118954541Y-84134390D02*
X119002160Y-84086771D01*
X119002160Y-84086771D02*
X119097398Y-84039152D01*
X119097398Y-84039152D02*
X119287874Y-84039152D01*
X119287874Y-84039152D02*
X119383112Y-84086771D01*
X119811684Y-84705819D02*
X119811684Y-83705819D01*
X119906922Y-84324866D02*
X120192636Y-84705819D01*
X120192636Y-84039152D02*
X119811684Y-84420104D01*
X121097398Y-84705819D02*
X120621208Y-84705819D01*
X120621208Y-84705819D02*
X120621208Y-83705819D01*
X121430732Y-84705819D02*
X121430732Y-84039152D01*
X121430732Y-83705819D02*
X121383113Y-83753438D01*
X121383113Y-83753438D02*
X121430732Y-83801057D01*
X121430732Y-83801057D02*
X121478351Y-83753438D01*
X121478351Y-83753438D02*
X121430732Y-83705819D01*
X121430732Y-83705819D02*
X121430732Y-83801057D01*
X122335493Y-84039152D02*
X122335493Y-84848676D01*
X122335493Y-84848676D02*
X122287874Y-84943914D01*
X122287874Y-84943914D02*
X122240255Y-84991533D01*
X122240255Y-84991533D02*
X122145017Y-85039152D01*
X122145017Y-85039152D02*
X122002160Y-85039152D01*
X122002160Y-85039152D02*
X121906922Y-84991533D01*
X122335493Y-84658200D02*
X122240255Y-84705819D01*
X122240255Y-84705819D02*
X122049779Y-84705819D01*
X122049779Y-84705819D02*
X121954541Y-84658200D01*
X121954541Y-84658200D02*
X121906922Y-84610580D01*
X121906922Y-84610580D02*
X121859303Y-84515342D01*
X121859303Y-84515342D02*
X121859303Y-84229628D01*
X121859303Y-84229628D02*
X121906922Y-84134390D01*
X121906922Y-84134390D02*
X121954541Y-84086771D01*
X121954541Y-84086771D02*
X122049779Y-84039152D01*
X122049779Y-84039152D02*
X122240255Y-84039152D01*
X122240255Y-84039152D02*
X122335493Y-84086771D01*
X122811684Y-84705819D02*
X122811684Y-83705819D01*
X123240255Y-84705819D02*
X123240255Y-84182009D01*
X123240255Y-84182009D02*
X123192636Y-84086771D01*
X123192636Y-84086771D02*
X123097398Y-84039152D01*
X123097398Y-84039152D02*
X122954541Y-84039152D01*
X122954541Y-84039152D02*
X122859303Y-84086771D01*
X122859303Y-84086771D02*
X122811684Y-84134390D01*
X123573589Y-84039152D02*
X123954541Y-84039152D01*
X123716446Y-83705819D02*
X123716446Y-84562961D01*
X123716446Y-84562961D02*
X123764065Y-84658200D01*
X123764065Y-84658200D02*
X123859303Y-84705819D01*
X123859303Y-84705819D02*
X123954541Y-84705819D01*
X124573589Y-85086771D02*
X124525970Y-85039152D01*
X124525970Y-85039152D02*
X124430732Y-84896295D01*
X124430732Y-84896295D02*
X124383113Y-84801057D01*
X124383113Y-84801057D02*
X124335494Y-84658200D01*
X124335494Y-84658200D02*
X124287875Y-84420104D01*
X124287875Y-84420104D02*
X124287875Y-84229628D01*
X124287875Y-84229628D02*
X124335494Y-83991533D01*
X124335494Y-83991533D02*
X124383113Y-83848676D01*
X124383113Y-83848676D02*
X124430732Y-83753438D01*
X124430732Y-83753438D02*
X124525970Y-83610580D01*
X124525970Y-83610580D02*
X124573589Y-83562961D01*
X124954542Y-84705819D02*
X124954542Y-83705819D01*
X124954542Y-83705819D02*
X125335494Y-83705819D01*
X125335494Y-83705819D02*
X125430732Y-83753438D01*
X125430732Y-83753438D02*
X125478351Y-83801057D01*
X125478351Y-83801057D02*
X125525970Y-83896295D01*
X125525970Y-83896295D02*
X125525970Y-84039152D01*
X125525970Y-84039152D02*
X125478351Y-84134390D01*
X125478351Y-84134390D02*
X125430732Y-84182009D01*
X125430732Y-84182009D02*
X125335494Y-84229628D01*
X125335494Y-84229628D02*
X124954542Y-84229628D01*
X125954542Y-84705819D02*
X125954542Y-84039152D01*
X125954542Y-84134390D02*
X126002161Y-84086771D01*
X126002161Y-84086771D02*
X126097399Y-84039152D01*
X126097399Y-84039152D02*
X126240256Y-84039152D01*
X126240256Y-84039152D02*
X126335494Y-84086771D01*
X126335494Y-84086771D02*
X126383113Y-84182009D01*
X126383113Y-84182009D02*
X126383113Y-84705819D01*
X126383113Y-84182009D02*
X126430732Y-84086771D01*
X126430732Y-84086771D02*
X126525970Y-84039152D01*
X126525970Y-84039152D02*
X126668827Y-84039152D01*
X126668827Y-84039152D02*
X126764066Y-84086771D01*
X126764066Y-84086771D02*
X126811685Y-84182009D01*
X126811685Y-84182009D02*
X126811685Y-84705819D01*
X127430732Y-84705819D02*
X127335494Y-84658200D01*
X127335494Y-84658200D02*
X127287875Y-84610580D01*
X127287875Y-84610580D02*
X127240256Y-84515342D01*
X127240256Y-84515342D02*
X127240256Y-84229628D01*
X127240256Y-84229628D02*
X127287875Y-84134390D01*
X127287875Y-84134390D02*
X127335494Y-84086771D01*
X127335494Y-84086771D02*
X127430732Y-84039152D01*
X127430732Y-84039152D02*
X127573589Y-84039152D01*
X127573589Y-84039152D02*
X127668827Y-84086771D01*
X127668827Y-84086771D02*
X127716446Y-84134390D01*
X127716446Y-84134390D02*
X127764065Y-84229628D01*
X127764065Y-84229628D02*
X127764065Y-84515342D01*
X127764065Y-84515342D02*
X127716446Y-84610580D01*
X127716446Y-84610580D02*
X127668827Y-84658200D01*
X127668827Y-84658200D02*
X127573589Y-84705819D01*
X127573589Y-84705819D02*
X127430732Y-84705819D01*
X128621208Y-84705819D02*
X128621208Y-83705819D01*
X128621208Y-84658200D02*
X128525970Y-84705819D01*
X128525970Y-84705819D02*
X128335494Y-84705819D01*
X128335494Y-84705819D02*
X128240256Y-84658200D01*
X128240256Y-84658200D02*
X128192637Y-84610580D01*
X128192637Y-84610580D02*
X128145018Y-84515342D01*
X128145018Y-84515342D02*
X128145018Y-84229628D01*
X128145018Y-84229628D02*
X128192637Y-84134390D01*
X128192637Y-84134390D02*
X128240256Y-84086771D01*
X128240256Y-84086771D02*
X128335494Y-84039152D01*
X128335494Y-84039152D02*
X128525970Y-84039152D01*
X128525970Y-84039152D02*
X128621208Y-84086771D01*
X129002161Y-85086771D02*
X129049780Y-85039152D01*
X129049780Y-85039152D02*
X129145018Y-84896295D01*
X129145018Y-84896295D02*
X129192637Y-84801057D01*
X129192637Y-84801057D02*
X129240256Y-84658200D01*
X129240256Y-84658200D02*
X129287875Y-84420104D01*
X129287875Y-84420104D02*
X129287875Y-84229628D01*
X129287875Y-84229628D02*
X129240256Y-83991533D01*
X129240256Y-83991533D02*
X129192637Y-83848676D01*
X129192637Y-83848676D02*
X129145018Y-83753438D01*
X129145018Y-83753438D02*
X129049780Y-83610580D01*
X129049780Y-83610580D02*
X129002161Y-83562961D01*
X130525971Y-84039152D02*
X129764066Y-84324866D01*
X129764066Y-84324866D02*
X130525971Y-84610580D01*
X131002161Y-84324866D02*
X131764066Y-84324866D01*
X132240256Y-84039152D02*
X133002161Y-84324866D01*
X133002161Y-84324866D02*
X132240256Y-84610580D01*
X133478351Y-84182009D02*
X133811684Y-84182009D01*
X133954541Y-84705819D02*
X133478351Y-84705819D01*
X133478351Y-84705819D02*
X133478351Y-83705819D01*
X133478351Y-83705819D02*
X133954541Y-83705819D01*
X134668827Y-85086771D02*
X134621208Y-85039152D01*
X134621208Y-85039152D02*
X134525970Y-84896295D01*
X134525970Y-84896295D02*
X134478351Y-84801057D01*
X134478351Y-84801057D02*
X134430732Y-84658200D01*
X134430732Y-84658200D02*
X134383113Y-84420104D01*
X134383113Y-84420104D02*
X134383113Y-84229628D01*
X134383113Y-84229628D02*
X134430732Y-83991533D01*
X134430732Y-83991533D02*
X134478351Y-83848676D01*
X134478351Y-83848676D02*
X134525970Y-83753438D01*
X134525970Y-83753438D02*
X134621208Y-83610580D01*
X134621208Y-83610580D02*
X134668827Y-83562961D01*
X135002161Y-84658200D02*
X135145018Y-84705819D01*
X135145018Y-84705819D02*
X135383113Y-84705819D01*
X135383113Y-84705819D02*
X135478351Y-84658200D01*
X135478351Y-84658200D02*
X135525970Y-84610580D01*
X135525970Y-84610580D02*
X135573589Y-84515342D01*
X135573589Y-84515342D02*
X135573589Y-84420104D01*
X135573589Y-84420104D02*
X135525970Y-84324866D01*
X135525970Y-84324866D02*
X135478351Y-84277247D01*
X135478351Y-84277247D02*
X135383113Y-84229628D01*
X135383113Y-84229628D02*
X135192637Y-84182009D01*
X135192637Y-84182009D02*
X135097399Y-84134390D01*
X135097399Y-84134390D02*
X135049780Y-84086771D01*
X135049780Y-84086771D02*
X135002161Y-83991533D01*
X135002161Y-83991533D02*
X135002161Y-83896295D01*
X135002161Y-83896295D02*
X135049780Y-83801057D01*
X135049780Y-83801057D02*
X135097399Y-83753438D01*
X135097399Y-83753438D02*
X135192637Y-83705819D01*
X135192637Y-83705819D02*
X135430732Y-83705819D01*
X135430732Y-83705819D02*
X135573589Y-83753438D01*
X136573589Y-84610580D02*
X136525970Y-84658200D01*
X136525970Y-84658200D02*
X136383113Y-84705819D01*
X136383113Y-84705819D02*
X136287875Y-84705819D01*
X136287875Y-84705819D02*
X136145018Y-84658200D01*
X136145018Y-84658200D02*
X136049780Y-84562961D01*
X136049780Y-84562961D02*
X136002161Y-84467723D01*
X136002161Y-84467723D02*
X135954542Y-84277247D01*
X135954542Y-84277247D02*
X135954542Y-84134390D01*
X135954542Y-84134390D02*
X136002161Y-83943914D01*
X136002161Y-83943914D02*
X136049780Y-83848676D01*
X136049780Y-83848676D02*
X136145018Y-83753438D01*
X136145018Y-83753438D02*
X136287875Y-83705819D01*
X136287875Y-83705819D02*
X136383113Y-83705819D01*
X136383113Y-83705819D02*
X136525970Y-83753438D01*
X136525970Y-83753438D02*
X136573589Y-83801057D01*
X137525970Y-84705819D02*
X136954542Y-84705819D01*
X137240256Y-84705819D02*
X137240256Y-83705819D01*
X137240256Y-83705819D02*
X137145018Y-83848676D01*
X137145018Y-83848676D02*
X137049780Y-83943914D01*
X137049780Y-83943914D02*
X136954542Y-83991533D01*
X138383113Y-83705819D02*
X138192637Y-83705819D01*
X138192637Y-83705819D02*
X138097399Y-83753438D01*
X138097399Y-83753438D02*
X138049780Y-83801057D01*
X138049780Y-83801057D02*
X137954542Y-83943914D01*
X137954542Y-83943914D02*
X137906923Y-84134390D01*
X137906923Y-84134390D02*
X137906923Y-84515342D01*
X137906923Y-84515342D02*
X137954542Y-84610580D01*
X137954542Y-84610580D02*
X138002161Y-84658200D01*
X138002161Y-84658200D02*
X138097399Y-84705819D01*
X138097399Y-84705819D02*
X138287875Y-84705819D01*
X138287875Y-84705819D02*
X138383113Y-84658200D01*
X138383113Y-84658200D02*
X138430732Y-84610580D01*
X138430732Y-84610580D02*
X138478351Y-84515342D01*
X138478351Y-84515342D02*
X138478351Y-84277247D01*
X138478351Y-84277247D02*
X138430732Y-84182009D01*
X138430732Y-84182009D02*
X138383113Y-84134390D01*
X138383113Y-84134390D02*
X138287875Y-84086771D01*
X138287875Y-84086771D02*
X138097399Y-84086771D01*
X138097399Y-84086771D02*
X138002161Y-84134390D01*
X138002161Y-84134390D02*
X137954542Y-84182009D01*
X137954542Y-84182009D02*
X137906923Y-84277247D01*
X139097399Y-83705819D02*
X139192637Y-83705819D01*
X139192637Y-83705819D02*
X139287875Y-83753438D01*
X139287875Y-83753438D02*
X139335494Y-83801057D01*
X139335494Y-83801057D02*
X139383113Y-83896295D01*
X139383113Y-83896295D02*
X139430732Y-84086771D01*
X139430732Y-84086771D02*
X139430732Y-84324866D01*
X139430732Y-84324866D02*
X139383113Y-84515342D01*
X139383113Y-84515342D02*
X139335494Y-84610580D01*
X139335494Y-84610580D02*
X139287875Y-84658200D01*
X139287875Y-84658200D02*
X139192637Y-84705819D01*
X139192637Y-84705819D02*
X139097399Y-84705819D01*
X139097399Y-84705819D02*
X139002161Y-84658200D01*
X139002161Y-84658200D02*
X138954542Y-84610580D01*
X138954542Y-84610580D02*
X138906923Y-84515342D01*
X138906923Y-84515342D02*
X138859304Y-84324866D01*
X138859304Y-84324866D02*
X138859304Y-84086771D01*
X138859304Y-84086771D02*
X138906923Y-83896295D01*
X138906923Y-83896295D02*
X138954542Y-83801057D01*
X138954542Y-83801057D02*
X139002161Y-83753438D01*
X139002161Y-83753438D02*
X139097399Y-83705819D01*
X139811685Y-83801057D02*
X139859304Y-83753438D01*
X139859304Y-83753438D02*
X139954542Y-83705819D01*
X139954542Y-83705819D02*
X140192637Y-83705819D01*
X140192637Y-83705819D02*
X140287875Y-83753438D01*
X140287875Y-83753438D02*
X140335494Y-83801057D01*
X140335494Y-83801057D02*
X140383113Y-83896295D01*
X140383113Y-83896295D02*
X140383113Y-83991533D01*
X140383113Y-83991533D02*
X140335494Y-84134390D01*
X140335494Y-84134390D02*
X139764066Y-84705819D01*
X139764066Y-84705819D02*
X140383113Y-84705819D01*
X140716447Y-85086771D02*
X140764066Y-85039152D01*
X140764066Y-85039152D02*
X140859304Y-84896295D01*
X140859304Y-84896295D02*
X140906923Y-84801057D01*
X140906923Y-84801057D02*
X140954542Y-84658200D01*
X140954542Y-84658200D02*
X141002161Y-84420104D01*
X141002161Y-84420104D02*
X141002161Y-84229628D01*
X141002161Y-84229628D02*
X140954542Y-83991533D01*
X140954542Y-83991533D02*
X140906923Y-83848676D01*
X140906923Y-83848676D02*
X140859304Y-83753438D01*
X140859304Y-83753438D02*
X140764066Y-83610580D01*
X140764066Y-83610580D02*
X140716447Y-83562961D01*
X95459779Y-90674819D02*
X95459779Y-89674819D01*
X95459779Y-89674819D02*
X95697874Y-89674819D01*
X95697874Y-89674819D02*
X95840731Y-89722438D01*
X95840731Y-89722438D02*
X95935969Y-89817676D01*
X95935969Y-89817676D02*
X95983588Y-89912914D01*
X95983588Y-89912914D02*
X96031207Y-90103390D01*
X96031207Y-90103390D02*
X96031207Y-90246247D01*
X96031207Y-90246247D02*
X95983588Y-90436723D01*
X95983588Y-90436723D02*
X95935969Y-90531961D01*
X95935969Y-90531961D02*
X95840731Y-90627200D01*
X95840731Y-90627200D02*
X95697874Y-90674819D01*
X95697874Y-90674819D02*
X95459779Y-90674819D01*
X96650255Y-89674819D02*
X96745493Y-89674819D01*
X96745493Y-89674819D02*
X96840731Y-89722438D01*
X96840731Y-89722438D02*
X96888350Y-89770057D01*
X96888350Y-89770057D02*
X96935969Y-89865295D01*
X96935969Y-89865295D02*
X96983588Y-90055771D01*
X96983588Y-90055771D02*
X96983588Y-90293866D01*
X96983588Y-90293866D02*
X96935969Y-90484342D01*
X96935969Y-90484342D02*
X96888350Y-90579580D01*
X96888350Y-90579580D02*
X96840731Y-90627200D01*
X96840731Y-90627200D02*
X96745493Y-90674819D01*
X96745493Y-90674819D02*
X96650255Y-90674819D01*
X96650255Y-90674819D02*
X96555017Y-90627200D01*
X96555017Y-90627200D02*
X96507398Y-90579580D01*
X96507398Y-90579580D02*
X96459779Y-90484342D01*
X96459779Y-90484342D02*
X96412160Y-90293866D01*
X96412160Y-90293866D02*
X96412160Y-90055771D01*
X96412160Y-90055771D02*
X96459779Y-89865295D01*
X96459779Y-89865295D02*
X96507398Y-89770057D01*
X96507398Y-89770057D02*
X96555017Y-89722438D01*
X96555017Y-89722438D02*
X96650255Y-89674819D01*
X107270779Y-85848819D02*
X107270779Y-84848819D01*
X107270779Y-84848819D02*
X107508874Y-84848819D01*
X107508874Y-84848819D02*
X107651731Y-84896438D01*
X107651731Y-84896438D02*
X107746969Y-84991676D01*
X107746969Y-84991676D02*
X107794588Y-85086914D01*
X107794588Y-85086914D02*
X107842207Y-85277390D01*
X107842207Y-85277390D02*
X107842207Y-85420247D01*
X107842207Y-85420247D02*
X107794588Y-85610723D01*
X107794588Y-85610723D02*
X107746969Y-85705961D01*
X107746969Y-85705961D02*
X107651731Y-85801200D01*
X107651731Y-85801200D02*
X107508874Y-85848819D01*
X107508874Y-85848819D02*
X107270779Y-85848819D01*
X108461255Y-84848819D02*
X108556493Y-84848819D01*
X108556493Y-84848819D02*
X108651731Y-84896438D01*
X108651731Y-84896438D02*
X108699350Y-84944057D01*
X108699350Y-84944057D02*
X108746969Y-85039295D01*
X108746969Y-85039295D02*
X108794588Y-85229771D01*
X108794588Y-85229771D02*
X108794588Y-85467866D01*
X108794588Y-85467866D02*
X108746969Y-85658342D01*
X108746969Y-85658342D02*
X108699350Y-85753580D01*
X108699350Y-85753580D02*
X108651731Y-85801200D01*
X108651731Y-85801200D02*
X108556493Y-85848819D01*
X108556493Y-85848819D02*
X108461255Y-85848819D01*
X108461255Y-85848819D02*
X108366017Y-85801200D01*
X108366017Y-85801200D02*
X108318398Y-85753580D01*
X108318398Y-85753580D02*
X108270779Y-85658342D01*
X108270779Y-85658342D02*
X108223160Y-85467866D01*
X108223160Y-85467866D02*
X108223160Y-85229771D01*
X108223160Y-85229771D02*
X108270779Y-85039295D01*
X108270779Y-85039295D02*
X108318398Y-84944057D01*
X108318398Y-84944057D02*
X108366017Y-84896438D01*
X108366017Y-84896438D02*
X108461255Y-84848819D01*
X117160922Y-97929819D02*
X117494255Y-98929819D01*
X117494255Y-98929819D02*
X117827588Y-97929819D01*
X118351398Y-97929819D02*
X118541874Y-97929819D01*
X118541874Y-97929819D02*
X118637112Y-97977438D01*
X118637112Y-97977438D02*
X118732350Y-98072676D01*
X118732350Y-98072676D02*
X118779969Y-98263152D01*
X118779969Y-98263152D02*
X118779969Y-98596485D01*
X118779969Y-98596485D02*
X118732350Y-98786961D01*
X118732350Y-98786961D02*
X118637112Y-98882200D01*
X118637112Y-98882200D02*
X118541874Y-98929819D01*
X118541874Y-98929819D02*
X118351398Y-98929819D01*
X118351398Y-98929819D02*
X118256160Y-98882200D01*
X118256160Y-98882200D02*
X118160922Y-98786961D01*
X118160922Y-98786961D02*
X118113303Y-98596485D01*
X118113303Y-98596485D02*
X118113303Y-98263152D01*
X118113303Y-98263152D02*
X118160922Y-98072676D01*
X118160922Y-98072676D02*
X118256160Y-97977438D01*
X118256160Y-97977438D02*
X118351398Y-97929819D01*
X119494255Y-99310771D02*
X119446636Y-99263152D01*
X119446636Y-99263152D02*
X119351398Y-99120295D01*
X119351398Y-99120295D02*
X119303779Y-99025057D01*
X119303779Y-99025057D02*
X119256160Y-98882200D01*
X119256160Y-98882200D02*
X119208541Y-98644104D01*
X119208541Y-98644104D02*
X119208541Y-98453628D01*
X119208541Y-98453628D02*
X119256160Y-98215533D01*
X119256160Y-98215533D02*
X119303779Y-98072676D01*
X119303779Y-98072676D02*
X119351398Y-97977438D01*
X119351398Y-97977438D02*
X119446636Y-97834580D01*
X119446636Y-97834580D02*
X119494255Y-97786961D01*
X119827589Y-98882200D02*
X119970446Y-98929819D01*
X119970446Y-98929819D02*
X120208541Y-98929819D01*
X120208541Y-98929819D02*
X120303779Y-98882200D01*
X120303779Y-98882200D02*
X120351398Y-98834580D01*
X120351398Y-98834580D02*
X120399017Y-98739342D01*
X120399017Y-98739342D02*
X120399017Y-98644104D01*
X120399017Y-98644104D02*
X120351398Y-98548866D01*
X120351398Y-98548866D02*
X120303779Y-98501247D01*
X120303779Y-98501247D02*
X120208541Y-98453628D01*
X120208541Y-98453628D02*
X120018065Y-98406009D01*
X120018065Y-98406009D02*
X119922827Y-98358390D01*
X119922827Y-98358390D02*
X119875208Y-98310771D01*
X119875208Y-98310771D02*
X119827589Y-98215533D01*
X119827589Y-98215533D02*
X119827589Y-98120295D01*
X119827589Y-98120295D02*
X119875208Y-98025057D01*
X119875208Y-98025057D02*
X119922827Y-97977438D01*
X119922827Y-97977438D02*
X120018065Y-97929819D01*
X120018065Y-97929819D02*
X120256160Y-97929819D01*
X120256160Y-97929819D02*
X120399017Y-97977438D01*
X121399017Y-98834580D02*
X121351398Y-98882200D01*
X121351398Y-98882200D02*
X121208541Y-98929819D01*
X121208541Y-98929819D02*
X121113303Y-98929819D01*
X121113303Y-98929819D02*
X120970446Y-98882200D01*
X120970446Y-98882200D02*
X120875208Y-98786961D01*
X120875208Y-98786961D02*
X120827589Y-98691723D01*
X120827589Y-98691723D02*
X120779970Y-98501247D01*
X120779970Y-98501247D02*
X120779970Y-98358390D01*
X120779970Y-98358390D02*
X120827589Y-98167914D01*
X120827589Y-98167914D02*
X120875208Y-98072676D01*
X120875208Y-98072676D02*
X120970446Y-97977438D01*
X120970446Y-97977438D02*
X121113303Y-97929819D01*
X121113303Y-97929819D02*
X121208541Y-97929819D01*
X121208541Y-97929819D02*
X121351398Y-97977438D01*
X121351398Y-97977438D02*
X121399017Y-98025057D01*
X122351398Y-98929819D02*
X121779970Y-98929819D01*
X122065684Y-98929819D02*
X122065684Y-97929819D01*
X122065684Y-97929819D02*
X121970446Y-98072676D01*
X121970446Y-98072676D02*
X121875208Y-98167914D01*
X121875208Y-98167914D02*
X121779970Y-98215533D01*
X123208541Y-97929819D02*
X123018065Y-97929819D01*
X123018065Y-97929819D02*
X122922827Y-97977438D01*
X122922827Y-97977438D02*
X122875208Y-98025057D01*
X122875208Y-98025057D02*
X122779970Y-98167914D01*
X122779970Y-98167914D02*
X122732351Y-98358390D01*
X122732351Y-98358390D02*
X122732351Y-98739342D01*
X122732351Y-98739342D02*
X122779970Y-98834580D01*
X122779970Y-98834580D02*
X122827589Y-98882200D01*
X122827589Y-98882200D02*
X122922827Y-98929819D01*
X122922827Y-98929819D02*
X123113303Y-98929819D01*
X123113303Y-98929819D02*
X123208541Y-98882200D01*
X123208541Y-98882200D02*
X123256160Y-98834580D01*
X123256160Y-98834580D02*
X123303779Y-98739342D01*
X123303779Y-98739342D02*
X123303779Y-98501247D01*
X123303779Y-98501247D02*
X123256160Y-98406009D01*
X123256160Y-98406009D02*
X123208541Y-98358390D01*
X123208541Y-98358390D02*
X123113303Y-98310771D01*
X123113303Y-98310771D02*
X122922827Y-98310771D01*
X122922827Y-98310771D02*
X122827589Y-98358390D01*
X122827589Y-98358390D02*
X122779970Y-98406009D01*
X122779970Y-98406009D02*
X122732351Y-98501247D01*
X123922827Y-97929819D02*
X124018065Y-97929819D01*
X124018065Y-97929819D02*
X124113303Y-97977438D01*
X124113303Y-97977438D02*
X124160922Y-98025057D01*
X124160922Y-98025057D02*
X124208541Y-98120295D01*
X124208541Y-98120295D02*
X124256160Y-98310771D01*
X124256160Y-98310771D02*
X124256160Y-98548866D01*
X124256160Y-98548866D02*
X124208541Y-98739342D01*
X124208541Y-98739342D02*
X124160922Y-98834580D01*
X124160922Y-98834580D02*
X124113303Y-98882200D01*
X124113303Y-98882200D02*
X124018065Y-98929819D01*
X124018065Y-98929819D02*
X123922827Y-98929819D01*
X123922827Y-98929819D02*
X123827589Y-98882200D01*
X123827589Y-98882200D02*
X123779970Y-98834580D01*
X123779970Y-98834580D02*
X123732351Y-98739342D01*
X123732351Y-98739342D02*
X123684732Y-98548866D01*
X123684732Y-98548866D02*
X123684732Y-98310771D01*
X123684732Y-98310771D02*
X123732351Y-98120295D01*
X123732351Y-98120295D02*
X123779970Y-98025057D01*
X123779970Y-98025057D02*
X123827589Y-97977438D01*
X123827589Y-97977438D02*
X123922827Y-97929819D01*
X124637113Y-98025057D02*
X124684732Y-97977438D01*
X124684732Y-97977438D02*
X124779970Y-97929819D01*
X124779970Y-97929819D02*
X125018065Y-97929819D01*
X125018065Y-97929819D02*
X125113303Y-97977438D01*
X125113303Y-97977438D02*
X125160922Y-98025057D01*
X125160922Y-98025057D02*
X125208541Y-98120295D01*
X125208541Y-98120295D02*
X125208541Y-98215533D01*
X125208541Y-98215533D02*
X125160922Y-98358390D01*
X125160922Y-98358390D02*
X124589494Y-98929819D01*
X124589494Y-98929819D02*
X125208541Y-98929819D01*
X125541875Y-99310771D02*
X125589494Y-99263152D01*
X125589494Y-99263152D02*
X125684732Y-99120295D01*
X125684732Y-99120295D02*
X125732351Y-99025057D01*
X125732351Y-99025057D02*
X125779970Y-98882200D01*
X125779970Y-98882200D02*
X125827589Y-98644104D01*
X125827589Y-98644104D02*
X125827589Y-98453628D01*
X125827589Y-98453628D02*
X125779970Y-98215533D01*
X125779970Y-98215533D02*
X125732351Y-98072676D01*
X125732351Y-98072676D02*
X125684732Y-97977438D01*
X125684732Y-97977438D02*
X125589494Y-97834580D01*
X125589494Y-97834580D02*
X125541875Y-97786961D01*
X127065685Y-98263152D02*
X126303780Y-98548866D01*
X126303780Y-98548866D02*
X127065685Y-98834580D01*
X127541875Y-98548866D02*
X128303780Y-98548866D01*
X128779970Y-98263152D02*
X129541875Y-98548866D01*
X129541875Y-98548866D02*
X128779970Y-98834580D01*
X130589493Y-98834580D02*
X130541874Y-98882200D01*
X130541874Y-98882200D02*
X130399017Y-98929819D01*
X130399017Y-98929819D02*
X130303779Y-98929819D01*
X130303779Y-98929819D02*
X130160922Y-98882200D01*
X130160922Y-98882200D02*
X130065684Y-98786961D01*
X130065684Y-98786961D02*
X130018065Y-98691723D01*
X130018065Y-98691723D02*
X129970446Y-98501247D01*
X129970446Y-98501247D02*
X129970446Y-98358390D01*
X129970446Y-98358390D02*
X130018065Y-98167914D01*
X130018065Y-98167914D02*
X130065684Y-98072676D01*
X130065684Y-98072676D02*
X130160922Y-97977438D01*
X130160922Y-97977438D02*
X130303779Y-97929819D01*
X130303779Y-97929819D02*
X130399017Y-97929819D01*
X130399017Y-97929819D02*
X130541874Y-97977438D01*
X130541874Y-97977438D02*
X130589493Y-98025057D01*
X131160922Y-98929819D02*
X131065684Y-98882200D01*
X131065684Y-98882200D02*
X131018065Y-98834580D01*
X131018065Y-98834580D02*
X130970446Y-98739342D01*
X130970446Y-98739342D02*
X130970446Y-98453628D01*
X130970446Y-98453628D02*
X131018065Y-98358390D01*
X131018065Y-98358390D02*
X131065684Y-98310771D01*
X131065684Y-98310771D02*
X131160922Y-98263152D01*
X131160922Y-98263152D02*
X131303779Y-98263152D01*
X131303779Y-98263152D02*
X131399017Y-98310771D01*
X131399017Y-98310771D02*
X131446636Y-98358390D01*
X131446636Y-98358390D02*
X131494255Y-98453628D01*
X131494255Y-98453628D02*
X131494255Y-98739342D01*
X131494255Y-98739342D02*
X131446636Y-98834580D01*
X131446636Y-98834580D02*
X131399017Y-98882200D01*
X131399017Y-98882200D02*
X131303779Y-98929819D01*
X131303779Y-98929819D02*
X131160922Y-98929819D01*
X131922827Y-98263152D02*
X131922827Y-98929819D01*
X131922827Y-98358390D02*
X131970446Y-98310771D01*
X131970446Y-98310771D02*
X132065684Y-98263152D01*
X132065684Y-98263152D02*
X132208541Y-98263152D01*
X132208541Y-98263152D02*
X132303779Y-98310771D01*
X132303779Y-98310771D02*
X132351398Y-98406009D01*
X132351398Y-98406009D02*
X132351398Y-98929819D01*
X132684732Y-98263152D02*
X133065684Y-98263152D01*
X132827589Y-97929819D02*
X132827589Y-98786961D01*
X132827589Y-98786961D02*
X132875208Y-98882200D01*
X132875208Y-98882200D02*
X132970446Y-98929819D01*
X132970446Y-98929819D02*
X133065684Y-98929819D01*
X133399018Y-98929819D02*
X133399018Y-98263152D01*
X133399018Y-98453628D02*
X133446637Y-98358390D01*
X133446637Y-98358390D02*
X133494256Y-98310771D01*
X133494256Y-98310771D02*
X133589494Y-98263152D01*
X133589494Y-98263152D02*
X133684732Y-98263152D01*
X134446637Y-98929819D02*
X134446637Y-98406009D01*
X134446637Y-98406009D02*
X134399018Y-98310771D01*
X134399018Y-98310771D02*
X134303780Y-98263152D01*
X134303780Y-98263152D02*
X134113304Y-98263152D01*
X134113304Y-98263152D02*
X134018066Y-98310771D01*
X134446637Y-98882200D02*
X134351399Y-98929819D01*
X134351399Y-98929819D02*
X134113304Y-98929819D01*
X134113304Y-98929819D02*
X134018066Y-98882200D01*
X134018066Y-98882200D02*
X133970447Y-98786961D01*
X133970447Y-98786961D02*
X133970447Y-98691723D01*
X133970447Y-98691723D02*
X134018066Y-98596485D01*
X134018066Y-98596485D02*
X134113304Y-98548866D01*
X134113304Y-98548866D02*
X134351399Y-98548866D01*
X134351399Y-98548866D02*
X134446637Y-98501247D01*
X134875209Y-98882200D02*
X134970447Y-98929819D01*
X134970447Y-98929819D02*
X135160923Y-98929819D01*
X135160923Y-98929819D02*
X135256161Y-98882200D01*
X135256161Y-98882200D02*
X135303780Y-98786961D01*
X135303780Y-98786961D02*
X135303780Y-98739342D01*
X135303780Y-98739342D02*
X135256161Y-98644104D01*
X135256161Y-98644104D02*
X135160923Y-98596485D01*
X135160923Y-98596485D02*
X135018066Y-98596485D01*
X135018066Y-98596485D02*
X134922828Y-98548866D01*
X134922828Y-98548866D02*
X134875209Y-98453628D01*
X134875209Y-98453628D02*
X134875209Y-98406009D01*
X134875209Y-98406009D02*
X134922828Y-98310771D01*
X134922828Y-98310771D02*
X135018066Y-98263152D01*
X135018066Y-98263152D02*
X135160923Y-98263152D01*
X135160923Y-98263152D02*
X135256161Y-98310771D01*
X135589495Y-98263152D02*
X135970447Y-98263152D01*
X135732352Y-97929819D02*
X135732352Y-98786961D01*
X135732352Y-98786961D02*
X135779971Y-98882200D01*
X135779971Y-98882200D02*
X135875209Y-98929819D01*
X135875209Y-98929819D02*
X135970447Y-98929819D01*
X136589495Y-99310771D02*
X136541876Y-99263152D01*
X136541876Y-99263152D02*
X136446638Y-99120295D01*
X136446638Y-99120295D02*
X136399019Y-99025057D01*
X136399019Y-99025057D02*
X136351400Y-98882200D01*
X136351400Y-98882200D02*
X136303781Y-98644104D01*
X136303781Y-98644104D02*
X136303781Y-98453628D01*
X136303781Y-98453628D02*
X136351400Y-98215533D01*
X136351400Y-98215533D02*
X136399019Y-98072676D01*
X136399019Y-98072676D02*
X136446638Y-97977438D01*
X136446638Y-97977438D02*
X136541876Y-97834580D01*
X136541876Y-97834580D02*
X136589495Y-97786961D01*
X136970448Y-98929819D02*
X136970448Y-97929819D01*
X136970448Y-97929819D02*
X137351400Y-97929819D01*
X137351400Y-97929819D02*
X137446638Y-97977438D01*
X137446638Y-97977438D02*
X137494257Y-98025057D01*
X137494257Y-98025057D02*
X137541876Y-98120295D01*
X137541876Y-98120295D02*
X137541876Y-98263152D01*
X137541876Y-98263152D02*
X137494257Y-98358390D01*
X137494257Y-98358390D02*
X137446638Y-98406009D01*
X137446638Y-98406009D02*
X137351400Y-98453628D01*
X137351400Y-98453628D02*
X136970448Y-98453628D01*
X137970448Y-98929819D02*
X137970448Y-98263152D01*
X137970448Y-98358390D02*
X138018067Y-98310771D01*
X138018067Y-98310771D02*
X138113305Y-98263152D01*
X138113305Y-98263152D02*
X138256162Y-98263152D01*
X138256162Y-98263152D02*
X138351400Y-98310771D01*
X138351400Y-98310771D02*
X138399019Y-98406009D01*
X138399019Y-98406009D02*
X138399019Y-98929819D01*
X138399019Y-98406009D02*
X138446638Y-98310771D01*
X138446638Y-98310771D02*
X138541876Y-98263152D01*
X138541876Y-98263152D02*
X138684733Y-98263152D01*
X138684733Y-98263152D02*
X138779972Y-98310771D01*
X138779972Y-98310771D02*
X138827591Y-98406009D01*
X138827591Y-98406009D02*
X138827591Y-98929819D01*
X139446638Y-98929819D02*
X139351400Y-98882200D01*
X139351400Y-98882200D02*
X139303781Y-98834580D01*
X139303781Y-98834580D02*
X139256162Y-98739342D01*
X139256162Y-98739342D02*
X139256162Y-98453628D01*
X139256162Y-98453628D02*
X139303781Y-98358390D01*
X139303781Y-98358390D02*
X139351400Y-98310771D01*
X139351400Y-98310771D02*
X139446638Y-98263152D01*
X139446638Y-98263152D02*
X139589495Y-98263152D01*
X139589495Y-98263152D02*
X139684733Y-98310771D01*
X139684733Y-98310771D02*
X139732352Y-98358390D01*
X139732352Y-98358390D02*
X139779971Y-98453628D01*
X139779971Y-98453628D02*
X139779971Y-98739342D01*
X139779971Y-98739342D02*
X139732352Y-98834580D01*
X139732352Y-98834580D02*
X139684733Y-98882200D01*
X139684733Y-98882200D02*
X139589495Y-98929819D01*
X139589495Y-98929819D02*
X139446638Y-98929819D01*
X140637114Y-98929819D02*
X140637114Y-97929819D01*
X140637114Y-98882200D02*
X140541876Y-98929819D01*
X140541876Y-98929819D02*
X140351400Y-98929819D01*
X140351400Y-98929819D02*
X140256162Y-98882200D01*
X140256162Y-98882200D02*
X140208543Y-98834580D01*
X140208543Y-98834580D02*
X140160924Y-98739342D01*
X140160924Y-98739342D02*
X140160924Y-98453628D01*
X140160924Y-98453628D02*
X140208543Y-98358390D01*
X140208543Y-98358390D02*
X140256162Y-98310771D01*
X140256162Y-98310771D02*
X140351400Y-98263152D01*
X140351400Y-98263152D02*
X140541876Y-98263152D01*
X140541876Y-98263152D02*
X140637114Y-98310771D01*
X141018067Y-99310771D02*
X141065686Y-99263152D01*
X141065686Y-99263152D02*
X141160924Y-99120295D01*
X141160924Y-99120295D02*
X141208543Y-99025057D01*
X141208543Y-99025057D02*
X141256162Y-98882200D01*
X141256162Y-98882200D02*
X141303781Y-98644104D01*
X141303781Y-98644104D02*
X141303781Y-98453628D01*
X141303781Y-98453628D02*
X141256162Y-98215533D01*
X141256162Y-98215533D02*
X141208543Y-98072676D01*
X141208543Y-98072676D02*
X141160924Y-97977438D01*
X141160924Y-97977438D02*
X141065686Y-97834580D01*
X141065686Y-97834580D02*
X141018067Y-97786961D01*
X87966779Y-93468819D02*
X87966779Y-92468819D01*
X87966779Y-92468819D02*
X88204874Y-92468819D01*
X88204874Y-92468819D02*
X88347731Y-92516438D01*
X88347731Y-92516438D02*
X88442969Y-92611676D01*
X88442969Y-92611676D02*
X88490588Y-92706914D01*
X88490588Y-92706914D02*
X88538207Y-92897390D01*
X88538207Y-92897390D02*
X88538207Y-93040247D01*
X88538207Y-93040247D02*
X88490588Y-93230723D01*
X88490588Y-93230723D02*
X88442969Y-93325961D01*
X88442969Y-93325961D02*
X88347731Y-93421200D01*
X88347731Y-93421200D02*
X88204874Y-93468819D01*
X88204874Y-93468819D02*
X87966779Y-93468819D01*
X88871541Y-92468819D02*
X89490588Y-92468819D01*
X89490588Y-92468819D02*
X89157255Y-92849771D01*
X89157255Y-92849771D02*
X89300112Y-92849771D01*
X89300112Y-92849771D02*
X89395350Y-92897390D01*
X89395350Y-92897390D02*
X89442969Y-92945009D01*
X89442969Y-92945009D02*
X89490588Y-93040247D01*
X89490588Y-93040247D02*
X89490588Y-93278342D01*
X89490588Y-93278342D02*
X89442969Y-93373580D01*
X89442969Y-93373580D02*
X89395350Y-93421200D01*
X89395350Y-93421200D02*
X89300112Y-93468819D01*
X89300112Y-93468819D02*
X89014398Y-93468819D01*
X89014398Y-93468819D02*
X88919160Y-93421200D01*
X88919160Y-93421200D02*
X88871541Y-93373580D01*
X88538207Y-95659580D02*
X88490588Y-95707200D01*
X88490588Y-95707200D02*
X88347731Y-95754819D01*
X88347731Y-95754819D02*
X88252493Y-95754819D01*
X88252493Y-95754819D02*
X88109636Y-95707200D01*
X88109636Y-95707200D02*
X88014398Y-95611961D01*
X88014398Y-95611961D02*
X87966779Y-95516723D01*
X87966779Y-95516723D02*
X87919160Y-95326247D01*
X87919160Y-95326247D02*
X87919160Y-95183390D01*
X87919160Y-95183390D02*
X87966779Y-94992914D01*
X87966779Y-94992914D02*
X88014398Y-94897676D01*
X88014398Y-94897676D02*
X88109636Y-94802438D01*
X88109636Y-94802438D02*
X88252493Y-94754819D01*
X88252493Y-94754819D02*
X88347731Y-94754819D01*
X88347731Y-94754819D02*
X88490588Y-94802438D01*
X88490588Y-94802438D02*
X88538207Y-94850057D01*
X89109636Y-95754819D02*
X89014398Y-95707200D01*
X89014398Y-95707200D02*
X88966779Y-95659580D01*
X88966779Y-95659580D02*
X88919160Y-95564342D01*
X88919160Y-95564342D02*
X88919160Y-95278628D01*
X88919160Y-95278628D02*
X88966779Y-95183390D01*
X88966779Y-95183390D02*
X89014398Y-95135771D01*
X89014398Y-95135771D02*
X89109636Y-95088152D01*
X89109636Y-95088152D02*
X89252493Y-95088152D01*
X89252493Y-95088152D02*
X89347731Y-95135771D01*
X89347731Y-95135771D02*
X89395350Y-95183390D01*
X89395350Y-95183390D02*
X89442969Y-95278628D01*
X89442969Y-95278628D02*
X89442969Y-95564342D01*
X89442969Y-95564342D02*
X89395350Y-95659580D01*
X89395350Y-95659580D02*
X89347731Y-95707200D01*
X89347731Y-95707200D02*
X89252493Y-95754819D01*
X89252493Y-95754819D02*
X89109636Y-95754819D01*
X107270779Y-83308819D02*
X107270779Y-82308819D01*
X107270779Y-82308819D02*
X107508874Y-82308819D01*
X107508874Y-82308819D02*
X107651731Y-82356438D01*
X107651731Y-82356438D02*
X107746969Y-82451676D01*
X107746969Y-82451676D02*
X107794588Y-82546914D01*
X107794588Y-82546914D02*
X107842207Y-82737390D01*
X107842207Y-82737390D02*
X107842207Y-82880247D01*
X107842207Y-82880247D02*
X107794588Y-83070723D01*
X107794588Y-83070723D02*
X107746969Y-83165961D01*
X107746969Y-83165961D02*
X107651731Y-83261200D01*
X107651731Y-83261200D02*
X107508874Y-83308819D01*
X107508874Y-83308819D02*
X107270779Y-83308819D01*
X108223160Y-82404057D02*
X108270779Y-82356438D01*
X108270779Y-82356438D02*
X108366017Y-82308819D01*
X108366017Y-82308819D02*
X108604112Y-82308819D01*
X108604112Y-82308819D02*
X108699350Y-82356438D01*
X108699350Y-82356438D02*
X108746969Y-82404057D01*
X108746969Y-82404057D02*
X108794588Y-82499295D01*
X108794588Y-82499295D02*
X108794588Y-82594533D01*
X108794588Y-82594533D02*
X108746969Y-82737390D01*
X108746969Y-82737390D02*
X108175541Y-83308819D01*
X108175541Y-83308819D02*
X108794588Y-83308819D01*
X168997333Y-99325580D02*
X168949714Y-99373200D01*
X168949714Y-99373200D02*
X168806857Y-99420819D01*
X168806857Y-99420819D02*
X168711619Y-99420819D01*
X168711619Y-99420819D02*
X168568762Y-99373200D01*
X168568762Y-99373200D02*
X168473524Y-99277961D01*
X168473524Y-99277961D02*
X168425905Y-99182723D01*
X168425905Y-99182723D02*
X168378286Y-98992247D01*
X168378286Y-98992247D02*
X168378286Y-98849390D01*
X168378286Y-98849390D02*
X168425905Y-98658914D01*
X168425905Y-98658914D02*
X168473524Y-98563676D01*
X168473524Y-98563676D02*
X168568762Y-98468438D01*
X168568762Y-98468438D02*
X168711619Y-98420819D01*
X168711619Y-98420819D02*
X168806857Y-98420819D01*
X168806857Y-98420819D02*
X168949714Y-98468438D01*
X168949714Y-98468438D02*
X168997333Y-98516057D01*
X169378286Y-98516057D02*
X169425905Y-98468438D01*
X169425905Y-98468438D02*
X169521143Y-98420819D01*
X169521143Y-98420819D02*
X169759238Y-98420819D01*
X169759238Y-98420819D02*
X169854476Y-98468438D01*
X169854476Y-98468438D02*
X169902095Y-98516057D01*
X169902095Y-98516057D02*
X169949714Y-98611295D01*
X169949714Y-98611295D02*
X169949714Y-98706533D01*
X169949714Y-98706533D02*
X169902095Y-98849390D01*
X169902095Y-98849390D02*
X169330667Y-99420819D01*
X169330667Y-99420819D02*
X169949714Y-99420819D01*
X113974666Y-91656819D02*
X113974666Y-92371104D01*
X113974666Y-92371104D02*
X113927047Y-92513961D01*
X113927047Y-92513961D02*
X113831809Y-92609200D01*
X113831809Y-92609200D02*
X113688952Y-92656819D01*
X113688952Y-92656819D02*
X113593714Y-92656819D01*
X114450857Y-92656819D02*
X114450857Y-91656819D01*
X114450857Y-91656819D02*
X114831809Y-91656819D01*
X114831809Y-91656819D02*
X114927047Y-91704438D01*
X114927047Y-91704438D02*
X114974666Y-91752057D01*
X114974666Y-91752057D02*
X115022285Y-91847295D01*
X115022285Y-91847295D02*
X115022285Y-91990152D01*
X115022285Y-91990152D02*
X114974666Y-92085390D01*
X114974666Y-92085390D02*
X114927047Y-92133009D01*
X114927047Y-92133009D02*
X114831809Y-92180628D01*
X114831809Y-92180628D02*
X114450857Y-92180628D01*
X115974666Y-92656819D02*
X115403238Y-92656819D01*
X115688952Y-92656819D02*
X115688952Y-91656819D01*
X115688952Y-91656819D02*
X115593714Y-91799676D01*
X115593714Y-91799676D02*
X115498476Y-91894914D01*
X115498476Y-91894914D02*
X115403238Y-91942533D01*
X113974666Y-86957819D02*
X113974666Y-87672104D01*
X113974666Y-87672104D02*
X113927047Y-87814961D01*
X113927047Y-87814961D02*
X113831809Y-87910200D01*
X113831809Y-87910200D02*
X113688952Y-87957819D01*
X113688952Y-87957819D02*
X113593714Y-87957819D01*
X114450857Y-87957819D02*
X114450857Y-86957819D01*
X114450857Y-86957819D02*
X114831809Y-86957819D01*
X114831809Y-86957819D02*
X114927047Y-87005438D01*
X114927047Y-87005438D02*
X114974666Y-87053057D01*
X114974666Y-87053057D02*
X115022285Y-87148295D01*
X115022285Y-87148295D02*
X115022285Y-87291152D01*
X115022285Y-87291152D02*
X114974666Y-87386390D01*
X114974666Y-87386390D02*
X114927047Y-87434009D01*
X114927047Y-87434009D02*
X114831809Y-87481628D01*
X114831809Y-87481628D02*
X114450857Y-87481628D01*
X115355619Y-86957819D02*
X115974666Y-86957819D01*
X115974666Y-86957819D02*
X115641333Y-87338771D01*
X115641333Y-87338771D02*
X115784190Y-87338771D01*
X115784190Y-87338771D02*
X115879428Y-87386390D01*
X115879428Y-87386390D02*
X115927047Y-87434009D01*
X115927047Y-87434009D02*
X115974666Y-87529247D01*
X115974666Y-87529247D02*
X115974666Y-87767342D01*
X115974666Y-87767342D02*
X115927047Y-87862580D01*
X115927047Y-87862580D02*
X115879428Y-87910200D01*
X115879428Y-87910200D02*
X115784190Y-87957819D01*
X115784190Y-87957819D02*
X115498476Y-87957819D01*
X115498476Y-87957819D02*
X115403238Y-87910200D01*
X115403238Y-87910200D02*
X115355619Y-87862580D01*
X87864666Y-87481819D02*
X87864666Y-88196104D01*
X87864666Y-88196104D02*
X87817047Y-88338961D01*
X87817047Y-88338961D02*
X87721809Y-88434200D01*
X87721809Y-88434200D02*
X87578952Y-88481819D01*
X87578952Y-88481819D02*
X87483714Y-88481819D01*
X88864666Y-88481819D02*
X88293238Y-88481819D01*
X88578952Y-88481819D02*
X88578952Y-87481819D01*
X88578952Y-87481819D02*
X88483714Y-87624676D01*
X88483714Y-87624676D02*
X88388476Y-87719914D01*
X88388476Y-87719914D02*
X88293238Y-87767533D01*
X176688761Y-93554057D02*
X176593523Y-93506438D01*
X176593523Y-93506438D02*
X176498285Y-93411200D01*
X176498285Y-93411200D02*
X176355428Y-93268342D01*
X176355428Y-93268342D02*
X176260190Y-93220723D01*
X176260190Y-93220723D02*
X176164952Y-93220723D01*
X176212571Y-93458819D02*
X176117333Y-93411200D01*
X176117333Y-93411200D02*
X176022095Y-93315961D01*
X176022095Y-93315961D02*
X175974476Y-93125485D01*
X175974476Y-93125485D02*
X175974476Y-92792152D01*
X175974476Y-92792152D02*
X176022095Y-92601676D01*
X176022095Y-92601676D02*
X176117333Y-92506438D01*
X176117333Y-92506438D02*
X176212571Y-92458819D01*
X176212571Y-92458819D02*
X176403047Y-92458819D01*
X176403047Y-92458819D02*
X176498285Y-92506438D01*
X176498285Y-92506438D02*
X176593523Y-92601676D01*
X176593523Y-92601676D02*
X176641142Y-92792152D01*
X176641142Y-92792152D02*
X176641142Y-93125485D01*
X176641142Y-93125485D02*
X176593523Y-93315961D01*
X176593523Y-93315961D02*
X176498285Y-93411200D01*
X176498285Y-93411200D02*
X176403047Y-93458819D01*
X176403047Y-93458819D02*
X176212571Y-93458819D01*
X177022095Y-92554057D02*
X177069714Y-92506438D01*
X177069714Y-92506438D02*
X177164952Y-92458819D01*
X177164952Y-92458819D02*
X177403047Y-92458819D01*
X177403047Y-92458819D02*
X177498285Y-92506438D01*
X177498285Y-92506438D02*
X177545904Y-92554057D01*
X177545904Y-92554057D02*
X177593523Y-92649295D01*
X177593523Y-92649295D02*
X177593523Y-92744533D01*
X177593523Y-92744533D02*
X177545904Y-92887390D01*
X177545904Y-92887390D02*
X176974476Y-93458819D01*
X176974476Y-93458819D02*
X177593523Y-93458819D01*
X113974666Y-77432819D02*
X113974666Y-78147104D01*
X113974666Y-78147104D02*
X113927047Y-78289961D01*
X113927047Y-78289961D02*
X113831809Y-78385200D01*
X113831809Y-78385200D02*
X113688952Y-78432819D01*
X113688952Y-78432819D02*
X113593714Y-78432819D01*
X114450857Y-78432819D02*
X114450857Y-77432819D01*
X114450857Y-77432819D02*
X114831809Y-77432819D01*
X114831809Y-77432819D02*
X114927047Y-77480438D01*
X114927047Y-77480438D02*
X114974666Y-77528057D01*
X114974666Y-77528057D02*
X115022285Y-77623295D01*
X115022285Y-77623295D02*
X115022285Y-77766152D01*
X115022285Y-77766152D02*
X114974666Y-77861390D01*
X114974666Y-77861390D02*
X114927047Y-77909009D01*
X114927047Y-77909009D02*
X114831809Y-77956628D01*
X114831809Y-77956628D02*
X114450857Y-77956628D01*
X115879428Y-77766152D02*
X115879428Y-78432819D01*
X115641333Y-77385200D02*
X115403238Y-78099485D01*
X115403238Y-78099485D02*
X116022285Y-78099485D01*
X176839666Y-86576819D02*
X176839666Y-87291104D01*
X176839666Y-87291104D02*
X176792047Y-87433961D01*
X176792047Y-87433961D02*
X176696809Y-87529200D01*
X176696809Y-87529200D02*
X176553952Y-87576819D01*
X176553952Y-87576819D02*
X176458714Y-87576819D01*
X177315857Y-87576819D02*
X177315857Y-86576819D01*
X177315857Y-86576819D02*
X177696809Y-86576819D01*
X177696809Y-86576819D02*
X177792047Y-86624438D01*
X177792047Y-86624438D02*
X177839666Y-86672057D01*
X177839666Y-86672057D02*
X177887285Y-86767295D01*
X177887285Y-86767295D02*
X177887285Y-86910152D01*
X177887285Y-86910152D02*
X177839666Y-87005390D01*
X177839666Y-87005390D02*
X177792047Y-87053009D01*
X177792047Y-87053009D02*
X177696809Y-87100628D01*
X177696809Y-87100628D02*
X177315857Y-87100628D01*
X178744428Y-86576819D02*
X178553952Y-86576819D01*
X178553952Y-86576819D02*
X178458714Y-86624438D01*
X178458714Y-86624438D02*
X178411095Y-86672057D01*
X178411095Y-86672057D02*
X178315857Y-86814914D01*
X178315857Y-86814914D02*
X178268238Y-87005390D01*
X178268238Y-87005390D02*
X178268238Y-87386342D01*
X178268238Y-87386342D02*
X178315857Y-87481580D01*
X178315857Y-87481580D02*
X178363476Y-87529200D01*
X178363476Y-87529200D02*
X178458714Y-87576819D01*
X178458714Y-87576819D02*
X178649190Y-87576819D01*
X178649190Y-87576819D02*
X178744428Y-87529200D01*
X178744428Y-87529200D02*
X178792047Y-87481580D01*
X178792047Y-87481580D02*
X178839666Y-87386342D01*
X178839666Y-87386342D02*
X178839666Y-87148247D01*
X178839666Y-87148247D02*
X178792047Y-87053009D01*
X178792047Y-87053009D02*
X178744428Y-87005390D01*
X178744428Y-87005390D02*
X178649190Y-86957771D01*
X178649190Y-86957771D02*
X178458714Y-86957771D01*
X178458714Y-86957771D02*
X178363476Y-87005390D01*
X178363476Y-87005390D02*
X178315857Y-87053009D01*
X178315857Y-87053009D02*
X178268238Y-87148247D01*
D11*
X141840856Y-77409318D02*
X141840856Y-76139318D01*
X141840856Y-76139318D02*
X142143237Y-76139318D01*
X142143237Y-76139318D02*
X142324666Y-76199794D01*
X142324666Y-76199794D02*
X142445618Y-76320746D01*
X142445618Y-76320746D02*
X142506095Y-76441699D01*
X142506095Y-76441699D02*
X142566571Y-76683603D01*
X142566571Y-76683603D02*
X142566571Y-76865032D01*
X142566571Y-76865032D02*
X142506095Y-77106937D01*
X142506095Y-77106937D02*
X142445618Y-77227889D01*
X142445618Y-77227889D02*
X142324666Y-77348842D01*
X142324666Y-77348842D02*
X142143237Y-77409318D01*
X142143237Y-77409318D02*
X141840856Y-77409318D01*
X143050380Y-77348842D02*
X143231809Y-77409318D01*
X143231809Y-77409318D02*
X143534190Y-77409318D01*
X143534190Y-77409318D02*
X143655142Y-77348842D01*
X143655142Y-77348842D02*
X143715618Y-77288365D01*
X143715618Y-77288365D02*
X143776095Y-77167413D01*
X143776095Y-77167413D02*
X143776095Y-77046461D01*
X143776095Y-77046461D02*
X143715618Y-76925508D01*
X143715618Y-76925508D02*
X143655142Y-76865032D01*
X143655142Y-76865032D02*
X143534190Y-76804556D01*
X143534190Y-76804556D02*
X143292285Y-76744080D01*
X143292285Y-76744080D02*
X143171333Y-76683603D01*
X143171333Y-76683603D02*
X143110856Y-76623127D01*
X143110856Y-76623127D02*
X143050380Y-76502175D01*
X143050380Y-76502175D02*
X143050380Y-76381222D01*
X143050380Y-76381222D02*
X143110856Y-76260270D01*
X143110856Y-76260270D02*
X143171333Y-76199794D01*
X143171333Y-76199794D02*
X143292285Y-76139318D01*
X143292285Y-76139318D02*
X143594666Y-76139318D01*
X143594666Y-76139318D02*
X143776095Y-76199794D01*
X144985619Y-77409318D02*
X144259904Y-77409318D01*
X144622761Y-77409318D02*
X144622761Y-76139318D01*
X144622761Y-76139318D02*
X144501809Y-76320746D01*
X144501809Y-76320746D02*
X144380857Y-76441699D01*
X144380857Y-76441699D02*
X144259904Y-76502175D01*
D10*
X114101666Y-96228819D02*
X114101666Y-96943104D01*
X114101666Y-96943104D02*
X114054047Y-97085961D01*
X114054047Y-97085961D02*
X113958809Y-97181200D01*
X113958809Y-97181200D02*
X113815952Y-97228819D01*
X113815952Y-97228819D02*
X113720714Y-97228819D01*
X114577857Y-97228819D02*
X114577857Y-96228819D01*
X114577857Y-96228819D02*
X114958809Y-96228819D01*
X114958809Y-96228819D02*
X115054047Y-96276438D01*
X115054047Y-96276438D02*
X115101666Y-96324057D01*
X115101666Y-96324057D02*
X115149285Y-96419295D01*
X115149285Y-96419295D02*
X115149285Y-96562152D01*
X115149285Y-96562152D02*
X115101666Y-96657390D01*
X115101666Y-96657390D02*
X115054047Y-96705009D01*
X115054047Y-96705009D02*
X114958809Y-96752628D01*
X114958809Y-96752628D02*
X114577857Y-96752628D01*
X116054047Y-96228819D02*
X115577857Y-96228819D01*
X115577857Y-96228819D02*
X115530238Y-96705009D01*
X115530238Y-96705009D02*
X115577857Y-96657390D01*
X115577857Y-96657390D02*
X115673095Y-96609771D01*
X115673095Y-96609771D02*
X115911190Y-96609771D01*
X115911190Y-96609771D02*
X116006428Y-96657390D01*
X116006428Y-96657390D02*
X116054047Y-96705009D01*
X116054047Y-96705009D02*
X116101666Y-96800247D01*
X116101666Y-96800247D02*
X116101666Y-97038342D01*
X116101666Y-97038342D02*
X116054047Y-97133580D01*
X116054047Y-97133580D02*
X116006428Y-97181200D01*
X116006428Y-97181200D02*
X115911190Y-97228819D01*
X115911190Y-97228819D02*
X115673095Y-97228819D01*
X115673095Y-97228819D02*
X115577857Y-97181200D01*
X115577857Y-97181200D02*
X115530238Y-97133580D01*
X168997333Y-93512819D02*
X168664000Y-93036628D01*
X168425905Y-93512819D02*
X168425905Y-92512819D01*
X168425905Y-92512819D02*
X168806857Y-92512819D01*
X168806857Y-92512819D02*
X168902095Y-92560438D01*
X168902095Y-92560438D02*
X168949714Y-92608057D01*
X168949714Y-92608057D02*
X168997333Y-92703295D01*
X168997333Y-92703295D02*
X168997333Y-92846152D01*
X168997333Y-92846152D02*
X168949714Y-92941390D01*
X168949714Y-92941390D02*
X168902095Y-92989009D01*
X168902095Y-92989009D02*
X168806857Y-93036628D01*
X168806857Y-93036628D02*
X168425905Y-93036628D01*
X169378286Y-92608057D02*
X169425905Y-92560438D01*
X169425905Y-92560438D02*
X169521143Y-92512819D01*
X169521143Y-92512819D02*
X169759238Y-92512819D01*
X169759238Y-92512819D02*
X169854476Y-92560438D01*
X169854476Y-92560438D02*
X169902095Y-92608057D01*
X169902095Y-92608057D02*
X169949714Y-92703295D01*
X169949714Y-92703295D02*
X169949714Y-92798533D01*
X169949714Y-92798533D02*
X169902095Y-92941390D01*
X169902095Y-92941390D02*
X169330667Y-93512819D01*
X169330667Y-93512819D02*
X169949714Y-93512819D01*
X122261333Y-102975580D02*
X122213714Y-103023200D01*
X122213714Y-103023200D02*
X122070857Y-103070819D01*
X122070857Y-103070819D02*
X121975619Y-103070819D01*
X121975619Y-103070819D02*
X121832762Y-103023200D01*
X121832762Y-103023200D02*
X121737524Y-102927961D01*
X121737524Y-102927961D02*
X121689905Y-102832723D01*
X121689905Y-102832723D02*
X121642286Y-102642247D01*
X121642286Y-102642247D02*
X121642286Y-102499390D01*
X121642286Y-102499390D02*
X121689905Y-102308914D01*
X121689905Y-102308914D02*
X121737524Y-102213676D01*
X121737524Y-102213676D02*
X121832762Y-102118438D01*
X121832762Y-102118438D02*
X121975619Y-102070819D01*
X121975619Y-102070819D02*
X122070857Y-102070819D01*
X122070857Y-102070819D02*
X122213714Y-102118438D01*
X122213714Y-102118438D02*
X122261333Y-102166057D01*
X123213714Y-103070819D02*
X122642286Y-103070819D01*
X122928000Y-103070819D02*
X122928000Y-102070819D01*
X122928000Y-102070819D02*
X122832762Y-102213676D01*
X122832762Y-102213676D02*
X122737524Y-102308914D01*
X122737524Y-102308914D02*
X122642286Y-102356533D01*
X111847333Y-103070819D02*
X111514000Y-102594628D01*
X111275905Y-103070819D02*
X111275905Y-102070819D01*
X111275905Y-102070819D02*
X111656857Y-102070819D01*
X111656857Y-102070819D02*
X111752095Y-102118438D01*
X111752095Y-102118438D02*
X111799714Y-102166057D01*
X111799714Y-102166057D02*
X111847333Y-102261295D01*
X111847333Y-102261295D02*
X111847333Y-102404152D01*
X111847333Y-102404152D02*
X111799714Y-102499390D01*
X111799714Y-102499390D02*
X111752095Y-102547009D01*
X111752095Y-102547009D02*
X111656857Y-102594628D01*
X111656857Y-102594628D02*
X111275905Y-102594628D01*
X112799714Y-103070819D02*
X112228286Y-103070819D01*
X112514000Y-103070819D02*
X112514000Y-102070819D01*
X112514000Y-102070819D02*
X112418762Y-102213676D01*
X112418762Y-102213676D02*
X112323524Y-102308914D01*
X112323524Y-102308914D02*
X112228286Y-102356533D01*
X145200761Y-95704819D02*
X144867428Y-95228628D01*
X144629333Y-95704819D02*
X144629333Y-94704819D01*
X144629333Y-94704819D02*
X145010285Y-94704819D01*
X145010285Y-94704819D02*
X145105523Y-94752438D01*
X145105523Y-94752438D02*
X145153142Y-94800057D01*
X145153142Y-94800057D02*
X145200761Y-94895295D01*
X145200761Y-94895295D02*
X145200761Y-95038152D01*
X145200761Y-95038152D02*
X145153142Y-95133390D01*
X145153142Y-95133390D02*
X145105523Y-95181009D01*
X145105523Y-95181009D02*
X145010285Y-95228628D01*
X145010285Y-95228628D02*
X144629333Y-95228628D01*
X145486476Y-94704819D02*
X145819809Y-95704819D01*
X145819809Y-95704819D02*
X146153142Y-94704819D01*
X147010285Y-95704819D02*
X146438857Y-95704819D01*
X146724571Y-95704819D02*
X146724571Y-94704819D01*
X146724571Y-94704819D02*
X146629333Y-94847676D01*
X146629333Y-94847676D02*
X146534095Y-94942914D01*
X146534095Y-94942914D02*
X146438857Y-94990533D01*
X113974666Y-81877819D02*
X113974666Y-82592104D01*
X113974666Y-82592104D02*
X113927047Y-82734961D01*
X113927047Y-82734961D02*
X113831809Y-82830200D01*
X113831809Y-82830200D02*
X113688952Y-82877819D01*
X113688952Y-82877819D02*
X113593714Y-82877819D01*
X114450857Y-82877819D02*
X114450857Y-81877819D01*
X114450857Y-81877819D02*
X114831809Y-81877819D01*
X114831809Y-81877819D02*
X114927047Y-81925438D01*
X114927047Y-81925438D02*
X114974666Y-81973057D01*
X114974666Y-81973057D02*
X115022285Y-82068295D01*
X115022285Y-82068295D02*
X115022285Y-82211152D01*
X115022285Y-82211152D02*
X114974666Y-82306390D01*
X114974666Y-82306390D02*
X114927047Y-82354009D01*
X114927047Y-82354009D02*
X114831809Y-82401628D01*
X114831809Y-82401628D02*
X114450857Y-82401628D01*
X115403238Y-81973057D02*
X115450857Y-81925438D01*
X115450857Y-81925438D02*
X115546095Y-81877819D01*
X115546095Y-81877819D02*
X115784190Y-81877819D01*
X115784190Y-81877819D02*
X115879428Y-81925438D01*
X115879428Y-81925438D02*
X115927047Y-81973057D01*
X115927047Y-81973057D02*
X115974666Y-82068295D01*
X115974666Y-82068295D02*
X115974666Y-82163533D01*
X115974666Y-82163533D02*
X115927047Y-82306390D01*
X115927047Y-82306390D02*
X115355619Y-82877819D01*
X115355619Y-82877819D02*
X115974666Y-82877819D01*
%TO.C,G\u002A\u002A\u002A*%
G36*
X92676315Y-83910048D02*
G01*
X92815466Y-83912841D01*
X93482163Y-83945124D01*
X93957720Y-83987295D01*
X94034008Y-83999522D01*
X94087716Y-84016736D01*
X94115033Y-84036919D01*
X94112149Y-84058050D01*
X94103999Y-84064833D01*
X94071636Y-84073557D01*
X94010312Y-84078599D01*
X93926164Y-84080049D01*
X93825330Y-84077999D01*
X93713950Y-84072542D01*
X93598160Y-84063769D01*
X93521512Y-84056120D01*
X93443744Y-84048689D01*
X93338969Y-84040361D01*
X93215453Y-84031703D01*
X93081460Y-84023279D01*
X92945255Y-84015654D01*
X92886070Y-84012664D01*
X92715540Y-84004022D01*
X92577402Y-83996158D01*
X92468762Y-83988785D01*
X92386727Y-83981615D01*
X92328404Y-83974359D01*
X92290897Y-83966730D01*
X92271315Y-83958438D01*
X92266602Y-83950964D01*
X92275478Y-83935855D01*
X92304728Y-83924298D01*
X92356894Y-83916115D01*
X92434519Y-83911130D01*
X92540145Y-83909167D01*
X92676315Y-83910048D01*
G37*
G36*
X92459760Y-79619165D02*
G01*
X92487656Y-79626459D01*
X92497187Y-79642455D01*
X92497745Y-79651401D01*
X92490185Y-79673566D01*
X92462540Y-79689577D01*
X92407363Y-79703672D01*
X92405076Y-79704136D01*
X92320967Y-79718092D01*
X92207131Y-79732461D01*
X92069134Y-79746755D01*
X91912539Y-79760486D01*
X91742912Y-79773166D01*
X91565816Y-79784309D01*
X91386817Y-79793425D01*
X91385723Y-79793474D01*
X91251201Y-79799404D01*
X91146294Y-79803749D01*
X91065351Y-79806527D01*
X91002721Y-79807758D01*
X90952753Y-79807463D01*
X90909795Y-79805660D01*
X90868198Y-79802368D01*
X90822309Y-79797609D01*
X90803235Y-79795493D01*
X90724679Y-79783015D01*
X90678554Y-79766233D01*
X90662139Y-79744114D01*
X90662026Y-79741780D01*
X90666015Y-79732884D01*
X90680095Y-79725321D01*
X90707438Y-79718831D01*
X90751212Y-79713156D01*
X90814588Y-79708038D01*
X90900736Y-79703216D01*
X91012826Y-79698433D01*
X91154029Y-79693430D01*
X91318061Y-79688236D01*
X91468628Y-79682987D01*
X91618441Y-79676571D01*
X91761021Y-79669354D01*
X91889884Y-79661700D01*
X91998550Y-79653973D01*
X92080538Y-79646539D01*
X92100594Y-79644217D01*
X92193838Y-79633494D01*
X92284150Y-79624814D01*
X92360261Y-79619167D01*
X92405076Y-79617491D01*
X92459760Y-79619165D01*
G37*
G36*
X93179400Y-82089755D02*
G01*
X93238472Y-82106240D01*
X93252843Y-82112854D01*
X93285423Y-82125259D01*
X93347002Y-82144535D01*
X93432280Y-82169187D01*
X93535960Y-82197718D01*
X93652744Y-82228631D01*
X93758764Y-82255765D01*
X93921419Y-82297349D01*
X94052835Y-82332673D01*
X94156234Y-82363138D01*
X94234840Y-82390140D01*
X94291875Y-82415078D01*
X94330562Y-82439352D01*
X94354123Y-82464358D01*
X94365781Y-82491496D01*
X94368767Y-82520463D01*
X94359508Y-82540055D01*
X94330278Y-82562112D01*
X94278897Y-82587437D01*
X94203183Y-82616833D01*
X94100955Y-82651102D01*
X93970033Y-82691046D01*
X93808235Y-82737467D01*
X93689197Y-82770474D01*
X93562357Y-82806134D01*
X93428109Y-82845337D01*
X93297186Y-82884852D01*
X93180318Y-82921446D01*
X93098273Y-82948446D01*
X92992743Y-82986176D01*
X92891033Y-83025732D01*
X92798398Y-83064738D01*
X92720096Y-83100815D01*
X92661383Y-83131589D01*
X92627517Y-83154680D01*
X92621303Y-83164103D01*
X92633532Y-83182941D01*
X92671276Y-83200073D01*
X92736117Y-83215734D01*
X92829639Y-83230160D01*
X92953425Y-83243586D01*
X93109058Y-83256248D01*
X93298122Y-83268383D01*
X93336174Y-83270548D01*
X93528820Y-83282258D01*
X93688511Y-83294159D01*
X93817598Y-83306641D01*
X93918427Y-83320094D01*
X93993347Y-83334908D01*
X94044707Y-83351472D01*
X94074854Y-83370178D01*
X94086137Y-83391414D01*
X94086348Y-83395102D01*
X94069018Y-83403160D01*
X94018014Y-83408021D01*
X93934818Y-83409707D01*
X93820914Y-83408238D01*
X93677782Y-83403635D01*
X93506905Y-83395921D01*
X93309764Y-83385117D01*
X93283221Y-83383542D01*
X93101568Y-83371210D01*
X92951532Y-83357571D01*
X92829432Y-83342022D01*
X92731589Y-83323960D01*
X92654325Y-83302784D01*
X92593959Y-83277889D01*
X92575070Y-83267556D01*
X92515248Y-83223179D01*
X92490225Y-83180762D01*
X92499609Y-83139462D01*
X92509555Y-83126630D01*
X92562390Y-83082637D01*
X92644993Y-83032475D01*
X92752783Y-82978131D01*
X92881180Y-82921588D01*
X93025603Y-82864830D01*
X93181472Y-82809843D01*
X93344206Y-82758611D01*
X93389128Y-82745565D01*
X93437876Y-82731739D01*
X93513561Y-82710358D01*
X93609133Y-82683405D01*
X93717542Y-82652866D01*
X93831736Y-82620724D01*
X93944664Y-82588965D01*
X94049276Y-82559574D01*
X94138521Y-82534534D01*
X94198445Y-82517759D01*
X94218926Y-82504045D01*
X94215351Y-82492872D01*
X94194985Y-82484934D01*
X94144489Y-82469705D01*
X94068018Y-82448308D01*
X93969728Y-82421867D01*
X93853773Y-82391508D01*
X93724308Y-82358353D01*
X93636457Y-82336231D01*
X93464962Y-82292827D01*
X93325313Y-82256164D01*
X93214910Y-82225256D01*
X93131152Y-82199115D01*
X93071441Y-82176755D01*
X93033175Y-82157189D01*
X93013755Y-82139431D01*
X93010580Y-82122494D01*
X93021051Y-82105391D01*
X93022965Y-82103416D01*
X93058863Y-82087818D01*
X93115269Y-82083439D01*
X93179400Y-82089755D01*
G37*
G36*
X94012996Y-76749402D02*
G01*
X94020790Y-76776159D01*
X94023559Y-76829941D01*
X94021818Y-76902908D01*
X94016080Y-76987221D01*
X94006862Y-77075040D01*
X93994677Y-77158525D01*
X93981978Y-77221890D01*
X93965150Y-77299423D01*
X93952356Y-77371060D01*
X93945660Y-77424757D01*
X93945139Y-77437008D01*
X93946733Y-77464679D01*
X93954182Y-77489546D01*
X93971485Y-77516216D01*
X94002642Y-77549294D01*
X94051654Y-77593388D01*
X94122520Y-77653102D01*
X94159091Y-77683393D01*
X94231613Y-77748076D01*
X94274037Y-77798140D01*
X94287406Y-77835593D01*
X94272763Y-77862445D01*
X94256945Y-77871772D01*
X94230116Y-77892313D01*
X94195674Y-77929108D01*
X94160314Y-77973339D01*
X94130733Y-78016183D01*
X94113627Y-78048821D01*
X94113046Y-78061328D01*
X94128697Y-78055137D01*
X94156323Y-78029023D01*
X94161837Y-78022772D01*
X94197213Y-77990872D01*
X94229458Y-77975945D01*
X94231980Y-77975793D01*
X94266547Y-77983282D01*
X94323911Y-78003237D01*
X94395519Y-78031891D01*
X94472819Y-78065477D01*
X94547259Y-78100228D01*
X94610288Y-78132377D01*
X94653352Y-78158156D01*
X94662752Y-78165543D01*
X94694947Y-78192654D01*
X94715125Y-78205161D01*
X94715928Y-78205258D01*
X94732745Y-78193212D01*
X94767128Y-78161286D01*
X94812979Y-78115801D01*
X94864204Y-78063078D01*
X94914706Y-78009437D01*
X94958391Y-77961198D01*
X94989163Y-77924681D01*
X94997404Y-77913406D01*
X95014075Y-77877515D01*
X95014360Y-77854382D01*
X94989769Y-77839697D01*
X94937297Y-77823259D01*
X94864218Y-77806557D01*
X94777805Y-77791079D01*
X94685331Y-77778316D01*
X94604730Y-77770513D01*
X94528656Y-77763456D01*
X94461741Y-77754752D01*
X94415059Y-77745928D01*
X94405425Y-77743047D01*
X94376139Y-77729406D01*
X94377231Y-77714046D01*
X94392943Y-77697062D01*
X94413425Y-77682892D01*
X94445214Y-77674036D01*
X94495499Y-77669520D01*
X94571466Y-77668371D01*
X94603401Y-77668566D01*
X94736020Y-77676371D01*
X94859945Y-77696091D01*
X94969351Y-77725929D01*
X95058409Y-77764090D01*
X95121293Y-77808779D01*
X95142071Y-77834586D01*
X95155467Y-77867257D01*
X95147357Y-77899130D01*
X95135115Y-77919897D01*
X95102672Y-77964524D01*
X95073763Y-77997153D01*
X95037953Y-78035338D01*
X95018538Y-78058932D01*
X94995065Y-78084742D01*
X94951168Y-78128636D01*
X94892669Y-78185090D01*
X94825391Y-78248579D01*
X94755154Y-78313578D01*
X94687782Y-78374562D01*
X94659725Y-78399421D01*
X94604871Y-78444913D01*
X94546457Y-78489101D01*
X94492502Y-78526390D01*
X94451026Y-78551190D01*
X94431962Y-78558281D01*
X94410822Y-78567845D01*
X94371219Y-78592538D01*
X94335829Y-78617005D01*
X94269650Y-78658991D01*
X94193385Y-78699692D01*
X94156953Y-78716277D01*
X94093076Y-78745647D01*
X94034156Y-78777154D01*
X94006918Y-78794350D01*
X93967392Y-78816079D01*
X93918910Y-78827717D01*
X93849747Y-78831757D01*
X93830407Y-78831874D01*
X93709348Y-78825852D01*
X93610308Y-78808612D01*
X93536172Y-78781390D01*
X93489826Y-78745424D01*
X93474158Y-78701949D01*
X93477734Y-78680735D01*
X93492031Y-78656877D01*
X93518656Y-78648825D01*
X93563355Y-78656893D01*
X93631875Y-78681394D01*
X93653895Y-78690328D01*
X93717750Y-78713553D01*
X93775962Y-78729540D01*
X93809483Y-78734374D01*
X93843444Y-78729268D01*
X93891397Y-78715959D01*
X93943576Y-78698056D01*
X93990215Y-78679169D01*
X94021548Y-78662908D01*
X94028505Y-78653414D01*
X94009547Y-78649154D01*
X93963241Y-78642458D01*
X93897365Y-78634379D01*
X93847043Y-78628812D01*
X93741618Y-78617072D01*
X93666607Y-78607129D01*
X93641210Y-78602409D01*
X94156953Y-78602409D01*
X94165778Y-78611235D01*
X94174604Y-78602409D01*
X94165778Y-78593584D01*
X94156953Y-78602409D01*
X93641210Y-78602409D01*
X93617233Y-78597953D01*
X93588721Y-78588516D01*
X93576296Y-78577789D01*
X93574577Y-78570117D01*
X93588610Y-78548220D01*
X93622733Y-78522202D01*
X93627530Y-78519387D01*
X93663384Y-78491461D01*
X93680195Y-78463549D01*
X93680372Y-78461144D01*
X93676873Y-78445292D01*
X93663038Y-78444794D01*
X93633861Y-78461952D01*
X93584335Y-78499070D01*
X93565126Y-78514153D01*
X93509298Y-78560891D01*
X93453099Y-78612327D01*
X93402912Y-78662060D01*
X93365117Y-78703686D01*
X93346094Y-78730805D01*
X93345000Y-78735020D01*
X93355731Y-78754526D01*
X93384001Y-78793247D01*
X93423926Y-78843984D01*
X93469621Y-78899539D01*
X93515202Y-78952715D01*
X93554784Y-78996314D01*
X93575697Y-79017211D01*
X93602346Y-79046043D01*
X93639595Y-79091306D01*
X93664182Y-79123118D01*
X93700725Y-79170306D01*
X93730894Y-79206866D01*
X93743311Y-79220199D01*
X93766239Y-79248785D01*
X93800841Y-79300986D01*
X93842562Y-79369071D01*
X93886845Y-79445306D01*
X93929136Y-79521956D01*
X93964877Y-79591288D01*
X93977362Y-79617499D01*
X94013798Y-79699144D01*
X94041574Y-79769640D01*
X94061920Y-79836023D01*
X94076067Y-79905328D01*
X94085245Y-79984589D01*
X94090687Y-80080843D01*
X94093621Y-80201123D01*
X94094695Y-80288094D01*
X94098315Y-80649942D01*
X94076225Y-80067454D01*
X94068697Y-80782326D01*
X94013855Y-80782326D01*
X93976213Y-80778158D01*
X93967123Y-80763250D01*
X93969258Y-80755629D01*
X93979218Y-80713267D01*
X93988662Y-80644167D01*
X93997020Y-80556895D01*
X94003727Y-80460013D01*
X94008214Y-80362087D01*
X94009914Y-80271681D01*
X94008261Y-80197359D01*
X94007248Y-80182187D01*
X93989186Y-80022547D01*
X93960030Y-79882415D01*
X93915772Y-79747178D01*
X93852403Y-79602221D01*
X93842624Y-79582048D01*
X93795188Y-79487018D01*
X93752600Y-79407777D01*
X93710320Y-79338101D01*
X93663812Y-79271762D01*
X93608537Y-79202536D01*
X93539956Y-79124198D01*
X93453532Y-79030521D01*
X93396140Y-78969562D01*
X93334424Y-78905419D01*
X93289871Y-78864491D01*
X93255851Y-78843916D01*
X93225733Y-78840829D01*
X93192887Y-78852368D01*
X93162714Y-78868761D01*
X93092324Y-78902119D01*
X93042486Y-78910571D01*
X93014870Y-78894101D01*
X93009628Y-78869912D01*
X93025177Y-78821314D01*
X93063516Y-78783565D01*
X93108099Y-78769360D01*
X93119910Y-78760617D01*
X93106192Y-78738248D01*
X93071952Y-78706340D01*
X93022201Y-78668980D01*
X92961945Y-78630255D01*
X92896193Y-78594252D01*
X92889419Y-78590915D01*
X92829347Y-78562628D01*
X92792511Y-78549175D01*
X92770888Y-78548990D01*
X92756454Y-78560503D01*
X92753518Y-78564353D01*
X92727639Y-78587253D01*
X92702815Y-78593322D01*
X92691908Y-78579678D01*
X92681443Y-78558692D01*
X92655212Y-78522758D01*
X92643367Y-78508316D01*
X92612078Y-78477467D01*
X92572213Y-78452936D01*
X92529558Y-78436150D01*
X92886070Y-78436150D01*
X92901957Y-78457854D01*
X92949265Y-78494204D01*
X93027468Y-78544829D01*
X93109490Y-78593937D01*
X93172671Y-78629108D01*
X93213916Y-78646733D01*
X93240432Y-78649188D01*
X93255567Y-78642069D01*
X93283572Y-78620051D01*
X93328293Y-78584210D01*
X93370659Y-78549924D01*
X93425399Y-78504560D01*
X93475901Y-78461264D01*
X93503043Y-78436931D01*
X93532820Y-78410377D01*
X93583290Y-78366644D01*
X93633597Y-78323601D01*
X93798395Y-78323601D01*
X93876180Y-78332396D01*
X93951169Y-78349380D01*
X94036138Y-78381375D01*
X94117380Y-78422146D01*
X94181188Y-78465455D01*
X94193779Y-78476904D01*
X94230445Y-78506491D01*
X94261418Y-78520635D01*
X94262860Y-78520771D01*
X94290014Y-78512795D01*
X94337344Y-78490337D01*
X94395322Y-78457988D01*
X94404069Y-78452736D01*
X94471010Y-78412672D01*
X94536067Y-78374586D01*
X94584993Y-78346816D01*
X94625674Y-78321304D01*
X94649012Y-78300549D01*
X94651185Y-78295583D01*
X94634891Y-78287666D01*
X94591323Y-78279108D01*
X94528450Y-78271308D01*
X94496737Y-78268478D01*
X94375185Y-78255847D01*
X94262675Y-78238526D01*
X94166176Y-78217944D01*
X94092659Y-78195533D01*
X94056214Y-78178008D01*
X94028972Y-78163873D01*
X94002660Y-78162666D01*
X93970612Y-78177354D01*
X93926161Y-78210903D01*
X93867354Y-78262075D01*
X93798395Y-78323601D01*
X93633597Y-78323601D01*
X93648077Y-78311212D01*
X93720800Y-78249558D01*
X93742151Y-78231561D01*
X93856441Y-78132925D01*
X93948155Y-78047773D01*
X94023817Y-77969603D01*
X94089953Y-77891913D01*
X94114352Y-77860628D01*
X94157359Y-77804242D01*
X94090964Y-77760126D01*
X94023825Y-77710291D01*
X93957306Y-77652044D01*
X93898303Y-77592406D01*
X93853714Y-77538398D01*
X93830434Y-77497040D01*
X93829585Y-77494039D01*
X93828397Y-77450852D01*
X93837880Y-77376840D01*
X93857629Y-77274701D01*
X93872430Y-77208755D01*
X93892561Y-77121136D01*
X93909391Y-77045338D01*
X93921433Y-76988253D01*
X93927200Y-76956774D01*
X93927488Y-76953573D01*
X93916288Y-76935049D01*
X93882780Y-76943710D01*
X93827099Y-76979491D01*
X93760806Y-77032562D01*
X93694274Y-77092751D01*
X93656565Y-77136662D01*
X93646378Y-77166426D01*
X93662413Y-77184172D01*
X93667133Y-77185974D01*
X93677108Y-77199874D01*
X93683201Y-77236242D01*
X93685758Y-77299228D01*
X93685125Y-77392981D01*
X93684980Y-77400325D01*
X93683580Y-77487920D01*
X93684067Y-77545180D01*
X93687082Y-77577049D01*
X93693269Y-77588471D01*
X93703271Y-77584393D01*
X93708305Y-77579708D01*
X93746524Y-77556319D01*
X93783284Y-77555690D01*
X93806452Y-77577414D01*
X93808113Y-77583055D01*
X93808872Y-77619359D01*
X93792207Y-77655864D01*
X93754432Y-77696753D01*
X93691860Y-77746210D01*
X93621665Y-77794625D01*
X93338169Y-78000789D01*
X93144729Y-78166095D01*
X93074582Y-78232077D01*
X93009153Y-78296380D01*
X92953207Y-78354034D01*
X92911506Y-78400064D01*
X92888814Y-78429498D01*
X92886070Y-78436150D01*
X92529558Y-78436150D01*
X92514924Y-78430391D01*
X92435966Y-78406775D01*
X92214089Y-78358813D01*
X91996438Y-78340328D01*
X91778616Y-78351741D01*
X91556226Y-78393470D01*
X91324873Y-78465933D01*
X91173909Y-78526956D01*
X91100907Y-78559605D01*
X91038344Y-78589076D01*
X90994494Y-78611392D01*
X90979746Y-78620326D01*
X90950047Y-78639990D01*
X90901897Y-78668984D01*
X90865014Y-78690137D01*
X90724127Y-78778390D01*
X90580070Y-78885044D01*
X90439939Y-79003687D01*
X90310829Y-79127909D01*
X90199836Y-79251299D01*
X90114054Y-79367446D01*
X90112274Y-79370234D01*
X90065578Y-79454615D01*
X90019295Y-79556779D01*
X89979328Y-79662202D01*
X89951578Y-79756362D01*
X89947286Y-79776210D01*
X89929728Y-79899430D01*
X89919567Y-80043560D01*
X89917155Y-80194920D01*
X89922847Y-80339828D01*
X89930607Y-80420477D01*
X89953618Y-80578949D01*
X89982009Y-80716573D01*
X90019261Y-80844596D01*
X90068854Y-80974268D01*
X90134266Y-81116838D01*
X90165376Y-81179476D01*
X90229106Y-81300754D01*
X90282509Y-81391100D01*
X90327178Y-81452816D01*
X90364703Y-81488200D01*
X90386039Y-81498174D01*
X90424348Y-81525270D01*
X90449465Y-81572382D01*
X90489626Y-81656939D01*
X90548771Y-81736049D01*
X90631131Y-81814016D01*
X90740936Y-81895140D01*
X90812061Y-81941108D01*
X90953508Y-82014841D01*
X91124736Y-82077989D01*
X91327775Y-82131284D01*
X91359246Y-82138084D01*
X91435762Y-82153468D01*
X91503955Y-82164920D01*
X91571372Y-82173020D01*
X91645560Y-82178344D01*
X91734065Y-82181473D01*
X91844434Y-82182985D01*
X91950559Y-82183413D01*
X92076887Y-82183450D01*
X92174069Y-82182693D01*
X92248261Y-82180592D01*
X92305618Y-82176599D01*
X92352297Y-82170162D01*
X92394452Y-82160733D01*
X92438240Y-82147762D01*
X92471268Y-82136912D01*
X92589761Y-82090001D01*
X92704026Y-82028058D01*
X92810795Y-81956127D01*
X92837622Y-81950644D01*
X92858160Y-81969365D01*
X92881087Y-81992414D01*
X92908683Y-81997755D01*
X92950028Y-81984939D01*
X92996686Y-81962550D01*
X93082029Y-81911605D01*
X93182647Y-81839672D01*
X93291242Y-81752909D01*
X93400514Y-81657468D01*
X93503164Y-81559506D01*
X93591895Y-81465176D01*
X93606314Y-81448483D01*
X93664397Y-81375041D01*
X93725810Y-81289413D01*
X93776021Y-81212110D01*
X93852100Y-81085882D01*
X93810364Y-81066866D01*
X93774769Y-81040626D01*
X93772589Y-81013717D01*
X93802504Y-80991762D01*
X93829778Y-80984267D01*
X93881474Y-80969347D01*
X93912965Y-80942355D01*
X93933896Y-80893359D01*
X93940152Y-80870581D01*
X93956152Y-80827666D01*
X93982256Y-80808547D01*
X94012348Y-80803271D01*
X94049032Y-80803038D01*
X94065857Y-80816124D01*
X94065374Y-80849226D01*
X94051217Y-80905288D01*
X94042671Y-80959562D01*
X94051217Y-80983719D01*
X94063367Y-81012338D01*
X94068687Y-81057484D01*
X94068697Y-81059449D01*
X94064171Y-81100575D01*
X94046887Y-81116382D01*
X94033673Y-81117697D01*
X93988208Y-81133566D01*
X93936349Y-81177768D01*
X93883011Y-81245194D01*
X93838238Y-81320686D01*
X93783322Y-81426593D01*
X93917869Y-81435418D01*
X94000103Y-81443885D01*
X94050165Y-81456717D01*
X94069111Y-81470720D01*
X94082584Y-81487259D01*
X94086073Y-81472673D01*
X94086078Y-81472287D01*
X94103145Y-81464486D01*
X94151583Y-81458895D01*
X94227538Y-81455385D01*
X94327156Y-81453829D01*
X94446583Y-81454097D01*
X94581965Y-81456063D01*
X94729449Y-81459597D01*
X94885179Y-81464573D01*
X95045303Y-81470862D01*
X95205965Y-81478336D01*
X95363314Y-81486868D01*
X95513493Y-81496328D01*
X95652650Y-81506589D01*
X95776931Y-81517523D01*
X95882481Y-81529002D01*
X95913242Y-81532983D01*
X96083947Y-81559010D01*
X96224994Y-81587528D01*
X96342023Y-81620687D01*
X96440678Y-81660635D01*
X96526599Y-81709521D01*
X96605428Y-81769493D01*
X96655982Y-81815872D01*
X96739925Y-81912103D01*
X96789793Y-82003743D01*
X96805508Y-82090052D01*
X96786993Y-82170286D01*
X96734168Y-82243703D01*
X96703669Y-82270791D01*
X96664279Y-82303990D01*
X96637669Y-82328592D01*
X96602431Y-82352628D01*
X96542079Y-82382825D01*
X96465418Y-82415559D01*
X96381252Y-82447202D01*
X96298385Y-82474130D01*
X96256115Y-82485726D01*
X96192873Y-82500175D01*
X96106427Y-82517982D01*
X96008418Y-82536831D01*
X95915587Y-82553523D01*
X95689276Y-82592631D01*
X95893928Y-82678744D01*
X95971397Y-82712241D01*
X96035418Y-82741635D01*
X96079806Y-82763962D01*
X96098378Y-82776255D01*
X96098579Y-82776874D01*
X96112734Y-82792236D01*
X96141331Y-82808369D01*
X96187924Y-82834192D01*
X96216348Y-82854239D01*
X96246061Y-82878337D01*
X96293223Y-82916373D01*
X96347739Y-82960205D01*
X96348890Y-82961129D01*
X96405834Y-83010411D01*
X96456815Y-83060666D01*
X96489249Y-83099017D01*
X96517526Y-83137821D01*
X96537721Y-83162561D01*
X96540529Y-83165230D01*
X96556169Y-83191003D01*
X96572988Y-83237343D01*
X96586639Y-83289954D01*
X96592775Y-83334537D01*
X96592811Y-83337238D01*
X96575879Y-83400454D01*
X96527958Y-83460263D01*
X96453359Y-83512941D01*
X96356393Y-83554764D01*
X96332457Y-83562147D01*
X96301585Y-83578067D01*
X96292742Y-83592442D01*
X96304540Y-83611809D01*
X96336561Y-83650055D01*
X96383744Y-83701425D01*
X96434112Y-83753240D01*
X96514558Y-83840076D01*
X96568887Y-83915561D01*
X96600693Y-83987410D01*
X96613569Y-84063339D01*
X96612375Y-84136044D01*
X96594042Y-84181117D01*
X96549371Y-84233745D01*
X96484911Y-84288657D01*
X96407214Y-84340580D01*
X96322830Y-84384244D01*
X96284814Y-84399649D01*
X96129698Y-84450851D01*
X95963462Y-84493826D01*
X95780149Y-84529735D01*
X95573805Y-84559740D01*
X95338475Y-84585003D01*
X95330754Y-84585714D01*
X95171091Y-84599630D01*
X95014791Y-84611655D01*
X94858063Y-84621905D01*
X94697117Y-84630492D01*
X94528161Y-84637531D01*
X94347405Y-84643135D01*
X94151057Y-84647419D01*
X93935327Y-84650495D01*
X93696423Y-84652479D01*
X93430555Y-84653483D01*
X93133931Y-84653621D01*
X93071407Y-84653556D01*
X92793195Y-84652937D01*
X92548124Y-84651769D01*
X92334036Y-84649969D01*
X92148771Y-84647456D01*
X91990172Y-84644147D01*
X91856080Y-84639962D01*
X91744337Y-84634817D01*
X91652785Y-84628632D01*
X91579265Y-84621324D01*
X91521618Y-84612812D01*
X91477687Y-84603013D01*
X91445378Y-84591874D01*
X91362132Y-84550036D01*
X91268400Y-84493678D01*
X91170630Y-84427679D01*
X91075266Y-84356918D01*
X90988753Y-84286277D01*
X90917538Y-84220633D01*
X90868066Y-84164867D01*
X90854932Y-84144869D01*
X90825862Y-84095612D01*
X90799953Y-84056532D01*
X90793176Y-84047788D01*
X90767995Y-84009743D01*
X90735159Y-83948883D01*
X90699563Y-83875392D01*
X90666099Y-83799453D01*
X90639661Y-83731247D01*
X90636247Y-83721242D01*
X90615298Y-83634264D01*
X90601247Y-83527438D01*
X90594820Y-83414022D01*
X90596743Y-83307273D01*
X90607741Y-83220447D01*
X90608615Y-83216551D01*
X90626199Y-83155689D01*
X90652873Y-83080940D01*
X90684819Y-83001257D01*
X90718218Y-82925590D01*
X90749249Y-82862893D01*
X90774095Y-82822118D01*
X90779662Y-82815607D01*
X90802727Y-82788124D01*
X90836325Y-82743189D01*
X90859355Y-82710524D01*
X90909980Y-82643389D01*
X90969145Y-82574943D01*
X91031689Y-82510007D01*
X91092449Y-82453400D01*
X91146264Y-82409944D01*
X91187971Y-82384458D01*
X91211846Y-82381383D01*
X91226924Y-82408456D01*
X91211699Y-82452527D01*
X91166053Y-82513847D01*
X91134194Y-82548557D01*
X90984658Y-82716302D01*
X90867545Y-82875759D01*
X90781774Y-83029767D01*
X90726265Y-83181162D01*
X90699937Y-83332784D01*
X90701710Y-83487470D01*
X90724662Y-83624160D01*
X90741107Y-83680168D01*
X90766196Y-83749009D01*
X90796609Y-83823348D01*
X90829028Y-83895850D01*
X90860134Y-83959178D01*
X90886610Y-84005998D01*
X90905136Y-84028973D01*
X90908321Y-84030137D01*
X90922969Y-84044691D01*
X90944046Y-84081200D01*
X90952069Y-84098078D01*
X90987214Y-84148985D01*
X91048780Y-84210041D01*
X91130999Y-84276892D01*
X91228107Y-84345185D01*
X91334338Y-84410566D01*
X91441152Y-84467335D01*
X91478314Y-84482933D01*
X91523043Y-84496389D01*
X91578205Y-84507908D01*
X91646667Y-84517693D01*
X91731295Y-84525948D01*
X91834957Y-84532875D01*
X91960519Y-84538680D01*
X92110849Y-84543565D01*
X92288812Y-84547735D01*
X92497277Y-84551392D01*
X92656605Y-84553673D01*
X92928013Y-84556053D01*
X93207210Y-84556172D01*
X93490040Y-84554154D01*
X93772351Y-84550124D01*
X94049987Y-84544206D01*
X94318795Y-84536525D01*
X94574620Y-84527206D01*
X94813308Y-84516373D01*
X95030704Y-84504150D01*
X95222654Y-84490662D01*
X95385005Y-84476033D01*
X95436661Y-84470365D01*
X95575222Y-84451416D01*
X95722709Y-84426317D01*
X95871679Y-84396744D01*
X96014690Y-84364372D01*
X96144300Y-84330877D01*
X96253067Y-84297934D01*
X96328044Y-84269678D01*
X96415003Y-84217114D01*
X96469627Y-84151312D01*
X96491230Y-84074483D01*
X96479128Y-83988839D01*
X96440101Y-83908015D01*
X96392981Y-83849985D01*
X96324116Y-83785267D01*
X96243686Y-83722239D01*
X96161872Y-83669283D01*
X96128702Y-83651648D01*
X96084050Y-83632043D01*
X96037336Y-83617542D01*
X95980517Y-83606655D01*
X95905551Y-83597892D01*
X95804398Y-83589762D01*
X95788730Y-83588662D01*
X95623682Y-83576025D01*
X95469752Y-83561962D01*
X95330932Y-83546988D01*
X95211216Y-83531617D01*
X95114596Y-83516365D01*
X95045065Y-83501746D01*
X95006616Y-83488275D01*
X95005642Y-83487679D01*
X94962948Y-83460583D01*
X95014467Y-83432052D01*
X95059329Y-83418400D01*
X95132721Y-83408864D01*
X95228122Y-83403349D01*
X95339012Y-83401760D01*
X95458869Y-83404005D01*
X95581175Y-83409989D01*
X95699407Y-83419618D01*
X95807045Y-83432798D01*
X95874423Y-83444454D01*
X96013422Y-83468885D01*
X96126865Y-83479894D01*
X96221864Y-83477435D01*
X96305532Y-83461463D01*
X96363297Y-83441345D01*
X96436339Y-83401163D01*
X96476388Y-83353511D01*
X96483491Y-83297087D01*
X96457693Y-83230590D01*
X96399043Y-83152718D01*
X96374598Y-83126479D01*
X96267848Y-83025764D01*
X96154666Y-82939866D01*
X96026089Y-82862883D01*
X95873156Y-82788915D01*
X95839650Y-82774305D01*
X95666126Y-82699743D01*
X95313103Y-82686839D01*
X95205487Y-82682843D01*
X95110659Y-82679203D01*
X95033984Y-82676135D01*
X94980832Y-82673855D01*
X94956569Y-82672578D01*
X94955667Y-82672466D01*
X94951637Y-82656668D01*
X94951254Y-82646663D01*
X94954428Y-82631938D01*
X94966134Y-82618719D01*
X94989645Y-82606257D01*
X95028239Y-82593799D01*
X95085189Y-82580595D01*
X95163771Y-82565894D01*
X95267260Y-82548945D01*
X95398932Y-82528997D01*
X95562061Y-82505298D01*
X95577204Y-82503126D01*
X95788249Y-82471126D01*
X95968283Y-82439742D01*
X96121555Y-82407905D01*
X96252315Y-82374541D01*
X96364814Y-82338581D01*
X96463302Y-82298953D01*
X96542473Y-82259807D01*
X96625373Y-82202049D01*
X96673675Y-82137613D01*
X96687289Y-82067255D01*
X96666128Y-81991729D01*
X96610103Y-81911792D01*
X96586030Y-81886616D01*
X96532191Y-81839493D01*
X96470055Y-81797297D01*
X96397466Y-81759695D01*
X96312263Y-81726354D01*
X96212290Y-81696941D01*
X96095388Y-81671123D01*
X95959398Y-81648568D01*
X95802162Y-81628942D01*
X95621523Y-81611913D01*
X95415320Y-81597147D01*
X95181398Y-81584311D01*
X94917596Y-81573074D01*
X94621757Y-81563101D01*
X94458187Y-81558404D01*
X94304675Y-81554008D01*
X94162189Y-81549536D01*
X94034593Y-81545138D01*
X93925749Y-81540965D01*
X93839521Y-81537168D01*
X93779773Y-81533897D01*
X93750367Y-81531304D01*
X93748093Y-81530718D01*
X93722922Y-81532173D01*
X93683851Y-81549082D01*
X93644663Y-81574991D01*
X93634660Y-81583828D01*
X93613505Y-81603433D01*
X93572859Y-81640467D01*
X93519500Y-81688772D01*
X93484261Y-81720546D01*
X93422054Y-81776690D01*
X93364127Y-81829203D01*
X93319261Y-81870116D01*
X93304376Y-81883819D01*
X93268498Y-81913544D01*
X93242387Y-81929021D01*
X93239093Y-81929650D01*
X93216711Y-81940648D01*
X93182379Y-81967648D01*
X93176548Y-81972942D01*
X93121114Y-82013918D01*
X93041266Y-82059744D01*
X92946654Y-82106009D01*
X92846932Y-82148299D01*
X92751748Y-82182203D01*
X92674016Y-82202684D01*
X92598696Y-82218041D01*
X92503721Y-82238324D01*
X92403795Y-82260362D01*
X92347710Y-82273077D01*
X92254824Y-82291917D01*
X92160606Y-82306851D01*
X92078438Y-82315948D01*
X92037804Y-82317816D01*
X91960919Y-82314873D01*
X91857678Y-82306578D01*
X91736437Y-82293984D01*
X91605557Y-82278142D01*
X91473396Y-82260107D01*
X91348312Y-82240930D01*
X91238666Y-82221663D01*
X91181317Y-82209962D01*
X91012327Y-82172797D01*
X90985882Y-82210552D01*
X90958004Y-82246151D01*
X90917938Y-82292718D01*
X90898597Y-82314031D01*
X90849666Y-82370154D01*
X90792851Y-82440275D01*
X90734687Y-82515767D01*
X90681710Y-82588001D01*
X90640452Y-82648351D01*
X90621553Y-82679824D01*
X90596994Y-82734654D01*
X90566335Y-82815940D01*
X90531999Y-82915882D01*
X90496408Y-83026679D01*
X90461987Y-83140529D01*
X90431157Y-83249632D01*
X90406343Y-83346186D01*
X90389967Y-83422391D01*
X90388788Y-83429179D01*
X90356804Y-83674201D01*
X90347786Y-83892539D01*
X90361730Y-84084320D01*
X90370722Y-84138440D01*
X90429880Y-84367054D01*
X90515472Y-84572844D01*
X90627166Y-84755337D01*
X90764627Y-84914061D01*
X90927521Y-85048546D01*
X91080171Y-85140577D01*
X91164660Y-85181793D01*
X91246253Y-85214946D01*
X91335538Y-85243616D01*
X91443108Y-85271380D01*
X91517622Y-85288384D01*
X91563313Y-85298142D01*
X91606147Y-85306102D01*
X91650171Y-85312425D01*
X91699437Y-85317273D01*
X91757991Y-85320808D01*
X91829884Y-85323191D01*
X91919164Y-85324584D01*
X92029880Y-85325147D01*
X92166082Y-85325043D01*
X92331818Y-85324434D01*
X92412044Y-85324062D01*
X92631431Y-85322795D01*
X92826346Y-85320976D01*
X93001317Y-85318231D01*
X93160873Y-85314186D01*
X93309543Y-85308466D01*
X93451856Y-85300697D01*
X93592341Y-85290503D01*
X93735525Y-85277511D01*
X93885939Y-85261346D01*
X94048111Y-85241634D01*
X94226570Y-85217999D01*
X94425844Y-85190069D01*
X94650462Y-85157467D01*
X94904954Y-85119821D01*
X94933603Y-85115558D01*
X95099556Y-85091042D01*
X95271221Y-85066010D01*
X95441366Y-85041495D01*
X95602758Y-85018529D01*
X95748164Y-84998143D01*
X95870350Y-84981370D01*
X95930893Y-84973287D01*
X96055953Y-84955458D01*
X96185080Y-84934617D01*
X96308155Y-84912563D01*
X96415057Y-84891098D01*
X96486904Y-84874337D01*
X96587708Y-84848331D01*
X96706958Y-84817717D01*
X96828873Y-84786538D01*
X96925836Y-84761845D01*
X97031438Y-84732646D01*
X97128978Y-84701291D01*
X97209103Y-84670985D01*
X97256052Y-84648714D01*
X97304574Y-84619394D01*
X97366331Y-84579368D01*
X97434006Y-84533724D01*
X97500282Y-84487549D01*
X97557842Y-84445929D01*
X97599367Y-84413952D01*
X97616708Y-84397998D01*
X97634894Y-84380710D01*
X97670686Y-84350557D01*
X97691008Y-84334180D01*
X97787696Y-84242361D01*
X97885555Y-84119295D01*
X97985403Y-83963800D01*
X98088056Y-83774693D01*
X98114636Y-83721242D01*
X98180398Y-83582218D01*
X98229927Y-83465920D01*
X98265816Y-83365211D01*
X98290659Y-83272952D01*
X98304691Y-83198051D01*
X98314006Y-83114717D01*
X98320497Y-83010923D01*
X98324010Y-82897353D01*
X98324392Y-82784693D01*
X98321487Y-82683625D01*
X98315141Y-82604834D01*
X98313431Y-82592595D01*
X98281546Y-82480976D01*
X98221202Y-82359866D01*
X98136465Y-82233501D01*
X98031403Y-82106115D01*
X97910080Y-81981945D01*
X97776562Y-81865225D01*
X97634917Y-81760191D01*
X97489209Y-81671078D01*
X97375152Y-81615260D01*
X97254482Y-81566317D01*
X97129896Y-81522640D01*
X96997582Y-81483469D01*
X96853729Y-81448046D01*
X96694526Y-81415611D01*
X96516163Y-81385404D01*
X96314828Y-81356665D01*
X96086710Y-81328634D01*
X95827999Y-81300553D01*
X95763207Y-81293951D01*
X95633028Y-81280450D01*
X95479618Y-81263932D01*
X95314779Y-81245707D01*
X95150318Y-81227082D01*
X94998038Y-81209366D01*
X94968906Y-81205906D01*
X94832989Y-81189919D01*
X94693889Y-81173945D01*
X94560237Y-81158948D01*
X94440666Y-81145891D01*
X94343807Y-81135739D01*
X94311400Y-81132517D01*
X94086348Y-81110690D01*
X94086348Y-81052206D01*
X94088376Y-81014383D01*
X94101345Y-80999803D01*
X94135581Y-81000812D01*
X94152540Y-81003152D01*
X94200489Y-81009425D01*
X94281012Y-81019269D01*
X94391593Y-81032393D01*
X94529716Y-81048509D01*
X94692865Y-81067328D01*
X94878524Y-81088559D01*
X95084176Y-81111914D01*
X95307305Y-81137103D01*
X95545395Y-81163836D01*
X95689965Y-81180003D01*
X95850339Y-81198004D01*
X96004458Y-81215478D01*
X96147715Y-81231889D01*
X96275498Y-81246702D01*
X96383199Y-81259382D01*
X96466209Y-81269394D01*
X96519918Y-81276201D01*
X96528394Y-81277364D01*
X96682162Y-81302237D01*
X96840996Y-81333539D01*
X96995156Y-81369008D01*
X97134907Y-81406381D01*
X97250510Y-81443395D01*
X97263555Y-81448173D01*
X97346376Y-81481116D01*
X97430945Y-81518194D01*
X97509763Y-81555739D01*
X97575331Y-81590083D01*
X97620151Y-81617557D01*
X97634229Y-81629529D01*
X97653125Y-81645424D01*
X97689826Y-81672501D01*
X97704833Y-81683066D01*
X97787207Y-81745855D01*
X97882576Y-81827275D01*
X97982562Y-81919358D01*
X98078786Y-82014139D01*
X98162871Y-82103650D01*
X98224043Y-82176766D01*
X98299842Y-82282629D01*
X98355337Y-82378405D01*
X98393326Y-82473073D01*
X98416606Y-82575613D01*
X98427975Y-82695008D01*
X98430244Y-82838684D01*
X98424886Y-83025277D01*
X98412272Y-83187016D01*
X98392760Y-83320849D01*
X98366707Y-83423720D01*
X98359262Y-83444121D01*
X98297776Y-83589350D01*
X98228086Y-83736050D01*
X98153077Y-83879452D01*
X98075636Y-84014787D01*
X97998649Y-84137286D01*
X97925002Y-84242180D01*
X97857582Y-84324699D01*
X97799275Y-84380075D01*
X97787939Y-84388153D01*
X97747103Y-84419270D01*
X97704833Y-84456965D01*
X97659922Y-84496221D01*
X97606984Y-84536637D01*
X97598926Y-84542243D01*
X97558572Y-84570807D01*
X97532128Y-84591365D01*
X97528322Y-84595037D01*
X97504324Y-84614910D01*
X97458675Y-84646358D01*
X97400471Y-84683614D01*
X97338813Y-84720914D01*
X97282798Y-84752491D01*
X97266184Y-84761138D01*
X97225345Y-84780571D01*
X97180975Y-84798779D01*
X97128114Y-84817258D01*
X97061802Y-84837503D01*
X96977080Y-84861009D01*
X96868987Y-84889273D01*
X96732565Y-84923791D01*
X96698718Y-84932257D01*
X96600284Y-84956820D01*
X96517707Y-84977127D01*
X96445820Y-84994097D01*
X96379452Y-85008648D01*
X96313435Y-85021700D01*
X96242599Y-85034171D01*
X96161776Y-85046980D01*
X96065795Y-85061046D01*
X95949489Y-85077287D01*
X95807688Y-85096622D01*
X95666126Y-85115786D01*
X95500538Y-85138341D01*
X95323005Y-85162777D01*
X95142661Y-85187818D01*
X94968642Y-85212190D01*
X94810080Y-85234619D01*
X94676111Y-85253830D01*
X94660010Y-85256165D01*
X94324257Y-85303651D01*
X94022535Y-85343597D01*
X93754399Y-85376057D01*
X93519403Y-85401084D01*
X93317103Y-85418729D01*
X93230268Y-85424667D01*
X93154312Y-85428191D01*
X93052545Y-85431264D01*
X92930209Y-85433864D01*
X92792548Y-85435972D01*
X92644803Y-85437566D01*
X92492219Y-85438625D01*
X92340037Y-85439130D01*
X92193500Y-85439058D01*
X92057852Y-85438391D01*
X91938335Y-85437106D01*
X91840192Y-85435184D01*
X91768666Y-85432603D01*
X91738746Y-85430545D01*
X91506483Y-85396402D01*
X91291571Y-85341713D01*
X91098886Y-85267976D01*
X90953270Y-85189584D01*
X90803830Y-85087438D01*
X90679136Y-84982950D01*
X90574600Y-84870059D01*
X90485632Y-84742704D01*
X90407645Y-84594825D01*
X90336050Y-84420361D01*
X90305518Y-84333989D01*
X90283898Y-84269102D01*
X90268443Y-84216311D01*
X90258150Y-84167483D01*
X90252016Y-84114484D01*
X90249037Y-84049180D01*
X90248211Y-83963436D01*
X90248439Y-83871276D01*
X90251435Y-83713436D01*
X90260024Y-83572570D01*
X90275721Y-83440568D01*
X90300042Y-83309320D01*
X90334502Y-83170717D01*
X90380617Y-83016648D01*
X90439903Y-82839005D01*
X90443067Y-82829859D01*
X90479250Y-82732789D01*
X90516336Y-82652927D01*
X90561700Y-82576516D01*
X90622719Y-82489797D01*
X90632345Y-82476836D01*
X90682021Y-82410601D01*
X90724119Y-82355146D01*
X90754115Y-82316386D01*
X90767377Y-82300324D01*
X90803319Y-82261865D01*
X90838322Y-82214313D01*
X90864453Y-82169553D01*
X90873840Y-82140854D01*
X90857436Y-82109445D01*
X90810692Y-82072252D01*
X90789997Y-82059751D01*
X90711386Y-82010278D01*
X90628146Y-81948049D01*
X90533040Y-81867444D01*
X90476689Y-81816583D01*
X90431150Y-81775984D01*
X90396310Y-81747092D01*
X90379652Y-81736108D01*
X90379607Y-81736110D01*
X90365168Y-81749342D01*
X90336821Y-81783139D01*
X90309003Y-81819204D01*
X90226000Y-81918248D01*
X90146708Y-81989371D01*
X90092776Y-82021921D01*
X90058665Y-82040203D01*
X90044511Y-82053054D01*
X90044511Y-82053104D01*
X90055377Y-82070083D01*
X90083295Y-82105067D01*
X90114389Y-82141464D01*
X90161155Y-82201684D01*
X90204115Y-82268988D01*
X90238997Y-82335096D01*
X90261527Y-82391724D01*
X90267434Y-82430589D01*
X90266171Y-82435696D01*
X90252704Y-82449989D01*
X90221611Y-82456666D01*
X90165590Y-82456844D01*
X90136902Y-82455476D01*
X90066471Y-82449916D01*
X89974768Y-82440277D01*
X89869172Y-82427589D01*
X89757063Y-82412879D01*
X89645819Y-82397176D01*
X89542818Y-82381508D01*
X89455440Y-82366903D01*
X89391063Y-82354390D01*
X89365353Y-82347957D01*
X89318578Y-82329537D01*
X89294188Y-82302905D01*
X89280006Y-82256196D01*
X89278692Y-82243725D01*
X89373492Y-82243725D01*
X89527940Y-82265257D01*
X89620932Y-82279138D01*
X89728379Y-82296548D01*
X89830099Y-82314191D01*
X89850073Y-82317845D01*
X89965860Y-82337718D01*
X90049647Y-82348358D01*
X90103472Y-82349890D01*
X90129374Y-82342441D01*
X90132491Y-82335433D01*
X90120959Y-82316098D01*
X90089738Y-82277580D01*
X90043897Y-82225867D01*
X90000108Y-82179024D01*
X89946039Y-82120109D01*
X89902634Y-82068391D01*
X89875015Y-82030258D01*
X89867724Y-82013981D01*
X89883774Y-81992330D01*
X89927604Y-81966362D01*
X89966961Y-81949527D01*
X90092615Y-81885853D01*
X90192239Y-81801804D01*
X90249078Y-81725090D01*
X90294594Y-81647424D01*
X90256986Y-81569737D01*
X90223456Y-81510482D01*
X90184906Y-81455898D01*
X90172912Y-81441912D01*
X90126446Y-81391774D01*
X90110189Y-81440545D01*
X90079152Y-81486411D01*
X90026832Y-81523548D01*
X89981643Y-81552409D01*
X89923114Y-81597637D01*
X89862585Y-81650357D01*
X89851949Y-81660342D01*
X89798997Y-81712011D01*
X89766987Y-81748985D01*
X89750680Y-81780251D01*
X89744836Y-81814794D01*
X89744166Y-81845236D01*
X89740803Y-81896272D01*
X89732286Y-81931021D01*
X89727120Y-81938102D01*
X89703920Y-81936262D01*
X89662428Y-81922003D01*
X89614812Y-81900748D01*
X89573239Y-81877923D01*
X89550004Y-81859137D01*
X89527154Y-81840420D01*
X89488898Y-81819514D01*
X89448383Y-81802397D01*
X89418759Y-81795047D01*
X89412419Y-81796584D01*
X89404389Y-81820170D01*
X89395759Y-81870274D01*
X89387486Y-81938148D01*
X89380527Y-82015041D01*
X89375839Y-82092205D01*
X89374398Y-82144054D01*
X89373492Y-82243725D01*
X89278692Y-82243725D01*
X89275448Y-82212943D01*
X89273472Y-82143668D01*
X89273800Y-82057540D01*
X89276151Y-81963722D01*
X89280249Y-81871381D01*
X89285813Y-81789684D01*
X89292566Y-81727794D01*
X89296757Y-81705231D01*
X89314951Y-81670255D01*
X89349288Y-81657494D01*
X89403523Y-81666864D01*
X89481409Y-81698282D01*
X89487186Y-81700994D01*
X89603947Y-81756161D01*
X89714512Y-81653156D01*
X89767107Y-81603483D01*
X89796484Y-81572651D01*
X89805565Y-81555775D01*
X89797271Y-81547970D01*
X89779281Y-81544879D01*
X89742478Y-81545273D01*
X89680992Y-81550639D01*
X89604931Y-81559975D01*
X89557901Y-81566848D01*
X89378980Y-81593268D01*
X89232571Y-81611883D01*
X89116793Y-81622857D01*
X89029767Y-81626357D01*
X88969614Y-81622548D01*
X88955572Y-81619772D01*
X88914692Y-81607528D01*
X88894070Y-81589825D01*
X88885566Y-81555396D01*
X88882692Y-81518933D01*
X88887202Y-81436034D01*
X88907829Y-81330051D01*
X88941941Y-81207811D01*
X88986904Y-81076141D01*
X89040085Y-80941869D01*
X89098853Y-80811821D01*
X89160573Y-80692824D01*
X89222613Y-80591706D01*
X89259615Y-80541565D01*
X89304415Y-80486142D01*
X89131553Y-80360257D01*
X89053646Y-80303401D01*
X88995727Y-80260551D01*
X88949205Y-80224984D01*
X88905487Y-80189981D01*
X88855984Y-80148821D01*
X88792104Y-80094784D01*
X88791098Y-80093931D01*
X88690786Y-80003699D01*
X88605333Y-79916622D01*
X88537627Y-79836377D01*
X88490556Y-79766644D01*
X88467007Y-79711102D01*
X88466790Y-79692459D01*
X88573015Y-79692459D01*
X88581994Y-79729309D01*
X88617256Y-79781549D01*
X88673335Y-79847301D01*
X88742991Y-79918650D01*
X88816086Y-79985214D01*
X88869714Y-80030922D01*
X88914542Y-80068536D01*
X88956059Y-80102264D01*
X88999752Y-80136312D01*
X89051111Y-80174888D01*
X89115624Y-80222199D01*
X89198780Y-80282451D01*
X89285236Y-80344833D01*
X89349982Y-80393533D01*
X89422318Y-80451172D01*
X89496368Y-80512678D01*
X89566256Y-80572976D01*
X89626104Y-80626993D01*
X89670037Y-80669655D01*
X89692177Y-80695890D01*
X89692475Y-80696428D01*
X89701366Y-80737915D01*
X89679582Y-80766332D01*
X89630152Y-80779102D01*
X89595658Y-80778787D01*
X89549727Y-80773296D01*
X89528962Y-80760026D01*
X89523242Y-80730169D01*
X89522935Y-80715516D01*
X89513601Y-80667411D01*
X89481851Y-80624166D01*
X89461156Y-80605237D01*
X89421955Y-80573857D01*
X89393818Y-80555173D01*
X89387578Y-80552902D01*
X89367436Y-80568019D01*
X89335837Y-80609911D01*
X89296022Y-80673254D01*
X89251230Y-80752723D01*
X89204700Y-80842996D01*
X89180609Y-80893046D01*
X89107452Y-81058699D01*
X89050466Y-81208705D01*
X89011228Y-81338540D01*
X88992831Y-81431005D01*
X88980619Y-81523674D01*
X89069014Y-81523674D01*
X89123272Y-81520560D01*
X89200730Y-81512140D01*
X89289926Y-81499802D01*
X89358119Y-81488725D01*
X89455298Y-81472979D01*
X89555885Y-81458629D01*
X89645519Y-81447640D01*
X89691213Y-81443219D01*
X89764212Y-81435334D01*
X89830227Y-81424648D01*
X89875394Y-81413423D01*
X89876550Y-81413003D01*
X89932520Y-81387375D01*
X89989635Y-81353678D01*
X90037544Y-81318830D01*
X90065900Y-81289753D01*
X90068567Y-81284608D01*
X90065690Y-81258637D01*
X90050128Y-81209607D01*
X90024808Y-81146119D01*
X90010484Y-81113978D01*
X89955579Y-80984576D01*
X89911675Y-80856022D01*
X89877257Y-80721201D01*
X89850810Y-80572997D01*
X89830821Y-80404296D01*
X89815775Y-80207982D01*
X89815017Y-80195523D01*
X89808092Y-80094531D01*
X89800290Y-80004309D01*
X89792309Y-79931441D01*
X89784843Y-79882507D01*
X89780172Y-79865781D01*
X89749496Y-79837489D01*
X89689279Y-79806110D01*
X89605004Y-79772979D01*
X89502155Y-79739431D01*
X89386215Y-79706799D01*
X89262668Y-79676419D01*
X89136998Y-79649623D01*
X89014687Y-79627746D01*
X88901220Y-79612123D01*
X88802079Y-79604087D01*
X88722749Y-79604973D01*
X88712494Y-79606004D01*
X88638677Y-79623270D01*
X88591145Y-79653070D01*
X88573015Y-79692459D01*
X88466790Y-79692459D01*
X88466651Y-79680535D01*
X88508346Y-79603252D01*
X88575800Y-79543233D01*
X88661681Y-79505447D01*
X88741186Y-79494532D01*
X88845297Y-79499116D01*
X88971240Y-79513359D01*
X89111162Y-79535563D01*
X89257208Y-79564029D01*
X89401525Y-79597059D01*
X89536259Y-79632955D01*
X89653557Y-79670019D01*
X89745563Y-79706551D01*
X89764496Y-79715817D01*
X89806776Y-79734961D01*
X89832579Y-79734381D01*
X89849185Y-79709197D01*
X89863875Y-79654528D01*
X89865297Y-79648240D01*
X89914638Y-79498815D01*
X89996269Y-79347483D01*
X90111109Y-79192745D01*
X90214980Y-79078273D01*
X90364765Y-78932820D01*
X90512229Y-78808602D01*
X90667599Y-78698105D01*
X90841104Y-78593816D01*
X90963893Y-78528143D01*
X91137882Y-78442057D01*
X91291314Y-78374587D01*
X91431927Y-78323238D01*
X91567458Y-78285515D01*
X91705644Y-78258923D01*
X91854222Y-78240967D01*
X91854441Y-78240947D01*
X91986860Y-78232526D01*
X92106893Y-78234415D01*
X92224938Y-78247922D01*
X92351395Y-78274354D01*
X92496662Y-78315018D01*
X92533047Y-78326277D01*
X92753687Y-78395486D01*
X92801525Y-78361449D01*
X92850900Y-78318944D01*
X92888532Y-78272933D01*
X92909213Y-78231453D01*
X92907736Y-78202542D01*
X92905892Y-78200368D01*
X92891702Y-78169497D01*
X92886572Y-78128401D01*
X92995036Y-78128401D01*
X92998063Y-78151084D01*
X93000007Y-78152305D01*
X93017566Y-78141120D01*
X93052919Y-78111791D01*
X93098430Y-78070655D01*
X93098640Y-78070459D01*
X93152858Y-78016659D01*
X93181018Y-77981376D01*
X93182500Y-77965659D01*
X93157882Y-77970094D01*
X93125108Y-77969665D01*
X93105538Y-77942024D01*
X93099513Y-77892834D01*
X93107375Y-77827759D01*
X93118564Y-77789621D01*
X93349062Y-77789621D01*
X93349355Y-77834467D01*
X93355331Y-77851778D01*
X93355704Y-77851798D01*
X93377464Y-77841826D01*
X93417544Y-77816463D01*
X93455320Y-77789847D01*
X93507371Y-77747559D01*
X93535787Y-77715433D01*
X93538165Y-77696757D01*
X93525757Y-77693375D01*
X93506926Y-77680170D01*
X93491108Y-77659358D01*
X93480834Y-77632051D01*
X93480383Y-77592372D01*
X93490008Y-77531140D01*
X93495381Y-77504910D01*
X93509082Y-77425624D01*
X93518466Y-77343432D01*
X93521205Y-77289431D01*
X93521512Y-77194382D01*
X93482173Y-77245303D01*
X93449235Y-77286382D01*
X93421983Y-77317867D01*
X93420278Y-77319665D01*
X93384473Y-77369469D01*
X93367542Y-77430238D01*
X93365519Y-77503136D01*
X93365230Y-77570757D01*
X93360897Y-77653860D01*
X93354518Y-77724265D01*
X93349062Y-77789621D01*
X93118564Y-77789621D01*
X93129466Y-77752463D01*
X93142760Y-77719854D01*
X93165023Y-77666241D01*
X93178626Y-77626948D01*
X93180757Y-77611504D01*
X93163873Y-77616428D01*
X93131952Y-77637641D01*
X93128400Y-77640398D01*
X93088841Y-77689596D01*
X93055025Y-77767321D01*
X93029432Y-77866949D01*
X93019392Y-77931666D01*
X93010708Y-77999955D01*
X93001649Y-78066383D01*
X92998779Y-78086113D01*
X92995036Y-78128401D01*
X92886572Y-78128401D01*
X92886361Y-78126711D01*
X92890750Y-78068205D01*
X92902054Y-77989654D01*
X92918205Y-77901103D01*
X92937136Y-77812603D01*
X92956779Y-77734202D01*
X92975068Y-77675947D01*
X92982769Y-77658073D01*
X93004927Y-77626929D01*
X93048115Y-77576148D01*
X93107912Y-77510557D01*
X93179898Y-77434984D01*
X93259653Y-77354258D01*
X93273682Y-77340352D01*
X93402005Y-77216103D01*
X93524809Y-77102057D01*
X93639556Y-77000243D01*
X93743708Y-76912691D01*
X93834724Y-76841429D01*
X93910067Y-76788487D01*
X93967197Y-76755896D01*
X94003575Y-76745683D01*
X94012996Y-76749402D01*
G37*
D12*
%TO.C,C2*%
X169310267Y-98046000D02*
X169017733Y-98046000D01*
X169310267Y-97026000D02*
X169017733Y-97026000D01*
%TO.C,JP1*%
X113371000Y-92980000D02*
X116171000Y-92980000D01*
X113371000Y-94980000D02*
X113371000Y-92980000D01*
X116171000Y-92980000D02*
X116171000Y-94980000D01*
X116171000Y-94980000D02*
X113371000Y-94980000D01*
%TO.C,JP3*%
X113408000Y-89708000D02*
X113408000Y-89108000D01*
X114108000Y-88408000D02*
X115508000Y-88408000D01*
X115508000Y-90408000D02*
X114108000Y-90408000D01*
X116208000Y-89108000D02*
X116208000Y-89708000D01*
X114108000Y-88408000D02*
G75*
G03*
X113408000Y-89108000I-1J-699999D01*
G01*
X113408000Y-89708000D02*
G75*
G03*
X114108000Y-90408000I699999J-1D01*
G01*
X116208000Y-89108000D02*
G75*
G03*
X115508000Y-88408000I-700000J0D01*
G01*
X115508000Y-90408000D02*
G75*
G03*
X116208000Y-89708000I0J700000D01*
G01*
%TO.C,J1*%
X81213000Y-89917000D02*
X81213000Y-90677000D01*
X81213000Y-90677000D02*
X87213000Y-90677000D01*
X81213000Y-92457000D02*
X81213000Y-93217000D01*
X81213000Y-93217000D02*
X87213000Y-93217000D01*
X81213000Y-94997000D02*
X81213000Y-95757000D01*
X81213000Y-95757000D02*
X87213000Y-95757000D01*
X81213000Y-97537000D02*
X81213000Y-98297000D01*
X81213000Y-98297000D02*
X87213000Y-98297000D01*
X81213000Y-100077000D02*
X81213000Y-100837000D01*
X81213000Y-100837000D02*
X87213000Y-100837000D01*
X81213000Y-102617000D02*
X81213000Y-103377000D01*
X81213000Y-103377000D02*
X87213000Y-103377000D01*
X87213000Y-88967000D02*
X89873000Y-88967000D01*
X87213000Y-89917000D02*
X81213000Y-89917000D01*
X87213000Y-89977000D02*
X81213000Y-89977000D01*
X87213000Y-90097000D02*
X81213000Y-90097000D01*
X87213000Y-90217000D02*
X81213000Y-90217000D01*
X87213000Y-90337000D02*
X81213000Y-90337000D01*
X87213000Y-90457000D02*
X81213000Y-90457000D01*
X87213000Y-90577000D02*
X81213000Y-90577000D01*
X87213000Y-92457000D02*
X81213000Y-92457000D01*
X87213000Y-94997000D02*
X81213000Y-94997000D01*
X87213000Y-97537000D02*
X81213000Y-97537000D01*
X87213000Y-100077000D02*
X81213000Y-100077000D01*
X87213000Y-102617000D02*
X81213000Y-102617000D01*
X87213000Y-104327000D02*
X87213000Y-88967000D01*
X89873000Y-88967000D02*
X89873000Y-104327000D01*
X89873000Y-91567000D02*
X87213000Y-91567000D01*
X89873000Y-94107000D02*
X87213000Y-94107000D01*
X89873000Y-96647000D02*
X87213000Y-96647000D01*
X89873000Y-99187000D02*
X87213000Y-99187000D01*
X89873000Y-101727000D02*
X87213000Y-101727000D01*
X89873000Y-104327000D02*
X87213000Y-104327000D01*
X90270071Y-89917000D02*
X89873000Y-89917000D01*
X90270071Y-90677000D02*
X89873000Y-90677000D01*
X90270071Y-92457000D02*
X89873000Y-92457000D01*
X90270071Y-93217000D02*
X89873000Y-93217000D01*
X90270071Y-94997000D02*
X89873000Y-94997000D01*
X90270071Y-95757000D02*
X89873000Y-95757000D01*
X90270071Y-97537000D02*
X89873000Y-97537000D01*
X90270071Y-98297000D02*
X89873000Y-98297000D01*
X90270071Y-100077000D02*
X89873000Y-100077000D01*
X90270071Y-100837000D02*
X89873000Y-100837000D01*
X90270071Y-102617000D02*
X89873000Y-102617000D01*
X90270071Y-103377000D02*
X89873000Y-103377000D01*
X92743000Y-89917000D02*
X92355929Y-89917000D01*
X92743000Y-90677000D02*
X92355929Y-90677000D01*
X92810071Y-92457000D02*
X92355929Y-92457000D01*
X92810071Y-93217000D02*
X92355929Y-93217000D01*
X92810071Y-94997000D02*
X92355929Y-94997000D01*
X92810071Y-95757000D02*
X92355929Y-95757000D01*
X92810071Y-97537000D02*
X92355929Y-97537000D01*
X92810071Y-98297000D02*
X92355929Y-98297000D01*
X92810071Y-100077000D02*
X92355929Y-100077000D01*
X92810071Y-100837000D02*
X92355929Y-100837000D01*
X92810071Y-102617000D02*
X92355929Y-102617000D01*
X92810071Y-103377000D02*
X92355929Y-103377000D01*
X95123000Y-89027000D02*
X93853000Y-89027000D01*
X95123000Y-90297000D02*
X95123000Y-89027000D01*
%TO.C,Q2*%
X175334000Y-93854000D02*
X177734000Y-93854000D01*
X175934000Y-97154000D02*
X177734000Y-97154000D01*
X177734000Y-93854000D02*
X177734000Y-94904000D01*
X177734000Y-97154000D02*
X177734000Y-96104000D01*
%TO.C,JP4*%
X113408000Y-80056000D02*
X113408000Y-79456000D01*
X114108000Y-78756000D02*
X115508000Y-78756000D01*
X115508000Y-80756000D02*
X114108000Y-80756000D01*
X116208000Y-79456000D02*
X116208000Y-80056000D01*
X114108000Y-78756000D02*
G75*
G03*
X113408000Y-79456000I-1J-699999D01*
G01*
X113408000Y-80056000D02*
G75*
G03*
X114108000Y-80756000I699999J-1D01*
G01*
X116208000Y-79456000D02*
G75*
G03*
X115508000Y-78756000I-700000J0D01*
G01*
X115508000Y-80756000D02*
G75*
G03*
X116208000Y-80056000I0J700000D01*
G01*
%TO.C,JP6*%
X179073000Y-90027000D02*
X176273000Y-90027000D01*
X179073000Y-88027000D02*
X179073000Y-90027000D01*
X176273000Y-90027000D02*
X176273000Y-88027000D01*
X176273000Y-88027000D02*
X179073000Y-88027000D01*
D13*
%TO.C,DS1*%
X100896000Y-75463600D02*
X185896000Y-75463600D01*
X100896000Y-77283600D02*
X100896000Y-75463600D01*
X100896000Y-80683600D02*
X100896000Y-100283600D01*
X100896000Y-105463600D02*
X100896000Y-103683600D01*
D14*
X105436000Y-105983600D02*
X105436000Y-105983600D01*
X105436000Y-106083600D02*
X105436000Y-106083600D01*
D13*
X185896000Y-75463600D02*
X185896000Y-77283600D01*
X185896000Y-79683600D02*
X185896000Y-101283600D01*
X185896000Y-103683600D02*
X185896000Y-105463600D01*
X185896000Y-105463600D02*
X100896000Y-105463600D01*
D14*
X105436000Y-106083600D02*
G75*
G03*
X105436000Y-105983600I0J50000D01*
G01*
X105436000Y-105983600D02*
G75*
G03*
X105436000Y-106083600I0J-50000D01*
G01*
D12*
%TO.C,JP5*%
X116350000Y-98252000D02*
X116350000Y-98852000D01*
X115650000Y-99552000D02*
X114250000Y-99552000D01*
X114250000Y-97552000D02*
X115650000Y-97552000D01*
X113550000Y-98852000D02*
X113550000Y-98252000D01*
X115650000Y-99552000D02*
G75*
G03*
X116350000Y-98852000I1J699999D01*
G01*
X116350000Y-98252000D02*
G75*
G03*
X115650000Y-97552000I-699999J1D01*
G01*
X113550000Y-98852000D02*
G75*
G03*
X114250000Y-99552000I700000J0D01*
G01*
X114250000Y-97552000D02*
G75*
G03*
X113550000Y-98252000I0J-700000D01*
G01*
%TO.C,R2*%
X168909276Y-93965500D02*
X169418724Y-93965500D01*
X168909276Y-95010500D02*
X169418724Y-95010500D01*
%TO.C,C1*%
X119588233Y-102106000D02*
X119880767Y-102106000D01*
X119588233Y-103126000D02*
X119880767Y-103126000D01*
%TO.C,R1*%
X114449776Y-102093500D02*
X114959224Y-102093500D01*
X114449776Y-103138500D02*
X114959224Y-103138500D01*
%TO.C,RV1*%
X145781000Y-104692000D02*
X147801000Y-104692000D01*
X145781000Y-104692000D02*
X145781000Y-103213000D01*
X146791000Y-104692000D02*
X146791000Y-103933000D01*
X147801000Y-104692000D02*
X147801000Y-103173000D01*
X146217000Y-103173000D02*
X147801000Y-103173000D01*
X143441000Y-103172000D02*
X145227000Y-103172000D01*
X143441000Y-103172000D02*
X143441000Y-96222000D01*
X146217000Y-103172000D02*
X148181000Y-103172000D01*
X148181000Y-103172000D02*
X148181000Y-96222000D01*
X143441000Y-96222000D02*
X145227000Y-96222000D01*
X146217000Y-96222000D02*
X148181000Y-96222000D01*
%TO.C,JP2*%
X116208000Y-85328000D02*
X113408000Y-85328000D01*
X116208000Y-83328000D02*
X116208000Y-85328000D01*
X113408000Y-85328000D02*
X113408000Y-83328000D01*
X113408000Y-83328000D02*
X116208000Y-83328000D01*
%TD*%
M02*
