%TF.GenerationSoftware,KiCad,Pcbnew,8.0.2*%
%TF.CreationDate,2024-12-11T20:23:40+09:00*%
%TF.ProjectId,Pmod_SC1602,506d6f64-5f53-4433-9136-30322e6b6963,rev?*%
%TF.SameCoordinates,Original*%
%TF.FileFunction,Soldermask,Bot*%
%TF.FilePolarity,Negative*%
%FSLAX46Y46*%
G04 Gerber Fmt 4.6, Leading zero omitted, Abs format (unit mm)*
G04 Created by KiCad (PCBNEW 8.0.2) date 2024-12-11 20:23:40*
%MOMM*%
%LPD*%
G01*
G04 APERTURE LIST*
%ADD10R,1.700000X1.700000*%
%ADD11O,1.700000X1.700000*%
%ADD12C,1.440000*%
%ADD13R,1.800000X1.800000*%
%ADD14C,1.800000*%
%ADD15C,4.050000*%
G04 APERTURE END LIST*
D10*
%TO.C,J2*%
X120777000Y-96393000D03*
D11*
X120777000Y-98933000D03*
%TD*%
D12*
%TO.C,RV2*%
X114681000Y-98313000D03*
X114681000Y-100853000D03*
X114681000Y-103393000D03*
%TD*%
D10*
%TO.C,J1*%
X93853000Y-90297000D03*
D11*
X93853000Y-92837000D03*
X93853000Y-95377000D03*
X93853000Y-97917000D03*
X93853000Y-100457000D03*
X93853000Y-102997000D03*
X91313000Y-90297000D03*
X91313000Y-92837000D03*
X91313000Y-95377000D03*
X91313000Y-97917000D03*
X91313000Y-100457000D03*
X91313000Y-102997000D03*
%TD*%
D10*
%TO.C,J3*%
X114554000Y-92837000D03*
D11*
X114554000Y-90297000D03*
X114554000Y-87757000D03*
%TD*%
D13*
%TO.C,DS1*%
X105436000Y-98083600D03*
D14*
X102896000Y-98083600D03*
X105436000Y-95543600D03*
X102896000Y-95543600D03*
X105436000Y-93003600D03*
X102896000Y-93003600D03*
X105436000Y-90463600D03*
X102896000Y-90463600D03*
X105436000Y-87923600D03*
X102896000Y-87923600D03*
X105436000Y-85383600D03*
X102896000Y-85383600D03*
X105436000Y-82843600D03*
X102896000Y-82843600D03*
X183896000Y-85383600D03*
X183896000Y-87923600D03*
X183896000Y-93003600D03*
X183896000Y-95543600D03*
D15*
X102896000Y-102463600D03*
X102896000Y-78463600D03*
X183896000Y-78463600D03*
X183896000Y-102463600D03*
%TD*%
M02*
