%TF.GenerationSoftware,KiCad,Pcbnew,7.0.9*%
%TF.CreationDate,2024-01-07T02:48:38+09:00*%
%TF.ProjectId,Pmod_SC1602,506d6f64-5f53-4433-9136-30322e6b6963,rev?*%
%TF.SameCoordinates,Original*%
%TF.FileFunction,Copper,L1,Top*%
%TF.FilePolarity,Positive*%
%FSLAX46Y46*%
G04 Gerber Fmt 4.6, Leading zero omitted, Abs format (unit mm)*
G04 Created by KiCad (PCBNEW 7.0.9) date 2024-01-07 02:48:38*
%MOMM*%
%LPD*%
G01*
G04 APERTURE LIST*
G04 Aperture macros list*
%AMRoundRect*
0 Rectangle with rounded corners*
0 $1 Rounding radius*
0 $2 $3 $4 $5 $6 $7 $8 $9 X,Y pos of 4 corners*
0 Add a 4 corners polygon primitive as box body*
4,1,4,$2,$3,$4,$5,$6,$7,$8,$9,$2,$3,0*
0 Add four circle primitives for the rounded corners*
1,1,$1+$1,$2,$3*
1,1,$1+$1,$4,$5*
1,1,$1+$1,$6,$7*
1,1,$1+$1,$8,$9*
0 Add four rect primitives between the rounded corners*
20,1,$1+$1,$2,$3,$4,$5,0*
20,1,$1+$1,$4,$5,$6,$7,0*
20,1,$1+$1,$6,$7,$8,$9,0*
20,1,$1+$1,$8,$9,$2,$3,0*%
%AMFreePoly0*
4,1,6,1.000000,0.000000,0.500000,-0.750000,-0.500000,-0.750000,-0.500000,0.750000,0.500000,0.750000,1.000000,0.000000,1.000000,0.000000,$1*%
%AMFreePoly1*
4,1,6,0.500000,-0.750000,-0.650000,-0.750000,-0.150000,0.000000,-0.650000,0.750000,0.500000,0.750000,0.500000,-0.750000,0.500000,-0.750000,$1*%
%AMFreePoly2*
4,1,19,0.500000,-0.750000,0.000000,-0.750000,0.000000,-0.744911,-0.071157,-0.744911,-0.207708,-0.704816,-0.327430,-0.627875,-0.420627,-0.520320,-0.479746,-0.390866,-0.500000,-0.250000,-0.500000,0.250000,-0.479746,0.390866,-0.420627,0.520320,-0.327430,0.627875,-0.207708,0.704816,-0.071157,0.744911,0.000000,0.744911,0.000000,0.750000,0.500000,0.750000,0.500000,-0.750000,0.500000,-0.750000,
$1*%
%AMFreePoly3*
4,1,19,0.000000,0.744911,0.071157,0.744911,0.207708,0.704816,0.327430,0.627875,0.420627,0.520320,0.479746,0.390866,0.500000,0.250000,0.500000,-0.250000,0.479746,-0.390866,0.420627,-0.520320,0.327430,-0.627875,0.207708,-0.704816,0.071157,-0.744911,0.000000,-0.744911,0.000000,-0.750000,-0.500000,-0.750000,-0.500000,0.750000,0.000000,0.750000,0.000000,0.744911,0.000000,0.744911,
$1*%
G04 Aperture macros list end*
%TA.AperFunction,SMDPad,CuDef*%
%ADD10RoundRect,0.237500X0.300000X0.237500X-0.300000X0.237500X-0.300000X-0.237500X0.300000X-0.237500X0*%
%TD*%
%TA.AperFunction,SMDPad,CuDef*%
%ADD11FreePoly0,0.000000*%
%TD*%
%TA.AperFunction,SMDPad,CuDef*%
%ADD12FreePoly1,0.000000*%
%TD*%
%TA.AperFunction,SMDPad,CuDef*%
%ADD13FreePoly2,0.000000*%
%TD*%
%TA.AperFunction,SMDPad,CuDef*%
%ADD14FreePoly3,0.000000*%
%TD*%
%TA.AperFunction,ComponentPad*%
%ADD15R,1.700000X1.700000*%
%TD*%
%TA.AperFunction,ComponentPad*%
%ADD16O,1.700000X1.700000*%
%TD*%
%TA.AperFunction,SMDPad,CuDef*%
%ADD17R,1.800000X0.800000*%
%TD*%
%TA.AperFunction,SMDPad,CuDef*%
%ADD18FreePoly0,180.000000*%
%TD*%
%TA.AperFunction,SMDPad,CuDef*%
%ADD19FreePoly1,180.000000*%
%TD*%
%TA.AperFunction,ComponentPad*%
%ADD20R,1.800000X1.800000*%
%TD*%
%TA.AperFunction,ComponentPad*%
%ADD21C,1.800000*%
%TD*%
%TA.AperFunction,ComponentPad*%
%ADD22C,4.050000*%
%TD*%
%TA.AperFunction,SMDPad,CuDef*%
%ADD23FreePoly2,180.000000*%
%TD*%
%TA.AperFunction,SMDPad,CuDef*%
%ADD24FreePoly3,180.000000*%
%TD*%
%TA.AperFunction,SMDPad,CuDef*%
%ADD25RoundRect,0.237500X-0.250000X-0.237500X0.250000X-0.237500X0.250000X0.237500X-0.250000X0.237500X0*%
%TD*%
%TA.AperFunction,SMDPad,CuDef*%
%ADD26RoundRect,0.237500X-0.300000X-0.237500X0.300000X-0.237500X0.300000X0.237500X-0.300000X0.237500X0*%
%TD*%
%TA.AperFunction,ComponentPad*%
%ADD27C,1.440000*%
%TD*%
%TA.AperFunction,ViaPad*%
%ADD28C,0.800000*%
%TD*%
%TA.AperFunction,Conductor*%
%ADD29C,0.250000*%
%TD*%
%TA.AperFunction,Conductor*%
%ADD30C,0.500000*%
%TD*%
G04 APERTURE END LIST*
%TA.AperFunction,EtchedComponent*%
%TO.C,JP3*%
G36*
X115058000Y-89708000D02*
G01*
X114558000Y-89708000D01*
X114558000Y-89108000D01*
X115058000Y-89108000D01*
X115058000Y-89708000D01*
G37*
%TD.AperFunction*%
%TA.AperFunction,EtchedComponent*%
%TO.C,JP4*%
G36*
X115058000Y-80056000D02*
G01*
X114558000Y-80056000D01*
X114558000Y-79456000D01*
X115058000Y-79456000D01*
X115058000Y-80056000D01*
G37*
%TD.AperFunction*%
%TA.AperFunction,EtchedComponent*%
%TO.C,JP5*%
G36*
X115200000Y-98852000D02*
G01*
X114700000Y-98852000D01*
X114700000Y-98252000D01*
X115200000Y-98252000D01*
X115200000Y-98852000D01*
G37*
%TD.AperFunction*%
%TD*%
D10*
%TO.P,C2,1*%
%TO.N,Net-(Q2-B)*%
X170026500Y-97536000D03*
%TO.P,C2,2*%
%TO.N,GND*%
X168301500Y-97536000D03*
%TD*%
D11*
%TO.P,JP1,1,A*%
%TO.N,Net-(DS1-VO)*%
X114046000Y-93980000D03*
D12*
%TO.P,JP1,2,B*%
%TO.N,Net-(JP1-B)*%
X115496000Y-93980000D03*
%TD*%
D13*
%TO.P,JP3,1,A*%
%TO.N,Net-(DS1-E)*%
X114158000Y-89408000D03*
D14*
%TO.P,JP3,2,B*%
%TO.N,GND*%
X115458000Y-89408000D03*
%TD*%
D15*
%TO.P,J1,1,Pin_1*%
%TO.N,/D0*%
X93853000Y-90297000D03*
D16*
%TO.P,J1,2,Pin_2*%
%TO.N,/D2*%
X93853000Y-92837000D03*
%TO.P,J1,3,Pin_3*%
%TO.N,/RS*%
X93853000Y-95377000D03*
%TO.P,J1,4,Pin_4*%
%TO.N,/R{slash}W*%
X93853000Y-97917000D03*
%TO.P,J1,5,Pin_5*%
%TO.N,GND*%
X93853000Y-100457000D03*
%TO.P,J1,6,Pin_6*%
%TO.N,VCC*%
X93853000Y-102997000D03*
%TO.P,J1,7,Pin_7*%
%TO.N,/D1*%
X91313000Y-90297000D03*
%TO.P,J1,8,Pin_8*%
%TO.N,/D3*%
X91313000Y-92837000D03*
%TO.P,J1,9,Pin_9*%
%TO.N,/Contrast*%
X91313000Y-95377000D03*
%TO.P,J1,10,Pin_10*%
%TO.N,/BackLight*%
X91313000Y-97917000D03*
%TO.P,J1,11,Pin_11*%
%TO.N,GND*%
X91313000Y-100457000D03*
%TO.P,J1,12,Pin_12*%
%TO.N,VCC*%
X91313000Y-102997000D03*
%TD*%
D17*
%TO.P,Q2,1,B*%
%TO.N,Net-(Q2-B)*%
X175134000Y-94554000D03*
%TO.P,Q2,2,E*%
%TO.N,GND*%
X175134000Y-96454000D03*
%TO.P,Q2,3,C*%
%TO.N,Net-(Q2-C)*%
X178434000Y-95504000D03*
%TD*%
D13*
%TO.P,JP4,1,A*%
%TO.N,/BackLight*%
X114158000Y-79756000D03*
D14*
%TO.P,JP4,2,B*%
%TO.N,Net-(JP4-B)*%
X115458000Y-79756000D03*
%TD*%
D18*
%TO.P,JP6,1,A*%
%TO.N,Net-(Q2-C)*%
X178398000Y-89027000D03*
D19*
%TO.P,JP6,2,B*%
%TO.N,GND*%
X176948000Y-89027000D03*
%TD*%
D20*
%TO.P,DS1,1,VDD*%
%TO.N,VCC*%
X105436000Y-98083600D03*
D21*
%TO.P,DS1,2,VSS*%
%TO.N,GND*%
X102896000Y-98083600D03*
%TO.P,DS1,3,VO*%
%TO.N,Net-(DS1-VO)*%
X105436000Y-95543600D03*
%TO.P,DS1,4,RS*%
%TO.N,/RS*%
X102896000Y-95543600D03*
%TO.P,DS1,5,R/W*%
%TO.N,/R{slash}W*%
X105436000Y-93003600D03*
%TO.P,DS1,6,E*%
%TO.N,Net-(DS1-E)*%
X102896000Y-93003600D03*
%TO.P,DS1,7,DB0*%
%TO.N,unconnected-(DS1-DB0-Pad7)*%
X105436000Y-90463600D03*
%TO.P,DS1,8,DB1*%
%TO.N,unconnected-(DS1-DB1-Pad8)*%
X102896000Y-90463600D03*
%TO.P,DS1,9,DB2*%
%TO.N,unconnected-(DS1-DB2-Pad9)*%
X105436000Y-87923600D03*
%TO.P,DS1,10,DB3*%
%TO.N,unconnected-(DS1-DB3-Pad10)*%
X102896000Y-87923600D03*
%TO.P,DS1,11,DB4*%
%TO.N,/D0*%
X105436000Y-85383600D03*
%TO.P,DS1,12,DB5*%
%TO.N,/D3*%
X102896000Y-85383600D03*
%TO.P,DS1,13,DB6*%
%TO.N,/D2*%
X105436000Y-82843600D03*
%TO.P,DS1,14,DB7*%
%TO.N,/D1*%
X102896000Y-82843600D03*
%TO.P,DS1,A1,A1*%
%TO.N,VCC*%
X183896000Y-85383600D03*
%TO.P,DS1,A2,A2*%
X183896000Y-87923600D03*
%TO.P,DS1,K1,K1*%
%TO.N,Net-(Q2-C)*%
X183896000Y-93003600D03*
%TO.P,DS1,K2,K2*%
X183896000Y-95543600D03*
D22*
%TO.P,DS1,MH1*%
%TO.N,N/C*%
X102896000Y-102463600D03*
%TO.P,DS1,MH2*%
X102896000Y-78463600D03*
%TO.P,DS1,MH3*%
X183896000Y-78463600D03*
%TO.P,DS1,MH4*%
X183896000Y-102463600D03*
%TD*%
D23*
%TO.P,JP5,1,A*%
%TO.N,Net-(JP5-A)*%
X115600000Y-98552000D03*
D24*
%TO.P,JP5,2,B*%
%TO.N,Net-(DS1-VO)*%
X114300000Y-98552000D03*
%TD*%
D25*
%TO.P,R2,1*%
%TO.N,Net-(JP4-B)*%
X168251500Y-94488000D03*
%TO.P,R2,2*%
%TO.N,Net-(Q2-B)*%
X170076500Y-94488000D03*
%TD*%
D26*
%TO.P,C1,1*%
%TO.N,Net-(JP5-A)*%
X118872000Y-102616000D03*
%TO.P,C1,2*%
%TO.N,GND*%
X120597000Y-102616000D03*
%TD*%
D15*
%TO.P,REF\u002A\u002A,1*%
%TO.N,Net-(JP1-B)*%
X152019000Y-99695000D03*
%TD*%
D25*
%TO.P,R1,1*%
%TO.N,/Contrast*%
X113792000Y-102616000D03*
%TO.P,R1,2*%
%TO.N,Net-(JP5-A)*%
X115617000Y-102616000D03*
%TD*%
D27*
%TO.P,RV1,1,1*%
%TO.N,GND*%
X145721000Y-97157000D03*
%TO.P,RV1,2,2*%
%TO.N,Net-(JP1-B)*%
X145721000Y-99697000D03*
%TO.P,RV1,3,3*%
%TO.N,VCC*%
X145721000Y-102237000D03*
%TD*%
D18*
%TO.P,JP2,1,A*%
%TO.N,Net-(DS1-E)*%
X115533000Y-84328000D03*
D19*
%TO.P,JP2,2,B*%
%TO.N,/BackLight*%
X114083000Y-84328000D03*
%TD*%
D28*
%TO.N,GND*%
X96774000Y-76454000D03*
X175387000Y-76454000D03*
X156845000Y-76454000D03*
X127254000Y-76454000D03*
X120523000Y-100203000D03*
X120523000Y-96012000D03*
X164592000Y-97790000D03*
X156845000Y-97790000D03*
X175387000Y-104521000D03*
X156845000Y-104394000D03*
X127254000Y-104521000D03*
%TD*%
D29*
%TO.N,/BackLight*%
X88773000Y-87503000D02*
X94996000Y-81280000D01*
X113956000Y-81280000D02*
X114083000Y-81153000D01*
X88773000Y-97028000D02*
X88773000Y-87503000D01*
X94996000Y-81280000D02*
X113956000Y-81280000D01*
X89662000Y-97917000D02*
X88773000Y-97028000D01*
X91313000Y-97917000D02*
X89662000Y-97917000D01*
%TO.N,/D0*%
X104205600Y-86614000D02*
X105436000Y-85383600D01*
X99441000Y-86614000D02*
X104205600Y-86614000D01*
X95758000Y-90297000D02*
X99441000Y-86614000D01*
X93853000Y-90297000D02*
X95758000Y-90297000D01*
%TO.N,Net-(JP5-A)*%
X115617000Y-102616000D02*
X115617000Y-98569000D01*
X115617000Y-102616000D02*
X118872000Y-102616000D01*
X115617000Y-98569000D02*
X115600000Y-98552000D01*
%TO.N,Net-(Q2-B)*%
X170076500Y-94488000D02*
X170142500Y-94554000D01*
X170026500Y-94538000D02*
X170076500Y-94488000D01*
X170142500Y-94554000D02*
X175134000Y-94554000D01*
X170026500Y-97536000D02*
X170026500Y-94538000D01*
%TO.N,Net-(DS1-VO)*%
X108164400Y-95543600D02*
X109728000Y-93980000D01*
X114300000Y-94234000D02*
X114046000Y-93980000D01*
X109728000Y-93980000D02*
X114046000Y-93980000D01*
X105436000Y-95543600D02*
X108164400Y-95543600D01*
X114300000Y-98552000D02*
X114300000Y-94234000D01*
%TO.N,/RS*%
X102729400Y-95377000D02*
X102896000Y-95543600D01*
X93853000Y-95377000D02*
X102729400Y-95377000D01*
%TO.N,Net-(DS1-E)*%
X114158000Y-89408000D02*
X114158000Y-87899000D01*
X115533000Y-86524000D02*
X115533000Y-84328000D01*
X114158000Y-87899000D02*
X115533000Y-86524000D01*
X107188000Y-91694000D02*
X109474000Y-89408000D01*
X102896000Y-93003600D02*
X104205600Y-91694000D01*
X109474000Y-89408000D02*
X114158000Y-89408000D01*
X104205600Y-91694000D02*
X107188000Y-91694000D01*
%TO.N,/D1*%
X91313000Y-90297000D02*
X91313000Y-88265000D01*
X96734400Y-82843600D02*
X102896000Y-82843600D01*
X91313000Y-88265000D02*
X96734400Y-82843600D01*
D30*
%TO.N,Net-(Q2-C)*%
X182374600Y-93003600D02*
X178398000Y-89027000D01*
X183896000Y-95543600D02*
X183896000Y-93003600D01*
D29*
X183856400Y-95504000D02*
X183896000Y-95543600D01*
D30*
X178434000Y-95504000D02*
X183856400Y-95504000D01*
X183896000Y-93003600D02*
X182374600Y-93003600D01*
D29*
%TO.N,Net-(JP1-B)*%
X145721000Y-99697000D02*
X151890000Y-99697000D01*
X151890000Y-99697000D02*
X152019000Y-99568000D01*
X123952000Y-93980000D02*
X115496000Y-93980000D01*
X129692400Y-99720400D02*
X123952000Y-93980000D01*
X132791200Y-99720400D02*
X129692400Y-99720400D01*
X132814600Y-99697000D02*
X145721000Y-99697000D01*
X132791200Y-99720400D02*
X132814600Y-99697000D01*
%TO.N,/BackLight*%
X114083000Y-79831000D02*
X114158000Y-79756000D01*
X114083000Y-81153000D02*
X114083000Y-79831000D01*
X114083000Y-84328000D02*
X114083000Y-81153000D01*
%TO.N,Net-(JP4-B)*%
X115458000Y-79756000D02*
X153519500Y-79756000D01*
X153519500Y-79756000D02*
X168251500Y-94488000D01*
%TO.N,/Contrast*%
X92583000Y-96647000D02*
X95885000Y-96647000D01*
X91313000Y-95377000D02*
X92583000Y-96647000D01*
X98933000Y-99695000D02*
X110871000Y-99695000D01*
X110871000Y-99695000D02*
X113792000Y-102616000D01*
X95885000Y-96647000D02*
X98933000Y-99695000D01*
%TD*%
%TA.AperFunction,Conductor*%
%TO.N,GND*%
G36*
X93393507Y-100247156D02*
G01*
X93353000Y-100385111D01*
X93353000Y-100528889D01*
X93393507Y-100666844D01*
X93419314Y-100707000D01*
X91746686Y-100707000D01*
X91772493Y-100666844D01*
X91813000Y-100528889D01*
X91813000Y-100385111D01*
X91772493Y-100247156D01*
X91746686Y-100207000D01*
X93419314Y-100207000D01*
X93393507Y-100247156D01*
G37*
%TD.AperFunction*%
%TA.AperFunction,Conductor*%
G36*
X101008079Y-96020820D02*
G01*
X102050126Y-96660425D01*
X102055750Y-96664323D01*
X102122228Y-96716065D01*
X102163040Y-96772773D01*
X102166714Y-96842546D01*
X102132082Y-96903229D01*
X102122227Y-96911769D01*
X101944558Y-97050055D01*
X101787414Y-97220757D01*
X101660516Y-97414990D01*
X101567317Y-97627464D01*
X101515117Y-97833600D01*
X102350118Y-97833600D01*
X102311444Y-97926969D01*
X102290823Y-98083600D01*
X102311444Y-98240231D01*
X102350118Y-98333600D01*
X101515117Y-98333600D01*
X101567317Y-98539735D01*
X101660515Y-98752206D01*
X101742490Y-98877678D01*
X101762677Y-98944568D01*
X101743497Y-99011753D01*
X101691039Y-99057904D01*
X101638681Y-99069500D01*
X99243452Y-99069500D01*
X99176413Y-99049815D01*
X99155771Y-99033181D01*
X97778265Y-97655675D01*
X96385803Y-96263212D01*
X96375980Y-96250950D01*
X96375759Y-96251134D01*
X96370786Y-96245123D01*
X96340724Y-96216893D01*
X96305329Y-96156652D01*
X96308121Y-96086838D01*
X96348215Y-96029617D01*
X96412880Y-96003155D01*
X96425607Y-96002500D01*
X100943213Y-96002500D01*
X101008079Y-96020820D01*
G37*
%TD.AperFunction*%
%TA.AperFunction,Conductor*%
G36*
X186887039Y-74441685D02*
G01*
X186932794Y-74494489D01*
X186944000Y-74546000D01*
X186944000Y-106556000D01*
X186924315Y-106623039D01*
X186871511Y-106668794D01*
X186820000Y-106680000D01*
X87500000Y-106680000D01*
X87432961Y-106660315D01*
X87387206Y-106607511D01*
X87376000Y-106556000D01*
X87376000Y-87483195D01*
X88142840Y-87483195D01*
X88147225Y-87529583D01*
X88147500Y-87535421D01*
X88147500Y-96945255D01*
X88145775Y-96960872D01*
X88146061Y-96960899D01*
X88145326Y-96968665D01*
X88147500Y-97037814D01*
X88147500Y-97067343D01*
X88147501Y-97067360D01*
X88148368Y-97074231D01*
X88148826Y-97080050D01*
X88150290Y-97126624D01*
X88150291Y-97126627D01*
X88155880Y-97145867D01*
X88159824Y-97164911D01*
X88162336Y-97184792D01*
X88176575Y-97220757D01*
X88179490Y-97228119D01*
X88181382Y-97233647D01*
X88194211Y-97277804D01*
X88194382Y-97278390D01*
X88198882Y-97286000D01*
X88204580Y-97295634D01*
X88213136Y-97313100D01*
X88216976Y-97322796D01*
X88220514Y-97331732D01*
X88247898Y-97369423D01*
X88251106Y-97374307D01*
X88274827Y-97414416D01*
X88274833Y-97414424D01*
X88288990Y-97428580D01*
X88301627Y-97443375D01*
X88313406Y-97459587D01*
X88343691Y-97484641D01*
X88349309Y-97489288D01*
X88353620Y-97493210D01*
X89012812Y-98152403D01*
X89161197Y-98300788D01*
X89171022Y-98313051D01*
X89171243Y-98312869D01*
X89176214Y-98318878D01*
X89191892Y-98333600D01*
X89226635Y-98366226D01*
X89247529Y-98387120D01*
X89253011Y-98391373D01*
X89257443Y-98395157D01*
X89291418Y-98427062D01*
X89308976Y-98436714D01*
X89325233Y-98447393D01*
X89341064Y-98459673D01*
X89360737Y-98468186D01*
X89383833Y-98478182D01*
X89389077Y-98480750D01*
X89429908Y-98503197D01*
X89449310Y-98508178D01*
X89467711Y-98514478D01*
X89486102Y-98522437D01*
X89486104Y-98522438D01*
X89501843Y-98524930D01*
X89538335Y-98536713D01*
X90036770Y-98788401D01*
X90610344Y-99078031D01*
X90661314Y-99125821D01*
X90678356Y-99193580D01*
X90656059Y-99259797D01*
X90625575Y-99290295D01*
X90441921Y-99418890D01*
X90274891Y-99585920D01*
X90274886Y-99585926D01*
X90139400Y-99779420D01*
X90139399Y-99779422D01*
X90039570Y-99993507D01*
X90039567Y-99993513D01*
X89982364Y-100206999D01*
X89982364Y-100207000D01*
X90879314Y-100207000D01*
X90853507Y-100247156D01*
X90813000Y-100385111D01*
X90813000Y-100528889D01*
X90853507Y-100666844D01*
X90879314Y-100707000D01*
X89982364Y-100707000D01*
X90039567Y-100920486D01*
X90039570Y-100920492D01*
X90139399Y-101134578D01*
X90274894Y-101328082D01*
X90441917Y-101495105D01*
X90627595Y-101625119D01*
X90671219Y-101679696D01*
X90678412Y-101749195D01*
X90646890Y-101811549D01*
X90627595Y-101828269D01*
X90441594Y-101958508D01*
X90274505Y-102125597D01*
X90138965Y-102319169D01*
X90138964Y-102319171D01*
X90039098Y-102533335D01*
X90039094Y-102533344D01*
X89977938Y-102761586D01*
X89977936Y-102761596D01*
X89957341Y-102996999D01*
X89957341Y-102997000D01*
X89977936Y-103232403D01*
X89977938Y-103232413D01*
X90039094Y-103460655D01*
X90039096Y-103460659D01*
X90039097Y-103460663D01*
X90119004Y-103632023D01*
X90138965Y-103674830D01*
X90138967Y-103674834D01*
X90247281Y-103829521D01*
X90274505Y-103868401D01*
X90441599Y-104035495D01*
X90538384Y-104103265D01*
X90635165Y-104171032D01*
X90635167Y-104171033D01*
X90635170Y-104171035D01*
X90849337Y-104270903D01*
X91077592Y-104332063D01*
X91265918Y-104348539D01*
X91312999Y-104352659D01*
X91313000Y-104352659D01*
X91313001Y-104352659D01*
X91352234Y-104349226D01*
X91548408Y-104332063D01*
X91776663Y-104270903D01*
X91990830Y-104171035D01*
X92184401Y-104035495D01*
X92351495Y-103868401D01*
X92481425Y-103682842D01*
X92536002Y-103639217D01*
X92605500Y-103632023D01*
X92667855Y-103663546D01*
X92684575Y-103682842D01*
X92814500Y-103868395D01*
X92814505Y-103868401D01*
X92981599Y-104035495D01*
X93078384Y-104103265D01*
X93175165Y-104171032D01*
X93175167Y-104171033D01*
X93175170Y-104171035D01*
X93389337Y-104270903D01*
X93617592Y-104332063D01*
X93805918Y-104348539D01*
X93852999Y-104352659D01*
X93853000Y-104352659D01*
X93853001Y-104352659D01*
X93892234Y-104349226D01*
X94088408Y-104332063D01*
X94316663Y-104270903D01*
X94530830Y-104171035D01*
X94724401Y-104035495D01*
X94891495Y-103868401D01*
X95027035Y-103674830D01*
X95126903Y-103460663D01*
X95188063Y-103232408D01*
X95208659Y-102997000D01*
X95188063Y-102761592D01*
X95126903Y-102533337D01*
X95027035Y-102319171D01*
X95021425Y-102311158D01*
X94891494Y-102125597D01*
X94724402Y-101958506D01*
X94724401Y-101958505D01*
X94547007Y-101834292D01*
X94538405Y-101828269D01*
X94494781Y-101773692D01*
X94487588Y-101704193D01*
X94519110Y-101641839D01*
X94538405Y-101625119D01*
X94724082Y-101495105D01*
X94891105Y-101328082D01*
X95026600Y-101134578D01*
X95126429Y-100920492D01*
X95126432Y-100920486D01*
X95183636Y-100707000D01*
X94286686Y-100707000D01*
X94312493Y-100666844D01*
X94353000Y-100528889D01*
X94353000Y-100385111D01*
X94312493Y-100247156D01*
X94286686Y-100207000D01*
X95183636Y-100207000D01*
X95183635Y-100206999D01*
X95126432Y-99993513D01*
X95126429Y-99993507D01*
X95026600Y-99779422D01*
X95026599Y-99779420D01*
X94891113Y-99585926D01*
X94891108Y-99585920D01*
X94724078Y-99418890D01*
X94538405Y-99288879D01*
X94494780Y-99234302D01*
X94487588Y-99164804D01*
X94519110Y-99102449D01*
X94538406Y-99085730D01*
X94724401Y-98955495D01*
X94891495Y-98788401D01*
X95027035Y-98594830D01*
X95126903Y-98380663D01*
X95188063Y-98152408D01*
X95208659Y-97917000D01*
X95188063Y-97681592D01*
X95128578Y-97459587D01*
X95126905Y-97453344D01*
X95126900Y-97453330D01*
X95124837Y-97448906D01*
X95114344Y-97379829D01*
X95142863Y-97316045D01*
X95201339Y-97277804D01*
X95237218Y-97272500D01*
X95574548Y-97272500D01*
X95641587Y-97292185D01*
X95662228Y-97308818D01*
X97090925Y-98737516D01*
X98432197Y-100078788D01*
X98442022Y-100091051D01*
X98442243Y-100090869D01*
X98447214Y-100096878D01*
X98465305Y-100113866D01*
X98497635Y-100144226D01*
X98518529Y-100165120D01*
X98524011Y-100169373D01*
X98528443Y-100173157D01*
X98562418Y-100205062D01*
X98579976Y-100214714D01*
X98596233Y-100225393D01*
X98612064Y-100237673D01*
X98628564Y-100244813D01*
X98654833Y-100256182D01*
X98660077Y-100258750D01*
X98700908Y-100281197D01*
X98702412Y-100281583D01*
X98720305Y-100286177D01*
X98738719Y-100292481D01*
X98757104Y-100300438D01*
X98803157Y-100307732D01*
X98808826Y-100308906D01*
X98853981Y-100320500D01*
X98874016Y-100320500D01*
X98893413Y-100322026D01*
X98913196Y-100325160D01*
X98959584Y-100320775D01*
X98965422Y-100320500D01*
X101175682Y-100320500D01*
X101242721Y-100340185D01*
X101288476Y-100392989D01*
X101298420Y-100462147D01*
X101269395Y-100525703D01*
X101260569Y-100534888D01*
X101135345Y-100652482D01*
X101051352Y-100731356D01*
X100848784Y-100976218D01*
X100678513Y-101244523D01*
X100678510Y-101244529D01*
X100543209Y-101532056D01*
X100543207Y-101532061D01*
X100445008Y-101834287D01*
X100385460Y-102146448D01*
X100385459Y-102146455D01*
X100365507Y-102463594D01*
X100365507Y-102463605D01*
X100385459Y-102780744D01*
X100385460Y-102780751D01*
X100398590Y-102849581D01*
X100426711Y-102996999D01*
X100445008Y-103092912D01*
X100543207Y-103395138D01*
X100543209Y-103395143D01*
X100678510Y-103682670D01*
X100678513Y-103682676D01*
X100848784Y-103950981D01*
X100848787Y-103950985D01*
X100848788Y-103950986D01*
X101051350Y-104195842D01*
X101283003Y-104413378D01*
X101540094Y-104600166D01*
X101818568Y-104753259D01*
X101818573Y-104753261D01*
X101818575Y-104753262D01*
X101818576Y-104753263D01*
X102114031Y-104870241D01*
X102114034Y-104870242D01*
X102421836Y-104949272D01*
X102737097Y-104989099D01*
X102737106Y-104989099D01*
X102737109Y-104989100D01*
X102737111Y-104989100D01*
X103054889Y-104989100D01*
X103054891Y-104989100D01*
X103054894Y-104989099D01*
X103054902Y-104989099D01*
X103370163Y-104949272D01*
X103677965Y-104870242D01*
X103677968Y-104870241D01*
X103973423Y-104753263D01*
X103973424Y-104753262D01*
X103973422Y-104753262D01*
X103973432Y-104753259D01*
X104251906Y-104600166D01*
X104508997Y-104413378D01*
X104740650Y-104195842D01*
X104943212Y-103950986D01*
X105113488Y-103682674D01*
X105248793Y-103395137D01*
X105346993Y-103092908D01*
X105406539Y-102780755D01*
X105406540Y-102780744D01*
X105426493Y-102463605D01*
X105426493Y-102463594D01*
X105406540Y-102146455D01*
X105406539Y-102146448D01*
X105406539Y-102146445D01*
X105346993Y-101834292D01*
X105248793Y-101532063D01*
X105230992Y-101494235D01*
X105154405Y-101331479D01*
X105113488Y-101244526D01*
X105069987Y-101175979D01*
X104943215Y-100976218D01*
X104943212Y-100976214D01*
X104740650Y-100731358D01*
X104531433Y-100534891D01*
X104496040Y-100474651D01*
X104498832Y-100404837D01*
X104538926Y-100347616D01*
X104603591Y-100321155D01*
X104616318Y-100320500D01*
X110560548Y-100320500D01*
X110627587Y-100340185D01*
X110648229Y-100356819D01*
X112505963Y-102214553D01*
X112532922Y-102254971D01*
X112798451Y-102899035D01*
X112807169Y-102933696D01*
X112814325Y-103003745D01*
X112814326Y-103003753D01*
X112868591Y-103167513D01*
X112868593Y-103167518D01*
X112902895Y-103223129D01*
X112959160Y-103314350D01*
X113081150Y-103436340D01*
X113227984Y-103526908D01*
X113391747Y-103581174D01*
X113492823Y-103591500D01*
X114091176Y-103591499D01*
X114091184Y-103591498D01*
X114091187Y-103591498D01*
X114146530Y-103585844D01*
X114192253Y-103581174D01*
X114356016Y-103526908D01*
X114502850Y-103436340D01*
X114616819Y-103322371D01*
X114678142Y-103288886D01*
X114747834Y-103293870D01*
X114792181Y-103322371D01*
X114906150Y-103436340D01*
X115052984Y-103526908D01*
X115216747Y-103581174D01*
X115317823Y-103591500D01*
X115916176Y-103591499D01*
X115916184Y-103591498D01*
X115916187Y-103591498D01*
X115971530Y-103585844D01*
X116017253Y-103581174D01*
X116181016Y-103526908D01*
X116190279Y-103521193D01*
X116197604Y-103517326D01*
X116204826Y-103514109D01*
X116204849Y-103514101D01*
X116687996Y-103256117D01*
X116746403Y-103241500D01*
X117692596Y-103241500D01*
X117751003Y-103256117D01*
X118234729Y-103514411D01*
X118234737Y-103514413D01*
X118241770Y-103517552D01*
X118249070Y-103521410D01*
X118257984Y-103526908D01*
X118421747Y-103581174D01*
X118522823Y-103591500D01*
X119221176Y-103591499D01*
X119221184Y-103591498D01*
X119221187Y-103591498D01*
X119276530Y-103585844D01*
X119322253Y-103581174D01*
X119486016Y-103526908D01*
X119632850Y-103436340D01*
X119647171Y-103422018D01*
X119708489Y-103388533D01*
X119778181Y-103393514D01*
X119822534Y-103422017D01*
X119836461Y-103435944D01*
X119836465Y-103435947D01*
X119983188Y-103526448D01*
X119983199Y-103526453D01*
X120146847Y-103580680D01*
X120247851Y-103590999D01*
X120347000Y-103590998D01*
X120347000Y-102866000D01*
X120847000Y-102866000D01*
X120847000Y-103590999D01*
X120946140Y-103590999D01*
X120946154Y-103590998D01*
X121047152Y-103580680D01*
X121210800Y-103526453D01*
X121210811Y-103526448D01*
X121357534Y-103435947D01*
X121357538Y-103435944D01*
X121479444Y-103314038D01*
X121479447Y-103314034D01*
X121569948Y-103167311D01*
X121569953Y-103167300D01*
X121624180Y-103003652D01*
X121634499Y-102902654D01*
X121634500Y-102902641D01*
X121634500Y-102866000D01*
X120847000Y-102866000D01*
X120347000Y-102866000D01*
X120347000Y-101641000D01*
X120847000Y-101641000D01*
X120847000Y-102366000D01*
X121634499Y-102366000D01*
X121634499Y-102329360D01*
X121634498Y-102329345D01*
X121624180Y-102228347D01*
X121569953Y-102064699D01*
X121569948Y-102064688D01*
X121479447Y-101917965D01*
X121479444Y-101917961D01*
X121357538Y-101796055D01*
X121357534Y-101796052D01*
X121210811Y-101705551D01*
X121210800Y-101705546D01*
X121047152Y-101651319D01*
X120946154Y-101641000D01*
X120847000Y-101641000D01*
X120347000Y-101641000D01*
X120347000Y-101640999D01*
X120247860Y-101641000D01*
X120247844Y-101641001D01*
X120146847Y-101651319D01*
X119983199Y-101705546D01*
X119983188Y-101705551D01*
X119836465Y-101796052D01*
X119822532Y-101809985D01*
X119761208Y-101843468D01*
X119691516Y-101838482D01*
X119647172Y-101809982D01*
X119632851Y-101795661D01*
X119632850Y-101795660D01*
X119506274Y-101717587D01*
X119486018Y-101705093D01*
X119486013Y-101705091D01*
X119483303Y-101704193D01*
X119322253Y-101650826D01*
X119322251Y-101650825D01*
X119221178Y-101640500D01*
X118522830Y-101640500D01*
X118522812Y-101640501D01*
X118421747Y-101650825D01*
X118421744Y-101650826D01*
X118257984Y-101705091D01*
X118257983Y-101705092D01*
X118249045Y-101710605D01*
X118241723Y-101714472D01*
X118234731Y-101717587D01*
X117751000Y-101975883D01*
X117692593Y-101990500D01*
X116746404Y-101990500D01*
X116687997Y-101975883D01*
X116441396Y-101844206D01*
X116391531Y-101795265D01*
X116391339Y-101794920D01*
X116258036Y-101554332D01*
X116242500Y-101494235D01*
X116242500Y-99632555D01*
X116262185Y-99565516D01*
X116285296Y-99538842D01*
X116312943Y-99514887D01*
X116396124Y-99418890D01*
X116407088Y-99406237D01*
X116407090Y-99406233D01*
X116407097Y-99406226D01*
X116484904Y-99285155D01*
X116484907Y-99285147D01*
X116484910Y-99285143D01*
X116510961Y-99228098D01*
X116544632Y-99154370D01*
X116544632Y-99154369D01*
X116544632Y-99154367D01*
X116544814Y-99153970D01*
X116545250Y-99152262D01*
X116585180Y-99016277D01*
X116585831Y-99011753D01*
X116589217Y-98988196D01*
X116605642Y-98873962D01*
X116605642Y-98817603D01*
X116605647Y-98817585D01*
X116605647Y-98286443D01*
X116605642Y-98286397D01*
X116605642Y-98230039D01*
X116605642Y-98230038D01*
X116585180Y-98087723D01*
X116585180Y-98087722D01*
X116585180Y-98087720D01*
X116544632Y-97949631D01*
X116544627Y-97949618D01*
X116484910Y-97818856D01*
X116484897Y-97818833D01*
X116407103Y-97697783D01*
X116407088Y-97697762D01*
X116312943Y-97589113D01*
X116297640Y-97575853D01*
X116204170Y-97494861D01*
X116168937Y-97472218D01*
X116083221Y-97417131D01*
X116083217Y-97417129D01*
X116083216Y-97417129D01*
X115952300Y-97357342D01*
X115854158Y-97328525D01*
X115814342Y-97316834D01*
X115671889Y-97296353D01*
X115100000Y-97296353D01*
X115058346Y-97299332D01*
X114990073Y-97284480D01*
X114940668Y-97235075D01*
X114925500Y-97175648D01*
X114925500Y-95359647D01*
X114945185Y-95292608D01*
X114997989Y-95246853D01*
X115049500Y-95235647D01*
X115996000Y-95235647D01*
X116067961Y-95230500D01*
X116067963Y-95230499D01*
X116067965Y-95230499D01*
X116206050Y-95189954D01*
X116206050Y-95189953D01*
X116206053Y-95189953D01*
X116327128Y-95112143D01*
X116421377Y-95003373D01*
X116481165Y-94872457D01*
X116501647Y-94730000D01*
X116501647Y-94729500D01*
X116501694Y-94729339D01*
X116501963Y-94725580D01*
X116502780Y-94725638D01*
X116521332Y-94662461D01*
X116574136Y-94616706D01*
X116625647Y-94605500D01*
X123641548Y-94605500D01*
X123708587Y-94625185D01*
X123729229Y-94641819D01*
X129191594Y-100104184D01*
X129201419Y-100116448D01*
X129201640Y-100116266D01*
X129206610Y-100122273D01*
X129206613Y-100122276D01*
X129206614Y-100122277D01*
X129257051Y-100169641D01*
X129277930Y-100190520D01*
X129283404Y-100194766D01*
X129287842Y-100198556D01*
X129321818Y-100230462D01*
X129321822Y-100230464D01*
X129339373Y-100240113D01*
X129355631Y-100250792D01*
X129371464Y-100263074D01*
X129393415Y-100272572D01*
X129414237Y-100281583D01*
X129419481Y-100284152D01*
X129460308Y-100306597D01*
X129479712Y-100311579D01*
X129498110Y-100317878D01*
X129516505Y-100325838D01*
X129562529Y-100333126D01*
X129568232Y-100334307D01*
X129613381Y-100345900D01*
X129633416Y-100345900D01*
X129652813Y-100347426D01*
X129672596Y-100350560D01*
X129718984Y-100346175D01*
X129724822Y-100345900D01*
X132708457Y-100345900D01*
X132724077Y-100347624D01*
X132724104Y-100347339D01*
X132731860Y-100348071D01*
X132731867Y-100348073D01*
X132801014Y-100345900D01*
X132830550Y-100345900D01*
X132837428Y-100345030D01*
X132843241Y-100344572D01*
X132889827Y-100343109D01*
X132909069Y-100337517D01*
X132928112Y-100333574D01*
X132947992Y-100331064D01*
X132947997Y-100331061D01*
X132955554Y-100329123D01*
X132955694Y-100329669D01*
X132993277Y-100322500D01*
X144131320Y-100322500D01*
X144183502Y-100334014D01*
X145226473Y-100817846D01*
X145231730Y-100820152D01*
X145231728Y-100820152D01*
X145251113Y-100827230D01*
X145275026Y-100835963D01*
X145279930Y-100837998D01*
X145301970Y-100848276D01*
X145301980Y-100848278D01*
X145307059Y-100850128D01*
X145306284Y-100852254D01*
X145357680Y-100883558D01*
X145388230Y-100946394D01*
X145379959Y-101015773D01*
X145335492Y-101069666D01*
X145306687Y-101082836D01*
X145307064Y-101083870D01*
X145301972Y-101085723D01*
X145301970Y-101085724D01*
X145301968Y-101085725D01*
X145108421Y-101175977D01*
X144933478Y-101298472D01*
X144782472Y-101449478D01*
X144659977Y-101624421D01*
X144590371Y-101773692D01*
X144573448Y-101809985D01*
X144569725Y-101817968D01*
X144569721Y-101817977D01*
X144514452Y-102024247D01*
X144514450Y-102024258D01*
X144495838Y-102236998D01*
X144495838Y-102237001D01*
X144514450Y-102449741D01*
X144514452Y-102449752D01*
X144569721Y-102656022D01*
X144569723Y-102656026D01*
X144569724Y-102656030D01*
X144612171Y-102747058D01*
X144659977Y-102849578D01*
X144782472Y-103024521D01*
X144933478Y-103175527D01*
X144933481Y-103175529D01*
X145108419Y-103298021D01*
X145108421Y-103298022D01*
X145108420Y-103298022D01*
X145160637Y-103322371D01*
X145301970Y-103388276D01*
X145301976Y-103388277D01*
X145301977Y-103388278D01*
X145327598Y-103395143D01*
X145508253Y-103443549D01*
X145660215Y-103456844D01*
X145720998Y-103462162D01*
X145721000Y-103462162D01*
X145721002Y-103462162D01*
X145774186Y-103457508D01*
X145933747Y-103443549D01*
X146140030Y-103388276D01*
X146333581Y-103298021D01*
X146508519Y-103175529D01*
X146659529Y-103024519D01*
X146782021Y-102849581D01*
X146872276Y-102656030D01*
X146923836Y-102463605D01*
X181365507Y-102463605D01*
X181385459Y-102780744D01*
X181385460Y-102780751D01*
X181398590Y-102849581D01*
X181426711Y-102996999D01*
X181445008Y-103092912D01*
X181543207Y-103395138D01*
X181543209Y-103395143D01*
X181678510Y-103682670D01*
X181678513Y-103682676D01*
X181848784Y-103950981D01*
X181848787Y-103950985D01*
X181848788Y-103950986D01*
X182051350Y-104195842D01*
X182283003Y-104413378D01*
X182540094Y-104600166D01*
X182818568Y-104753259D01*
X182818573Y-104753261D01*
X182818575Y-104753262D01*
X182818576Y-104753263D01*
X183114031Y-104870241D01*
X183114034Y-104870242D01*
X183421836Y-104949272D01*
X183737097Y-104989099D01*
X183737106Y-104989099D01*
X183737109Y-104989100D01*
X183737111Y-104989100D01*
X184054889Y-104989100D01*
X184054891Y-104989100D01*
X184054894Y-104989099D01*
X184054902Y-104989099D01*
X184370163Y-104949272D01*
X184677965Y-104870242D01*
X184677968Y-104870241D01*
X184973423Y-104753263D01*
X184973424Y-104753262D01*
X184973422Y-104753262D01*
X184973432Y-104753259D01*
X185251906Y-104600166D01*
X185508997Y-104413378D01*
X185740650Y-104195842D01*
X185943212Y-103950986D01*
X186113488Y-103682674D01*
X186248793Y-103395137D01*
X186346993Y-103092908D01*
X186406539Y-102780755D01*
X186406540Y-102780744D01*
X186426493Y-102463605D01*
X186426493Y-102463594D01*
X186406540Y-102146455D01*
X186406539Y-102146448D01*
X186406539Y-102146445D01*
X186346993Y-101834292D01*
X186248793Y-101532063D01*
X186230992Y-101494235D01*
X186154405Y-101331479D01*
X186113488Y-101244526D01*
X186069987Y-101175979D01*
X185943215Y-100976218D01*
X185943212Y-100976214D01*
X185740650Y-100731358D01*
X185508997Y-100513822D01*
X185508995Y-100513820D01*
X185251909Y-100327036D01*
X185251908Y-100327035D01*
X185251906Y-100327034D01*
X184973432Y-100173941D01*
X184973429Y-100173939D01*
X184973424Y-100173937D01*
X184973423Y-100173936D01*
X184677968Y-100056958D01*
X184677965Y-100056957D01*
X184370163Y-99977927D01*
X184054902Y-99938100D01*
X184054891Y-99938100D01*
X183737109Y-99938100D01*
X183737097Y-99938100D01*
X183421836Y-99977927D01*
X183114034Y-100056957D01*
X183114031Y-100056958D01*
X182818576Y-100173936D01*
X182818575Y-100173937D01*
X182540094Y-100327034D01*
X182540090Y-100327036D01*
X182283004Y-100513820D01*
X182283001Y-100513823D01*
X182051352Y-100731356D01*
X181848784Y-100976218D01*
X181678513Y-101244523D01*
X181678510Y-101244529D01*
X181543209Y-101532056D01*
X181543207Y-101532061D01*
X181445008Y-101834287D01*
X181385460Y-102146448D01*
X181385459Y-102146455D01*
X181365507Y-102463594D01*
X181365507Y-102463605D01*
X146923836Y-102463605D01*
X146927549Y-102449747D01*
X146946162Y-102237000D01*
X146927549Y-102024253D01*
X146877772Y-101838482D01*
X146872278Y-101817977D01*
X146872277Y-101817976D01*
X146872276Y-101817970D01*
X146782021Y-101624419D01*
X146659529Y-101449481D01*
X146659527Y-101449478D01*
X146508521Y-101298472D01*
X146333578Y-101175977D01*
X146333579Y-101175977D01*
X146167093Y-101098344D01*
X146140030Y-101085724D01*
X146140023Y-101085722D01*
X146134936Y-101083870D01*
X146135706Y-101081753D01*
X146084275Y-101050392D01*
X146053757Y-100987540D01*
X146062065Y-100918166D01*
X146106560Y-100864296D01*
X146135330Y-100851169D01*
X146134950Y-100850124D01*
X146140014Y-100848280D01*
X146140030Y-100848276D01*
X146183370Y-100828064D01*
X146200118Y-100821685D01*
X146220308Y-100815627D01*
X147137884Y-100389966D01*
X147258498Y-100334014D01*
X147310680Y-100322500D01*
X150081609Y-100322500D01*
X150148648Y-100342185D01*
X150161950Y-100352047D01*
X150607888Y-100731356D01*
X150833265Y-100923059D01*
X150859587Y-100943980D01*
X150877503Y-100953663D01*
X150892856Y-100963483D01*
X150926669Y-100988796D01*
X150973744Y-101006353D01*
X150981544Y-101009896D01*
X150986162Y-101012392D01*
X150993736Y-101015180D01*
X151004614Y-101018142D01*
X151009994Y-101019874D01*
X151061511Y-101039089D01*
X151061512Y-101039089D01*
X151061517Y-101039091D01*
X151121127Y-101045500D01*
X152916872Y-101045499D01*
X152976483Y-101039091D01*
X153111331Y-100988796D01*
X153226546Y-100902546D01*
X153312796Y-100787331D01*
X153363091Y-100652483D01*
X153369500Y-100592873D01*
X153369499Y-98797128D01*
X153363091Y-98737517D01*
X153342981Y-98683600D01*
X153312797Y-98602671D01*
X153312793Y-98602664D01*
X153226547Y-98487455D01*
X153226544Y-98487452D01*
X153111335Y-98401206D01*
X153111328Y-98401202D01*
X152976482Y-98350908D01*
X152976483Y-98350908D01*
X152916883Y-98344501D01*
X152916881Y-98344500D01*
X152916873Y-98344500D01*
X152916864Y-98344500D01*
X151121129Y-98344500D01*
X151121123Y-98344501D01*
X151061516Y-98350908D01*
X150926671Y-98401202D01*
X150926669Y-98401203D01*
X150860959Y-98450393D01*
X150856953Y-98453153D01*
X150832488Y-98468632D01*
X150832484Y-98468635D01*
X150832483Y-98468636D01*
X150191308Y-99016276D01*
X150161437Y-99041789D01*
X150097676Y-99070360D01*
X150080903Y-99071500D01*
X147310681Y-99071500D01*
X147258499Y-99059986D01*
X146215143Y-98575975D01*
X146213269Y-98575156D01*
X146209528Y-98573522D01*
X146209521Y-98573519D01*
X146209519Y-98573518D01*
X146166874Y-98557983D01*
X146161893Y-98555918D01*
X146140033Y-98545725D01*
X146134936Y-98543870D01*
X146135606Y-98542028D01*
X146083293Y-98510114D01*
X146052789Y-98447255D01*
X146061111Y-98377883D01*
X146105617Y-98324022D01*
X146135097Y-98310574D01*
X146134764Y-98309658D01*
X146139859Y-98307802D01*
X146333330Y-98217586D01*
X146333336Y-98217582D01*
X146389031Y-98178584D01*
X145765401Y-97554953D01*
X145846148Y-97542165D01*
X145959045Y-97484641D01*
X146048641Y-97395045D01*
X146106165Y-97282148D01*
X146118953Y-97201400D01*
X146742584Y-97825031D01*
X146769914Y-97786000D01*
X167264001Y-97786000D01*
X167264001Y-97822654D01*
X167274319Y-97923652D01*
X167328546Y-98087300D01*
X167328551Y-98087311D01*
X167419052Y-98234034D01*
X167419055Y-98234038D01*
X167540961Y-98355944D01*
X167540965Y-98355947D01*
X167687688Y-98446448D01*
X167687699Y-98446453D01*
X167851347Y-98500680D01*
X167952351Y-98510999D01*
X168051500Y-98510998D01*
X168051500Y-97786000D01*
X167264001Y-97786000D01*
X146769914Y-97786000D01*
X146781582Y-97769336D01*
X146781586Y-97769330D01*
X146871802Y-97575859D01*
X146871805Y-97575853D01*
X146927054Y-97369662D01*
X146927055Y-97369654D01*
X146934374Y-97286000D01*
X167264000Y-97286000D01*
X168051500Y-97286000D01*
X168051500Y-96560999D01*
X167952360Y-96561000D01*
X167952344Y-96561001D01*
X167851347Y-96571319D01*
X167687699Y-96625546D01*
X167687688Y-96625551D01*
X167540965Y-96716052D01*
X167540961Y-96716055D01*
X167419055Y-96837961D01*
X167419052Y-96837965D01*
X167328551Y-96984688D01*
X167328546Y-96984699D01*
X167274319Y-97148347D01*
X167264000Y-97249345D01*
X167264000Y-97286000D01*
X146934374Y-97286000D01*
X146945660Y-97157002D01*
X146945660Y-97156997D01*
X146927055Y-96944345D01*
X146927054Y-96944337D01*
X146871805Y-96738146D01*
X146871802Y-96738140D01*
X146781586Y-96544670D01*
X146742583Y-96488967D01*
X146118953Y-97112598D01*
X146106165Y-97031852D01*
X146048641Y-96918955D01*
X145959045Y-96829359D01*
X145846148Y-96771835D01*
X145765401Y-96759046D01*
X146389031Y-96135416D01*
X146389030Y-96135415D01*
X146333330Y-96096413D01*
X146333328Y-96096412D01*
X146139859Y-96006197D01*
X146139853Y-96006194D01*
X145933662Y-95950945D01*
X145933654Y-95950944D01*
X145721002Y-95932340D01*
X145720998Y-95932340D01*
X145508345Y-95950944D01*
X145508337Y-95950945D01*
X145302146Y-96006194D01*
X145302140Y-96006197D01*
X145108667Y-96096414D01*
X145052967Y-96135414D01*
X145676599Y-96759046D01*
X145595852Y-96771835D01*
X145482955Y-96829359D01*
X145393359Y-96918955D01*
X145335835Y-97031852D01*
X145323046Y-97112598D01*
X144699415Y-96488967D01*
X144699414Y-96488967D01*
X144660414Y-96544667D01*
X144570197Y-96738140D01*
X144570194Y-96738146D01*
X144514945Y-96944337D01*
X144514944Y-96944345D01*
X144496340Y-97156997D01*
X144496340Y-97157002D01*
X144514944Y-97369654D01*
X144514945Y-97369662D01*
X144570194Y-97575853D01*
X144570197Y-97575859D01*
X144660412Y-97769328D01*
X144660413Y-97769330D01*
X144699415Y-97825030D01*
X144699416Y-97825031D01*
X145323046Y-97201400D01*
X145335835Y-97282148D01*
X145393359Y-97395045D01*
X145482955Y-97484641D01*
X145595852Y-97542165D01*
X145676599Y-97554953D01*
X145052967Y-98178583D01*
X145108670Y-98217586D01*
X145302140Y-98307802D01*
X145307236Y-98309658D01*
X145306542Y-98311563D01*
X145358647Y-98343302D01*
X145389196Y-98406139D01*
X145380922Y-98475518D01*
X145336454Y-98529409D01*
X145306744Y-98542991D01*
X145307064Y-98543870D01*
X145301972Y-98545723D01*
X145301970Y-98545724D01*
X145258646Y-98565926D01*
X145241889Y-98572309D01*
X145221704Y-98578366D01*
X145221693Y-98578371D01*
X144183499Y-99059986D01*
X144131317Y-99071500D01*
X132897343Y-99071500D01*
X132881722Y-99069775D01*
X132881695Y-99070061D01*
X132873933Y-99069326D01*
X132804772Y-99071500D01*
X132775249Y-99071500D01*
X132768378Y-99072367D01*
X132762559Y-99072825D01*
X132715974Y-99074289D01*
X132715968Y-99074290D01*
X132696726Y-99079880D01*
X132677687Y-99083823D01*
X132657815Y-99086334D01*
X132650250Y-99088277D01*
X132650109Y-99087729D01*
X132612523Y-99094900D01*
X130002852Y-99094900D01*
X129935813Y-99075215D01*
X129915171Y-99058581D01*
X124452803Y-93596212D01*
X124442980Y-93583950D01*
X124442759Y-93584134D01*
X124437786Y-93578123D01*
X124417816Y-93559370D01*
X124387364Y-93530773D01*
X124372523Y-93515932D01*
X124366475Y-93509883D01*
X124360986Y-93505625D01*
X124356561Y-93501847D01*
X124322582Y-93469938D01*
X124322580Y-93469936D01*
X124322577Y-93469935D01*
X124305029Y-93460288D01*
X124288763Y-93449604D01*
X124272933Y-93437325D01*
X124230168Y-93418818D01*
X124224922Y-93416248D01*
X124184093Y-93393803D01*
X124184092Y-93393802D01*
X124164693Y-93388822D01*
X124146281Y-93382518D01*
X124127898Y-93374562D01*
X124127892Y-93374560D01*
X124081874Y-93367272D01*
X124076152Y-93366087D01*
X124031021Y-93354500D01*
X124031019Y-93354500D01*
X124010984Y-93354500D01*
X123991586Y-93352973D01*
X123984162Y-93351797D01*
X123971805Y-93349840D01*
X123971804Y-93349840D01*
X123925416Y-93354225D01*
X123919578Y-93354500D01*
X116625647Y-93354500D01*
X116558608Y-93334815D01*
X116512853Y-93282011D01*
X116501647Y-93230500D01*
X116501647Y-93230000D01*
X116496500Y-93158039D01*
X116496499Y-93158034D01*
X116455954Y-93019949D01*
X116415260Y-92956628D01*
X116378143Y-92898872D01*
X116269373Y-92804623D01*
X116198601Y-92772302D01*
X116138456Y-92744834D01*
X116031792Y-92729499D01*
X115996000Y-92724353D01*
X114846000Y-92724353D01*
X114845995Y-92724353D01*
X114765645Y-92730778D01*
X114765629Y-92730781D01*
X114737239Y-92739638D01*
X114682668Y-92744002D01*
X114546000Y-92724353D01*
X113546000Y-92724353D01*
X113474039Y-92729499D01*
X113474034Y-92729500D01*
X113335949Y-92770045D01*
X113214873Y-92847856D01*
X113120623Y-92956626D01*
X113120622Y-92956628D01*
X113060834Y-93087543D01*
X113040353Y-93230000D01*
X113040353Y-93230500D01*
X113040305Y-93230660D01*
X113040037Y-93234420D01*
X113039219Y-93234361D01*
X113020668Y-93297539D01*
X112967864Y-93343294D01*
X112916353Y-93354500D01*
X109810737Y-93354500D01*
X109795120Y-93352776D01*
X109795093Y-93353062D01*
X109787331Y-93352327D01*
X109718203Y-93354500D01*
X109688650Y-93354500D01*
X109687929Y-93354590D01*
X109681757Y-93355369D01*
X109675945Y-93355826D01*
X109629378Y-93357290D01*
X109629367Y-93357292D01*
X109610134Y-93362879D01*
X109591094Y-93366822D01*
X109571217Y-93369334D01*
X109571210Y-93369335D01*
X109571208Y-93369336D01*
X109571206Y-93369336D01*
X109571205Y-93369337D01*
X109527868Y-93386494D01*
X109522342Y-93388386D01*
X109477611Y-93401382D01*
X109477608Y-93401383D01*
X109460363Y-93411581D01*
X109442901Y-93420135D01*
X109424272Y-93427511D01*
X109424267Y-93427513D01*
X109386564Y-93454906D01*
X109381682Y-93458112D01*
X109341580Y-93481828D01*
X109327408Y-93496000D01*
X109312623Y-93508628D01*
X109296412Y-93520407D01*
X109266709Y-93556310D01*
X109262776Y-93560631D01*
X108590952Y-94232457D01*
X107941628Y-94881781D01*
X107880305Y-94915266D01*
X107853947Y-94918100D01*
X107391000Y-94918100D01*
X107336855Y-94905654D01*
X107303688Y-94889556D01*
X106389346Y-94445765D01*
X106244593Y-94375507D01*
X106192878Y-94328526D01*
X106174772Y-94261043D01*
X106196025Y-94194484D01*
X106222576Y-94166100D01*
X106358890Y-94060002D01*
X106387784Y-94037513D01*
X106544979Y-93866753D01*
X106671924Y-93672449D01*
X106765157Y-93459900D01*
X106822134Y-93234905D01*
X106822135Y-93234897D01*
X106841300Y-93003606D01*
X106841300Y-93003593D01*
X106822135Y-92772302D01*
X106822133Y-92772291D01*
X106765157Y-92547299D01*
X106741475Y-92493310D01*
X106732572Y-92424010D01*
X106762549Y-92360898D01*
X106821889Y-92324011D01*
X106855031Y-92319500D01*
X107105257Y-92319500D01*
X107120877Y-92321224D01*
X107120904Y-92320939D01*
X107128660Y-92321671D01*
X107128667Y-92321673D01*
X107197814Y-92319500D01*
X107227350Y-92319500D01*
X107234228Y-92318630D01*
X107240041Y-92318172D01*
X107286627Y-92316709D01*
X107305869Y-92311117D01*
X107324912Y-92307174D01*
X107344792Y-92304664D01*
X107388122Y-92287507D01*
X107393646Y-92285617D01*
X107397396Y-92284527D01*
X107438390Y-92272618D01*
X107455629Y-92262422D01*
X107473103Y-92253862D01*
X107491727Y-92246488D01*
X107491727Y-92246487D01*
X107491732Y-92246486D01*
X107529449Y-92219082D01*
X107534305Y-92215892D01*
X107574420Y-92192170D01*
X107588589Y-92177999D01*
X107603379Y-92165368D01*
X107619587Y-92153594D01*
X107649299Y-92117676D01*
X107653212Y-92113376D01*
X109696772Y-90069819D01*
X109758095Y-90036334D01*
X109784453Y-90033500D01*
X113144242Y-90033500D01*
X113211281Y-90053185D01*
X113257036Y-90105988D01*
X113273095Y-90141153D01*
X113273105Y-90141171D01*
X113350896Y-90262216D01*
X113350911Y-90262237D01*
X113425541Y-90348364D01*
X113445057Y-90370887D01*
X113445060Y-90370890D01*
X113553830Y-90465139D01*
X113614307Y-90504005D01*
X113674778Y-90542868D01*
X113674780Y-90542868D01*
X113674784Y-90542871D01*
X113805700Y-90602658D01*
X113943655Y-90643165D01*
X114086111Y-90663647D01*
X114086114Y-90663647D01*
X114658000Y-90663647D01*
X114729961Y-90658500D01*
X114729963Y-90658499D01*
X114729965Y-90658499D01*
X114868050Y-90617954D01*
X114868050Y-90617953D01*
X114868053Y-90617953D01*
X114989128Y-90540143D01*
X115083377Y-90431373D01*
X115143165Y-90300457D01*
X115163647Y-90158000D01*
X115163647Y-89693763D01*
X115163647Y-88658000D01*
X115158500Y-88586039D01*
X115158499Y-88586034D01*
X115117954Y-88447949D01*
X115117953Y-88447947D01*
X115040143Y-88326872D01*
X114931373Y-88232623D01*
X114925424Y-88228800D01*
X114879670Y-88175995D01*
X114869727Y-88106837D01*
X114898753Y-88043281D01*
X114904758Y-88036831D01*
X115916786Y-87024802D01*
X115929048Y-87014980D01*
X115928865Y-87014759D01*
X115934867Y-87009792D01*
X115934877Y-87009786D01*
X115982241Y-86959348D01*
X116003120Y-86938470D01*
X116007373Y-86932986D01*
X116011150Y-86928563D01*
X116043062Y-86894582D01*
X116052714Y-86877023D01*
X116063389Y-86860772D01*
X116075674Y-86844936D01*
X116094186Y-86802152D01*
X116096742Y-86796935D01*
X116119197Y-86756092D01*
X116124180Y-86736680D01*
X116130477Y-86718291D01*
X116138438Y-86699895D01*
X116145729Y-86653853D01*
X116146908Y-86648162D01*
X116158500Y-86603019D01*
X116158500Y-86582983D01*
X116160027Y-86563582D01*
X116163160Y-86543804D01*
X116158775Y-86497415D01*
X116158500Y-86491577D01*
X116158500Y-85655605D01*
X116178185Y-85588566D01*
X116230989Y-85542811D01*
X116238772Y-85539907D01*
X116243047Y-85537954D01*
X116243053Y-85537953D01*
X116364128Y-85460143D01*
X116458377Y-85351373D01*
X116518165Y-85220457D01*
X116538647Y-85078000D01*
X116538647Y-83578000D01*
X116533500Y-83506039D01*
X116526308Y-83481546D01*
X116492954Y-83367949D01*
X116452260Y-83304628D01*
X116415143Y-83246872D01*
X116306373Y-83152623D01*
X116306371Y-83152622D01*
X116175456Y-83092834D01*
X116068812Y-83077502D01*
X116033000Y-83072353D01*
X115033000Y-83072353D01*
X114969463Y-83076360D01*
X114969455Y-83076362D01*
X114922881Y-83089191D01*
X114872306Y-83092381D01*
X114814854Y-83084121D01*
X114751298Y-83055096D01*
X114713523Y-82996319D01*
X114708500Y-82961383D01*
X114708500Y-81211983D01*
X114710027Y-81192582D01*
X114713160Y-81172804D01*
X114709167Y-81130564D01*
X114722456Y-81061970D01*
X114770719Y-81011449D01*
X114838635Y-80995041D01*
X114850262Y-80996156D01*
X114958000Y-81011647D01*
X114958003Y-81011647D01*
X115529886Y-81011647D01*
X115529889Y-81011647D01*
X115672345Y-80991165D01*
X115810300Y-80950658D01*
X115941216Y-80890871D01*
X116050861Y-80820407D01*
X116062169Y-80813140D01*
X116062166Y-80813143D01*
X116170939Y-80718891D01*
X116170941Y-80718889D01*
X116186114Y-80701379D01*
X116224316Y-80657291D01*
X116265088Y-80610237D01*
X116265090Y-80610233D01*
X116265097Y-80610226D01*
X116342904Y-80489155D01*
X116358964Y-80453986D01*
X116404719Y-80401184D01*
X116471758Y-80381500D01*
X153209048Y-80381500D01*
X153276087Y-80401185D01*
X153296729Y-80417819D01*
X166965463Y-94086554D01*
X166992422Y-94126972D01*
X167257951Y-94771035D01*
X167266669Y-94805696D01*
X167273825Y-94875745D01*
X167273826Y-94875753D01*
X167328092Y-95039516D01*
X167418660Y-95186350D01*
X167540650Y-95308340D01*
X167687484Y-95398908D01*
X167851247Y-95453174D01*
X167952323Y-95463500D01*
X168550676Y-95463499D01*
X168550684Y-95463498D01*
X168550687Y-95463498D01*
X168617372Y-95456686D01*
X168651753Y-95453174D01*
X168815516Y-95398908D01*
X168962350Y-95308340D01*
X169053994Y-95216695D01*
X169115313Y-95183213D01*
X169185005Y-95188197D01*
X169240939Y-95230068D01*
X169253736Y-95251298D01*
X169349980Y-95454499D01*
X169389065Y-95537018D01*
X169401000Y-95590097D01*
X169401000Y-96396190D01*
X169381892Y-96462323D01*
X169242309Y-96683711D01*
X169189903Y-96729922D01*
X169120834Y-96740464D01*
X169069036Y-96718465D01*
X169068185Y-96719846D01*
X168915311Y-96625551D01*
X168915300Y-96625546D01*
X168751652Y-96571319D01*
X168650654Y-96561000D01*
X168551500Y-96561000D01*
X168551500Y-98510999D01*
X168650640Y-98510999D01*
X168650654Y-98510998D01*
X168751652Y-98500680D01*
X168915300Y-98446453D01*
X168915311Y-98446448D01*
X169062035Y-98355947D01*
X169075960Y-98342021D01*
X169137282Y-98308533D01*
X169206973Y-98313514D01*
X169251327Y-98342017D01*
X169265650Y-98356340D01*
X169412484Y-98446908D01*
X169576247Y-98501174D01*
X169677323Y-98511500D01*
X170375676Y-98511499D01*
X170375684Y-98511498D01*
X170375687Y-98511498D01*
X170431030Y-98505844D01*
X170476753Y-98501174D01*
X170640516Y-98446908D01*
X170787350Y-98356340D01*
X170909340Y-98234350D01*
X170999908Y-98087516D01*
X171054174Y-97923753D01*
X171064500Y-97822677D01*
X171064499Y-97249324D01*
X171063043Y-97235075D01*
X171054174Y-97148247D01*
X171047009Y-97126624D01*
X170999908Y-96984484D01*
X170909340Y-96837650D01*
X170909334Y-96837644D01*
X170903515Y-96830285D01*
X170899703Y-96824899D01*
X170823479Y-96704000D01*
X173734000Y-96704000D01*
X173734000Y-96901844D01*
X173740401Y-96961372D01*
X173740403Y-96961379D01*
X173790645Y-97096086D01*
X173790649Y-97096093D01*
X173876809Y-97211187D01*
X173876812Y-97211190D01*
X173991906Y-97297350D01*
X173991913Y-97297354D01*
X174126620Y-97347596D01*
X174126627Y-97347598D01*
X174186155Y-97353999D01*
X174186172Y-97354000D01*
X174884000Y-97354000D01*
X174884000Y-96704000D01*
X175384000Y-96704000D01*
X175384000Y-97354000D01*
X176081828Y-97354000D01*
X176081844Y-97353999D01*
X176141372Y-97347598D01*
X176141379Y-97347596D01*
X176276086Y-97297354D01*
X176276093Y-97297350D01*
X176391187Y-97211190D01*
X176391190Y-97211187D01*
X176477350Y-97096093D01*
X176477354Y-97096086D01*
X176527596Y-96961379D01*
X176527598Y-96961372D01*
X176533999Y-96901844D01*
X176534000Y-96901827D01*
X176534000Y-96704000D01*
X175384000Y-96704000D01*
X174884000Y-96704000D01*
X173734000Y-96704000D01*
X170823479Y-96704000D01*
X170671107Y-96462324D01*
X170652000Y-96396191D01*
X170652000Y-95628508D01*
X170671250Y-95562149D01*
X170683005Y-95543593D01*
X170803616Y-95353204D01*
X170856120Y-95307108D01*
X170859595Y-95305559D01*
X170889870Y-95292608D01*
X170977006Y-95255332D01*
X171130910Y-95189494D01*
X171179680Y-95179500D01*
X173631212Y-95179500D01*
X173698251Y-95199185D01*
X173701458Y-95201317D01*
X173954440Y-95375241D01*
X173954446Y-95375245D01*
X173954451Y-95375248D01*
X173954450Y-95375247D01*
X173979813Y-95390578D01*
X173979794Y-95390567D01*
X173978593Y-95389935D01*
X173986968Y-95395228D01*
X173987372Y-95395449D01*
X173987466Y-95395543D01*
X173995133Y-95400389D01*
X173998773Y-95403114D01*
X173997174Y-95405249D01*
X174036782Y-95444850D01*
X174051640Y-95513122D01*
X174027229Y-95578588D01*
X173997973Y-95603944D01*
X173999011Y-95605331D01*
X173876812Y-95696809D01*
X173876809Y-95696812D01*
X173790649Y-95811906D01*
X173790645Y-95811913D01*
X173740403Y-95946620D01*
X173740401Y-95946627D01*
X173734000Y-96006155D01*
X173734000Y-96204000D01*
X176534000Y-96204000D01*
X176534000Y-96006172D01*
X176533999Y-96006155D01*
X176527598Y-95946627D01*
X176527596Y-95946620D01*
X176477354Y-95811913D01*
X176477350Y-95811906D01*
X176391190Y-95696812D01*
X176391187Y-95696809D01*
X176268989Y-95605331D01*
X176270632Y-95603135D01*
X176231211Y-95563712D01*
X176216360Y-95495438D01*
X176240778Y-95429974D01*
X176270236Y-95404455D01*
X176269231Y-95403112D01*
X176379323Y-95320696D01*
X176391546Y-95311546D01*
X176477796Y-95196331D01*
X176528091Y-95061483D01*
X176534500Y-95001873D01*
X176534499Y-94106128D01*
X176528091Y-94046517D01*
X176524733Y-94037515D01*
X176477797Y-93911671D01*
X176477793Y-93911664D01*
X176391547Y-93796455D01*
X176391544Y-93796452D01*
X176276335Y-93710206D01*
X176276328Y-93710202D01*
X176141482Y-93659908D01*
X176141483Y-93659908D01*
X176081883Y-93653501D01*
X176081881Y-93653500D01*
X176081873Y-93653500D01*
X176081865Y-93653500D01*
X174296380Y-93653500D01*
X174283262Y-93652262D01*
X174275803Y-93651809D01*
X174275802Y-93651809D01*
X174275800Y-93651809D01*
X174275798Y-93651809D01*
X174252523Y-93653362D01*
X174248395Y-93653500D01*
X174186131Y-93653500D01*
X174186122Y-93653501D01*
X174126520Y-93659908D01*
X174126513Y-93659910D01*
X174104814Y-93668002D01*
X174099275Y-93669777D01*
X174071182Y-93677345D01*
X174071180Y-93677345D01*
X174047737Y-93688943D01*
X174041909Y-93691464D01*
X174011774Y-93702704D01*
X173991669Y-93710204D01*
X173991667Y-93710205D01*
X173991665Y-93710206D01*
X173975225Y-93722512D01*
X173955917Y-93734378D01*
X173942229Y-93741151D01*
X173883353Y-93781629D01*
X173701459Y-93906681D01*
X173635066Y-93928440D01*
X173631211Y-93928500D01*
X171230966Y-93928500D01*
X171164137Y-93908950D01*
X170925009Y-93755951D01*
X170791370Y-93670446D01*
X170788173Y-93668168D01*
X170787350Y-93667660D01*
X170778049Y-93661923D01*
X170705899Y-93615760D01*
X170678524Y-93599438D01*
X170678521Y-93599437D01*
X170678513Y-93599432D01*
X170673127Y-93596827D01*
X170667577Y-93593783D01*
X170640520Y-93577094D01*
X170640517Y-93577092D01*
X170640516Y-93577092D01*
X170476753Y-93522826D01*
X170476751Y-93522825D01*
X170375678Y-93512500D01*
X169777330Y-93512500D01*
X169777312Y-93512501D01*
X169676247Y-93522825D01*
X169512484Y-93577092D01*
X169512481Y-93577093D01*
X169365648Y-93667661D01*
X169251681Y-93781629D01*
X169190358Y-93815114D01*
X169120666Y-93810130D01*
X169076319Y-93781629D01*
X168962351Y-93667661D01*
X168962350Y-93667660D01*
X168847512Y-93596827D01*
X168815518Y-93577093D01*
X168815513Y-93577091D01*
X168651754Y-93522826D01*
X168651746Y-93522825D01*
X168584278Y-93515932D01*
X168548780Y-93506864D01*
X167891151Y-93230089D01*
X167851571Y-93203480D01*
X163683584Y-89035493D01*
X176892423Y-89035493D01*
X176915295Y-89177584D01*
X176915296Y-89177588D01*
X176977274Y-89307480D01*
X177172586Y-89600447D01*
X177477276Y-90057482D01*
X177515857Y-90108128D01*
X177515859Y-90108130D01*
X177515863Y-90108134D01*
X177624622Y-90202374D01*
X177624625Y-90202375D01*
X177624627Y-90202377D01*
X177755543Y-90262165D01*
X177898000Y-90282647D01*
X178540917Y-90282647D01*
X178607956Y-90302332D01*
X178628598Y-90318966D01*
X181647299Y-93337666D01*
X181649666Y-93340170D01*
X181656170Y-93347446D01*
X181656357Y-93347587D01*
X181662922Y-93353289D01*
X181737144Y-93427511D01*
X181798867Y-93489234D01*
X181810648Y-93502866D01*
X181811370Y-93503836D01*
X181824990Y-93522130D01*
X181865020Y-93555719D01*
X181868992Y-93559359D01*
X181874824Y-93565191D01*
X181874827Y-93565194D01*
X181900547Y-93585531D01*
X181959388Y-93634904D01*
X181965418Y-93638870D01*
X181965385Y-93638919D01*
X181971743Y-93642969D01*
X181971775Y-93642919D01*
X181977920Y-93646709D01*
X181977923Y-93646711D01*
X182047536Y-93679172D01*
X182116167Y-93713640D01*
X182116172Y-93713641D01*
X182122961Y-93716113D01*
X182122940Y-93716170D01*
X182130055Y-93718643D01*
X182130075Y-93718586D01*
X182136930Y-93720858D01*
X182202413Y-93734378D01*
X182212158Y-93736390D01*
X182286879Y-93754100D01*
X182286889Y-93754100D01*
X182294052Y-93754938D01*
X182294044Y-93754997D01*
X182301544Y-93755764D01*
X182301550Y-93755705D01*
X182308745Y-93756334D01*
X182321903Y-93755951D01*
X182385207Y-93771211D01*
X182631863Y-93906681D01*
X182735715Y-93963719D01*
X182784999Y-94013245D01*
X182791170Y-94026396D01*
X182850834Y-94175746D01*
X182871548Y-94227598D01*
X182878138Y-94297156D01*
X182871548Y-94319600D01*
X182841486Y-94394853D01*
X182798336Y-94449806D01*
X182769803Y-94464983D01*
X182194163Y-94680452D01*
X182061798Y-94729998D01*
X182020033Y-94745631D01*
X181976564Y-94753500D01*
X179861483Y-94753500D01*
X179817944Y-94745605D01*
X179590213Y-94660206D01*
X179515973Y-94632366D01*
X179493362Y-94625185D01*
X179466595Y-94616684D01*
X179460702Y-94615425D01*
X179460862Y-94614675D01*
X179442380Y-94610243D01*
X179441486Y-94609909D01*
X179441482Y-94609908D01*
X179381883Y-94603501D01*
X179381881Y-94603500D01*
X179381873Y-94603500D01*
X179381865Y-94603500D01*
X179354390Y-94603500D01*
X179347367Y-94603101D01*
X179323636Y-94600397D01*
X179314797Y-94600657D01*
X179314794Y-94600657D01*
X179314787Y-94600658D01*
X179293912Y-94602348D01*
X179282176Y-94603298D01*
X179277172Y-94603500D01*
X177486129Y-94603500D01*
X177486123Y-94603501D01*
X177426516Y-94609908D01*
X177291671Y-94660202D01*
X177291664Y-94660206D01*
X177176455Y-94746452D01*
X177176452Y-94746455D01*
X177090206Y-94861664D01*
X177090202Y-94861671D01*
X177039908Y-94996517D01*
X177033501Y-95056116D01*
X177033500Y-95056135D01*
X177033500Y-95951870D01*
X177033501Y-95951876D01*
X177039908Y-96011483D01*
X177090202Y-96146328D01*
X177090206Y-96146335D01*
X177176452Y-96261544D01*
X177176455Y-96261547D01*
X177291664Y-96347793D01*
X177291671Y-96347797D01*
X177426517Y-96398091D01*
X177426516Y-96398091D01*
X177433444Y-96398835D01*
X177486127Y-96404500D01*
X179287702Y-96404499D01*
X179308956Y-96406334D01*
X179309715Y-96406466D01*
X179314733Y-96407339D01*
X179320636Y-96407513D01*
X179323584Y-96407600D01*
X179323586Y-96407600D01*
X179323587Y-96407599D01*
X179323588Y-96407600D01*
X179375435Y-96406466D01*
X179383525Y-96404690D01*
X179390188Y-96403603D01*
X179441483Y-96398091D01*
X179477197Y-96384769D01*
X179485569Y-96382303D01*
X179515973Y-96375634D01*
X179817945Y-96262395D01*
X179861484Y-96254500D01*
X181962889Y-96254500D01*
X182011777Y-96264543D01*
X182344620Y-96407339D01*
X183341535Y-96835033D01*
X183349671Y-96837965D01*
X183397929Y-96855358D01*
X183397938Y-96855359D01*
X183404014Y-96856878D01*
X183403994Y-96856955D01*
X183419072Y-96860600D01*
X183503771Y-96889677D01*
X183551018Y-96905898D01*
X183629265Y-96918955D01*
X183779951Y-96944100D01*
X183779952Y-96944100D01*
X184012048Y-96944100D01*
X184012049Y-96944100D01*
X184240981Y-96905898D01*
X184460503Y-96830536D01*
X184664626Y-96720070D01*
X184669785Y-96716055D01*
X184758507Y-96647000D01*
X184847784Y-96577513D01*
X185004979Y-96406753D01*
X185006801Y-96403965D01*
X185091824Y-96273826D01*
X185131924Y-96212449D01*
X185225157Y-95999900D01*
X185282134Y-95774905D01*
X185288605Y-95696809D01*
X185301300Y-95543606D01*
X185301300Y-95543593D01*
X185282135Y-95312302D01*
X185282131Y-95312282D01*
X185262724Y-95235646D01*
X185225157Y-95087300D01*
X185203624Y-95038211D01*
X185196653Y-95017544D01*
X185192637Y-95000935D01*
X185192635Y-95000930D01*
X185192633Y-95000923D01*
X184941165Y-94371454D01*
X184920449Y-94319599D01*
X184913859Y-94250043D01*
X184920450Y-94227597D01*
X184928050Y-94208575D01*
X185092689Y-93796452D01*
X185192633Y-93546275D01*
X185192637Y-93546264D01*
X185209050Y-93498336D01*
X185209050Y-93498331D01*
X185210888Y-93492966D01*
X185212767Y-93488145D01*
X185216684Y-93479217D01*
X185225157Y-93459900D01*
X185282134Y-93234905D01*
X185282135Y-93234897D01*
X185301300Y-93003606D01*
X185301300Y-93003593D01*
X185282135Y-92772302D01*
X185282133Y-92772291D01*
X185225157Y-92547299D01*
X185131924Y-92334751D01*
X185004983Y-92140452D01*
X185004980Y-92140449D01*
X185004979Y-92140447D01*
X184847784Y-91969687D01*
X184847779Y-91969683D01*
X184847777Y-91969681D01*
X184664634Y-91827135D01*
X184664628Y-91827131D01*
X184460504Y-91716664D01*
X184460495Y-91716661D01*
X184240984Y-91641302D01*
X184069282Y-91612650D01*
X184012049Y-91603100D01*
X183779951Y-91603100D01*
X183741750Y-91609474D01*
X183551020Y-91641301D01*
X183386882Y-91697649D01*
X183380423Y-91699482D01*
X183360440Y-91704001D01*
X182550023Y-92013837D01*
X182480375Y-92019391D01*
X182418780Y-91986408D01*
X182418061Y-91985694D01*
X179439966Y-89007598D01*
X179406481Y-88946275D01*
X179403647Y-88919917D01*
X179403647Y-88277000D01*
X179398500Y-88205039D01*
X179398499Y-88205034D01*
X179357954Y-88066949D01*
X179348544Y-88052307D01*
X179280143Y-87945872D01*
X179254446Y-87923606D01*
X182490700Y-87923606D01*
X182509864Y-88154897D01*
X182509866Y-88154908D01*
X182566842Y-88379900D01*
X182660075Y-88592448D01*
X182787016Y-88786747D01*
X182787019Y-88786751D01*
X182787021Y-88786753D01*
X182944216Y-88957513D01*
X182944219Y-88957515D01*
X182944222Y-88957518D01*
X183127365Y-89100064D01*
X183127371Y-89100068D01*
X183127374Y-89100070D01*
X183168335Y-89122237D01*
X183320646Y-89204664D01*
X183331497Y-89210536D01*
X183402010Y-89234743D01*
X183551015Y-89285897D01*
X183551017Y-89285897D01*
X183551019Y-89285898D01*
X183779951Y-89324100D01*
X183779952Y-89324100D01*
X184012048Y-89324100D01*
X184012049Y-89324100D01*
X184240981Y-89285898D01*
X184460503Y-89210536D01*
X184664626Y-89100070D01*
X184670182Y-89095746D01*
X184756316Y-89028705D01*
X184847784Y-88957513D01*
X185004979Y-88786753D01*
X185131924Y-88592449D01*
X185225157Y-88379900D01*
X185282134Y-88154905D01*
X185283299Y-88140846D01*
X185301300Y-87923606D01*
X185301300Y-87923593D01*
X185282135Y-87692302D01*
X185282133Y-87692291D01*
X185225157Y-87467299D01*
X185131924Y-87254751D01*
X185004983Y-87060452D01*
X185004980Y-87060449D01*
X185004979Y-87060447D01*
X184847784Y-86889687D01*
X184670180Y-86751453D01*
X184629368Y-86694743D01*
X184625693Y-86624970D01*
X184660324Y-86564287D01*
X184670181Y-86555746D01*
X184847784Y-86417513D01*
X185004979Y-86246753D01*
X185131924Y-86052449D01*
X185225157Y-85839900D01*
X185282134Y-85614905D01*
X185282135Y-85614897D01*
X185301300Y-85383606D01*
X185301300Y-85383593D01*
X185282135Y-85152302D01*
X185282133Y-85152291D01*
X185225157Y-84927299D01*
X185131924Y-84714751D01*
X185004983Y-84520452D01*
X185004980Y-84520449D01*
X185004979Y-84520447D01*
X184847784Y-84349687D01*
X184847779Y-84349683D01*
X184847777Y-84349681D01*
X184664634Y-84207135D01*
X184664628Y-84207131D01*
X184460504Y-84096664D01*
X184460495Y-84096661D01*
X184240984Y-84021302D01*
X184069282Y-83992650D01*
X184012049Y-83983100D01*
X183779951Y-83983100D01*
X183734164Y-83990740D01*
X183551015Y-84021302D01*
X183331504Y-84096661D01*
X183331495Y-84096664D01*
X183127371Y-84207131D01*
X183127365Y-84207135D01*
X182944222Y-84349681D01*
X182944219Y-84349684D01*
X182787016Y-84520452D01*
X182660075Y-84714751D01*
X182566842Y-84927299D01*
X182509866Y-85152291D01*
X182509864Y-85152302D01*
X182490700Y-85383593D01*
X182490700Y-85383606D01*
X182509864Y-85614897D01*
X182509866Y-85614908D01*
X182566842Y-85839900D01*
X182660075Y-86052448D01*
X182787016Y-86246747D01*
X182787019Y-86246751D01*
X182787021Y-86246753D01*
X182944216Y-86417513D01*
X182944219Y-86417515D01*
X182944222Y-86417518D01*
X183121818Y-86555747D01*
X183162631Y-86612457D01*
X183166306Y-86682230D01*
X183131674Y-86742913D01*
X183121818Y-86751453D01*
X182944222Y-86889681D01*
X182944219Y-86889684D01*
X182787016Y-87060452D01*
X182660075Y-87254751D01*
X182566842Y-87467299D01*
X182509866Y-87692291D01*
X182509864Y-87692302D01*
X182490700Y-87923593D01*
X182490700Y-87923606D01*
X179254446Y-87923606D01*
X179171373Y-87851623D01*
X179167322Y-87849773D01*
X179040456Y-87791834D01*
X178933812Y-87776502D01*
X178898000Y-87771353D01*
X177898000Y-87771353D01*
X177834463Y-87775360D01*
X177834452Y-87775362D01*
X177695709Y-87813581D01*
X177695699Y-87813586D01*
X177573342Y-87889344D01*
X177573341Y-87889345D01*
X177524290Y-87944068D01*
X177481251Y-87992084D01*
X177477269Y-87996526D01*
X176977276Y-88746518D01*
X176968090Y-88760811D01*
X176910509Y-88892716D01*
X176892423Y-89035493D01*
X163683584Y-89035493D01*
X154020303Y-79372212D01*
X154010480Y-79359950D01*
X154010259Y-79360134D01*
X154005286Y-79354123D01*
X153954864Y-79306773D01*
X153939808Y-79291717D01*
X153933975Y-79285883D01*
X153928486Y-79281625D01*
X153924061Y-79277847D01*
X153890082Y-79245938D01*
X153890080Y-79245936D01*
X153890077Y-79245935D01*
X153872529Y-79236288D01*
X153856263Y-79225604D01*
X153840433Y-79213325D01*
X153797668Y-79194818D01*
X153792422Y-79192248D01*
X153751593Y-79169803D01*
X153751592Y-79169802D01*
X153732193Y-79164822D01*
X153713781Y-79158518D01*
X153695398Y-79150562D01*
X153695392Y-79150560D01*
X153649374Y-79143272D01*
X153643652Y-79142087D01*
X153598521Y-79130500D01*
X153598519Y-79130500D01*
X153578484Y-79130500D01*
X153559086Y-79128973D01*
X153551662Y-79127797D01*
X153539305Y-79125840D01*
X153539304Y-79125840D01*
X153492916Y-79130225D01*
X153487078Y-79130500D01*
X116471758Y-79130500D01*
X116404719Y-79110815D01*
X116358964Y-79058012D01*
X116342904Y-79022846D01*
X116342904Y-79022845D01*
X116342899Y-79022838D01*
X116342894Y-79022828D01*
X116265103Y-78901783D01*
X116265088Y-78901762D01*
X116170943Y-78793113D01*
X116170940Y-78793110D01*
X116062170Y-78698861D01*
X116062164Y-78698857D01*
X115941221Y-78621131D01*
X115941217Y-78621129D01*
X115941216Y-78621129D01*
X115810300Y-78561342D01*
X115712158Y-78532525D01*
X115672342Y-78520834D01*
X115529889Y-78500353D01*
X114958000Y-78500353D01*
X114886040Y-78505499D01*
X114848728Y-78516455D01*
X114796149Y-78520215D01*
X114658000Y-78500353D01*
X114086111Y-78500353D01*
X114086110Y-78500353D01*
X113943658Y-78520834D01*
X113943656Y-78520834D01*
X113805700Y-78561342D01*
X113674784Y-78621129D01*
X113674782Y-78621129D01*
X113553831Y-78698860D01*
X113445060Y-78793108D01*
X113445058Y-78793110D01*
X113350911Y-78901762D01*
X113350896Y-78901783D01*
X113273102Y-79022833D01*
X113273089Y-79022856D01*
X113213183Y-79154033D01*
X113212743Y-79155758D01*
X113172821Y-79291717D01*
X113172818Y-79291727D01*
X113152358Y-79434038D01*
X113152358Y-79490397D01*
X113152353Y-79490414D01*
X113152353Y-80021556D01*
X113152358Y-80021603D01*
X113152358Y-80077960D01*
X113171558Y-80211499D01*
X113171558Y-80211502D01*
X113172819Y-80220276D01*
X113213367Y-80358368D01*
X113213372Y-80358381D01*
X113268452Y-80478989D01*
X113278396Y-80548147D01*
X113249371Y-80611703D01*
X113190593Y-80649477D01*
X113155658Y-80654500D01*
X104558754Y-80654500D01*
X104491715Y-80634815D01*
X104445960Y-80582011D01*
X104436016Y-80512853D01*
X104465041Y-80449297D01*
X104485866Y-80430183D01*
X104508997Y-80413378D01*
X104740650Y-80195842D01*
X104943212Y-79950986D01*
X105113488Y-79682674D01*
X105248793Y-79395137D01*
X105346993Y-79092908D01*
X105406539Y-78780755D01*
X105406540Y-78780744D01*
X105426493Y-78463605D01*
X181365507Y-78463605D01*
X181385459Y-78780744D01*
X181385460Y-78780751D01*
X181445008Y-79092912D01*
X181543207Y-79395138D01*
X181543209Y-79395143D01*
X181678510Y-79682670D01*
X181678513Y-79682676D01*
X181848784Y-79950981D01*
X181848787Y-79950985D01*
X181848788Y-79950986D01*
X182051350Y-80195842D01*
X182270018Y-80401184D01*
X182283001Y-80413376D01*
X182283004Y-80413379D01*
X182382285Y-80485511D01*
X182540094Y-80600166D01*
X182818568Y-80753259D01*
X182818573Y-80753261D01*
X182818575Y-80753262D01*
X182818576Y-80753263D01*
X183114031Y-80870241D01*
X183114034Y-80870242D01*
X183421836Y-80949272D01*
X183737097Y-80989099D01*
X183737106Y-80989099D01*
X183737109Y-80989100D01*
X183737111Y-80989100D01*
X184054889Y-80989100D01*
X184054891Y-80989100D01*
X184054894Y-80989099D01*
X184054902Y-80989099D01*
X184370163Y-80949272D01*
X184677965Y-80870242D01*
X184677968Y-80870241D01*
X184973423Y-80753263D01*
X184973424Y-80753262D01*
X184973422Y-80753262D01*
X184973432Y-80753259D01*
X185251906Y-80600166D01*
X185508997Y-80413378D01*
X185740650Y-80195842D01*
X185943212Y-79950986D01*
X186113488Y-79682674D01*
X186248793Y-79395137D01*
X186346993Y-79092908D01*
X186406539Y-78780755D01*
X186406540Y-78780744D01*
X186426493Y-78463605D01*
X186426493Y-78463594D01*
X186406540Y-78146455D01*
X186406539Y-78146448D01*
X186406539Y-78146445D01*
X186346993Y-77834292D01*
X186248793Y-77532063D01*
X186113488Y-77244526D01*
X185943212Y-76976214D01*
X185740650Y-76731358D01*
X185508997Y-76513822D01*
X185508995Y-76513820D01*
X185251909Y-76327036D01*
X185251908Y-76327035D01*
X185251906Y-76327034D01*
X184973432Y-76173941D01*
X184973429Y-76173939D01*
X184973424Y-76173937D01*
X184973423Y-76173936D01*
X184677968Y-76056958D01*
X184677965Y-76056957D01*
X184370163Y-75977927D01*
X184054902Y-75938100D01*
X184054891Y-75938100D01*
X183737109Y-75938100D01*
X183737097Y-75938100D01*
X183421836Y-75977927D01*
X183114034Y-76056957D01*
X183114031Y-76056958D01*
X182818576Y-76173936D01*
X182818575Y-76173937D01*
X182540094Y-76327034D01*
X182540090Y-76327036D01*
X182283004Y-76513820D01*
X182283001Y-76513823D01*
X182051352Y-76731356D01*
X181848784Y-76976218D01*
X181678513Y-77244523D01*
X181678510Y-77244529D01*
X181543209Y-77532056D01*
X181543207Y-77532061D01*
X181445008Y-77834287D01*
X181385460Y-78146448D01*
X181385459Y-78146455D01*
X181365507Y-78463594D01*
X181365507Y-78463605D01*
X105426493Y-78463605D01*
X105426493Y-78463594D01*
X105406540Y-78146455D01*
X105406539Y-78146448D01*
X105406539Y-78146445D01*
X105346993Y-77834292D01*
X105248793Y-77532063D01*
X105113488Y-77244526D01*
X104943212Y-76976214D01*
X104740650Y-76731358D01*
X104508997Y-76513822D01*
X104508995Y-76513820D01*
X104251909Y-76327036D01*
X104251908Y-76327035D01*
X104251906Y-76327034D01*
X103973432Y-76173941D01*
X103973429Y-76173939D01*
X103973424Y-76173937D01*
X103973423Y-76173936D01*
X103677968Y-76056958D01*
X103677965Y-76056957D01*
X103370163Y-75977927D01*
X103054902Y-75938100D01*
X103054891Y-75938100D01*
X102737109Y-75938100D01*
X102737097Y-75938100D01*
X102421836Y-75977927D01*
X102114034Y-76056957D01*
X102114031Y-76056958D01*
X101818576Y-76173936D01*
X101818575Y-76173937D01*
X101540094Y-76327034D01*
X101540090Y-76327036D01*
X101283004Y-76513820D01*
X101283001Y-76513823D01*
X101051352Y-76731356D01*
X100848784Y-76976218D01*
X100678513Y-77244523D01*
X100678510Y-77244529D01*
X100543209Y-77532056D01*
X100543207Y-77532061D01*
X100445008Y-77834287D01*
X100385460Y-78146448D01*
X100385459Y-78146455D01*
X100365507Y-78463594D01*
X100365507Y-78463605D01*
X100385459Y-78780744D01*
X100385460Y-78780751D01*
X100445008Y-79092912D01*
X100543207Y-79395138D01*
X100543209Y-79395143D01*
X100678510Y-79682670D01*
X100678513Y-79682676D01*
X100848784Y-79950981D01*
X100848787Y-79950985D01*
X100848788Y-79950986D01*
X101051350Y-80195842D01*
X101283003Y-80413378D01*
X101306131Y-80430182D01*
X101348797Y-80485511D01*
X101354776Y-80555124D01*
X101322171Y-80616920D01*
X101261332Y-80651277D01*
X101233246Y-80654500D01*
X95078743Y-80654500D01*
X95063122Y-80652775D01*
X95063096Y-80653061D01*
X95055334Y-80652327D01*
X95055333Y-80652327D01*
X94986186Y-80654500D01*
X94956649Y-80654500D01*
X94949766Y-80655369D01*
X94943949Y-80655826D01*
X94897373Y-80657290D01*
X94878129Y-80662881D01*
X94859079Y-80666825D01*
X94839211Y-80669334D01*
X94795884Y-80686488D01*
X94790358Y-80688379D01*
X94745614Y-80701379D01*
X94745610Y-80701381D01*
X94728366Y-80711579D01*
X94710905Y-80720133D01*
X94692274Y-80727510D01*
X94692262Y-80727517D01*
X94654570Y-80754902D01*
X94649687Y-80758109D01*
X94609580Y-80781829D01*
X94595414Y-80795995D01*
X94580624Y-80808627D01*
X94564414Y-80820404D01*
X94564411Y-80820407D01*
X94534710Y-80856309D01*
X94530777Y-80860631D01*
X88389208Y-87002199D01*
X88376951Y-87012020D01*
X88377134Y-87012241D01*
X88371123Y-87017213D01*
X88323772Y-87067636D01*
X88302889Y-87088519D01*
X88302877Y-87088532D01*
X88298621Y-87094017D01*
X88294837Y-87098447D01*
X88262937Y-87132418D01*
X88262936Y-87132420D01*
X88253284Y-87149976D01*
X88242610Y-87166226D01*
X88230329Y-87182061D01*
X88230324Y-87182068D01*
X88211815Y-87224838D01*
X88209245Y-87230084D01*
X88186803Y-87270906D01*
X88181822Y-87290307D01*
X88175521Y-87308710D01*
X88167562Y-87327102D01*
X88167561Y-87327105D01*
X88160271Y-87373127D01*
X88159087Y-87378846D01*
X88147501Y-87423972D01*
X88147500Y-87423982D01*
X88147500Y-87444016D01*
X88145973Y-87463415D01*
X88142840Y-87483194D01*
X88142840Y-87483195D01*
X87376000Y-87483195D01*
X87376000Y-74546000D01*
X87395685Y-74478961D01*
X87448489Y-74433206D01*
X87500000Y-74422000D01*
X186820000Y-74422000D01*
X186887039Y-74441685D01*
G37*
%TD.AperFunction*%
%TD*%
%TA.AperFunction,Conductor*%
%TO.N,/BackLight*%
G36*
X90992179Y-97142570D02*
G01*
X90992608Y-97143491D01*
X91311846Y-97913219D01*
X91311850Y-97922174D01*
X91311844Y-97922190D01*
X90992552Y-98690664D01*
X90986213Y-98696989D01*
X90977258Y-98696980D01*
X90976473Y-98696619D01*
X89553393Y-97978026D01*
X89547553Y-97971238D01*
X89548223Y-97962308D01*
X89550391Y-97959312D01*
X89714468Y-97795235D01*
X89717332Y-97793134D01*
X90976401Y-97137594D01*
X90985318Y-97136814D01*
X90992179Y-97142570D01*
G37*
%TD.AperFunction*%
%TD*%
%TA.AperFunction,Conductor*%
%TO.N,/D0*%
G36*
X104616268Y-85044050D02*
G01*
X105432512Y-85381743D01*
X105438846Y-85388072D01*
X105438853Y-85388088D01*
X105775568Y-86203358D01*
X105775559Y-86212312D01*
X105769220Y-86218638D01*
X105768325Y-86218966D01*
X104160919Y-86734105D01*
X104151994Y-86733366D01*
X104146206Y-86726534D01*
X104145648Y-86722963D01*
X104145648Y-86490808D01*
X104146193Y-86487278D01*
X104600661Y-85051338D01*
X104606425Y-85044485D01*
X104615346Y-85043714D01*
X104616268Y-85044050D01*
G37*
%TD.AperFunction*%
%TD*%
%TA.AperFunction,Conductor*%
%TO.N,/D0*%
G36*
X94711217Y-89454008D02*
G01*
X95548893Y-90168497D01*
X95552963Y-90176472D01*
X95553000Y-90177398D01*
X95553000Y-90416601D01*
X95549573Y-90424874D01*
X95548893Y-90425503D01*
X94711218Y-91139990D01*
X94702699Y-91142751D01*
X94695357Y-91139366D01*
X93980024Y-90424874D01*
X93860286Y-90305276D01*
X93856855Y-90297007D01*
X93860276Y-90288733D01*
X94695358Y-89454632D01*
X94703632Y-89451211D01*
X94711217Y-89454008D01*
G37*
%TD.AperFunction*%
%TD*%
%TA.AperFunction,Conductor*%
%TO.N,Net-(JP5-A)*%
G36*
X115743380Y-101669427D02*
G01*
X115745341Y-101672030D01*
X116081321Y-102278409D01*
X116082333Y-102287306D01*
X116077807Y-102293656D01*
X115623720Y-102612284D01*
X115614980Y-102614231D01*
X115610280Y-102612284D01*
X115156192Y-102293656D01*
X115151388Y-102286099D01*
X115152677Y-102278410D01*
X115488659Y-101672030D01*
X115495666Y-101666454D01*
X115498893Y-101666000D01*
X115735107Y-101666000D01*
X115743380Y-101669427D01*
G37*
%TD.AperFunction*%
%TD*%
%TA.AperFunction,Conductor*%
%TO.N,Net-(JP5-A)*%
G36*
X118487224Y-102166204D02*
G01*
X118866467Y-102608383D01*
X118869252Y-102616894D01*
X118866467Y-102623617D01*
X118487224Y-103065795D01*
X118479237Y-103069844D01*
X118472832Y-103068499D01*
X117865689Y-102744304D01*
X117860005Y-102737384D01*
X117859500Y-102733983D01*
X117859500Y-102498016D01*
X117862927Y-102489743D01*
X117865687Y-102487695D01*
X118472833Y-102163499D01*
X118481744Y-102162626D01*
X118487224Y-102166204D01*
G37*
%TD.AperFunction*%
%TD*%
%TA.AperFunction,Conductor*%
%TO.N,Net-(JP5-A)*%
G36*
X115966747Y-102163810D02*
G01*
X116573311Y-102487695D01*
X116578995Y-102494615D01*
X116579500Y-102498016D01*
X116579500Y-102733983D01*
X116576073Y-102742256D01*
X116573311Y-102744304D01*
X115966747Y-103068189D01*
X115957835Y-103069063D01*
X115951868Y-103064877D01*
X115709530Y-102741000D01*
X115621243Y-102623008D01*
X115619031Y-102614332D01*
X115621244Y-102608991D01*
X115712003Y-102487695D01*
X115951869Y-102167121D01*
X115959568Y-102162550D01*
X115966747Y-102163810D01*
G37*
%TD.AperFunction*%
%TD*%
%TA.AperFunction,Conductor*%
%TO.N,Net-(Q2-B)*%
G36*
X174239978Y-94156654D02*
G01*
X174627236Y-94328577D01*
X175110911Y-94543306D01*
X175117082Y-94549795D01*
X175116858Y-94558747D01*
X175110911Y-94564694D01*
X174239981Y-94951344D01*
X174231029Y-94951568D01*
X174228606Y-94950291D01*
X173839072Y-94682487D01*
X173834196Y-94674976D01*
X173834000Y-94672846D01*
X173834000Y-94435154D01*
X173837427Y-94426881D01*
X173839072Y-94425513D01*
X174228606Y-94157707D01*
X174237364Y-94155845D01*
X174239978Y-94156654D01*
G37*
%TD.AperFunction*%
%TD*%
%TA.AperFunction,Conductor*%
%TO.N,Net-(Q2-B)*%
G36*
X170433461Y-94041563D02*
G01*
X171033607Y-94425549D01*
X171038728Y-94432893D01*
X171039000Y-94435403D01*
X171039000Y-94671279D01*
X171035573Y-94679552D01*
X171031902Y-94682036D01*
X170425845Y-94941302D01*
X170416891Y-94941405D01*
X170411875Y-94937554D01*
X170080826Y-94495118D01*
X170078613Y-94486441D01*
X170080931Y-94480961D01*
X170116085Y-94435403D01*
X170417893Y-94044269D01*
X170425659Y-94039814D01*
X170433461Y-94041563D01*
G37*
%TD.AperFunction*%
%TD*%
%TA.AperFunction,Conductor*%
%TO.N,Net-(Q2-B)*%
G36*
X170153318Y-96589427D02*
G01*
X170154942Y-96591460D01*
X170496034Y-97132462D01*
X170497548Y-97141288D01*
X170493628Y-97147690D01*
X170033991Y-97530756D01*
X170025441Y-97533420D01*
X170019009Y-97530756D01*
X169559371Y-97147690D01*
X169555210Y-97139761D01*
X169556964Y-97132463D01*
X169898058Y-96591460D01*
X169905369Y-96586289D01*
X169907955Y-96586000D01*
X170145045Y-96586000D01*
X170153318Y-96589427D01*
G37*
%TD.AperFunction*%
%TD*%
%TA.AperFunction,Conductor*%
%TO.N,Net-(Q2-B)*%
G36*
X170083303Y-94492167D02*
G01*
X170525332Y-94827890D01*
X170529847Y-94835623D01*
X170528139Y-94843468D01*
X170251263Y-95280521D01*
X170155740Y-95431308D01*
X170154946Y-95432561D01*
X170147623Y-95437716D01*
X170145062Y-95438000D01*
X169908904Y-95438000D01*
X169900631Y-95434573D01*
X169898330Y-95431308D01*
X169611301Y-94825302D01*
X169610858Y-94816360D01*
X169615155Y-94810720D01*
X170069507Y-94491906D01*
X170078246Y-94489960D01*
X170083303Y-94492167D01*
G37*
%TD.AperFunction*%
%TD*%
%TA.AperFunction,Conductor*%
%TO.N,Net-(DS1-VO)*%
G36*
X105790950Y-94717243D02*
G01*
X105791550Y-94717512D01*
X107229410Y-95415401D01*
X107235355Y-95422096D01*
X107236000Y-95425926D01*
X107236000Y-95661273D01*
X107232573Y-95669546D01*
X107229409Y-95671799D01*
X105791571Y-96369677D01*
X105782632Y-96370206D01*
X105775936Y-96364260D01*
X105775657Y-96363639D01*
X105436864Y-95548088D01*
X105436855Y-95539134D01*
X105436864Y-95539112D01*
X105775658Y-94723558D01*
X105781996Y-94717234D01*
X105790950Y-94717243D01*
G37*
%TD.AperFunction*%
%TD*%
%TA.AperFunction,Conductor*%
%TO.N,/RS*%
G36*
X94188836Y-94596791D02*
G01*
X94189413Y-94597049D01*
X95546366Y-95248814D01*
X95552339Y-95255484D01*
X95553000Y-95259360D01*
X95553000Y-95494639D01*
X95549573Y-95502912D01*
X95546366Y-95505186D01*
X94189413Y-96156950D01*
X94180471Y-96157442D01*
X94173800Y-96151469D01*
X94173542Y-96150892D01*
X93853865Y-95381489D01*
X93853856Y-95372534D01*
X93853865Y-95372511D01*
X94173542Y-94603107D01*
X94179881Y-94596782D01*
X94188836Y-94596791D01*
G37*
%TD.AperFunction*%
%TD*%
%TA.AperFunction,Conductor*%
%TO.N,/RS*%
G36*
X102549930Y-94716402D02*
G01*
X102555936Y-94722584D01*
X102895135Y-95539112D01*
X102895144Y-95548066D01*
X102895135Y-95548088D01*
X102556838Y-96362445D01*
X102550499Y-96368771D01*
X102541545Y-96368762D01*
X102539913Y-96367928D01*
X101134719Y-95505424D01*
X101129460Y-95498176D01*
X101129139Y-95495453D01*
X101129139Y-95260074D01*
X101132566Y-95251801D01*
X101136687Y-95249135D01*
X102540980Y-94716133D01*
X102549930Y-94716402D01*
G37*
%TD.AperFunction*%
%TD*%
%TA.AperFunction,Conductor*%
%TO.N,Net-(DS1-E)*%
G36*
X104082419Y-91645347D02*
G01*
X104085583Y-91647600D01*
X104251999Y-91814016D01*
X104255426Y-91822289D01*
X104254781Y-91826119D01*
X103731551Y-93336297D01*
X103725605Y-93342993D01*
X103716666Y-93343522D01*
X103716030Y-93343281D01*
X102899785Y-93006162D01*
X102893446Y-92999836D01*
X102893437Y-92999814D01*
X102556318Y-92183567D01*
X102556327Y-92174615D01*
X102562666Y-92168289D01*
X102563288Y-92168052D01*
X104073481Y-91644818D01*
X104082419Y-91645347D01*
G37*
%TD.AperFunction*%
%TD*%
%TA.AperFunction,Conductor*%
%TO.N,/D1*%
G36*
X91438912Y-88600427D02*
G01*
X91441186Y-88603634D01*
X92092950Y-89960586D01*
X92093442Y-89969528D01*
X92087469Y-89976199D01*
X92086892Y-89976457D01*
X91317489Y-90296134D01*
X91308534Y-90296143D01*
X91308511Y-90296134D01*
X90539107Y-89976457D01*
X90532782Y-89970118D01*
X90532791Y-89961163D01*
X90533049Y-89960586D01*
X91184814Y-88603634D01*
X91191485Y-88597661D01*
X91195361Y-88597000D01*
X91430639Y-88597000D01*
X91438912Y-88600427D01*
G37*
%TD.AperFunction*%
%TD*%
%TA.AperFunction,Conductor*%
%TO.N,/D1*%
G36*
X102556063Y-82022939D02*
G01*
X102556342Y-82023560D01*
X102895135Y-82839112D01*
X102895144Y-82848066D01*
X102895135Y-82848088D01*
X102556342Y-83663639D01*
X102550003Y-83669965D01*
X102541049Y-83669956D01*
X102540428Y-83669677D01*
X101102591Y-82971799D01*
X101096645Y-82965103D01*
X101096000Y-82961273D01*
X101096000Y-82725926D01*
X101099427Y-82717653D01*
X101102586Y-82715402D01*
X102540430Y-82017521D01*
X102549367Y-82016993D01*
X102556063Y-82022939D01*
G37*
%TD.AperFunction*%
%TD*%
%TA.AperFunction,Conductor*%
%TO.N,Net-(Q2-C)*%
G36*
X184716833Y-93343587D02*
G01*
X184723159Y-93349926D01*
X184723210Y-93358732D01*
X184148940Y-94796240D01*
X184142689Y-94802652D01*
X184138075Y-94803600D01*
X183653925Y-94803600D01*
X183645652Y-94800173D01*
X183643060Y-94796240D01*
X183068789Y-93358732D01*
X183068902Y-93349778D01*
X183075165Y-93343587D01*
X183891512Y-93004463D01*
X183900465Y-93004455D01*
X184716833Y-93343587D01*
G37*
%TD.AperFunction*%
%TD*%
%TA.AperFunction,Conductor*%
%TO.N,Net-(Q2-C)*%
G36*
X184146348Y-93747027D02*
G01*
X184148940Y-93750960D01*
X184723210Y-95188467D01*
X184723097Y-95197421D01*
X184716833Y-95203612D01*
X183900488Y-95542735D01*
X183891534Y-95542744D01*
X183891512Y-95542735D01*
X183075166Y-95203612D01*
X183068840Y-95197273D01*
X183068789Y-95188468D01*
X183643060Y-93750958D01*
X183649311Y-93744548D01*
X183653925Y-93743600D01*
X184138075Y-93743600D01*
X184146348Y-93747027D01*
G37*
%TD.AperFunction*%
%TD*%
%TA.AperFunction,Conductor*%
%TO.N,Net-(Q2-C)*%
G36*
X179726408Y-95251153D02*
G01*
X179732951Y-95257267D01*
X179734000Y-95262108D01*
X179734000Y-95745892D01*
X179730573Y-95754165D01*
X179726408Y-95756847D01*
X179338481Y-95902319D01*
X179329626Y-95902058D01*
X178457088Y-95514694D01*
X178450917Y-95508205D01*
X178451141Y-95499253D01*
X178457088Y-95493306D01*
X179329628Y-95105940D01*
X179338480Y-95105680D01*
X179726408Y-95251153D01*
G37*
%TD.AperFunction*%
%TD*%
%TA.AperFunction,Conductor*%
%TO.N,Net-(Q2-C)*%
G36*
X183549960Y-94716376D02*
G01*
X183555917Y-94722536D01*
X183895135Y-95539112D01*
X183895144Y-95548066D01*
X183895135Y-95548088D01*
X183556125Y-96364161D01*
X183549786Y-96370487D01*
X183540832Y-96370478D01*
X183540707Y-96370425D01*
X182110964Y-95757040D01*
X182104712Y-95750629D01*
X182103877Y-95746288D01*
X182103877Y-95262113D01*
X182107304Y-95253840D01*
X182111471Y-95251157D01*
X183541010Y-94716066D01*
X183549960Y-94716376D01*
G37*
%TD.AperFunction*%
%TD*%
%TA.AperFunction,Conductor*%
%TO.N,Net-(Q2-C)*%
G36*
X183549909Y-92176417D02*
G01*
X183555943Y-92182617D01*
X183894846Y-92999820D01*
X183894850Y-93008775D01*
X183894844Y-93008790D01*
X183556589Y-93823045D01*
X183550250Y-93829371D01*
X183541296Y-93829362D01*
X183540152Y-93828812D01*
X182014488Y-92990881D01*
X182008886Y-92983895D01*
X182009865Y-92974994D01*
X182011843Y-92972357D01*
X182352613Y-92631587D01*
X182356703Y-92628934D01*
X183540960Y-92176170D01*
X183549909Y-92176417D01*
G37*
%TD.AperFunction*%
%TD*%
%TA.AperFunction,Conductor*%
%TO.N,Net-(JP1-B)*%
G36*
X151176646Y-98853628D02*
G01*
X152011702Y-99686721D01*
X152015139Y-99694990D01*
X152011722Y-99703267D01*
X152011707Y-99703282D01*
X151176632Y-100537376D01*
X151168357Y-100540798D01*
X151160783Y-100538010D01*
X150323119Y-99825503D01*
X150319038Y-99817533D01*
X150319000Y-99816591D01*
X150319000Y-99577394D01*
X150322427Y-99569121D01*
X150323101Y-99568497D01*
X151160787Y-98853014D01*
X151169302Y-98850248D01*
X151176646Y-98853628D01*
G37*
%TD.AperFunction*%
%TD*%
%TA.AperFunction,Conductor*%
%TO.N,Net-(JP1-B)*%
G36*
X146007150Y-99036743D02*
G01*
X146007562Y-99036923D01*
X147154225Y-99568857D01*
X147160286Y-99575447D01*
X147161000Y-99579470D01*
X147161000Y-99814529D01*
X147157573Y-99822802D01*
X147154224Y-99825143D01*
X146007583Y-100357066D01*
X145998636Y-100357438D01*
X145992045Y-100351376D01*
X145991855Y-100350943D01*
X145721865Y-99701488D01*
X145721855Y-99692537D01*
X145991856Y-99043054D01*
X145998195Y-99036732D01*
X146007150Y-99036743D01*
G37*
%TD.AperFunction*%
%TD*%
%TA.AperFunction,Conductor*%
%TO.N,Net-(JP1-B)*%
G36*
X145449954Y-99042623D02*
G01*
X145450144Y-99043056D01*
X145720133Y-99692509D01*
X145720144Y-99701464D01*
X145720133Y-99701491D01*
X145450144Y-100350943D01*
X145443804Y-100357267D01*
X145434849Y-100357256D01*
X145434416Y-100357066D01*
X144287776Y-99825143D01*
X144281714Y-99818552D01*
X144281000Y-99814529D01*
X144281000Y-99579470D01*
X144284427Y-99571197D01*
X144287773Y-99568857D01*
X145434418Y-99036932D01*
X145443363Y-99036561D01*
X145449954Y-99042623D01*
G37*
%TD.AperFunction*%
%TD*%
%TA.AperFunction,Conductor*%
%TO.N,Net-(JP4-B)*%
G36*
X167600817Y-93656342D02*
G01*
X168437547Y-94008495D01*
X168443843Y-94014863D01*
X168443825Y-94023737D01*
X168254145Y-94484003D01*
X168247825Y-94490346D01*
X168247445Y-94490497D01*
X167774612Y-94668261D01*
X167765662Y-94667964D01*
X167759678Y-94661768D01*
X167689005Y-94490346D01*
X167642487Y-94377513D01*
X167419765Y-93837281D01*
X167419780Y-93828327D01*
X167422306Y-93824552D01*
X167588006Y-93658852D01*
X167596278Y-93655426D01*
X167600817Y-93656342D01*
G37*
%TD.AperFunction*%
%TD*%
%TA.AperFunction,Conductor*%
%TO.N,/Contrast*%
G36*
X92095838Y-95056441D02*
G01*
X92102163Y-95062780D01*
X92102388Y-95063370D01*
X92601031Y-96483748D01*
X92600539Y-96492690D01*
X92598265Y-96495897D01*
X92431897Y-96662265D01*
X92423624Y-96665692D01*
X92419748Y-96665031D01*
X90999370Y-96166388D01*
X90992699Y-96160415D01*
X90992207Y-96151473D01*
X90992423Y-96150905D01*
X91310438Y-95380783D01*
X91316759Y-95374448D01*
X92086884Y-95056432D01*
X92095838Y-95056441D01*
G37*
%TD.AperFunction*%
%TD*%
%TA.AperFunction,Conductor*%
%TO.N,/Contrast*%
G36*
X113141317Y-101784342D02*
G01*
X113978047Y-102136495D01*
X113984343Y-102142863D01*
X113984325Y-102151737D01*
X113794645Y-102612003D01*
X113788325Y-102618346D01*
X113787945Y-102618497D01*
X113315112Y-102796261D01*
X113306162Y-102795964D01*
X113300178Y-102789768D01*
X113229505Y-102618346D01*
X113182987Y-102505513D01*
X112960265Y-101965281D01*
X112960280Y-101956327D01*
X112962806Y-101952552D01*
X113128506Y-101786852D01*
X113136778Y-101783426D01*
X113141317Y-101784342D01*
G37*
%TD.AperFunction*%
%TD*%
M02*
