%TF.GenerationSoftware,KiCad,Pcbnew,8.0.2*%
%TF.CreationDate,2024-12-11T20:23:40+09:00*%
%TF.ProjectId,Pmod_SC1602,506d6f64-5f53-4433-9136-30322e6b6963,rev?*%
%TF.SameCoordinates,Original*%
%TF.FileFunction,Copper,L1,Top*%
%TF.FilePolarity,Positive*%
%FSLAX46Y46*%
G04 Gerber Fmt 4.6, Leading zero omitted, Abs format (unit mm)*
G04 Created by KiCad (PCBNEW 8.0.2) date 2024-12-11 20:23:40*
%MOMM*%
%LPD*%
G01*
G04 APERTURE LIST*
G04 Aperture macros list*
%AMRoundRect*
0 Rectangle with rounded corners*
0 $1 Rounding radius*
0 $2 $3 $4 $5 $6 $7 $8 $9 X,Y pos of 4 corners*
0 Add a 4 corners polygon primitive as box body*
4,1,4,$2,$3,$4,$5,$6,$7,$8,$9,$2,$3,0*
0 Add four circle primitives for the rounded corners*
1,1,$1+$1,$2,$3*
1,1,$1+$1,$4,$5*
1,1,$1+$1,$6,$7*
1,1,$1+$1,$8,$9*
0 Add four rect primitives between the rounded corners*
20,1,$1+$1,$2,$3,$4,$5,0*
20,1,$1+$1,$4,$5,$6,$7,0*
20,1,$1+$1,$6,$7,$8,$9,0*
20,1,$1+$1,$8,$9,$2,$3,0*%
%AMFreePoly0*
4,1,6,1.000000,0.000000,0.500000,-0.750000,-0.500000,-0.750000,-0.500000,0.750000,0.500000,0.750000,1.000000,0.000000,1.000000,0.000000,$1*%
%AMFreePoly1*
4,1,6,0.500000,-0.750000,-0.650000,-0.750000,-0.150000,0.000000,-0.650000,0.750000,0.500000,0.750000,0.500000,-0.750000,0.500000,-0.750000,$1*%
G04 Aperture macros list end*
%TA.AperFunction,ComponentPad*%
%ADD10R,1.700000X1.700000*%
%TD*%
%TA.AperFunction,ComponentPad*%
%ADD11O,1.700000X1.700000*%
%TD*%
%TA.AperFunction,SMDPad,CuDef*%
%ADD12RoundRect,0.237500X0.300000X0.237500X-0.300000X0.237500X-0.300000X-0.237500X0.300000X-0.237500X0*%
%TD*%
%TA.AperFunction,ComponentPad*%
%ADD13C,1.440000*%
%TD*%
%TA.AperFunction,SMDPad,CuDef*%
%ADD14R,1.800000X0.800000*%
%TD*%
%TA.AperFunction,SMDPad,CuDef*%
%ADD15RoundRect,0.237500X-0.237500X0.300000X-0.237500X-0.300000X0.237500X-0.300000X0.237500X0.300000X0*%
%TD*%
%TA.AperFunction,SMDPad,CuDef*%
%ADD16RoundRect,0.250000X-0.475000X0.337500X-0.475000X-0.337500X0.475000X-0.337500X0.475000X0.337500X0*%
%TD*%
%TA.AperFunction,SMDPad,CuDef*%
%ADD17RoundRect,0.237500X0.237500X-0.250000X0.237500X0.250000X-0.237500X0.250000X-0.237500X-0.250000X0*%
%TD*%
%TA.AperFunction,ComponentPad*%
%ADD18R,1.800000X1.800000*%
%TD*%
%TA.AperFunction,ComponentPad*%
%ADD19C,1.800000*%
%TD*%
%TA.AperFunction,ComponentPad*%
%ADD20C,4.050000*%
%TD*%
%TA.AperFunction,SMDPad,CuDef*%
%ADD21RoundRect,0.237500X-0.250000X-0.237500X0.250000X-0.237500X0.250000X0.237500X-0.250000X0.237500X0*%
%TD*%
%TA.AperFunction,SMDPad,CuDef*%
%ADD22FreePoly0,180.000000*%
%TD*%
%TA.AperFunction,SMDPad,CuDef*%
%ADD23FreePoly1,180.000000*%
%TD*%
%TA.AperFunction,SMDPad,CuDef*%
%ADD24RoundRect,0.200000X0.700000X0.200000X-0.700000X0.200000X-0.700000X-0.200000X0.700000X-0.200000X0*%
%TD*%
%TA.AperFunction,ViaPad*%
%ADD25C,0.800000*%
%TD*%
%TA.AperFunction,Conductor*%
%ADD26C,0.250000*%
%TD*%
%TA.AperFunction,Conductor*%
%ADD27C,0.500000*%
%TD*%
G04 APERTURE END LIST*
D10*
%TO.P,J2,1,Pin_1*%
%TO.N,Net-(J2-Pin_1)*%
X120777000Y-96393000D03*
D11*
%TO.P,J2,2,Pin_2*%
%TO.N,Net-(DS1-VO)*%
X120777000Y-98933000D03*
%TD*%
D12*
%TO.P,C2,1*%
%TO.N,Net-(Q2-B)*%
X170026500Y-97536000D03*
%TO.P,C2,2*%
%TO.N,GND*%
X168301500Y-97536000D03*
%TD*%
D13*
%TO.P,RV2,1,1*%
%TO.N,unconnected-(RV2-Pad1)*%
X114681000Y-98313000D03*
%TO.P,RV2,2,2*%
%TO.N,Net-(DS1-VO)*%
X114681000Y-100853000D03*
%TO.P,RV2,3,3*%
%TO.N,GND*%
X114681000Y-103393000D03*
%TD*%
D10*
%TO.P,J1,1,Pin_1*%
%TO.N,/D0*%
X93853000Y-90297000D03*
D11*
%TO.P,J1,2,Pin_2*%
%TO.N,/D2*%
X93853000Y-92837000D03*
%TO.P,J1,3,Pin_3*%
%TO.N,/RS*%
X93853000Y-95377000D03*
%TO.P,J1,4,Pin_4*%
%TO.N,Net-(DS1-E)*%
X93853000Y-97917000D03*
%TO.P,J1,5,Pin_5*%
%TO.N,GND*%
X93853000Y-100457000D03*
%TO.P,J1,6,Pin_6*%
%TO.N,VCC*%
X93853000Y-102997000D03*
%TO.P,J1,7,Pin_7*%
%TO.N,/D3*%
X91313000Y-90297000D03*
%TO.P,J1,8,Pin_8*%
%TO.N,/D1*%
X91313000Y-92837000D03*
%TO.P,J1,9,Pin_9*%
%TO.N,Net-(J1-Pin_9)*%
X91313000Y-95377000D03*
%TO.P,J1,10,Pin_10*%
%TO.N,/BackLight*%
X91313000Y-97917000D03*
%TO.P,J1,11,Pin_11*%
%TO.N,GND*%
X91313000Y-100457000D03*
%TO.P,J1,12,Pin_12*%
%TO.N,VCC*%
X91313000Y-102997000D03*
%TD*%
D14*
%TO.P,Q2,1,B*%
%TO.N,Net-(Q2-B)*%
X175134000Y-94554000D03*
%TO.P,Q2,2,E*%
%TO.N,GND*%
X175134000Y-96454000D03*
%TO.P,Q2,3,C*%
%TO.N,Net-(JP2-A)*%
X178434000Y-95504000D03*
%TD*%
D15*
%TO.P,C3,1*%
%TO.N,VCC*%
X108458000Y-99975500D03*
%TO.P,C3,2*%
%TO.N,GND*%
X108458000Y-101700500D03*
%TD*%
D16*
%TO.P,C1,1*%
%TO.N,Net-(J2-Pin_1)*%
X128524000Y-96369500D03*
%TO.P,C1,2*%
%TO.N,GND*%
X128524000Y-98444500D03*
%TD*%
D17*
%TO.P,R1,1*%
%TO.N,/Contrast*%
X125730000Y-98171000D03*
%TO.P,R1,2*%
%TO.N,Net-(J2-Pin_1)*%
X125730000Y-96346000D03*
%TD*%
D10*
%TO.P,J3,1,Pin_1*%
%TO.N,Net-(J1-Pin_9)*%
X114554000Y-92837000D03*
D11*
%TO.P,J3,2,Pin_2*%
%TO.N,/R{slash}W*%
X114554000Y-90297000D03*
%TO.P,J3,3,Pin_3*%
%TO.N,GND*%
X114554000Y-87757000D03*
%TD*%
D18*
%TO.P,DS1,1,VDD*%
%TO.N,VCC*%
X105436000Y-98083600D03*
D19*
%TO.P,DS1,2,VSS*%
%TO.N,GND*%
X102896000Y-98083600D03*
%TO.P,DS1,3,VO*%
%TO.N,Net-(DS1-VO)*%
X105436000Y-95543600D03*
%TO.P,DS1,4,RS*%
%TO.N,/RS*%
X102896000Y-95543600D03*
%TO.P,DS1,5,R/W*%
%TO.N,/R{slash}W*%
X105436000Y-93003600D03*
%TO.P,DS1,6,E*%
%TO.N,Net-(DS1-E)*%
X102896000Y-93003600D03*
%TO.P,DS1,7,DB0*%
%TO.N,unconnected-(DS1-DB0-Pad7)*%
X105436000Y-90463600D03*
%TO.P,DS1,8,DB1*%
%TO.N,unconnected-(DS1-DB1-Pad8)*%
X102896000Y-90463600D03*
%TO.P,DS1,9,DB2*%
%TO.N,unconnected-(DS1-DB2-Pad9)*%
X105436000Y-87923600D03*
%TO.P,DS1,10,DB3*%
%TO.N,unconnected-(DS1-DB3-Pad10)*%
X102896000Y-87923600D03*
%TO.P,DS1,11,DB4*%
%TO.N,/D0*%
X105436000Y-85383600D03*
%TO.P,DS1,12,DB5*%
%TO.N,/D1*%
X102896000Y-85383600D03*
%TO.P,DS1,13,DB6*%
%TO.N,/D2*%
X105436000Y-82843600D03*
%TO.P,DS1,14,DB7*%
%TO.N,/D3*%
X102896000Y-82843600D03*
%TO.P,DS1,A1,A1*%
%TO.N,VCC*%
X183896000Y-85383600D03*
%TO.P,DS1,A2,A2*%
X183896000Y-87923600D03*
%TO.P,DS1,K1,K1*%
%TO.N,Net-(JP2-A)*%
X183896000Y-93003600D03*
%TO.P,DS1,K2,K2*%
X183896000Y-95543600D03*
D20*
%TO.P,DS1,MH1*%
%TO.N,N/C*%
X102896000Y-102463600D03*
%TO.P,DS1,MH2*%
X102896000Y-78463600D03*
%TO.P,DS1,MH3*%
X183896000Y-78463600D03*
%TO.P,DS1,MH4*%
X183896000Y-102463600D03*
%TD*%
D21*
%TO.P,R2,1*%
%TO.N,/BackLight*%
X168251500Y-94488000D03*
%TO.P,R2,2*%
%TO.N,Net-(Q2-B)*%
X170076500Y-94488000D03*
%TD*%
D22*
%TO.P,JP2,1,A*%
%TO.N,Net-(JP2-A)*%
X178271000Y-88900000D03*
D23*
%TO.P,JP2,2,B*%
%TO.N,GND*%
X176821000Y-88900000D03*
%TD*%
D24*
%TO.P,Q1,1,B*%
%TO.N,Net-(J1-Pin_9)*%
X129031000Y-103034500D03*
%TO.P,Q1,2,E*%
%TO.N,GND*%
X129031000Y-101134500D03*
%TO.P,Q1,3,C*%
%TO.N,/Contrast*%
X125731000Y-102084500D03*
%TD*%
D25*
%TO.N,GND*%
X89281000Y-78613000D03*
X176657000Y-104394000D03*
X175387000Y-76454000D03*
X156845000Y-97790000D03*
X176657000Y-101219000D03*
X117348000Y-96012000D03*
X111125000Y-94488000D03*
X131826000Y-97790000D03*
X127254000Y-76454000D03*
X156845000Y-76454000D03*
X164592000Y-97790000D03*
%TD*%
D26*
%TO.N,Net-(J1-Pin_9)*%
X133985000Y-100457000D02*
X131407500Y-103034500D01*
X131407500Y-103034500D02*
X129031000Y-103034500D01*
X133985000Y-95504000D02*
X133985000Y-100457000D01*
X131318000Y-92837000D02*
X133985000Y-95504000D01*
X114554000Y-92837000D02*
X131318000Y-92837000D01*
%TO.N,Net-(Q2-B)*%
X170076500Y-94488000D02*
X170142500Y-94554000D01*
X170026500Y-94538000D02*
X170076500Y-94488000D01*
X170142500Y-94554000D02*
X175134000Y-94554000D01*
X170026500Y-97536000D02*
X170026500Y-94538000D01*
D27*
%TO.N,VCC*%
X108458000Y-99975500D02*
X108458000Y-99187000D01*
X107354600Y-98083600D02*
X105436000Y-98083600D01*
X108458000Y-99187000D02*
X107354600Y-98083600D01*
D26*
%TO.N,Net-(DS1-VO)*%
X112156000Y-100853000D02*
X114681000Y-100853000D01*
X108878600Y-95543600D02*
X111379000Y-98044000D01*
X111379000Y-100076000D02*
X112156000Y-100853000D01*
X118857000Y-100853000D02*
X120777000Y-98933000D01*
X105436000Y-95543600D02*
X108878600Y-95543600D01*
X114681000Y-100853000D02*
X118857000Y-100853000D01*
X111379000Y-98044000D02*
X111379000Y-100076000D01*
%TO.N,/RS*%
X102729400Y-95377000D02*
X102896000Y-95543600D01*
X93853000Y-95377000D02*
X102729400Y-95377000D01*
D27*
%TO.N,Net-(JP2-A)*%
X182374600Y-93003600D02*
X178398000Y-89027000D01*
X183896000Y-95543600D02*
X183896000Y-93003600D01*
D26*
X183856400Y-95504000D02*
X183896000Y-95543600D01*
D27*
X178434000Y-95504000D02*
X183856400Y-95504000D01*
X183896000Y-93003600D02*
X182374600Y-93003600D01*
D26*
%TO.N,/D0*%
X104205600Y-86614000D02*
X105436000Y-85383600D01*
X93853000Y-90297000D02*
X95758000Y-90297000D01*
X99441000Y-86614000D02*
X104205600Y-86614000D01*
X95758000Y-90297000D02*
X99441000Y-86614000D01*
%TO.N,/D3*%
X91313000Y-90297000D02*
X91313000Y-88265000D01*
X96734400Y-82843600D02*
X102896000Y-82843600D01*
X91313000Y-88265000D02*
X96734400Y-82843600D01*
%TO.N,/BackLight*%
X88773000Y-97028000D02*
X88773000Y-87503000D01*
X91313000Y-97917000D02*
X89662000Y-97917000D01*
X155043500Y-81280000D02*
X168251500Y-94488000D01*
X94996000Y-81280000D02*
X155043500Y-81280000D01*
X88773000Y-87503000D02*
X94996000Y-81280000D01*
X89662000Y-97917000D02*
X88773000Y-97028000D01*
%TO.N,/Contrast*%
X125731000Y-102084500D02*
X125731000Y-98172000D01*
X125731000Y-98172000D02*
X125730000Y-98171000D01*
%TO.N,Net-(J1-Pin_9)*%
X126401500Y-105664000D02*
X129031000Y-103034500D01*
X95885000Y-96647000D02*
X97917000Y-98679000D01*
X97917000Y-98679000D02*
X97917000Y-103632000D01*
X97917000Y-103632000D02*
X99949000Y-105664000D01*
X91313000Y-95377000D02*
X92583000Y-96647000D01*
X99949000Y-105664000D02*
X126401500Y-105664000D01*
X92583000Y-96647000D02*
X95885000Y-96647000D01*
%TO.N,Net-(J2-Pin_1)*%
X125937000Y-96346000D02*
X125960500Y-96369500D01*
X120777000Y-96393000D02*
X125683000Y-96393000D01*
X125683000Y-96393000D02*
X125730000Y-96346000D01*
X125730000Y-96346000D02*
X125937000Y-96346000D01*
X125960500Y-96369500D02*
X128524000Y-96369500D01*
%TO.N,/R{slash}W*%
X110236000Y-90297000D02*
X114554000Y-90297000D01*
X105436000Y-93003600D02*
X107529400Y-93003600D01*
X107529400Y-93003600D02*
X110236000Y-90297000D01*
%TD*%
%TA.AperFunction,Conductor*%
%TO.N,GND*%
G36*
X112753938Y-90934725D02*
G01*
X113513761Y-91299679D01*
X113565669Y-91346448D01*
X113584051Y-91413857D01*
X113563071Y-91480502D01*
X113509390Y-91525225D01*
X113503408Y-91527636D01*
X113461669Y-91543203D01*
X113461664Y-91543206D01*
X113346455Y-91629452D01*
X113346452Y-91629455D01*
X113260206Y-91744664D01*
X113260202Y-91744671D01*
X113209908Y-91879517D01*
X113203501Y-91939116D01*
X113203500Y-91939135D01*
X113203500Y-93734870D01*
X113203501Y-93734876D01*
X113209908Y-93794483D01*
X113260202Y-93929328D01*
X113260206Y-93929335D01*
X113346452Y-94044544D01*
X113346455Y-94044547D01*
X113461664Y-94130793D01*
X113461671Y-94130797D01*
X113596517Y-94181091D01*
X113596516Y-94181091D01*
X113603444Y-94181835D01*
X113656127Y-94187500D01*
X115405809Y-94187499D01*
X115416214Y-94188097D01*
X115417752Y-94188054D01*
X115417759Y-94188055D01*
X115417765Y-94188053D01*
X115426620Y-94187808D01*
X115426623Y-94187923D01*
X115431589Y-94187499D01*
X115451871Y-94187499D01*
X115451872Y-94187499D01*
X115511483Y-94181091D01*
X115549199Y-94167023D01*
X115555367Y-94165121D01*
X115555327Y-94164995D01*
X115564428Y-94162045D01*
X115568069Y-94160865D01*
X115618618Y-94141433D01*
X115618623Y-94141429D01*
X115623354Y-94139611D01*
X115627251Y-94137911D01*
X115646331Y-94130796D01*
X115701166Y-94089744D01*
X115709237Y-94084187D01*
X115740260Y-94064592D01*
X116222552Y-93653225D01*
X116411391Y-93492157D01*
X116475171Y-93463628D01*
X116491860Y-93462500D01*
X131007548Y-93462500D01*
X131074587Y-93482185D01*
X131095229Y-93498819D01*
X133323181Y-95726771D01*
X133356666Y-95788094D01*
X133359500Y-95814452D01*
X133359500Y-100146547D01*
X133339815Y-100213586D01*
X133323181Y-100234228D01*
X131184729Y-102372681D01*
X131123406Y-102406166D01*
X131097048Y-102409000D01*
X130488686Y-102409000D01*
X130433564Y-102396074D01*
X130037455Y-102199498D01*
X130032605Y-102197291D01*
X130020008Y-102190659D01*
X130019636Y-102190435D01*
X129972359Y-102138990D01*
X129960400Y-102070151D01*
X129987557Y-102005775D01*
X130019451Y-101978090D01*
X130165877Y-101889572D01*
X130286072Y-101769377D01*
X130374019Y-101623895D01*
X130424590Y-101461606D01*
X130431000Y-101391072D01*
X130431000Y-101384500D01*
X127631001Y-101384500D01*
X127631001Y-101391082D01*
X127637408Y-101461602D01*
X127637409Y-101461607D01*
X127687981Y-101623896D01*
X127775927Y-101769377D01*
X127896122Y-101889572D01*
X128042548Y-101978090D01*
X128089736Y-102029618D01*
X128101574Y-102098477D01*
X128074305Y-102162806D01*
X128042549Y-102190323D01*
X127895814Y-102279028D01*
X127895810Y-102279031D01*
X127775530Y-102399311D01*
X127687522Y-102544893D01*
X127636913Y-102707307D01*
X127630500Y-102777886D01*
X127630500Y-103291113D01*
X127636914Y-103361696D01*
X127636914Y-103361698D01*
X127657923Y-103429119D01*
X127659073Y-103498979D01*
X127627218Y-103553689D01*
X126178729Y-105002181D01*
X126117406Y-105035666D01*
X126091048Y-105038500D01*
X103903026Y-105038500D01*
X103835987Y-105018815D01*
X103790232Y-104966011D01*
X103780288Y-104896853D01*
X103809313Y-104833297D01*
X103857379Y-104799208D01*
X103973423Y-104753263D01*
X103973424Y-104753262D01*
X103973422Y-104753262D01*
X103973432Y-104753259D01*
X104251906Y-104600166D01*
X104508997Y-104413378D01*
X104740650Y-104195842D01*
X104943212Y-103950986D01*
X105113488Y-103682674D01*
X105248793Y-103395137D01*
X105346993Y-103092908D01*
X105406539Y-102780755D01*
X105406540Y-102780744D01*
X105426493Y-102463605D01*
X105426493Y-102463594D01*
X105406540Y-102146455D01*
X105406539Y-102146448D01*
X105406539Y-102146445D01*
X105388075Y-102049654D01*
X107483001Y-102049654D01*
X107493319Y-102150652D01*
X107547546Y-102314300D01*
X107547551Y-102314311D01*
X107638052Y-102461034D01*
X107638055Y-102461038D01*
X107759961Y-102582944D01*
X107759965Y-102582947D01*
X107906688Y-102673448D01*
X107906699Y-102673453D01*
X108070347Y-102727680D01*
X108171352Y-102737999D01*
X108208000Y-102737999D01*
X108708000Y-102737999D01*
X108744640Y-102737999D01*
X108744654Y-102737998D01*
X108845652Y-102727680D01*
X109009300Y-102673453D01*
X109009311Y-102673448D01*
X109156034Y-102582947D01*
X109156038Y-102582944D01*
X109277944Y-102461038D01*
X109277947Y-102461034D01*
X109368448Y-102314311D01*
X109368453Y-102314300D01*
X109422680Y-102150652D01*
X109432999Y-102049654D01*
X109433000Y-102049641D01*
X109433000Y-101950500D01*
X108708000Y-101950500D01*
X108708000Y-102737999D01*
X108208000Y-102737999D01*
X108208000Y-101950500D01*
X107483001Y-101950500D01*
X107483001Y-102049654D01*
X105388075Y-102049654D01*
X105346993Y-101834292D01*
X105248793Y-101532063D01*
X105215636Y-101461602D01*
X105157876Y-101338855D01*
X105113488Y-101244526D01*
X105075077Y-101184000D01*
X104943215Y-100976218D01*
X104943212Y-100976214D01*
X104740650Y-100731358D01*
X104508997Y-100513822D01*
X104508995Y-100513820D01*
X104251909Y-100327036D01*
X104251908Y-100327035D01*
X104251906Y-100327034D01*
X103973432Y-100173941D01*
X103973429Y-100173939D01*
X103973424Y-100173937D01*
X103973423Y-100173936D01*
X103677968Y-100056958D01*
X103677965Y-100056957D01*
X103370163Y-99977927D01*
X103054902Y-99938100D01*
X103054891Y-99938100D01*
X102737109Y-99938100D01*
X102737097Y-99938100D01*
X102421836Y-99977927D01*
X102114034Y-100056957D01*
X102114031Y-100056958D01*
X101818576Y-100173936D01*
X101818575Y-100173937D01*
X101540094Y-100327034D01*
X101540090Y-100327036D01*
X101283004Y-100513820D01*
X101283001Y-100513823D01*
X101051352Y-100731356D01*
X101051350Y-100731358D01*
X100998685Y-100795019D01*
X100848784Y-100976218D01*
X100678513Y-101244523D01*
X100678510Y-101244529D01*
X100543209Y-101532056D01*
X100543207Y-101532061D01*
X100445008Y-101834287D01*
X100385460Y-102146448D01*
X100385459Y-102146455D01*
X100365507Y-102463594D01*
X100365507Y-102463605D01*
X100385459Y-102780744D01*
X100385460Y-102780751D01*
X100396757Y-102839972D01*
X100426711Y-102996999D01*
X100445008Y-103092912D01*
X100543207Y-103395138D01*
X100543209Y-103395143D01*
X100678510Y-103682670D01*
X100678513Y-103682676D01*
X100848784Y-103950981D01*
X100848787Y-103950985D01*
X100848788Y-103950986D01*
X101051350Y-104195842D01*
X101196409Y-104332061D01*
X101283001Y-104413376D01*
X101283004Y-104413379D01*
X101462514Y-104543801D01*
X101540094Y-104600166D01*
X101818568Y-104753259D01*
X101818573Y-104753261D01*
X101818575Y-104753262D01*
X101818576Y-104753263D01*
X101934621Y-104799208D01*
X101989707Y-104842188D01*
X102012810Y-104908128D01*
X101996597Y-104976090D01*
X101946214Y-105024498D01*
X101888974Y-105038500D01*
X100259452Y-105038500D01*
X100192413Y-105018815D01*
X100171771Y-105002181D01*
X98578819Y-103409229D01*
X98545334Y-103347906D01*
X98542500Y-103321548D01*
X98542500Y-98617398D01*
X98542500Y-98617394D01*
X98540594Y-98607815D01*
X98540595Y-98607808D01*
X98540593Y-98607809D01*
X98526408Y-98536489D01*
X98526408Y-98536488D01*
X98518463Y-98496548D01*
X98518462Y-98496546D01*
X98504308Y-98462376D01*
X98479172Y-98401691D01*
X98471312Y-98382715D01*
X98471311Y-98382713D01*
X98471310Y-98382711D01*
X98471309Y-98382709D01*
X98447308Y-98346790D01*
X98447307Y-98346789D01*
X98402858Y-98280267D01*
X98402855Y-98280263D01*
X98312637Y-98190045D01*
X98312606Y-98190016D01*
X96375198Y-96252608D01*
X96375178Y-96252586D01*
X96336773Y-96214181D01*
X96303288Y-96152858D01*
X96308272Y-96083166D01*
X96350144Y-96027233D01*
X96415608Y-96002816D01*
X96424454Y-96002500D01*
X100943213Y-96002500D01*
X101008079Y-96020820D01*
X102047181Y-96658618D01*
X102058459Y-96666431D01*
X102122228Y-96716065D01*
X102163040Y-96772773D01*
X102166714Y-96842546D01*
X102132082Y-96903229D01*
X102122227Y-96911769D01*
X101944558Y-97050055D01*
X101787414Y-97220757D01*
X101660516Y-97414990D01*
X101567317Y-97627464D01*
X101515117Y-97833600D01*
X102347518Y-97833600D01*
X102336889Y-97852009D01*
X102296000Y-98004609D01*
X102296000Y-98162591D01*
X102336889Y-98315191D01*
X102347518Y-98333600D01*
X101515117Y-98333600D01*
X101567317Y-98539735D01*
X101660516Y-98752209D01*
X101787414Y-98946442D01*
X101944558Y-99117145D01*
X101944562Y-99117148D01*
X102127644Y-99259647D01*
X102127648Y-99259650D01*
X102331697Y-99370076D01*
X102331706Y-99370079D01*
X102551139Y-99445411D01*
X102645999Y-99461240D01*
X102646000Y-99461239D01*
X102646000Y-98632082D01*
X102664409Y-98642711D01*
X102817009Y-98683600D01*
X102974991Y-98683600D01*
X103127591Y-98642711D01*
X103146000Y-98632082D01*
X103146000Y-99461240D01*
X103240860Y-99445411D01*
X103460293Y-99370079D01*
X103460302Y-99370076D01*
X103664351Y-99259650D01*
X103664355Y-99259647D01*
X103847437Y-99117148D01*
X103847442Y-99117144D01*
X103855932Y-99107921D01*
X103915817Y-99071927D01*
X103985655Y-99074024D01*
X104043273Y-99113544D01*
X104063348Y-99148566D01*
X104092202Y-99225928D01*
X104092206Y-99225935D01*
X104178452Y-99341144D01*
X104178455Y-99341147D01*
X104293664Y-99427393D01*
X104293671Y-99427397D01*
X104428517Y-99477691D01*
X104428516Y-99477691D01*
X104435444Y-99478435D01*
X104488127Y-99484100D01*
X106295343Y-99484099D01*
X106301880Y-99484271D01*
X106308682Y-99484629D01*
X106308691Y-99484631D01*
X106308961Y-99484606D01*
X106309025Y-99484601D01*
X106320171Y-99484099D01*
X106383871Y-99484099D01*
X106383872Y-99484099D01*
X106443483Y-99477691D01*
X106477471Y-99465013D01*
X106485730Y-99462261D01*
X106512596Y-99454351D01*
X106521824Y-99449514D01*
X106536034Y-99443171D01*
X106578331Y-99427396D01*
X106603741Y-99408373D01*
X106620492Y-99397809D01*
X106640039Y-99387567D01*
X107110200Y-99048005D01*
X107176072Y-99024713D01*
X107244080Y-99040731D01*
X107270481Y-99060849D01*
X107495405Y-99285772D01*
X107528890Y-99347095D01*
X107525789Y-99411355D01*
X107522158Y-99422664D01*
X107522153Y-99422683D01*
X107514730Y-99456911D01*
X107511254Y-99469630D01*
X107492826Y-99525246D01*
X107482500Y-99626315D01*
X107482500Y-100324669D01*
X107482501Y-100324687D01*
X107492825Y-100425752D01*
X107509056Y-100474733D01*
X107547092Y-100589516D01*
X107637659Y-100736349D01*
X107637661Y-100736351D01*
X107651982Y-100750672D01*
X107685467Y-100811995D01*
X107680483Y-100881687D01*
X107651985Y-100926032D01*
X107638052Y-100939965D01*
X107547551Y-101086688D01*
X107547546Y-101086699D01*
X107493319Y-101250347D01*
X107483000Y-101351345D01*
X107483000Y-101450500D01*
X109432999Y-101450500D01*
X109432999Y-101351360D01*
X109432998Y-101351345D01*
X109422680Y-101250347D01*
X109368453Y-101086699D01*
X109368448Y-101086688D01*
X109277947Y-100939965D01*
X109277944Y-100939961D01*
X109264017Y-100926034D01*
X109230532Y-100864711D01*
X109235516Y-100795019D01*
X109264017Y-100750672D01*
X109278340Y-100736350D01*
X109368908Y-100589516D01*
X109423174Y-100425753D01*
X109433500Y-100324677D01*
X109433499Y-99626324D01*
X109426973Y-99562442D01*
X109423174Y-99525247D01*
X109409538Y-99484098D01*
X109368908Y-99361484D01*
X109278340Y-99214650D01*
X109278338Y-99214648D01*
X109276012Y-99211706D01*
X109266408Y-99197681D01*
X109247062Y-99164804D01*
X109214997Y-99110310D01*
X109200252Y-99071618D01*
X109179659Y-98968094D01*
X109179658Y-98968087D01*
X109177590Y-98963094D01*
X109123087Y-98831511D01*
X109123080Y-98831498D01*
X109040952Y-98708585D01*
X109015967Y-98683600D01*
X108936416Y-98604049D01*
X108665967Y-98333600D01*
X107833021Y-97500652D01*
X107833014Y-97500646D01*
X107752723Y-97446998D01*
X107752723Y-97446999D01*
X107710091Y-97418513D01*
X107573517Y-97361943D01*
X107573507Y-97361940D01*
X107424465Y-97332293D01*
X107376056Y-97311200D01*
X106642088Y-96781112D01*
X106641937Y-96781002D01*
X106639965Y-96779578D01*
X106628905Y-96771816D01*
X106628881Y-96771802D01*
X106616698Y-96765830D01*
X106596970Y-96753757D01*
X106587193Y-96746438D01*
X106545322Y-96690504D01*
X106540338Y-96620813D01*
X106573823Y-96559490D01*
X106607353Y-96535620D01*
X107336854Y-96181545D01*
X107390999Y-96169100D01*
X108568148Y-96169100D01*
X108635187Y-96188785D01*
X108655829Y-96205419D01*
X110717181Y-98266771D01*
X110750666Y-98328094D01*
X110753500Y-98354452D01*
X110753500Y-100137611D01*
X110759166Y-100166095D01*
X110759166Y-100166096D01*
X110769090Y-100215986D01*
X110771380Y-100227500D01*
X110777537Y-100258451D01*
X110824688Y-100372286D01*
X110855306Y-100418107D01*
X110855307Y-100418110D01*
X110893138Y-100474728D01*
X110893144Y-100474736D01*
X110984586Y-100566178D01*
X110984608Y-100566198D01*
X111667016Y-101248606D01*
X111667045Y-101248637D01*
X111757263Y-101338855D01*
X111757271Y-101338861D01*
X111833970Y-101390110D01*
X111833971Y-101390110D01*
X111859715Y-101407312D01*
X111922483Y-101433311D01*
X111973548Y-101454463D01*
X112002912Y-101460303D01*
X112029402Y-101465573D01*
X112029422Y-101465576D01*
X112029444Y-101465581D01*
X112094391Y-101478499D01*
X112094392Y-101478500D01*
X112094393Y-101478500D01*
X112094394Y-101478500D01*
X113091320Y-101478500D01*
X113143502Y-101490014D01*
X113234130Y-101532056D01*
X114181691Y-101971627D01*
X114191297Y-101975962D01*
X114191730Y-101976152D01*
X114232503Y-101991042D01*
X114242359Y-101995130D01*
X114261970Y-102004276D01*
X114261972Y-102004276D01*
X114261973Y-102004277D01*
X114267059Y-102006128D01*
X114266383Y-102007982D01*
X114318655Y-102039826D01*
X114349199Y-102102666D01*
X114340921Y-102172043D01*
X114296449Y-102225932D01*
X114266905Y-102239434D01*
X114267236Y-102240342D01*
X114262140Y-102242197D01*
X114068671Y-102332412D01*
X114068669Y-102332413D01*
X114012969Y-102371415D01*
X114012968Y-102371415D01*
X114634554Y-102993000D01*
X114628339Y-102993000D01*
X114526606Y-103020259D01*
X114435394Y-103072920D01*
X114360920Y-103147394D01*
X114308259Y-103238606D01*
X114281000Y-103340339D01*
X114281000Y-103346553D01*
X113659415Y-102724968D01*
X113659415Y-102724969D01*
X113620413Y-102780669D01*
X113620412Y-102780671D01*
X113530197Y-102974140D01*
X113530194Y-102974146D01*
X113474945Y-103180337D01*
X113474944Y-103180345D01*
X113456340Y-103392997D01*
X113456340Y-103393002D01*
X113474944Y-103605654D01*
X113474945Y-103605662D01*
X113530194Y-103811853D01*
X113530197Y-103811859D01*
X113620413Y-104005329D01*
X113659415Y-104061030D01*
X114281000Y-103439445D01*
X114281000Y-103445661D01*
X114308259Y-103547394D01*
X114360920Y-103638606D01*
X114435394Y-103713080D01*
X114526606Y-103765741D01*
X114628339Y-103793000D01*
X114634553Y-103793000D01*
X114012968Y-104414584D01*
X114068663Y-104453582D01*
X114068669Y-104453586D01*
X114262140Y-104543802D01*
X114262146Y-104543805D01*
X114468337Y-104599054D01*
X114468345Y-104599055D01*
X114680998Y-104617660D01*
X114681002Y-104617660D01*
X114893654Y-104599055D01*
X114893662Y-104599054D01*
X115099853Y-104543805D01*
X115099864Y-104543801D01*
X115293325Y-104453589D01*
X115349030Y-104414583D01*
X114727448Y-103793000D01*
X114733661Y-103793000D01*
X114835394Y-103765741D01*
X114926606Y-103713080D01*
X115001080Y-103638606D01*
X115053741Y-103547394D01*
X115081000Y-103445661D01*
X115081000Y-103439446D01*
X115702583Y-104061029D01*
X115741589Y-104005325D01*
X115831801Y-103811864D01*
X115831805Y-103811853D01*
X115887054Y-103605662D01*
X115887055Y-103605654D01*
X115905660Y-103393002D01*
X115905660Y-103392997D01*
X115887055Y-103180345D01*
X115887054Y-103180337D01*
X115831805Y-102974146D01*
X115831802Y-102974140D01*
X115741586Y-102780669D01*
X115741582Y-102780663D01*
X115702584Y-102724968D01*
X115081000Y-103346552D01*
X115081000Y-103340339D01*
X115053741Y-103238606D01*
X115001080Y-103147394D01*
X114926606Y-103072920D01*
X114835394Y-103020259D01*
X114733661Y-102993000D01*
X114727447Y-102993000D01*
X115349030Y-102371415D01*
X115293329Y-102332413D01*
X115099859Y-102242197D01*
X115094764Y-102240342D01*
X115095453Y-102238449D01*
X115043305Y-102206647D01*
X115012790Y-102143794D01*
X115021101Y-102074420D01*
X115065598Y-102020552D01*
X115095272Y-102007008D01*
X115094950Y-102006124D01*
X115100014Y-102004280D01*
X115100030Y-102004276D01*
X115143370Y-101984064D01*
X115160118Y-101977685D01*
X115180308Y-101971627D01*
X116127870Y-101532056D01*
X116218498Y-101490014D01*
X116270680Y-101478500D01*
X118918608Y-101478500D01*
X118918608Y-101478499D01*
X118983556Y-101465581D01*
X118983557Y-101465581D01*
X119003540Y-101461606D01*
X119039452Y-101454463D01*
X119075083Y-101439704D01*
X119153286Y-101407312D01*
X119204509Y-101373084D01*
X119255733Y-101338858D01*
X119342858Y-101251733D01*
X119342859Y-101251731D01*
X119349925Y-101244665D01*
X119349928Y-101244661D01*
X119908496Y-100686092D01*
X119955098Y-100656776D01*
X121218903Y-100213100D01*
X121227864Y-100210332D01*
X121240663Y-100206903D01*
X121247622Y-100203657D01*
X121257399Y-100199597D01*
X121270716Y-100194721D01*
X121270727Y-100194716D01*
X121270751Y-100194708D01*
X121271341Y-100194483D01*
X121332989Y-100166097D01*
X121332995Y-100166092D01*
X121338592Y-100162765D01*
X121338729Y-100162996D01*
X121352570Y-100154719D01*
X121389267Y-100137607D01*
X121454830Y-100107035D01*
X121648401Y-99971495D01*
X121815495Y-99804401D01*
X121951035Y-99610830D01*
X122050903Y-99396663D01*
X122112063Y-99168408D01*
X122132659Y-98933000D01*
X122112063Y-98697592D01*
X122054327Y-98482116D01*
X122050905Y-98469344D01*
X122050904Y-98469343D01*
X122050903Y-98469337D01*
X121951035Y-98255171D01*
X121905433Y-98190045D01*
X121815496Y-98061600D01*
X121758505Y-98004609D01*
X121693567Y-97939671D01*
X121660084Y-97878351D01*
X121665068Y-97808659D01*
X121706939Y-97752725D01*
X121737912Y-97735812D01*
X121737917Y-97735810D01*
X121772194Y-97723024D01*
X121778367Y-97721121D01*
X121778327Y-97720995D01*
X121784030Y-97719146D01*
X121791069Y-97716865D01*
X121841618Y-97697433D01*
X121841623Y-97697429D01*
X121846354Y-97695611D01*
X121850251Y-97693911D01*
X121869331Y-97686796D01*
X121924166Y-97645744D01*
X121932237Y-97640187D01*
X121963260Y-97620592D01*
X122517044Y-97148247D01*
X122634391Y-97048157D01*
X122698171Y-97019628D01*
X122714860Y-97018500D01*
X124626708Y-97018500D01*
X124680227Y-97030644D01*
X124967848Y-97168261D01*
X125019826Y-97214953D01*
X125038309Y-97282333D01*
X125017430Y-97349010D01*
X125002011Y-97367797D01*
X124909661Y-97460148D01*
X124819093Y-97606981D01*
X124819091Y-97606986D01*
X124806406Y-97645267D01*
X124764826Y-97770747D01*
X124764826Y-97770748D01*
X124764825Y-97770748D01*
X124754500Y-97871815D01*
X124754500Y-98470169D01*
X124754501Y-98470187D01*
X124764825Y-98571252D01*
X124819092Y-98735015D01*
X124819096Y-98735023D01*
X124822828Y-98741074D01*
X124830492Y-98755565D01*
X124832207Y-98759403D01*
X124953662Y-98986177D01*
X125086552Y-99234302D01*
X125090810Y-99242251D01*
X125105500Y-99300795D01*
X125105500Y-101060000D01*
X125085815Y-101127039D01*
X125033011Y-101172794D01*
X124981500Y-101184000D01*
X124974384Y-101184000D01*
X124955145Y-101185748D01*
X124903807Y-101190413D01*
X124741393Y-101241022D01*
X124595811Y-101329030D01*
X124475530Y-101449311D01*
X124387522Y-101594893D01*
X124336913Y-101757307D01*
X124330500Y-101827886D01*
X124330500Y-102341113D01*
X124336913Y-102411692D01*
X124336913Y-102411694D01*
X124336914Y-102411696D01*
X124387522Y-102574106D01*
X124468043Y-102707304D01*
X124475530Y-102719688D01*
X124595811Y-102839969D01*
X124595813Y-102839970D01*
X124595815Y-102839972D01*
X124741394Y-102927978D01*
X124903804Y-102978586D01*
X124974384Y-102985000D01*
X124974387Y-102985000D01*
X126487613Y-102985000D01*
X126487616Y-102985000D01*
X126558196Y-102978586D01*
X126720606Y-102927978D01*
X126866185Y-102839972D01*
X126986472Y-102719685D01*
X127074478Y-102574106D01*
X127125086Y-102411696D01*
X127131500Y-102341116D01*
X127131500Y-101827884D01*
X127125086Y-101757304D01*
X127074478Y-101594894D01*
X126986472Y-101449315D01*
X126986470Y-101449313D01*
X126986469Y-101449311D01*
X126866188Y-101329030D01*
X126720606Y-101241022D01*
X126558196Y-101190414D01*
X126558194Y-101190413D01*
X126558192Y-101190413D01*
X126508778Y-101185923D01*
X126487616Y-101184000D01*
X126487613Y-101184000D01*
X126480500Y-101184000D01*
X126413461Y-101164315D01*
X126367706Y-101111511D01*
X126356500Y-101060000D01*
X126356500Y-100877927D01*
X127631000Y-100877927D01*
X127631000Y-100884500D01*
X128781000Y-100884500D01*
X129281000Y-100884500D01*
X130430999Y-100884500D01*
X130430999Y-100877917D01*
X130424591Y-100807397D01*
X130424590Y-100807392D01*
X130374018Y-100645103D01*
X130286072Y-100499622D01*
X130165877Y-100379427D01*
X130020395Y-100291480D01*
X130020396Y-100291480D01*
X129858105Y-100240909D01*
X129858106Y-100240909D01*
X129787572Y-100234500D01*
X129281000Y-100234500D01*
X129281000Y-100884500D01*
X128781000Y-100884500D01*
X128781000Y-100234500D01*
X128274417Y-100234500D01*
X128203897Y-100240908D01*
X128203892Y-100240909D01*
X128041603Y-100291481D01*
X127896122Y-100379427D01*
X127775927Y-100499622D01*
X127687980Y-100645104D01*
X127637409Y-100807393D01*
X127631000Y-100877927D01*
X126356500Y-100877927D01*
X126356500Y-99300012D01*
X126371043Y-99241743D01*
X126589181Y-98831986D01*
X127299001Y-98831986D01*
X127309494Y-98934697D01*
X127364641Y-99101119D01*
X127364643Y-99101124D01*
X127456684Y-99250345D01*
X127580654Y-99374315D01*
X127729875Y-99466356D01*
X127729880Y-99466358D01*
X127896302Y-99521505D01*
X127896309Y-99521506D01*
X127999019Y-99531999D01*
X128273999Y-99531999D01*
X128774000Y-99531999D01*
X129048972Y-99531999D01*
X129048986Y-99531998D01*
X129151697Y-99521505D01*
X129318119Y-99466358D01*
X129318124Y-99466356D01*
X129467345Y-99374315D01*
X129591315Y-99250345D01*
X129683356Y-99101124D01*
X129683358Y-99101119D01*
X129738505Y-98934697D01*
X129738506Y-98934690D01*
X129748999Y-98831986D01*
X129749000Y-98831973D01*
X129749000Y-98694500D01*
X128774000Y-98694500D01*
X128774000Y-99531999D01*
X128273999Y-99531999D01*
X128274000Y-99531998D01*
X128274000Y-98694500D01*
X127299001Y-98694500D01*
X127299001Y-98831986D01*
X126589181Y-98831986D01*
X126628416Y-98758285D01*
X126635391Y-98744685D01*
X126640167Y-98736216D01*
X126640908Y-98735016D01*
X126695174Y-98571253D01*
X126705500Y-98470177D01*
X126705499Y-97871824D01*
X126704449Y-97861548D01*
X126695174Y-97770747D01*
X126687543Y-97747719D01*
X126640908Y-97606984D01*
X126550340Y-97460150D01*
X126452828Y-97362638D01*
X126419343Y-97301315D01*
X126424327Y-97231623D01*
X126466199Y-97175690D01*
X126483616Y-97164779D01*
X126785710Y-97008817D01*
X126842594Y-96995000D01*
X127029323Y-96995000D01*
X127092949Y-97012568D01*
X127363989Y-97174597D01*
X127363994Y-97174601D01*
X127392075Y-97191387D01*
X127392075Y-97191388D01*
X127578749Y-97302983D01*
X127626189Y-97354275D01*
X127638367Y-97423075D01*
X127611416Y-97487538D01*
X127586037Y-97509841D01*
X127586323Y-97510202D01*
X127580655Y-97514683D01*
X127456684Y-97638654D01*
X127364643Y-97787875D01*
X127364641Y-97787880D01*
X127309494Y-97954302D01*
X127309493Y-97954309D01*
X127299000Y-98057013D01*
X127299000Y-98194500D01*
X129748999Y-98194500D01*
X129748999Y-98057028D01*
X129748998Y-98057013D01*
X129738505Y-97954302D01*
X129683358Y-97787880D01*
X129683356Y-97787875D01*
X129591315Y-97638654D01*
X129467344Y-97514683D01*
X129467341Y-97514681D01*
X129464339Y-97512829D01*
X129462713Y-97511021D01*
X129461677Y-97510202D01*
X129461817Y-97510024D01*
X129417617Y-97460880D01*
X129406397Y-97391917D01*
X129434243Y-97327836D01*
X129464344Y-97301754D01*
X129467656Y-97299712D01*
X129591712Y-97175656D01*
X129683814Y-97026334D01*
X129738999Y-96859797D01*
X129749500Y-96757009D01*
X129749499Y-95981992D01*
X129745886Y-95946627D01*
X129738999Y-95879203D01*
X129738998Y-95879200D01*
X129726225Y-95840655D01*
X129683814Y-95712666D01*
X129591712Y-95563344D01*
X129467656Y-95439288D01*
X129374888Y-95382069D01*
X129318336Y-95347187D01*
X129318331Y-95347185D01*
X129316862Y-95346698D01*
X129151797Y-95292001D01*
X129151795Y-95292000D01*
X129049010Y-95281500D01*
X127998998Y-95281500D01*
X127998980Y-95281501D01*
X127896201Y-95292001D01*
X127836110Y-95311913D01*
X127821713Y-95315741D01*
X127818895Y-95316311D01*
X127818888Y-95316313D01*
X127808169Y-95320794D01*
X127799356Y-95324091D01*
X127729666Y-95347186D01*
X127729663Y-95347187D01*
X127705580Y-95362041D01*
X127688332Y-95370898D01*
X127686154Y-95371808D01*
X127092946Y-95726432D01*
X127029320Y-95744000D01*
X126860672Y-95744000D01*
X126797550Y-95726731D01*
X126328727Y-95449462D01*
X126328721Y-95449458D01*
X126328708Y-95449451D01*
X126300211Y-95433812D01*
X126300208Y-95433811D01*
X126298408Y-95432823D01*
X126292974Y-95429658D01*
X126281521Y-95422594D01*
X126281511Y-95422590D01*
X126198200Y-95394983D01*
X126117753Y-95368326D01*
X126117751Y-95368325D01*
X126016678Y-95358000D01*
X125443330Y-95358000D01*
X125443312Y-95358001D01*
X125342247Y-95368325D01*
X125178481Y-95422593D01*
X125122011Y-95457423D01*
X125107323Y-95465176D01*
X125107126Y-95465263D01*
X125107121Y-95465266D01*
X124656610Y-95748479D01*
X124590615Y-95767500D01*
X122714860Y-95767500D01*
X122647821Y-95747815D01*
X122634391Y-95737843D01*
X121963274Y-95165418D01*
X121946347Y-95151938D01*
X121936646Y-95144212D01*
X121931794Y-95141586D01*
X121918681Y-95134488D01*
X121903396Y-95124705D01*
X121869331Y-95099204D01*
X121869328Y-95099202D01*
X121826460Y-95083214D01*
X121810766Y-95076082D01*
X121810111Y-95075727D01*
X121802517Y-95072927D01*
X121802508Y-95072924D01*
X121794424Y-95070720D01*
X121783715Y-95067271D01*
X121734487Y-95048910D01*
X121734480Y-95048908D01*
X121674883Y-95042501D01*
X121674881Y-95042500D01*
X121674873Y-95042500D01*
X121674864Y-95042500D01*
X119879129Y-95042500D01*
X119879123Y-95042501D01*
X119819516Y-95048908D01*
X119684671Y-95099202D01*
X119684664Y-95099206D01*
X119569455Y-95185452D01*
X119569452Y-95185455D01*
X119483206Y-95300664D01*
X119483202Y-95300671D01*
X119432908Y-95435517D01*
X119426501Y-95495116D01*
X119426500Y-95495135D01*
X119426500Y-97290870D01*
X119426501Y-97290876D01*
X119432908Y-97350483D01*
X119483202Y-97485328D01*
X119483206Y-97485335D01*
X119569452Y-97600544D01*
X119569455Y-97600547D01*
X119684664Y-97686793D01*
X119684671Y-97686797D01*
X119816081Y-97735810D01*
X119872015Y-97777681D01*
X119896432Y-97843145D01*
X119881580Y-97911418D01*
X119860430Y-97939673D01*
X119738503Y-98061600D01*
X119602965Y-98255169D01*
X119602964Y-98255171D01*
X119517193Y-98439106D01*
X119514778Y-98444001D01*
X119510650Y-98451923D01*
X119509859Y-98453747D01*
X119506342Y-98462376D01*
X119503096Y-98469336D01*
X119499672Y-98482116D01*
X119496899Y-98491090D01*
X119123499Y-99554718D01*
X119123498Y-99554719D01*
X119053221Y-99754899D01*
X119023903Y-99801505D01*
X118634229Y-100191181D01*
X118572906Y-100224666D01*
X118546548Y-100227500D01*
X116270681Y-100227500D01*
X116218499Y-100215986D01*
X115180239Y-99734339D01*
X115169955Y-99729708D01*
X115169534Y-99729524D01*
X115129406Y-99714905D01*
X115119452Y-99710780D01*
X115100032Y-99701725D01*
X115100030Y-99701724D01*
X115100027Y-99701723D01*
X115094936Y-99699870D01*
X115095709Y-99697746D01*
X115044305Y-99666424D01*
X115013766Y-99603581D01*
X115022050Y-99534204D01*
X115066528Y-99480320D01*
X115095315Y-99467172D01*
X115094936Y-99466130D01*
X115100013Y-99464280D01*
X115100030Y-99464276D01*
X115293581Y-99374021D01*
X115468519Y-99251529D01*
X115619529Y-99100519D01*
X115742021Y-98925581D01*
X115832276Y-98732030D01*
X115887549Y-98525747D01*
X115906162Y-98313000D01*
X115902117Y-98266771D01*
X115899253Y-98234034D01*
X115887549Y-98100253D01*
X115832276Y-97893970D01*
X115742021Y-97700419D01*
X115619529Y-97525481D01*
X115619527Y-97525478D01*
X115468521Y-97374472D01*
X115293578Y-97251977D01*
X115293579Y-97251977D01*
X115132435Y-97176835D01*
X115100030Y-97161724D01*
X115100026Y-97161723D01*
X115100022Y-97161721D01*
X114893752Y-97106452D01*
X114893748Y-97106451D01*
X114893747Y-97106451D01*
X114893746Y-97106450D01*
X114893741Y-97106450D01*
X114681002Y-97087838D01*
X114680998Y-97087838D01*
X114468258Y-97106450D01*
X114468247Y-97106452D01*
X114261977Y-97161721D01*
X114261968Y-97161725D01*
X114068421Y-97251977D01*
X113893478Y-97374472D01*
X113742472Y-97525478D01*
X113619977Y-97700421D01*
X113529725Y-97893968D01*
X113529721Y-97893977D01*
X113474452Y-98100247D01*
X113474450Y-98100258D01*
X113455838Y-98312998D01*
X113455838Y-98313001D01*
X113474450Y-98525741D01*
X113474452Y-98525752D01*
X113529721Y-98732022D01*
X113529723Y-98732026D01*
X113529724Y-98732030D01*
X113556011Y-98788402D01*
X113619977Y-98925578D01*
X113742472Y-99100521D01*
X113893478Y-99251527D01*
X113922945Y-99272160D01*
X114068419Y-99374021D01*
X114068421Y-99374022D01*
X114068420Y-99374022D01*
X114132936Y-99404106D01*
X114261970Y-99464276D01*
X114261983Y-99464279D01*
X114267064Y-99466130D01*
X114266292Y-99468250D01*
X114317710Y-99499594D01*
X114348237Y-99562442D01*
X114339939Y-99631817D01*
X114295452Y-99685693D01*
X114266685Y-99698830D01*
X114267064Y-99699870D01*
X114261972Y-99701723D01*
X114261970Y-99701724D01*
X114218646Y-99721926D01*
X114201889Y-99728309D01*
X114181704Y-99734366D01*
X114181693Y-99734371D01*
X113143499Y-100215986D01*
X113091317Y-100227500D01*
X112466452Y-100227500D01*
X112399413Y-100207815D01*
X112378771Y-100191181D01*
X112040819Y-99853229D01*
X112007334Y-99791906D01*
X112004500Y-99765548D01*
X112004500Y-98111741D01*
X112004501Y-98111720D01*
X112004501Y-97982391D01*
X111982507Y-97871823D01*
X111982506Y-97871820D01*
X111982505Y-97871815D01*
X111980463Y-97861548D01*
X111980462Y-97861545D01*
X111948343Y-97784002D01*
X111933314Y-97747719D01*
X111933313Y-97747717D01*
X111930495Y-97743500D01*
X111901710Y-97700419D01*
X111864858Y-97645266D01*
X111864855Y-97645263D01*
X109371528Y-95151938D01*
X109371525Y-95151934D01*
X109371525Y-95151935D01*
X109364458Y-95144868D01*
X109364458Y-95144867D01*
X109277333Y-95057742D01*
X109277332Y-95057741D01*
X109277331Y-95057740D01*
X109216959Y-95017401D01*
X109192324Y-95000940D01*
X109174886Y-94989288D01*
X109082461Y-94951005D01*
X109082459Y-94951003D01*
X109061055Y-94942138D01*
X109061053Y-94942137D01*
X109061052Y-94942137D01*
X109000629Y-94930118D01*
X108940210Y-94918100D01*
X108940207Y-94918100D01*
X108940206Y-94918100D01*
X107391001Y-94918100D01*
X107336856Y-94905654D01*
X106741491Y-94616684D01*
X106264467Y-94385152D01*
X106212753Y-94338172D01*
X106194647Y-94270689D01*
X106215900Y-94204130D01*
X106264466Y-94162046D01*
X107336854Y-93641545D01*
X107390999Y-93629100D01*
X107591008Y-93629100D01*
X107591008Y-93629099D01*
X107666222Y-93614139D01*
X107666223Y-93614139D01*
X107675397Y-93612313D01*
X107711852Y-93605063D01*
X107756544Y-93586551D01*
X107825686Y-93557912D01*
X107890161Y-93514830D01*
X107928133Y-93489458D01*
X108015258Y-93402333D01*
X108015258Y-93402331D01*
X108025466Y-93392124D01*
X108025467Y-93392121D01*
X110458772Y-90958819D01*
X110520095Y-90925334D01*
X110546453Y-90922500D01*
X112700251Y-90922500D01*
X112753938Y-90934725D01*
G37*
%TD.AperFunction*%
%TA.AperFunction,Conductor*%
G36*
X93387075Y-100264007D02*
G01*
X93353000Y-100391174D01*
X93353000Y-100522826D01*
X93387075Y-100649993D01*
X93419988Y-100707000D01*
X91746012Y-100707000D01*
X91778925Y-100649993D01*
X91813000Y-100522826D01*
X91813000Y-100391174D01*
X91778925Y-100264007D01*
X91746012Y-100207000D01*
X93419988Y-100207000D01*
X93387075Y-100264007D01*
G37*
%TD.AperFunction*%
%TA.AperFunction,Conductor*%
G36*
X186887039Y-74441685D02*
G01*
X186932794Y-74494489D01*
X186944000Y-74546000D01*
X186944000Y-106556000D01*
X186924315Y-106623039D01*
X186871511Y-106668794D01*
X186820000Y-106680000D01*
X87500000Y-106680000D01*
X87432961Y-106660315D01*
X87387206Y-106607511D01*
X87376000Y-106556000D01*
X87376000Y-87441389D01*
X88147500Y-87441389D01*
X88147500Y-97089611D01*
X88171535Y-97210444D01*
X88171540Y-97210461D01*
X88218685Y-97324281D01*
X88218690Y-97324290D01*
X88243850Y-97361943D01*
X88243851Y-97361944D01*
X88287141Y-97426732D01*
X88287144Y-97426736D01*
X88378586Y-97518178D01*
X88378608Y-97518198D01*
X89173016Y-98312606D01*
X89173045Y-98312637D01*
X89263266Y-98402858D01*
X89317516Y-98439106D01*
X89329544Y-98447143D01*
X89365715Y-98471312D01*
X89426639Y-98496547D01*
X89426640Y-98496548D01*
X89426641Y-98496548D01*
X89479548Y-98518463D01*
X89500314Y-98522593D01*
X89532010Y-98533520D01*
X90122131Y-98831505D01*
X90610344Y-99078031D01*
X90661314Y-99125821D01*
X90678356Y-99193580D01*
X90656059Y-99259797D01*
X90625575Y-99290295D01*
X90441921Y-99418890D01*
X90274891Y-99585920D01*
X90274886Y-99585926D01*
X90139400Y-99779420D01*
X90139399Y-99779422D01*
X90039570Y-99993507D01*
X90039567Y-99993513D01*
X89982364Y-100206999D01*
X89982364Y-100207000D01*
X90879988Y-100207000D01*
X90847075Y-100264007D01*
X90813000Y-100391174D01*
X90813000Y-100522826D01*
X90847075Y-100649993D01*
X90879988Y-100707000D01*
X89982364Y-100707000D01*
X90039567Y-100920486D01*
X90039570Y-100920492D01*
X90139399Y-101134578D01*
X90274894Y-101328082D01*
X90441917Y-101495105D01*
X90627595Y-101625119D01*
X90671219Y-101679696D01*
X90678412Y-101749195D01*
X90646890Y-101811549D01*
X90627595Y-101828269D01*
X90441594Y-101958508D01*
X90274505Y-102125597D01*
X90138965Y-102319169D01*
X90138964Y-102319171D01*
X90039098Y-102533335D01*
X90039094Y-102533344D01*
X89977938Y-102761586D01*
X89977936Y-102761596D01*
X89957341Y-102996999D01*
X89957341Y-102997000D01*
X89977936Y-103232403D01*
X89977938Y-103232413D01*
X90039094Y-103460655D01*
X90039096Y-103460659D01*
X90039097Y-103460663D01*
X90122358Y-103639217D01*
X90138965Y-103674830D01*
X90138967Y-103674834D01*
X90234910Y-103811853D01*
X90274505Y-103868401D01*
X90441599Y-104035495D01*
X90478067Y-104061030D01*
X90635165Y-104171032D01*
X90635167Y-104171033D01*
X90635170Y-104171035D01*
X90849337Y-104270903D01*
X91077592Y-104332063D01*
X91265918Y-104348539D01*
X91312999Y-104352659D01*
X91313000Y-104352659D01*
X91313001Y-104352659D01*
X91352234Y-104349226D01*
X91548408Y-104332063D01*
X91776663Y-104270903D01*
X91990830Y-104171035D01*
X92184401Y-104035495D01*
X92351495Y-103868401D01*
X92481425Y-103682842D01*
X92536002Y-103639217D01*
X92605500Y-103632023D01*
X92667855Y-103663546D01*
X92684575Y-103682842D01*
X92814500Y-103868395D01*
X92814505Y-103868401D01*
X92981599Y-104035495D01*
X93018067Y-104061030D01*
X93175165Y-104171032D01*
X93175167Y-104171033D01*
X93175170Y-104171035D01*
X93389337Y-104270903D01*
X93617592Y-104332063D01*
X93805918Y-104348539D01*
X93852999Y-104352659D01*
X93853000Y-104352659D01*
X93853001Y-104352659D01*
X93892234Y-104349226D01*
X94088408Y-104332063D01*
X94316663Y-104270903D01*
X94530830Y-104171035D01*
X94724401Y-104035495D01*
X94891495Y-103868401D01*
X95027035Y-103674830D01*
X95126903Y-103460663D01*
X95188063Y-103232408D01*
X95208659Y-102997000D01*
X95206659Y-102974146D01*
X95202620Y-102927977D01*
X95188063Y-102761592D01*
X95126903Y-102533337D01*
X95027035Y-102319171D01*
X95023625Y-102314300D01*
X94891494Y-102125597D01*
X94724402Y-101958506D01*
X94724401Y-101958505D01*
X94547007Y-101834292D01*
X94538405Y-101828269D01*
X94494781Y-101773692D01*
X94487588Y-101704193D01*
X94519110Y-101641839D01*
X94538405Y-101625119D01*
X94724082Y-101495105D01*
X94891105Y-101328082D01*
X95026600Y-101134578D01*
X95126429Y-100920492D01*
X95126432Y-100920486D01*
X95183636Y-100707000D01*
X94286012Y-100707000D01*
X94318925Y-100649993D01*
X94353000Y-100522826D01*
X94353000Y-100391174D01*
X94318925Y-100264007D01*
X94286012Y-100207000D01*
X95183636Y-100207000D01*
X95183635Y-100206999D01*
X95126432Y-99993513D01*
X95126429Y-99993507D01*
X95026600Y-99779422D01*
X95026599Y-99779420D01*
X94891113Y-99585926D01*
X94891108Y-99585920D01*
X94724078Y-99418890D01*
X94538405Y-99288879D01*
X94494780Y-99234302D01*
X94487588Y-99164804D01*
X94519110Y-99102449D01*
X94538406Y-99085730D01*
X94724401Y-98955495D01*
X94891495Y-98788401D01*
X95027035Y-98594830D01*
X95126903Y-98380663D01*
X95188063Y-98152408D01*
X95208659Y-97917000D01*
X95188063Y-97681592D01*
X95128728Y-97460148D01*
X95126905Y-97453344D01*
X95126900Y-97453330D01*
X95124837Y-97448906D01*
X95114344Y-97379829D01*
X95142863Y-97316045D01*
X95201339Y-97277804D01*
X95237218Y-97272500D01*
X95574548Y-97272500D01*
X95641587Y-97292185D01*
X95662229Y-97308819D01*
X97255181Y-98901771D01*
X97288666Y-98963094D01*
X97291500Y-98989452D01*
X97291500Y-103693611D01*
X97315535Y-103814444D01*
X97315540Y-103814461D01*
X97362685Y-103928280D01*
X97362690Y-103928289D01*
X97396914Y-103979507D01*
X97396915Y-103979509D01*
X97431141Y-104030733D01*
X97522586Y-104122178D01*
X97522608Y-104122198D01*
X99460016Y-106059606D01*
X99460045Y-106059637D01*
X99550264Y-106149856D01*
X99550267Y-106149858D01*
X99627190Y-106201256D01*
X99652710Y-106218309D01*
X99652712Y-106218310D01*
X99652715Y-106218312D01*
X99719396Y-106245931D01*
X99719398Y-106245933D01*
X99759640Y-106262601D01*
X99766548Y-106265463D01*
X99826971Y-106277481D01*
X99887393Y-106289500D01*
X126463107Y-106289500D01*
X126523529Y-106277481D01*
X126583952Y-106265463D01*
X126583955Y-106265461D01*
X126583958Y-106265461D01*
X126617287Y-106251654D01*
X126617286Y-106251654D01*
X126617292Y-106251652D01*
X126697786Y-106218312D01*
X126749009Y-106184084D01*
X126800233Y-106149858D01*
X126887358Y-106062733D01*
X126887358Y-106062731D01*
X126897566Y-106052524D01*
X126897567Y-106052521D01*
X128705802Y-104244287D01*
X128739058Y-104220552D01*
X129298012Y-103947576D01*
X129352424Y-103935000D01*
X129787613Y-103935000D01*
X129787616Y-103935000D01*
X129858196Y-103928586D01*
X130020606Y-103877978D01*
X130020610Y-103877975D01*
X130020927Y-103877833D01*
X130033485Y-103871509D01*
X130033470Y-103871478D01*
X130413581Y-103682842D01*
X130433562Y-103672925D01*
X130488684Y-103660000D01*
X131469107Y-103660000D01*
X131529529Y-103647981D01*
X131589952Y-103635963D01*
X131639272Y-103615533D01*
X131639275Y-103615533D01*
X131703781Y-103588814D01*
X131703780Y-103588814D01*
X131703786Y-103588812D01*
X131755009Y-103554584D01*
X131756349Y-103553689D01*
X131767771Y-103546056D01*
X131806233Y-103520358D01*
X131893358Y-103433233D01*
X131893358Y-103433231D01*
X131903566Y-103423024D01*
X131903567Y-103423021D01*
X132862995Y-102463594D01*
X181365507Y-102463594D01*
X181365507Y-102463605D01*
X181385459Y-102780744D01*
X181385460Y-102780751D01*
X181396757Y-102839972D01*
X181426711Y-102996999D01*
X181445008Y-103092912D01*
X181543207Y-103395138D01*
X181543209Y-103395143D01*
X181678510Y-103682670D01*
X181678513Y-103682676D01*
X181848784Y-103950981D01*
X181848787Y-103950985D01*
X181848788Y-103950986D01*
X182051350Y-104195842D01*
X182196409Y-104332061D01*
X182283001Y-104413376D01*
X182283004Y-104413379D01*
X182462514Y-104543801D01*
X182540094Y-104600166D01*
X182818568Y-104753259D01*
X182818573Y-104753261D01*
X182818575Y-104753262D01*
X182818576Y-104753263D01*
X183114031Y-104870241D01*
X183114034Y-104870242D01*
X183421836Y-104949272D01*
X183737097Y-104989099D01*
X183737106Y-104989099D01*
X183737109Y-104989100D01*
X183737111Y-104989100D01*
X184054889Y-104989100D01*
X184054891Y-104989100D01*
X184054894Y-104989099D01*
X184054902Y-104989099D01*
X184370163Y-104949272D01*
X184677965Y-104870242D01*
X184677968Y-104870241D01*
X184973423Y-104753263D01*
X184973424Y-104753262D01*
X184973422Y-104753262D01*
X184973432Y-104753259D01*
X185251906Y-104600166D01*
X185508997Y-104413378D01*
X185740650Y-104195842D01*
X185943212Y-103950986D01*
X186113488Y-103682674D01*
X186248793Y-103395137D01*
X186346993Y-103092908D01*
X186406539Y-102780755D01*
X186406540Y-102780744D01*
X186426493Y-102463605D01*
X186426493Y-102463594D01*
X186406540Y-102146455D01*
X186406539Y-102146448D01*
X186406539Y-102146445D01*
X186346993Y-101834292D01*
X186248793Y-101532063D01*
X186215636Y-101461602D01*
X186157876Y-101338855D01*
X186113488Y-101244526D01*
X186075077Y-101184000D01*
X185943215Y-100976218D01*
X185943212Y-100976214D01*
X185740650Y-100731358D01*
X185508997Y-100513822D01*
X185508995Y-100513820D01*
X185251909Y-100327036D01*
X185251908Y-100327035D01*
X185251906Y-100327034D01*
X184973432Y-100173941D01*
X184973429Y-100173939D01*
X184973424Y-100173937D01*
X184973423Y-100173936D01*
X184677968Y-100056958D01*
X184677965Y-100056957D01*
X184370163Y-99977927D01*
X184054902Y-99938100D01*
X184054891Y-99938100D01*
X183737109Y-99938100D01*
X183737097Y-99938100D01*
X183421836Y-99977927D01*
X183114034Y-100056957D01*
X183114031Y-100056958D01*
X182818576Y-100173936D01*
X182818575Y-100173937D01*
X182540094Y-100327034D01*
X182540090Y-100327036D01*
X182283004Y-100513820D01*
X182283001Y-100513823D01*
X182051352Y-100731356D01*
X182051350Y-100731358D01*
X181998685Y-100795019D01*
X181848784Y-100976218D01*
X181678513Y-101244523D01*
X181678510Y-101244529D01*
X181543209Y-101532056D01*
X181543207Y-101532061D01*
X181445008Y-101834287D01*
X181385460Y-102146448D01*
X181385459Y-102146455D01*
X181365507Y-102463594D01*
X132862995Y-102463594D01*
X134470857Y-100855734D01*
X134475289Y-100849102D01*
X134539311Y-100753286D01*
X134586463Y-100639452D01*
X134610500Y-100518606D01*
X134610500Y-97822654D01*
X167264001Y-97822654D01*
X167274319Y-97923652D01*
X167328546Y-98087300D01*
X167328551Y-98087311D01*
X167419052Y-98234034D01*
X167419055Y-98234038D01*
X167540961Y-98355944D01*
X167540965Y-98355947D01*
X167687688Y-98446448D01*
X167687699Y-98446453D01*
X167851347Y-98500680D01*
X167952351Y-98510999D01*
X168051500Y-98510998D01*
X168051500Y-97786000D01*
X167264001Y-97786000D01*
X167264001Y-97822654D01*
X134610500Y-97822654D01*
X134610500Y-97249345D01*
X167264000Y-97249345D01*
X167264000Y-97286000D01*
X168051500Y-97286000D01*
X168051500Y-96560999D01*
X167952360Y-96561000D01*
X167952344Y-96561001D01*
X167851347Y-96571319D01*
X167687699Y-96625546D01*
X167687688Y-96625551D01*
X167540965Y-96716052D01*
X167540961Y-96716055D01*
X167419055Y-96837961D01*
X167419052Y-96837965D01*
X167328551Y-96984688D01*
X167328546Y-96984699D01*
X167274320Y-97148344D01*
X167274319Y-97148346D01*
X167264000Y-97249345D01*
X134610500Y-97249345D01*
X134610500Y-95571741D01*
X134610501Y-95571720D01*
X134610501Y-95442391D01*
X134586464Y-95321553D01*
X134586462Y-95321546D01*
X134579286Y-95304223D01*
X134579285Y-95304219D01*
X134579285Y-95304220D01*
X134574223Y-95292000D01*
X134561842Y-95262108D01*
X134539312Y-95207715D01*
X134470858Y-95105267D01*
X134470855Y-95105263D01*
X131810928Y-92445338D01*
X131810925Y-92445334D01*
X131810925Y-92445335D01*
X131803858Y-92438268D01*
X131803858Y-92438267D01*
X131716733Y-92351142D01*
X131716732Y-92351141D01*
X131716731Y-92351140D01*
X131665509Y-92316915D01*
X131654310Y-92309432D01*
X131614286Y-92282688D01*
X131614283Y-92282686D01*
X131614280Y-92282685D01*
X131533792Y-92249347D01*
X131500453Y-92235537D01*
X131490427Y-92233543D01*
X131440029Y-92223518D01*
X131379610Y-92211500D01*
X131379607Y-92211500D01*
X131379606Y-92211500D01*
X116491860Y-92211500D01*
X116424821Y-92191815D01*
X116411391Y-92181843D01*
X115740274Y-91609418D01*
X115716892Y-91590797D01*
X115713646Y-91588212D01*
X115708855Y-91585619D01*
X115695681Y-91578488D01*
X115680396Y-91568705D01*
X115678118Y-91567000D01*
X115646331Y-91543204D01*
X115646328Y-91543202D01*
X115603460Y-91527214D01*
X115587766Y-91520082D01*
X115587111Y-91519727D01*
X115579517Y-91516927D01*
X115579508Y-91516924D01*
X115571424Y-91514720D01*
X115560714Y-91511271D01*
X115514916Y-91494189D01*
X115458983Y-91452317D01*
X115434566Y-91386853D01*
X115449418Y-91318580D01*
X115470563Y-91290332D01*
X115592495Y-91168401D01*
X115728035Y-90974830D01*
X115827903Y-90760663D01*
X115889063Y-90532408D01*
X115909659Y-90297000D01*
X115889063Y-90061592D01*
X115827903Y-89833337D01*
X115728035Y-89619171D01*
X115714925Y-89600447D01*
X115592494Y-89425597D01*
X115425402Y-89258506D01*
X115425401Y-89258505D01*
X115239405Y-89128269D01*
X115195781Y-89073692D01*
X115188588Y-89004193D01*
X115220110Y-88941839D01*
X115239405Y-88925119D01*
X115425082Y-88795105D01*
X115592105Y-88628082D01*
X115727600Y-88434578D01*
X115827429Y-88220492D01*
X115827432Y-88220486D01*
X115884636Y-88007000D01*
X114987012Y-88007000D01*
X115019925Y-87949993D01*
X115054000Y-87822826D01*
X115054000Y-87691174D01*
X115019925Y-87564007D01*
X114987012Y-87507000D01*
X115884636Y-87507000D01*
X115884635Y-87506999D01*
X115827432Y-87293513D01*
X115827429Y-87293507D01*
X115727600Y-87079422D01*
X115727599Y-87079420D01*
X115592113Y-86885926D01*
X115592108Y-86885920D01*
X115425082Y-86718894D01*
X115231578Y-86583399D01*
X115017492Y-86483570D01*
X115017486Y-86483567D01*
X114804000Y-86426364D01*
X114804000Y-87323988D01*
X114746993Y-87291075D01*
X114619826Y-87257000D01*
X114488174Y-87257000D01*
X114361007Y-87291075D01*
X114304000Y-87323988D01*
X114304000Y-86426364D01*
X114303999Y-86426364D01*
X114090513Y-86483567D01*
X114090507Y-86483570D01*
X113876422Y-86583399D01*
X113876420Y-86583400D01*
X113682926Y-86718886D01*
X113682920Y-86718891D01*
X113515891Y-86885920D01*
X113515886Y-86885926D01*
X113380400Y-87079420D01*
X113380399Y-87079422D01*
X113280570Y-87293507D01*
X113280567Y-87293513D01*
X113223364Y-87506999D01*
X113223364Y-87507000D01*
X114120988Y-87507000D01*
X114088075Y-87564007D01*
X114054000Y-87691174D01*
X114054000Y-87822826D01*
X114088075Y-87949993D01*
X114120988Y-88007000D01*
X113223364Y-88007000D01*
X113280567Y-88220486D01*
X113280570Y-88220492D01*
X113380399Y-88434578D01*
X113515894Y-88628082D01*
X113682917Y-88795105D01*
X113863336Y-88921437D01*
X113906961Y-88976014D01*
X113914153Y-89045513D01*
X113882631Y-89107867D01*
X113845899Y-89134787D01*
X112753935Y-89659275D01*
X112700248Y-89671500D01*
X110174388Y-89671500D01*
X110053555Y-89695535D01*
X110053547Y-89695537D01*
X109939716Y-89742687D01*
X109921539Y-89754833D01*
X109865293Y-89792416D01*
X109861263Y-89795109D01*
X109837263Y-89811144D01*
X107362848Y-92285559D01*
X107301525Y-92319044D01*
X107231833Y-92314060D01*
X107221022Y-92309432D01*
X106261422Y-91843674D01*
X106244592Y-91835505D01*
X106192878Y-91788525D01*
X106174772Y-91721042D01*
X106196025Y-91654483D01*
X106222572Y-91626101D01*
X106387784Y-91497513D01*
X106544979Y-91326753D01*
X106671924Y-91132449D01*
X106765157Y-90919900D01*
X106822134Y-90694905D01*
X106822135Y-90694897D01*
X106841300Y-90463606D01*
X106841300Y-90463593D01*
X106822135Y-90232302D01*
X106822133Y-90232291D01*
X106765157Y-90007299D01*
X106671924Y-89794751D01*
X106544983Y-89600452D01*
X106544980Y-89600449D01*
X106544979Y-89600447D01*
X106387784Y-89429687D01*
X106210180Y-89291453D01*
X106169368Y-89234743D01*
X106165693Y-89164970D01*
X106200324Y-89104287D01*
X106210181Y-89095746D01*
X106218265Y-89089454D01*
X106387784Y-88957513D01*
X106544979Y-88786753D01*
X106671924Y-88592449D01*
X106765157Y-88379900D01*
X106822134Y-88154905D01*
X106822135Y-88154897D01*
X106841300Y-87923606D01*
X106841300Y-87923593D01*
X106822135Y-87692302D01*
X106822133Y-87692291D01*
X106765157Y-87467299D01*
X106671924Y-87254751D01*
X106544983Y-87060452D01*
X106544980Y-87060449D01*
X106544979Y-87060447D01*
X106387784Y-86889687D01*
X106210180Y-86751453D01*
X106169368Y-86694743D01*
X106165693Y-86624970D01*
X106200324Y-86564287D01*
X106210181Y-86555746D01*
X106387784Y-86417513D01*
X106544979Y-86246753D01*
X106671924Y-86052449D01*
X106765157Y-85839900D01*
X106822134Y-85614905D01*
X106841300Y-85383600D01*
X106841300Y-85383593D01*
X106822135Y-85152302D01*
X106822133Y-85152291D01*
X106765157Y-84927299D01*
X106671924Y-84714751D01*
X106544983Y-84520452D01*
X106544980Y-84520449D01*
X106544979Y-84520447D01*
X106387784Y-84349687D01*
X106210180Y-84211453D01*
X106169368Y-84154743D01*
X106165693Y-84084970D01*
X106200324Y-84024287D01*
X106210181Y-84015746D01*
X106215390Y-84011692D01*
X106387784Y-83877513D01*
X106544979Y-83706753D01*
X106671924Y-83512449D01*
X106765157Y-83299900D01*
X106822134Y-83074905D01*
X106841300Y-82843600D01*
X106841300Y-82843593D01*
X106822135Y-82612302D01*
X106822133Y-82612291D01*
X106765157Y-82387299D01*
X106671924Y-82174751D01*
X106621337Y-82097321D01*
X106601149Y-82030432D01*
X106620330Y-81963246D01*
X106672789Y-81917096D01*
X106725146Y-81905500D01*
X154733048Y-81905500D01*
X154800087Y-81925185D01*
X154820728Y-81941818D01*
X160942916Y-88064007D01*
X166965463Y-94086554D01*
X166992422Y-94126972D01*
X167170509Y-94558937D01*
X167170511Y-94558942D01*
X167221664Y-94683018D01*
X167221664Y-94683019D01*
X167257951Y-94771037D01*
X167266669Y-94805697D01*
X167273825Y-94875750D01*
X167273826Y-94875753D01*
X167315309Y-95000940D01*
X167328091Y-95039513D01*
X167328093Y-95039518D01*
X167333886Y-95048910D01*
X167418660Y-95186350D01*
X167540650Y-95308340D01*
X167687484Y-95398908D01*
X167851247Y-95453174D01*
X167952323Y-95463500D01*
X168550676Y-95463499D01*
X168550684Y-95463498D01*
X168550687Y-95463498D01*
X168617372Y-95456686D01*
X168651753Y-95453174D01*
X168815516Y-95398908D01*
X168962350Y-95308340D01*
X169053994Y-95216695D01*
X169115313Y-95183213D01*
X169185005Y-95188197D01*
X169240939Y-95230068D01*
X169253736Y-95251298D01*
X169369223Y-95495127D01*
X169389065Y-95537018D01*
X169401000Y-95590097D01*
X169401000Y-96396190D01*
X169381892Y-96462323D01*
X169242309Y-96683711D01*
X169189903Y-96729922D01*
X169120834Y-96740464D01*
X169069036Y-96718465D01*
X169068185Y-96719846D01*
X168915311Y-96625551D01*
X168915300Y-96625546D01*
X168751652Y-96571319D01*
X168650654Y-96561000D01*
X168551500Y-96561000D01*
X168551500Y-98510999D01*
X168650640Y-98510999D01*
X168650654Y-98510998D01*
X168751652Y-98500680D01*
X168915300Y-98446453D01*
X168915311Y-98446448D01*
X169062035Y-98355947D01*
X169075960Y-98342021D01*
X169137282Y-98308533D01*
X169206973Y-98313514D01*
X169251327Y-98342017D01*
X169265650Y-98356340D01*
X169412484Y-98446908D01*
X169576247Y-98501174D01*
X169677323Y-98511500D01*
X170375676Y-98511499D01*
X170375684Y-98511498D01*
X170375687Y-98511498D01*
X170431030Y-98505844D01*
X170476753Y-98501174D01*
X170640516Y-98446908D01*
X170787350Y-98356340D01*
X170909340Y-98234350D01*
X170999908Y-98087516D01*
X171054174Y-97923753D01*
X171064500Y-97822677D01*
X171064499Y-97249324D01*
X171060527Y-97210444D01*
X171054174Y-97148247D01*
X171040324Y-97106450D01*
X170999908Y-96984484D01*
X170948935Y-96901844D01*
X173734000Y-96901844D01*
X173740401Y-96961372D01*
X173740403Y-96961379D01*
X173790645Y-97096086D01*
X173790649Y-97096093D01*
X173876809Y-97211187D01*
X173876812Y-97211190D01*
X173991906Y-97297350D01*
X173991913Y-97297354D01*
X174126620Y-97347596D01*
X174126627Y-97347598D01*
X174186155Y-97353999D01*
X174186172Y-97354000D01*
X174884000Y-97354000D01*
X175384000Y-97354000D01*
X176081828Y-97354000D01*
X176081844Y-97353999D01*
X176141372Y-97347598D01*
X176141379Y-97347596D01*
X176276086Y-97297354D01*
X176276093Y-97297350D01*
X176391187Y-97211190D01*
X176391190Y-97211187D01*
X176477350Y-97096093D01*
X176477354Y-97096086D01*
X176527596Y-96961379D01*
X176527598Y-96961372D01*
X176533999Y-96901844D01*
X176534000Y-96901827D01*
X176534000Y-96704000D01*
X175384000Y-96704000D01*
X175384000Y-97354000D01*
X174884000Y-97354000D01*
X174884000Y-96704000D01*
X173734000Y-96704000D01*
X173734000Y-96901844D01*
X170948935Y-96901844D01*
X170909340Y-96837650D01*
X170909338Y-96837648D01*
X170909337Y-96837646D01*
X170905565Y-96832876D01*
X170897936Y-96822096D01*
X170872096Y-96781112D01*
X170671107Y-96462323D01*
X170652000Y-96396190D01*
X170652000Y-95628507D01*
X170671250Y-95562148D01*
X170678285Y-95551042D01*
X170678286Y-95551043D01*
X170803618Y-95353202D01*
X170856120Y-95307108D01*
X170859567Y-95305571D01*
X171036064Y-95230068D01*
X171130910Y-95189494D01*
X171179680Y-95179500D01*
X173631211Y-95179500D01*
X173698250Y-95199185D01*
X173701460Y-95201319D01*
X173929362Y-95358001D01*
X173942226Y-95366845D01*
X173979010Y-95389077D01*
X173989185Y-95395937D01*
X173998771Y-95403114D01*
X173997171Y-95405249D01*
X174036778Y-95444844D01*
X174051640Y-95513114D01*
X174027233Y-95578582D01*
X173997972Y-95603944D01*
X173999011Y-95605331D01*
X173876812Y-95696809D01*
X173876809Y-95696812D01*
X173790649Y-95811906D01*
X173790645Y-95811913D01*
X173740403Y-95946620D01*
X173740401Y-95946627D01*
X173734000Y-96006155D01*
X173734000Y-96204000D01*
X176534000Y-96204000D01*
X176534000Y-96006172D01*
X176533999Y-96006155D01*
X176527598Y-95946627D01*
X176527596Y-95946620D01*
X176477354Y-95811913D01*
X176477350Y-95811906D01*
X176391190Y-95696812D01*
X176391187Y-95696809D01*
X176268989Y-95605331D01*
X176270632Y-95603135D01*
X176231211Y-95563712D01*
X176216360Y-95495438D01*
X176240778Y-95429974D01*
X176270236Y-95404455D01*
X176269231Y-95403112D01*
X176378178Y-95321553D01*
X176391546Y-95311546D01*
X176477796Y-95196331D01*
X176528091Y-95061483D01*
X176534500Y-95001873D01*
X176534499Y-94106128D01*
X176528091Y-94046517D01*
X176527356Y-94044547D01*
X176477797Y-93911671D01*
X176477793Y-93911664D01*
X176391547Y-93796455D01*
X176391544Y-93796452D01*
X176276335Y-93710206D01*
X176276328Y-93710202D01*
X176141482Y-93659908D01*
X176141483Y-93659908D01*
X176081883Y-93653501D01*
X176081881Y-93653500D01*
X176081873Y-93653500D01*
X176081865Y-93653500D01*
X174296380Y-93653500D01*
X174283262Y-93652262D01*
X174275803Y-93651809D01*
X174275802Y-93651809D01*
X174275800Y-93651809D01*
X174275799Y-93651809D01*
X174254583Y-93653225D01*
X174246330Y-93653500D01*
X174186131Y-93653500D01*
X174186122Y-93653501D01*
X174126520Y-93659908D01*
X174126513Y-93659910D01*
X174107539Y-93666986D01*
X174096466Y-93670534D01*
X174071181Y-93677345D01*
X174050583Y-93687536D01*
X174038934Y-93692574D01*
X173991669Y-93710204D01*
X173991667Y-93710205D01*
X173991665Y-93710206D01*
X173975225Y-93722512D01*
X173955917Y-93734378D01*
X173942229Y-93741151D01*
X173841897Y-93810130D01*
X173746817Y-93875498D01*
X173701460Y-93906681D01*
X173635065Y-93928440D01*
X173631210Y-93928500D01*
X171230966Y-93928500D01*
X171164137Y-93908950D01*
X170922116Y-93754100D01*
X170793985Y-93672119D01*
X170790158Y-93669391D01*
X170778895Y-93662444D01*
X170777167Y-93661358D01*
X170705925Y-93615776D01*
X170705910Y-93615767D01*
X170705899Y-93615760D01*
X170678524Y-93599438D01*
X170678521Y-93599437D01*
X170678508Y-93599429D01*
X170675977Y-93598205D01*
X170664884Y-93592122D01*
X170640520Y-93577094D01*
X170640517Y-93577092D01*
X170640516Y-93577092D01*
X170476753Y-93522826D01*
X170476751Y-93522825D01*
X170375678Y-93512500D01*
X169777330Y-93512500D01*
X169777312Y-93512501D01*
X169676247Y-93522825D01*
X169512484Y-93577092D01*
X169512481Y-93577093D01*
X169365648Y-93667661D01*
X169251681Y-93781629D01*
X169190358Y-93815114D01*
X169120666Y-93810130D01*
X169076319Y-93781629D01*
X168962351Y-93667661D01*
X168962350Y-93667660D01*
X168844165Y-93594763D01*
X168815518Y-93577093D01*
X168815513Y-93577091D01*
X168651754Y-93522826D01*
X168651746Y-93522825D01*
X168584278Y-93515932D01*
X168548780Y-93506864D01*
X167891151Y-93230089D01*
X167851571Y-93203480D01*
X163556581Y-88908490D01*
X176765570Y-88908490D01*
X176777038Y-88979727D01*
X176788062Y-89048213D01*
X176788438Y-89050545D01*
X176788439Y-89050548D01*
X176850399Y-89180401D01*
X177350397Y-89930399D01*
X177350399Y-89930401D01*
X177388969Y-89981032D01*
X177497706Y-90075254D01*
X177538174Y-90093735D01*
X177628580Y-90135023D01*
X177628583Y-90135023D01*
X177628584Y-90135024D01*
X177771000Y-90155500D01*
X178413770Y-90155500D01*
X178480809Y-90175185D01*
X178501451Y-90191819D01*
X181646054Y-93336421D01*
X181650823Y-93341464D01*
X181656172Y-93347449D01*
X181660656Y-93351569D01*
X181660575Y-93351656D01*
X181666008Y-93356375D01*
X181896185Y-93586552D01*
X181915467Y-93599435D01*
X181915470Y-93599439D01*
X181915471Y-93599438D01*
X182019098Y-93668680D01*
X182019111Y-93668687D01*
X182075679Y-93692118D01*
X182075680Y-93692118D01*
X182155688Y-93725259D01*
X182271841Y-93748363D01*
X182291068Y-93752187D01*
X182300681Y-93754100D01*
X182300682Y-93754100D01*
X182300683Y-93754100D01*
X182322240Y-93754100D01*
X182381933Y-93769414D01*
X182735715Y-93963719D01*
X182784999Y-94013245D01*
X182791170Y-94026396D01*
X182845992Y-94163626D01*
X182871548Y-94227598D01*
X182878138Y-94297156D01*
X182871548Y-94319600D01*
X182841486Y-94394853D01*
X182798336Y-94449806D01*
X182769803Y-94464983D01*
X182020033Y-94745631D01*
X181976564Y-94753500D01*
X179861483Y-94753500D01*
X179817944Y-94745605D01*
X179590213Y-94660206D01*
X179515973Y-94632366D01*
X179515970Y-94632365D01*
X179466595Y-94616684D01*
X179460702Y-94615425D01*
X179460862Y-94614675D01*
X179442380Y-94610243D01*
X179441486Y-94609909D01*
X179441482Y-94609908D01*
X179381883Y-94603501D01*
X179381881Y-94603500D01*
X179381873Y-94603500D01*
X179381865Y-94603500D01*
X179357907Y-94603500D01*
X179343872Y-94602703D01*
X179335418Y-94601739D01*
X179323639Y-94600398D01*
X179323638Y-94600398D01*
X179321426Y-94600463D01*
X179314787Y-94600658D01*
X179299395Y-94601904D01*
X179284672Y-94603096D01*
X179274668Y-94603500D01*
X177486129Y-94603500D01*
X177486123Y-94603501D01*
X177426516Y-94609908D01*
X177291671Y-94660202D01*
X177291664Y-94660206D01*
X177176455Y-94746452D01*
X177176452Y-94746455D01*
X177090206Y-94861664D01*
X177090202Y-94861671D01*
X177039908Y-94996517D01*
X177033501Y-95056116D01*
X177033500Y-95056135D01*
X177033500Y-95951870D01*
X177033501Y-95951876D01*
X177039908Y-96011483D01*
X177090202Y-96146328D01*
X177090206Y-96146335D01*
X177176452Y-96261544D01*
X177176455Y-96261547D01*
X177291664Y-96347793D01*
X177291671Y-96347797D01*
X177426517Y-96398091D01*
X177426516Y-96398091D01*
X177433444Y-96398835D01*
X177486127Y-96404500D01*
X179287702Y-96404499D01*
X179308956Y-96406334D01*
X179309715Y-96406466D01*
X179314733Y-96407339D01*
X179323588Y-96407600D01*
X179323593Y-96407599D01*
X179323596Y-96407600D01*
X179351239Y-96406995D01*
X179375435Y-96406466D01*
X179380219Y-96405416D01*
X179393554Y-96403242D01*
X179441483Y-96398091D01*
X179473084Y-96386303D01*
X179489852Y-96381364D01*
X179515973Y-96375634D01*
X179817945Y-96262395D01*
X179861484Y-96254500D01*
X181962889Y-96254500D01*
X182011777Y-96264543D01*
X183341406Y-96834978D01*
X183343380Y-96835820D01*
X183343493Y-96835868D01*
X183343492Y-96835868D01*
X183343501Y-96835872D01*
X183373266Y-96846528D01*
X183397929Y-96855358D01*
X183397931Y-96855358D01*
X183403951Y-96856856D01*
X183403930Y-96856940D01*
X183419080Y-96860603D01*
X183551016Y-96905897D01*
X183551019Y-96905898D01*
X183779951Y-96944100D01*
X183779952Y-96944100D01*
X184012048Y-96944100D01*
X184012049Y-96944100D01*
X184240981Y-96905898D01*
X184460503Y-96830536D01*
X184664626Y-96720070D01*
X184667867Y-96717548D01*
X184758507Y-96647000D01*
X184847784Y-96577513D01*
X185004979Y-96406753D01*
X185006801Y-96403965D01*
X185091824Y-96273826D01*
X185131924Y-96212449D01*
X185225157Y-95999900D01*
X185282134Y-95774905D01*
X185285205Y-95737843D01*
X185301300Y-95543606D01*
X185301300Y-95543593D01*
X185282135Y-95312302D01*
X185282131Y-95312282D01*
X185257925Y-95216698D01*
X185225157Y-95087300D01*
X185203624Y-95038211D01*
X185196653Y-95017544D01*
X185192864Y-95001873D01*
X185192637Y-95000935D01*
X185192635Y-95000930D01*
X185192633Y-95000923D01*
X184941165Y-94371454D01*
X184920449Y-94319599D01*
X184913859Y-94250043D01*
X184920450Y-94227597D01*
X184925468Y-94215036D01*
X185192637Y-93546264D01*
X185209050Y-93498336D01*
X185209050Y-93498332D01*
X185210050Y-93495414D01*
X185213807Y-93485775D01*
X185223522Y-93463628D01*
X185225157Y-93459900D01*
X185282134Y-93234905D01*
X185284738Y-93203480D01*
X185301300Y-93003606D01*
X185301300Y-93003593D01*
X185282135Y-92772302D01*
X185282133Y-92772291D01*
X185225157Y-92547299D01*
X185131924Y-92334751D01*
X185004983Y-92140452D01*
X185004980Y-92140449D01*
X185004979Y-92140447D01*
X184847784Y-91969687D01*
X184847779Y-91969683D01*
X184847777Y-91969681D01*
X184664634Y-91827135D01*
X184664628Y-91827131D01*
X184460504Y-91716664D01*
X184460495Y-91716661D01*
X184240984Y-91641302D01*
X184069282Y-91612650D01*
X184012049Y-91603100D01*
X183779951Y-91603100D01*
X183742155Y-91609407D01*
X183551020Y-91641301D01*
X183390057Y-91696559D01*
X183377149Y-91700222D01*
X183360441Y-91704000D01*
X182550023Y-92013837D01*
X182480375Y-92019391D01*
X182418780Y-91986408D01*
X182418061Y-91985694D01*
X179312819Y-88880451D01*
X179279334Y-88819128D01*
X179276500Y-88792770D01*
X179276500Y-88150000D01*
X179271355Y-88078060D01*
X179230819Y-87940008D01*
X179183432Y-87866272D01*
X179153032Y-87818969D01*
X179153028Y-87818965D01*
X179044299Y-87724750D01*
X179044297Y-87724748D01*
X179044294Y-87724746D01*
X179044290Y-87724744D01*
X178913419Y-87664976D01*
X178913414Y-87664975D01*
X178771000Y-87644500D01*
X177771000Y-87644500D01*
X177770984Y-87644500D01*
X177707476Y-87648507D01*
X177568770Y-87686714D01*
X177568758Y-87686719D01*
X177446433Y-87762460D01*
X177350395Y-87869603D01*
X176850407Y-88619585D01*
X176841213Y-88633890D01*
X176783651Y-88765755D01*
X176765570Y-88908490D01*
X163556581Y-88908490D01*
X160031684Y-85383593D01*
X182490700Y-85383593D01*
X182490700Y-85383606D01*
X182509864Y-85614897D01*
X182509866Y-85614908D01*
X182566842Y-85839900D01*
X182660075Y-86052448D01*
X182787016Y-86246747D01*
X182787019Y-86246751D01*
X182787021Y-86246753D01*
X182944216Y-86417513D01*
X182944219Y-86417515D01*
X182944222Y-86417518D01*
X183121818Y-86555747D01*
X183162631Y-86612457D01*
X183166306Y-86682230D01*
X183131674Y-86742913D01*
X183121818Y-86751453D01*
X182944222Y-86889681D01*
X182944219Y-86889684D01*
X182787016Y-87060452D01*
X182660075Y-87254751D01*
X182566842Y-87467299D01*
X182509866Y-87692291D01*
X182509864Y-87692302D01*
X182490700Y-87923593D01*
X182490700Y-87923606D01*
X182509864Y-88154897D01*
X182509866Y-88154908D01*
X182566842Y-88379900D01*
X182660075Y-88592448D01*
X182787016Y-88786747D01*
X182787019Y-88786751D01*
X182787021Y-88786753D01*
X182944216Y-88957513D01*
X182944219Y-88957515D01*
X182944222Y-88957518D01*
X183127365Y-89100064D01*
X183127371Y-89100068D01*
X183127374Y-89100070D01*
X183294860Y-89190709D01*
X183320646Y-89204664D01*
X183331497Y-89210536D01*
X183402010Y-89234743D01*
X183551015Y-89285897D01*
X183551017Y-89285897D01*
X183551019Y-89285898D01*
X183779951Y-89324100D01*
X183779952Y-89324100D01*
X184012048Y-89324100D01*
X184012049Y-89324100D01*
X184240981Y-89285898D01*
X184460503Y-89210536D01*
X184664626Y-89100070D01*
X184670182Y-89095746D01*
X184789080Y-89003204D01*
X184847784Y-88957513D01*
X185004979Y-88786753D01*
X185131924Y-88592449D01*
X185225157Y-88379900D01*
X185282134Y-88154905D01*
X185282135Y-88154897D01*
X185301300Y-87923606D01*
X185301300Y-87923593D01*
X185282135Y-87692302D01*
X185282133Y-87692291D01*
X185225157Y-87467299D01*
X185131924Y-87254751D01*
X185004983Y-87060452D01*
X185004980Y-87060449D01*
X185004979Y-87060447D01*
X184847784Y-86889687D01*
X184670180Y-86751453D01*
X184629368Y-86694743D01*
X184625693Y-86624970D01*
X184660324Y-86564287D01*
X184670181Y-86555746D01*
X184847784Y-86417513D01*
X185004979Y-86246753D01*
X185131924Y-86052449D01*
X185225157Y-85839900D01*
X185282134Y-85614905D01*
X185301300Y-85383600D01*
X185301300Y-85383593D01*
X185282135Y-85152302D01*
X185282133Y-85152291D01*
X185225157Y-84927299D01*
X185131924Y-84714751D01*
X185004983Y-84520452D01*
X185004980Y-84520449D01*
X185004979Y-84520447D01*
X184847784Y-84349687D01*
X184847779Y-84349683D01*
X184847777Y-84349681D01*
X184664634Y-84207135D01*
X184664628Y-84207131D01*
X184460504Y-84096664D01*
X184460495Y-84096661D01*
X184240984Y-84021302D01*
X184069282Y-83992650D01*
X184012049Y-83983100D01*
X183779951Y-83983100D01*
X183734164Y-83990740D01*
X183551015Y-84021302D01*
X183331504Y-84096661D01*
X183331495Y-84096664D01*
X183127371Y-84207131D01*
X183127365Y-84207135D01*
X182944222Y-84349681D01*
X182944219Y-84349684D01*
X182787016Y-84520452D01*
X182660075Y-84714751D01*
X182566842Y-84927299D01*
X182509866Y-85152291D01*
X182509864Y-85152302D01*
X182490700Y-85383593D01*
X160031684Y-85383593D01*
X155529358Y-80881267D01*
X155442233Y-80794142D01*
X155442232Y-80794141D01*
X155442231Y-80794140D01*
X155391009Y-80759915D01*
X155381048Y-80753259D01*
X155339786Y-80725688D01*
X155339783Y-80725686D01*
X155339780Y-80725685D01*
X155259292Y-80692347D01*
X155225953Y-80678537D01*
X155215927Y-80676543D01*
X155165529Y-80666518D01*
X155105110Y-80654500D01*
X155105107Y-80654500D01*
X155105106Y-80654500D01*
X104558754Y-80654500D01*
X104491715Y-80634815D01*
X104445960Y-80582011D01*
X104436016Y-80512853D01*
X104465041Y-80449297D01*
X104485866Y-80430183D01*
X104508997Y-80413378D01*
X104740650Y-80195842D01*
X104943212Y-79950986D01*
X105113488Y-79682674D01*
X105248793Y-79395137D01*
X105346993Y-79092908D01*
X105406539Y-78780755D01*
X105426493Y-78463600D01*
X105426493Y-78463594D01*
X181365507Y-78463594D01*
X181365507Y-78463605D01*
X181385459Y-78780744D01*
X181385460Y-78780751D01*
X181445008Y-79092912D01*
X181543207Y-79395138D01*
X181543209Y-79395143D01*
X181678510Y-79682670D01*
X181678513Y-79682676D01*
X181848784Y-79950981D01*
X181848787Y-79950985D01*
X181848788Y-79950986D01*
X182051350Y-80195842D01*
X182283003Y-80413378D01*
X182540094Y-80600166D01*
X182818568Y-80753259D01*
X182818573Y-80753261D01*
X182818575Y-80753262D01*
X182818576Y-80753263D01*
X183114031Y-80870241D01*
X183114034Y-80870242D01*
X183421836Y-80949272D01*
X183737097Y-80989099D01*
X183737106Y-80989099D01*
X183737109Y-80989100D01*
X183737111Y-80989100D01*
X184054889Y-80989100D01*
X184054891Y-80989100D01*
X184054894Y-80989099D01*
X184054902Y-80989099D01*
X184370163Y-80949272D01*
X184677965Y-80870242D01*
X184677968Y-80870241D01*
X184973423Y-80753263D01*
X184973424Y-80753262D01*
X184973422Y-80753262D01*
X184973432Y-80753259D01*
X185251906Y-80600166D01*
X185508997Y-80413378D01*
X185740650Y-80195842D01*
X185943212Y-79950986D01*
X186113488Y-79682674D01*
X186248793Y-79395137D01*
X186346993Y-79092908D01*
X186406539Y-78780755D01*
X186426493Y-78463600D01*
X186406539Y-78146445D01*
X186346993Y-77834292D01*
X186248793Y-77532063D01*
X186113488Y-77244526D01*
X185943212Y-76976214D01*
X185740650Y-76731358D01*
X185508997Y-76513822D01*
X185508995Y-76513820D01*
X185251909Y-76327036D01*
X185251908Y-76327035D01*
X185251906Y-76327034D01*
X184973432Y-76173941D01*
X184973429Y-76173939D01*
X184973424Y-76173937D01*
X184973423Y-76173936D01*
X184677968Y-76056958D01*
X184677965Y-76056957D01*
X184370163Y-75977927D01*
X184054902Y-75938100D01*
X184054891Y-75938100D01*
X183737109Y-75938100D01*
X183737097Y-75938100D01*
X183421836Y-75977927D01*
X183114034Y-76056957D01*
X183114031Y-76056958D01*
X182818576Y-76173936D01*
X182818575Y-76173937D01*
X182540094Y-76327034D01*
X182540090Y-76327036D01*
X182283004Y-76513820D01*
X182283001Y-76513823D01*
X182051352Y-76731356D01*
X181848784Y-76976218D01*
X181678513Y-77244523D01*
X181678510Y-77244529D01*
X181543209Y-77532056D01*
X181543207Y-77532061D01*
X181445008Y-77834287D01*
X181385460Y-78146448D01*
X181385459Y-78146455D01*
X181365507Y-78463594D01*
X105426493Y-78463594D01*
X105406539Y-78146445D01*
X105346993Y-77834292D01*
X105248793Y-77532063D01*
X105113488Y-77244526D01*
X104943212Y-76976214D01*
X104740650Y-76731358D01*
X104508997Y-76513822D01*
X104508995Y-76513820D01*
X104251909Y-76327036D01*
X104251908Y-76327035D01*
X104251906Y-76327034D01*
X103973432Y-76173941D01*
X103973429Y-76173939D01*
X103973424Y-76173937D01*
X103973423Y-76173936D01*
X103677968Y-76056958D01*
X103677965Y-76056957D01*
X103370163Y-75977927D01*
X103054902Y-75938100D01*
X103054891Y-75938100D01*
X102737109Y-75938100D01*
X102737097Y-75938100D01*
X102421836Y-75977927D01*
X102114034Y-76056957D01*
X102114031Y-76056958D01*
X101818576Y-76173936D01*
X101818575Y-76173937D01*
X101540094Y-76327034D01*
X101540090Y-76327036D01*
X101283004Y-76513820D01*
X101283001Y-76513823D01*
X101051352Y-76731356D01*
X100848784Y-76976218D01*
X100678513Y-77244523D01*
X100678510Y-77244529D01*
X100543209Y-77532056D01*
X100543207Y-77532061D01*
X100445008Y-77834287D01*
X100385460Y-78146448D01*
X100385459Y-78146455D01*
X100365507Y-78463594D01*
X100365507Y-78463605D01*
X100385459Y-78780744D01*
X100385460Y-78780751D01*
X100445008Y-79092912D01*
X100543207Y-79395138D01*
X100543209Y-79395143D01*
X100678510Y-79682670D01*
X100678513Y-79682676D01*
X100848784Y-79950981D01*
X100848787Y-79950985D01*
X100848788Y-79950986D01*
X101051350Y-80195842D01*
X101283003Y-80413378D01*
X101306131Y-80430182D01*
X101348797Y-80485511D01*
X101354776Y-80555124D01*
X101322171Y-80616920D01*
X101261332Y-80651277D01*
X101233246Y-80654500D01*
X94934389Y-80654500D01*
X94873971Y-80666518D01*
X94836259Y-80674019D01*
X94813550Y-80678536D01*
X94813548Y-80678537D01*
X94780207Y-80692347D01*
X94699719Y-80725684D01*
X94699705Y-80725692D01*
X94597272Y-80794138D01*
X94597264Y-80794144D01*
X91408309Y-83983100D01*
X88374270Y-87017139D01*
X88374267Y-87017142D01*
X88330962Y-87060447D01*
X88287144Y-87104264D01*
X88287142Y-87104267D01*
X88266863Y-87134617D01*
X88266862Y-87134619D01*
X88266861Y-87134618D01*
X88218689Y-87206712D01*
X88218688Y-87206713D01*
X88218688Y-87206714D01*
X88205108Y-87239500D01*
X88175083Y-87311989D01*
X88171537Y-87320549D01*
X88171535Y-87320556D01*
X88147500Y-87441389D01*
X87376000Y-87441389D01*
X87376000Y-74546000D01*
X87395685Y-74478961D01*
X87448489Y-74433206D01*
X87500000Y-74422000D01*
X186820000Y-74422000D01*
X186887039Y-74441685D01*
G37*
%TD.AperFunction*%
%TD*%
%TA.AperFunction,Conductor*%
%TO.N,Net-(J1-Pin_9)*%
G36*
X129812728Y-102652300D02*
G01*
X130324502Y-102906275D01*
X130330388Y-102913021D01*
X130331000Y-102916754D01*
X130331000Y-103152245D01*
X130327573Y-103160518D01*
X130324501Y-103162725D01*
X129812730Y-103416698D01*
X129803796Y-103417306D01*
X129802340Y-103416704D01*
X129267933Y-103152245D01*
X129051188Y-103044985D01*
X129045294Y-103038246D01*
X129045892Y-103029311D01*
X129051188Y-103024014D01*
X129802341Y-102652294D01*
X129811275Y-102651697D01*
X129812728Y-102652300D01*
G37*
%TD.AperFunction*%
%TD*%
%TA.AperFunction,Conductor*%
%TO.N,Net-(J1-Pin_9)*%
G36*
X115412217Y-91994008D02*
G01*
X116249893Y-92708497D01*
X116253963Y-92716472D01*
X116254000Y-92717398D01*
X116254000Y-92956601D01*
X116250573Y-92964874D01*
X116249893Y-92965503D01*
X115412218Y-93679990D01*
X115403699Y-93682751D01*
X115396357Y-93679366D01*
X114681024Y-92964874D01*
X114561286Y-92845276D01*
X114557855Y-92837007D01*
X114561276Y-92828733D01*
X115396358Y-91994632D01*
X115404632Y-91991211D01*
X115412217Y-91994008D01*
G37*
%TD.AperFunction*%
%TD*%
%TA.AperFunction,Conductor*%
%TO.N,Net-(Q2-B)*%
G36*
X174239978Y-94156654D02*
G01*
X174627236Y-94328577D01*
X175110911Y-94543306D01*
X175117082Y-94549795D01*
X175116858Y-94558747D01*
X175110911Y-94564694D01*
X174239981Y-94951344D01*
X174231029Y-94951568D01*
X174228606Y-94950291D01*
X173839072Y-94682487D01*
X173834196Y-94674976D01*
X173834000Y-94672846D01*
X173834000Y-94435154D01*
X173837427Y-94426881D01*
X173839072Y-94425513D01*
X174228606Y-94157707D01*
X174237364Y-94155845D01*
X174239978Y-94156654D01*
G37*
%TD.AperFunction*%
%TD*%
%TA.AperFunction,Conductor*%
%TO.N,Net-(Q2-B)*%
G36*
X170433461Y-94041563D02*
G01*
X171033607Y-94425549D01*
X171038728Y-94432893D01*
X171039000Y-94435403D01*
X171039000Y-94671279D01*
X171035573Y-94679552D01*
X171031902Y-94682036D01*
X170425845Y-94941302D01*
X170416891Y-94941405D01*
X170411875Y-94937554D01*
X170080826Y-94495118D01*
X170078613Y-94486441D01*
X170080931Y-94480961D01*
X170116085Y-94435403D01*
X170417893Y-94044269D01*
X170425659Y-94039814D01*
X170433461Y-94041563D01*
G37*
%TD.AperFunction*%
%TD*%
%TA.AperFunction,Conductor*%
%TO.N,Net-(Q2-B)*%
G36*
X170153318Y-96589427D02*
G01*
X170154942Y-96591460D01*
X170496034Y-97132462D01*
X170497548Y-97141288D01*
X170493628Y-97147690D01*
X170033991Y-97530756D01*
X170025441Y-97533420D01*
X170019009Y-97530756D01*
X169559371Y-97147690D01*
X169555210Y-97139761D01*
X169556964Y-97132463D01*
X169898058Y-96591460D01*
X169905369Y-96586289D01*
X169907955Y-96586000D01*
X170145045Y-96586000D01*
X170153318Y-96589427D01*
G37*
%TD.AperFunction*%
%TD*%
%TA.AperFunction,Conductor*%
%TO.N,Net-(Q2-B)*%
G36*
X170083303Y-94492167D02*
G01*
X170525332Y-94827890D01*
X170529847Y-94835623D01*
X170528139Y-94843468D01*
X170251263Y-95280521D01*
X170155740Y-95431308D01*
X170154946Y-95432561D01*
X170147623Y-95437716D01*
X170145062Y-95438000D01*
X169908904Y-95438000D01*
X169900631Y-95434573D01*
X169898330Y-95431308D01*
X169611301Y-94825302D01*
X169610858Y-94816360D01*
X169615155Y-94810720D01*
X170069507Y-94491906D01*
X170078246Y-94489960D01*
X170083303Y-94492167D01*
G37*
%TD.AperFunction*%
%TD*%
%TA.AperFunction,Conductor*%
%TO.N,VCC*%
G36*
X108482239Y-98862522D02*
G01*
X108484050Y-98864861D01*
X108857209Y-99499030D01*
X108858451Y-99507899D01*
X108856009Y-99512577D01*
X108466315Y-99967328D01*
X108458330Y-99971380D01*
X108449824Y-99968605D01*
X108006990Y-99589671D01*
X108002932Y-99581688D01*
X108003456Y-99577207D01*
X108121967Y-99208075D01*
X108124832Y-99203383D01*
X108465694Y-98862521D01*
X108473966Y-98859095D01*
X108482239Y-98862522D01*
G37*
%TD.AperFunction*%
%TD*%
%TA.AperFunction,Conductor*%
%TO.N,VCC*%
G36*
X106344071Y-97189429D02*
G01*
X106345744Y-97190637D01*
X107231150Y-97830097D01*
X107235851Y-97837719D01*
X107236000Y-97839582D01*
X107236000Y-98327617D01*
X107232573Y-98335890D01*
X107231150Y-98337102D01*
X106344073Y-98977769D01*
X106335360Y-98979835D01*
X106328954Y-98976562D01*
X105443286Y-98091877D01*
X105439856Y-98083606D01*
X105443278Y-98075331D01*
X105443287Y-98075322D01*
X105681154Y-97837719D01*
X106328956Y-97190636D01*
X106337229Y-97187215D01*
X106344071Y-97189429D01*
G37*
%TD.AperFunction*%
%TD*%
%TA.AperFunction,Conductor*%
%TO.N,Net-(DS1-VO)*%
G36*
X114409954Y-100198623D02*
G01*
X114410144Y-100199056D01*
X114680133Y-100848509D01*
X114680144Y-100857464D01*
X114680133Y-100857491D01*
X114410144Y-101506943D01*
X114403804Y-101513267D01*
X114394849Y-101513256D01*
X114394416Y-101513066D01*
X113247776Y-100981143D01*
X113241714Y-100974552D01*
X113241000Y-100970529D01*
X113241000Y-100735470D01*
X113244427Y-100727197D01*
X113247773Y-100724857D01*
X114394418Y-100192932D01*
X114403363Y-100192561D01*
X114409954Y-100198623D01*
G37*
%TD.AperFunction*%
%TD*%
%TA.AperFunction,Conductor*%
%TO.N,Net-(DS1-VO)*%
G36*
X120003106Y-98612428D02*
G01*
X120773215Y-98930438D01*
X120779552Y-98936761D01*
X120779562Y-98936785D01*
X121097567Y-99706883D01*
X121097558Y-99715838D01*
X121091219Y-99722163D01*
X121090629Y-99722388D01*
X119670251Y-100221031D01*
X119661309Y-100220539D01*
X119658102Y-100218265D01*
X119491734Y-100051897D01*
X119488307Y-100043624D01*
X119488968Y-100039748D01*
X119600461Y-99722163D01*
X119987612Y-98619368D01*
X119993584Y-98612699D01*
X120002526Y-98612207D01*
X120003106Y-98612428D01*
G37*
%TD.AperFunction*%
%TD*%
%TA.AperFunction,Conductor*%
%TO.N,Net-(DS1-VO)*%
G36*
X105790950Y-94717243D02*
G01*
X105791550Y-94717512D01*
X107229410Y-95415401D01*
X107235355Y-95422096D01*
X107236000Y-95425926D01*
X107236000Y-95661273D01*
X107232573Y-95669546D01*
X107229409Y-95671799D01*
X105791571Y-96369677D01*
X105782632Y-96370206D01*
X105775936Y-96364260D01*
X105775657Y-96363639D01*
X105436864Y-95548088D01*
X105436855Y-95539134D01*
X105436864Y-95539112D01*
X105775658Y-94723558D01*
X105781996Y-94717234D01*
X105790950Y-94717243D01*
G37*
%TD.AperFunction*%
%TD*%
%TA.AperFunction,Conductor*%
%TO.N,Net-(DS1-VO)*%
G36*
X114967150Y-100192743D02*
G01*
X114967562Y-100192923D01*
X116114225Y-100724857D01*
X116120286Y-100731447D01*
X116121000Y-100735470D01*
X116121000Y-100970529D01*
X116117573Y-100978802D01*
X116114224Y-100981143D01*
X114967583Y-101513066D01*
X114958636Y-101513438D01*
X114952045Y-101507376D01*
X114951855Y-101506943D01*
X114681865Y-100857488D01*
X114681855Y-100848537D01*
X114951856Y-100199054D01*
X114958195Y-100192732D01*
X114967150Y-100192743D01*
G37*
%TD.AperFunction*%
%TD*%
%TA.AperFunction,Conductor*%
%TO.N,/RS*%
G36*
X94188836Y-94596791D02*
G01*
X94189413Y-94597049D01*
X95546366Y-95248814D01*
X95552339Y-95255484D01*
X95553000Y-95259360D01*
X95553000Y-95494639D01*
X95549573Y-95502912D01*
X95546366Y-95505186D01*
X94189413Y-96156950D01*
X94180471Y-96157442D01*
X94173800Y-96151469D01*
X94173542Y-96150892D01*
X93853865Y-95381489D01*
X93853856Y-95372534D01*
X93853865Y-95372511D01*
X94173542Y-94603107D01*
X94179881Y-94596782D01*
X94188836Y-94596791D01*
G37*
%TD.AperFunction*%
%TD*%
%TA.AperFunction,Conductor*%
%TO.N,/RS*%
G36*
X102549930Y-94716402D02*
G01*
X102555936Y-94722584D01*
X102895135Y-95539112D01*
X102895144Y-95548066D01*
X102895135Y-95548088D01*
X102556838Y-96362445D01*
X102550499Y-96368771D01*
X102541545Y-96368762D01*
X102539913Y-96367928D01*
X101134719Y-95505424D01*
X101129460Y-95498176D01*
X101129139Y-95495453D01*
X101129139Y-95260074D01*
X101132566Y-95251801D01*
X101136687Y-95249135D01*
X102540980Y-94716133D01*
X102549930Y-94716402D01*
G37*
%TD.AperFunction*%
%TD*%
%TA.AperFunction,Conductor*%
%TO.N,Net-(JP2-A)*%
G36*
X184146348Y-93747027D02*
G01*
X184148940Y-93750960D01*
X184723210Y-95188467D01*
X184723097Y-95197421D01*
X184716833Y-95203612D01*
X183900488Y-95542735D01*
X183891534Y-95542744D01*
X183891512Y-95542735D01*
X183075166Y-95203612D01*
X183068840Y-95197273D01*
X183068789Y-95188468D01*
X183643060Y-93750958D01*
X183649311Y-93744548D01*
X183653925Y-93743600D01*
X184138075Y-93743600D01*
X184146348Y-93747027D01*
G37*
%TD.AperFunction*%
%TD*%
%TA.AperFunction,Conductor*%
%TO.N,Net-(JP2-A)*%
G36*
X184716833Y-93343587D02*
G01*
X184723159Y-93349926D01*
X184723210Y-93358732D01*
X184148940Y-94796240D01*
X184142689Y-94802652D01*
X184138075Y-94803600D01*
X183653925Y-94803600D01*
X183645652Y-94800173D01*
X183643060Y-94796240D01*
X183068789Y-93358732D01*
X183068902Y-93349778D01*
X183075165Y-93343587D01*
X183891512Y-93004463D01*
X183900465Y-93004455D01*
X184716833Y-93343587D01*
G37*
%TD.AperFunction*%
%TD*%
%TA.AperFunction,Conductor*%
%TO.N,Net-(JP2-A)*%
G36*
X179726408Y-95251153D02*
G01*
X179732951Y-95257267D01*
X179734000Y-95262108D01*
X179734000Y-95745892D01*
X179730573Y-95754165D01*
X179726408Y-95756847D01*
X179338481Y-95902319D01*
X179329626Y-95902058D01*
X178457088Y-95514694D01*
X178450917Y-95508205D01*
X178451141Y-95499253D01*
X178457088Y-95493306D01*
X179329628Y-95105940D01*
X179338480Y-95105680D01*
X179726408Y-95251153D01*
G37*
%TD.AperFunction*%
%TD*%
%TA.AperFunction,Conductor*%
%TO.N,Net-(JP2-A)*%
G36*
X183549960Y-94716376D02*
G01*
X183555917Y-94722536D01*
X183895135Y-95539112D01*
X183895144Y-95548066D01*
X183895135Y-95548088D01*
X183556125Y-96364161D01*
X183549786Y-96370487D01*
X183540832Y-96370478D01*
X183540707Y-96370425D01*
X182110964Y-95757040D01*
X182104712Y-95750629D01*
X182103877Y-95746288D01*
X182103877Y-95262113D01*
X182107304Y-95253840D01*
X182111471Y-95251157D01*
X183541010Y-94716066D01*
X183549960Y-94716376D01*
G37*
%TD.AperFunction*%
%TD*%
%TA.AperFunction,Conductor*%
%TO.N,Net-(JP2-A)*%
G36*
X183549909Y-92176417D02*
G01*
X183555943Y-92182617D01*
X183894846Y-92999820D01*
X183894850Y-93008775D01*
X183894844Y-93008790D01*
X183556589Y-93823045D01*
X183550250Y-93829371D01*
X183541296Y-93829362D01*
X183540152Y-93828812D01*
X182014488Y-92990881D01*
X182008886Y-92983895D01*
X182009865Y-92974994D01*
X182011843Y-92972357D01*
X182352613Y-92631587D01*
X182356703Y-92628934D01*
X183540960Y-92176170D01*
X183549909Y-92176417D01*
G37*
%TD.AperFunction*%
%TD*%
%TA.AperFunction,Conductor*%
%TO.N,/D0*%
G36*
X104616268Y-85044050D02*
G01*
X105432512Y-85381743D01*
X105438846Y-85388072D01*
X105438853Y-85388088D01*
X105775568Y-86203358D01*
X105775559Y-86212312D01*
X105769220Y-86218638D01*
X105768325Y-86218966D01*
X104160919Y-86734105D01*
X104151994Y-86733366D01*
X104146206Y-86726534D01*
X104145648Y-86722963D01*
X104145648Y-86490808D01*
X104146193Y-86487278D01*
X104600661Y-85051338D01*
X104606425Y-85044485D01*
X104615346Y-85043714D01*
X104616268Y-85044050D01*
G37*
%TD.AperFunction*%
%TD*%
%TA.AperFunction,Conductor*%
%TO.N,/D0*%
G36*
X94711217Y-89454008D02*
G01*
X95548893Y-90168497D01*
X95552963Y-90176472D01*
X95553000Y-90177398D01*
X95553000Y-90416601D01*
X95549573Y-90424874D01*
X95548893Y-90425503D01*
X94711218Y-91139990D01*
X94702699Y-91142751D01*
X94695357Y-91139366D01*
X93980024Y-90424874D01*
X93860286Y-90305276D01*
X93856855Y-90297007D01*
X93860276Y-90288733D01*
X94695358Y-89454632D01*
X94703632Y-89451211D01*
X94711217Y-89454008D01*
G37*
%TD.AperFunction*%
%TD*%
%TA.AperFunction,Conductor*%
%TO.N,/D3*%
G36*
X91438912Y-88600427D02*
G01*
X91441186Y-88603634D01*
X92092950Y-89960586D01*
X92093442Y-89969528D01*
X92087469Y-89976199D01*
X92086892Y-89976457D01*
X91317489Y-90296134D01*
X91308534Y-90296143D01*
X91308511Y-90296134D01*
X90539107Y-89976457D01*
X90532782Y-89970118D01*
X90532791Y-89961163D01*
X90533049Y-89960586D01*
X91184814Y-88603634D01*
X91191485Y-88597661D01*
X91195361Y-88597000D01*
X91430639Y-88597000D01*
X91438912Y-88600427D01*
G37*
%TD.AperFunction*%
%TD*%
%TA.AperFunction,Conductor*%
%TO.N,/D3*%
G36*
X102556063Y-82022939D02*
G01*
X102556342Y-82023560D01*
X102895135Y-82839112D01*
X102895144Y-82848066D01*
X102895135Y-82848088D01*
X102556342Y-83663639D01*
X102550003Y-83669965D01*
X102541049Y-83669956D01*
X102540428Y-83669677D01*
X101102591Y-82971799D01*
X101096645Y-82965103D01*
X101096000Y-82961273D01*
X101096000Y-82725926D01*
X101099427Y-82717653D01*
X101102586Y-82715402D01*
X102540430Y-82017521D01*
X102549367Y-82016993D01*
X102556063Y-82022939D01*
G37*
%TD.AperFunction*%
%TD*%
%TA.AperFunction,Conductor*%
%TO.N,/BackLight*%
G36*
X90992179Y-97142570D02*
G01*
X90992608Y-97143491D01*
X91311846Y-97913219D01*
X91311850Y-97922174D01*
X91311844Y-97922190D01*
X90992552Y-98690664D01*
X90986213Y-98696989D01*
X90977258Y-98696980D01*
X90976473Y-98696619D01*
X89553393Y-97978026D01*
X89547553Y-97971238D01*
X89548223Y-97962308D01*
X89550391Y-97959312D01*
X89714468Y-97795235D01*
X89717332Y-97793134D01*
X90976401Y-97137594D01*
X90985318Y-97136814D01*
X90992179Y-97142570D01*
G37*
%TD.AperFunction*%
%TD*%
%TA.AperFunction,Conductor*%
%TO.N,/BackLight*%
G36*
X167600817Y-93656342D02*
G01*
X168437547Y-94008495D01*
X168443843Y-94014863D01*
X168443825Y-94023737D01*
X168254145Y-94484003D01*
X168247825Y-94490346D01*
X168247445Y-94490497D01*
X167774612Y-94668261D01*
X167765662Y-94667964D01*
X167759678Y-94661768D01*
X167689005Y-94490346D01*
X167642487Y-94377513D01*
X167419765Y-93837281D01*
X167419780Y-93828327D01*
X167422306Y-93824552D01*
X167588006Y-93658852D01*
X167596278Y-93655426D01*
X167600817Y-93656342D01*
G37*
%TD.AperFunction*%
%TD*%
%TA.AperFunction,Conductor*%
%TO.N,/Contrast*%
G36*
X125737007Y-98175243D02*
G01*
X125972807Y-98351678D01*
X126178887Y-98505876D01*
X126183459Y-98513576D01*
X126182206Y-98520742D01*
X125859302Y-99127298D01*
X125852389Y-99132990D01*
X125848974Y-99133500D01*
X125613006Y-99133500D01*
X125604733Y-99130073D01*
X125602692Y-99127324D01*
X125277827Y-98520753D01*
X125276942Y-98511842D01*
X125281131Y-98505861D01*
X125722991Y-98175243D01*
X125731668Y-98173031D01*
X125737007Y-98175243D01*
G37*
%TD.AperFunction*%
%TD*%
%TA.AperFunction,Conductor*%
%TO.N,/Contrast*%
G36*
X125858119Y-101287927D02*
G01*
X125859487Y-101289572D01*
X126125493Y-101676490D01*
X126127356Y-101685248D01*
X126124135Y-101691381D01*
X125739283Y-102077196D01*
X125731015Y-102080633D01*
X125722737Y-102077216D01*
X125722717Y-102077196D01*
X125337864Y-101691381D01*
X125334447Y-101683103D01*
X125336505Y-101676492D01*
X125602513Y-101289572D01*
X125610024Y-101284696D01*
X125612154Y-101284500D01*
X125849846Y-101284500D01*
X125858119Y-101287927D01*
G37*
%TD.AperFunction*%
%TD*%
%TA.AperFunction,Conductor*%
%TO.N,Net-(J1-Pin_9)*%
G36*
X129030192Y-103037950D02*
G01*
X129035922Y-103044031D01*
X129192506Y-103424350D01*
X129192487Y-103433304D01*
X129186821Y-103439317D01*
X128444048Y-103802066D01*
X128435111Y-103802618D01*
X128430641Y-103799826D01*
X128261736Y-103630921D01*
X128258898Y-103626315D01*
X128166874Y-103347471D01*
X128167536Y-103338540D01*
X128174132Y-103332757D01*
X129021253Y-103037437D01*
X129030192Y-103037950D01*
G37*
%TD.AperFunction*%
%TD*%
%TA.AperFunction,Conductor*%
%TO.N,Net-(J1-Pin_9)*%
G36*
X92095838Y-95056441D02*
G01*
X92102163Y-95062780D01*
X92102388Y-95063370D01*
X92601031Y-96483748D01*
X92600539Y-96492690D01*
X92598265Y-96495897D01*
X92431897Y-96662265D01*
X92423624Y-96665692D01*
X92419748Y-96665031D01*
X90999370Y-96166388D01*
X90992699Y-96160415D01*
X90992207Y-96151473D01*
X90992423Y-96150905D01*
X91310438Y-95380783D01*
X91316759Y-95374448D01*
X92086884Y-95056432D01*
X92095838Y-95056441D01*
G37*
%TD.AperFunction*%
%TD*%
%TA.AperFunction,Conductor*%
%TO.N,Net-(J2-Pin_1)*%
G36*
X125391727Y-95896087D02*
G01*
X125725875Y-96339204D01*
X125728120Y-96347872D01*
X125726110Y-96352968D01*
X125407303Y-96807311D01*
X125399746Y-96812115D01*
X125392676Y-96811145D01*
X124786650Y-96521181D01*
X124780666Y-96514519D01*
X124780000Y-96510627D01*
X124780000Y-96274464D01*
X124783427Y-96266191D01*
X124785470Y-96264560D01*
X125376160Y-95893225D01*
X125384986Y-95891724D01*
X125391727Y-95896087D01*
G37*
%TD.AperFunction*%
%TD*%
%TA.AperFunction,Conductor*%
%TO.N,Net-(J2-Pin_1)*%
G36*
X121635217Y-95550008D02*
G01*
X122472893Y-96264497D01*
X122476963Y-96272472D01*
X122477000Y-96273398D01*
X122477000Y-96512601D01*
X122473573Y-96520874D01*
X122472893Y-96521503D01*
X121635218Y-97235990D01*
X121626699Y-97238751D01*
X121619357Y-97235366D01*
X120904024Y-96520874D01*
X120784286Y-96401276D01*
X120780855Y-96393007D01*
X120784276Y-96384733D01*
X121619358Y-95550632D01*
X121627632Y-95547211D01*
X121635217Y-95550008D01*
G37*
%TD.AperFunction*%
%TD*%
%TA.AperFunction,Conductor*%
%TO.N,Net-(J2-Pin_1)*%
G36*
X127959776Y-95807441D02*
G01*
X128516657Y-96361204D01*
X128520107Y-96369467D01*
X128516703Y-96377750D01*
X128516657Y-96377796D01*
X127959776Y-96931558D01*
X127951493Y-96934962D01*
X127945524Y-96933304D01*
X127651453Y-96757506D01*
X127217197Y-96497905D01*
X127211854Y-96490719D01*
X127211500Y-96487863D01*
X127211500Y-96251136D01*
X127214927Y-96242863D01*
X127217197Y-96241094D01*
X127945526Y-95805694D01*
X127954382Y-95804391D01*
X127959776Y-95807441D01*
G37*
%TD.AperFunction*%
%TD*%
%TA.AperFunction,Conductor*%
%TO.N,Net-(J2-Pin_1)*%
G36*
X126071382Y-95884553D02*
G01*
X126674257Y-96241103D01*
X126679632Y-96248263D01*
X126680000Y-96251173D01*
X126680000Y-96487373D01*
X126676573Y-96495646D01*
X126673667Y-96497769D01*
X126067463Y-96810735D01*
X126058540Y-96811486D01*
X126052519Y-96807059D01*
X125835494Y-96497769D01*
X125733753Y-96352774D01*
X125731807Y-96344036D01*
X125733804Y-96339266D01*
X126055904Y-95887826D01*
X126063496Y-95883084D01*
X126071382Y-95884553D01*
G37*
%TD.AperFunction*%
%TD*%
%TA.AperFunction,Conductor*%
%TO.N,/R{slash}W*%
G36*
X114233199Y-89522530D02*
G01*
X114233457Y-89523107D01*
X114553134Y-90292511D01*
X114553143Y-90301466D01*
X114553134Y-90301489D01*
X114233457Y-91070892D01*
X114227118Y-91077217D01*
X114218163Y-91077208D01*
X114217586Y-91076950D01*
X112860634Y-90425186D01*
X112854661Y-90418515D01*
X112854000Y-90414639D01*
X112854000Y-90179360D01*
X112857427Y-90171087D01*
X112860631Y-90168814D01*
X114217586Y-89517048D01*
X114226528Y-89516557D01*
X114233199Y-89522530D01*
G37*
%TD.AperFunction*%
%TD*%
%TA.AperFunction,Conductor*%
%TO.N,/R{slash}W*%
G36*
X105790950Y-92177243D02*
G01*
X105791550Y-92177512D01*
X107229410Y-92875401D01*
X107235355Y-92882096D01*
X107236000Y-92885926D01*
X107236000Y-93121273D01*
X107232573Y-93129546D01*
X107229409Y-93131799D01*
X105791571Y-93829677D01*
X105782632Y-93830206D01*
X105775936Y-93824260D01*
X105775657Y-93823639D01*
X105436864Y-93008088D01*
X105436855Y-92999134D01*
X105436864Y-92999112D01*
X105775658Y-92183558D01*
X105781996Y-92177234D01*
X105790950Y-92177243D01*
G37*
%TD.AperFunction*%
%TD*%
M02*
