%TF.GenerationSoftware,KiCad,Pcbnew,8.0.2*%
%TF.CreationDate,2024-12-11T20:23:40+09:00*%
%TF.ProjectId,Pmod_SC1602,506d6f64-5f53-4433-9136-30322e6b6963,rev?*%
%TF.SameCoordinates,Original*%
%TF.FileFunction,Legend,Top*%
%TF.FilePolarity,Positive*%
%FSLAX46Y46*%
G04 Gerber Fmt 4.6, Leading zero omitted, Abs format (unit mm)*
G04 Created by KiCad (PCBNEW 8.0.2) date 2024-12-11 20:23:40*
%MOMM*%
%LPD*%
G01*
G04 APERTURE LIST*
%ADD10C,0.150000*%
%ADD11C,0.125000*%
%ADD12C,0.100000*%
%ADD13C,0.254000*%
%ADD14C,0.120000*%
%ADD15C,0.200000*%
%ADD16C,0.000000*%
G04 APERTURE END LIST*
D10*
X87966779Y-90801819D02*
X87966779Y-89801819D01*
X87966779Y-89801819D02*
X88204874Y-89801819D01*
X88204874Y-89801819D02*
X88347731Y-89849438D01*
X88347731Y-89849438D02*
X88442969Y-89944676D01*
X88442969Y-89944676D02*
X88490588Y-90039914D01*
X88490588Y-90039914D02*
X88538207Y-90230390D01*
X88538207Y-90230390D02*
X88538207Y-90373247D01*
X88538207Y-90373247D02*
X88490588Y-90563723D01*
X88490588Y-90563723D02*
X88442969Y-90658961D01*
X88442969Y-90658961D02*
X88347731Y-90754200D01*
X88347731Y-90754200D02*
X88204874Y-90801819D01*
X88204874Y-90801819D02*
X87966779Y-90801819D01*
X88871541Y-89801819D02*
X89538207Y-89801819D01*
X89538207Y-89801819D02*
X89109636Y-90801819D01*
X95983588Y-100009438D02*
X95888350Y-99961819D01*
X95888350Y-99961819D02*
X95745493Y-99961819D01*
X95745493Y-99961819D02*
X95602636Y-100009438D01*
X95602636Y-100009438D02*
X95507398Y-100104676D01*
X95507398Y-100104676D02*
X95459779Y-100199914D01*
X95459779Y-100199914D02*
X95412160Y-100390390D01*
X95412160Y-100390390D02*
X95412160Y-100533247D01*
X95412160Y-100533247D02*
X95459779Y-100723723D01*
X95459779Y-100723723D02*
X95507398Y-100818961D01*
X95507398Y-100818961D02*
X95602636Y-100914200D01*
X95602636Y-100914200D02*
X95745493Y-100961819D01*
X95745493Y-100961819D02*
X95840731Y-100961819D01*
X95840731Y-100961819D02*
X95983588Y-100914200D01*
X95983588Y-100914200D02*
X96031207Y-100866580D01*
X96031207Y-100866580D02*
X96031207Y-100533247D01*
X96031207Y-100533247D02*
X95840731Y-100533247D01*
X96459779Y-100961819D02*
X96459779Y-99961819D01*
X96459779Y-99961819D02*
X97031207Y-100961819D01*
X97031207Y-100961819D02*
X97031207Y-99961819D01*
X97507398Y-100961819D02*
X97507398Y-99961819D01*
X97507398Y-99961819D02*
X97745493Y-99961819D01*
X97745493Y-99961819D02*
X97888350Y-100009438D01*
X97888350Y-100009438D02*
X97983588Y-100104676D01*
X97983588Y-100104676D02*
X98031207Y-100199914D01*
X98031207Y-100199914D02*
X98078826Y-100390390D01*
X98078826Y-100390390D02*
X98078826Y-100533247D01*
X98078826Y-100533247D02*
X98031207Y-100723723D01*
X98031207Y-100723723D02*
X97983588Y-100818961D01*
X97983588Y-100818961D02*
X97888350Y-100914200D01*
X97888350Y-100914200D02*
X97745493Y-100961819D01*
X97745493Y-100961819D02*
X97507398Y-100961819D01*
X96031207Y-95881819D02*
X95697874Y-95405628D01*
X95459779Y-95881819D02*
X95459779Y-94881819D01*
X95459779Y-94881819D02*
X95840731Y-94881819D01*
X95840731Y-94881819D02*
X95935969Y-94929438D01*
X95935969Y-94929438D02*
X95983588Y-94977057D01*
X95983588Y-94977057D02*
X96031207Y-95072295D01*
X96031207Y-95072295D02*
X96031207Y-95215152D01*
X96031207Y-95215152D02*
X95983588Y-95310390D01*
X95983588Y-95310390D02*
X95935969Y-95358009D01*
X95935969Y-95358009D02*
X95840731Y-95405628D01*
X95840731Y-95405628D02*
X95459779Y-95405628D01*
X96412160Y-95834200D02*
X96555017Y-95881819D01*
X96555017Y-95881819D02*
X96793112Y-95881819D01*
X96793112Y-95881819D02*
X96888350Y-95834200D01*
X96888350Y-95834200D02*
X96935969Y-95786580D01*
X96935969Y-95786580D02*
X96983588Y-95691342D01*
X96983588Y-95691342D02*
X96983588Y-95596104D01*
X96983588Y-95596104D02*
X96935969Y-95500866D01*
X96935969Y-95500866D02*
X96888350Y-95453247D01*
X96888350Y-95453247D02*
X96793112Y-95405628D01*
X96793112Y-95405628D02*
X96602636Y-95358009D01*
X96602636Y-95358009D02*
X96507398Y-95310390D01*
X96507398Y-95310390D02*
X96459779Y-95262771D01*
X96459779Y-95262771D02*
X96412160Y-95167533D01*
X96412160Y-95167533D02*
X96412160Y-95072295D01*
X96412160Y-95072295D02*
X96459779Y-94977057D01*
X96459779Y-94977057D02*
X96507398Y-94929438D01*
X96507398Y-94929438D02*
X96602636Y-94881819D01*
X96602636Y-94881819D02*
X96840731Y-94881819D01*
X96840731Y-94881819D02*
X96983588Y-94929438D01*
X95459779Y-97898009D02*
X95793112Y-97898009D01*
X95935969Y-98421819D02*
X95459779Y-98421819D01*
X95459779Y-98421819D02*
X95459779Y-97421819D01*
X95459779Y-97421819D02*
X95935969Y-97421819D01*
D11*
X116646378Y-93216119D02*
X116771378Y-92216119D01*
X116771378Y-92216119D02*
X117152331Y-92216119D01*
X117152331Y-92216119D02*
X117241616Y-92263738D01*
X117241616Y-92263738D02*
X117283283Y-92311357D01*
X117283283Y-92311357D02*
X117318997Y-92406595D01*
X117318997Y-92406595D02*
X117301140Y-92549452D01*
X117301140Y-92549452D02*
X117241616Y-92644690D01*
X117241616Y-92644690D02*
X117188045Y-92692309D01*
X117188045Y-92692309D02*
X117086855Y-92739928D01*
X117086855Y-92739928D02*
X116705902Y-92739928D01*
X117646378Y-93216119D02*
X117729712Y-92549452D01*
X117717807Y-92644690D02*
X117771378Y-92597071D01*
X117771378Y-92597071D02*
X117872569Y-92549452D01*
X117872569Y-92549452D02*
X118015426Y-92549452D01*
X118015426Y-92549452D02*
X118104712Y-92597071D01*
X118104712Y-92597071D02*
X118140426Y-92692309D01*
X118140426Y-92692309D02*
X118074950Y-93216119D01*
X118140426Y-92692309D02*
X118199950Y-92597071D01*
X118199950Y-92597071D02*
X118301140Y-92549452D01*
X118301140Y-92549452D02*
X118443997Y-92549452D01*
X118443997Y-92549452D02*
X118533283Y-92597071D01*
X118533283Y-92597071D02*
X118568997Y-92692309D01*
X118568997Y-92692309D02*
X118503521Y-93216119D01*
X119122569Y-93216119D02*
X119033283Y-93168500D01*
X119033283Y-93168500D02*
X118991616Y-93120880D01*
X118991616Y-93120880D02*
X118955902Y-93025642D01*
X118955902Y-93025642D02*
X118991616Y-92739928D01*
X118991616Y-92739928D02*
X119051140Y-92644690D01*
X119051140Y-92644690D02*
X119104711Y-92597071D01*
X119104711Y-92597071D02*
X119205902Y-92549452D01*
X119205902Y-92549452D02*
X119348759Y-92549452D01*
X119348759Y-92549452D02*
X119438045Y-92597071D01*
X119438045Y-92597071D02*
X119479711Y-92644690D01*
X119479711Y-92644690D02*
X119515426Y-92739928D01*
X119515426Y-92739928D02*
X119479711Y-93025642D01*
X119479711Y-93025642D02*
X119420188Y-93120880D01*
X119420188Y-93120880D02*
X119366616Y-93168500D01*
X119366616Y-93168500D02*
X119265426Y-93216119D01*
X119265426Y-93216119D02*
X119122569Y-93216119D01*
X120313045Y-93216119D02*
X120438045Y-92216119D01*
X120318997Y-93168500D02*
X120217807Y-93216119D01*
X120217807Y-93216119D02*
X120027331Y-93216119D01*
X120027331Y-93216119D02*
X119938045Y-93168500D01*
X119938045Y-93168500D02*
X119896378Y-93120880D01*
X119896378Y-93120880D02*
X119860664Y-93025642D01*
X119860664Y-93025642D02*
X119896378Y-92739928D01*
X119896378Y-92739928D02*
X119955902Y-92644690D01*
X119955902Y-92644690D02*
X120009473Y-92597071D01*
X120009473Y-92597071D02*
X120110664Y-92549452D01*
X120110664Y-92549452D02*
X120301140Y-92549452D01*
X120301140Y-92549452D02*
X120390426Y-92597071D01*
X120539235Y-93311357D02*
X121301140Y-93311357D01*
X122122569Y-93216119D02*
X121848759Y-92739928D01*
X121551140Y-93216119D02*
X121676140Y-92216119D01*
X121676140Y-92216119D02*
X122057093Y-92216119D01*
X122057093Y-92216119D02*
X122146378Y-92263738D01*
X122146378Y-92263738D02*
X122188045Y-92311357D01*
X122188045Y-92311357D02*
X122223759Y-92406595D01*
X122223759Y-92406595D02*
X122205902Y-92549452D01*
X122205902Y-92549452D02*
X122146378Y-92644690D01*
X122146378Y-92644690D02*
X122092807Y-92692309D01*
X122092807Y-92692309D02*
X121991617Y-92739928D01*
X121991617Y-92739928D02*
X121610664Y-92739928D01*
X123396378Y-92168500D02*
X122378521Y-93454214D01*
X123628521Y-92216119D02*
X123741617Y-93216119D01*
X123741617Y-93216119D02*
X124021378Y-92501833D01*
X124021378Y-92501833D02*
X124122569Y-93216119D01*
X124122569Y-93216119D02*
X124485664Y-92216119D01*
D10*
X87966779Y-93341819D02*
X87966779Y-92341819D01*
X87966779Y-92341819D02*
X88204874Y-92341819D01*
X88204874Y-92341819D02*
X88347731Y-92389438D01*
X88347731Y-92389438D02*
X88442969Y-92484676D01*
X88442969Y-92484676D02*
X88490588Y-92579914D01*
X88490588Y-92579914D02*
X88538207Y-92770390D01*
X88538207Y-92770390D02*
X88538207Y-92913247D01*
X88538207Y-92913247D02*
X88490588Y-93103723D01*
X88490588Y-93103723D02*
X88442969Y-93198961D01*
X88442969Y-93198961D02*
X88347731Y-93294200D01*
X88347731Y-93294200D02*
X88204874Y-93341819D01*
X88204874Y-93341819D02*
X87966779Y-93341819D01*
X89442969Y-92341819D02*
X88966779Y-92341819D01*
X88966779Y-92341819D02*
X88919160Y-92818009D01*
X88919160Y-92818009D02*
X88966779Y-92770390D01*
X88966779Y-92770390D02*
X89062017Y-92722771D01*
X89062017Y-92722771D02*
X89300112Y-92722771D01*
X89300112Y-92722771D02*
X89395350Y-92770390D01*
X89395350Y-92770390D02*
X89442969Y-92818009D01*
X89442969Y-92818009D02*
X89490588Y-92913247D01*
X89490588Y-92913247D02*
X89490588Y-93151342D01*
X89490588Y-93151342D02*
X89442969Y-93246580D01*
X89442969Y-93246580D02*
X89395350Y-93294200D01*
X89395350Y-93294200D02*
X89300112Y-93341819D01*
X89300112Y-93341819D02*
X89062017Y-93341819D01*
X89062017Y-93341819D02*
X88966779Y-93294200D01*
X88966779Y-93294200D02*
X88919160Y-93246580D01*
X181264160Y-83277104D02*
X181740350Y-83277104D01*
X181168922Y-83562819D02*
X181502255Y-82562819D01*
X181502255Y-82562819D02*
X181835588Y-83562819D01*
X182168922Y-82896152D02*
X182168922Y-83562819D01*
X182168922Y-82991390D02*
X182216541Y-82943771D01*
X182216541Y-82943771D02*
X182311779Y-82896152D01*
X182311779Y-82896152D02*
X182454636Y-82896152D01*
X182454636Y-82896152D02*
X182549874Y-82943771D01*
X182549874Y-82943771D02*
X182597493Y-83039009D01*
X182597493Y-83039009D02*
X182597493Y-83562819D01*
X183216541Y-83562819D02*
X183121303Y-83515200D01*
X183121303Y-83515200D02*
X183073684Y-83467580D01*
X183073684Y-83467580D02*
X183026065Y-83372342D01*
X183026065Y-83372342D02*
X183026065Y-83086628D01*
X183026065Y-83086628D02*
X183073684Y-82991390D01*
X183073684Y-82991390D02*
X183121303Y-82943771D01*
X183121303Y-82943771D02*
X183216541Y-82896152D01*
X183216541Y-82896152D02*
X183359398Y-82896152D01*
X183359398Y-82896152D02*
X183454636Y-82943771D01*
X183454636Y-82943771D02*
X183502255Y-82991390D01*
X183502255Y-82991390D02*
X183549874Y-83086628D01*
X183549874Y-83086628D02*
X183549874Y-83372342D01*
X183549874Y-83372342D02*
X183502255Y-83467580D01*
X183502255Y-83467580D02*
X183454636Y-83515200D01*
X183454636Y-83515200D02*
X183359398Y-83562819D01*
X183359398Y-83562819D02*
X183216541Y-83562819D01*
X184407017Y-83562819D02*
X184407017Y-82562819D01*
X184407017Y-83515200D02*
X184311779Y-83562819D01*
X184311779Y-83562819D02*
X184121303Y-83562819D01*
X184121303Y-83562819D02*
X184026065Y-83515200D01*
X184026065Y-83515200D02*
X183978446Y-83467580D01*
X183978446Y-83467580D02*
X183930827Y-83372342D01*
X183930827Y-83372342D02*
X183930827Y-83086628D01*
X183930827Y-83086628D02*
X183978446Y-82991390D01*
X183978446Y-82991390D02*
X184026065Y-82943771D01*
X184026065Y-82943771D02*
X184121303Y-82896152D01*
X184121303Y-82896152D02*
X184311779Y-82896152D01*
X184311779Y-82896152D02*
X184407017Y-82943771D01*
X185264160Y-83515200D02*
X185168922Y-83562819D01*
X185168922Y-83562819D02*
X184978446Y-83562819D01*
X184978446Y-83562819D02*
X184883208Y-83515200D01*
X184883208Y-83515200D02*
X184835589Y-83419961D01*
X184835589Y-83419961D02*
X184835589Y-83039009D01*
X184835589Y-83039009D02*
X184883208Y-82943771D01*
X184883208Y-82943771D02*
X184978446Y-82896152D01*
X184978446Y-82896152D02*
X185168922Y-82896152D01*
X185168922Y-82896152D02*
X185264160Y-82943771D01*
X185264160Y-82943771D02*
X185311779Y-83039009D01*
X185311779Y-83039009D02*
X185311779Y-83134247D01*
X185311779Y-83134247D02*
X184835589Y-83229485D01*
X88405744Y-76237875D02*
X88405744Y-75237875D01*
X88405744Y-75237875D02*
X88786696Y-75237875D01*
X88786696Y-75237875D02*
X88881934Y-75285494D01*
X88881934Y-75285494D02*
X88929553Y-75333113D01*
X88929553Y-75333113D02*
X88977172Y-75428351D01*
X88977172Y-75428351D02*
X88977172Y-75571208D01*
X88977172Y-75571208D02*
X88929553Y-75666446D01*
X88929553Y-75666446D02*
X88881934Y-75714065D01*
X88881934Y-75714065D02*
X88786696Y-75761684D01*
X88786696Y-75761684D02*
X88405744Y-75761684D01*
X89405744Y-76237875D02*
X89405744Y-75571208D01*
X89405744Y-75666446D02*
X89453363Y-75618827D01*
X89453363Y-75618827D02*
X89548601Y-75571208D01*
X89548601Y-75571208D02*
X89691458Y-75571208D01*
X89691458Y-75571208D02*
X89786696Y-75618827D01*
X89786696Y-75618827D02*
X89834315Y-75714065D01*
X89834315Y-75714065D02*
X89834315Y-76237875D01*
X89834315Y-75714065D02*
X89881934Y-75618827D01*
X89881934Y-75618827D02*
X89977172Y-75571208D01*
X89977172Y-75571208D02*
X90120029Y-75571208D01*
X90120029Y-75571208D02*
X90215268Y-75618827D01*
X90215268Y-75618827D02*
X90262887Y-75714065D01*
X90262887Y-75714065D02*
X90262887Y-76237875D01*
X90881934Y-76237875D02*
X90786696Y-76190256D01*
X90786696Y-76190256D02*
X90739077Y-76142636D01*
X90739077Y-76142636D02*
X90691458Y-76047398D01*
X90691458Y-76047398D02*
X90691458Y-75761684D01*
X90691458Y-75761684D02*
X90739077Y-75666446D01*
X90739077Y-75666446D02*
X90786696Y-75618827D01*
X90786696Y-75618827D02*
X90881934Y-75571208D01*
X90881934Y-75571208D02*
X91024791Y-75571208D01*
X91024791Y-75571208D02*
X91120029Y-75618827D01*
X91120029Y-75618827D02*
X91167648Y-75666446D01*
X91167648Y-75666446D02*
X91215267Y-75761684D01*
X91215267Y-75761684D02*
X91215267Y-76047398D01*
X91215267Y-76047398D02*
X91167648Y-76142636D01*
X91167648Y-76142636D02*
X91120029Y-76190256D01*
X91120029Y-76190256D02*
X91024791Y-76237875D01*
X91024791Y-76237875D02*
X90881934Y-76237875D01*
X92072410Y-76237875D02*
X92072410Y-75237875D01*
X92072410Y-76190256D02*
X91977172Y-76237875D01*
X91977172Y-76237875D02*
X91786696Y-76237875D01*
X91786696Y-76237875D02*
X91691458Y-76190256D01*
X91691458Y-76190256D02*
X91643839Y-76142636D01*
X91643839Y-76142636D02*
X91596220Y-76047398D01*
X91596220Y-76047398D02*
X91596220Y-75761684D01*
X91596220Y-75761684D02*
X91643839Y-75666446D01*
X91643839Y-75666446D02*
X91691458Y-75618827D01*
X91691458Y-75618827D02*
X91786696Y-75571208D01*
X91786696Y-75571208D02*
X91977172Y-75571208D01*
X91977172Y-75571208D02*
X92072410Y-75618827D01*
X92310506Y-76333113D02*
X93072410Y-76333113D01*
X93262887Y-76190256D02*
X93405744Y-76237875D01*
X93405744Y-76237875D02*
X93643839Y-76237875D01*
X93643839Y-76237875D02*
X93739077Y-76190256D01*
X93739077Y-76190256D02*
X93786696Y-76142636D01*
X93786696Y-76142636D02*
X93834315Y-76047398D01*
X93834315Y-76047398D02*
X93834315Y-75952160D01*
X93834315Y-75952160D02*
X93786696Y-75856922D01*
X93786696Y-75856922D02*
X93739077Y-75809303D01*
X93739077Y-75809303D02*
X93643839Y-75761684D01*
X93643839Y-75761684D02*
X93453363Y-75714065D01*
X93453363Y-75714065D02*
X93358125Y-75666446D01*
X93358125Y-75666446D02*
X93310506Y-75618827D01*
X93310506Y-75618827D02*
X93262887Y-75523589D01*
X93262887Y-75523589D02*
X93262887Y-75428351D01*
X93262887Y-75428351D02*
X93310506Y-75333113D01*
X93310506Y-75333113D02*
X93358125Y-75285494D01*
X93358125Y-75285494D02*
X93453363Y-75237875D01*
X93453363Y-75237875D02*
X93691458Y-75237875D01*
X93691458Y-75237875D02*
X93834315Y-75285494D01*
X94834315Y-76142636D02*
X94786696Y-76190256D01*
X94786696Y-76190256D02*
X94643839Y-76237875D01*
X94643839Y-76237875D02*
X94548601Y-76237875D01*
X94548601Y-76237875D02*
X94405744Y-76190256D01*
X94405744Y-76190256D02*
X94310506Y-76095017D01*
X94310506Y-76095017D02*
X94262887Y-75999779D01*
X94262887Y-75999779D02*
X94215268Y-75809303D01*
X94215268Y-75809303D02*
X94215268Y-75666446D01*
X94215268Y-75666446D02*
X94262887Y-75475970D01*
X94262887Y-75475970D02*
X94310506Y-75380732D01*
X94310506Y-75380732D02*
X94405744Y-75285494D01*
X94405744Y-75285494D02*
X94548601Y-75237875D01*
X94548601Y-75237875D02*
X94643839Y-75237875D01*
X94643839Y-75237875D02*
X94786696Y-75285494D01*
X94786696Y-75285494D02*
X94834315Y-75333113D01*
X95786696Y-76237875D02*
X95215268Y-76237875D01*
X95500982Y-76237875D02*
X95500982Y-75237875D01*
X95500982Y-75237875D02*
X95405744Y-75380732D01*
X95405744Y-75380732D02*
X95310506Y-75475970D01*
X95310506Y-75475970D02*
X95215268Y-75523589D01*
X96643839Y-75237875D02*
X96453363Y-75237875D01*
X96453363Y-75237875D02*
X96358125Y-75285494D01*
X96358125Y-75285494D02*
X96310506Y-75333113D01*
X96310506Y-75333113D02*
X96215268Y-75475970D01*
X96215268Y-75475970D02*
X96167649Y-75666446D01*
X96167649Y-75666446D02*
X96167649Y-76047398D01*
X96167649Y-76047398D02*
X96215268Y-76142636D01*
X96215268Y-76142636D02*
X96262887Y-76190256D01*
X96262887Y-76190256D02*
X96358125Y-76237875D01*
X96358125Y-76237875D02*
X96548601Y-76237875D01*
X96548601Y-76237875D02*
X96643839Y-76190256D01*
X96643839Y-76190256D02*
X96691458Y-76142636D01*
X96691458Y-76142636D02*
X96739077Y-76047398D01*
X96739077Y-76047398D02*
X96739077Y-75809303D01*
X96739077Y-75809303D02*
X96691458Y-75714065D01*
X96691458Y-75714065D02*
X96643839Y-75666446D01*
X96643839Y-75666446D02*
X96548601Y-75618827D01*
X96548601Y-75618827D02*
X96358125Y-75618827D01*
X96358125Y-75618827D02*
X96262887Y-75666446D01*
X96262887Y-75666446D02*
X96215268Y-75714065D01*
X96215268Y-75714065D02*
X96167649Y-75809303D01*
X97358125Y-75237875D02*
X97453363Y-75237875D01*
X97453363Y-75237875D02*
X97548601Y-75285494D01*
X97548601Y-75285494D02*
X97596220Y-75333113D01*
X97596220Y-75333113D02*
X97643839Y-75428351D01*
X97643839Y-75428351D02*
X97691458Y-75618827D01*
X97691458Y-75618827D02*
X97691458Y-75856922D01*
X97691458Y-75856922D02*
X97643839Y-76047398D01*
X97643839Y-76047398D02*
X97596220Y-76142636D01*
X97596220Y-76142636D02*
X97548601Y-76190256D01*
X97548601Y-76190256D02*
X97453363Y-76237875D01*
X97453363Y-76237875D02*
X97358125Y-76237875D01*
X97358125Y-76237875D02*
X97262887Y-76190256D01*
X97262887Y-76190256D02*
X97215268Y-76142636D01*
X97215268Y-76142636D02*
X97167649Y-76047398D01*
X97167649Y-76047398D02*
X97120030Y-75856922D01*
X97120030Y-75856922D02*
X97120030Y-75618827D01*
X97120030Y-75618827D02*
X97167649Y-75428351D01*
X97167649Y-75428351D02*
X97215268Y-75333113D01*
X97215268Y-75333113D02*
X97262887Y-75285494D01*
X97262887Y-75285494D02*
X97358125Y-75237875D01*
X98072411Y-75333113D02*
X98120030Y-75285494D01*
X98120030Y-75285494D02*
X98215268Y-75237875D01*
X98215268Y-75237875D02*
X98453363Y-75237875D01*
X98453363Y-75237875D02*
X98548601Y-75285494D01*
X98548601Y-75285494D02*
X98596220Y-75333113D01*
X98596220Y-75333113D02*
X98643839Y-75428351D01*
X98643839Y-75428351D02*
X98643839Y-75523589D01*
X98643839Y-75523589D02*
X98596220Y-75666446D01*
X98596220Y-75666446D02*
X98024792Y-76237875D01*
X98024792Y-76237875D02*
X98643839Y-76237875D01*
X93453363Y-76847819D02*
X93786696Y-77847819D01*
X93786696Y-77847819D02*
X94120029Y-76847819D01*
X94834315Y-77800200D02*
X94739077Y-77847819D01*
X94739077Y-77847819D02*
X94548601Y-77847819D01*
X94548601Y-77847819D02*
X94453363Y-77800200D01*
X94453363Y-77800200D02*
X94405744Y-77704961D01*
X94405744Y-77704961D02*
X94405744Y-77324009D01*
X94405744Y-77324009D02*
X94453363Y-77228771D01*
X94453363Y-77228771D02*
X94548601Y-77181152D01*
X94548601Y-77181152D02*
X94739077Y-77181152D01*
X94739077Y-77181152D02*
X94834315Y-77228771D01*
X94834315Y-77228771D02*
X94881934Y-77324009D01*
X94881934Y-77324009D02*
X94881934Y-77419247D01*
X94881934Y-77419247D02*
X94405744Y-77514485D01*
X95310506Y-77847819D02*
X95310506Y-77181152D01*
X95310506Y-77371628D02*
X95358125Y-77276390D01*
X95358125Y-77276390D02*
X95405744Y-77228771D01*
X95405744Y-77228771D02*
X95500982Y-77181152D01*
X95500982Y-77181152D02*
X95596220Y-77181152D01*
X96881935Y-76847819D02*
X96977173Y-76847819D01*
X96977173Y-76847819D02*
X97072411Y-76895438D01*
X97072411Y-76895438D02*
X97120030Y-76943057D01*
X97120030Y-76943057D02*
X97167649Y-77038295D01*
X97167649Y-77038295D02*
X97215268Y-77228771D01*
X97215268Y-77228771D02*
X97215268Y-77466866D01*
X97215268Y-77466866D02*
X97167649Y-77657342D01*
X97167649Y-77657342D02*
X97120030Y-77752580D01*
X97120030Y-77752580D02*
X97072411Y-77800200D01*
X97072411Y-77800200D02*
X96977173Y-77847819D01*
X96977173Y-77847819D02*
X96881935Y-77847819D01*
X96881935Y-77847819D02*
X96786697Y-77800200D01*
X96786697Y-77800200D02*
X96739078Y-77752580D01*
X96739078Y-77752580D02*
X96691459Y-77657342D01*
X96691459Y-77657342D02*
X96643840Y-77466866D01*
X96643840Y-77466866D02*
X96643840Y-77228771D01*
X96643840Y-77228771D02*
X96691459Y-77038295D01*
X96691459Y-77038295D02*
X96739078Y-76943057D01*
X96739078Y-76943057D02*
X96786697Y-76895438D01*
X96786697Y-76895438D02*
X96881935Y-76847819D01*
X97643840Y-77752580D02*
X97691459Y-77800200D01*
X97691459Y-77800200D02*
X97643840Y-77847819D01*
X97643840Y-77847819D02*
X97596221Y-77800200D01*
X97596221Y-77800200D02*
X97643840Y-77752580D01*
X97643840Y-77752580D02*
X97643840Y-77847819D01*
X98072411Y-76943057D02*
X98120030Y-76895438D01*
X98120030Y-76895438D02*
X98215268Y-76847819D01*
X98215268Y-76847819D02*
X98453363Y-76847819D01*
X98453363Y-76847819D02*
X98548601Y-76895438D01*
X98548601Y-76895438D02*
X98596220Y-76943057D01*
X98596220Y-76943057D02*
X98643839Y-77038295D01*
X98643839Y-77038295D02*
X98643839Y-77133533D01*
X98643839Y-77133533D02*
X98596220Y-77276390D01*
X98596220Y-77276390D02*
X98024792Y-77847819D01*
X98024792Y-77847819D02*
X98643839Y-77847819D01*
X95443922Y-102628819D02*
X95777255Y-103628819D01*
X95777255Y-103628819D02*
X96110588Y-102628819D01*
X96872493Y-103581200D02*
X96777255Y-103628819D01*
X96777255Y-103628819D02*
X96586779Y-103628819D01*
X96586779Y-103628819D02*
X96491541Y-103581200D01*
X96491541Y-103581200D02*
X96443922Y-103533580D01*
X96443922Y-103533580D02*
X96396303Y-103438342D01*
X96396303Y-103438342D02*
X96396303Y-103152628D01*
X96396303Y-103152628D02*
X96443922Y-103057390D01*
X96443922Y-103057390D02*
X96491541Y-103009771D01*
X96491541Y-103009771D02*
X96586779Y-102962152D01*
X96586779Y-102962152D02*
X96777255Y-102962152D01*
X96777255Y-102962152D02*
X96872493Y-103009771D01*
X97729636Y-103581200D02*
X97634398Y-103628819D01*
X97634398Y-103628819D02*
X97443922Y-103628819D01*
X97443922Y-103628819D02*
X97348684Y-103581200D01*
X97348684Y-103581200D02*
X97301065Y-103533580D01*
X97301065Y-103533580D02*
X97253446Y-103438342D01*
X97253446Y-103438342D02*
X97253446Y-103152628D01*
X97253446Y-103152628D02*
X97301065Y-103057390D01*
X97301065Y-103057390D02*
X97348684Y-103009771D01*
X97348684Y-103009771D02*
X97443922Y-102962152D01*
X97443922Y-102962152D02*
X97634398Y-102962152D01*
X97634398Y-102962152D02*
X97729636Y-103009771D01*
X180486207Y-97945580D02*
X180438588Y-97993200D01*
X180438588Y-97993200D02*
X180295731Y-98040819D01*
X180295731Y-98040819D02*
X180200493Y-98040819D01*
X180200493Y-98040819D02*
X180057636Y-97993200D01*
X180057636Y-97993200D02*
X179962398Y-97897961D01*
X179962398Y-97897961D02*
X179914779Y-97802723D01*
X179914779Y-97802723D02*
X179867160Y-97612247D01*
X179867160Y-97612247D02*
X179867160Y-97469390D01*
X179867160Y-97469390D02*
X179914779Y-97278914D01*
X179914779Y-97278914D02*
X179962398Y-97183676D01*
X179962398Y-97183676D02*
X180057636Y-97088438D01*
X180057636Y-97088438D02*
X180200493Y-97040819D01*
X180200493Y-97040819D02*
X180295731Y-97040819D01*
X180295731Y-97040819D02*
X180438588Y-97088438D01*
X180438588Y-97088438D02*
X180486207Y-97136057D01*
X181343350Y-98040819D02*
X181343350Y-97517009D01*
X181343350Y-97517009D02*
X181295731Y-97421771D01*
X181295731Y-97421771D02*
X181200493Y-97374152D01*
X181200493Y-97374152D02*
X181010017Y-97374152D01*
X181010017Y-97374152D02*
X180914779Y-97421771D01*
X181343350Y-97993200D02*
X181248112Y-98040819D01*
X181248112Y-98040819D02*
X181010017Y-98040819D01*
X181010017Y-98040819D02*
X180914779Y-97993200D01*
X180914779Y-97993200D02*
X180867160Y-97897961D01*
X180867160Y-97897961D02*
X180867160Y-97802723D01*
X180867160Y-97802723D02*
X180914779Y-97707485D01*
X180914779Y-97707485D02*
X181010017Y-97659866D01*
X181010017Y-97659866D02*
X181248112Y-97659866D01*
X181248112Y-97659866D02*
X181343350Y-97612247D01*
X181676684Y-97374152D02*
X182057636Y-97374152D01*
X181819541Y-97040819D02*
X181819541Y-97897961D01*
X181819541Y-97897961D02*
X181867160Y-97993200D01*
X181867160Y-97993200D02*
X181962398Y-98040819D01*
X181962398Y-98040819D02*
X182057636Y-98040819D01*
X182390970Y-98040819D02*
X182390970Y-97040819D01*
X182819541Y-98040819D02*
X182819541Y-97517009D01*
X182819541Y-97517009D02*
X182771922Y-97421771D01*
X182771922Y-97421771D02*
X182676684Y-97374152D01*
X182676684Y-97374152D02*
X182533827Y-97374152D01*
X182533827Y-97374152D02*
X182438589Y-97421771D01*
X182438589Y-97421771D02*
X182390970Y-97469390D01*
X183438589Y-98040819D02*
X183343351Y-97993200D01*
X183343351Y-97993200D02*
X183295732Y-97945580D01*
X183295732Y-97945580D02*
X183248113Y-97850342D01*
X183248113Y-97850342D02*
X183248113Y-97564628D01*
X183248113Y-97564628D02*
X183295732Y-97469390D01*
X183295732Y-97469390D02*
X183343351Y-97421771D01*
X183343351Y-97421771D02*
X183438589Y-97374152D01*
X183438589Y-97374152D02*
X183581446Y-97374152D01*
X183581446Y-97374152D02*
X183676684Y-97421771D01*
X183676684Y-97421771D02*
X183724303Y-97469390D01*
X183724303Y-97469390D02*
X183771922Y-97564628D01*
X183771922Y-97564628D02*
X183771922Y-97850342D01*
X183771922Y-97850342D02*
X183724303Y-97945580D01*
X183724303Y-97945580D02*
X183676684Y-97993200D01*
X183676684Y-97993200D02*
X183581446Y-98040819D01*
X183581446Y-98040819D02*
X183438589Y-98040819D01*
X184629065Y-98040819D02*
X184629065Y-97040819D01*
X184629065Y-97993200D02*
X184533827Y-98040819D01*
X184533827Y-98040819D02*
X184343351Y-98040819D01*
X184343351Y-98040819D02*
X184248113Y-97993200D01*
X184248113Y-97993200D02*
X184200494Y-97945580D01*
X184200494Y-97945580D02*
X184152875Y-97850342D01*
X184152875Y-97850342D02*
X184152875Y-97564628D01*
X184152875Y-97564628D02*
X184200494Y-97469390D01*
X184200494Y-97469390D02*
X184248113Y-97421771D01*
X184248113Y-97421771D02*
X184343351Y-97374152D01*
X184343351Y-97374152D02*
X184533827Y-97374152D01*
X184533827Y-97374152D02*
X184629065Y-97421771D01*
X185486208Y-97993200D02*
X185390970Y-98040819D01*
X185390970Y-98040819D02*
X185200494Y-98040819D01*
X185200494Y-98040819D02*
X185105256Y-97993200D01*
X185105256Y-97993200D02*
X185057637Y-97897961D01*
X185057637Y-97897961D02*
X185057637Y-97517009D01*
X185057637Y-97517009D02*
X185105256Y-97421771D01*
X185105256Y-97421771D02*
X185200494Y-97374152D01*
X185200494Y-97374152D02*
X185390970Y-97374152D01*
X185390970Y-97374152D02*
X185486208Y-97421771D01*
X185486208Y-97421771D02*
X185533827Y-97517009D01*
X185533827Y-97517009D02*
X185533827Y-97612247D01*
X185533827Y-97612247D02*
X185057637Y-97707485D01*
X107254922Y-95008819D02*
X107588255Y-96008819D01*
X107588255Y-96008819D02*
X107921588Y-95008819D01*
X108445398Y-95008819D02*
X108635874Y-95008819D01*
X108635874Y-95008819D02*
X108731112Y-95056438D01*
X108731112Y-95056438D02*
X108826350Y-95151676D01*
X108826350Y-95151676D02*
X108873969Y-95342152D01*
X108873969Y-95342152D02*
X108873969Y-95675485D01*
X108873969Y-95675485D02*
X108826350Y-95865961D01*
X108826350Y-95865961D02*
X108731112Y-95961200D01*
X108731112Y-95961200D02*
X108635874Y-96008819D01*
X108635874Y-96008819D02*
X108445398Y-96008819D01*
X108445398Y-96008819D02*
X108350160Y-95961200D01*
X108350160Y-95961200D02*
X108254922Y-95865961D01*
X108254922Y-95865961D02*
X108207303Y-95675485D01*
X108207303Y-95675485D02*
X108207303Y-95342152D01*
X108207303Y-95342152D02*
X108254922Y-95151676D01*
X108254922Y-95151676D02*
X108350160Y-95056438D01*
X108350160Y-95056438D02*
X108445398Y-95008819D01*
X107254922Y-97548819D02*
X107588255Y-98548819D01*
X107588255Y-98548819D02*
X107921588Y-97548819D01*
X108683493Y-98501200D02*
X108588255Y-98548819D01*
X108588255Y-98548819D02*
X108397779Y-98548819D01*
X108397779Y-98548819D02*
X108302541Y-98501200D01*
X108302541Y-98501200D02*
X108254922Y-98453580D01*
X108254922Y-98453580D02*
X108207303Y-98358342D01*
X108207303Y-98358342D02*
X108207303Y-98072628D01*
X108207303Y-98072628D02*
X108254922Y-97977390D01*
X108254922Y-97977390D02*
X108302541Y-97929771D01*
X108302541Y-97929771D02*
X108397779Y-97882152D01*
X108397779Y-97882152D02*
X108588255Y-97882152D01*
X108588255Y-97882152D02*
X108683493Y-97929771D01*
X109540636Y-98501200D02*
X109445398Y-98548819D01*
X109445398Y-98548819D02*
X109254922Y-98548819D01*
X109254922Y-98548819D02*
X109159684Y-98501200D01*
X109159684Y-98501200D02*
X109112065Y-98453580D01*
X109112065Y-98453580D02*
X109064446Y-98358342D01*
X109064446Y-98358342D02*
X109064446Y-98072628D01*
X109064446Y-98072628D02*
X109112065Y-97977390D01*
X109112065Y-97977390D02*
X109159684Y-97929771D01*
X109159684Y-97929771D02*
X109254922Y-97882152D01*
X109254922Y-97882152D02*
X109445398Y-97882152D01*
X109445398Y-97882152D02*
X109540636Y-97929771D01*
X95459779Y-93214819D02*
X95459779Y-92214819D01*
X95459779Y-92214819D02*
X95697874Y-92214819D01*
X95697874Y-92214819D02*
X95840731Y-92262438D01*
X95840731Y-92262438D02*
X95935969Y-92357676D01*
X95935969Y-92357676D02*
X95983588Y-92452914D01*
X95983588Y-92452914D02*
X96031207Y-92643390D01*
X96031207Y-92643390D02*
X96031207Y-92786247D01*
X96031207Y-92786247D02*
X95983588Y-92976723D01*
X95983588Y-92976723D02*
X95935969Y-93071961D01*
X95935969Y-93071961D02*
X95840731Y-93167200D01*
X95840731Y-93167200D02*
X95697874Y-93214819D01*
X95697874Y-93214819D02*
X95459779Y-93214819D01*
X96888350Y-92214819D02*
X96697874Y-92214819D01*
X96697874Y-92214819D02*
X96602636Y-92262438D01*
X96602636Y-92262438D02*
X96555017Y-92310057D01*
X96555017Y-92310057D02*
X96459779Y-92452914D01*
X96459779Y-92452914D02*
X96412160Y-92643390D01*
X96412160Y-92643390D02*
X96412160Y-93024342D01*
X96412160Y-93024342D02*
X96459779Y-93119580D01*
X96459779Y-93119580D02*
X96507398Y-93167200D01*
X96507398Y-93167200D02*
X96602636Y-93214819D01*
X96602636Y-93214819D02*
X96793112Y-93214819D01*
X96793112Y-93214819D02*
X96888350Y-93167200D01*
X96888350Y-93167200D02*
X96935969Y-93119580D01*
X96935969Y-93119580D02*
X96983588Y-93024342D01*
X96983588Y-93024342D02*
X96983588Y-92786247D01*
X96983588Y-92786247D02*
X96935969Y-92691009D01*
X96935969Y-92691009D02*
X96888350Y-92643390D01*
X96888350Y-92643390D02*
X96793112Y-92595771D01*
X96793112Y-92595771D02*
X96602636Y-92595771D01*
X96602636Y-92595771D02*
X96507398Y-92643390D01*
X96507398Y-92643390D02*
X96459779Y-92691009D01*
X96459779Y-92691009D02*
X96412160Y-92786247D01*
X88300112Y-97898009D02*
X88442969Y-97945628D01*
X88442969Y-97945628D02*
X88490588Y-97993247D01*
X88490588Y-97993247D02*
X88538207Y-98088485D01*
X88538207Y-98088485D02*
X88538207Y-98231342D01*
X88538207Y-98231342D02*
X88490588Y-98326580D01*
X88490588Y-98326580D02*
X88442969Y-98374200D01*
X88442969Y-98374200D02*
X88347731Y-98421819D01*
X88347731Y-98421819D02*
X87966779Y-98421819D01*
X87966779Y-98421819D02*
X87966779Y-97421819D01*
X87966779Y-97421819D02*
X88300112Y-97421819D01*
X88300112Y-97421819D02*
X88395350Y-97469438D01*
X88395350Y-97469438D02*
X88442969Y-97517057D01*
X88442969Y-97517057D02*
X88490588Y-97612295D01*
X88490588Y-97612295D02*
X88490588Y-97707533D01*
X88490588Y-97707533D02*
X88442969Y-97802771D01*
X88442969Y-97802771D02*
X88395350Y-97850390D01*
X88395350Y-97850390D02*
X88300112Y-97898009D01*
X88300112Y-97898009D02*
X87966779Y-97898009D01*
X89442969Y-98421819D02*
X88966779Y-98421819D01*
X88966779Y-98421819D02*
X88966779Y-97421819D01*
D11*
X116604712Y-90755500D02*
X116741616Y-90803119D01*
X116741616Y-90803119D02*
X116979712Y-90803119D01*
X116979712Y-90803119D02*
X117080902Y-90755500D01*
X117080902Y-90755500D02*
X117134474Y-90707880D01*
X117134474Y-90707880D02*
X117193997Y-90612642D01*
X117193997Y-90612642D02*
X117205902Y-90517404D01*
X117205902Y-90517404D02*
X117170188Y-90422166D01*
X117170188Y-90422166D02*
X117128521Y-90374547D01*
X117128521Y-90374547D02*
X117039236Y-90326928D01*
X117039236Y-90326928D02*
X116854712Y-90279309D01*
X116854712Y-90279309D02*
X116765426Y-90231690D01*
X116765426Y-90231690D02*
X116723759Y-90184071D01*
X116723759Y-90184071D02*
X116688045Y-90088833D01*
X116688045Y-90088833D02*
X116699950Y-89993595D01*
X116699950Y-89993595D02*
X116759474Y-89898357D01*
X116759474Y-89898357D02*
X116813045Y-89850738D01*
X116813045Y-89850738D02*
X116914236Y-89803119D01*
X116914236Y-89803119D02*
X117152331Y-89803119D01*
X117152331Y-89803119D02*
X117289236Y-89850738D01*
X118182093Y-90707880D02*
X118128521Y-90755500D01*
X118128521Y-90755500D02*
X117979712Y-90803119D01*
X117979712Y-90803119D02*
X117884474Y-90803119D01*
X117884474Y-90803119D02*
X117747569Y-90755500D01*
X117747569Y-90755500D02*
X117664236Y-90660261D01*
X117664236Y-90660261D02*
X117628521Y-90565023D01*
X117628521Y-90565023D02*
X117604712Y-90374547D01*
X117604712Y-90374547D02*
X117622569Y-90231690D01*
X117622569Y-90231690D02*
X117693997Y-90041214D01*
X117693997Y-90041214D02*
X117753521Y-89945976D01*
X117753521Y-89945976D02*
X117860664Y-89850738D01*
X117860664Y-89850738D02*
X118009474Y-89803119D01*
X118009474Y-89803119D02*
X118104712Y-89803119D01*
X118104712Y-89803119D02*
X118241617Y-89850738D01*
X118241617Y-89850738D02*
X118283283Y-89898357D01*
X119122569Y-90803119D02*
X118551140Y-90803119D01*
X118836855Y-90803119D02*
X118961855Y-89803119D01*
X118961855Y-89803119D02*
X118848759Y-89945976D01*
X118848759Y-89945976D02*
X118741617Y-90041214D01*
X118741617Y-90041214D02*
X118640426Y-90088833D01*
X120104712Y-89803119D02*
X119914236Y-89803119D01*
X119914236Y-89803119D02*
X119813045Y-89850738D01*
X119813045Y-89850738D02*
X119759474Y-89898357D01*
X119759474Y-89898357D02*
X119646378Y-90041214D01*
X119646378Y-90041214D02*
X119574950Y-90231690D01*
X119574950Y-90231690D02*
X119527331Y-90612642D01*
X119527331Y-90612642D02*
X119563045Y-90707880D01*
X119563045Y-90707880D02*
X119604712Y-90755500D01*
X119604712Y-90755500D02*
X119693998Y-90803119D01*
X119693998Y-90803119D02*
X119884474Y-90803119D01*
X119884474Y-90803119D02*
X119985664Y-90755500D01*
X119985664Y-90755500D02*
X120039236Y-90707880D01*
X120039236Y-90707880D02*
X120098759Y-90612642D01*
X120098759Y-90612642D02*
X120128521Y-90374547D01*
X120128521Y-90374547D02*
X120092807Y-90279309D01*
X120092807Y-90279309D02*
X120051140Y-90231690D01*
X120051140Y-90231690D02*
X119961855Y-90184071D01*
X119961855Y-90184071D02*
X119771378Y-90184071D01*
X119771378Y-90184071D02*
X119670188Y-90231690D01*
X119670188Y-90231690D02*
X119616617Y-90279309D01*
X119616617Y-90279309D02*
X119557093Y-90374547D01*
X120818998Y-89803119D02*
X120914236Y-89803119D01*
X120914236Y-89803119D02*
X121003521Y-89850738D01*
X121003521Y-89850738D02*
X121045188Y-89898357D01*
X121045188Y-89898357D02*
X121080902Y-89993595D01*
X121080902Y-89993595D02*
X121104712Y-90184071D01*
X121104712Y-90184071D02*
X121074950Y-90422166D01*
X121074950Y-90422166D02*
X121003521Y-90612642D01*
X121003521Y-90612642D02*
X120943998Y-90707880D01*
X120943998Y-90707880D02*
X120890426Y-90755500D01*
X120890426Y-90755500D02*
X120789236Y-90803119D01*
X120789236Y-90803119D02*
X120693998Y-90803119D01*
X120693998Y-90803119D02*
X120604712Y-90755500D01*
X120604712Y-90755500D02*
X120563045Y-90707880D01*
X120563045Y-90707880D02*
X120527331Y-90612642D01*
X120527331Y-90612642D02*
X120503521Y-90422166D01*
X120503521Y-90422166D02*
X120533283Y-90184071D01*
X120533283Y-90184071D02*
X120604712Y-89993595D01*
X120604712Y-89993595D02*
X120664236Y-89898357D01*
X120664236Y-89898357D02*
X120717807Y-89850738D01*
X120717807Y-89850738D02*
X120818998Y-89803119D01*
X121521379Y-89898357D02*
X121574950Y-89850738D01*
X121574950Y-89850738D02*
X121676140Y-89803119D01*
X121676140Y-89803119D02*
X121914236Y-89803119D01*
X121914236Y-89803119D02*
X122003521Y-89850738D01*
X122003521Y-89850738D02*
X122045188Y-89898357D01*
X122045188Y-89898357D02*
X122080902Y-89993595D01*
X122080902Y-89993595D02*
X122068998Y-90088833D01*
X122068998Y-90088833D02*
X122003521Y-90231690D01*
X122003521Y-90231690D02*
X121360664Y-90803119D01*
X121360664Y-90803119D02*
X121979712Y-90803119D01*
X122158283Y-90898357D02*
X122920188Y-90898357D01*
X123741617Y-90803119D02*
X123467807Y-90326928D01*
X123170188Y-90803119D02*
X123295188Y-89803119D01*
X123295188Y-89803119D02*
X123676141Y-89803119D01*
X123676141Y-89803119D02*
X123765426Y-89850738D01*
X123765426Y-89850738D02*
X123807093Y-89898357D01*
X123807093Y-89898357D02*
X123842807Y-89993595D01*
X123842807Y-89993595D02*
X123824950Y-90136452D01*
X123824950Y-90136452D02*
X123765426Y-90231690D01*
X123765426Y-90231690D02*
X123711855Y-90279309D01*
X123711855Y-90279309D02*
X123610665Y-90326928D01*
X123610665Y-90326928D02*
X123229712Y-90326928D01*
X125015426Y-89755500D02*
X123997569Y-91041214D01*
X125247569Y-89803119D02*
X125360665Y-90803119D01*
X125360665Y-90803119D02*
X125640426Y-90088833D01*
X125640426Y-90088833D02*
X125741617Y-90803119D01*
X125741617Y-90803119D02*
X126104712Y-89803119D01*
D10*
X107842207Y-93468819D02*
X107508874Y-92992628D01*
X107270779Y-93468819D02*
X107270779Y-92468819D01*
X107270779Y-92468819D02*
X107651731Y-92468819D01*
X107651731Y-92468819D02*
X107746969Y-92516438D01*
X107746969Y-92516438D02*
X107794588Y-92564057D01*
X107794588Y-92564057D02*
X107842207Y-92659295D01*
X107842207Y-92659295D02*
X107842207Y-92802152D01*
X107842207Y-92802152D02*
X107794588Y-92897390D01*
X107794588Y-92897390D02*
X107746969Y-92945009D01*
X107746969Y-92945009D02*
X107651731Y-92992628D01*
X107651731Y-92992628D02*
X107270779Y-92992628D01*
X108985064Y-92421200D02*
X108127922Y-93706914D01*
X109223160Y-92468819D02*
X109461255Y-93468819D01*
X109461255Y-93468819D02*
X109651731Y-92754533D01*
X109651731Y-92754533D02*
X109842207Y-93468819D01*
X109842207Y-93468819D02*
X110080303Y-92468819D01*
D11*
X156532236Y-88453738D02*
X156442950Y-88406119D01*
X156442950Y-88406119D02*
X156300093Y-88406119D01*
X156300093Y-88406119D02*
X156151283Y-88453738D01*
X156151283Y-88453738D02*
X156044140Y-88548976D01*
X156044140Y-88548976D02*
X155984616Y-88644214D01*
X155984616Y-88644214D02*
X155913188Y-88834690D01*
X155913188Y-88834690D02*
X155895331Y-88977547D01*
X155895331Y-88977547D02*
X155919140Y-89168023D01*
X155919140Y-89168023D02*
X155954855Y-89263261D01*
X155954855Y-89263261D02*
X156038188Y-89358500D01*
X156038188Y-89358500D02*
X156175093Y-89406119D01*
X156175093Y-89406119D02*
X156270331Y-89406119D01*
X156270331Y-89406119D02*
X156419140Y-89358500D01*
X156419140Y-89358500D02*
X156472712Y-89310880D01*
X156472712Y-89310880D02*
X156514378Y-88977547D01*
X156514378Y-88977547D02*
X156323902Y-88977547D01*
X156889378Y-89406119D02*
X157014378Y-88406119D01*
X157014378Y-88406119D02*
X157460807Y-89406119D01*
X157460807Y-89406119D02*
X157585807Y-88406119D01*
X157936997Y-89406119D02*
X158061997Y-88406119D01*
X158061997Y-88406119D02*
X158300093Y-88406119D01*
X158300093Y-88406119D02*
X158436997Y-88453738D01*
X158436997Y-88453738D02*
X158520331Y-88548976D01*
X158520331Y-88548976D02*
X158556045Y-88644214D01*
X158556045Y-88644214D02*
X158579855Y-88834690D01*
X158579855Y-88834690D02*
X158561997Y-88977547D01*
X158561997Y-88977547D02*
X158490569Y-89168023D01*
X158490569Y-89168023D02*
X158431045Y-89263261D01*
X158431045Y-89263261D02*
X158323902Y-89358500D01*
X158323902Y-89358500D02*
X158175093Y-89406119D01*
X158175093Y-89406119D02*
X157936997Y-89406119D01*
X159782235Y-88739452D02*
X158984616Y-89025166D01*
X158984616Y-89025166D02*
X159710807Y-89310880D01*
X160222711Y-89025166D02*
X160984616Y-89025166D01*
X161496521Y-88739452D02*
X162222711Y-89025166D01*
X162222711Y-89025166D02*
X161425092Y-89310880D01*
X162609616Y-89358500D02*
X162746520Y-89406119D01*
X162746520Y-89406119D02*
X162984616Y-89406119D01*
X162984616Y-89406119D02*
X163085806Y-89358500D01*
X163085806Y-89358500D02*
X163139378Y-89310880D01*
X163139378Y-89310880D02*
X163198901Y-89215642D01*
X163198901Y-89215642D02*
X163210806Y-89120404D01*
X163210806Y-89120404D02*
X163175092Y-89025166D01*
X163175092Y-89025166D02*
X163133425Y-88977547D01*
X163133425Y-88977547D02*
X163044140Y-88929928D01*
X163044140Y-88929928D02*
X162859616Y-88882309D01*
X162859616Y-88882309D02*
X162770330Y-88834690D01*
X162770330Y-88834690D02*
X162728663Y-88787071D01*
X162728663Y-88787071D02*
X162692949Y-88691833D01*
X162692949Y-88691833D02*
X162704854Y-88596595D01*
X162704854Y-88596595D02*
X162764378Y-88501357D01*
X162764378Y-88501357D02*
X162817949Y-88453738D01*
X162817949Y-88453738D02*
X162919140Y-88406119D01*
X162919140Y-88406119D02*
X163157235Y-88406119D01*
X163157235Y-88406119D02*
X163294140Y-88453738D01*
X164186997Y-89310880D02*
X164133425Y-89358500D01*
X164133425Y-89358500D02*
X163984616Y-89406119D01*
X163984616Y-89406119D02*
X163889378Y-89406119D01*
X163889378Y-89406119D02*
X163752473Y-89358500D01*
X163752473Y-89358500D02*
X163669140Y-89263261D01*
X163669140Y-89263261D02*
X163633425Y-89168023D01*
X163633425Y-89168023D02*
X163609616Y-88977547D01*
X163609616Y-88977547D02*
X163627473Y-88834690D01*
X163627473Y-88834690D02*
X163698901Y-88644214D01*
X163698901Y-88644214D02*
X163758425Y-88548976D01*
X163758425Y-88548976D02*
X163865568Y-88453738D01*
X163865568Y-88453738D02*
X164014378Y-88406119D01*
X164014378Y-88406119D02*
X164109616Y-88406119D01*
X164109616Y-88406119D02*
X164246521Y-88453738D01*
X164246521Y-88453738D02*
X164288187Y-88501357D01*
X165127473Y-89406119D02*
X164556044Y-89406119D01*
X164841759Y-89406119D02*
X164966759Y-88406119D01*
X164966759Y-88406119D02*
X164853663Y-88548976D01*
X164853663Y-88548976D02*
X164746521Y-88644214D01*
X164746521Y-88644214D02*
X164645330Y-88691833D01*
X166109616Y-88406119D02*
X165919140Y-88406119D01*
X165919140Y-88406119D02*
X165817949Y-88453738D01*
X165817949Y-88453738D02*
X165764378Y-88501357D01*
X165764378Y-88501357D02*
X165651282Y-88644214D01*
X165651282Y-88644214D02*
X165579854Y-88834690D01*
X165579854Y-88834690D02*
X165532235Y-89215642D01*
X165532235Y-89215642D02*
X165567949Y-89310880D01*
X165567949Y-89310880D02*
X165609616Y-89358500D01*
X165609616Y-89358500D02*
X165698902Y-89406119D01*
X165698902Y-89406119D02*
X165889378Y-89406119D01*
X165889378Y-89406119D02*
X165990568Y-89358500D01*
X165990568Y-89358500D02*
X166044140Y-89310880D01*
X166044140Y-89310880D02*
X166103663Y-89215642D01*
X166103663Y-89215642D02*
X166133425Y-88977547D01*
X166133425Y-88977547D02*
X166097711Y-88882309D01*
X166097711Y-88882309D02*
X166056044Y-88834690D01*
X166056044Y-88834690D02*
X165966759Y-88787071D01*
X165966759Y-88787071D02*
X165776282Y-88787071D01*
X165776282Y-88787071D02*
X165675092Y-88834690D01*
X165675092Y-88834690D02*
X165621521Y-88882309D01*
X165621521Y-88882309D02*
X165561997Y-88977547D01*
X166823902Y-88406119D02*
X166919140Y-88406119D01*
X166919140Y-88406119D02*
X167008425Y-88453738D01*
X167008425Y-88453738D02*
X167050092Y-88501357D01*
X167050092Y-88501357D02*
X167085806Y-88596595D01*
X167085806Y-88596595D02*
X167109616Y-88787071D01*
X167109616Y-88787071D02*
X167079854Y-89025166D01*
X167079854Y-89025166D02*
X167008425Y-89215642D01*
X167008425Y-89215642D02*
X166948902Y-89310880D01*
X166948902Y-89310880D02*
X166895330Y-89358500D01*
X166895330Y-89358500D02*
X166794140Y-89406119D01*
X166794140Y-89406119D02*
X166698902Y-89406119D01*
X166698902Y-89406119D02*
X166609616Y-89358500D01*
X166609616Y-89358500D02*
X166567949Y-89310880D01*
X166567949Y-89310880D02*
X166532235Y-89215642D01*
X166532235Y-89215642D02*
X166508425Y-89025166D01*
X166508425Y-89025166D02*
X166538187Y-88787071D01*
X166538187Y-88787071D02*
X166609616Y-88596595D01*
X166609616Y-88596595D02*
X166669140Y-88501357D01*
X166669140Y-88501357D02*
X166722711Y-88453738D01*
X166722711Y-88453738D02*
X166823902Y-88406119D01*
X167526283Y-88501357D02*
X167579854Y-88453738D01*
X167579854Y-88453738D02*
X167681044Y-88406119D01*
X167681044Y-88406119D02*
X167919140Y-88406119D01*
X167919140Y-88406119D02*
X168008425Y-88453738D01*
X168008425Y-88453738D02*
X168050092Y-88501357D01*
X168050092Y-88501357D02*
X168085806Y-88596595D01*
X168085806Y-88596595D02*
X168073902Y-88691833D01*
X168073902Y-88691833D02*
X168008425Y-88834690D01*
X168008425Y-88834690D02*
X167365568Y-89406119D01*
X167365568Y-89406119D02*
X167984616Y-89406119D01*
X168163187Y-89501357D02*
X168925092Y-89501357D01*
X169758426Y-89310880D02*
X169704854Y-89358500D01*
X169704854Y-89358500D02*
X169556045Y-89406119D01*
X169556045Y-89406119D02*
X169460807Y-89406119D01*
X169460807Y-89406119D02*
X169323902Y-89358500D01*
X169323902Y-89358500D02*
X169240569Y-89263261D01*
X169240569Y-89263261D02*
X169204854Y-89168023D01*
X169204854Y-89168023D02*
X169181045Y-88977547D01*
X169181045Y-88977547D02*
X169198902Y-88834690D01*
X169198902Y-88834690D02*
X169270330Y-88644214D01*
X169270330Y-88644214D02*
X169329854Y-88548976D01*
X169329854Y-88548976D02*
X169436997Y-88453738D01*
X169436997Y-88453738D02*
X169585807Y-88406119D01*
X169585807Y-88406119D02*
X169681045Y-88406119D01*
X169681045Y-88406119D02*
X169817950Y-88453738D01*
X169817950Y-88453738D02*
X169859616Y-88501357D01*
X170603664Y-89406119D02*
X170669140Y-88882309D01*
X170669140Y-88882309D02*
X170633426Y-88787071D01*
X170633426Y-88787071D02*
X170544140Y-88739452D01*
X170544140Y-88739452D02*
X170353664Y-88739452D01*
X170353664Y-88739452D02*
X170252473Y-88787071D01*
X170609616Y-89358500D02*
X170508426Y-89406119D01*
X170508426Y-89406119D02*
X170270330Y-89406119D01*
X170270330Y-89406119D02*
X170181045Y-89358500D01*
X170181045Y-89358500D02*
X170145330Y-89263261D01*
X170145330Y-89263261D02*
X170157235Y-89168023D01*
X170157235Y-89168023D02*
X170216759Y-89072785D01*
X170216759Y-89072785D02*
X170317950Y-89025166D01*
X170317950Y-89025166D02*
X170556045Y-89025166D01*
X170556045Y-89025166D02*
X170657235Y-88977547D01*
X171020331Y-88739452D02*
X171401283Y-88739452D01*
X171204854Y-88406119D02*
X171097712Y-89263261D01*
X171097712Y-89263261D02*
X171133426Y-89358500D01*
X171133426Y-89358500D02*
X171222712Y-89406119D01*
X171222712Y-89406119D02*
X171317950Y-89406119D01*
X171651283Y-89406119D02*
X171776283Y-88406119D01*
X172079855Y-89406119D02*
X172145331Y-88882309D01*
X172145331Y-88882309D02*
X172109617Y-88787071D01*
X172109617Y-88787071D02*
X172020331Y-88739452D01*
X172020331Y-88739452D02*
X171877474Y-88739452D01*
X171877474Y-88739452D02*
X171776283Y-88787071D01*
X171776283Y-88787071D02*
X171722712Y-88834690D01*
X172698903Y-89406119D02*
X172609617Y-89358500D01*
X172609617Y-89358500D02*
X172567950Y-89310880D01*
X172567950Y-89310880D02*
X172532236Y-89215642D01*
X172532236Y-89215642D02*
X172567950Y-88929928D01*
X172567950Y-88929928D02*
X172627474Y-88834690D01*
X172627474Y-88834690D02*
X172681045Y-88787071D01*
X172681045Y-88787071D02*
X172782236Y-88739452D01*
X172782236Y-88739452D02*
X172925093Y-88739452D01*
X172925093Y-88739452D02*
X173014379Y-88787071D01*
X173014379Y-88787071D02*
X173056045Y-88834690D01*
X173056045Y-88834690D02*
X173091760Y-88929928D01*
X173091760Y-88929928D02*
X173056045Y-89215642D01*
X173056045Y-89215642D02*
X172996522Y-89310880D01*
X172996522Y-89310880D02*
X172942950Y-89358500D01*
X172942950Y-89358500D02*
X172841760Y-89406119D01*
X172841760Y-89406119D02*
X172698903Y-89406119D01*
X173889379Y-89406119D02*
X174014379Y-88406119D01*
X173895331Y-89358500D02*
X173794141Y-89406119D01*
X173794141Y-89406119D02*
X173603665Y-89406119D01*
X173603665Y-89406119D02*
X173514379Y-89358500D01*
X173514379Y-89358500D02*
X173472712Y-89310880D01*
X173472712Y-89310880D02*
X173436998Y-89215642D01*
X173436998Y-89215642D02*
X173472712Y-88929928D01*
X173472712Y-88929928D02*
X173532236Y-88834690D01*
X173532236Y-88834690D02*
X173585807Y-88787071D01*
X173585807Y-88787071D02*
X173686998Y-88739452D01*
X173686998Y-88739452D02*
X173877474Y-88739452D01*
X173877474Y-88739452D02*
X173966760Y-88787071D01*
X174752474Y-89358500D02*
X174651284Y-89406119D01*
X174651284Y-89406119D02*
X174460807Y-89406119D01*
X174460807Y-89406119D02*
X174371522Y-89358500D01*
X174371522Y-89358500D02*
X174335807Y-89263261D01*
X174335807Y-89263261D02*
X174383427Y-88882309D01*
X174383427Y-88882309D02*
X174442950Y-88787071D01*
X174442950Y-88787071D02*
X174544141Y-88739452D01*
X174544141Y-88739452D02*
X174734617Y-88739452D01*
X174734617Y-88739452D02*
X174823903Y-88787071D01*
X174823903Y-88787071D02*
X174859617Y-88882309D01*
X174859617Y-88882309D02*
X174847712Y-88977547D01*
X174847712Y-88977547D02*
X174359617Y-89072785D01*
D10*
X95459779Y-90674819D02*
X95459779Y-89674819D01*
X95459779Y-89674819D02*
X95697874Y-89674819D01*
X95697874Y-89674819D02*
X95840731Y-89722438D01*
X95840731Y-89722438D02*
X95935969Y-89817676D01*
X95935969Y-89817676D02*
X95983588Y-89912914D01*
X95983588Y-89912914D02*
X96031207Y-90103390D01*
X96031207Y-90103390D02*
X96031207Y-90246247D01*
X96031207Y-90246247D02*
X95983588Y-90436723D01*
X95983588Y-90436723D02*
X95935969Y-90531961D01*
X95935969Y-90531961D02*
X95840731Y-90627200D01*
X95840731Y-90627200D02*
X95697874Y-90674819D01*
X95697874Y-90674819D02*
X95459779Y-90674819D01*
X96888350Y-90008152D02*
X96888350Y-90674819D01*
X96650255Y-89627200D02*
X96412160Y-90341485D01*
X96412160Y-90341485D02*
X97031207Y-90341485D01*
D11*
X140425093Y-101614119D02*
X140335807Y-102328404D01*
X140335807Y-102328404D02*
X140270331Y-102471261D01*
X140270331Y-102471261D02*
X140163188Y-102566500D01*
X140163188Y-102566500D02*
X140014378Y-102614119D01*
X140014378Y-102614119D02*
X139919140Y-102614119D01*
X140841760Y-101709357D02*
X140895331Y-101661738D01*
X140895331Y-101661738D02*
X140996521Y-101614119D01*
X140996521Y-101614119D02*
X141234617Y-101614119D01*
X141234617Y-101614119D02*
X141323902Y-101661738D01*
X141323902Y-101661738D02*
X141365569Y-101709357D01*
X141365569Y-101709357D02*
X141401283Y-101804595D01*
X141401283Y-101804595D02*
X141389379Y-101899833D01*
X141389379Y-101899833D02*
X141323902Y-102042690D01*
X141323902Y-102042690D02*
X140681045Y-102614119D01*
X140681045Y-102614119D02*
X141300093Y-102614119D01*
X142538188Y-102233166D02*
X143300093Y-102233166D01*
X144490569Y-102614119D02*
X144615569Y-101614119D01*
X144615569Y-101614119D02*
X144996522Y-101614119D01*
X144996522Y-101614119D02*
X145085807Y-101661738D01*
X145085807Y-101661738D02*
X145127474Y-101709357D01*
X145127474Y-101709357D02*
X145163188Y-101804595D01*
X145163188Y-101804595D02*
X145145331Y-101947452D01*
X145145331Y-101947452D02*
X145085807Y-102042690D01*
X145085807Y-102042690D02*
X145032236Y-102090309D01*
X145032236Y-102090309D02*
X144931046Y-102137928D01*
X144931046Y-102137928D02*
X144550093Y-102137928D01*
X145490569Y-102614119D02*
X145573903Y-101947452D01*
X145561998Y-102042690D02*
X145615569Y-101995071D01*
X145615569Y-101995071D02*
X145716760Y-101947452D01*
X145716760Y-101947452D02*
X145859617Y-101947452D01*
X145859617Y-101947452D02*
X145948903Y-101995071D01*
X145948903Y-101995071D02*
X145984617Y-102090309D01*
X145984617Y-102090309D02*
X145919141Y-102614119D01*
X145984617Y-102090309D02*
X146044141Y-101995071D01*
X146044141Y-101995071D02*
X146145331Y-101947452D01*
X146145331Y-101947452D02*
X146288188Y-101947452D01*
X146288188Y-101947452D02*
X146377474Y-101995071D01*
X146377474Y-101995071D02*
X146413188Y-102090309D01*
X146413188Y-102090309D02*
X146347712Y-102614119D01*
X146966760Y-102614119D02*
X146877474Y-102566500D01*
X146877474Y-102566500D02*
X146835807Y-102518880D01*
X146835807Y-102518880D02*
X146800093Y-102423642D01*
X146800093Y-102423642D02*
X146835807Y-102137928D01*
X146835807Y-102137928D02*
X146895331Y-102042690D01*
X146895331Y-102042690D02*
X146948902Y-101995071D01*
X146948902Y-101995071D02*
X147050093Y-101947452D01*
X147050093Y-101947452D02*
X147192950Y-101947452D01*
X147192950Y-101947452D02*
X147282236Y-101995071D01*
X147282236Y-101995071D02*
X147323902Y-102042690D01*
X147323902Y-102042690D02*
X147359617Y-102137928D01*
X147359617Y-102137928D02*
X147323902Y-102423642D01*
X147323902Y-102423642D02*
X147264379Y-102518880D01*
X147264379Y-102518880D02*
X147210807Y-102566500D01*
X147210807Y-102566500D02*
X147109617Y-102614119D01*
X147109617Y-102614119D02*
X146966760Y-102614119D01*
X148157236Y-102614119D02*
X148282236Y-101614119D01*
X148163188Y-102566500D02*
X148061998Y-102614119D01*
X148061998Y-102614119D02*
X147871522Y-102614119D01*
X147871522Y-102614119D02*
X147782236Y-102566500D01*
X147782236Y-102566500D02*
X147740569Y-102518880D01*
X147740569Y-102518880D02*
X147704855Y-102423642D01*
X147704855Y-102423642D02*
X147740569Y-102137928D01*
X147740569Y-102137928D02*
X147800093Y-102042690D01*
X147800093Y-102042690D02*
X147853664Y-101995071D01*
X147853664Y-101995071D02*
X147954855Y-101947452D01*
X147954855Y-101947452D02*
X148145331Y-101947452D01*
X148145331Y-101947452D02*
X148234617Y-101995071D01*
X148383426Y-102709357D02*
X149145331Y-102709357D01*
X149978665Y-102518880D02*
X149925093Y-102566500D01*
X149925093Y-102566500D02*
X149776284Y-102614119D01*
X149776284Y-102614119D02*
X149681046Y-102614119D01*
X149681046Y-102614119D02*
X149544141Y-102566500D01*
X149544141Y-102566500D02*
X149460808Y-102471261D01*
X149460808Y-102471261D02*
X149425093Y-102376023D01*
X149425093Y-102376023D02*
X149401284Y-102185547D01*
X149401284Y-102185547D02*
X149419141Y-102042690D01*
X149419141Y-102042690D02*
X149490569Y-101852214D01*
X149490569Y-101852214D02*
X149550093Y-101756976D01*
X149550093Y-101756976D02*
X149657236Y-101661738D01*
X149657236Y-101661738D02*
X149806046Y-101614119D01*
X149806046Y-101614119D02*
X149901284Y-101614119D01*
X149901284Y-101614119D02*
X150038189Y-101661738D01*
X150038189Y-101661738D02*
X150079855Y-101709357D01*
X150538189Y-102614119D02*
X150448903Y-102566500D01*
X150448903Y-102566500D02*
X150407236Y-102518880D01*
X150407236Y-102518880D02*
X150371522Y-102423642D01*
X150371522Y-102423642D02*
X150407236Y-102137928D01*
X150407236Y-102137928D02*
X150466760Y-102042690D01*
X150466760Y-102042690D02*
X150520331Y-101995071D01*
X150520331Y-101995071D02*
X150621522Y-101947452D01*
X150621522Y-101947452D02*
X150764379Y-101947452D01*
X150764379Y-101947452D02*
X150853665Y-101995071D01*
X150853665Y-101995071D02*
X150895331Y-102042690D01*
X150895331Y-102042690D02*
X150931046Y-102137928D01*
X150931046Y-102137928D02*
X150895331Y-102423642D01*
X150895331Y-102423642D02*
X150835808Y-102518880D01*
X150835808Y-102518880D02*
X150782236Y-102566500D01*
X150782236Y-102566500D02*
X150681046Y-102614119D01*
X150681046Y-102614119D02*
X150538189Y-102614119D01*
X152907236Y-101947452D02*
X152109617Y-102233166D01*
X152109617Y-102233166D02*
X152835808Y-102518880D01*
X153347712Y-102233166D02*
X154109617Y-102233166D01*
X154621522Y-101947452D02*
X155347712Y-102233166D01*
X155347712Y-102233166D02*
X154550093Y-102518880D01*
X156496522Y-102566500D02*
X156633426Y-102614119D01*
X156633426Y-102614119D02*
X156871522Y-102614119D01*
X156871522Y-102614119D02*
X156972712Y-102566500D01*
X156972712Y-102566500D02*
X157026284Y-102518880D01*
X157026284Y-102518880D02*
X157085807Y-102423642D01*
X157085807Y-102423642D02*
X157097712Y-102328404D01*
X157097712Y-102328404D02*
X157061998Y-102233166D01*
X157061998Y-102233166D02*
X157020331Y-102185547D01*
X157020331Y-102185547D02*
X156931046Y-102137928D01*
X156931046Y-102137928D02*
X156746522Y-102090309D01*
X156746522Y-102090309D02*
X156657236Y-102042690D01*
X156657236Y-102042690D02*
X156615569Y-101995071D01*
X156615569Y-101995071D02*
X156579855Y-101899833D01*
X156579855Y-101899833D02*
X156591760Y-101804595D01*
X156591760Y-101804595D02*
X156651284Y-101709357D01*
X156651284Y-101709357D02*
X156704855Y-101661738D01*
X156704855Y-101661738D02*
X156806046Y-101614119D01*
X156806046Y-101614119D02*
X157044141Y-101614119D01*
X157044141Y-101614119D02*
X157181046Y-101661738D01*
X158073903Y-102518880D02*
X158020331Y-102566500D01*
X158020331Y-102566500D02*
X157871522Y-102614119D01*
X157871522Y-102614119D02*
X157776284Y-102614119D01*
X157776284Y-102614119D02*
X157639379Y-102566500D01*
X157639379Y-102566500D02*
X157556046Y-102471261D01*
X157556046Y-102471261D02*
X157520331Y-102376023D01*
X157520331Y-102376023D02*
X157496522Y-102185547D01*
X157496522Y-102185547D02*
X157514379Y-102042690D01*
X157514379Y-102042690D02*
X157585807Y-101852214D01*
X157585807Y-101852214D02*
X157645331Y-101756976D01*
X157645331Y-101756976D02*
X157752474Y-101661738D01*
X157752474Y-101661738D02*
X157901284Y-101614119D01*
X157901284Y-101614119D02*
X157996522Y-101614119D01*
X157996522Y-101614119D02*
X158133427Y-101661738D01*
X158133427Y-101661738D02*
X158175093Y-101709357D01*
X159014379Y-102614119D02*
X158442950Y-102614119D01*
X158728665Y-102614119D02*
X158853665Y-101614119D01*
X158853665Y-101614119D02*
X158740569Y-101756976D01*
X158740569Y-101756976D02*
X158633427Y-101852214D01*
X158633427Y-101852214D02*
X158532236Y-101899833D01*
X159996522Y-101614119D02*
X159806046Y-101614119D01*
X159806046Y-101614119D02*
X159704855Y-101661738D01*
X159704855Y-101661738D02*
X159651284Y-101709357D01*
X159651284Y-101709357D02*
X159538188Y-101852214D01*
X159538188Y-101852214D02*
X159466760Y-102042690D01*
X159466760Y-102042690D02*
X159419141Y-102423642D01*
X159419141Y-102423642D02*
X159454855Y-102518880D01*
X159454855Y-102518880D02*
X159496522Y-102566500D01*
X159496522Y-102566500D02*
X159585808Y-102614119D01*
X159585808Y-102614119D02*
X159776284Y-102614119D01*
X159776284Y-102614119D02*
X159877474Y-102566500D01*
X159877474Y-102566500D02*
X159931046Y-102518880D01*
X159931046Y-102518880D02*
X159990569Y-102423642D01*
X159990569Y-102423642D02*
X160020331Y-102185547D01*
X160020331Y-102185547D02*
X159984617Y-102090309D01*
X159984617Y-102090309D02*
X159942950Y-102042690D01*
X159942950Y-102042690D02*
X159853665Y-101995071D01*
X159853665Y-101995071D02*
X159663188Y-101995071D01*
X159663188Y-101995071D02*
X159561998Y-102042690D01*
X159561998Y-102042690D02*
X159508427Y-102090309D01*
X159508427Y-102090309D02*
X159448903Y-102185547D01*
X160710808Y-101614119D02*
X160806046Y-101614119D01*
X160806046Y-101614119D02*
X160895331Y-101661738D01*
X160895331Y-101661738D02*
X160936998Y-101709357D01*
X160936998Y-101709357D02*
X160972712Y-101804595D01*
X160972712Y-101804595D02*
X160996522Y-101995071D01*
X160996522Y-101995071D02*
X160966760Y-102233166D01*
X160966760Y-102233166D02*
X160895331Y-102423642D01*
X160895331Y-102423642D02*
X160835808Y-102518880D01*
X160835808Y-102518880D02*
X160782236Y-102566500D01*
X160782236Y-102566500D02*
X160681046Y-102614119D01*
X160681046Y-102614119D02*
X160585808Y-102614119D01*
X160585808Y-102614119D02*
X160496522Y-102566500D01*
X160496522Y-102566500D02*
X160454855Y-102518880D01*
X160454855Y-102518880D02*
X160419141Y-102423642D01*
X160419141Y-102423642D02*
X160395331Y-102233166D01*
X160395331Y-102233166D02*
X160425093Y-101995071D01*
X160425093Y-101995071D02*
X160496522Y-101804595D01*
X160496522Y-101804595D02*
X160556046Y-101709357D01*
X160556046Y-101709357D02*
X160609617Y-101661738D01*
X160609617Y-101661738D02*
X160710808Y-101614119D01*
X161413189Y-101709357D02*
X161466760Y-101661738D01*
X161466760Y-101661738D02*
X161567950Y-101614119D01*
X161567950Y-101614119D02*
X161806046Y-101614119D01*
X161806046Y-101614119D02*
X161895331Y-101661738D01*
X161895331Y-101661738D02*
X161936998Y-101709357D01*
X161936998Y-101709357D02*
X161972712Y-101804595D01*
X161972712Y-101804595D02*
X161960808Y-101899833D01*
X161960808Y-101899833D02*
X161895331Y-102042690D01*
X161895331Y-102042690D02*
X161252474Y-102614119D01*
X161252474Y-102614119D02*
X161871522Y-102614119D01*
X162050093Y-102709357D02*
X162811998Y-102709357D01*
X163044141Y-101614119D02*
X163252475Y-102614119D01*
X163252475Y-102614119D02*
X163710808Y-101614119D01*
X164234618Y-101614119D02*
X164425094Y-101614119D01*
X164425094Y-101614119D02*
X164514379Y-101661738D01*
X164514379Y-101661738D02*
X164597713Y-101756976D01*
X164597713Y-101756976D02*
X164621522Y-101947452D01*
X164621522Y-101947452D02*
X164579856Y-102280785D01*
X164579856Y-102280785D02*
X164508427Y-102471261D01*
X164508427Y-102471261D02*
X164401284Y-102566500D01*
X164401284Y-102566500D02*
X164300094Y-102614119D01*
X164300094Y-102614119D02*
X164109618Y-102614119D01*
X164109618Y-102614119D02*
X164020332Y-102566500D01*
X164020332Y-102566500D02*
X163936999Y-102471261D01*
X163936999Y-102471261D02*
X163913189Y-102280785D01*
X163913189Y-102280785D02*
X163954856Y-101947452D01*
X163954856Y-101947452D02*
X164026284Y-101756976D01*
X164026284Y-101756976D02*
X164133427Y-101661738D01*
X164133427Y-101661738D02*
X164234618Y-101614119D01*
D10*
X107270779Y-85848819D02*
X107270779Y-84848819D01*
X107270779Y-84848819D02*
X107508874Y-84848819D01*
X107508874Y-84848819D02*
X107651731Y-84896438D01*
X107651731Y-84896438D02*
X107746969Y-84991676D01*
X107746969Y-84991676D02*
X107794588Y-85086914D01*
X107794588Y-85086914D02*
X107842207Y-85277390D01*
X107842207Y-85277390D02*
X107842207Y-85420247D01*
X107842207Y-85420247D02*
X107794588Y-85610723D01*
X107794588Y-85610723D02*
X107746969Y-85705961D01*
X107746969Y-85705961D02*
X107651731Y-85801200D01*
X107651731Y-85801200D02*
X107508874Y-85848819D01*
X107508874Y-85848819D02*
X107270779Y-85848819D01*
X108699350Y-85182152D02*
X108699350Y-85848819D01*
X108461255Y-84801200D02*
X108223160Y-85515485D01*
X108223160Y-85515485D02*
X108842207Y-85515485D01*
X89490779Y-88261819D02*
X89490779Y-87261819D01*
X89490779Y-87261819D02*
X89728874Y-87261819D01*
X89728874Y-87261819D02*
X89871731Y-87309438D01*
X89871731Y-87309438D02*
X89966969Y-87404676D01*
X89966969Y-87404676D02*
X90014588Y-87499914D01*
X90014588Y-87499914D02*
X90062207Y-87690390D01*
X90062207Y-87690390D02*
X90062207Y-87833247D01*
X90062207Y-87833247D02*
X90014588Y-88023723D01*
X90014588Y-88023723D02*
X89966969Y-88118961D01*
X89966969Y-88118961D02*
X89871731Y-88214200D01*
X89871731Y-88214200D02*
X89728874Y-88261819D01*
X89728874Y-88261819D02*
X89490779Y-88261819D01*
X90395541Y-87261819D02*
X91014588Y-87261819D01*
X91014588Y-87261819D02*
X90681255Y-87642771D01*
X90681255Y-87642771D02*
X90824112Y-87642771D01*
X90824112Y-87642771D02*
X90919350Y-87690390D01*
X90919350Y-87690390D02*
X90966969Y-87738009D01*
X90966969Y-87738009D02*
X91014588Y-87833247D01*
X91014588Y-87833247D02*
X91014588Y-88071342D01*
X91014588Y-88071342D02*
X90966969Y-88166580D01*
X90966969Y-88166580D02*
X90919350Y-88214200D01*
X90919350Y-88214200D02*
X90824112Y-88261819D01*
X90824112Y-88261819D02*
X90538398Y-88261819D01*
X90538398Y-88261819D02*
X90443160Y-88214200D01*
X90443160Y-88214200D02*
X90395541Y-88166580D01*
X88538207Y-95659580D02*
X88490588Y-95707200D01*
X88490588Y-95707200D02*
X88347731Y-95754819D01*
X88347731Y-95754819D02*
X88252493Y-95754819D01*
X88252493Y-95754819D02*
X88109636Y-95707200D01*
X88109636Y-95707200D02*
X88014398Y-95611961D01*
X88014398Y-95611961D02*
X87966779Y-95516723D01*
X87966779Y-95516723D02*
X87919160Y-95326247D01*
X87919160Y-95326247D02*
X87919160Y-95183390D01*
X87919160Y-95183390D02*
X87966779Y-94992914D01*
X87966779Y-94992914D02*
X88014398Y-94897676D01*
X88014398Y-94897676D02*
X88109636Y-94802438D01*
X88109636Y-94802438D02*
X88252493Y-94754819D01*
X88252493Y-94754819D02*
X88347731Y-94754819D01*
X88347731Y-94754819D02*
X88490588Y-94802438D01*
X88490588Y-94802438D02*
X88538207Y-94850057D01*
X89109636Y-95754819D02*
X89014398Y-95707200D01*
X89014398Y-95707200D02*
X88966779Y-95659580D01*
X88966779Y-95659580D02*
X88919160Y-95564342D01*
X88919160Y-95564342D02*
X88919160Y-95278628D01*
X88919160Y-95278628D02*
X88966779Y-95183390D01*
X88966779Y-95183390D02*
X89014398Y-95135771D01*
X89014398Y-95135771D02*
X89109636Y-95088152D01*
X89109636Y-95088152D02*
X89252493Y-95088152D01*
X89252493Y-95088152D02*
X89347731Y-95135771D01*
X89347731Y-95135771D02*
X89395350Y-95183390D01*
X89395350Y-95183390D02*
X89442969Y-95278628D01*
X89442969Y-95278628D02*
X89442969Y-95564342D01*
X89442969Y-95564342D02*
X89395350Y-95659580D01*
X89395350Y-95659580D02*
X89347731Y-95707200D01*
X89347731Y-95707200D02*
X89252493Y-95754819D01*
X89252493Y-95754819D02*
X89109636Y-95754819D01*
D11*
X117289236Y-87310738D02*
X117199950Y-87263119D01*
X117199950Y-87263119D02*
X117057093Y-87263119D01*
X117057093Y-87263119D02*
X116908283Y-87310738D01*
X116908283Y-87310738D02*
X116801140Y-87405976D01*
X116801140Y-87405976D02*
X116741616Y-87501214D01*
X116741616Y-87501214D02*
X116670188Y-87691690D01*
X116670188Y-87691690D02*
X116652331Y-87834547D01*
X116652331Y-87834547D02*
X116676140Y-88025023D01*
X116676140Y-88025023D02*
X116711855Y-88120261D01*
X116711855Y-88120261D02*
X116795188Y-88215500D01*
X116795188Y-88215500D02*
X116932093Y-88263119D01*
X116932093Y-88263119D02*
X117027331Y-88263119D01*
X117027331Y-88263119D02*
X117176140Y-88215500D01*
X117176140Y-88215500D02*
X117229712Y-88167880D01*
X117229712Y-88167880D02*
X117271378Y-87834547D01*
X117271378Y-87834547D02*
X117080902Y-87834547D01*
X117646378Y-88263119D02*
X117771378Y-87263119D01*
X117771378Y-87263119D02*
X118217807Y-88263119D01*
X118217807Y-88263119D02*
X118342807Y-87263119D01*
X118693997Y-88263119D02*
X118818997Y-87263119D01*
X118818997Y-87263119D02*
X119057093Y-87263119D01*
X119057093Y-87263119D02*
X119193997Y-87310738D01*
X119193997Y-87310738D02*
X119277331Y-87405976D01*
X119277331Y-87405976D02*
X119313045Y-87501214D01*
X119313045Y-87501214D02*
X119336855Y-87691690D01*
X119336855Y-87691690D02*
X119318997Y-87834547D01*
X119318997Y-87834547D02*
X119247569Y-88025023D01*
X119247569Y-88025023D02*
X119188045Y-88120261D01*
X119188045Y-88120261D02*
X119080902Y-88215500D01*
X119080902Y-88215500D02*
X118932093Y-88263119D01*
X118932093Y-88263119D02*
X118693997Y-88263119D01*
D10*
X107270779Y-83308819D02*
X107270779Y-82308819D01*
X107270779Y-82308819D02*
X107508874Y-82308819D01*
X107508874Y-82308819D02*
X107651731Y-82356438D01*
X107651731Y-82356438D02*
X107746969Y-82451676D01*
X107746969Y-82451676D02*
X107794588Y-82546914D01*
X107794588Y-82546914D02*
X107842207Y-82737390D01*
X107842207Y-82737390D02*
X107842207Y-82880247D01*
X107842207Y-82880247D02*
X107794588Y-83070723D01*
X107794588Y-83070723D02*
X107746969Y-83165961D01*
X107746969Y-83165961D02*
X107651731Y-83261200D01*
X107651731Y-83261200D02*
X107508874Y-83308819D01*
X107508874Y-83308819D02*
X107270779Y-83308819D01*
X108699350Y-82308819D02*
X108508874Y-82308819D01*
X108508874Y-82308819D02*
X108413636Y-82356438D01*
X108413636Y-82356438D02*
X108366017Y-82404057D01*
X108366017Y-82404057D02*
X108270779Y-82546914D01*
X108270779Y-82546914D02*
X108223160Y-82737390D01*
X108223160Y-82737390D02*
X108223160Y-83118342D01*
X108223160Y-83118342D02*
X108270779Y-83213580D01*
X108270779Y-83213580D02*
X108318398Y-83261200D01*
X108318398Y-83261200D02*
X108413636Y-83308819D01*
X108413636Y-83308819D02*
X108604112Y-83308819D01*
X108604112Y-83308819D02*
X108699350Y-83261200D01*
X108699350Y-83261200D02*
X108746969Y-83213580D01*
X108746969Y-83213580D02*
X108794588Y-83118342D01*
X108794588Y-83118342D02*
X108794588Y-82880247D01*
X108794588Y-82880247D02*
X108746969Y-82785009D01*
X108746969Y-82785009D02*
X108699350Y-82737390D01*
X108699350Y-82737390D02*
X108604112Y-82689771D01*
X108604112Y-82689771D02*
X108413636Y-82689771D01*
X108413636Y-82689771D02*
X108318398Y-82737390D01*
X108318398Y-82737390D02*
X108270779Y-82785009D01*
X108270779Y-82785009D02*
X108223160Y-82880247D01*
X120316666Y-100546819D02*
X120316666Y-101261104D01*
X120316666Y-101261104D02*
X120269047Y-101403961D01*
X120269047Y-101403961D02*
X120173809Y-101499200D01*
X120173809Y-101499200D02*
X120030952Y-101546819D01*
X120030952Y-101546819D02*
X119935714Y-101546819D01*
X120745238Y-100642057D02*
X120792857Y-100594438D01*
X120792857Y-100594438D02*
X120888095Y-100546819D01*
X120888095Y-100546819D02*
X121126190Y-100546819D01*
X121126190Y-100546819D02*
X121221428Y-100594438D01*
X121221428Y-100594438D02*
X121269047Y-100642057D01*
X121269047Y-100642057D02*
X121316666Y-100737295D01*
X121316666Y-100737295D02*
X121316666Y-100832533D01*
X121316666Y-100832533D02*
X121269047Y-100975390D01*
X121269047Y-100975390D02*
X120697619Y-101546819D01*
X120697619Y-101546819D02*
X121316666Y-101546819D01*
D12*
X169030667Y-99254704D02*
X168992571Y-99292800D01*
X168992571Y-99292800D02*
X168878286Y-99330895D01*
X168878286Y-99330895D02*
X168802095Y-99330895D01*
X168802095Y-99330895D02*
X168687809Y-99292800D01*
X168687809Y-99292800D02*
X168611619Y-99216609D01*
X168611619Y-99216609D02*
X168573524Y-99140419D01*
X168573524Y-99140419D02*
X168535428Y-98988038D01*
X168535428Y-98988038D02*
X168535428Y-98873752D01*
X168535428Y-98873752D02*
X168573524Y-98721371D01*
X168573524Y-98721371D02*
X168611619Y-98645180D01*
X168611619Y-98645180D02*
X168687809Y-98568990D01*
X168687809Y-98568990D02*
X168802095Y-98530895D01*
X168802095Y-98530895D02*
X168878286Y-98530895D01*
X168878286Y-98530895D02*
X168992571Y-98568990D01*
X168992571Y-98568990D02*
X169030667Y-98607085D01*
X169335428Y-98607085D02*
X169373524Y-98568990D01*
X169373524Y-98568990D02*
X169449714Y-98530895D01*
X169449714Y-98530895D02*
X169640190Y-98530895D01*
X169640190Y-98530895D02*
X169716381Y-98568990D01*
X169716381Y-98568990D02*
X169754476Y-98607085D01*
X169754476Y-98607085D02*
X169792571Y-98683276D01*
X169792571Y-98683276D02*
X169792571Y-98759466D01*
X169792571Y-98759466D02*
X169754476Y-98873752D01*
X169754476Y-98873752D02*
X169297333Y-99330895D01*
X169297333Y-99330895D02*
X169792571Y-99330895D01*
X117887810Y-104250895D02*
X117621143Y-103869942D01*
X117430667Y-104250895D02*
X117430667Y-103450895D01*
X117430667Y-103450895D02*
X117735429Y-103450895D01*
X117735429Y-103450895D02*
X117811619Y-103488990D01*
X117811619Y-103488990D02*
X117849714Y-103527085D01*
X117849714Y-103527085D02*
X117887810Y-103603276D01*
X117887810Y-103603276D02*
X117887810Y-103717561D01*
X117887810Y-103717561D02*
X117849714Y-103793752D01*
X117849714Y-103793752D02*
X117811619Y-103831847D01*
X117811619Y-103831847D02*
X117735429Y-103869942D01*
X117735429Y-103869942D02*
X117430667Y-103869942D01*
X118116381Y-103450895D02*
X118383048Y-104250895D01*
X118383048Y-104250895D02*
X118649714Y-103450895D01*
X118878285Y-103527085D02*
X118916381Y-103488990D01*
X118916381Y-103488990D02*
X118992571Y-103450895D01*
X118992571Y-103450895D02*
X119183047Y-103450895D01*
X119183047Y-103450895D02*
X119259238Y-103488990D01*
X119259238Y-103488990D02*
X119297333Y-103527085D01*
X119297333Y-103527085D02*
X119335428Y-103603276D01*
X119335428Y-103603276D02*
X119335428Y-103679466D01*
X119335428Y-103679466D02*
X119297333Y-103793752D01*
X119297333Y-103793752D02*
X118840190Y-104250895D01*
X118840190Y-104250895D02*
X119335428Y-104250895D01*
D10*
X87864666Y-87481819D02*
X87864666Y-88196104D01*
X87864666Y-88196104D02*
X87817047Y-88338961D01*
X87817047Y-88338961D02*
X87721809Y-88434200D01*
X87721809Y-88434200D02*
X87578952Y-88481819D01*
X87578952Y-88481819D02*
X87483714Y-88481819D01*
X88864666Y-88481819D02*
X88293238Y-88481819D01*
X88578952Y-88481819D02*
X88578952Y-87481819D01*
X88578952Y-87481819D02*
X88483714Y-87624676D01*
X88483714Y-87624676D02*
X88388476Y-87719914D01*
X88388476Y-87719914D02*
X88293238Y-87767533D01*
D12*
X176707809Y-93445085D02*
X176631619Y-93406990D01*
X176631619Y-93406990D02*
X176555428Y-93330800D01*
X176555428Y-93330800D02*
X176441142Y-93216514D01*
X176441142Y-93216514D02*
X176364952Y-93178419D01*
X176364952Y-93178419D02*
X176288761Y-93178419D01*
X176326857Y-93368895D02*
X176250666Y-93330800D01*
X176250666Y-93330800D02*
X176174476Y-93254609D01*
X176174476Y-93254609D02*
X176136380Y-93102228D01*
X176136380Y-93102228D02*
X176136380Y-92835561D01*
X176136380Y-92835561D02*
X176174476Y-92683180D01*
X176174476Y-92683180D02*
X176250666Y-92606990D01*
X176250666Y-92606990D02*
X176326857Y-92568895D01*
X176326857Y-92568895D02*
X176479238Y-92568895D01*
X176479238Y-92568895D02*
X176555428Y-92606990D01*
X176555428Y-92606990D02*
X176631619Y-92683180D01*
X176631619Y-92683180D02*
X176669714Y-92835561D01*
X176669714Y-92835561D02*
X176669714Y-93102228D01*
X176669714Y-93102228D02*
X176631619Y-93254609D01*
X176631619Y-93254609D02*
X176555428Y-93330800D01*
X176555428Y-93330800D02*
X176479238Y-93368895D01*
X176479238Y-93368895D02*
X176326857Y-93368895D01*
X176974475Y-92645085D02*
X177012571Y-92606990D01*
X177012571Y-92606990D02*
X177088761Y-92568895D01*
X177088761Y-92568895D02*
X177279237Y-92568895D01*
X177279237Y-92568895D02*
X177355428Y-92606990D01*
X177355428Y-92606990D02*
X177393523Y-92645085D01*
X177393523Y-92645085D02*
X177431618Y-92721276D01*
X177431618Y-92721276D02*
X177431618Y-92797466D01*
X177431618Y-92797466D02*
X177393523Y-92911752D01*
X177393523Y-92911752D02*
X176936380Y-93368895D01*
X176936380Y-93368895D02*
X177431618Y-93368895D01*
X108873704Y-103638332D02*
X108911800Y-103676428D01*
X108911800Y-103676428D02*
X108949895Y-103790713D01*
X108949895Y-103790713D02*
X108949895Y-103866904D01*
X108949895Y-103866904D02*
X108911800Y-103981190D01*
X108911800Y-103981190D02*
X108835609Y-104057380D01*
X108835609Y-104057380D02*
X108759419Y-104095475D01*
X108759419Y-104095475D02*
X108607038Y-104133571D01*
X108607038Y-104133571D02*
X108492752Y-104133571D01*
X108492752Y-104133571D02*
X108340371Y-104095475D01*
X108340371Y-104095475D02*
X108264180Y-104057380D01*
X108264180Y-104057380D02*
X108187990Y-103981190D01*
X108187990Y-103981190D02*
X108149895Y-103866904D01*
X108149895Y-103866904D02*
X108149895Y-103790713D01*
X108149895Y-103790713D02*
X108187990Y-103676428D01*
X108187990Y-103676428D02*
X108226085Y-103638332D01*
X108149895Y-103371666D02*
X108149895Y-102876428D01*
X108149895Y-102876428D02*
X108454657Y-103143094D01*
X108454657Y-103143094D02*
X108454657Y-103028809D01*
X108454657Y-103028809D02*
X108492752Y-102952618D01*
X108492752Y-102952618D02*
X108530847Y-102914523D01*
X108530847Y-102914523D02*
X108607038Y-102876428D01*
X108607038Y-102876428D02*
X108797514Y-102876428D01*
X108797514Y-102876428D02*
X108873704Y-102914523D01*
X108873704Y-102914523D02*
X108911800Y-102952618D01*
X108911800Y-102952618D02*
X108949895Y-103028809D01*
X108949895Y-103028809D02*
X108949895Y-103257380D01*
X108949895Y-103257380D02*
X108911800Y-103333571D01*
X108911800Y-103333571D02*
X108873704Y-103371666D01*
X128812704Y-94748332D02*
X128850800Y-94786428D01*
X128850800Y-94786428D02*
X128888895Y-94900713D01*
X128888895Y-94900713D02*
X128888895Y-94976904D01*
X128888895Y-94976904D02*
X128850800Y-95091190D01*
X128850800Y-95091190D02*
X128774609Y-95167380D01*
X128774609Y-95167380D02*
X128698419Y-95205475D01*
X128698419Y-95205475D02*
X128546038Y-95243571D01*
X128546038Y-95243571D02*
X128431752Y-95243571D01*
X128431752Y-95243571D02*
X128279371Y-95205475D01*
X128279371Y-95205475D02*
X128203180Y-95167380D01*
X128203180Y-95167380D02*
X128126990Y-95091190D01*
X128126990Y-95091190D02*
X128088895Y-94976904D01*
X128088895Y-94976904D02*
X128088895Y-94900713D01*
X128088895Y-94900713D02*
X128126990Y-94786428D01*
X128126990Y-94786428D02*
X128165085Y-94748332D01*
X128888895Y-93986428D02*
X128888895Y-94443571D01*
X128888895Y-94214999D02*
X128088895Y-94214999D01*
X128088895Y-94214999D02*
X128203180Y-94291190D01*
X128203180Y-94291190D02*
X128279371Y-94367380D01*
X128279371Y-94367380D02*
X128317466Y-94443571D01*
X126094895Y-94875332D02*
X125713942Y-95141999D01*
X126094895Y-95332475D02*
X125294895Y-95332475D01*
X125294895Y-95332475D02*
X125294895Y-95027713D01*
X125294895Y-95027713D02*
X125332990Y-94951523D01*
X125332990Y-94951523D02*
X125371085Y-94913428D01*
X125371085Y-94913428D02*
X125447276Y-94875332D01*
X125447276Y-94875332D02*
X125561561Y-94875332D01*
X125561561Y-94875332D02*
X125637752Y-94913428D01*
X125637752Y-94913428D02*
X125675847Y-94951523D01*
X125675847Y-94951523D02*
X125713942Y-95027713D01*
X125713942Y-95027713D02*
X125713942Y-95332475D01*
X126094895Y-94113428D02*
X126094895Y-94570571D01*
X126094895Y-94341999D02*
X125294895Y-94341999D01*
X125294895Y-94341999D02*
X125409180Y-94418190D01*
X125409180Y-94418190D02*
X125485371Y-94494380D01*
X125485371Y-94494380D02*
X125523466Y-94570571D01*
D10*
X114347666Y-84798819D02*
X114347666Y-85513104D01*
X114347666Y-85513104D02*
X114300047Y-85655961D01*
X114300047Y-85655961D02*
X114204809Y-85751200D01*
X114204809Y-85751200D02*
X114061952Y-85798819D01*
X114061952Y-85798819D02*
X113966714Y-85798819D01*
X114728619Y-84798819D02*
X115347666Y-84798819D01*
X115347666Y-84798819D02*
X115014333Y-85179771D01*
X115014333Y-85179771D02*
X115157190Y-85179771D01*
X115157190Y-85179771D02*
X115252428Y-85227390D01*
X115252428Y-85227390D02*
X115300047Y-85275009D01*
X115300047Y-85275009D02*
X115347666Y-85370247D01*
X115347666Y-85370247D02*
X115347666Y-85608342D01*
X115347666Y-85608342D02*
X115300047Y-85703580D01*
X115300047Y-85703580D02*
X115252428Y-85751200D01*
X115252428Y-85751200D02*
X115157190Y-85798819D01*
X115157190Y-85798819D02*
X114871476Y-85798819D01*
X114871476Y-85798819D02*
X114776238Y-85751200D01*
X114776238Y-85751200D02*
X114728619Y-85703580D01*
D13*
X141840856Y-77409318D02*
X141840856Y-76139318D01*
X141840856Y-76139318D02*
X142143237Y-76139318D01*
X142143237Y-76139318D02*
X142324666Y-76199794D01*
X142324666Y-76199794D02*
X142445618Y-76320746D01*
X142445618Y-76320746D02*
X142506095Y-76441699D01*
X142506095Y-76441699D02*
X142566571Y-76683603D01*
X142566571Y-76683603D02*
X142566571Y-76865032D01*
X142566571Y-76865032D02*
X142506095Y-77106937D01*
X142506095Y-77106937D02*
X142445618Y-77227889D01*
X142445618Y-77227889D02*
X142324666Y-77348842D01*
X142324666Y-77348842D02*
X142143237Y-77409318D01*
X142143237Y-77409318D02*
X141840856Y-77409318D01*
X143050380Y-77348842D02*
X143231809Y-77409318D01*
X143231809Y-77409318D02*
X143534190Y-77409318D01*
X143534190Y-77409318D02*
X143655142Y-77348842D01*
X143655142Y-77348842D02*
X143715618Y-77288365D01*
X143715618Y-77288365D02*
X143776095Y-77167413D01*
X143776095Y-77167413D02*
X143776095Y-77046461D01*
X143776095Y-77046461D02*
X143715618Y-76925508D01*
X143715618Y-76925508D02*
X143655142Y-76865032D01*
X143655142Y-76865032D02*
X143534190Y-76804556D01*
X143534190Y-76804556D02*
X143292285Y-76744080D01*
X143292285Y-76744080D02*
X143171333Y-76683603D01*
X143171333Y-76683603D02*
X143110856Y-76623127D01*
X143110856Y-76623127D02*
X143050380Y-76502175D01*
X143050380Y-76502175D02*
X143050380Y-76381222D01*
X143050380Y-76381222D02*
X143110856Y-76260270D01*
X143110856Y-76260270D02*
X143171333Y-76199794D01*
X143171333Y-76199794D02*
X143292285Y-76139318D01*
X143292285Y-76139318D02*
X143594666Y-76139318D01*
X143594666Y-76139318D02*
X143776095Y-76199794D01*
X144985619Y-77409318D02*
X144259904Y-77409318D01*
X144622761Y-77409318D02*
X144622761Y-76139318D01*
X144622761Y-76139318D02*
X144501809Y-76320746D01*
X144501809Y-76320746D02*
X144380857Y-76441699D01*
X144380857Y-76441699D02*
X144259904Y-76502175D01*
D12*
X169030667Y-93422895D02*
X168764000Y-93041942D01*
X168573524Y-93422895D02*
X168573524Y-92622895D01*
X168573524Y-92622895D02*
X168878286Y-92622895D01*
X168878286Y-92622895D02*
X168954476Y-92660990D01*
X168954476Y-92660990D02*
X168992571Y-92699085D01*
X168992571Y-92699085D02*
X169030667Y-92775276D01*
X169030667Y-92775276D02*
X169030667Y-92889561D01*
X169030667Y-92889561D02*
X168992571Y-92965752D01*
X168992571Y-92965752D02*
X168954476Y-93003847D01*
X168954476Y-93003847D02*
X168878286Y-93041942D01*
X168878286Y-93041942D02*
X168573524Y-93041942D01*
X169335428Y-92699085D02*
X169373524Y-92660990D01*
X169373524Y-92660990D02*
X169449714Y-92622895D01*
X169449714Y-92622895D02*
X169640190Y-92622895D01*
X169640190Y-92622895D02*
X169716381Y-92660990D01*
X169716381Y-92660990D02*
X169754476Y-92699085D01*
X169754476Y-92699085D02*
X169792571Y-92775276D01*
X169792571Y-92775276D02*
X169792571Y-92851466D01*
X169792571Y-92851466D02*
X169754476Y-92965752D01*
X169754476Y-92965752D02*
X169297333Y-93422895D01*
X169297333Y-93422895D02*
X169792571Y-93422895D01*
D10*
X176331666Y-86449819D02*
X176331666Y-87164104D01*
X176331666Y-87164104D02*
X176284047Y-87306961D01*
X176284047Y-87306961D02*
X176188809Y-87402200D01*
X176188809Y-87402200D02*
X176045952Y-87449819D01*
X176045952Y-87449819D02*
X175950714Y-87449819D01*
X176807857Y-87449819D02*
X176807857Y-86449819D01*
X176807857Y-86449819D02*
X177188809Y-86449819D01*
X177188809Y-86449819D02*
X177284047Y-86497438D01*
X177284047Y-86497438D02*
X177331666Y-86545057D01*
X177331666Y-86545057D02*
X177379285Y-86640295D01*
X177379285Y-86640295D02*
X177379285Y-86783152D01*
X177379285Y-86783152D02*
X177331666Y-86878390D01*
X177331666Y-86878390D02*
X177284047Y-86926009D01*
X177284047Y-86926009D02*
X177188809Y-86973628D01*
X177188809Y-86973628D02*
X176807857Y-86973628D01*
X177760238Y-86545057D02*
X177807857Y-86497438D01*
X177807857Y-86497438D02*
X177903095Y-86449819D01*
X177903095Y-86449819D02*
X178141190Y-86449819D01*
X178141190Y-86449819D02*
X178236428Y-86497438D01*
X178236428Y-86497438D02*
X178284047Y-86545057D01*
X178284047Y-86545057D02*
X178331666Y-86640295D01*
X178331666Y-86640295D02*
X178331666Y-86735533D01*
X178331666Y-86735533D02*
X178284047Y-86878390D01*
X178284047Y-86878390D02*
X177712619Y-87449819D01*
X177712619Y-87449819D02*
X178331666Y-87449819D01*
D12*
X127304809Y-105025585D02*
X127228619Y-104987490D01*
X127228619Y-104987490D02*
X127152428Y-104911300D01*
X127152428Y-104911300D02*
X127038142Y-104797014D01*
X127038142Y-104797014D02*
X126961952Y-104758919D01*
X126961952Y-104758919D02*
X126885761Y-104758919D01*
X126923857Y-104949395D02*
X126847666Y-104911300D01*
X126847666Y-104911300D02*
X126771476Y-104835109D01*
X126771476Y-104835109D02*
X126733380Y-104682728D01*
X126733380Y-104682728D02*
X126733380Y-104416061D01*
X126733380Y-104416061D02*
X126771476Y-104263680D01*
X126771476Y-104263680D02*
X126847666Y-104187490D01*
X126847666Y-104187490D02*
X126923857Y-104149395D01*
X126923857Y-104149395D02*
X127076238Y-104149395D01*
X127076238Y-104149395D02*
X127152428Y-104187490D01*
X127152428Y-104187490D02*
X127228619Y-104263680D01*
X127228619Y-104263680D02*
X127266714Y-104416061D01*
X127266714Y-104416061D02*
X127266714Y-104682728D01*
X127266714Y-104682728D02*
X127228619Y-104835109D01*
X127228619Y-104835109D02*
X127152428Y-104911300D01*
X127152428Y-104911300D02*
X127076238Y-104949395D01*
X127076238Y-104949395D02*
X126923857Y-104949395D01*
X128028618Y-104949395D02*
X127571475Y-104949395D01*
X127800047Y-104949395D02*
X127800047Y-104149395D01*
X127800047Y-104149395D02*
X127723856Y-104263680D01*
X127723856Y-104263680D02*
X127647666Y-104339871D01*
X127647666Y-104339871D02*
X127571475Y-104377966D01*
D14*
%TO.C,J2*%
X119447000Y-97663000D02*
X119447000Y-100263000D01*
X119447000Y-97663000D02*
X122107000Y-97663000D01*
X119447000Y-100263000D02*
X122107000Y-100263000D01*
X120777000Y-95063000D02*
X122107000Y-95063000D01*
X122107000Y-95063000D02*
X122107000Y-96393000D01*
X122107000Y-97663000D02*
X122107000Y-100263000D01*
%TO.C,C2*%
X169310267Y-97026000D02*
X169017733Y-97026000D01*
X169310267Y-98046000D02*
X169017733Y-98046000D01*
%TO.C,RV2*%
X112211000Y-97433000D02*
X112211000Y-104273000D01*
X112211000Y-97433000D02*
X114031000Y-97433000D01*
X112211000Y-104273000D02*
X114031000Y-104273000D01*
X115331000Y-97433000D02*
X117151000Y-97433000D01*
X115331000Y-104273000D02*
X117151000Y-104273000D01*
X117151000Y-97433000D02*
X117151000Y-104273000D01*
%TO.C,J1*%
X81213000Y-89917000D02*
X81213000Y-90677000D01*
X81213000Y-90677000D02*
X87213000Y-90677000D01*
X81213000Y-92457000D02*
X81213000Y-93217000D01*
X81213000Y-93217000D02*
X87213000Y-93217000D01*
X81213000Y-94997000D02*
X81213000Y-95757000D01*
X81213000Y-95757000D02*
X87213000Y-95757000D01*
X81213000Y-97537000D02*
X81213000Y-98297000D01*
X81213000Y-98297000D02*
X87213000Y-98297000D01*
X81213000Y-100077000D02*
X81213000Y-100837000D01*
X81213000Y-100837000D02*
X87213000Y-100837000D01*
X81213000Y-102617000D02*
X81213000Y-103377000D01*
X81213000Y-103377000D02*
X87213000Y-103377000D01*
X87213000Y-88967000D02*
X89873000Y-88967000D01*
X87213000Y-89917000D02*
X81213000Y-89917000D01*
X87213000Y-89977000D02*
X81213000Y-89977000D01*
X87213000Y-90097000D02*
X81213000Y-90097000D01*
X87213000Y-90217000D02*
X81213000Y-90217000D01*
X87213000Y-90337000D02*
X81213000Y-90337000D01*
X87213000Y-90457000D02*
X81213000Y-90457000D01*
X87213000Y-90577000D02*
X81213000Y-90577000D01*
X87213000Y-92457000D02*
X81213000Y-92457000D01*
X87213000Y-94997000D02*
X81213000Y-94997000D01*
X87213000Y-97537000D02*
X81213000Y-97537000D01*
X87213000Y-100077000D02*
X81213000Y-100077000D01*
X87213000Y-102617000D02*
X81213000Y-102617000D01*
X87213000Y-104327000D02*
X87213000Y-88967000D01*
X89873000Y-88967000D02*
X89873000Y-104327000D01*
X89873000Y-91567000D02*
X87213000Y-91567000D01*
X89873000Y-94107000D02*
X87213000Y-94107000D01*
X89873000Y-96647000D02*
X87213000Y-96647000D01*
X89873000Y-99187000D02*
X87213000Y-99187000D01*
X89873000Y-101727000D02*
X87213000Y-101727000D01*
X89873000Y-104327000D02*
X87213000Y-104327000D01*
X90270071Y-89917000D02*
X89873000Y-89917000D01*
X90270071Y-90677000D02*
X89873000Y-90677000D01*
X90270071Y-92457000D02*
X89873000Y-92457000D01*
X90270071Y-93217000D02*
X89873000Y-93217000D01*
X90270071Y-94997000D02*
X89873000Y-94997000D01*
X90270071Y-95757000D02*
X89873000Y-95757000D01*
X90270071Y-97537000D02*
X89873000Y-97537000D01*
X90270071Y-98297000D02*
X89873000Y-98297000D01*
X90270071Y-100077000D02*
X89873000Y-100077000D01*
X90270071Y-100837000D02*
X89873000Y-100837000D01*
X90270071Y-102617000D02*
X89873000Y-102617000D01*
X90270071Y-103377000D02*
X89873000Y-103377000D01*
X92743000Y-89917000D02*
X92355929Y-89917000D01*
X92743000Y-90677000D02*
X92355929Y-90677000D01*
X92810071Y-92457000D02*
X92355929Y-92457000D01*
X92810071Y-93217000D02*
X92355929Y-93217000D01*
X92810071Y-94997000D02*
X92355929Y-94997000D01*
X92810071Y-95757000D02*
X92355929Y-95757000D01*
X92810071Y-97537000D02*
X92355929Y-97537000D01*
X92810071Y-98297000D02*
X92355929Y-98297000D01*
X92810071Y-100077000D02*
X92355929Y-100077000D01*
X92810071Y-100837000D02*
X92355929Y-100837000D01*
X92810071Y-102617000D02*
X92355929Y-102617000D01*
X92810071Y-103377000D02*
X92355929Y-103377000D01*
X95123000Y-89027000D02*
X93853000Y-89027000D01*
X95123000Y-90297000D02*
X95123000Y-89027000D01*
%TO.C,Q2*%
X175334000Y-93854000D02*
X177734000Y-93854000D01*
X175934000Y-97154000D02*
X177734000Y-97154000D01*
X177734000Y-93854000D02*
X177734000Y-94904000D01*
X177734000Y-97154000D02*
X177734000Y-96104000D01*
%TO.C,C3*%
X107948000Y-100691733D02*
X107948000Y-100984267D01*
X108968000Y-100691733D02*
X108968000Y-100984267D01*
%TO.C,C1*%
X127789000Y-97145748D02*
X127789000Y-97668252D01*
X129259000Y-97145748D02*
X129259000Y-97668252D01*
%TO.C,R1*%
X125207500Y-97513224D02*
X125207500Y-97003776D01*
X126252500Y-97513224D02*
X126252500Y-97003776D01*
%TO.C,J3*%
X113224000Y-91567000D02*
X113224000Y-86427000D01*
X113224000Y-94167000D02*
X113224000Y-92837000D01*
X114554000Y-94167000D02*
X113224000Y-94167000D01*
X115884000Y-86427000D02*
X113224000Y-86427000D01*
X115884000Y-91567000D02*
X113224000Y-91567000D01*
X115884000Y-91567000D02*
X115884000Y-86427000D01*
D15*
%TO.C,DS1*%
X100896000Y-75463600D02*
X185896000Y-75463600D01*
X100896000Y-77283600D02*
X100896000Y-75463600D01*
X100896000Y-80683600D02*
X100896000Y-100283600D01*
X100896000Y-105463600D02*
X100896000Y-103683600D01*
D12*
X105436000Y-105983600D02*
X105436000Y-105983600D01*
X105436000Y-106083600D02*
X105436000Y-106083600D01*
D15*
X185896000Y-75463600D02*
X185896000Y-77283600D01*
X185896000Y-79683600D02*
X185896000Y-101283600D01*
X185896000Y-103683600D02*
X185896000Y-105463600D01*
X185896000Y-105463600D02*
X100896000Y-105463600D01*
D12*
X105436000Y-105983600D02*
G75*
G02*
X105436000Y-106083600I0J-50000D01*
G01*
X105436000Y-106083600D02*
G75*
G02*
X105436000Y-105983600I0J50000D01*
G01*
D16*
%TO.C,G\u002A\u002A\u002A*%
G36*
X93438315Y-85561048D02*
G01*
X93577466Y-85563841D01*
X94244163Y-85596124D01*
X94719720Y-85638295D01*
X94796008Y-85650522D01*
X94849716Y-85667736D01*
X94877033Y-85687919D01*
X94874149Y-85709050D01*
X94865999Y-85715833D01*
X94833636Y-85724557D01*
X94772312Y-85729599D01*
X94688164Y-85731049D01*
X94587330Y-85728999D01*
X94475950Y-85723542D01*
X94360160Y-85714769D01*
X94283512Y-85707120D01*
X94205744Y-85699689D01*
X94100969Y-85691361D01*
X93977453Y-85682703D01*
X93843460Y-85674279D01*
X93707255Y-85666654D01*
X93648070Y-85663664D01*
X93477540Y-85655022D01*
X93339402Y-85647158D01*
X93230762Y-85639785D01*
X93148727Y-85632615D01*
X93090404Y-85625359D01*
X93052897Y-85617730D01*
X93033315Y-85609438D01*
X93028602Y-85601964D01*
X93037478Y-85586855D01*
X93066728Y-85575298D01*
X93118894Y-85567115D01*
X93196519Y-85562130D01*
X93302145Y-85560167D01*
X93438315Y-85561048D01*
G37*
G36*
X93221760Y-81270165D02*
G01*
X93249656Y-81277459D01*
X93259187Y-81293455D01*
X93259745Y-81302401D01*
X93252185Y-81324566D01*
X93224540Y-81340577D01*
X93169363Y-81354672D01*
X93167076Y-81355136D01*
X93082967Y-81369092D01*
X92969131Y-81383461D01*
X92831134Y-81397755D01*
X92674539Y-81411486D01*
X92504912Y-81424166D01*
X92327816Y-81435309D01*
X92148817Y-81444425D01*
X92147723Y-81444474D01*
X92013201Y-81450404D01*
X91908294Y-81454749D01*
X91827351Y-81457527D01*
X91764721Y-81458758D01*
X91714753Y-81458463D01*
X91671795Y-81456660D01*
X91630198Y-81453368D01*
X91584309Y-81448609D01*
X91565235Y-81446493D01*
X91486679Y-81434015D01*
X91440554Y-81417233D01*
X91424139Y-81395114D01*
X91424026Y-81392780D01*
X91428015Y-81383884D01*
X91442095Y-81376321D01*
X91469438Y-81369831D01*
X91513212Y-81364156D01*
X91576588Y-81359038D01*
X91662736Y-81354216D01*
X91774826Y-81349433D01*
X91916029Y-81344430D01*
X92080061Y-81339236D01*
X92230628Y-81333987D01*
X92380441Y-81327571D01*
X92523021Y-81320354D01*
X92651884Y-81312700D01*
X92760550Y-81304973D01*
X92842538Y-81297539D01*
X92862594Y-81295217D01*
X92955838Y-81284494D01*
X93046150Y-81275814D01*
X93122261Y-81270167D01*
X93167076Y-81268491D01*
X93221760Y-81270165D01*
G37*
G36*
X93941400Y-83740755D02*
G01*
X94000472Y-83757240D01*
X94014843Y-83763854D01*
X94047423Y-83776259D01*
X94109002Y-83795535D01*
X94194280Y-83820187D01*
X94297960Y-83848718D01*
X94414744Y-83879631D01*
X94520764Y-83906765D01*
X94683419Y-83948349D01*
X94814835Y-83983673D01*
X94918234Y-84014138D01*
X94996840Y-84041140D01*
X95053875Y-84066078D01*
X95092562Y-84090352D01*
X95116123Y-84115358D01*
X95127781Y-84142496D01*
X95130767Y-84171463D01*
X95121508Y-84191055D01*
X95092278Y-84213112D01*
X95040897Y-84238437D01*
X94965183Y-84267833D01*
X94862955Y-84302102D01*
X94732033Y-84342046D01*
X94570235Y-84388467D01*
X94451197Y-84421474D01*
X94324357Y-84457134D01*
X94190109Y-84496337D01*
X94059186Y-84535852D01*
X93942318Y-84572446D01*
X93860273Y-84599446D01*
X93754743Y-84637176D01*
X93653033Y-84676732D01*
X93560398Y-84715738D01*
X93482096Y-84751815D01*
X93423383Y-84782589D01*
X93389517Y-84805680D01*
X93383303Y-84815103D01*
X93395532Y-84833941D01*
X93433276Y-84851073D01*
X93498117Y-84866734D01*
X93591639Y-84881160D01*
X93715425Y-84894586D01*
X93871058Y-84907248D01*
X94060122Y-84919383D01*
X94098174Y-84921548D01*
X94290820Y-84933258D01*
X94450511Y-84945159D01*
X94579598Y-84957641D01*
X94680427Y-84971094D01*
X94755347Y-84985908D01*
X94806707Y-85002472D01*
X94836854Y-85021178D01*
X94848137Y-85042414D01*
X94848348Y-85046102D01*
X94831018Y-85054160D01*
X94780014Y-85059021D01*
X94696818Y-85060707D01*
X94582914Y-85059238D01*
X94439782Y-85054635D01*
X94268905Y-85046921D01*
X94071764Y-85036117D01*
X94045221Y-85034542D01*
X93863568Y-85022210D01*
X93713532Y-85008571D01*
X93591432Y-84993022D01*
X93493589Y-84974960D01*
X93416325Y-84953784D01*
X93355959Y-84928889D01*
X93337070Y-84918556D01*
X93277248Y-84874179D01*
X93252225Y-84831762D01*
X93261609Y-84790462D01*
X93271555Y-84777630D01*
X93324390Y-84733637D01*
X93406993Y-84683475D01*
X93514783Y-84629131D01*
X93643180Y-84572588D01*
X93787603Y-84515830D01*
X93943472Y-84460843D01*
X94106206Y-84409611D01*
X94151128Y-84396565D01*
X94199876Y-84382739D01*
X94275561Y-84361358D01*
X94371133Y-84334405D01*
X94479542Y-84303866D01*
X94593736Y-84271724D01*
X94706664Y-84239965D01*
X94811276Y-84210574D01*
X94900521Y-84185534D01*
X94960445Y-84168759D01*
X94980926Y-84155045D01*
X94977351Y-84143872D01*
X94956985Y-84135934D01*
X94906489Y-84120705D01*
X94830018Y-84099308D01*
X94731728Y-84072867D01*
X94615773Y-84042508D01*
X94486308Y-84009353D01*
X94398457Y-83987231D01*
X94226962Y-83943827D01*
X94087313Y-83907164D01*
X93976910Y-83876256D01*
X93893152Y-83850115D01*
X93833441Y-83827755D01*
X93795175Y-83808189D01*
X93775755Y-83790431D01*
X93772580Y-83773494D01*
X93783051Y-83756391D01*
X93784965Y-83754416D01*
X93820863Y-83738818D01*
X93877269Y-83734439D01*
X93941400Y-83740755D01*
G37*
G36*
X94774996Y-78400402D02*
G01*
X94782790Y-78427159D01*
X94785559Y-78480941D01*
X94783818Y-78553908D01*
X94778080Y-78638221D01*
X94768862Y-78726040D01*
X94756677Y-78809525D01*
X94743978Y-78872890D01*
X94727150Y-78950423D01*
X94714356Y-79022060D01*
X94707660Y-79075757D01*
X94707139Y-79088008D01*
X94708733Y-79115679D01*
X94716182Y-79140546D01*
X94733485Y-79167216D01*
X94764642Y-79200294D01*
X94813654Y-79244388D01*
X94884520Y-79304102D01*
X94921091Y-79334393D01*
X94993613Y-79399076D01*
X95036037Y-79449140D01*
X95049406Y-79486593D01*
X95034763Y-79513445D01*
X95018945Y-79522772D01*
X94992116Y-79543313D01*
X94957674Y-79580108D01*
X94922314Y-79624339D01*
X94892733Y-79667183D01*
X94875627Y-79699821D01*
X94875046Y-79712328D01*
X94890697Y-79706137D01*
X94918323Y-79680023D01*
X94923837Y-79673772D01*
X94959213Y-79641872D01*
X94991458Y-79626945D01*
X94993980Y-79626793D01*
X95028547Y-79634282D01*
X95085911Y-79654237D01*
X95157519Y-79682891D01*
X95234819Y-79716477D01*
X95309259Y-79751228D01*
X95372288Y-79783377D01*
X95415352Y-79809156D01*
X95424752Y-79816543D01*
X95456947Y-79843654D01*
X95477125Y-79856161D01*
X95477928Y-79856258D01*
X95494745Y-79844212D01*
X95529128Y-79812286D01*
X95574979Y-79766801D01*
X95626204Y-79714078D01*
X95676706Y-79660437D01*
X95720391Y-79612198D01*
X95751163Y-79575681D01*
X95759404Y-79564406D01*
X95776075Y-79528515D01*
X95776360Y-79505382D01*
X95751769Y-79490697D01*
X95699297Y-79474259D01*
X95626218Y-79457557D01*
X95539805Y-79442079D01*
X95447331Y-79429316D01*
X95366730Y-79421513D01*
X95290656Y-79414456D01*
X95223741Y-79405752D01*
X95177059Y-79396928D01*
X95167425Y-79394047D01*
X95138139Y-79380406D01*
X95139231Y-79365046D01*
X95154943Y-79348062D01*
X95175425Y-79333892D01*
X95207214Y-79325036D01*
X95257499Y-79320520D01*
X95333466Y-79319371D01*
X95365401Y-79319566D01*
X95498020Y-79327371D01*
X95621945Y-79347091D01*
X95731351Y-79376929D01*
X95820409Y-79415090D01*
X95883293Y-79459779D01*
X95904071Y-79485586D01*
X95917467Y-79518257D01*
X95909357Y-79550130D01*
X95897115Y-79570897D01*
X95864672Y-79615524D01*
X95835763Y-79648153D01*
X95799953Y-79686338D01*
X95780538Y-79709932D01*
X95757065Y-79735742D01*
X95713168Y-79779636D01*
X95654669Y-79836090D01*
X95587391Y-79899579D01*
X95517154Y-79964578D01*
X95449782Y-80025562D01*
X95421725Y-80050421D01*
X95366871Y-80095913D01*
X95308457Y-80140101D01*
X95254502Y-80177390D01*
X95213026Y-80202190D01*
X95193962Y-80209281D01*
X95172822Y-80218845D01*
X95133219Y-80243538D01*
X95097829Y-80268005D01*
X95031650Y-80309991D01*
X94955385Y-80350692D01*
X94918953Y-80367277D01*
X94855076Y-80396647D01*
X94796156Y-80428154D01*
X94768918Y-80445350D01*
X94729392Y-80467079D01*
X94680910Y-80478717D01*
X94611747Y-80482757D01*
X94592407Y-80482874D01*
X94471348Y-80476852D01*
X94372308Y-80459612D01*
X94298172Y-80432390D01*
X94251826Y-80396424D01*
X94236158Y-80352949D01*
X94239734Y-80331735D01*
X94254031Y-80307877D01*
X94280656Y-80299825D01*
X94325355Y-80307893D01*
X94393875Y-80332394D01*
X94415895Y-80341328D01*
X94479750Y-80364553D01*
X94537962Y-80380540D01*
X94571483Y-80385374D01*
X94605444Y-80380268D01*
X94653397Y-80366959D01*
X94705576Y-80349056D01*
X94752215Y-80330169D01*
X94783548Y-80313908D01*
X94790505Y-80304414D01*
X94771547Y-80300154D01*
X94725241Y-80293458D01*
X94659365Y-80285379D01*
X94609043Y-80279812D01*
X94503618Y-80268072D01*
X94428607Y-80258129D01*
X94403210Y-80253409D01*
X94918953Y-80253409D01*
X94927778Y-80262235D01*
X94936604Y-80253409D01*
X94927778Y-80244584D01*
X94918953Y-80253409D01*
X94403210Y-80253409D01*
X94379233Y-80248953D01*
X94350721Y-80239516D01*
X94338296Y-80228789D01*
X94336577Y-80221117D01*
X94350610Y-80199220D01*
X94384733Y-80173202D01*
X94389530Y-80170387D01*
X94425384Y-80142461D01*
X94442195Y-80114549D01*
X94442372Y-80112144D01*
X94438873Y-80096292D01*
X94425038Y-80095794D01*
X94395861Y-80112952D01*
X94346335Y-80150070D01*
X94327126Y-80165153D01*
X94271298Y-80211891D01*
X94215099Y-80263327D01*
X94164912Y-80313060D01*
X94127117Y-80354686D01*
X94108094Y-80381805D01*
X94107000Y-80386020D01*
X94117731Y-80405526D01*
X94146001Y-80444247D01*
X94185926Y-80494984D01*
X94231621Y-80550539D01*
X94277202Y-80603715D01*
X94316784Y-80647314D01*
X94337697Y-80668211D01*
X94364346Y-80697043D01*
X94401595Y-80742306D01*
X94426182Y-80774118D01*
X94462725Y-80821306D01*
X94492894Y-80857866D01*
X94505311Y-80871199D01*
X94528239Y-80899785D01*
X94562841Y-80951986D01*
X94604562Y-81020071D01*
X94648845Y-81096306D01*
X94691136Y-81172956D01*
X94726877Y-81242288D01*
X94739362Y-81268499D01*
X94775798Y-81350144D01*
X94803574Y-81420640D01*
X94823920Y-81487023D01*
X94838067Y-81556328D01*
X94847245Y-81635589D01*
X94852687Y-81731843D01*
X94855621Y-81852123D01*
X94856695Y-81939094D01*
X94860315Y-82300942D01*
X94838225Y-81718454D01*
X94830697Y-82433326D01*
X94775855Y-82433326D01*
X94738213Y-82429158D01*
X94729123Y-82414250D01*
X94731258Y-82406629D01*
X94741218Y-82364267D01*
X94750662Y-82295167D01*
X94759020Y-82207895D01*
X94765727Y-82111013D01*
X94770214Y-82013087D01*
X94771914Y-81922681D01*
X94770261Y-81848359D01*
X94769248Y-81833187D01*
X94751186Y-81673547D01*
X94722030Y-81533415D01*
X94677772Y-81398178D01*
X94614403Y-81253221D01*
X94604624Y-81233048D01*
X94557188Y-81138018D01*
X94514600Y-81058777D01*
X94472320Y-80989101D01*
X94425812Y-80922762D01*
X94370537Y-80853536D01*
X94301956Y-80775198D01*
X94215532Y-80681521D01*
X94158140Y-80620562D01*
X94096424Y-80556419D01*
X94051871Y-80515491D01*
X94017851Y-80494916D01*
X93987733Y-80491829D01*
X93954887Y-80503368D01*
X93924714Y-80519761D01*
X93854324Y-80553119D01*
X93804486Y-80561571D01*
X93776870Y-80545101D01*
X93771628Y-80520912D01*
X93787177Y-80472314D01*
X93825516Y-80434565D01*
X93870099Y-80420360D01*
X93881910Y-80411617D01*
X93868192Y-80389248D01*
X93833952Y-80357340D01*
X93784201Y-80319980D01*
X93723945Y-80281255D01*
X93658193Y-80245252D01*
X93651419Y-80241915D01*
X93591347Y-80213628D01*
X93554511Y-80200175D01*
X93532888Y-80199990D01*
X93518454Y-80211503D01*
X93515518Y-80215353D01*
X93489639Y-80238253D01*
X93464815Y-80244322D01*
X93453908Y-80230678D01*
X93443443Y-80209692D01*
X93417212Y-80173758D01*
X93405367Y-80159316D01*
X93374078Y-80128467D01*
X93334213Y-80103936D01*
X93291558Y-80087150D01*
X93648070Y-80087150D01*
X93663957Y-80108854D01*
X93711265Y-80145204D01*
X93789468Y-80195829D01*
X93871490Y-80244937D01*
X93934671Y-80280108D01*
X93975916Y-80297733D01*
X94002432Y-80300188D01*
X94017567Y-80293069D01*
X94045572Y-80271051D01*
X94090293Y-80235210D01*
X94132659Y-80200924D01*
X94187399Y-80155560D01*
X94237901Y-80112264D01*
X94265043Y-80087931D01*
X94294820Y-80061377D01*
X94345290Y-80017644D01*
X94395597Y-79974601D01*
X94560395Y-79974601D01*
X94638180Y-79983396D01*
X94713169Y-80000380D01*
X94798138Y-80032375D01*
X94879380Y-80073146D01*
X94943188Y-80116455D01*
X94955779Y-80127904D01*
X94992445Y-80157491D01*
X95023418Y-80171635D01*
X95024860Y-80171771D01*
X95052014Y-80163795D01*
X95099344Y-80141337D01*
X95157322Y-80108988D01*
X95166069Y-80103736D01*
X95233010Y-80063672D01*
X95298067Y-80025586D01*
X95346993Y-79997816D01*
X95387674Y-79972304D01*
X95411012Y-79951549D01*
X95413185Y-79946583D01*
X95396891Y-79938666D01*
X95353323Y-79930108D01*
X95290450Y-79922308D01*
X95258737Y-79919478D01*
X95137185Y-79906847D01*
X95024675Y-79889526D01*
X94928176Y-79868944D01*
X94854659Y-79846533D01*
X94818214Y-79829008D01*
X94790972Y-79814873D01*
X94764660Y-79813666D01*
X94732612Y-79828354D01*
X94688161Y-79861903D01*
X94629354Y-79913075D01*
X94560395Y-79974601D01*
X94395597Y-79974601D01*
X94410077Y-79962212D01*
X94482800Y-79900558D01*
X94504151Y-79882561D01*
X94618441Y-79783925D01*
X94710155Y-79698773D01*
X94785817Y-79620603D01*
X94851953Y-79542913D01*
X94876352Y-79511628D01*
X94919359Y-79455242D01*
X94852964Y-79411126D01*
X94785825Y-79361291D01*
X94719306Y-79303044D01*
X94660303Y-79243406D01*
X94615714Y-79189398D01*
X94592434Y-79148040D01*
X94591585Y-79145039D01*
X94590397Y-79101852D01*
X94599880Y-79027840D01*
X94619629Y-78925701D01*
X94634430Y-78859755D01*
X94654561Y-78772136D01*
X94671391Y-78696338D01*
X94683433Y-78639253D01*
X94689200Y-78607774D01*
X94689488Y-78604573D01*
X94678288Y-78586049D01*
X94644780Y-78594710D01*
X94589099Y-78630491D01*
X94522806Y-78683562D01*
X94456274Y-78743751D01*
X94418565Y-78787662D01*
X94408378Y-78817426D01*
X94424413Y-78835172D01*
X94429133Y-78836974D01*
X94439108Y-78850874D01*
X94445201Y-78887242D01*
X94447758Y-78950228D01*
X94447125Y-79043981D01*
X94446980Y-79051325D01*
X94445580Y-79138920D01*
X94446067Y-79196180D01*
X94449082Y-79228049D01*
X94455269Y-79239471D01*
X94465271Y-79235393D01*
X94470305Y-79230708D01*
X94508524Y-79207319D01*
X94545284Y-79206690D01*
X94568452Y-79228414D01*
X94570113Y-79234055D01*
X94570872Y-79270359D01*
X94554207Y-79306864D01*
X94516432Y-79347753D01*
X94453860Y-79397210D01*
X94383665Y-79445625D01*
X94100169Y-79651789D01*
X93906729Y-79817095D01*
X93836582Y-79883077D01*
X93771153Y-79947380D01*
X93715207Y-80005034D01*
X93673506Y-80051064D01*
X93650814Y-80080498D01*
X93648070Y-80087150D01*
X93291558Y-80087150D01*
X93276924Y-80081391D01*
X93197966Y-80057775D01*
X92976089Y-80009813D01*
X92758438Y-79991328D01*
X92540616Y-80002741D01*
X92318226Y-80044470D01*
X92086873Y-80116933D01*
X91935909Y-80177956D01*
X91862907Y-80210605D01*
X91800344Y-80240076D01*
X91756494Y-80262392D01*
X91741746Y-80271326D01*
X91712047Y-80290990D01*
X91663897Y-80319984D01*
X91627014Y-80341137D01*
X91486127Y-80429390D01*
X91342070Y-80536044D01*
X91201939Y-80654687D01*
X91072829Y-80778909D01*
X90961836Y-80902299D01*
X90876054Y-81018446D01*
X90874274Y-81021234D01*
X90827578Y-81105615D01*
X90781295Y-81207779D01*
X90741328Y-81313202D01*
X90713578Y-81407362D01*
X90709286Y-81427210D01*
X90691728Y-81550430D01*
X90681567Y-81694560D01*
X90679155Y-81845920D01*
X90684847Y-81990828D01*
X90692607Y-82071477D01*
X90715618Y-82229949D01*
X90744009Y-82367573D01*
X90781261Y-82495596D01*
X90830854Y-82625268D01*
X90896266Y-82767838D01*
X90927376Y-82830476D01*
X90991106Y-82951754D01*
X91044509Y-83042100D01*
X91089178Y-83103816D01*
X91126703Y-83139200D01*
X91148039Y-83149174D01*
X91186348Y-83176270D01*
X91211465Y-83223382D01*
X91251626Y-83307939D01*
X91310771Y-83387049D01*
X91393131Y-83465016D01*
X91502936Y-83546140D01*
X91574061Y-83592108D01*
X91715508Y-83665841D01*
X91886736Y-83728989D01*
X92089775Y-83782284D01*
X92121246Y-83789084D01*
X92197762Y-83804468D01*
X92265955Y-83815920D01*
X92333372Y-83824020D01*
X92407560Y-83829344D01*
X92496065Y-83832473D01*
X92606434Y-83833985D01*
X92712559Y-83834413D01*
X92838887Y-83834450D01*
X92936069Y-83833693D01*
X93010261Y-83831592D01*
X93067618Y-83827599D01*
X93114297Y-83821162D01*
X93156452Y-83811733D01*
X93200240Y-83798762D01*
X93233268Y-83787912D01*
X93351761Y-83741001D01*
X93466026Y-83679058D01*
X93572795Y-83607127D01*
X93599622Y-83601644D01*
X93620160Y-83620365D01*
X93643087Y-83643414D01*
X93670683Y-83648755D01*
X93712028Y-83635939D01*
X93758686Y-83613550D01*
X93844029Y-83562605D01*
X93944647Y-83490672D01*
X94053242Y-83403909D01*
X94162514Y-83308468D01*
X94265164Y-83210506D01*
X94353895Y-83116176D01*
X94368314Y-83099483D01*
X94426397Y-83026041D01*
X94487810Y-82940413D01*
X94538021Y-82863110D01*
X94614100Y-82736882D01*
X94572364Y-82717866D01*
X94536769Y-82691626D01*
X94534589Y-82664717D01*
X94564504Y-82642762D01*
X94591778Y-82635267D01*
X94643474Y-82620347D01*
X94674965Y-82593355D01*
X94695896Y-82544359D01*
X94702152Y-82521581D01*
X94718152Y-82478666D01*
X94744256Y-82459547D01*
X94774348Y-82454271D01*
X94811032Y-82454038D01*
X94827857Y-82467124D01*
X94827374Y-82500226D01*
X94813217Y-82556288D01*
X94804671Y-82610562D01*
X94813217Y-82634719D01*
X94825367Y-82663338D01*
X94830687Y-82708484D01*
X94830697Y-82710449D01*
X94826171Y-82751575D01*
X94808887Y-82767382D01*
X94795673Y-82768697D01*
X94750208Y-82784566D01*
X94698349Y-82828768D01*
X94645011Y-82896194D01*
X94600238Y-82971686D01*
X94545322Y-83077593D01*
X94679869Y-83086418D01*
X94762103Y-83094885D01*
X94812165Y-83107717D01*
X94831111Y-83121720D01*
X94844584Y-83138259D01*
X94848073Y-83123673D01*
X94848078Y-83123287D01*
X94865145Y-83115486D01*
X94913583Y-83109895D01*
X94989538Y-83106385D01*
X95089156Y-83104829D01*
X95208583Y-83105097D01*
X95343965Y-83107063D01*
X95491449Y-83110597D01*
X95647179Y-83115573D01*
X95807303Y-83121862D01*
X95967965Y-83129336D01*
X96125314Y-83137868D01*
X96275493Y-83147328D01*
X96414650Y-83157589D01*
X96538931Y-83168523D01*
X96644481Y-83180002D01*
X96675242Y-83183983D01*
X96845947Y-83210010D01*
X96986994Y-83238528D01*
X97104023Y-83271687D01*
X97202678Y-83311635D01*
X97288599Y-83360521D01*
X97367428Y-83420493D01*
X97417982Y-83466872D01*
X97501925Y-83563103D01*
X97551793Y-83654743D01*
X97567508Y-83741052D01*
X97548993Y-83821286D01*
X97496168Y-83894703D01*
X97465669Y-83921791D01*
X97426279Y-83954990D01*
X97399669Y-83979592D01*
X97364431Y-84003628D01*
X97304079Y-84033825D01*
X97227418Y-84066559D01*
X97143252Y-84098202D01*
X97060385Y-84125130D01*
X97018115Y-84136726D01*
X96954873Y-84151175D01*
X96868427Y-84168982D01*
X96770418Y-84187831D01*
X96677587Y-84204523D01*
X96451276Y-84243631D01*
X96655928Y-84329744D01*
X96733397Y-84363241D01*
X96797418Y-84392635D01*
X96841806Y-84414962D01*
X96860378Y-84427255D01*
X96860579Y-84427874D01*
X96874734Y-84443236D01*
X96903331Y-84459369D01*
X96949924Y-84485192D01*
X96978348Y-84505239D01*
X97008061Y-84529337D01*
X97055223Y-84567373D01*
X97109739Y-84611205D01*
X97110890Y-84612129D01*
X97167834Y-84661411D01*
X97218815Y-84711666D01*
X97251249Y-84750017D01*
X97279526Y-84788821D01*
X97299721Y-84813561D01*
X97302529Y-84816230D01*
X97318169Y-84842003D01*
X97334988Y-84888343D01*
X97348639Y-84940954D01*
X97354775Y-84985537D01*
X97354811Y-84988238D01*
X97337879Y-85051454D01*
X97289958Y-85111263D01*
X97215359Y-85163941D01*
X97118393Y-85205764D01*
X97094457Y-85213147D01*
X97063585Y-85229067D01*
X97054742Y-85243442D01*
X97066540Y-85262809D01*
X97098561Y-85301055D01*
X97145744Y-85352425D01*
X97196112Y-85404240D01*
X97276558Y-85491076D01*
X97330887Y-85566561D01*
X97362693Y-85638410D01*
X97375569Y-85714339D01*
X97374375Y-85787044D01*
X97356042Y-85832117D01*
X97311371Y-85884745D01*
X97246911Y-85939657D01*
X97169214Y-85991580D01*
X97084830Y-86035244D01*
X97046814Y-86050649D01*
X96891698Y-86101851D01*
X96725462Y-86144826D01*
X96542149Y-86180735D01*
X96335805Y-86210740D01*
X96100475Y-86236003D01*
X96092754Y-86236714D01*
X95933091Y-86250630D01*
X95776791Y-86262655D01*
X95620063Y-86272905D01*
X95459117Y-86281492D01*
X95290161Y-86288531D01*
X95109405Y-86294135D01*
X94913057Y-86298419D01*
X94697327Y-86301495D01*
X94458423Y-86303479D01*
X94192555Y-86304483D01*
X93895931Y-86304621D01*
X93833407Y-86304556D01*
X93555195Y-86303937D01*
X93310124Y-86302769D01*
X93096036Y-86300969D01*
X92910771Y-86298456D01*
X92752172Y-86295147D01*
X92618080Y-86290962D01*
X92506337Y-86285817D01*
X92414785Y-86279632D01*
X92341265Y-86272324D01*
X92283618Y-86263812D01*
X92239687Y-86254013D01*
X92207378Y-86242874D01*
X92124132Y-86201036D01*
X92030400Y-86144678D01*
X91932630Y-86078679D01*
X91837266Y-86007918D01*
X91750753Y-85937277D01*
X91679538Y-85871633D01*
X91630066Y-85815867D01*
X91616932Y-85795869D01*
X91587862Y-85746612D01*
X91561953Y-85707532D01*
X91555176Y-85698788D01*
X91529995Y-85660743D01*
X91497159Y-85599883D01*
X91461563Y-85526392D01*
X91428099Y-85450453D01*
X91401661Y-85382247D01*
X91398247Y-85372242D01*
X91377298Y-85285264D01*
X91363247Y-85178438D01*
X91356820Y-85065022D01*
X91358743Y-84958273D01*
X91369741Y-84871447D01*
X91370615Y-84867551D01*
X91388199Y-84806689D01*
X91414873Y-84731940D01*
X91446819Y-84652257D01*
X91480218Y-84576590D01*
X91511249Y-84513893D01*
X91536095Y-84473118D01*
X91541662Y-84466607D01*
X91564727Y-84439124D01*
X91598325Y-84394189D01*
X91621355Y-84361524D01*
X91671980Y-84294389D01*
X91731145Y-84225943D01*
X91793689Y-84161007D01*
X91854449Y-84104400D01*
X91908264Y-84060944D01*
X91949971Y-84035458D01*
X91973846Y-84032383D01*
X91988924Y-84059456D01*
X91973699Y-84103527D01*
X91928053Y-84164847D01*
X91896194Y-84199557D01*
X91746658Y-84367302D01*
X91629545Y-84526759D01*
X91543774Y-84680767D01*
X91488265Y-84832162D01*
X91461937Y-84983784D01*
X91463710Y-85138470D01*
X91486662Y-85275160D01*
X91503107Y-85331168D01*
X91528196Y-85400009D01*
X91558609Y-85474348D01*
X91591028Y-85546850D01*
X91622134Y-85610178D01*
X91648610Y-85656998D01*
X91667136Y-85679973D01*
X91670321Y-85681137D01*
X91684969Y-85695691D01*
X91706046Y-85732200D01*
X91714069Y-85749078D01*
X91749214Y-85799985D01*
X91810780Y-85861041D01*
X91892999Y-85927892D01*
X91990107Y-85996185D01*
X92096338Y-86061566D01*
X92203152Y-86118335D01*
X92240314Y-86133933D01*
X92285043Y-86147389D01*
X92340205Y-86158908D01*
X92408667Y-86168693D01*
X92493295Y-86176948D01*
X92596957Y-86183875D01*
X92722519Y-86189680D01*
X92872849Y-86194565D01*
X93050812Y-86198735D01*
X93259277Y-86202392D01*
X93418605Y-86204673D01*
X93690013Y-86207053D01*
X93969210Y-86207172D01*
X94252040Y-86205154D01*
X94534351Y-86201124D01*
X94811987Y-86195206D01*
X95080795Y-86187525D01*
X95336620Y-86178206D01*
X95575308Y-86167373D01*
X95792704Y-86155150D01*
X95984654Y-86141662D01*
X96147005Y-86127033D01*
X96198661Y-86121365D01*
X96337222Y-86102416D01*
X96484709Y-86077317D01*
X96633679Y-86047744D01*
X96776690Y-86015372D01*
X96906300Y-85981877D01*
X97015067Y-85948934D01*
X97090044Y-85920678D01*
X97177003Y-85868114D01*
X97231627Y-85802312D01*
X97253230Y-85725483D01*
X97241128Y-85639839D01*
X97202101Y-85559015D01*
X97154981Y-85500985D01*
X97086116Y-85436267D01*
X97005686Y-85373239D01*
X96923872Y-85320283D01*
X96890702Y-85302648D01*
X96846050Y-85283043D01*
X96799336Y-85268542D01*
X96742517Y-85257655D01*
X96667551Y-85248892D01*
X96566398Y-85240762D01*
X96550730Y-85239662D01*
X96385682Y-85227025D01*
X96231752Y-85212962D01*
X96092932Y-85197988D01*
X95973216Y-85182617D01*
X95876596Y-85167365D01*
X95807065Y-85152746D01*
X95768616Y-85139275D01*
X95767642Y-85138679D01*
X95724948Y-85111583D01*
X95776467Y-85083052D01*
X95821329Y-85069400D01*
X95894721Y-85059864D01*
X95990122Y-85054349D01*
X96101012Y-85052760D01*
X96220869Y-85055005D01*
X96343175Y-85060989D01*
X96461407Y-85070618D01*
X96569045Y-85083798D01*
X96636423Y-85095454D01*
X96775422Y-85119885D01*
X96888865Y-85130894D01*
X96983864Y-85128435D01*
X97067532Y-85112463D01*
X97125297Y-85092345D01*
X97198339Y-85052163D01*
X97238388Y-85004511D01*
X97245491Y-84948087D01*
X97219693Y-84881590D01*
X97161043Y-84803718D01*
X97136598Y-84777479D01*
X97029848Y-84676764D01*
X96916666Y-84590866D01*
X96788089Y-84513883D01*
X96635156Y-84439915D01*
X96601650Y-84425305D01*
X96428126Y-84350743D01*
X96075103Y-84337839D01*
X95967487Y-84333843D01*
X95872659Y-84330203D01*
X95795984Y-84327135D01*
X95742832Y-84324855D01*
X95718569Y-84323578D01*
X95717667Y-84323466D01*
X95713637Y-84307668D01*
X95713254Y-84297663D01*
X95716428Y-84282938D01*
X95728134Y-84269719D01*
X95751645Y-84257257D01*
X95790239Y-84244799D01*
X95847189Y-84231595D01*
X95925771Y-84216894D01*
X96029260Y-84199945D01*
X96160932Y-84179997D01*
X96324061Y-84156298D01*
X96339204Y-84154126D01*
X96550249Y-84122126D01*
X96730283Y-84090742D01*
X96883555Y-84058905D01*
X97014315Y-84025541D01*
X97126814Y-83989581D01*
X97225302Y-83949953D01*
X97304473Y-83910807D01*
X97387373Y-83853049D01*
X97435675Y-83788613D01*
X97449289Y-83718255D01*
X97428128Y-83642729D01*
X97372103Y-83562792D01*
X97348030Y-83537616D01*
X97294191Y-83490493D01*
X97232055Y-83448297D01*
X97159466Y-83410695D01*
X97074263Y-83377354D01*
X96974290Y-83347941D01*
X96857388Y-83322123D01*
X96721398Y-83299568D01*
X96564162Y-83279942D01*
X96383523Y-83262913D01*
X96177320Y-83248147D01*
X95943398Y-83235311D01*
X95679596Y-83224074D01*
X95383757Y-83214101D01*
X95220187Y-83209404D01*
X95066675Y-83205008D01*
X94924189Y-83200536D01*
X94796593Y-83196138D01*
X94687749Y-83191965D01*
X94601521Y-83188168D01*
X94541773Y-83184897D01*
X94512367Y-83182304D01*
X94510093Y-83181718D01*
X94484922Y-83183173D01*
X94445851Y-83200082D01*
X94406663Y-83225991D01*
X94396660Y-83234828D01*
X94375505Y-83254433D01*
X94334859Y-83291467D01*
X94281500Y-83339772D01*
X94246261Y-83371546D01*
X94184054Y-83427690D01*
X94126127Y-83480203D01*
X94081261Y-83521116D01*
X94066376Y-83534819D01*
X94030498Y-83564544D01*
X94004387Y-83580021D01*
X94001093Y-83580650D01*
X93978711Y-83591648D01*
X93944379Y-83618648D01*
X93938548Y-83623942D01*
X93883114Y-83664918D01*
X93803266Y-83710744D01*
X93708654Y-83757009D01*
X93608932Y-83799299D01*
X93513748Y-83833203D01*
X93436016Y-83853684D01*
X93360696Y-83869041D01*
X93265721Y-83889324D01*
X93165795Y-83911362D01*
X93109710Y-83924077D01*
X93016824Y-83942917D01*
X92922606Y-83957851D01*
X92840438Y-83966948D01*
X92799804Y-83968816D01*
X92722919Y-83965873D01*
X92619678Y-83957578D01*
X92498437Y-83944984D01*
X92367557Y-83929142D01*
X92235396Y-83911107D01*
X92110312Y-83891930D01*
X92000666Y-83872663D01*
X91943317Y-83860962D01*
X91774327Y-83823797D01*
X91747882Y-83861552D01*
X91720004Y-83897151D01*
X91679938Y-83943718D01*
X91660597Y-83965031D01*
X91611666Y-84021154D01*
X91554851Y-84091275D01*
X91496687Y-84166767D01*
X91443710Y-84239001D01*
X91402452Y-84299351D01*
X91383553Y-84330824D01*
X91358994Y-84385654D01*
X91328335Y-84466940D01*
X91293999Y-84566882D01*
X91258408Y-84677679D01*
X91223987Y-84791529D01*
X91193157Y-84900632D01*
X91168343Y-84997186D01*
X91151967Y-85073391D01*
X91150788Y-85080179D01*
X91118804Y-85325201D01*
X91109786Y-85543539D01*
X91123730Y-85735320D01*
X91132722Y-85789440D01*
X91191880Y-86018054D01*
X91277472Y-86223844D01*
X91389166Y-86406337D01*
X91526627Y-86565061D01*
X91689521Y-86699546D01*
X91842171Y-86791577D01*
X91926660Y-86832793D01*
X92008253Y-86865946D01*
X92097538Y-86894616D01*
X92205108Y-86922380D01*
X92279622Y-86939384D01*
X92325313Y-86949142D01*
X92368147Y-86957102D01*
X92412171Y-86963425D01*
X92461437Y-86968273D01*
X92519991Y-86971808D01*
X92591884Y-86974191D01*
X92681164Y-86975584D01*
X92791880Y-86976147D01*
X92928082Y-86976043D01*
X93093818Y-86975434D01*
X93174044Y-86975062D01*
X93393431Y-86973795D01*
X93588346Y-86971976D01*
X93763317Y-86969231D01*
X93922873Y-86965186D01*
X94071543Y-86959466D01*
X94213856Y-86951697D01*
X94354341Y-86941503D01*
X94497525Y-86928511D01*
X94647939Y-86912346D01*
X94810111Y-86892634D01*
X94988570Y-86868999D01*
X95187844Y-86841069D01*
X95412462Y-86808467D01*
X95666954Y-86770821D01*
X95695603Y-86766558D01*
X95861556Y-86742042D01*
X96033221Y-86717010D01*
X96203366Y-86692495D01*
X96364758Y-86669529D01*
X96510164Y-86649143D01*
X96632350Y-86632370D01*
X96692893Y-86624287D01*
X96817953Y-86606458D01*
X96947080Y-86585617D01*
X97070155Y-86563563D01*
X97177057Y-86542098D01*
X97248904Y-86525337D01*
X97349708Y-86499331D01*
X97468958Y-86468717D01*
X97590873Y-86437538D01*
X97687836Y-86412845D01*
X97793438Y-86383646D01*
X97890978Y-86352291D01*
X97971103Y-86321985D01*
X98018052Y-86299714D01*
X98066574Y-86270394D01*
X98128331Y-86230368D01*
X98196006Y-86184724D01*
X98262282Y-86138549D01*
X98319842Y-86096929D01*
X98361367Y-86064952D01*
X98378708Y-86048998D01*
X98396894Y-86031710D01*
X98432686Y-86001557D01*
X98453008Y-85985180D01*
X98549696Y-85893361D01*
X98647555Y-85770295D01*
X98747403Y-85614800D01*
X98850056Y-85425693D01*
X98876636Y-85372242D01*
X98942398Y-85233218D01*
X98991927Y-85116920D01*
X99027816Y-85016211D01*
X99052659Y-84923952D01*
X99066691Y-84849051D01*
X99076006Y-84765717D01*
X99082497Y-84661923D01*
X99086010Y-84548353D01*
X99086392Y-84435693D01*
X99083487Y-84334625D01*
X99077141Y-84255834D01*
X99075431Y-84243595D01*
X99043546Y-84131976D01*
X98983202Y-84010866D01*
X98898465Y-83884501D01*
X98793403Y-83757115D01*
X98672080Y-83632945D01*
X98538562Y-83516225D01*
X98396917Y-83411191D01*
X98251209Y-83322078D01*
X98137152Y-83266260D01*
X98016482Y-83217317D01*
X97891896Y-83173640D01*
X97759582Y-83134469D01*
X97615729Y-83099046D01*
X97456526Y-83066611D01*
X97278163Y-83036404D01*
X97076828Y-83007665D01*
X96848710Y-82979634D01*
X96589999Y-82951553D01*
X96525207Y-82944951D01*
X96395028Y-82931450D01*
X96241618Y-82914932D01*
X96076779Y-82896707D01*
X95912318Y-82878082D01*
X95760038Y-82860366D01*
X95730906Y-82856906D01*
X95594989Y-82840919D01*
X95455889Y-82824945D01*
X95322237Y-82809948D01*
X95202666Y-82796891D01*
X95105807Y-82786739D01*
X95073400Y-82783517D01*
X94848348Y-82761690D01*
X94848348Y-82703206D01*
X94850376Y-82665383D01*
X94863345Y-82650803D01*
X94897581Y-82651812D01*
X94914540Y-82654152D01*
X94962489Y-82660425D01*
X95043012Y-82670269D01*
X95153593Y-82683393D01*
X95291716Y-82699509D01*
X95454865Y-82718328D01*
X95640524Y-82739559D01*
X95846176Y-82762914D01*
X96069305Y-82788103D01*
X96307395Y-82814836D01*
X96451965Y-82831003D01*
X96612339Y-82849004D01*
X96766458Y-82866478D01*
X96909715Y-82882889D01*
X97037498Y-82897702D01*
X97145199Y-82910382D01*
X97228209Y-82920394D01*
X97281918Y-82927201D01*
X97290394Y-82928364D01*
X97444162Y-82953237D01*
X97602996Y-82984539D01*
X97757156Y-83020008D01*
X97896907Y-83057381D01*
X98012510Y-83094395D01*
X98025555Y-83099173D01*
X98108376Y-83132116D01*
X98192945Y-83169194D01*
X98271763Y-83206739D01*
X98337331Y-83241083D01*
X98382151Y-83268557D01*
X98396229Y-83280529D01*
X98415125Y-83296424D01*
X98451826Y-83323501D01*
X98466833Y-83334066D01*
X98549207Y-83396855D01*
X98644576Y-83478275D01*
X98744562Y-83570358D01*
X98840786Y-83665139D01*
X98924871Y-83754650D01*
X98986043Y-83827766D01*
X99061842Y-83933629D01*
X99117337Y-84029405D01*
X99155326Y-84124073D01*
X99178606Y-84226613D01*
X99189975Y-84346008D01*
X99192244Y-84489684D01*
X99186886Y-84676277D01*
X99174272Y-84838016D01*
X99154760Y-84971849D01*
X99128707Y-85074720D01*
X99121262Y-85095121D01*
X99059776Y-85240350D01*
X98990086Y-85387050D01*
X98915077Y-85530452D01*
X98837636Y-85665787D01*
X98760649Y-85788286D01*
X98687002Y-85893180D01*
X98619582Y-85975699D01*
X98561275Y-86031075D01*
X98549939Y-86039153D01*
X98509103Y-86070270D01*
X98466833Y-86107965D01*
X98421922Y-86147221D01*
X98368984Y-86187637D01*
X98360926Y-86193243D01*
X98320572Y-86221807D01*
X98294128Y-86242365D01*
X98290322Y-86246037D01*
X98266324Y-86265910D01*
X98220675Y-86297358D01*
X98162471Y-86334614D01*
X98100813Y-86371914D01*
X98044798Y-86403491D01*
X98028184Y-86412138D01*
X97987345Y-86431571D01*
X97942975Y-86449779D01*
X97890114Y-86468258D01*
X97823802Y-86488503D01*
X97739080Y-86512009D01*
X97630987Y-86540273D01*
X97494565Y-86574791D01*
X97460718Y-86583257D01*
X97362284Y-86607820D01*
X97279707Y-86628127D01*
X97207820Y-86645097D01*
X97141452Y-86659648D01*
X97075435Y-86672700D01*
X97004599Y-86685171D01*
X96923776Y-86697980D01*
X96827795Y-86712046D01*
X96711489Y-86728287D01*
X96569688Y-86747622D01*
X96428126Y-86766786D01*
X96262538Y-86789341D01*
X96085005Y-86813777D01*
X95904661Y-86838818D01*
X95730642Y-86863190D01*
X95572080Y-86885619D01*
X95438111Y-86904830D01*
X95422010Y-86907165D01*
X95086257Y-86954651D01*
X94784535Y-86994597D01*
X94516399Y-87027057D01*
X94281403Y-87052084D01*
X94079103Y-87069729D01*
X93992268Y-87075667D01*
X93916312Y-87079191D01*
X93814545Y-87082264D01*
X93692209Y-87084864D01*
X93554548Y-87086972D01*
X93406803Y-87088566D01*
X93254219Y-87089625D01*
X93102037Y-87090130D01*
X92955500Y-87090058D01*
X92819852Y-87089391D01*
X92700335Y-87088106D01*
X92602192Y-87086184D01*
X92530666Y-87083603D01*
X92500746Y-87081545D01*
X92268483Y-87047402D01*
X92053571Y-86992713D01*
X91860886Y-86918976D01*
X91715270Y-86840584D01*
X91565830Y-86738438D01*
X91441136Y-86633950D01*
X91336600Y-86521059D01*
X91247632Y-86393704D01*
X91169645Y-86245825D01*
X91098050Y-86071361D01*
X91067518Y-85984989D01*
X91045898Y-85920102D01*
X91030443Y-85867311D01*
X91020150Y-85818483D01*
X91014016Y-85765484D01*
X91011037Y-85700180D01*
X91010211Y-85614436D01*
X91010439Y-85522276D01*
X91013435Y-85364436D01*
X91022024Y-85223570D01*
X91037721Y-85091568D01*
X91062042Y-84960320D01*
X91096502Y-84821717D01*
X91142617Y-84667648D01*
X91201903Y-84490005D01*
X91205067Y-84480859D01*
X91241250Y-84383789D01*
X91278336Y-84303927D01*
X91323700Y-84227516D01*
X91384719Y-84140797D01*
X91394345Y-84127836D01*
X91444021Y-84061601D01*
X91486119Y-84006146D01*
X91516115Y-83967386D01*
X91529377Y-83951324D01*
X91565319Y-83912865D01*
X91600322Y-83865313D01*
X91626453Y-83820553D01*
X91635840Y-83791854D01*
X91619436Y-83760445D01*
X91572692Y-83723252D01*
X91551997Y-83710751D01*
X91473386Y-83661278D01*
X91390146Y-83599049D01*
X91295040Y-83518444D01*
X91238689Y-83467583D01*
X91193150Y-83426984D01*
X91158310Y-83398092D01*
X91141652Y-83387108D01*
X91141607Y-83387110D01*
X91127168Y-83400342D01*
X91098821Y-83434139D01*
X91071003Y-83470204D01*
X90988000Y-83569248D01*
X90908708Y-83640371D01*
X90854776Y-83672921D01*
X90820665Y-83691203D01*
X90806511Y-83704054D01*
X90806511Y-83704104D01*
X90817377Y-83721083D01*
X90845295Y-83756067D01*
X90876389Y-83792464D01*
X90923155Y-83852684D01*
X90966115Y-83919988D01*
X91000997Y-83986096D01*
X91023527Y-84042724D01*
X91029434Y-84081589D01*
X91028171Y-84086696D01*
X91014704Y-84100989D01*
X90983611Y-84107666D01*
X90927590Y-84107844D01*
X90898902Y-84106476D01*
X90828471Y-84100916D01*
X90736768Y-84091277D01*
X90631172Y-84078589D01*
X90519063Y-84063879D01*
X90407819Y-84048176D01*
X90304818Y-84032508D01*
X90217440Y-84017903D01*
X90153063Y-84005390D01*
X90127353Y-83998957D01*
X90080578Y-83980537D01*
X90056188Y-83953905D01*
X90042006Y-83907196D01*
X90040692Y-83894725D01*
X90135492Y-83894725D01*
X90289940Y-83916257D01*
X90382932Y-83930138D01*
X90490379Y-83947548D01*
X90592099Y-83965191D01*
X90612073Y-83968845D01*
X90727860Y-83988718D01*
X90811647Y-83999358D01*
X90865472Y-84000890D01*
X90891374Y-83993441D01*
X90894491Y-83986433D01*
X90882959Y-83967098D01*
X90851738Y-83928580D01*
X90805897Y-83876867D01*
X90762108Y-83830024D01*
X90708039Y-83771109D01*
X90664634Y-83719391D01*
X90637015Y-83681258D01*
X90629724Y-83664981D01*
X90645774Y-83643330D01*
X90689604Y-83617362D01*
X90728961Y-83600527D01*
X90854615Y-83536853D01*
X90954239Y-83452804D01*
X91011078Y-83376090D01*
X91056594Y-83298424D01*
X91018986Y-83220737D01*
X90985456Y-83161482D01*
X90946906Y-83106898D01*
X90934912Y-83092912D01*
X90888446Y-83042774D01*
X90872189Y-83091545D01*
X90841152Y-83137411D01*
X90788832Y-83174548D01*
X90743643Y-83203409D01*
X90685114Y-83248637D01*
X90624585Y-83301357D01*
X90613949Y-83311342D01*
X90560997Y-83363011D01*
X90528987Y-83399985D01*
X90512680Y-83431251D01*
X90506836Y-83465794D01*
X90506166Y-83496236D01*
X90502803Y-83547272D01*
X90494286Y-83582021D01*
X90489120Y-83589102D01*
X90465920Y-83587262D01*
X90424428Y-83573003D01*
X90376812Y-83551748D01*
X90335239Y-83528923D01*
X90312004Y-83510137D01*
X90289154Y-83491420D01*
X90250898Y-83470514D01*
X90210383Y-83453397D01*
X90180759Y-83446047D01*
X90174419Y-83447584D01*
X90166389Y-83471170D01*
X90157759Y-83521274D01*
X90149486Y-83589148D01*
X90142527Y-83666041D01*
X90137839Y-83743205D01*
X90136398Y-83795054D01*
X90135492Y-83894725D01*
X90040692Y-83894725D01*
X90037448Y-83863943D01*
X90035472Y-83794668D01*
X90035800Y-83708540D01*
X90038151Y-83614722D01*
X90042249Y-83522381D01*
X90047813Y-83440684D01*
X90054566Y-83378794D01*
X90058757Y-83356231D01*
X90076951Y-83321255D01*
X90111288Y-83308494D01*
X90165523Y-83317864D01*
X90243409Y-83349282D01*
X90249186Y-83351994D01*
X90365947Y-83407161D01*
X90476512Y-83304156D01*
X90529107Y-83254483D01*
X90558484Y-83223651D01*
X90567565Y-83206775D01*
X90559271Y-83198970D01*
X90541281Y-83195879D01*
X90504478Y-83196273D01*
X90442992Y-83201639D01*
X90366931Y-83210975D01*
X90319901Y-83217848D01*
X90140980Y-83244268D01*
X89994571Y-83262883D01*
X89878793Y-83273857D01*
X89791767Y-83277357D01*
X89731614Y-83273548D01*
X89717572Y-83270772D01*
X89676692Y-83258528D01*
X89656070Y-83240825D01*
X89647566Y-83206396D01*
X89644692Y-83169933D01*
X89649202Y-83087034D01*
X89669829Y-82981051D01*
X89703941Y-82858811D01*
X89748904Y-82727141D01*
X89802085Y-82592869D01*
X89860853Y-82462821D01*
X89922573Y-82343824D01*
X89984613Y-82242706D01*
X90021615Y-82192565D01*
X90066415Y-82137142D01*
X89893553Y-82011257D01*
X89815646Y-81954401D01*
X89757727Y-81911551D01*
X89711205Y-81875984D01*
X89667487Y-81840981D01*
X89617984Y-81799821D01*
X89554104Y-81745784D01*
X89553098Y-81744931D01*
X89452786Y-81654699D01*
X89367333Y-81567622D01*
X89299627Y-81487377D01*
X89252556Y-81417644D01*
X89229007Y-81362102D01*
X89228790Y-81343459D01*
X89335015Y-81343459D01*
X89343994Y-81380309D01*
X89379256Y-81432549D01*
X89435335Y-81498301D01*
X89504991Y-81569650D01*
X89578086Y-81636214D01*
X89631714Y-81681922D01*
X89676542Y-81719536D01*
X89718059Y-81753264D01*
X89761752Y-81787312D01*
X89813111Y-81825888D01*
X89877624Y-81873199D01*
X89960780Y-81933451D01*
X90047236Y-81995833D01*
X90111982Y-82044533D01*
X90184318Y-82102172D01*
X90258368Y-82163678D01*
X90328256Y-82223976D01*
X90388104Y-82277993D01*
X90432037Y-82320655D01*
X90454177Y-82346890D01*
X90454475Y-82347428D01*
X90463366Y-82388915D01*
X90441582Y-82417332D01*
X90392152Y-82430102D01*
X90357658Y-82429787D01*
X90311727Y-82424296D01*
X90290962Y-82411026D01*
X90285242Y-82381169D01*
X90284935Y-82366516D01*
X90275601Y-82318411D01*
X90243851Y-82275166D01*
X90223156Y-82256237D01*
X90183955Y-82224857D01*
X90155818Y-82206173D01*
X90149578Y-82203902D01*
X90129436Y-82219019D01*
X90097837Y-82260911D01*
X90058022Y-82324254D01*
X90013230Y-82403723D01*
X89966700Y-82493996D01*
X89942609Y-82544046D01*
X89869452Y-82709699D01*
X89812466Y-82859705D01*
X89773228Y-82989540D01*
X89754831Y-83082005D01*
X89742619Y-83174674D01*
X89831014Y-83174674D01*
X89885272Y-83171560D01*
X89962730Y-83163140D01*
X90051926Y-83150802D01*
X90120119Y-83139725D01*
X90217298Y-83123979D01*
X90317885Y-83109629D01*
X90407519Y-83098640D01*
X90453213Y-83094219D01*
X90526212Y-83086334D01*
X90592227Y-83075648D01*
X90637394Y-83064423D01*
X90638550Y-83064003D01*
X90694520Y-83038375D01*
X90751635Y-83004678D01*
X90799544Y-82969830D01*
X90827900Y-82940753D01*
X90830567Y-82935608D01*
X90827690Y-82909637D01*
X90812128Y-82860607D01*
X90786808Y-82797119D01*
X90772484Y-82764978D01*
X90717579Y-82635576D01*
X90673675Y-82507022D01*
X90639257Y-82372201D01*
X90612810Y-82223997D01*
X90592821Y-82055296D01*
X90577775Y-81858982D01*
X90577017Y-81846523D01*
X90570092Y-81745531D01*
X90562290Y-81655309D01*
X90554309Y-81582441D01*
X90546843Y-81533507D01*
X90542172Y-81516781D01*
X90511496Y-81488489D01*
X90451279Y-81457110D01*
X90367004Y-81423979D01*
X90264155Y-81390431D01*
X90148215Y-81357799D01*
X90024668Y-81327419D01*
X89898998Y-81300623D01*
X89776687Y-81278746D01*
X89663220Y-81263123D01*
X89564079Y-81255087D01*
X89484749Y-81255973D01*
X89474494Y-81257004D01*
X89400677Y-81274270D01*
X89353145Y-81304070D01*
X89335015Y-81343459D01*
X89228790Y-81343459D01*
X89228651Y-81331535D01*
X89270346Y-81254252D01*
X89337800Y-81194233D01*
X89423681Y-81156447D01*
X89503186Y-81145532D01*
X89607297Y-81150116D01*
X89733240Y-81164359D01*
X89873162Y-81186563D01*
X90019208Y-81215029D01*
X90163525Y-81248059D01*
X90298259Y-81283955D01*
X90415557Y-81321019D01*
X90507563Y-81357551D01*
X90526496Y-81366817D01*
X90568776Y-81385961D01*
X90594579Y-81385381D01*
X90611185Y-81360197D01*
X90625875Y-81305528D01*
X90627297Y-81299240D01*
X90676638Y-81149815D01*
X90758269Y-80998483D01*
X90873109Y-80843745D01*
X90976980Y-80729273D01*
X91126765Y-80583820D01*
X91274229Y-80459602D01*
X91429599Y-80349105D01*
X91603104Y-80244816D01*
X91725893Y-80179143D01*
X91899882Y-80093057D01*
X92053314Y-80025587D01*
X92193927Y-79974238D01*
X92329458Y-79936515D01*
X92467644Y-79909923D01*
X92616222Y-79891967D01*
X92616441Y-79891947D01*
X92748860Y-79883526D01*
X92868893Y-79885415D01*
X92986938Y-79898922D01*
X93113395Y-79925354D01*
X93258662Y-79966018D01*
X93295047Y-79977277D01*
X93515687Y-80046486D01*
X93563525Y-80012449D01*
X93612900Y-79969944D01*
X93650532Y-79923933D01*
X93671213Y-79882453D01*
X93669736Y-79853542D01*
X93667892Y-79851368D01*
X93653702Y-79820497D01*
X93648572Y-79779401D01*
X93757036Y-79779401D01*
X93760063Y-79802084D01*
X93762007Y-79803305D01*
X93779566Y-79792120D01*
X93814919Y-79762791D01*
X93860430Y-79721655D01*
X93860640Y-79721459D01*
X93914858Y-79667659D01*
X93943018Y-79632376D01*
X93944500Y-79616659D01*
X93919882Y-79621094D01*
X93887108Y-79620665D01*
X93867538Y-79593024D01*
X93861513Y-79543834D01*
X93869375Y-79478759D01*
X93880564Y-79440621D01*
X94111062Y-79440621D01*
X94111355Y-79485467D01*
X94117331Y-79502778D01*
X94117704Y-79502798D01*
X94139464Y-79492826D01*
X94179544Y-79467463D01*
X94217320Y-79440847D01*
X94269371Y-79398559D01*
X94297787Y-79366433D01*
X94300165Y-79347757D01*
X94287757Y-79344375D01*
X94268926Y-79331170D01*
X94253108Y-79310358D01*
X94242834Y-79283051D01*
X94242383Y-79243372D01*
X94252008Y-79182140D01*
X94257381Y-79155910D01*
X94271082Y-79076624D01*
X94280466Y-78994432D01*
X94283205Y-78940431D01*
X94283512Y-78845382D01*
X94244173Y-78896303D01*
X94211235Y-78937382D01*
X94183983Y-78968867D01*
X94182278Y-78970665D01*
X94146473Y-79020469D01*
X94129542Y-79081238D01*
X94127519Y-79154136D01*
X94127230Y-79221757D01*
X94122897Y-79304860D01*
X94116518Y-79375265D01*
X94111062Y-79440621D01*
X93880564Y-79440621D01*
X93891466Y-79403463D01*
X93904760Y-79370854D01*
X93927023Y-79317241D01*
X93940626Y-79277948D01*
X93942757Y-79262504D01*
X93925873Y-79267428D01*
X93893952Y-79288641D01*
X93890400Y-79291398D01*
X93850841Y-79340596D01*
X93817025Y-79418321D01*
X93791432Y-79517949D01*
X93781392Y-79582666D01*
X93772708Y-79650955D01*
X93763649Y-79717383D01*
X93760779Y-79737113D01*
X93757036Y-79779401D01*
X93648572Y-79779401D01*
X93648361Y-79777711D01*
X93652750Y-79719205D01*
X93664054Y-79640654D01*
X93680205Y-79552103D01*
X93699136Y-79463603D01*
X93718779Y-79385202D01*
X93737068Y-79326947D01*
X93744769Y-79309073D01*
X93766927Y-79277929D01*
X93810115Y-79227148D01*
X93869912Y-79161557D01*
X93941898Y-79085984D01*
X94021653Y-79005258D01*
X94035682Y-78991352D01*
X94164005Y-78867103D01*
X94286809Y-78753057D01*
X94401556Y-78651243D01*
X94505708Y-78563691D01*
X94596724Y-78492429D01*
X94672067Y-78439487D01*
X94729197Y-78406896D01*
X94765575Y-78396683D01*
X94774996Y-78400402D01*
G37*
D14*
%TO.C,R2*%
X168909276Y-93965500D02*
X169418724Y-93965500D01*
X168909276Y-95010500D02*
X169418724Y-95010500D01*
%TO.C,JP2*%
X176146000Y-87900000D02*
X178946000Y-87900000D01*
X176146000Y-89900000D02*
X176146000Y-87900000D01*
X178946000Y-87900000D02*
X178946000Y-89900000D01*
X178946000Y-89900000D02*
X176146000Y-89900000D01*
%TO.C,Q1*%
X126431000Y-100434500D02*
X126431000Y-101484500D01*
X126431000Y-103734500D02*
X126431000Y-102684500D01*
X128231000Y-100434500D02*
X126431000Y-100434500D01*
X128291000Y-103734500D02*
X126431000Y-103734500D01*
X128981000Y-104026176D02*
X128501000Y-104026176D01*
X128741000Y-103696176D01*
X128981000Y-104026176D01*
G36*
X128981000Y-104026176D02*
G01*
X128501000Y-104026176D01*
X128741000Y-103696176D01*
X128981000Y-104026176D01*
G37*
%TD*%
M02*
