%TF.GenerationSoftware,KiCad,Pcbnew,7.0.9*%
%TF.CreationDate,2024-01-07T02:48:38+09:00*%
%TF.ProjectId,Pmod_SC1602,506d6f64-5f53-4433-9136-30322e6b6963,rev?*%
%TF.SameCoordinates,Original*%
%TF.FileFunction,Copper,L2,Bot*%
%TF.FilePolarity,Positive*%
%FSLAX46Y46*%
G04 Gerber Fmt 4.6, Leading zero omitted, Abs format (unit mm)*
G04 Created by KiCad (PCBNEW 7.0.9) date 2024-01-07 02:48:38*
%MOMM*%
%LPD*%
G01*
G04 APERTURE LIST*
%TA.AperFunction,ComponentPad*%
%ADD10R,1.700000X1.700000*%
%TD*%
%TA.AperFunction,ComponentPad*%
%ADD11O,1.700000X1.700000*%
%TD*%
%TA.AperFunction,ComponentPad*%
%ADD12R,1.800000X1.800000*%
%TD*%
%TA.AperFunction,ComponentPad*%
%ADD13C,1.800000*%
%TD*%
%TA.AperFunction,ComponentPad*%
%ADD14C,4.050000*%
%TD*%
%TA.AperFunction,ComponentPad*%
%ADD15C,1.440000*%
%TD*%
%TA.AperFunction,ViaPad*%
%ADD16C,0.800000*%
%TD*%
%TA.AperFunction,Conductor*%
%ADD17C,0.250000*%
%TD*%
%TA.AperFunction,Conductor*%
%ADD18C,1.000000*%
%TD*%
%TA.AperFunction,Conductor*%
%ADD19C,0.500000*%
%TD*%
G04 APERTURE END LIST*
D10*
%TO.P,J1,1,Pin_1*%
%TO.N,/D0*%
X93853000Y-90297000D03*
D11*
%TO.P,J1,2,Pin_2*%
%TO.N,/D2*%
X93853000Y-92837000D03*
%TO.P,J1,3,Pin_3*%
%TO.N,/RS*%
X93853000Y-95377000D03*
%TO.P,J1,4,Pin_4*%
%TO.N,/R{slash}W*%
X93853000Y-97917000D03*
%TO.P,J1,5,Pin_5*%
%TO.N,GND*%
X93853000Y-100457000D03*
%TO.P,J1,6,Pin_6*%
%TO.N,VCC*%
X93853000Y-102997000D03*
%TO.P,J1,7,Pin_7*%
%TO.N,/D1*%
X91313000Y-90297000D03*
%TO.P,J1,8,Pin_8*%
%TO.N,/D3*%
X91313000Y-92837000D03*
%TO.P,J1,9,Pin_9*%
%TO.N,/Contrast*%
X91313000Y-95377000D03*
%TO.P,J1,10,Pin_10*%
%TO.N,/BackLight*%
X91313000Y-97917000D03*
%TO.P,J1,11,Pin_11*%
%TO.N,GND*%
X91313000Y-100457000D03*
%TO.P,J1,12,Pin_12*%
%TO.N,VCC*%
X91313000Y-102997000D03*
%TD*%
D12*
%TO.P,DS1,1,VDD*%
%TO.N,VCC*%
X105436000Y-98083600D03*
D13*
%TO.P,DS1,2,VSS*%
%TO.N,GND*%
X102896000Y-98083600D03*
%TO.P,DS1,3,VO*%
%TO.N,Net-(DS1-VO)*%
X105436000Y-95543600D03*
%TO.P,DS1,4,RS*%
%TO.N,/RS*%
X102896000Y-95543600D03*
%TO.P,DS1,5,R/W*%
%TO.N,/R{slash}W*%
X105436000Y-93003600D03*
%TO.P,DS1,6,E*%
%TO.N,Net-(DS1-E)*%
X102896000Y-93003600D03*
%TO.P,DS1,7,DB0*%
%TO.N,unconnected-(DS1-DB0-Pad7)*%
X105436000Y-90463600D03*
%TO.P,DS1,8,DB1*%
%TO.N,unconnected-(DS1-DB1-Pad8)*%
X102896000Y-90463600D03*
%TO.P,DS1,9,DB2*%
%TO.N,unconnected-(DS1-DB2-Pad9)*%
X105436000Y-87923600D03*
%TO.P,DS1,10,DB3*%
%TO.N,unconnected-(DS1-DB3-Pad10)*%
X102896000Y-87923600D03*
%TO.P,DS1,11,DB4*%
%TO.N,/D0*%
X105436000Y-85383600D03*
%TO.P,DS1,12,DB5*%
%TO.N,/D3*%
X102896000Y-85383600D03*
%TO.P,DS1,13,DB6*%
%TO.N,/D2*%
X105436000Y-82843600D03*
%TO.P,DS1,14,DB7*%
%TO.N,/D1*%
X102896000Y-82843600D03*
%TO.P,DS1,A1,A1*%
%TO.N,VCC*%
X183896000Y-85383600D03*
%TO.P,DS1,A2,A2*%
X183896000Y-87923600D03*
%TO.P,DS1,K1,K1*%
%TO.N,Net-(Q2-C)*%
X183896000Y-93003600D03*
%TO.P,DS1,K2,K2*%
X183896000Y-95543600D03*
D14*
%TO.P,DS1,MH1*%
%TO.N,N/C*%
X102896000Y-102463600D03*
%TO.P,DS1,MH2*%
X102896000Y-78463600D03*
%TO.P,DS1,MH3*%
X183896000Y-78463600D03*
%TO.P,DS1,MH4*%
X183896000Y-102463600D03*
%TD*%
D10*
%TO.P,REF\u002A\u002A,1*%
%TO.N,Net-(JP1-B)*%
X152019000Y-99695000D03*
%TD*%
D15*
%TO.P,RV1,1,1*%
%TO.N,GND*%
X145721000Y-97157000D03*
%TO.P,RV1,2,2*%
%TO.N,Net-(JP1-B)*%
X145721000Y-99697000D03*
%TO.P,RV1,3,3*%
%TO.N,VCC*%
X145721000Y-102237000D03*
%TD*%
D16*
%TO.N,GND*%
X96774000Y-76454000D03*
X175387000Y-76454000D03*
X156845000Y-76454000D03*
X127254000Y-76454000D03*
X120523000Y-100203000D03*
X120523000Y-96012000D03*
X164592000Y-97790000D03*
X156845000Y-97790000D03*
X175387000Y-104521000D03*
X156845000Y-104394000D03*
X127254000Y-104521000D03*
%TD*%
D17*
%TO.N,/D3*%
X99655400Y-85383600D02*
X102896000Y-85383600D01*
X97790000Y-87249000D02*
X99655400Y-85383600D01*
X92583000Y-94107000D02*
X96139000Y-94107000D01*
X96139000Y-94107000D02*
X97790000Y-92456000D01*
X97790000Y-92456000D02*
X97790000Y-87249000D01*
X91313000Y-92837000D02*
X92583000Y-94107000D01*
D18*
%TO.N,VCC*%
X105664000Y-105791000D02*
X107442000Y-104013000D01*
X107442000Y-104013000D02*
X107442000Y-102108000D01*
D19*
X169559200Y-102260400D02*
X169535800Y-102237000D01*
D18*
X132791200Y-102260400D02*
X132814600Y-102237000D01*
D19*
X183896000Y-87923600D02*
X183896000Y-85383600D01*
D18*
X107594400Y-102260400D02*
X132791200Y-102260400D01*
X91313000Y-102997000D02*
X93853000Y-102997000D01*
X96139000Y-102997000D02*
X98933000Y-105791000D01*
X98933000Y-105791000D02*
X105664000Y-105791000D01*
D19*
X169559200Y-102260400D02*
X183896000Y-87923600D01*
D18*
X107442000Y-100089600D02*
X105436000Y-98083600D01*
D19*
X169535800Y-102237000D02*
X145721000Y-102237000D01*
D18*
X107442000Y-102108000D02*
X107594400Y-102260400D01*
X107442000Y-102108000D02*
X107442000Y-100089600D01*
X132814600Y-102237000D02*
X145721000Y-102237000D01*
X93853000Y-102997000D02*
X96139000Y-102997000D01*
D17*
%TO.N,/R{slash}W*%
X95631000Y-97917000D02*
X99229400Y-94318600D01*
X99229400Y-94318600D02*
X104121000Y-94318600D01*
X93853000Y-97917000D02*
X95631000Y-97917000D01*
X104121000Y-94318600D02*
X105436000Y-93003600D01*
%TO.N,/D2*%
X98213400Y-84158600D02*
X104121000Y-84158600D01*
X95377000Y-92837000D02*
X96520000Y-91694000D01*
X104121000Y-84158600D02*
X105436000Y-82843600D01*
X93853000Y-92837000D02*
X95377000Y-92837000D01*
X96520000Y-85852000D02*
X98213400Y-84158600D01*
X96520000Y-91694000D02*
X96520000Y-85852000D01*
%TD*%
%TA.AperFunction,Conductor*%
%TO.N,GND*%
G36*
X186887039Y-74441685D02*
G01*
X186932794Y-74494489D01*
X186944000Y-74546000D01*
X186944000Y-106556000D01*
X186924315Y-106623039D01*
X186871511Y-106668794D01*
X186820000Y-106680000D01*
X106493867Y-106680000D01*
X106426828Y-106660315D01*
X106381073Y-106607511D01*
X106371129Y-106538353D01*
X106395806Y-106480105D01*
X106413925Y-106456696D01*
X106419101Y-106450818D01*
X108140487Y-104729433D01*
X108205053Y-104668059D01*
X108240112Y-104617686D01*
X108242925Y-104613957D01*
X108281698Y-104566407D01*
X108297607Y-104535948D01*
X108301667Y-104529248D01*
X108321295Y-104501049D01*
X108345492Y-104444660D01*
X108347498Y-104440435D01*
X108375909Y-104386049D01*
X108385360Y-104353015D01*
X108387991Y-104345628D01*
X108401540Y-104314058D01*
X108413893Y-104253940D01*
X108415006Y-104249412D01*
X108431887Y-104190418D01*
X108434495Y-104156155D01*
X108435587Y-104148376D01*
X108442500Y-104114739D01*
X108442500Y-104053401D01*
X108442679Y-104048692D01*
X108447337Y-103987525D01*
X108442997Y-103953441D01*
X108442500Y-103945602D01*
X108442500Y-103384900D01*
X108462185Y-103317861D01*
X108514989Y-103272106D01*
X108566500Y-103260900D01*
X132778484Y-103260900D01*
X132867558Y-103263157D01*
X132867558Y-103263156D01*
X132867563Y-103263157D01*
X132927953Y-103252332D01*
X132932612Y-103251680D01*
X132969167Y-103247962D01*
X132993638Y-103245474D01*
X133000928Y-103243186D01*
X133038049Y-103237500D01*
X144200464Y-103237500D01*
X144219191Y-103238922D01*
X144436396Y-103272106D01*
X145438129Y-103425148D01*
X145444815Y-103426551D01*
X145487880Y-103438090D01*
X145508253Y-103443549D01*
X145624006Y-103453675D01*
X145627952Y-103454149D01*
X145633171Y-103454947D01*
X145640609Y-103456084D01*
X145659498Y-103458246D01*
X145659962Y-103458281D01*
X145670730Y-103459105D01*
X145680701Y-103458958D01*
X145686993Y-103459186D01*
X145721000Y-103462162D01*
X145933747Y-103443549D01*
X146140030Y-103388276D01*
X146150315Y-103383479D01*
X146172605Y-103376143D01*
X146172506Y-103375784D01*
X146176755Y-103374602D01*
X146176767Y-103374600D01*
X147242246Y-102994702D01*
X147283890Y-102987500D01*
X169337001Y-102987500D01*
X169356363Y-102990049D01*
X169356486Y-102989215D01*
X169363632Y-102990261D01*
X169363633Y-102990262D01*
X169427036Y-102999548D01*
X169430543Y-103000166D01*
X169493345Y-103013134D01*
X169503316Y-103012843D01*
X169504547Y-103012808D01*
X169526127Y-103014064D01*
X169528887Y-103014468D01*
X169537223Y-103015689D01*
X169601050Y-103010104D01*
X169604647Y-103009895D01*
X169650476Y-103008561D01*
X169668713Y-103008031D01*
X169679540Y-103005129D01*
X169700830Y-103001376D01*
X169707499Y-103000792D01*
X169711997Y-103000399D01*
X169772828Y-102980241D01*
X169776276Y-102979209D01*
X169838176Y-102962623D01*
X169848047Y-102957300D01*
X169867901Y-102948737D01*
X169878531Y-102945215D01*
X169878531Y-102945214D01*
X169878534Y-102945214D01*
X169933072Y-102911573D01*
X169936182Y-102909777D01*
X169992600Y-102879359D01*
X170000973Y-102871906D01*
X170018311Y-102858998D01*
X170027856Y-102853112D01*
X170073157Y-102807809D01*
X170075782Y-102805333D01*
X170103400Y-102780755D01*
X170123660Y-102762726D01*
X170130089Y-102753542D01*
X170143981Y-102736985D01*
X170417361Y-102463605D01*
X181365507Y-102463605D01*
X181385459Y-102780744D01*
X181385460Y-102780751D01*
X181401473Y-102864692D01*
X181429789Y-103013134D01*
X181445008Y-103092912D01*
X181543207Y-103395138D01*
X181543209Y-103395143D01*
X181678510Y-103682670D01*
X181678513Y-103682676D01*
X181848784Y-103950981D01*
X181848787Y-103950985D01*
X181848788Y-103950986D01*
X182051350Y-104195842D01*
X182283001Y-104413376D01*
X182283004Y-104413379D01*
X182403666Y-104501045D01*
X182540094Y-104600166D01*
X182818568Y-104753259D01*
X182818573Y-104753261D01*
X182818575Y-104753262D01*
X182818576Y-104753263D01*
X183114031Y-104870241D01*
X183114034Y-104870242D01*
X183421836Y-104949272D01*
X183737097Y-104989099D01*
X183737106Y-104989099D01*
X183737109Y-104989100D01*
X183737111Y-104989100D01*
X184054889Y-104989100D01*
X184054891Y-104989100D01*
X184054894Y-104989099D01*
X184054902Y-104989099D01*
X184370163Y-104949272D01*
X184677965Y-104870242D01*
X184677968Y-104870241D01*
X184973423Y-104753263D01*
X184973424Y-104753262D01*
X184973422Y-104753262D01*
X184973432Y-104753259D01*
X185251906Y-104600166D01*
X185508997Y-104413378D01*
X185740650Y-104195842D01*
X185943212Y-103950986D01*
X186113488Y-103682674D01*
X186248793Y-103395137D01*
X186346993Y-103092908D01*
X186406539Y-102780755D01*
X186406540Y-102780744D01*
X186426493Y-102463605D01*
X186426493Y-102463594D01*
X186406540Y-102146455D01*
X186406539Y-102146448D01*
X186406539Y-102146445D01*
X186346993Y-101834292D01*
X186248793Y-101532063D01*
X186113488Y-101244526D01*
X186020718Y-101098344D01*
X185943215Y-100976218D01*
X185943212Y-100976214D01*
X185740650Y-100731358D01*
X185508997Y-100513822D01*
X185508995Y-100513820D01*
X185251909Y-100327036D01*
X185251908Y-100327035D01*
X185251906Y-100327034D01*
X184973432Y-100173941D01*
X184973429Y-100173939D01*
X184973424Y-100173937D01*
X184973423Y-100173936D01*
X184677968Y-100056958D01*
X184677965Y-100056957D01*
X184370163Y-99977927D01*
X184054902Y-99938100D01*
X184054891Y-99938100D01*
X183737109Y-99938100D01*
X183737097Y-99938100D01*
X183421836Y-99977927D01*
X183114034Y-100056957D01*
X183114031Y-100056958D01*
X182818576Y-100173936D01*
X182818575Y-100173937D01*
X182540094Y-100327034D01*
X182540090Y-100327036D01*
X182283004Y-100513820D01*
X182283001Y-100513823D01*
X182051352Y-100731356D01*
X181848784Y-100976218D01*
X181678513Y-101244523D01*
X181678510Y-101244529D01*
X181543209Y-101532056D01*
X181543207Y-101532061D01*
X181445008Y-101834287D01*
X181385460Y-102146448D01*
X181385459Y-102146455D01*
X181365507Y-102463594D01*
X181365507Y-102463605D01*
X170417361Y-102463605D01*
X177337360Y-95543606D01*
X182490700Y-95543606D01*
X182509864Y-95774897D01*
X182509866Y-95774908D01*
X182566842Y-95999900D01*
X182660075Y-96212448D01*
X182787016Y-96406747D01*
X182787019Y-96406751D01*
X182787021Y-96406753D01*
X182944216Y-96577513D01*
X182944219Y-96577515D01*
X182944222Y-96577518D01*
X183127365Y-96720064D01*
X183127371Y-96720068D01*
X183127374Y-96720070D01*
X183331497Y-96830536D01*
X183402933Y-96855060D01*
X183551015Y-96905897D01*
X183551017Y-96905897D01*
X183551019Y-96905898D01*
X183779951Y-96944100D01*
X183779952Y-96944100D01*
X184012048Y-96944100D01*
X184012049Y-96944100D01*
X184240981Y-96905898D01*
X184460503Y-96830536D01*
X184664626Y-96720070D01*
X184698124Y-96693998D01*
X184787415Y-96624500D01*
X184847784Y-96577513D01*
X185004979Y-96406753D01*
X185131924Y-96212449D01*
X185225157Y-95999900D01*
X185282134Y-95774905D01*
X185282135Y-95774897D01*
X185301300Y-95543606D01*
X185301300Y-95543593D01*
X185282135Y-95312302D01*
X185282133Y-95312291D01*
X185225157Y-95087299D01*
X185131924Y-94874751D01*
X185004983Y-94680452D01*
X185004980Y-94680449D01*
X185004979Y-94680447D01*
X184847784Y-94509687D01*
X184670180Y-94371453D01*
X184629368Y-94314743D01*
X184625693Y-94244970D01*
X184660324Y-94184287D01*
X184670181Y-94175746D01*
X184847784Y-94037513D01*
X185004979Y-93866753D01*
X185131924Y-93672449D01*
X185225157Y-93459900D01*
X185282134Y-93234905D01*
X185282135Y-93234897D01*
X185301300Y-93003606D01*
X185301300Y-93003593D01*
X185282135Y-92772302D01*
X185282133Y-92772291D01*
X185225157Y-92547299D01*
X185131924Y-92334751D01*
X185004983Y-92140452D01*
X185004980Y-92140449D01*
X185004979Y-92140447D01*
X184847784Y-91969687D01*
X184847779Y-91969683D01*
X184847777Y-91969681D01*
X184664634Y-91827135D01*
X184664628Y-91827131D01*
X184460504Y-91716664D01*
X184460495Y-91716661D01*
X184240984Y-91641302D01*
X184069282Y-91612650D01*
X184012049Y-91603100D01*
X183779951Y-91603100D01*
X183734164Y-91610740D01*
X183551015Y-91641302D01*
X183331504Y-91716661D01*
X183331495Y-91716664D01*
X183127371Y-91827131D01*
X183127365Y-91827135D01*
X182944222Y-91969681D01*
X182944219Y-91969684D01*
X182787016Y-92140452D01*
X182660075Y-92334751D01*
X182566842Y-92547299D01*
X182509866Y-92772291D01*
X182509864Y-92772302D01*
X182490700Y-93003593D01*
X182490700Y-93003606D01*
X182509864Y-93234897D01*
X182509866Y-93234908D01*
X182566842Y-93459900D01*
X182660075Y-93672448D01*
X182787016Y-93866747D01*
X182787019Y-93866751D01*
X182787021Y-93866753D01*
X182944216Y-94037513D01*
X182944219Y-94037515D01*
X182944222Y-94037518D01*
X183121818Y-94175747D01*
X183162631Y-94232457D01*
X183166306Y-94302230D01*
X183131674Y-94362913D01*
X183121818Y-94371453D01*
X182944222Y-94509681D01*
X182944219Y-94509684D01*
X182944216Y-94509686D01*
X182944216Y-94509687D01*
X182891830Y-94566594D01*
X182787016Y-94680452D01*
X182660075Y-94874751D01*
X182566842Y-95087299D01*
X182509866Y-95312291D01*
X182509864Y-95312302D01*
X182490700Y-95543593D01*
X182490700Y-95543606D01*
X177337360Y-95543606D01*
X183059426Y-89821540D01*
X183098205Y-89795272D01*
X184429139Y-89224182D01*
X184429138Y-89224183D01*
X184445301Y-89216265D01*
X184452447Y-89213301D01*
X184460503Y-89210536D01*
X184664626Y-89100070D01*
X184670182Y-89095746D01*
X184789080Y-89003204D01*
X184847784Y-88957513D01*
X185004979Y-88786753D01*
X185131924Y-88592449D01*
X185225157Y-88379900D01*
X185282134Y-88154905D01*
X185301300Y-87923600D01*
X185301300Y-87923593D01*
X185282135Y-87692302D01*
X185282131Y-87692282D01*
X185248493Y-87559452D01*
X185225157Y-87467300D01*
X185203624Y-87418211D01*
X185196653Y-87397544D01*
X185194231Y-87387528D01*
X185192637Y-87380935D01*
X185192635Y-87380930D01*
X185192633Y-87380923D01*
X184974353Y-86834529D01*
X184920449Y-86699599D01*
X184913859Y-86630043D01*
X184920450Y-86607597D01*
X184996387Y-86417515D01*
X185118801Y-86111090D01*
X185192633Y-85926275D01*
X185201970Y-85899010D01*
X185209050Y-85878336D01*
X185209050Y-85878331D01*
X185210888Y-85872966D01*
X185212767Y-85868145D01*
X185225156Y-85839903D01*
X185225157Y-85839900D01*
X185282134Y-85614905D01*
X185282135Y-85614897D01*
X185301300Y-85383606D01*
X185301300Y-85383593D01*
X185282135Y-85152302D01*
X185282133Y-85152291D01*
X185225157Y-84927299D01*
X185131924Y-84714751D01*
X185004983Y-84520452D01*
X185004980Y-84520449D01*
X185004979Y-84520447D01*
X184847784Y-84349687D01*
X184847779Y-84349683D01*
X184847777Y-84349681D01*
X184664634Y-84207135D01*
X184664628Y-84207131D01*
X184460504Y-84096664D01*
X184460495Y-84096661D01*
X184240984Y-84021302D01*
X184069282Y-83992650D01*
X184012049Y-83983100D01*
X183779951Y-83983100D01*
X183734164Y-83990740D01*
X183551015Y-84021302D01*
X183331504Y-84096661D01*
X183331495Y-84096664D01*
X183127371Y-84207131D01*
X183127365Y-84207135D01*
X182944222Y-84349681D01*
X182944219Y-84349684D01*
X182787016Y-84520452D01*
X182660075Y-84714751D01*
X182566842Y-84927299D01*
X182509866Y-85152291D01*
X182509864Y-85152302D01*
X182490700Y-85383593D01*
X182490700Y-85383606D01*
X182509864Y-85614897D01*
X182509866Y-85614908D01*
X182566843Y-85839902D01*
X182588373Y-85888986D01*
X182595342Y-85909645D01*
X182599359Y-85926256D01*
X182599363Y-85926268D01*
X182871547Y-86607597D01*
X182878138Y-86677155D01*
X182871547Y-86699601D01*
X182599336Y-87381001D01*
X182598300Y-87383787D01*
X182596673Y-87387528D01*
X182024323Y-88721393D01*
X181998052Y-88760178D01*
X169308051Y-101450181D01*
X169246728Y-101483666D01*
X169220370Y-101486500D01*
X147283893Y-101486500D01*
X147242249Y-101479298D01*
X146557298Y-101235078D01*
X146176767Y-101099399D01*
X146176764Y-101099398D01*
X146158447Y-101093693D01*
X146150676Y-101090687D01*
X146140032Y-101085724D01*
X146134948Y-101083874D01*
X146135718Y-101081756D01*
X146084289Y-101050406D01*
X146053762Y-100987558D01*
X146062060Y-100918183D01*
X146106547Y-100864307D01*
X146135315Y-100851171D01*
X146134936Y-100850130D01*
X146140013Y-100848280D01*
X146140030Y-100848276D01*
X146333581Y-100758021D01*
X146508519Y-100635529D01*
X146551178Y-100592870D01*
X150668500Y-100592870D01*
X150668501Y-100592876D01*
X150674908Y-100652483D01*
X150725202Y-100787328D01*
X150725206Y-100787335D01*
X150811452Y-100902544D01*
X150811455Y-100902547D01*
X150926664Y-100988793D01*
X150926671Y-100988797D01*
X151061517Y-101039091D01*
X151061516Y-101039091D01*
X151068444Y-101039835D01*
X151121127Y-101045500D01*
X152916872Y-101045499D01*
X152976483Y-101039091D01*
X153111331Y-100988796D01*
X153226546Y-100902546D01*
X153312796Y-100787331D01*
X153363091Y-100652483D01*
X153369500Y-100592873D01*
X153369499Y-98797128D01*
X153363091Y-98737517D01*
X153342981Y-98683600D01*
X153312797Y-98602671D01*
X153312793Y-98602664D01*
X153226547Y-98487455D01*
X153226544Y-98487452D01*
X153111335Y-98401206D01*
X153111328Y-98401202D01*
X152976482Y-98350908D01*
X152976483Y-98350908D01*
X152916883Y-98344501D01*
X152916881Y-98344500D01*
X152916873Y-98344500D01*
X152916864Y-98344500D01*
X151121129Y-98344500D01*
X151121123Y-98344501D01*
X151061516Y-98350908D01*
X150926671Y-98401202D01*
X150926664Y-98401206D01*
X150811455Y-98487452D01*
X150811452Y-98487455D01*
X150725206Y-98602664D01*
X150725202Y-98602671D01*
X150674908Y-98737517D01*
X150669438Y-98788401D01*
X150668501Y-98797123D01*
X150668500Y-98797135D01*
X150668500Y-100592870D01*
X146551178Y-100592870D01*
X146659529Y-100484519D01*
X146782021Y-100309581D01*
X146872276Y-100116030D01*
X146927549Y-99909747D01*
X146946162Y-99697000D01*
X146943185Y-99662978D01*
X146935293Y-99572764D01*
X146927549Y-99484253D01*
X146872276Y-99277970D01*
X146787380Y-99095913D01*
X146782022Y-99084421D01*
X146659527Y-98909478D01*
X146508521Y-98758472D01*
X146333578Y-98635977D01*
X146333579Y-98635977D01*
X146204547Y-98575809D01*
X146140030Y-98545724D01*
X146140023Y-98545722D01*
X146134936Y-98543870D01*
X146135606Y-98542028D01*
X146083293Y-98510114D01*
X146052789Y-98447255D01*
X146061111Y-98377883D01*
X146105617Y-98324022D01*
X146135097Y-98310574D01*
X146134764Y-98309658D01*
X146139859Y-98307802D01*
X146333330Y-98217586D01*
X146333336Y-98217582D01*
X146389031Y-98178584D01*
X145765401Y-97554953D01*
X145846148Y-97542165D01*
X145959045Y-97484641D01*
X146048641Y-97395045D01*
X146106165Y-97282148D01*
X146118953Y-97201400D01*
X146742584Y-97825031D01*
X146781582Y-97769336D01*
X146781586Y-97769330D01*
X146871802Y-97575859D01*
X146871805Y-97575853D01*
X146927054Y-97369662D01*
X146927055Y-97369654D01*
X146945660Y-97157002D01*
X146945660Y-97156997D01*
X146927055Y-96944345D01*
X146927054Y-96944337D01*
X146871805Y-96738146D01*
X146871802Y-96738140D01*
X146781586Y-96544670D01*
X146742583Y-96488967D01*
X146118953Y-97112598D01*
X146106165Y-97031852D01*
X146048641Y-96918955D01*
X145959045Y-96829359D01*
X145846148Y-96771835D01*
X145765401Y-96759046D01*
X146389031Y-96135416D01*
X146389030Y-96135415D01*
X146333330Y-96096413D01*
X146333328Y-96096412D01*
X146139859Y-96006197D01*
X146139853Y-96006194D01*
X145933662Y-95950945D01*
X145933654Y-95950944D01*
X145721002Y-95932340D01*
X145720998Y-95932340D01*
X145508345Y-95950944D01*
X145508337Y-95950945D01*
X145302146Y-96006194D01*
X145302140Y-96006197D01*
X145108667Y-96096414D01*
X145052967Y-96135414D01*
X145676599Y-96759046D01*
X145595852Y-96771835D01*
X145482955Y-96829359D01*
X145393359Y-96918955D01*
X145335835Y-97031852D01*
X145323046Y-97112598D01*
X144699415Y-96488967D01*
X144699414Y-96488967D01*
X144660414Y-96544667D01*
X144570197Y-96738140D01*
X144570194Y-96738146D01*
X144514945Y-96944337D01*
X144514944Y-96944345D01*
X144496340Y-97156997D01*
X144496340Y-97157002D01*
X144514944Y-97369654D01*
X144514945Y-97369662D01*
X144570194Y-97575853D01*
X144570197Y-97575859D01*
X144660412Y-97769328D01*
X144660413Y-97769330D01*
X144699415Y-97825030D01*
X144699416Y-97825031D01*
X145323046Y-97201400D01*
X145335835Y-97282148D01*
X145393359Y-97395045D01*
X145482955Y-97484641D01*
X145595852Y-97542165D01*
X145676599Y-97554953D01*
X145052967Y-98178583D01*
X145108670Y-98217586D01*
X145302140Y-98307802D01*
X145307236Y-98309658D01*
X145306542Y-98311563D01*
X145358647Y-98343302D01*
X145389196Y-98406139D01*
X145380922Y-98475518D01*
X145336454Y-98529409D01*
X145306744Y-98542991D01*
X145307064Y-98543870D01*
X145301972Y-98545723D01*
X145301970Y-98545724D01*
X145301968Y-98545725D01*
X145108421Y-98635977D01*
X144933478Y-98758472D01*
X144782472Y-98909478D01*
X144659977Y-99084421D01*
X144569725Y-99277968D01*
X144569721Y-99277977D01*
X144514452Y-99484247D01*
X144514450Y-99484258D01*
X144495838Y-99696998D01*
X144495838Y-99697001D01*
X144514450Y-99909741D01*
X144514452Y-99909752D01*
X144569721Y-100116022D01*
X144569723Y-100116026D01*
X144569724Y-100116030D01*
X144596726Y-100173936D01*
X144659977Y-100309578D01*
X144782472Y-100484521D01*
X144933478Y-100635527D01*
X144933481Y-100635529D01*
X145108419Y-100758021D01*
X145108421Y-100758022D01*
X145108420Y-100758022D01*
X145172275Y-100787798D01*
X145288340Y-100841920D01*
X145340778Y-100888091D01*
X145359930Y-100955285D01*
X145339714Y-101022166D01*
X145286549Y-101067500D01*
X145254661Y-101076879D01*
X144876999Y-101134578D01*
X144219178Y-101235078D01*
X144200460Y-101236500D01*
X132827317Y-101236500D01*
X132738237Y-101234243D01*
X132738228Y-101234243D01*
X132677860Y-101245064D01*
X132673195Y-101245718D01*
X132612163Y-101251925D01*
X132612162Y-101251926D01*
X132604871Y-101254213D01*
X132567751Y-101259900D01*
X108566500Y-101259900D01*
X108499461Y-101240215D01*
X108453706Y-101187411D01*
X108442500Y-101135900D01*
X108442500Y-100102275D01*
X108444756Y-100013242D01*
X108444755Y-100013241D01*
X108444756Y-100013236D01*
X108433929Y-99952833D01*
X108433282Y-99948220D01*
X108427074Y-99887162D01*
X108427073Y-99887160D01*
X108427073Y-99887157D01*
X108416790Y-99854387D01*
X108414917Y-99846754D01*
X108408858Y-99812948D01*
X108400221Y-99791326D01*
X108386102Y-99755978D01*
X108384521Y-99751537D01*
X108366159Y-99693012D01*
X108366158Y-99693010D01*
X108366157Y-99693007D01*
X108349488Y-99662978D01*
X108346117Y-99655878D01*
X108333378Y-99623986D01*
X108333377Y-99623983D01*
X108299620Y-99572763D01*
X108297180Y-99568734D01*
X108286379Y-99549275D01*
X108267409Y-99515098D01*
X108267407Y-99515095D01*
X108245033Y-99489034D01*
X108240302Y-99482759D01*
X108236962Y-99477691D01*
X108221402Y-99454081D01*
X108178012Y-99410691D01*
X108174822Y-99407248D01*
X108134867Y-99360706D01*
X108134863Y-99360702D01*
X108107698Y-99339674D01*
X108101803Y-99334482D01*
X107744629Y-98977308D01*
X107727696Y-98956200D01*
X107727249Y-98955498D01*
X107398498Y-98438888D01*
X106855885Y-97586210D01*
X106836499Y-97519637D01*
X106836499Y-97135729D01*
X106836498Y-97135723D01*
X106830091Y-97076116D01*
X106779797Y-96941271D01*
X106779793Y-96941264D01*
X106693547Y-96826055D01*
X106693544Y-96826052D01*
X106578335Y-96739806D01*
X106578328Y-96739802D01*
X106498094Y-96709877D01*
X106442160Y-96668006D01*
X106417743Y-96602541D01*
X106432595Y-96534268D01*
X106450190Y-96509721D01*
X106544979Y-96406753D01*
X106671924Y-96212449D01*
X106765157Y-95999900D01*
X106822134Y-95774905D01*
X106822135Y-95774897D01*
X106841300Y-95543606D01*
X106841300Y-95543593D01*
X106822135Y-95312302D01*
X106822133Y-95312291D01*
X106765157Y-95087299D01*
X106671924Y-94874751D01*
X106544983Y-94680452D01*
X106544980Y-94680449D01*
X106544979Y-94680447D01*
X106387784Y-94509687D01*
X106210180Y-94371453D01*
X106169368Y-94314743D01*
X106165693Y-94244970D01*
X106200324Y-94184287D01*
X106210181Y-94175746D01*
X106387784Y-94037513D01*
X106544979Y-93866753D01*
X106671924Y-93672449D01*
X106765157Y-93459900D01*
X106822134Y-93234905D01*
X106822135Y-93234897D01*
X106841300Y-93003606D01*
X106841300Y-93003593D01*
X106822135Y-92772302D01*
X106822133Y-92772291D01*
X106765157Y-92547299D01*
X106671924Y-92334751D01*
X106544983Y-92140452D01*
X106544980Y-92140449D01*
X106544979Y-92140447D01*
X106387784Y-91969687D01*
X106210180Y-91831453D01*
X106169368Y-91774743D01*
X106165693Y-91704970D01*
X106200324Y-91644287D01*
X106210181Y-91635746D01*
X106238123Y-91613998D01*
X106387784Y-91497513D01*
X106544979Y-91326753D01*
X106671924Y-91132449D01*
X106765157Y-90919900D01*
X106822134Y-90694905D01*
X106822135Y-90694897D01*
X106841300Y-90463606D01*
X106841300Y-90463593D01*
X106822135Y-90232302D01*
X106822133Y-90232291D01*
X106765157Y-90007299D01*
X106671924Y-89794751D01*
X106544983Y-89600452D01*
X106544980Y-89600449D01*
X106544979Y-89600447D01*
X106387784Y-89429687D01*
X106210180Y-89291453D01*
X106169368Y-89234743D01*
X106165693Y-89164970D01*
X106200324Y-89104287D01*
X106210181Y-89095746D01*
X106218265Y-89089454D01*
X106387784Y-88957513D01*
X106544979Y-88786753D01*
X106671924Y-88592449D01*
X106765157Y-88379900D01*
X106822134Y-88154905D01*
X106841300Y-87923600D01*
X106841300Y-87923593D01*
X106822135Y-87692302D01*
X106822133Y-87692291D01*
X106765157Y-87467299D01*
X106671924Y-87254751D01*
X106544983Y-87060452D01*
X106544980Y-87060449D01*
X106544979Y-87060447D01*
X106387784Y-86889687D01*
X106210180Y-86751453D01*
X106169368Y-86694743D01*
X106165693Y-86624970D01*
X106200324Y-86564287D01*
X106210181Y-86555746D01*
X106215390Y-86551692D01*
X106387784Y-86417513D01*
X106544979Y-86246753D01*
X106671924Y-86052449D01*
X106765157Y-85839900D01*
X106822134Y-85614905D01*
X106822135Y-85614897D01*
X106841300Y-85383606D01*
X106841300Y-85383593D01*
X106822135Y-85152302D01*
X106822133Y-85152291D01*
X106765157Y-84927299D01*
X106671924Y-84714751D01*
X106544983Y-84520452D01*
X106544980Y-84520449D01*
X106544979Y-84520447D01*
X106387784Y-84349687D01*
X106210180Y-84211453D01*
X106169368Y-84154743D01*
X106165693Y-84084970D01*
X106200324Y-84024287D01*
X106210181Y-84015746D01*
X106387784Y-83877513D01*
X106544979Y-83706753D01*
X106671924Y-83512449D01*
X106765157Y-83299900D01*
X106822134Y-83074905D01*
X106841300Y-82843600D01*
X106841300Y-82843593D01*
X106822135Y-82612302D01*
X106822133Y-82612291D01*
X106765157Y-82387299D01*
X106671924Y-82174751D01*
X106544983Y-81980452D01*
X106544980Y-81980449D01*
X106544979Y-81980447D01*
X106387784Y-81809687D01*
X106387779Y-81809683D01*
X106387777Y-81809681D01*
X106204634Y-81667135D01*
X106204628Y-81667131D01*
X106000504Y-81556664D01*
X106000495Y-81556661D01*
X105780984Y-81481302D01*
X105609282Y-81452650D01*
X105552049Y-81443100D01*
X105319951Y-81443100D01*
X105274164Y-81450740D01*
X105091015Y-81481302D01*
X104871504Y-81556661D01*
X104871495Y-81556664D01*
X104667371Y-81667131D01*
X104667365Y-81667135D01*
X104484222Y-81809681D01*
X104484219Y-81809684D01*
X104327016Y-81980452D01*
X104269809Y-82068016D01*
X104216662Y-82113373D01*
X104147431Y-82122797D01*
X104084095Y-82093295D01*
X104062191Y-82068016D01*
X104004983Y-81980452D01*
X104004980Y-81980449D01*
X104004979Y-81980447D01*
X103847784Y-81809687D01*
X103847779Y-81809683D01*
X103847777Y-81809681D01*
X103664634Y-81667135D01*
X103664628Y-81667131D01*
X103460504Y-81556664D01*
X103460495Y-81556661D01*
X103240984Y-81481302D01*
X103069282Y-81452650D01*
X103012049Y-81443100D01*
X102779951Y-81443100D01*
X102734164Y-81450740D01*
X102551015Y-81481302D01*
X102331504Y-81556661D01*
X102331495Y-81556664D01*
X102127371Y-81667131D01*
X102127365Y-81667135D01*
X101944222Y-81809681D01*
X101944219Y-81809684D01*
X101787016Y-81980452D01*
X101660075Y-82174751D01*
X101566842Y-82387299D01*
X101509866Y-82612291D01*
X101509864Y-82612302D01*
X101490700Y-82843593D01*
X101490700Y-82843606D01*
X101509864Y-83074897D01*
X101509866Y-83074908D01*
X101566842Y-83299897D01*
X101592894Y-83359289D01*
X101601797Y-83428589D01*
X101571820Y-83491702D01*
X101512481Y-83528589D01*
X101479338Y-83533100D01*
X98296137Y-83533100D01*
X98280520Y-83531376D01*
X98280493Y-83531662D01*
X98272731Y-83530927D01*
X98203603Y-83533100D01*
X98174050Y-83533100D01*
X98173329Y-83533190D01*
X98167157Y-83533969D01*
X98161345Y-83534426D01*
X98114773Y-83535890D01*
X98114772Y-83535890D01*
X98095529Y-83541481D01*
X98076479Y-83545425D01*
X98056611Y-83547934D01*
X98056609Y-83547935D01*
X98013284Y-83565088D01*
X98007757Y-83566980D01*
X97963010Y-83579981D01*
X97963009Y-83579982D01*
X97945767Y-83590179D01*
X97928299Y-83598737D01*
X97909669Y-83606113D01*
X97909667Y-83606114D01*
X97871976Y-83633498D01*
X97867094Y-83636705D01*
X97826979Y-83660430D01*
X97812808Y-83674600D01*
X97798023Y-83687228D01*
X97781812Y-83699007D01*
X97752109Y-83734910D01*
X97748177Y-83739231D01*
X96136208Y-85351199D01*
X96123951Y-85361020D01*
X96124134Y-85361241D01*
X96118123Y-85366213D01*
X96070772Y-85416636D01*
X96049889Y-85437519D01*
X96049877Y-85437532D01*
X96045621Y-85443017D01*
X96041837Y-85447447D01*
X96009937Y-85481418D01*
X96009936Y-85481420D01*
X96000284Y-85498976D01*
X95989610Y-85515226D01*
X95977329Y-85531061D01*
X95977324Y-85531068D01*
X95958815Y-85573838D01*
X95956245Y-85579084D01*
X95933803Y-85619906D01*
X95928822Y-85639307D01*
X95922521Y-85657710D01*
X95914562Y-85676102D01*
X95914561Y-85676105D01*
X95907271Y-85722127D01*
X95906087Y-85727846D01*
X95894501Y-85772972D01*
X95894500Y-85772982D01*
X95894500Y-85793016D01*
X95892973Y-85812413D01*
X95889840Y-85832196D01*
X95890569Y-85839903D01*
X95894225Y-85878583D01*
X95894500Y-85884421D01*
X95894500Y-91383547D01*
X95874815Y-91450586D01*
X95858181Y-91471228D01*
X95371395Y-91958013D01*
X95310072Y-91991498D01*
X95240380Y-91986514D01*
X95231559Y-91982830D01*
X94983431Y-91867795D01*
X94904753Y-91831319D01*
X94852212Y-91785264D01*
X94832911Y-91718113D01*
X94852978Y-91651187D01*
X94906043Y-91605735D01*
X94913577Y-91602640D01*
X94945326Y-91590798D01*
X94945326Y-91590797D01*
X94945331Y-91590796D01*
X95060546Y-91504546D01*
X95146796Y-91389331D01*
X95197091Y-91254483D01*
X95203500Y-91194873D01*
X95203499Y-89399128D01*
X95197091Y-89339517D01*
X95195810Y-89336083D01*
X95146797Y-89204671D01*
X95146793Y-89204664D01*
X95060547Y-89089455D01*
X95060544Y-89089452D01*
X94945335Y-89003206D01*
X94945328Y-89003202D01*
X94810482Y-88952908D01*
X94810483Y-88952908D01*
X94750883Y-88946501D01*
X94750881Y-88946500D01*
X94750873Y-88946500D01*
X94750864Y-88946500D01*
X92955129Y-88946500D01*
X92955123Y-88946501D01*
X92895516Y-88952908D01*
X92760671Y-89003202D01*
X92760664Y-89003206D01*
X92645455Y-89089452D01*
X92645452Y-89089455D01*
X92559206Y-89204664D01*
X92559203Y-89204669D01*
X92510189Y-89336083D01*
X92468317Y-89392016D01*
X92402853Y-89416433D01*
X92334580Y-89401581D01*
X92306326Y-89380430D01*
X92184402Y-89258506D01*
X92184395Y-89258501D01*
X91990834Y-89122967D01*
X91990830Y-89122965D01*
X91941734Y-89100071D01*
X91776663Y-89023097D01*
X91776659Y-89023096D01*
X91776655Y-89023094D01*
X91548413Y-88961938D01*
X91548403Y-88961936D01*
X91313001Y-88941341D01*
X91312999Y-88941341D01*
X91077596Y-88961936D01*
X91077586Y-88961938D01*
X90849344Y-89023094D01*
X90849335Y-89023098D01*
X90635171Y-89122964D01*
X90635169Y-89122965D01*
X90441597Y-89258505D01*
X90274505Y-89425597D01*
X90138965Y-89619169D01*
X90138964Y-89619171D01*
X90039098Y-89833335D01*
X90039094Y-89833344D01*
X89977938Y-90061586D01*
X89977936Y-90061596D01*
X89957341Y-90296999D01*
X89957341Y-90297000D01*
X89977936Y-90532403D01*
X89977938Y-90532413D01*
X90039094Y-90760655D01*
X90039096Y-90760659D01*
X90039097Y-90760663D01*
X90113351Y-90919900D01*
X90138965Y-90974830D01*
X90138967Y-90974834D01*
X90274501Y-91168395D01*
X90274506Y-91168402D01*
X90441597Y-91335493D01*
X90441603Y-91335498D01*
X90627158Y-91465425D01*
X90670783Y-91520002D01*
X90677977Y-91589500D01*
X90646454Y-91651855D01*
X90627158Y-91668575D01*
X90441597Y-91798505D01*
X90274505Y-91965597D01*
X90138965Y-92159169D01*
X90138964Y-92159171D01*
X90039098Y-92373335D01*
X90039094Y-92373344D01*
X89977938Y-92601586D01*
X89977936Y-92601596D01*
X89957341Y-92836999D01*
X89957341Y-92837000D01*
X89977936Y-93072403D01*
X89977938Y-93072413D01*
X90039094Y-93300655D01*
X90039096Y-93300659D01*
X90039097Y-93300663D01*
X90080516Y-93389486D01*
X90138965Y-93514830D01*
X90138967Y-93514834D01*
X90234804Y-93651702D01*
X90274179Y-93707936D01*
X90274501Y-93708395D01*
X90274506Y-93708402D01*
X90441597Y-93875493D01*
X90441603Y-93875498D01*
X90627158Y-94005425D01*
X90670783Y-94060002D01*
X90677977Y-94129500D01*
X90646454Y-94191855D01*
X90627158Y-94208575D01*
X90441597Y-94338505D01*
X90274505Y-94505597D01*
X90138965Y-94699169D01*
X90138964Y-94699171D01*
X90039098Y-94913335D01*
X90039094Y-94913344D01*
X89977938Y-95141586D01*
X89977936Y-95141596D01*
X89957341Y-95376999D01*
X89957341Y-95377000D01*
X89977936Y-95612403D01*
X89977938Y-95612413D01*
X90039094Y-95840655D01*
X90039096Y-95840659D01*
X90039097Y-95840663D01*
X90113351Y-95999900D01*
X90138965Y-96054830D01*
X90138967Y-96054834D01*
X90195391Y-96135415D01*
X90274501Y-96248396D01*
X90274506Y-96248402D01*
X90441597Y-96415493D01*
X90441603Y-96415498D01*
X90627158Y-96545425D01*
X90670783Y-96600002D01*
X90677977Y-96669500D01*
X90646454Y-96731855D01*
X90627158Y-96748575D01*
X90441597Y-96878505D01*
X90274505Y-97045597D01*
X90138965Y-97239169D01*
X90138964Y-97239171D01*
X90039098Y-97453335D01*
X90039094Y-97453344D01*
X89977938Y-97681586D01*
X89977936Y-97681596D01*
X89957341Y-97916999D01*
X89957341Y-97917000D01*
X89977936Y-98152403D01*
X89977938Y-98152413D01*
X90039094Y-98380655D01*
X90039096Y-98380659D01*
X90039097Y-98380663D01*
X90116067Y-98545725D01*
X90138965Y-98594830D01*
X90138967Y-98594834D01*
X90190308Y-98668156D01*
X90274505Y-98788401D01*
X90441599Y-98955495D01*
X90625724Y-99084421D01*
X90627594Y-99085730D01*
X90671219Y-99140307D01*
X90678413Y-99209805D01*
X90646890Y-99272160D01*
X90627595Y-99288880D01*
X90441922Y-99418890D01*
X90441920Y-99418891D01*
X90274891Y-99585920D01*
X90274886Y-99585926D01*
X90139400Y-99779420D01*
X90139399Y-99779422D01*
X90039570Y-99993507D01*
X90039567Y-99993513D01*
X89982364Y-100206999D01*
X89982364Y-100207000D01*
X90879314Y-100207000D01*
X90853507Y-100247156D01*
X90813000Y-100385111D01*
X90813000Y-100528889D01*
X90853507Y-100666844D01*
X90879314Y-100707000D01*
X89982364Y-100707000D01*
X90039567Y-100920486D01*
X90039570Y-100920492D01*
X90139399Y-101134578D01*
X90274894Y-101328082D01*
X90441917Y-101495105D01*
X90627595Y-101625119D01*
X90671219Y-101679696D01*
X90678412Y-101749195D01*
X90646890Y-101811549D01*
X90627595Y-101828269D01*
X90441594Y-101958508D01*
X90274505Y-102125597D01*
X90138965Y-102319169D01*
X90138964Y-102319171D01*
X90039098Y-102533335D01*
X90039094Y-102533344D01*
X89977938Y-102761586D01*
X89977936Y-102761596D01*
X89957341Y-102996999D01*
X89957341Y-102997000D01*
X89977936Y-103232403D01*
X89977938Y-103232413D01*
X90039094Y-103460655D01*
X90039096Y-103460659D01*
X90039097Y-103460663D01*
X90103409Y-103598580D01*
X90138965Y-103674830D01*
X90138967Y-103674834D01*
X90247281Y-103829521D01*
X90274505Y-103868401D01*
X90441599Y-104035495D01*
X90537305Y-104102509D01*
X90635165Y-104171032D01*
X90635167Y-104171033D01*
X90635170Y-104171035D01*
X90849337Y-104270903D01*
X91077592Y-104332063D01*
X91265918Y-104348539D01*
X91312999Y-104352659D01*
X91313000Y-104352659D01*
X91313001Y-104352659D01*
X91352234Y-104349226D01*
X91548408Y-104332063D01*
X91776663Y-104270903D01*
X91776663Y-104270902D01*
X91781899Y-104269500D01*
X91781911Y-104269547D01*
X91792178Y-104266629D01*
X92557803Y-104107738D01*
X92608195Y-104107738D01*
X93373823Y-104266630D01*
X93384094Y-104269549D01*
X93384107Y-104269502D01*
X93495384Y-104299318D01*
X93617592Y-104332063D01*
X93805918Y-104348539D01*
X93852999Y-104352659D01*
X93853000Y-104352659D01*
X93853001Y-104352659D01*
X93892234Y-104349226D01*
X94088408Y-104332063D01*
X94316663Y-104270903D01*
X94316663Y-104270902D01*
X94321899Y-104269500D01*
X94321911Y-104269547D01*
X94332178Y-104266629D01*
X95616525Y-104000086D01*
X95641722Y-103997500D01*
X95673217Y-103997500D01*
X95740256Y-104017185D01*
X95760898Y-104033819D01*
X98195397Y-106468319D01*
X98228882Y-106529642D01*
X98223898Y-106599334D01*
X98182026Y-106655267D01*
X98116562Y-106679684D01*
X98107716Y-106680000D01*
X87500000Y-106680000D01*
X87432961Y-106660315D01*
X87387206Y-106607511D01*
X87376000Y-106556000D01*
X87376000Y-78463605D01*
X100365507Y-78463605D01*
X100385459Y-78780744D01*
X100385460Y-78780751D01*
X100445008Y-79092912D01*
X100543207Y-79395138D01*
X100543209Y-79395143D01*
X100678510Y-79682670D01*
X100678513Y-79682676D01*
X100848784Y-79950981D01*
X100848787Y-79950985D01*
X100848788Y-79950986D01*
X101051350Y-80195842D01*
X101283003Y-80413378D01*
X101540094Y-80600166D01*
X101818568Y-80753259D01*
X101818573Y-80753261D01*
X101818575Y-80753262D01*
X101818576Y-80753263D01*
X102114031Y-80870241D01*
X102114034Y-80870242D01*
X102421836Y-80949272D01*
X102737097Y-80989099D01*
X102737106Y-80989099D01*
X102737109Y-80989100D01*
X102737111Y-80989100D01*
X103054889Y-80989100D01*
X103054891Y-80989100D01*
X103054894Y-80989099D01*
X103054902Y-80989099D01*
X103370163Y-80949272D01*
X103677965Y-80870242D01*
X103677968Y-80870241D01*
X103973423Y-80753263D01*
X103973424Y-80753262D01*
X103973422Y-80753262D01*
X103973432Y-80753259D01*
X104251906Y-80600166D01*
X104508997Y-80413378D01*
X104740650Y-80195842D01*
X104943212Y-79950986D01*
X105113488Y-79682674D01*
X105248793Y-79395137D01*
X105346993Y-79092908D01*
X105406539Y-78780755D01*
X105426493Y-78463605D01*
X181365507Y-78463605D01*
X181385459Y-78780744D01*
X181385460Y-78780751D01*
X181445008Y-79092912D01*
X181543207Y-79395138D01*
X181543209Y-79395143D01*
X181678510Y-79682670D01*
X181678513Y-79682676D01*
X181848784Y-79950981D01*
X181848787Y-79950985D01*
X181848788Y-79950986D01*
X182051350Y-80195842D01*
X182283003Y-80413378D01*
X182540094Y-80600166D01*
X182818568Y-80753259D01*
X182818573Y-80753261D01*
X182818575Y-80753262D01*
X182818576Y-80753263D01*
X183114031Y-80870241D01*
X183114034Y-80870242D01*
X183421836Y-80949272D01*
X183737097Y-80989099D01*
X183737106Y-80989099D01*
X183737109Y-80989100D01*
X183737111Y-80989100D01*
X184054889Y-80989100D01*
X184054891Y-80989100D01*
X184054894Y-80989099D01*
X184054902Y-80989099D01*
X184370163Y-80949272D01*
X184677965Y-80870242D01*
X184677968Y-80870241D01*
X184973423Y-80753263D01*
X184973424Y-80753262D01*
X184973422Y-80753262D01*
X184973432Y-80753259D01*
X185251906Y-80600166D01*
X185508997Y-80413378D01*
X185740650Y-80195842D01*
X185943212Y-79950986D01*
X186113488Y-79682674D01*
X186248793Y-79395137D01*
X186346993Y-79092908D01*
X186406539Y-78780755D01*
X186426493Y-78463600D01*
X186406539Y-78146445D01*
X186346993Y-77834292D01*
X186248793Y-77532063D01*
X186113488Y-77244526D01*
X185943212Y-76976214D01*
X185740650Y-76731358D01*
X185508997Y-76513822D01*
X185508995Y-76513820D01*
X185251909Y-76327036D01*
X185251908Y-76327035D01*
X185251906Y-76327034D01*
X184973432Y-76173941D01*
X184973429Y-76173939D01*
X184973424Y-76173937D01*
X184973423Y-76173936D01*
X184677968Y-76056958D01*
X184677965Y-76056957D01*
X184370163Y-75977927D01*
X184054902Y-75938100D01*
X184054891Y-75938100D01*
X183737109Y-75938100D01*
X183737097Y-75938100D01*
X183421836Y-75977927D01*
X183114034Y-76056957D01*
X183114031Y-76056958D01*
X182818576Y-76173936D01*
X182818575Y-76173937D01*
X182540094Y-76327034D01*
X182540090Y-76327036D01*
X182283004Y-76513820D01*
X182283001Y-76513823D01*
X182051352Y-76731356D01*
X181848784Y-76976218D01*
X181678513Y-77244523D01*
X181678510Y-77244529D01*
X181543209Y-77532056D01*
X181543207Y-77532061D01*
X181445008Y-77834287D01*
X181385460Y-78146448D01*
X181385459Y-78146455D01*
X181365507Y-78463594D01*
X181365507Y-78463605D01*
X105426493Y-78463605D01*
X105426493Y-78463600D01*
X105406539Y-78146445D01*
X105346993Y-77834292D01*
X105248793Y-77532063D01*
X105113488Y-77244526D01*
X104943212Y-76976214D01*
X104740650Y-76731358D01*
X104508997Y-76513822D01*
X104508995Y-76513820D01*
X104251909Y-76327036D01*
X104251908Y-76327035D01*
X104251906Y-76327034D01*
X103973432Y-76173941D01*
X103973429Y-76173939D01*
X103973424Y-76173937D01*
X103973423Y-76173936D01*
X103677968Y-76056958D01*
X103677965Y-76056957D01*
X103370163Y-75977927D01*
X103054902Y-75938100D01*
X103054891Y-75938100D01*
X102737109Y-75938100D01*
X102737097Y-75938100D01*
X102421836Y-75977927D01*
X102114034Y-76056957D01*
X102114031Y-76056958D01*
X101818576Y-76173936D01*
X101818575Y-76173937D01*
X101540094Y-76327034D01*
X101540090Y-76327036D01*
X101283004Y-76513820D01*
X101283001Y-76513823D01*
X101051352Y-76731356D01*
X100848784Y-76976218D01*
X100678513Y-77244523D01*
X100678510Y-77244529D01*
X100543209Y-77532056D01*
X100543207Y-77532061D01*
X100445008Y-77834287D01*
X100385460Y-78146448D01*
X100385459Y-78146455D01*
X100365507Y-78463594D01*
X100365507Y-78463605D01*
X87376000Y-78463605D01*
X87376000Y-74546000D01*
X87395685Y-74478961D01*
X87448489Y-74433206D01*
X87500000Y-74422000D01*
X186820000Y-74422000D01*
X186887039Y-74441685D01*
G37*
%TD.AperFunction*%
%TA.AperFunction,Conductor*%
G36*
X101510830Y-94963785D02*
G01*
X101556585Y-95016589D01*
X101566529Y-95085747D01*
X101563996Y-95098541D01*
X101509868Y-95312282D01*
X101509864Y-95312302D01*
X101490700Y-95543593D01*
X101490700Y-95543606D01*
X101509864Y-95774897D01*
X101509866Y-95774908D01*
X101566842Y-95999900D01*
X101660075Y-96212448D01*
X101787016Y-96406747D01*
X101787019Y-96406751D01*
X101787021Y-96406753D01*
X101944216Y-96577513D01*
X101944219Y-96577515D01*
X101944222Y-96577518D01*
X102122225Y-96716064D01*
X102163038Y-96772774D01*
X102166713Y-96842547D01*
X102132081Y-96903230D01*
X102122226Y-96911770D01*
X101944558Y-97050055D01*
X101787414Y-97220757D01*
X101660516Y-97414990D01*
X101567317Y-97627464D01*
X101515117Y-97833600D01*
X102350118Y-97833600D01*
X102311444Y-97926969D01*
X102290823Y-98083600D01*
X102311444Y-98240231D01*
X102350118Y-98333600D01*
X101515117Y-98333600D01*
X101567317Y-98539735D01*
X101660516Y-98752209D01*
X101787414Y-98946442D01*
X101944558Y-99117145D01*
X101944562Y-99117148D01*
X102127644Y-99259647D01*
X102127648Y-99259650D01*
X102331697Y-99370076D01*
X102331706Y-99370079D01*
X102551139Y-99445411D01*
X102645999Y-99461240D01*
X102646000Y-99461239D01*
X102646000Y-98629481D01*
X102739369Y-98668156D01*
X102856677Y-98683600D01*
X102935323Y-98683600D01*
X103052631Y-98668156D01*
X103146000Y-98629481D01*
X103146000Y-99461240D01*
X103240860Y-99445411D01*
X103460293Y-99370079D01*
X103460302Y-99370076D01*
X103664351Y-99259650D01*
X103664355Y-99259647D01*
X103847437Y-99117148D01*
X103847442Y-99117144D01*
X103855932Y-99107921D01*
X103915817Y-99071927D01*
X103985655Y-99074024D01*
X104043273Y-99113544D01*
X104063348Y-99148566D01*
X104092202Y-99225928D01*
X104092206Y-99225935D01*
X104178452Y-99341144D01*
X104178455Y-99341147D01*
X104293664Y-99427393D01*
X104293671Y-99427397D01*
X104338618Y-99444161D01*
X104428517Y-99477691D01*
X104488127Y-99484100D01*
X104872038Y-99484099D01*
X104938611Y-99503485D01*
X105577023Y-99909747D01*
X106232762Y-100327036D01*
X106308600Y-100375296D01*
X106329708Y-100392229D01*
X106405181Y-100467702D01*
X106438666Y-100529025D01*
X106441500Y-100555383D01*
X106441500Y-102095284D01*
X106439242Y-102184359D01*
X106439242Y-102184361D01*
X106439555Y-102186105D01*
X106441500Y-102207979D01*
X106441500Y-103547218D01*
X106421815Y-103614257D01*
X106405181Y-103634899D01*
X105285899Y-104754181D01*
X105224576Y-104787666D01*
X105198218Y-104790500D01*
X104371567Y-104790500D01*
X104304528Y-104770815D01*
X104258773Y-104718011D01*
X104248829Y-104648853D01*
X104277854Y-104585297D01*
X104298681Y-104566182D01*
X104349531Y-104529237D01*
X104508997Y-104413378D01*
X104740650Y-104195842D01*
X104943212Y-103950986D01*
X105113488Y-103682674D01*
X105248793Y-103395137D01*
X105346993Y-103092908D01*
X105406539Y-102780755D01*
X105406540Y-102780744D01*
X105426493Y-102463605D01*
X105426493Y-102463594D01*
X105406540Y-102146455D01*
X105406539Y-102146448D01*
X105406539Y-102146445D01*
X105346993Y-101834292D01*
X105248793Y-101532063D01*
X105113488Y-101244526D01*
X105020718Y-101098344D01*
X104943215Y-100976218D01*
X104943212Y-100976214D01*
X104740650Y-100731358D01*
X104508997Y-100513822D01*
X104508995Y-100513820D01*
X104251909Y-100327036D01*
X104251908Y-100327035D01*
X104251906Y-100327034D01*
X103973432Y-100173941D01*
X103973429Y-100173939D01*
X103973424Y-100173937D01*
X103973423Y-100173936D01*
X103677968Y-100056958D01*
X103677965Y-100056957D01*
X103370163Y-99977927D01*
X103054902Y-99938100D01*
X103054891Y-99938100D01*
X102737109Y-99938100D01*
X102737097Y-99938100D01*
X102421836Y-99977927D01*
X102114034Y-100056957D01*
X102114031Y-100056958D01*
X101818576Y-100173936D01*
X101818575Y-100173937D01*
X101540094Y-100327034D01*
X101540090Y-100327036D01*
X101283004Y-100513820D01*
X101283001Y-100513823D01*
X101051352Y-100731356D01*
X100848784Y-100976218D01*
X100678513Y-101244523D01*
X100678510Y-101244529D01*
X100543209Y-101532056D01*
X100543207Y-101532061D01*
X100445008Y-101834287D01*
X100385460Y-102146448D01*
X100385459Y-102146455D01*
X100365507Y-102463594D01*
X100365507Y-102463605D01*
X100385459Y-102780744D01*
X100385460Y-102780751D01*
X100401473Y-102864692D01*
X100429789Y-103013134D01*
X100445008Y-103092912D01*
X100543207Y-103395138D01*
X100543209Y-103395143D01*
X100678510Y-103682670D01*
X100678513Y-103682676D01*
X100848784Y-103950981D01*
X100848787Y-103950985D01*
X100848788Y-103950986D01*
X101051350Y-104195842D01*
X101283001Y-104413376D01*
X101283004Y-104413379D01*
X101493319Y-104566182D01*
X101535984Y-104621512D01*
X101541963Y-104691125D01*
X101509357Y-104752920D01*
X101448518Y-104787278D01*
X101420433Y-104790500D01*
X99398782Y-104790500D01*
X99331743Y-104770815D01*
X99311101Y-104754181D01*
X96855452Y-102298532D01*
X96794061Y-102233949D01*
X96794060Y-102233948D01*
X96794059Y-102233947D01*
X96756750Y-102207979D01*
X96743709Y-102198902D01*
X96739946Y-102196064D01*
X96692413Y-102157305D01*
X96692406Y-102157300D01*
X96661959Y-102141397D01*
X96655251Y-102137334D01*
X96627049Y-102117705D01*
X96627046Y-102117703D01*
X96627045Y-102117703D01*
X96627041Y-102117701D01*
X96570680Y-102093514D01*
X96566424Y-102091493D01*
X96512057Y-102063094D01*
X96512050Y-102063091D01*
X96512049Y-102063091D01*
X96506008Y-102061362D01*
X96479030Y-102053642D01*
X96471630Y-102051008D01*
X96440057Y-102037459D01*
X96440058Y-102037459D01*
X96379966Y-102025109D01*
X96375391Y-102023986D01*
X96316420Y-102007113D01*
X96316425Y-102007113D01*
X96282158Y-102004503D01*
X96274380Y-102003412D01*
X96240742Y-101996500D01*
X96240741Y-101996500D01*
X96179402Y-101996500D01*
X96174695Y-101996321D01*
X96169121Y-101995896D01*
X96113524Y-101991662D01*
X96093589Y-101994201D01*
X96079440Y-101996003D01*
X96071611Y-101996500D01*
X95641727Y-101996500D01*
X95616530Y-101993913D01*
X95605688Y-101991663D01*
X95445916Y-101958505D01*
X94659693Y-101795338D01*
X94598052Y-101762441D01*
X94563982Y-101701442D01*
X94568299Y-101631705D01*
X94609633Y-101575374D01*
X94613767Y-101572350D01*
X94724079Y-101495108D01*
X94891105Y-101328082D01*
X95026600Y-101134578D01*
X95126429Y-100920492D01*
X95126432Y-100920486D01*
X95183636Y-100707000D01*
X94286686Y-100707000D01*
X94312493Y-100666844D01*
X94353000Y-100528889D01*
X94353000Y-100385111D01*
X94312493Y-100247156D01*
X94286686Y-100207000D01*
X95183636Y-100207000D01*
X95183635Y-100206999D01*
X95126432Y-99993513D01*
X95126429Y-99993507D01*
X95026600Y-99779422D01*
X95026599Y-99779420D01*
X94891113Y-99585926D01*
X94891108Y-99585920D01*
X94724082Y-99418894D01*
X94543661Y-99292561D01*
X94500036Y-99237984D01*
X94492844Y-99168485D01*
X94524366Y-99106131D01*
X94561098Y-99079211D01*
X94773257Y-98977308D01*
X95657542Y-98552572D01*
X95707333Y-98540409D01*
X95729627Y-98539709D01*
X95748866Y-98534118D01*
X95767912Y-98530174D01*
X95787792Y-98527664D01*
X95831122Y-98510507D01*
X95836646Y-98508617D01*
X95840396Y-98507527D01*
X95881390Y-98495618D01*
X95898629Y-98485422D01*
X95916103Y-98476862D01*
X95934727Y-98469488D01*
X95934727Y-98469487D01*
X95934732Y-98469486D01*
X95972449Y-98442082D01*
X95977305Y-98438892D01*
X96017420Y-98415170D01*
X96031589Y-98400999D01*
X96046379Y-98388368D01*
X96062587Y-98376594D01*
X96092299Y-98340676D01*
X96096212Y-98336376D01*
X99452172Y-94980419D01*
X99513495Y-94946934D01*
X99539853Y-94944100D01*
X101443791Y-94944100D01*
X101510830Y-94963785D01*
G37*
%TD.AperFunction*%
%TA.AperFunction,Conductor*%
G36*
X93393507Y-100247156D02*
G01*
X93353000Y-100385111D01*
X93353000Y-100528889D01*
X93393507Y-100666844D01*
X93419314Y-100707000D01*
X91746686Y-100707000D01*
X91772493Y-100666844D01*
X91813000Y-100528889D01*
X91813000Y-100385111D01*
X91772493Y-100247156D01*
X91746686Y-100207000D01*
X93419314Y-100207000D01*
X93393507Y-100247156D01*
G37*
%TD.AperFunction*%
%TD*%
%TA.AperFunction,Conductor*%
%TO.N,/D3*%
G36*
X102556063Y-84562939D02*
G01*
X102556342Y-84563560D01*
X102895135Y-85379112D01*
X102895144Y-85388066D01*
X102895135Y-85388088D01*
X102556342Y-86203639D01*
X102550003Y-86209965D01*
X102541049Y-86209956D01*
X102540428Y-86209677D01*
X101102591Y-85511799D01*
X101096645Y-85505103D01*
X101096000Y-85501273D01*
X101096000Y-85265926D01*
X101099427Y-85257653D01*
X101102586Y-85255402D01*
X102540430Y-84557521D01*
X102549367Y-84556993D01*
X102556063Y-84562939D01*
G37*
%TD.AperFunction*%
%TD*%
%TA.AperFunction,Conductor*%
%TO.N,/D3*%
G36*
X92095838Y-92516441D02*
G01*
X92102163Y-92522780D01*
X92102388Y-92523370D01*
X92601031Y-93943748D01*
X92600539Y-93952690D01*
X92598265Y-93955897D01*
X92431897Y-94122265D01*
X92423624Y-94125692D01*
X92419748Y-94125031D01*
X90999370Y-93626388D01*
X90992699Y-93620415D01*
X90992207Y-93611473D01*
X90992423Y-93610905D01*
X91310438Y-92840783D01*
X91316759Y-92834448D01*
X92086884Y-92516432D01*
X92095838Y-92516441D01*
G37*
%TD.AperFunction*%
%TD*%
%TA.AperFunction,Conductor*%
%TO.N,VCC*%
G36*
X184716833Y-85723587D02*
G01*
X184723159Y-85729926D01*
X184723210Y-85738732D01*
X184148940Y-87176240D01*
X184142689Y-87182652D01*
X184138075Y-87183600D01*
X183653925Y-87183600D01*
X183645652Y-87180173D01*
X183643060Y-87176240D01*
X183068789Y-85738732D01*
X183068902Y-85729778D01*
X183075165Y-85723587D01*
X183891512Y-85384463D01*
X183900465Y-85384455D01*
X184716833Y-85723587D01*
G37*
%TD.AperFunction*%
%TD*%
%TA.AperFunction,Conductor*%
%TO.N,VCC*%
G36*
X184146348Y-86127027D02*
G01*
X184148940Y-86130960D01*
X184723210Y-87568467D01*
X184723097Y-87577421D01*
X184716833Y-87583612D01*
X183900488Y-87922735D01*
X183891534Y-87922744D01*
X183891512Y-87922735D01*
X183075166Y-87583612D01*
X183068840Y-87577273D01*
X183068789Y-87568468D01*
X183643060Y-86130958D01*
X183649311Y-86124548D01*
X183653925Y-86123600D01*
X184138075Y-86123600D01*
X184146348Y-86127027D01*
G37*
%TD.AperFunction*%
%TD*%
%TA.AperFunction,Conductor*%
%TO.N,VCC*%
G36*
X93527044Y-102215341D02*
G01*
X93531430Y-102220634D01*
X93852134Y-102992511D01*
X93852143Y-103001466D01*
X93852134Y-103001489D01*
X93531430Y-103773365D01*
X93525091Y-103779690D01*
X93518248Y-103780332D01*
X92162323Y-103498934D01*
X92154918Y-103493897D01*
X92153000Y-103487478D01*
X92153000Y-102506521D01*
X92156427Y-102498248D01*
X92162322Y-102495065D01*
X93518249Y-102213667D01*
X93527044Y-102215341D01*
G37*
%TD.AperFunction*%
%TD*%
%TA.AperFunction,Conductor*%
%TO.N,VCC*%
G36*
X93003677Y-102495065D02*
G01*
X93011082Y-102500102D01*
X93013000Y-102506521D01*
X93013000Y-103487478D01*
X93009573Y-103495751D01*
X93003677Y-103498934D01*
X91647751Y-103780332D01*
X91638955Y-103778658D01*
X91634569Y-103773365D01*
X91313865Y-103001489D01*
X91313856Y-102992534D01*
X91313865Y-102992511D01*
X91634570Y-102220632D01*
X91640908Y-102214309D01*
X91647749Y-102213667D01*
X93003677Y-102495065D01*
G37*
%TD.AperFunction*%
%TD*%
%TA.AperFunction,Conductor*%
%TO.N,VCC*%
G36*
X183075173Y-87583589D02*
G01*
X183892214Y-87921037D01*
X183898553Y-87927363D01*
X183898562Y-87927385D01*
X184236009Y-88744424D01*
X184236000Y-88753378D01*
X184229809Y-88759642D01*
X182807267Y-89370042D01*
X182798312Y-89370155D01*
X182794380Y-89367563D01*
X182452036Y-89025219D01*
X182448609Y-89016946D01*
X182449557Y-89012332D01*
X182557984Y-88759642D01*
X183059957Y-87589789D01*
X183066368Y-87583539D01*
X183075173Y-87583589D01*
G37*
%TD.AperFunction*%
%TD*%
%TA.AperFunction,Conductor*%
%TO.N,VCC*%
G36*
X106335885Y-97714563D02*
G01*
X106341268Y-97719087D01*
X107320910Y-99258524D01*
X107322460Y-99267343D01*
X107319312Y-99273078D01*
X106625478Y-99966912D01*
X106617205Y-99970339D01*
X106610924Y-99968510D01*
X105071487Y-98988868D01*
X105066347Y-98981535D01*
X105066953Y-98974532D01*
X105433438Y-98087382D01*
X105439762Y-98081046D01*
X106326932Y-97714554D01*
X106335885Y-97714563D01*
G37*
%TD.AperFunction*%
%TD*%
%TA.AperFunction,Conductor*%
%TO.N,VCC*%
G36*
X147153229Y-101984229D02*
G01*
X147159871Y-101990235D01*
X147161000Y-101995249D01*
X147161000Y-102478750D01*
X147157573Y-102487023D01*
X147153229Y-102489770D01*
X146006999Y-102898460D01*
X145998056Y-102898011D01*
X145992266Y-102891931D01*
X145970256Y-102838986D01*
X145721865Y-102241488D01*
X145721855Y-102232537D01*
X145992266Y-101582067D01*
X145998606Y-101575744D01*
X146006999Y-101575539D01*
X147153229Y-101984229D01*
G37*
%TD.AperFunction*%
%TD*%
%TA.AperFunction,Conductor*%
%TO.N,VCC*%
G36*
X145716247Y-101521192D02*
G01*
X145720884Y-101528853D01*
X145721018Y-101530604D01*
X145722000Y-102237000D01*
X145721018Y-102943395D01*
X145717580Y-102951664D01*
X145709302Y-102955079D01*
X145707551Y-102954945D01*
X144290933Y-102738517D01*
X144283272Y-102733880D01*
X144281000Y-102726951D01*
X144281000Y-101747048D01*
X144284427Y-101738775D01*
X144290931Y-101735482D01*
X145707552Y-101519054D01*
X145716247Y-101521192D01*
G37*
%TD.AperFunction*%
%TD*%
%TA.AperFunction,Conductor*%
%TO.N,VCC*%
G36*
X95543677Y-102495065D02*
G01*
X95551082Y-102500102D01*
X95553000Y-102506521D01*
X95553000Y-103487478D01*
X95549573Y-103495751D01*
X95543677Y-103498934D01*
X94187751Y-103780332D01*
X94178955Y-103778658D01*
X94174569Y-103773365D01*
X93853865Y-103001489D01*
X93853856Y-102992534D01*
X93853865Y-102992511D01*
X94174570Y-102220632D01*
X94180908Y-102214309D01*
X94187749Y-102213667D01*
X95543677Y-102495065D01*
G37*
%TD.AperFunction*%
%TD*%
%TA.AperFunction,Conductor*%
%TO.N,/R{slash}W*%
G36*
X94188836Y-97136791D02*
G01*
X94189413Y-97137049D01*
X95546366Y-97788814D01*
X95552339Y-97795484D01*
X95553000Y-97799360D01*
X95553000Y-98034639D01*
X95549573Y-98042912D01*
X95546366Y-98045186D01*
X94189413Y-98696950D01*
X94180471Y-98697442D01*
X94173800Y-98691469D01*
X94173542Y-98690892D01*
X93853865Y-97921489D01*
X93853856Y-97912534D01*
X93853865Y-97912511D01*
X94173542Y-97143107D01*
X94179881Y-97136782D01*
X94188836Y-97136791D01*
G37*
%TD.AperFunction*%
%TD*%
%TA.AperFunction,Conductor*%
%TO.N,/R{slash}W*%
G36*
X104615953Y-92663912D02*
G01*
X105432214Y-93001037D01*
X105438553Y-93007363D01*
X105438562Y-93007385D01*
X105775681Y-93823630D01*
X105775672Y-93832584D01*
X105769333Y-93838910D01*
X105768697Y-93839151D01*
X104258519Y-94362381D01*
X104249580Y-94361852D01*
X104246416Y-94359599D01*
X104080000Y-94193183D01*
X104076573Y-94184910D01*
X104077217Y-94181083D01*
X104600448Y-92670901D01*
X104606394Y-92664206D01*
X104615333Y-92663677D01*
X104615953Y-92663912D01*
G37*
%TD.AperFunction*%
%TD*%
%TA.AperFunction,Conductor*%
%TO.N,/D2*%
G36*
X104615953Y-82503912D02*
G01*
X105432214Y-82841037D01*
X105438553Y-82847363D01*
X105438562Y-82847385D01*
X105775681Y-83663630D01*
X105775672Y-83672584D01*
X105769333Y-83678910D01*
X105768697Y-83679151D01*
X104258519Y-84202381D01*
X104249580Y-84201852D01*
X104246416Y-84199599D01*
X104080000Y-84033183D01*
X104076573Y-84024910D01*
X104077217Y-84021083D01*
X104600448Y-82510901D01*
X104606394Y-82504206D01*
X104615333Y-82503677D01*
X104615953Y-82503912D01*
G37*
%TD.AperFunction*%
%TD*%
%TA.AperFunction,Conductor*%
%TO.N,/D2*%
G36*
X94188900Y-92056636D02*
G01*
X94189315Y-92056817D01*
X95411179Y-92623288D01*
X95414531Y-92625630D01*
X95579094Y-92790193D01*
X95582521Y-92798466D01*
X95579094Y-92806739D01*
X95576705Y-92808579D01*
X94189838Y-93615572D01*
X94180964Y-93616771D01*
X94173841Y-93611343D01*
X94173153Y-93609957D01*
X93854154Y-92842188D01*
X93854146Y-92833239D01*
X94173611Y-92062960D01*
X94179945Y-92056632D01*
X94188900Y-92056636D01*
G37*
%TD.AperFunction*%
%TD*%
M02*
