%TF.GenerationSoftware,KiCad,Pcbnew,7.0.9*%
%TF.CreationDate,2024-01-07T02:48:38+09:00*%
%TF.ProjectId,Pmod_SC1602,506d6f64-5f53-4433-9136-30322e6b6963,rev?*%
%TF.SameCoordinates,Original*%
%TF.FileFunction,Soldermask,Top*%
%TF.FilePolarity,Negative*%
%FSLAX46Y46*%
G04 Gerber Fmt 4.6, Leading zero omitted, Abs format (unit mm)*
G04 Created by KiCad (PCBNEW 7.0.9) date 2024-01-07 02:48:38*
%MOMM*%
%LPD*%
G01*
G04 APERTURE LIST*
G04 Aperture macros list*
%AMRoundRect*
0 Rectangle with rounded corners*
0 $1 Rounding radius*
0 $2 $3 $4 $5 $6 $7 $8 $9 X,Y pos of 4 corners*
0 Add a 4 corners polygon primitive as box body*
4,1,4,$2,$3,$4,$5,$6,$7,$8,$9,$2,$3,0*
0 Add four circle primitives for the rounded corners*
1,1,$1+$1,$2,$3*
1,1,$1+$1,$4,$5*
1,1,$1+$1,$6,$7*
1,1,$1+$1,$8,$9*
0 Add four rect primitives between the rounded corners*
20,1,$1+$1,$2,$3,$4,$5,0*
20,1,$1+$1,$4,$5,$6,$7,0*
20,1,$1+$1,$6,$7,$8,$9,0*
20,1,$1+$1,$8,$9,$2,$3,0*%
%AMFreePoly0*
4,1,6,1.000000,0.000000,0.500000,-0.750000,-0.500000,-0.750000,-0.500000,0.750000,0.500000,0.750000,1.000000,0.000000,1.000000,0.000000,$1*%
%AMFreePoly1*
4,1,6,0.500000,-0.750000,-0.650000,-0.750000,-0.150000,0.000000,-0.650000,0.750000,0.500000,0.750000,0.500000,-0.750000,0.500000,-0.750000,$1*%
%AMFreePoly2*
4,1,19,0.500000,-0.750000,0.000000,-0.750000,0.000000,-0.744911,-0.071157,-0.744911,-0.207708,-0.704816,-0.327430,-0.627875,-0.420627,-0.520320,-0.479746,-0.390866,-0.500000,-0.250000,-0.500000,0.250000,-0.479746,0.390866,-0.420627,0.520320,-0.327430,0.627875,-0.207708,0.704816,-0.071157,0.744911,0.000000,0.744911,0.000000,0.750000,0.500000,0.750000,0.500000,-0.750000,0.500000,-0.750000,
$1*%
%AMFreePoly3*
4,1,19,0.000000,0.744911,0.071157,0.744911,0.207708,0.704816,0.327430,0.627875,0.420627,0.520320,0.479746,0.390866,0.500000,0.250000,0.500000,-0.250000,0.479746,-0.390866,0.420627,-0.520320,0.327430,-0.627875,0.207708,-0.704816,0.071157,-0.744911,0.000000,-0.744911,0.000000,-0.750000,-0.500000,-0.750000,-0.500000,0.750000,0.000000,0.750000,0.000000,0.744911,0.000000,0.744911,
$1*%
G04 Aperture macros list end*
%ADD10RoundRect,0.237500X0.300000X0.237500X-0.300000X0.237500X-0.300000X-0.237500X0.300000X-0.237500X0*%
%ADD11FreePoly0,0.000000*%
%ADD12FreePoly1,0.000000*%
%ADD13FreePoly2,0.000000*%
%ADD14FreePoly3,0.000000*%
%ADD15R,1.700000X1.700000*%
%ADD16O,1.700000X1.700000*%
%ADD17R,1.800000X0.800000*%
%ADD18FreePoly0,180.000000*%
%ADD19FreePoly1,180.000000*%
%ADD20R,1.800000X1.800000*%
%ADD21C,1.800000*%
%ADD22C,4.050000*%
%ADD23FreePoly2,180.000000*%
%ADD24FreePoly3,180.000000*%
%ADD25RoundRect,0.237500X-0.250000X-0.237500X0.250000X-0.237500X0.250000X0.237500X-0.250000X0.237500X0*%
%ADD26RoundRect,0.237500X-0.300000X-0.237500X0.300000X-0.237500X0.300000X0.237500X-0.300000X0.237500X0*%
%ADD27C,1.440000*%
G04 APERTURE END LIST*
D10*
%TO.C,C2*%
X170026500Y-97536000D03*
X168301500Y-97536000D03*
%TD*%
D11*
%TO.C,JP1*%
X114046000Y-93980000D03*
D12*
X115496000Y-93980000D03*
%TD*%
D13*
%TO.C,JP3*%
X114158000Y-89408000D03*
D14*
X115458000Y-89408000D03*
%TD*%
D15*
%TO.C,J1*%
X93853000Y-90297000D03*
D16*
X93853000Y-92837000D03*
X93853000Y-95377000D03*
X93853000Y-97917000D03*
X93853000Y-100457000D03*
X93853000Y-102997000D03*
X91313000Y-90297000D03*
X91313000Y-92837000D03*
X91313000Y-95377000D03*
X91313000Y-97917000D03*
X91313000Y-100457000D03*
X91313000Y-102997000D03*
%TD*%
D17*
%TO.C,Q2*%
X175134000Y-94554000D03*
X175134000Y-96454000D03*
X178434000Y-95504000D03*
%TD*%
D13*
%TO.C,JP4*%
X114158000Y-79756000D03*
D14*
X115458000Y-79756000D03*
%TD*%
D18*
%TO.C,JP6*%
X178398000Y-89027000D03*
D19*
X176948000Y-89027000D03*
%TD*%
D20*
%TO.C,DS1*%
X105436000Y-98083600D03*
D21*
X102896000Y-98083600D03*
X105436000Y-95543600D03*
X102896000Y-95543600D03*
X105436000Y-93003600D03*
X102896000Y-93003600D03*
X105436000Y-90463600D03*
X102896000Y-90463600D03*
X105436000Y-87923600D03*
X102896000Y-87923600D03*
X105436000Y-85383600D03*
X102896000Y-85383600D03*
X105436000Y-82843600D03*
X102896000Y-82843600D03*
X183896000Y-85383600D03*
X183896000Y-87923600D03*
X183896000Y-93003600D03*
X183896000Y-95543600D03*
D22*
X102896000Y-102463600D03*
X102896000Y-78463600D03*
X183896000Y-78463600D03*
X183896000Y-102463600D03*
%TD*%
D23*
%TO.C,JP5*%
X115600000Y-98552000D03*
D24*
X114300000Y-98552000D03*
%TD*%
D25*
%TO.C,R2*%
X168251500Y-94488000D03*
X170076500Y-94488000D03*
%TD*%
D26*
%TO.C,C1*%
X118872000Y-102616000D03*
X120597000Y-102616000D03*
%TD*%
D15*
%TO.C,REF\u002A\u002A*%
X152019000Y-99695000D03*
%TD*%
D25*
%TO.C,R1*%
X113792000Y-102616000D03*
X115617000Y-102616000D03*
%TD*%
D27*
%TO.C,RV1*%
X145721000Y-97157000D03*
X145721000Y-99697000D03*
X145721000Y-102237000D03*
%TD*%
D18*
%TO.C,JP2*%
X115533000Y-84328000D03*
D19*
X114083000Y-84328000D03*
%TD*%
M02*
