M48
; DRILL file {KiCad 7.0.2} date Thu Aug 10 02:42:38 2023
; FORMAT={-:-/ absolute / inch / decimal}
; #@! TF.CreationDate,2023-08-10T02:42:38+09:00
; #@! TF.GenerationSoftware,Kicad,Pcbnew,7.0.2
; #@! TF.FileFunction,NonPlated,1,2,NPTH
FMAT,2
INCH
; #@! TA.AperFunction,NonPlated,NPTH,ComponentDrill
T1C0.0197
%
G90
G05
T1
X5.1242Y-1.5953
X5.1242Y-1.6583
X5.1242Y-2.474
X5.1242Y-2.537
X5.1242Y-3.3528
X5.1242Y-3.4157
X5.1587Y-1.5953
X5.1587Y-1.6583
X5.1587Y-2.474
X5.1587Y-2.537
X5.1587Y-3.3528
X5.1587Y-3.4157
X5.1931Y-1.5953
X5.1931Y-1.6583
X5.1931Y-2.474
X5.1931Y-2.537
X5.1931Y-3.3528
X5.1931Y-3.4157
X5.2276Y-1.5953
X5.2276Y-1.6583
X5.2276Y-2.474
X5.2276Y-2.537
X5.2276Y-3.3528
X5.2276Y-3.4157
X5.262Y-1.5953
X5.262Y-1.6583
X5.262Y-2.474
X5.262Y-2.537
X5.262Y-3.3528
X5.262Y-3.4157
X6.4309Y-1.5953
X6.4309Y-1.6583
X6.4309Y-2.474
X6.4309Y-2.537
X6.4309Y-3.3528
X6.4309Y-3.4157
X6.4653Y-1.5953
X6.4653Y-1.6583
X6.4653Y-2.474
X6.4653Y-2.537
X6.4653Y-3.3528
X6.4653Y-3.4157
X6.4998Y-1.5953
X6.4998Y-1.6583
X6.4998Y-2.474
X6.4998Y-2.537
X6.4998Y-3.3528
X6.4998Y-3.4157
X6.5342Y-1.5953
X6.5342Y-1.6583
X6.5342Y-2.474
X6.5342Y-2.537
X6.5342Y-3.3528
X6.5342Y-3.4157
X6.5687Y-1.5953
X6.5687Y-1.6583
X6.5687Y-2.474
X6.5687Y-2.537
X6.5687Y-3.3528
X6.5687Y-3.4157
T0
M30
