M48
; DRILL file {KiCad 7.0.2} date Thu Aug 10 02:42:38 2023
; FORMAT={-:-/ absolute / inch / decimal}
; #@! TF.CreationDate,2023-08-10T02:42:38+09:00
; #@! TF.GenerationSoftware,Kicad,Pcbnew,7.0.2
; #@! TF.FileFunction,Plated,1,2,PTH
FMAT,2
INCH
; #@! TA.AperFunction,Plated,PTH,ViaDrill
T1C0.0157
; #@! TA.AperFunction,Plated,PTH,ViaDrill
T2C0.0197
; #@! TA.AperFunction,Plated,PTH,ComponentDrill
T3C0.0276
; #@! TA.AperFunction,Plated,PTH,ComponentDrill
T4C0.0394
%
G90
G05
T1
X4.3865Y-1.0624
X4.3865Y-1.9411
X4.3865Y-2.8199
X4.3865Y-3.6986
X4.4265Y-0.9324
X4.4265Y-1.8111
X4.4265Y-2.6899
X4.4265Y-3.5686
X4.4515Y-1.1824
X4.4515Y-2.0611
X4.4515Y-2.9399
X4.4515Y-3.8186
X4.5115Y-1.4724
X4.5115Y-2.3511
X4.5115Y-3.2299
X4.5115Y-4.1086
X4.5915Y-1.4824
X4.5915Y-2.3611
X4.5915Y-3.2399
X4.5915Y-4.1186
X4.7165Y-0.8574
X4.7165Y-1.7361
X4.7165Y-2.6149
X4.7165Y-3.4936
X4.7315Y-1.4924
X4.7315Y-2.3711
X4.7315Y-3.2499
X4.7315Y-4.1286
X4.9915Y-1.2324
X4.9915Y-2.1111
X4.9915Y-2.9899
X4.9915Y-3.8686
X5.0015Y-1.4924
X5.0015Y-2.3711
X5.0015Y-3.2499
X5.0015Y-4.1286
X5.0215Y-1.4224
X5.0215Y-2.3011
X5.0215Y-3.1799
X5.0215Y-4.0586
X5.0565Y-1.1774
X5.0565Y-2.0561
X5.0565Y-2.9349
X5.0565Y-3.8136
X5.1115Y-1.3224
X5.1115Y-2.2011
X5.1115Y-3.0799
X5.1115Y-3.9586
X5.1315Y-1.0824
X5.1315Y-1.9611
X5.1315Y-2.8399
X5.1315Y-3.7186
X5.1515Y-1.1824
X5.1515Y-2.0611
X5.1515Y-2.9399
X5.1515Y-3.8186
X5.2115Y-1.3024
X5.2115Y-2.1811
X5.2115Y-3.0599
X5.2115Y-3.9386
X5.2415Y-1.0824
X5.2415Y-1.9611
X5.2415Y-2.8399
X5.2415Y-3.7186
X5.2815Y-1.2724
X5.2815Y-2.1511
X5.2815Y-3.0299
X5.2815Y-3.9086
X5.4315Y-1.1174
X5.4315Y-1.9961
X5.4315Y-2.8749
X5.4315Y-3.7536
X5.5015Y-1.0624
X5.5015Y-1.9411
X5.5015Y-2.8199
X5.5015Y-3.6986
X5.5715Y-1.0074
X5.5715Y-1.8861
X5.5715Y-2.7649
X5.5715Y-3.6436
X5.6415Y-0.9574
X5.6415Y-1.8361
X5.6415Y-2.7149
X5.6415Y-3.5936
X5.6515Y-1.2724
X5.6515Y-2.1511
X5.6515Y-3.0299
X5.6515Y-3.9086
X5.7965Y-1.0074
X5.7965Y-1.8861
X5.7965Y-2.7649
X5.7965Y-3.6436
X5.9865Y-1.2074
X5.9865Y-1.4824
X5.9865Y-2.0861
X5.9865Y-2.3611
X5.9865Y-2.9649
X5.9865Y-3.2399
X5.9865Y-3.8436
X5.9865Y-4.1186
X6.7815Y-1.2074
X6.7815Y-1.4824
X6.7815Y-2.0861
X6.7815Y-2.3611
X6.7815Y-2.9649
X6.7815Y-3.2399
X6.7815Y-3.8436
X6.7815Y-4.1186
X7.1465Y-1.2374
X7.1465Y-2.1161
X7.1465Y-2.9949
X7.1465Y-3.8736
X7.3015Y-1.2774
X7.3015Y-2.1561
X7.3015Y-3.0349
X7.3015Y-3.9136
X7.3365Y-1.0074
X7.3365Y-1.8861
X7.3365Y-2.7649
X7.3365Y-3.6436
X7.4015Y-1.3074
X7.4015Y-2.1861
X7.4015Y-3.0649
X7.4015Y-3.9436
X7.5015Y-1.3624
X7.5015Y-2.2411
X7.5015Y-3.1199
X7.5015Y-3.9986
X7.5415Y-1.2524
X7.5415Y-2.1311
X7.5415Y-3.0099
X7.5415Y-3.8886
X7.6815Y-1.0974
X7.6815Y-1.9761
X7.6815Y-2.8549
X7.6815Y-3.7336
T2
X4.2515Y-1.1324
X4.2515Y-2.0111
X4.2515Y-2.8899
X4.2515Y-3.7686
T3
X5.1965Y-0.8874
X5.1965Y-1.4874
X5.1965Y-1.7661
X5.1965Y-2.3661
X5.1965Y-2.6449
X5.1965Y-3.2449
X5.1965Y-3.5236
X5.1965Y-4.1236
X5.2965Y-0.8874
X5.2965Y-1.4874
X5.2965Y-1.7661
X5.2965Y-2.3661
X5.2965Y-2.6449
X5.2965Y-3.2449
X5.2965Y-3.5236
X5.2965Y-4.1236
X5.3965Y-0.8874
X5.3965Y-1.4874
X5.3965Y-1.7661
X5.3965Y-2.3661
X5.3965Y-2.6449
X5.3965Y-3.2449
X5.3965Y-3.5236
X5.3965Y-4.1236
X5.4965Y-0.8874
X5.4965Y-1.4874
X5.4965Y-1.7661
X5.4965Y-2.3661
X5.4965Y-2.6449
X5.4965Y-3.2449
X5.4965Y-3.5236
X5.4965Y-4.1236
X5.5965Y-0.8874
X5.5965Y-1.4874
X5.5965Y-1.7661
X5.5965Y-2.3661
X5.5965Y-2.6449
X5.5965Y-3.2449
X5.5965Y-3.5236
X5.5965Y-4.1236
X5.6965Y-0.8874
X5.6965Y-1.4874
X5.6965Y-1.7661
X5.6965Y-2.3661
X5.6965Y-2.6449
X5.6965Y-3.2449
X5.6965Y-3.5236
X5.6965Y-4.1236
X7.2015Y-0.8874
X7.2015Y-1.4874
X7.2015Y-1.7661
X7.2015Y-2.3661
X7.2015Y-2.6449
X7.2015Y-3.2449
X7.2015Y-3.5236
X7.2015Y-4.1236
X7.3015Y-0.8874
X7.3015Y-1.4874
X7.3015Y-1.7661
X7.3015Y-2.3661
X7.3015Y-2.6449
X7.3015Y-3.2449
X7.3015Y-3.5236
X7.3015Y-4.1236
X7.4015Y-0.8874
X7.4015Y-1.4874
X7.4015Y-1.7661
X7.4015Y-2.3661
X7.4015Y-2.6449
X7.4015Y-3.2449
X7.4015Y-3.5236
X7.4015Y-4.1236
X7.5015Y-0.8874
X7.5015Y-1.4874
X7.5015Y-1.7661
X7.5015Y-2.3661
X7.5015Y-2.6449
X7.5015Y-3.2449
X7.5015Y-3.5236
X7.5015Y-4.1236
X7.6015Y-0.8874
X7.6015Y-1.4874
X7.6015Y-1.7661
X7.6015Y-2.3661
X7.6015Y-2.6449
X7.6015Y-3.2449
X7.6015Y-3.5236
X7.6015Y-4.1236
X7.7015Y-0.8874
X7.7015Y-1.4874
X7.7015Y-1.7661
X7.7015Y-2.3661
X7.7015Y-2.6449
X7.7015Y-3.2449
X7.7015Y-3.5236
X7.7015Y-4.1236
T4
X4.0515Y-0.9424
X4.0515Y-1.0424
X4.0515Y-1.1424
X4.0515Y-1.2424
X4.0515Y-1.3424
X4.0515Y-1.4424
X4.0515Y-1.8211
X4.0515Y-1.9211
X4.0515Y-2.0211
X4.0515Y-2.1211
X4.0515Y-2.2211
X4.0515Y-2.3211
X4.0515Y-2.6999
X4.0515Y-2.7999
X4.0515Y-2.8999
X4.0515Y-2.9999
X4.0515Y-3.0999
X4.0515Y-3.1999
X4.0515Y-3.5786
X4.0515Y-3.6786
X4.0515Y-3.7786
X4.0515Y-3.8786
X4.0515Y-3.9786
X4.0515Y-4.0786
X4.1515Y-0.9424
X4.1515Y-1.0424
X4.1515Y-1.1424
X4.1515Y-1.2424
X4.1515Y-1.3424
X4.1515Y-1.4424
X4.1515Y-1.8211
X4.1515Y-1.9211
X4.1515Y-2.0211
X4.1515Y-2.1211
X4.1515Y-2.2211
X4.1515Y-2.3211
X4.1515Y-2.6999
X4.1515Y-2.7999
X4.1515Y-2.8999
X4.1515Y-2.9999
X4.1515Y-3.0999
X4.1515Y-3.1999
X4.1515Y-3.5786
X4.1515Y-3.6786
X4.1515Y-3.7786
X4.1515Y-3.8786
X4.1515Y-3.9786
X4.1515Y-4.0786
T0
M30
