%TF.GenerationSoftware,KiCad,Pcbnew,7.0.2*%
%TF.CreationDate,2023-08-10T02:42:33+09:00*%
%TF.ProjectId,Pmod_7LED_8digit,506d6f64-5f37-44c4-9544-5f3864696769,rev?*%
%TF.SameCoordinates,Original*%
%TF.FileFunction,Soldermask,Bot*%
%TF.FilePolarity,Negative*%
%FSLAX46Y46*%
G04 Gerber Fmt 4.6, Leading zero omitted, Abs format (unit mm)*
G04 Created by KiCad (PCBNEW 7.0.2) date 2023-08-10 02:42:33*
%MOMM*%
%LPD*%
G01*
G04 APERTURE LIST*
G04 Aperture macros list*
%AMRoundRect*
0 Rectangle with rounded corners*
0 $1 Rounding radius*
0 $2 $3 $4 $5 $6 $7 $8 $9 X,Y pos of 4 corners*
0 Add a 4 corners polygon primitive as box body*
4,1,4,$2,$3,$4,$5,$6,$7,$8,$9,$2,$3,0*
0 Add four circle primitives for the rounded corners*
1,1,$1+$1,$2,$3*
1,1,$1+$1,$4,$5*
1,1,$1+$1,$6,$7*
1,1,$1+$1,$8,$9*
0 Add four rect primitives between the rounded corners*
20,1,$1+$1,$2,$3,$4,$5,0*
20,1,$1+$1,$4,$5,$6,$7,0*
20,1,$1+$1,$6,$7,$8,$9,0*
20,1,$1+$1,$8,$9,$2,$3,0*%
G04 Aperture macros list end*
%ADD10R,1.500000X0.600000*%
%ADD11RoundRect,0.237500X-0.237500X0.300000X-0.237500X-0.300000X0.237500X-0.300000X0.237500X0.300000X0*%
%ADD12C,0.500000*%
%ADD13R,1.100000X1.100000*%
%ADD14C,1.100000*%
%ADD15R,1.700000X1.700000*%
%ADD16O,1.700000X1.700000*%
G04 APERTURE END LIST*
D10*
%TO.C,U2*%
X124237000Y-92802000D03*
X124237000Y-94072000D03*
X124237000Y-95342000D03*
X124237000Y-96612000D03*
X124237000Y-97882000D03*
X124237000Y-99152000D03*
X124237000Y-100422000D03*
X124237000Y-101692000D03*
X117137000Y-101692000D03*
X117137000Y-100422000D03*
X117137000Y-99152000D03*
X117137000Y-97882000D03*
X117137000Y-96612000D03*
X117137000Y-95342000D03*
X117137000Y-94072000D03*
X117137000Y-92802000D03*
%TD*%
%TO.C,U2*%
X124237000Y-70482000D03*
X124237000Y-71752000D03*
X124237000Y-73022000D03*
X124237000Y-74292000D03*
X124237000Y-75562000D03*
X124237000Y-76832000D03*
X124237000Y-78102000D03*
X124237000Y-79372000D03*
X117137000Y-79372000D03*
X117137000Y-78102000D03*
X117137000Y-76832000D03*
X117137000Y-75562000D03*
X117137000Y-74292000D03*
X117137000Y-73022000D03*
X117137000Y-71752000D03*
X117137000Y-70482000D03*
%TD*%
%TO.C,U2*%
X124237000Y-48162000D03*
X124237000Y-49432000D03*
X124237000Y-50702000D03*
X124237000Y-51972000D03*
X124237000Y-53242000D03*
X124237000Y-54512000D03*
X124237000Y-55782000D03*
X124237000Y-57052000D03*
X117137000Y-57052000D03*
X117137000Y-55782000D03*
X117137000Y-54512000D03*
X117137000Y-53242000D03*
X117137000Y-51972000D03*
X117137000Y-50702000D03*
X117137000Y-49432000D03*
X117137000Y-48162000D03*
%TD*%
D11*
%TO.C,C2*%
X116750000Y-66444500D03*
X116750000Y-68169500D03*
%TD*%
%TO.C,C2*%
X116750000Y-88764500D03*
X116750000Y-90489500D03*
%TD*%
%TO.C,C2*%
X116750000Y-21804500D03*
X116750000Y-23529500D03*
%TD*%
D10*
%TO.C,U2*%
X124237000Y-25842000D03*
X124237000Y-27112000D03*
X124237000Y-28382000D03*
X124237000Y-29652000D03*
X124237000Y-30922000D03*
X124237000Y-32192000D03*
X124237000Y-33462000D03*
X124237000Y-34732000D03*
X117137000Y-34732000D03*
X117137000Y-33462000D03*
X117137000Y-32192000D03*
X117137000Y-30922000D03*
X117137000Y-29652000D03*
X117137000Y-28382000D03*
X117137000Y-27112000D03*
X117137000Y-25842000D03*
%TD*%
D11*
%TO.C,C2*%
X116750000Y-44124500D03*
X116750000Y-45849500D03*
%TD*%
D12*
%TO.C,REF\u002A\u002A*%
X165094666Y-42120000D03*
%TD*%
%TO.C,REF\u002A\u002A*%
X133655334Y-86760000D03*
%TD*%
%TO.C,REF\u002A\u002A*%
X131905334Y-85160000D03*
%TD*%
%TO.C,REF\u002A\u002A*%
X130155334Y-85160000D03*
%TD*%
D13*
%TO.C,DS1*%
X182917000Y-82420000D03*
D14*
X185457000Y-82420000D03*
X187997000Y-82420000D03*
X190537000Y-82420000D03*
X193077000Y-82420000D03*
X195617000Y-82420000D03*
X195617000Y-67180000D03*
X193077000Y-67180000D03*
X190537000Y-67180000D03*
X187997000Y-67180000D03*
X185457000Y-67180000D03*
X182917000Y-67180000D03*
%TD*%
D13*
%TO.C,DS2*%
X131990000Y-104740000D03*
D14*
X134530000Y-104740000D03*
X137070000Y-104740000D03*
X139610000Y-104740000D03*
X142150000Y-104740000D03*
X144690000Y-104740000D03*
X144690000Y-89500000D03*
X142150000Y-89500000D03*
X139610000Y-89500000D03*
X137070000Y-89500000D03*
X134530000Y-89500000D03*
X131990000Y-89500000D03*
%TD*%
D12*
%TO.C,REF\u002A\u002A*%
X164219666Y-85160000D03*
%TD*%
%TO.C,REF\u002A\u002A*%
X165094666Y-40520000D03*
%TD*%
D13*
%TO.C,DS2*%
X131990000Y-82420000D03*
D14*
X134530000Y-82420000D03*
X137070000Y-82420000D03*
X139610000Y-82420000D03*
X142150000Y-82420000D03*
X144690000Y-82420000D03*
X144690000Y-67180000D03*
X142150000Y-67180000D03*
X139610000Y-67180000D03*
X137070000Y-67180000D03*
X134530000Y-67180000D03*
X131990000Y-67180000D03*
%TD*%
D12*
%TO.C,REF\u002A\u002A*%
X131030334Y-62840000D03*
%TD*%
%TO.C,REF\u002A\u002A*%
X163344666Y-62840000D03*
%TD*%
D13*
%TO.C,DS2*%
X131990000Y-60100000D03*
D14*
X134530000Y-60100000D03*
X137070000Y-60100000D03*
X139610000Y-60100000D03*
X142150000Y-60100000D03*
X144690000Y-60100000D03*
X144690000Y-44860000D03*
X142150000Y-44860000D03*
X139610000Y-44860000D03*
X137070000Y-44860000D03*
X134530000Y-44860000D03*
X131990000Y-44860000D03*
%TD*%
D12*
%TO.C,REF\u002A\u002A*%
X131030334Y-85160000D03*
%TD*%
%TO.C,REF\u002A\u002A*%
X131905334Y-42120000D03*
%TD*%
%TO.C,REF\u002A\u002A*%
X166844666Y-42120000D03*
%TD*%
%TO.C,REF\u002A\u002A*%
X164219666Y-64440000D03*
%TD*%
%TO.C,REF\u002A\u002A*%
X131030334Y-64440000D03*
%TD*%
D13*
%TO.C,DS2*%
X131990000Y-37780000D03*
D14*
X134530000Y-37780000D03*
X137070000Y-37780000D03*
X139610000Y-37780000D03*
X142150000Y-37780000D03*
X144690000Y-37780000D03*
X144690000Y-22540000D03*
X142150000Y-22540000D03*
X139610000Y-22540000D03*
X137070000Y-22540000D03*
X134530000Y-22540000D03*
X131990000Y-22540000D03*
%TD*%
D12*
%TO.C,REF\u002A\u002A*%
X132780334Y-62840000D03*
%TD*%
%TO.C,REF\u002A\u002A*%
X163344666Y-40520000D03*
%TD*%
D13*
%TO.C,DS1*%
X182917000Y-37780000D03*
D14*
X185457000Y-37780000D03*
X187997000Y-37780000D03*
X190537000Y-37780000D03*
X193077000Y-37780000D03*
X195617000Y-37780000D03*
X195617000Y-22540000D03*
X193077000Y-22540000D03*
X190537000Y-22540000D03*
X187997000Y-22540000D03*
X185457000Y-22540000D03*
X182917000Y-22540000D03*
%TD*%
D12*
%TO.C,REF\u002A\u002A*%
X164219666Y-86760000D03*
%TD*%
%TO.C,REF\u002A\u002A*%
X133655334Y-42120000D03*
%TD*%
%TO.C,REF\u002A\u002A*%
X132780334Y-86760000D03*
%TD*%
%TO.C,REF\u002A\u002A*%
X130155334Y-42120000D03*
%TD*%
%TO.C,REF\u002A\u002A*%
X166844666Y-86760000D03*
%TD*%
%TO.C,REF\u002A\u002A*%
X165969666Y-64440000D03*
%TD*%
D13*
%TO.C,DS1*%
X182917000Y-104740000D03*
D14*
X185457000Y-104740000D03*
X187997000Y-104740000D03*
X190537000Y-104740000D03*
X193077000Y-104740000D03*
X195617000Y-104740000D03*
X195617000Y-89500000D03*
X193077000Y-89500000D03*
X190537000Y-89500000D03*
X187997000Y-89500000D03*
X185457000Y-89500000D03*
X182917000Y-89500000D03*
%TD*%
D12*
%TO.C,REF\u002A\u002A*%
X132780334Y-64440000D03*
%TD*%
D15*
%TO.C,J1*%
X105447000Y-23937000D03*
D16*
X105447000Y-26477000D03*
X105447000Y-29017000D03*
X105447000Y-31557000D03*
X105447000Y-34097000D03*
X105447000Y-36637000D03*
X102907000Y-23937000D03*
X102907000Y-26477000D03*
X102907000Y-29017000D03*
X102907000Y-31557000D03*
X102907000Y-34097000D03*
X102907000Y-36637000D03*
%TD*%
D12*
%TO.C,REF\u002A\u002A*%
X131905334Y-40520000D03*
%TD*%
D15*
%TO.C,J1*%
X105447000Y-90897000D03*
D16*
X105447000Y-93437000D03*
X105447000Y-95977000D03*
X105447000Y-98517000D03*
X105447000Y-101057000D03*
X105447000Y-103597000D03*
X102907000Y-90897000D03*
X102907000Y-93437000D03*
X102907000Y-95977000D03*
X102907000Y-98517000D03*
X102907000Y-101057000D03*
X102907000Y-103597000D03*
%TD*%
D12*
%TO.C,REF\u002A\u002A*%
X131030334Y-86760000D03*
%TD*%
%TO.C,REF\u002A\u002A*%
X133655334Y-85160000D03*
%TD*%
%TO.C,REF\u002A\u002A*%
X133655334Y-62840000D03*
%TD*%
%TO.C,REF\u002A\u002A*%
X165969666Y-86760000D03*
%TD*%
D15*
%TO.C,J1*%
X105447000Y-46257000D03*
D16*
X105447000Y-48797000D03*
X105447000Y-51337000D03*
X105447000Y-53877000D03*
X105447000Y-56417000D03*
X105447000Y-58957000D03*
X102907000Y-46257000D03*
X102907000Y-48797000D03*
X102907000Y-51337000D03*
X102907000Y-53877000D03*
X102907000Y-56417000D03*
X102907000Y-58957000D03*
%TD*%
D12*
%TO.C,REF\u002A\u002A*%
X132780334Y-42120000D03*
%TD*%
%TO.C,REF\u002A\u002A*%
X165969666Y-62840000D03*
%TD*%
%TO.C,REF\u002A\u002A*%
X164219666Y-62840000D03*
%TD*%
%TO.C,REF\u002A\u002A*%
X165094666Y-64440000D03*
%TD*%
%TO.C,REF\u002A\u002A*%
X131905334Y-86760000D03*
%TD*%
%TO.C,REF\u002A\u002A*%
X131030334Y-42120000D03*
%TD*%
%TO.C,REF\u002A\u002A*%
X163344666Y-64440000D03*
%TD*%
%TO.C,REF\u002A\u002A*%
X131030334Y-40520000D03*
%TD*%
D15*
%TO.C,J1*%
X105447000Y-68577000D03*
D16*
X105447000Y-71117000D03*
X105447000Y-73657000D03*
X105447000Y-76197000D03*
X105447000Y-78737000D03*
X105447000Y-81277000D03*
X102907000Y-68577000D03*
X102907000Y-71117000D03*
X102907000Y-73657000D03*
X102907000Y-76197000D03*
X102907000Y-78737000D03*
X102907000Y-81277000D03*
%TD*%
D12*
%TO.C,REF\u002A\u002A*%
X165094666Y-86760000D03*
%TD*%
%TO.C,REF\u002A\u002A*%
X130155334Y-86760000D03*
%TD*%
%TO.C,REF\u002A\u002A*%
X163344666Y-42120000D03*
%TD*%
%TO.C,REF\u002A\u002A*%
X133655334Y-40520000D03*
%TD*%
%TO.C,REF\u002A\u002A*%
X166844666Y-64440000D03*
%TD*%
%TO.C,REF\u002A\u002A*%
X132780334Y-85160000D03*
%TD*%
D13*
%TO.C,DS1*%
X182917000Y-60100000D03*
D14*
X185457000Y-60100000D03*
X187997000Y-60100000D03*
X190537000Y-60100000D03*
X193077000Y-60100000D03*
X195617000Y-60100000D03*
X195617000Y-44860000D03*
X193077000Y-44860000D03*
X190537000Y-44860000D03*
X187997000Y-44860000D03*
X185457000Y-44860000D03*
X182917000Y-44860000D03*
%TD*%
D12*
%TO.C,REF\u002A\u002A*%
X166844666Y-40520000D03*
%TD*%
%TO.C,REF\u002A\u002A*%
X130155334Y-40520000D03*
%TD*%
%TO.C,REF\u002A\u002A*%
X132780334Y-40520000D03*
%TD*%
%TO.C,REF\u002A\u002A*%
X165969666Y-40520000D03*
%TD*%
%TO.C,REF\u002A\u002A*%
X133655334Y-64440000D03*
%TD*%
%TO.C,REF\u002A\u002A*%
X131905334Y-64440000D03*
%TD*%
%TO.C,REF\u002A\u002A*%
X165094666Y-62840000D03*
%TD*%
%TO.C,REF\u002A\u002A*%
X165094666Y-85160000D03*
%TD*%
%TO.C,REF\u002A\u002A*%
X164219666Y-40520000D03*
%TD*%
%TO.C,REF\u002A\u002A*%
X166844666Y-85160000D03*
%TD*%
%TO.C,REF\u002A\u002A*%
X163344666Y-85160000D03*
%TD*%
%TO.C,REF\u002A\u002A*%
X165969666Y-85160000D03*
%TD*%
%TO.C,REF\u002A\u002A*%
X165969666Y-42120000D03*
%TD*%
%TO.C,REF\u002A\u002A*%
X163344666Y-86760000D03*
%TD*%
%TO.C,REF\u002A\u002A*%
X131905334Y-62840000D03*
%TD*%
%TO.C,REF\u002A\u002A*%
X130155334Y-62840000D03*
%TD*%
%TO.C,REF\u002A\u002A*%
X164219666Y-42120000D03*
%TD*%
%TO.C,REF\u002A\u002A*%
X166844666Y-62840000D03*
%TD*%
%TO.C,REF\u002A\u002A*%
X130155334Y-64440000D03*
%TD*%
M02*
