M48
; DRILL file {KiCad 7.0.2} date Fri May 26 20:55:21 2023
; FORMAT={-:-/ absolute / metric / decimal}
; #@! TF.CreationDate,2023-05-26T20:55:21+09:00
; #@! TF.GenerationSoftware,Kicad,Pcbnew,7.0.2
; #@! TF.FileFunction,Plated,1,2,PTH
FMAT,2
METRIC
; #@! TA.AperFunction,Plated,PTH,ViaDrill
T1C0.400
; #@! TA.AperFunction,Plated,PTH,ComponentDrill
T2C0.800
; #@! TA.AperFunction,Plated,PTH,ComponentDrill
T3C1.000
; #@! TA.AperFunction,Plated,PTH,ComponentDrill
T4C1.500
%
G90
G05
T1
X109.982Y-84.328
T2
X105.664Y-86.614
X105.664Y-90.17
X105.664Y-93.726
X105.664Y-97.282
X105.664Y-101.346
X113.284Y-86.614
X113.284Y-90.17
X113.284Y-93.726
X113.284Y-97.282
X113.284Y-101.346
X116.483Y-85.09
X116.586Y-101.346
X124.102Y-85.09
X124.206Y-101.346
T3
X102.624Y-86.868
X102.624Y-89.408
X102.624Y-91.948
X102.624Y-94.488
X102.624Y-97.028
X102.624Y-99.568
X116.586Y-90.678
X116.586Y-93.218
X116.586Y-95.758
X120.762Y-90.972
X120.762Y-95.972
X135.262Y-90.972
X135.262Y-93.472
X135.262Y-95.972
T4
G00X128.412Y-87.872
M15
G01X127.112Y-87.872
M16
G05
G00X128.412Y-99.072
M15
G01X127.112Y-99.072
M16
G05
T0
M30
