%TF.GenerationSoftware,KiCad,Pcbnew,7.0.2*%
%TF.CreationDate,2023-06-05T19:45:02+09:00*%
%TF.ProjectId,kikit,6b696b69-742e-46b6-9963-61645f706362,rev?*%
%TF.SameCoordinates,Original*%
%TF.FileFunction,Profile,NP*%
%FSLAX46Y46*%
G04 Gerber Fmt 4.6, Leading zero omitted, Abs format (unit mm)*
G04 Created by KiCad (PCBNEW 7.0.2) date 2023-06-05 19:45:02*
%MOMM*%
%LPD*%
G01*
G04 APERTURE LIST*
%TA.AperFunction,Profile*%
%ADD10C,0.100000*%
%TD*%
G04 APERTURE END LIST*
D10*
X108376200Y-104782864D02*
X108376200Y-112171912D01*
X149500000Y-112171912D02*
X166561900Y-112175852D01*
X193795766Y-118045468D02*
X194159333Y-117715949D01*
X125438100Y-27000000D02*
X125438100Y-27000000D01*
X186358291Y-92385312D02*
X171561900Y-92385312D01*
X194159333Y-117715949D02*
X194488852Y-117352382D01*
X130438100Y-47795104D02*
X130438100Y-46791695D01*
X125438100Y-70590208D02*
X108376200Y-70590208D01*
X166561900Y-68585644D02*
X166561900Y-69590208D01*
X195527726Y-24024548D02*
X195527726Y-24024548D01*
X188621172Y-99782864D02*
X188623800Y-94650821D01*
X171561900Y-112177007D02*
X186321495Y-112180416D01*
X171561900Y-27000000D02*
X171561900Y-25000000D01*
X192980783Y-20590393D02*
X192537217Y-20380602D01*
X101376200Y-25000000D02*
X101376200Y-114180416D01*
X125438100Y-48795104D02*
X108376200Y-48795104D01*
X191599251Y-119084342D02*
X192075223Y-118965117D01*
X188618612Y-82987760D02*
X190623800Y-82987760D01*
X106376200Y-82987760D02*
X108376200Y-82987760D01*
X103598348Y-118337764D02*
X104019216Y-118590022D01*
X194781148Y-116958267D02*
X195033406Y-116537399D01*
X166561900Y-91385312D02*
X166561900Y-92385312D01*
X130438100Y-69590208D02*
X130438100Y-68586799D01*
X104019216Y-20590393D02*
X103598348Y-20842651D01*
X130438100Y-92385312D02*
X130438100Y-91385312D01*
X188623800Y-72855717D02*
X186358291Y-70590208D01*
X195408501Y-23548576D02*
X195243197Y-23086582D01*
X190623800Y-56192656D02*
X188621172Y-56192656D01*
X193401651Y-20842651D02*
X192980783Y-20590393D01*
X106376200Y-114180416D02*
X106376200Y-104782864D01*
X148500000Y-104782864D02*
X148500000Y-104782864D01*
X147497372Y-99782864D02*
X147500000Y-94650821D01*
X192537217Y-118799813D02*
X192980783Y-118590022D01*
X171561900Y-47795104D02*
X171561900Y-46791695D01*
X166561900Y-48795104D02*
X149500000Y-48795104D01*
X106376200Y-39397552D02*
X108376200Y-39397552D01*
X104019216Y-118590022D02*
X104462782Y-118799813D01*
X148500000Y-56192656D02*
X147497372Y-56192656D01*
X101966593Y-116537399D02*
X102218851Y-116958267D01*
X194781148Y-22222148D02*
X194488852Y-21828033D01*
X195527726Y-24024548D02*
X195408501Y-23548576D01*
X166561900Y-46790540D02*
X166561900Y-47795104D01*
X149500000Y-56192656D02*
X148500000Y-56192656D01*
X130438100Y-68586799D02*
X145197695Y-68590208D01*
X191113885Y-20024076D02*
X190623800Y-20000000D01*
X195599723Y-114670501D02*
X195623800Y-114180416D01*
X188623800Y-94650821D02*
X186358291Y-92385312D01*
X125438100Y-25000000D02*
X125438100Y-27000000D01*
X105400748Y-20096073D02*
X104924776Y-20215298D01*
X149500000Y-99782864D02*
X148500000Y-99782864D01*
X192075223Y-118965117D02*
X192537217Y-118799813D01*
X102511147Y-21828033D02*
X102218851Y-22222148D01*
X145197695Y-46795104D02*
X147492200Y-44500599D01*
X149500000Y-92385312D02*
X149500000Y-99782864D01*
X149500000Y-68581704D02*
X166561900Y-68585644D01*
X195623800Y-114180416D02*
X195623800Y-25000000D01*
X191113885Y-119156339D02*
X191599251Y-119084342D01*
X106376200Y-119180416D02*
X190623800Y-119180416D01*
X108376200Y-39397552D02*
X108376200Y-46786600D01*
X145197695Y-68590208D02*
X147492200Y-66295703D01*
X108376200Y-61192656D02*
X108376200Y-68581704D01*
X166561900Y-90380748D02*
X166561900Y-91385312D01*
X108376200Y-70590208D02*
X108376200Y-77987760D01*
X145234491Y-70590208D02*
X130438100Y-70590208D01*
X103598348Y-20842651D02*
X103204233Y-21134947D01*
X190623800Y-39397552D02*
X190623800Y-56192656D01*
X104462782Y-118799813D02*
X104924776Y-118965117D01*
X166561900Y-70590208D02*
X149500000Y-70590208D01*
X108376200Y-68581704D02*
X125438100Y-68585644D01*
X108376200Y-27000000D02*
X108376200Y-34397552D01*
X188618612Y-104782864D02*
X190623800Y-104782864D01*
X171561900Y-25000000D02*
X190623800Y-25000000D01*
X171561900Y-70590208D02*
X171561900Y-69590208D01*
X188621172Y-77987760D02*
X188623800Y-72855717D01*
X125438100Y-69590208D02*
X125438100Y-70590208D01*
X103204233Y-118045468D02*
X103598348Y-118337764D01*
X106376200Y-114180416D02*
X106376200Y-114180416D01*
X190623800Y-20000000D02*
X106376200Y-20000000D01*
X108376200Y-48795104D02*
X108376200Y-56192656D01*
X195599723Y-24509914D02*
X195527726Y-24024548D01*
X104924776Y-118965117D02*
X105400748Y-119084342D01*
X195623800Y-25000000D02*
X195599723Y-24509914D01*
X108376200Y-112171912D02*
X125438100Y-112175852D01*
X148500000Y-61192656D02*
X149500000Y-61192656D01*
X186358291Y-48795104D02*
X171561900Y-48795104D01*
X106376200Y-20000000D02*
X105886114Y-20024076D01*
X130438100Y-90381903D02*
X130438100Y-90381903D01*
X147500000Y-51060613D02*
X145234491Y-48795104D01*
X195408501Y-115631839D02*
X195527726Y-115155867D01*
X101756802Y-116093833D02*
X101966593Y-116537399D01*
X125438100Y-114180416D02*
X106376200Y-114180416D01*
X166561900Y-25000000D02*
X166561900Y-27000000D01*
X188623800Y-29265509D02*
X186358291Y-27000000D01*
X166561900Y-69590208D02*
X166561900Y-70590208D01*
X195527726Y-115155867D02*
X195599723Y-114670501D01*
X101376200Y-114180416D02*
X101400276Y-114670501D01*
X186321495Y-112180416D02*
X188616000Y-109885911D01*
X188623800Y-51060613D02*
X186358291Y-48795104D01*
X102840666Y-117715949D02*
X103204233Y-118045468D01*
X106376200Y-61192656D02*
X108376200Y-61192656D01*
X194159333Y-21464466D02*
X193795766Y-21134947D01*
X147492200Y-66295703D02*
X147494812Y-61192656D01*
X108376200Y-34397552D02*
X106376200Y-34397552D01*
X149500000Y-46786600D02*
X166561900Y-46790540D01*
X147497372Y-34397552D02*
X147497372Y-34397552D01*
X125438100Y-92385312D02*
X125438100Y-92385312D01*
X125438100Y-90380748D02*
X125438100Y-91385312D01*
X188616000Y-88090807D02*
X188618612Y-82987760D01*
X145234491Y-48795104D02*
X130438100Y-48795104D01*
X101591498Y-23548576D02*
X101472273Y-24024548D01*
X195243197Y-23086582D02*
X195033406Y-22643016D01*
X108376200Y-90376808D02*
X125438100Y-90380748D01*
X145197695Y-90385312D02*
X147492200Y-88090807D01*
X106376200Y-56192656D02*
X106376200Y-39397552D01*
X194488852Y-117352382D02*
X194781148Y-116958267D01*
X130438100Y-46791695D02*
X130438100Y-46791695D01*
X106376200Y-34397552D02*
X106376200Y-25000000D01*
X166561900Y-27000000D02*
X149500000Y-27000000D01*
X148500000Y-104782864D02*
X149500000Y-104782864D01*
X171561900Y-91385312D02*
X171561900Y-91385312D01*
X101966593Y-22643016D02*
X101756802Y-23086582D01*
X147500000Y-94650821D02*
X145234491Y-92385312D01*
X108376200Y-82987760D02*
X108376200Y-90376808D01*
X148500000Y-99782864D02*
X147497372Y-99782864D01*
X105886114Y-20024076D02*
X105400748Y-20096073D01*
X171561900Y-90381903D02*
X186321495Y-90385312D01*
X147494812Y-61192656D02*
X148500000Y-61192656D01*
X145234491Y-92385312D02*
X130438100Y-92385312D01*
X171561900Y-69590208D02*
X171561900Y-69590208D01*
X191599251Y-20096073D02*
X191113885Y-20024076D01*
X130438100Y-48795104D02*
X130438100Y-47795104D01*
X108376200Y-77987760D02*
X106376200Y-77987760D01*
X108376200Y-92385312D02*
X108376200Y-99782864D01*
X147500000Y-29265509D02*
X145234491Y-27000000D01*
X147500000Y-72855717D02*
X145234491Y-70590208D01*
X149500000Y-70590208D02*
X149500000Y-77987760D01*
X125438100Y-46790540D02*
X125438100Y-47795104D01*
X188616000Y-44500599D02*
X188618612Y-39397552D01*
X147497372Y-77987760D02*
X147500000Y-72855717D01*
X148500000Y-34397552D02*
X147497372Y-34397552D01*
X101472273Y-115155867D02*
X101591498Y-115631839D01*
X102218851Y-22222148D02*
X101966593Y-22643016D01*
X130438100Y-25000000D02*
X166561900Y-25000000D01*
X190623800Y-77987760D02*
X188621172Y-77987760D01*
X149500000Y-104782864D02*
X149500000Y-112171912D01*
X171561900Y-92385312D02*
X171561900Y-91385312D01*
X188618612Y-39397552D02*
X190623800Y-39397552D01*
X105886114Y-119156339D02*
X106376200Y-119180416D01*
X101591498Y-115631839D02*
X101756802Y-116093833D01*
X101756802Y-23086582D02*
X101591498Y-23548576D01*
X188616000Y-109885911D02*
X188618612Y-104782864D01*
X147494812Y-82987760D02*
X148500000Y-82987760D01*
X106376200Y-25000000D02*
X125438100Y-25000000D01*
X171561900Y-68586799D02*
X186321495Y-68590208D01*
X190623800Y-119180416D02*
X191113885Y-119156339D01*
X190623800Y-82987760D02*
X190623800Y-99782864D01*
X145197695Y-112180416D02*
X147492200Y-109885911D01*
X130438100Y-90381903D02*
X145197695Y-90385312D01*
X190623800Y-61192656D02*
X190623800Y-77987760D01*
X102218851Y-116958267D02*
X102511147Y-117352382D01*
X188618612Y-61192656D02*
X190623800Y-61192656D01*
X147492200Y-88090807D02*
X147494812Y-82987760D01*
X125438100Y-91385312D02*
X125438100Y-92385312D01*
X147497372Y-34397552D02*
X147500000Y-29265509D01*
X147494812Y-104782864D02*
X148500000Y-104782864D01*
X171561900Y-46791695D02*
X186321495Y-46795104D01*
X149500000Y-34397552D02*
X148500000Y-34397552D01*
X166561900Y-92385312D02*
X149500000Y-92385312D01*
X147497372Y-56192656D02*
X147500000Y-51060613D01*
X125438100Y-47795104D02*
X125438100Y-48795104D01*
X101400276Y-114670501D02*
X101472273Y-115155867D01*
X186358291Y-70590208D02*
X171561900Y-70590208D01*
X186321495Y-90385312D02*
X188616000Y-88090807D01*
X147492200Y-109885911D02*
X147494812Y-104782864D01*
X125438100Y-70590208D02*
X125438100Y-70590208D01*
X104924776Y-20215298D02*
X104462782Y-20380602D01*
X130438100Y-114180416D02*
X130438100Y-112177007D01*
X192980783Y-118590022D02*
X193401651Y-118337764D01*
X195033406Y-22643016D02*
X194781148Y-22222148D01*
X130438100Y-46791695D02*
X145197695Y-46795104D01*
X188616000Y-66295703D02*
X188618612Y-61192656D01*
X108376200Y-46786600D02*
X125438100Y-46790540D01*
X106376200Y-77987760D02*
X106376200Y-61192656D01*
X193401651Y-118337764D02*
X193795766Y-118045468D01*
X195033406Y-116537399D02*
X195243197Y-116093833D01*
X171561900Y-114180416D02*
X171561900Y-112177007D01*
X149500000Y-39397552D02*
X149500000Y-46786600D01*
X148500000Y-82987760D02*
X149500000Y-82987760D01*
X106376200Y-99782864D02*
X106376200Y-82987760D01*
X166561900Y-114180416D02*
X130438100Y-114180416D01*
X149500000Y-90376808D02*
X166561900Y-90380748D01*
X171561900Y-69590208D02*
X171561900Y-68586799D01*
X190623800Y-104782864D02*
X190623800Y-114180416D01*
X106376200Y-104782864D02*
X108376200Y-104782864D01*
X149500000Y-61192656D02*
X149500000Y-68581704D01*
X186358291Y-27000000D02*
X171561900Y-27000000D01*
X125438100Y-112175852D02*
X125438100Y-114180416D01*
X149500000Y-27000000D02*
X149500000Y-34397552D01*
X130438100Y-112177007D02*
X145197695Y-112180416D01*
X125438100Y-27000000D02*
X108376200Y-27000000D01*
X190623800Y-104782864D02*
X190623800Y-104782864D01*
X171561900Y-25000000D02*
X171561900Y-25000000D01*
X190623800Y-34397552D02*
X188621172Y-34397552D01*
X130438100Y-70590208D02*
X130438100Y-69590208D01*
X104462782Y-20380602D02*
X104019216Y-20590393D01*
X101472273Y-24024548D02*
X101400276Y-24509914D01*
X130438100Y-91385312D02*
X130438100Y-90381903D01*
X102511147Y-117352382D02*
X102840666Y-117715949D01*
X145234491Y-27000000D02*
X130438100Y-27000000D01*
X190623800Y-25000000D02*
X190623800Y-34397552D01*
X149500000Y-77987760D02*
X148500000Y-77987760D01*
X148500000Y-77987760D02*
X147497372Y-77987760D01*
X166561900Y-47795104D02*
X166561900Y-48795104D01*
X188621172Y-56192656D02*
X188623800Y-51060613D01*
X125438100Y-48795104D02*
X125438100Y-48795104D01*
X101400276Y-24509914D02*
X101376200Y-25000000D01*
X190623800Y-114180416D02*
X171561900Y-114180416D01*
X105400748Y-119084342D02*
X105886114Y-119156339D01*
X149500000Y-48795104D02*
X149500000Y-56192656D01*
X166561900Y-112175852D02*
X166561900Y-114180416D01*
X188621172Y-34397552D02*
X188623800Y-29265509D01*
X102840666Y-21464466D02*
X102511147Y-21828033D01*
X108376200Y-99782864D02*
X106376200Y-99782864D01*
X186321495Y-46795104D02*
X188616000Y-44500599D01*
X195243197Y-116093833D02*
X195408501Y-115631839D01*
X149500000Y-82987760D02*
X149500000Y-90376808D01*
X186321495Y-68590208D02*
X188616000Y-66295703D01*
X108376200Y-56192656D02*
X106376200Y-56192656D01*
X193795766Y-21134947D02*
X193401651Y-20842651D01*
X171561900Y-48795104D02*
X171561900Y-47795104D01*
X194488852Y-21828033D02*
X194159333Y-21464466D01*
X171561900Y-91385312D02*
X171561900Y-90381903D01*
X190623800Y-99782864D02*
X188621172Y-99782864D01*
X147492200Y-44500599D02*
X147494812Y-39397552D01*
X192537217Y-20380602D02*
X192075223Y-20215298D01*
X125438100Y-92385312D02*
X108376200Y-92385312D01*
X125438100Y-68585644D02*
X125438100Y-69590208D01*
X130438100Y-27000000D02*
X130438100Y-25000000D01*
X103204233Y-21134947D02*
X102840666Y-21464466D01*
X171561900Y-47795104D02*
X171561900Y-47795104D01*
X148500000Y-39397552D02*
X149500000Y-39397552D01*
X192075223Y-20215298D02*
X191599251Y-20096073D01*
X130438100Y-68586799D02*
X130438100Y-68586799D01*
X147494812Y-39397552D02*
X148500000Y-39397552D01*
M02*
