M48
; DRILL file {KiCad 7.0.2} date Mon Jun  5 19:45:13 2023
; FORMAT={-:-/ absolute / metric / decimal}
; #@! TF.CreationDate,2023-06-05T19:45:13+09:00
; #@! TF.GenerationSoftware,Kicad,Pcbnew,7.0.2
; #@! TF.FileFunction,Plated,1,2,PTH
FMAT,2
METRIC
; #@! TA.AperFunction,Plated,PTH,ViaDrill
T1C0.400
; #@! TA.AperFunction,Plated,PTH,ComponentDrill
T2C0.800
; #@! TA.AperFunction,Plated,PTH,ComponentDrill
T3C1.000
; #@! TA.AperFunction,Plated,PTH,ComponentDrill
T4C1.500
%
G90
G05
T1
X119.425Y-28.245
X119.425Y-50.04
X119.425Y-71.835
X119.425Y-93.63
X132.76Y-36.627
X132.76Y-58.422
X132.76Y-80.217
X132.76Y-102.012
X133.268Y-39.929
X133.268Y-61.724
X133.268Y-83.519
X133.268Y-105.314
X160.549Y-28.245
X160.549Y-50.04
X160.549Y-71.835
X160.549Y-93.63
X173.884Y-36.627
X173.884Y-58.422
X173.884Y-80.217
X173.884Y-102.012
X174.392Y-39.929
X174.392Y-61.724
X174.392Y-83.519
X174.392Y-105.314
T2
X115.488Y-30.277
X115.488Y-33.833
X115.488Y-37.389
X115.488Y-40.945
X115.488Y-45.009
X115.488Y-52.072
X115.488Y-55.628
X115.488Y-59.184
X115.488Y-62.74
X115.488Y-66.804
X115.488Y-73.867
X115.488Y-77.423
X115.488Y-80.979
X115.488Y-84.535
X115.488Y-88.599
X115.488Y-95.662
X115.488Y-99.218
X115.488Y-102.774
X115.488Y-106.33
X115.488Y-110.394
X123.108Y-30.277
X123.108Y-33.833
X123.108Y-37.389
X123.108Y-40.945
X123.108Y-45.009
X123.108Y-52.072
X123.108Y-55.628
X123.108Y-59.184
X123.108Y-62.74
X123.108Y-66.804
X123.108Y-73.867
X123.108Y-77.423
X123.108Y-80.979
X123.108Y-84.535
X123.108Y-88.599
X123.108Y-95.662
X123.108Y-99.218
X123.108Y-102.774
X123.108Y-106.33
X123.108Y-110.394
X126.283Y-29.134
X126.283Y-50.929
X126.283Y-72.724
X126.283Y-94.519
X126.41Y-45.009
X126.41Y-66.804
X126.41Y-88.599
X126.41Y-110.394
X133.903Y-29.134
X133.903Y-50.929
X133.903Y-72.724
X133.903Y-94.519
X134.03Y-45.009
X134.03Y-66.804
X134.03Y-88.599
X134.03Y-110.394
X156.612Y-30.277
X156.612Y-33.833
X156.612Y-37.389
X156.612Y-40.945
X156.612Y-45.009
X156.612Y-52.072
X156.612Y-55.628
X156.612Y-59.184
X156.612Y-62.74
X156.612Y-66.804
X156.612Y-73.867
X156.612Y-77.423
X156.612Y-80.979
X156.612Y-84.535
X156.612Y-88.599
X156.612Y-95.662
X156.612Y-99.218
X156.612Y-102.774
X156.612Y-106.33
X156.612Y-110.394
X164.232Y-30.277
X164.232Y-33.833
X164.232Y-37.389
X164.232Y-40.945
X164.232Y-45.009
X164.232Y-52.072
X164.232Y-55.628
X164.232Y-59.184
X164.232Y-62.74
X164.232Y-66.804
X164.232Y-73.867
X164.232Y-77.423
X164.232Y-80.979
X164.232Y-84.535
X164.232Y-88.599
X164.232Y-95.662
X164.232Y-99.218
X164.232Y-102.774
X164.232Y-106.33
X164.232Y-110.394
X167.407Y-29.134
X167.407Y-50.929
X167.407Y-72.724
X167.407Y-94.519
X167.534Y-45.009
X167.534Y-66.804
X167.534Y-88.599
X167.534Y-110.394
X175.027Y-29.134
X175.027Y-50.929
X175.027Y-72.724
X175.027Y-94.519
X175.154Y-45.009
X175.154Y-66.804
X175.154Y-88.599
X175.154Y-110.394
T3
X112.44Y-30.531
X112.44Y-33.071
X112.44Y-35.611
X112.44Y-38.151
X112.44Y-40.691
X112.44Y-43.231
X112.44Y-52.326
X112.44Y-54.866
X112.44Y-57.406
X112.44Y-59.946
X112.44Y-62.486
X112.44Y-65.026
X112.44Y-74.121
X112.44Y-76.661
X112.44Y-79.201
X112.44Y-81.741
X112.44Y-84.281
X112.44Y-86.821
X112.44Y-95.916
X112.44Y-98.456
X112.44Y-100.996
X112.44Y-103.536
X112.44Y-106.076
X112.44Y-108.616
X126.41Y-34.341
X126.41Y-36.881
X126.41Y-39.421
X126.41Y-56.136
X126.41Y-58.676
X126.41Y-61.216
X126.41Y-77.931
X126.41Y-80.471
X126.41Y-83.011
X126.41Y-99.726
X126.41Y-102.266
X126.41Y-104.806
X130.586Y-34.635
X130.586Y-39.635
X130.586Y-56.43
X130.586Y-61.43
X130.586Y-78.225
X130.586Y-83.225
X130.586Y-100.02
X130.586Y-105.02
X145.086Y-34.635
X145.086Y-37.135
X145.086Y-39.635
X145.086Y-56.43
X145.086Y-58.93
X145.086Y-61.43
X145.086Y-78.225
X145.086Y-80.725
X145.086Y-83.225
X145.086Y-100.02
X145.086Y-102.52
X145.086Y-105.02
X153.564Y-30.531
X153.564Y-33.071
X153.564Y-35.611
X153.564Y-38.151
X153.564Y-40.691
X153.564Y-43.231
X153.564Y-52.326
X153.564Y-54.866
X153.564Y-57.406
X153.564Y-59.946
X153.564Y-62.486
X153.564Y-65.026
X153.564Y-74.121
X153.564Y-76.661
X153.564Y-79.201
X153.564Y-81.741
X153.564Y-84.281
X153.564Y-86.821
X153.564Y-95.916
X153.564Y-98.456
X153.564Y-100.996
X153.564Y-103.536
X153.564Y-106.076
X153.564Y-108.616
X167.534Y-34.341
X167.534Y-36.881
X167.534Y-39.421
X167.534Y-56.136
X167.534Y-58.676
X167.534Y-61.216
X167.534Y-77.931
X167.534Y-80.471
X167.534Y-83.011
X167.534Y-99.726
X167.534Y-102.266
X167.534Y-104.806
X171.71Y-34.635
X171.71Y-39.635
X171.71Y-56.43
X171.71Y-61.43
X171.71Y-78.225
X171.71Y-83.225
X171.71Y-100.02
X171.71Y-105.02
X186.21Y-34.635
X186.21Y-37.135
X186.21Y-39.635
X186.21Y-56.43
X186.21Y-58.93
X186.21Y-61.43
X186.21Y-78.225
X186.21Y-80.725
X186.21Y-83.225
X186.21Y-100.02
X186.21Y-102.52
X186.21Y-105.02
T4
G00X138.236Y-31.535
M15
G01X136.936Y-31.535
M16
G05
G00X138.236Y-42.735
M15
G01X136.936Y-42.735
M16
G05
G00X138.236Y-53.33
M15
G01X136.936Y-53.33
M16
G05
G00X138.236Y-64.53
M15
G01X136.936Y-64.53
M16
G05
G00X138.236Y-75.125
M15
G01X136.936Y-75.125
M16
G05
G00X138.236Y-86.325
M15
G01X136.936Y-86.325
M16
G05
G00X138.236Y-96.92
M15
G01X136.936Y-96.92
M16
G05
G00X138.236Y-108.12
M15
G01X136.936Y-108.12
M16
G05
G00X179.36Y-31.535
M15
G01X178.06Y-31.535
M16
G05
G00X179.36Y-42.735
M15
G01X178.06Y-42.735
M16
G05
G00X179.36Y-53.33
M15
G01X178.06Y-53.33
M16
G05
G00X179.36Y-64.53
M15
G01X178.06Y-64.53
M16
G05
G00X179.36Y-75.125
M15
G01X178.06Y-75.125
M16
G05
G00X179.36Y-86.325
M15
G01X178.06Y-86.325
M16
G05
G00X179.36Y-96.92
M15
G01X178.06Y-96.92
M16
G05
G00X179.36Y-108.12
M15
G01X178.06Y-108.12
M16
G05
T0
M30
