%TF.GenerationSoftware,KiCad,Pcbnew,7.0.2*%
%TF.CreationDate,2023-05-26T21:55:48+09:00*%
%TF.ProjectId,kikit,6b696b69-742e-46b6-9963-61645f706362,rev?*%
%TF.SameCoordinates,Original*%
%TF.FileFunction,Soldermask,Top*%
%TF.FilePolarity,Negative*%
%FSLAX46Y46*%
G04 Gerber Fmt 4.6, Leading zero omitted, Abs format (unit mm)*
G04 Created by KiCad (PCBNEW 7.0.2) date 2023-05-26 21:55:48*
%MOMM*%
%LPD*%
G01*
G04 APERTURE LIST*
G04 Aperture macros list*
%AMRoundRect*
0 Rectangle with rounded corners*
0 $1 Rounding radius*
0 $2 $3 $4 $5 $6 $7 $8 $9 X,Y pos of 4 corners*
0 Add a 4 corners polygon primitive as box body*
4,1,4,$2,$3,$4,$5,$6,$7,$8,$9,$2,$3,0*
0 Add four circle primitives for the rounded corners*
1,1,$1+$1,$2,$3*
1,1,$1+$1,$4,$5*
1,1,$1+$1,$6,$7*
1,1,$1+$1,$8,$9*
0 Add four rect primitives between the rounded corners*
20,1,$1+$1,$2,$3,$4,$5,0*
20,1,$1+$1,$4,$5,$6,$7,0*
20,1,$1+$1,$6,$7,$8,$9,0*
20,1,$1+$1,$8,$9,$2,$3,0*%
G04 Aperture macros list end*
%ADD10C,0.500000*%
%ADD11C,1.600000*%
%ADD12RoundRect,0.237500X-0.250000X-0.237500X0.250000X-0.237500X0.250000X0.237500X-0.250000X0.237500X0*%
%ADD13O,1.600000X1.600000*%
%ADD14RoundRect,0.237500X0.250000X0.237500X-0.250000X0.237500X-0.250000X-0.237500X0.250000X-0.237500X0*%
%ADD15R,1.700000X1.700000*%
%ADD16O,1.700000X1.700000*%
%ADD17C,1.200000*%
%ADD18R,2.000000X2.000000*%
%ADD19C,2.000000*%
%ADD20R,3.200000X2.000000*%
G04 APERTURE END LIST*
D10*
%TO.C,REF\u002A\u002A*%
X108889109Y-115805416D03*
%TD*%
%TO.C,REF\u002A\u002A*%
X129944554Y-46791462D03*
%TD*%
%TO.C,REF\u002A\u002A*%
X149500000Y-39522552D03*
%TD*%
%TO.C,REF\u002A\u002A*%
X108889109Y-62192656D03*
%TD*%
%TO.C,REF\u002A\u002A*%
X171430445Y-27000000D03*
%TD*%
D11*
%TO.C,R7*%
X126923109Y-66803704D03*
D12*
X129820609Y-66803704D03*
X131645609Y-66803704D03*
D13*
X134543109Y-66803704D03*
%TD*%
D10*
%TO.C,REF\u002A\u002A*%
X171430445Y-90381872D03*
%TD*%
D11*
%TO.C,R3*%
X156612000Y-77422808D03*
D12*
X159509500Y-77422808D03*
X161334500Y-77422808D03*
D13*
X164232000Y-77422808D03*
%TD*%
D10*
%TO.C,REF\u002A\u002A*%
X126444555Y-27000000D03*
%TD*%
%TO.C,REF\u002A\u002A*%
X168805445Y-27000000D03*
%TD*%
%TO.C,REF\u002A\u002A*%
X147500000Y-55192656D03*
%TD*%
%TO.C,REF\u002A\u002A*%
X188110891Y-83987760D03*
%TD*%
%TO.C,REF\u002A\u002A*%
X188110891Y-23375000D03*
%TD*%
%TO.C,REF\u002A\u002A*%
X108889109Y-116680416D03*
%TD*%
%TO.C,REF\u002A\u002A*%
X147500000Y-81362760D03*
%TD*%
%TO.C,REF\u002A\u002A*%
X188110891Y-103157864D03*
%TD*%
%TO.C,REF\u002A\u002A*%
X188110891Y-36022552D03*
%TD*%
%TO.C,REF\u002A\u002A*%
X188110891Y-79612760D03*
%TD*%
D11*
%TO.C,R1*%
X123621109Y-102773912D03*
D14*
X120723609Y-102773912D03*
X118898609Y-102773912D03*
D13*
X116001109Y-102773912D03*
%TD*%
D10*
%TO.C,REF\u002A\u002A*%
X130819554Y-70590208D03*
%TD*%
%TO.C,REF\u002A\u002A*%
X125569555Y-90380660D03*
%TD*%
%TO.C,REF\u002A\u002A*%
X103514109Y-27000000D03*
%TD*%
D11*
%TO.C,R5*%
X126819609Y-50547704D03*
D12*
X129717109Y-50547704D03*
X131542109Y-50547704D03*
D13*
X134439609Y-50547704D03*
%TD*%
D10*
%TO.C,REF\u002A\u002A*%
X149500000Y-56942656D03*
%TD*%
%TO.C,REF\u002A\u002A*%
X149500000Y-77862760D03*
%TD*%
%TO.C,REF\u002A\u002A*%
X172305445Y-68586970D03*
%TD*%
%TO.C,REF\u002A\u002A*%
X124694555Y-92385312D03*
%TD*%
%TO.C,REF\u002A\u002A*%
X102639109Y-112180416D03*
%TD*%
%TO.C,REF\u002A\u002A*%
X108889109Y-22500000D03*
%TD*%
%TO.C,REF\u002A\u002A*%
X108889109Y-79612760D03*
%TD*%
%TO.C,REF\u002A\u002A*%
X108889109Y-24250000D03*
%TD*%
%TO.C,REF\u002A\u002A*%
X149500000Y-78737760D03*
%TD*%
%TO.C,REF\u002A\u002A*%
X188110891Y-104032864D03*
%TD*%
%TO.C,REF\u002A\u002A*%
X130819554Y-90381872D03*
%TD*%
%TO.C,REF\u002A\u002A*%
X126444555Y-48795104D03*
%TD*%
%TO.C,REF\u002A\u002A*%
X127319555Y-70590208D03*
%TD*%
%TO.C,REF\u002A\u002A*%
X169680445Y-68586364D03*
%TD*%
%TO.C,REF\u002A\u002A*%
X108889109Y-20750000D03*
%TD*%
%TO.C,REF\u002A\u002A*%
X194360891Y-112180416D03*
%TD*%
%TO.C,REF\u002A\u002A*%
X149500000Y-80487760D03*
%TD*%
%TO.C,REF\u002A\u002A*%
X130819554Y-112176976D03*
%TD*%
D11*
%TO.C,R2*%
X156612000Y-52071704D03*
D12*
X159509500Y-52071704D03*
X161334500Y-52071704D03*
D13*
X164232000Y-52071704D03*
%TD*%
D15*
%TO.C,J1*%
X153564000Y-30530600D03*
D16*
X153564000Y-33070600D03*
X153564000Y-35610600D03*
X153564000Y-38150600D03*
X153564000Y-40690600D03*
X153564000Y-43230600D03*
%TD*%
D10*
%TO.C,REF\u002A\u002A*%
X147500000Y-37772552D03*
%TD*%
%TO.C,REF\u002A\u002A*%
X167930445Y-90381064D03*
%TD*%
%TO.C,REF\u002A\u002A*%
X149500000Y-40397552D03*
%TD*%
%TO.C,REF\u002A\u002A*%
X126444555Y-112175966D03*
%TD*%
%TO.C,REF\u002A\u002A*%
X147500000Y-61317656D03*
%TD*%
%TO.C,REF\u002A\u002A*%
X149500000Y-79612760D03*
%TD*%
D15*
%TO.C,J1*%
X112953109Y-95915912D03*
D16*
X112953109Y-98455912D03*
X112953109Y-100995912D03*
X112953109Y-103535912D03*
X112953109Y-106075912D03*
X112953109Y-108615912D03*
%TD*%
D10*
%TO.C,REF\u002A\u002A*%
X129944554Y-112176774D03*
%TD*%
%TO.C,REF\u002A\u002A*%
X147500000Y-101407864D03*
%TD*%
%TO.C,REF\u002A\u002A*%
X149500000Y-37772552D03*
%TD*%
%TO.C,REF\u002A\u002A*%
X147500000Y-60442656D03*
%TD*%
D11*
%TO.C,R2*%
X116001109Y-73866808D03*
D12*
X118898609Y-73866808D03*
X120723609Y-73866808D03*
D13*
X123621109Y-73866808D03*
%TD*%
D10*
%TO.C,REF\u002A\u002A*%
X169680445Y-70590208D03*
%TD*%
%TO.C,REF\u002A\u002A*%
X125569555Y-48795104D03*
%TD*%
%TO.C,REF\u002A\u002A*%
X131694554Y-27000000D03*
%TD*%
%TO.C,REF\u002A\u002A*%
X147500000Y-105782864D03*
%TD*%
%TO.C,REF\u002A\u002A*%
X130819554Y-46791664D03*
%TD*%
%TO.C,REF\u002A\u002A*%
X108889109Y-56942656D03*
%TD*%
%TO.C,REF\u002A\u002A*%
X170555445Y-70590208D03*
%TD*%
%TO.C,REF\u002A\u002A*%
X108889109Y-105782864D03*
%TD*%
D11*
%TO.C,R7*%
X167534000Y-88598808D03*
D12*
X170431500Y-88598808D03*
X172256500Y-88598808D03*
D13*
X175154000Y-88598808D03*
%TD*%
D10*
%TO.C,REF\u002A\u002A*%
X108889109Y-100532864D03*
%TD*%
%TO.C,REF\u002A\u002A*%
X149500000Y-100532864D03*
%TD*%
%TO.C,REF\u002A\u002A*%
X127319555Y-92385312D03*
%TD*%
%TO.C,REF\u002A\u002A*%
X168805445Y-68586162D03*
%TD*%
%TO.C,REF\u002A\u002A*%
X149500000Y-56067656D03*
%TD*%
%TO.C,REF\u002A\u002A*%
X188110891Y-80487760D03*
%TD*%
%TO.C,REF\u002A\u002A*%
X149500000Y-62192656D03*
%TD*%
%TO.C,REF\u002A\u002A*%
X166180445Y-27000000D03*
%TD*%
%TO.C,REF\u002A\u002A*%
X130819554Y-27000000D03*
%TD*%
%TO.C,REF\u002A\u002A*%
X128194554Y-92385312D03*
%TD*%
%TO.C,REF\u002A\u002A*%
X166180445Y-90380660D03*
%TD*%
%TO.C,REF\u002A\u002A*%
X127319555Y-112176168D03*
%TD*%
%TO.C,REF\u002A\u002A*%
X147500000Y-59567656D03*
%TD*%
%TO.C,REF\u002A\u002A*%
X131694554Y-90382074D03*
%TD*%
%TO.C,REF\u002A\u002A*%
X149500000Y-55192656D03*
%TD*%
%TO.C,REF\u002A\u002A*%
X108889109Y-59567656D03*
%TD*%
%TO.C,REF\u002A\u002A*%
X108889109Y-35147552D03*
%TD*%
%TO.C,REF\u002A\u002A*%
X108889109Y-83987760D03*
%TD*%
%TO.C,REF\u002A\u002A*%
X167930445Y-68585960D03*
%TD*%
D11*
%TO.C,R6*%
X123621109Y-62739704D03*
D14*
X120723609Y-62739704D03*
X118898609Y-62739704D03*
D13*
X116001109Y-62739704D03*
%TD*%
D10*
%TO.C,REF\u002A\u002A*%
X170555445Y-68586566D03*
%TD*%
%TO.C,REF\u002A\u002A*%
X167055445Y-90380862D03*
%TD*%
%TO.C,REF\u002A\u002A*%
X108889109Y-57817656D03*
%TD*%
%TO.C,REF\u002A\u002A*%
X147500000Y-102282864D03*
%TD*%
%TO.C,REF\u002A\u002A*%
X131694554Y-68586970D03*
%TD*%
D11*
%TO.C,R6*%
X123621109Y-84534808D03*
D14*
X120723609Y-84534808D03*
X118898609Y-84534808D03*
D13*
X116001109Y-84534808D03*
%TD*%
D10*
%TO.C,REF\u002A\u002A*%
X147500000Y-33397552D03*
%TD*%
%TO.C,REF\u002A\u002A*%
X147500000Y-103157864D03*
%TD*%
%TO.C,REF\u002A\u002A*%
X167930445Y-48795104D03*
%TD*%
%TO.C,REF\u002A\u002A*%
X188110891Y-83112760D03*
%TD*%
%TO.C,REF\u002A\u002A*%
X188110891Y-59567656D03*
%TD*%
%TO.C,REF\u002A\u002A*%
X125569555Y-46790452D03*
%TD*%
%TO.C,REF\u002A\u002A*%
X147500000Y-58692656D03*
%TD*%
D15*
%TO.C,J1*%
X112953109Y-30530600D03*
D16*
X112953109Y-33070600D03*
X112953109Y-35610600D03*
X112953109Y-38150600D03*
X112953109Y-40690600D03*
X112953109Y-43230600D03*
%TD*%
D11*
%TO.C,R6*%
X164232000Y-40944600D03*
D14*
X161334500Y-40944600D03*
X159509500Y-40944600D03*
D13*
X156612000Y-40944600D03*
%TD*%
D10*
%TO.C,REF\u002A\u002A*%
X147500000Y-39522552D03*
%TD*%
%TO.C,REF\u002A\u002A*%
X128194554Y-90381266D03*
%TD*%
%TO.C,REF\u002A\u002A*%
X188110891Y-24250000D03*
%TD*%
%TO.C,REF\u002A\u002A*%
X124694555Y-46790250D03*
%TD*%
%TO.C,REF\u002A\u002A*%
X188110891Y-39522552D03*
%TD*%
%TO.C,REF\u002A\u002A*%
X165305445Y-27000000D03*
%TD*%
%TO.C,REF\u002A\u002A*%
X130819554Y-68586768D03*
%TD*%
%TO.C,REF\u002A\u002A*%
X108889109Y-38647552D03*
%TD*%
%TO.C,REF\u002A\u002A*%
X168805445Y-112176370D03*
%TD*%
%TO.C,REF\u002A\u002A*%
X108889109Y-61317656D03*
%TD*%
%TO.C,REF\u002A\u002A*%
X170555445Y-46791462D03*
%TD*%
D15*
%TO.C,J1*%
X112953109Y-74120808D03*
D16*
X112953109Y-76660808D03*
X112953109Y-79200808D03*
X112953109Y-81740808D03*
X112953109Y-84280808D03*
X112953109Y-86820808D03*
%TD*%
D10*
%TO.C,REF\u002A\u002A*%
X149500000Y-104907864D03*
%TD*%
%TO.C,REF\u002A\u002A*%
X126444555Y-70590208D03*
%TD*%
D11*
%TO.C,R2*%
X156612000Y-95661912D03*
D12*
X159509500Y-95661912D03*
X161334500Y-95661912D03*
D13*
X164232000Y-95661912D03*
%TD*%
D10*
%TO.C,REF\u002A\u002A*%
X149500000Y-103157864D03*
%TD*%
%TO.C,REF\u002A\u002A*%
X165305445Y-68585354D03*
%TD*%
%TO.C,REF\u002A\u002A*%
X188110891Y-104907864D03*
%TD*%
%TO.C,REF\u002A\u002A*%
X131694554Y-70590208D03*
%TD*%
D11*
%TO.C,R2*%
X116001109Y-95661912D03*
D12*
X118898609Y-95661912D03*
X120723609Y-95661912D03*
D13*
X123621109Y-95661912D03*
%TD*%
D10*
%TO.C,REF\u002A\u002A*%
X125569555Y-68585556D03*
%TD*%
%TO.C,REF\u002A\u002A*%
X188110891Y-101407864D03*
%TD*%
%TO.C,REF\u002A\u002A*%
X188110891Y-56067656D03*
%TD*%
%TO.C,REF\u002A\u002A*%
X149500000Y-38647552D03*
%TD*%
%TO.C,REF\u002A\u002A*%
X169680445Y-112176572D03*
%TD*%
%TO.C,REF\u002A\u002A*%
X149500000Y-99657864D03*
%TD*%
%TO.C,REF\u002A\u002A*%
X124694555Y-90380458D03*
%TD*%
%TO.C,REF\u002A\u002A*%
X149500000Y-98782864D03*
%TD*%
%TO.C,REF\u002A\u002A*%
X149500000Y-82237760D03*
%TD*%
%TO.C,REF\u002A\u002A*%
X188110891Y-38647552D03*
%TD*%
%TO.C,REF\u002A\u002A*%
X149500000Y-33397552D03*
%TD*%
%TO.C,REF\u002A\u002A*%
X149500000Y-59567656D03*
%TD*%
%TO.C,REF\u002A\u002A*%
X127319555Y-90381064D03*
%TD*%
%TO.C,REF\u002A\u002A*%
X167055445Y-48795104D03*
%TD*%
%TO.C,REF\u002A\u002A*%
X188110891Y-77862760D03*
%TD*%
%TO.C,REF\u002A\u002A*%
X149500000Y-60442656D03*
%TD*%
%TO.C,REF\u002A\u002A*%
X188110891Y-115805416D03*
%TD*%
%TO.C,REF\u002A\u002A*%
X149500000Y-83112760D03*
%TD*%
%TO.C,REF\u002A\u002A*%
X147500000Y-77862760D03*
%TD*%
%TO.C,REF\u002A\u002A*%
X149500000Y-81362760D03*
%TD*%
%TO.C,REF\u002A\u002A*%
X188110891Y-56942656D03*
%TD*%
%TO.C,REF\u002A\u002A*%
X165305445Y-92385312D03*
%TD*%
%TO.C,REF\u002A\u002A*%
X165305445Y-90380458D03*
%TD*%
%TO.C,REF\u002A\u002A*%
X128194554Y-27000000D03*
%TD*%
D11*
%TO.C,R4*%
X156612000Y-66803704D03*
D12*
X159509500Y-66803704D03*
X161334500Y-66803704D03*
D13*
X164232000Y-66803704D03*
%TD*%
D10*
%TO.C,REF\u002A\u002A*%
X147500000Y-100532864D03*
%TD*%
D11*
%TO.C,R1*%
X123621109Y-37388600D03*
D14*
X120723609Y-37388600D03*
X118898609Y-37388600D03*
D13*
X116001109Y-37388600D03*
%TD*%
D15*
%TO.C,J1*%
X153564000Y-74120808D03*
D16*
X153564000Y-76660808D03*
X153564000Y-79200808D03*
X153564000Y-81740808D03*
X153564000Y-84280808D03*
X153564000Y-86820808D03*
%TD*%
D10*
%TO.C,REF\u002A\u002A*%
X188110891Y-61317656D03*
%TD*%
D17*
%TO.C,SW1*%
X126923109Y-75390808D03*
X126923109Y-85550808D03*
D16*
X126923109Y-77930808D03*
X126923109Y-80470808D03*
X126923109Y-83010808D03*
%TD*%
D10*
%TO.C,REF\u002A\u002A*%
X170555445Y-90381670D03*
%TD*%
%TO.C,REF\u002A\u002A*%
X188110891Y-76987760D03*
%TD*%
%TO.C,REF\u002A\u002A*%
X108889109Y-98782864D03*
%TD*%
%TO.C,REF\u002A\u002A*%
X129944554Y-92385312D03*
%TD*%
D11*
%TO.C,R5*%
X167430500Y-28752600D03*
D12*
X170328000Y-28752600D03*
X172153000Y-28752600D03*
D13*
X175050500Y-28752600D03*
%TD*%
D10*
%TO.C,REF\u002A\u002A*%
X165305445Y-70590208D03*
%TD*%
%TO.C,REF\u002A\u002A*%
X167055445Y-27000000D03*
%TD*%
%TO.C,REF\u002A\u002A*%
X108889109Y-21625000D03*
%TD*%
%TO.C,REF\u002A\u002A*%
X108889109Y-77862760D03*
%TD*%
D18*
%TO.C,SW2*%
X186210000Y-39634600D03*
D19*
X186210000Y-34634600D03*
X186210000Y-37134600D03*
D20*
X178710000Y-42734600D03*
X178710000Y-31534600D03*
D19*
X171710000Y-34634600D03*
X171710000Y-39634600D03*
%TD*%
D10*
%TO.C,REF\u002A\u002A*%
X149500000Y-58692656D03*
%TD*%
%TO.C,REF\u002A\u002A*%
X172305445Y-112177178D03*
%TD*%
%TO.C,REF\u002A\u002A*%
X147500000Y-36897552D03*
%TD*%
D18*
%TO.C,SW2*%
X186210000Y-105019912D03*
D19*
X186210000Y-100019912D03*
X186210000Y-102519912D03*
D20*
X178710000Y-108119912D03*
X178710000Y-96919912D03*
D19*
X171710000Y-100019912D03*
X171710000Y-105019912D03*
%TD*%
D11*
%TO.C,R3*%
X156612000Y-55627704D03*
D12*
X159509500Y-55627704D03*
X161334500Y-55627704D03*
D13*
X164232000Y-55627704D03*
%TD*%
D10*
%TO.C,REF\u002A\u002A*%
X108889109Y-117555416D03*
%TD*%
D17*
%TO.C,SW1*%
X126923109Y-53595704D03*
X126923109Y-63755704D03*
D16*
X126923109Y-56135704D03*
X126923109Y-58675704D03*
X126923109Y-61215704D03*
%TD*%
D10*
%TO.C,REF\u002A\u002A*%
X147500000Y-83112760D03*
%TD*%
%TO.C,REF\u002A\u002A*%
X167055445Y-92385312D03*
%TD*%
%TO.C,REF\u002A\u002A*%
X169680445Y-27000000D03*
%TD*%
%TO.C,REF\u002A\u002A*%
X149500000Y-34272552D03*
%TD*%
%TO.C,REF\u002A\u002A*%
X129069554Y-68586364D03*
%TD*%
%TO.C,REF\u002A\u002A*%
X108889109Y-101407864D03*
%TD*%
%TO.C,REF\u002A\u002A*%
X131694554Y-112177178D03*
%TD*%
D11*
%TO.C,R5*%
X167430500Y-72342808D03*
D12*
X170328000Y-72342808D03*
X172153000Y-72342808D03*
D13*
X175050500Y-72342808D03*
%TD*%
D10*
%TO.C,REF\u002A\u002A*%
X149500000Y-83987760D03*
%TD*%
%TO.C,REF\u002A\u002A*%
X108889109Y-104032864D03*
%TD*%
%TO.C,REF\u002A\u002A*%
X129944554Y-70590208D03*
%TD*%
D11*
%TO.C,R6*%
X123621109Y-106329912D03*
D14*
X120723609Y-106329912D03*
X118898609Y-106329912D03*
D13*
X116001109Y-106329912D03*
%TD*%
D10*
%TO.C,REF\u002A\u002A*%
X172305445Y-70590208D03*
%TD*%
%TO.C,REF\u002A\u002A*%
X171430445Y-92385312D03*
%TD*%
D11*
%TO.C,R3*%
X116001109Y-77422808D03*
D12*
X118898609Y-77422808D03*
X120723609Y-77422808D03*
D13*
X123621109Y-77422808D03*
%TD*%
D10*
%TO.C,REF\u002A\u002A*%
X129944554Y-27000000D03*
%TD*%
%TO.C,REF\u002A\u002A*%
X147500000Y-79612760D03*
%TD*%
%TO.C,REF\u002A\u002A*%
X106139109Y-112180416D03*
%TD*%
%TO.C,REF\u002A\u002A*%
X124694555Y-112175562D03*
%TD*%
%TO.C,REF\u002A\u002A*%
X149500000Y-36897552D03*
%TD*%
%TO.C,REF\u002A\u002A*%
X169680445Y-90381468D03*
%TD*%
%TO.C,REF\u002A\u002A*%
X192610891Y-112180416D03*
%TD*%
%TO.C,REF\u002A\u002A*%
X128194554Y-70590208D03*
%TD*%
%TO.C,REF\u002A\u002A*%
X147500000Y-35147552D03*
%TD*%
%TO.C,REF\u002A\u002A*%
X147500000Y-80487760D03*
%TD*%
D11*
%TO.C,R5*%
X126819609Y-94137912D03*
D12*
X129717109Y-94137912D03*
X131542109Y-94137912D03*
D13*
X134439609Y-94137912D03*
%TD*%
D10*
%TO.C,REF\u002A\u002A*%
X105264109Y-27000000D03*
%TD*%
%TO.C,REF\u002A\u002A*%
X168805445Y-46791058D03*
%TD*%
D15*
%TO.C,J1*%
X153564000Y-52325704D03*
D16*
X153564000Y-54865704D03*
X153564000Y-57405704D03*
X153564000Y-59945704D03*
X153564000Y-62485704D03*
X153564000Y-65025704D03*
%TD*%
D10*
%TO.C,REF\u002A\u002A*%
X147500000Y-62192656D03*
%TD*%
%TO.C,REF\u002A\u002A*%
X149500000Y-101407864D03*
%TD*%
%TO.C,REF\u002A\u002A*%
X188110891Y-55192656D03*
%TD*%
%TO.C,REF\u002A\u002A*%
X108889109Y-99657864D03*
%TD*%
D11*
%TO.C,R4*%
X116001109Y-110393912D03*
D12*
X118898609Y-110393912D03*
X120723609Y-110393912D03*
D13*
X123621109Y-110393912D03*
%TD*%
D11*
%TO.C,R6*%
X164232000Y-106329912D03*
D14*
X161334500Y-106329912D03*
X159509500Y-106329912D03*
D13*
X156612000Y-106329912D03*
%TD*%
D10*
%TO.C,REF\u002A\u002A*%
X188110891Y-82237760D03*
%TD*%
%TO.C,REF\u002A\u002A*%
X168805445Y-70590208D03*
%TD*%
%TO.C,REF\u002A\u002A*%
X147500000Y-104907864D03*
%TD*%
%TO.C,REF\u002A\u002A*%
X188110891Y-34272552D03*
%TD*%
%TO.C,REF\u002A\u002A*%
X168805445Y-90381266D03*
%TD*%
%TO.C,REF\u002A\u002A*%
X165305445Y-46790250D03*
%TD*%
D11*
%TO.C,R1*%
X123621109Y-59183704D03*
D14*
X120723609Y-59183704D03*
X118898609Y-59183704D03*
D13*
X116001109Y-59183704D03*
%TD*%
D10*
%TO.C,REF\u002A\u002A*%
X167055445Y-70590208D03*
%TD*%
D11*
%TO.C,R7*%
X126923109Y-45008600D03*
D12*
X129820609Y-45008600D03*
X131645609Y-45008600D03*
D13*
X134543109Y-45008600D03*
%TD*%
D11*
%TO.C,R4*%
X116001109Y-66803704D03*
D12*
X118898609Y-66803704D03*
X120723609Y-66803704D03*
D13*
X123621109Y-66803704D03*
%TD*%
D10*
%TO.C,REF\u002A\u002A*%
X124694555Y-68585354D03*
%TD*%
D11*
%TO.C,R3*%
X116001109Y-99217912D03*
D12*
X118898609Y-99217912D03*
X120723609Y-99217912D03*
D13*
X123621109Y-99217912D03*
%TD*%
D11*
%TO.C,R4*%
X156612000Y-110393912D03*
D12*
X159509500Y-110393912D03*
X161334500Y-110393912D03*
D13*
X164232000Y-110393912D03*
%TD*%
D10*
%TO.C,REF\u002A\u002A*%
X129069554Y-27000000D03*
%TD*%
D11*
%TO.C,R1*%
X164232000Y-37388600D03*
D14*
X161334500Y-37388600D03*
X159509500Y-37388600D03*
D13*
X156612000Y-37388600D03*
%TD*%
D10*
%TO.C,REF\u002A\u002A*%
X166180445Y-70590208D03*
%TD*%
%TO.C,REF\u002A\u002A*%
X108889109Y-60442656D03*
%TD*%
%TO.C,REF\u002A\u002A*%
X108889109Y-37772552D03*
%TD*%
%TO.C,REF\u002A\u002A*%
X147500000Y-38647552D03*
%TD*%
%TO.C,REF\u002A\u002A*%
X167930445Y-46790856D03*
%TD*%
%TO.C,REF\u002A\u002A*%
X188110891Y-57817656D03*
%TD*%
%TO.C,REF\u002A\u002A*%
X106139109Y-27000000D03*
%TD*%
%TO.C,REF\u002A\u002A*%
X188110891Y-40397552D03*
%TD*%
%TO.C,REF\u002A\u002A*%
X128194554Y-48795104D03*
%TD*%
D17*
%TO.C,SW1*%
X167534000Y-97185912D03*
X167534000Y-107345912D03*
D16*
X167534000Y-99725912D03*
X167534000Y-102265912D03*
X167534000Y-104805912D03*
%TD*%
D10*
%TO.C,REF\u002A\u002A*%
X169680445Y-48795104D03*
%TD*%
D11*
%TO.C,R3*%
X156612000Y-33832600D03*
D12*
X159509500Y-33832600D03*
X161334500Y-33832600D03*
D13*
X164232000Y-33832600D03*
%TD*%
D10*
%TO.C,REF\u002A\u002A*%
X147500000Y-56067656D03*
%TD*%
D11*
%TO.C,R2*%
X156612000Y-30276600D03*
D12*
X159509500Y-30276600D03*
X161334500Y-30276600D03*
D13*
X164232000Y-30276600D03*
%TD*%
D10*
%TO.C,REF\u002A\u002A*%
X128194554Y-68586162D03*
%TD*%
%TO.C,REF\u002A\u002A*%
X108889109Y-34272552D03*
%TD*%
%TO.C,REF\u002A\u002A*%
X127319555Y-27000000D03*
%TD*%
%TO.C,REF\u002A\u002A*%
X147500000Y-78737760D03*
%TD*%
%TO.C,REF\u002A\u002A*%
X108889109Y-103157864D03*
%TD*%
%TO.C,REF\u002A\u002A*%
X108889109Y-81362760D03*
%TD*%
%TO.C,REF\u002A\u002A*%
X104389109Y-27000000D03*
%TD*%
%TO.C,REF\u002A\u002A*%
X124694555Y-48795104D03*
%TD*%
%TO.C,REF\u002A\u002A*%
X188110891Y-81362760D03*
%TD*%
%TO.C,REF\u002A\u002A*%
X149500000Y-105782864D03*
%TD*%
D11*
%TO.C,R5*%
X167430500Y-94137912D03*
D12*
X170328000Y-94137912D03*
X172153000Y-94137912D03*
D13*
X175050500Y-94137912D03*
%TD*%
D10*
%TO.C,REF\u002A\u002A*%
X149500000Y-61317656D03*
%TD*%
%TO.C,REF\u002A\u002A*%
X108889109Y-36022552D03*
%TD*%
%TO.C,REF\u002A\u002A*%
X147500000Y-104032864D03*
%TD*%
%TO.C,REF\u002A\u002A*%
X129944554Y-90381670D03*
%TD*%
%TO.C,REF\u002A\u002A*%
X170555445Y-92385312D03*
%TD*%
%TO.C,REF\u002A\u002A*%
X188110891Y-58692656D03*
%TD*%
%TO.C,REF\u002A\u002A*%
X108889109Y-114930416D03*
%TD*%
%TO.C,REF\u002A\u002A*%
X149500000Y-57817656D03*
%TD*%
D11*
%TO.C,R7*%
X126923109Y-88598808D03*
D12*
X129820609Y-88598808D03*
X131645609Y-88598808D03*
D13*
X134543109Y-88598808D03*
%TD*%
D10*
%TO.C,REF\u002A\u002A*%
X108889109Y-58692656D03*
%TD*%
%TO.C,REF\u002A\u002A*%
X169680445Y-46791260D03*
%TD*%
%TO.C,REF\u002A\u002A*%
X128194554Y-46791058D03*
%TD*%
D11*
%TO.C,R6*%
X164232000Y-84534808D03*
D14*
X161334500Y-84534808D03*
X159509500Y-84534808D03*
D13*
X156612000Y-84534808D03*
%TD*%
D10*
%TO.C,REF\u002A\u002A*%
X171430445Y-68586768D03*
%TD*%
D18*
%TO.C,SW2*%
X145599109Y-83224808D03*
D19*
X145599109Y-78224808D03*
X145599109Y-80724808D03*
D20*
X138099109Y-86324808D03*
X138099109Y-75124808D03*
D19*
X131099109Y-78224808D03*
X131099109Y-83224808D03*
%TD*%
D11*
%TO.C,R3*%
X156612000Y-99217912D03*
D12*
X159509500Y-99217912D03*
X161334500Y-99217912D03*
D13*
X164232000Y-99217912D03*
%TD*%
D10*
%TO.C,REF\u002A\u002A*%
X108889109Y-55192656D03*
%TD*%
%TO.C,REF\u002A\u002A*%
X108889109Y-76987760D03*
%TD*%
%TO.C,REF\u002A\u002A*%
X191735891Y-112180416D03*
%TD*%
%TO.C,REF\u002A\u002A*%
X190860891Y-112180416D03*
%TD*%
%TO.C,REF\u002A\u002A*%
X172305445Y-48795104D03*
%TD*%
%TO.C,REF\u002A\u002A*%
X124694555Y-27000000D03*
%TD*%
%TO.C,REF\u002A\u002A*%
X188110891Y-20750000D03*
%TD*%
D11*
%TO.C,R5*%
X167430500Y-50547704D03*
D12*
X170328000Y-50547704D03*
X172153000Y-50547704D03*
D13*
X175050500Y-50547704D03*
%TD*%
D10*
%TO.C,REF\u002A\u002A*%
X166180445Y-92385312D03*
%TD*%
%TO.C,REF\u002A\u002A*%
X167055445Y-112175966D03*
%TD*%
%TO.C,REF\u002A\u002A*%
X147500000Y-82237760D03*
%TD*%
%TO.C,REF\u002A\u002A*%
X102639109Y-27000000D03*
%TD*%
%TO.C,REF\u002A\u002A*%
X131694554Y-46791866D03*
%TD*%
%TO.C,REF\u002A\u002A*%
X149500000Y-104032864D03*
%TD*%
%TO.C,REF\u002A\u002A*%
X129069554Y-46791260D03*
%TD*%
%TO.C,REF\u002A\u002A*%
X108889109Y-40397552D03*
%TD*%
D17*
%TO.C,SW1*%
X126923109Y-31800600D03*
X126923109Y-41960600D03*
D16*
X126923109Y-34340600D03*
X126923109Y-36880600D03*
X126923109Y-39420600D03*
%TD*%
D10*
%TO.C,REF\u002A\u002A*%
X130819554Y-92385312D03*
%TD*%
%TO.C,REF\u002A\u002A*%
X188110891Y-102282864D03*
%TD*%
%TO.C,REF\u002A\u002A*%
X147500000Y-34272552D03*
%TD*%
%TO.C,REF\u002A\u002A*%
X193485891Y-112180416D03*
%TD*%
%TO.C,REF\u002A\u002A*%
X129069554Y-90381468D03*
%TD*%
%TO.C,REF\u002A\u002A*%
X147500000Y-98782864D03*
%TD*%
%TO.C,REF\u002A\u002A*%
X171430445Y-48795104D03*
%TD*%
%TO.C,REF\u002A\u002A*%
X188110891Y-33397552D03*
%TD*%
%TO.C,REF\u002A\u002A*%
X129069554Y-70590208D03*
%TD*%
%TO.C,REF\u002A\u002A*%
X147500000Y-36022552D03*
%TD*%
%TO.C,REF\u002A\u002A*%
X105264109Y-112180416D03*
%TD*%
%TO.C,REF\u002A\u002A*%
X190860891Y-27000000D03*
%TD*%
D11*
%TO.C,R1*%
X164232000Y-102773912D03*
D14*
X161334500Y-102773912D03*
X159509500Y-102773912D03*
D13*
X156612000Y-102773912D03*
%TD*%
D18*
%TO.C,SW2*%
X186210000Y-83224808D03*
D19*
X186210000Y-78224808D03*
X186210000Y-80724808D03*
D20*
X178710000Y-86324808D03*
X178710000Y-75124808D03*
D19*
X171710000Y-78224808D03*
X171710000Y-83224808D03*
%TD*%
D10*
%TO.C,REF\u002A\u002A*%
X129069554Y-92385312D03*
%TD*%
%TO.C,REF\u002A\u002A*%
X188110891Y-116680416D03*
%TD*%
D17*
%TO.C,SW1*%
X167534000Y-75390808D03*
X167534000Y-85550808D03*
D16*
X167534000Y-77930808D03*
X167534000Y-80470808D03*
X167534000Y-83010808D03*
%TD*%
D10*
%TO.C,REF\u002A\u002A*%
X168805445Y-48795104D03*
%TD*%
D11*
%TO.C,R1*%
X164232000Y-59183704D03*
D14*
X161334500Y-59183704D03*
X159509500Y-59183704D03*
D13*
X156612000Y-59183704D03*
%TD*%
D10*
%TO.C,REF\u002A\u002A*%
X130819554Y-48795104D03*
%TD*%
%TO.C,REF\u002A\u002A*%
X171430445Y-112176976D03*
%TD*%
%TO.C,REF\u002A\u002A*%
X188110891Y-35147552D03*
%TD*%
D11*
%TO.C,R1*%
X123621109Y-80978808D03*
D14*
X120723609Y-80978808D03*
X118898609Y-80978808D03*
D13*
X116001109Y-80978808D03*
%TD*%
D10*
%TO.C,REF\u002A\u002A*%
X167055445Y-46790654D03*
%TD*%
D11*
%TO.C,R2*%
X116001109Y-52071704D03*
D12*
X118898609Y-52071704D03*
X120723609Y-52071704D03*
D13*
X123621109Y-52071704D03*
%TD*%
D10*
%TO.C,REF\u002A\u002A*%
X126444555Y-46790654D03*
%TD*%
%TO.C,REF\u002A\u002A*%
X188110891Y-37772552D03*
%TD*%
%TO.C,REF\u002A\u002A*%
X188110891Y-118430416D03*
%TD*%
%TO.C,REF\u002A\u002A*%
X172305445Y-92385312D03*
%TD*%
%TO.C,REF\u002A\u002A*%
X108889109Y-33397552D03*
%TD*%
%TO.C,REF\u002A\u002A*%
X126444555Y-92385312D03*
%TD*%
%TO.C,REF\u002A\u002A*%
X125569555Y-92385312D03*
%TD*%
D18*
%TO.C,SW2*%
X145599109Y-61429704D03*
D19*
X145599109Y-56429704D03*
X145599109Y-58929704D03*
D20*
X138099109Y-64529704D03*
X138099109Y-53329704D03*
D19*
X131099109Y-56429704D03*
X131099109Y-61429704D03*
%TD*%
D10*
%TO.C,REF\u002A\u002A*%
X103514109Y-112180416D03*
%TD*%
%TO.C,REF\u002A\u002A*%
X108889109Y-39522552D03*
%TD*%
D11*
%TO.C,R2*%
X116001109Y-30276600D03*
D12*
X118898609Y-30276600D03*
X120723609Y-30276600D03*
D13*
X123621109Y-30276600D03*
%TD*%
D10*
%TO.C,REF\u002A\u002A*%
X108889109Y-23375000D03*
%TD*%
%TO.C,REF\u002A\u002A*%
X166180445Y-112175764D03*
%TD*%
%TO.C,REF\u002A\u002A*%
X131694554Y-92385312D03*
%TD*%
%TO.C,REF\u002A\u002A*%
X172305445Y-90382074D03*
%TD*%
%TO.C,REF\u002A\u002A*%
X125569555Y-70590208D03*
%TD*%
%TO.C,REF\u002A\u002A*%
X166180445Y-46790452D03*
%TD*%
%TO.C,REF\u002A\u002A*%
X127319555Y-68585960D03*
%TD*%
%TO.C,REF\u002A\u002A*%
X147500000Y-57817656D03*
%TD*%
%TO.C,REF\u002A\u002A*%
X129944554Y-68586566D03*
%TD*%
%TO.C,REF\u002A\u002A*%
X129069554Y-112176572D03*
%TD*%
D15*
%TO.C,J1*%
X112953109Y-52325704D03*
D16*
X112953109Y-54865704D03*
X112953109Y-57405704D03*
X112953109Y-59945704D03*
X112953109Y-62485704D03*
X112953109Y-65025704D03*
%TD*%
D10*
%TO.C,REF\u002A\u002A*%
X188110891Y-100532864D03*
%TD*%
D11*
%TO.C,R3*%
X116001109Y-33832600D03*
D12*
X118898609Y-33832600D03*
X120723609Y-33832600D03*
D13*
X123621109Y-33832600D03*
%TD*%
D10*
%TO.C,REF\u002A\u002A*%
X147500000Y-76987760D03*
%TD*%
%TO.C,REF\u002A\u002A*%
X170555445Y-48795104D03*
%TD*%
%TO.C,REF\u002A\u002A*%
X127319555Y-46790856D03*
%TD*%
%TO.C,REF\u002A\u002A*%
X167930445Y-112176168D03*
%TD*%
%TO.C,REF\u002A\u002A*%
X188110891Y-78737760D03*
%TD*%
%TO.C,REF\u002A\u002A*%
X147500000Y-40397552D03*
%TD*%
%TO.C,REF\u002A\u002A*%
X147500000Y-83987760D03*
%TD*%
%TO.C,REF\u002A\u002A*%
X171430445Y-70590208D03*
%TD*%
D18*
%TO.C,SW2*%
X145599109Y-105019912D03*
D19*
X145599109Y-100019912D03*
X145599109Y-102519912D03*
D20*
X138099109Y-108119912D03*
X138099109Y-96919912D03*
D19*
X131099109Y-100019912D03*
X131099109Y-105019912D03*
%TD*%
D11*
%TO.C,R1*%
X164232000Y-80978808D03*
D14*
X161334500Y-80978808D03*
X159509500Y-80978808D03*
D13*
X156612000Y-80978808D03*
%TD*%
D10*
%TO.C,REF\u002A\u002A*%
X125569555Y-27000000D03*
%TD*%
%TO.C,REF\u002A\u002A*%
X171430445Y-46791664D03*
%TD*%
%TO.C,REF\u002A\u002A*%
X167055445Y-68585758D03*
%TD*%
%TO.C,REF\u002A\u002A*%
X165305445Y-112175562D03*
%TD*%
D11*
%TO.C,R7*%
X167534000Y-66803704D03*
D12*
X170431500Y-66803704D03*
X172256500Y-66803704D03*
D13*
X175154000Y-66803704D03*
%TD*%
D10*
%TO.C,REF\u002A\u002A*%
X127319555Y-48795104D03*
%TD*%
%TO.C,REF\u002A\u002A*%
X188110891Y-114930416D03*
%TD*%
D18*
%TO.C,SW2*%
X186210000Y-61429704D03*
D19*
X186210000Y-56429704D03*
X186210000Y-58929704D03*
D20*
X178710000Y-64529704D03*
X178710000Y-53329704D03*
D19*
X171710000Y-56429704D03*
X171710000Y-61429704D03*
%TD*%
D10*
%TO.C,REF\u002A\u002A*%
X188110891Y-21625000D03*
%TD*%
%TO.C,REF\u002A\u002A*%
X188110891Y-105782864D03*
%TD*%
%TO.C,REF\u002A\u002A*%
X188110891Y-22500000D03*
%TD*%
%TO.C,REF\u002A\u002A*%
X147500000Y-56942656D03*
%TD*%
%TO.C,REF\u002A\u002A*%
X170555445Y-112176774D03*
%TD*%
D11*
%TO.C,R6*%
X123621109Y-40944600D03*
D14*
X120723609Y-40944600D03*
X118898609Y-40944600D03*
D13*
X116001109Y-40944600D03*
%TD*%
D10*
%TO.C,REF\u002A\u002A*%
X104389109Y-112180416D03*
%TD*%
D17*
%TO.C,SW1*%
X167534000Y-31800600D03*
X167534000Y-41960600D03*
D16*
X167534000Y-34340600D03*
X167534000Y-36880600D03*
X167534000Y-39420600D03*
%TD*%
D10*
%TO.C,REF\u002A\u002A*%
X170555445Y-27000000D03*
%TD*%
%TO.C,REF\u002A\u002A*%
X188110891Y-117555416D03*
%TD*%
%TO.C,REF\u002A\u002A*%
X188110891Y-98782864D03*
%TD*%
%TO.C,REF\u002A\u002A*%
X108889109Y-83112760D03*
%TD*%
%TO.C,REF\u002A\u002A*%
X188110891Y-60442656D03*
%TD*%
D11*
%TO.C,R7*%
X126923109Y-110393912D03*
D12*
X129820609Y-110393912D03*
X131645609Y-110393912D03*
D13*
X134543109Y-110393912D03*
%TD*%
D10*
%TO.C,REF\u002A\u002A*%
X124694555Y-70590208D03*
%TD*%
%TO.C,REF\u002A\u002A*%
X188110891Y-99657864D03*
%TD*%
%TO.C,REF\u002A\u002A*%
X192610891Y-27000000D03*
%TD*%
%TO.C,REF\u002A\u002A*%
X108889109Y-80487760D03*
%TD*%
%TO.C,REF\u002A\u002A*%
X167930445Y-92385312D03*
%TD*%
D17*
%TO.C,SW1*%
X167534000Y-53595704D03*
X167534000Y-63755704D03*
D16*
X167534000Y-56135704D03*
X167534000Y-58675704D03*
X167534000Y-61215704D03*
%TD*%
D10*
%TO.C,REF\u002A\u002A*%
X125569555Y-112175764D03*
%TD*%
%TO.C,REF\u002A\u002A*%
X108889109Y-78737760D03*
%TD*%
%TO.C,REF\u002A\u002A*%
X149500000Y-102282864D03*
%TD*%
%TO.C,REF\u002A\u002A*%
X147500000Y-99657864D03*
%TD*%
%TO.C,REF\u002A\u002A*%
X168805445Y-92385312D03*
%TD*%
%TO.C,REF\u002A\u002A*%
X126444555Y-68585758D03*
%TD*%
%TO.C,REF\u002A\u002A*%
X108889109Y-104907864D03*
%TD*%
%TO.C,REF\u002A\u002A*%
X169680445Y-92385312D03*
%TD*%
D11*
%TO.C,R4*%
X116001109Y-45008600D03*
D12*
X118898609Y-45008600D03*
X120723609Y-45008600D03*
D13*
X123621109Y-45008600D03*
%TD*%
D11*
%TO.C,R4*%
X156612000Y-88598808D03*
D12*
X159509500Y-88598808D03*
X161334500Y-88598808D03*
D13*
X164232000Y-88598808D03*
%TD*%
D10*
%TO.C,REF\u002A\u002A*%
X108889109Y-102282864D03*
%TD*%
%TO.C,REF\u002A\u002A*%
X188110891Y-36897552D03*
%TD*%
D11*
%TO.C,R7*%
X167534000Y-110393912D03*
D12*
X170431500Y-110393912D03*
X172256500Y-110393912D03*
D13*
X175154000Y-110393912D03*
%TD*%
D10*
%TO.C,REF\u002A\u002A*%
X165305445Y-48795104D03*
%TD*%
D11*
%TO.C,R4*%
X156612000Y-45008600D03*
D12*
X159509500Y-45008600D03*
X161334500Y-45008600D03*
D13*
X164232000Y-45008600D03*
%TD*%
D10*
%TO.C,REF\u002A\u002A*%
X129069554Y-48795104D03*
%TD*%
%TO.C,REF\u002A\u002A*%
X188110891Y-62192656D03*
%TD*%
%TO.C,REF\u002A\u002A*%
X166180445Y-48795104D03*
%TD*%
D11*
%TO.C,R7*%
X167534000Y-45008600D03*
D12*
X170431500Y-45008600D03*
X172256500Y-45008600D03*
D13*
X175154000Y-45008600D03*
%TD*%
D11*
%TO.C,R3*%
X116001109Y-55627704D03*
D12*
X118898609Y-55627704D03*
X120723609Y-55627704D03*
D13*
X123621109Y-55627704D03*
%TD*%
D10*
%TO.C,REF\u002A\u002A*%
X108889109Y-118430416D03*
%TD*%
%TO.C,REF\u002A\u002A*%
X108889109Y-36897552D03*
%TD*%
D11*
%TO.C,R6*%
X164232000Y-62739704D03*
D14*
X161334500Y-62739704D03*
X159509500Y-62739704D03*
D13*
X156612000Y-62739704D03*
%TD*%
D11*
%TO.C,R5*%
X126819609Y-28752600D03*
D12*
X129717109Y-28752600D03*
X131542109Y-28752600D03*
D13*
X134439609Y-28752600D03*
%TD*%
D10*
%TO.C,REF\u002A\u002A*%
X172305445Y-46791866D03*
%TD*%
%TO.C,REF\u002A\u002A*%
X191735891Y-27000000D03*
%TD*%
%TO.C,REF\u002A\u002A*%
X126444555Y-90380862D03*
%TD*%
%TO.C,REF\u002A\u002A*%
X131694554Y-48795104D03*
%TD*%
%TO.C,REF\u002A\u002A*%
X108889109Y-82237760D03*
%TD*%
D11*
%TO.C,R5*%
X126819609Y-72342808D03*
D12*
X129717109Y-72342808D03*
X131542109Y-72342808D03*
D13*
X134439609Y-72342808D03*
%TD*%
D10*
%TO.C,REF\u002A\u002A*%
X194360891Y-27000000D03*
%TD*%
D18*
%TO.C,SW2*%
X145599109Y-39634600D03*
D19*
X145599109Y-34634600D03*
X145599109Y-37134600D03*
D20*
X138099109Y-42734600D03*
X138099109Y-31534600D03*
D19*
X131099109Y-34634600D03*
X131099109Y-39634600D03*
%TD*%
D17*
%TO.C,SW1*%
X126923109Y-97185912D03*
X126923109Y-107345912D03*
D16*
X126923109Y-99725912D03*
X126923109Y-102265912D03*
X126923109Y-104805912D03*
%TD*%
D10*
%TO.C,REF\u002A\u002A*%
X149500000Y-76987760D03*
%TD*%
%TO.C,REF\u002A\u002A*%
X166180445Y-68585556D03*
%TD*%
%TO.C,REF\u002A\u002A*%
X172305445Y-27000000D03*
%TD*%
%TO.C,REF\u002A\u002A*%
X167930445Y-27000000D03*
%TD*%
D15*
%TO.C,J1*%
X153564000Y-95915912D03*
D16*
X153564000Y-98455912D03*
X153564000Y-100995912D03*
X153564000Y-103535912D03*
X153564000Y-106075912D03*
X153564000Y-108615912D03*
%TD*%
D10*
%TO.C,REF\u002A\u002A*%
X193485891Y-27000000D03*
%TD*%
%TO.C,REF\u002A\u002A*%
X149500000Y-35147552D03*
%TD*%
%TO.C,REF\u002A\u002A*%
X129944554Y-48795104D03*
%TD*%
%TO.C,REF\u002A\u002A*%
X167930445Y-70590208D03*
%TD*%
D11*
%TO.C,R2*%
X156612000Y-73866808D03*
D12*
X159509500Y-73866808D03*
X161334500Y-73866808D03*
D13*
X164232000Y-73866808D03*
%TD*%
D10*
%TO.C,REF\u002A\u002A*%
X108889109Y-56067656D03*
%TD*%
D11*
%TO.C,R4*%
X116001109Y-88598808D03*
D12*
X118898609Y-88598808D03*
X120723609Y-88598808D03*
D13*
X123621109Y-88598808D03*
%TD*%
D10*
%TO.C,REF\u002A\u002A*%
X149500000Y-36022552D03*
%TD*%
%TO.C,REF\u002A\u002A*%
X128194554Y-112176370D03*
%TD*%
M02*
