M48
; DRILL file {KiCad 7.0.2} date Mon Jun  5 19:45:13 2023
; FORMAT={-:-/ absolute / metric / decimal}
; #@! TF.CreationDate,2023-06-05T19:45:13+09:00
; #@! TF.GenerationSoftware,Kicad,Pcbnew,7.0.2
; #@! TF.FileFunction,NonPlated,1,2,NPTH
FMAT,2
METRIC
; #@! TA.AperFunction,NonPlated,NPTH,ComponentDrill
T1C0.500
; #@! TA.AperFunction,NonPlated,NPTH,ComponentDrill
T2C1.200
%
G90
G05
T1
X102.126Y-27.0
X102.126Y-112.18
X103.001Y-27.0
X103.001Y-112.18
X103.876Y-27.0
X103.876Y-112.18
X104.751Y-27.0
X104.751Y-112.18
X105.626Y-27.0
X105.626Y-112.18
X108.376Y-20.75
X108.376Y-21.625
X108.376Y-22.5
X108.376Y-23.375
X108.376Y-24.25
X108.376Y-33.398
X108.376Y-34.273
X108.376Y-35.148
X108.376Y-36.023
X108.376Y-36.898
X108.376Y-37.773
X108.376Y-38.648
X108.376Y-39.523
X108.376Y-40.398
X108.376Y-55.193
X108.376Y-56.068
X108.376Y-56.943
X108.376Y-57.818
X108.376Y-58.693
X108.376Y-59.568
X108.376Y-60.443
X108.376Y-61.318
X108.376Y-62.193
X108.376Y-76.988
X108.376Y-77.863
X108.376Y-78.738
X108.376Y-79.613
X108.376Y-80.488
X108.376Y-81.363
X108.376Y-82.238
X108.376Y-83.113
X108.376Y-83.988
X108.376Y-98.783
X108.376Y-99.658
X108.376Y-100.533
X108.376Y-101.408
X108.376Y-102.283
X108.376Y-103.158
X108.376Y-104.033
X108.376Y-104.908
X108.376Y-105.783
X108.376Y-114.93
X108.376Y-115.805
X108.376Y-116.68
X108.376Y-117.555
X108.376Y-118.43
X124.438Y-27.0
X124.438Y-48.795
X124.438Y-70.59
X124.438Y-92.385
X124.438Y-46.79
X124.438Y-68.585
X124.438Y-90.381
X124.438Y-112.176
X125.313Y-27.0
X125.313Y-48.795
X125.313Y-70.59
X125.313Y-92.385
X125.313Y-46.791
X125.313Y-68.586
X125.313Y-90.381
X125.313Y-112.176
X126.188Y-27.0
X126.188Y-48.795
X126.188Y-70.59
X126.188Y-92.385
X126.188Y-46.791
X126.188Y-68.586
X126.188Y-90.381
X126.188Y-112.176
X127.063Y-27.0
X127.063Y-48.795
X127.063Y-70.59
X127.063Y-92.385
X127.063Y-46.791
X127.063Y-68.586
X127.063Y-90.381
X127.063Y-112.176
X127.938Y-27.0
X127.938Y-46.791
X127.938Y-48.795
X127.938Y-68.586
X127.938Y-70.59
X127.938Y-90.381
X127.938Y-92.385
X127.938Y-112.176
X128.813Y-46.791
X128.813Y-68.586
X128.813Y-90.382
X128.813Y-112.177
X128.813Y-27.0
X128.813Y-48.795
X128.813Y-70.59
X128.813Y-92.385
X129.688Y-46.792
X129.688Y-68.587
X129.688Y-90.382
X129.688Y-112.177
X129.688Y-27.0
X129.688Y-48.795
X129.688Y-70.59
X129.688Y-92.385
X130.563Y-46.792
X130.563Y-68.587
X130.563Y-90.382
X130.563Y-112.177
X130.563Y-27.0
X130.563Y-48.795
X130.563Y-70.59
X130.563Y-92.385
X131.438Y-46.792
X131.438Y-68.587
X131.438Y-90.382
X131.438Y-112.177
X131.438Y-27.0
X131.438Y-48.795
X131.438Y-70.59
X131.438Y-92.385
X147.494Y-40.398
X147.494Y-62.193
X147.494Y-83.988
X147.494Y-105.783
X147.495Y-39.523
X147.495Y-61.318
X147.495Y-83.113
X147.495Y-104.908
X147.495Y-38.648
X147.495Y-60.443
X147.495Y-82.238
X147.495Y-104.033
X147.496Y-37.773
X147.496Y-59.568
X147.496Y-81.363
X147.496Y-103.158
X147.496Y-36.898
X147.496Y-58.693
X147.496Y-80.488
X147.496Y-102.283
X147.497Y-36.023
X147.497Y-57.818
X147.497Y-79.613
X147.497Y-101.408
X147.497Y-35.148
X147.497Y-56.943
X147.497Y-78.738
X147.497Y-100.533
X147.497Y-34.273
X147.497Y-56.068
X147.497Y-77.863
X147.497Y-99.658
X147.498Y-33.398
X147.498Y-55.193
X147.498Y-76.988
X147.498Y-98.783
X149.5Y-33.398
X149.5Y-34.273
X149.5Y-35.148
X149.5Y-36.023
X149.5Y-36.898
X149.5Y-37.773
X149.5Y-38.648
X149.5Y-39.523
X149.5Y-40.398
X149.5Y-55.193
X149.5Y-56.068
X149.5Y-56.943
X149.5Y-57.818
X149.5Y-58.693
X149.5Y-59.568
X149.5Y-60.443
X149.5Y-61.318
X149.5Y-62.193
X149.5Y-76.988
X149.5Y-77.863
X149.5Y-78.738
X149.5Y-79.613
X149.5Y-80.488
X149.5Y-81.363
X149.5Y-82.238
X149.5Y-83.113
X149.5Y-83.988
X149.5Y-98.783
X149.5Y-99.658
X149.5Y-100.533
X149.5Y-101.408
X149.5Y-102.283
X149.5Y-103.158
X149.5Y-104.033
X149.5Y-104.908
X149.5Y-105.783
X165.562Y-27.0
X165.562Y-46.79
X165.562Y-48.795
X165.562Y-68.585
X165.562Y-70.59
X165.562Y-90.381
X165.562Y-92.385
X165.562Y-112.176
X166.437Y-27.0
X166.437Y-46.791
X166.437Y-48.795
X166.437Y-68.586
X166.437Y-70.59
X166.437Y-90.381
X166.437Y-92.385
X166.437Y-112.176
X167.312Y-27.0
X167.312Y-46.791
X167.312Y-48.795
X167.312Y-68.586
X167.312Y-70.59
X167.312Y-90.381
X167.312Y-92.385
X167.312Y-112.176
X168.187Y-27.0
X168.187Y-46.791
X168.187Y-48.795
X168.187Y-68.586
X168.187Y-70.59
X168.187Y-90.381
X168.187Y-92.385
X168.187Y-112.176
X169.062Y-27.0
X169.062Y-46.791
X169.062Y-48.795
X169.062Y-68.586
X169.062Y-70.59
X169.062Y-90.381
X169.062Y-92.385
X169.062Y-112.176
X169.937Y-46.791
X169.937Y-68.586
X169.937Y-90.382
X169.937Y-112.177
X169.937Y-27.0
X169.937Y-48.795
X169.937Y-70.59
X169.937Y-92.385
X170.812Y-46.792
X170.812Y-68.587
X170.812Y-90.382
X170.812Y-112.177
X170.812Y-27.0
X170.812Y-48.795
X170.812Y-70.59
X170.812Y-92.385
X171.687Y-46.792
X171.687Y-68.587
X171.687Y-90.382
X171.687Y-112.177
X171.687Y-27.0
X171.687Y-48.795
X171.687Y-70.59
X171.687Y-92.385
X172.562Y-46.792
X172.562Y-68.587
X172.562Y-90.382
X172.562Y-112.177
X172.562Y-27.0
X172.562Y-48.795
X172.562Y-70.59
X172.562Y-92.385
X188.618Y-40.398
X188.618Y-62.193
X188.618Y-83.988
X188.618Y-105.783
X188.619Y-39.523
X188.619Y-61.318
X188.619Y-83.113
X188.619Y-104.908
X188.619Y-38.648
X188.619Y-60.443
X188.619Y-82.238
X188.619Y-104.033
X188.619Y-37.773
X188.619Y-59.568
X188.619Y-81.363
X188.619Y-103.158
X188.62Y-36.898
X188.62Y-58.693
X188.62Y-80.488
X188.62Y-102.283
X188.62Y-36.023
X188.62Y-57.818
X188.62Y-79.613
X188.62Y-101.408
X188.621Y-35.148
X188.621Y-56.943
X188.621Y-78.738
X188.621Y-100.533
X188.621Y-34.273
X188.621Y-56.068
X188.621Y-77.863
X188.621Y-99.658
X188.622Y-33.398
X188.622Y-55.193
X188.622Y-76.988
X188.622Y-98.783
X188.624Y-20.75
X188.624Y-21.625
X188.624Y-22.5
X188.624Y-23.375
X188.624Y-24.25
X188.624Y-114.93
X188.624Y-115.805
X188.624Y-116.68
X188.624Y-117.555
X188.624Y-118.43
X191.374Y-27.0
X191.374Y-112.18
X192.249Y-27.0
X192.249Y-112.18
X193.124Y-27.0
X193.124Y-112.18
X193.999Y-27.0
X193.999Y-112.18
X194.874Y-27.0
X194.874Y-112.18
T2
X126.41Y-31.801
X126.41Y-41.961
X126.41Y-53.596
X126.41Y-63.756
X126.41Y-75.391
X126.41Y-85.551
X126.41Y-97.186
X126.41Y-107.346
X167.534Y-31.801
X167.534Y-41.961
X167.534Y-53.596
X167.534Y-63.756
X167.534Y-75.391
X167.534Y-85.551
X167.534Y-97.186
X167.534Y-107.346
T0
M30
