%TF.GenerationSoftware,KiCad,Pcbnew,7.0.2*%
%TF.CreationDate,2023-05-26T21:55:48+09:00*%
%TF.ProjectId,kikit,6b696b69-742e-46b6-9963-61645f706362,rev?*%
%TF.SameCoordinates,Original*%
%TF.FileFunction,Profile,NP*%
%FSLAX46Y46*%
G04 Gerber Fmt 4.6, Leading zero omitted, Abs format (unit mm)*
G04 Created by KiCad (PCBNEW 7.0.2) date 2023-05-26 21:55:48*
%MOMM*%
%LPD*%
G01*
G04 APERTURE LIST*
%TA.AperFunction,Profile*%
%ADD10C,0.100000*%
%TD*%
G04 APERTURE END LIST*
D10*
X188110891Y-45007436D02*
X188110891Y-39397552D01*
X190110891Y-119180416D02*
X190600976Y-119156339D01*
X171305445Y-68586740D02*
X186321495Y-68590208D01*
X193282857Y-21134947D02*
X192888742Y-20842651D01*
X105913657Y-20096073D02*
X105437685Y-20215298D01*
X166305445Y-27000000D02*
X149500000Y-27000000D01*
X190600976Y-119156339D02*
X191086342Y-119084342D01*
X130694554Y-92385312D02*
X130694554Y-91385312D01*
X147500000Y-50547704D02*
X145747400Y-48795104D01*
X193282857Y-118045468D02*
X193646424Y-117715949D01*
X147500000Y-99782864D02*
X147500000Y-94137912D01*
X188110891Y-104782864D02*
X190110891Y-104782864D01*
X166305445Y-90380689D02*
X166305445Y-91385312D01*
X191562314Y-118965117D02*
X192024308Y-118799813D01*
X195014817Y-115155867D02*
X195086814Y-114670501D01*
X188110891Y-50547704D02*
X186358291Y-48795104D01*
X166305445Y-91385312D02*
X166305445Y-92385312D01*
X195014817Y-24024548D02*
X194895592Y-23548576D01*
X190110891Y-56192656D02*
X188110891Y-56192656D01*
X149500000Y-104782864D02*
X149500000Y-112171912D01*
X171305445Y-46791636D02*
X186321495Y-46795104D01*
X145710604Y-46795104D02*
X147500000Y-45007436D01*
X102104407Y-115631839D02*
X102269711Y-116093833D01*
X149500000Y-77987760D02*
X148500000Y-77987760D01*
X149500000Y-112171912D02*
X166305445Y-112175793D01*
X193646424Y-117715949D02*
X193975943Y-117352382D01*
X108889109Y-90376808D02*
X125694554Y-90380689D01*
X190110891Y-114180416D02*
X171305445Y-114180416D01*
X194520497Y-116537399D02*
X194730288Y-116093833D01*
X101889109Y-25000000D02*
X101889109Y-114180416D01*
X188110891Y-72342808D02*
X186358291Y-70590208D01*
X195086814Y-114670501D02*
X195110891Y-114180416D01*
X125694554Y-92385312D02*
X125694554Y-92385312D01*
X101985182Y-115155867D02*
X102104407Y-115631839D01*
X145710604Y-90385312D02*
X147500000Y-88597644D01*
X190110891Y-77987760D02*
X188110891Y-77987760D01*
X125694554Y-112175793D02*
X125694554Y-114180416D01*
X108889109Y-99782864D02*
X106889109Y-99782864D01*
X106889109Y-119180416D02*
X190110891Y-119180416D01*
X125694554Y-90380689D02*
X125694554Y-91385312D01*
X101889109Y-114180416D02*
X101913185Y-114670501D01*
X145747400Y-27000000D02*
X130694554Y-27000000D01*
X147500000Y-39397552D02*
X148500000Y-39397552D01*
X166305445Y-114180416D02*
X130694554Y-114180416D01*
X104532125Y-118590022D02*
X104975691Y-118799813D01*
X101913185Y-114670501D02*
X101985182Y-115155867D01*
X188110891Y-77987760D02*
X188110891Y-72342808D01*
X149500000Y-92385312D02*
X149500000Y-99782864D01*
X188110891Y-39397552D02*
X190110891Y-39397552D01*
X186321495Y-112180416D02*
X188110891Y-110392748D01*
X149500000Y-70590208D02*
X149500000Y-77987760D01*
X149500000Y-46786600D02*
X166305445Y-46790481D01*
X147500000Y-104782864D02*
X148500000Y-104782864D01*
X149500000Y-27000000D02*
X149500000Y-34397552D01*
X130694554Y-46791636D02*
X145710604Y-46795104D01*
X186358291Y-48795104D02*
X171305445Y-48795104D01*
X188110891Y-34397552D02*
X188110891Y-28752600D01*
X106889109Y-56192656D02*
X106889109Y-39397552D01*
X103024056Y-21828033D02*
X102731760Y-22222148D01*
X104111257Y-118337764D02*
X104532125Y-118590022D01*
X149500000Y-82987760D02*
X149500000Y-90376808D01*
X195110891Y-114180416D02*
X195110891Y-25000000D01*
X166305445Y-70590208D02*
X149500000Y-70590208D01*
X106889109Y-34397552D02*
X106889109Y-25000000D01*
X105437685Y-118965117D02*
X105913657Y-119084342D01*
X166305445Y-46790481D02*
X166305445Y-47795104D01*
X166305445Y-48795104D02*
X149500000Y-48795104D01*
X145747400Y-92385312D02*
X130694554Y-92385312D01*
X130694554Y-68586740D02*
X130694554Y-68586740D01*
X190110891Y-104782864D02*
X190110891Y-114180416D01*
X105437685Y-20215298D02*
X104975691Y-20380602D01*
X190600976Y-20024076D02*
X190110891Y-20000000D01*
X147500000Y-61192656D02*
X148500000Y-61192656D01*
X171305445Y-48795104D02*
X171305445Y-47795104D01*
X166305445Y-25000000D02*
X166305445Y-27000000D01*
X186358291Y-92385312D02*
X171305445Y-92385312D01*
X190110891Y-104782864D02*
X190110891Y-104782864D01*
X194895592Y-23548576D02*
X194730288Y-23086582D01*
X149500000Y-56192656D02*
X148500000Y-56192656D01*
X130694554Y-91385312D02*
X130694554Y-90381844D01*
X171305445Y-91385312D02*
X171305445Y-90381844D01*
X188110891Y-110392748D02*
X188110891Y-104782864D01*
X106399023Y-20024076D02*
X105913657Y-20096073D01*
X190110891Y-61192656D02*
X190110891Y-77987760D01*
X193975943Y-117352382D02*
X194268239Y-116958267D01*
X194520497Y-22643016D02*
X194268239Y-22222148D01*
X195086814Y-24509914D02*
X195014817Y-24024548D01*
X171305445Y-25000000D02*
X171305445Y-25000000D01*
X130694554Y-46791636D02*
X130694554Y-46791636D01*
X125694554Y-69590208D02*
X125694554Y-70590208D01*
X104111257Y-20842651D02*
X103717142Y-21134947D01*
X188110891Y-56192656D02*
X188110891Y-50547704D01*
X147500000Y-45007436D02*
X147500000Y-39397552D01*
X130694554Y-90381844D02*
X145710604Y-90385312D01*
X194895592Y-115631839D02*
X195014817Y-115155867D01*
X186358291Y-27000000D02*
X171305445Y-27000000D01*
X108889109Y-112171912D02*
X125694554Y-112175793D01*
X194268239Y-22222148D02*
X193975943Y-21828033D01*
X171305445Y-91385312D02*
X171305445Y-91385312D01*
X191086342Y-20096073D02*
X190600976Y-20024076D01*
X130694554Y-68586740D02*
X145710604Y-68590208D01*
X108889109Y-34397552D02*
X106889109Y-34397552D01*
X192467874Y-20590393D02*
X192024308Y-20380602D01*
X125694554Y-92385312D02*
X108889109Y-92385312D01*
X145710604Y-68590208D02*
X147500000Y-66802540D01*
X130694554Y-112176948D02*
X145710604Y-112180416D01*
X103353575Y-117715949D02*
X103717142Y-118045468D01*
X106889109Y-114180416D02*
X106889109Y-114180416D01*
X106889109Y-104782864D02*
X108889109Y-104782864D01*
X171305445Y-27000000D02*
X171305445Y-25000000D01*
X125694554Y-114180416D02*
X106889109Y-114180416D01*
X171305445Y-70590208D02*
X171305445Y-69590208D01*
X147500000Y-77987760D02*
X147500000Y-72342808D01*
X130694554Y-69590208D02*
X130694554Y-68586740D01*
X106889109Y-20000000D02*
X106399023Y-20024076D01*
X104975691Y-118799813D02*
X105437685Y-118965117D01*
X108889109Y-77987760D02*
X106889109Y-77987760D01*
X192024308Y-118799813D02*
X192467874Y-118590022D01*
X190110891Y-99782864D02*
X188110891Y-99782864D01*
X108889109Y-68581704D02*
X125694554Y-68585585D01*
X104975691Y-20380602D02*
X104532125Y-20590393D01*
X171305445Y-114180416D02*
X171305445Y-112176948D01*
X166305445Y-47795104D02*
X166305445Y-48795104D01*
X103353575Y-21464466D02*
X103024056Y-21828033D01*
X108889109Y-82987760D02*
X108889109Y-90376808D01*
X104532125Y-20590393D02*
X104111257Y-20842651D01*
X186358291Y-70590208D02*
X171305445Y-70590208D01*
X195110891Y-25000000D02*
X195086814Y-24509914D01*
X149500000Y-90376808D02*
X166305445Y-90380689D01*
X108889109Y-27000000D02*
X108889109Y-34397552D01*
X148500000Y-61192656D02*
X149500000Y-61192656D01*
X145747400Y-48795104D02*
X130694554Y-48795104D01*
X108889109Y-104782864D02*
X108889109Y-112171912D01*
X125694554Y-25000000D02*
X125694554Y-27000000D01*
X148500000Y-104782864D02*
X149500000Y-104782864D01*
X171305445Y-47795104D02*
X171305445Y-46791636D01*
X102479502Y-116537399D02*
X102731760Y-116958267D01*
X147500000Y-72342808D02*
X145747400Y-70590208D01*
X130694554Y-48795104D02*
X130694554Y-47795104D01*
X148500000Y-104782864D02*
X148500000Y-104782864D01*
X149500000Y-34397552D02*
X148500000Y-34397552D01*
X171305445Y-112176948D02*
X186321495Y-112180416D01*
X195014817Y-24024548D02*
X195014817Y-24024548D01*
X171305445Y-69590208D02*
X171305445Y-68586740D01*
X108889109Y-70590208D02*
X108889109Y-77987760D01*
X148500000Y-99782864D02*
X147500000Y-99782864D01*
X171305445Y-47795104D02*
X171305445Y-47795104D01*
X188110891Y-82987760D02*
X190110891Y-82987760D01*
X149500000Y-39397552D02*
X149500000Y-46786600D01*
X186321495Y-90385312D02*
X188110891Y-88597644D01*
X108889109Y-48795104D02*
X108889109Y-56192656D01*
X191086342Y-119084342D02*
X191562314Y-118965117D01*
X102269711Y-116093833D02*
X102479502Y-116537399D01*
X125694554Y-27000000D02*
X108889109Y-27000000D01*
X149500000Y-68581704D02*
X166305445Y-68585585D01*
X130694554Y-47795104D02*
X130694554Y-46791636D01*
X147500000Y-56192656D02*
X147500000Y-50547704D01*
X130694554Y-114180416D02*
X130694554Y-112176948D01*
X125694554Y-47795104D02*
X125694554Y-48795104D01*
X149500000Y-48795104D02*
X149500000Y-56192656D01*
X148500000Y-39397552D02*
X149500000Y-39397552D01*
X149500000Y-61192656D02*
X149500000Y-68581704D01*
X194268239Y-116958267D02*
X194520497Y-116537399D01*
X188110891Y-94137912D02*
X186358291Y-92385312D01*
X192888742Y-118337764D02*
X193282857Y-118045468D01*
X190110891Y-25000000D02*
X190110891Y-34397552D01*
X166305445Y-68585585D02*
X166305445Y-69590208D01*
X103717142Y-21134947D02*
X103353575Y-21464466D01*
X103717142Y-118045468D02*
X104111257Y-118337764D01*
X190110891Y-82987760D02*
X190110891Y-99782864D01*
X106889109Y-99782864D02*
X106889109Y-82987760D01*
X125694554Y-68585585D02*
X125694554Y-69590208D01*
X102731760Y-22222148D02*
X102479502Y-22643016D01*
X193975943Y-21828033D02*
X193646424Y-21464466D01*
X147500000Y-66802540D02*
X147500000Y-61192656D01*
X188110891Y-28752600D02*
X186358291Y-27000000D01*
X125694554Y-48795104D02*
X125694554Y-48795104D01*
X102269711Y-23086582D02*
X102104407Y-23548576D01*
X130694554Y-70590208D02*
X130694554Y-69590208D01*
X102731760Y-116958267D02*
X103024056Y-117352382D01*
X171305445Y-25000000D02*
X190110891Y-25000000D01*
X106889109Y-25000000D02*
X125694554Y-25000000D01*
X106889109Y-82987760D02*
X108889109Y-82987760D01*
X102479502Y-22643016D02*
X102269711Y-23086582D01*
X171305445Y-92385312D02*
X171305445Y-91385312D01*
X148500000Y-56192656D02*
X147500000Y-56192656D01*
X130694554Y-25000000D02*
X166305445Y-25000000D01*
X148500000Y-77987760D02*
X147500000Y-77987760D01*
X147500000Y-28752600D02*
X145747400Y-27000000D01*
X171305445Y-90381844D02*
X186321495Y-90385312D01*
X191562314Y-20215298D02*
X191086342Y-20096073D01*
X145710604Y-112180416D02*
X147500000Y-110392748D01*
X105913657Y-119084342D02*
X106399023Y-119156339D01*
X149500000Y-99782864D02*
X148500000Y-99782864D01*
X108889109Y-92385312D02*
X108889109Y-99782864D01*
X101913185Y-24509914D02*
X101889109Y-25000000D01*
X192467874Y-118590022D02*
X192888742Y-118337764D01*
X188110891Y-66802540D02*
X188110891Y-61192656D01*
X130694554Y-27000000D02*
X130694554Y-25000000D01*
X188110891Y-88597644D02*
X188110891Y-82987760D01*
X147500000Y-34397552D02*
X147500000Y-28752600D01*
X108889109Y-61192656D02*
X108889109Y-68581704D01*
X192888742Y-20842651D02*
X192467874Y-20590393D01*
X102104407Y-23548576D02*
X101985182Y-24024548D01*
X125694554Y-48795104D02*
X108889109Y-48795104D01*
X190110891Y-34397552D02*
X188110891Y-34397552D01*
X171305445Y-69590208D02*
X171305445Y-69590208D01*
X188110891Y-61192656D02*
X190110891Y-61192656D01*
X101985182Y-24024548D02*
X101913185Y-24509914D01*
X108889109Y-56192656D02*
X106889109Y-56192656D01*
X194730288Y-23086582D02*
X194520497Y-22643016D01*
X194730288Y-116093833D02*
X194895592Y-115631839D01*
X166305445Y-112175793D02*
X166305445Y-114180416D01*
X193646424Y-21464466D02*
X193282857Y-21134947D01*
X147500000Y-88597644D02*
X147500000Y-82987760D01*
X125694554Y-70590208D02*
X125694554Y-70590208D01*
X148500000Y-34397552D02*
X147500000Y-34397552D01*
X186321495Y-68590208D02*
X188110891Y-66802540D01*
X108889109Y-39397552D02*
X108889109Y-46786600D01*
X147500000Y-110392748D02*
X147500000Y-104782864D01*
X147500000Y-94137912D02*
X145747400Y-92385312D01*
X106889109Y-114180416D02*
X106889109Y-104782864D01*
X106889109Y-77987760D02*
X106889109Y-61192656D01*
X106399023Y-119156339D02*
X106889109Y-119180416D01*
X106889109Y-39397552D02*
X108889109Y-39397552D01*
X125694554Y-27000000D02*
X125694554Y-27000000D01*
X190110891Y-39397552D02*
X190110891Y-56192656D01*
X130694554Y-90381844D02*
X130694554Y-90381844D01*
X190110891Y-20000000D02*
X106889109Y-20000000D01*
X147500000Y-34397552D02*
X147500000Y-34397552D01*
X125694554Y-70590208D02*
X108889109Y-70590208D01*
X106889109Y-61192656D02*
X108889109Y-61192656D01*
X125694554Y-91385312D02*
X125694554Y-92385312D01*
X192024308Y-20380602D02*
X191562314Y-20215298D01*
X166305445Y-92385312D02*
X149500000Y-92385312D01*
X186321495Y-46795104D02*
X188110891Y-45007436D01*
X148500000Y-82987760D02*
X149500000Y-82987760D01*
X108889109Y-46786600D02*
X125694554Y-46790481D01*
X166305445Y-69590208D02*
X166305445Y-70590208D01*
X103024056Y-117352382D02*
X103353575Y-117715949D01*
X147500000Y-82987760D02*
X148500000Y-82987760D01*
X145747400Y-70590208D02*
X130694554Y-70590208D01*
X125694554Y-46790481D02*
X125694554Y-47795104D01*
X188110891Y-99782864D02*
X188110891Y-94137912D01*
M02*
