%TF.GenerationSoftware,KiCad,Pcbnew,7.0.2*%
%TF.CreationDate,2023-05-26T21:55:47+09:00*%
%TF.ProjectId,kikit,6b696b69-742e-46b6-9963-61645f706362,rev?*%
%TF.SameCoordinates,Original*%
%TF.FileFunction,Legend,Top*%
%TF.FilePolarity,Positive*%
%FSLAX46Y46*%
G04 Gerber Fmt 4.6, Leading zero omitted, Abs format (unit mm)*
G04 Created by KiCad (PCBNEW 7.0.2) date 2023-05-26 21:55:47*
%MOMM*%
%LPD*%
G01*
G04 APERTURE LIST*
%ADD10C,0.150000*%
%ADD11C,0.120000*%
G04 APERTURE END LIST*
D10*
%TO.C,J1*%
X150115666Y-27723219D02*
X150115666Y-28437504D01*
X150115666Y-28437504D02*
X150068047Y-28580361D01*
X150068047Y-28580361D02*
X149972809Y-28675600D01*
X149972809Y-28675600D02*
X149829952Y-28723219D01*
X149829952Y-28723219D02*
X149734714Y-28723219D01*
X151115666Y-28723219D02*
X150544238Y-28723219D01*
X150829952Y-28723219D02*
X150829952Y-27723219D01*
X150829952Y-27723219D02*
X150734714Y-27866076D01*
X150734714Y-27866076D02*
X150639476Y-27961314D01*
X150639476Y-27961314D02*
X150544238Y-28008933D01*
X109504775Y-93108531D02*
X109504775Y-93822816D01*
X109504775Y-93822816D02*
X109457156Y-93965673D01*
X109457156Y-93965673D02*
X109361918Y-94060912D01*
X109361918Y-94060912D02*
X109219061Y-94108531D01*
X109219061Y-94108531D02*
X109123823Y-94108531D01*
X110504775Y-94108531D02*
X109933347Y-94108531D01*
X110219061Y-94108531D02*
X110219061Y-93108531D01*
X110219061Y-93108531D02*
X110123823Y-93251388D01*
X110123823Y-93251388D02*
X110028585Y-93346626D01*
X110028585Y-93346626D02*
X109933347Y-93394245D01*
X109504775Y-27723219D02*
X109504775Y-28437504D01*
X109504775Y-28437504D02*
X109457156Y-28580361D01*
X109457156Y-28580361D02*
X109361918Y-28675600D01*
X109361918Y-28675600D02*
X109219061Y-28723219D01*
X109219061Y-28723219D02*
X109123823Y-28723219D01*
X110504775Y-28723219D02*
X109933347Y-28723219D01*
X110219061Y-28723219D02*
X110219061Y-27723219D01*
X110219061Y-27723219D02*
X110123823Y-27866076D01*
X110123823Y-27866076D02*
X110028585Y-27961314D01*
X110028585Y-27961314D02*
X109933347Y-28008933D01*
X109504775Y-71313427D02*
X109504775Y-72027712D01*
X109504775Y-72027712D02*
X109457156Y-72170569D01*
X109457156Y-72170569D02*
X109361918Y-72265808D01*
X109361918Y-72265808D02*
X109219061Y-72313427D01*
X109219061Y-72313427D02*
X109123823Y-72313427D01*
X110504775Y-72313427D02*
X109933347Y-72313427D01*
X110219061Y-72313427D02*
X110219061Y-71313427D01*
X110219061Y-71313427D02*
X110123823Y-71456284D01*
X110123823Y-71456284D02*
X110028585Y-71551522D01*
X110028585Y-71551522D02*
X109933347Y-71599141D01*
X150115666Y-71313427D02*
X150115666Y-72027712D01*
X150115666Y-72027712D02*
X150068047Y-72170569D01*
X150068047Y-72170569D02*
X149972809Y-72265808D01*
X149972809Y-72265808D02*
X149829952Y-72313427D01*
X149829952Y-72313427D02*
X149734714Y-72313427D01*
X151115666Y-72313427D02*
X150544238Y-72313427D01*
X150829952Y-72313427D02*
X150829952Y-71313427D01*
X150829952Y-71313427D02*
X150734714Y-71456284D01*
X150734714Y-71456284D02*
X150639476Y-71551522D01*
X150639476Y-71551522D02*
X150544238Y-71599141D01*
%TO.C,SW1*%
X121779776Y-88759808D02*
X121922633Y-88807427D01*
X121922633Y-88807427D02*
X122160728Y-88807427D01*
X122160728Y-88807427D02*
X122255966Y-88759808D01*
X122255966Y-88759808D02*
X122303585Y-88712188D01*
X122303585Y-88712188D02*
X122351204Y-88616950D01*
X122351204Y-88616950D02*
X122351204Y-88521712D01*
X122351204Y-88521712D02*
X122303585Y-88426474D01*
X122303585Y-88426474D02*
X122255966Y-88378855D01*
X122255966Y-88378855D02*
X122160728Y-88331236D01*
X122160728Y-88331236D02*
X121970252Y-88283617D01*
X121970252Y-88283617D02*
X121875014Y-88235998D01*
X121875014Y-88235998D02*
X121827395Y-88188379D01*
X121827395Y-88188379D02*
X121779776Y-88093141D01*
X121779776Y-88093141D02*
X121779776Y-87997903D01*
X121779776Y-87997903D02*
X121827395Y-87902665D01*
X121827395Y-87902665D02*
X121875014Y-87855046D01*
X121875014Y-87855046D02*
X121970252Y-87807427D01*
X121970252Y-87807427D02*
X122208347Y-87807427D01*
X122208347Y-87807427D02*
X122351204Y-87855046D01*
X122684538Y-87807427D02*
X122922633Y-88807427D01*
X122922633Y-88807427D02*
X123113109Y-88093141D01*
X123113109Y-88093141D02*
X123303585Y-88807427D01*
X123303585Y-88807427D02*
X123541681Y-87807427D01*
X124446442Y-88807427D02*
X123875014Y-88807427D01*
X124160728Y-88807427D02*
X124160728Y-87807427D01*
X124160728Y-87807427D02*
X124065490Y-87950284D01*
X124065490Y-87950284D02*
X123970252Y-88045522D01*
X123970252Y-88045522D02*
X123875014Y-88093141D01*
%TO.C,SW2*%
X182076667Y-44749600D02*
X182219524Y-44797219D01*
X182219524Y-44797219D02*
X182457619Y-44797219D01*
X182457619Y-44797219D02*
X182552857Y-44749600D01*
X182552857Y-44749600D02*
X182600476Y-44701980D01*
X182600476Y-44701980D02*
X182648095Y-44606742D01*
X182648095Y-44606742D02*
X182648095Y-44511504D01*
X182648095Y-44511504D02*
X182600476Y-44416266D01*
X182600476Y-44416266D02*
X182552857Y-44368647D01*
X182552857Y-44368647D02*
X182457619Y-44321028D01*
X182457619Y-44321028D02*
X182267143Y-44273409D01*
X182267143Y-44273409D02*
X182171905Y-44225790D01*
X182171905Y-44225790D02*
X182124286Y-44178171D01*
X182124286Y-44178171D02*
X182076667Y-44082933D01*
X182076667Y-44082933D02*
X182076667Y-43987695D01*
X182076667Y-43987695D02*
X182124286Y-43892457D01*
X182124286Y-43892457D02*
X182171905Y-43844838D01*
X182171905Y-43844838D02*
X182267143Y-43797219D01*
X182267143Y-43797219D02*
X182505238Y-43797219D01*
X182505238Y-43797219D02*
X182648095Y-43844838D01*
X182981429Y-43797219D02*
X183219524Y-44797219D01*
X183219524Y-44797219D02*
X183410000Y-44082933D01*
X183410000Y-44082933D02*
X183600476Y-44797219D01*
X183600476Y-44797219D02*
X183838572Y-43797219D01*
X184171905Y-43892457D02*
X184219524Y-43844838D01*
X184219524Y-43844838D02*
X184314762Y-43797219D01*
X184314762Y-43797219D02*
X184552857Y-43797219D01*
X184552857Y-43797219D02*
X184648095Y-43844838D01*
X184648095Y-43844838D02*
X184695714Y-43892457D01*
X184695714Y-43892457D02*
X184743333Y-43987695D01*
X184743333Y-43987695D02*
X184743333Y-44082933D01*
X184743333Y-44082933D02*
X184695714Y-44225790D01*
X184695714Y-44225790D02*
X184124286Y-44797219D01*
X184124286Y-44797219D02*
X184743333Y-44797219D01*
X182076667Y-110134912D02*
X182219524Y-110182531D01*
X182219524Y-110182531D02*
X182457619Y-110182531D01*
X182457619Y-110182531D02*
X182552857Y-110134912D01*
X182552857Y-110134912D02*
X182600476Y-110087292D01*
X182600476Y-110087292D02*
X182648095Y-109992054D01*
X182648095Y-109992054D02*
X182648095Y-109896816D01*
X182648095Y-109896816D02*
X182600476Y-109801578D01*
X182600476Y-109801578D02*
X182552857Y-109753959D01*
X182552857Y-109753959D02*
X182457619Y-109706340D01*
X182457619Y-109706340D02*
X182267143Y-109658721D01*
X182267143Y-109658721D02*
X182171905Y-109611102D01*
X182171905Y-109611102D02*
X182124286Y-109563483D01*
X182124286Y-109563483D02*
X182076667Y-109468245D01*
X182076667Y-109468245D02*
X182076667Y-109373007D01*
X182076667Y-109373007D02*
X182124286Y-109277769D01*
X182124286Y-109277769D02*
X182171905Y-109230150D01*
X182171905Y-109230150D02*
X182267143Y-109182531D01*
X182267143Y-109182531D02*
X182505238Y-109182531D01*
X182505238Y-109182531D02*
X182648095Y-109230150D01*
X182981429Y-109182531D02*
X183219524Y-110182531D01*
X183219524Y-110182531D02*
X183410000Y-109468245D01*
X183410000Y-109468245D02*
X183600476Y-110182531D01*
X183600476Y-110182531D02*
X183838572Y-109182531D01*
X184171905Y-109277769D02*
X184219524Y-109230150D01*
X184219524Y-109230150D02*
X184314762Y-109182531D01*
X184314762Y-109182531D02*
X184552857Y-109182531D01*
X184552857Y-109182531D02*
X184648095Y-109230150D01*
X184648095Y-109230150D02*
X184695714Y-109277769D01*
X184695714Y-109277769D02*
X184743333Y-109373007D01*
X184743333Y-109373007D02*
X184743333Y-109468245D01*
X184743333Y-109468245D02*
X184695714Y-109611102D01*
X184695714Y-109611102D02*
X184124286Y-110182531D01*
X184124286Y-110182531D02*
X184743333Y-110182531D01*
%TO.C,SW1*%
X121779776Y-66964704D02*
X121922633Y-67012323D01*
X121922633Y-67012323D02*
X122160728Y-67012323D01*
X122160728Y-67012323D02*
X122255966Y-66964704D01*
X122255966Y-66964704D02*
X122303585Y-66917084D01*
X122303585Y-66917084D02*
X122351204Y-66821846D01*
X122351204Y-66821846D02*
X122351204Y-66726608D01*
X122351204Y-66726608D02*
X122303585Y-66631370D01*
X122303585Y-66631370D02*
X122255966Y-66583751D01*
X122255966Y-66583751D02*
X122160728Y-66536132D01*
X122160728Y-66536132D02*
X121970252Y-66488513D01*
X121970252Y-66488513D02*
X121875014Y-66440894D01*
X121875014Y-66440894D02*
X121827395Y-66393275D01*
X121827395Y-66393275D02*
X121779776Y-66298037D01*
X121779776Y-66298037D02*
X121779776Y-66202799D01*
X121779776Y-66202799D02*
X121827395Y-66107561D01*
X121827395Y-66107561D02*
X121875014Y-66059942D01*
X121875014Y-66059942D02*
X121970252Y-66012323D01*
X121970252Y-66012323D02*
X122208347Y-66012323D01*
X122208347Y-66012323D02*
X122351204Y-66059942D01*
X122684538Y-66012323D02*
X122922633Y-67012323D01*
X122922633Y-67012323D02*
X123113109Y-66298037D01*
X123113109Y-66298037D02*
X123303585Y-67012323D01*
X123303585Y-67012323D02*
X123541681Y-66012323D01*
X124446442Y-67012323D02*
X123875014Y-67012323D01*
X124160728Y-67012323D02*
X124160728Y-66012323D01*
X124160728Y-66012323D02*
X124065490Y-66155180D01*
X124065490Y-66155180D02*
X123970252Y-66250418D01*
X123970252Y-66250418D02*
X123875014Y-66298037D01*
%TO.C,J1*%
X150115666Y-49518323D02*
X150115666Y-50232608D01*
X150115666Y-50232608D02*
X150068047Y-50375465D01*
X150068047Y-50375465D02*
X149972809Y-50470704D01*
X149972809Y-50470704D02*
X149829952Y-50518323D01*
X149829952Y-50518323D02*
X149734714Y-50518323D01*
X151115666Y-50518323D02*
X150544238Y-50518323D01*
X150829952Y-50518323D02*
X150829952Y-49518323D01*
X150829952Y-49518323D02*
X150734714Y-49661180D01*
X150734714Y-49661180D02*
X150639476Y-49756418D01*
X150639476Y-49756418D02*
X150544238Y-49804037D01*
%TO.C,SW1*%
X162390667Y-110554912D02*
X162533524Y-110602531D01*
X162533524Y-110602531D02*
X162771619Y-110602531D01*
X162771619Y-110602531D02*
X162866857Y-110554912D01*
X162866857Y-110554912D02*
X162914476Y-110507292D01*
X162914476Y-110507292D02*
X162962095Y-110412054D01*
X162962095Y-110412054D02*
X162962095Y-110316816D01*
X162962095Y-110316816D02*
X162914476Y-110221578D01*
X162914476Y-110221578D02*
X162866857Y-110173959D01*
X162866857Y-110173959D02*
X162771619Y-110126340D01*
X162771619Y-110126340D02*
X162581143Y-110078721D01*
X162581143Y-110078721D02*
X162485905Y-110031102D01*
X162485905Y-110031102D02*
X162438286Y-109983483D01*
X162438286Y-109983483D02*
X162390667Y-109888245D01*
X162390667Y-109888245D02*
X162390667Y-109793007D01*
X162390667Y-109793007D02*
X162438286Y-109697769D01*
X162438286Y-109697769D02*
X162485905Y-109650150D01*
X162485905Y-109650150D02*
X162581143Y-109602531D01*
X162581143Y-109602531D02*
X162819238Y-109602531D01*
X162819238Y-109602531D02*
X162962095Y-109650150D01*
X163295429Y-109602531D02*
X163533524Y-110602531D01*
X163533524Y-110602531D02*
X163724000Y-109888245D01*
X163724000Y-109888245D02*
X163914476Y-110602531D01*
X163914476Y-110602531D02*
X164152572Y-109602531D01*
X165057333Y-110602531D02*
X164485905Y-110602531D01*
X164771619Y-110602531D02*
X164771619Y-109602531D01*
X164771619Y-109602531D02*
X164676381Y-109745388D01*
X164676381Y-109745388D02*
X164581143Y-109840626D01*
X164581143Y-109840626D02*
X164485905Y-109888245D01*
%TO.C,SW2*%
X141465776Y-88339808D02*
X141608633Y-88387427D01*
X141608633Y-88387427D02*
X141846728Y-88387427D01*
X141846728Y-88387427D02*
X141941966Y-88339808D01*
X141941966Y-88339808D02*
X141989585Y-88292188D01*
X141989585Y-88292188D02*
X142037204Y-88196950D01*
X142037204Y-88196950D02*
X142037204Y-88101712D01*
X142037204Y-88101712D02*
X141989585Y-88006474D01*
X141989585Y-88006474D02*
X141941966Y-87958855D01*
X141941966Y-87958855D02*
X141846728Y-87911236D01*
X141846728Y-87911236D02*
X141656252Y-87863617D01*
X141656252Y-87863617D02*
X141561014Y-87815998D01*
X141561014Y-87815998D02*
X141513395Y-87768379D01*
X141513395Y-87768379D02*
X141465776Y-87673141D01*
X141465776Y-87673141D02*
X141465776Y-87577903D01*
X141465776Y-87577903D02*
X141513395Y-87482665D01*
X141513395Y-87482665D02*
X141561014Y-87435046D01*
X141561014Y-87435046D02*
X141656252Y-87387427D01*
X141656252Y-87387427D02*
X141894347Y-87387427D01*
X141894347Y-87387427D02*
X142037204Y-87435046D01*
X142370538Y-87387427D02*
X142608633Y-88387427D01*
X142608633Y-88387427D02*
X142799109Y-87673141D01*
X142799109Y-87673141D02*
X142989585Y-88387427D01*
X142989585Y-88387427D02*
X143227681Y-87387427D01*
X143561014Y-87482665D02*
X143608633Y-87435046D01*
X143608633Y-87435046D02*
X143703871Y-87387427D01*
X143703871Y-87387427D02*
X143941966Y-87387427D01*
X143941966Y-87387427D02*
X144037204Y-87435046D01*
X144037204Y-87435046D02*
X144084823Y-87482665D01*
X144084823Y-87482665D02*
X144132442Y-87577903D01*
X144132442Y-87577903D02*
X144132442Y-87673141D01*
X144132442Y-87673141D02*
X144084823Y-87815998D01*
X144084823Y-87815998D02*
X143513395Y-88387427D01*
X143513395Y-88387427D02*
X144132442Y-88387427D01*
%TO.C,SW1*%
X121779776Y-45169600D02*
X121922633Y-45217219D01*
X121922633Y-45217219D02*
X122160728Y-45217219D01*
X122160728Y-45217219D02*
X122255966Y-45169600D01*
X122255966Y-45169600D02*
X122303585Y-45121980D01*
X122303585Y-45121980D02*
X122351204Y-45026742D01*
X122351204Y-45026742D02*
X122351204Y-44931504D01*
X122351204Y-44931504D02*
X122303585Y-44836266D01*
X122303585Y-44836266D02*
X122255966Y-44788647D01*
X122255966Y-44788647D02*
X122160728Y-44741028D01*
X122160728Y-44741028D02*
X121970252Y-44693409D01*
X121970252Y-44693409D02*
X121875014Y-44645790D01*
X121875014Y-44645790D02*
X121827395Y-44598171D01*
X121827395Y-44598171D02*
X121779776Y-44502933D01*
X121779776Y-44502933D02*
X121779776Y-44407695D01*
X121779776Y-44407695D02*
X121827395Y-44312457D01*
X121827395Y-44312457D02*
X121875014Y-44264838D01*
X121875014Y-44264838D02*
X121970252Y-44217219D01*
X121970252Y-44217219D02*
X122208347Y-44217219D01*
X122208347Y-44217219D02*
X122351204Y-44264838D01*
X122684538Y-44217219D02*
X122922633Y-45217219D01*
X122922633Y-45217219D02*
X123113109Y-44502933D01*
X123113109Y-44502933D02*
X123303585Y-45217219D01*
X123303585Y-45217219D02*
X123541681Y-44217219D01*
X124446442Y-45217219D02*
X123875014Y-45217219D01*
X124160728Y-45217219D02*
X124160728Y-44217219D01*
X124160728Y-44217219D02*
X124065490Y-44360076D01*
X124065490Y-44360076D02*
X123970252Y-44455314D01*
X123970252Y-44455314D02*
X123875014Y-44502933D01*
%TO.C,SW2*%
X182076667Y-88339808D02*
X182219524Y-88387427D01*
X182219524Y-88387427D02*
X182457619Y-88387427D01*
X182457619Y-88387427D02*
X182552857Y-88339808D01*
X182552857Y-88339808D02*
X182600476Y-88292188D01*
X182600476Y-88292188D02*
X182648095Y-88196950D01*
X182648095Y-88196950D02*
X182648095Y-88101712D01*
X182648095Y-88101712D02*
X182600476Y-88006474D01*
X182600476Y-88006474D02*
X182552857Y-87958855D01*
X182552857Y-87958855D02*
X182457619Y-87911236D01*
X182457619Y-87911236D02*
X182267143Y-87863617D01*
X182267143Y-87863617D02*
X182171905Y-87815998D01*
X182171905Y-87815998D02*
X182124286Y-87768379D01*
X182124286Y-87768379D02*
X182076667Y-87673141D01*
X182076667Y-87673141D02*
X182076667Y-87577903D01*
X182076667Y-87577903D02*
X182124286Y-87482665D01*
X182124286Y-87482665D02*
X182171905Y-87435046D01*
X182171905Y-87435046D02*
X182267143Y-87387427D01*
X182267143Y-87387427D02*
X182505238Y-87387427D01*
X182505238Y-87387427D02*
X182648095Y-87435046D01*
X182981429Y-87387427D02*
X183219524Y-88387427D01*
X183219524Y-88387427D02*
X183410000Y-87673141D01*
X183410000Y-87673141D02*
X183600476Y-88387427D01*
X183600476Y-88387427D02*
X183838572Y-87387427D01*
X184171905Y-87482665D02*
X184219524Y-87435046D01*
X184219524Y-87435046D02*
X184314762Y-87387427D01*
X184314762Y-87387427D02*
X184552857Y-87387427D01*
X184552857Y-87387427D02*
X184648095Y-87435046D01*
X184648095Y-87435046D02*
X184695714Y-87482665D01*
X184695714Y-87482665D02*
X184743333Y-87577903D01*
X184743333Y-87577903D02*
X184743333Y-87673141D01*
X184743333Y-87673141D02*
X184695714Y-87815998D01*
X184695714Y-87815998D02*
X184124286Y-88387427D01*
X184124286Y-88387427D02*
X184743333Y-88387427D01*
%TO.C,SW1*%
X162390667Y-88759808D02*
X162533524Y-88807427D01*
X162533524Y-88807427D02*
X162771619Y-88807427D01*
X162771619Y-88807427D02*
X162866857Y-88759808D01*
X162866857Y-88759808D02*
X162914476Y-88712188D01*
X162914476Y-88712188D02*
X162962095Y-88616950D01*
X162962095Y-88616950D02*
X162962095Y-88521712D01*
X162962095Y-88521712D02*
X162914476Y-88426474D01*
X162914476Y-88426474D02*
X162866857Y-88378855D01*
X162866857Y-88378855D02*
X162771619Y-88331236D01*
X162771619Y-88331236D02*
X162581143Y-88283617D01*
X162581143Y-88283617D02*
X162485905Y-88235998D01*
X162485905Y-88235998D02*
X162438286Y-88188379D01*
X162438286Y-88188379D02*
X162390667Y-88093141D01*
X162390667Y-88093141D02*
X162390667Y-87997903D01*
X162390667Y-87997903D02*
X162438286Y-87902665D01*
X162438286Y-87902665D02*
X162485905Y-87855046D01*
X162485905Y-87855046D02*
X162581143Y-87807427D01*
X162581143Y-87807427D02*
X162819238Y-87807427D01*
X162819238Y-87807427D02*
X162962095Y-87855046D01*
X163295429Y-87807427D02*
X163533524Y-88807427D01*
X163533524Y-88807427D02*
X163724000Y-88093141D01*
X163724000Y-88093141D02*
X163914476Y-88807427D01*
X163914476Y-88807427D02*
X164152572Y-87807427D01*
X165057333Y-88807427D02*
X164485905Y-88807427D01*
X164771619Y-88807427D02*
X164771619Y-87807427D01*
X164771619Y-87807427D02*
X164676381Y-87950284D01*
X164676381Y-87950284D02*
X164581143Y-88045522D01*
X164581143Y-88045522D02*
X164485905Y-88093141D01*
%TO.C,SW2*%
X141465776Y-66544704D02*
X141608633Y-66592323D01*
X141608633Y-66592323D02*
X141846728Y-66592323D01*
X141846728Y-66592323D02*
X141941966Y-66544704D01*
X141941966Y-66544704D02*
X141989585Y-66497084D01*
X141989585Y-66497084D02*
X142037204Y-66401846D01*
X142037204Y-66401846D02*
X142037204Y-66306608D01*
X142037204Y-66306608D02*
X141989585Y-66211370D01*
X141989585Y-66211370D02*
X141941966Y-66163751D01*
X141941966Y-66163751D02*
X141846728Y-66116132D01*
X141846728Y-66116132D02*
X141656252Y-66068513D01*
X141656252Y-66068513D02*
X141561014Y-66020894D01*
X141561014Y-66020894D02*
X141513395Y-65973275D01*
X141513395Y-65973275D02*
X141465776Y-65878037D01*
X141465776Y-65878037D02*
X141465776Y-65782799D01*
X141465776Y-65782799D02*
X141513395Y-65687561D01*
X141513395Y-65687561D02*
X141561014Y-65639942D01*
X141561014Y-65639942D02*
X141656252Y-65592323D01*
X141656252Y-65592323D02*
X141894347Y-65592323D01*
X141894347Y-65592323D02*
X142037204Y-65639942D01*
X142370538Y-65592323D02*
X142608633Y-66592323D01*
X142608633Y-66592323D02*
X142799109Y-65878037D01*
X142799109Y-65878037D02*
X142989585Y-66592323D01*
X142989585Y-66592323D02*
X143227681Y-65592323D01*
X143561014Y-65687561D02*
X143608633Y-65639942D01*
X143608633Y-65639942D02*
X143703871Y-65592323D01*
X143703871Y-65592323D02*
X143941966Y-65592323D01*
X143941966Y-65592323D02*
X144037204Y-65639942D01*
X144037204Y-65639942D02*
X144084823Y-65687561D01*
X144084823Y-65687561D02*
X144132442Y-65782799D01*
X144132442Y-65782799D02*
X144132442Y-65878037D01*
X144132442Y-65878037D02*
X144084823Y-66020894D01*
X144084823Y-66020894D02*
X143513395Y-66592323D01*
X143513395Y-66592323D02*
X144132442Y-66592323D01*
%TO.C,J1*%
X109504775Y-49518323D02*
X109504775Y-50232608D01*
X109504775Y-50232608D02*
X109457156Y-50375465D01*
X109457156Y-50375465D02*
X109361918Y-50470704D01*
X109361918Y-50470704D02*
X109219061Y-50518323D01*
X109219061Y-50518323D02*
X109123823Y-50518323D01*
X110504775Y-50518323D02*
X109933347Y-50518323D01*
X110219061Y-50518323D02*
X110219061Y-49518323D01*
X110219061Y-49518323D02*
X110123823Y-49661180D01*
X110123823Y-49661180D02*
X110028585Y-49756418D01*
X110028585Y-49756418D02*
X109933347Y-49804037D01*
%TO.C,SW2*%
X141465776Y-110134912D02*
X141608633Y-110182531D01*
X141608633Y-110182531D02*
X141846728Y-110182531D01*
X141846728Y-110182531D02*
X141941966Y-110134912D01*
X141941966Y-110134912D02*
X141989585Y-110087292D01*
X141989585Y-110087292D02*
X142037204Y-109992054D01*
X142037204Y-109992054D02*
X142037204Y-109896816D01*
X142037204Y-109896816D02*
X141989585Y-109801578D01*
X141989585Y-109801578D02*
X141941966Y-109753959D01*
X141941966Y-109753959D02*
X141846728Y-109706340D01*
X141846728Y-109706340D02*
X141656252Y-109658721D01*
X141656252Y-109658721D02*
X141561014Y-109611102D01*
X141561014Y-109611102D02*
X141513395Y-109563483D01*
X141513395Y-109563483D02*
X141465776Y-109468245D01*
X141465776Y-109468245D02*
X141465776Y-109373007D01*
X141465776Y-109373007D02*
X141513395Y-109277769D01*
X141513395Y-109277769D02*
X141561014Y-109230150D01*
X141561014Y-109230150D02*
X141656252Y-109182531D01*
X141656252Y-109182531D02*
X141894347Y-109182531D01*
X141894347Y-109182531D02*
X142037204Y-109230150D01*
X142370538Y-109182531D02*
X142608633Y-110182531D01*
X142608633Y-110182531D02*
X142799109Y-109468245D01*
X142799109Y-109468245D02*
X142989585Y-110182531D01*
X142989585Y-110182531D02*
X143227681Y-109182531D01*
X143561014Y-109277769D02*
X143608633Y-109230150D01*
X143608633Y-109230150D02*
X143703871Y-109182531D01*
X143703871Y-109182531D02*
X143941966Y-109182531D01*
X143941966Y-109182531D02*
X144037204Y-109230150D01*
X144037204Y-109230150D02*
X144084823Y-109277769D01*
X144084823Y-109277769D02*
X144132442Y-109373007D01*
X144132442Y-109373007D02*
X144132442Y-109468245D01*
X144132442Y-109468245D02*
X144084823Y-109611102D01*
X144084823Y-109611102D02*
X143513395Y-110182531D01*
X143513395Y-110182531D02*
X144132442Y-110182531D01*
X182076667Y-66544704D02*
X182219524Y-66592323D01*
X182219524Y-66592323D02*
X182457619Y-66592323D01*
X182457619Y-66592323D02*
X182552857Y-66544704D01*
X182552857Y-66544704D02*
X182600476Y-66497084D01*
X182600476Y-66497084D02*
X182648095Y-66401846D01*
X182648095Y-66401846D02*
X182648095Y-66306608D01*
X182648095Y-66306608D02*
X182600476Y-66211370D01*
X182600476Y-66211370D02*
X182552857Y-66163751D01*
X182552857Y-66163751D02*
X182457619Y-66116132D01*
X182457619Y-66116132D02*
X182267143Y-66068513D01*
X182267143Y-66068513D02*
X182171905Y-66020894D01*
X182171905Y-66020894D02*
X182124286Y-65973275D01*
X182124286Y-65973275D02*
X182076667Y-65878037D01*
X182076667Y-65878037D02*
X182076667Y-65782799D01*
X182076667Y-65782799D02*
X182124286Y-65687561D01*
X182124286Y-65687561D02*
X182171905Y-65639942D01*
X182171905Y-65639942D02*
X182267143Y-65592323D01*
X182267143Y-65592323D02*
X182505238Y-65592323D01*
X182505238Y-65592323D02*
X182648095Y-65639942D01*
X182981429Y-65592323D02*
X183219524Y-66592323D01*
X183219524Y-66592323D02*
X183410000Y-65878037D01*
X183410000Y-65878037D02*
X183600476Y-66592323D01*
X183600476Y-66592323D02*
X183838572Y-65592323D01*
X184171905Y-65687561D02*
X184219524Y-65639942D01*
X184219524Y-65639942D02*
X184314762Y-65592323D01*
X184314762Y-65592323D02*
X184552857Y-65592323D01*
X184552857Y-65592323D02*
X184648095Y-65639942D01*
X184648095Y-65639942D02*
X184695714Y-65687561D01*
X184695714Y-65687561D02*
X184743333Y-65782799D01*
X184743333Y-65782799D02*
X184743333Y-65878037D01*
X184743333Y-65878037D02*
X184695714Y-66020894D01*
X184695714Y-66020894D02*
X184124286Y-66592323D01*
X184124286Y-66592323D02*
X184743333Y-66592323D01*
%TO.C,SW1*%
X162390667Y-45169600D02*
X162533524Y-45217219D01*
X162533524Y-45217219D02*
X162771619Y-45217219D01*
X162771619Y-45217219D02*
X162866857Y-45169600D01*
X162866857Y-45169600D02*
X162914476Y-45121980D01*
X162914476Y-45121980D02*
X162962095Y-45026742D01*
X162962095Y-45026742D02*
X162962095Y-44931504D01*
X162962095Y-44931504D02*
X162914476Y-44836266D01*
X162914476Y-44836266D02*
X162866857Y-44788647D01*
X162866857Y-44788647D02*
X162771619Y-44741028D01*
X162771619Y-44741028D02*
X162581143Y-44693409D01*
X162581143Y-44693409D02*
X162485905Y-44645790D01*
X162485905Y-44645790D02*
X162438286Y-44598171D01*
X162438286Y-44598171D02*
X162390667Y-44502933D01*
X162390667Y-44502933D02*
X162390667Y-44407695D01*
X162390667Y-44407695D02*
X162438286Y-44312457D01*
X162438286Y-44312457D02*
X162485905Y-44264838D01*
X162485905Y-44264838D02*
X162581143Y-44217219D01*
X162581143Y-44217219D02*
X162819238Y-44217219D01*
X162819238Y-44217219D02*
X162962095Y-44264838D01*
X163295429Y-44217219D02*
X163533524Y-45217219D01*
X163533524Y-45217219D02*
X163724000Y-44502933D01*
X163724000Y-44502933D02*
X163914476Y-45217219D01*
X163914476Y-45217219D02*
X164152572Y-44217219D01*
X165057333Y-45217219D02*
X164485905Y-45217219D01*
X164771619Y-45217219D02*
X164771619Y-44217219D01*
X164771619Y-44217219D02*
X164676381Y-44360076D01*
X164676381Y-44360076D02*
X164581143Y-44455314D01*
X164581143Y-44455314D02*
X164485905Y-44502933D01*
X162390667Y-66964704D02*
X162533524Y-67012323D01*
X162533524Y-67012323D02*
X162771619Y-67012323D01*
X162771619Y-67012323D02*
X162866857Y-66964704D01*
X162866857Y-66964704D02*
X162914476Y-66917084D01*
X162914476Y-66917084D02*
X162962095Y-66821846D01*
X162962095Y-66821846D02*
X162962095Y-66726608D01*
X162962095Y-66726608D02*
X162914476Y-66631370D01*
X162914476Y-66631370D02*
X162866857Y-66583751D01*
X162866857Y-66583751D02*
X162771619Y-66536132D01*
X162771619Y-66536132D02*
X162581143Y-66488513D01*
X162581143Y-66488513D02*
X162485905Y-66440894D01*
X162485905Y-66440894D02*
X162438286Y-66393275D01*
X162438286Y-66393275D02*
X162390667Y-66298037D01*
X162390667Y-66298037D02*
X162390667Y-66202799D01*
X162390667Y-66202799D02*
X162438286Y-66107561D01*
X162438286Y-66107561D02*
X162485905Y-66059942D01*
X162485905Y-66059942D02*
X162581143Y-66012323D01*
X162581143Y-66012323D02*
X162819238Y-66012323D01*
X162819238Y-66012323D02*
X162962095Y-66059942D01*
X163295429Y-66012323D02*
X163533524Y-67012323D01*
X163533524Y-67012323D02*
X163724000Y-66298037D01*
X163724000Y-66298037D02*
X163914476Y-67012323D01*
X163914476Y-67012323D02*
X164152572Y-66012323D01*
X165057333Y-67012323D02*
X164485905Y-67012323D01*
X164771619Y-67012323D02*
X164771619Y-66012323D01*
X164771619Y-66012323D02*
X164676381Y-66155180D01*
X164676381Y-66155180D02*
X164581143Y-66250418D01*
X164581143Y-66250418D02*
X164485905Y-66298037D01*
%TO.C,SW2*%
X141465776Y-44749600D02*
X141608633Y-44797219D01*
X141608633Y-44797219D02*
X141846728Y-44797219D01*
X141846728Y-44797219D02*
X141941966Y-44749600D01*
X141941966Y-44749600D02*
X141989585Y-44701980D01*
X141989585Y-44701980D02*
X142037204Y-44606742D01*
X142037204Y-44606742D02*
X142037204Y-44511504D01*
X142037204Y-44511504D02*
X141989585Y-44416266D01*
X141989585Y-44416266D02*
X141941966Y-44368647D01*
X141941966Y-44368647D02*
X141846728Y-44321028D01*
X141846728Y-44321028D02*
X141656252Y-44273409D01*
X141656252Y-44273409D02*
X141561014Y-44225790D01*
X141561014Y-44225790D02*
X141513395Y-44178171D01*
X141513395Y-44178171D02*
X141465776Y-44082933D01*
X141465776Y-44082933D02*
X141465776Y-43987695D01*
X141465776Y-43987695D02*
X141513395Y-43892457D01*
X141513395Y-43892457D02*
X141561014Y-43844838D01*
X141561014Y-43844838D02*
X141656252Y-43797219D01*
X141656252Y-43797219D02*
X141894347Y-43797219D01*
X141894347Y-43797219D02*
X142037204Y-43844838D01*
X142370538Y-43797219D02*
X142608633Y-44797219D01*
X142608633Y-44797219D02*
X142799109Y-44082933D01*
X142799109Y-44082933D02*
X142989585Y-44797219D01*
X142989585Y-44797219D02*
X143227681Y-43797219D01*
X143561014Y-43892457D02*
X143608633Y-43844838D01*
X143608633Y-43844838D02*
X143703871Y-43797219D01*
X143703871Y-43797219D02*
X143941966Y-43797219D01*
X143941966Y-43797219D02*
X144037204Y-43844838D01*
X144037204Y-43844838D02*
X144084823Y-43892457D01*
X144084823Y-43892457D02*
X144132442Y-43987695D01*
X144132442Y-43987695D02*
X144132442Y-44082933D01*
X144132442Y-44082933D02*
X144084823Y-44225790D01*
X144084823Y-44225790D02*
X143513395Y-44797219D01*
X143513395Y-44797219D02*
X144132442Y-44797219D01*
%TO.C,SW1*%
X121779776Y-110554912D02*
X121922633Y-110602531D01*
X121922633Y-110602531D02*
X122160728Y-110602531D01*
X122160728Y-110602531D02*
X122255966Y-110554912D01*
X122255966Y-110554912D02*
X122303585Y-110507292D01*
X122303585Y-110507292D02*
X122351204Y-110412054D01*
X122351204Y-110412054D02*
X122351204Y-110316816D01*
X122351204Y-110316816D02*
X122303585Y-110221578D01*
X122303585Y-110221578D02*
X122255966Y-110173959D01*
X122255966Y-110173959D02*
X122160728Y-110126340D01*
X122160728Y-110126340D02*
X121970252Y-110078721D01*
X121970252Y-110078721D02*
X121875014Y-110031102D01*
X121875014Y-110031102D02*
X121827395Y-109983483D01*
X121827395Y-109983483D02*
X121779776Y-109888245D01*
X121779776Y-109888245D02*
X121779776Y-109793007D01*
X121779776Y-109793007D02*
X121827395Y-109697769D01*
X121827395Y-109697769D02*
X121875014Y-109650150D01*
X121875014Y-109650150D02*
X121970252Y-109602531D01*
X121970252Y-109602531D02*
X122208347Y-109602531D01*
X122208347Y-109602531D02*
X122351204Y-109650150D01*
X122684538Y-109602531D02*
X122922633Y-110602531D01*
X122922633Y-110602531D02*
X123113109Y-109888245D01*
X123113109Y-109888245D02*
X123303585Y-110602531D01*
X123303585Y-110602531D02*
X123541681Y-109602531D01*
X124446442Y-110602531D02*
X123875014Y-110602531D01*
X124160728Y-110602531D02*
X124160728Y-109602531D01*
X124160728Y-109602531D02*
X124065490Y-109745388D01*
X124065490Y-109745388D02*
X123970252Y-109840626D01*
X123970252Y-109840626D02*
X123875014Y-109888245D01*
%TO.C,J1*%
X150115666Y-93108531D02*
X150115666Y-93822816D01*
X150115666Y-93822816D02*
X150068047Y-93965673D01*
X150068047Y-93965673D02*
X149972809Y-94060912D01*
X149972809Y-94060912D02*
X149829952Y-94108531D01*
X149829952Y-94108531D02*
X149734714Y-94108531D01*
X151115666Y-94108531D02*
X150544238Y-94108531D01*
X150829952Y-94108531D02*
X150829952Y-93108531D01*
X150829952Y-93108531D02*
X150734714Y-93251388D01*
X150734714Y-93251388D02*
X150639476Y-93346626D01*
X150639476Y-93346626D02*
X150544238Y-93394245D01*
D11*
%TO.C,R7*%
X127463109Y-65433704D02*
X134003109Y-65433704D01*
X127463109Y-65763704D02*
X127463109Y-65433704D01*
X127463109Y-67843704D02*
X127463109Y-68173704D01*
X127463109Y-68173704D02*
X134003109Y-68173704D01*
X130478385Y-66312704D02*
X130987833Y-66312704D01*
X130478385Y-67357704D02*
X130987833Y-67357704D01*
X134003109Y-65433704D02*
X134003109Y-65763704D01*
X134003109Y-68173704D02*
X134003109Y-67843704D01*
%TO.C,R3*%
X157152000Y-76052808D02*
X163692000Y-76052808D01*
X157152000Y-76382808D02*
X157152000Y-76052808D01*
X157152000Y-78462808D02*
X157152000Y-78792808D01*
X157152000Y-78792808D02*
X163692000Y-78792808D01*
X160167276Y-76931808D02*
X160676724Y-76931808D01*
X160167276Y-77976808D02*
X160676724Y-77976808D01*
X163692000Y-76052808D02*
X163692000Y-76382808D01*
X163692000Y-78792808D02*
X163692000Y-78462808D01*
%TO.C,R1*%
X123081109Y-104143912D02*
X116541109Y-104143912D01*
X123081109Y-103813912D02*
X123081109Y-104143912D01*
X123081109Y-101733912D02*
X123081109Y-101403912D01*
X123081109Y-101403912D02*
X116541109Y-101403912D01*
X120065833Y-103264912D02*
X119556385Y-103264912D01*
X120065833Y-102219912D02*
X119556385Y-102219912D01*
X116541109Y-104143912D02*
X116541109Y-103813912D01*
X116541109Y-101403912D02*
X116541109Y-101733912D01*
%TO.C,R5*%
X127359609Y-49177704D02*
X133899609Y-49177704D01*
X127359609Y-49507704D02*
X127359609Y-49177704D01*
X127359609Y-51587704D02*
X127359609Y-51917704D01*
X127359609Y-51917704D02*
X133899609Y-51917704D01*
X130374885Y-50056704D02*
X130884333Y-50056704D01*
X130374885Y-51101704D02*
X130884333Y-51101704D01*
X133899609Y-49177704D02*
X133899609Y-49507704D01*
X133899609Y-51917704D02*
X133899609Y-51587704D01*
%TO.C,R2*%
X157152000Y-50701704D02*
X163692000Y-50701704D01*
X157152000Y-51031704D02*
X157152000Y-50701704D01*
X157152000Y-53111704D02*
X157152000Y-53441704D01*
X157152000Y-53441704D02*
X163692000Y-53441704D01*
X160167276Y-51580704D02*
X160676724Y-51580704D01*
X160167276Y-52625704D02*
X160676724Y-52625704D01*
X163692000Y-50701704D02*
X163692000Y-51031704D01*
X163692000Y-53441704D02*
X163692000Y-53111704D01*
%TO.C,J1*%
X149630000Y-29200600D02*
X152124000Y-29200600D01*
X152124000Y-29200600D02*
X152124000Y-44560600D01*
X152124000Y-31800600D02*
X149630000Y-31800600D01*
X152124000Y-34340600D02*
X149630000Y-34340600D01*
X152124000Y-36880600D02*
X149630000Y-36880600D01*
X152124000Y-39420600D02*
X149630000Y-39420600D01*
X152124000Y-41960600D02*
X149630000Y-41960600D01*
X152124000Y-44560600D02*
X149630000Y-44560600D01*
X152521071Y-30150600D02*
X152124000Y-30150600D01*
X152521071Y-30910600D02*
X152124000Y-30910600D01*
X152521071Y-32690600D02*
X152124000Y-32690600D01*
X152521071Y-33450600D02*
X152124000Y-33450600D01*
X152521071Y-35230600D02*
X152124000Y-35230600D01*
X152521071Y-35990600D02*
X152124000Y-35990600D01*
X152521071Y-37770600D02*
X152124000Y-37770600D01*
X152521071Y-38530600D02*
X152124000Y-38530600D01*
X152521071Y-40310600D02*
X152124000Y-40310600D01*
X152521071Y-41070600D02*
X152124000Y-41070600D01*
X152521071Y-42850600D02*
X152124000Y-42850600D01*
X152521071Y-43610600D02*
X152124000Y-43610600D01*
X154710000Y-29260600D02*
X153440000Y-29260600D01*
X154710000Y-30530600D02*
X154710000Y-29260600D01*
X109019109Y-94585912D02*
X111513109Y-94585912D01*
X111513109Y-94585912D02*
X111513109Y-109945912D01*
X111513109Y-97185912D02*
X109019109Y-97185912D01*
X111513109Y-99725912D02*
X109019109Y-99725912D01*
X111513109Y-102265912D02*
X109019109Y-102265912D01*
X111513109Y-104805912D02*
X109019109Y-104805912D01*
X111513109Y-107345912D02*
X109019109Y-107345912D01*
X111513109Y-109945912D02*
X109019109Y-109945912D01*
X111910180Y-95535912D02*
X111513109Y-95535912D01*
X111910180Y-96295912D02*
X111513109Y-96295912D01*
X111910180Y-98075912D02*
X111513109Y-98075912D01*
X111910180Y-98835912D02*
X111513109Y-98835912D01*
X111910180Y-100615912D02*
X111513109Y-100615912D01*
X111910180Y-101375912D02*
X111513109Y-101375912D01*
X111910180Y-103155912D02*
X111513109Y-103155912D01*
X111910180Y-103915912D02*
X111513109Y-103915912D01*
X111910180Y-105695912D02*
X111513109Y-105695912D01*
X111910180Y-106455912D02*
X111513109Y-106455912D01*
X111910180Y-108235912D02*
X111513109Y-108235912D01*
X111910180Y-108995912D02*
X111513109Y-108995912D01*
X114099109Y-94645912D02*
X112829109Y-94645912D01*
X114099109Y-95915912D02*
X114099109Y-94645912D01*
%TO.C,R2*%
X116541109Y-72496808D02*
X123081109Y-72496808D01*
X116541109Y-72826808D02*
X116541109Y-72496808D01*
X116541109Y-74906808D02*
X116541109Y-75236808D01*
X116541109Y-75236808D02*
X123081109Y-75236808D01*
X119556385Y-73375808D02*
X120065833Y-73375808D01*
X119556385Y-74420808D02*
X120065833Y-74420808D01*
X123081109Y-72496808D02*
X123081109Y-72826808D01*
X123081109Y-75236808D02*
X123081109Y-74906808D01*
%TO.C,R7*%
X168074000Y-87228808D02*
X174614000Y-87228808D01*
X168074000Y-87558808D02*
X168074000Y-87228808D01*
X168074000Y-89638808D02*
X168074000Y-89968808D01*
X168074000Y-89968808D02*
X174614000Y-89968808D01*
X171089276Y-88107808D02*
X171598724Y-88107808D01*
X171089276Y-89152808D02*
X171598724Y-89152808D01*
X174614000Y-87228808D02*
X174614000Y-87558808D01*
X174614000Y-89968808D02*
X174614000Y-89638808D01*
%TO.C,R6*%
X123081109Y-64109704D02*
X116541109Y-64109704D01*
X123081109Y-63779704D02*
X123081109Y-64109704D01*
X123081109Y-61699704D02*
X123081109Y-61369704D01*
X123081109Y-61369704D02*
X116541109Y-61369704D01*
X120065833Y-63230704D02*
X119556385Y-63230704D01*
X120065833Y-62185704D02*
X119556385Y-62185704D01*
X116541109Y-64109704D02*
X116541109Y-63779704D01*
X116541109Y-61369704D02*
X116541109Y-61699704D01*
X123081109Y-85904808D02*
X116541109Y-85904808D01*
X123081109Y-85574808D02*
X123081109Y-85904808D01*
X123081109Y-83494808D02*
X123081109Y-83164808D01*
X123081109Y-83164808D02*
X116541109Y-83164808D01*
X120065833Y-85025808D02*
X119556385Y-85025808D01*
X120065833Y-83980808D02*
X119556385Y-83980808D01*
X116541109Y-85904808D02*
X116541109Y-85574808D01*
X116541109Y-83164808D02*
X116541109Y-83494808D01*
%TO.C,J1*%
X109019109Y-29200600D02*
X111513109Y-29200600D01*
X111513109Y-29200600D02*
X111513109Y-44560600D01*
X111513109Y-31800600D02*
X109019109Y-31800600D01*
X111513109Y-34340600D02*
X109019109Y-34340600D01*
X111513109Y-36880600D02*
X109019109Y-36880600D01*
X111513109Y-39420600D02*
X109019109Y-39420600D01*
X111513109Y-41960600D02*
X109019109Y-41960600D01*
X111513109Y-44560600D02*
X109019109Y-44560600D01*
X111910180Y-30150600D02*
X111513109Y-30150600D01*
X111910180Y-30910600D02*
X111513109Y-30910600D01*
X111910180Y-32690600D02*
X111513109Y-32690600D01*
X111910180Y-33450600D02*
X111513109Y-33450600D01*
X111910180Y-35230600D02*
X111513109Y-35230600D01*
X111910180Y-35990600D02*
X111513109Y-35990600D01*
X111910180Y-37770600D02*
X111513109Y-37770600D01*
X111910180Y-38530600D02*
X111513109Y-38530600D01*
X111910180Y-40310600D02*
X111513109Y-40310600D01*
X111910180Y-41070600D02*
X111513109Y-41070600D01*
X111910180Y-42850600D02*
X111513109Y-42850600D01*
X111910180Y-43610600D02*
X111513109Y-43610600D01*
X114099109Y-29260600D02*
X112829109Y-29260600D01*
X114099109Y-30530600D02*
X114099109Y-29260600D01*
%TO.C,R6*%
X163692000Y-42314600D02*
X157152000Y-42314600D01*
X163692000Y-41984600D02*
X163692000Y-42314600D01*
X163692000Y-39904600D02*
X163692000Y-39574600D01*
X163692000Y-39574600D02*
X157152000Y-39574600D01*
X160676724Y-41435600D02*
X160167276Y-41435600D01*
X160676724Y-40390600D02*
X160167276Y-40390600D01*
X157152000Y-42314600D02*
X157152000Y-41984600D01*
X157152000Y-39574600D02*
X157152000Y-39904600D01*
%TO.C,J1*%
X109019109Y-72790808D02*
X111513109Y-72790808D01*
X111513109Y-72790808D02*
X111513109Y-88150808D01*
X111513109Y-75390808D02*
X109019109Y-75390808D01*
X111513109Y-77930808D02*
X109019109Y-77930808D01*
X111513109Y-80470808D02*
X109019109Y-80470808D01*
X111513109Y-83010808D02*
X109019109Y-83010808D01*
X111513109Y-85550808D02*
X109019109Y-85550808D01*
X111513109Y-88150808D02*
X109019109Y-88150808D01*
X111910180Y-73740808D02*
X111513109Y-73740808D01*
X111910180Y-74500808D02*
X111513109Y-74500808D01*
X111910180Y-76280808D02*
X111513109Y-76280808D01*
X111910180Y-77040808D02*
X111513109Y-77040808D01*
X111910180Y-78820808D02*
X111513109Y-78820808D01*
X111910180Y-79580808D02*
X111513109Y-79580808D01*
X111910180Y-81360808D02*
X111513109Y-81360808D01*
X111910180Y-82120808D02*
X111513109Y-82120808D01*
X111910180Y-83900808D02*
X111513109Y-83900808D01*
X111910180Y-84660808D02*
X111513109Y-84660808D01*
X111910180Y-86440808D02*
X111513109Y-86440808D01*
X111910180Y-87200808D02*
X111513109Y-87200808D01*
X114099109Y-72850808D02*
X112829109Y-72850808D01*
X114099109Y-74120808D02*
X114099109Y-72850808D01*
%TO.C,R2*%
X157152000Y-94291912D02*
X163692000Y-94291912D01*
X157152000Y-94621912D02*
X157152000Y-94291912D01*
X157152000Y-96701912D02*
X157152000Y-97031912D01*
X157152000Y-97031912D02*
X163692000Y-97031912D01*
X160167276Y-95170912D02*
X160676724Y-95170912D01*
X160167276Y-96215912D02*
X160676724Y-96215912D01*
X163692000Y-94291912D02*
X163692000Y-94621912D01*
X163692000Y-97031912D02*
X163692000Y-96701912D01*
X116541109Y-94291912D02*
X123081109Y-94291912D01*
X116541109Y-94621912D02*
X116541109Y-94291912D01*
X116541109Y-96701912D02*
X116541109Y-97031912D01*
X116541109Y-97031912D02*
X123081109Y-97031912D01*
X119556385Y-95170912D02*
X120065833Y-95170912D01*
X119556385Y-96215912D02*
X120065833Y-96215912D01*
X123081109Y-94291912D02*
X123081109Y-94621912D01*
X123081109Y-97031912D02*
X123081109Y-96701912D01*
%TO.C,R4*%
X157152000Y-65433704D02*
X163692000Y-65433704D01*
X157152000Y-65763704D02*
X157152000Y-65433704D01*
X157152000Y-67843704D02*
X157152000Y-68173704D01*
X157152000Y-68173704D02*
X163692000Y-68173704D01*
X160167276Y-66312704D02*
X160676724Y-66312704D01*
X160167276Y-67357704D02*
X160676724Y-67357704D01*
X163692000Y-65433704D02*
X163692000Y-65763704D01*
X163692000Y-68173704D02*
X163692000Y-67843704D01*
%TO.C,R1*%
X123081109Y-38758600D02*
X116541109Y-38758600D01*
X123081109Y-38428600D02*
X123081109Y-38758600D01*
X123081109Y-36348600D02*
X123081109Y-36018600D01*
X123081109Y-36018600D02*
X116541109Y-36018600D01*
X120065833Y-37879600D02*
X119556385Y-37879600D01*
X120065833Y-36834600D02*
X119556385Y-36834600D01*
X116541109Y-38758600D02*
X116541109Y-38428600D01*
X116541109Y-36018600D02*
X116541109Y-36348600D01*
%TO.C,J1*%
X149630000Y-72790808D02*
X152124000Y-72790808D01*
X152124000Y-72790808D02*
X152124000Y-88150808D01*
X152124000Y-75390808D02*
X149630000Y-75390808D01*
X152124000Y-77930808D02*
X149630000Y-77930808D01*
X152124000Y-80470808D02*
X149630000Y-80470808D01*
X152124000Y-83010808D02*
X149630000Y-83010808D01*
X152124000Y-85550808D02*
X149630000Y-85550808D01*
X152124000Y-88150808D02*
X149630000Y-88150808D01*
X152521071Y-73740808D02*
X152124000Y-73740808D01*
X152521071Y-74500808D02*
X152124000Y-74500808D01*
X152521071Y-76280808D02*
X152124000Y-76280808D01*
X152521071Y-77040808D02*
X152124000Y-77040808D01*
X152521071Y-78820808D02*
X152124000Y-78820808D01*
X152521071Y-79580808D02*
X152124000Y-79580808D01*
X152521071Y-81360808D02*
X152124000Y-81360808D01*
X152521071Y-82120808D02*
X152124000Y-82120808D01*
X152521071Y-83900808D02*
X152124000Y-83900808D01*
X152521071Y-84660808D02*
X152124000Y-84660808D01*
X152521071Y-86440808D02*
X152124000Y-86440808D01*
X152521071Y-87200808D02*
X152124000Y-87200808D01*
X154710000Y-72850808D02*
X153440000Y-72850808D01*
X154710000Y-74120808D02*
X154710000Y-72850808D01*
%TO.C,SW1*%
X125593109Y-74060808D02*
X126923109Y-74060808D01*
X125593109Y-75390808D02*
X125593109Y-74060808D01*
X125593109Y-76660808D02*
X125593109Y-86880808D01*
X125593109Y-76660808D02*
X128253109Y-76660808D01*
X125593109Y-86880808D02*
X128253109Y-86880808D01*
X128253109Y-76660808D02*
X128253109Y-86880808D01*
%TO.C,R5*%
X167970500Y-27382600D02*
X174510500Y-27382600D01*
X167970500Y-27712600D02*
X167970500Y-27382600D01*
X167970500Y-29792600D02*
X167970500Y-30122600D01*
X167970500Y-30122600D02*
X174510500Y-30122600D01*
X170985776Y-28261600D02*
X171495224Y-28261600D01*
X170985776Y-29306600D02*
X171495224Y-29306600D01*
X174510500Y-27382600D02*
X174510500Y-27712600D01*
X174510500Y-30122600D02*
X174510500Y-29792600D01*
%TO.C,SW2*%
X186510000Y-41234600D02*
X185910000Y-41234600D01*
X186210000Y-40934600D02*
X186510000Y-41234600D01*
X185910000Y-41234600D02*
X186210000Y-40934600D01*
X184810000Y-43034600D02*
X184810000Y-31234600D01*
X180710000Y-43034600D02*
X184810000Y-43034600D01*
X180710000Y-31234600D02*
X184810000Y-31234600D01*
X179210000Y-37134600D02*
X178210000Y-37134600D01*
X178710000Y-37634600D02*
X178710000Y-36634600D01*
X176710000Y-43034600D02*
X172610000Y-43034600D01*
X172610000Y-43034600D02*
X172610000Y-40634600D01*
X172610000Y-38434600D02*
X172610000Y-35834600D01*
X172610000Y-33634600D02*
X172610000Y-31234600D01*
X172610000Y-31234600D02*
X176710000Y-31234600D01*
X181710000Y-37134600D02*
G75*
G03*
X181710000Y-37134600I-3000000J0D01*
G01*
X186510000Y-106619912D02*
X185910000Y-106619912D01*
X186210000Y-106319912D02*
X186510000Y-106619912D01*
X185910000Y-106619912D02*
X186210000Y-106319912D01*
X184810000Y-108419912D02*
X184810000Y-96619912D01*
X180710000Y-108419912D02*
X184810000Y-108419912D01*
X180710000Y-96619912D02*
X184810000Y-96619912D01*
X179210000Y-102519912D02*
X178210000Y-102519912D01*
X178710000Y-103019912D02*
X178710000Y-102019912D01*
X176710000Y-108419912D02*
X172610000Y-108419912D01*
X172610000Y-108419912D02*
X172610000Y-106019912D01*
X172610000Y-103819912D02*
X172610000Y-101219912D01*
X172610000Y-99019912D02*
X172610000Y-96619912D01*
X172610000Y-96619912D02*
X176710000Y-96619912D01*
X181710000Y-102519912D02*
G75*
G03*
X181710000Y-102519912I-3000000J0D01*
G01*
%TO.C,R3*%
X157152000Y-54257704D02*
X163692000Y-54257704D01*
X157152000Y-54587704D02*
X157152000Y-54257704D01*
X157152000Y-56667704D02*
X157152000Y-56997704D01*
X157152000Y-56997704D02*
X163692000Y-56997704D01*
X160167276Y-55136704D02*
X160676724Y-55136704D01*
X160167276Y-56181704D02*
X160676724Y-56181704D01*
X163692000Y-54257704D02*
X163692000Y-54587704D01*
X163692000Y-56997704D02*
X163692000Y-56667704D01*
%TO.C,SW1*%
X125593109Y-52265704D02*
X126923109Y-52265704D01*
X125593109Y-53595704D02*
X125593109Y-52265704D01*
X125593109Y-54865704D02*
X125593109Y-65085704D01*
X125593109Y-54865704D02*
X128253109Y-54865704D01*
X125593109Y-65085704D02*
X128253109Y-65085704D01*
X128253109Y-54865704D02*
X128253109Y-65085704D01*
%TO.C,R5*%
X167970500Y-70972808D02*
X174510500Y-70972808D01*
X167970500Y-71302808D02*
X167970500Y-70972808D01*
X167970500Y-73382808D02*
X167970500Y-73712808D01*
X167970500Y-73712808D02*
X174510500Y-73712808D01*
X170985776Y-71851808D02*
X171495224Y-71851808D01*
X170985776Y-72896808D02*
X171495224Y-72896808D01*
X174510500Y-70972808D02*
X174510500Y-71302808D01*
X174510500Y-73712808D02*
X174510500Y-73382808D01*
%TO.C,R6*%
X123081109Y-107699912D02*
X116541109Y-107699912D01*
X123081109Y-107369912D02*
X123081109Y-107699912D01*
X123081109Y-105289912D02*
X123081109Y-104959912D01*
X123081109Y-104959912D02*
X116541109Y-104959912D01*
X120065833Y-106820912D02*
X119556385Y-106820912D01*
X120065833Y-105775912D02*
X119556385Y-105775912D01*
X116541109Y-107699912D02*
X116541109Y-107369912D01*
X116541109Y-104959912D02*
X116541109Y-105289912D01*
%TO.C,R3*%
X116541109Y-76052808D02*
X123081109Y-76052808D01*
X116541109Y-76382808D02*
X116541109Y-76052808D01*
X116541109Y-78462808D02*
X116541109Y-78792808D01*
X116541109Y-78792808D02*
X123081109Y-78792808D01*
X119556385Y-76931808D02*
X120065833Y-76931808D01*
X119556385Y-77976808D02*
X120065833Y-77976808D01*
X123081109Y-76052808D02*
X123081109Y-76382808D01*
X123081109Y-78792808D02*
X123081109Y-78462808D01*
%TO.C,R5*%
X127359609Y-92767912D02*
X133899609Y-92767912D01*
X127359609Y-93097912D02*
X127359609Y-92767912D01*
X127359609Y-95177912D02*
X127359609Y-95507912D01*
X127359609Y-95507912D02*
X133899609Y-95507912D01*
X130374885Y-93646912D02*
X130884333Y-93646912D01*
X130374885Y-94691912D02*
X130884333Y-94691912D01*
X133899609Y-92767912D02*
X133899609Y-93097912D01*
X133899609Y-95507912D02*
X133899609Y-95177912D01*
%TO.C,J1*%
X149630000Y-50995704D02*
X152124000Y-50995704D01*
X152124000Y-50995704D02*
X152124000Y-66355704D01*
X152124000Y-53595704D02*
X149630000Y-53595704D01*
X152124000Y-56135704D02*
X149630000Y-56135704D01*
X152124000Y-58675704D02*
X149630000Y-58675704D01*
X152124000Y-61215704D02*
X149630000Y-61215704D01*
X152124000Y-63755704D02*
X149630000Y-63755704D01*
X152124000Y-66355704D02*
X149630000Y-66355704D01*
X152521071Y-51945704D02*
X152124000Y-51945704D01*
X152521071Y-52705704D02*
X152124000Y-52705704D01*
X152521071Y-54485704D02*
X152124000Y-54485704D01*
X152521071Y-55245704D02*
X152124000Y-55245704D01*
X152521071Y-57025704D02*
X152124000Y-57025704D01*
X152521071Y-57785704D02*
X152124000Y-57785704D01*
X152521071Y-59565704D02*
X152124000Y-59565704D01*
X152521071Y-60325704D02*
X152124000Y-60325704D01*
X152521071Y-62105704D02*
X152124000Y-62105704D01*
X152521071Y-62865704D02*
X152124000Y-62865704D01*
X152521071Y-64645704D02*
X152124000Y-64645704D01*
X152521071Y-65405704D02*
X152124000Y-65405704D01*
X154710000Y-51055704D02*
X153440000Y-51055704D01*
X154710000Y-52325704D02*
X154710000Y-51055704D01*
%TO.C,R4*%
X116541109Y-109023912D02*
X123081109Y-109023912D01*
X116541109Y-109353912D02*
X116541109Y-109023912D01*
X116541109Y-111433912D02*
X116541109Y-111763912D01*
X116541109Y-111763912D02*
X123081109Y-111763912D01*
X119556385Y-109902912D02*
X120065833Y-109902912D01*
X119556385Y-110947912D02*
X120065833Y-110947912D01*
X123081109Y-109023912D02*
X123081109Y-109353912D01*
X123081109Y-111763912D02*
X123081109Y-111433912D01*
%TO.C,R6*%
X163692000Y-107699912D02*
X157152000Y-107699912D01*
X163692000Y-107369912D02*
X163692000Y-107699912D01*
X163692000Y-105289912D02*
X163692000Y-104959912D01*
X163692000Y-104959912D02*
X157152000Y-104959912D01*
X160676724Y-106820912D02*
X160167276Y-106820912D01*
X160676724Y-105775912D02*
X160167276Y-105775912D01*
X157152000Y-107699912D02*
X157152000Y-107369912D01*
X157152000Y-104959912D02*
X157152000Y-105289912D01*
%TO.C,R1*%
X123081109Y-60553704D02*
X116541109Y-60553704D01*
X123081109Y-60223704D02*
X123081109Y-60553704D01*
X123081109Y-58143704D02*
X123081109Y-57813704D01*
X123081109Y-57813704D02*
X116541109Y-57813704D01*
X120065833Y-59674704D02*
X119556385Y-59674704D01*
X120065833Y-58629704D02*
X119556385Y-58629704D01*
X116541109Y-60553704D02*
X116541109Y-60223704D01*
X116541109Y-57813704D02*
X116541109Y-58143704D01*
%TO.C,R7*%
X127463109Y-43638600D02*
X134003109Y-43638600D01*
X127463109Y-43968600D02*
X127463109Y-43638600D01*
X127463109Y-46048600D02*
X127463109Y-46378600D01*
X127463109Y-46378600D02*
X134003109Y-46378600D01*
X130478385Y-44517600D02*
X130987833Y-44517600D01*
X130478385Y-45562600D02*
X130987833Y-45562600D01*
X134003109Y-43638600D02*
X134003109Y-43968600D01*
X134003109Y-46378600D02*
X134003109Y-46048600D01*
%TO.C,R4*%
X116541109Y-65433704D02*
X123081109Y-65433704D01*
X116541109Y-65763704D02*
X116541109Y-65433704D01*
X116541109Y-67843704D02*
X116541109Y-68173704D01*
X116541109Y-68173704D02*
X123081109Y-68173704D01*
X119556385Y-66312704D02*
X120065833Y-66312704D01*
X119556385Y-67357704D02*
X120065833Y-67357704D01*
X123081109Y-65433704D02*
X123081109Y-65763704D01*
X123081109Y-68173704D02*
X123081109Y-67843704D01*
%TO.C,R3*%
X116541109Y-97847912D02*
X123081109Y-97847912D01*
X116541109Y-98177912D02*
X116541109Y-97847912D01*
X116541109Y-100257912D02*
X116541109Y-100587912D01*
X116541109Y-100587912D02*
X123081109Y-100587912D01*
X119556385Y-98726912D02*
X120065833Y-98726912D01*
X119556385Y-99771912D02*
X120065833Y-99771912D01*
X123081109Y-97847912D02*
X123081109Y-98177912D01*
X123081109Y-100587912D02*
X123081109Y-100257912D01*
%TO.C,R4*%
X157152000Y-109023912D02*
X163692000Y-109023912D01*
X157152000Y-109353912D02*
X157152000Y-109023912D01*
X157152000Y-111433912D02*
X157152000Y-111763912D01*
X157152000Y-111763912D02*
X163692000Y-111763912D01*
X160167276Y-109902912D02*
X160676724Y-109902912D01*
X160167276Y-110947912D02*
X160676724Y-110947912D01*
X163692000Y-109023912D02*
X163692000Y-109353912D01*
X163692000Y-111763912D02*
X163692000Y-111433912D01*
%TO.C,R1*%
X163692000Y-38758600D02*
X157152000Y-38758600D01*
X163692000Y-38428600D02*
X163692000Y-38758600D01*
X163692000Y-36348600D02*
X163692000Y-36018600D01*
X163692000Y-36018600D02*
X157152000Y-36018600D01*
X160676724Y-37879600D02*
X160167276Y-37879600D01*
X160676724Y-36834600D02*
X160167276Y-36834600D01*
X157152000Y-38758600D02*
X157152000Y-38428600D01*
X157152000Y-36018600D02*
X157152000Y-36348600D01*
%TO.C,SW1*%
X166204000Y-95855912D02*
X167534000Y-95855912D01*
X166204000Y-97185912D02*
X166204000Y-95855912D01*
X166204000Y-98455912D02*
X166204000Y-108675912D01*
X166204000Y-98455912D02*
X168864000Y-98455912D01*
X166204000Y-108675912D02*
X168864000Y-108675912D01*
X168864000Y-98455912D02*
X168864000Y-108675912D01*
%TO.C,R3*%
X157152000Y-32462600D02*
X163692000Y-32462600D01*
X157152000Y-32792600D02*
X157152000Y-32462600D01*
X157152000Y-34872600D02*
X157152000Y-35202600D01*
X157152000Y-35202600D02*
X163692000Y-35202600D01*
X160167276Y-33341600D02*
X160676724Y-33341600D01*
X160167276Y-34386600D02*
X160676724Y-34386600D01*
X163692000Y-32462600D02*
X163692000Y-32792600D01*
X163692000Y-35202600D02*
X163692000Y-34872600D01*
%TO.C,R2*%
X157152000Y-28906600D02*
X163692000Y-28906600D01*
X157152000Y-29236600D02*
X157152000Y-28906600D01*
X157152000Y-31316600D02*
X157152000Y-31646600D01*
X157152000Y-31646600D02*
X163692000Y-31646600D01*
X160167276Y-29785600D02*
X160676724Y-29785600D01*
X160167276Y-30830600D02*
X160676724Y-30830600D01*
X163692000Y-28906600D02*
X163692000Y-29236600D01*
X163692000Y-31646600D02*
X163692000Y-31316600D01*
%TO.C,R5*%
X167970500Y-92767912D02*
X174510500Y-92767912D01*
X167970500Y-93097912D02*
X167970500Y-92767912D01*
X167970500Y-95177912D02*
X167970500Y-95507912D01*
X167970500Y-95507912D02*
X174510500Y-95507912D01*
X170985776Y-93646912D02*
X171495224Y-93646912D01*
X170985776Y-94691912D02*
X171495224Y-94691912D01*
X174510500Y-92767912D02*
X174510500Y-93097912D01*
X174510500Y-95507912D02*
X174510500Y-95177912D01*
%TO.C,R7*%
X127463109Y-87228808D02*
X134003109Y-87228808D01*
X127463109Y-87558808D02*
X127463109Y-87228808D01*
X127463109Y-89638808D02*
X127463109Y-89968808D01*
X127463109Y-89968808D02*
X134003109Y-89968808D01*
X130478385Y-88107808D02*
X130987833Y-88107808D01*
X130478385Y-89152808D02*
X130987833Y-89152808D01*
X134003109Y-87228808D02*
X134003109Y-87558808D01*
X134003109Y-89968808D02*
X134003109Y-89638808D01*
%TO.C,R6*%
X163692000Y-85904808D02*
X157152000Y-85904808D01*
X163692000Y-85574808D02*
X163692000Y-85904808D01*
X163692000Y-83494808D02*
X163692000Y-83164808D01*
X163692000Y-83164808D02*
X157152000Y-83164808D01*
X160676724Y-85025808D02*
X160167276Y-85025808D01*
X160676724Y-83980808D02*
X160167276Y-83980808D01*
X157152000Y-85904808D02*
X157152000Y-85574808D01*
X157152000Y-83164808D02*
X157152000Y-83494808D01*
%TO.C,SW2*%
X145899109Y-84824808D02*
X145299109Y-84824808D01*
X145599109Y-84524808D02*
X145899109Y-84824808D01*
X145299109Y-84824808D02*
X145599109Y-84524808D01*
X144199109Y-86624808D02*
X144199109Y-74824808D01*
X140099109Y-86624808D02*
X144199109Y-86624808D01*
X140099109Y-74824808D02*
X144199109Y-74824808D01*
X138599109Y-80724808D02*
X137599109Y-80724808D01*
X138099109Y-81224808D02*
X138099109Y-80224808D01*
X136099109Y-86624808D02*
X131999109Y-86624808D01*
X131999109Y-86624808D02*
X131999109Y-84224808D01*
X131999109Y-82024808D02*
X131999109Y-79424808D01*
X131999109Y-77224808D02*
X131999109Y-74824808D01*
X131999109Y-74824808D02*
X136099109Y-74824808D01*
X141099109Y-80724808D02*
G75*
G03*
X141099109Y-80724808I-3000000J0D01*
G01*
%TO.C,R3*%
X157152000Y-97847912D02*
X163692000Y-97847912D01*
X157152000Y-98177912D02*
X157152000Y-97847912D01*
X157152000Y-100257912D02*
X157152000Y-100587912D01*
X157152000Y-100587912D02*
X163692000Y-100587912D01*
X160167276Y-98726912D02*
X160676724Y-98726912D01*
X160167276Y-99771912D02*
X160676724Y-99771912D01*
X163692000Y-97847912D02*
X163692000Y-98177912D01*
X163692000Y-100587912D02*
X163692000Y-100257912D01*
%TO.C,R5*%
X167970500Y-49177704D02*
X174510500Y-49177704D01*
X167970500Y-49507704D02*
X167970500Y-49177704D01*
X167970500Y-51587704D02*
X167970500Y-51917704D01*
X167970500Y-51917704D02*
X174510500Y-51917704D01*
X170985776Y-50056704D02*
X171495224Y-50056704D01*
X170985776Y-51101704D02*
X171495224Y-51101704D01*
X174510500Y-49177704D02*
X174510500Y-49507704D01*
X174510500Y-51917704D02*
X174510500Y-51587704D01*
%TO.C,SW1*%
X125593109Y-30470600D02*
X126923109Y-30470600D01*
X125593109Y-31800600D02*
X125593109Y-30470600D01*
X125593109Y-33070600D02*
X125593109Y-43290600D01*
X125593109Y-33070600D02*
X128253109Y-33070600D01*
X125593109Y-43290600D02*
X128253109Y-43290600D01*
X128253109Y-33070600D02*
X128253109Y-43290600D01*
%TO.C,R1*%
X163692000Y-104143912D02*
X157152000Y-104143912D01*
X163692000Y-103813912D02*
X163692000Y-104143912D01*
X163692000Y-101733912D02*
X163692000Y-101403912D01*
X163692000Y-101403912D02*
X157152000Y-101403912D01*
X160676724Y-103264912D02*
X160167276Y-103264912D01*
X160676724Y-102219912D02*
X160167276Y-102219912D01*
X157152000Y-104143912D02*
X157152000Y-103813912D01*
X157152000Y-101403912D02*
X157152000Y-101733912D01*
%TO.C,SW2*%
X186510000Y-84824808D02*
X185910000Y-84824808D01*
X186210000Y-84524808D02*
X186510000Y-84824808D01*
X185910000Y-84824808D02*
X186210000Y-84524808D01*
X184810000Y-86624808D02*
X184810000Y-74824808D01*
X180710000Y-86624808D02*
X184810000Y-86624808D01*
X180710000Y-74824808D02*
X184810000Y-74824808D01*
X179210000Y-80724808D02*
X178210000Y-80724808D01*
X178710000Y-81224808D02*
X178710000Y-80224808D01*
X176710000Y-86624808D02*
X172610000Y-86624808D01*
X172610000Y-86624808D02*
X172610000Y-84224808D01*
X172610000Y-82024808D02*
X172610000Y-79424808D01*
X172610000Y-77224808D02*
X172610000Y-74824808D01*
X172610000Y-74824808D02*
X176710000Y-74824808D01*
X181710000Y-80724808D02*
G75*
G03*
X181710000Y-80724808I-3000000J0D01*
G01*
%TO.C,SW1*%
X166204000Y-74060808D02*
X167534000Y-74060808D01*
X166204000Y-75390808D02*
X166204000Y-74060808D01*
X166204000Y-76660808D02*
X166204000Y-86880808D01*
X166204000Y-76660808D02*
X168864000Y-76660808D01*
X166204000Y-86880808D02*
X168864000Y-86880808D01*
X168864000Y-76660808D02*
X168864000Y-86880808D01*
%TO.C,R1*%
X163692000Y-60553704D02*
X157152000Y-60553704D01*
X163692000Y-60223704D02*
X163692000Y-60553704D01*
X163692000Y-58143704D02*
X163692000Y-57813704D01*
X163692000Y-57813704D02*
X157152000Y-57813704D01*
X160676724Y-59674704D02*
X160167276Y-59674704D01*
X160676724Y-58629704D02*
X160167276Y-58629704D01*
X157152000Y-60553704D02*
X157152000Y-60223704D01*
X157152000Y-57813704D02*
X157152000Y-58143704D01*
X123081109Y-82348808D02*
X116541109Y-82348808D01*
X123081109Y-82018808D02*
X123081109Y-82348808D01*
X123081109Y-79938808D02*
X123081109Y-79608808D01*
X123081109Y-79608808D02*
X116541109Y-79608808D01*
X120065833Y-81469808D02*
X119556385Y-81469808D01*
X120065833Y-80424808D02*
X119556385Y-80424808D01*
X116541109Y-82348808D02*
X116541109Y-82018808D01*
X116541109Y-79608808D02*
X116541109Y-79938808D01*
%TO.C,R2*%
X116541109Y-50701704D02*
X123081109Y-50701704D01*
X116541109Y-51031704D02*
X116541109Y-50701704D01*
X116541109Y-53111704D02*
X116541109Y-53441704D01*
X116541109Y-53441704D02*
X123081109Y-53441704D01*
X119556385Y-51580704D02*
X120065833Y-51580704D01*
X119556385Y-52625704D02*
X120065833Y-52625704D01*
X123081109Y-50701704D02*
X123081109Y-51031704D01*
X123081109Y-53441704D02*
X123081109Y-53111704D01*
%TO.C,SW2*%
X145899109Y-63029704D02*
X145299109Y-63029704D01*
X145599109Y-62729704D02*
X145899109Y-63029704D01*
X145299109Y-63029704D02*
X145599109Y-62729704D01*
X144199109Y-64829704D02*
X144199109Y-53029704D01*
X140099109Y-64829704D02*
X144199109Y-64829704D01*
X140099109Y-53029704D02*
X144199109Y-53029704D01*
X138599109Y-58929704D02*
X137599109Y-58929704D01*
X138099109Y-59429704D02*
X138099109Y-58429704D01*
X136099109Y-64829704D02*
X131999109Y-64829704D01*
X131999109Y-64829704D02*
X131999109Y-62429704D01*
X131999109Y-60229704D02*
X131999109Y-57629704D01*
X131999109Y-55429704D02*
X131999109Y-53029704D01*
X131999109Y-53029704D02*
X136099109Y-53029704D01*
X141099109Y-58929704D02*
G75*
G03*
X141099109Y-58929704I-3000000J0D01*
G01*
%TO.C,R2*%
X116541109Y-28906600D02*
X123081109Y-28906600D01*
X116541109Y-29236600D02*
X116541109Y-28906600D01*
X116541109Y-31316600D02*
X116541109Y-31646600D01*
X116541109Y-31646600D02*
X123081109Y-31646600D01*
X119556385Y-29785600D02*
X120065833Y-29785600D01*
X119556385Y-30830600D02*
X120065833Y-30830600D01*
X123081109Y-28906600D02*
X123081109Y-29236600D01*
X123081109Y-31646600D02*
X123081109Y-31316600D01*
%TO.C,J1*%
X109019109Y-50995704D02*
X111513109Y-50995704D01*
X111513109Y-50995704D02*
X111513109Y-66355704D01*
X111513109Y-53595704D02*
X109019109Y-53595704D01*
X111513109Y-56135704D02*
X109019109Y-56135704D01*
X111513109Y-58675704D02*
X109019109Y-58675704D01*
X111513109Y-61215704D02*
X109019109Y-61215704D01*
X111513109Y-63755704D02*
X109019109Y-63755704D01*
X111513109Y-66355704D02*
X109019109Y-66355704D01*
X111910180Y-51945704D02*
X111513109Y-51945704D01*
X111910180Y-52705704D02*
X111513109Y-52705704D01*
X111910180Y-54485704D02*
X111513109Y-54485704D01*
X111910180Y-55245704D02*
X111513109Y-55245704D01*
X111910180Y-57025704D02*
X111513109Y-57025704D01*
X111910180Y-57785704D02*
X111513109Y-57785704D01*
X111910180Y-59565704D02*
X111513109Y-59565704D01*
X111910180Y-60325704D02*
X111513109Y-60325704D01*
X111910180Y-62105704D02*
X111513109Y-62105704D01*
X111910180Y-62865704D02*
X111513109Y-62865704D01*
X111910180Y-64645704D02*
X111513109Y-64645704D01*
X111910180Y-65405704D02*
X111513109Y-65405704D01*
X114099109Y-51055704D02*
X112829109Y-51055704D01*
X114099109Y-52325704D02*
X114099109Y-51055704D01*
%TO.C,R3*%
X116541109Y-32462600D02*
X123081109Y-32462600D01*
X116541109Y-32792600D02*
X116541109Y-32462600D01*
X116541109Y-34872600D02*
X116541109Y-35202600D01*
X116541109Y-35202600D02*
X123081109Y-35202600D01*
X119556385Y-33341600D02*
X120065833Y-33341600D01*
X119556385Y-34386600D02*
X120065833Y-34386600D01*
X123081109Y-32462600D02*
X123081109Y-32792600D01*
X123081109Y-35202600D02*
X123081109Y-34872600D01*
%TO.C,SW2*%
X145899109Y-106619912D02*
X145299109Y-106619912D01*
X145599109Y-106319912D02*
X145899109Y-106619912D01*
X145299109Y-106619912D02*
X145599109Y-106319912D01*
X144199109Y-108419912D02*
X144199109Y-96619912D01*
X140099109Y-108419912D02*
X144199109Y-108419912D01*
X140099109Y-96619912D02*
X144199109Y-96619912D01*
X138599109Y-102519912D02*
X137599109Y-102519912D01*
X138099109Y-103019912D02*
X138099109Y-102019912D01*
X136099109Y-108419912D02*
X131999109Y-108419912D01*
X131999109Y-108419912D02*
X131999109Y-106019912D01*
X131999109Y-103819912D02*
X131999109Y-101219912D01*
X131999109Y-99019912D02*
X131999109Y-96619912D01*
X131999109Y-96619912D02*
X136099109Y-96619912D01*
X141099109Y-102519912D02*
G75*
G03*
X141099109Y-102519912I-3000000J0D01*
G01*
%TO.C,R1*%
X163692000Y-82348808D02*
X157152000Y-82348808D01*
X163692000Y-82018808D02*
X163692000Y-82348808D01*
X163692000Y-79938808D02*
X163692000Y-79608808D01*
X163692000Y-79608808D02*
X157152000Y-79608808D01*
X160676724Y-81469808D02*
X160167276Y-81469808D01*
X160676724Y-80424808D02*
X160167276Y-80424808D01*
X157152000Y-82348808D02*
X157152000Y-82018808D01*
X157152000Y-79608808D02*
X157152000Y-79938808D01*
%TO.C,R7*%
X168074000Y-65433704D02*
X174614000Y-65433704D01*
X168074000Y-65763704D02*
X168074000Y-65433704D01*
X168074000Y-67843704D02*
X168074000Y-68173704D01*
X168074000Y-68173704D02*
X174614000Y-68173704D01*
X171089276Y-66312704D02*
X171598724Y-66312704D01*
X171089276Y-67357704D02*
X171598724Y-67357704D01*
X174614000Y-65433704D02*
X174614000Y-65763704D01*
X174614000Y-68173704D02*
X174614000Y-67843704D01*
%TO.C,SW2*%
X186510000Y-63029704D02*
X185910000Y-63029704D01*
X186210000Y-62729704D02*
X186510000Y-63029704D01*
X185910000Y-63029704D02*
X186210000Y-62729704D01*
X184810000Y-64829704D02*
X184810000Y-53029704D01*
X180710000Y-64829704D02*
X184810000Y-64829704D01*
X180710000Y-53029704D02*
X184810000Y-53029704D01*
X179210000Y-58929704D02*
X178210000Y-58929704D01*
X178710000Y-59429704D02*
X178710000Y-58429704D01*
X176710000Y-64829704D02*
X172610000Y-64829704D01*
X172610000Y-64829704D02*
X172610000Y-62429704D01*
X172610000Y-60229704D02*
X172610000Y-57629704D01*
X172610000Y-55429704D02*
X172610000Y-53029704D01*
X172610000Y-53029704D02*
X176710000Y-53029704D01*
X181710000Y-58929704D02*
G75*
G03*
X181710000Y-58929704I-3000000J0D01*
G01*
%TO.C,R6*%
X123081109Y-42314600D02*
X116541109Y-42314600D01*
X123081109Y-41984600D02*
X123081109Y-42314600D01*
X123081109Y-39904600D02*
X123081109Y-39574600D01*
X123081109Y-39574600D02*
X116541109Y-39574600D01*
X120065833Y-41435600D02*
X119556385Y-41435600D01*
X120065833Y-40390600D02*
X119556385Y-40390600D01*
X116541109Y-42314600D02*
X116541109Y-41984600D01*
X116541109Y-39574600D02*
X116541109Y-39904600D01*
%TO.C,SW1*%
X166204000Y-30470600D02*
X167534000Y-30470600D01*
X166204000Y-31800600D02*
X166204000Y-30470600D01*
X166204000Y-33070600D02*
X166204000Y-43290600D01*
X166204000Y-33070600D02*
X168864000Y-33070600D01*
X166204000Y-43290600D02*
X168864000Y-43290600D01*
X168864000Y-33070600D02*
X168864000Y-43290600D01*
%TO.C,R7*%
X127463109Y-109023912D02*
X134003109Y-109023912D01*
X127463109Y-109353912D02*
X127463109Y-109023912D01*
X127463109Y-111433912D02*
X127463109Y-111763912D01*
X127463109Y-111763912D02*
X134003109Y-111763912D01*
X130478385Y-109902912D02*
X130987833Y-109902912D01*
X130478385Y-110947912D02*
X130987833Y-110947912D01*
X134003109Y-109023912D02*
X134003109Y-109353912D01*
X134003109Y-111763912D02*
X134003109Y-111433912D01*
%TO.C,SW1*%
X166204000Y-52265704D02*
X167534000Y-52265704D01*
X166204000Y-53595704D02*
X166204000Y-52265704D01*
X166204000Y-54865704D02*
X166204000Y-65085704D01*
X166204000Y-54865704D02*
X168864000Y-54865704D01*
X166204000Y-65085704D02*
X168864000Y-65085704D01*
X168864000Y-54865704D02*
X168864000Y-65085704D01*
%TO.C,R4*%
X116541109Y-43638600D02*
X123081109Y-43638600D01*
X116541109Y-43968600D02*
X116541109Y-43638600D01*
X116541109Y-46048600D02*
X116541109Y-46378600D01*
X116541109Y-46378600D02*
X123081109Y-46378600D01*
X119556385Y-44517600D02*
X120065833Y-44517600D01*
X119556385Y-45562600D02*
X120065833Y-45562600D01*
X123081109Y-43638600D02*
X123081109Y-43968600D01*
X123081109Y-46378600D02*
X123081109Y-46048600D01*
X157152000Y-87228808D02*
X163692000Y-87228808D01*
X157152000Y-87558808D02*
X157152000Y-87228808D01*
X157152000Y-89638808D02*
X157152000Y-89968808D01*
X157152000Y-89968808D02*
X163692000Y-89968808D01*
X160167276Y-88107808D02*
X160676724Y-88107808D01*
X160167276Y-89152808D02*
X160676724Y-89152808D01*
X163692000Y-87228808D02*
X163692000Y-87558808D01*
X163692000Y-89968808D02*
X163692000Y-89638808D01*
%TO.C,R7*%
X168074000Y-109023912D02*
X174614000Y-109023912D01*
X168074000Y-109353912D02*
X168074000Y-109023912D01*
X168074000Y-111433912D02*
X168074000Y-111763912D01*
X168074000Y-111763912D02*
X174614000Y-111763912D01*
X171089276Y-109902912D02*
X171598724Y-109902912D01*
X171089276Y-110947912D02*
X171598724Y-110947912D01*
X174614000Y-109023912D02*
X174614000Y-109353912D01*
X174614000Y-111763912D02*
X174614000Y-111433912D01*
%TO.C,R4*%
X157152000Y-43638600D02*
X163692000Y-43638600D01*
X157152000Y-43968600D02*
X157152000Y-43638600D01*
X157152000Y-46048600D02*
X157152000Y-46378600D01*
X157152000Y-46378600D02*
X163692000Y-46378600D01*
X160167276Y-44517600D02*
X160676724Y-44517600D01*
X160167276Y-45562600D02*
X160676724Y-45562600D01*
X163692000Y-43638600D02*
X163692000Y-43968600D01*
X163692000Y-46378600D02*
X163692000Y-46048600D01*
%TO.C,R7*%
X168074000Y-43638600D02*
X174614000Y-43638600D01*
X168074000Y-43968600D02*
X168074000Y-43638600D01*
X168074000Y-46048600D02*
X168074000Y-46378600D01*
X168074000Y-46378600D02*
X174614000Y-46378600D01*
X171089276Y-44517600D02*
X171598724Y-44517600D01*
X171089276Y-45562600D02*
X171598724Y-45562600D01*
X174614000Y-43638600D02*
X174614000Y-43968600D01*
X174614000Y-46378600D02*
X174614000Y-46048600D01*
%TO.C,R3*%
X116541109Y-54257704D02*
X123081109Y-54257704D01*
X116541109Y-54587704D02*
X116541109Y-54257704D01*
X116541109Y-56667704D02*
X116541109Y-56997704D01*
X116541109Y-56997704D02*
X123081109Y-56997704D01*
X119556385Y-55136704D02*
X120065833Y-55136704D01*
X119556385Y-56181704D02*
X120065833Y-56181704D01*
X123081109Y-54257704D02*
X123081109Y-54587704D01*
X123081109Y-56997704D02*
X123081109Y-56667704D01*
%TO.C,R6*%
X163692000Y-64109704D02*
X157152000Y-64109704D01*
X163692000Y-63779704D02*
X163692000Y-64109704D01*
X163692000Y-61699704D02*
X163692000Y-61369704D01*
X163692000Y-61369704D02*
X157152000Y-61369704D01*
X160676724Y-63230704D02*
X160167276Y-63230704D01*
X160676724Y-62185704D02*
X160167276Y-62185704D01*
X157152000Y-64109704D02*
X157152000Y-63779704D01*
X157152000Y-61369704D02*
X157152000Y-61699704D01*
%TO.C,R5*%
X127359609Y-27382600D02*
X133899609Y-27382600D01*
X127359609Y-27712600D02*
X127359609Y-27382600D01*
X127359609Y-29792600D02*
X127359609Y-30122600D01*
X127359609Y-30122600D02*
X133899609Y-30122600D01*
X130374885Y-28261600D02*
X130884333Y-28261600D01*
X130374885Y-29306600D02*
X130884333Y-29306600D01*
X133899609Y-27382600D02*
X133899609Y-27712600D01*
X133899609Y-30122600D02*
X133899609Y-29792600D01*
X127359609Y-70972808D02*
X133899609Y-70972808D01*
X127359609Y-71302808D02*
X127359609Y-70972808D01*
X127359609Y-73382808D02*
X127359609Y-73712808D01*
X127359609Y-73712808D02*
X133899609Y-73712808D01*
X130374885Y-71851808D02*
X130884333Y-71851808D01*
X130374885Y-72896808D02*
X130884333Y-72896808D01*
X133899609Y-70972808D02*
X133899609Y-71302808D01*
X133899609Y-73712808D02*
X133899609Y-73382808D01*
%TO.C,SW2*%
X145899109Y-41234600D02*
X145299109Y-41234600D01*
X145599109Y-40934600D02*
X145899109Y-41234600D01*
X145299109Y-41234600D02*
X145599109Y-40934600D01*
X144199109Y-43034600D02*
X144199109Y-31234600D01*
X140099109Y-43034600D02*
X144199109Y-43034600D01*
X140099109Y-31234600D02*
X144199109Y-31234600D01*
X138599109Y-37134600D02*
X137599109Y-37134600D01*
X138099109Y-37634600D02*
X138099109Y-36634600D01*
X136099109Y-43034600D02*
X131999109Y-43034600D01*
X131999109Y-43034600D02*
X131999109Y-40634600D01*
X131999109Y-38434600D02*
X131999109Y-35834600D01*
X131999109Y-33634600D02*
X131999109Y-31234600D01*
X131999109Y-31234600D02*
X136099109Y-31234600D01*
X141099109Y-37134600D02*
G75*
G03*
X141099109Y-37134600I-3000000J0D01*
G01*
%TO.C,SW1*%
X125593109Y-95855912D02*
X126923109Y-95855912D01*
X125593109Y-97185912D02*
X125593109Y-95855912D01*
X125593109Y-98455912D02*
X125593109Y-108675912D01*
X125593109Y-98455912D02*
X128253109Y-98455912D01*
X125593109Y-108675912D02*
X128253109Y-108675912D01*
X128253109Y-98455912D02*
X128253109Y-108675912D01*
%TO.C,J1*%
X149630000Y-94585912D02*
X152124000Y-94585912D01*
X152124000Y-94585912D02*
X152124000Y-109945912D01*
X152124000Y-97185912D02*
X149630000Y-97185912D01*
X152124000Y-99725912D02*
X149630000Y-99725912D01*
X152124000Y-102265912D02*
X149630000Y-102265912D01*
X152124000Y-104805912D02*
X149630000Y-104805912D01*
X152124000Y-107345912D02*
X149630000Y-107345912D01*
X152124000Y-109945912D02*
X149630000Y-109945912D01*
X152521071Y-95535912D02*
X152124000Y-95535912D01*
X152521071Y-96295912D02*
X152124000Y-96295912D01*
X152521071Y-98075912D02*
X152124000Y-98075912D01*
X152521071Y-98835912D02*
X152124000Y-98835912D01*
X152521071Y-100615912D02*
X152124000Y-100615912D01*
X152521071Y-101375912D02*
X152124000Y-101375912D01*
X152521071Y-103155912D02*
X152124000Y-103155912D01*
X152521071Y-103915912D02*
X152124000Y-103915912D01*
X152521071Y-105695912D02*
X152124000Y-105695912D01*
X152521071Y-106455912D02*
X152124000Y-106455912D01*
X152521071Y-108235912D02*
X152124000Y-108235912D01*
X152521071Y-108995912D02*
X152124000Y-108995912D01*
X154710000Y-94645912D02*
X153440000Y-94645912D01*
X154710000Y-95915912D02*
X154710000Y-94645912D01*
%TO.C,R2*%
X157152000Y-72496808D02*
X163692000Y-72496808D01*
X157152000Y-72826808D02*
X157152000Y-72496808D01*
X157152000Y-74906808D02*
X157152000Y-75236808D01*
X157152000Y-75236808D02*
X163692000Y-75236808D01*
X160167276Y-73375808D02*
X160676724Y-73375808D01*
X160167276Y-74420808D02*
X160676724Y-74420808D01*
X163692000Y-72496808D02*
X163692000Y-72826808D01*
X163692000Y-75236808D02*
X163692000Y-74906808D01*
%TO.C,R4*%
X116541109Y-87228808D02*
X123081109Y-87228808D01*
X116541109Y-87558808D02*
X116541109Y-87228808D01*
X116541109Y-89638808D02*
X116541109Y-89968808D01*
X116541109Y-89968808D02*
X123081109Y-89968808D01*
X119556385Y-88107808D02*
X120065833Y-88107808D01*
X119556385Y-89152808D02*
X120065833Y-89152808D01*
X123081109Y-87228808D02*
X123081109Y-87558808D01*
X123081109Y-89968808D02*
X123081109Y-89638808D01*
%TD*%
M02*
