M48
; DRILL file {KiCad 7.0.2} date Fri May 26 21:55:36 2023
; FORMAT={-:-/ absolute / metric / decimal}
; #@! TF.CreationDate,2023-05-26T21:55:36+09:00
; #@! TF.GenerationSoftware,Kicad,Pcbnew,7.0.2
; #@! TF.FileFunction,NonPlated,1,2,NPTH
FMAT,2
METRIC
; #@! TA.AperFunction,NonPlated,NPTH,ComponentDrill
T1C0.500
; #@! TA.AperFunction,NonPlated,NPTH,ComponentDrill
T2C1.200
%
G90
G05
T1
X102.639Y-27.0
X102.639Y-112.18
X103.514Y-27.0
X103.514Y-112.18
X104.389Y-27.0
X104.389Y-112.18
X105.264Y-27.0
X105.264Y-112.18
X106.139Y-27.0
X106.139Y-112.18
X108.889Y-20.75
X108.889Y-21.625
X108.889Y-22.5
X108.889Y-23.375
X108.889Y-24.25
X108.889Y-33.398
X108.889Y-34.273
X108.889Y-35.148
X108.889Y-36.023
X108.889Y-36.898
X108.889Y-37.773
X108.889Y-38.648
X108.889Y-39.523
X108.889Y-40.398
X108.889Y-55.193
X108.889Y-56.068
X108.889Y-56.943
X108.889Y-57.818
X108.889Y-58.693
X108.889Y-59.568
X108.889Y-60.443
X108.889Y-61.318
X108.889Y-62.193
X108.889Y-76.988
X108.889Y-77.863
X108.889Y-78.738
X108.889Y-79.613
X108.889Y-80.488
X108.889Y-81.363
X108.889Y-82.238
X108.889Y-83.113
X108.889Y-83.988
X108.889Y-98.783
X108.889Y-99.658
X108.889Y-100.533
X108.889Y-101.408
X108.889Y-102.283
X108.889Y-103.158
X108.889Y-104.033
X108.889Y-104.908
X108.889Y-105.783
X108.889Y-114.93
X108.889Y-115.805
X108.889Y-116.68
X108.889Y-117.555
X108.889Y-118.43
X124.695Y-27.0
X124.695Y-46.79
X124.695Y-48.795
X124.695Y-68.585
X124.695Y-70.59
X124.695Y-90.38
X124.695Y-92.385
X124.695Y-112.176
X125.57Y-27.0
X125.57Y-46.79
X125.57Y-48.795
X125.57Y-68.586
X125.57Y-70.59
X125.57Y-90.381
X125.57Y-92.385
X125.57Y-112.176
X126.445Y-27.0
X126.445Y-46.791
X126.445Y-48.795
X126.445Y-68.586
X126.445Y-70.59
X126.445Y-90.381
X126.445Y-92.385
X126.445Y-112.176
X127.32Y-27.0
X127.32Y-46.791
X127.32Y-48.795
X127.32Y-68.586
X127.32Y-70.59
X127.32Y-90.381
X127.32Y-92.385
X127.32Y-112.176
X128.195Y-27.0
X128.195Y-46.791
X128.195Y-48.795
X128.195Y-68.586
X128.195Y-70.59
X128.195Y-90.381
X128.195Y-92.385
X128.195Y-112.176
X129.07Y-27.0
X129.07Y-46.791
X129.07Y-48.795
X129.07Y-68.586
X129.07Y-70.59
X129.07Y-90.381
X129.07Y-92.385
X129.07Y-112.177
X129.945Y-27.0
X129.945Y-46.791
X129.945Y-48.795
X129.945Y-68.587
X129.945Y-70.59
X129.945Y-90.382
X129.945Y-92.385
X129.945Y-112.177
X130.82Y-27.0
X130.82Y-46.792
X130.82Y-48.795
X130.82Y-68.587
X130.82Y-70.59
X130.82Y-90.382
X130.82Y-92.385
X130.82Y-112.177
X131.695Y-27.0
X131.695Y-46.792
X131.695Y-48.795
X131.695Y-68.587
X131.695Y-70.59
X131.695Y-90.382
X131.695Y-92.385
X131.695Y-112.177
X147.5Y-33.398
X147.5Y-34.273
X147.5Y-35.148
X147.5Y-36.023
X147.5Y-36.898
X147.5Y-37.773
X147.5Y-38.648
X147.5Y-39.523
X147.5Y-40.398
X147.5Y-55.193
X147.5Y-56.068
X147.5Y-56.943
X147.5Y-57.818
X147.5Y-58.693
X147.5Y-59.568
X147.5Y-60.443
X147.5Y-61.318
X147.5Y-62.193
X147.5Y-76.988
X147.5Y-77.863
X147.5Y-78.738
X147.5Y-79.613
X147.5Y-80.488
X147.5Y-81.363
X147.5Y-82.238
X147.5Y-83.113
X147.5Y-83.988
X147.5Y-98.783
X147.5Y-99.658
X147.5Y-100.533
X147.5Y-101.408
X147.5Y-102.283
X147.5Y-103.158
X147.5Y-104.033
X147.5Y-104.908
X147.5Y-105.783
X149.5Y-33.398
X149.5Y-34.273
X149.5Y-35.148
X149.5Y-36.023
X149.5Y-36.898
X149.5Y-37.773
X149.5Y-38.648
X149.5Y-39.523
X149.5Y-40.398
X149.5Y-55.193
X149.5Y-56.068
X149.5Y-56.943
X149.5Y-57.818
X149.5Y-58.693
X149.5Y-59.568
X149.5Y-60.443
X149.5Y-61.318
X149.5Y-62.193
X149.5Y-76.988
X149.5Y-77.863
X149.5Y-78.738
X149.5Y-79.613
X149.5Y-80.488
X149.5Y-81.363
X149.5Y-82.238
X149.5Y-83.113
X149.5Y-83.988
X149.5Y-98.783
X149.5Y-99.658
X149.5Y-100.533
X149.5Y-101.408
X149.5Y-102.283
X149.5Y-103.158
X149.5Y-104.033
X149.5Y-104.908
X149.5Y-105.783
X165.305Y-27.0
X165.305Y-46.79
X165.305Y-48.795
X165.305Y-68.585
X165.305Y-70.59
X165.305Y-90.38
X165.305Y-92.385
X165.305Y-112.176
X166.18Y-27.0
X166.18Y-46.79
X166.18Y-48.795
X166.18Y-68.586
X166.18Y-70.59
X166.18Y-90.381
X166.18Y-92.385
X166.18Y-112.176
X167.055Y-27.0
X167.055Y-46.791
X167.055Y-48.795
X167.055Y-68.586
X167.055Y-70.59
X167.055Y-90.381
X167.055Y-92.385
X167.055Y-112.176
X167.93Y-27.0
X167.93Y-46.791
X167.93Y-48.795
X167.93Y-68.586
X167.93Y-70.59
X167.93Y-90.381
X167.93Y-92.385
X167.93Y-112.176
X168.805Y-27.0
X168.805Y-46.791
X168.805Y-48.795
X168.805Y-68.586
X168.805Y-70.59
X168.805Y-90.381
X168.805Y-92.385
X168.805Y-112.176
X169.68Y-27.0
X169.68Y-46.791
X169.68Y-48.795
X169.68Y-68.586
X169.68Y-70.59
X169.68Y-90.381
X169.68Y-92.385
X169.68Y-112.177
X170.555Y-27.0
X170.555Y-46.791
X170.555Y-48.795
X170.555Y-68.587
X170.555Y-70.59
X170.555Y-90.382
X170.555Y-92.385
X170.555Y-112.177
X171.43Y-27.0
X171.43Y-46.792
X171.43Y-48.795
X171.43Y-68.587
X171.43Y-70.59
X171.43Y-90.382
X171.43Y-92.385
X171.43Y-112.177
X172.305Y-27.0
X172.305Y-46.792
X172.305Y-48.795
X172.305Y-68.587
X172.305Y-70.59
X172.305Y-90.382
X172.305Y-92.385
X172.305Y-112.177
X188.111Y-20.75
X188.111Y-21.625
X188.111Y-22.5
X188.111Y-23.375
X188.111Y-24.25
X188.111Y-33.398
X188.111Y-34.273
X188.111Y-35.148
X188.111Y-36.023
X188.111Y-36.898
X188.111Y-37.773
X188.111Y-38.648
X188.111Y-39.523
X188.111Y-40.398
X188.111Y-55.193
X188.111Y-56.068
X188.111Y-56.943
X188.111Y-57.818
X188.111Y-58.693
X188.111Y-59.568
X188.111Y-60.443
X188.111Y-61.318
X188.111Y-62.193
X188.111Y-76.988
X188.111Y-77.863
X188.111Y-78.738
X188.111Y-79.613
X188.111Y-80.488
X188.111Y-81.363
X188.111Y-82.238
X188.111Y-83.113
X188.111Y-83.988
X188.111Y-98.783
X188.111Y-99.658
X188.111Y-100.533
X188.111Y-101.408
X188.111Y-102.283
X188.111Y-103.158
X188.111Y-104.033
X188.111Y-104.908
X188.111Y-105.783
X188.111Y-114.93
X188.111Y-115.805
X188.111Y-116.68
X188.111Y-117.555
X188.111Y-118.43
X190.861Y-27.0
X190.861Y-112.18
X191.736Y-27.0
X191.736Y-112.18
X192.611Y-27.0
X192.611Y-112.18
X193.486Y-27.0
X193.486Y-112.18
X194.361Y-27.0
X194.361Y-112.18
T2
X126.923Y-31.801
X126.923Y-41.961
X126.923Y-53.596
X126.923Y-63.756
X126.923Y-75.391
X126.923Y-85.551
X126.923Y-97.186
X126.923Y-107.346
X167.534Y-31.801
X167.534Y-41.961
X167.534Y-53.596
X167.534Y-63.756
X167.534Y-75.391
X167.534Y-85.551
X167.534Y-97.186
X167.534Y-107.346
T0
M30
