M48
; DRILL file {KiCad 7.0.2} date Fri May 26 21:55:36 2023
; FORMAT={-:-/ absolute / metric / decimal}
; #@! TF.CreationDate,2023-05-26T21:55:36+09:00
; #@! TF.GenerationSoftware,Kicad,Pcbnew,7.0.2
; #@! TF.FileFunction,Plated,1,2,PTH
FMAT,2
METRIC
; #@! TA.AperFunction,Plated,PTH,ViaDrill
T1C0.400
; #@! TA.AperFunction,Plated,PTH,ComponentDrill
T2C0.800
; #@! TA.AperFunction,Plated,PTH,ComponentDrill
T3C1.000
; #@! TA.AperFunction,Plated,PTH,ComponentDrill
T4C1.500
%
G90
G05
T1
X120.319Y-27.991
X120.319Y-49.786
X120.319Y-71.581
X120.319Y-93.376
X160.93Y-27.991
X160.93Y-49.786
X160.93Y-71.581
X160.93Y-93.376
T2
X116.001Y-30.277
X116.001Y-33.833
X116.001Y-37.389
X116.001Y-40.945
X116.001Y-45.009
X116.001Y-52.072
X116.001Y-55.628
X116.001Y-59.184
X116.001Y-62.74
X116.001Y-66.804
X116.001Y-73.867
X116.001Y-77.423
X116.001Y-80.979
X116.001Y-84.535
X116.001Y-88.599
X116.001Y-95.662
X116.001Y-99.218
X116.001Y-102.774
X116.001Y-106.33
X116.001Y-110.394
X123.621Y-30.277
X123.621Y-33.833
X123.621Y-37.389
X123.621Y-40.945
X123.621Y-45.009
X123.621Y-52.072
X123.621Y-55.628
X123.621Y-59.184
X123.621Y-62.74
X123.621Y-66.804
X123.621Y-73.867
X123.621Y-77.423
X123.621Y-80.979
X123.621Y-84.535
X123.621Y-88.599
X123.621Y-95.662
X123.621Y-99.218
X123.621Y-102.774
X123.621Y-106.33
X123.621Y-110.394
X126.82Y-28.753
X126.82Y-50.548
X126.82Y-72.343
X126.82Y-94.138
X126.923Y-45.009
X126.923Y-66.804
X126.923Y-88.599
X126.923Y-110.394
X134.44Y-28.753
X134.44Y-50.548
X134.44Y-72.343
X134.44Y-94.138
X134.543Y-45.009
X134.543Y-66.804
X134.543Y-88.599
X134.543Y-110.394
X156.612Y-30.277
X156.612Y-33.833
X156.612Y-37.389
X156.612Y-40.945
X156.612Y-45.009
X156.612Y-52.072
X156.612Y-55.628
X156.612Y-59.184
X156.612Y-62.74
X156.612Y-66.804
X156.612Y-73.867
X156.612Y-77.423
X156.612Y-80.979
X156.612Y-84.535
X156.612Y-88.599
X156.612Y-95.662
X156.612Y-99.218
X156.612Y-102.774
X156.612Y-106.33
X156.612Y-110.394
X164.232Y-30.277
X164.232Y-33.833
X164.232Y-37.389
X164.232Y-40.945
X164.232Y-45.009
X164.232Y-52.072
X164.232Y-55.628
X164.232Y-59.184
X164.232Y-62.74
X164.232Y-66.804
X164.232Y-73.867
X164.232Y-77.423
X164.232Y-80.979
X164.232Y-84.535
X164.232Y-88.599
X164.232Y-95.662
X164.232Y-99.218
X164.232Y-102.774
X164.232Y-106.33
X164.232Y-110.394
X167.43Y-28.753
X167.43Y-50.548
X167.43Y-72.343
X167.43Y-94.138
X167.534Y-45.009
X167.534Y-66.804
X167.534Y-88.599
X167.534Y-110.394
X175.05Y-28.753
X175.05Y-50.548
X175.05Y-72.343
X175.05Y-94.138
X175.154Y-45.009
X175.154Y-66.804
X175.154Y-88.599
X175.154Y-110.394
T3
X112.953Y-30.531
X112.953Y-33.071
X112.953Y-35.611
X112.953Y-38.151
X112.953Y-40.691
X112.953Y-43.231
X112.953Y-52.326
X112.953Y-54.866
X112.953Y-57.406
X112.953Y-59.946
X112.953Y-62.486
X112.953Y-65.026
X112.953Y-74.121
X112.953Y-76.661
X112.953Y-79.201
X112.953Y-81.741
X112.953Y-84.281
X112.953Y-86.821
X112.953Y-95.916
X112.953Y-98.456
X112.953Y-100.996
X112.953Y-103.536
X112.953Y-106.076
X112.953Y-108.616
X126.923Y-34.341
X126.923Y-36.881
X126.923Y-39.421
X126.923Y-56.136
X126.923Y-58.676
X126.923Y-61.216
X126.923Y-77.931
X126.923Y-80.471
X126.923Y-83.011
X126.923Y-99.726
X126.923Y-102.266
X126.923Y-104.806
X131.099Y-34.635
X131.099Y-39.635
X131.099Y-56.43
X131.099Y-61.43
X131.099Y-78.225
X131.099Y-83.225
X131.099Y-100.02
X131.099Y-105.02
X145.599Y-34.635
X145.599Y-37.135
X145.599Y-39.635
X145.599Y-56.43
X145.599Y-58.93
X145.599Y-61.43
X145.599Y-78.225
X145.599Y-80.725
X145.599Y-83.225
X145.599Y-100.02
X145.599Y-102.52
X145.599Y-105.02
X153.564Y-30.531
X153.564Y-33.071
X153.564Y-35.611
X153.564Y-38.151
X153.564Y-40.691
X153.564Y-43.231
X153.564Y-52.326
X153.564Y-54.866
X153.564Y-57.406
X153.564Y-59.946
X153.564Y-62.486
X153.564Y-65.026
X153.564Y-74.121
X153.564Y-76.661
X153.564Y-79.201
X153.564Y-81.741
X153.564Y-84.281
X153.564Y-86.821
X153.564Y-95.916
X153.564Y-98.456
X153.564Y-100.996
X153.564Y-103.536
X153.564Y-106.076
X153.564Y-108.616
X167.534Y-34.341
X167.534Y-36.881
X167.534Y-39.421
X167.534Y-56.136
X167.534Y-58.676
X167.534Y-61.216
X167.534Y-77.931
X167.534Y-80.471
X167.534Y-83.011
X167.534Y-99.726
X167.534Y-102.266
X167.534Y-104.806
X171.71Y-34.635
X171.71Y-39.635
X171.71Y-56.43
X171.71Y-61.43
X171.71Y-78.225
X171.71Y-83.225
X171.71Y-100.02
X171.71Y-105.02
X186.21Y-34.635
X186.21Y-37.135
X186.21Y-39.635
X186.21Y-56.43
X186.21Y-58.93
X186.21Y-61.43
X186.21Y-78.225
X186.21Y-80.725
X186.21Y-83.225
X186.21Y-100.02
X186.21Y-102.52
X186.21Y-105.02
T4
G00X138.749Y-31.535
M15
G01X137.449Y-31.535
M16
G05
G00X138.749Y-42.735
M15
G01X137.449Y-42.735
M16
G05
G00X138.749Y-53.33
M15
G01X137.449Y-53.33
M16
G05
G00X138.749Y-64.53
M15
G01X137.449Y-64.53
M16
G05
G00X138.749Y-75.125
M15
G01X137.449Y-75.125
M16
G05
G00X138.749Y-86.325
M15
G01X137.449Y-86.325
M16
G05
G00X138.749Y-96.92
M15
G01X137.449Y-96.92
M16
G05
G00X138.749Y-108.12
M15
G01X137.449Y-108.12
M16
G05
G00X179.36Y-31.535
M15
G01X178.06Y-31.535
M16
G05
G00X179.36Y-42.735
M15
G01X178.06Y-42.735
M16
G05
G00X179.36Y-53.33
M15
G01X178.06Y-53.33
M16
G05
G00X179.36Y-64.53
M15
G01X178.06Y-64.53
M16
G05
G00X179.36Y-75.125
M15
G01X178.06Y-75.125
M16
G05
G00X179.36Y-86.325
M15
G01X178.06Y-86.325
M16
G05
G00X179.36Y-96.92
M15
G01X178.06Y-96.92
M16
G05
G00X179.36Y-108.12
M15
G01X178.06Y-108.12
M16
G05
T0
M30
