%TF.GenerationSoftware,KiCad,Pcbnew,7.0.2*%
%TF.CreationDate,2023-06-05T19:45:02+09:00*%
%TF.ProjectId,kikit,6b696b69-742e-46b6-9963-61645f706362,rev?*%
%TF.SameCoordinates,Original*%
%TF.FileFunction,Soldermask,Bot*%
%TF.FilePolarity,Negative*%
%FSLAX46Y46*%
G04 Gerber Fmt 4.6, Leading zero omitted, Abs format (unit mm)*
G04 Created by KiCad (PCBNEW 7.0.2) date 2023-06-05 19:45:02*
%MOMM*%
%LPD*%
G01*
G04 APERTURE LIST*
%ADD10C,1.600000*%
%ADD11O,1.600000X1.600000*%
%ADD12C,0.500000*%
%ADD13C,1.200000*%
%ADD14O,1.700000X1.700000*%
%ADD15R,2.000000X2.000000*%
%ADD16C,2.000000*%
%ADD17R,3.200000X2.000000*%
%ADD18R,1.700000X1.700000*%
G04 APERTURE END LIST*
D10*
%TO.C,R2*%
X156612000Y-30276600D03*
D11*
X164232000Y-30276600D03*
%TD*%
D12*
%TO.C,REF\u002A\u002A*%
X147494300Y-83987759D03*
%TD*%
%TO.C,REF\u002A\u002A*%
X124438100Y-48795104D03*
%TD*%
%TO.C,REF\u002A\u002A*%
X147496092Y-58692656D03*
%TD*%
%TO.C,REF\u002A\u002A*%
X102126200Y-112180416D03*
%TD*%
%TO.C,REF\u002A\u002A*%
X167311900Y-90380921D03*
%TD*%
%TO.C,REF\u002A\u002A*%
X167311900Y-92385312D03*
%TD*%
D10*
%TO.C,R3*%
X115488200Y-55627704D03*
D11*
X123108200Y-55627704D03*
%TD*%
D12*
%TO.C,REF\u002A\u002A*%
X147496988Y-78737760D03*
%TD*%
%TO.C,REF\u002A\u002A*%
X170811899Y-90381730D03*
%TD*%
%TO.C,REF\u002A\u002A*%
X169936899Y-90381527D03*
%TD*%
%TO.C,REF\u002A\u002A*%
X108376200Y-59567656D03*
%TD*%
%TO.C,REF\u002A\u002A*%
X149500000Y-79612760D03*
%TD*%
%TO.C,REF\u002A\u002A*%
X126188100Y-48795104D03*
%TD*%
D10*
%TO.C,R7*%
X167534000Y-88598808D03*
D11*
X175154000Y-88598808D03*
%TD*%
D12*
%TO.C,REF\u002A\u002A*%
X129688099Y-90381730D03*
%TD*%
%TO.C,REF\u002A\u002A*%
X188623800Y-20750000D03*
%TD*%
%TO.C,REF\u002A\u002A*%
X124438100Y-92385312D03*
%TD*%
%TO.C,REF\u002A\u002A*%
X167311900Y-70590208D03*
%TD*%
%TO.C,REF\u002A\u002A*%
X108376200Y-62192656D03*
%TD*%
%TO.C,REF\u002A\u002A*%
X166436900Y-27000000D03*
%TD*%
%TO.C,REF\u002A\u002A*%
X127063101Y-112176227D03*
%TD*%
%TO.C,REF\u002A\u002A*%
X165561900Y-48795104D03*
%TD*%
D10*
%TO.C,R5*%
X167407000Y-29133600D03*
D11*
X175027000Y-29133600D03*
%TD*%
D12*
%TO.C,REF\u002A\u002A*%
X147494748Y-83112759D03*
%TD*%
D10*
%TO.C,R5*%
X126283200Y-29133600D03*
D11*
X133903200Y-29133600D03*
%TD*%
D12*
%TO.C,REF\u002A\u002A*%
X188620788Y-78737760D03*
%TD*%
%TO.C,REF\u002A\u002A*%
X170811899Y-46791522D03*
%TD*%
D10*
%TO.C,R6*%
X164232000Y-40944600D03*
D11*
X156612000Y-40944600D03*
%TD*%
D12*
%TO.C,REF\u002A\u002A*%
X130563100Y-48795104D03*
%TD*%
%TO.C,REF\u002A\u002A*%
X149500000Y-81362760D03*
%TD*%
%TO.C,REF\u002A\u002A*%
X126188101Y-68585817D03*
%TD*%
%TO.C,REF\u002A\u002A*%
X188618548Y-39522551D03*
%TD*%
D13*
%TO.C,SW1*%
X126410200Y-97185912D03*
X126410200Y-107345912D03*
D14*
X126410200Y-99725912D03*
X126410200Y-102265912D03*
X126410200Y-104805912D03*
%TD*%
D10*
%TO.C,R7*%
X126410200Y-88598808D03*
D11*
X134030200Y-88598808D03*
%TD*%
D12*
%TO.C,REF\u002A\u002A*%
X188621684Y-76987760D03*
%TD*%
%TO.C,REF\u002A\u002A*%
X149500000Y-83112760D03*
%TD*%
%TO.C,REF\u002A\u002A*%
X170811900Y-92385312D03*
%TD*%
%TO.C,REF\u002A\u002A*%
X149500000Y-60442656D03*
%TD*%
%TO.C,REF\u002A\u002A*%
X102126200Y-27000000D03*
%TD*%
%TO.C,REF\u002A\u002A*%
X193998800Y-112180416D03*
%TD*%
%TO.C,REF\u002A\u002A*%
X188618100Y-62192655D03*
%TD*%
%TO.C,REF\u002A\u002A*%
X172561900Y-27000000D03*
%TD*%
%TO.C,REF\u002A\u002A*%
X169936899Y-68586423D03*
%TD*%
%TO.C,REF\u002A\u002A*%
X108376200Y-79612760D03*
%TD*%
%TO.C,REF\u002A\u002A*%
X147495196Y-82237759D03*
%TD*%
%TO.C,REF\u002A\u002A*%
X149500000Y-83987760D03*
%TD*%
%TO.C,REF\u002A\u002A*%
X130563100Y-92385312D03*
%TD*%
%TO.C,REF\u002A\u002A*%
X168186900Y-112176227D03*
%TD*%
%TO.C,REF\u002A\u002A*%
X188623800Y-117555416D03*
%TD*%
%TO.C,REF\u002A\u002A*%
X126188100Y-70590208D03*
%TD*%
%TO.C,REF\u002A\u002A*%
X130563100Y-27000000D03*
%TD*%
%TO.C,REF\u002A\u002A*%
X171686900Y-48795104D03*
%TD*%
%TO.C,REF\u002A\u002A*%
X127063101Y-68586019D03*
%TD*%
%TO.C,REF\u002A\u002A*%
X128813100Y-27000000D03*
%TD*%
%TO.C,REF\u002A\u002A*%
X149500000Y-56067656D03*
%TD*%
%TO.C,REF\u002A\u002A*%
X127063100Y-92385312D03*
%TD*%
%TO.C,REF\u002A\u002A*%
X188620340Y-79612760D03*
%TD*%
%TO.C,REF\u002A\u002A*%
X125313100Y-48795104D03*
%TD*%
%TO.C,REF\u002A\u002A*%
X149500000Y-34272552D03*
%TD*%
%TO.C,REF\u002A\u002A*%
X166436900Y-46790511D03*
%TD*%
%TO.C,REF\u002A\u002A*%
X108376200Y-36022552D03*
%TD*%
%TO.C,REF\u002A\u002A*%
X147495644Y-59567655D03*
%TD*%
%TO.C,REF\u002A\u002A*%
X168186900Y-68586019D03*
%TD*%
D15*
%TO.C,SW2*%
X145086200Y-61429704D03*
D16*
X145086200Y-56429704D03*
X145086200Y-58929704D03*
D17*
X137586200Y-64529704D03*
X137586200Y-53329704D03*
D16*
X130586200Y-56429704D03*
X130586200Y-61429704D03*
%TD*%
D10*
%TO.C,R3*%
X115488200Y-33832600D03*
D11*
X123108200Y-33832600D03*
%TD*%
D12*
%TO.C,REF\u002A\u002A*%
X131438100Y-27000000D03*
%TD*%
%TO.C,REF\u002A\u002A*%
X188619444Y-81362759D03*
%TD*%
%TO.C,REF\u002A\u002A*%
X103001200Y-112180416D03*
%TD*%
%TO.C,REF\u002A\u002A*%
X170811900Y-27000000D03*
%TD*%
%TO.C,REF\u002A\u002A*%
X149500000Y-105782864D03*
%TD*%
%TO.C,REF\u002A\u002A*%
X108376200Y-80487760D03*
%TD*%
D10*
%TO.C,R5*%
X167407000Y-72723808D03*
D11*
X175027000Y-72723808D03*
%TD*%
D12*
%TO.C,REF\u002A\u002A*%
X149500000Y-99657864D03*
%TD*%
D10*
%TO.C,R7*%
X167534000Y-110393912D03*
D11*
X175154000Y-110393912D03*
%TD*%
D12*
%TO.C,REF\u002A\u002A*%
X149500000Y-55192656D03*
%TD*%
%TO.C,REF\u002A\u002A*%
X108376200Y-99657864D03*
%TD*%
%TO.C,REF\u002A\u002A*%
X126188100Y-27000000D03*
%TD*%
%TO.C,REF\u002A\u002A*%
X147496540Y-36022553D03*
%TD*%
%TO.C,REF\u002A\u002A*%
X124438101Y-68585413D03*
%TD*%
%TO.C,REF\u002A\u002A*%
X188618996Y-60442655D03*
%TD*%
D10*
%TO.C,R1*%
X123108200Y-80978808D03*
D11*
X115488200Y-80978808D03*
%TD*%
D10*
%TO.C,R2*%
X115488200Y-73866808D03*
D11*
X123108200Y-73866808D03*
%TD*%
D10*
%TO.C,R1*%
X123108200Y-59183704D03*
D11*
X115488200Y-59183704D03*
%TD*%
D12*
%TO.C,REF\u002A\u002A*%
X127938100Y-92385312D03*
%TD*%
%TO.C,REF\u002A\u002A*%
X170811900Y-48795104D03*
%TD*%
%TO.C,REF\u002A\u002A*%
X147495644Y-81362759D03*
%TD*%
%TO.C,REF\u002A\u002A*%
X125313101Y-112175823D03*
%TD*%
%TO.C,REF\u002A\u002A*%
X169936900Y-27000000D03*
%TD*%
%TO.C,REF\u002A\u002A*%
X188623800Y-22500000D03*
%TD*%
%TO.C,REF\u002A\u002A*%
X149500000Y-104907864D03*
%TD*%
%TO.C,REF\u002A\u002A*%
X188620788Y-56942656D03*
%TD*%
%TO.C,REF\u002A\u002A*%
X103876200Y-27000000D03*
%TD*%
%TO.C,REF\u002A\u002A*%
X129688100Y-92385312D03*
%TD*%
D13*
%TO.C,SW1*%
X126410200Y-75390808D03*
X126410200Y-85550808D03*
D14*
X126410200Y-77930808D03*
X126410200Y-80470808D03*
X126410200Y-83010808D03*
%TD*%
D10*
%TO.C,R7*%
X126410200Y-45008600D03*
D11*
X134030200Y-45008600D03*
%TD*%
D12*
%TO.C,REF\u002A\u002A*%
X188621684Y-98782864D03*
%TD*%
%TO.C,REF\u002A\u002A*%
X188623800Y-115805416D03*
%TD*%
%TO.C,REF\u002A\u002A*%
X191373800Y-27000000D03*
%TD*%
%TO.C,REF\u002A\u002A*%
X108376200Y-104907864D03*
%TD*%
D18*
%TO.C,J1*%
X112440200Y-74120808D03*
D14*
X112440200Y-76660808D03*
X112440200Y-79200808D03*
X112440200Y-81740808D03*
X112440200Y-84280808D03*
X112440200Y-86820808D03*
%TD*%
D12*
%TO.C,REF\u002A\u002A*%
X127938100Y-90381325D03*
%TD*%
%TO.C,REF\u002A\u002A*%
X147496540Y-79612760D03*
%TD*%
D10*
%TO.C,R2*%
X115488200Y-30276600D03*
D11*
X123108200Y-30276600D03*
%TD*%
D12*
%TO.C,REF\u002A\u002A*%
X130563099Y-90381932D03*
%TD*%
%TO.C,REF\u002A\u002A*%
X147497436Y-77862760D03*
%TD*%
%TO.C,REF\u002A\u002A*%
X169061900Y-92385312D03*
%TD*%
%TO.C,REF\u002A\u002A*%
X188619444Y-103157863D03*
%TD*%
%TO.C,REF\u002A\u002A*%
X125313101Y-68585615D03*
%TD*%
D10*
%TO.C,R6*%
X123108200Y-84534808D03*
D11*
X115488200Y-84534808D03*
%TD*%
D12*
%TO.C,REF\u002A\u002A*%
X149500000Y-100532864D03*
%TD*%
D10*
%TO.C,R5*%
X126283200Y-72723808D03*
D11*
X133903200Y-72723808D03*
%TD*%
D12*
%TO.C,REF\u002A\u002A*%
X127938100Y-48795104D03*
%TD*%
%TO.C,REF\u002A\u002A*%
X108376200Y-77862760D03*
%TD*%
D10*
%TO.C,R5*%
X126283200Y-50928704D03*
D11*
X133903200Y-50928704D03*
%TD*%
D13*
%TO.C,SW1*%
X167534000Y-97185912D03*
X167534000Y-107345912D03*
D14*
X167534000Y-99725912D03*
X167534000Y-102265912D03*
X167534000Y-104805912D03*
%TD*%
D12*
%TO.C,REF\u002A\u002A*%
X192248800Y-112180416D03*
%TD*%
%TO.C,REF\u002A\u002A*%
X188618100Y-105782863D03*
%TD*%
%TO.C,REF\u002A\u002A*%
X147496988Y-100532864D03*
%TD*%
D10*
%TO.C,R4*%
X115488200Y-66803704D03*
D11*
X123108200Y-66803704D03*
%TD*%
D12*
%TO.C,REF\u002A\u002A*%
X108376200Y-58692656D03*
%TD*%
%TO.C,REF\u002A\u002A*%
X108376200Y-114930416D03*
%TD*%
%TO.C,REF\u002A\u002A*%
X147496988Y-35147553D03*
%TD*%
%TO.C,REF\u002A\u002A*%
X108376200Y-116680416D03*
%TD*%
%TO.C,REF\u002A\u002A*%
X172561900Y-48795104D03*
%TD*%
%TO.C,REF\u002A\u002A*%
X149500000Y-39522552D03*
%TD*%
%TO.C,REF\u002A\u002A*%
X166436900Y-70590208D03*
%TD*%
D10*
%TO.C,R1*%
X164232000Y-102773912D03*
D11*
X156612000Y-102773912D03*
%TD*%
D12*
%TO.C,REF\u002A\u002A*%
X147497884Y-55192656D03*
%TD*%
%TO.C,REF\u002A\u002A*%
X108376200Y-118430416D03*
%TD*%
%TO.C,REF\u002A\u002A*%
X188619892Y-58692656D03*
%TD*%
%TO.C,REF\u002A\u002A*%
X188621236Y-56067656D03*
%TD*%
%TO.C,REF\u002A\u002A*%
X103876200Y-112180416D03*
%TD*%
%TO.C,REF\u002A\u002A*%
X188620788Y-100532864D03*
%TD*%
%TO.C,REF\u002A\u002A*%
X166436900Y-92385312D03*
%TD*%
%TO.C,REF\u002A\u002A*%
X147496988Y-56942656D03*
%TD*%
%TO.C,REF\u002A\u002A*%
X188620340Y-57817656D03*
%TD*%
%TO.C,REF\u002A\u002A*%
X108376200Y-38647552D03*
%TD*%
%TO.C,REF\u002A\u002A*%
X108376200Y-115805416D03*
%TD*%
%TO.C,REF\u002A\u002A*%
X131438100Y-70590208D03*
%TD*%
%TO.C,REF\u002A\u002A*%
X165561900Y-27000000D03*
%TD*%
%TO.C,REF\u002A\u002A*%
X108376200Y-36897552D03*
%TD*%
%TO.C,REF\u002A\u002A*%
X149500000Y-40397552D03*
%TD*%
%TO.C,REF\u002A\u002A*%
X147496092Y-80487760D03*
%TD*%
%TO.C,REF\u002A\u002A*%
X191373800Y-112180416D03*
%TD*%
%TO.C,REF\u002A\u002A*%
X171686899Y-90381932D03*
%TD*%
%TO.C,REF\u002A\u002A*%
X125313101Y-90380719D03*
%TD*%
%TO.C,REF\u002A\u002A*%
X128813099Y-112176631D03*
%TD*%
%TO.C,REF\u002A\u002A*%
X169061900Y-90381325D03*
%TD*%
%TO.C,REF\u002A\u002A*%
X124438101Y-46790309D03*
%TD*%
%TO.C,REF\u002A\u002A*%
X172561899Y-46791926D03*
%TD*%
D10*
%TO.C,R5*%
X126283200Y-94518912D03*
D11*
X133903200Y-94518912D03*
%TD*%
D12*
%TO.C,REF\u002A\u002A*%
X188618996Y-38647551D03*
%TD*%
D10*
%TO.C,R1*%
X164232000Y-59183704D03*
D11*
X156612000Y-59183704D03*
%TD*%
D12*
%TO.C,REF\u002A\u002A*%
X131438099Y-68587030D03*
%TD*%
%TO.C,REF\u002A\u002A*%
X108376200Y-22500000D03*
%TD*%
%TO.C,REF\u002A\u002A*%
X168186900Y-27000000D03*
%TD*%
%TO.C,REF\u002A\u002A*%
X149500000Y-98782864D03*
%TD*%
%TO.C,REF\u002A\u002A*%
X108376200Y-20750000D03*
%TD*%
%TO.C,REF\u002A\u002A*%
X188620788Y-35147553D03*
%TD*%
%TO.C,REF\u002A\u002A*%
X108376200Y-98782864D03*
%TD*%
D10*
%TO.C,R2*%
X156612000Y-52071704D03*
D11*
X164232000Y-52071704D03*
%TD*%
D12*
%TO.C,REF\u002A\u002A*%
X149500000Y-36897552D03*
%TD*%
%TO.C,REF\u002A\u002A*%
X194873800Y-112180416D03*
%TD*%
%TO.C,REF\u002A\u002A*%
X166436900Y-48795104D03*
%TD*%
%TO.C,REF\u002A\u002A*%
X126188100Y-92385312D03*
%TD*%
D13*
%TO.C,SW1*%
X167534000Y-53595704D03*
X167534000Y-63755704D03*
D14*
X167534000Y-56135704D03*
X167534000Y-58675704D03*
X167534000Y-61215704D03*
%TD*%
D12*
%TO.C,REF\u002A\u002A*%
X127063101Y-90381123D03*
%TD*%
%TO.C,REF\u002A\u002A*%
X168186900Y-92385312D03*
%TD*%
%TO.C,REF\u002A\u002A*%
X188618996Y-82237759D03*
%TD*%
%TO.C,REF\u002A\u002A*%
X188621684Y-55192656D03*
%TD*%
%TO.C,REF\u002A\u002A*%
X130563099Y-46791724D03*
%TD*%
%TO.C,REF\u002A\u002A*%
X149500000Y-57817656D03*
%TD*%
D10*
%TO.C,R6*%
X164232000Y-84534808D03*
D11*
X156612000Y-84534808D03*
%TD*%
D12*
%TO.C,REF\u002A\u002A*%
X108376200Y-82237760D03*
%TD*%
%TO.C,REF\u002A\u002A*%
X129688099Y-46791522D03*
%TD*%
%TO.C,REF\u002A\u002A*%
X172561899Y-68587030D03*
%TD*%
%TO.C,REF\u002A\u002A*%
X128813100Y-48795104D03*
%TD*%
%TO.C,REF\u002A\u002A*%
X165561900Y-46790309D03*
%TD*%
%TO.C,REF\u002A\u002A*%
X188618548Y-104907863D03*
%TD*%
%TO.C,REF\u002A\u002A*%
X188623800Y-118430416D03*
%TD*%
%TO.C,REF\u002A\u002A*%
X171686899Y-112177036D03*
%TD*%
%TO.C,REF\u002A\u002A*%
X108376200Y-61317656D03*
%TD*%
%TO.C,REF\u002A\u002A*%
X127063100Y-48795104D03*
%TD*%
%TO.C,REF\u002A\u002A*%
X149500000Y-76987760D03*
%TD*%
%TO.C,REF\u002A\u002A*%
X108376200Y-34272552D03*
%TD*%
%TO.C,REF\u002A\u002A*%
X103001200Y-27000000D03*
%TD*%
%TO.C,REF\u002A\u002A*%
X129688100Y-70590208D03*
%TD*%
%TO.C,REF\u002A\u002A*%
X188621236Y-77862760D03*
%TD*%
%TO.C,REF\u002A\u002A*%
X188618100Y-83987759D03*
%TD*%
%TO.C,REF\u002A\u002A*%
X170811899Y-68586626D03*
%TD*%
%TO.C,REF\u002A\u002A*%
X166436900Y-68585615D03*
%TD*%
%TO.C,REF\u002A\u002A*%
X169936899Y-46791319D03*
%TD*%
%TO.C,REF\u002A\u002A*%
X167311900Y-27000000D03*
%TD*%
%TO.C,REF\u002A\u002A*%
X188621236Y-99657864D03*
%TD*%
%TO.C,REF\u002A\u002A*%
X192248800Y-27000000D03*
%TD*%
%TO.C,REF\u002A\u002A*%
X105626200Y-27000000D03*
%TD*%
%TO.C,REF\u002A\u002A*%
X131438099Y-46791926D03*
%TD*%
%TO.C,REF\u002A\u002A*%
X167311900Y-112176025D03*
%TD*%
%TO.C,REF\u002A\u002A*%
X147497884Y-33397553D03*
%TD*%
%TO.C,REF\u002A\u002A*%
X147495196Y-38647551D03*
%TD*%
D10*
%TO.C,R1*%
X123108200Y-102773912D03*
D11*
X115488200Y-102773912D03*
%TD*%
D12*
%TO.C,REF\u002A\u002A*%
X188619892Y-36897552D03*
%TD*%
D15*
%TO.C,SW2*%
X186210000Y-83224808D03*
D16*
X186210000Y-78224808D03*
X186210000Y-80724808D03*
D17*
X178710000Y-86324808D03*
X178710000Y-75124808D03*
D16*
X171710000Y-78224808D03*
X171710000Y-83224808D03*
%TD*%
D15*
%TO.C,SW2*%
X145086200Y-83224808D03*
D16*
X145086200Y-78224808D03*
X145086200Y-80724808D03*
D17*
X137586200Y-86324808D03*
X137586200Y-75124808D03*
D16*
X130586200Y-78224808D03*
X130586200Y-83224808D03*
%TD*%
D10*
%TO.C,R4*%
X156612000Y-45008600D03*
D11*
X164232000Y-45008600D03*
%TD*%
D12*
%TO.C,REF\u002A\u002A*%
X108376200Y-105782864D03*
%TD*%
%TO.C,REF\u002A\u002A*%
X125313100Y-92385312D03*
%TD*%
%TO.C,REF\u002A\u002A*%
X188618996Y-104032863D03*
%TD*%
%TO.C,REF\u002A\u002A*%
X127938100Y-46791117D03*
%TD*%
%TO.C,REF\u002A\u002A*%
X108376200Y-21625000D03*
%TD*%
%TO.C,REF\u002A\u002A*%
X193123800Y-27000000D03*
%TD*%
%TO.C,REF\u002A\u002A*%
X108376200Y-37772552D03*
%TD*%
%TO.C,REF\u002A\u002A*%
X168186900Y-48795104D03*
%TD*%
D13*
%TO.C,SW1*%
X167534000Y-31800600D03*
X167534000Y-41960600D03*
D14*
X167534000Y-34340600D03*
X167534000Y-36880600D03*
X167534000Y-39420600D03*
%TD*%
D12*
%TO.C,REF\u002A\u002A*%
X149500000Y-101407864D03*
%TD*%
%TO.C,REF\u002A\u002A*%
X169936900Y-70590208D03*
%TD*%
%TO.C,REF\u002A\u002A*%
X129688100Y-27000000D03*
%TD*%
%TO.C,REF\u002A\u002A*%
X167311900Y-68585817D03*
%TD*%
%TO.C,REF\u002A\u002A*%
X149500000Y-33397552D03*
%TD*%
%TO.C,REF\u002A\u002A*%
X188623800Y-116680416D03*
%TD*%
%TO.C,REF\u002A\u002A*%
X194873800Y-27000000D03*
%TD*%
%TO.C,REF\u002A\u002A*%
X131438099Y-90382134D03*
%TD*%
D10*
%TO.C,R3*%
X156612000Y-33832600D03*
D11*
X164232000Y-33832600D03*
%TD*%
D12*
%TO.C,REF\u002A\u002A*%
X188623800Y-24250000D03*
%TD*%
%TO.C,REF\u002A\u002A*%
X108376200Y-33397552D03*
%TD*%
%TO.C,REF\u002A\u002A*%
X149500000Y-56942656D03*
%TD*%
D10*
%TO.C,R7*%
X167534000Y-66803704D03*
D11*
X175154000Y-66803704D03*
%TD*%
D12*
%TO.C,REF\u002A\u002A*%
X147495644Y-103157863D03*
%TD*%
%TO.C,REF\u002A\u002A*%
X168186900Y-90381123D03*
%TD*%
D10*
%TO.C,R1*%
X164232000Y-80978808D03*
D11*
X156612000Y-80978808D03*
%TD*%
D12*
%TO.C,REF\u002A\u002A*%
X127938100Y-112176429D03*
%TD*%
%TO.C,REF\u002A\u002A*%
X169061900Y-70590208D03*
%TD*%
%TO.C,REF\u002A\u002A*%
X169061900Y-46791117D03*
%TD*%
%TO.C,REF\u002A\u002A*%
X147494748Y-104907863D03*
%TD*%
%TO.C,REF\u002A\u002A*%
X147494300Y-62192655D03*
%TD*%
%TO.C,REF\u002A\u002A*%
X147494300Y-105782863D03*
%TD*%
%TO.C,REF\u002A\u002A*%
X108376200Y-56067656D03*
%TD*%
%TO.C,REF\u002A\u002A*%
X167311900Y-46790713D03*
%TD*%
%TO.C,REF\u002A\u002A*%
X147495644Y-37772551D03*
%TD*%
D18*
%TO.C,J1*%
X153564000Y-95915912D03*
D14*
X153564000Y-98455912D03*
X153564000Y-100995912D03*
X153564000Y-103535912D03*
X153564000Y-106075912D03*
X153564000Y-108615912D03*
%TD*%
D12*
%TO.C,REF\u002A\u002A*%
X167311900Y-48795104D03*
%TD*%
%TO.C,REF\u002A\u002A*%
X129688099Y-68586626D03*
%TD*%
%TO.C,REF\u002A\u002A*%
X171686900Y-70590208D03*
%TD*%
%TO.C,REF\u002A\u002A*%
X188620340Y-101407864D03*
%TD*%
%TO.C,REF\u002A\u002A*%
X129688099Y-112176834D03*
%TD*%
D10*
%TO.C,R4*%
X156612000Y-88598808D03*
D11*
X164232000Y-88598808D03*
%TD*%
D12*
%TO.C,REF\u002A\u002A*%
X108376200Y-104032864D03*
%TD*%
%TO.C,REF\u002A\u002A*%
X149500000Y-38647552D03*
%TD*%
%TO.C,REF\u002A\u002A*%
X127063100Y-70590208D03*
%TD*%
D10*
%TO.C,R2*%
X156612000Y-73866808D03*
D11*
X164232000Y-73866808D03*
%TD*%
D12*
%TO.C,REF\u002A\u002A*%
X168186900Y-46790915D03*
%TD*%
D10*
%TO.C,R2*%
X156612000Y-95661912D03*
D11*
X164232000Y-95661912D03*
%TD*%
D10*
%TO.C,R4*%
X156612000Y-66803704D03*
D11*
X164232000Y-66803704D03*
%TD*%
D12*
%TO.C,REF\u002A\u002A*%
X149500000Y-78737760D03*
%TD*%
%TO.C,REF\u002A\u002A*%
X126188101Y-46790713D03*
%TD*%
%TO.C,REF\u002A\u002A*%
X147495196Y-60442655D03*
%TD*%
%TO.C,REF\u002A\u002A*%
X149500000Y-59567656D03*
%TD*%
D18*
%TO.C,J1*%
X153564000Y-30530600D03*
D14*
X153564000Y-33070600D03*
X153564000Y-35610600D03*
X153564000Y-38150600D03*
X153564000Y-40690600D03*
X153564000Y-43230600D03*
%TD*%
D12*
%TO.C,REF\u002A\u002A*%
X128813099Y-46791319D03*
%TD*%
%TO.C,REF\u002A\u002A*%
X188618548Y-61317655D03*
%TD*%
%TO.C,REF\u002A\u002A*%
X169061900Y-27000000D03*
%TD*%
%TO.C,REF\u002A\u002A*%
X165561900Y-90380517D03*
%TD*%
D15*
%TO.C,SW2*%
X186210000Y-39634600D03*
D16*
X186210000Y-34634600D03*
X186210000Y-37134600D03*
D17*
X178710000Y-42734600D03*
X178710000Y-31534600D03*
D16*
X171710000Y-34634600D03*
X171710000Y-39634600D03*
%TD*%
D12*
%TO.C,REF\u002A\u002A*%
X125313100Y-27000000D03*
%TD*%
%TO.C,REF\u002A\u002A*%
X169936899Y-112176631D03*
%TD*%
%TO.C,REF\u002A\u002A*%
X130563100Y-70590208D03*
%TD*%
%TO.C,REF\u002A\u002A*%
X128813100Y-70590208D03*
%TD*%
%TO.C,REF\u002A\u002A*%
X131438099Y-112177238D03*
%TD*%
%TO.C,REF\u002A\u002A*%
X108376200Y-101407864D03*
%TD*%
D10*
%TO.C,R7*%
X126410200Y-110393912D03*
D11*
X134030200Y-110393912D03*
%TD*%
D12*
%TO.C,REF\u002A\u002A*%
X169061900Y-48795104D03*
%TD*%
%TO.C,REF\u002A\u002A*%
X188623800Y-114930416D03*
%TD*%
D10*
%TO.C,R2*%
X115488200Y-95661912D03*
D11*
X123108200Y-95661912D03*
%TD*%
D12*
%TO.C,REF\u002A\u002A*%
X149500000Y-103157864D03*
%TD*%
%TO.C,REF\u002A\u002A*%
X171686899Y-68586828D03*
%TD*%
%TO.C,REF\u002A\u002A*%
X170811900Y-70590208D03*
%TD*%
%TO.C,REF\u002A\u002A*%
X124438100Y-70590208D03*
%TD*%
D13*
%TO.C,SW1*%
X126410200Y-31800600D03*
X126410200Y-41960600D03*
D14*
X126410200Y-34340600D03*
X126410200Y-36880600D03*
X126410200Y-39420600D03*
%TD*%
D10*
%TO.C,R4*%
X115488200Y-88598808D03*
D11*
X123108200Y-88598808D03*
%TD*%
D18*
%TO.C,J1*%
X153564000Y-74120808D03*
D14*
X153564000Y-76660808D03*
X153564000Y-79200808D03*
X153564000Y-81740808D03*
X153564000Y-84280808D03*
X153564000Y-86820808D03*
%TD*%
D12*
%TO.C,REF\u002A\u002A*%
X149500000Y-61317656D03*
%TD*%
%TO.C,REF\u002A\u002A*%
X125313100Y-70590208D03*
%TD*%
%TO.C,REF\u002A\u002A*%
X149500000Y-82237760D03*
%TD*%
%TO.C,REF\u002A\u002A*%
X165561900Y-112175621D03*
%TD*%
%TO.C,REF\u002A\u002A*%
X172561899Y-90382134D03*
%TD*%
%TO.C,REF\u002A\u002A*%
X188618100Y-40397551D03*
%TD*%
%TO.C,REF\u002A\u002A*%
X149500000Y-80487760D03*
%TD*%
%TO.C,REF\u002A\u002A*%
X108376200Y-55192656D03*
%TD*%
%TO.C,REF\u002A\u002A*%
X147497884Y-98782864D03*
%TD*%
%TO.C,REF\u002A\u002A*%
X108376200Y-83987760D03*
%TD*%
D10*
%TO.C,R5*%
X167407000Y-94518912D03*
D11*
X175027000Y-94518912D03*
%TD*%
D12*
%TO.C,REF\u002A\u002A*%
X131438100Y-92385312D03*
%TD*%
%TO.C,REF\u002A\u002A*%
X124438101Y-112175621D03*
%TD*%
%TO.C,REF\u002A\u002A*%
X147497436Y-56067656D03*
%TD*%
%TO.C,REF\u002A\u002A*%
X188621236Y-34272553D03*
%TD*%
D10*
%TO.C,R7*%
X126410200Y-66803704D03*
D11*
X134030200Y-66803704D03*
%TD*%
D12*
%TO.C,REF\u002A\u002A*%
X124438101Y-90380517D03*
%TD*%
%TO.C,REF\u002A\u002A*%
X131438100Y-48795104D03*
%TD*%
%TO.C,REF\u002A\u002A*%
X188619444Y-59567655D03*
%TD*%
%TO.C,REF\u002A\u002A*%
X147496540Y-57817656D03*
%TD*%
D10*
%TO.C,R6*%
X164232000Y-106329912D03*
D11*
X156612000Y-106329912D03*
%TD*%
D10*
%TO.C,R3*%
X156612000Y-55627704D03*
D11*
X164232000Y-55627704D03*
%TD*%
D10*
%TO.C,R6*%
X123108200Y-62739704D03*
D11*
X115488200Y-62739704D03*
%TD*%
D12*
%TO.C,REF\u002A\u002A*%
X147495196Y-104032863D03*
%TD*%
%TO.C,REF\u002A\u002A*%
X104751200Y-27000000D03*
%TD*%
%TO.C,REF\u002A\u002A*%
X108376200Y-103157864D03*
%TD*%
%TO.C,REF\u002A\u002A*%
X108376200Y-117555416D03*
%TD*%
%TO.C,REF\u002A\u002A*%
X127938100Y-27000000D03*
%TD*%
%TO.C,REF\u002A\u002A*%
X108376200Y-56942656D03*
%TD*%
%TO.C,REF\u002A\u002A*%
X172561900Y-70590208D03*
%TD*%
%TO.C,REF\u002A\u002A*%
X108376200Y-39522552D03*
%TD*%
D10*
%TO.C,R3*%
X115488200Y-99217912D03*
D11*
X123108200Y-99217912D03*
%TD*%
D12*
%TO.C,REF\u002A\u002A*%
X149500000Y-35147552D03*
%TD*%
D15*
%TO.C,SW2*%
X145086200Y-105019912D03*
D16*
X145086200Y-100019912D03*
X145086200Y-102519912D03*
D17*
X137586200Y-108119912D03*
X137586200Y-96919912D03*
D16*
X130586200Y-100019912D03*
X130586200Y-105019912D03*
%TD*%
D10*
%TO.C,R3*%
X115488200Y-77422808D03*
D11*
X123108200Y-77422808D03*
%TD*%
D12*
%TO.C,REF\u002A\u002A*%
X188620340Y-36022553D03*
%TD*%
%TO.C,REF\u002A\u002A*%
X108376200Y-35147552D03*
%TD*%
D10*
%TO.C,R6*%
X164232000Y-62739704D03*
D11*
X156612000Y-62739704D03*
%TD*%
D12*
%TO.C,REF\u002A\u002A*%
X149500000Y-104032864D03*
%TD*%
%TO.C,REF\u002A\u002A*%
X129688100Y-48795104D03*
%TD*%
%TO.C,REF\u002A\u002A*%
X108376200Y-23375000D03*
%TD*%
%TO.C,REF\u002A\u002A*%
X165561900Y-68585413D03*
%TD*%
%TO.C,REF\u002A\u002A*%
X108376200Y-100532864D03*
%TD*%
D15*
%TO.C,SW2*%
X186210000Y-61429704D03*
D16*
X186210000Y-56429704D03*
X186210000Y-58929704D03*
D17*
X178710000Y-64529704D03*
X178710000Y-53329704D03*
D16*
X171710000Y-56429704D03*
X171710000Y-61429704D03*
%TD*%
D12*
%TO.C,REF\u002A\u002A*%
X188623800Y-23375000D03*
%TD*%
D18*
%TO.C,J1*%
X112440200Y-30530600D03*
D14*
X112440200Y-33070600D03*
X112440200Y-35610600D03*
X112440200Y-38150600D03*
X112440200Y-40690600D03*
X112440200Y-43230600D03*
%TD*%
D10*
%TO.C,R3*%
X156612000Y-99217912D03*
D11*
X164232000Y-99217912D03*
%TD*%
D12*
%TO.C,REF\u002A\u002A*%
X166436900Y-112175823D03*
%TD*%
%TO.C,REF\u002A\u002A*%
X170811899Y-112176834D03*
%TD*%
%TO.C,REF\u002A\u002A*%
X108376200Y-78737760D03*
%TD*%
%TO.C,REF\u002A\u002A*%
X171686900Y-27000000D03*
%TD*%
%TO.C,REF\u002A\u002A*%
X169936900Y-48795104D03*
%TD*%
%TO.C,REF\u002A\u002A*%
X172561899Y-112177238D03*
%TD*%
%TO.C,REF\u002A\u002A*%
X172561900Y-92385312D03*
%TD*%
%TO.C,REF\u002A\u002A*%
X130563099Y-112177036D03*
%TD*%
%TO.C,REF\u002A\u002A*%
X128813099Y-90381527D03*
%TD*%
D10*
%TO.C,R4*%
X156612000Y-110393912D03*
D11*
X164232000Y-110393912D03*
%TD*%
D12*
%TO.C,REF\u002A\u002A*%
X127938100Y-70590208D03*
%TD*%
D10*
%TO.C,R2*%
X115488200Y-52071704D03*
D11*
X123108200Y-52071704D03*
%TD*%
D12*
%TO.C,REF\u002A\u002A*%
X128813099Y-68586423D03*
%TD*%
%TO.C,REF\u002A\u002A*%
X130563099Y-68586828D03*
%TD*%
%TO.C,REF\u002A\u002A*%
X108376200Y-60442656D03*
%TD*%
%TO.C,REF\u002A\u002A*%
X168186900Y-70590208D03*
%TD*%
%TO.C,REF\u002A\u002A*%
X166436900Y-90380719D03*
%TD*%
D10*
%TO.C,R5*%
X167407000Y-50928704D03*
D11*
X175027000Y-50928704D03*
%TD*%
D10*
%TO.C,R1*%
X123108200Y-37388600D03*
D11*
X115488200Y-37388600D03*
%TD*%
D12*
%TO.C,REF\u002A\u002A*%
X147496092Y-36897552D03*
%TD*%
%TO.C,REF\u002A\u002A*%
X149500000Y-58692656D03*
%TD*%
%TO.C,REF\u002A\u002A*%
X149500000Y-102282864D03*
%TD*%
D10*
%TO.C,R6*%
X123108200Y-40944600D03*
D11*
X115488200Y-40944600D03*
%TD*%
D12*
%TO.C,REF\u002A\u002A*%
X188623800Y-21625000D03*
%TD*%
%TO.C,REF\u002A\u002A*%
X169061900Y-68586221D03*
%TD*%
%TO.C,REF\u002A\u002A*%
X147496092Y-102282864D03*
%TD*%
%TO.C,REF\u002A\u002A*%
X169936900Y-92385312D03*
%TD*%
%TO.C,REF\u002A\u002A*%
X108376200Y-24250000D03*
%TD*%
D10*
%TO.C,R4*%
X115488200Y-45008600D03*
D11*
X123108200Y-45008600D03*
%TD*%
D18*
%TO.C,J1*%
X153564000Y-52325704D03*
D14*
X153564000Y-54865704D03*
X153564000Y-57405704D03*
X153564000Y-59945704D03*
X153564000Y-62485704D03*
X153564000Y-65025704D03*
%TD*%
D12*
%TO.C,REF\u002A\u002A*%
X147494300Y-40397551D03*
%TD*%
%TO.C,REF\u002A\u002A*%
X171686899Y-46791724D03*
%TD*%
%TO.C,REF\u002A\u002A*%
X108376200Y-40397552D03*
%TD*%
%TO.C,REF\u002A\u002A*%
X188619444Y-37772551D03*
%TD*%
D18*
%TO.C,J1*%
X112440200Y-95915912D03*
D14*
X112440200Y-98455912D03*
X112440200Y-100995912D03*
X112440200Y-103535912D03*
X112440200Y-106075912D03*
X112440200Y-108615912D03*
%TD*%
D12*
%TO.C,REF\u002A\u002A*%
X188619892Y-102282864D03*
%TD*%
%TO.C,REF\u002A\u002A*%
X149500000Y-77862760D03*
%TD*%
%TO.C,REF\u002A\u002A*%
X108376200Y-76987760D03*
%TD*%
%TO.C,REF\u002A\u002A*%
X165561900Y-92385312D03*
%TD*%
%TO.C,REF\u002A\u002A*%
X171686900Y-92385312D03*
%TD*%
%TO.C,REF\u002A\u002A*%
X126188101Y-112176025D03*
%TD*%
%TO.C,REF\u002A\u002A*%
X169061900Y-112176429D03*
%TD*%
%TO.C,REF\u002A\u002A*%
X104751200Y-112180416D03*
%TD*%
%TO.C,REF\u002A\u002A*%
X188618548Y-83112759D03*
%TD*%
D13*
%TO.C,SW1*%
X126410200Y-53595704D03*
X126410200Y-63755704D03*
D14*
X126410200Y-56135704D03*
X126410200Y-58675704D03*
X126410200Y-61215704D03*
%TD*%
D10*
%TO.C,R7*%
X167534000Y-45008600D03*
D11*
X175154000Y-45008600D03*
%TD*%
D12*
%TO.C,REF\u002A\u002A*%
X193998800Y-27000000D03*
%TD*%
D10*
%TO.C,R6*%
X123108200Y-106329912D03*
D11*
X115488200Y-106329912D03*
%TD*%
D12*
%TO.C,REF\u002A\u002A*%
X127938100Y-68586221D03*
%TD*%
%TO.C,REF\u002A\u002A*%
X188621684Y-33397553D03*
%TD*%
D10*
%TO.C,R4*%
X115488200Y-110393912D03*
D11*
X123108200Y-110393912D03*
%TD*%
D12*
%TO.C,REF\u002A\u002A*%
X108376200Y-57817656D03*
%TD*%
%TO.C,REF\u002A\u002A*%
X124438100Y-27000000D03*
%TD*%
%TO.C,REF\u002A\u002A*%
X147497436Y-99657864D03*
%TD*%
D13*
%TO.C,SW1*%
X167534000Y-75390808D03*
X167534000Y-85550808D03*
D14*
X167534000Y-77930808D03*
X167534000Y-80470808D03*
X167534000Y-83010808D03*
%TD*%
D12*
%TO.C,REF\u002A\u002A*%
X125313101Y-46790511D03*
%TD*%
%TO.C,REF\u002A\u002A*%
X127063100Y-27000000D03*
%TD*%
%TO.C,REF\u002A\u002A*%
X149500000Y-37772552D03*
%TD*%
%TO.C,REF\u002A\u002A*%
X147497884Y-76987760D03*
%TD*%
%TO.C,REF\u002A\u002A*%
X108376200Y-102282864D03*
%TD*%
%TO.C,REF\u002A\u002A*%
X128813100Y-92385312D03*
%TD*%
%TO.C,REF\u002A\u002A*%
X165561900Y-70590208D03*
%TD*%
%TO.C,REF\u002A\u002A*%
X127063101Y-46790915D03*
%TD*%
D10*
%TO.C,R1*%
X164232000Y-37388600D03*
D11*
X156612000Y-37388600D03*
%TD*%
D12*
%TO.C,REF\u002A\u002A*%
X147497436Y-34272553D03*
%TD*%
%TO.C,REF\u002A\u002A*%
X149500000Y-36022552D03*
%TD*%
%TO.C,REF\u002A\u002A*%
X149500000Y-62192656D03*
%TD*%
%TO.C,REF\u002A\u002A*%
X147494748Y-61317655D03*
%TD*%
D15*
%TO.C,SW2*%
X145086200Y-39634600D03*
D16*
X145086200Y-34634600D03*
X145086200Y-37134600D03*
D17*
X137586200Y-42734600D03*
X137586200Y-31534600D03*
D16*
X130586200Y-34634600D03*
X130586200Y-39634600D03*
%TD*%
D12*
%TO.C,REF\u002A\u002A*%
X126188101Y-90380921D03*
%TD*%
%TO.C,REF\u002A\u002A*%
X193123800Y-112180416D03*
%TD*%
%TO.C,REF\u002A\u002A*%
X108376200Y-81362760D03*
%TD*%
%TO.C,REF\u002A\u002A*%
X147496540Y-101407864D03*
%TD*%
%TO.C,REF\u002A\u002A*%
X108376200Y-83112760D03*
%TD*%
D15*
%TO.C,SW2*%
X186210000Y-105019912D03*
D16*
X186210000Y-100019912D03*
X186210000Y-102519912D03*
D17*
X178710000Y-108119912D03*
X178710000Y-96919912D03*
D16*
X171710000Y-100019912D03*
X171710000Y-105019912D03*
%TD*%
D12*
%TO.C,REF\u002A\u002A*%
X147494748Y-39522551D03*
%TD*%
D18*
%TO.C,J1*%
X112440200Y-52325704D03*
D14*
X112440200Y-54865704D03*
X112440200Y-57405704D03*
X112440200Y-59945704D03*
X112440200Y-62485704D03*
X112440200Y-65025704D03*
%TD*%
D12*
%TO.C,REF\u002A\u002A*%
X105626200Y-112180416D03*
%TD*%
D10*
%TO.C,R3*%
X156612000Y-77422808D03*
D11*
X164232000Y-77422808D03*
%TD*%
D12*
%TO.C,REF\u002A\u002A*%
X188619892Y-80487760D03*
%TD*%
M02*
