M48
; DRILL file {KiCad 7.0.2} date Tue Oct 31 00:57:28 2023
; FORMAT={-:-/ absolute / inch / decimal}
; #@! TF.CreationDate,2023-10-31T00:57:28+09:00
; #@! TF.GenerationSoftware,Kicad,Pcbnew,7.0.2
; #@! TF.FileFunction,NonPlated,1,2,NPTH
FMAT,2
INCH
; #@! TA.AperFunction,NonPlated,NPTH,ComponentDrill
T1C0.0197
; #@! TA.AperFunction,NonPlated,NPTH,ComponentDrill
T2C0.0787
%
G90
G05
T1
X5.1259Y-1.5953
X5.1259Y-1.6583
X5.1259Y-2.474
X5.1259Y-2.537
X5.1259Y-3.3528
X5.1259Y-3.4157
X5.1603Y-1.5953
X5.1603Y-1.6583
X5.1603Y-2.474
X5.1603Y-2.537
X5.1603Y-3.3528
X5.1603Y-3.4157
X5.1948Y-1.5953
X5.1948Y-1.6583
X5.1948Y-2.474
X5.1948Y-2.537
X5.1948Y-3.3528
X5.1948Y-3.4157
X5.2292Y-1.5953
X5.2292Y-1.6583
X5.2292Y-2.474
X5.2292Y-2.537
X5.2292Y-3.3528
X5.2292Y-3.4157
X5.2637Y-1.5953
X5.2637Y-1.6583
X5.2637Y-2.474
X5.2637Y-2.537
X5.2637Y-3.3528
X5.2637Y-3.4157
X6.4292Y-1.5953
X6.4292Y-1.6583
X6.4292Y-2.474
X6.4292Y-2.537
X6.4292Y-3.3528
X6.4292Y-3.4157
X6.4637Y-1.5953
X6.4637Y-1.6583
X6.4637Y-2.474
X6.4637Y-2.537
X6.4637Y-3.3528
X6.4637Y-3.4157
X6.4981Y-1.5953
X6.4981Y-1.6583
X6.4981Y-2.474
X6.4981Y-2.537
X6.4981Y-3.3528
X6.4981Y-3.4157
X6.5326Y-1.5953
X6.5326Y-1.6583
X6.5326Y-2.474
X6.5326Y-2.537
X6.5326Y-3.3528
X6.5326Y-3.4157
X6.567Y-1.5953
X6.567Y-1.6583
X6.567Y-2.474
X6.567Y-2.537
X6.567Y-3.3528
X6.567Y-3.4157
T2
X7.1875Y-1.427
X7.1875Y-2.3057
X7.1875Y-3.1845
X7.1875Y-4.0632
T0
M30
