M48
; DRILL file {KiCad 7.0.2} date Tue Oct 31 00:57:28 2023
; FORMAT={-:-/ absolute / inch / decimal}
; #@! TF.CreationDate,2023-10-31T00:57:28+09:00
; #@! TF.GenerationSoftware,Kicad,Pcbnew,7.0.2
; #@! TF.FileFunction,Plated,1,2,PTH
FMAT,2
INCH
; #@! TA.AperFunction,Plated,PTH,ViaDrill
T1C0.0157
; #@! TA.AperFunction,Plated,PTH,ComponentDrill
T2C0.0394
; #@! TA.AperFunction,Plated,PTH,ComponentDrill
T3C0.0472
%
G90
G05
T1
X4.4615Y-1.4074
X4.4615Y-2.2861
X4.4615Y-3.1649
X4.4615Y-4.0436
X4.5715Y-1.0674
X4.5715Y-1.9461
X4.5715Y-2.8249
X4.5715Y-3.7036
X4.6715Y-1.0674
X4.6715Y-1.2874
X4.6715Y-1.9461
X4.6715Y-2.1661
X4.6715Y-2.8249
X4.6715Y-3.0449
X4.6715Y-3.7036
X4.6715Y-3.9236
X4.9315Y-1.3574
X4.9315Y-2.2361
X4.9315Y-3.1149
X4.9315Y-3.9936
X5.4815Y-0.9774
X5.4815Y-1.2974
X5.4815Y-1.8561
X5.4815Y-2.1761
X5.4815Y-2.7349
X5.4815Y-3.0549
X5.4815Y-3.6136
X5.4815Y-3.9336
X5.7865Y-1.3974
X5.7865Y-2.2761
X5.7865Y-3.1549
X5.7865Y-4.0336
X6.1415Y-0.9774
X6.1415Y-1.3774
X6.1415Y-1.8561
X6.1415Y-2.2561
X6.1415Y-2.7349
X6.1415Y-3.1349
X6.1415Y-3.6136
X6.1415Y-4.0136
X6.4415Y-1.3974
X6.4415Y-2.2761
X6.4415Y-3.1549
X6.4415Y-4.0336
T2
X4.0414Y-0.9374
X4.0414Y-1.0374
X4.0414Y-1.1374
X4.0414Y-1.2374
X4.0414Y-1.3374
X4.0414Y-1.4374
X4.0414Y-1.8161
X4.0414Y-1.9161
X4.0414Y-2.0161
X4.0414Y-2.1161
X4.0414Y-2.2161
X4.0414Y-2.3161
X4.0414Y-2.6949
X4.0414Y-2.7949
X4.0414Y-2.8949
X4.0414Y-2.9949
X4.0414Y-3.0949
X4.0414Y-3.1949
X4.0414Y-3.5736
X4.0414Y-3.6736
X4.0414Y-3.7736
X4.0414Y-3.8736
X4.0414Y-3.9736
X4.0414Y-4.0736
X4.1414Y-0.9374
X4.1414Y-1.0374
X4.1414Y-1.1374
X4.1414Y-1.2374
X4.1414Y-1.3374
X4.1414Y-1.4374
X4.1414Y-1.8161
X4.1414Y-1.9161
X4.1414Y-2.0161
X4.1414Y-2.1161
X4.1414Y-2.2161
X4.1414Y-2.3161
X4.1414Y-2.6949
X4.1414Y-2.7949
X4.1414Y-2.8949
X4.1414Y-2.9949
X4.1414Y-3.0949
X4.1414Y-3.1949
X4.1414Y-3.5736
X4.1414Y-3.6736
X4.1414Y-3.7736
X4.1414Y-3.8736
X4.1414Y-3.9736
X4.1414Y-4.0736
X4.2815Y-0.9374
X4.2815Y-1.0374
X4.2815Y-1.1374
X4.2815Y-1.2374
X4.2815Y-1.3374
X4.2815Y-1.4374
X4.2815Y-1.8161
X4.2815Y-1.9161
X4.2815Y-2.0161
X4.2815Y-2.1161
X4.2815Y-2.2161
X4.2815Y-2.3161
X4.2815Y-2.6949
X4.2815Y-2.7949
X4.2815Y-2.8949
X4.2815Y-2.9949
X4.2815Y-3.0949
X4.2815Y-3.1949
X4.2815Y-3.5736
X4.2815Y-3.6736
X4.2815Y-3.7736
X4.2815Y-3.8736
X4.2815Y-3.9736
X4.2815Y-4.0736
X7.6815Y-0.9374
X7.6815Y-1.0374
X7.6815Y-1.1374
X7.6815Y-1.2374
X7.6815Y-1.3374
X7.6815Y-1.4374
X7.6815Y-1.8161
X7.6815Y-1.9161
X7.6815Y-2.0161
X7.6815Y-2.1161
X7.6815Y-2.2161
X7.6815Y-2.3161
X7.6815Y-2.6949
X7.6815Y-2.7949
X7.6815Y-2.8949
X7.6815Y-2.9949
X7.6815Y-3.0949
X7.6815Y-3.1949
X7.6815Y-3.5736
X7.6815Y-3.6736
X7.6815Y-3.7736
X7.6815Y-3.8736
X7.6815Y-3.9736
X7.6815Y-4.0736
T3
X4.9515Y-1.1974
X4.9515Y-2.0761
X4.9515Y-2.9549
X4.9515Y-3.8336
X5.3452Y-1.1974
X5.3452Y-2.0761
X5.3452Y-2.9549
X5.3452Y-3.8336
X5.6128Y-1.1974
X5.6128Y-2.0761
X5.6128Y-2.9549
X5.6128Y-3.8336
X6.0065Y-1.1974
X6.0065Y-2.0761
X6.0065Y-2.9549
X6.0065Y-3.8336
X6.2746Y-1.1974
X6.2746Y-2.0761
X6.2746Y-2.9549
X6.2746Y-3.8336
X6.6683Y-1.1974
X6.6683Y-2.0761
X6.6683Y-2.9549
X6.6683Y-3.8336
T0
M30
