%TF.GenerationSoftware,KiCad,Pcbnew,7.0.2*%
%TF.CreationDate,2023-10-31T00:57:24+09:00*%
%TF.ProjectId,kikit,6b696b69-742e-46b6-9963-61645f706362,rev?*%
%TF.SameCoordinates,Original*%
%TF.FileFunction,Soldermask,Top*%
%TF.FilePolarity,Negative*%
%FSLAX46Y46*%
G04 Gerber Fmt 4.6, Leading zero omitted, Abs format (unit mm)*
G04 Created by KiCad (PCBNEW 7.0.2) date 2023-10-31 00:57:24*
%MOMM*%
%LPD*%
G01*
G04 APERTURE LIST*
G04 Aperture macros list*
%AMRoundRect*
0 Rectangle with rounded corners*
0 $1 Rounding radius*
0 $2 $3 $4 $5 $6 $7 $8 $9 X,Y pos of 4 corners*
0 Add a 4 corners polygon primitive as box body*
4,1,4,$2,$3,$4,$5,$6,$7,$8,$9,$2,$3,0*
0 Add four circle primitives for the rounded corners*
1,1,$1+$1,$2,$3*
1,1,$1+$1,$4,$5*
1,1,$1+$1,$6,$7*
1,1,$1+$1,$8,$9*
0 Add four rect primitives between the rounded corners*
20,1,$1+$1,$2,$3,$4,$5,0*
20,1,$1+$1,$4,$5,$6,$7,0*
20,1,$1+$1,$6,$7,$8,$9,0*
20,1,$1+$1,$8,$9,$2,$3,0*%
%AMFreePoly0*
4,1,6,1.000000,0.000000,0.500000,-0.750000,-0.500000,-0.750000,-0.500000,0.750000,0.500000,0.750000,1.000000,0.000000,1.000000,0.000000,$1*%
%AMFreePoly1*
4,1,6,0.500000,-0.750000,-0.650000,-0.750000,-0.150000,0.000000,-0.650000,0.750000,0.500000,0.750000,0.500000,-0.750000,0.500000,-0.750000,$1*%
G04 Aperture macros list end*
%ADD10FreePoly0,180.000000*%
%ADD11FreePoly1,180.000000*%
%ADD12C,0.500000*%
%ADD13RoundRect,0.237500X-0.300000X-0.237500X0.300000X-0.237500X0.300000X0.237500X-0.300000X0.237500X0*%
%ADD14R,0.700000X1.525000*%
%ADD15C,1.700000*%
%ADD16O,1.700000X1.700000*%
%ADD17RoundRect,0.250000X-0.475000X0.337500X-0.475000X-0.337500X0.475000X-0.337500X0.475000X0.337500X0*%
%ADD18R,1.700000X1.700000*%
%ADD19C,1.800000*%
%ADD20C,2.000000*%
%ADD21R,3.300000X4.400000*%
%ADD22R,3.900000X6.200000*%
G04 APERTURE END LIST*
D10*
%TO.C,JP2*%
X117639000Y-96612000D03*
D11*
X116189000Y-96612000D03*
%TD*%
D12*
%TO.C,REF\u002A\u002A*%
X131947667Y-42120000D03*
%TD*%
%TO.C,REF\u002A\u002A*%
X165052333Y-42120000D03*
%TD*%
D13*
%TO.C,C1*%
X131508500Y-69974000D03*
X133233500Y-69974000D03*
%TD*%
D12*
%TO.C,REF\u002A\u002A*%
X164177333Y-62840000D03*
%TD*%
D14*
%TO.C,IC1*%
X128862000Y-77766000D03*
X130132000Y-77766000D03*
X131402000Y-77766000D03*
X132672000Y-77766000D03*
X132672000Y-72342000D03*
X131402000Y-72342000D03*
X130132000Y-72342000D03*
X128862000Y-72342000D03*
%TD*%
%TO.C,IC2*%
X145706000Y-100086000D03*
X146976000Y-100086000D03*
X148246000Y-100086000D03*
X149516000Y-100086000D03*
X149516000Y-94662000D03*
X148246000Y-94662000D03*
X146976000Y-94662000D03*
X145706000Y-94662000D03*
%TD*%
D15*
%TO.C,REF\u002A\u002A*%
X108749000Y-31430000D03*
D16*
X108749000Y-33970000D03*
X108749000Y-36510000D03*
%TD*%
D17*
%TO.C,C2*%
X173519000Y-67361700D03*
X173519000Y-69436700D03*
%TD*%
D10*
%TO.C,JP2*%
X117639000Y-29652000D03*
D11*
X116189000Y-29652000D03*
%TD*%
D18*
%TO.C,J3*%
X108749000Y-90770000D03*
D16*
X108749000Y-93310000D03*
X108749000Y-95850000D03*
%TD*%
D10*
%TO.C,JP1*%
X117639000Y-102708000D03*
D11*
X116189000Y-102708000D03*
%TD*%
D12*
%TO.C,REF\u002A\u002A*%
X131947667Y-62840000D03*
%TD*%
%TO.C,REF\u002A\u002A*%
X165052333Y-64440000D03*
%TD*%
D10*
%TO.C,JP2*%
X117639000Y-51972000D03*
D11*
X116189000Y-51972000D03*
%TD*%
D12*
%TO.C,REF\u002A\u002A*%
X132822667Y-40520000D03*
%TD*%
D13*
%TO.C,C3*%
X148145500Y-69974000D03*
X149870500Y-69974000D03*
%TD*%
%TO.C,C3*%
X148145500Y-47654000D03*
X149870500Y-47654000D03*
%TD*%
D12*
%TO.C,REF\u002A\u002A*%
X131072667Y-42120000D03*
%TD*%
D14*
%TO.C,IC2*%
X145706000Y-55446000D03*
X146976000Y-55446000D03*
X148246000Y-55446000D03*
X149516000Y-55446000D03*
X149516000Y-50022000D03*
X148246000Y-50022000D03*
X146976000Y-50022000D03*
X145706000Y-50022000D03*
%TD*%
D18*
%TO.C,REF\u002A\u002A*%
X195109000Y-68450000D03*
D16*
X195109000Y-70990000D03*
X195109000Y-73530000D03*
X195109000Y-76070000D03*
X195109000Y-78610000D03*
X195109000Y-81150000D03*
%TD*%
D19*
%TO.C,U3*%
X159375000Y-30414000D03*
X169375000Y-30414000D03*
%TD*%
D12*
%TO.C,REF\u002A\u002A*%
X165927333Y-85160000D03*
%TD*%
D20*
%TO.C,J2*%
X182563000Y-103206000D03*
D21*
X183263000Y-90406000D03*
D22*
X176113000Y-99406000D03*
X189013000Y-99406000D03*
%TD*%
D12*
%TO.C,REF\u002A\u002A*%
X166802333Y-85160000D03*
%TD*%
D10*
%TO.C,JP3*%
X117639000Y-90770000D03*
D11*
X116189000Y-90770000D03*
%TD*%
D12*
%TO.C,REF\u002A\u002A*%
X164177333Y-86760000D03*
%TD*%
%TO.C,REF\u002A\u002A*%
X166802333Y-64440000D03*
%TD*%
D13*
%TO.C,C1*%
X131508500Y-47654000D03*
X133233500Y-47654000D03*
%TD*%
D12*
%TO.C,REF\u002A\u002A*%
X131072667Y-64440000D03*
%TD*%
D18*
%TO.C,REF\u002A\u002A*%
X195109000Y-90770000D03*
D16*
X195109000Y-93310000D03*
X195109000Y-95850000D03*
X195109000Y-98390000D03*
X195109000Y-100930000D03*
X195109000Y-103470000D03*
%TD*%
D20*
%TO.C,J2*%
X182563000Y-80886000D03*
D21*
X183263000Y-68086000D03*
D22*
X176113000Y-77086000D03*
X189013000Y-77086000D03*
%TD*%
D17*
%TO.C,C2*%
X173519000Y-22721700D03*
X173519000Y-24796700D03*
%TD*%
D19*
%TO.C,U2*%
X142564000Y-52734000D03*
X152564000Y-52734000D03*
%TD*%
%TO.C,U1*%
X125767000Y-97374000D03*
X135767000Y-97374000D03*
%TD*%
D13*
%TO.C,C5*%
X165036500Y-92294000D03*
X166761500Y-92294000D03*
%TD*%
D19*
%TO.C,U3*%
X159375000Y-97374000D03*
X169375000Y-97374000D03*
%TD*%
%TO.C,U2*%
X142564000Y-75054000D03*
X152564000Y-75054000D03*
%TD*%
D14*
%TO.C,IC2*%
X145706000Y-77766000D03*
X146976000Y-77766000D03*
X148246000Y-77766000D03*
X149516000Y-77766000D03*
X149516000Y-72342000D03*
X148246000Y-72342000D03*
X146976000Y-72342000D03*
X145706000Y-72342000D03*
%TD*%
D12*
%TO.C,REF\u002A\u002A*%
X133697667Y-86760000D03*
%TD*%
%TO.C,REF\u002A\u002A*%
X131947667Y-86760000D03*
%TD*%
D14*
%TO.C,IC3*%
X162470000Y-55446000D03*
X163740000Y-55446000D03*
X165010000Y-55446000D03*
X166280000Y-55446000D03*
X166280000Y-50022000D03*
X165010000Y-50022000D03*
X163740000Y-50022000D03*
X162470000Y-50022000D03*
%TD*%
D18*
%TO.C,J1*%
X105192000Y-23810000D03*
D16*
X105192000Y-26350000D03*
X105192000Y-28890000D03*
X105192000Y-31430000D03*
X105192000Y-33970000D03*
X105192000Y-36510000D03*
D15*
X102652000Y-23810000D03*
D16*
X102652000Y-26350000D03*
X102652000Y-28890000D03*
X102652000Y-31430000D03*
X102652000Y-33970000D03*
X102652000Y-36510000D03*
%TD*%
D12*
%TO.C,REF\u002A\u002A*%
X166802333Y-42120000D03*
%TD*%
%TO.C,REF\u002A\u002A*%
X165052333Y-86760000D03*
%TD*%
D19*
%TO.C,U3*%
X159375000Y-75054000D03*
X169375000Y-75054000D03*
%TD*%
D12*
%TO.C,REF\u002A\u002A*%
X131072667Y-62840000D03*
%TD*%
D10*
%TO.C,JP3*%
X117639000Y-23810000D03*
D11*
X116189000Y-23810000D03*
%TD*%
D10*
%TO.C,JP2*%
X117639000Y-74292000D03*
D11*
X116189000Y-74292000D03*
%TD*%
D15*
%TO.C,REF\u002A\u002A*%
X108749000Y-76070000D03*
D16*
X108749000Y-78610000D03*
X108749000Y-81150000D03*
%TD*%
D12*
%TO.C,REF\u002A\u002A*%
X166802333Y-40520000D03*
%TD*%
%TO.C,REF\u002A\u002A*%
X164177333Y-85160000D03*
%TD*%
D10*
%TO.C,JP1*%
X117639000Y-58068000D03*
D11*
X116189000Y-58068000D03*
%TD*%
D12*
%TO.C,REF\u002A\u002A*%
X163302333Y-86760000D03*
%TD*%
D18*
%TO.C,J1*%
X105192000Y-90770000D03*
D16*
X105192000Y-93310000D03*
X105192000Y-95850000D03*
X105192000Y-98390000D03*
X105192000Y-100930000D03*
X105192000Y-103470000D03*
D15*
X102652000Y-90770000D03*
D16*
X102652000Y-93310000D03*
X102652000Y-95850000D03*
X102652000Y-98390000D03*
X102652000Y-100930000D03*
X102652000Y-103470000D03*
%TD*%
D12*
%TO.C,REF\u002A\u002A*%
X133697667Y-40520000D03*
%TD*%
%TO.C,REF\u002A\u002A*%
X165927333Y-62840000D03*
%TD*%
D14*
%TO.C,IC3*%
X162470000Y-33126000D03*
X163740000Y-33126000D03*
X165010000Y-33126000D03*
X166280000Y-33126000D03*
X166280000Y-27702000D03*
X165010000Y-27702000D03*
X163740000Y-27702000D03*
X162470000Y-27702000D03*
%TD*%
D12*
%TO.C,REF\u002A\u002A*%
X131072667Y-85160000D03*
%TD*%
D19*
%TO.C,U3*%
X159375000Y-52734000D03*
X169375000Y-52734000D03*
%TD*%
D12*
%TO.C,REF\u002A\u002A*%
X130197667Y-85160000D03*
%TD*%
D10*
%TO.C,JP1*%
X117639000Y-80388000D03*
D11*
X116189000Y-80388000D03*
%TD*%
D12*
%TO.C,REF\u002A\u002A*%
X133697667Y-62840000D03*
%TD*%
%TO.C,REF\u002A\u002A*%
X133697667Y-42120000D03*
%TD*%
D14*
%TO.C,IC2*%
X145706000Y-33126000D03*
X146976000Y-33126000D03*
X148246000Y-33126000D03*
X149516000Y-33126000D03*
X149516000Y-27702000D03*
X148246000Y-27702000D03*
X146976000Y-27702000D03*
X145706000Y-27702000D03*
%TD*%
D12*
%TO.C,REF\u002A\u002A*%
X130197667Y-86760000D03*
%TD*%
D14*
%TO.C,IC1*%
X128862000Y-55446000D03*
X130132000Y-55446000D03*
X131402000Y-55446000D03*
X132672000Y-55446000D03*
X132672000Y-50022000D03*
X131402000Y-50022000D03*
X130132000Y-50022000D03*
X128862000Y-50022000D03*
%TD*%
D15*
%TO.C,REF\u002A\u002A*%
X108749000Y-98390000D03*
D16*
X108749000Y-100930000D03*
X108749000Y-103470000D03*
%TD*%
D12*
%TO.C,REF\u002A\u002A*%
X163302333Y-42120000D03*
%TD*%
%TO.C,REF\u002A\u002A*%
X132822667Y-64440000D03*
%TD*%
D18*
%TO.C,REF\u002A\u002A*%
X195109000Y-46130000D03*
D16*
X195109000Y-48670000D03*
X195109000Y-51210000D03*
X195109000Y-53750000D03*
X195109000Y-56290000D03*
X195109000Y-58830000D03*
%TD*%
D18*
%TO.C,J3*%
X108749000Y-23810000D03*
D16*
X108749000Y-26350000D03*
X108749000Y-28890000D03*
%TD*%
D18*
%TO.C,J3*%
X108749000Y-46130000D03*
D16*
X108749000Y-48670000D03*
X108749000Y-51210000D03*
%TD*%
D19*
%TO.C,U1*%
X125767000Y-75054000D03*
X135767000Y-75054000D03*
%TD*%
D18*
%TO.C,J1*%
X105192000Y-46130000D03*
D16*
X105192000Y-48670000D03*
X105192000Y-51210000D03*
X105192000Y-53750000D03*
X105192000Y-56290000D03*
X105192000Y-58830000D03*
D15*
X102652000Y-46130000D03*
D16*
X102652000Y-48670000D03*
X102652000Y-51210000D03*
X102652000Y-53750000D03*
X102652000Y-56290000D03*
X102652000Y-58830000D03*
%TD*%
D13*
%TO.C,C5*%
X165036500Y-47654000D03*
X166761500Y-47654000D03*
%TD*%
D12*
%TO.C,REF\u002A\u002A*%
X163302333Y-85160000D03*
%TD*%
%TO.C,REF\u002A\u002A*%
X133697667Y-64440000D03*
%TD*%
%TO.C,REF\u002A\u002A*%
X163302333Y-40520000D03*
%TD*%
%TO.C,REF\u002A\u002A*%
X166802333Y-86760000D03*
%TD*%
D19*
%TO.C,U1*%
X125767000Y-30414000D03*
X135767000Y-30414000D03*
%TD*%
D12*
%TO.C,REF\u002A\u002A*%
X163302333Y-64440000D03*
%TD*%
D14*
%TO.C,IC1*%
X128862000Y-100086000D03*
X130132000Y-100086000D03*
X131402000Y-100086000D03*
X132672000Y-100086000D03*
X132672000Y-94662000D03*
X131402000Y-94662000D03*
X130132000Y-94662000D03*
X128862000Y-94662000D03*
%TD*%
D10*
%TO.C,JP3*%
X117639000Y-68450000D03*
D11*
X116189000Y-68450000D03*
%TD*%
D12*
%TO.C,REF\u002A\u002A*%
X131072667Y-86760000D03*
%TD*%
%TO.C,REF\u002A\u002A*%
X165052333Y-62840000D03*
%TD*%
%TO.C,REF\u002A\u002A*%
X130197667Y-64440000D03*
%TD*%
%TO.C,REF\u002A\u002A*%
X130197667Y-40520000D03*
%TD*%
D13*
%TO.C,C5*%
X165036500Y-25334000D03*
X166761500Y-25334000D03*
%TD*%
D14*
%TO.C,IC3*%
X162470000Y-100086000D03*
X163740000Y-100086000D03*
X165010000Y-100086000D03*
X166280000Y-100086000D03*
X166280000Y-94662000D03*
X165010000Y-94662000D03*
X163740000Y-94662000D03*
X162470000Y-94662000D03*
%TD*%
D12*
%TO.C,REF\u002A\u002A*%
X130197667Y-62840000D03*
%TD*%
D17*
%TO.C,C2*%
X173519000Y-89681700D03*
X173519000Y-91756700D03*
%TD*%
D18*
%TO.C,J3*%
X108749000Y-68450000D03*
D16*
X108749000Y-70990000D03*
X108749000Y-73530000D03*
%TD*%
D10*
%TO.C,JP3*%
X117639000Y-46130000D03*
D11*
X116189000Y-46130000D03*
%TD*%
D13*
%TO.C,C1*%
X131508500Y-92294000D03*
X133233500Y-92294000D03*
%TD*%
D18*
%TO.C,REF\u002A\u002A*%
X195109000Y-23810000D03*
D16*
X195109000Y-26350000D03*
X195109000Y-28890000D03*
X195109000Y-31430000D03*
X195109000Y-33970000D03*
X195109000Y-36510000D03*
%TD*%
D14*
%TO.C,IC1*%
X128862000Y-33126000D03*
X130132000Y-33126000D03*
X131402000Y-33126000D03*
X132672000Y-33126000D03*
X132672000Y-27702000D03*
X131402000Y-27702000D03*
X130132000Y-27702000D03*
X128862000Y-27702000D03*
%TD*%
D12*
%TO.C,REF\u002A\u002A*%
X166802333Y-62840000D03*
%TD*%
%TO.C,REF\u002A\u002A*%
X132822667Y-42120000D03*
%TD*%
%TO.C,REF\u002A\u002A*%
X131072667Y-40520000D03*
%TD*%
D13*
%TO.C,C1*%
X131508500Y-25334000D03*
X133233500Y-25334000D03*
%TD*%
%TO.C,C3*%
X148145500Y-92294000D03*
X149870500Y-92294000D03*
%TD*%
D12*
%TO.C,REF\u002A\u002A*%
X164177333Y-64440000D03*
%TD*%
%TO.C,REF\u002A\u002A*%
X163302333Y-62840000D03*
%TD*%
%TO.C,REF\u002A\u002A*%
X164177333Y-40520000D03*
%TD*%
%TO.C,REF\u002A\u002A*%
X164177333Y-42120000D03*
%TD*%
%TO.C,REF\u002A\u002A*%
X133697667Y-85160000D03*
%TD*%
D17*
%TO.C,C2*%
X173519000Y-45041700D03*
X173519000Y-47116700D03*
%TD*%
D19*
%TO.C,U2*%
X142564000Y-97374000D03*
X152564000Y-97374000D03*
%TD*%
D15*
%TO.C,REF\u002A\u002A*%
X108749000Y-53750000D03*
D16*
X108749000Y-56290000D03*
X108749000Y-58830000D03*
%TD*%
D13*
%TO.C,C5*%
X165036500Y-69974000D03*
X166761500Y-69974000D03*
%TD*%
D12*
%TO.C,REF\u002A\u002A*%
X165927333Y-40520000D03*
%TD*%
D20*
%TO.C,J2*%
X182563000Y-58566000D03*
D21*
X183263000Y-45766000D03*
D22*
X176113000Y-54766000D03*
X189013000Y-54766000D03*
%TD*%
D18*
%TO.C,J1*%
X105192000Y-68450000D03*
D16*
X105192000Y-70990000D03*
X105192000Y-73530000D03*
X105192000Y-76070000D03*
X105192000Y-78610000D03*
X105192000Y-81150000D03*
D15*
X102652000Y-68450000D03*
D16*
X102652000Y-70990000D03*
X102652000Y-73530000D03*
X102652000Y-76070000D03*
X102652000Y-78610000D03*
X102652000Y-81150000D03*
%TD*%
D12*
%TO.C,REF\u002A\u002A*%
X165927333Y-86760000D03*
%TD*%
%TO.C,REF\u002A\u002A*%
X132822667Y-62840000D03*
%TD*%
%TO.C,REF\u002A\u002A*%
X130197667Y-42120000D03*
%TD*%
D20*
%TO.C,J2*%
X182563000Y-36246000D03*
D21*
X183263000Y-23446000D03*
D22*
X176113000Y-32446000D03*
X189013000Y-32446000D03*
%TD*%
D13*
%TO.C,C3*%
X148145500Y-25334000D03*
X149870500Y-25334000D03*
%TD*%
D14*
%TO.C,IC3*%
X162470000Y-77766000D03*
X163740000Y-77766000D03*
X165010000Y-77766000D03*
X166280000Y-77766000D03*
X166280000Y-72342000D03*
X165010000Y-72342000D03*
X163740000Y-72342000D03*
X162470000Y-72342000D03*
%TD*%
D12*
%TO.C,REF\u002A\u002A*%
X132822667Y-86760000D03*
%TD*%
%TO.C,REF\u002A\u002A*%
X165052333Y-40520000D03*
%TD*%
%TO.C,REF\u002A\u002A*%
X165927333Y-42120000D03*
%TD*%
%TO.C,REF\u002A\u002A*%
X165052333Y-85160000D03*
%TD*%
%TO.C,REF\u002A\u002A*%
X132822667Y-85160000D03*
%TD*%
%TO.C,REF\u002A\u002A*%
X131947667Y-64440000D03*
%TD*%
%TO.C,REF\u002A\u002A*%
X131947667Y-40520000D03*
%TD*%
D19*
%TO.C,U1*%
X125767000Y-52734000D03*
X135767000Y-52734000D03*
%TD*%
D12*
%TO.C,REF\u002A\u002A*%
X131947667Y-85160000D03*
%TD*%
%TO.C,REF\u002A\u002A*%
X165927333Y-64440000D03*
%TD*%
D19*
%TO.C,U2*%
X142564000Y-30414000D03*
X152564000Y-30414000D03*
%TD*%
D10*
%TO.C,JP1*%
X117639000Y-35748000D03*
D11*
X116189000Y-35748000D03*
%TD*%
M02*
