%TF.GenerationSoftware,KiCad,Pcbnew,7.0.2*%
%TF.CreationDate,2023-10-31T00:57:24+09:00*%
%TF.ProjectId,kikit,6b696b69-742e-46b6-9963-61645f706362,rev?*%
%TF.SameCoordinates,Original*%
%TF.FileFunction,Profile,NP*%
%FSLAX46Y46*%
G04 Gerber Fmt 4.6, Leading zero omitted, Abs format (unit mm)*
G04 Created by KiCad (PCBNEW 7.0.2) date 2023-10-31 00:57:24*
%MOMM*%
%LPD*%
G01*
G04 APERTURE LIST*
%TA.AperFunction,Profile*%
%ADD10C,0.100000*%
%TD*%
G04 APERTURE END LIST*
D10*
X134447666Y-40320000D02*
X162552333Y-40320000D01*
X167552333Y-41320000D02*
X167552333Y-40320000D01*
X167552333Y-62640000D02*
X198157000Y-62640000D01*
X98843000Y-20000000D02*
X98843000Y-40320000D01*
X198157000Y-20000000D02*
X98843000Y-20000000D01*
X129447666Y-40320000D02*
X129447666Y-41320000D01*
X129447666Y-62640000D02*
X129447666Y-63640000D01*
X167552333Y-63640000D02*
X167552333Y-62640000D01*
X98843000Y-64640000D02*
X98843000Y-84960000D01*
X162552333Y-40320000D02*
X162552333Y-41320000D01*
X134447666Y-42320000D02*
X134447666Y-42320000D01*
X162552333Y-62640000D02*
X162552333Y-63640000D01*
X134447666Y-84960000D02*
X162552333Y-84960000D01*
X162552333Y-42320000D02*
X134447666Y-42320000D01*
X98843000Y-107280000D02*
X198157000Y-107280000D01*
X167552333Y-64640000D02*
X167552333Y-63640000D01*
X167552333Y-85960000D02*
X167552333Y-84960000D01*
X167552333Y-42320000D02*
X167552333Y-41320000D01*
X198157000Y-62640000D02*
X198157000Y-42320000D01*
X162552333Y-41320000D02*
X162552333Y-42320000D01*
X134447666Y-63640000D02*
X134447666Y-62640000D01*
X98843000Y-84960000D02*
X129447666Y-84960000D01*
X198157000Y-84960000D02*
X198157000Y-64640000D01*
X129447666Y-86960000D02*
X98843000Y-86960000D01*
X129447666Y-63640000D02*
X129447666Y-64640000D01*
X98843000Y-40320000D02*
X129447666Y-40320000D01*
X162552333Y-63640000D02*
X162552333Y-64640000D01*
X129447666Y-84960000D02*
X129447666Y-85960000D01*
X134447666Y-41320000D02*
X134447666Y-40320000D01*
X129447666Y-40320000D02*
X129447666Y-40320000D01*
X198157000Y-64640000D02*
X167552333Y-64640000D01*
X129447666Y-42320000D02*
X98843000Y-42320000D01*
X129447666Y-85960000D02*
X129447666Y-86960000D01*
X98843000Y-42320000D02*
X98843000Y-62640000D01*
X162552333Y-86960000D02*
X134447666Y-86960000D01*
X129447666Y-64640000D02*
X98843000Y-64640000D01*
X198157000Y-107280000D02*
X198157000Y-86960000D01*
X134447666Y-86960000D02*
X134447666Y-85960000D01*
X162552333Y-85960000D02*
X162552333Y-86960000D01*
X198157000Y-42320000D02*
X167552333Y-42320000D01*
X134447666Y-42320000D02*
X134447666Y-41320000D01*
X98843000Y-86960000D02*
X98843000Y-107280000D01*
X134447666Y-85960000D02*
X134447666Y-85960000D01*
X162552333Y-64640000D02*
X134447666Y-64640000D01*
X134447666Y-63640000D02*
X134447666Y-63640000D01*
X167552333Y-84960000D02*
X198157000Y-84960000D01*
X167552333Y-86960000D02*
X167552333Y-85960000D01*
X167552333Y-40320000D02*
X198157000Y-40320000D01*
X134447666Y-62640000D02*
X162552333Y-62640000D01*
X198157000Y-86960000D02*
X167552333Y-86960000D01*
X129447666Y-41320000D02*
X129447666Y-42320000D01*
X134447666Y-64640000D02*
X134447666Y-63640000D01*
X162552333Y-84960000D02*
X162552333Y-85960000D01*
X198157000Y-40320000D02*
X198157000Y-20000000D01*
X134447666Y-85960000D02*
X134447666Y-84960000D01*
X98843000Y-62640000D02*
X129447666Y-62640000D01*
M02*
