%TF.GenerationSoftware,KiCad,Pcbnew,7.0.2*%
%TF.CreationDate,2023-10-31T00:57:24+09:00*%
%TF.ProjectId,kikit,6b696b69-742e-46b6-9963-61645f706362,rev?*%
%TF.SameCoordinates,Original*%
%TF.FileFunction,Legend,Top*%
%TF.FilePolarity,Positive*%
%FSLAX46Y46*%
G04 Gerber Fmt 4.6, Leading zero omitted, Abs format (unit mm)*
G04 Created by KiCad (PCBNEW 7.0.2) date 2023-10-31 00:57:24*
%MOMM*%
%LPD*%
G01*
G04 APERTURE LIST*
%ADD10C,0.150000*%
%ADD11C,0.187500*%
%ADD12C,0.254000*%
%ADD13C,0.120000*%
%ADD14C,0.200000*%
G04 APERTURE END LIST*
D10*
X110933304Y-78195638D02*
X110838066Y-78148019D01*
X110838066Y-78148019D02*
X110695209Y-78148019D01*
X110695209Y-78148019D02*
X110552352Y-78195638D01*
X110552352Y-78195638D02*
X110457114Y-78290876D01*
X110457114Y-78290876D02*
X110409495Y-78386114D01*
X110409495Y-78386114D02*
X110361876Y-78576590D01*
X110361876Y-78576590D02*
X110361876Y-78719447D01*
X110361876Y-78719447D02*
X110409495Y-78909923D01*
X110409495Y-78909923D02*
X110457114Y-79005161D01*
X110457114Y-79005161D02*
X110552352Y-79100400D01*
X110552352Y-79100400D02*
X110695209Y-79148019D01*
X110695209Y-79148019D02*
X110790447Y-79148019D01*
X110790447Y-79148019D02*
X110933304Y-79100400D01*
X110933304Y-79100400D02*
X110980923Y-79052780D01*
X110980923Y-79052780D02*
X110980923Y-78719447D01*
X110980923Y-78719447D02*
X110790447Y-78719447D01*
D11*
X190044857Y-22761428D02*
X190544857Y-24261428D01*
X190544857Y-24261428D02*
X191044857Y-22761428D01*
X192187714Y-24190000D02*
X192044856Y-24261428D01*
X192044856Y-24261428D02*
X191759142Y-24261428D01*
X191759142Y-24261428D02*
X191616285Y-24190000D01*
X191616285Y-24190000D02*
X191544856Y-24118571D01*
X191544856Y-24118571D02*
X191473428Y-23975714D01*
X191473428Y-23975714D02*
X191473428Y-23547142D01*
X191473428Y-23547142D02*
X191544856Y-23404285D01*
X191544856Y-23404285D02*
X191616285Y-23332857D01*
X191616285Y-23332857D02*
X191759142Y-23261428D01*
X191759142Y-23261428D02*
X192044856Y-23261428D01*
X192044856Y-23261428D02*
X192187714Y-23332857D01*
X193473428Y-24190000D02*
X193330570Y-24261428D01*
X193330570Y-24261428D02*
X193044856Y-24261428D01*
X193044856Y-24261428D02*
X192901999Y-24190000D01*
X192901999Y-24190000D02*
X192830570Y-24118571D01*
X192830570Y-24118571D02*
X192759142Y-23975714D01*
X192759142Y-23975714D02*
X192759142Y-23547142D01*
X192759142Y-23547142D02*
X192830570Y-23404285D01*
X192830570Y-23404285D02*
X192901999Y-23332857D01*
X192901999Y-23332857D02*
X193044856Y-23261428D01*
X193044856Y-23261428D02*
X193330570Y-23261428D01*
X193330570Y-23261428D02*
X193473428Y-23332857D01*
D10*
X130470619Y-81165904D02*
X129470619Y-81165904D01*
X130470619Y-80689714D02*
X129470619Y-80689714D01*
X129470619Y-80689714D02*
X130470619Y-80118286D01*
X130470619Y-80118286D02*
X129470619Y-80118286D01*
X130184904Y-79689714D02*
X130184904Y-79213524D01*
X130470619Y-79784952D02*
X129470619Y-79451619D01*
X129470619Y-79451619D02*
X130470619Y-79118286D01*
X100605095Y-84075619D02*
X100605095Y-83075619D01*
X100605095Y-83075619D02*
X100986047Y-83075619D01*
X100986047Y-83075619D02*
X101081285Y-83123238D01*
X101081285Y-83123238D02*
X101128904Y-83170857D01*
X101128904Y-83170857D02*
X101176523Y-83266095D01*
X101176523Y-83266095D02*
X101176523Y-83408952D01*
X101176523Y-83408952D02*
X101128904Y-83504190D01*
X101128904Y-83504190D02*
X101081285Y-83551809D01*
X101081285Y-83551809D02*
X100986047Y-83599428D01*
X100986047Y-83599428D02*
X100605095Y-83599428D01*
X101605095Y-84075619D02*
X101605095Y-83408952D01*
X101605095Y-83504190D02*
X101652714Y-83456571D01*
X101652714Y-83456571D02*
X101747952Y-83408952D01*
X101747952Y-83408952D02*
X101890809Y-83408952D01*
X101890809Y-83408952D02*
X101986047Y-83456571D01*
X101986047Y-83456571D02*
X102033666Y-83551809D01*
X102033666Y-83551809D02*
X102033666Y-84075619D01*
X102033666Y-83551809D02*
X102081285Y-83456571D01*
X102081285Y-83456571D02*
X102176523Y-83408952D01*
X102176523Y-83408952D02*
X102319380Y-83408952D01*
X102319380Y-83408952D02*
X102414619Y-83456571D01*
X102414619Y-83456571D02*
X102462238Y-83551809D01*
X102462238Y-83551809D02*
X102462238Y-84075619D01*
X103081285Y-84075619D02*
X102986047Y-84028000D01*
X102986047Y-84028000D02*
X102938428Y-83980380D01*
X102938428Y-83980380D02*
X102890809Y-83885142D01*
X102890809Y-83885142D02*
X102890809Y-83599428D01*
X102890809Y-83599428D02*
X102938428Y-83504190D01*
X102938428Y-83504190D02*
X102986047Y-83456571D01*
X102986047Y-83456571D02*
X103081285Y-83408952D01*
X103081285Y-83408952D02*
X103224142Y-83408952D01*
X103224142Y-83408952D02*
X103319380Y-83456571D01*
X103319380Y-83456571D02*
X103366999Y-83504190D01*
X103366999Y-83504190D02*
X103414618Y-83599428D01*
X103414618Y-83599428D02*
X103414618Y-83885142D01*
X103414618Y-83885142D02*
X103366999Y-83980380D01*
X103366999Y-83980380D02*
X103319380Y-84028000D01*
X103319380Y-84028000D02*
X103224142Y-84075619D01*
X103224142Y-84075619D02*
X103081285Y-84075619D01*
X104271761Y-84075619D02*
X104271761Y-83075619D01*
X104271761Y-84028000D02*
X104176523Y-84075619D01*
X104176523Y-84075619D02*
X103986047Y-84075619D01*
X103986047Y-84075619D02*
X103890809Y-84028000D01*
X103890809Y-84028000D02*
X103843190Y-83980380D01*
X103843190Y-83980380D02*
X103795571Y-83885142D01*
X103795571Y-83885142D02*
X103795571Y-83599428D01*
X103795571Y-83599428D02*
X103843190Y-83504190D01*
X103843190Y-83504190D02*
X103890809Y-83456571D01*
X103890809Y-83456571D02*
X103986047Y-83408952D01*
X103986047Y-83408952D02*
X104176523Y-83408952D01*
X104176523Y-83408952D02*
X104271761Y-83456571D01*
X104509857Y-84170857D02*
X105271761Y-84170857D01*
X105509857Y-83075619D02*
X105509857Y-83885142D01*
X105509857Y-83885142D02*
X105557476Y-83980380D01*
X105557476Y-83980380D02*
X105605095Y-84028000D01*
X105605095Y-84028000D02*
X105700333Y-84075619D01*
X105700333Y-84075619D02*
X105890809Y-84075619D01*
X105890809Y-84075619D02*
X105986047Y-84028000D01*
X105986047Y-84028000D02*
X106033666Y-83980380D01*
X106033666Y-83980380D02*
X106081285Y-83885142D01*
X106081285Y-83885142D02*
X106081285Y-83075619D01*
X106700333Y-84075619D02*
X106605095Y-84028000D01*
X106605095Y-84028000D02*
X106557476Y-83932761D01*
X106557476Y-83932761D02*
X106557476Y-83075619D01*
X106938429Y-83408952D02*
X107319381Y-83408952D01*
X107081286Y-83075619D02*
X107081286Y-83932761D01*
X107081286Y-83932761D02*
X107128905Y-84028000D01*
X107128905Y-84028000D02*
X107224143Y-84075619D01*
X107224143Y-84075619D02*
X107319381Y-84075619D01*
X107652715Y-84075619D02*
X107652715Y-83408952D01*
X107652715Y-83599428D02*
X107700334Y-83504190D01*
X107700334Y-83504190D02*
X107747953Y-83456571D01*
X107747953Y-83456571D02*
X107843191Y-83408952D01*
X107843191Y-83408952D02*
X107938429Y-83408952D01*
X108700334Y-84075619D02*
X108700334Y-83551809D01*
X108700334Y-83551809D02*
X108652715Y-83456571D01*
X108652715Y-83456571D02*
X108557477Y-83408952D01*
X108557477Y-83408952D02*
X108367001Y-83408952D01*
X108367001Y-83408952D02*
X108271763Y-83456571D01*
X108700334Y-84028000D02*
X108605096Y-84075619D01*
X108605096Y-84075619D02*
X108367001Y-84075619D01*
X108367001Y-84075619D02*
X108271763Y-84028000D01*
X108271763Y-84028000D02*
X108224144Y-83932761D01*
X108224144Y-83932761D02*
X108224144Y-83837523D01*
X108224144Y-83837523D02*
X108271763Y-83742285D01*
X108271763Y-83742285D02*
X108367001Y-83694666D01*
X108367001Y-83694666D02*
X108605096Y-83694666D01*
X108605096Y-83694666D02*
X108700334Y-83647047D01*
X109128906Y-84028000D02*
X109271763Y-84075619D01*
X109271763Y-84075619D02*
X109509858Y-84075619D01*
X109509858Y-84075619D02*
X109605096Y-84028000D01*
X109605096Y-84028000D02*
X109652715Y-83980380D01*
X109652715Y-83980380D02*
X109700334Y-83885142D01*
X109700334Y-83885142D02*
X109700334Y-83789904D01*
X109700334Y-83789904D02*
X109652715Y-83694666D01*
X109652715Y-83694666D02*
X109605096Y-83647047D01*
X109605096Y-83647047D02*
X109509858Y-83599428D01*
X109509858Y-83599428D02*
X109319382Y-83551809D01*
X109319382Y-83551809D02*
X109224144Y-83504190D01*
X109224144Y-83504190D02*
X109176525Y-83456571D01*
X109176525Y-83456571D02*
X109128906Y-83361333D01*
X109128906Y-83361333D02*
X109128906Y-83266095D01*
X109128906Y-83266095D02*
X109176525Y-83170857D01*
X109176525Y-83170857D02*
X109224144Y-83123238D01*
X109224144Y-83123238D02*
X109319382Y-83075619D01*
X109319382Y-83075619D02*
X109557477Y-83075619D01*
X109557477Y-83075619D02*
X109700334Y-83123238D01*
X110271763Y-84075619D02*
X110176525Y-84028000D01*
X110176525Y-84028000D02*
X110128906Y-83980380D01*
X110128906Y-83980380D02*
X110081287Y-83885142D01*
X110081287Y-83885142D02*
X110081287Y-83599428D01*
X110081287Y-83599428D02*
X110128906Y-83504190D01*
X110128906Y-83504190D02*
X110176525Y-83456571D01*
X110176525Y-83456571D02*
X110271763Y-83408952D01*
X110271763Y-83408952D02*
X110414620Y-83408952D01*
X110414620Y-83408952D02*
X110509858Y-83456571D01*
X110509858Y-83456571D02*
X110557477Y-83504190D01*
X110557477Y-83504190D02*
X110605096Y-83599428D01*
X110605096Y-83599428D02*
X110605096Y-83885142D01*
X110605096Y-83885142D02*
X110557477Y-83980380D01*
X110557477Y-83980380D02*
X110509858Y-84028000D01*
X110509858Y-84028000D02*
X110414620Y-84075619D01*
X110414620Y-84075619D02*
X110271763Y-84075619D01*
X111033668Y-83408952D02*
X111033668Y-84075619D01*
X111033668Y-83504190D02*
X111081287Y-83456571D01*
X111081287Y-83456571D02*
X111176525Y-83408952D01*
X111176525Y-83408952D02*
X111319382Y-83408952D01*
X111319382Y-83408952D02*
X111414620Y-83456571D01*
X111414620Y-83456571D02*
X111462239Y-83551809D01*
X111462239Y-83551809D02*
X111462239Y-84075619D01*
X111938430Y-84075619D02*
X111938430Y-83408952D01*
X111938430Y-83075619D02*
X111890811Y-83123238D01*
X111890811Y-83123238D02*
X111938430Y-83170857D01*
X111938430Y-83170857D02*
X111986049Y-83123238D01*
X111986049Y-83123238D02*
X111938430Y-83075619D01*
X111938430Y-83075619D02*
X111938430Y-83170857D01*
X112843191Y-84028000D02*
X112747953Y-84075619D01*
X112747953Y-84075619D02*
X112557477Y-84075619D01*
X112557477Y-84075619D02*
X112462239Y-84028000D01*
X112462239Y-84028000D02*
X112414620Y-83980380D01*
X112414620Y-83980380D02*
X112367001Y-83885142D01*
X112367001Y-83885142D02*
X112367001Y-83599428D01*
X112367001Y-83599428D02*
X112414620Y-83504190D01*
X112414620Y-83504190D02*
X112462239Y-83456571D01*
X112462239Y-83456571D02*
X112557477Y-83408952D01*
X112557477Y-83408952D02*
X112747953Y-83408952D01*
X112747953Y-83408952D02*
X112843191Y-83456571D01*
X113176525Y-83075619D02*
X113795572Y-83075619D01*
X113795572Y-83075619D02*
X113462239Y-83456571D01*
X113462239Y-83456571D02*
X113605096Y-83456571D01*
X113605096Y-83456571D02*
X113700334Y-83504190D01*
X113700334Y-83504190D02*
X113747953Y-83551809D01*
X113747953Y-83551809D02*
X113795572Y-83647047D01*
X113795572Y-83647047D02*
X113795572Y-83885142D01*
X113795572Y-83885142D02*
X113747953Y-83980380D01*
X113747953Y-83980380D02*
X113700334Y-84028000D01*
X113700334Y-84028000D02*
X113605096Y-84075619D01*
X113605096Y-84075619D02*
X113319382Y-84075619D01*
X113319382Y-84075619D02*
X113224144Y-84028000D01*
X113224144Y-84028000D02*
X113176525Y-83980380D01*
X114843192Y-83075619D02*
X115176525Y-84075619D01*
X115176525Y-84075619D02*
X115509858Y-83075619D01*
X116224144Y-84028000D02*
X116128906Y-84075619D01*
X116128906Y-84075619D02*
X115938430Y-84075619D01*
X115938430Y-84075619D02*
X115843192Y-84028000D01*
X115843192Y-84028000D02*
X115795573Y-83932761D01*
X115795573Y-83932761D02*
X115795573Y-83551809D01*
X115795573Y-83551809D02*
X115843192Y-83456571D01*
X115843192Y-83456571D02*
X115938430Y-83408952D01*
X115938430Y-83408952D02*
X116128906Y-83408952D01*
X116128906Y-83408952D02*
X116224144Y-83456571D01*
X116224144Y-83456571D02*
X116271763Y-83551809D01*
X116271763Y-83551809D02*
X116271763Y-83647047D01*
X116271763Y-83647047D02*
X115795573Y-83742285D01*
X116700335Y-84075619D02*
X116700335Y-83408952D01*
X116700335Y-83599428D02*
X116747954Y-83504190D01*
X116747954Y-83504190D02*
X116795573Y-83456571D01*
X116795573Y-83456571D02*
X116890811Y-83408952D01*
X116890811Y-83408952D02*
X116986049Y-83408952D01*
X118271764Y-83075619D02*
X118367002Y-83075619D01*
X118367002Y-83075619D02*
X118462240Y-83123238D01*
X118462240Y-83123238D02*
X118509859Y-83170857D01*
X118509859Y-83170857D02*
X118557478Y-83266095D01*
X118557478Y-83266095D02*
X118605097Y-83456571D01*
X118605097Y-83456571D02*
X118605097Y-83694666D01*
X118605097Y-83694666D02*
X118557478Y-83885142D01*
X118557478Y-83885142D02*
X118509859Y-83980380D01*
X118509859Y-83980380D02*
X118462240Y-84028000D01*
X118462240Y-84028000D02*
X118367002Y-84075619D01*
X118367002Y-84075619D02*
X118271764Y-84075619D01*
X118271764Y-84075619D02*
X118176526Y-84028000D01*
X118176526Y-84028000D02*
X118128907Y-83980380D01*
X118128907Y-83980380D02*
X118081288Y-83885142D01*
X118081288Y-83885142D02*
X118033669Y-83694666D01*
X118033669Y-83694666D02*
X118033669Y-83456571D01*
X118033669Y-83456571D02*
X118081288Y-83266095D01*
X118081288Y-83266095D02*
X118128907Y-83170857D01*
X118128907Y-83170857D02*
X118176526Y-83123238D01*
X118176526Y-83123238D02*
X118271764Y-83075619D01*
X119033669Y-83980380D02*
X119081288Y-84028000D01*
X119081288Y-84028000D02*
X119033669Y-84075619D01*
X119033669Y-84075619D02*
X118986050Y-84028000D01*
X118986050Y-84028000D02*
X119033669Y-83980380D01*
X119033669Y-83980380D02*
X119033669Y-84075619D01*
X120033668Y-84075619D02*
X119462240Y-84075619D01*
X119747954Y-84075619D02*
X119747954Y-83075619D01*
X119747954Y-83075619D02*
X119652716Y-83218476D01*
X119652716Y-83218476D02*
X119557478Y-83313714D01*
X119557478Y-83313714D02*
X119462240Y-83361333D01*
D11*
X190044857Y-67401428D02*
X190544857Y-68901428D01*
X190544857Y-68901428D02*
X191044857Y-67401428D01*
X192187714Y-68830000D02*
X192044856Y-68901428D01*
X192044856Y-68901428D02*
X191759142Y-68901428D01*
X191759142Y-68901428D02*
X191616285Y-68830000D01*
X191616285Y-68830000D02*
X191544856Y-68758571D01*
X191544856Y-68758571D02*
X191473428Y-68615714D01*
X191473428Y-68615714D02*
X191473428Y-68187142D01*
X191473428Y-68187142D02*
X191544856Y-68044285D01*
X191544856Y-68044285D02*
X191616285Y-67972857D01*
X191616285Y-67972857D02*
X191759142Y-67901428D01*
X191759142Y-67901428D02*
X192044856Y-67901428D01*
X192044856Y-67901428D02*
X192187714Y-67972857D01*
X193473428Y-68830000D02*
X193330570Y-68901428D01*
X193330570Y-68901428D02*
X193044856Y-68901428D01*
X193044856Y-68901428D02*
X192901999Y-68830000D01*
X192901999Y-68830000D02*
X192830570Y-68758571D01*
X192830570Y-68758571D02*
X192759142Y-68615714D01*
X192759142Y-68615714D02*
X192759142Y-68187142D01*
X192759142Y-68187142D02*
X192830570Y-68044285D01*
X192830570Y-68044285D02*
X192901999Y-67972857D01*
X192901999Y-67972857D02*
X193044856Y-67901428D01*
X193044856Y-67901428D02*
X193330570Y-67901428D01*
X193330570Y-67901428D02*
X193473428Y-67972857D01*
X193401428Y-31580857D02*
X191901428Y-31580857D01*
X191901428Y-31580857D02*
X193401428Y-30723714D01*
X193401428Y-30723714D02*
X191901428Y-30723714D01*
X193258571Y-29152285D02*
X193330000Y-29223713D01*
X193330000Y-29223713D02*
X193401428Y-29437999D01*
X193401428Y-29437999D02*
X193401428Y-29580856D01*
X193401428Y-29580856D02*
X193330000Y-29795142D01*
X193330000Y-29795142D02*
X193187142Y-29937999D01*
X193187142Y-29937999D02*
X193044285Y-30009428D01*
X193044285Y-30009428D02*
X192758571Y-30080856D01*
X192758571Y-30080856D02*
X192544285Y-30080856D01*
X192544285Y-30080856D02*
X192258571Y-30009428D01*
X192258571Y-30009428D02*
X192115714Y-29937999D01*
X192115714Y-29937999D02*
X191972857Y-29795142D01*
X191972857Y-29795142D02*
X191901428Y-29580856D01*
X191901428Y-29580856D02*
X191901428Y-29437999D01*
X191901428Y-29437999D02*
X191972857Y-29223713D01*
X191972857Y-29223713D02*
X192044285Y-29152285D01*
D10*
X133518619Y-81165904D02*
X132518619Y-81165904D01*
X133518619Y-80689714D02*
X132518619Y-80689714D01*
X132518619Y-80689714D02*
X133518619Y-80118286D01*
X133518619Y-80118286D02*
X132518619Y-80118286D01*
X132994809Y-79308762D02*
X133042428Y-79165905D01*
X133042428Y-79165905D02*
X133090047Y-79118286D01*
X133090047Y-79118286D02*
X133185285Y-79070667D01*
X133185285Y-79070667D02*
X133328142Y-79070667D01*
X133328142Y-79070667D02*
X133423380Y-79118286D01*
X133423380Y-79118286D02*
X133471000Y-79165905D01*
X133471000Y-79165905D02*
X133518619Y-79261143D01*
X133518619Y-79261143D02*
X133518619Y-79642095D01*
X133518619Y-79642095D02*
X132518619Y-79642095D01*
X132518619Y-79642095D02*
X132518619Y-79308762D01*
X132518619Y-79308762D02*
X132566238Y-79213524D01*
X132566238Y-79213524D02*
X132613857Y-79165905D01*
X132613857Y-79165905D02*
X132709095Y-79118286D01*
X132709095Y-79118286D02*
X132804333Y-79118286D01*
X132804333Y-79118286D02*
X132899571Y-79165905D01*
X132899571Y-79165905D02*
X132947190Y-79213524D01*
X132947190Y-79213524D02*
X132994809Y-79308762D01*
X132994809Y-79308762D02*
X132994809Y-79642095D01*
X110933304Y-33555638D02*
X110838066Y-33508019D01*
X110838066Y-33508019D02*
X110695209Y-33508019D01*
X110695209Y-33508019D02*
X110552352Y-33555638D01*
X110552352Y-33555638D02*
X110457114Y-33650876D01*
X110457114Y-33650876D02*
X110409495Y-33746114D01*
X110409495Y-33746114D02*
X110361876Y-33936590D01*
X110361876Y-33936590D02*
X110361876Y-34079447D01*
X110361876Y-34079447D02*
X110409495Y-34269923D01*
X110409495Y-34269923D02*
X110457114Y-34365161D01*
X110457114Y-34365161D02*
X110552352Y-34460400D01*
X110552352Y-34460400D02*
X110695209Y-34508019D01*
X110695209Y-34508019D02*
X110790447Y-34508019D01*
X110790447Y-34508019D02*
X110933304Y-34460400D01*
X110933304Y-34460400D02*
X110980923Y-34412780D01*
X110980923Y-34412780D02*
X110980923Y-34079447D01*
X110980923Y-34079447D02*
X110790447Y-34079447D01*
D11*
X190155857Y-103889857D02*
X190013000Y-103818428D01*
X190013000Y-103818428D02*
X189798714Y-103818428D01*
X189798714Y-103818428D02*
X189584428Y-103889857D01*
X189584428Y-103889857D02*
X189441571Y-104032714D01*
X189441571Y-104032714D02*
X189370142Y-104175571D01*
X189370142Y-104175571D02*
X189298714Y-104461285D01*
X189298714Y-104461285D02*
X189298714Y-104675571D01*
X189298714Y-104675571D02*
X189370142Y-104961285D01*
X189370142Y-104961285D02*
X189441571Y-105104142D01*
X189441571Y-105104142D02*
X189584428Y-105247000D01*
X189584428Y-105247000D02*
X189798714Y-105318428D01*
X189798714Y-105318428D02*
X189941571Y-105318428D01*
X189941571Y-105318428D02*
X190155857Y-105247000D01*
X190155857Y-105247000D02*
X190227285Y-105175571D01*
X190227285Y-105175571D02*
X190227285Y-104675571D01*
X190227285Y-104675571D02*
X189941571Y-104675571D01*
X190870142Y-105318428D02*
X190870142Y-103818428D01*
X190870142Y-103818428D02*
X191727285Y-105318428D01*
X191727285Y-105318428D02*
X191727285Y-103818428D01*
X192441571Y-105318428D02*
X192441571Y-103818428D01*
X192441571Y-103818428D02*
X192798714Y-103818428D01*
X192798714Y-103818428D02*
X193013000Y-103889857D01*
X193013000Y-103889857D02*
X193155857Y-104032714D01*
X193155857Y-104032714D02*
X193227286Y-104175571D01*
X193227286Y-104175571D02*
X193298714Y-104461285D01*
X193298714Y-104461285D02*
X193298714Y-104675571D01*
X193298714Y-104675571D02*
X193227286Y-104961285D01*
X193227286Y-104961285D02*
X193155857Y-105104142D01*
X193155857Y-105104142D02*
X193013000Y-105247000D01*
X193013000Y-105247000D02*
X192798714Y-105318428D01*
X192798714Y-105318428D02*
X192441571Y-105318428D01*
D10*
X114167000Y-51051333D02*
X114214619Y-51146571D01*
X114214619Y-51146571D02*
X114214619Y-51337047D01*
X114214619Y-51337047D02*
X114167000Y-51432285D01*
X114167000Y-51432285D02*
X114119380Y-51479904D01*
X114119380Y-51479904D02*
X114024142Y-51527523D01*
X114024142Y-51527523D02*
X113738428Y-51527523D01*
X113738428Y-51527523D02*
X113643190Y-51479904D01*
X113643190Y-51479904D02*
X113595571Y-51432285D01*
X113595571Y-51432285D02*
X113547952Y-51337047D01*
X113547952Y-51337047D02*
X113547952Y-51146571D01*
X113547952Y-51146571D02*
X113595571Y-51051333D01*
X113547952Y-50194190D02*
X114214619Y-50194190D01*
X113547952Y-50622761D02*
X114071761Y-50622761D01*
X114071761Y-50622761D02*
X114167000Y-50575142D01*
X114167000Y-50575142D02*
X114214619Y-50479904D01*
X114214619Y-50479904D02*
X114214619Y-50337047D01*
X114214619Y-50337047D02*
X114167000Y-50241809D01*
X114167000Y-50241809D02*
X114119380Y-50194190D01*
X113547952Y-49860856D02*
X113547952Y-49479904D01*
X113214619Y-49717999D02*
X114071761Y-49717999D01*
X114071761Y-49717999D02*
X114167000Y-49670380D01*
X114167000Y-49670380D02*
X114214619Y-49575142D01*
X114214619Y-49575142D02*
X114214619Y-49479904D01*
X114214619Y-48241808D02*
X114167000Y-48337046D01*
X114167000Y-48337046D02*
X114071761Y-48384665D01*
X114071761Y-48384665D02*
X113214619Y-48384665D01*
X114214619Y-47860855D02*
X113547952Y-47860855D01*
X113214619Y-47860855D02*
X113262238Y-47908474D01*
X113262238Y-47908474D02*
X113309857Y-47860855D01*
X113309857Y-47860855D02*
X113262238Y-47813236D01*
X113262238Y-47813236D02*
X113214619Y-47860855D01*
X113214619Y-47860855D02*
X113309857Y-47860855D01*
X113547952Y-47384665D02*
X114214619Y-47384665D01*
X113643190Y-47384665D02*
X113595571Y-47337046D01*
X113595571Y-47337046D02*
X113547952Y-47241808D01*
X113547952Y-47241808D02*
X113547952Y-47098951D01*
X113547952Y-47098951D02*
X113595571Y-47003713D01*
X113595571Y-47003713D02*
X113690809Y-46956094D01*
X113690809Y-46956094D02*
X114214619Y-46956094D01*
X114167000Y-46098951D02*
X114214619Y-46194189D01*
X114214619Y-46194189D02*
X114214619Y-46384665D01*
X114214619Y-46384665D02*
X114167000Y-46479903D01*
X114167000Y-46479903D02*
X114071761Y-46527522D01*
X114071761Y-46527522D02*
X113690809Y-46527522D01*
X113690809Y-46527522D02*
X113595571Y-46479903D01*
X113595571Y-46479903D02*
X113547952Y-46384665D01*
X113547952Y-46384665D02*
X113547952Y-46194189D01*
X113547952Y-46194189D02*
X113595571Y-46098951D01*
X113595571Y-46098951D02*
X113690809Y-46051332D01*
X113690809Y-46051332D02*
X113786047Y-46051332D01*
X113786047Y-46051332D02*
X113881285Y-46527522D01*
D11*
X190044857Y-89721428D02*
X190544857Y-91221428D01*
X190544857Y-91221428D02*
X191044857Y-89721428D01*
X192187714Y-91150000D02*
X192044856Y-91221428D01*
X192044856Y-91221428D02*
X191759142Y-91221428D01*
X191759142Y-91221428D02*
X191616285Y-91150000D01*
X191616285Y-91150000D02*
X191544856Y-91078571D01*
X191544856Y-91078571D02*
X191473428Y-90935714D01*
X191473428Y-90935714D02*
X191473428Y-90507142D01*
X191473428Y-90507142D02*
X191544856Y-90364285D01*
X191544856Y-90364285D02*
X191616285Y-90292857D01*
X191616285Y-90292857D02*
X191759142Y-90221428D01*
X191759142Y-90221428D02*
X192044856Y-90221428D01*
X192044856Y-90221428D02*
X192187714Y-90292857D01*
X193473428Y-91150000D02*
X193330570Y-91221428D01*
X193330570Y-91221428D02*
X193044856Y-91221428D01*
X193044856Y-91221428D02*
X192901999Y-91150000D01*
X192901999Y-91150000D02*
X192830570Y-91078571D01*
X192830570Y-91078571D02*
X192759142Y-90935714D01*
X192759142Y-90935714D02*
X192759142Y-90507142D01*
X192759142Y-90507142D02*
X192830570Y-90364285D01*
X192830570Y-90364285D02*
X192901999Y-90292857D01*
X192901999Y-90292857D02*
X193044856Y-90221428D01*
X193044856Y-90221428D02*
X193330570Y-90221428D01*
X193330570Y-90221428D02*
X193473428Y-90292857D01*
D10*
X110368238Y-58469619D02*
X110701571Y-59469619D01*
X110701571Y-59469619D02*
X111034904Y-58469619D01*
X114167000Y-95691333D02*
X114214619Y-95786571D01*
X114214619Y-95786571D02*
X114214619Y-95977047D01*
X114214619Y-95977047D02*
X114167000Y-96072285D01*
X114167000Y-96072285D02*
X114119380Y-96119904D01*
X114119380Y-96119904D02*
X114024142Y-96167523D01*
X114024142Y-96167523D02*
X113738428Y-96167523D01*
X113738428Y-96167523D02*
X113643190Y-96119904D01*
X113643190Y-96119904D02*
X113595571Y-96072285D01*
X113595571Y-96072285D02*
X113547952Y-95977047D01*
X113547952Y-95977047D02*
X113547952Y-95786571D01*
X113547952Y-95786571D02*
X113595571Y-95691333D01*
X113547952Y-94834190D02*
X114214619Y-94834190D01*
X113547952Y-95262761D02*
X114071761Y-95262761D01*
X114071761Y-95262761D02*
X114167000Y-95215142D01*
X114167000Y-95215142D02*
X114214619Y-95119904D01*
X114214619Y-95119904D02*
X114214619Y-94977047D01*
X114214619Y-94977047D02*
X114167000Y-94881809D01*
X114167000Y-94881809D02*
X114119380Y-94834190D01*
X113547952Y-94500856D02*
X113547952Y-94119904D01*
X113214619Y-94357999D02*
X114071761Y-94357999D01*
X114071761Y-94357999D02*
X114167000Y-94310380D01*
X114167000Y-94310380D02*
X114214619Y-94215142D01*
X114214619Y-94215142D02*
X114214619Y-94119904D01*
X114214619Y-92881808D02*
X114167000Y-92977046D01*
X114167000Y-92977046D02*
X114071761Y-93024665D01*
X114071761Y-93024665D02*
X113214619Y-93024665D01*
X114214619Y-92500855D02*
X113547952Y-92500855D01*
X113214619Y-92500855D02*
X113262238Y-92548474D01*
X113262238Y-92548474D02*
X113309857Y-92500855D01*
X113309857Y-92500855D02*
X113262238Y-92453236D01*
X113262238Y-92453236D02*
X113214619Y-92500855D01*
X113214619Y-92500855D02*
X113309857Y-92500855D01*
X113547952Y-92024665D02*
X114214619Y-92024665D01*
X113643190Y-92024665D02*
X113595571Y-91977046D01*
X113595571Y-91977046D02*
X113547952Y-91881808D01*
X113547952Y-91881808D02*
X113547952Y-91738951D01*
X113547952Y-91738951D02*
X113595571Y-91643713D01*
X113595571Y-91643713D02*
X113690809Y-91596094D01*
X113690809Y-91596094D02*
X114214619Y-91596094D01*
X114167000Y-90738951D02*
X114214619Y-90834189D01*
X114214619Y-90834189D02*
X114214619Y-91024665D01*
X114214619Y-91024665D02*
X114167000Y-91119903D01*
X114167000Y-91119903D02*
X114071761Y-91167522D01*
X114071761Y-91167522D02*
X113690809Y-91167522D01*
X113690809Y-91167522D02*
X113595571Y-91119903D01*
X113595571Y-91119903D02*
X113547952Y-91024665D01*
X113547952Y-91024665D02*
X113547952Y-90834189D01*
X113547952Y-90834189D02*
X113595571Y-90738951D01*
X113595571Y-90738951D02*
X113690809Y-90691332D01*
X113690809Y-90691332D02*
X113786047Y-90691332D01*
X113786047Y-90691332D02*
X113881285Y-91167522D01*
X110368238Y-103109619D02*
X110701571Y-104109619D01*
X110701571Y-104109619D02*
X111034904Y-103109619D01*
D11*
X190155857Y-59249857D02*
X190013000Y-59178428D01*
X190013000Y-59178428D02*
X189798714Y-59178428D01*
X189798714Y-59178428D02*
X189584428Y-59249857D01*
X189584428Y-59249857D02*
X189441571Y-59392714D01*
X189441571Y-59392714D02*
X189370142Y-59535571D01*
X189370142Y-59535571D02*
X189298714Y-59821285D01*
X189298714Y-59821285D02*
X189298714Y-60035571D01*
X189298714Y-60035571D02*
X189370142Y-60321285D01*
X189370142Y-60321285D02*
X189441571Y-60464142D01*
X189441571Y-60464142D02*
X189584428Y-60607000D01*
X189584428Y-60607000D02*
X189798714Y-60678428D01*
X189798714Y-60678428D02*
X189941571Y-60678428D01*
X189941571Y-60678428D02*
X190155857Y-60607000D01*
X190155857Y-60607000D02*
X190227285Y-60535571D01*
X190227285Y-60535571D02*
X190227285Y-60035571D01*
X190227285Y-60035571D02*
X189941571Y-60035571D01*
X190870142Y-60678428D02*
X190870142Y-59178428D01*
X190870142Y-59178428D02*
X191727285Y-60678428D01*
X191727285Y-60678428D02*
X191727285Y-59178428D01*
X192441571Y-60678428D02*
X192441571Y-59178428D01*
X192441571Y-59178428D02*
X192798714Y-59178428D01*
X192798714Y-59178428D02*
X193013000Y-59249857D01*
X193013000Y-59249857D02*
X193155857Y-59392714D01*
X193155857Y-59392714D02*
X193227286Y-59535571D01*
X193227286Y-59535571D02*
X193298714Y-59821285D01*
X193298714Y-59821285D02*
X193298714Y-60035571D01*
X193298714Y-60035571D02*
X193227286Y-60321285D01*
X193227286Y-60321285D02*
X193155857Y-60464142D01*
X193155857Y-60464142D02*
X193013000Y-60607000D01*
X193013000Y-60607000D02*
X192798714Y-60678428D01*
X192798714Y-60678428D02*
X192441571Y-60678428D01*
D10*
X100605095Y-61755619D02*
X100605095Y-60755619D01*
X100605095Y-60755619D02*
X100986047Y-60755619D01*
X100986047Y-60755619D02*
X101081285Y-60803238D01*
X101081285Y-60803238D02*
X101128904Y-60850857D01*
X101128904Y-60850857D02*
X101176523Y-60946095D01*
X101176523Y-60946095D02*
X101176523Y-61088952D01*
X101176523Y-61088952D02*
X101128904Y-61184190D01*
X101128904Y-61184190D02*
X101081285Y-61231809D01*
X101081285Y-61231809D02*
X100986047Y-61279428D01*
X100986047Y-61279428D02*
X100605095Y-61279428D01*
X101605095Y-61755619D02*
X101605095Y-61088952D01*
X101605095Y-61184190D02*
X101652714Y-61136571D01*
X101652714Y-61136571D02*
X101747952Y-61088952D01*
X101747952Y-61088952D02*
X101890809Y-61088952D01*
X101890809Y-61088952D02*
X101986047Y-61136571D01*
X101986047Y-61136571D02*
X102033666Y-61231809D01*
X102033666Y-61231809D02*
X102033666Y-61755619D01*
X102033666Y-61231809D02*
X102081285Y-61136571D01*
X102081285Y-61136571D02*
X102176523Y-61088952D01*
X102176523Y-61088952D02*
X102319380Y-61088952D01*
X102319380Y-61088952D02*
X102414619Y-61136571D01*
X102414619Y-61136571D02*
X102462238Y-61231809D01*
X102462238Y-61231809D02*
X102462238Y-61755619D01*
X103081285Y-61755619D02*
X102986047Y-61708000D01*
X102986047Y-61708000D02*
X102938428Y-61660380D01*
X102938428Y-61660380D02*
X102890809Y-61565142D01*
X102890809Y-61565142D02*
X102890809Y-61279428D01*
X102890809Y-61279428D02*
X102938428Y-61184190D01*
X102938428Y-61184190D02*
X102986047Y-61136571D01*
X102986047Y-61136571D02*
X103081285Y-61088952D01*
X103081285Y-61088952D02*
X103224142Y-61088952D01*
X103224142Y-61088952D02*
X103319380Y-61136571D01*
X103319380Y-61136571D02*
X103366999Y-61184190D01*
X103366999Y-61184190D02*
X103414618Y-61279428D01*
X103414618Y-61279428D02*
X103414618Y-61565142D01*
X103414618Y-61565142D02*
X103366999Y-61660380D01*
X103366999Y-61660380D02*
X103319380Y-61708000D01*
X103319380Y-61708000D02*
X103224142Y-61755619D01*
X103224142Y-61755619D02*
X103081285Y-61755619D01*
X104271761Y-61755619D02*
X104271761Y-60755619D01*
X104271761Y-61708000D02*
X104176523Y-61755619D01*
X104176523Y-61755619D02*
X103986047Y-61755619D01*
X103986047Y-61755619D02*
X103890809Y-61708000D01*
X103890809Y-61708000D02*
X103843190Y-61660380D01*
X103843190Y-61660380D02*
X103795571Y-61565142D01*
X103795571Y-61565142D02*
X103795571Y-61279428D01*
X103795571Y-61279428D02*
X103843190Y-61184190D01*
X103843190Y-61184190D02*
X103890809Y-61136571D01*
X103890809Y-61136571D02*
X103986047Y-61088952D01*
X103986047Y-61088952D02*
X104176523Y-61088952D01*
X104176523Y-61088952D02*
X104271761Y-61136571D01*
X104509857Y-61850857D02*
X105271761Y-61850857D01*
X105509857Y-60755619D02*
X105509857Y-61565142D01*
X105509857Y-61565142D02*
X105557476Y-61660380D01*
X105557476Y-61660380D02*
X105605095Y-61708000D01*
X105605095Y-61708000D02*
X105700333Y-61755619D01*
X105700333Y-61755619D02*
X105890809Y-61755619D01*
X105890809Y-61755619D02*
X105986047Y-61708000D01*
X105986047Y-61708000D02*
X106033666Y-61660380D01*
X106033666Y-61660380D02*
X106081285Y-61565142D01*
X106081285Y-61565142D02*
X106081285Y-60755619D01*
X106700333Y-61755619D02*
X106605095Y-61708000D01*
X106605095Y-61708000D02*
X106557476Y-61612761D01*
X106557476Y-61612761D02*
X106557476Y-60755619D01*
X106938429Y-61088952D02*
X107319381Y-61088952D01*
X107081286Y-60755619D02*
X107081286Y-61612761D01*
X107081286Y-61612761D02*
X107128905Y-61708000D01*
X107128905Y-61708000D02*
X107224143Y-61755619D01*
X107224143Y-61755619D02*
X107319381Y-61755619D01*
X107652715Y-61755619D02*
X107652715Y-61088952D01*
X107652715Y-61279428D02*
X107700334Y-61184190D01*
X107700334Y-61184190D02*
X107747953Y-61136571D01*
X107747953Y-61136571D02*
X107843191Y-61088952D01*
X107843191Y-61088952D02*
X107938429Y-61088952D01*
X108700334Y-61755619D02*
X108700334Y-61231809D01*
X108700334Y-61231809D02*
X108652715Y-61136571D01*
X108652715Y-61136571D02*
X108557477Y-61088952D01*
X108557477Y-61088952D02*
X108367001Y-61088952D01*
X108367001Y-61088952D02*
X108271763Y-61136571D01*
X108700334Y-61708000D02*
X108605096Y-61755619D01*
X108605096Y-61755619D02*
X108367001Y-61755619D01*
X108367001Y-61755619D02*
X108271763Y-61708000D01*
X108271763Y-61708000D02*
X108224144Y-61612761D01*
X108224144Y-61612761D02*
X108224144Y-61517523D01*
X108224144Y-61517523D02*
X108271763Y-61422285D01*
X108271763Y-61422285D02*
X108367001Y-61374666D01*
X108367001Y-61374666D02*
X108605096Y-61374666D01*
X108605096Y-61374666D02*
X108700334Y-61327047D01*
X109128906Y-61708000D02*
X109271763Y-61755619D01*
X109271763Y-61755619D02*
X109509858Y-61755619D01*
X109509858Y-61755619D02*
X109605096Y-61708000D01*
X109605096Y-61708000D02*
X109652715Y-61660380D01*
X109652715Y-61660380D02*
X109700334Y-61565142D01*
X109700334Y-61565142D02*
X109700334Y-61469904D01*
X109700334Y-61469904D02*
X109652715Y-61374666D01*
X109652715Y-61374666D02*
X109605096Y-61327047D01*
X109605096Y-61327047D02*
X109509858Y-61279428D01*
X109509858Y-61279428D02*
X109319382Y-61231809D01*
X109319382Y-61231809D02*
X109224144Y-61184190D01*
X109224144Y-61184190D02*
X109176525Y-61136571D01*
X109176525Y-61136571D02*
X109128906Y-61041333D01*
X109128906Y-61041333D02*
X109128906Y-60946095D01*
X109128906Y-60946095D02*
X109176525Y-60850857D01*
X109176525Y-60850857D02*
X109224144Y-60803238D01*
X109224144Y-60803238D02*
X109319382Y-60755619D01*
X109319382Y-60755619D02*
X109557477Y-60755619D01*
X109557477Y-60755619D02*
X109700334Y-60803238D01*
X110271763Y-61755619D02*
X110176525Y-61708000D01*
X110176525Y-61708000D02*
X110128906Y-61660380D01*
X110128906Y-61660380D02*
X110081287Y-61565142D01*
X110081287Y-61565142D02*
X110081287Y-61279428D01*
X110081287Y-61279428D02*
X110128906Y-61184190D01*
X110128906Y-61184190D02*
X110176525Y-61136571D01*
X110176525Y-61136571D02*
X110271763Y-61088952D01*
X110271763Y-61088952D02*
X110414620Y-61088952D01*
X110414620Y-61088952D02*
X110509858Y-61136571D01*
X110509858Y-61136571D02*
X110557477Y-61184190D01*
X110557477Y-61184190D02*
X110605096Y-61279428D01*
X110605096Y-61279428D02*
X110605096Y-61565142D01*
X110605096Y-61565142D02*
X110557477Y-61660380D01*
X110557477Y-61660380D02*
X110509858Y-61708000D01*
X110509858Y-61708000D02*
X110414620Y-61755619D01*
X110414620Y-61755619D02*
X110271763Y-61755619D01*
X111033668Y-61088952D02*
X111033668Y-61755619D01*
X111033668Y-61184190D02*
X111081287Y-61136571D01*
X111081287Y-61136571D02*
X111176525Y-61088952D01*
X111176525Y-61088952D02*
X111319382Y-61088952D01*
X111319382Y-61088952D02*
X111414620Y-61136571D01*
X111414620Y-61136571D02*
X111462239Y-61231809D01*
X111462239Y-61231809D02*
X111462239Y-61755619D01*
X111938430Y-61755619D02*
X111938430Y-61088952D01*
X111938430Y-60755619D02*
X111890811Y-60803238D01*
X111890811Y-60803238D02*
X111938430Y-60850857D01*
X111938430Y-60850857D02*
X111986049Y-60803238D01*
X111986049Y-60803238D02*
X111938430Y-60755619D01*
X111938430Y-60755619D02*
X111938430Y-60850857D01*
X112843191Y-61708000D02*
X112747953Y-61755619D01*
X112747953Y-61755619D02*
X112557477Y-61755619D01*
X112557477Y-61755619D02*
X112462239Y-61708000D01*
X112462239Y-61708000D02*
X112414620Y-61660380D01*
X112414620Y-61660380D02*
X112367001Y-61565142D01*
X112367001Y-61565142D02*
X112367001Y-61279428D01*
X112367001Y-61279428D02*
X112414620Y-61184190D01*
X112414620Y-61184190D02*
X112462239Y-61136571D01*
X112462239Y-61136571D02*
X112557477Y-61088952D01*
X112557477Y-61088952D02*
X112747953Y-61088952D01*
X112747953Y-61088952D02*
X112843191Y-61136571D01*
X113176525Y-60755619D02*
X113795572Y-60755619D01*
X113795572Y-60755619D02*
X113462239Y-61136571D01*
X113462239Y-61136571D02*
X113605096Y-61136571D01*
X113605096Y-61136571D02*
X113700334Y-61184190D01*
X113700334Y-61184190D02*
X113747953Y-61231809D01*
X113747953Y-61231809D02*
X113795572Y-61327047D01*
X113795572Y-61327047D02*
X113795572Y-61565142D01*
X113795572Y-61565142D02*
X113747953Y-61660380D01*
X113747953Y-61660380D02*
X113700334Y-61708000D01*
X113700334Y-61708000D02*
X113605096Y-61755619D01*
X113605096Y-61755619D02*
X113319382Y-61755619D01*
X113319382Y-61755619D02*
X113224144Y-61708000D01*
X113224144Y-61708000D02*
X113176525Y-61660380D01*
X114843192Y-60755619D02*
X115176525Y-61755619D01*
X115176525Y-61755619D02*
X115509858Y-60755619D01*
X116224144Y-61708000D02*
X116128906Y-61755619D01*
X116128906Y-61755619D02*
X115938430Y-61755619D01*
X115938430Y-61755619D02*
X115843192Y-61708000D01*
X115843192Y-61708000D02*
X115795573Y-61612761D01*
X115795573Y-61612761D02*
X115795573Y-61231809D01*
X115795573Y-61231809D02*
X115843192Y-61136571D01*
X115843192Y-61136571D02*
X115938430Y-61088952D01*
X115938430Y-61088952D02*
X116128906Y-61088952D01*
X116128906Y-61088952D02*
X116224144Y-61136571D01*
X116224144Y-61136571D02*
X116271763Y-61231809D01*
X116271763Y-61231809D02*
X116271763Y-61327047D01*
X116271763Y-61327047D02*
X115795573Y-61422285D01*
X116700335Y-61755619D02*
X116700335Y-61088952D01*
X116700335Y-61279428D02*
X116747954Y-61184190D01*
X116747954Y-61184190D02*
X116795573Y-61136571D01*
X116795573Y-61136571D02*
X116890811Y-61088952D01*
X116890811Y-61088952D02*
X116986049Y-61088952D01*
X118271764Y-60755619D02*
X118367002Y-60755619D01*
X118367002Y-60755619D02*
X118462240Y-60803238D01*
X118462240Y-60803238D02*
X118509859Y-60850857D01*
X118509859Y-60850857D02*
X118557478Y-60946095D01*
X118557478Y-60946095D02*
X118605097Y-61136571D01*
X118605097Y-61136571D02*
X118605097Y-61374666D01*
X118605097Y-61374666D02*
X118557478Y-61565142D01*
X118557478Y-61565142D02*
X118509859Y-61660380D01*
X118509859Y-61660380D02*
X118462240Y-61708000D01*
X118462240Y-61708000D02*
X118367002Y-61755619D01*
X118367002Y-61755619D02*
X118271764Y-61755619D01*
X118271764Y-61755619D02*
X118176526Y-61708000D01*
X118176526Y-61708000D02*
X118128907Y-61660380D01*
X118128907Y-61660380D02*
X118081288Y-61565142D01*
X118081288Y-61565142D02*
X118033669Y-61374666D01*
X118033669Y-61374666D02*
X118033669Y-61136571D01*
X118033669Y-61136571D02*
X118081288Y-60946095D01*
X118081288Y-60946095D02*
X118128907Y-60850857D01*
X118128907Y-60850857D02*
X118176526Y-60803238D01*
X118176526Y-60803238D02*
X118271764Y-60755619D01*
X119033669Y-61660380D02*
X119081288Y-61708000D01*
X119081288Y-61708000D02*
X119033669Y-61755619D01*
X119033669Y-61755619D02*
X118986050Y-61708000D01*
X118986050Y-61708000D02*
X119033669Y-61660380D01*
X119033669Y-61660380D02*
X119033669Y-61755619D01*
X120033668Y-61755619D02*
X119462240Y-61755619D01*
X119747954Y-61755619D02*
X119747954Y-60755619D01*
X119747954Y-60755619D02*
X119652716Y-60898476D01*
X119652716Y-60898476D02*
X119557478Y-60993714D01*
X119557478Y-60993714D02*
X119462240Y-61041333D01*
X130470619Y-36525904D02*
X129470619Y-36525904D01*
X130470619Y-36049714D02*
X129470619Y-36049714D01*
X129470619Y-36049714D02*
X130470619Y-35478286D01*
X130470619Y-35478286D02*
X129470619Y-35478286D01*
X130184904Y-35049714D02*
X130184904Y-34573524D01*
X130470619Y-35144952D02*
X129470619Y-34811619D01*
X129470619Y-34811619D02*
X130470619Y-34478286D01*
X133518619Y-58845904D02*
X132518619Y-58845904D01*
X133518619Y-58369714D02*
X132518619Y-58369714D01*
X132518619Y-58369714D02*
X133518619Y-57798286D01*
X133518619Y-57798286D02*
X132518619Y-57798286D01*
X132994809Y-56988762D02*
X133042428Y-56845905D01*
X133042428Y-56845905D02*
X133090047Y-56798286D01*
X133090047Y-56798286D02*
X133185285Y-56750667D01*
X133185285Y-56750667D02*
X133328142Y-56750667D01*
X133328142Y-56750667D02*
X133423380Y-56798286D01*
X133423380Y-56798286D02*
X133471000Y-56845905D01*
X133471000Y-56845905D02*
X133518619Y-56941143D01*
X133518619Y-56941143D02*
X133518619Y-57322095D01*
X133518619Y-57322095D02*
X132518619Y-57322095D01*
X132518619Y-57322095D02*
X132518619Y-56988762D01*
X132518619Y-56988762D02*
X132566238Y-56893524D01*
X132566238Y-56893524D02*
X132613857Y-56845905D01*
X132613857Y-56845905D02*
X132709095Y-56798286D01*
X132709095Y-56798286D02*
X132804333Y-56798286D01*
X132804333Y-56798286D02*
X132899571Y-56845905D01*
X132899571Y-56845905D02*
X132947190Y-56893524D01*
X132947190Y-56893524D02*
X132994809Y-56988762D01*
X132994809Y-56988762D02*
X132994809Y-57322095D01*
X110368238Y-36149619D02*
X110701571Y-37149619D01*
X110701571Y-37149619D02*
X111034904Y-36149619D01*
X114167000Y-73371333D02*
X114214619Y-73466571D01*
X114214619Y-73466571D02*
X114214619Y-73657047D01*
X114214619Y-73657047D02*
X114167000Y-73752285D01*
X114167000Y-73752285D02*
X114119380Y-73799904D01*
X114119380Y-73799904D02*
X114024142Y-73847523D01*
X114024142Y-73847523D02*
X113738428Y-73847523D01*
X113738428Y-73847523D02*
X113643190Y-73799904D01*
X113643190Y-73799904D02*
X113595571Y-73752285D01*
X113595571Y-73752285D02*
X113547952Y-73657047D01*
X113547952Y-73657047D02*
X113547952Y-73466571D01*
X113547952Y-73466571D02*
X113595571Y-73371333D01*
X113547952Y-72514190D02*
X114214619Y-72514190D01*
X113547952Y-72942761D02*
X114071761Y-72942761D01*
X114071761Y-72942761D02*
X114167000Y-72895142D01*
X114167000Y-72895142D02*
X114214619Y-72799904D01*
X114214619Y-72799904D02*
X114214619Y-72657047D01*
X114214619Y-72657047D02*
X114167000Y-72561809D01*
X114167000Y-72561809D02*
X114119380Y-72514190D01*
X113547952Y-72180856D02*
X113547952Y-71799904D01*
X113214619Y-72037999D02*
X114071761Y-72037999D01*
X114071761Y-72037999D02*
X114167000Y-71990380D01*
X114167000Y-71990380D02*
X114214619Y-71895142D01*
X114214619Y-71895142D02*
X114214619Y-71799904D01*
X114214619Y-70561808D02*
X114167000Y-70657046D01*
X114167000Y-70657046D02*
X114071761Y-70704665D01*
X114071761Y-70704665D02*
X113214619Y-70704665D01*
X114214619Y-70180855D02*
X113547952Y-70180855D01*
X113214619Y-70180855D02*
X113262238Y-70228474D01*
X113262238Y-70228474D02*
X113309857Y-70180855D01*
X113309857Y-70180855D02*
X113262238Y-70133236D01*
X113262238Y-70133236D02*
X113214619Y-70180855D01*
X113214619Y-70180855D02*
X113309857Y-70180855D01*
X113547952Y-69704665D02*
X114214619Y-69704665D01*
X113643190Y-69704665D02*
X113595571Y-69657046D01*
X113595571Y-69657046D02*
X113547952Y-69561808D01*
X113547952Y-69561808D02*
X113547952Y-69418951D01*
X113547952Y-69418951D02*
X113595571Y-69323713D01*
X113595571Y-69323713D02*
X113690809Y-69276094D01*
X113690809Y-69276094D02*
X114214619Y-69276094D01*
X114167000Y-68418951D02*
X114214619Y-68514189D01*
X114214619Y-68514189D02*
X114214619Y-68704665D01*
X114214619Y-68704665D02*
X114167000Y-68799903D01*
X114167000Y-68799903D02*
X114071761Y-68847522D01*
X114071761Y-68847522D02*
X113690809Y-68847522D01*
X113690809Y-68847522D02*
X113595571Y-68799903D01*
X113595571Y-68799903D02*
X113547952Y-68704665D01*
X113547952Y-68704665D02*
X113547952Y-68514189D01*
X113547952Y-68514189D02*
X113595571Y-68418951D01*
X113595571Y-68418951D02*
X113690809Y-68371332D01*
X113690809Y-68371332D02*
X113786047Y-68371332D01*
X113786047Y-68371332D02*
X113881285Y-68847522D01*
D11*
X190044857Y-45081428D02*
X190544857Y-46581428D01*
X190544857Y-46581428D02*
X191044857Y-45081428D01*
X192187714Y-46510000D02*
X192044856Y-46581428D01*
X192044856Y-46581428D02*
X191759142Y-46581428D01*
X191759142Y-46581428D02*
X191616285Y-46510000D01*
X191616285Y-46510000D02*
X191544856Y-46438571D01*
X191544856Y-46438571D02*
X191473428Y-46295714D01*
X191473428Y-46295714D02*
X191473428Y-45867142D01*
X191473428Y-45867142D02*
X191544856Y-45724285D01*
X191544856Y-45724285D02*
X191616285Y-45652857D01*
X191616285Y-45652857D02*
X191759142Y-45581428D01*
X191759142Y-45581428D02*
X192044856Y-45581428D01*
X192044856Y-45581428D02*
X192187714Y-45652857D01*
X193473428Y-46510000D02*
X193330570Y-46581428D01*
X193330570Y-46581428D02*
X193044856Y-46581428D01*
X193044856Y-46581428D02*
X192901999Y-46510000D01*
X192901999Y-46510000D02*
X192830570Y-46438571D01*
X192830570Y-46438571D02*
X192759142Y-46295714D01*
X192759142Y-46295714D02*
X192759142Y-45867142D01*
X192759142Y-45867142D02*
X192830570Y-45724285D01*
X192830570Y-45724285D02*
X192901999Y-45652857D01*
X192901999Y-45652857D02*
X193044856Y-45581428D01*
X193044856Y-45581428D02*
X193330570Y-45581428D01*
X193330570Y-45581428D02*
X193473428Y-45652857D01*
X193401428Y-76220857D02*
X191901428Y-76220857D01*
X191901428Y-76220857D02*
X193401428Y-75363714D01*
X193401428Y-75363714D02*
X191901428Y-75363714D01*
X193258571Y-73792285D02*
X193330000Y-73863713D01*
X193330000Y-73863713D02*
X193401428Y-74077999D01*
X193401428Y-74077999D02*
X193401428Y-74220856D01*
X193401428Y-74220856D02*
X193330000Y-74435142D01*
X193330000Y-74435142D02*
X193187142Y-74577999D01*
X193187142Y-74577999D02*
X193044285Y-74649428D01*
X193044285Y-74649428D02*
X192758571Y-74720856D01*
X192758571Y-74720856D02*
X192544285Y-74720856D01*
X192544285Y-74720856D02*
X192258571Y-74649428D01*
X192258571Y-74649428D02*
X192115714Y-74577999D01*
X192115714Y-74577999D02*
X191972857Y-74435142D01*
X191972857Y-74435142D02*
X191901428Y-74220856D01*
X191901428Y-74220856D02*
X191901428Y-74077999D01*
X191901428Y-74077999D02*
X191972857Y-73863713D01*
X191972857Y-73863713D02*
X192044285Y-73792285D01*
D10*
X100605095Y-39435619D02*
X100605095Y-38435619D01*
X100605095Y-38435619D02*
X100986047Y-38435619D01*
X100986047Y-38435619D02*
X101081285Y-38483238D01*
X101081285Y-38483238D02*
X101128904Y-38530857D01*
X101128904Y-38530857D02*
X101176523Y-38626095D01*
X101176523Y-38626095D02*
X101176523Y-38768952D01*
X101176523Y-38768952D02*
X101128904Y-38864190D01*
X101128904Y-38864190D02*
X101081285Y-38911809D01*
X101081285Y-38911809D02*
X100986047Y-38959428D01*
X100986047Y-38959428D02*
X100605095Y-38959428D01*
X101605095Y-39435619D02*
X101605095Y-38768952D01*
X101605095Y-38864190D02*
X101652714Y-38816571D01*
X101652714Y-38816571D02*
X101747952Y-38768952D01*
X101747952Y-38768952D02*
X101890809Y-38768952D01*
X101890809Y-38768952D02*
X101986047Y-38816571D01*
X101986047Y-38816571D02*
X102033666Y-38911809D01*
X102033666Y-38911809D02*
X102033666Y-39435619D01*
X102033666Y-38911809D02*
X102081285Y-38816571D01*
X102081285Y-38816571D02*
X102176523Y-38768952D01*
X102176523Y-38768952D02*
X102319380Y-38768952D01*
X102319380Y-38768952D02*
X102414619Y-38816571D01*
X102414619Y-38816571D02*
X102462238Y-38911809D01*
X102462238Y-38911809D02*
X102462238Y-39435619D01*
X103081285Y-39435619D02*
X102986047Y-39388000D01*
X102986047Y-39388000D02*
X102938428Y-39340380D01*
X102938428Y-39340380D02*
X102890809Y-39245142D01*
X102890809Y-39245142D02*
X102890809Y-38959428D01*
X102890809Y-38959428D02*
X102938428Y-38864190D01*
X102938428Y-38864190D02*
X102986047Y-38816571D01*
X102986047Y-38816571D02*
X103081285Y-38768952D01*
X103081285Y-38768952D02*
X103224142Y-38768952D01*
X103224142Y-38768952D02*
X103319380Y-38816571D01*
X103319380Y-38816571D02*
X103366999Y-38864190D01*
X103366999Y-38864190D02*
X103414618Y-38959428D01*
X103414618Y-38959428D02*
X103414618Y-39245142D01*
X103414618Y-39245142D02*
X103366999Y-39340380D01*
X103366999Y-39340380D02*
X103319380Y-39388000D01*
X103319380Y-39388000D02*
X103224142Y-39435619D01*
X103224142Y-39435619D02*
X103081285Y-39435619D01*
X104271761Y-39435619D02*
X104271761Y-38435619D01*
X104271761Y-39388000D02*
X104176523Y-39435619D01*
X104176523Y-39435619D02*
X103986047Y-39435619D01*
X103986047Y-39435619D02*
X103890809Y-39388000D01*
X103890809Y-39388000D02*
X103843190Y-39340380D01*
X103843190Y-39340380D02*
X103795571Y-39245142D01*
X103795571Y-39245142D02*
X103795571Y-38959428D01*
X103795571Y-38959428D02*
X103843190Y-38864190D01*
X103843190Y-38864190D02*
X103890809Y-38816571D01*
X103890809Y-38816571D02*
X103986047Y-38768952D01*
X103986047Y-38768952D02*
X104176523Y-38768952D01*
X104176523Y-38768952D02*
X104271761Y-38816571D01*
X104509857Y-39530857D02*
X105271761Y-39530857D01*
X105509857Y-38435619D02*
X105509857Y-39245142D01*
X105509857Y-39245142D02*
X105557476Y-39340380D01*
X105557476Y-39340380D02*
X105605095Y-39388000D01*
X105605095Y-39388000D02*
X105700333Y-39435619D01*
X105700333Y-39435619D02*
X105890809Y-39435619D01*
X105890809Y-39435619D02*
X105986047Y-39388000D01*
X105986047Y-39388000D02*
X106033666Y-39340380D01*
X106033666Y-39340380D02*
X106081285Y-39245142D01*
X106081285Y-39245142D02*
X106081285Y-38435619D01*
X106700333Y-39435619D02*
X106605095Y-39388000D01*
X106605095Y-39388000D02*
X106557476Y-39292761D01*
X106557476Y-39292761D02*
X106557476Y-38435619D01*
X106938429Y-38768952D02*
X107319381Y-38768952D01*
X107081286Y-38435619D02*
X107081286Y-39292761D01*
X107081286Y-39292761D02*
X107128905Y-39388000D01*
X107128905Y-39388000D02*
X107224143Y-39435619D01*
X107224143Y-39435619D02*
X107319381Y-39435619D01*
X107652715Y-39435619D02*
X107652715Y-38768952D01*
X107652715Y-38959428D02*
X107700334Y-38864190D01*
X107700334Y-38864190D02*
X107747953Y-38816571D01*
X107747953Y-38816571D02*
X107843191Y-38768952D01*
X107843191Y-38768952D02*
X107938429Y-38768952D01*
X108700334Y-39435619D02*
X108700334Y-38911809D01*
X108700334Y-38911809D02*
X108652715Y-38816571D01*
X108652715Y-38816571D02*
X108557477Y-38768952D01*
X108557477Y-38768952D02*
X108367001Y-38768952D01*
X108367001Y-38768952D02*
X108271763Y-38816571D01*
X108700334Y-39388000D02*
X108605096Y-39435619D01*
X108605096Y-39435619D02*
X108367001Y-39435619D01*
X108367001Y-39435619D02*
X108271763Y-39388000D01*
X108271763Y-39388000D02*
X108224144Y-39292761D01*
X108224144Y-39292761D02*
X108224144Y-39197523D01*
X108224144Y-39197523D02*
X108271763Y-39102285D01*
X108271763Y-39102285D02*
X108367001Y-39054666D01*
X108367001Y-39054666D02*
X108605096Y-39054666D01*
X108605096Y-39054666D02*
X108700334Y-39007047D01*
X109128906Y-39388000D02*
X109271763Y-39435619D01*
X109271763Y-39435619D02*
X109509858Y-39435619D01*
X109509858Y-39435619D02*
X109605096Y-39388000D01*
X109605096Y-39388000D02*
X109652715Y-39340380D01*
X109652715Y-39340380D02*
X109700334Y-39245142D01*
X109700334Y-39245142D02*
X109700334Y-39149904D01*
X109700334Y-39149904D02*
X109652715Y-39054666D01*
X109652715Y-39054666D02*
X109605096Y-39007047D01*
X109605096Y-39007047D02*
X109509858Y-38959428D01*
X109509858Y-38959428D02*
X109319382Y-38911809D01*
X109319382Y-38911809D02*
X109224144Y-38864190D01*
X109224144Y-38864190D02*
X109176525Y-38816571D01*
X109176525Y-38816571D02*
X109128906Y-38721333D01*
X109128906Y-38721333D02*
X109128906Y-38626095D01*
X109128906Y-38626095D02*
X109176525Y-38530857D01*
X109176525Y-38530857D02*
X109224144Y-38483238D01*
X109224144Y-38483238D02*
X109319382Y-38435619D01*
X109319382Y-38435619D02*
X109557477Y-38435619D01*
X109557477Y-38435619D02*
X109700334Y-38483238D01*
X110271763Y-39435619D02*
X110176525Y-39388000D01*
X110176525Y-39388000D02*
X110128906Y-39340380D01*
X110128906Y-39340380D02*
X110081287Y-39245142D01*
X110081287Y-39245142D02*
X110081287Y-38959428D01*
X110081287Y-38959428D02*
X110128906Y-38864190D01*
X110128906Y-38864190D02*
X110176525Y-38816571D01*
X110176525Y-38816571D02*
X110271763Y-38768952D01*
X110271763Y-38768952D02*
X110414620Y-38768952D01*
X110414620Y-38768952D02*
X110509858Y-38816571D01*
X110509858Y-38816571D02*
X110557477Y-38864190D01*
X110557477Y-38864190D02*
X110605096Y-38959428D01*
X110605096Y-38959428D02*
X110605096Y-39245142D01*
X110605096Y-39245142D02*
X110557477Y-39340380D01*
X110557477Y-39340380D02*
X110509858Y-39388000D01*
X110509858Y-39388000D02*
X110414620Y-39435619D01*
X110414620Y-39435619D02*
X110271763Y-39435619D01*
X111033668Y-38768952D02*
X111033668Y-39435619D01*
X111033668Y-38864190D02*
X111081287Y-38816571D01*
X111081287Y-38816571D02*
X111176525Y-38768952D01*
X111176525Y-38768952D02*
X111319382Y-38768952D01*
X111319382Y-38768952D02*
X111414620Y-38816571D01*
X111414620Y-38816571D02*
X111462239Y-38911809D01*
X111462239Y-38911809D02*
X111462239Y-39435619D01*
X111938430Y-39435619D02*
X111938430Y-38768952D01*
X111938430Y-38435619D02*
X111890811Y-38483238D01*
X111890811Y-38483238D02*
X111938430Y-38530857D01*
X111938430Y-38530857D02*
X111986049Y-38483238D01*
X111986049Y-38483238D02*
X111938430Y-38435619D01*
X111938430Y-38435619D02*
X111938430Y-38530857D01*
X112843191Y-39388000D02*
X112747953Y-39435619D01*
X112747953Y-39435619D02*
X112557477Y-39435619D01*
X112557477Y-39435619D02*
X112462239Y-39388000D01*
X112462239Y-39388000D02*
X112414620Y-39340380D01*
X112414620Y-39340380D02*
X112367001Y-39245142D01*
X112367001Y-39245142D02*
X112367001Y-38959428D01*
X112367001Y-38959428D02*
X112414620Y-38864190D01*
X112414620Y-38864190D02*
X112462239Y-38816571D01*
X112462239Y-38816571D02*
X112557477Y-38768952D01*
X112557477Y-38768952D02*
X112747953Y-38768952D01*
X112747953Y-38768952D02*
X112843191Y-38816571D01*
X113176525Y-38435619D02*
X113795572Y-38435619D01*
X113795572Y-38435619D02*
X113462239Y-38816571D01*
X113462239Y-38816571D02*
X113605096Y-38816571D01*
X113605096Y-38816571D02*
X113700334Y-38864190D01*
X113700334Y-38864190D02*
X113747953Y-38911809D01*
X113747953Y-38911809D02*
X113795572Y-39007047D01*
X113795572Y-39007047D02*
X113795572Y-39245142D01*
X113795572Y-39245142D02*
X113747953Y-39340380D01*
X113747953Y-39340380D02*
X113700334Y-39388000D01*
X113700334Y-39388000D02*
X113605096Y-39435619D01*
X113605096Y-39435619D02*
X113319382Y-39435619D01*
X113319382Y-39435619D02*
X113224144Y-39388000D01*
X113224144Y-39388000D02*
X113176525Y-39340380D01*
X114843192Y-38435619D02*
X115176525Y-39435619D01*
X115176525Y-39435619D02*
X115509858Y-38435619D01*
X116224144Y-39388000D02*
X116128906Y-39435619D01*
X116128906Y-39435619D02*
X115938430Y-39435619D01*
X115938430Y-39435619D02*
X115843192Y-39388000D01*
X115843192Y-39388000D02*
X115795573Y-39292761D01*
X115795573Y-39292761D02*
X115795573Y-38911809D01*
X115795573Y-38911809D02*
X115843192Y-38816571D01*
X115843192Y-38816571D02*
X115938430Y-38768952D01*
X115938430Y-38768952D02*
X116128906Y-38768952D01*
X116128906Y-38768952D02*
X116224144Y-38816571D01*
X116224144Y-38816571D02*
X116271763Y-38911809D01*
X116271763Y-38911809D02*
X116271763Y-39007047D01*
X116271763Y-39007047D02*
X115795573Y-39102285D01*
X116700335Y-39435619D02*
X116700335Y-38768952D01*
X116700335Y-38959428D02*
X116747954Y-38864190D01*
X116747954Y-38864190D02*
X116795573Y-38816571D01*
X116795573Y-38816571D02*
X116890811Y-38768952D01*
X116890811Y-38768952D02*
X116986049Y-38768952D01*
X118271764Y-38435619D02*
X118367002Y-38435619D01*
X118367002Y-38435619D02*
X118462240Y-38483238D01*
X118462240Y-38483238D02*
X118509859Y-38530857D01*
X118509859Y-38530857D02*
X118557478Y-38626095D01*
X118557478Y-38626095D02*
X118605097Y-38816571D01*
X118605097Y-38816571D02*
X118605097Y-39054666D01*
X118605097Y-39054666D02*
X118557478Y-39245142D01*
X118557478Y-39245142D02*
X118509859Y-39340380D01*
X118509859Y-39340380D02*
X118462240Y-39388000D01*
X118462240Y-39388000D02*
X118367002Y-39435619D01*
X118367002Y-39435619D02*
X118271764Y-39435619D01*
X118271764Y-39435619D02*
X118176526Y-39388000D01*
X118176526Y-39388000D02*
X118128907Y-39340380D01*
X118128907Y-39340380D02*
X118081288Y-39245142D01*
X118081288Y-39245142D02*
X118033669Y-39054666D01*
X118033669Y-39054666D02*
X118033669Y-38816571D01*
X118033669Y-38816571D02*
X118081288Y-38626095D01*
X118081288Y-38626095D02*
X118128907Y-38530857D01*
X118128907Y-38530857D02*
X118176526Y-38483238D01*
X118176526Y-38483238D02*
X118271764Y-38435619D01*
X119033669Y-39340380D02*
X119081288Y-39388000D01*
X119081288Y-39388000D02*
X119033669Y-39435619D01*
X119033669Y-39435619D02*
X118986050Y-39388000D01*
X118986050Y-39388000D02*
X119033669Y-39340380D01*
X119033669Y-39340380D02*
X119033669Y-39435619D01*
X120033668Y-39435619D02*
X119462240Y-39435619D01*
X119747954Y-39435619D02*
X119747954Y-38435619D01*
X119747954Y-38435619D02*
X119652716Y-38578476D01*
X119652716Y-38578476D02*
X119557478Y-38673714D01*
X119557478Y-38673714D02*
X119462240Y-38721333D01*
X110368238Y-80789619D02*
X110701571Y-81789619D01*
X110701571Y-81789619D02*
X111034904Y-80789619D01*
X100605095Y-106395619D02*
X100605095Y-105395619D01*
X100605095Y-105395619D02*
X100986047Y-105395619D01*
X100986047Y-105395619D02*
X101081285Y-105443238D01*
X101081285Y-105443238D02*
X101128904Y-105490857D01*
X101128904Y-105490857D02*
X101176523Y-105586095D01*
X101176523Y-105586095D02*
X101176523Y-105728952D01*
X101176523Y-105728952D02*
X101128904Y-105824190D01*
X101128904Y-105824190D02*
X101081285Y-105871809D01*
X101081285Y-105871809D02*
X100986047Y-105919428D01*
X100986047Y-105919428D02*
X100605095Y-105919428D01*
X101605095Y-106395619D02*
X101605095Y-105728952D01*
X101605095Y-105824190D02*
X101652714Y-105776571D01*
X101652714Y-105776571D02*
X101747952Y-105728952D01*
X101747952Y-105728952D02*
X101890809Y-105728952D01*
X101890809Y-105728952D02*
X101986047Y-105776571D01*
X101986047Y-105776571D02*
X102033666Y-105871809D01*
X102033666Y-105871809D02*
X102033666Y-106395619D01*
X102033666Y-105871809D02*
X102081285Y-105776571D01*
X102081285Y-105776571D02*
X102176523Y-105728952D01*
X102176523Y-105728952D02*
X102319380Y-105728952D01*
X102319380Y-105728952D02*
X102414619Y-105776571D01*
X102414619Y-105776571D02*
X102462238Y-105871809D01*
X102462238Y-105871809D02*
X102462238Y-106395619D01*
X103081285Y-106395619D02*
X102986047Y-106348000D01*
X102986047Y-106348000D02*
X102938428Y-106300380D01*
X102938428Y-106300380D02*
X102890809Y-106205142D01*
X102890809Y-106205142D02*
X102890809Y-105919428D01*
X102890809Y-105919428D02*
X102938428Y-105824190D01*
X102938428Y-105824190D02*
X102986047Y-105776571D01*
X102986047Y-105776571D02*
X103081285Y-105728952D01*
X103081285Y-105728952D02*
X103224142Y-105728952D01*
X103224142Y-105728952D02*
X103319380Y-105776571D01*
X103319380Y-105776571D02*
X103366999Y-105824190D01*
X103366999Y-105824190D02*
X103414618Y-105919428D01*
X103414618Y-105919428D02*
X103414618Y-106205142D01*
X103414618Y-106205142D02*
X103366999Y-106300380D01*
X103366999Y-106300380D02*
X103319380Y-106348000D01*
X103319380Y-106348000D02*
X103224142Y-106395619D01*
X103224142Y-106395619D02*
X103081285Y-106395619D01*
X104271761Y-106395619D02*
X104271761Y-105395619D01*
X104271761Y-106348000D02*
X104176523Y-106395619D01*
X104176523Y-106395619D02*
X103986047Y-106395619D01*
X103986047Y-106395619D02*
X103890809Y-106348000D01*
X103890809Y-106348000D02*
X103843190Y-106300380D01*
X103843190Y-106300380D02*
X103795571Y-106205142D01*
X103795571Y-106205142D02*
X103795571Y-105919428D01*
X103795571Y-105919428D02*
X103843190Y-105824190D01*
X103843190Y-105824190D02*
X103890809Y-105776571D01*
X103890809Y-105776571D02*
X103986047Y-105728952D01*
X103986047Y-105728952D02*
X104176523Y-105728952D01*
X104176523Y-105728952D02*
X104271761Y-105776571D01*
X104509857Y-106490857D02*
X105271761Y-106490857D01*
X105509857Y-105395619D02*
X105509857Y-106205142D01*
X105509857Y-106205142D02*
X105557476Y-106300380D01*
X105557476Y-106300380D02*
X105605095Y-106348000D01*
X105605095Y-106348000D02*
X105700333Y-106395619D01*
X105700333Y-106395619D02*
X105890809Y-106395619D01*
X105890809Y-106395619D02*
X105986047Y-106348000D01*
X105986047Y-106348000D02*
X106033666Y-106300380D01*
X106033666Y-106300380D02*
X106081285Y-106205142D01*
X106081285Y-106205142D02*
X106081285Y-105395619D01*
X106700333Y-106395619D02*
X106605095Y-106348000D01*
X106605095Y-106348000D02*
X106557476Y-106252761D01*
X106557476Y-106252761D02*
X106557476Y-105395619D01*
X106938429Y-105728952D02*
X107319381Y-105728952D01*
X107081286Y-105395619D02*
X107081286Y-106252761D01*
X107081286Y-106252761D02*
X107128905Y-106348000D01*
X107128905Y-106348000D02*
X107224143Y-106395619D01*
X107224143Y-106395619D02*
X107319381Y-106395619D01*
X107652715Y-106395619D02*
X107652715Y-105728952D01*
X107652715Y-105919428D02*
X107700334Y-105824190D01*
X107700334Y-105824190D02*
X107747953Y-105776571D01*
X107747953Y-105776571D02*
X107843191Y-105728952D01*
X107843191Y-105728952D02*
X107938429Y-105728952D01*
X108700334Y-106395619D02*
X108700334Y-105871809D01*
X108700334Y-105871809D02*
X108652715Y-105776571D01*
X108652715Y-105776571D02*
X108557477Y-105728952D01*
X108557477Y-105728952D02*
X108367001Y-105728952D01*
X108367001Y-105728952D02*
X108271763Y-105776571D01*
X108700334Y-106348000D02*
X108605096Y-106395619D01*
X108605096Y-106395619D02*
X108367001Y-106395619D01*
X108367001Y-106395619D02*
X108271763Y-106348000D01*
X108271763Y-106348000D02*
X108224144Y-106252761D01*
X108224144Y-106252761D02*
X108224144Y-106157523D01*
X108224144Y-106157523D02*
X108271763Y-106062285D01*
X108271763Y-106062285D02*
X108367001Y-106014666D01*
X108367001Y-106014666D02*
X108605096Y-106014666D01*
X108605096Y-106014666D02*
X108700334Y-105967047D01*
X109128906Y-106348000D02*
X109271763Y-106395619D01*
X109271763Y-106395619D02*
X109509858Y-106395619D01*
X109509858Y-106395619D02*
X109605096Y-106348000D01*
X109605096Y-106348000D02*
X109652715Y-106300380D01*
X109652715Y-106300380D02*
X109700334Y-106205142D01*
X109700334Y-106205142D02*
X109700334Y-106109904D01*
X109700334Y-106109904D02*
X109652715Y-106014666D01*
X109652715Y-106014666D02*
X109605096Y-105967047D01*
X109605096Y-105967047D02*
X109509858Y-105919428D01*
X109509858Y-105919428D02*
X109319382Y-105871809D01*
X109319382Y-105871809D02*
X109224144Y-105824190D01*
X109224144Y-105824190D02*
X109176525Y-105776571D01*
X109176525Y-105776571D02*
X109128906Y-105681333D01*
X109128906Y-105681333D02*
X109128906Y-105586095D01*
X109128906Y-105586095D02*
X109176525Y-105490857D01*
X109176525Y-105490857D02*
X109224144Y-105443238D01*
X109224144Y-105443238D02*
X109319382Y-105395619D01*
X109319382Y-105395619D02*
X109557477Y-105395619D01*
X109557477Y-105395619D02*
X109700334Y-105443238D01*
X110271763Y-106395619D02*
X110176525Y-106348000D01*
X110176525Y-106348000D02*
X110128906Y-106300380D01*
X110128906Y-106300380D02*
X110081287Y-106205142D01*
X110081287Y-106205142D02*
X110081287Y-105919428D01*
X110081287Y-105919428D02*
X110128906Y-105824190D01*
X110128906Y-105824190D02*
X110176525Y-105776571D01*
X110176525Y-105776571D02*
X110271763Y-105728952D01*
X110271763Y-105728952D02*
X110414620Y-105728952D01*
X110414620Y-105728952D02*
X110509858Y-105776571D01*
X110509858Y-105776571D02*
X110557477Y-105824190D01*
X110557477Y-105824190D02*
X110605096Y-105919428D01*
X110605096Y-105919428D02*
X110605096Y-106205142D01*
X110605096Y-106205142D02*
X110557477Y-106300380D01*
X110557477Y-106300380D02*
X110509858Y-106348000D01*
X110509858Y-106348000D02*
X110414620Y-106395619D01*
X110414620Y-106395619D02*
X110271763Y-106395619D01*
X111033668Y-105728952D02*
X111033668Y-106395619D01*
X111033668Y-105824190D02*
X111081287Y-105776571D01*
X111081287Y-105776571D02*
X111176525Y-105728952D01*
X111176525Y-105728952D02*
X111319382Y-105728952D01*
X111319382Y-105728952D02*
X111414620Y-105776571D01*
X111414620Y-105776571D02*
X111462239Y-105871809D01*
X111462239Y-105871809D02*
X111462239Y-106395619D01*
X111938430Y-106395619D02*
X111938430Y-105728952D01*
X111938430Y-105395619D02*
X111890811Y-105443238D01*
X111890811Y-105443238D02*
X111938430Y-105490857D01*
X111938430Y-105490857D02*
X111986049Y-105443238D01*
X111986049Y-105443238D02*
X111938430Y-105395619D01*
X111938430Y-105395619D02*
X111938430Y-105490857D01*
X112843191Y-106348000D02*
X112747953Y-106395619D01*
X112747953Y-106395619D02*
X112557477Y-106395619D01*
X112557477Y-106395619D02*
X112462239Y-106348000D01*
X112462239Y-106348000D02*
X112414620Y-106300380D01*
X112414620Y-106300380D02*
X112367001Y-106205142D01*
X112367001Y-106205142D02*
X112367001Y-105919428D01*
X112367001Y-105919428D02*
X112414620Y-105824190D01*
X112414620Y-105824190D02*
X112462239Y-105776571D01*
X112462239Y-105776571D02*
X112557477Y-105728952D01*
X112557477Y-105728952D02*
X112747953Y-105728952D01*
X112747953Y-105728952D02*
X112843191Y-105776571D01*
X113176525Y-105395619D02*
X113795572Y-105395619D01*
X113795572Y-105395619D02*
X113462239Y-105776571D01*
X113462239Y-105776571D02*
X113605096Y-105776571D01*
X113605096Y-105776571D02*
X113700334Y-105824190D01*
X113700334Y-105824190D02*
X113747953Y-105871809D01*
X113747953Y-105871809D02*
X113795572Y-105967047D01*
X113795572Y-105967047D02*
X113795572Y-106205142D01*
X113795572Y-106205142D02*
X113747953Y-106300380D01*
X113747953Y-106300380D02*
X113700334Y-106348000D01*
X113700334Y-106348000D02*
X113605096Y-106395619D01*
X113605096Y-106395619D02*
X113319382Y-106395619D01*
X113319382Y-106395619D02*
X113224144Y-106348000D01*
X113224144Y-106348000D02*
X113176525Y-106300380D01*
X114843192Y-105395619D02*
X115176525Y-106395619D01*
X115176525Y-106395619D02*
X115509858Y-105395619D01*
X116224144Y-106348000D02*
X116128906Y-106395619D01*
X116128906Y-106395619D02*
X115938430Y-106395619D01*
X115938430Y-106395619D02*
X115843192Y-106348000D01*
X115843192Y-106348000D02*
X115795573Y-106252761D01*
X115795573Y-106252761D02*
X115795573Y-105871809D01*
X115795573Y-105871809D02*
X115843192Y-105776571D01*
X115843192Y-105776571D02*
X115938430Y-105728952D01*
X115938430Y-105728952D02*
X116128906Y-105728952D01*
X116128906Y-105728952D02*
X116224144Y-105776571D01*
X116224144Y-105776571D02*
X116271763Y-105871809D01*
X116271763Y-105871809D02*
X116271763Y-105967047D01*
X116271763Y-105967047D02*
X115795573Y-106062285D01*
X116700335Y-106395619D02*
X116700335Y-105728952D01*
X116700335Y-105919428D02*
X116747954Y-105824190D01*
X116747954Y-105824190D02*
X116795573Y-105776571D01*
X116795573Y-105776571D02*
X116890811Y-105728952D01*
X116890811Y-105728952D02*
X116986049Y-105728952D01*
X118271764Y-105395619D02*
X118367002Y-105395619D01*
X118367002Y-105395619D02*
X118462240Y-105443238D01*
X118462240Y-105443238D02*
X118509859Y-105490857D01*
X118509859Y-105490857D02*
X118557478Y-105586095D01*
X118557478Y-105586095D02*
X118605097Y-105776571D01*
X118605097Y-105776571D02*
X118605097Y-106014666D01*
X118605097Y-106014666D02*
X118557478Y-106205142D01*
X118557478Y-106205142D02*
X118509859Y-106300380D01*
X118509859Y-106300380D02*
X118462240Y-106348000D01*
X118462240Y-106348000D02*
X118367002Y-106395619D01*
X118367002Y-106395619D02*
X118271764Y-106395619D01*
X118271764Y-106395619D02*
X118176526Y-106348000D01*
X118176526Y-106348000D02*
X118128907Y-106300380D01*
X118128907Y-106300380D02*
X118081288Y-106205142D01*
X118081288Y-106205142D02*
X118033669Y-106014666D01*
X118033669Y-106014666D02*
X118033669Y-105776571D01*
X118033669Y-105776571D02*
X118081288Y-105586095D01*
X118081288Y-105586095D02*
X118128907Y-105490857D01*
X118128907Y-105490857D02*
X118176526Y-105443238D01*
X118176526Y-105443238D02*
X118271764Y-105395619D01*
X119033669Y-106300380D02*
X119081288Y-106348000D01*
X119081288Y-106348000D02*
X119033669Y-106395619D01*
X119033669Y-106395619D02*
X118986050Y-106348000D01*
X118986050Y-106348000D02*
X119033669Y-106300380D01*
X119033669Y-106300380D02*
X119033669Y-106395619D01*
X120033668Y-106395619D02*
X119462240Y-106395619D01*
X119747954Y-106395619D02*
X119747954Y-105395619D01*
X119747954Y-105395619D02*
X119652716Y-105538476D01*
X119652716Y-105538476D02*
X119557478Y-105633714D01*
X119557478Y-105633714D02*
X119462240Y-105681333D01*
X114167000Y-28731333D02*
X114214619Y-28826571D01*
X114214619Y-28826571D02*
X114214619Y-29017047D01*
X114214619Y-29017047D02*
X114167000Y-29112285D01*
X114167000Y-29112285D02*
X114119380Y-29159904D01*
X114119380Y-29159904D02*
X114024142Y-29207523D01*
X114024142Y-29207523D02*
X113738428Y-29207523D01*
X113738428Y-29207523D02*
X113643190Y-29159904D01*
X113643190Y-29159904D02*
X113595571Y-29112285D01*
X113595571Y-29112285D02*
X113547952Y-29017047D01*
X113547952Y-29017047D02*
X113547952Y-28826571D01*
X113547952Y-28826571D02*
X113595571Y-28731333D01*
X113547952Y-27874190D02*
X114214619Y-27874190D01*
X113547952Y-28302761D02*
X114071761Y-28302761D01*
X114071761Y-28302761D02*
X114167000Y-28255142D01*
X114167000Y-28255142D02*
X114214619Y-28159904D01*
X114214619Y-28159904D02*
X114214619Y-28017047D01*
X114214619Y-28017047D02*
X114167000Y-27921809D01*
X114167000Y-27921809D02*
X114119380Y-27874190D01*
X113547952Y-27540856D02*
X113547952Y-27159904D01*
X113214619Y-27397999D02*
X114071761Y-27397999D01*
X114071761Y-27397999D02*
X114167000Y-27350380D01*
X114167000Y-27350380D02*
X114214619Y-27255142D01*
X114214619Y-27255142D02*
X114214619Y-27159904D01*
X114214619Y-25921808D02*
X114167000Y-26017046D01*
X114167000Y-26017046D02*
X114071761Y-26064665D01*
X114071761Y-26064665D02*
X113214619Y-26064665D01*
X114214619Y-25540855D02*
X113547952Y-25540855D01*
X113214619Y-25540855D02*
X113262238Y-25588474D01*
X113262238Y-25588474D02*
X113309857Y-25540855D01*
X113309857Y-25540855D02*
X113262238Y-25493236D01*
X113262238Y-25493236D02*
X113214619Y-25540855D01*
X113214619Y-25540855D02*
X113309857Y-25540855D01*
X113547952Y-25064665D02*
X114214619Y-25064665D01*
X113643190Y-25064665D02*
X113595571Y-25017046D01*
X113595571Y-25017046D02*
X113547952Y-24921808D01*
X113547952Y-24921808D02*
X113547952Y-24778951D01*
X113547952Y-24778951D02*
X113595571Y-24683713D01*
X113595571Y-24683713D02*
X113690809Y-24636094D01*
X113690809Y-24636094D02*
X114214619Y-24636094D01*
X114167000Y-23778951D02*
X114214619Y-23874189D01*
X114214619Y-23874189D02*
X114214619Y-24064665D01*
X114214619Y-24064665D02*
X114167000Y-24159903D01*
X114167000Y-24159903D02*
X114071761Y-24207522D01*
X114071761Y-24207522D02*
X113690809Y-24207522D01*
X113690809Y-24207522D02*
X113595571Y-24159903D01*
X113595571Y-24159903D02*
X113547952Y-24064665D01*
X113547952Y-24064665D02*
X113547952Y-23874189D01*
X113547952Y-23874189D02*
X113595571Y-23778951D01*
X113595571Y-23778951D02*
X113690809Y-23731332D01*
X113690809Y-23731332D02*
X113786047Y-23731332D01*
X113786047Y-23731332D02*
X113881285Y-24207522D01*
D11*
X190155857Y-81569857D02*
X190013000Y-81498428D01*
X190013000Y-81498428D02*
X189798714Y-81498428D01*
X189798714Y-81498428D02*
X189584428Y-81569857D01*
X189584428Y-81569857D02*
X189441571Y-81712714D01*
X189441571Y-81712714D02*
X189370142Y-81855571D01*
X189370142Y-81855571D02*
X189298714Y-82141285D01*
X189298714Y-82141285D02*
X189298714Y-82355571D01*
X189298714Y-82355571D02*
X189370142Y-82641285D01*
X189370142Y-82641285D02*
X189441571Y-82784142D01*
X189441571Y-82784142D02*
X189584428Y-82927000D01*
X189584428Y-82927000D02*
X189798714Y-82998428D01*
X189798714Y-82998428D02*
X189941571Y-82998428D01*
X189941571Y-82998428D02*
X190155857Y-82927000D01*
X190155857Y-82927000D02*
X190227285Y-82855571D01*
X190227285Y-82855571D02*
X190227285Y-82355571D01*
X190227285Y-82355571D02*
X189941571Y-82355571D01*
X190870142Y-82998428D02*
X190870142Y-81498428D01*
X190870142Y-81498428D02*
X191727285Y-82998428D01*
X191727285Y-82998428D02*
X191727285Y-81498428D01*
X192441571Y-82998428D02*
X192441571Y-81498428D01*
X192441571Y-81498428D02*
X192798714Y-81498428D01*
X192798714Y-81498428D02*
X193013000Y-81569857D01*
X193013000Y-81569857D02*
X193155857Y-81712714D01*
X193155857Y-81712714D02*
X193227286Y-81855571D01*
X193227286Y-81855571D02*
X193298714Y-82141285D01*
X193298714Y-82141285D02*
X193298714Y-82355571D01*
X193298714Y-82355571D02*
X193227286Y-82641285D01*
X193227286Y-82641285D02*
X193155857Y-82784142D01*
X193155857Y-82784142D02*
X193013000Y-82927000D01*
X193013000Y-82927000D02*
X192798714Y-82998428D01*
X192798714Y-82998428D02*
X192441571Y-82998428D01*
X190155857Y-36929857D02*
X190013000Y-36858428D01*
X190013000Y-36858428D02*
X189798714Y-36858428D01*
X189798714Y-36858428D02*
X189584428Y-36929857D01*
X189584428Y-36929857D02*
X189441571Y-37072714D01*
X189441571Y-37072714D02*
X189370142Y-37215571D01*
X189370142Y-37215571D02*
X189298714Y-37501285D01*
X189298714Y-37501285D02*
X189298714Y-37715571D01*
X189298714Y-37715571D02*
X189370142Y-38001285D01*
X189370142Y-38001285D02*
X189441571Y-38144142D01*
X189441571Y-38144142D02*
X189584428Y-38287000D01*
X189584428Y-38287000D02*
X189798714Y-38358428D01*
X189798714Y-38358428D02*
X189941571Y-38358428D01*
X189941571Y-38358428D02*
X190155857Y-38287000D01*
X190155857Y-38287000D02*
X190227285Y-38215571D01*
X190227285Y-38215571D02*
X190227285Y-37715571D01*
X190227285Y-37715571D02*
X189941571Y-37715571D01*
X190870142Y-38358428D02*
X190870142Y-36858428D01*
X190870142Y-36858428D02*
X191727285Y-38358428D01*
X191727285Y-38358428D02*
X191727285Y-36858428D01*
X192441571Y-38358428D02*
X192441571Y-36858428D01*
X192441571Y-36858428D02*
X192798714Y-36858428D01*
X192798714Y-36858428D02*
X193013000Y-36929857D01*
X193013000Y-36929857D02*
X193155857Y-37072714D01*
X193155857Y-37072714D02*
X193227286Y-37215571D01*
X193227286Y-37215571D02*
X193298714Y-37501285D01*
X193298714Y-37501285D02*
X193298714Y-37715571D01*
X193298714Y-37715571D02*
X193227286Y-38001285D01*
X193227286Y-38001285D02*
X193155857Y-38144142D01*
X193155857Y-38144142D02*
X193013000Y-38287000D01*
X193013000Y-38287000D02*
X192798714Y-38358428D01*
X192798714Y-38358428D02*
X192441571Y-38358428D01*
X193401428Y-98540857D02*
X191901428Y-98540857D01*
X191901428Y-98540857D02*
X193401428Y-97683714D01*
X193401428Y-97683714D02*
X191901428Y-97683714D01*
X193258571Y-96112285D02*
X193330000Y-96183713D01*
X193330000Y-96183713D02*
X193401428Y-96397999D01*
X193401428Y-96397999D02*
X193401428Y-96540856D01*
X193401428Y-96540856D02*
X193330000Y-96755142D01*
X193330000Y-96755142D02*
X193187142Y-96897999D01*
X193187142Y-96897999D02*
X193044285Y-96969428D01*
X193044285Y-96969428D02*
X192758571Y-97040856D01*
X192758571Y-97040856D02*
X192544285Y-97040856D01*
X192544285Y-97040856D02*
X192258571Y-96969428D01*
X192258571Y-96969428D02*
X192115714Y-96897999D01*
X192115714Y-96897999D02*
X191972857Y-96755142D01*
X191972857Y-96755142D02*
X191901428Y-96540856D01*
X191901428Y-96540856D02*
X191901428Y-96397999D01*
X191901428Y-96397999D02*
X191972857Y-96183713D01*
X191972857Y-96183713D02*
X192044285Y-96112285D01*
D10*
X133518619Y-103485904D02*
X132518619Y-103485904D01*
X133518619Y-103009714D02*
X132518619Y-103009714D01*
X132518619Y-103009714D02*
X133518619Y-102438286D01*
X133518619Y-102438286D02*
X132518619Y-102438286D01*
X132994809Y-101628762D02*
X133042428Y-101485905D01*
X133042428Y-101485905D02*
X133090047Y-101438286D01*
X133090047Y-101438286D02*
X133185285Y-101390667D01*
X133185285Y-101390667D02*
X133328142Y-101390667D01*
X133328142Y-101390667D02*
X133423380Y-101438286D01*
X133423380Y-101438286D02*
X133471000Y-101485905D01*
X133471000Y-101485905D02*
X133518619Y-101581143D01*
X133518619Y-101581143D02*
X133518619Y-101962095D01*
X133518619Y-101962095D02*
X132518619Y-101962095D01*
X132518619Y-101962095D02*
X132518619Y-101628762D01*
X132518619Y-101628762D02*
X132566238Y-101533524D01*
X132566238Y-101533524D02*
X132613857Y-101485905D01*
X132613857Y-101485905D02*
X132709095Y-101438286D01*
X132709095Y-101438286D02*
X132804333Y-101438286D01*
X132804333Y-101438286D02*
X132899571Y-101485905D01*
X132899571Y-101485905D02*
X132947190Y-101533524D01*
X132947190Y-101533524D02*
X132994809Y-101628762D01*
X132994809Y-101628762D02*
X132994809Y-101962095D01*
X133518619Y-36525904D02*
X132518619Y-36525904D01*
X133518619Y-36049714D02*
X132518619Y-36049714D01*
X132518619Y-36049714D02*
X133518619Y-35478286D01*
X133518619Y-35478286D02*
X132518619Y-35478286D01*
X132994809Y-34668762D02*
X133042428Y-34525905D01*
X133042428Y-34525905D02*
X133090047Y-34478286D01*
X133090047Y-34478286D02*
X133185285Y-34430667D01*
X133185285Y-34430667D02*
X133328142Y-34430667D01*
X133328142Y-34430667D02*
X133423380Y-34478286D01*
X133423380Y-34478286D02*
X133471000Y-34525905D01*
X133471000Y-34525905D02*
X133518619Y-34621143D01*
X133518619Y-34621143D02*
X133518619Y-35002095D01*
X133518619Y-35002095D02*
X132518619Y-35002095D01*
X132518619Y-35002095D02*
X132518619Y-34668762D01*
X132518619Y-34668762D02*
X132566238Y-34573524D01*
X132566238Y-34573524D02*
X132613857Y-34525905D01*
X132613857Y-34525905D02*
X132709095Y-34478286D01*
X132709095Y-34478286D02*
X132804333Y-34478286D01*
X132804333Y-34478286D02*
X132899571Y-34525905D01*
X132899571Y-34525905D02*
X132947190Y-34573524D01*
X132947190Y-34573524D02*
X132994809Y-34668762D01*
X132994809Y-34668762D02*
X132994809Y-35002095D01*
X130470619Y-58845904D02*
X129470619Y-58845904D01*
X130470619Y-58369714D02*
X129470619Y-58369714D01*
X129470619Y-58369714D02*
X130470619Y-57798286D01*
X130470619Y-57798286D02*
X129470619Y-57798286D01*
X130184904Y-57369714D02*
X130184904Y-56893524D01*
X130470619Y-57464952D02*
X129470619Y-57131619D01*
X129470619Y-57131619D02*
X130470619Y-56798286D01*
X130470619Y-103485904D02*
X129470619Y-103485904D01*
X130470619Y-103009714D02*
X129470619Y-103009714D01*
X129470619Y-103009714D02*
X130470619Y-102438286D01*
X130470619Y-102438286D02*
X129470619Y-102438286D01*
X130184904Y-102009714D02*
X130184904Y-101533524D01*
X130470619Y-102104952D02*
X129470619Y-101771619D01*
X129470619Y-101771619D02*
X130470619Y-101438286D01*
X110933304Y-100515638D02*
X110838066Y-100468019D01*
X110838066Y-100468019D02*
X110695209Y-100468019D01*
X110695209Y-100468019D02*
X110552352Y-100515638D01*
X110552352Y-100515638D02*
X110457114Y-100610876D01*
X110457114Y-100610876D02*
X110409495Y-100706114D01*
X110409495Y-100706114D02*
X110361876Y-100896590D01*
X110361876Y-100896590D02*
X110361876Y-101039447D01*
X110361876Y-101039447D02*
X110409495Y-101229923D01*
X110409495Y-101229923D02*
X110457114Y-101325161D01*
X110457114Y-101325161D02*
X110552352Y-101420400D01*
X110552352Y-101420400D02*
X110695209Y-101468019D01*
X110695209Y-101468019D02*
X110790447Y-101468019D01*
X110790447Y-101468019D02*
X110933304Y-101420400D01*
X110933304Y-101420400D02*
X110980923Y-101372780D01*
X110980923Y-101372780D02*
X110980923Y-101039447D01*
X110980923Y-101039447D02*
X110790447Y-101039447D01*
X110933304Y-55875638D02*
X110838066Y-55828019D01*
X110838066Y-55828019D02*
X110695209Y-55828019D01*
X110695209Y-55828019D02*
X110552352Y-55875638D01*
X110552352Y-55875638D02*
X110457114Y-55970876D01*
X110457114Y-55970876D02*
X110409495Y-56066114D01*
X110409495Y-56066114D02*
X110361876Y-56256590D01*
X110361876Y-56256590D02*
X110361876Y-56399447D01*
X110361876Y-56399447D02*
X110409495Y-56589923D01*
X110409495Y-56589923D02*
X110457114Y-56685161D01*
X110457114Y-56685161D02*
X110552352Y-56780400D01*
X110552352Y-56780400D02*
X110695209Y-56828019D01*
X110695209Y-56828019D02*
X110790447Y-56828019D01*
X110790447Y-56828019D02*
X110933304Y-56780400D01*
X110933304Y-56780400D02*
X110980923Y-56732780D01*
X110980923Y-56732780D02*
X110980923Y-56399447D01*
X110980923Y-56399447D02*
X110790447Y-56399447D01*
D11*
X193401428Y-53900857D02*
X191901428Y-53900857D01*
X191901428Y-53900857D02*
X193401428Y-53043714D01*
X193401428Y-53043714D02*
X191901428Y-53043714D01*
X193258571Y-51472285D02*
X193330000Y-51543713D01*
X193330000Y-51543713D02*
X193401428Y-51757999D01*
X193401428Y-51757999D02*
X193401428Y-51900856D01*
X193401428Y-51900856D02*
X193330000Y-52115142D01*
X193330000Y-52115142D02*
X193187142Y-52257999D01*
X193187142Y-52257999D02*
X193044285Y-52329428D01*
X193044285Y-52329428D02*
X192758571Y-52400856D01*
X192758571Y-52400856D02*
X192544285Y-52400856D01*
X192544285Y-52400856D02*
X192258571Y-52329428D01*
X192258571Y-52329428D02*
X192115714Y-52257999D01*
X192115714Y-52257999D02*
X191972857Y-52115142D01*
X191972857Y-52115142D02*
X191901428Y-51900856D01*
X191901428Y-51900856D02*
X191901428Y-51757999D01*
X191901428Y-51757999D02*
X191972857Y-51543713D01*
X191972857Y-51543713D02*
X192044285Y-51472285D01*
D10*
X111797000Y-29906000D02*
X111797000Y-22794000D01*
X111797000Y-96866000D02*
X111797000Y-89754000D01*
X112813000Y-93818000D02*
X112813000Y-92802000D01*
X112813000Y-24572000D02*
X112813000Y-22794000D01*
X111797000Y-74546000D02*
X111797000Y-67434000D01*
X112813000Y-26858000D02*
X112813000Y-25842000D01*
X112813000Y-49178000D02*
X112813000Y-48162000D01*
X112813000Y-91532000D02*
X112813000Y-89754000D01*
X112813000Y-52226000D02*
X112813000Y-50448000D01*
X112813000Y-71498000D02*
X112813000Y-70482000D01*
X112813000Y-74546000D02*
X112813000Y-72768000D01*
X112813000Y-46892000D02*
X112813000Y-45114000D01*
X111797000Y-52226000D02*
X111797000Y-45114000D01*
X112813000Y-96866000D02*
X112813000Y-95088000D01*
X112813000Y-29906000D02*
X112813000Y-28128000D01*
X112813000Y-69212000D02*
X112813000Y-67434000D01*
%TO.C,JP2*%
X116080666Y-97874619D02*
X116080666Y-98588904D01*
X116080666Y-98588904D02*
X116033047Y-98731761D01*
X116033047Y-98731761D02*
X115937809Y-98827000D01*
X115937809Y-98827000D02*
X115794952Y-98874619D01*
X115794952Y-98874619D02*
X115699714Y-98874619D01*
X116556857Y-98874619D02*
X116556857Y-97874619D01*
X116556857Y-97874619D02*
X116937809Y-97874619D01*
X116937809Y-97874619D02*
X117033047Y-97922238D01*
X117033047Y-97922238D02*
X117080666Y-97969857D01*
X117080666Y-97969857D02*
X117128285Y-98065095D01*
X117128285Y-98065095D02*
X117128285Y-98207952D01*
X117128285Y-98207952D02*
X117080666Y-98303190D01*
X117080666Y-98303190D02*
X117033047Y-98350809D01*
X117033047Y-98350809D02*
X116937809Y-98398428D01*
X116937809Y-98398428D02*
X116556857Y-98398428D01*
X117509238Y-97969857D02*
X117556857Y-97922238D01*
X117556857Y-97922238D02*
X117652095Y-97874619D01*
X117652095Y-97874619D02*
X117890190Y-97874619D01*
X117890190Y-97874619D02*
X117985428Y-97922238D01*
X117985428Y-97922238D02*
X118033047Y-97969857D01*
X118033047Y-97969857D02*
X118080666Y-98065095D01*
X118080666Y-98065095D02*
X118080666Y-98160333D01*
X118080666Y-98160333D02*
X118033047Y-98303190D01*
X118033047Y-98303190D02*
X117461619Y-98874619D01*
X117461619Y-98874619D02*
X118080666Y-98874619D01*
%TO.C,C1*%
X132204333Y-68911380D02*
X132156714Y-68959000D01*
X132156714Y-68959000D02*
X132013857Y-69006619D01*
X132013857Y-69006619D02*
X131918619Y-69006619D01*
X131918619Y-69006619D02*
X131775762Y-68959000D01*
X131775762Y-68959000D02*
X131680524Y-68863761D01*
X131680524Y-68863761D02*
X131632905Y-68768523D01*
X131632905Y-68768523D02*
X131585286Y-68578047D01*
X131585286Y-68578047D02*
X131585286Y-68435190D01*
X131585286Y-68435190D02*
X131632905Y-68244714D01*
X131632905Y-68244714D02*
X131680524Y-68149476D01*
X131680524Y-68149476D02*
X131775762Y-68054238D01*
X131775762Y-68054238D02*
X131918619Y-68006619D01*
X131918619Y-68006619D02*
X132013857Y-68006619D01*
X132013857Y-68006619D02*
X132156714Y-68054238D01*
X132156714Y-68054238D02*
X132204333Y-68101857D01*
X133156714Y-69006619D02*
X132585286Y-69006619D01*
X132871000Y-69006619D02*
X132871000Y-68006619D01*
X132871000Y-68006619D02*
X132775762Y-68149476D01*
X132775762Y-68149476D02*
X132680524Y-68244714D01*
X132680524Y-68244714D02*
X132585286Y-68292333D01*
D12*
%TO.C,IC1*%
X138292526Y-82897762D02*
X137022526Y-82897762D01*
X138171573Y-81567285D02*
X138232050Y-81627761D01*
X138232050Y-81627761D02*
X138292526Y-81809190D01*
X138292526Y-81809190D02*
X138292526Y-81930142D01*
X138292526Y-81930142D02*
X138232050Y-82111571D01*
X138232050Y-82111571D02*
X138111097Y-82232523D01*
X138111097Y-82232523D02*
X137990145Y-82293000D01*
X137990145Y-82293000D02*
X137748240Y-82353476D01*
X137748240Y-82353476D02*
X137566811Y-82353476D01*
X137566811Y-82353476D02*
X137324907Y-82293000D01*
X137324907Y-82293000D02*
X137203954Y-82232523D01*
X137203954Y-82232523D02*
X137083002Y-82111571D01*
X137083002Y-82111571D02*
X137022526Y-81930142D01*
X137022526Y-81930142D02*
X137022526Y-81809190D01*
X137022526Y-81809190D02*
X137083002Y-81627761D01*
X137083002Y-81627761D02*
X137143478Y-81567285D01*
X138292526Y-80357761D02*
X138292526Y-81083476D01*
X138292526Y-80720619D02*
X137022526Y-80720619D01*
X137022526Y-80720619D02*
X137203954Y-80841571D01*
X137203954Y-80841571D02*
X137324907Y-80962523D01*
X137324907Y-80962523D02*
X137385383Y-81083476D01*
%TO.C,IC2*%
X155056526Y-105217762D02*
X153786526Y-105217762D01*
X154935573Y-103887285D02*
X154996050Y-103947761D01*
X154996050Y-103947761D02*
X155056526Y-104129190D01*
X155056526Y-104129190D02*
X155056526Y-104250142D01*
X155056526Y-104250142D02*
X154996050Y-104431571D01*
X154996050Y-104431571D02*
X154875097Y-104552523D01*
X154875097Y-104552523D02*
X154754145Y-104613000D01*
X154754145Y-104613000D02*
X154512240Y-104673476D01*
X154512240Y-104673476D02*
X154330811Y-104673476D01*
X154330811Y-104673476D02*
X154088907Y-104613000D01*
X154088907Y-104613000D02*
X153967954Y-104552523D01*
X153967954Y-104552523D02*
X153847002Y-104431571D01*
X153847002Y-104431571D02*
X153786526Y-104250142D01*
X153786526Y-104250142D02*
X153786526Y-104129190D01*
X153786526Y-104129190D02*
X153847002Y-103947761D01*
X153847002Y-103947761D02*
X153907478Y-103887285D01*
X153907478Y-103403476D02*
X153847002Y-103343000D01*
X153847002Y-103343000D02*
X153786526Y-103222047D01*
X153786526Y-103222047D02*
X153786526Y-102919666D01*
X153786526Y-102919666D02*
X153847002Y-102798714D01*
X153847002Y-102798714D02*
X153907478Y-102738238D01*
X153907478Y-102738238D02*
X154028430Y-102677761D01*
X154028430Y-102677761D02*
X154149383Y-102677761D01*
X154149383Y-102677761D02*
X154330811Y-102738238D01*
X154330811Y-102738238D02*
X155056526Y-103463952D01*
X155056526Y-103463952D02*
X155056526Y-102677761D01*
D10*
%TO.C,C2*%
X175566380Y-68565866D02*
X175614000Y-68613485D01*
X175614000Y-68613485D02*
X175661619Y-68756342D01*
X175661619Y-68756342D02*
X175661619Y-68851580D01*
X175661619Y-68851580D02*
X175614000Y-68994437D01*
X175614000Y-68994437D02*
X175518761Y-69089675D01*
X175518761Y-69089675D02*
X175423523Y-69137294D01*
X175423523Y-69137294D02*
X175233047Y-69184913D01*
X175233047Y-69184913D02*
X175090190Y-69184913D01*
X175090190Y-69184913D02*
X174899714Y-69137294D01*
X174899714Y-69137294D02*
X174804476Y-69089675D01*
X174804476Y-69089675D02*
X174709238Y-68994437D01*
X174709238Y-68994437D02*
X174661619Y-68851580D01*
X174661619Y-68851580D02*
X174661619Y-68756342D01*
X174661619Y-68756342D02*
X174709238Y-68613485D01*
X174709238Y-68613485D02*
X174756857Y-68565866D01*
X174756857Y-68184913D02*
X174709238Y-68137294D01*
X174709238Y-68137294D02*
X174661619Y-68042056D01*
X174661619Y-68042056D02*
X174661619Y-67803961D01*
X174661619Y-67803961D02*
X174709238Y-67708723D01*
X174709238Y-67708723D02*
X174756857Y-67661104D01*
X174756857Y-67661104D02*
X174852095Y-67613485D01*
X174852095Y-67613485D02*
X174947333Y-67613485D01*
X174947333Y-67613485D02*
X175090190Y-67661104D01*
X175090190Y-67661104D02*
X175661619Y-68232532D01*
X175661619Y-68232532D02*
X175661619Y-67613485D01*
%TO.C,JP2*%
X116080666Y-30914619D02*
X116080666Y-31628904D01*
X116080666Y-31628904D02*
X116033047Y-31771761D01*
X116033047Y-31771761D02*
X115937809Y-31867000D01*
X115937809Y-31867000D02*
X115794952Y-31914619D01*
X115794952Y-31914619D02*
X115699714Y-31914619D01*
X116556857Y-31914619D02*
X116556857Y-30914619D01*
X116556857Y-30914619D02*
X116937809Y-30914619D01*
X116937809Y-30914619D02*
X117033047Y-30962238D01*
X117033047Y-30962238D02*
X117080666Y-31009857D01*
X117080666Y-31009857D02*
X117128285Y-31105095D01*
X117128285Y-31105095D02*
X117128285Y-31247952D01*
X117128285Y-31247952D02*
X117080666Y-31343190D01*
X117080666Y-31343190D02*
X117033047Y-31390809D01*
X117033047Y-31390809D02*
X116937809Y-31438428D01*
X116937809Y-31438428D02*
X116556857Y-31438428D01*
X117509238Y-31009857D02*
X117556857Y-30962238D01*
X117556857Y-30962238D02*
X117652095Y-30914619D01*
X117652095Y-30914619D02*
X117890190Y-30914619D01*
X117890190Y-30914619D02*
X117985428Y-30962238D01*
X117985428Y-30962238D02*
X118033047Y-31009857D01*
X118033047Y-31009857D02*
X118080666Y-31105095D01*
X118080666Y-31105095D02*
X118080666Y-31200333D01*
X118080666Y-31200333D02*
X118033047Y-31343190D01*
X118033047Y-31343190D02*
X117461619Y-31914619D01*
X117461619Y-31914619D02*
X118080666Y-31914619D01*
%TO.C,J3*%
X108415666Y-87902619D02*
X108415666Y-88616904D01*
X108415666Y-88616904D02*
X108368047Y-88759761D01*
X108368047Y-88759761D02*
X108272809Y-88855000D01*
X108272809Y-88855000D02*
X108129952Y-88902619D01*
X108129952Y-88902619D02*
X108034714Y-88902619D01*
X108796619Y-87902619D02*
X109415666Y-87902619D01*
X109415666Y-87902619D02*
X109082333Y-88283571D01*
X109082333Y-88283571D02*
X109225190Y-88283571D01*
X109225190Y-88283571D02*
X109320428Y-88331190D01*
X109320428Y-88331190D02*
X109368047Y-88378809D01*
X109368047Y-88378809D02*
X109415666Y-88474047D01*
X109415666Y-88474047D02*
X109415666Y-88712142D01*
X109415666Y-88712142D02*
X109368047Y-88807380D01*
X109368047Y-88807380D02*
X109320428Y-88855000D01*
X109320428Y-88855000D02*
X109225190Y-88902619D01*
X109225190Y-88902619D02*
X108939476Y-88902619D01*
X108939476Y-88902619D02*
X108844238Y-88855000D01*
X108844238Y-88855000D02*
X108796619Y-88807380D01*
%TO.C,JP1*%
X116080666Y-103970619D02*
X116080666Y-104684904D01*
X116080666Y-104684904D02*
X116033047Y-104827761D01*
X116033047Y-104827761D02*
X115937809Y-104923000D01*
X115937809Y-104923000D02*
X115794952Y-104970619D01*
X115794952Y-104970619D02*
X115699714Y-104970619D01*
X116556857Y-104970619D02*
X116556857Y-103970619D01*
X116556857Y-103970619D02*
X116937809Y-103970619D01*
X116937809Y-103970619D02*
X117033047Y-104018238D01*
X117033047Y-104018238D02*
X117080666Y-104065857D01*
X117080666Y-104065857D02*
X117128285Y-104161095D01*
X117128285Y-104161095D02*
X117128285Y-104303952D01*
X117128285Y-104303952D02*
X117080666Y-104399190D01*
X117080666Y-104399190D02*
X117033047Y-104446809D01*
X117033047Y-104446809D02*
X116937809Y-104494428D01*
X116937809Y-104494428D02*
X116556857Y-104494428D01*
X118080666Y-104970619D02*
X117509238Y-104970619D01*
X117794952Y-104970619D02*
X117794952Y-103970619D01*
X117794952Y-103970619D02*
X117699714Y-104113476D01*
X117699714Y-104113476D02*
X117604476Y-104208714D01*
X117604476Y-104208714D02*
X117509238Y-104256333D01*
%TO.C,JP2*%
X116080666Y-53234619D02*
X116080666Y-53948904D01*
X116080666Y-53948904D02*
X116033047Y-54091761D01*
X116033047Y-54091761D02*
X115937809Y-54187000D01*
X115937809Y-54187000D02*
X115794952Y-54234619D01*
X115794952Y-54234619D02*
X115699714Y-54234619D01*
X116556857Y-54234619D02*
X116556857Y-53234619D01*
X116556857Y-53234619D02*
X116937809Y-53234619D01*
X116937809Y-53234619D02*
X117033047Y-53282238D01*
X117033047Y-53282238D02*
X117080666Y-53329857D01*
X117080666Y-53329857D02*
X117128285Y-53425095D01*
X117128285Y-53425095D02*
X117128285Y-53567952D01*
X117128285Y-53567952D02*
X117080666Y-53663190D01*
X117080666Y-53663190D02*
X117033047Y-53710809D01*
X117033047Y-53710809D02*
X116937809Y-53758428D01*
X116937809Y-53758428D02*
X116556857Y-53758428D01*
X117509238Y-53329857D02*
X117556857Y-53282238D01*
X117556857Y-53282238D02*
X117652095Y-53234619D01*
X117652095Y-53234619D02*
X117890190Y-53234619D01*
X117890190Y-53234619D02*
X117985428Y-53282238D01*
X117985428Y-53282238D02*
X118033047Y-53329857D01*
X118033047Y-53329857D02*
X118080666Y-53425095D01*
X118080666Y-53425095D02*
X118080666Y-53520333D01*
X118080666Y-53520333D02*
X118033047Y-53663190D01*
X118033047Y-53663190D02*
X117461619Y-54234619D01*
X117461619Y-54234619D02*
X118080666Y-54234619D01*
%TO.C,C3*%
X148841333Y-68911380D02*
X148793714Y-68959000D01*
X148793714Y-68959000D02*
X148650857Y-69006619D01*
X148650857Y-69006619D02*
X148555619Y-69006619D01*
X148555619Y-69006619D02*
X148412762Y-68959000D01*
X148412762Y-68959000D02*
X148317524Y-68863761D01*
X148317524Y-68863761D02*
X148269905Y-68768523D01*
X148269905Y-68768523D02*
X148222286Y-68578047D01*
X148222286Y-68578047D02*
X148222286Y-68435190D01*
X148222286Y-68435190D02*
X148269905Y-68244714D01*
X148269905Y-68244714D02*
X148317524Y-68149476D01*
X148317524Y-68149476D02*
X148412762Y-68054238D01*
X148412762Y-68054238D02*
X148555619Y-68006619D01*
X148555619Y-68006619D02*
X148650857Y-68006619D01*
X148650857Y-68006619D02*
X148793714Y-68054238D01*
X148793714Y-68054238D02*
X148841333Y-68101857D01*
X149174667Y-68006619D02*
X149793714Y-68006619D01*
X149793714Y-68006619D02*
X149460381Y-68387571D01*
X149460381Y-68387571D02*
X149603238Y-68387571D01*
X149603238Y-68387571D02*
X149698476Y-68435190D01*
X149698476Y-68435190D02*
X149746095Y-68482809D01*
X149746095Y-68482809D02*
X149793714Y-68578047D01*
X149793714Y-68578047D02*
X149793714Y-68816142D01*
X149793714Y-68816142D02*
X149746095Y-68911380D01*
X149746095Y-68911380D02*
X149698476Y-68959000D01*
X149698476Y-68959000D02*
X149603238Y-69006619D01*
X149603238Y-69006619D02*
X149317524Y-69006619D01*
X149317524Y-69006619D02*
X149222286Y-68959000D01*
X149222286Y-68959000D02*
X149174667Y-68911380D01*
X148841333Y-46591380D02*
X148793714Y-46639000D01*
X148793714Y-46639000D02*
X148650857Y-46686619D01*
X148650857Y-46686619D02*
X148555619Y-46686619D01*
X148555619Y-46686619D02*
X148412762Y-46639000D01*
X148412762Y-46639000D02*
X148317524Y-46543761D01*
X148317524Y-46543761D02*
X148269905Y-46448523D01*
X148269905Y-46448523D02*
X148222286Y-46258047D01*
X148222286Y-46258047D02*
X148222286Y-46115190D01*
X148222286Y-46115190D02*
X148269905Y-45924714D01*
X148269905Y-45924714D02*
X148317524Y-45829476D01*
X148317524Y-45829476D02*
X148412762Y-45734238D01*
X148412762Y-45734238D02*
X148555619Y-45686619D01*
X148555619Y-45686619D02*
X148650857Y-45686619D01*
X148650857Y-45686619D02*
X148793714Y-45734238D01*
X148793714Y-45734238D02*
X148841333Y-45781857D01*
X149174667Y-45686619D02*
X149793714Y-45686619D01*
X149793714Y-45686619D02*
X149460381Y-46067571D01*
X149460381Y-46067571D02*
X149603238Y-46067571D01*
X149603238Y-46067571D02*
X149698476Y-46115190D01*
X149698476Y-46115190D02*
X149746095Y-46162809D01*
X149746095Y-46162809D02*
X149793714Y-46258047D01*
X149793714Y-46258047D02*
X149793714Y-46496142D01*
X149793714Y-46496142D02*
X149746095Y-46591380D01*
X149746095Y-46591380D02*
X149698476Y-46639000D01*
X149698476Y-46639000D02*
X149603238Y-46686619D01*
X149603238Y-46686619D02*
X149317524Y-46686619D01*
X149317524Y-46686619D02*
X149222286Y-46639000D01*
X149222286Y-46639000D02*
X149174667Y-46591380D01*
D12*
%TO.C,IC2*%
X155056526Y-60577762D02*
X153786526Y-60577762D01*
X154935573Y-59247285D02*
X154996050Y-59307761D01*
X154996050Y-59307761D02*
X155056526Y-59489190D01*
X155056526Y-59489190D02*
X155056526Y-59610142D01*
X155056526Y-59610142D02*
X154996050Y-59791571D01*
X154996050Y-59791571D02*
X154875097Y-59912523D01*
X154875097Y-59912523D02*
X154754145Y-59973000D01*
X154754145Y-59973000D02*
X154512240Y-60033476D01*
X154512240Y-60033476D02*
X154330811Y-60033476D01*
X154330811Y-60033476D02*
X154088907Y-59973000D01*
X154088907Y-59973000D02*
X153967954Y-59912523D01*
X153967954Y-59912523D02*
X153847002Y-59791571D01*
X153847002Y-59791571D02*
X153786526Y-59610142D01*
X153786526Y-59610142D02*
X153786526Y-59489190D01*
X153786526Y-59489190D02*
X153847002Y-59307761D01*
X153847002Y-59307761D02*
X153907478Y-59247285D01*
X153907478Y-58763476D02*
X153847002Y-58703000D01*
X153847002Y-58703000D02*
X153786526Y-58582047D01*
X153786526Y-58582047D02*
X153786526Y-58279666D01*
X153786526Y-58279666D02*
X153847002Y-58158714D01*
X153847002Y-58158714D02*
X153907478Y-58098238D01*
X153907478Y-58098238D02*
X154028430Y-58037761D01*
X154028430Y-58037761D02*
X154149383Y-58037761D01*
X154149383Y-58037761D02*
X154330811Y-58098238D01*
X154330811Y-58098238D02*
X155056526Y-58823952D01*
X155056526Y-58823952D02*
X155056526Y-58037761D01*
%TO.C,U3*%
X163692526Y-31381619D02*
X164720621Y-31381619D01*
X164720621Y-31381619D02*
X164841573Y-31321142D01*
X164841573Y-31321142D02*
X164902050Y-31260666D01*
X164902050Y-31260666D02*
X164962526Y-31139714D01*
X164962526Y-31139714D02*
X164962526Y-30897809D01*
X164962526Y-30897809D02*
X164902050Y-30776857D01*
X164902050Y-30776857D02*
X164841573Y-30716380D01*
X164841573Y-30716380D02*
X164720621Y-30655904D01*
X164720621Y-30655904D02*
X163692526Y-30655904D01*
X163692526Y-30172095D02*
X163692526Y-29385904D01*
X163692526Y-29385904D02*
X164176335Y-29809238D01*
X164176335Y-29809238D02*
X164176335Y-29627809D01*
X164176335Y-29627809D02*
X164236811Y-29506857D01*
X164236811Y-29506857D02*
X164297288Y-29446381D01*
X164297288Y-29446381D02*
X164418240Y-29385904D01*
X164418240Y-29385904D02*
X164720621Y-29385904D01*
X164720621Y-29385904D02*
X164841573Y-29446381D01*
X164841573Y-29446381D02*
X164902050Y-29506857D01*
X164902050Y-29506857D02*
X164962526Y-29627809D01*
X164962526Y-29627809D02*
X164962526Y-29990666D01*
X164962526Y-29990666D02*
X164902050Y-30111619D01*
X164902050Y-30111619D02*
X164841573Y-30172095D01*
D10*
%TO.C,J2*%
X176487666Y-104964619D02*
X176487666Y-105678904D01*
X176487666Y-105678904D02*
X176440047Y-105821761D01*
X176440047Y-105821761D02*
X176344809Y-105917000D01*
X176344809Y-105917000D02*
X176201952Y-105964619D01*
X176201952Y-105964619D02*
X176106714Y-105964619D01*
X176916238Y-105059857D02*
X176963857Y-105012238D01*
X176963857Y-105012238D02*
X177059095Y-104964619D01*
X177059095Y-104964619D02*
X177297190Y-104964619D01*
X177297190Y-104964619D02*
X177392428Y-105012238D01*
X177392428Y-105012238D02*
X177440047Y-105059857D01*
X177440047Y-105059857D02*
X177487666Y-105155095D01*
X177487666Y-105155095D02*
X177487666Y-105250333D01*
X177487666Y-105250333D02*
X177440047Y-105393190D01*
X177440047Y-105393190D02*
X176868619Y-105964619D01*
X176868619Y-105964619D02*
X177487666Y-105964619D01*
%TO.C,JP3*%
X116080666Y-92032619D02*
X116080666Y-92746904D01*
X116080666Y-92746904D02*
X116033047Y-92889761D01*
X116033047Y-92889761D02*
X115937809Y-92985000D01*
X115937809Y-92985000D02*
X115794952Y-93032619D01*
X115794952Y-93032619D02*
X115699714Y-93032619D01*
X116556857Y-93032619D02*
X116556857Y-92032619D01*
X116556857Y-92032619D02*
X116937809Y-92032619D01*
X116937809Y-92032619D02*
X117033047Y-92080238D01*
X117033047Y-92080238D02*
X117080666Y-92127857D01*
X117080666Y-92127857D02*
X117128285Y-92223095D01*
X117128285Y-92223095D02*
X117128285Y-92365952D01*
X117128285Y-92365952D02*
X117080666Y-92461190D01*
X117080666Y-92461190D02*
X117033047Y-92508809D01*
X117033047Y-92508809D02*
X116937809Y-92556428D01*
X116937809Y-92556428D02*
X116556857Y-92556428D01*
X117461619Y-92032619D02*
X118080666Y-92032619D01*
X118080666Y-92032619D02*
X117747333Y-92413571D01*
X117747333Y-92413571D02*
X117890190Y-92413571D01*
X117890190Y-92413571D02*
X117985428Y-92461190D01*
X117985428Y-92461190D02*
X118033047Y-92508809D01*
X118033047Y-92508809D02*
X118080666Y-92604047D01*
X118080666Y-92604047D02*
X118080666Y-92842142D01*
X118080666Y-92842142D02*
X118033047Y-92937380D01*
X118033047Y-92937380D02*
X117985428Y-92985000D01*
X117985428Y-92985000D02*
X117890190Y-93032619D01*
X117890190Y-93032619D02*
X117604476Y-93032619D01*
X117604476Y-93032619D02*
X117509238Y-92985000D01*
X117509238Y-92985000D02*
X117461619Y-92937380D01*
%TO.C,C1*%
X132204333Y-46591380D02*
X132156714Y-46639000D01*
X132156714Y-46639000D02*
X132013857Y-46686619D01*
X132013857Y-46686619D02*
X131918619Y-46686619D01*
X131918619Y-46686619D02*
X131775762Y-46639000D01*
X131775762Y-46639000D02*
X131680524Y-46543761D01*
X131680524Y-46543761D02*
X131632905Y-46448523D01*
X131632905Y-46448523D02*
X131585286Y-46258047D01*
X131585286Y-46258047D02*
X131585286Y-46115190D01*
X131585286Y-46115190D02*
X131632905Y-45924714D01*
X131632905Y-45924714D02*
X131680524Y-45829476D01*
X131680524Y-45829476D02*
X131775762Y-45734238D01*
X131775762Y-45734238D02*
X131918619Y-45686619D01*
X131918619Y-45686619D02*
X132013857Y-45686619D01*
X132013857Y-45686619D02*
X132156714Y-45734238D01*
X132156714Y-45734238D02*
X132204333Y-45781857D01*
X133156714Y-46686619D02*
X132585286Y-46686619D01*
X132871000Y-46686619D02*
X132871000Y-45686619D01*
X132871000Y-45686619D02*
X132775762Y-45829476D01*
X132775762Y-45829476D02*
X132680524Y-45924714D01*
X132680524Y-45924714D02*
X132585286Y-45972333D01*
%TO.C,J2*%
X176487666Y-82644619D02*
X176487666Y-83358904D01*
X176487666Y-83358904D02*
X176440047Y-83501761D01*
X176440047Y-83501761D02*
X176344809Y-83597000D01*
X176344809Y-83597000D02*
X176201952Y-83644619D01*
X176201952Y-83644619D02*
X176106714Y-83644619D01*
X176916238Y-82739857D02*
X176963857Y-82692238D01*
X176963857Y-82692238D02*
X177059095Y-82644619D01*
X177059095Y-82644619D02*
X177297190Y-82644619D01*
X177297190Y-82644619D02*
X177392428Y-82692238D01*
X177392428Y-82692238D02*
X177440047Y-82739857D01*
X177440047Y-82739857D02*
X177487666Y-82835095D01*
X177487666Y-82835095D02*
X177487666Y-82930333D01*
X177487666Y-82930333D02*
X177440047Y-83073190D01*
X177440047Y-83073190D02*
X176868619Y-83644619D01*
X176868619Y-83644619D02*
X177487666Y-83644619D01*
%TO.C,C2*%
X175566380Y-23925866D02*
X175614000Y-23973485D01*
X175614000Y-23973485D02*
X175661619Y-24116342D01*
X175661619Y-24116342D02*
X175661619Y-24211580D01*
X175661619Y-24211580D02*
X175614000Y-24354437D01*
X175614000Y-24354437D02*
X175518761Y-24449675D01*
X175518761Y-24449675D02*
X175423523Y-24497294D01*
X175423523Y-24497294D02*
X175233047Y-24544913D01*
X175233047Y-24544913D02*
X175090190Y-24544913D01*
X175090190Y-24544913D02*
X174899714Y-24497294D01*
X174899714Y-24497294D02*
X174804476Y-24449675D01*
X174804476Y-24449675D02*
X174709238Y-24354437D01*
X174709238Y-24354437D02*
X174661619Y-24211580D01*
X174661619Y-24211580D02*
X174661619Y-24116342D01*
X174661619Y-24116342D02*
X174709238Y-23973485D01*
X174709238Y-23973485D02*
X174756857Y-23925866D01*
X174756857Y-23544913D02*
X174709238Y-23497294D01*
X174709238Y-23497294D02*
X174661619Y-23402056D01*
X174661619Y-23402056D02*
X174661619Y-23163961D01*
X174661619Y-23163961D02*
X174709238Y-23068723D01*
X174709238Y-23068723D02*
X174756857Y-23021104D01*
X174756857Y-23021104D02*
X174852095Y-22973485D01*
X174852095Y-22973485D02*
X174947333Y-22973485D01*
X174947333Y-22973485D02*
X175090190Y-23021104D01*
X175090190Y-23021104D02*
X175661619Y-23592532D01*
X175661619Y-23592532D02*
X175661619Y-22973485D01*
D12*
%TO.C,U2*%
X146881526Y-53701619D02*
X147909621Y-53701619D01*
X147909621Y-53701619D02*
X148030573Y-53641142D01*
X148030573Y-53641142D02*
X148091050Y-53580666D01*
X148091050Y-53580666D02*
X148151526Y-53459714D01*
X148151526Y-53459714D02*
X148151526Y-53217809D01*
X148151526Y-53217809D02*
X148091050Y-53096857D01*
X148091050Y-53096857D02*
X148030573Y-53036380D01*
X148030573Y-53036380D02*
X147909621Y-52975904D01*
X147909621Y-52975904D02*
X146881526Y-52975904D01*
X147002478Y-52431619D02*
X146942002Y-52371143D01*
X146942002Y-52371143D02*
X146881526Y-52250190D01*
X146881526Y-52250190D02*
X146881526Y-51947809D01*
X146881526Y-51947809D02*
X146942002Y-51826857D01*
X146942002Y-51826857D02*
X147002478Y-51766381D01*
X147002478Y-51766381D02*
X147123430Y-51705904D01*
X147123430Y-51705904D02*
X147244383Y-51705904D01*
X147244383Y-51705904D02*
X147425811Y-51766381D01*
X147425811Y-51766381D02*
X148151526Y-52492095D01*
X148151526Y-52492095D02*
X148151526Y-51705904D01*
%TO.C,U1*%
X130084526Y-98341619D02*
X131112621Y-98341619D01*
X131112621Y-98341619D02*
X131233573Y-98281142D01*
X131233573Y-98281142D02*
X131294050Y-98220666D01*
X131294050Y-98220666D02*
X131354526Y-98099714D01*
X131354526Y-98099714D02*
X131354526Y-97857809D01*
X131354526Y-97857809D02*
X131294050Y-97736857D01*
X131294050Y-97736857D02*
X131233573Y-97676380D01*
X131233573Y-97676380D02*
X131112621Y-97615904D01*
X131112621Y-97615904D02*
X130084526Y-97615904D01*
X131354526Y-96345904D02*
X131354526Y-97071619D01*
X131354526Y-96708762D02*
X130084526Y-96708762D01*
X130084526Y-96708762D02*
X130265954Y-96829714D01*
X130265954Y-96829714D02*
X130386907Y-96950666D01*
X130386907Y-96950666D02*
X130447383Y-97071619D01*
D10*
%TO.C,C5*%
X165732333Y-91231380D02*
X165684714Y-91279000D01*
X165684714Y-91279000D02*
X165541857Y-91326619D01*
X165541857Y-91326619D02*
X165446619Y-91326619D01*
X165446619Y-91326619D02*
X165303762Y-91279000D01*
X165303762Y-91279000D02*
X165208524Y-91183761D01*
X165208524Y-91183761D02*
X165160905Y-91088523D01*
X165160905Y-91088523D02*
X165113286Y-90898047D01*
X165113286Y-90898047D02*
X165113286Y-90755190D01*
X165113286Y-90755190D02*
X165160905Y-90564714D01*
X165160905Y-90564714D02*
X165208524Y-90469476D01*
X165208524Y-90469476D02*
X165303762Y-90374238D01*
X165303762Y-90374238D02*
X165446619Y-90326619D01*
X165446619Y-90326619D02*
X165541857Y-90326619D01*
X165541857Y-90326619D02*
X165684714Y-90374238D01*
X165684714Y-90374238D02*
X165732333Y-90421857D01*
X166637095Y-90326619D02*
X166160905Y-90326619D01*
X166160905Y-90326619D02*
X166113286Y-90802809D01*
X166113286Y-90802809D02*
X166160905Y-90755190D01*
X166160905Y-90755190D02*
X166256143Y-90707571D01*
X166256143Y-90707571D02*
X166494238Y-90707571D01*
X166494238Y-90707571D02*
X166589476Y-90755190D01*
X166589476Y-90755190D02*
X166637095Y-90802809D01*
X166637095Y-90802809D02*
X166684714Y-90898047D01*
X166684714Y-90898047D02*
X166684714Y-91136142D01*
X166684714Y-91136142D02*
X166637095Y-91231380D01*
X166637095Y-91231380D02*
X166589476Y-91279000D01*
X166589476Y-91279000D02*
X166494238Y-91326619D01*
X166494238Y-91326619D02*
X166256143Y-91326619D01*
X166256143Y-91326619D02*
X166160905Y-91279000D01*
X166160905Y-91279000D02*
X166113286Y-91231380D01*
D12*
%TO.C,U3*%
X163692526Y-98341619D02*
X164720621Y-98341619D01*
X164720621Y-98341619D02*
X164841573Y-98281142D01*
X164841573Y-98281142D02*
X164902050Y-98220666D01*
X164902050Y-98220666D02*
X164962526Y-98099714D01*
X164962526Y-98099714D02*
X164962526Y-97857809D01*
X164962526Y-97857809D02*
X164902050Y-97736857D01*
X164902050Y-97736857D02*
X164841573Y-97676380D01*
X164841573Y-97676380D02*
X164720621Y-97615904D01*
X164720621Y-97615904D02*
X163692526Y-97615904D01*
X163692526Y-97132095D02*
X163692526Y-96345904D01*
X163692526Y-96345904D02*
X164176335Y-96769238D01*
X164176335Y-96769238D02*
X164176335Y-96587809D01*
X164176335Y-96587809D02*
X164236811Y-96466857D01*
X164236811Y-96466857D02*
X164297288Y-96406381D01*
X164297288Y-96406381D02*
X164418240Y-96345904D01*
X164418240Y-96345904D02*
X164720621Y-96345904D01*
X164720621Y-96345904D02*
X164841573Y-96406381D01*
X164841573Y-96406381D02*
X164902050Y-96466857D01*
X164902050Y-96466857D02*
X164962526Y-96587809D01*
X164962526Y-96587809D02*
X164962526Y-96950666D01*
X164962526Y-96950666D02*
X164902050Y-97071619D01*
X164902050Y-97071619D02*
X164841573Y-97132095D01*
%TO.C,U2*%
X146881526Y-76021619D02*
X147909621Y-76021619D01*
X147909621Y-76021619D02*
X148030573Y-75961142D01*
X148030573Y-75961142D02*
X148091050Y-75900666D01*
X148091050Y-75900666D02*
X148151526Y-75779714D01*
X148151526Y-75779714D02*
X148151526Y-75537809D01*
X148151526Y-75537809D02*
X148091050Y-75416857D01*
X148091050Y-75416857D02*
X148030573Y-75356380D01*
X148030573Y-75356380D02*
X147909621Y-75295904D01*
X147909621Y-75295904D02*
X146881526Y-75295904D01*
X147002478Y-74751619D02*
X146942002Y-74691143D01*
X146942002Y-74691143D02*
X146881526Y-74570190D01*
X146881526Y-74570190D02*
X146881526Y-74267809D01*
X146881526Y-74267809D02*
X146942002Y-74146857D01*
X146942002Y-74146857D02*
X147002478Y-74086381D01*
X147002478Y-74086381D02*
X147123430Y-74025904D01*
X147123430Y-74025904D02*
X147244383Y-74025904D01*
X147244383Y-74025904D02*
X147425811Y-74086381D01*
X147425811Y-74086381D02*
X148151526Y-74812095D01*
X148151526Y-74812095D02*
X148151526Y-74025904D01*
%TO.C,IC2*%
X155056526Y-82897762D02*
X153786526Y-82897762D01*
X154935573Y-81567285D02*
X154996050Y-81627761D01*
X154996050Y-81627761D02*
X155056526Y-81809190D01*
X155056526Y-81809190D02*
X155056526Y-81930142D01*
X155056526Y-81930142D02*
X154996050Y-82111571D01*
X154996050Y-82111571D02*
X154875097Y-82232523D01*
X154875097Y-82232523D02*
X154754145Y-82293000D01*
X154754145Y-82293000D02*
X154512240Y-82353476D01*
X154512240Y-82353476D02*
X154330811Y-82353476D01*
X154330811Y-82353476D02*
X154088907Y-82293000D01*
X154088907Y-82293000D02*
X153967954Y-82232523D01*
X153967954Y-82232523D02*
X153847002Y-82111571D01*
X153847002Y-82111571D02*
X153786526Y-81930142D01*
X153786526Y-81930142D02*
X153786526Y-81809190D01*
X153786526Y-81809190D02*
X153847002Y-81627761D01*
X153847002Y-81627761D02*
X153907478Y-81567285D01*
X153907478Y-81083476D02*
X153847002Y-81023000D01*
X153847002Y-81023000D02*
X153786526Y-80902047D01*
X153786526Y-80902047D02*
X153786526Y-80599666D01*
X153786526Y-80599666D02*
X153847002Y-80478714D01*
X153847002Y-80478714D02*
X153907478Y-80418238D01*
X153907478Y-80418238D02*
X154028430Y-80357761D01*
X154028430Y-80357761D02*
X154149383Y-80357761D01*
X154149383Y-80357761D02*
X154330811Y-80418238D01*
X154330811Y-80418238D02*
X155056526Y-81143952D01*
X155056526Y-81143952D02*
X155056526Y-80357761D01*
%TO.C,IC3*%
X172328526Y-60577762D02*
X171058526Y-60577762D01*
X172207573Y-59247285D02*
X172268050Y-59307761D01*
X172268050Y-59307761D02*
X172328526Y-59489190D01*
X172328526Y-59489190D02*
X172328526Y-59610142D01*
X172328526Y-59610142D02*
X172268050Y-59791571D01*
X172268050Y-59791571D02*
X172147097Y-59912523D01*
X172147097Y-59912523D02*
X172026145Y-59973000D01*
X172026145Y-59973000D02*
X171784240Y-60033476D01*
X171784240Y-60033476D02*
X171602811Y-60033476D01*
X171602811Y-60033476D02*
X171360907Y-59973000D01*
X171360907Y-59973000D02*
X171239954Y-59912523D01*
X171239954Y-59912523D02*
X171119002Y-59791571D01*
X171119002Y-59791571D02*
X171058526Y-59610142D01*
X171058526Y-59610142D02*
X171058526Y-59489190D01*
X171058526Y-59489190D02*
X171119002Y-59307761D01*
X171119002Y-59307761D02*
X171179478Y-59247285D01*
X171058526Y-58823952D02*
X171058526Y-58037761D01*
X171058526Y-58037761D02*
X171542335Y-58461095D01*
X171542335Y-58461095D02*
X171542335Y-58279666D01*
X171542335Y-58279666D02*
X171602811Y-58158714D01*
X171602811Y-58158714D02*
X171663288Y-58098238D01*
X171663288Y-58098238D02*
X171784240Y-58037761D01*
X171784240Y-58037761D02*
X172086621Y-58037761D01*
X172086621Y-58037761D02*
X172207573Y-58098238D01*
X172207573Y-58098238D02*
X172268050Y-58158714D01*
X172268050Y-58158714D02*
X172328526Y-58279666D01*
X172328526Y-58279666D02*
X172328526Y-58642523D01*
X172328526Y-58642523D02*
X172268050Y-58763476D01*
X172268050Y-58763476D02*
X172207573Y-58823952D01*
D10*
%TO.C,J1*%
X103588666Y-20942619D02*
X103588666Y-21656904D01*
X103588666Y-21656904D02*
X103541047Y-21799761D01*
X103541047Y-21799761D02*
X103445809Y-21895000D01*
X103445809Y-21895000D02*
X103302952Y-21942619D01*
X103302952Y-21942619D02*
X103207714Y-21942619D01*
X104588666Y-21942619D02*
X104017238Y-21942619D01*
X104302952Y-21942619D02*
X104302952Y-20942619D01*
X104302952Y-20942619D02*
X104207714Y-21085476D01*
X104207714Y-21085476D02*
X104112476Y-21180714D01*
X104112476Y-21180714D02*
X104017238Y-21228333D01*
D12*
%TO.C,U3*%
X163692526Y-76021619D02*
X164720621Y-76021619D01*
X164720621Y-76021619D02*
X164841573Y-75961142D01*
X164841573Y-75961142D02*
X164902050Y-75900666D01*
X164902050Y-75900666D02*
X164962526Y-75779714D01*
X164962526Y-75779714D02*
X164962526Y-75537809D01*
X164962526Y-75537809D02*
X164902050Y-75416857D01*
X164902050Y-75416857D02*
X164841573Y-75356380D01*
X164841573Y-75356380D02*
X164720621Y-75295904D01*
X164720621Y-75295904D02*
X163692526Y-75295904D01*
X163692526Y-74812095D02*
X163692526Y-74025904D01*
X163692526Y-74025904D02*
X164176335Y-74449238D01*
X164176335Y-74449238D02*
X164176335Y-74267809D01*
X164176335Y-74267809D02*
X164236811Y-74146857D01*
X164236811Y-74146857D02*
X164297288Y-74086381D01*
X164297288Y-74086381D02*
X164418240Y-74025904D01*
X164418240Y-74025904D02*
X164720621Y-74025904D01*
X164720621Y-74025904D02*
X164841573Y-74086381D01*
X164841573Y-74086381D02*
X164902050Y-74146857D01*
X164902050Y-74146857D02*
X164962526Y-74267809D01*
X164962526Y-74267809D02*
X164962526Y-74630666D01*
X164962526Y-74630666D02*
X164902050Y-74751619D01*
X164902050Y-74751619D02*
X164841573Y-74812095D01*
D10*
%TO.C,JP3*%
X116080666Y-25072619D02*
X116080666Y-25786904D01*
X116080666Y-25786904D02*
X116033047Y-25929761D01*
X116033047Y-25929761D02*
X115937809Y-26025000D01*
X115937809Y-26025000D02*
X115794952Y-26072619D01*
X115794952Y-26072619D02*
X115699714Y-26072619D01*
X116556857Y-26072619D02*
X116556857Y-25072619D01*
X116556857Y-25072619D02*
X116937809Y-25072619D01*
X116937809Y-25072619D02*
X117033047Y-25120238D01*
X117033047Y-25120238D02*
X117080666Y-25167857D01*
X117080666Y-25167857D02*
X117128285Y-25263095D01*
X117128285Y-25263095D02*
X117128285Y-25405952D01*
X117128285Y-25405952D02*
X117080666Y-25501190D01*
X117080666Y-25501190D02*
X117033047Y-25548809D01*
X117033047Y-25548809D02*
X116937809Y-25596428D01*
X116937809Y-25596428D02*
X116556857Y-25596428D01*
X117461619Y-25072619D02*
X118080666Y-25072619D01*
X118080666Y-25072619D02*
X117747333Y-25453571D01*
X117747333Y-25453571D02*
X117890190Y-25453571D01*
X117890190Y-25453571D02*
X117985428Y-25501190D01*
X117985428Y-25501190D02*
X118033047Y-25548809D01*
X118033047Y-25548809D02*
X118080666Y-25644047D01*
X118080666Y-25644047D02*
X118080666Y-25882142D01*
X118080666Y-25882142D02*
X118033047Y-25977380D01*
X118033047Y-25977380D02*
X117985428Y-26025000D01*
X117985428Y-26025000D02*
X117890190Y-26072619D01*
X117890190Y-26072619D02*
X117604476Y-26072619D01*
X117604476Y-26072619D02*
X117509238Y-26025000D01*
X117509238Y-26025000D02*
X117461619Y-25977380D01*
%TO.C,JP2*%
X116080666Y-75554619D02*
X116080666Y-76268904D01*
X116080666Y-76268904D02*
X116033047Y-76411761D01*
X116033047Y-76411761D02*
X115937809Y-76507000D01*
X115937809Y-76507000D02*
X115794952Y-76554619D01*
X115794952Y-76554619D02*
X115699714Y-76554619D01*
X116556857Y-76554619D02*
X116556857Y-75554619D01*
X116556857Y-75554619D02*
X116937809Y-75554619D01*
X116937809Y-75554619D02*
X117033047Y-75602238D01*
X117033047Y-75602238D02*
X117080666Y-75649857D01*
X117080666Y-75649857D02*
X117128285Y-75745095D01*
X117128285Y-75745095D02*
X117128285Y-75887952D01*
X117128285Y-75887952D02*
X117080666Y-75983190D01*
X117080666Y-75983190D02*
X117033047Y-76030809D01*
X117033047Y-76030809D02*
X116937809Y-76078428D01*
X116937809Y-76078428D02*
X116556857Y-76078428D01*
X117509238Y-75649857D02*
X117556857Y-75602238D01*
X117556857Y-75602238D02*
X117652095Y-75554619D01*
X117652095Y-75554619D02*
X117890190Y-75554619D01*
X117890190Y-75554619D02*
X117985428Y-75602238D01*
X117985428Y-75602238D02*
X118033047Y-75649857D01*
X118033047Y-75649857D02*
X118080666Y-75745095D01*
X118080666Y-75745095D02*
X118080666Y-75840333D01*
X118080666Y-75840333D02*
X118033047Y-75983190D01*
X118033047Y-75983190D02*
X117461619Y-76554619D01*
X117461619Y-76554619D02*
X118080666Y-76554619D01*
%TO.C,JP1*%
X116080666Y-59330619D02*
X116080666Y-60044904D01*
X116080666Y-60044904D02*
X116033047Y-60187761D01*
X116033047Y-60187761D02*
X115937809Y-60283000D01*
X115937809Y-60283000D02*
X115794952Y-60330619D01*
X115794952Y-60330619D02*
X115699714Y-60330619D01*
X116556857Y-60330619D02*
X116556857Y-59330619D01*
X116556857Y-59330619D02*
X116937809Y-59330619D01*
X116937809Y-59330619D02*
X117033047Y-59378238D01*
X117033047Y-59378238D02*
X117080666Y-59425857D01*
X117080666Y-59425857D02*
X117128285Y-59521095D01*
X117128285Y-59521095D02*
X117128285Y-59663952D01*
X117128285Y-59663952D02*
X117080666Y-59759190D01*
X117080666Y-59759190D02*
X117033047Y-59806809D01*
X117033047Y-59806809D02*
X116937809Y-59854428D01*
X116937809Y-59854428D02*
X116556857Y-59854428D01*
X118080666Y-60330619D02*
X117509238Y-60330619D01*
X117794952Y-60330619D02*
X117794952Y-59330619D01*
X117794952Y-59330619D02*
X117699714Y-59473476D01*
X117699714Y-59473476D02*
X117604476Y-59568714D01*
X117604476Y-59568714D02*
X117509238Y-59616333D01*
%TO.C,J1*%
X103588666Y-87902619D02*
X103588666Y-88616904D01*
X103588666Y-88616904D02*
X103541047Y-88759761D01*
X103541047Y-88759761D02*
X103445809Y-88855000D01*
X103445809Y-88855000D02*
X103302952Y-88902619D01*
X103302952Y-88902619D02*
X103207714Y-88902619D01*
X104588666Y-88902619D02*
X104017238Y-88902619D01*
X104302952Y-88902619D02*
X104302952Y-87902619D01*
X104302952Y-87902619D02*
X104207714Y-88045476D01*
X104207714Y-88045476D02*
X104112476Y-88140714D01*
X104112476Y-88140714D02*
X104017238Y-88188333D01*
D12*
%TO.C,IC3*%
X172328526Y-38257762D02*
X171058526Y-38257762D01*
X172207573Y-36927285D02*
X172268050Y-36987761D01*
X172268050Y-36987761D02*
X172328526Y-37169190D01*
X172328526Y-37169190D02*
X172328526Y-37290142D01*
X172328526Y-37290142D02*
X172268050Y-37471571D01*
X172268050Y-37471571D02*
X172147097Y-37592523D01*
X172147097Y-37592523D02*
X172026145Y-37653000D01*
X172026145Y-37653000D02*
X171784240Y-37713476D01*
X171784240Y-37713476D02*
X171602811Y-37713476D01*
X171602811Y-37713476D02*
X171360907Y-37653000D01*
X171360907Y-37653000D02*
X171239954Y-37592523D01*
X171239954Y-37592523D02*
X171119002Y-37471571D01*
X171119002Y-37471571D02*
X171058526Y-37290142D01*
X171058526Y-37290142D02*
X171058526Y-37169190D01*
X171058526Y-37169190D02*
X171119002Y-36987761D01*
X171119002Y-36987761D02*
X171179478Y-36927285D01*
X171058526Y-36503952D02*
X171058526Y-35717761D01*
X171058526Y-35717761D02*
X171542335Y-36141095D01*
X171542335Y-36141095D02*
X171542335Y-35959666D01*
X171542335Y-35959666D02*
X171602811Y-35838714D01*
X171602811Y-35838714D02*
X171663288Y-35778238D01*
X171663288Y-35778238D02*
X171784240Y-35717761D01*
X171784240Y-35717761D02*
X172086621Y-35717761D01*
X172086621Y-35717761D02*
X172207573Y-35778238D01*
X172207573Y-35778238D02*
X172268050Y-35838714D01*
X172268050Y-35838714D02*
X172328526Y-35959666D01*
X172328526Y-35959666D02*
X172328526Y-36322523D01*
X172328526Y-36322523D02*
X172268050Y-36443476D01*
X172268050Y-36443476D02*
X172207573Y-36503952D01*
%TO.C,U3*%
X163692526Y-53701619D02*
X164720621Y-53701619D01*
X164720621Y-53701619D02*
X164841573Y-53641142D01*
X164841573Y-53641142D02*
X164902050Y-53580666D01*
X164902050Y-53580666D02*
X164962526Y-53459714D01*
X164962526Y-53459714D02*
X164962526Y-53217809D01*
X164962526Y-53217809D02*
X164902050Y-53096857D01*
X164902050Y-53096857D02*
X164841573Y-53036380D01*
X164841573Y-53036380D02*
X164720621Y-52975904D01*
X164720621Y-52975904D02*
X163692526Y-52975904D01*
X163692526Y-52492095D02*
X163692526Y-51705904D01*
X163692526Y-51705904D02*
X164176335Y-52129238D01*
X164176335Y-52129238D02*
X164176335Y-51947809D01*
X164176335Y-51947809D02*
X164236811Y-51826857D01*
X164236811Y-51826857D02*
X164297288Y-51766381D01*
X164297288Y-51766381D02*
X164418240Y-51705904D01*
X164418240Y-51705904D02*
X164720621Y-51705904D01*
X164720621Y-51705904D02*
X164841573Y-51766381D01*
X164841573Y-51766381D02*
X164902050Y-51826857D01*
X164902050Y-51826857D02*
X164962526Y-51947809D01*
X164962526Y-51947809D02*
X164962526Y-52310666D01*
X164962526Y-52310666D02*
X164902050Y-52431619D01*
X164902050Y-52431619D02*
X164841573Y-52492095D01*
D10*
%TO.C,JP1*%
X116080666Y-81650619D02*
X116080666Y-82364904D01*
X116080666Y-82364904D02*
X116033047Y-82507761D01*
X116033047Y-82507761D02*
X115937809Y-82603000D01*
X115937809Y-82603000D02*
X115794952Y-82650619D01*
X115794952Y-82650619D02*
X115699714Y-82650619D01*
X116556857Y-82650619D02*
X116556857Y-81650619D01*
X116556857Y-81650619D02*
X116937809Y-81650619D01*
X116937809Y-81650619D02*
X117033047Y-81698238D01*
X117033047Y-81698238D02*
X117080666Y-81745857D01*
X117080666Y-81745857D02*
X117128285Y-81841095D01*
X117128285Y-81841095D02*
X117128285Y-81983952D01*
X117128285Y-81983952D02*
X117080666Y-82079190D01*
X117080666Y-82079190D02*
X117033047Y-82126809D01*
X117033047Y-82126809D02*
X116937809Y-82174428D01*
X116937809Y-82174428D02*
X116556857Y-82174428D01*
X118080666Y-82650619D02*
X117509238Y-82650619D01*
X117794952Y-82650619D02*
X117794952Y-81650619D01*
X117794952Y-81650619D02*
X117699714Y-81793476D01*
X117699714Y-81793476D02*
X117604476Y-81888714D01*
X117604476Y-81888714D02*
X117509238Y-81936333D01*
D12*
%TO.C,IC2*%
X155056526Y-38257762D02*
X153786526Y-38257762D01*
X154935573Y-36927285D02*
X154996050Y-36987761D01*
X154996050Y-36987761D02*
X155056526Y-37169190D01*
X155056526Y-37169190D02*
X155056526Y-37290142D01*
X155056526Y-37290142D02*
X154996050Y-37471571D01*
X154996050Y-37471571D02*
X154875097Y-37592523D01*
X154875097Y-37592523D02*
X154754145Y-37653000D01*
X154754145Y-37653000D02*
X154512240Y-37713476D01*
X154512240Y-37713476D02*
X154330811Y-37713476D01*
X154330811Y-37713476D02*
X154088907Y-37653000D01*
X154088907Y-37653000D02*
X153967954Y-37592523D01*
X153967954Y-37592523D02*
X153847002Y-37471571D01*
X153847002Y-37471571D02*
X153786526Y-37290142D01*
X153786526Y-37290142D02*
X153786526Y-37169190D01*
X153786526Y-37169190D02*
X153847002Y-36987761D01*
X153847002Y-36987761D02*
X153907478Y-36927285D01*
X153907478Y-36443476D02*
X153847002Y-36383000D01*
X153847002Y-36383000D02*
X153786526Y-36262047D01*
X153786526Y-36262047D02*
X153786526Y-35959666D01*
X153786526Y-35959666D02*
X153847002Y-35838714D01*
X153847002Y-35838714D02*
X153907478Y-35778238D01*
X153907478Y-35778238D02*
X154028430Y-35717761D01*
X154028430Y-35717761D02*
X154149383Y-35717761D01*
X154149383Y-35717761D02*
X154330811Y-35778238D01*
X154330811Y-35778238D02*
X155056526Y-36503952D01*
X155056526Y-36503952D02*
X155056526Y-35717761D01*
%TO.C,IC1*%
X138292526Y-60577762D02*
X137022526Y-60577762D01*
X138171573Y-59247285D02*
X138232050Y-59307761D01*
X138232050Y-59307761D02*
X138292526Y-59489190D01*
X138292526Y-59489190D02*
X138292526Y-59610142D01*
X138292526Y-59610142D02*
X138232050Y-59791571D01*
X138232050Y-59791571D02*
X138111097Y-59912523D01*
X138111097Y-59912523D02*
X137990145Y-59973000D01*
X137990145Y-59973000D02*
X137748240Y-60033476D01*
X137748240Y-60033476D02*
X137566811Y-60033476D01*
X137566811Y-60033476D02*
X137324907Y-59973000D01*
X137324907Y-59973000D02*
X137203954Y-59912523D01*
X137203954Y-59912523D02*
X137083002Y-59791571D01*
X137083002Y-59791571D02*
X137022526Y-59610142D01*
X137022526Y-59610142D02*
X137022526Y-59489190D01*
X137022526Y-59489190D02*
X137083002Y-59307761D01*
X137083002Y-59307761D02*
X137143478Y-59247285D01*
X138292526Y-58037761D02*
X138292526Y-58763476D01*
X138292526Y-58400619D02*
X137022526Y-58400619D01*
X137022526Y-58400619D02*
X137203954Y-58521571D01*
X137203954Y-58521571D02*
X137324907Y-58642523D01*
X137324907Y-58642523D02*
X137385383Y-58763476D01*
D10*
%TO.C,J3*%
X108415666Y-20942619D02*
X108415666Y-21656904D01*
X108415666Y-21656904D02*
X108368047Y-21799761D01*
X108368047Y-21799761D02*
X108272809Y-21895000D01*
X108272809Y-21895000D02*
X108129952Y-21942619D01*
X108129952Y-21942619D02*
X108034714Y-21942619D01*
X108796619Y-20942619D02*
X109415666Y-20942619D01*
X109415666Y-20942619D02*
X109082333Y-21323571D01*
X109082333Y-21323571D02*
X109225190Y-21323571D01*
X109225190Y-21323571D02*
X109320428Y-21371190D01*
X109320428Y-21371190D02*
X109368047Y-21418809D01*
X109368047Y-21418809D02*
X109415666Y-21514047D01*
X109415666Y-21514047D02*
X109415666Y-21752142D01*
X109415666Y-21752142D02*
X109368047Y-21847380D01*
X109368047Y-21847380D02*
X109320428Y-21895000D01*
X109320428Y-21895000D02*
X109225190Y-21942619D01*
X109225190Y-21942619D02*
X108939476Y-21942619D01*
X108939476Y-21942619D02*
X108844238Y-21895000D01*
X108844238Y-21895000D02*
X108796619Y-21847380D01*
X108415666Y-43262619D02*
X108415666Y-43976904D01*
X108415666Y-43976904D02*
X108368047Y-44119761D01*
X108368047Y-44119761D02*
X108272809Y-44215000D01*
X108272809Y-44215000D02*
X108129952Y-44262619D01*
X108129952Y-44262619D02*
X108034714Y-44262619D01*
X108796619Y-43262619D02*
X109415666Y-43262619D01*
X109415666Y-43262619D02*
X109082333Y-43643571D01*
X109082333Y-43643571D02*
X109225190Y-43643571D01*
X109225190Y-43643571D02*
X109320428Y-43691190D01*
X109320428Y-43691190D02*
X109368047Y-43738809D01*
X109368047Y-43738809D02*
X109415666Y-43834047D01*
X109415666Y-43834047D02*
X109415666Y-44072142D01*
X109415666Y-44072142D02*
X109368047Y-44167380D01*
X109368047Y-44167380D02*
X109320428Y-44215000D01*
X109320428Y-44215000D02*
X109225190Y-44262619D01*
X109225190Y-44262619D02*
X108939476Y-44262619D01*
X108939476Y-44262619D02*
X108844238Y-44215000D01*
X108844238Y-44215000D02*
X108796619Y-44167380D01*
D12*
%TO.C,U1*%
X130084526Y-76021619D02*
X131112621Y-76021619D01*
X131112621Y-76021619D02*
X131233573Y-75961142D01*
X131233573Y-75961142D02*
X131294050Y-75900666D01*
X131294050Y-75900666D02*
X131354526Y-75779714D01*
X131354526Y-75779714D02*
X131354526Y-75537809D01*
X131354526Y-75537809D02*
X131294050Y-75416857D01*
X131294050Y-75416857D02*
X131233573Y-75356380D01*
X131233573Y-75356380D02*
X131112621Y-75295904D01*
X131112621Y-75295904D02*
X130084526Y-75295904D01*
X131354526Y-74025904D02*
X131354526Y-74751619D01*
X131354526Y-74388762D02*
X130084526Y-74388762D01*
X130084526Y-74388762D02*
X130265954Y-74509714D01*
X130265954Y-74509714D02*
X130386907Y-74630666D01*
X130386907Y-74630666D02*
X130447383Y-74751619D01*
D10*
%TO.C,J1*%
X103588666Y-43262619D02*
X103588666Y-43976904D01*
X103588666Y-43976904D02*
X103541047Y-44119761D01*
X103541047Y-44119761D02*
X103445809Y-44215000D01*
X103445809Y-44215000D02*
X103302952Y-44262619D01*
X103302952Y-44262619D02*
X103207714Y-44262619D01*
X104588666Y-44262619D02*
X104017238Y-44262619D01*
X104302952Y-44262619D02*
X104302952Y-43262619D01*
X104302952Y-43262619D02*
X104207714Y-43405476D01*
X104207714Y-43405476D02*
X104112476Y-43500714D01*
X104112476Y-43500714D02*
X104017238Y-43548333D01*
%TO.C,C5*%
X165732333Y-46591380D02*
X165684714Y-46639000D01*
X165684714Y-46639000D02*
X165541857Y-46686619D01*
X165541857Y-46686619D02*
X165446619Y-46686619D01*
X165446619Y-46686619D02*
X165303762Y-46639000D01*
X165303762Y-46639000D02*
X165208524Y-46543761D01*
X165208524Y-46543761D02*
X165160905Y-46448523D01*
X165160905Y-46448523D02*
X165113286Y-46258047D01*
X165113286Y-46258047D02*
X165113286Y-46115190D01*
X165113286Y-46115190D02*
X165160905Y-45924714D01*
X165160905Y-45924714D02*
X165208524Y-45829476D01*
X165208524Y-45829476D02*
X165303762Y-45734238D01*
X165303762Y-45734238D02*
X165446619Y-45686619D01*
X165446619Y-45686619D02*
X165541857Y-45686619D01*
X165541857Y-45686619D02*
X165684714Y-45734238D01*
X165684714Y-45734238D02*
X165732333Y-45781857D01*
X166637095Y-45686619D02*
X166160905Y-45686619D01*
X166160905Y-45686619D02*
X166113286Y-46162809D01*
X166113286Y-46162809D02*
X166160905Y-46115190D01*
X166160905Y-46115190D02*
X166256143Y-46067571D01*
X166256143Y-46067571D02*
X166494238Y-46067571D01*
X166494238Y-46067571D02*
X166589476Y-46115190D01*
X166589476Y-46115190D02*
X166637095Y-46162809D01*
X166637095Y-46162809D02*
X166684714Y-46258047D01*
X166684714Y-46258047D02*
X166684714Y-46496142D01*
X166684714Y-46496142D02*
X166637095Y-46591380D01*
X166637095Y-46591380D02*
X166589476Y-46639000D01*
X166589476Y-46639000D02*
X166494238Y-46686619D01*
X166494238Y-46686619D02*
X166256143Y-46686619D01*
X166256143Y-46686619D02*
X166160905Y-46639000D01*
X166160905Y-46639000D02*
X166113286Y-46591380D01*
D12*
%TO.C,U1*%
X130084526Y-31381619D02*
X131112621Y-31381619D01*
X131112621Y-31381619D02*
X131233573Y-31321142D01*
X131233573Y-31321142D02*
X131294050Y-31260666D01*
X131294050Y-31260666D02*
X131354526Y-31139714D01*
X131354526Y-31139714D02*
X131354526Y-30897809D01*
X131354526Y-30897809D02*
X131294050Y-30776857D01*
X131294050Y-30776857D02*
X131233573Y-30716380D01*
X131233573Y-30716380D02*
X131112621Y-30655904D01*
X131112621Y-30655904D02*
X130084526Y-30655904D01*
X131354526Y-29385904D02*
X131354526Y-30111619D01*
X131354526Y-29748762D02*
X130084526Y-29748762D01*
X130084526Y-29748762D02*
X130265954Y-29869714D01*
X130265954Y-29869714D02*
X130386907Y-29990666D01*
X130386907Y-29990666D02*
X130447383Y-30111619D01*
%TO.C,IC1*%
X138292526Y-105217762D02*
X137022526Y-105217762D01*
X138171573Y-103887285D02*
X138232050Y-103947761D01*
X138232050Y-103947761D02*
X138292526Y-104129190D01*
X138292526Y-104129190D02*
X138292526Y-104250142D01*
X138292526Y-104250142D02*
X138232050Y-104431571D01*
X138232050Y-104431571D02*
X138111097Y-104552523D01*
X138111097Y-104552523D02*
X137990145Y-104613000D01*
X137990145Y-104613000D02*
X137748240Y-104673476D01*
X137748240Y-104673476D02*
X137566811Y-104673476D01*
X137566811Y-104673476D02*
X137324907Y-104613000D01*
X137324907Y-104613000D02*
X137203954Y-104552523D01*
X137203954Y-104552523D02*
X137083002Y-104431571D01*
X137083002Y-104431571D02*
X137022526Y-104250142D01*
X137022526Y-104250142D02*
X137022526Y-104129190D01*
X137022526Y-104129190D02*
X137083002Y-103947761D01*
X137083002Y-103947761D02*
X137143478Y-103887285D01*
X138292526Y-102677761D02*
X138292526Y-103403476D01*
X138292526Y-103040619D02*
X137022526Y-103040619D01*
X137022526Y-103040619D02*
X137203954Y-103161571D01*
X137203954Y-103161571D02*
X137324907Y-103282523D01*
X137324907Y-103282523D02*
X137385383Y-103403476D01*
D10*
%TO.C,JP3*%
X116080666Y-69712619D02*
X116080666Y-70426904D01*
X116080666Y-70426904D02*
X116033047Y-70569761D01*
X116033047Y-70569761D02*
X115937809Y-70665000D01*
X115937809Y-70665000D02*
X115794952Y-70712619D01*
X115794952Y-70712619D02*
X115699714Y-70712619D01*
X116556857Y-70712619D02*
X116556857Y-69712619D01*
X116556857Y-69712619D02*
X116937809Y-69712619D01*
X116937809Y-69712619D02*
X117033047Y-69760238D01*
X117033047Y-69760238D02*
X117080666Y-69807857D01*
X117080666Y-69807857D02*
X117128285Y-69903095D01*
X117128285Y-69903095D02*
X117128285Y-70045952D01*
X117128285Y-70045952D02*
X117080666Y-70141190D01*
X117080666Y-70141190D02*
X117033047Y-70188809D01*
X117033047Y-70188809D02*
X116937809Y-70236428D01*
X116937809Y-70236428D02*
X116556857Y-70236428D01*
X117461619Y-69712619D02*
X118080666Y-69712619D01*
X118080666Y-69712619D02*
X117747333Y-70093571D01*
X117747333Y-70093571D02*
X117890190Y-70093571D01*
X117890190Y-70093571D02*
X117985428Y-70141190D01*
X117985428Y-70141190D02*
X118033047Y-70188809D01*
X118033047Y-70188809D02*
X118080666Y-70284047D01*
X118080666Y-70284047D02*
X118080666Y-70522142D01*
X118080666Y-70522142D02*
X118033047Y-70617380D01*
X118033047Y-70617380D02*
X117985428Y-70665000D01*
X117985428Y-70665000D02*
X117890190Y-70712619D01*
X117890190Y-70712619D02*
X117604476Y-70712619D01*
X117604476Y-70712619D02*
X117509238Y-70665000D01*
X117509238Y-70665000D02*
X117461619Y-70617380D01*
%TO.C,C5*%
X165732333Y-24271380D02*
X165684714Y-24319000D01*
X165684714Y-24319000D02*
X165541857Y-24366619D01*
X165541857Y-24366619D02*
X165446619Y-24366619D01*
X165446619Y-24366619D02*
X165303762Y-24319000D01*
X165303762Y-24319000D02*
X165208524Y-24223761D01*
X165208524Y-24223761D02*
X165160905Y-24128523D01*
X165160905Y-24128523D02*
X165113286Y-23938047D01*
X165113286Y-23938047D02*
X165113286Y-23795190D01*
X165113286Y-23795190D02*
X165160905Y-23604714D01*
X165160905Y-23604714D02*
X165208524Y-23509476D01*
X165208524Y-23509476D02*
X165303762Y-23414238D01*
X165303762Y-23414238D02*
X165446619Y-23366619D01*
X165446619Y-23366619D02*
X165541857Y-23366619D01*
X165541857Y-23366619D02*
X165684714Y-23414238D01*
X165684714Y-23414238D02*
X165732333Y-23461857D01*
X166637095Y-23366619D02*
X166160905Y-23366619D01*
X166160905Y-23366619D02*
X166113286Y-23842809D01*
X166113286Y-23842809D02*
X166160905Y-23795190D01*
X166160905Y-23795190D02*
X166256143Y-23747571D01*
X166256143Y-23747571D02*
X166494238Y-23747571D01*
X166494238Y-23747571D02*
X166589476Y-23795190D01*
X166589476Y-23795190D02*
X166637095Y-23842809D01*
X166637095Y-23842809D02*
X166684714Y-23938047D01*
X166684714Y-23938047D02*
X166684714Y-24176142D01*
X166684714Y-24176142D02*
X166637095Y-24271380D01*
X166637095Y-24271380D02*
X166589476Y-24319000D01*
X166589476Y-24319000D02*
X166494238Y-24366619D01*
X166494238Y-24366619D02*
X166256143Y-24366619D01*
X166256143Y-24366619D02*
X166160905Y-24319000D01*
X166160905Y-24319000D02*
X166113286Y-24271380D01*
D12*
%TO.C,IC3*%
X172328526Y-105217762D02*
X171058526Y-105217762D01*
X172207573Y-103887285D02*
X172268050Y-103947761D01*
X172268050Y-103947761D02*
X172328526Y-104129190D01*
X172328526Y-104129190D02*
X172328526Y-104250142D01*
X172328526Y-104250142D02*
X172268050Y-104431571D01*
X172268050Y-104431571D02*
X172147097Y-104552523D01*
X172147097Y-104552523D02*
X172026145Y-104613000D01*
X172026145Y-104613000D02*
X171784240Y-104673476D01*
X171784240Y-104673476D02*
X171602811Y-104673476D01*
X171602811Y-104673476D02*
X171360907Y-104613000D01*
X171360907Y-104613000D02*
X171239954Y-104552523D01*
X171239954Y-104552523D02*
X171119002Y-104431571D01*
X171119002Y-104431571D02*
X171058526Y-104250142D01*
X171058526Y-104250142D02*
X171058526Y-104129190D01*
X171058526Y-104129190D02*
X171119002Y-103947761D01*
X171119002Y-103947761D02*
X171179478Y-103887285D01*
X171058526Y-103463952D02*
X171058526Y-102677761D01*
X171058526Y-102677761D02*
X171542335Y-103101095D01*
X171542335Y-103101095D02*
X171542335Y-102919666D01*
X171542335Y-102919666D02*
X171602811Y-102798714D01*
X171602811Y-102798714D02*
X171663288Y-102738238D01*
X171663288Y-102738238D02*
X171784240Y-102677761D01*
X171784240Y-102677761D02*
X172086621Y-102677761D01*
X172086621Y-102677761D02*
X172207573Y-102738238D01*
X172207573Y-102738238D02*
X172268050Y-102798714D01*
X172268050Y-102798714D02*
X172328526Y-102919666D01*
X172328526Y-102919666D02*
X172328526Y-103282523D01*
X172328526Y-103282523D02*
X172268050Y-103403476D01*
X172268050Y-103403476D02*
X172207573Y-103463952D01*
D10*
%TO.C,C2*%
X175566380Y-90885866D02*
X175614000Y-90933485D01*
X175614000Y-90933485D02*
X175661619Y-91076342D01*
X175661619Y-91076342D02*
X175661619Y-91171580D01*
X175661619Y-91171580D02*
X175614000Y-91314437D01*
X175614000Y-91314437D02*
X175518761Y-91409675D01*
X175518761Y-91409675D02*
X175423523Y-91457294D01*
X175423523Y-91457294D02*
X175233047Y-91504913D01*
X175233047Y-91504913D02*
X175090190Y-91504913D01*
X175090190Y-91504913D02*
X174899714Y-91457294D01*
X174899714Y-91457294D02*
X174804476Y-91409675D01*
X174804476Y-91409675D02*
X174709238Y-91314437D01*
X174709238Y-91314437D02*
X174661619Y-91171580D01*
X174661619Y-91171580D02*
X174661619Y-91076342D01*
X174661619Y-91076342D02*
X174709238Y-90933485D01*
X174709238Y-90933485D02*
X174756857Y-90885866D01*
X174756857Y-90504913D02*
X174709238Y-90457294D01*
X174709238Y-90457294D02*
X174661619Y-90362056D01*
X174661619Y-90362056D02*
X174661619Y-90123961D01*
X174661619Y-90123961D02*
X174709238Y-90028723D01*
X174709238Y-90028723D02*
X174756857Y-89981104D01*
X174756857Y-89981104D02*
X174852095Y-89933485D01*
X174852095Y-89933485D02*
X174947333Y-89933485D01*
X174947333Y-89933485D02*
X175090190Y-89981104D01*
X175090190Y-89981104D02*
X175661619Y-90552532D01*
X175661619Y-90552532D02*
X175661619Y-89933485D01*
%TO.C,J3*%
X108415666Y-65582619D02*
X108415666Y-66296904D01*
X108415666Y-66296904D02*
X108368047Y-66439761D01*
X108368047Y-66439761D02*
X108272809Y-66535000D01*
X108272809Y-66535000D02*
X108129952Y-66582619D01*
X108129952Y-66582619D02*
X108034714Y-66582619D01*
X108796619Y-65582619D02*
X109415666Y-65582619D01*
X109415666Y-65582619D02*
X109082333Y-65963571D01*
X109082333Y-65963571D02*
X109225190Y-65963571D01*
X109225190Y-65963571D02*
X109320428Y-66011190D01*
X109320428Y-66011190D02*
X109368047Y-66058809D01*
X109368047Y-66058809D02*
X109415666Y-66154047D01*
X109415666Y-66154047D02*
X109415666Y-66392142D01*
X109415666Y-66392142D02*
X109368047Y-66487380D01*
X109368047Y-66487380D02*
X109320428Y-66535000D01*
X109320428Y-66535000D02*
X109225190Y-66582619D01*
X109225190Y-66582619D02*
X108939476Y-66582619D01*
X108939476Y-66582619D02*
X108844238Y-66535000D01*
X108844238Y-66535000D02*
X108796619Y-66487380D01*
%TO.C,JP3*%
X116080666Y-47392619D02*
X116080666Y-48106904D01*
X116080666Y-48106904D02*
X116033047Y-48249761D01*
X116033047Y-48249761D02*
X115937809Y-48345000D01*
X115937809Y-48345000D02*
X115794952Y-48392619D01*
X115794952Y-48392619D02*
X115699714Y-48392619D01*
X116556857Y-48392619D02*
X116556857Y-47392619D01*
X116556857Y-47392619D02*
X116937809Y-47392619D01*
X116937809Y-47392619D02*
X117033047Y-47440238D01*
X117033047Y-47440238D02*
X117080666Y-47487857D01*
X117080666Y-47487857D02*
X117128285Y-47583095D01*
X117128285Y-47583095D02*
X117128285Y-47725952D01*
X117128285Y-47725952D02*
X117080666Y-47821190D01*
X117080666Y-47821190D02*
X117033047Y-47868809D01*
X117033047Y-47868809D02*
X116937809Y-47916428D01*
X116937809Y-47916428D02*
X116556857Y-47916428D01*
X117461619Y-47392619D02*
X118080666Y-47392619D01*
X118080666Y-47392619D02*
X117747333Y-47773571D01*
X117747333Y-47773571D02*
X117890190Y-47773571D01*
X117890190Y-47773571D02*
X117985428Y-47821190D01*
X117985428Y-47821190D02*
X118033047Y-47868809D01*
X118033047Y-47868809D02*
X118080666Y-47964047D01*
X118080666Y-47964047D02*
X118080666Y-48202142D01*
X118080666Y-48202142D02*
X118033047Y-48297380D01*
X118033047Y-48297380D02*
X117985428Y-48345000D01*
X117985428Y-48345000D02*
X117890190Y-48392619D01*
X117890190Y-48392619D02*
X117604476Y-48392619D01*
X117604476Y-48392619D02*
X117509238Y-48345000D01*
X117509238Y-48345000D02*
X117461619Y-48297380D01*
%TO.C,C1*%
X132204333Y-91231380D02*
X132156714Y-91279000D01*
X132156714Y-91279000D02*
X132013857Y-91326619D01*
X132013857Y-91326619D02*
X131918619Y-91326619D01*
X131918619Y-91326619D02*
X131775762Y-91279000D01*
X131775762Y-91279000D02*
X131680524Y-91183761D01*
X131680524Y-91183761D02*
X131632905Y-91088523D01*
X131632905Y-91088523D02*
X131585286Y-90898047D01*
X131585286Y-90898047D02*
X131585286Y-90755190D01*
X131585286Y-90755190D02*
X131632905Y-90564714D01*
X131632905Y-90564714D02*
X131680524Y-90469476D01*
X131680524Y-90469476D02*
X131775762Y-90374238D01*
X131775762Y-90374238D02*
X131918619Y-90326619D01*
X131918619Y-90326619D02*
X132013857Y-90326619D01*
X132013857Y-90326619D02*
X132156714Y-90374238D01*
X132156714Y-90374238D02*
X132204333Y-90421857D01*
X133156714Y-91326619D02*
X132585286Y-91326619D01*
X132871000Y-91326619D02*
X132871000Y-90326619D01*
X132871000Y-90326619D02*
X132775762Y-90469476D01*
X132775762Y-90469476D02*
X132680524Y-90564714D01*
X132680524Y-90564714D02*
X132585286Y-90612333D01*
D12*
%TO.C,IC1*%
X138292526Y-38257762D02*
X137022526Y-38257762D01*
X138171573Y-36927285D02*
X138232050Y-36987761D01*
X138232050Y-36987761D02*
X138292526Y-37169190D01*
X138292526Y-37169190D02*
X138292526Y-37290142D01*
X138292526Y-37290142D02*
X138232050Y-37471571D01*
X138232050Y-37471571D02*
X138111097Y-37592523D01*
X138111097Y-37592523D02*
X137990145Y-37653000D01*
X137990145Y-37653000D02*
X137748240Y-37713476D01*
X137748240Y-37713476D02*
X137566811Y-37713476D01*
X137566811Y-37713476D02*
X137324907Y-37653000D01*
X137324907Y-37653000D02*
X137203954Y-37592523D01*
X137203954Y-37592523D02*
X137083002Y-37471571D01*
X137083002Y-37471571D02*
X137022526Y-37290142D01*
X137022526Y-37290142D02*
X137022526Y-37169190D01*
X137022526Y-37169190D02*
X137083002Y-36987761D01*
X137083002Y-36987761D02*
X137143478Y-36927285D01*
X138292526Y-35717761D02*
X138292526Y-36443476D01*
X138292526Y-36080619D02*
X137022526Y-36080619D01*
X137022526Y-36080619D02*
X137203954Y-36201571D01*
X137203954Y-36201571D02*
X137324907Y-36322523D01*
X137324907Y-36322523D02*
X137385383Y-36443476D01*
D10*
%TO.C,C1*%
X132204333Y-24271380D02*
X132156714Y-24319000D01*
X132156714Y-24319000D02*
X132013857Y-24366619D01*
X132013857Y-24366619D02*
X131918619Y-24366619D01*
X131918619Y-24366619D02*
X131775762Y-24319000D01*
X131775762Y-24319000D02*
X131680524Y-24223761D01*
X131680524Y-24223761D02*
X131632905Y-24128523D01*
X131632905Y-24128523D02*
X131585286Y-23938047D01*
X131585286Y-23938047D02*
X131585286Y-23795190D01*
X131585286Y-23795190D02*
X131632905Y-23604714D01*
X131632905Y-23604714D02*
X131680524Y-23509476D01*
X131680524Y-23509476D02*
X131775762Y-23414238D01*
X131775762Y-23414238D02*
X131918619Y-23366619D01*
X131918619Y-23366619D02*
X132013857Y-23366619D01*
X132013857Y-23366619D02*
X132156714Y-23414238D01*
X132156714Y-23414238D02*
X132204333Y-23461857D01*
X133156714Y-24366619D02*
X132585286Y-24366619D01*
X132871000Y-24366619D02*
X132871000Y-23366619D01*
X132871000Y-23366619D02*
X132775762Y-23509476D01*
X132775762Y-23509476D02*
X132680524Y-23604714D01*
X132680524Y-23604714D02*
X132585286Y-23652333D01*
%TO.C,C3*%
X148841333Y-91231380D02*
X148793714Y-91279000D01*
X148793714Y-91279000D02*
X148650857Y-91326619D01*
X148650857Y-91326619D02*
X148555619Y-91326619D01*
X148555619Y-91326619D02*
X148412762Y-91279000D01*
X148412762Y-91279000D02*
X148317524Y-91183761D01*
X148317524Y-91183761D02*
X148269905Y-91088523D01*
X148269905Y-91088523D02*
X148222286Y-90898047D01*
X148222286Y-90898047D02*
X148222286Y-90755190D01*
X148222286Y-90755190D02*
X148269905Y-90564714D01*
X148269905Y-90564714D02*
X148317524Y-90469476D01*
X148317524Y-90469476D02*
X148412762Y-90374238D01*
X148412762Y-90374238D02*
X148555619Y-90326619D01*
X148555619Y-90326619D02*
X148650857Y-90326619D01*
X148650857Y-90326619D02*
X148793714Y-90374238D01*
X148793714Y-90374238D02*
X148841333Y-90421857D01*
X149174667Y-90326619D02*
X149793714Y-90326619D01*
X149793714Y-90326619D02*
X149460381Y-90707571D01*
X149460381Y-90707571D02*
X149603238Y-90707571D01*
X149603238Y-90707571D02*
X149698476Y-90755190D01*
X149698476Y-90755190D02*
X149746095Y-90802809D01*
X149746095Y-90802809D02*
X149793714Y-90898047D01*
X149793714Y-90898047D02*
X149793714Y-91136142D01*
X149793714Y-91136142D02*
X149746095Y-91231380D01*
X149746095Y-91231380D02*
X149698476Y-91279000D01*
X149698476Y-91279000D02*
X149603238Y-91326619D01*
X149603238Y-91326619D02*
X149317524Y-91326619D01*
X149317524Y-91326619D02*
X149222286Y-91279000D01*
X149222286Y-91279000D02*
X149174667Y-91231380D01*
%TO.C,C2*%
X175566380Y-46245866D02*
X175614000Y-46293485D01*
X175614000Y-46293485D02*
X175661619Y-46436342D01*
X175661619Y-46436342D02*
X175661619Y-46531580D01*
X175661619Y-46531580D02*
X175614000Y-46674437D01*
X175614000Y-46674437D02*
X175518761Y-46769675D01*
X175518761Y-46769675D02*
X175423523Y-46817294D01*
X175423523Y-46817294D02*
X175233047Y-46864913D01*
X175233047Y-46864913D02*
X175090190Y-46864913D01*
X175090190Y-46864913D02*
X174899714Y-46817294D01*
X174899714Y-46817294D02*
X174804476Y-46769675D01*
X174804476Y-46769675D02*
X174709238Y-46674437D01*
X174709238Y-46674437D02*
X174661619Y-46531580D01*
X174661619Y-46531580D02*
X174661619Y-46436342D01*
X174661619Y-46436342D02*
X174709238Y-46293485D01*
X174709238Y-46293485D02*
X174756857Y-46245866D01*
X174756857Y-45864913D02*
X174709238Y-45817294D01*
X174709238Y-45817294D02*
X174661619Y-45722056D01*
X174661619Y-45722056D02*
X174661619Y-45483961D01*
X174661619Y-45483961D02*
X174709238Y-45388723D01*
X174709238Y-45388723D02*
X174756857Y-45341104D01*
X174756857Y-45341104D02*
X174852095Y-45293485D01*
X174852095Y-45293485D02*
X174947333Y-45293485D01*
X174947333Y-45293485D02*
X175090190Y-45341104D01*
X175090190Y-45341104D02*
X175661619Y-45912532D01*
X175661619Y-45912532D02*
X175661619Y-45293485D01*
D12*
%TO.C,U2*%
X146881526Y-98341619D02*
X147909621Y-98341619D01*
X147909621Y-98341619D02*
X148030573Y-98281142D01*
X148030573Y-98281142D02*
X148091050Y-98220666D01*
X148091050Y-98220666D02*
X148151526Y-98099714D01*
X148151526Y-98099714D02*
X148151526Y-97857809D01*
X148151526Y-97857809D02*
X148091050Y-97736857D01*
X148091050Y-97736857D02*
X148030573Y-97676380D01*
X148030573Y-97676380D02*
X147909621Y-97615904D01*
X147909621Y-97615904D02*
X146881526Y-97615904D01*
X147002478Y-97071619D02*
X146942002Y-97011143D01*
X146942002Y-97011143D02*
X146881526Y-96890190D01*
X146881526Y-96890190D02*
X146881526Y-96587809D01*
X146881526Y-96587809D02*
X146942002Y-96466857D01*
X146942002Y-96466857D02*
X147002478Y-96406381D01*
X147002478Y-96406381D02*
X147123430Y-96345904D01*
X147123430Y-96345904D02*
X147244383Y-96345904D01*
X147244383Y-96345904D02*
X147425811Y-96406381D01*
X147425811Y-96406381D02*
X148151526Y-97132095D01*
X148151526Y-97132095D02*
X148151526Y-96345904D01*
D10*
%TO.C,C5*%
X165732333Y-68911380D02*
X165684714Y-68959000D01*
X165684714Y-68959000D02*
X165541857Y-69006619D01*
X165541857Y-69006619D02*
X165446619Y-69006619D01*
X165446619Y-69006619D02*
X165303762Y-68959000D01*
X165303762Y-68959000D02*
X165208524Y-68863761D01*
X165208524Y-68863761D02*
X165160905Y-68768523D01*
X165160905Y-68768523D02*
X165113286Y-68578047D01*
X165113286Y-68578047D02*
X165113286Y-68435190D01*
X165113286Y-68435190D02*
X165160905Y-68244714D01*
X165160905Y-68244714D02*
X165208524Y-68149476D01*
X165208524Y-68149476D02*
X165303762Y-68054238D01*
X165303762Y-68054238D02*
X165446619Y-68006619D01*
X165446619Y-68006619D02*
X165541857Y-68006619D01*
X165541857Y-68006619D02*
X165684714Y-68054238D01*
X165684714Y-68054238D02*
X165732333Y-68101857D01*
X166637095Y-68006619D02*
X166160905Y-68006619D01*
X166160905Y-68006619D02*
X166113286Y-68482809D01*
X166113286Y-68482809D02*
X166160905Y-68435190D01*
X166160905Y-68435190D02*
X166256143Y-68387571D01*
X166256143Y-68387571D02*
X166494238Y-68387571D01*
X166494238Y-68387571D02*
X166589476Y-68435190D01*
X166589476Y-68435190D02*
X166637095Y-68482809D01*
X166637095Y-68482809D02*
X166684714Y-68578047D01*
X166684714Y-68578047D02*
X166684714Y-68816142D01*
X166684714Y-68816142D02*
X166637095Y-68911380D01*
X166637095Y-68911380D02*
X166589476Y-68959000D01*
X166589476Y-68959000D02*
X166494238Y-69006619D01*
X166494238Y-69006619D02*
X166256143Y-69006619D01*
X166256143Y-69006619D02*
X166160905Y-68959000D01*
X166160905Y-68959000D02*
X166113286Y-68911380D01*
%TO.C,J2*%
X176487666Y-60324619D02*
X176487666Y-61038904D01*
X176487666Y-61038904D02*
X176440047Y-61181761D01*
X176440047Y-61181761D02*
X176344809Y-61277000D01*
X176344809Y-61277000D02*
X176201952Y-61324619D01*
X176201952Y-61324619D02*
X176106714Y-61324619D01*
X176916238Y-60419857D02*
X176963857Y-60372238D01*
X176963857Y-60372238D02*
X177059095Y-60324619D01*
X177059095Y-60324619D02*
X177297190Y-60324619D01*
X177297190Y-60324619D02*
X177392428Y-60372238D01*
X177392428Y-60372238D02*
X177440047Y-60419857D01*
X177440047Y-60419857D02*
X177487666Y-60515095D01*
X177487666Y-60515095D02*
X177487666Y-60610333D01*
X177487666Y-60610333D02*
X177440047Y-60753190D01*
X177440047Y-60753190D02*
X176868619Y-61324619D01*
X176868619Y-61324619D02*
X177487666Y-61324619D01*
%TO.C,J1*%
X103588666Y-65582619D02*
X103588666Y-66296904D01*
X103588666Y-66296904D02*
X103541047Y-66439761D01*
X103541047Y-66439761D02*
X103445809Y-66535000D01*
X103445809Y-66535000D02*
X103302952Y-66582619D01*
X103302952Y-66582619D02*
X103207714Y-66582619D01*
X104588666Y-66582619D02*
X104017238Y-66582619D01*
X104302952Y-66582619D02*
X104302952Y-65582619D01*
X104302952Y-65582619D02*
X104207714Y-65725476D01*
X104207714Y-65725476D02*
X104112476Y-65820714D01*
X104112476Y-65820714D02*
X104017238Y-65868333D01*
%TO.C,J2*%
X176487666Y-38004619D02*
X176487666Y-38718904D01*
X176487666Y-38718904D02*
X176440047Y-38861761D01*
X176440047Y-38861761D02*
X176344809Y-38957000D01*
X176344809Y-38957000D02*
X176201952Y-39004619D01*
X176201952Y-39004619D02*
X176106714Y-39004619D01*
X176916238Y-38099857D02*
X176963857Y-38052238D01*
X176963857Y-38052238D02*
X177059095Y-38004619D01*
X177059095Y-38004619D02*
X177297190Y-38004619D01*
X177297190Y-38004619D02*
X177392428Y-38052238D01*
X177392428Y-38052238D02*
X177440047Y-38099857D01*
X177440047Y-38099857D02*
X177487666Y-38195095D01*
X177487666Y-38195095D02*
X177487666Y-38290333D01*
X177487666Y-38290333D02*
X177440047Y-38433190D01*
X177440047Y-38433190D02*
X176868619Y-39004619D01*
X176868619Y-39004619D02*
X177487666Y-39004619D01*
%TO.C,C3*%
X148841333Y-24271380D02*
X148793714Y-24319000D01*
X148793714Y-24319000D02*
X148650857Y-24366619D01*
X148650857Y-24366619D02*
X148555619Y-24366619D01*
X148555619Y-24366619D02*
X148412762Y-24319000D01*
X148412762Y-24319000D02*
X148317524Y-24223761D01*
X148317524Y-24223761D02*
X148269905Y-24128523D01*
X148269905Y-24128523D02*
X148222286Y-23938047D01*
X148222286Y-23938047D02*
X148222286Y-23795190D01*
X148222286Y-23795190D02*
X148269905Y-23604714D01*
X148269905Y-23604714D02*
X148317524Y-23509476D01*
X148317524Y-23509476D02*
X148412762Y-23414238D01*
X148412762Y-23414238D02*
X148555619Y-23366619D01*
X148555619Y-23366619D02*
X148650857Y-23366619D01*
X148650857Y-23366619D02*
X148793714Y-23414238D01*
X148793714Y-23414238D02*
X148841333Y-23461857D01*
X149174667Y-23366619D02*
X149793714Y-23366619D01*
X149793714Y-23366619D02*
X149460381Y-23747571D01*
X149460381Y-23747571D02*
X149603238Y-23747571D01*
X149603238Y-23747571D02*
X149698476Y-23795190D01*
X149698476Y-23795190D02*
X149746095Y-23842809D01*
X149746095Y-23842809D02*
X149793714Y-23938047D01*
X149793714Y-23938047D02*
X149793714Y-24176142D01*
X149793714Y-24176142D02*
X149746095Y-24271380D01*
X149746095Y-24271380D02*
X149698476Y-24319000D01*
X149698476Y-24319000D02*
X149603238Y-24366619D01*
X149603238Y-24366619D02*
X149317524Y-24366619D01*
X149317524Y-24366619D02*
X149222286Y-24319000D01*
X149222286Y-24319000D02*
X149174667Y-24271380D01*
D12*
%TO.C,IC3*%
X172328526Y-82897762D02*
X171058526Y-82897762D01*
X172207573Y-81567285D02*
X172268050Y-81627761D01*
X172268050Y-81627761D02*
X172328526Y-81809190D01*
X172328526Y-81809190D02*
X172328526Y-81930142D01*
X172328526Y-81930142D02*
X172268050Y-82111571D01*
X172268050Y-82111571D02*
X172147097Y-82232523D01*
X172147097Y-82232523D02*
X172026145Y-82293000D01*
X172026145Y-82293000D02*
X171784240Y-82353476D01*
X171784240Y-82353476D02*
X171602811Y-82353476D01*
X171602811Y-82353476D02*
X171360907Y-82293000D01*
X171360907Y-82293000D02*
X171239954Y-82232523D01*
X171239954Y-82232523D02*
X171119002Y-82111571D01*
X171119002Y-82111571D02*
X171058526Y-81930142D01*
X171058526Y-81930142D02*
X171058526Y-81809190D01*
X171058526Y-81809190D02*
X171119002Y-81627761D01*
X171119002Y-81627761D02*
X171179478Y-81567285D01*
X171058526Y-81143952D02*
X171058526Y-80357761D01*
X171058526Y-80357761D02*
X171542335Y-80781095D01*
X171542335Y-80781095D02*
X171542335Y-80599666D01*
X171542335Y-80599666D02*
X171602811Y-80478714D01*
X171602811Y-80478714D02*
X171663288Y-80418238D01*
X171663288Y-80418238D02*
X171784240Y-80357761D01*
X171784240Y-80357761D02*
X172086621Y-80357761D01*
X172086621Y-80357761D02*
X172207573Y-80418238D01*
X172207573Y-80418238D02*
X172268050Y-80478714D01*
X172268050Y-80478714D02*
X172328526Y-80599666D01*
X172328526Y-80599666D02*
X172328526Y-80962523D01*
X172328526Y-80962523D02*
X172268050Y-81083476D01*
X172268050Y-81083476D02*
X172207573Y-81143952D01*
%TO.C,U1*%
X130084526Y-53701619D02*
X131112621Y-53701619D01*
X131112621Y-53701619D02*
X131233573Y-53641142D01*
X131233573Y-53641142D02*
X131294050Y-53580666D01*
X131294050Y-53580666D02*
X131354526Y-53459714D01*
X131354526Y-53459714D02*
X131354526Y-53217809D01*
X131354526Y-53217809D02*
X131294050Y-53096857D01*
X131294050Y-53096857D02*
X131233573Y-53036380D01*
X131233573Y-53036380D02*
X131112621Y-52975904D01*
X131112621Y-52975904D02*
X130084526Y-52975904D01*
X131354526Y-51705904D02*
X131354526Y-52431619D01*
X131354526Y-52068762D02*
X130084526Y-52068762D01*
X130084526Y-52068762D02*
X130265954Y-52189714D01*
X130265954Y-52189714D02*
X130386907Y-52310666D01*
X130386907Y-52310666D02*
X130447383Y-52431619D01*
%TO.C,U2*%
X146881526Y-31381619D02*
X147909621Y-31381619D01*
X147909621Y-31381619D02*
X148030573Y-31321142D01*
X148030573Y-31321142D02*
X148091050Y-31260666D01*
X148091050Y-31260666D02*
X148151526Y-31139714D01*
X148151526Y-31139714D02*
X148151526Y-30897809D01*
X148151526Y-30897809D02*
X148091050Y-30776857D01*
X148091050Y-30776857D02*
X148030573Y-30716380D01*
X148030573Y-30716380D02*
X147909621Y-30655904D01*
X147909621Y-30655904D02*
X146881526Y-30655904D01*
X147002478Y-30111619D02*
X146942002Y-30051143D01*
X146942002Y-30051143D02*
X146881526Y-29930190D01*
X146881526Y-29930190D02*
X146881526Y-29627809D01*
X146881526Y-29627809D02*
X146942002Y-29506857D01*
X146942002Y-29506857D02*
X147002478Y-29446381D01*
X147002478Y-29446381D02*
X147123430Y-29385904D01*
X147123430Y-29385904D02*
X147244383Y-29385904D01*
X147244383Y-29385904D02*
X147425811Y-29446381D01*
X147425811Y-29446381D02*
X148151526Y-30172095D01*
X148151526Y-30172095D02*
X148151526Y-29385904D01*
D10*
%TO.C,JP1*%
X116080666Y-37010619D02*
X116080666Y-37724904D01*
X116080666Y-37724904D02*
X116033047Y-37867761D01*
X116033047Y-37867761D02*
X115937809Y-37963000D01*
X115937809Y-37963000D02*
X115794952Y-38010619D01*
X115794952Y-38010619D02*
X115699714Y-38010619D01*
X116556857Y-38010619D02*
X116556857Y-37010619D01*
X116556857Y-37010619D02*
X116937809Y-37010619D01*
X116937809Y-37010619D02*
X117033047Y-37058238D01*
X117033047Y-37058238D02*
X117080666Y-37105857D01*
X117080666Y-37105857D02*
X117128285Y-37201095D01*
X117128285Y-37201095D02*
X117128285Y-37343952D01*
X117128285Y-37343952D02*
X117080666Y-37439190D01*
X117080666Y-37439190D02*
X117033047Y-37486809D01*
X117033047Y-37486809D02*
X116937809Y-37534428D01*
X116937809Y-37534428D02*
X116556857Y-37534428D01*
X118080666Y-38010619D02*
X117509238Y-38010619D01*
X117794952Y-38010619D02*
X117794952Y-37010619D01*
X117794952Y-37010619D02*
X117699714Y-37153476D01*
X117699714Y-37153476D02*
X117604476Y-37248714D01*
X117604476Y-37248714D02*
X117509238Y-37296333D01*
D13*
%TO.C,JP2*%
X118314000Y-97612000D02*
X115514000Y-97612000D01*
X118314000Y-95612000D02*
X118314000Y-97612000D01*
X115514000Y-97612000D02*
X115514000Y-95612000D01*
X115514000Y-95612000D02*
X118314000Y-95612000D01*
%TO.C,C1*%
X132224733Y-69464000D02*
X132517267Y-69464000D01*
X132224733Y-70484000D02*
X132517267Y-70484000D01*
D14*
%TO.C,IC1*%
X128162000Y-78529000D02*
X128162000Y-77004000D01*
X128317000Y-76654000D02*
X128317000Y-73454000D01*
X133217000Y-76654000D02*
X128317000Y-76654000D01*
X128317000Y-73454000D02*
X133217000Y-73454000D01*
X133217000Y-73454000D02*
X133217000Y-76654000D01*
%TO.C,IC2*%
X145006000Y-100849000D02*
X145006000Y-99324000D01*
X145161000Y-98974000D02*
X145161000Y-95774000D01*
X150061000Y-98974000D02*
X145161000Y-98974000D01*
X145161000Y-95774000D02*
X150061000Y-95774000D01*
X150061000Y-95774000D02*
X150061000Y-98974000D01*
D13*
%TO.C,C2*%
X174254000Y-68137948D02*
X174254000Y-68660452D01*
X172784000Y-68137948D02*
X172784000Y-68660452D01*
%TO.C,JP2*%
X118314000Y-30652000D02*
X115514000Y-30652000D01*
X118314000Y-28652000D02*
X118314000Y-30652000D01*
X115514000Y-30652000D02*
X115514000Y-28652000D01*
X115514000Y-28652000D02*
X118314000Y-28652000D01*
%TO.C,J3*%
X107419000Y-89440000D02*
X108749000Y-89440000D01*
X107419000Y-90770000D02*
X107419000Y-89440000D01*
X107419000Y-92040000D02*
X107419000Y-97180000D01*
X107419000Y-92040000D02*
X110079000Y-92040000D01*
X107419000Y-97180000D02*
X110079000Y-97180000D01*
X110079000Y-92040000D02*
X110079000Y-97180000D01*
%TO.C,JP1*%
X118314000Y-103708000D02*
X115514000Y-103708000D01*
X118314000Y-101708000D02*
X118314000Y-103708000D01*
X115514000Y-103708000D02*
X115514000Y-101708000D01*
X115514000Y-101708000D02*
X118314000Y-101708000D01*
%TO.C,JP2*%
X118314000Y-52972000D02*
X115514000Y-52972000D01*
X118314000Y-50972000D02*
X118314000Y-52972000D01*
X115514000Y-52972000D02*
X115514000Y-50972000D01*
X115514000Y-50972000D02*
X118314000Y-50972000D01*
%TO.C,C3*%
X148861733Y-69464000D02*
X149154267Y-69464000D01*
X148861733Y-70484000D02*
X149154267Y-70484000D01*
X148861733Y-47144000D02*
X149154267Y-47144000D01*
X148861733Y-48164000D02*
X149154267Y-48164000D01*
D14*
%TO.C,IC2*%
X145006000Y-56209000D02*
X145006000Y-54684000D01*
X145161000Y-54334000D02*
X145161000Y-51134000D01*
X150061000Y-54334000D02*
X145161000Y-54334000D01*
X145161000Y-51134000D02*
X150061000Y-51134000D01*
X150061000Y-51134000D02*
X150061000Y-54334000D01*
D13*
%TO.C,REF\u002A\u002A*%
X193779000Y-69720000D02*
X193779000Y-82480000D01*
X193779000Y-69720000D02*
X196439000Y-69720000D01*
X193779000Y-82480000D02*
X196439000Y-82480000D01*
X195109000Y-67120000D02*
X196439000Y-67120000D01*
X196439000Y-67120000D02*
X196439000Y-68450000D01*
X196439000Y-69720000D02*
X196439000Y-82480000D01*
D14*
%TO.C,U3*%
X164375000Y-38414000D02*
X164375000Y-38414000D01*
X155775000Y-30414000D02*
X155775000Y-30414000D01*
X155775000Y-30414000D02*
X155775000Y-30414000D01*
X155875000Y-30414000D02*
X155875000Y-30414000D01*
X164375000Y-22414000D02*
X164375000Y-22414000D01*
X164375000Y-22414000D02*
G75*
G03*
X164375000Y-38414000I0J-8000000D01*
G01*
X155875000Y-30414000D02*
G75*
G03*
X155775000Y-30414000I-50000J0D01*
G01*
X155775000Y-30414000D02*
G75*
G03*
X155875000Y-30414000I50000J0D01*
G01*
X155775000Y-30414000D02*
G75*
G03*
X155875000Y-30414000I50000J0D01*
G01*
X164375000Y-38414000D02*
G75*
G03*
X164375000Y-22414000I0J8000000D01*
G01*
D13*
%TO.C,J2*%
X177963000Y-93606000D02*
X178363000Y-93606000D01*
X177963000Y-96056000D02*
X177963000Y-93606000D01*
X177963000Y-106306000D02*
X177963000Y-102756000D01*
X178363000Y-91606000D02*
X181363000Y-91606000D01*
X178363000Y-93606000D02*
X178363000Y-91606000D01*
X181373000Y-87966000D02*
X183113000Y-87966000D01*
X181373000Y-89706000D02*
X181373000Y-87966000D01*
X185163000Y-91606000D02*
X186763000Y-91606000D01*
X186763000Y-91606000D02*
X186763000Y-93606000D01*
X186763000Y-93606000D02*
X187163000Y-93606000D01*
X187163000Y-93606000D02*
X187163000Y-96056000D01*
X187163000Y-102756000D02*
X187163000Y-106306000D01*
X187163000Y-106306000D02*
X177963000Y-106306000D01*
%TO.C,JP3*%
X118314000Y-91770000D02*
X115514000Y-91770000D01*
X118314000Y-89770000D02*
X118314000Y-91770000D01*
X115514000Y-91770000D02*
X115514000Y-89770000D01*
X115514000Y-89770000D02*
X118314000Y-89770000D01*
%TO.C,C1*%
X132224733Y-47144000D02*
X132517267Y-47144000D01*
X132224733Y-48164000D02*
X132517267Y-48164000D01*
%TO.C,REF\u002A\u002A*%
X193779000Y-92040000D02*
X193779000Y-104800000D01*
X193779000Y-92040000D02*
X196439000Y-92040000D01*
X193779000Y-104800000D02*
X196439000Y-104800000D01*
X195109000Y-89440000D02*
X196439000Y-89440000D01*
X196439000Y-89440000D02*
X196439000Y-90770000D01*
X196439000Y-92040000D02*
X196439000Y-104800000D01*
%TO.C,J2*%
X177963000Y-71286000D02*
X178363000Y-71286000D01*
X177963000Y-73736000D02*
X177963000Y-71286000D01*
X177963000Y-83986000D02*
X177963000Y-80436000D01*
X178363000Y-69286000D02*
X181363000Y-69286000D01*
X178363000Y-71286000D02*
X178363000Y-69286000D01*
X181373000Y-65646000D02*
X183113000Y-65646000D01*
X181373000Y-67386000D02*
X181373000Y-65646000D01*
X185163000Y-69286000D02*
X186763000Y-69286000D01*
X186763000Y-69286000D02*
X186763000Y-71286000D01*
X186763000Y-71286000D02*
X187163000Y-71286000D01*
X187163000Y-71286000D02*
X187163000Y-73736000D01*
X187163000Y-80436000D02*
X187163000Y-83986000D01*
X187163000Y-83986000D02*
X177963000Y-83986000D01*
%TO.C,C2*%
X174254000Y-23497948D02*
X174254000Y-24020452D01*
X172784000Y-23497948D02*
X172784000Y-24020452D01*
D14*
%TO.C,U2*%
X147564000Y-60734000D02*
X147564000Y-60734000D01*
X138964000Y-52734000D02*
X138964000Y-52734000D01*
X138964000Y-52734000D02*
X138964000Y-52734000D01*
X139064000Y-52734000D02*
X139064000Y-52734000D01*
X147564000Y-44734000D02*
X147564000Y-44734000D01*
X147564000Y-44734000D02*
G75*
G03*
X147564000Y-60734000I0J-8000000D01*
G01*
X139064000Y-52734000D02*
G75*
G03*
X138964000Y-52734000I-50000J0D01*
G01*
X138964000Y-52734000D02*
G75*
G03*
X139064000Y-52734000I50000J0D01*
G01*
X138964000Y-52734000D02*
G75*
G03*
X139064000Y-52734000I50000J0D01*
G01*
X147564000Y-60734000D02*
G75*
G03*
X147564000Y-44734000I0J8000000D01*
G01*
%TO.C,U1*%
X130767000Y-105374000D02*
X130767000Y-105374000D01*
X122167000Y-97374000D02*
X122167000Y-97374000D01*
X122167000Y-97374000D02*
X122167000Y-97374000D01*
X122267000Y-97374000D02*
X122267000Y-97374000D01*
X130767000Y-89374000D02*
X130767000Y-89374000D01*
X130767000Y-89374000D02*
G75*
G03*
X130767000Y-105374000I0J-8000000D01*
G01*
X122267000Y-97374000D02*
G75*
G03*
X122167000Y-97374000I-50000J0D01*
G01*
X122167000Y-97374000D02*
G75*
G03*
X122267000Y-97374000I50000J0D01*
G01*
X122167000Y-97374000D02*
G75*
G03*
X122267000Y-97374000I50000J0D01*
G01*
X130767000Y-105374000D02*
G75*
G03*
X130767000Y-89374000I0J8000000D01*
G01*
D13*
%TO.C,C5*%
X165752733Y-91784000D02*
X166045267Y-91784000D01*
X165752733Y-92804000D02*
X166045267Y-92804000D01*
D14*
%TO.C,U3*%
X164375000Y-105374000D02*
X164375000Y-105374000D01*
X155775000Y-97374000D02*
X155775000Y-97374000D01*
X155775000Y-97374000D02*
X155775000Y-97374000D01*
X155875000Y-97374000D02*
X155875000Y-97374000D01*
X164375000Y-89374000D02*
X164375000Y-89374000D01*
X164375000Y-89374000D02*
G75*
G03*
X164375000Y-105374000I0J-8000000D01*
G01*
X155875000Y-97374000D02*
G75*
G03*
X155775000Y-97374000I-50000J0D01*
G01*
X155775000Y-97374000D02*
G75*
G03*
X155875000Y-97374000I50000J0D01*
G01*
X155775000Y-97374000D02*
G75*
G03*
X155875000Y-97374000I50000J0D01*
G01*
X164375000Y-105374000D02*
G75*
G03*
X164375000Y-89374000I0J8000000D01*
G01*
%TO.C,U2*%
X147564000Y-83054000D02*
X147564000Y-83054000D01*
X138964000Y-75054000D02*
X138964000Y-75054000D01*
X138964000Y-75054000D02*
X138964000Y-75054000D01*
X139064000Y-75054000D02*
X139064000Y-75054000D01*
X147564000Y-67054000D02*
X147564000Y-67054000D01*
X147564000Y-67054000D02*
G75*
G03*
X147564000Y-83054000I0J-8000000D01*
G01*
X139064000Y-75054000D02*
G75*
G03*
X138964000Y-75054000I-50000J0D01*
G01*
X138964000Y-75054000D02*
G75*
G03*
X139064000Y-75054000I50000J0D01*
G01*
X138964000Y-75054000D02*
G75*
G03*
X139064000Y-75054000I50000J0D01*
G01*
X147564000Y-83054000D02*
G75*
G03*
X147564000Y-67054000I0J8000000D01*
G01*
%TO.C,IC2*%
X145006000Y-78529000D02*
X145006000Y-77004000D01*
X145161000Y-76654000D02*
X145161000Y-73454000D01*
X150061000Y-76654000D02*
X145161000Y-76654000D01*
X145161000Y-73454000D02*
X150061000Y-73454000D01*
X150061000Y-73454000D02*
X150061000Y-76654000D01*
%TO.C,IC3*%
X161770000Y-56209000D02*
X161770000Y-54684000D01*
X161925000Y-54334000D02*
X161925000Y-51134000D01*
X166825000Y-54334000D02*
X161925000Y-54334000D01*
X161925000Y-51134000D02*
X166825000Y-51134000D01*
X166825000Y-51134000D02*
X166825000Y-54334000D01*
D13*
%TO.C,J1*%
X101322000Y-22480000D02*
X102652000Y-22480000D01*
X101322000Y-23810000D02*
X101322000Y-22480000D01*
X101322000Y-25080000D02*
X101322000Y-37840000D01*
X101322000Y-25080000D02*
X103922000Y-25080000D01*
X101322000Y-37840000D02*
X106522000Y-37840000D01*
X103922000Y-22480000D02*
X106522000Y-22480000D01*
X103922000Y-25080000D02*
X103922000Y-22480000D01*
X106522000Y-22480000D02*
X106522000Y-37840000D01*
D14*
%TO.C,U3*%
X164375000Y-83054000D02*
X164375000Y-83054000D01*
X155775000Y-75054000D02*
X155775000Y-75054000D01*
X155775000Y-75054000D02*
X155775000Y-75054000D01*
X155875000Y-75054000D02*
X155875000Y-75054000D01*
X164375000Y-67054000D02*
X164375000Y-67054000D01*
X164375000Y-67054000D02*
G75*
G03*
X164375000Y-83054000I0J-8000000D01*
G01*
X155875000Y-75054000D02*
G75*
G03*
X155775000Y-75054000I-50000J0D01*
G01*
X155775000Y-75054000D02*
G75*
G03*
X155875000Y-75054000I50000J0D01*
G01*
X155775000Y-75054000D02*
G75*
G03*
X155875000Y-75054000I50000J0D01*
G01*
X164375000Y-83054000D02*
G75*
G03*
X164375000Y-67054000I0J8000000D01*
G01*
D13*
%TO.C,JP3*%
X118314000Y-24810000D02*
X115514000Y-24810000D01*
X118314000Y-22810000D02*
X118314000Y-24810000D01*
X115514000Y-24810000D02*
X115514000Y-22810000D01*
X115514000Y-22810000D02*
X118314000Y-22810000D01*
%TO.C,JP2*%
X118314000Y-75292000D02*
X115514000Y-75292000D01*
X118314000Y-73292000D02*
X118314000Y-75292000D01*
X115514000Y-75292000D02*
X115514000Y-73292000D01*
X115514000Y-73292000D02*
X118314000Y-73292000D01*
%TO.C,JP1*%
X118314000Y-59068000D02*
X115514000Y-59068000D01*
X118314000Y-57068000D02*
X118314000Y-59068000D01*
X115514000Y-59068000D02*
X115514000Y-57068000D01*
X115514000Y-57068000D02*
X118314000Y-57068000D01*
%TO.C,J1*%
X101322000Y-89440000D02*
X102652000Y-89440000D01*
X101322000Y-90770000D02*
X101322000Y-89440000D01*
X101322000Y-92040000D02*
X101322000Y-104800000D01*
X101322000Y-92040000D02*
X103922000Y-92040000D01*
X101322000Y-104800000D02*
X106522000Y-104800000D01*
X103922000Y-89440000D02*
X106522000Y-89440000D01*
X103922000Y-92040000D02*
X103922000Y-89440000D01*
X106522000Y-89440000D02*
X106522000Y-104800000D01*
D14*
%TO.C,IC3*%
X161770000Y-33889000D02*
X161770000Y-32364000D01*
X161925000Y-32014000D02*
X161925000Y-28814000D01*
X166825000Y-32014000D02*
X161925000Y-32014000D01*
X161925000Y-28814000D02*
X166825000Y-28814000D01*
X166825000Y-28814000D02*
X166825000Y-32014000D01*
%TO.C,U3*%
X164375000Y-60734000D02*
X164375000Y-60734000D01*
X155775000Y-52734000D02*
X155775000Y-52734000D01*
X155775000Y-52734000D02*
X155775000Y-52734000D01*
X155875000Y-52734000D02*
X155875000Y-52734000D01*
X164375000Y-44734000D02*
X164375000Y-44734000D01*
X164375000Y-44734000D02*
G75*
G03*
X164375000Y-60734000I0J-8000000D01*
G01*
X155875000Y-52734000D02*
G75*
G03*
X155775000Y-52734000I-50000J0D01*
G01*
X155775000Y-52734000D02*
G75*
G03*
X155875000Y-52734000I50000J0D01*
G01*
X155775000Y-52734000D02*
G75*
G03*
X155875000Y-52734000I50000J0D01*
G01*
X164375000Y-60734000D02*
G75*
G03*
X164375000Y-44734000I0J8000000D01*
G01*
D13*
%TO.C,JP1*%
X118314000Y-81388000D02*
X115514000Y-81388000D01*
X118314000Y-79388000D02*
X118314000Y-81388000D01*
X115514000Y-81388000D02*
X115514000Y-79388000D01*
X115514000Y-79388000D02*
X118314000Y-79388000D01*
D14*
%TO.C,IC2*%
X145006000Y-33889000D02*
X145006000Y-32364000D01*
X145161000Y-32014000D02*
X145161000Y-28814000D01*
X150061000Y-32014000D02*
X145161000Y-32014000D01*
X145161000Y-28814000D02*
X150061000Y-28814000D01*
X150061000Y-28814000D02*
X150061000Y-32014000D01*
%TO.C,IC1*%
X128162000Y-56209000D02*
X128162000Y-54684000D01*
X128317000Y-54334000D02*
X128317000Y-51134000D01*
X133217000Y-54334000D02*
X128317000Y-54334000D01*
X128317000Y-51134000D02*
X133217000Y-51134000D01*
X133217000Y-51134000D02*
X133217000Y-54334000D01*
D13*
%TO.C,REF\u002A\u002A*%
X193779000Y-47400000D02*
X193779000Y-60160000D01*
X193779000Y-47400000D02*
X196439000Y-47400000D01*
X193779000Y-60160000D02*
X196439000Y-60160000D01*
X195109000Y-44800000D02*
X196439000Y-44800000D01*
X196439000Y-44800000D02*
X196439000Y-46130000D01*
X196439000Y-47400000D02*
X196439000Y-60160000D01*
%TO.C,J3*%
X107419000Y-22480000D02*
X108749000Y-22480000D01*
X107419000Y-23810000D02*
X107419000Y-22480000D01*
X107419000Y-25080000D02*
X107419000Y-30220000D01*
X107419000Y-25080000D02*
X110079000Y-25080000D01*
X107419000Y-30220000D02*
X110079000Y-30220000D01*
X110079000Y-25080000D02*
X110079000Y-30220000D01*
X107419000Y-44800000D02*
X108749000Y-44800000D01*
X107419000Y-46130000D02*
X107419000Y-44800000D01*
X107419000Y-47400000D02*
X107419000Y-52540000D01*
X107419000Y-47400000D02*
X110079000Y-47400000D01*
X107419000Y-52540000D02*
X110079000Y-52540000D01*
X110079000Y-47400000D02*
X110079000Y-52540000D01*
D14*
%TO.C,U1*%
X130767000Y-83054000D02*
X130767000Y-83054000D01*
X122167000Y-75054000D02*
X122167000Y-75054000D01*
X122167000Y-75054000D02*
X122167000Y-75054000D01*
X122267000Y-75054000D02*
X122267000Y-75054000D01*
X130767000Y-67054000D02*
X130767000Y-67054000D01*
X130767000Y-67054000D02*
G75*
G03*
X130767000Y-83054000I0J-8000000D01*
G01*
X122267000Y-75054000D02*
G75*
G03*
X122167000Y-75054000I-50000J0D01*
G01*
X122167000Y-75054000D02*
G75*
G03*
X122267000Y-75054000I50000J0D01*
G01*
X122167000Y-75054000D02*
G75*
G03*
X122267000Y-75054000I50000J0D01*
G01*
X130767000Y-83054000D02*
G75*
G03*
X130767000Y-67054000I0J8000000D01*
G01*
D13*
%TO.C,J1*%
X101322000Y-44800000D02*
X102652000Y-44800000D01*
X101322000Y-46130000D02*
X101322000Y-44800000D01*
X101322000Y-47400000D02*
X101322000Y-60160000D01*
X101322000Y-47400000D02*
X103922000Y-47400000D01*
X101322000Y-60160000D02*
X106522000Y-60160000D01*
X103922000Y-44800000D02*
X106522000Y-44800000D01*
X103922000Y-47400000D02*
X103922000Y-44800000D01*
X106522000Y-44800000D02*
X106522000Y-60160000D01*
%TO.C,C5*%
X165752733Y-47144000D02*
X166045267Y-47144000D01*
X165752733Y-48164000D02*
X166045267Y-48164000D01*
D14*
%TO.C,U1*%
X130767000Y-38414000D02*
X130767000Y-38414000D01*
X122167000Y-30414000D02*
X122167000Y-30414000D01*
X122167000Y-30414000D02*
X122167000Y-30414000D01*
X122267000Y-30414000D02*
X122267000Y-30414000D01*
X130767000Y-22414000D02*
X130767000Y-22414000D01*
X130767000Y-22414000D02*
G75*
G03*
X130767000Y-38414000I0J-8000000D01*
G01*
X122267000Y-30414000D02*
G75*
G03*
X122167000Y-30414000I-50000J0D01*
G01*
X122167000Y-30414000D02*
G75*
G03*
X122267000Y-30414000I50000J0D01*
G01*
X122167000Y-30414000D02*
G75*
G03*
X122267000Y-30414000I50000J0D01*
G01*
X130767000Y-38414000D02*
G75*
G03*
X130767000Y-22414000I0J8000000D01*
G01*
%TO.C,IC1*%
X128162000Y-100849000D02*
X128162000Y-99324000D01*
X128317000Y-98974000D02*
X128317000Y-95774000D01*
X133217000Y-98974000D02*
X128317000Y-98974000D01*
X128317000Y-95774000D02*
X133217000Y-95774000D01*
X133217000Y-95774000D02*
X133217000Y-98974000D01*
D13*
%TO.C,JP3*%
X118314000Y-69450000D02*
X115514000Y-69450000D01*
X118314000Y-67450000D02*
X118314000Y-69450000D01*
X115514000Y-69450000D02*
X115514000Y-67450000D01*
X115514000Y-67450000D02*
X118314000Y-67450000D01*
%TO.C,C5*%
X165752733Y-24824000D02*
X166045267Y-24824000D01*
X165752733Y-25844000D02*
X166045267Y-25844000D01*
D14*
%TO.C,IC3*%
X161770000Y-100849000D02*
X161770000Y-99324000D01*
X161925000Y-98974000D02*
X161925000Y-95774000D01*
X166825000Y-98974000D02*
X161925000Y-98974000D01*
X161925000Y-95774000D02*
X166825000Y-95774000D01*
X166825000Y-95774000D02*
X166825000Y-98974000D01*
D13*
%TO.C,C2*%
X174254000Y-90457948D02*
X174254000Y-90980452D01*
X172784000Y-90457948D02*
X172784000Y-90980452D01*
%TO.C,J3*%
X107419000Y-67120000D02*
X108749000Y-67120000D01*
X107419000Y-68450000D02*
X107419000Y-67120000D01*
X107419000Y-69720000D02*
X107419000Y-74860000D01*
X107419000Y-69720000D02*
X110079000Y-69720000D01*
X107419000Y-74860000D02*
X110079000Y-74860000D01*
X110079000Y-69720000D02*
X110079000Y-74860000D01*
%TO.C,JP3*%
X118314000Y-47130000D02*
X115514000Y-47130000D01*
X118314000Y-45130000D02*
X118314000Y-47130000D01*
X115514000Y-47130000D02*
X115514000Y-45130000D01*
X115514000Y-45130000D02*
X118314000Y-45130000D01*
%TO.C,C1*%
X132224733Y-91784000D02*
X132517267Y-91784000D01*
X132224733Y-92804000D02*
X132517267Y-92804000D01*
%TO.C,REF\u002A\u002A*%
X193779000Y-25080000D02*
X193779000Y-37840000D01*
X193779000Y-25080000D02*
X196439000Y-25080000D01*
X193779000Y-37840000D02*
X196439000Y-37840000D01*
X195109000Y-22480000D02*
X196439000Y-22480000D01*
X196439000Y-22480000D02*
X196439000Y-23810000D01*
X196439000Y-25080000D02*
X196439000Y-37840000D01*
D14*
%TO.C,IC1*%
X128162000Y-33889000D02*
X128162000Y-32364000D01*
X128317000Y-32014000D02*
X128317000Y-28814000D01*
X133217000Y-32014000D02*
X128317000Y-32014000D01*
X128317000Y-28814000D02*
X133217000Y-28814000D01*
X133217000Y-28814000D02*
X133217000Y-32014000D01*
D13*
%TO.C,C1*%
X132224733Y-24824000D02*
X132517267Y-24824000D01*
X132224733Y-25844000D02*
X132517267Y-25844000D01*
%TO.C,C3*%
X148861733Y-91784000D02*
X149154267Y-91784000D01*
X148861733Y-92804000D02*
X149154267Y-92804000D01*
%TO.C,C2*%
X174254000Y-45817948D02*
X174254000Y-46340452D01*
X172784000Y-45817948D02*
X172784000Y-46340452D01*
D14*
%TO.C,U2*%
X147564000Y-105374000D02*
X147564000Y-105374000D01*
X138964000Y-97374000D02*
X138964000Y-97374000D01*
X138964000Y-97374000D02*
X138964000Y-97374000D01*
X139064000Y-97374000D02*
X139064000Y-97374000D01*
X147564000Y-89374000D02*
X147564000Y-89374000D01*
X147564000Y-89374000D02*
G75*
G03*
X147564000Y-105374000I0J-8000000D01*
G01*
X139064000Y-97374000D02*
G75*
G03*
X138964000Y-97374000I-50000J0D01*
G01*
X138964000Y-97374000D02*
G75*
G03*
X139064000Y-97374000I50000J0D01*
G01*
X138964000Y-97374000D02*
G75*
G03*
X139064000Y-97374000I50000J0D01*
G01*
X147564000Y-105374000D02*
G75*
G03*
X147564000Y-89374000I0J8000000D01*
G01*
D13*
%TO.C,C5*%
X165752733Y-69464000D02*
X166045267Y-69464000D01*
X165752733Y-70484000D02*
X166045267Y-70484000D01*
%TO.C,J2*%
X177963000Y-48966000D02*
X178363000Y-48966000D01*
X177963000Y-51416000D02*
X177963000Y-48966000D01*
X177963000Y-61666000D02*
X177963000Y-58116000D01*
X178363000Y-46966000D02*
X181363000Y-46966000D01*
X178363000Y-48966000D02*
X178363000Y-46966000D01*
X181373000Y-43326000D02*
X183113000Y-43326000D01*
X181373000Y-45066000D02*
X181373000Y-43326000D01*
X185163000Y-46966000D02*
X186763000Y-46966000D01*
X186763000Y-46966000D02*
X186763000Y-48966000D01*
X186763000Y-48966000D02*
X187163000Y-48966000D01*
X187163000Y-48966000D02*
X187163000Y-51416000D01*
X187163000Y-58116000D02*
X187163000Y-61666000D01*
X187163000Y-61666000D02*
X177963000Y-61666000D01*
%TO.C,J1*%
X101322000Y-67120000D02*
X102652000Y-67120000D01*
X101322000Y-68450000D02*
X101322000Y-67120000D01*
X101322000Y-69720000D02*
X101322000Y-82480000D01*
X101322000Y-69720000D02*
X103922000Y-69720000D01*
X101322000Y-82480000D02*
X106522000Y-82480000D01*
X103922000Y-67120000D02*
X106522000Y-67120000D01*
X103922000Y-69720000D02*
X103922000Y-67120000D01*
X106522000Y-67120000D02*
X106522000Y-82480000D01*
%TO.C,J2*%
X177963000Y-26646000D02*
X178363000Y-26646000D01*
X177963000Y-29096000D02*
X177963000Y-26646000D01*
X177963000Y-39346000D02*
X177963000Y-35796000D01*
X178363000Y-24646000D02*
X181363000Y-24646000D01*
X178363000Y-26646000D02*
X178363000Y-24646000D01*
X181373000Y-21006000D02*
X183113000Y-21006000D01*
X181373000Y-22746000D02*
X181373000Y-21006000D01*
X185163000Y-24646000D02*
X186763000Y-24646000D01*
X186763000Y-24646000D02*
X186763000Y-26646000D01*
X186763000Y-26646000D02*
X187163000Y-26646000D01*
X187163000Y-26646000D02*
X187163000Y-29096000D01*
X187163000Y-35796000D02*
X187163000Y-39346000D01*
X187163000Y-39346000D02*
X177963000Y-39346000D01*
%TO.C,C3*%
X148861733Y-24824000D02*
X149154267Y-24824000D01*
X148861733Y-25844000D02*
X149154267Y-25844000D01*
D14*
%TO.C,IC3*%
X161770000Y-78529000D02*
X161770000Y-77004000D01*
X161925000Y-76654000D02*
X161925000Y-73454000D01*
X166825000Y-76654000D02*
X161925000Y-76654000D01*
X161925000Y-73454000D02*
X166825000Y-73454000D01*
X166825000Y-73454000D02*
X166825000Y-76654000D01*
%TO.C,U1*%
X130767000Y-60734000D02*
X130767000Y-60734000D01*
X122167000Y-52734000D02*
X122167000Y-52734000D01*
X122167000Y-52734000D02*
X122167000Y-52734000D01*
X122267000Y-52734000D02*
X122267000Y-52734000D01*
X130767000Y-44734000D02*
X130767000Y-44734000D01*
X130767000Y-44734000D02*
G75*
G03*
X130767000Y-60734000I0J-8000000D01*
G01*
X122267000Y-52734000D02*
G75*
G03*
X122167000Y-52734000I-50000J0D01*
G01*
X122167000Y-52734000D02*
G75*
G03*
X122267000Y-52734000I50000J0D01*
G01*
X122167000Y-52734000D02*
G75*
G03*
X122267000Y-52734000I50000J0D01*
G01*
X130767000Y-60734000D02*
G75*
G03*
X130767000Y-44734000I0J8000000D01*
G01*
%TO.C,U2*%
X147564000Y-38414000D02*
X147564000Y-38414000D01*
X138964000Y-30414000D02*
X138964000Y-30414000D01*
X138964000Y-30414000D02*
X138964000Y-30414000D01*
X139064000Y-30414000D02*
X139064000Y-30414000D01*
X147564000Y-22414000D02*
X147564000Y-22414000D01*
X147564000Y-22414000D02*
G75*
G03*
X147564000Y-38414000I0J-8000000D01*
G01*
X139064000Y-30414000D02*
G75*
G03*
X138964000Y-30414000I-50000J0D01*
G01*
X138964000Y-30414000D02*
G75*
G03*
X139064000Y-30414000I50000J0D01*
G01*
X138964000Y-30414000D02*
G75*
G03*
X139064000Y-30414000I50000J0D01*
G01*
X147564000Y-38414000D02*
G75*
G03*
X147564000Y-22414000I0J8000000D01*
G01*
D13*
%TO.C,JP1*%
X118314000Y-36748000D02*
X115514000Y-36748000D01*
X118314000Y-34748000D02*
X118314000Y-36748000D01*
X115514000Y-36748000D02*
X115514000Y-34748000D01*
X115514000Y-34748000D02*
X118314000Y-34748000D01*
%TD*%
M02*
