%TF.GenerationSoftware,KiCad,Pcbnew,7.0.2*%
%TF.CreationDate,2023-10-31T00:57:24+09:00*%
%TF.ProjectId,kikit,6b696b69-742e-46b6-9963-61645f706362,rev?*%
%TF.SameCoordinates,Original*%
%TF.FileFunction,Soldermask,Bot*%
%TF.FilePolarity,Negative*%
%FSLAX46Y46*%
G04 Gerber Fmt 4.6, Leading zero omitted, Abs format (unit mm)*
G04 Created by KiCad (PCBNEW 7.0.2) date 2023-10-31 00:57:24*
%MOMM*%
%LPD*%
G01*
G04 APERTURE LIST*
%ADD10C,0.500000*%
%ADD11C,1.700000*%
%ADD12O,1.700000X1.700000*%
%ADD13R,1.700000X1.700000*%
%ADD14C,1.800000*%
%ADD15C,2.000000*%
G04 APERTURE END LIST*
D10*
%TO.C,REF\u002A\u002A*%
X131947667Y-42120000D03*
%TD*%
%TO.C,REF\u002A\u002A*%
X165052333Y-42120000D03*
%TD*%
%TO.C,REF\u002A\u002A*%
X164177333Y-62840000D03*
%TD*%
D11*
%TO.C,REF\u002A\u002A*%
X108749000Y-31430000D03*
D12*
X108749000Y-33970000D03*
X108749000Y-36510000D03*
%TD*%
D13*
%TO.C,J3*%
X108749000Y-90770000D03*
D12*
X108749000Y-93310000D03*
X108749000Y-95850000D03*
%TD*%
D10*
%TO.C,REF\u002A\u002A*%
X131947667Y-62840000D03*
%TD*%
%TO.C,REF\u002A\u002A*%
X165052333Y-64440000D03*
%TD*%
%TO.C,REF\u002A\u002A*%
X132822667Y-40520000D03*
%TD*%
%TO.C,REF\u002A\u002A*%
X131072667Y-42120000D03*
%TD*%
D13*
%TO.C,REF\u002A\u002A*%
X195109000Y-68450000D03*
D12*
X195109000Y-70990000D03*
X195109000Y-73530000D03*
X195109000Y-76070000D03*
X195109000Y-78610000D03*
X195109000Y-81150000D03*
%TD*%
D14*
%TO.C,U3*%
X159375000Y-30414000D03*
X169375000Y-30414000D03*
%TD*%
D10*
%TO.C,REF\u002A\u002A*%
X165927333Y-85160000D03*
%TD*%
D15*
%TO.C,J2*%
X182563000Y-103206000D03*
%TD*%
D10*
%TO.C,REF\u002A\u002A*%
X166802333Y-85160000D03*
%TD*%
%TO.C,REF\u002A\u002A*%
X164177333Y-86760000D03*
%TD*%
%TO.C,REF\u002A\u002A*%
X166802333Y-64440000D03*
%TD*%
%TO.C,REF\u002A\u002A*%
X131072667Y-64440000D03*
%TD*%
D13*
%TO.C,REF\u002A\u002A*%
X195109000Y-90770000D03*
D12*
X195109000Y-93310000D03*
X195109000Y-95850000D03*
X195109000Y-98390000D03*
X195109000Y-100930000D03*
X195109000Y-103470000D03*
%TD*%
D15*
%TO.C,J2*%
X182563000Y-80886000D03*
%TD*%
D14*
%TO.C,U2*%
X142564000Y-52734000D03*
X152564000Y-52734000D03*
%TD*%
%TO.C,U1*%
X125767000Y-97374000D03*
X135767000Y-97374000D03*
%TD*%
%TO.C,U3*%
X159375000Y-97374000D03*
X169375000Y-97374000D03*
%TD*%
%TO.C,U2*%
X142564000Y-75054000D03*
X152564000Y-75054000D03*
%TD*%
D10*
%TO.C,REF\u002A\u002A*%
X133697667Y-86760000D03*
%TD*%
%TO.C,REF\u002A\u002A*%
X131947667Y-86760000D03*
%TD*%
D13*
%TO.C,J1*%
X105192000Y-23810000D03*
D12*
X105192000Y-26350000D03*
X105192000Y-28890000D03*
X105192000Y-31430000D03*
X105192000Y-33970000D03*
X105192000Y-36510000D03*
D11*
X102652000Y-23810000D03*
D12*
X102652000Y-26350000D03*
X102652000Y-28890000D03*
X102652000Y-31430000D03*
X102652000Y-33970000D03*
X102652000Y-36510000D03*
%TD*%
D10*
%TO.C,REF\u002A\u002A*%
X166802333Y-42120000D03*
%TD*%
%TO.C,REF\u002A\u002A*%
X165052333Y-86760000D03*
%TD*%
D14*
%TO.C,U3*%
X159375000Y-75054000D03*
X169375000Y-75054000D03*
%TD*%
D10*
%TO.C,REF\u002A\u002A*%
X131072667Y-62840000D03*
%TD*%
D11*
%TO.C,REF\u002A\u002A*%
X108749000Y-76070000D03*
D12*
X108749000Y-78610000D03*
X108749000Y-81150000D03*
%TD*%
D10*
%TO.C,REF\u002A\u002A*%
X166802333Y-40520000D03*
%TD*%
%TO.C,REF\u002A\u002A*%
X164177333Y-85160000D03*
%TD*%
%TO.C,REF\u002A\u002A*%
X163302333Y-86760000D03*
%TD*%
D13*
%TO.C,J1*%
X105192000Y-90770000D03*
D12*
X105192000Y-93310000D03*
X105192000Y-95850000D03*
X105192000Y-98390000D03*
X105192000Y-100930000D03*
X105192000Y-103470000D03*
D11*
X102652000Y-90770000D03*
D12*
X102652000Y-93310000D03*
X102652000Y-95850000D03*
X102652000Y-98390000D03*
X102652000Y-100930000D03*
X102652000Y-103470000D03*
%TD*%
D10*
%TO.C,REF\u002A\u002A*%
X133697667Y-40520000D03*
%TD*%
%TO.C,REF\u002A\u002A*%
X165927333Y-62840000D03*
%TD*%
%TO.C,REF\u002A\u002A*%
X131072667Y-85160000D03*
%TD*%
D14*
%TO.C,U3*%
X159375000Y-52734000D03*
X169375000Y-52734000D03*
%TD*%
D10*
%TO.C,REF\u002A\u002A*%
X130197667Y-85160000D03*
%TD*%
%TO.C,REF\u002A\u002A*%
X133697667Y-62840000D03*
%TD*%
%TO.C,REF\u002A\u002A*%
X133697667Y-42120000D03*
%TD*%
%TO.C,REF\u002A\u002A*%
X130197667Y-86760000D03*
%TD*%
D11*
%TO.C,REF\u002A\u002A*%
X108749000Y-98390000D03*
D12*
X108749000Y-100930000D03*
X108749000Y-103470000D03*
%TD*%
D10*
%TO.C,REF\u002A\u002A*%
X163302333Y-42120000D03*
%TD*%
%TO.C,REF\u002A\u002A*%
X132822667Y-64440000D03*
%TD*%
D13*
%TO.C,REF\u002A\u002A*%
X195109000Y-46130000D03*
D12*
X195109000Y-48670000D03*
X195109000Y-51210000D03*
X195109000Y-53750000D03*
X195109000Y-56290000D03*
X195109000Y-58830000D03*
%TD*%
D13*
%TO.C,J3*%
X108749000Y-23810000D03*
D12*
X108749000Y-26350000D03*
X108749000Y-28890000D03*
%TD*%
D13*
%TO.C,J3*%
X108749000Y-46130000D03*
D12*
X108749000Y-48670000D03*
X108749000Y-51210000D03*
%TD*%
D14*
%TO.C,U1*%
X125767000Y-75054000D03*
X135767000Y-75054000D03*
%TD*%
D13*
%TO.C,J1*%
X105192000Y-46130000D03*
D12*
X105192000Y-48670000D03*
X105192000Y-51210000D03*
X105192000Y-53750000D03*
X105192000Y-56290000D03*
X105192000Y-58830000D03*
D11*
X102652000Y-46130000D03*
D12*
X102652000Y-48670000D03*
X102652000Y-51210000D03*
X102652000Y-53750000D03*
X102652000Y-56290000D03*
X102652000Y-58830000D03*
%TD*%
D10*
%TO.C,REF\u002A\u002A*%
X163302333Y-85160000D03*
%TD*%
%TO.C,REF\u002A\u002A*%
X133697667Y-64440000D03*
%TD*%
%TO.C,REF\u002A\u002A*%
X163302333Y-40520000D03*
%TD*%
%TO.C,REF\u002A\u002A*%
X166802333Y-86760000D03*
%TD*%
D14*
%TO.C,U1*%
X125767000Y-30414000D03*
X135767000Y-30414000D03*
%TD*%
D10*
%TO.C,REF\u002A\u002A*%
X163302333Y-64440000D03*
%TD*%
%TO.C,REF\u002A\u002A*%
X131072667Y-86760000D03*
%TD*%
%TO.C,REF\u002A\u002A*%
X165052333Y-62840000D03*
%TD*%
%TO.C,REF\u002A\u002A*%
X130197667Y-64440000D03*
%TD*%
%TO.C,REF\u002A\u002A*%
X130197667Y-40520000D03*
%TD*%
%TO.C,REF\u002A\u002A*%
X130197667Y-62840000D03*
%TD*%
D13*
%TO.C,J3*%
X108749000Y-68450000D03*
D12*
X108749000Y-70990000D03*
X108749000Y-73530000D03*
%TD*%
D13*
%TO.C,REF\u002A\u002A*%
X195109000Y-23810000D03*
D12*
X195109000Y-26350000D03*
X195109000Y-28890000D03*
X195109000Y-31430000D03*
X195109000Y-33970000D03*
X195109000Y-36510000D03*
%TD*%
D10*
%TO.C,REF\u002A\u002A*%
X166802333Y-62840000D03*
%TD*%
%TO.C,REF\u002A\u002A*%
X132822667Y-42120000D03*
%TD*%
%TO.C,REF\u002A\u002A*%
X131072667Y-40520000D03*
%TD*%
%TO.C,REF\u002A\u002A*%
X164177333Y-64440000D03*
%TD*%
%TO.C,REF\u002A\u002A*%
X163302333Y-62840000D03*
%TD*%
%TO.C,REF\u002A\u002A*%
X164177333Y-40520000D03*
%TD*%
%TO.C,REF\u002A\u002A*%
X164177333Y-42120000D03*
%TD*%
%TO.C,REF\u002A\u002A*%
X133697667Y-85160000D03*
%TD*%
D14*
%TO.C,U2*%
X142564000Y-97374000D03*
X152564000Y-97374000D03*
%TD*%
D11*
%TO.C,REF\u002A\u002A*%
X108749000Y-53750000D03*
D12*
X108749000Y-56290000D03*
X108749000Y-58830000D03*
%TD*%
D10*
%TO.C,REF\u002A\u002A*%
X165927333Y-40520000D03*
%TD*%
D15*
%TO.C,J2*%
X182563000Y-58566000D03*
%TD*%
D13*
%TO.C,J1*%
X105192000Y-68450000D03*
D12*
X105192000Y-70990000D03*
X105192000Y-73530000D03*
X105192000Y-76070000D03*
X105192000Y-78610000D03*
X105192000Y-81150000D03*
D11*
X102652000Y-68450000D03*
D12*
X102652000Y-70990000D03*
X102652000Y-73530000D03*
X102652000Y-76070000D03*
X102652000Y-78610000D03*
X102652000Y-81150000D03*
%TD*%
D10*
%TO.C,REF\u002A\u002A*%
X165927333Y-86760000D03*
%TD*%
%TO.C,REF\u002A\u002A*%
X132822667Y-62840000D03*
%TD*%
%TO.C,REF\u002A\u002A*%
X130197667Y-42120000D03*
%TD*%
D15*
%TO.C,J2*%
X182563000Y-36246000D03*
%TD*%
D10*
%TO.C,REF\u002A\u002A*%
X132822667Y-86760000D03*
%TD*%
%TO.C,REF\u002A\u002A*%
X165052333Y-40520000D03*
%TD*%
%TO.C,REF\u002A\u002A*%
X165927333Y-42120000D03*
%TD*%
%TO.C,REF\u002A\u002A*%
X165052333Y-85160000D03*
%TD*%
%TO.C,REF\u002A\u002A*%
X132822667Y-85160000D03*
%TD*%
%TO.C,REF\u002A\u002A*%
X131947667Y-64440000D03*
%TD*%
%TO.C,REF\u002A\u002A*%
X131947667Y-40520000D03*
%TD*%
D14*
%TO.C,U1*%
X125767000Y-52734000D03*
X135767000Y-52734000D03*
%TD*%
D10*
%TO.C,REF\u002A\u002A*%
X131947667Y-85160000D03*
%TD*%
%TO.C,REF\u002A\u002A*%
X165927333Y-64440000D03*
%TD*%
D14*
%TO.C,U2*%
X142564000Y-30414000D03*
X152564000Y-30414000D03*
%TD*%
M02*
