%TF.GenerationSoftware,KiCad,Pcbnew,7.0.2*%
%TF.CreationDate,2023-08-12T01:35:25+09:00*%
%TF.ProjectId,Pmod_Matrix256,506d6f64-5f4d-4617-9472-69783235362e,rev?*%
%TF.SameCoordinates,Original*%
%TF.FileFunction,Copper,L2,Bot*%
%TF.FilePolarity,Positive*%
%FSLAX46Y46*%
G04 Gerber Fmt 4.6, Leading zero omitted, Abs format (unit mm)*
G04 Created by KiCad (PCBNEW 7.0.2) date 2023-08-12 01:35:25*
%MOMM*%
%LPD*%
G01*
G04 APERTURE LIST*
%TA.AperFunction,ComponentPad*%
%ADD10R,1.700000X1.700000*%
%TD*%
%TA.AperFunction,ComponentPad*%
%ADD11O,1.700000X1.700000*%
%TD*%
%TA.AperFunction,ComponentPad*%
%ADD12C,1.700000*%
%TD*%
%TA.AperFunction,ViaPad*%
%ADD13C,0.800000*%
%TD*%
%TA.AperFunction,ViaPad*%
%ADD14C,1.000000*%
%TD*%
%TA.AperFunction,Conductor*%
%ADD15C,0.250000*%
%TD*%
%TA.AperFunction,Conductor*%
%ADD16C,0.500000*%
%TD*%
G04 APERTURE END LIST*
D10*
%TO.P,J1,1,Pin_1*%
%TO.N,/#SRCLR*%
X100646000Y-119380000D03*
D11*
%TO.P,J1,2,Pin_2*%
%TO.N,/SRCLK*%
X100646000Y-121920000D03*
%TO.P,J1,3,Pin_3*%
%TO.N,/RCLK*%
X100646000Y-124460000D03*
%TO.P,J1,4,Pin_4*%
%TO.N,/SER1*%
X100646000Y-127000000D03*
%TO.P,J1,5,Pin_5*%
%TO.N,GND*%
X100646000Y-129540000D03*
%TO.P,J1,6,Pin_6*%
%TO.N,VCC*%
X100646000Y-132080000D03*
%TO.P,J1,7,Pin_7*%
%TO.N,unconnected-(J1-Pin_7-Pad7)*%
X98106000Y-119380000D03*
%TO.P,J1,8,Pin_8*%
%TO.N,unconnected-(J1-Pin_8-Pad8)*%
X98106000Y-121920000D03*
%TO.P,J1,9,Pin_9*%
%TO.N,unconnected-(J1-Pin_9-Pad9)*%
X98106000Y-124460000D03*
%TO.P,J1,10,Pin_10*%
%TO.N,unconnected-(J1-Pin_10-Pad10)*%
X98106000Y-127000000D03*
%TO.P,J1,11,Pin_11*%
%TO.N,GND*%
X98106000Y-129540000D03*
%TO.P,J1,12,Pin_12*%
%TO.N,VCC*%
X98106000Y-132080000D03*
%TD*%
D10*
%TO.P,U1,1,COL1*%
%TO.N,Net-(U1-COL1)*%
X125984000Y-129828000D03*
D12*
%TO.P,U1,2,COL2*%
%TO.N,Net-(U1-COL2)*%
X128524000Y-129828000D03*
%TO.P,U1,3,COL3*%
%TO.N,Net-(U1-COL3)*%
X131064000Y-129828000D03*
%TO.P,U1,4,COL4*%
%TO.N,Net-(U1-COL4)*%
X133604000Y-129828000D03*
%TO.P,U1,5,COL5*%
%TO.N,Net-(U1-COL5)*%
X136144000Y-129828000D03*
%TO.P,U1,6,COL6*%
%TO.N,Net-(U1-COL6)*%
X138684000Y-129828000D03*
%TO.P,U1,7,COL7*%
%TO.N,Net-(U1-COL7)*%
X141224000Y-129828000D03*
%TO.P,U1,8,COL8*%
%TO.N,Net-(U1-COL8)*%
X143764000Y-129828000D03*
%TO.P,U1,9,COL9*%
%TO.N,Net-(U1-COL9)*%
X146304000Y-129828000D03*
%TO.P,U1,10,COL10*%
%TO.N,Net-(U1-COL10)*%
X148844000Y-129828000D03*
%TO.P,U1,11,COL11*%
%TO.N,Net-(U1-COL11)*%
X151384000Y-129828000D03*
%TO.P,U1,12,COL12*%
%TO.N,Net-(U1-COL12)*%
X153924000Y-129828000D03*
%TO.P,U1,13,COL13*%
%TO.N,Net-(U1-COL13)*%
X156464000Y-129828000D03*
%TO.P,U1,14,COL14*%
%TO.N,Net-(U1-COL14)*%
X159004000Y-129828000D03*
%TO.P,U1,15,COL15*%
%TO.N,Net-(U1-COL15)*%
X161544000Y-129828000D03*
%TO.P,U1,16,COL16*%
%TO.N,Net-(U1-COL16)*%
X164084000Y-129828000D03*
%TO.P,U1,17,ROW1*%
%TO.N,Net-(U1-ROW1)*%
X164084000Y-99568000D03*
%TO.P,U1,18,ROW2*%
%TO.N,Net-(U1-ROW2)*%
X161544000Y-99568000D03*
%TO.P,U1,19,ROW3*%
%TO.N,Net-(U1-ROW3)*%
X159004000Y-99568000D03*
%TO.P,U1,20,ROW4*%
%TO.N,Net-(U1-ROW4)*%
X156464000Y-99568000D03*
%TO.P,U1,21,ROW5*%
%TO.N,Net-(U1-ROW5)*%
X153924000Y-99568000D03*
%TO.P,U1,22,ROW6*%
%TO.N,Net-(U1-ROW6)*%
X151384000Y-99568000D03*
%TO.P,U1,23,ROW7*%
%TO.N,Net-(U1-ROW7)*%
X148844000Y-99568000D03*
%TO.P,U1,24,ROW8*%
%TO.N,Net-(U1-ROW8)*%
X146304000Y-99568000D03*
%TO.P,U1,25,ROW9*%
%TO.N,Net-(U1-ROW9)*%
X143764000Y-99568000D03*
%TO.P,U1,26,ROW10*%
%TO.N,Net-(U1-ROW10)*%
X141224000Y-99568000D03*
%TO.P,U1,27,ROW11*%
%TO.N,Net-(U1-ROW11)*%
X138684000Y-99568000D03*
%TO.P,U1,28,ROW12*%
%TO.N,Net-(U1-ROW12)*%
X136144000Y-99568000D03*
%TO.P,U1,29,ROW13*%
%TO.N,Net-(U1-ROW13)*%
X133604000Y-99568000D03*
%TO.P,U1,30,ROW14*%
%TO.N,Net-(U1-ROW14)*%
X131064000Y-99568000D03*
%TO.P,U1,31,ROW15*%
%TO.N,Net-(U1-ROW15)*%
X128524000Y-99568000D03*
%TO.P,U1,32,ROW16*%
%TO.N,Net-(U1-ROW16)*%
X125984000Y-99568000D03*
%TD*%
D13*
%TO.N,/#SRCLR*%
X126619000Y-106299000D03*
X145288000Y-108839000D03*
%TO.N,/SRCLK*%
X126492000Y-110617000D03*
X111506000Y-115570000D03*
X143319500Y-111950500D03*
%TO.N,/RCLK*%
X152527000Y-110617000D03*
X133477000Y-112649000D03*
X154559000Y-113284000D03*
%TO.N,GND*%
X115951000Y-102235000D03*
X163372800Y-122326400D03*
X108966000Y-122174000D03*
X119380000Y-130251200D03*
X119380000Y-102260400D03*
X111252000Y-119888000D03*
X161594800Y-103936800D03*
X166624000Y-107442000D03*
X161594800Y-107391200D03*
X166624000Y-103886000D03*
X146405600Y-103428800D03*
D14*
%TO.N,VCC*%
X117221000Y-125476000D03*
D13*
X159512000Y-108458000D03*
D14*
X141224000Y-108712000D03*
X148844000Y-116586000D03*
D13*
%TO.N,Net-(U1-ROW1)*%
X159512000Y-110617000D03*
%TO.N,/SER2*%
X125603000Y-113919000D03*
X118364000Y-112141000D03*
%TO.N,/SER3*%
X163118800Y-115011200D03*
X159512000Y-112522000D03*
%TD*%
D15*
%TO.N,/#SRCLR*%
X142748000Y-106299000D02*
X126619000Y-106299000D01*
X145288000Y-108839000D02*
X142748000Y-106299000D01*
%TO.N,/SRCLK*%
X111506000Y-115570000D02*
X111506000Y-112776000D01*
X111506000Y-112776000D02*
X113665000Y-110617000D01*
X113665000Y-110617000D02*
X126492000Y-110617000D01*
X141986000Y-110617000D02*
X143319500Y-111950500D01*
X126492000Y-110617000D02*
X141986000Y-110617000D01*
%TO.N,/RCLK*%
X133477000Y-112649000D02*
X134493000Y-113665000D01*
X154559000Y-113284000D02*
X153924000Y-112649000D01*
X134493000Y-113665000D02*
X154178000Y-113665000D01*
X152527000Y-111252000D02*
X152527000Y-110617000D01*
X153924000Y-112649000D02*
X152527000Y-111252000D01*
X154178000Y-113665000D02*
X154559000Y-113284000D01*
D16*
%TO.N,VCC*%
X109347000Y-108712000D02*
X105918000Y-112141000D01*
X142748000Y-108712000D02*
X141224000Y-108712000D01*
X145161000Y-111125000D02*
X142748000Y-108712000D01*
X150114000Y-109220000D02*
X150114000Y-110109000D01*
X105918000Y-112141000D02*
X105918000Y-129286000D01*
X159512000Y-108458000D02*
X150876000Y-108458000D01*
X105918000Y-129286000D02*
X103124000Y-132080000D01*
X103124000Y-132080000D02*
X100646000Y-132080000D01*
X150114000Y-110109000D02*
X149098000Y-111125000D01*
X150876000Y-108458000D02*
X150114000Y-109220000D01*
X149098000Y-111125000D02*
X145161000Y-111125000D01*
X139954000Y-125476000D02*
X148844000Y-116586000D01*
X141224000Y-108712000D02*
X109347000Y-108712000D01*
X117221000Y-125476000D02*
X139954000Y-125476000D01*
D15*
%TO.N,Net-(U1-ROW1)*%
X162229800Y-110617000D02*
X164084000Y-108762800D01*
X164084000Y-108762800D02*
X164084000Y-99788000D01*
X159512000Y-110617000D02*
X162229800Y-110617000D01*
%TO.N,/SER2*%
X123825000Y-112141000D02*
X118364000Y-112141000D01*
X125603000Y-113919000D02*
X123825000Y-112141000D01*
%TO.N,/SER3*%
X163118800Y-115011200D02*
X163118800Y-114909600D01*
X160731200Y-112522000D02*
X159512000Y-112522000D01*
X163118800Y-114909600D02*
X160731200Y-112522000D01*
%TD*%
%TA.AperFunction,Conductor*%
%TO.N,GND*%
G36*
X100186507Y-129330156D02*
G01*
X100146000Y-129468111D01*
X100146000Y-129611889D01*
X100186507Y-129749844D01*
X100212314Y-129790000D01*
X98539686Y-129790000D01*
X98565493Y-129749844D01*
X98606000Y-129611889D01*
X98606000Y-129468111D01*
X98565493Y-129330156D01*
X98539686Y-129290000D01*
X100212314Y-129290000D01*
X100186507Y-129330156D01*
G37*
%TD.AperFunction*%
%TA.AperFunction,Conductor*%
G36*
X183787791Y-93979966D02*
G01*
X183854817Y-93999690D01*
X183882316Y-94023797D01*
X186355862Y-96942582D01*
X186384187Y-97006453D01*
X186385263Y-97022577D01*
X186435927Y-133044536D01*
X186416337Y-133111603D01*
X186399608Y-133132391D01*
X183932319Y-135599681D01*
X183870996Y-135633166D01*
X183844638Y-135636000D01*
X96629319Y-135636000D01*
X96562280Y-135616315D01*
X96533600Y-135590828D01*
X94741793Y-133415063D01*
X94465541Y-133079614D01*
X94438119Y-133015352D01*
X94437261Y-133000631D01*
X94438540Y-132080000D01*
X96750340Y-132080000D01*
X96770936Y-132315407D01*
X96815709Y-132482502D01*
X96832097Y-132543663D01*
X96931965Y-132757830D01*
X97067505Y-132951401D01*
X97234599Y-133118495D01*
X97428170Y-133254035D01*
X97642337Y-133353903D01*
X97870591Y-133415063D01*
X97870592Y-133415063D01*
X98105999Y-133435659D01*
X98105999Y-133435658D01*
X98106000Y-133435659D01*
X98341408Y-133415063D01*
X98569663Y-133353903D01*
X98783830Y-133254035D01*
X98977401Y-133118495D01*
X99144495Y-132951401D01*
X99274426Y-132765839D01*
X99329002Y-132722216D01*
X99398500Y-132715022D01*
X99460855Y-132746545D01*
X99477571Y-132765837D01*
X99607505Y-132951401D01*
X99774599Y-133118495D01*
X99968170Y-133254035D01*
X100182337Y-133353903D01*
X100410592Y-133415063D01*
X100646000Y-133435659D01*
X100881408Y-133415063D01*
X101013185Y-133379753D01*
X101109660Y-133353904D01*
X101109660Y-133353903D01*
X101109663Y-133353903D01*
X101135396Y-133341902D01*
X101159716Y-133333507D01*
X101165361Y-133332195D01*
X102432079Y-132838951D01*
X102477073Y-132830500D01*
X103060294Y-132830500D01*
X103078264Y-132831809D01*
X103082320Y-132832402D01*
X103102023Y-132835289D01*
X103151368Y-132830972D01*
X103162176Y-132830500D01*
X103164100Y-132830500D01*
X103167709Y-132830500D01*
X103198550Y-132826894D01*
X103202031Y-132826539D01*
X103276797Y-132819999D01*
X103276797Y-132819998D01*
X103278052Y-132819889D01*
X103297062Y-132815674D01*
X103298250Y-132815241D01*
X103298255Y-132815241D01*
X103368820Y-132789557D01*
X103372095Y-132788419D01*
X103443334Y-132764814D01*
X103443336Y-132764812D01*
X103444536Y-132764415D01*
X103462063Y-132755929D01*
X103463112Y-132755238D01*
X103463117Y-132755237D01*
X103525806Y-132714005D01*
X103528798Y-132712099D01*
X103592656Y-132672712D01*
X103592656Y-132672711D01*
X103593729Y-132672050D01*
X103608824Y-132659753D01*
X103609692Y-132658832D01*
X103609696Y-132658830D01*
X103661185Y-132604253D01*
X103663631Y-132601735D01*
X105542787Y-130722578D01*
X124633500Y-130722578D01*
X124633501Y-130725872D01*
X124633853Y-130729152D01*
X124633854Y-130729159D01*
X124639909Y-130785484D01*
X124651630Y-130816909D01*
X124690204Y-130920331D01*
X124776454Y-131035546D01*
X124891669Y-131121796D01*
X125026517Y-131172091D01*
X125086127Y-131178500D01*
X126881872Y-131178499D01*
X126941483Y-131172091D01*
X127076331Y-131121796D01*
X127191546Y-131035546D01*
X127277796Y-130920331D01*
X127326810Y-130788916D01*
X127368681Y-130732983D01*
X127434146Y-130708566D01*
X127502419Y-130723418D01*
X127530672Y-130744569D01*
X127652599Y-130866495D01*
X127846170Y-131002035D01*
X128060337Y-131101903D01*
X128288592Y-131163063D01*
X128524000Y-131183659D01*
X128759408Y-131163063D01*
X128987663Y-131101903D01*
X129201830Y-131002035D01*
X129395401Y-130866495D01*
X129562495Y-130699401D01*
X129692426Y-130513839D01*
X129747002Y-130470216D01*
X129816500Y-130463022D01*
X129878855Y-130494545D01*
X129895571Y-130513837D01*
X130025505Y-130699401D01*
X130192599Y-130866495D01*
X130386170Y-131002035D01*
X130600337Y-131101903D01*
X130828591Y-131163062D01*
X130828592Y-131163063D01*
X131063999Y-131183659D01*
X131063999Y-131183658D01*
X131064000Y-131183659D01*
X131299408Y-131163063D01*
X131527663Y-131101903D01*
X131741830Y-131002035D01*
X131935401Y-130866495D01*
X132102495Y-130699401D01*
X132232427Y-130513838D01*
X132287001Y-130470216D01*
X132356499Y-130463022D01*
X132418854Y-130494545D01*
X132435572Y-130513838D01*
X132565505Y-130699401D01*
X132732599Y-130866495D01*
X132926170Y-131002035D01*
X133140337Y-131101903D01*
X133368592Y-131163063D01*
X133604000Y-131183659D01*
X133839408Y-131163063D01*
X134067663Y-131101903D01*
X134281830Y-131002035D01*
X134475401Y-130866495D01*
X134642495Y-130699401D01*
X134772426Y-130513839D01*
X134827002Y-130470216D01*
X134896500Y-130463022D01*
X134958855Y-130494545D01*
X134975571Y-130513837D01*
X135105505Y-130699401D01*
X135272599Y-130866495D01*
X135466170Y-131002035D01*
X135680337Y-131101903D01*
X135908592Y-131163063D01*
X136144000Y-131183659D01*
X136379408Y-131163063D01*
X136607663Y-131101903D01*
X136821830Y-131002035D01*
X137015401Y-130866495D01*
X137182495Y-130699401D01*
X137312426Y-130513839D01*
X137367002Y-130470216D01*
X137436500Y-130463022D01*
X137498855Y-130494545D01*
X137515571Y-130513837D01*
X137645505Y-130699401D01*
X137812599Y-130866495D01*
X138006170Y-131002035D01*
X138220337Y-131101903D01*
X138448591Y-131163062D01*
X138448592Y-131163063D01*
X138683999Y-131183659D01*
X138683999Y-131183658D01*
X138684000Y-131183659D01*
X138919408Y-131163063D01*
X139147663Y-131101903D01*
X139361830Y-131002035D01*
X139555401Y-130866495D01*
X139722495Y-130699401D01*
X139852426Y-130513839D01*
X139907002Y-130470216D01*
X139976500Y-130463022D01*
X140038855Y-130494545D01*
X140055571Y-130513837D01*
X140185505Y-130699401D01*
X140352599Y-130866495D01*
X140546170Y-131002035D01*
X140760337Y-131101903D01*
X140988592Y-131163063D01*
X141224000Y-131183659D01*
X141459408Y-131163063D01*
X141687663Y-131101903D01*
X141901830Y-131002035D01*
X142095401Y-130866495D01*
X142262495Y-130699401D01*
X142392426Y-130513839D01*
X142447002Y-130470216D01*
X142516500Y-130463022D01*
X142578855Y-130494545D01*
X142595571Y-130513837D01*
X142725505Y-130699401D01*
X142892599Y-130866495D01*
X143086170Y-131002035D01*
X143300337Y-131101903D01*
X143528592Y-131163063D01*
X143764000Y-131183659D01*
X143999408Y-131163063D01*
X144227663Y-131101903D01*
X144441830Y-131002035D01*
X144635401Y-130866495D01*
X144802495Y-130699401D01*
X144932426Y-130513839D01*
X144987002Y-130470216D01*
X145056500Y-130463022D01*
X145118855Y-130494545D01*
X145135571Y-130513837D01*
X145265505Y-130699401D01*
X145432599Y-130866495D01*
X145626170Y-131002035D01*
X145840337Y-131101903D01*
X146068592Y-131163063D01*
X146304000Y-131183659D01*
X146539408Y-131163063D01*
X146767663Y-131101903D01*
X146981830Y-131002035D01*
X147175401Y-130866495D01*
X147342495Y-130699401D01*
X147472426Y-130513839D01*
X147527002Y-130470216D01*
X147596500Y-130463022D01*
X147658855Y-130494545D01*
X147675571Y-130513837D01*
X147805505Y-130699401D01*
X147972599Y-130866495D01*
X148166170Y-131002035D01*
X148380337Y-131101903D01*
X148608592Y-131163063D01*
X148844000Y-131183659D01*
X149079408Y-131163063D01*
X149307663Y-131101903D01*
X149521830Y-131002035D01*
X149715401Y-130866495D01*
X149882495Y-130699401D01*
X150012426Y-130513839D01*
X150067002Y-130470216D01*
X150136500Y-130463022D01*
X150198855Y-130494545D01*
X150215571Y-130513837D01*
X150345505Y-130699401D01*
X150512599Y-130866495D01*
X150706170Y-131002035D01*
X150920337Y-131101903D01*
X151148591Y-131163062D01*
X151148592Y-131163063D01*
X151383999Y-131183659D01*
X151383999Y-131183658D01*
X151384000Y-131183659D01*
X151619408Y-131163063D01*
X151847663Y-131101903D01*
X152061830Y-131002035D01*
X152255401Y-130866495D01*
X152422495Y-130699401D01*
X152552426Y-130513839D01*
X152607002Y-130470216D01*
X152676500Y-130463022D01*
X152738855Y-130494545D01*
X152755571Y-130513837D01*
X152885505Y-130699401D01*
X153052599Y-130866495D01*
X153246170Y-131002035D01*
X153460337Y-131101903D01*
X153688592Y-131163062D01*
X153688592Y-131163063D01*
X153923999Y-131183659D01*
X153923999Y-131183658D01*
X153924000Y-131183659D01*
X154159408Y-131163063D01*
X154387663Y-131101903D01*
X154601830Y-131002035D01*
X154795401Y-130866495D01*
X154962495Y-130699401D01*
X155092426Y-130513839D01*
X155147002Y-130470216D01*
X155216500Y-130463022D01*
X155278855Y-130494545D01*
X155295571Y-130513837D01*
X155425505Y-130699401D01*
X155592599Y-130866495D01*
X155786170Y-131002035D01*
X156000337Y-131101903D01*
X156228592Y-131163063D01*
X156464000Y-131183659D01*
X156699408Y-131163063D01*
X156927663Y-131101903D01*
X157141830Y-131002035D01*
X157335401Y-130866495D01*
X157502495Y-130699401D01*
X157632426Y-130513839D01*
X157687002Y-130470216D01*
X157756500Y-130463022D01*
X157818855Y-130494545D01*
X157835571Y-130513837D01*
X157965505Y-130699401D01*
X158132599Y-130866495D01*
X158326170Y-131002035D01*
X158540337Y-131101903D01*
X158768591Y-131163062D01*
X158768592Y-131163063D01*
X159003999Y-131183659D01*
X159003999Y-131183658D01*
X159004000Y-131183659D01*
X159239408Y-131163063D01*
X159467663Y-131101903D01*
X159681830Y-131002035D01*
X159875401Y-130866495D01*
X160042495Y-130699401D01*
X160172426Y-130513839D01*
X160227002Y-130470217D01*
X160296501Y-130463024D01*
X160358855Y-130494546D01*
X160375571Y-130513837D01*
X160505505Y-130699401D01*
X160672599Y-130866495D01*
X160866170Y-131002035D01*
X161080337Y-131101903D01*
X161308592Y-131163063D01*
X161544000Y-131183659D01*
X161779408Y-131163063D01*
X162007663Y-131101903D01*
X162221830Y-131002035D01*
X162415401Y-130866495D01*
X162582495Y-130699401D01*
X162712426Y-130513839D01*
X162767002Y-130470216D01*
X162836500Y-130463022D01*
X162898855Y-130494545D01*
X162915571Y-130513837D01*
X163045505Y-130699401D01*
X163212599Y-130866495D01*
X163406170Y-131002035D01*
X163620337Y-131101903D01*
X163848591Y-131163062D01*
X163848592Y-131163063D01*
X164083999Y-131183659D01*
X164083999Y-131183658D01*
X164084000Y-131183659D01*
X164319408Y-131163063D01*
X164547663Y-131101903D01*
X164761830Y-131002035D01*
X164955401Y-130866495D01*
X165122495Y-130699401D01*
X165258035Y-130505830D01*
X165357903Y-130291663D01*
X165419063Y-130063408D01*
X165439659Y-129828000D01*
X165419063Y-129592592D01*
X165357903Y-129364337D01*
X165258035Y-129150171D01*
X165122495Y-128956599D01*
X164955401Y-128789505D01*
X164761830Y-128653965D01*
X164547663Y-128554097D01*
X164486501Y-128537709D01*
X164319407Y-128492936D01*
X164083999Y-128472340D01*
X163848592Y-128492936D01*
X163620336Y-128554097D01*
X163406170Y-128653965D01*
X163212598Y-128789505D01*
X163045505Y-128956598D01*
X162915575Y-129142159D01*
X162860998Y-129185784D01*
X162791500Y-129192978D01*
X162729145Y-129161455D01*
X162712425Y-129142159D01*
X162640893Y-129040000D01*
X162582495Y-128956599D01*
X162415401Y-128789505D01*
X162221830Y-128653965D01*
X162007663Y-128554097D01*
X161946501Y-128537709D01*
X161779407Y-128492936D01*
X161544000Y-128472340D01*
X161308592Y-128492936D01*
X161080336Y-128554097D01*
X160866170Y-128653965D01*
X160672598Y-128789505D01*
X160505505Y-128956598D01*
X160375575Y-129142159D01*
X160320998Y-129185784D01*
X160251500Y-129192978D01*
X160189145Y-129161455D01*
X160172425Y-129142159D01*
X160100893Y-129040000D01*
X160042495Y-128956599D01*
X159875401Y-128789505D01*
X159681830Y-128653965D01*
X159467663Y-128554097D01*
X159406501Y-128537709D01*
X159239407Y-128492936D01*
X159003999Y-128472340D01*
X158768592Y-128492936D01*
X158540336Y-128554097D01*
X158326170Y-128653965D01*
X158132598Y-128789505D01*
X157965508Y-128956595D01*
X157835574Y-129142160D01*
X157780997Y-129185785D01*
X157711498Y-129192977D01*
X157649144Y-129161455D01*
X157632429Y-129142164D01*
X157502495Y-128956599D01*
X157335401Y-128789505D01*
X157141830Y-128653965D01*
X156927663Y-128554097D01*
X156866502Y-128537709D01*
X156699407Y-128492936D01*
X156463999Y-128472340D01*
X156228592Y-128492936D01*
X156000336Y-128554097D01*
X155786170Y-128653965D01*
X155592598Y-128789505D01*
X155425505Y-128956598D01*
X155295575Y-129142159D01*
X155240998Y-129185784D01*
X155171500Y-129192978D01*
X155109145Y-129161455D01*
X155092425Y-129142159D01*
X155020893Y-129040000D01*
X154962495Y-128956599D01*
X154795401Y-128789505D01*
X154601830Y-128653965D01*
X154387663Y-128554097D01*
X154326502Y-128537709D01*
X154159407Y-128492936D01*
X153924000Y-128472340D01*
X153688592Y-128492936D01*
X153460336Y-128554097D01*
X153246170Y-128653965D01*
X153052598Y-128789505D01*
X152885505Y-128956598D01*
X152755575Y-129142159D01*
X152700998Y-129185784D01*
X152631500Y-129192978D01*
X152569145Y-129161455D01*
X152552425Y-129142159D01*
X152480893Y-129040000D01*
X152422495Y-128956599D01*
X152255401Y-128789505D01*
X152061830Y-128653965D01*
X151847663Y-128554097D01*
X151786501Y-128537709D01*
X151619407Y-128492936D01*
X151383999Y-128472340D01*
X151148592Y-128492936D01*
X150920336Y-128554097D01*
X150706170Y-128653965D01*
X150512598Y-128789505D01*
X150345505Y-128956598D01*
X150215575Y-129142159D01*
X150160998Y-129185784D01*
X150091500Y-129192978D01*
X150029145Y-129161455D01*
X150012425Y-129142159D01*
X149940893Y-129040000D01*
X149882495Y-128956599D01*
X149715401Y-128789505D01*
X149521830Y-128653965D01*
X149307663Y-128554097D01*
X149246501Y-128537709D01*
X149079407Y-128492936D01*
X148844000Y-128472340D01*
X148608592Y-128492936D01*
X148380336Y-128554097D01*
X148166170Y-128653965D01*
X147972598Y-128789505D01*
X147805505Y-128956598D01*
X147675575Y-129142159D01*
X147620998Y-129185784D01*
X147551500Y-129192978D01*
X147489145Y-129161455D01*
X147472425Y-129142159D01*
X147400893Y-129040000D01*
X147342495Y-128956599D01*
X147175401Y-128789505D01*
X146981830Y-128653965D01*
X146767663Y-128554097D01*
X146706502Y-128537709D01*
X146539407Y-128492936D01*
X146304000Y-128472340D01*
X146068592Y-128492936D01*
X145840336Y-128554097D01*
X145626170Y-128653965D01*
X145432598Y-128789505D01*
X145265505Y-128956598D01*
X145135575Y-129142159D01*
X145080998Y-129185784D01*
X145011500Y-129192978D01*
X144949145Y-129161455D01*
X144932425Y-129142159D01*
X144860893Y-129040000D01*
X144802495Y-128956599D01*
X144635401Y-128789505D01*
X144441830Y-128653965D01*
X144227663Y-128554097D01*
X144166502Y-128537709D01*
X143999407Y-128492936D01*
X143763999Y-128472340D01*
X143528592Y-128492936D01*
X143300336Y-128554097D01*
X143086170Y-128653965D01*
X142892598Y-128789505D01*
X142725505Y-128956598D01*
X142595575Y-129142159D01*
X142540998Y-129185784D01*
X142471500Y-129192978D01*
X142409145Y-129161455D01*
X142392425Y-129142159D01*
X142320893Y-129040000D01*
X142262495Y-128956599D01*
X142095401Y-128789505D01*
X141901830Y-128653965D01*
X141687663Y-128554097D01*
X141626501Y-128537709D01*
X141459407Y-128492936D01*
X141224000Y-128472340D01*
X140988592Y-128492936D01*
X140760336Y-128554097D01*
X140546170Y-128653965D01*
X140352598Y-128789505D01*
X140185505Y-128956598D01*
X140055575Y-129142159D01*
X140000998Y-129185784D01*
X139931500Y-129192978D01*
X139869145Y-129161455D01*
X139852425Y-129142159D01*
X139780893Y-129040000D01*
X139722495Y-128956599D01*
X139555401Y-128789505D01*
X139361830Y-128653965D01*
X139147663Y-128554097D01*
X139086501Y-128537709D01*
X138919407Y-128492936D01*
X138683999Y-128472340D01*
X138448592Y-128492936D01*
X138220336Y-128554097D01*
X138006170Y-128653965D01*
X137812598Y-128789505D01*
X137645505Y-128956598D01*
X137515575Y-129142159D01*
X137460998Y-129185784D01*
X137391500Y-129192978D01*
X137329145Y-129161455D01*
X137312425Y-129142159D01*
X137240893Y-129040000D01*
X137182495Y-128956599D01*
X137015401Y-128789505D01*
X136821830Y-128653965D01*
X136607663Y-128554097D01*
X136546502Y-128537709D01*
X136379407Y-128492936D01*
X136144000Y-128472340D01*
X135908592Y-128492936D01*
X135680336Y-128554097D01*
X135466170Y-128653965D01*
X135272598Y-128789505D01*
X135105505Y-128956598D01*
X134975575Y-129142159D01*
X134920998Y-129185784D01*
X134851500Y-129192978D01*
X134789145Y-129161455D01*
X134772425Y-129142159D01*
X134700893Y-129040000D01*
X134642495Y-128956599D01*
X134475401Y-128789505D01*
X134281830Y-128653965D01*
X134067663Y-128554097D01*
X134006502Y-128537709D01*
X133839407Y-128492936D01*
X133604000Y-128472340D01*
X133368592Y-128492936D01*
X133140336Y-128554097D01*
X132926170Y-128653965D01*
X132732598Y-128789505D01*
X132565508Y-128956595D01*
X132435574Y-129142160D01*
X132380997Y-129185785D01*
X132311498Y-129192977D01*
X132249144Y-129161455D01*
X132232429Y-129142164D01*
X132102495Y-128956599D01*
X131935401Y-128789505D01*
X131741830Y-128653965D01*
X131527663Y-128554097D01*
X131466501Y-128537709D01*
X131299407Y-128492936D01*
X131063999Y-128472340D01*
X130828592Y-128492936D01*
X130600336Y-128554097D01*
X130386170Y-128653965D01*
X130192598Y-128789505D01*
X130025505Y-128956598D01*
X129895575Y-129142159D01*
X129840998Y-129185784D01*
X129771500Y-129192978D01*
X129709145Y-129161455D01*
X129692425Y-129142159D01*
X129620893Y-129040000D01*
X129562495Y-128956599D01*
X129395401Y-128789505D01*
X129201830Y-128653965D01*
X128987663Y-128554097D01*
X128926501Y-128537709D01*
X128759407Y-128492936D01*
X128524000Y-128472340D01*
X128288592Y-128492936D01*
X128060336Y-128554097D01*
X127846170Y-128653965D01*
X127652601Y-128789503D01*
X127530673Y-128911431D01*
X127469350Y-128944915D01*
X127399658Y-128939931D01*
X127343725Y-128898059D01*
X127326810Y-128867082D01*
X127319658Y-128847907D01*
X127277796Y-128735669D01*
X127191546Y-128620454D01*
X127076331Y-128534204D01*
X126941483Y-128483909D01*
X126881873Y-128477500D01*
X126878550Y-128477500D01*
X125089439Y-128477500D01*
X125089420Y-128477500D01*
X125086128Y-128477501D01*
X125082848Y-128477853D01*
X125082840Y-128477854D01*
X125026515Y-128483909D01*
X124891669Y-128534204D01*
X124776454Y-128620454D01*
X124690204Y-128735668D01*
X124639909Y-128870516D01*
X124636884Y-128898656D01*
X124633500Y-128930127D01*
X124633500Y-128933448D01*
X124633500Y-128933449D01*
X124633500Y-130722560D01*
X124633500Y-130722578D01*
X105542787Y-130722578D01*
X106403638Y-129861727D01*
X106417256Y-129849957D01*
X106436530Y-129835610D01*
X106468372Y-129797661D01*
X106475686Y-129789681D01*
X106476264Y-129789102D01*
X106479591Y-129785776D01*
X106498853Y-129761413D01*
X106501076Y-129758686D01*
X106549302Y-129701214D01*
X106549303Y-129701211D01*
X106550115Y-129700244D01*
X106560573Y-129683827D01*
X106561106Y-129682682D01*
X106561111Y-129682677D01*
X106592833Y-129614646D01*
X106594362Y-129611488D01*
X106628040Y-129544433D01*
X106628040Y-129544432D01*
X106628612Y-129543294D01*
X106635000Y-129524915D01*
X106635255Y-129523675D01*
X106635257Y-129523673D01*
X106650435Y-129450157D01*
X106651200Y-129446708D01*
X106668500Y-129373721D01*
X106668500Y-129373718D01*
X106668791Y-129372491D01*
X106670770Y-129353120D01*
X106670733Y-129351858D01*
X106670734Y-129351855D01*
X106668552Y-129276868D01*
X106668500Y-129273262D01*
X106668500Y-125476000D01*
X116215659Y-125476000D01*
X116234976Y-125672133D01*
X116292185Y-125860726D01*
X116373091Y-126012091D01*
X116385090Y-126034538D01*
X116510117Y-126186883D01*
X116662462Y-126311910D01*
X116836273Y-126404814D01*
X117024868Y-126462024D01*
X117221000Y-126481341D01*
X117417132Y-126462024D01*
X117525171Y-126429249D01*
X117547114Y-126424710D01*
X117550350Y-126424342D01*
X118289764Y-126230550D01*
X118321201Y-126226500D01*
X139890294Y-126226500D01*
X139908264Y-126227809D01*
X139912320Y-126228402D01*
X139932023Y-126231289D01*
X139981368Y-126226972D01*
X139992176Y-126226500D01*
X139994100Y-126226500D01*
X139997709Y-126226500D01*
X140028550Y-126222894D01*
X140032031Y-126222539D01*
X140106797Y-126215999D01*
X140106797Y-126215998D01*
X140108052Y-126215889D01*
X140127062Y-126211674D01*
X140128250Y-126211241D01*
X140128255Y-126211241D01*
X140198820Y-126185557D01*
X140202095Y-126184419D01*
X140273334Y-126160814D01*
X140273336Y-126160812D01*
X140274536Y-126160415D01*
X140292063Y-126151929D01*
X140293112Y-126151238D01*
X140293117Y-126151237D01*
X140355806Y-126110005D01*
X140358798Y-126108099D01*
X140422656Y-126068712D01*
X140422656Y-126068711D01*
X140423729Y-126068050D01*
X140438824Y-126055753D01*
X140439692Y-126054832D01*
X140439696Y-126054830D01*
X140491185Y-126000253D01*
X140493631Y-125997735D01*
X148596727Y-117894638D01*
X148621811Y-117875281D01*
X149281693Y-117489465D01*
X149281692Y-117489464D01*
X149306736Y-117474178D01*
X149306838Y-117474346D01*
X149315389Y-117468491D01*
X149402538Y-117421910D01*
X149554883Y-117296883D01*
X149679910Y-117144538D01*
X149772814Y-116970727D01*
X149830024Y-116782132D01*
X149849341Y-116586000D01*
X149830024Y-116389868D01*
X149772814Y-116201273D01*
X149679910Y-116027462D01*
X149554883Y-115875117D01*
X149402538Y-115750090D01*
X149380091Y-115738091D01*
X149228726Y-115657185D01*
X149040133Y-115599976D01*
X148844000Y-115580659D01*
X148647866Y-115599976D01*
X148459273Y-115657185D01*
X148285463Y-115750089D01*
X148133117Y-115875117D01*
X148008088Y-116027463D01*
X147954873Y-116127020D01*
X147942574Y-116145739D01*
X147940534Y-116148304D01*
X147554718Y-116808184D01*
X147535353Y-116833278D01*
X139679451Y-124689181D01*
X139618128Y-124722666D01*
X139591770Y-124725500D01*
X118321202Y-124725500D01*
X118289765Y-124721449D01*
X118190405Y-124695408D01*
X117552243Y-124528153D01*
X117550337Y-124527653D01*
X117540068Y-124525170D01*
X117531690Y-124523144D01*
X117531687Y-124523143D01*
X117521845Y-124520764D01*
X117521891Y-124520571D01*
X117511701Y-124518662D01*
X117417132Y-124489976D01*
X117221000Y-124470659D01*
X117024866Y-124489976D01*
X116836273Y-124547185D01*
X116662463Y-124640089D01*
X116510117Y-124765117D01*
X116385089Y-124917463D01*
X116292185Y-125091273D01*
X116234976Y-125279866D01*
X116215659Y-125476000D01*
X106668500Y-125476000D01*
X106668500Y-112503228D01*
X106688185Y-112436189D01*
X106704814Y-112415552D01*
X109621548Y-109498818D01*
X109682871Y-109465334D01*
X109709229Y-109462500D01*
X140123799Y-109462500D01*
X140155235Y-109466550D01*
X140894649Y-109660342D01*
X140913309Y-109664855D01*
X140913310Y-109664855D01*
X140923164Y-109667238D01*
X140923116Y-109667432D01*
X140933304Y-109669338D01*
X141027868Y-109698024D01*
X141224000Y-109717341D01*
X141420132Y-109698024D01*
X141528171Y-109665249D01*
X141550114Y-109660710D01*
X141553350Y-109660342D01*
X142292764Y-109466550D01*
X142324201Y-109462500D01*
X142385770Y-109462500D01*
X142452809Y-109482185D01*
X142473451Y-109498819D01*
X143498846Y-110524214D01*
X144006612Y-111031979D01*
X144040097Y-111093302D01*
X144035113Y-111162994D01*
X143993241Y-111218927D01*
X143927777Y-111243344D01*
X143859504Y-111228492D01*
X143846046Y-111219978D01*
X143772232Y-111166349D01*
X143706743Y-111137192D01*
X143690606Y-111128526D01*
X143670219Y-111115551D01*
X143266822Y-110933475D01*
X143142099Y-110877180D01*
X143105431Y-110851840D01*
X142486802Y-110233211D01*
X142473906Y-110217113D01*
X142422775Y-110169098D01*
X142419978Y-110166387D01*
X142403227Y-110149636D01*
X142400471Y-110146880D01*
X142397290Y-110144412D01*
X142388422Y-110136837D01*
X142356582Y-110106938D01*
X142339024Y-110097285D01*
X142322764Y-110086604D01*
X142306936Y-110074327D01*
X142266851Y-110056980D01*
X142256361Y-110051841D01*
X142218091Y-110030802D01*
X142198691Y-110025821D01*
X142180284Y-110019519D01*
X142161897Y-110011562D01*
X142118758Y-110004729D01*
X142107324Y-110002361D01*
X142065019Y-109991500D01*
X142044984Y-109991500D01*
X142025586Y-109989973D01*
X142017333Y-109988666D01*
X142005805Y-109986840D01*
X142005804Y-109986840D01*
X141979484Y-109989328D01*
X141962325Y-109990950D01*
X141950656Y-109991500D01*
X127420236Y-109991500D01*
X127376390Y-109983489D01*
X126851435Y-109785045D01*
X126835691Y-109779093D01*
X126835665Y-109779084D01*
X126834393Y-109778603D01*
X126797045Y-109766380D01*
X126785187Y-109761813D01*
X126771805Y-109755856D01*
X126586648Y-109716500D01*
X126586646Y-109716500D01*
X126397354Y-109716500D01*
X126397352Y-109716500D01*
X126212196Y-109755855D01*
X126183937Y-109768437D01*
X126160400Y-109776205D01*
X126149596Y-109778605D01*
X125607609Y-109983489D01*
X125563763Y-109991500D01*
X113747741Y-109991500D01*
X113727237Y-109989236D01*
X113657145Y-109991439D01*
X113653251Y-109991500D01*
X113625650Y-109991500D01*
X113621799Y-109991986D01*
X113621768Y-109991988D01*
X113621640Y-109992005D01*
X113610028Y-109992918D01*
X113566368Y-109994290D01*
X113547128Y-109999880D01*
X113528081Y-110003825D01*
X113508209Y-110006335D01*
X113467599Y-110022413D01*
X113456554Y-110026194D01*
X113414610Y-110038381D01*
X113397365Y-110048579D01*
X113379904Y-110057133D01*
X113361267Y-110064512D01*
X113325931Y-110090185D01*
X113316174Y-110096595D01*
X113278580Y-110118829D01*
X113264413Y-110132996D01*
X113249624Y-110145626D01*
X113233413Y-110157404D01*
X113205572Y-110191058D01*
X113197711Y-110199697D01*
X111122208Y-112275199D01*
X111106110Y-112288096D01*
X111058096Y-112339225D01*
X111055392Y-112342016D01*
X111038628Y-112358780D01*
X111038621Y-112358787D01*
X111035880Y-112361529D01*
X111033499Y-112364597D01*
X111033490Y-112364608D01*
X111033411Y-112364711D01*
X111025842Y-112373572D01*
X110995935Y-112405420D01*
X110986285Y-112422974D01*
X110975609Y-112439228D01*
X110963326Y-112455063D01*
X110945975Y-112495158D01*
X110940838Y-112505644D01*
X110919802Y-112543907D01*
X110914821Y-112563309D01*
X110908520Y-112581711D01*
X110900561Y-112600102D01*
X110893728Y-112643242D01*
X110891360Y-112654674D01*
X110880499Y-112696977D01*
X110880500Y-112717016D01*
X110878973Y-112736414D01*
X110875840Y-112756194D01*
X110879950Y-112799673D01*
X110880500Y-112811343D01*
X110880500Y-114641761D01*
X110872489Y-114685607D01*
X110668104Y-115226278D01*
X110668093Y-115226307D01*
X110667605Y-115227600D01*
X110667176Y-115228908D01*
X110667166Y-115228939D01*
X110653417Y-115270949D01*
X110652979Y-115274345D01*
X110647933Y-115296776D01*
X110620326Y-115381743D01*
X110600540Y-115570000D01*
X110620326Y-115758257D01*
X110678820Y-115938284D01*
X110773466Y-116102216D01*
X110900129Y-116242889D01*
X111053269Y-116354151D01*
X111226197Y-116431144D01*
X111411352Y-116470500D01*
X111411354Y-116470500D01*
X111600648Y-116470500D01*
X111724083Y-116444262D01*
X111785803Y-116431144D01*
X111958730Y-116354151D01*
X112111871Y-116242888D01*
X112238533Y-116102216D01*
X112333179Y-115938284D01*
X112391674Y-115758256D01*
X112411460Y-115570000D01*
X112391674Y-115381744D01*
X112352287Y-115260526D01*
X112349171Y-115249105D01*
X112344393Y-115227597D01*
X112176486Y-114783423D01*
X112139509Y-114685605D01*
X112131499Y-114641768D01*
X112131499Y-113086451D01*
X112151184Y-113019413D01*
X112167818Y-112998771D01*
X112584879Y-112581711D01*
X113456692Y-111709898D01*
X113887772Y-111278819D01*
X113949095Y-111245334D01*
X113975453Y-111242500D01*
X117687024Y-111242500D01*
X117754063Y-111262185D01*
X117799818Y-111314989D01*
X117809762Y-111384147D01*
X117780737Y-111447703D01*
X117759910Y-111466818D01*
X117758128Y-111468112D01*
X117631466Y-111608783D01*
X117536820Y-111772715D01*
X117478326Y-111952742D01*
X117458540Y-112141000D01*
X117478326Y-112329257D01*
X117536820Y-112509284D01*
X117631466Y-112673216D01*
X117758129Y-112813889D01*
X117911269Y-112925151D01*
X118084197Y-113002144D01*
X118269352Y-113041500D01*
X118269354Y-113041500D01*
X118458648Y-113041500D01*
X118643803Y-113002144D01*
X118651378Y-112998771D01*
X118672059Y-112989562D01*
X118695605Y-112981791D01*
X118706400Y-112979394D01*
X118739158Y-112967011D01*
X119248388Y-112774511D01*
X119292234Y-112766500D01*
X123514548Y-112766500D01*
X123581587Y-112786185D01*
X123602229Y-112802819D01*
X124504340Y-113704930D01*
X124529680Y-113741598D01*
X124768051Y-114269719D01*
X124768655Y-114270911D01*
X124768681Y-114270965D01*
X124769452Y-114272485D01*
X124774917Y-114285719D01*
X124783422Y-114300451D01*
X124786632Y-114306378D01*
X124789942Y-114312907D01*
X124794804Y-114320164D01*
X124870465Y-114451214D01*
X124997129Y-114591889D01*
X125150269Y-114703151D01*
X125323197Y-114780144D01*
X125508352Y-114819500D01*
X125508354Y-114819500D01*
X125697648Y-114819500D01*
X125867376Y-114783423D01*
X125882803Y-114780144D01*
X126055730Y-114703151D01*
X126109042Y-114664418D01*
X126208870Y-114591889D01*
X126310531Y-114478984D01*
X126335533Y-114451216D01*
X126430179Y-114287284D01*
X126488674Y-114107256D01*
X126508460Y-113919000D01*
X126488674Y-113730744D01*
X126430179Y-113550716D01*
X126430179Y-113550715D01*
X126335533Y-113386783D01*
X126208870Y-113246110D01*
X126055732Y-113134849D01*
X125990243Y-113105692D01*
X125974106Y-113097026D01*
X125953719Y-113084051D01*
X125521890Y-112889142D01*
X125425598Y-112845680D01*
X125388930Y-112820340D01*
X124858804Y-112290214D01*
X124325802Y-111757211D01*
X124312906Y-111741113D01*
X124261775Y-111693098D01*
X124258978Y-111690387D01*
X124242227Y-111673636D01*
X124239471Y-111670880D01*
X124236290Y-111668412D01*
X124227422Y-111660837D01*
X124195582Y-111630938D01*
X124178024Y-111621285D01*
X124161764Y-111610604D01*
X124145936Y-111598327D01*
X124105851Y-111580980D01*
X124095361Y-111575841D01*
X124057091Y-111554802D01*
X124037691Y-111549821D01*
X124019284Y-111543519D01*
X124000897Y-111535562D01*
X123957758Y-111528729D01*
X123946324Y-111526361D01*
X123904019Y-111515500D01*
X123883984Y-111515500D01*
X123864586Y-111513973D01*
X123857162Y-111512797D01*
X123844805Y-111510840D01*
X123844804Y-111510840D01*
X123811751Y-111513964D01*
X123801325Y-111514950D01*
X123789656Y-111515500D01*
X119292236Y-111515500D01*
X119248390Y-111507489D01*
X119182256Y-111482489D01*
X119126508Y-111440371D01*
X119102380Y-111374800D01*
X119117533Y-111306593D01*
X119167156Y-111257406D01*
X119226102Y-111242500D01*
X125563766Y-111242500D01*
X125607611Y-111250510D01*
X126149599Y-111455394D01*
X126177533Y-111464536D01*
X126186962Y-111467622D01*
X126198825Y-111472190D01*
X126212197Y-111478144D01*
X126212198Y-111478144D01*
X126212200Y-111478145D01*
X126397352Y-111517500D01*
X126397354Y-111517500D01*
X126586648Y-111517500D01*
X126771803Y-111478144D01*
X126785168Y-111472193D01*
X126800059Y-111465562D01*
X126823605Y-111457791D01*
X126834400Y-111455394D01*
X126835874Y-111454837D01*
X127376388Y-111250511D01*
X127420234Y-111242500D01*
X141675548Y-111242500D01*
X141742587Y-111262185D01*
X141763229Y-111278819D01*
X142220840Y-111736430D01*
X142246180Y-111773098D01*
X142295590Y-111882567D01*
X142484551Y-112301219D01*
X142485155Y-112302411D01*
X142485181Y-112302465D01*
X142485952Y-112303985D01*
X142491417Y-112317219D01*
X142499922Y-112331951D01*
X142503132Y-112337878D01*
X142506442Y-112344407D01*
X142511304Y-112351664D01*
X142586965Y-112482714D01*
X142713629Y-112623389D01*
X142866769Y-112734651D01*
X143018531Y-112802221D01*
X143071768Y-112847471D01*
X143092089Y-112914320D01*
X143073044Y-112981544D01*
X143020677Y-113027799D01*
X142968095Y-113039500D01*
X134803452Y-113039500D01*
X134736413Y-113019815D01*
X134715771Y-113003181D01*
X134575657Y-112863067D01*
X134550317Y-112826399D01*
X134547582Y-112820340D01*
X134372089Y-112431525D01*
X134312527Y-112299562D01*
X134312520Y-112299548D01*
X134311948Y-112298280D01*
X134310564Y-112295549D01*
X134305088Y-112282291D01*
X134304178Y-112280715D01*
X134296569Y-112267535D01*
X134293367Y-112261622D01*
X134290060Y-112255097D01*
X134285202Y-112247848D01*
X134209533Y-112116784D01*
X134209532Y-112116782D01*
X134082870Y-111976110D01*
X133929730Y-111864848D01*
X133756802Y-111787855D01*
X133571648Y-111748500D01*
X133571646Y-111748500D01*
X133382354Y-111748500D01*
X133382352Y-111748500D01*
X133197197Y-111787855D01*
X133024269Y-111864848D01*
X132871129Y-111976110D01*
X132744466Y-112116783D01*
X132649820Y-112280715D01*
X132591326Y-112460742D01*
X132571540Y-112649000D01*
X132591326Y-112837257D01*
X132649820Y-113017284D01*
X132744466Y-113181216D01*
X132871129Y-113321889D01*
X133024268Y-113433150D01*
X133089756Y-113462307D01*
X133105893Y-113470972D01*
X133126280Y-113483948D01*
X133654399Y-113722318D01*
X133691066Y-113747657D01*
X133992196Y-114048787D01*
X134005096Y-114064888D01*
X134056223Y-114112900D01*
X134059020Y-114115611D01*
X134078529Y-114135120D01*
X134081709Y-114137587D01*
X134090571Y-114145155D01*
X134122418Y-114175062D01*
X134139586Y-114184500D01*
X134139972Y-114184712D01*
X134156236Y-114195396D01*
X134164552Y-114201846D01*
X134172064Y-114207673D01*
X134196909Y-114218424D01*
X134212152Y-114225021D01*
X134222631Y-114230154D01*
X134260908Y-114251197D01*
X134280306Y-114256177D01*
X134298708Y-114262477D01*
X134317104Y-114270438D01*
X134360261Y-114277273D01*
X134371664Y-114279634D01*
X134413981Y-114290500D01*
X134434016Y-114290500D01*
X134453413Y-114292026D01*
X134473196Y-114295160D01*
X134516674Y-114291050D01*
X134528344Y-114290500D01*
X154095256Y-114290500D01*
X154115762Y-114292764D01*
X154118665Y-114292672D01*
X154118667Y-114292673D01*
X154185872Y-114290561D01*
X154189768Y-114290500D01*
X154213448Y-114290500D01*
X154217350Y-114290500D01*
X154221313Y-114289999D01*
X154232962Y-114289080D01*
X154276627Y-114287709D01*
X154295859Y-114282120D01*
X154314918Y-114278174D01*
X154322091Y-114277268D01*
X154334792Y-114275664D01*
X154375407Y-114259582D01*
X154386444Y-114255803D01*
X154428390Y-114243618D01*
X154445629Y-114233422D01*
X154463096Y-114224864D01*
X154481732Y-114217486D01*
X154481733Y-114217485D01*
X154496300Y-114211718D01*
X154497112Y-114213769D01*
X154525632Y-114201846D01*
X154620697Y-114186154D01*
X154640891Y-114184500D01*
X154653648Y-114184500D01*
X154777084Y-114158262D01*
X154838803Y-114145144D01*
X155011730Y-114068151D01*
X155164871Y-113956888D01*
X155291533Y-113816216D01*
X155386179Y-113652284D01*
X155444674Y-113472256D01*
X155464460Y-113284000D01*
X155444674Y-113095744D01*
X155386179Y-112915716D01*
X155386179Y-112915715D01*
X155291533Y-112751783D01*
X155164870Y-112611110D01*
X155011732Y-112499849D01*
X154946243Y-112470692D01*
X154930106Y-112462026D01*
X154909719Y-112449051D01*
X154381600Y-112210681D01*
X154344932Y-112185341D01*
X153359852Y-111200261D01*
X153326367Y-111138938D01*
X153329514Y-111074535D01*
X153374358Y-110935445D01*
X153374367Y-110935411D01*
X153374939Y-110933475D01*
X153383859Y-110902263D01*
X153388905Y-110878403D01*
X153412674Y-110805256D01*
X153432460Y-110617000D01*
X153412674Y-110428744D01*
X153354179Y-110248716D01*
X153354179Y-110248715D01*
X153259533Y-110084783D01*
X153132870Y-109944110D01*
X152979730Y-109832848D01*
X152806802Y-109755855D01*
X152621648Y-109716500D01*
X152621646Y-109716500D01*
X152432354Y-109716500D01*
X152432352Y-109716500D01*
X152247197Y-109755855D01*
X152074269Y-109832848D01*
X151921129Y-109944110D01*
X151794466Y-110084783D01*
X151699820Y-110248715D01*
X151641326Y-110428742D01*
X151621540Y-110617000D01*
X151641326Y-110805257D01*
X151699819Y-110985281D01*
X151718161Y-111017049D01*
X151725830Y-111032810D01*
X151726680Y-111034926D01*
X151891482Y-111319508D01*
X151903251Y-111347051D01*
X151909878Y-111369859D01*
X151913825Y-111388916D01*
X151916335Y-111408792D01*
X151932414Y-111449404D01*
X151936197Y-111460451D01*
X151948382Y-111502391D01*
X151958580Y-111519635D01*
X151967136Y-111537100D01*
X151974514Y-111555732D01*
X151974515Y-111555733D01*
X152000180Y-111591059D01*
X152006593Y-111600822D01*
X152028826Y-111638416D01*
X152028829Y-111638419D01*
X152028830Y-111638420D01*
X152042995Y-111652585D01*
X152055627Y-111667375D01*
X152067406Y-111683587D01*
X152101058Y-111711426D01*
X152109699Y-111719289D01*
X153218228Y-112827819D01*
X153251713Y-112889142D01*
X153246729Y-112958834D01*
X153204857Y-113014767D01*
X153139393Y-113039184D01*
X153130547Y-113039500D01*
X143670905Y-113039500D01*
X143603866Y-113019815D01*
X143558111Y-112967011D01*
X143548167Y-112897853D01*
X143577192Y-112834297D01*
X143620469Y-112802221D01*
X143772230Y-112734651D01*
X143925370Y-112623389D01*
X143979467Y-112563309D01*
X144052033Y-112482716D01*
X144146679Y-112318784D01*
X144205174Y-112138756D01*
X144224960Y-111950500D01*
X144205174Y-111762244D01*
X144171785Y-111659484D01*
X144146679Y-111582215D01*
X144057314Y-111427430D01*
X144040841Y-111359530D01*
X144063694Y-111293503D01*
X144118615Y-111250312D01*
X144188168Y-111243671D01*
X144250271Y-111275687D01*
X144252382Y-111277749D01*
X144585267Y-111610634D01*
X144597048Y-111624266D01*
X144607762Y-111638657D01*
X144611390Y-111643530D01*
X144642243Y-111669419D01*
X144649339Y-111675373D01*
X144657314Y-111682681D01*
X144661223Y-111686590D01*
X144664055Y-111688829D01*
X144664065Y-111688838D01*
X144685542Y-111705819D01*
X144688298Y-111708063D01*
X144745786Y-111756302D01*
X144745788Y-111756303D01*
X144746757Y-111757116D01*
X144763177Y-111767576D01*
X144764321Y-111768109D01*
X144764323Y-111768111D01*
X144832357Y-111799835D01*
X144835456Y-111801335D01*
X144901667Y-111834588D01*
X144903704Y-111835611D01*
X144922084Y-111841998D01*
X144923321Y-111842253D01*
X144923327Y-111842256D01*
X144996862Y-111857439D01*
X145000209Y-111858181D01*
X145073279Y-111875500D01*
X145073281Y-111875500D01*
X145074505Y-111875790D01*
X145093876Y-111877769D01*
X145095140Y-111877732D01*
X145095144Y-111877733D01*
X145170110Y-111875552D01*
X145173716Y-111875500D01*
X149034294Y-111875500D01*
X149052264Y-111876809D01*
X149056320Y-111877402D01*
X149076023Y-111880289D01*
X149125368Y-111875972D01*
X149136176Y-111875500D01*
X149138100Y-111875500D01*
X149141709Y-111875500D01*
X149172550Y-111871894D01*
X149176031Y-111871539D01*
X149250797Y-111864999D01*
X149250797Y-111864998D01*
X149252052Y-111864889D01*
X149271062Y-111860674D01*
X149272250Y-111860241D01*
X149272255Y-111860241D01*
X149342820Y-111834557D01*
X149346095Y-111833419D01*
X149417334Y-111809814D01*
X149417336Y-111809812D01*
X149418536Y-111809415D01*
X149436063Y-111800929D01*
X149437112Y-111800238D01*
X149437117Y-111800237D01*
X149499806Y-111759005D01*
X149502798Y-111757099D01*
X149566656Y-111717712D01*
X149566656Y-111717711D01*
X149567729Y-111717050D01*
X149582824Y-111704753D01*
X149583692Y-111703832D01*
X149583696Y-111703830D01*
X149635184Y-111649254D01*
X149637630Y-111646736D01*
X150599642Y-110684724D01*
X150613260Y-110672954D01*
X150632530Y-110658610D01*
X150664366Y-110620667D01*
X150671680Y-110612688D01*
X150672264Y-110612103D01*
X150675591Y-110608777D01*
X150694833Y-110584439D01*
X150697090Y-110581670D01*
X150711853Y-110564075D01*
X150745302Y-110524214D01*
X150745303Y-110524211D01*
X150746115Y-110523244D01*
X150756573Y-110506827D01*
X150757106Y-110505682D01*
X150757111Y-110505677D01*
X150788833Y-110437646D01*
X150790362Y-110434488D01*
X150824040Y-110367433D01*
X150824040Y-110367432D01*
X150824612Y-110366294D01*
X150831000Y-110347914D01*
X150831255Y-110346675D01*
X150831257Y-110346673D01*
X150846447Y-110273103D01*
X150847186Y-110269770D01*
X150864500Y-110196721D01*
X150864500Y-110196716D01*
X150864791Y-110195489D01*
X150866770Y-110176121D01*
X150866733Y-110174859D01*
X150866734Y-110174856D01*
X150864552Y-110099869D01*
X150864500Y-110096263D01*
X150864500Y-109582229D01*
X150884185Y-109515190D01*
X150900819Y-109494548D01*
X151150549Y-109244819D01*
X151211872Y-109211334D01*
X151238230Y-109208500D01*
X158626830Y-109208500D01*
X158649682Y-109210624D01*
X159258755Y-109324824D01*
X159261645Y-109325403D01*
X159345174Y-109343157D01*
X159417353Y-109358500D01*
X159417354Y-109358500D01*
X159444926Y-109358500D01*
X159450374Y-109358620D01*
X159450856Y-109358688D01*
X159452983Y-109358888D01*
X159524384Y-109358500D01*
X159606646Y-109358500D01*
X159606648Y-109358500D01*
X159730083Y-109332262D01*
X159791803Y-109319144D01*
X159964730Y-109242151D01*
X160050255Y-109180014D01*
X160117870Y-109130889D01*
X160183892Y-109057565D01*
X160244533Y-108990216D01*
X160339179Y-108826284D01*
X160397674Y-108646256D01*
X160417460Y-108458000D01*
X160397674Y-108269744D01*
X160359729Y-108152961D01*
X160339179Y-108089715D01*
X160244533Y-107925783D01*
X160117870Y-107785110D01*
X159964730Y-107673848D01*
X159791802Y-107596855D01*
X159606648Y-107557500D01*
X159606646Y-107557500D01*
X159417354Y-107557500D01*
X159417352Y-107557500D01*
X159261702Y-107590584D01*
X159258773Y-107591170D01*
X158649676Y-107705376D01*
X158626824Y-107707500D01*
X150939706Y-107707500D01*
X150921736Y-107706191D01*
X150907853Y-107704157D01*
X150897977Y-107702711D01*
X150897976Y-107702711D01*
X150848631Y-107707028D01*
X150837824Y-107707500D01*
X150832291Y-107707500D01*
X150828730Y-107707916D01*
X150828715Y-107707917D01*
X150801501Y-107711098D01*
X150797916Y-107711464D01*
X150721961Y-107718109D01*
X150702921Y-107722330D01*
X150631232Y-107748421D01*
X150627831Y-107749603D01*
X150555474Y-107773580D01*
X150537927Y-107782075D01*
X150474221Y-107823975D01*
X150471181Y-107825912D01*
X150406280Y-107865944D01*
X150391165Y-107878256D01*
X150338832Y-107933725D01*
X150336320Y-107936311D01*
X149628359Y-108644271D01*
X149614728Y-108656051D01*
X149595470Y-108670388D01*
X149563635Y-108708328D01*
X149556338Y-108716292D01*
X149554972Y-108717657D01*
X149554950Y-108717681D01*
X149552409Y-108720223D01*
X149550173Y-108723050D01*
X149550171Y-108723053D01*
X149533176Y-108744546D01*
X149530902Y-108747337D01*
X149481894Y-108805744D01*
X149471418Y-108822187D01*
X149439192Y-108891294D01*
X149437622Y-108894536D01*
X149403393Y-108962692D01*
X149396996Y-108981098D01*
X149381573Y-109055788D01*
X149380793Y-109059305D01*
X149363208Y-109133506D01*
X149361229Y-109152879D01*
X149363448Y-109229129D01*
X149363500Y-109232735D01*
X149363500Y-109746769D01*
X149343815Y-109813808D01*
X149327181Y-109834450D01*
X148823451Y-110338181D01*
X148762128Y-110371666D01*
X148735770Y-110374500D01*
X145523230Y-110374500D01*
X145456191Y-110354815D01*
X145435549Y-110338181D01*
X145036647Y-109939279D01*
X145003162Y-109877956D01*
X145008146Y-109808264D01*
X145050018Y-109752331D01*
X145115482Y-109727914D01*
X145150108Y-109730307D01*
X145193354Y-109739500D01*
X145382648Y-109739500D01*
X145506084Y-109713262D01*
X145567803Y-109700144D01*
X145740730Y-109623151D01*
X145867749Y-109530867D01*
X145893870Y-109511889D01*
X145935789Y-109465334D01*
X146020533Y-109371216D01*
X146115179Y-109207284D01*
X146173674Y-109027256D01*
X146193460Y-108839000D01*
X146173674Y-108650744D01*
X146115179Y-108470716D01*
X146115179Y-108470715D01*
X146020533Y-108306783D01*
X145893870Y-108166110D01*
X145740732Y-108054849D01*
X145675243Y-108025692D01*
X145659106Y-108017026D01*
X145638719Y-108004051D01*
X145153650Y-107785112D01*
X145110600Y-107765681D01*
X145073932Y-107740341D01*
X143248802Y-105915211D01*
X143235906Y-105899113D01*
X143184775Y-105851098D01*
X143181978Y-105848387D01*
X143165227Y-105831636D01*
X143162471Y-105828880D01*
X143159290Y-105826412D01*
X143150422Y-105818837D01*
X143118582Y-105788938D01*
X143101024Y-105779285D01*
X143084764Y-105768604D01*
X143068936Y-105756327D01*
X143028851Y-105738980D01*
X143018361Y-105733841D01*
X142980091Y-105712802D01*
X142960691Y-105707821D01*
X142942284Y-105701519D01*
X142923897Y-105693562D01*
X142880758Y-105686729D01*
X142869324Y-105684361D01*
X142827019Y-105673500D01*
X142806984Y-105673500D01*
X142787586Y-105671973D01*
X142780162Y-105670797D01*
X142767805Y-105668840D01*
X142767804Y-105668840D01*
X142734751Y-105671964D01*
X142724325Y-105672950D01*
X142712656Y-105673500D01*
X127547236Y-105673500D01*
X127503390Y-105665489D01*
X126978435Y-105467045D01*
X126962691Y-105461093D01*
X126962665Y-105461084D01*
X126961393Y-105460603D01*
X126924045Y-105448380D01*
X126912187Y-105443813D01*
X126898805Y-105437856D01*
X126713648Y-105398500D01*
X126713646Y-105398500D01*
X126524354Y-105398500D01*
X126524352Y-105398500D01*
X126339197Y-105437855D01*
X126166269Y-105514848D01*
X126013129Y-105626110D01*
X125886466Y-105766783D01*
X125791820Y-105930715D01*
X125733326Y-106110742D01*
X125713540Y-106299000D01*
X125733326Y-106487257D01*
X125791820Y-106667284D01*
X125886466Y-106831216D01*
X126013129Y-106971889D01*
X126166269Y-107083151D01*
X126339197Y-107160144D01*
X126524352Y-107199500D01*
X126524354Y-107199500D01*
X126713648Y-107199500D01*
X126898803Y-107160144D01*
X126927059Y-107147562D01*
X126950605Y-107139791D01*
X126961400Y-107137394D01*
X127503388Y-106932510D01*
X127547233Y-106924500D01*
X142437548Y-106924500D01*
X142504587Y-106944185D01*
X142525228Y-106960818D01*
X143388384Y-107823975D01*
X144189340Y-108624931D01*
X144214680Y-108661599D01*
X144310371Y-108873607D01*
X144320009Y-108942809D01*
X144290703Y-109006236D01*
X144231759Y-109043750D01*
X144161890Y-109043442D01*
X144109669Y-109012301D01*
X143323728Y-108226360D01*
X143311946Y-108212727D01*
X143297609Y-108193469D01*
X143259666Y-108161631D01*
X143251691Y-108154323D01*
X143250329Y-108152961D01*
X143247777Y-108150409D01*
X143223444Y-108131169D01*
X143220647Y-108128890D01*
X143162251Y-108079890D01*
X143145821Y-108069422D01*
X143076691Y-108037186D01*
X143073447Y-108035615D01*
X143005306Y-108001394D01*
X142986903Y-107994997D01*
X142912211Y-107979574D01*
X142908692Y-107978794D01*
X142834490Y-107961208D01*
X142815121Y-107959229D01*
X142738869Y-107961448D01*
X142735263Y-107961500D01*
X142324202Y-107961500D01*
X142292765Y-107957449D01*
X142289949Y-107956711D01*
X141555243Y-107764153D01*
X141553337Y-107763653D01*
X141543068Y-107761170D01*
X141534690Y-107759144D01*
X141534687Y-107759143D01*
X141524845Y-107756764D01*
X141524891Y-107756571D01*
X141514701Y-107754662D01*
X141420132Y-107725976D01*
X141374442Y-107721476D01*
X141224000Y-107706659D01*
X141223999Y-107706659D01*
X141027867Y-107725976D01*
X140919832Y-107758747D01*
X140897899Y-107763286D01*
X140894649Y-107763657D01*
X140235885Y-107936311D01*
X140155233Y-107957449D01*
X140123796Y-107961500D01*
X109410706Y-107961500D01*
X109392736Y-107960191D01*
X109374015Y-107957449D01*
X109368977Y-107956711D01*
X109368976Y-107956711D01*
X109319634Y-107961028D01*
X109308827Y-107961500D01*
X109303291Y-107961500D01*
X109299730Y-107961916D01*
X109299715Y-107961917D01*
X109272484Y-107965100D01*
X109268900Y-107965466D01*
X109192950Y-107972111D01*
X109173922Y-107976329D01*
X109102270Y-108002407D01*
X109098869Y-108003589D01*
X109026480Y-108027578D01*
X109008927Y-108036076D01*
X108945236Y-108077965D01*
X108942196Y-108079902D01*
X108877280Y-108119943D01*
X108862165Y-108132255D01*
X108809848Y-108187708D01*
X108807336Y-108190294D01*
X105432358Y-111565272D01*
X105418727Y-111577053D01*
X105399468Y-111591391D01*
X105367635Y-111629328D01*
X105360338Y-111637292D01*
X105358972Y-111638657D01*
X105358950Y-111638681D01*
X105356409Y-111641223D01*
X105354173Y-111644050D01*
X105354171Y-111644053D01*
X105337176Y-111665546D01*
X105334902Y-111668337D01*
X105285894Y-111726744D01*
X105275418Y-111743187D01*
X105243192Y-111812294D01*
X105241622Y-111815536D01*
X105207393Y-111883692D01*
X105200996Y-111902098D01*
X105185573Y-111976788D01*
X105184793Y-111980305D01*
X105167208Y-112054506D01*
X105165229Y-112073881D01*
X105167447Y-112150130D01*
X105167499Y-112153735D01*
X105167499Y-128923770D01*
X105147814Y-128990809D01*
X105131180Y-129011451D01*
X102849451Y-131293181D01*
X102788128Y-131326666D01*
X102761770Y-131329500D01*
X102477076Y-131329500D01*
X102432083Y-131321049D01*
X101869283Y-131101902D01*
X101378284Y-130910713D01*
X101322957Y-130868046D01*
X101299480Y-130802238D01*
X101315308Y-130734185D01*
X101352155Y-130693590D01*
X101517078Y-130578109D01*
X101684106Y-130411081D01*
X101819600Y-130217576D01*
X101919430Y-130003492D01*
X101976636Y-129790000D01*
X101079686Y-129790000D01*
X101105493Y-129749844D01*
X101146000Y-129611889D01*
X101146000Y-129468111D01*
X101105493Y-129330156D01*
X101079686Y-129290000D01*
X101976636Y-129290000D01*
X101976635Y-129289999D01*
X101919430Y-129076507D01*
X101819599Y-128862421D01*
X101684109Y-128668921D01*
X101517081Y-128501893D01*
X101331404Y-128371880D01*
X101287780Y-128317303D01*
X101280587Y-128247804D01*
X101312109Y-128185450D01*
X101331399Y-128168734D01*
X101517401Y-128038495D01*
X101684495Y-127871401D01*
X101820035Y-127677830D01*
X101919903Y-127463663D01*
X101981063Y-127235408D01*
X102001659Y-127000000D01*
X101981063Y-126764592D01*
X101919903Y-126536337D01*
X101820035Y-126322171D01*
X101684495Y-126128599D01*
X101517401Y-125961505D01*
X101331839Y-125831573D01*
X101288215Y-125776997D01*
X101281023Y-125707498D01*
X101312545Y-125645144D01*
X101331831Y-125628432D01*
X101517401Y-125498495D01*
X101684495Y-125331401D01*
X101820035Y-125137830D01*
X101919903Y-124923663D01*
X101981063Y-124695408D01*
X102001659Y-124460000D01*
X101981063Y-124224592D01*
X101919903Y-123996337D01*
X101820035Y-123782171D01*
X101684495Y-123588599D01*
X101517401Y-123421505D01*
X101331839Y-123291573D01*
X101288216Y-123236998D01*
X101281022Y-123167500D01*
X101312545Y-123105145D01*
X101331837Y-123088428D01*
X101517401Y-122958495D01*
X101684495Y-122791401D01*
X101820035Y-122597830D01*
X101919903Y-122383663D01*
X101981063Y-122155408D01*
X102001659Y-121920000D01*
X101981063Y-121684592D01*
X101919903Y-121456337D01*
X101820035Y-121242171D01*
X101684495Y-121048599D01*
X101562569Y-120926673D01*
X101529084Y-120865350D01*
X101534068Y-120795658D01*
X101575940Y-120739725D01*
X101606915Y-120722810D01*
X101738331Y-120673796D01*
X101853546Y-120587546D01*
X101939796Y-120472331D01*
X101990091Y-120337483D01*
X101996500Y-120277873D01*
X101996499Y-118482128D01*
X101990091Y-118422517D01*
X101939796Y-118287669D01*
X101853546Y-118172454D01*
X101738331Y-118086204D01*
X101603483Y-118035909D01*
X101543873Y-118029500D01*
X101540550Y-118029500D01*
X99751439Y-118029500D01*
X99751420Y-118029500D01*
X99748128Y-118029501D01*
X99744848Y-118029853D01*
X99744840Y-118029854D01*
X99688515Y-118035909D01*
X99553669Y-118086204D01*
X99438454Y-118172454D01*
X99352204Y-118287669D01*
X99303189Y-118419083D01*
X99261317Y-118475016D01*
X99195852Y-118499433D01*
X99127580Y-118484581D01*
X99099326Y-118463430D01*
X98977404Y-118341508D01*
X98977401Y-118341505D01*
X98783830Y-118205965D01*
X98569663Y-118106097D01*
X98508501Y-118089709D01*
X98341407Y-118044936D01*
X98105999Y-118024340D01*
X97870592Y-118044936D01*
X97642336Y-118106097D01*
X97428170Y-118205965D01*
X97234598Y-118341505D01*
X97067505Y-118508598D01*
X96931965Y-118702170D01*
X96832097Y-118916336D01*
X96770936Y-119144592D01*
X96750340Y-119380000D01*
X96770936Y-119615407D01*
X96815709Y-119782502D01*
X96832097Y-119843663D01*
X96931965Y-120057830D01*
X97067505Y-120251401D01*
X97234599Y-120418495D01*
X97420160Y-120548426D01*
X97463783Y-120603002D01*
X97470976Y-120672501D01*
X97439454Y-120734855D01*
X97420159Y-120751575D01*
X97234595Y-120881508D01*
X97067505Y-121048598D01*
X96931965Y-121242170D01*
X96832097Y-121456336D01*
X96770936Y-121684592D01*
X96750340Y-121920000D01*
X96770936Y-122155407D01*
X96815709Y-122322501D01*
X96832097Y-122383663D01*
X96931965Y-122597830D01*
X97067505Y-122791401D01*
X97234599Y-122958495D01*
X97420160Y-123088426D01*
X97463783Y-123143002D01*
X97470976Y-123212501D01*
X97439454Y-123274855D01*
X97420159Y-123291575D01*
X97234595Y-123421508D01*
X97067505Y-123588598D01*
X96931965Y-123782170D01*
X96832097Y-123996336D01*
X96770936Y-124224592D01*
X96750340Y-124459999D01*
X96770936Y-124695407D01*
X96789615Y-124765117D01*
X96832097Y-124923663D01*
X96931965Y-125137830D01*
X97067505Y-125331401D01*
X97234599Y-125498495D01*
X97420160Y-125628426D01*
X97463783Y-125683002D01*
X97470976Y-125752501D01*
X97439454Y-125814855D01*
X97420159Y-125831575D01*
X97234595Y-125961508D01*
X97067505Y-126128598D01*
X96931965Y-126322170D01*
X96832097Y-126536336D01*
X96770936Y-126764592D01*
X96750340Y-127000000D01*
X96770936Y-127235407D01*
X96815709Y-127402502D01*
X96832097Y-127463663D01*
X96931965Y-127677830D01*
X97067505Y-127871401D01*
X97234599Y-128038495D01*
X97420596Y-128168732D01*
X97464219Y-128223307D01*
X97471412Y-128292806D01*
X97439890Y-128355160D01*
X97420595Y-128371880D01*
X97234919Y-128501892D01*
X97067890Y-128668921D01*
X96932400Y-128862421D01*
X96832569Y-129076507D01*
X96775364Y-129289999D01*
X96775364Y-129290000D01*
X97672314Y-129290000D01*
X97646507Y-129330156D01*
X97606000Y-129468111D01*
X97606000Y-129611889D01*
X97646507Y-129749844D01*
X97672314Y-129790000D01*
X96775364Y-129790000D01*
X96832569Y-130003492D01*
X96932399Y-130217576D01*
X97067893Y-130411081D01*
X97234918Y-130578106D01*
X97420595Y-130708119D01*
X97464219Y-130762696D01*
X97471412Y-130832195D01*
X97439890Y-130894549D01*
X97420595Y-130911269D01*
X97290968Y-131002035D01*
X97243110Y-131035546D01*
X97234595Y-131041508D01*
X97067505Y-131208598D01*
X96931965Y-131402170D01*
X96832097Y-131616336D01*
X96770936Y-131844592D01*
X96750340Y-132080000D01*
X94438540Y-132080000D01*
X94483695Y-99568000D01*
X124628340Y-99568000D01*
X124648936Y-99803407D01*
X124693709Y-99970502D01*
X124710097Y-100031663D01*
X124809965Y-100245830D01*
X124945505Y-100439401D01*
X125112599Y-100606495D01*
X125306170Y-100742035D01*
X125520337Y-100841903D01*
X125748592Y-100903063D01*
X125984000Y-100923659D01*
X126219408Y-100903063D01*
X126447663Y-100841903D01*
X126661830Y-100742035D01*
X126855401Y-100606495D01*
X127022495Y-100439401D01*
X127152426Y-100253839D01*
X127207002Y-100210216D01*
X127276500Y-100203022D01*
X127338855Y-100234545D01*
X127355571Y-100253837D01*
X127485505Y-100439401D01*
X127652599Y-100606495D01*
X127846170Y-100742035D01*
X128060337Y-100841903D01*
X128288592Y-100903063D01*
X128524000Y-100923659D01*
X128759408Y-100903063D01*
X128987663Y-100841903D01*
X129201830Y-100742035D01*
X129395401Y-100606495D01*
X129562495Y-100439401D01*
X129692427Y-100253838D01*
X129747001Y-100210216D01*
X129816499Y-100203022D01*
X129878854Y-100234545D01*
X129895572Y-100253838D01*
X130025505Y-100439401D01*
X130192599Y-100606495D01*
X130386170Y-100742035D01*
X130600337Y-100841903D01*
X130828592Y-100903063D01*
X131063999Y-100923659D01*
X131063999Y-100923658D01*
X131064000Y-100923659D01*
X131299408Y-100903063D01*
X131527663Y-100841903D01*
X131741830Y-100742035D01*
X131935401Y-100606495D01*
X132102495Y-100439401D01*
X132232426Y-100253839D01*
X132287002Y-100210216D01*
X132356500Y-100203022D01*
X132418855Y-100234545D01*
X132435571Y-100253837D01*
X132565505Y-100439401D01*
X132732599Y-100606495D01*
X132926170Y-100742035D01*
X133140337Y-100841903D01*
X133368591Y-100903063D01*
X133368592Y-100903063D01*
X133603999Y-100923659D01*
X133603999Y-100923658D01*
X133604000Y-100923659D01*
X133839408Y-100903063D01*
X134067663Y-100841903D01*
X134281830Y-100742035D01*
X134475401Y-100606495D01*
X134642495Y-100439401D01*
X134772426Y-100253839D01*
X134827002Y-100210216D01*
X134896500Y-100203022D01*
X134958855Y-100234545D01*
X134975571Y-100253837D01*
X135105505Y-100439401D01*
X135272599Y-100606495D01*
X135466170Y-100742035D01*
X135680337Y-100841903D01*
X135908592Y-100903063D01*
X136144000Y-100923659D01*
X136379408Y-100903063D01*
X136607663Y-100841903D01*
X136821830Y-100742035D01*
X137015401Y-100606495D01*
X137182495Y-100439401D01*
X137312426Y-100253839D01*
X137367002Y-100210216D01*
X137436500Y-100203022D01*
X137498855Y-100234545D01*
X137515571Y-100253837D01*
X137645505Y-100439401D01*
X137812599Y-100606495D01*
X138006170Y-100742035D01*
X138220337Y-100841903D01*
X138448592Y-100903063D01*
X138684000Y-100923659D01*
X138919408Y-100903063D01*
X139147663Y-100841903D01*
X139361830Y-100742035D01*
X139555401Y-100606495D01*
X139722495Y-100439401D01*
X139852426Y-100253839D01*
X139907002Y-100210216D01*
X139976500Y-100203022D01*
X140038855Y-100234545D01*
X140055571Y-100253837D01*
X140185505Y-100439401D01*
X140352599Y-100606495D01*
X140546170Y-100742035D01*
X140760337Y-100841903D01*
X140988592Y-100903063D01*
X141224000Y-100923659D01*
X141459408Y-100903063D01*
X141687663Y-100841903D01*
X141901830Y-100742035D01*
X142095401Y-100606495D01*
X142262495Y-100439401D01*
X142392426Y-100253839D01*
X142447002Y-100210216D01*
X142516500Y-100203022D01*
X142578855Y-100234545D01*
X142595571Y-100253837D01*
X142725505Y-100439401D01*
X142892599Y-100606495D01*
X143086170Y-100742035D01*
X143300337Y-100841903D01*
X143528592Y-100903063D01*
X143763999Y-100923659D01*
X143763999Y-100923658D01*
X143764000Y-100923659D01*
X143999408Y-100903063D01*
X144227663Y-100841903D01*
X144441830Y-100742035D01*
X144635401Y-100606495D01*
X144802495Y-100439401D01*
X144932426Y-100253839D01*
X144987002Y-100210216D01*
X145056500Y-100203022D01*
X145118855Y-100234545D01*
X145135571Y-100253837D01*
X145265505Y-100439401D01*
X145432599Y-100606495D01*
X145626170Y-100742035D01*
X145840337Y-100841903D01*
X146068592Y-100903063D01*
X146304000Y-100923659D01*
X146539408Y-100903063D01*
X146767663Y-100841903D01*
X146981830Y-100742035D01*
X147175401Y-100606495D01*
X147342495Y-100439401D01*
X147472426Y-100253839D01*
X147527002Y-100210216D01*
X147596500Y-100203022D01*
X147658855Y-100234545D01*
X147675571Y-100253837D01*
X147805505Y-100439401D01*
X147972599Y-100606495D01*
X148166170Y-100742035D01*
X148380337Y-100841903D01*
X148608592Y-100903063D01*
X148844000Y-100923659D01*
X149079408Y-100903063D01*
X149307663Y-100841903D01*
X149521830Y-100742035D01*
X149715401Y-100606495D01*
X149882495Y-100439401D01*
X150012426Y-100253839D01*
X150067002Y-100210216D01*
X150136500Y-100203022D01*
X150198855Y-100234545D01*
X150215571Y-100253837D01*
X150345505Y-100439401D01*
X150512599Y-100606495D01*
X150706170Y-100742035D01*
X150920337Y-100841903D01*
X151148592Y-100903063D01*
X151384000Y-100923659D01*
X151619408Y-100903063D01*
X151847663Y-100841903D01*
X152061830Y-100742035D01*
X152255401Y-100606495D01*
X152422495Y-100439401D01*
X152552426Y-100253839D01*
X152607002Y-100210216D01*
X152676500Y-100203022D01*
X152738855Y-100234545D01*
X152755571Y-100253837D01*
X152885505Y-100439401D01*
X153052599Y-100606495D01*
X153246170Y-100742035D01*
X153460337Y-100841903D01*
X153688592Y-100903063D01*
X153923999Y-100923659D01*
X153923999Y-100923658D01*
X153924000Y-100923659D01*
X154159408Y-100903063D01*
X154387663Y-100841903D01*
X154601830Y-100742035D01*
X154795401Y-100606495D01*
X154962495Y-100439401D01*
X155092426Y-100253839D01*
X155147002Y-100210216D01*
X155216500Y-100203022D01*
X155278855Y-100234545D01*
X155295571Y-100253837D01*
X155425505Y-100439401D01*
X155592599Y-100606495D01*
X155786170Y-100742035D01*
X156000337Y-100841903D01*
X156228591Y-100903063D01*
X156228592Y-100903063D01*
X156463999Y-100923659D01*
X156463999Y-100923658D01*
X156464000Y-100923659D01*
X156699408Y-100903063D01*
X156927663Y-100841903D01*
X157141830Y-100742035D01*
X157335401Y-100606495D01*
X157502495Y-100439401D01*
X157632426Y-100253839D01*
X157687002Y-100210216D01*
X157756500Y-100203022D01*
X157818855Y-100234545D01*
X157835571Y-100253837D01*
X157965505Y-100439401D01*
X158132599Y-100606495D01*
X158326170Y-100742035D01*
X158540337Y-100841903D01*
X158768592Y-100903063D01*
X159004000Y-100923659D01*
X159239408Y-100903063D01*
X159467663Y-100841903D01*
X159681830Y-100742035D01*
X159875401Y-100606495D01*
X160042495Y-100439401D01*
X160172426Y-100253839D01*
X160227002Y-100210217D01*
X160296501Y-100203024D01*
X160358855Y-100234546D01*
X160375571Y-100253837D01*
X160505505Y-100439401D01*
X160672599Y-100606495D01*
X160866170Y-100742035D01*
X161080337Y-100841903D01*
X161308592Y-100903063D01*
X161544000Y-100923659D01*
X161779408Y-100903063D01*
X162007663Y-100841903D01*
X162221830Y-100742035D01*
X162415401Y-100606495D01*
X162582495Y-100439401D01*
X162708689Y-100259177D01*
X162763264Y-100215555D01*
X162832763Y-100208362D01*
X162895117Y-100239884D01*
X162922037Y-100276616D01*
X163446274Y-101368060D01*
X163446275Y-101368061D01*
X163458500Y-101421748D01*
X163458500Y-108452346D01*
X163438815Y-108519385D01*
X163422181Y-108540027D01*
X162007028Y-109955181D01*
X161945705Y-109988666D01*
X161919347Y-109991500D01*
X160440236Y-109991500D01*
X160396390Y-109983489D01*
X159871435Y-109785045D01*
X159855691Y-109779093D01*
X159855665Y-109779084D01*
X159854393Y-109778603D01*
X159817045Y-109766380D01*
X159805187Y-109761813D01*
X159791805Y-109755856D01*
X159606648Y-109716500D01*
X159606646Y-109716500D01*
X159417354Y-109716500D01*
X159417352Y-109716500D01*
X159232197Y-109755855D01*
X159059269Y-109832848D01*
X158906129Y-109944110D01*
X158779466Y-110084783D01*
X158684820Y-110248715D01*
X158626326Y-110428742D01*
X158606540Y-110617000D01*
X158626326Y-110805257D01*
X158684820Y-110985284D01*
X158779466Y-111149216D01*
X158906129Y-111289889D01*
X159059269Y-111401151D01*
X159182956Y-111456221D01*
X159236193Y-111501471D01*
X159256514Y-111568320D01*
X159237469Y-111635544D01*
X159185103Y-111681799D01*
X159182956Y-111682779D01*
X159059269Y-111737848D01*
X158906129Y-111849110D01*
X158779466Y-111989783D01*
X158684820Y-112153715D01*
X158626326Y-112333742D01*
X158610669Y-112482714D01*
X158606540Y-112522000D01*
X158608843Y-112543908D01*
X158626326Y-112710257D01*
X158684820Y-112890284D01*
X158779466Y-113054216D01*
X158906129Y-113194889D01*
X159059269Y-113306151D01*
X159232197Y-113383144D01*
X159417352Y-113422500D01*
X159417354Y-113422500D01*
X159606648Y-113422500D01*
X159791803Y-113383144D01*
X159820059Y-113370562D01*
X159843605Y-113362791D01*
X159854400Y-113360394D01*
X160382249Y-113160855D01*
X160451915Y-113155563D01*
X160513386Y-113188777D01*
X160513763Y-113189153D01*
X161373396Y-114048787D01*
X162059552Y-114734943D01*
X162089511Y-114783423D01*
X162265715Y-115312204D01*
X162271607Y-115328905D01*
X162271882Y-115329643D01*
X162272784Y-115331626D01*
X162272792Y-115331644D01*
X162281368Y-115350486D01*
X162286440Y-115363537D01*
X162291622Y-115379486D01*
X162386266Y-115543416D01*
X162512929Y-115684089D01*
X162666069Y-115795351D01*
X162838997Y-115872344D01*
X163024152Y-115911700D01*
X163024154Y-115911700D01*
X163213448Y-115911700D01*
X163336883Y-115885462D01*
X163398603Y-115872344D01*
X163571530Y-115795351D01*
X163724671Y-115684088D01*
X163851333Y-115543416D01*
X163945979Y-115379484D01*
X164004474Y-115199456D01*
X164024260Y-115011200D01*
X164004474Y-114822944D01*
X163959850Y-114685607D01*
X163945979Y-114642915D01*
X163851333Y-114478983D01*
X163724670Y-114338311D01*
X163638443Y-114275664D01*
X163571530Y-114227049D01*
X163538485Y-114212336D01*
X163519227Y-114200783D01*
X163009881Y-113909900D01*
X162983694Y-113889903D01*
X161232002Y-112138211D01*
X161219106Y-112122113D01*
X161167975Y-112074098D01*
X161165178Y-112071387D01*
X161148427Y-112054636D01*
X161145671Y-112051880D01*
X161142490Y-112049412D01*
X161133622Y-112041837D01*
X161101782Y-112011938D01*
X161084224Y-112002285D01*
X161067964Y-111991604D01*
X161052136Y-111979327D01*
X161012051Y-111961980D01*
X161001561Y-111956841D01*
X160963291Y-111935802D01*
X160943891Y-111930821D01*
X160925484Y-111924519D01*
X160907097Y-111916562D01*
X160863958Y-111909729D01*
X160852524Y-111907361D01*
X160810219Y-111896500D01*
X160790184Y-111896500D01*
X160770786Y-111894973D01*
X160760292Y-111893311D01*
X160751005Y-111891840D01*
X160751004Y-111891840D01*
X160735443Y-111893311D01*
X160707525Y-111895950D01*
X160695856Y-111896500D01*
X160440236Y-111896500D01*
X160396390Y-111888489D01*
X160362029Y-111875500D01*
X159871435Y-111690045D01*
X159868242Y-111688838D01*
X159859373Y-111685485D01*
X159803629Y-111643362D01*
X159779506Y-111577789D01*
X159794665Y-111509583D01*
X159844292Y-111460401D01*
X159859378Y-111453511D01*
X160396388Y-111250510D01*
X160440234Y-111242500D01*
X162147056Y-111242500D01*
X162167562Y-111244764D01*
X162170465Y-111244672D01*
X162170467Y-111244673D01*
X162237672Y-111242561D01*
X162241568Y-111242500D01*
X162265248Y-111242500D01*
X162269150Y-111242500D01*
X162273113Y-111241999D01*
X162284762Y-111241080D01*
X162328427Y-111239709D01*
X162347659Y-111234120D01*
X162366718Y-111230174D01*
X162372996Y-111229381D01*
X162386592Y-111227664D01*
X162427207Y-111211582D01*
X162438244Y-111207803D01*
X162480190Y-111195618D01*
X162497429Y-111185422D01*
X162514902Y-111176862D01*
X162533532Y-111169486D01*
X162568864Y-111143814D01*
X162578630Y-111137400D01*
X162593641Y-111128523D01*
X162616220Y-111115170D01*
X162630385Y-111101004D01*
X162645174Y-111088372D01*
X162661387Y-111076594D01*
X162689249Y-111042914D01*
X162697079Y-111034310D01*
X164467786Y-109263602D01*
X164483886Y-109250705D01*
X164485874Y-109248587D01*
X164485877Y-109248586D01*
X164531964Y-109199507D01*
X164534549Y-109196839D01*
X164554120Y-109177270D01*
X164556565Y-109174116D01*
X164564154Y-109165229D01*
X164594062Y-109133382D01*
X164603712Y-109115827D01*
X164614400Y-109099557D01*
X164626673Y-109083736D01*
X164644022Y-109043641D01*
X164649157Y-109033162D01*
X164670196Y-108994893D01*
X164670197Y-108994892D01*
X164675178Y-108975490D01*
X164681478Y-108957087D01*
X164689438Y-108938695D01*
X164696270Y-108895548D01*
X164698639Y-108884115D01*
X164709500Y-108841819D01*
X164709500Y-108821783D01*
X164711027Y-108802384D01*
X164714160Y-108782604D01*
X164710050Y-108739124D01*
X164709500Y-108727455D01*
X164709500Y-101421747D01*
X164721725Y-101368060D01*
X164935178Y-100923659D01*
X165319614Y-100123275D01*
X165325419Y-100110754D01*
X165325677Y-100110177D01*
X165340547Y-100069880D01*
X165344480Y-100060446D01*
X165357903Y-100031663D01*
X165419063Y-99803408D01*
X165439659Y-99568000D01*
X165419063Y-99332592D01*
X165357903Y-99104337D01*
X165258035Y-98890171D01*
X165122495Y-98696599D01*
X164955401Y-98529505D01*
X164761830Y-98393965D01*
X164547663Y-98294097D01*
X164486501Y-98277709D01*
X164319407Y-98232936D01*
X164084000Y-98212340D01*
X163848592Y-98232936D01*
X163620336Y-98294097D01*
X163406170Y-98393965D01*
X163212598Y-98529505D01*
X163045505Y-98696598D01*
X162915575Y-98882159D01*
X162860998Y-98925784D01*
X162791500Y-98932978D01*
X162729145Y-98901455D01*
X162712425Y-98882159D01*
X162582494Y-98696598D01*
X162415404Y-98529508D01*
X162415404Y-98529507D01*
X162415401Y-98529505D01*
X162221830Y-98393965D01*
X162007663Y-98294097D01*
X161946501Y-98277709D01*
X161779407Y-98232936D01*
X161544000Y-98212340D01*
X161308592Y-98232936D01*
X161080336Y-98294097D01*
X160866170Y-98393965D01*
X160672598Y-98529505D01*
X160505505Y-98696598D01*
X160375575Y-98882159D01*
X160320998Y-98925784D01*
X160251500Y-98932978D01*
X160189145Y-98901455D01*
X160172425Y-98882159D01*
X160042494Y-98696598D01*
X159875404Y-98529508D01*
X159875404Y-98529507D01*
X159875401Y-98529505D01*
X159681830Y-98393965D01*
X159467663Y-98294097D01*
X159406501Y-98277709D01*
X159239407Y-98232936D01*
X159003999Y-98212340D01*
X158768592Y-98232936D01*
X158540336Y-98294097D01*
X158326170Y-98393965D01*
X158132598Y-98529505D01*
X157965508Y-98696595D01*
X157835574Y-98882160D01*
X157780997Y-98925785D01*
X157711498Y-98932977D01*
X157649144Y-98901455D01*
X157632429Y-98882164D01*
X157502495Y-98696599D01*
X157335401Y-98529505D01*
X157141830Y-98393965D01*
X156927663Y-98294097D01*
X156866502Y-98277709D01*
X156699407Y-98232936D01*
X156464000Y-98212340D01*
X156228592Y-98232936D01*
X156000336Y-98294097D01*
X155786170Y-98393965D01*
X155592598Y-98529505D01*
X155425505Y-98696598D01*
X155295575Y-98882159D01*
X155240998Y-98925784D01*
X155171500Y-98932978D01*
X155109145Y-98901455D01*
X155092425Y-98882159D01*
X154962494Y-98696598D01*
X154795404Y-98529508D01*
X154795404Y-98529507D01*
X154795401Y-98529505D01*
X154601830Y-98393965D01*
X154387663Y-98294097D01*
X154326502Y-98277709D01*
X154159407Y-98232936D01*
X153923999Y-98212340D01*
X153688592Y-98232936D01*
X153460336Y-98294097D01*
X153246170Y-98393965D01*
X153052598Y-98529505D01*
X152885505Y-98696598D01*
X152755575Y-98882159D01*
X152700998Y-98925784D01*
X152631500Y-98932978D01*
X152569145Y-98901455D01*
X152552425Y-98882159D01*
X152422494Y-98696598D01*
X152255404Y-98529508D01*
X152255404Y-98529507D01*
X152255401Y-98529505D01*
X152061830Y-98393965D01*
X151847663Y-98294097D01*
X151786502Y-98277709D01*
X151619407Y-98232936D01*
X151384000Y-98212340D01*
X151148592Y-98232936D01*
X150920336Y-98294097D01*
X150706170Y-98393965D01*
X150512598Y-98529505D01*
X150345505Y-98696598D01*
X150215575Y-98882159D01*
X150160998Y-98925784D01*
X150091500Y-98932978D01*
X150029145Y-98901455D01*
X150012425Y-98882159D01*
X149882494Y-98696598D01*
X149715404Y-98529508D01*
X149715404Y-98529507D01*
X149715401Y-98529505D01*
X149521830Y-98393965D01*
X149307663Y-98294097D01*
X149246501Y-98277709D01*
X149079407Y-98232936D01*
X148844000Y-98212340D01*
X148608592Y-98232936D01*
X148380336Y-98294097D01*
X148166170Y-98393965D01*
X147972598Y-98529505D01*
X147805505Y-98696598D01*
X147675575Y-98882159D01*
X147620998Y-98925784D01*
X147551500Y-98932978D01*
X147489145Y-98901455D01*
X147472425Y-98882159D01*
X147342494Y-98696598D01*
X147175404Y-98529508D01*
X147175401Y-98529505D01*
X146981830Y-98393965D01*
X146767663Y-98294097D01*
X146706502Y-98277709D01*
X146539407Y-98232936D01*
X146304000Y-98212340D01*
X146068592Y-98232936D01*
X145840336Y-98294097D01*
X145626170Y-98393965D01*
X145432598Y-98529505D01*
X145265505Y-98696598D01*
X145135575Y-98882159D01*
X145080998Y-98925784D01*
X145011500Y-98932978D01*
X144949145Y-98901455D01*
X144932425Y-98882159D01*
X144802494Y-98696598D01*
X144635404Y-98529508D01*
X144635401Y-98529505D01*
X144441830Y-98393965D01*
X144227663Y-98294097D01*
X144166501Y-98277709D01*
X143999407Y-98232936D01*
X143763999Y-98212340D01*
X143528592Y-98232936D01*
X143300336Y-98294097D01*
X143086170Y-98393965D01*
X142892598Y-98529505D01*
X142725505Y-98696598D01*
X142595575Y-98882159D01*
X142540998Y-98925784D01*
X142471500Y-98932978D01*
X142409145Y-98901455D01*
X142392425Y-98882159D01*
X142262494Y-98696598D01*
X142095404Y-98529508D01*
X142095401Y-98529505D01*
X141901830Y-98393965D01*
X141687663Y-98294097D01*
X141626502Y-98277709D01*
X141459407Y-98232936D01*
X141224000Y-98212340D01*
X140988592Y-98232936D01*
X140760336Y-98294097D01*
X140546170Y-98393965D01*
X140352598Y-98529505D01*
X140185505Y-98696598D01*
X140055575Y-98882159D01*
X140000998Y-98925784D01*
X139931500Y-98932978D01*
X139869145Y-98901455D01*
X139852425Y-98882159D01*
X139722494Y-98696598D01*
X139555404Y-98529508D01*
X139555401Y-98529505D01*
X139361830Y-98393965D01*
X139147663Y-98294097D01*
X139086501Y-98277709D01*
X138919407Y-98232936D01*
X138684000Y-98212340D01*
X138448592Y-98232936D01*
X138220336Y-98294097D01*
X138006170Y-98393965D01*
X137812598Y-98529505D01*
X137645505Y-98696598D01*
X137515575Y-98882159D01*
X137460998Y-98925784D01*
X137391500Y-98932978D01*
X137329145Y-98901455D01*
X137312425Y-98882159D01*
X137182494Y-98696598D01*
X137015404Y-98529508D01*
X137015401Y-98529505D01*
X136821830Y-98393965D01*
X136607663Y-98294097D01*
X136546502Y-98277709D01*
X136379407Y-98232936D01*
X136143999Y-98212340D01*
X135908592Y-98232936D01*
X135680336Y-98294097D01*
X135466170Y-98393965D01*
X135272598Y-98529505D01*
X135105505Y-98696598D01*
X134975575Y-98882159D01*
X134920998Y-98925784D01*
X134851500Y-98932978D01*
X134789145Y-98901455D01*
X134772425Y-98882159D01*
X134642494Y-98696598D01*
X134475404Y-98529508D01*
X134475401Y-98529505D01*
X134281830Y-98393965D01*
X134067663Y-98294097D01*
X134006501Y-98277709D01*
X133839407Y-98232936D01*
X133604000Y-98212340D01*
X133368592Y-98232936D01*
X133140336Y-98294097D01*
X132926170Y-98393965D01*
X132732598Y-98529505D01*
X132565505Y-98696598D01*
X132435575Y-98882159D01*
X132380998Y-98925784D01*
X132311500Y-98932978D01*
X132249145Y-98901455D01*
X132232425Y-98882159D01*
X132102494Y-98696598D01*
X131935404Y-98529508D01*
X131935401Y-98529505D01*
X131741830Y-98393965D01*
X131527663Y-98294097D01*
X131466502Y-98277709D01*
X131299407Y-98232936D01*
X131063999Y-98212340D01*
X130828592Y-98232936D01*
X130600336Y-98294097D01*
X130386170Y-98393965D01*
X130192598Y-98529505D01*
X130025505Y-98696598D01*
X129895575Y-98882159D01*
X129840998Y-98925784D01*
X129771500Y-98932978D01*
X129709145Y-98901455D01*
X129692425Y-98882159D01*
X129562494Y-98696598D01*
X129395404Y-98529508D01*
X129395401Y-98529505D01*
X129201830Y-98393965D01*
X128987663Y-98294097D01*
X128926501Y-98277709D01*
X128759407Y-98232936D01*
X128524000Y-98212340D01*
X128288592Y-98232936D01*
X128060336Y-98294097D01*
X127846170Y-98393965D01*
X127652598Y-98529505D01*
X127485505Y-98696598D01*
X127355575Y-98882159D01*
X127300998Y-98925784D01*
X127231500Y-98932978D01*
X127169145Y-98901455D01*
X127152425Y-98882159D01*
X127022494Y-98696598D01*
X126855404Y-98529508D01*
X126855401Y-98529505D01*
X126661830Y-98393965D01*
X126447663Y-98294097D01*
X126386501Y-98277709D01*
X126219407Y-98232936D01*
X125984000Y-98212340D01*
X125748592Y-98232936D01*
X125520336Y-98294097D01*
X125306170Y-98393965D01*
X125112598Y-98529505D01*
X124945505Y-98696598D01*
X124809965Y-98890170D01*
X124710097Y-99104336D01*
X124648936Y-99332592D01*
X124628340Y-99568000D01*
X94483695Y-99568000D01*
X94487928Y-96520458D01*
X94507706Y-96453449D01*
X94524242Y-96432957D01*
X96991652Y-93965547D01*
X97052973Y-93932064D01*
X97079403Y-93929230D01*
X183787791Y-93979966D01*
G37*
%TD.AperFunction*%
%TD*%
%TA.AperFunction,Conductor*%
%TO.N,/#SRCLR*%
G36*
X126799696Y-105939890D02*
G01*
X127411436Y-106171141D01*
X127417963Y-106177272D01*
X127418999Y-106182085D01*
X127418999Y-106415914D01*
X127415572Y-106424187D01*
X127411436Y-106426858D01*
X126782655Y-106664551D01*
X126773705Y-106664271D01*
X126767719Y-106658109D01*
X126671306Y-106426858D01*
X126619875Y-106303499D01*
X126619855Y-106294550D01*
X126767719Y-105939889D01*
X126774066Y-105933572D01*
X126782654Y-105933448D01*
X126799696Y-105939890D01*
G37*
%TD.AperFunction*%
%TD*%
%TA.AperFunction,Conductor*%
%TO.N,/#SRCLR*%
G36*
X144818071Y-108188252D02*
G01*
X145430760Y-108464793D01*
X145436891Y-108471320D01*
X145436767Y-108479909D01*
X145290563Y-108835195D01*
X145284245Y-108841542D01*
X145284195Y-108841563D01*
X144928909Y-108987767D01*
X144919955Y-108987746D01*
X144913793Y-108981760D01*
X144849676Y-108839707D01*
X144687279Y-108479909D01*
X144637252Y-108369071D01*
X144636972Y-108360121D01*
X144639641Y-108355987D01*
X144804986Y-108190642D01*
X144813258Y-108187216D01*
X144818071Y-108188252D01*
G37*
%TD.AperFunction*%
%TD*%
%TA.AperFunction,Conductor*%
%TO.N,/SRCLK*%
G36*
X111631188Y-114773427D02*
G01*
X111633859Y-114777563D01*
X111871551Y-115406344D01*
X111871271Y-115415294D01*
X111865109Y-115421280D01*
X111510501Y-115569123D01*
X111501548Y-115569143D01*
X111340555Y-115502023D01*
X111146890Y-115421280D01*
X111140572Y-115414933D01*
X111140448Y-115406345D01*
X111378141Y-114777562D01*
X111384272Y-114771036D01*
X111389085Y-114770000D01*
X111622915Y-114770000D01*
X111631188Y-114773427D01*
G37*
%TD.AperFunction*%
%TD*%
%TA.AperFunction,Conductor*%
%TO.N,/SRCLK*%
G36*
X126337294Y-110251728D02*
G01*
X126343280Y-110257890D01*
X126491123Y-110612497D01*
X126491144Y-110621451D01*
X126491123Y-110621501D01*
X126343280Y-110976109D01*
X126336933Y-110982427D01*
X126328344Y-110982551D01*
X125699563Y-110744858D01*
X125693036Y-110738727D01*
X125692000Y-110733914D01*
X125692000Y-110500085D01*
X125695427Y-110491812D01*
X125699563Y-110489141D01*
X126328345Y-110251448D01*
X126337294Y-110251728D01*
G37*
%TD.AperFunction*%
%TD*%
%TA.AperFunction,Conductor*%
%TO.N,/SRCLK*%
G36*
X142849571Y-111299752D02*
G01*
X143462260Y-111576293D01*
X143468391Y-111582820D01*
X143468267Y-111591409D01*
X143322063Y-111946695D01*
X143315745Y-111953042D01*
X143315695Y-111953063D01*
X142960409Y-112099267D01*
X142951455Y-112099246D01*
X142945293Y-112093260D01*
X142881176Y-111951207D01*
X142718779Y-111591409D01*
X142668752Y-111480571D01*
X142668472Y-111471621D01*
X142671141Y-111467487D01*
X142836486Y-111302142D01*
X142844758Y-111298716D01*
X142849571Y-111299752D01*
G37*
%TD.AperFunction*%
%TD*%
%TA.AperFunction,Conductor*%
%TO.N,/SRCLK*%
G36*
X126672696Y-110257890D02*
G01*
X127284437Y-110489141D01*
X127290964Y-110495272D01*
X127292000Y-110500085D01*
X127292000Y-110733914D01*
X127288573Y-110742187D01*
X127284437Y-110744858D01*
X126655655Y-110982551D01*
X126646705Y-110982271D01*
X126640719Y-110976109D01*
X126544306Y-110744858D01*
X126492875Y-110621499D01*
X126492855Y-110612550D01*
X126640719Y-110257889D01*
X126647066Y-110251572D01*
X126655654Y-110251448D01*
X126672696Y-110257890D01*
G37*
%TD.AperFunction*%
%TD*%
%TA.AperFunction,Conductor*%
%TO.N,/RCLK*%
G36*
X133845044Y-112500253D02*
G01*
X133851206Y-112506239D01*
X134127747Y-113118928D01*
X134128027Y-113127878D01*
X134125356Y-113132014D01*
X133960014Y-113297356D01*
X133951741Y-113300783D01*
X133946928Y-113299747D01*
X133334239Y-113023206D01*
X133328108Y-113016679D01*
X133328232Y-113008090D01*
X133474437Y-112652802D01*
X133480753Y-112646457D01*
X133836090Y-112500232D01*
X133845044Y-112500253D01*
G37*
%TD.AperFunction*%
%TD*%
%TA.AperFunction,Conductor*%
%TO.N,/RCLK*%
G36*
X154089071Y-112633252D02*
G01*
X154701760Y-112909793D01*
X154707891Y-112916320D01*
X154707767Y-112924909D01*
X154561563Y-113280195D01*
X154555245Y-113286542D01*
X154555195Y-113286563D01*
X154199909Y-113432767D01*
X154190955Y-113432746D01*
X154184793Y-113426760D01*
X154120676Y-113284707D01*
X153958279Y-112924909D01*
X153908252Y-112814071D01*
X153907972Y-112805121D01*
X153910641Y-112800987D01*
X154075986Y-112635642D01*
X154084258Y-112632216D01*
X154089071Y-112633252D01*
G37*
%TD.AperFunction*%
%TD*%
%TA.AperFunction,Conductor*%
%TO.N,/RCLK*%
G36*
X152530803Y-110618166D02*
G01*
X152886596Y-110765938D01*
X152892922Y-110772276D01*
X152893244Y-110780333D01*
X152732925Y-111277598D01*
X152730062Y-111282281D01*
X152566051Y-111446292D01*
X152557778Y-111449719D01*
X152549505Y-111446292D01*
X152547653Y-111443882D01*
X152415702Y-111216029D01*
X152164125Y-110781604D01*
X152162946Y-110772730D01*
X152168388Y-110765618D01*
X152169743Y-110764946D01*
X152521800Y-110618165D01*
X152530752Y-110618145D01*
X152530803Y-110618166D01*
G37*
%TD.AperFunction*%
%TD*%
%TA.AperFunction,Conductor*%
%TO.N,/RCLK*%
G36*
X154198322Y-113134592D02*
G01*
X154552748Y-113281004D01*
X154559085Y-113287329D01*
X154559980Y-113291846D01*
X154559024Y-113674097D01*
X154555576Y-113682362D01*
X154549229Y-113685612D01*
X153930419Y-113787754D01*
X153921699Y-113785720D01*
X153916970Y-113778115D01*
X153916814Y-113776210D01*
X153916814Y-113543542D01*
X153918778Y-113537053D01*
X154184123Y-113138916D01*
X154191561Y-113133935D01*
X154198322Y-113134592D01*
G37*
%TD.AperFunction*%
%TD*%
%TA.AperFunction,Conductor*%
%TO.N,VCC*%
G36*
X141427101Y-108253142D02*
G01*
X142215267Y-108459711D01*
X142222400Y-108465123D01*
X142224000Y-108471028D01*
X142224000Y-108952971D01*
X142220573Y-108961244D01*
X142215266Y-108964289D01*
X141425193Y-109171357D01*
X141416322Y-109170139D01*
X141411426Y-109164536D01*
X141224871Y-108716495D01*
X141224855Y-108707544D01*
X141411427Y-108259461D01*
X141417770Y-108253142D01*
X141425193Y-108252642D01*
X141427101Y-108253142D01*
G37*
%TD.AperFunction*%
%TD*%
%TA.AperFunction,Conductor*%
%TO.N,VCC*%
G36*
X159506942Y-108062435D02*
G01*
X159511835Y-108069935D01*
X159512035Y-108072062D01*
X159513000Y-108458000D01*
X159512035Y-108843937D01*
X159508587Y-108852202D01*
X159500306Y-108855608D01*
X159498179Y-108855408D01*
X158721544Y-108709789D01*
X158714044Y-108704896D01*
X158712000Y-108698289D01*
X158712000Y-108217710D01*
X158715427Y-108209437D01*
X158721542Y-108206210D01*
X159498180Y-108060591D01*
X159506942Y-108062435D01*
G37*
%TD.AperFunction*%
%TD*%
%TA.AperFunction,Conductor*%
%TO.N,VCC*%
G36*
X102338545Y-131827097D02*
G01*
X102345011Y-131833293D01*
X102346000Y-131838000D01*
X102346000Y-132321999D01*
X102342573Y-132330272D01*
X102338545Y-132332902D01*
X100981941Y-132861146D01*
X100972989Y-132860954D01*
X100966891Y-132854732D01*
X100646865Y-132084489D01*
X100646856Y-132075534D01*
X100646865Y-132075511D01*
X100745548Y-131838000D01*
X100966891Y-131305266D01*
X100973230Y-131298942D01*
X100981941Y-131298853D01*
X102338545Y-131827097D01*
G37*
%TD.AperFunction*%
%TD*%
%TA.AperFunction,Conductor*%
%TO.N,VCC*%
G36*
X148391473Y-116398536D02*
G01*
X148840203Y-116583437D01*
X148846546Y-116589757D01*
X148846563Y-116589797D01*
X149031462Y-117038523D01*
X149031445Y-117047477D01*
X149026549Y-117053080D01*
X148321465Y-117465326D01*
X148312594Y-117466544D01*
X148307287Y-117463499D01*
X147966500Y-117122712D01*
X147963073Y-117114439D01*
X147964671Y-117108538D01*
X148376919Y-116403449D01*
X148384053Y-116398037D01*
X148391473Y-116398536D01*
G37*
%TD.AperFunction*%
%TD*%
%TA.AperFunction,Conductor*%
%TO.N,VCC*%
G36*
X141031677Y-108253860D02*
G01*
X141036573Y-108259463D01*
X141223127Y-108707502D01*
X141223144Y-108716456D01*
X141223127Y-108716496D01*
X141036573Y-109164536D01*
X141030229Y-109170857D01*
X141022806Y-109171357D01*
X140232734Y-108964289D01*
X140225600Y-108958876D01*
X140224000Y-108952971D01*
X140224000Y-108471028D01*
X140227427Y-108462755D01*
X140232731Y-108459711D01*
X141022806Y-108252642D01*
X141031677Y-108253860D01*
G37*
%TD.AperFunction*%
%TD*%
%TA.AperFunction,Conductor*%
%TO.N,VCC*%
G36*
X117424101Y-125017142D02*
G01*
X118212267Y-125223711D01*
X118219400Y-125229123D01*
X118221000Y-125235028D01*
X118221000Y-125716971D01*
X118217573Y-125725244D01*
X118212266Y-125728289D01*
X117422193Y-125935357D01*
X117413322Y-125934139D01*
X117408426Y-125928536D01*
X117324094Y-125726000D01*
X117221871Y-125480495D01*
X117221855Y-125471544D01*
X117408427Y-125023461D01*
X117414770Y-125017142D01*
X117422193Y-125016642D01*
X117424101Y-125017142D01*
G37*
%TD.AperFunction*%
%TD*%
%TA.AperFunction,Conductor*%
%TO.N,Net-(U1-ROW1)*%
G36*
X164088489Y-99568865D02*
G01*
X164857892Y-99888542D01*
X164864217Y-99894881D01*
X164864208Y-99903836D01*
X164863950Y-99904413D01*
X164212186Y-101261366D01*
X164205515Y-101267339D01*
X164201639Y-101268000D01*
X163966361Y-101268000D01*
X163958088Y-101264573D01*
X163955814Y-101261366D01*
X163304049Y-99904413D01*
X163303557Y-99895471D01*
X163309530Y-99888800D01*
X163310095Y-99888547D01*
X164079511Y-99568864D01*
X164088466Y-99568856D01*
X164088489Y-99568865D01*
G37*
%TD.AperFunction*%
%TD*%
%TA.AperFunction,Conductor*%
%TO.N,Net-(U1-ROW1)*%
G36*
X159692696Y-110257890D02*
G01*
X160304437Y-110489141D01*
X160310964Y-110495272D01*
X160312000Y-110500085D01*
X160312000Y-110733914D01*
X160308573Y-110742187D01*
X160304437Y-110744858D01*
X159675655Y-110982551D01*
X159666705Y-110982271D01*
X159660719Y-110976109D01*
X159564306Y-110744858D01*
X159512875Y-110621499D01*
X159512855Y-110612550D01*
X159660719Y-110257889D01*
X159667066Y-110251572D01*
X159675654Y-110251448D01*
X159692696Y-110257890D01*
G37*
%TD.AperFunction*%
%TD*%
%TA.AperFunction,Conductor*%
%TO.N,/SER2*%
G36*
X118544696Y-111781890D02*
G01*
X119156437Y-112013141D01*
X119162964Y-112019272D01*
X119164000Y-112024085D01*
X119164000Y-112257914D01*
X119160573Y-112266187D01*
X119156437Y-112268858D01*
X118527655Y-112506551D01*
X118518705Y-112506271D01*
X118512719Y-112500109D01*
X118416306Y-112268858D01*
X118364875Y-112145499D01*
X118364855Y-112136550D01*
X118512719Y-111781889D01*
X118519066Y-111775572D01*
X118527654Y-111775448D01*
X118544696Y-111781890D01*
G37*
%TD.AperFunction*%
%TD*%
%TA.AperFunction,Conductor*%
%TO.N,/SER2*%
G36*
X125133071Y-113268252D02*
G01*
X125745760Y-113544793D01*
X125751891Y-113551320D01*
X125751767Y-113559909D01*
X125605563Y-113915195D01*
X125599245Y-113921542D01*
X125599195Y-113921563D01*
X125243909Y-114067767D01*
X125234955Y-114067746D01*
X125228793Y-114061760D01*
X125164676Y-113919707D01*
X125002279Y-113559909D01*
X124952252Y-113449071D01*
X124951972Y-113440121D01*
X124954641Y-113435987D01*
X125119986Y-113270642D01*
X125128258Y-113267216D01*
X125133071Y-113268252D01*
G37*
%TD.AperFunction*%
%TD*%
%TA.AperFunction,Conductor*%
%TO.N,/SER3*%
G36*
X159692696Y-112162890D02*
G01*
X160304437Y-112394141D01*
X160310964Y-112400272D01*
X160312000Y-112405085D01*
X160312000Y-112638914D01*
X160308573Y-112647187D01*
X160304437Y-112649858D01*
X159675655Y-112887551D01*
X159666705Y-112887271D01*
X159660719Y-112881109D01*
X159564306Y-112649858D01*
X159512875Y-112526499D01*
X159512855Y-112517550D01*
X159660719Y-112162889D01*
X159667066Y-112156572D01*
X159675654Y-112156448D01*
X159692696Y-112162890D01*
G37*
%TD.AperFunction*%
%TD*%
%TA.AperFunction,Conductor*%
%TO.N,/SER3*%
G36*
X162710165Y-114320861D02*
G01*
X163262941Y-114636547D01*
X163268426Y-114643626D01*
X163267959Y-114651159D01*
X163121363Y-115007395D01*
X163115045Y-115013742D01*
X163114995Y-115013763D01*
X162760837Y-115159503D01*
X162751883Y-115159482D01*
X162745565Y-115153135D01*
X162745290Y-115152397D01*
X162527916Y-114500065D01*
X162528552Y-114491135D01*
X162530740Y-114488098D01*
X162696091Y-114322747D01*
X162704363Y-114319321D01*
X162710165Y-114320861D01*
G37*
%TD.AperFunction*%
%TD*%
M02*
