M48
; DRILL file {KiCad 7.0.2} date Sat Aug 12 01:35:29 2023
; FORMAT={-:-/ absolute / inch / decimal}
; #@! TF.CreationDate,2023-08-12T01:35:29+09:00
; #@! TF.GenerationSoftware,Kicad,Pcbnew,7.0.2
; #@! TF.FileFunction,Plated,1,2,PTH
FMAT,2
INCH
; #@! TA.AperFunction,Plated,PTH,ViaDrill
T1C0.0157
; #@! TA.AperFunction,Plated,PTH,ViaDrill
T2C0.0197
; #@! TA.AperFunction,Plated,PTH,ComponentDrill
T3C0.0394
; #@! TA.AperFunction,Plated,PTH,ComponentDrill
T4C0.0433
%
G90
G05
T1
X4.29Y-4.81
X4.38Y-4.72
X4.39Y-4.55
X4.565Y-4.025
X4.66Y-4.415
X4.7Y-4.026
X4.7Y-5.128
X4.945Y-4.485
X4.98Y-4.355
X4.985Y-4.185
X5.255Y-4.435
X5.6425Y-4.4075
X5.72Y-4.285
X5.764Y-4.072
X6.005Y-4.355
X6.085Y-4.46
X6.28Y-4.27
X6.28Y-4.355
X6.28Y-4.43
X6.362Y-4.092
X6.362Y-4.228
X6.422Y-4.528
X6.432Y-4.816
X6.56Y-4.09
X6.56Y-4.23
T2
X4.615Y-4.94
X5.56Y-4.28
X5.86Y-4.59
T3
X3.8624Y-4.7
X3.8624Y-4.8
X3.8624Y-4.9
X3.8624Y-5.0
X3.8624Y-5.1
X3.8624Y-5.2
X3.9624Y-4.7
X3.9624Y-4.8
X3.9624Y-4.9
X3.9624Y-5.0
X3.9624Y-5.1
X3.9624Y-5.2
T4
X4.96Y-3.92
X4.96Y-5.1113
X5.06Y-3.92
X5.06Y-5.1113
X5.16Y-3.92
X5.16Y-5.1113
X5.26Y-3.92
X5.26Y-5.1113
X5.36Y-3.92
X5.36Y-5.1113
X5.46Y-3.92
X5.46Y-5.1113
X5.56Y-3.92
X5.56Y-5.1113
X5.66Y-3.92
X5.66Y-5.1113
X5.76Y-3.92
X5.76Y-5.1113
X5.86Y-3.92
X5.86Y-5.1113
X5.96Y-3.92
X5.96Y-5.1113
X6.06Y-3.92
X6.06Y-5.1113
X6.16Y-3.92
X6.16Y-5.1113
X6.26Y-3.92
X6.26Y-5.1113
X6.36Y-3.92
X6.36Y-5.1113
X6.46Y-3.92
X6.46Y-5.1113
T0
M30
