%TF.GenerationSoftware,KiCad,Pcbnew,7.0.2*%
%TF.CreationDate,2023-08-12T01:35:25+09:00*%
%TF.ProjectId,Pmod_Matrix256,506d6f64-5f4d-4617-9472-69783235362e,rev?*%
%TF.SameCoordinates,Original*%
%TF.FileFunction,Paste,Top*%
%TF.FilePolarity,Positive*%
%FSLAX46Y46*%
G04 Gerber Fmt 4.6, Leading zero omitted, Abs format (unit mm)*
G04 Created by KiCad (PCBNEW 7.0.2) date 2023-08-12 01:35:25*
%MOMM*%
%LPD*%
G01*
G04 APERTURE LIST*
G04 Aperture macros list*
%AMRoundRect*
0 Rectangle with rounded corners*
0 $1 Rounding radius*
0 $2 $3 $4 $5 $6 $7 $8 $9 X,Y pos of 4 corners*
0 Add a 4 corners polygon primitive as box body*
4,1,4,$2,$3,$4,$5,$6,$7,$8,$9,$2,$3,0*
0 Add four circle primitives for the rounded corners*
1,1,$1+$1,$2,$3*
1,1,$1+$1,$4,$5*
1,1,$1+$1,$6,$7*
1,1,$1+$1,$8,$9*
0 Add four rect primitives between the rounded corners*
20,1,$1+$1,$2,$3,$4,$5,0*
20,1,$1+$1,$4,$5,$6,$7,0*
20,1,$1+$1,$6,$7,$8,$9,0*
20,1,$1+$1,$8,$9,$2,$3,0*%
G04 Aperture macros list end*
%ADD10RoundRect,0.237500X0.237500X-0.250000X0.237500X0.250000X-0.237500X0.250000X-0.237500X-0.250000X0*%
%ADD11RoundRect,0.150000X0.150000X-0.825000X0.150000X0.825000X-0.150000X0.825000X-0.150000X-0.825000X0*%
%ADD12RoundRect,0.150000X-0.150000X0.825000X-0.150000X-0.825000X0.150000X-0.825000X0.150000X0.825000X0*%
%ADD13RoundRect,0.150000X0.825000X0.150000X-0.825000X0.150000X-0.825000X-0.150000X0.825000X-0.150000X0*%
G04 APERTURE END LIST*
D10*
%TO.C,R5*%
X136144000Y-127404500D03*
X136144000Y-125579500D03*
%TD*%
%TO.C,R7*%
X141224000Y-127404500D03*
X141224000Y-125579500D03*
%TD*%
D11*
%TO.C,U3*%
X152273000Y-121601000D03*
X153543000Y-121601000D03*
X154813000Y-121601000D03*
X156083000Y-121601000D03*
X157353000Y-121601000D03*
X158623000Y-121601000D03*
X159893000Y-121601000D03*
X161163000Y-121601000D03*
X161163000Y-116651000D03*
X159893000Y-116651000D03*
X158623000Y-116651000D03*
X157353000Y-116651000D03*
X156083000Y-116651000D03*
X154813000Y-116651000D03*
X153543000Y-116651000D03*
X152273000Y-116651000D03*
%TD*%
D10*
%TO.C,R4*%
X133604000Y-127404500D03*
X133604000Y-125579500D03*
%TD*%
%TO.C,R9*%
X146304000Y-127384500D03*
X146304000Y-125559500D03*
%TD*%
D12*
%TO.C,U5*%
X138557000Y-104967000D03*
X137287000Y-104967000D03*
X136017000Y-104967000D03*
X134747000Y-104967000D03*
X133477000Y-104967000D03*
X132207000Y-104967000D03*
X130937000Y-104967000D03*
X129667000Y-104967000D03*
X129667000Y-109917000D03*
X130937000Y-109917000D03*
X132207000Y-109917000D03*
X133477000Y-109917000D03*
X134747000Y-109917000D03*
X136017000Y-109917000D03*
X137287000Y-109917000D03*
X138557000Y-109917000D03*
%TD*%
D10*
%TO.C,R1*%
X125984000Y-127404500D03*
X125984000Y-125579500D03*
%TD*%
%TO.C,R2*%
X128524000Y-127404500D03*
X128524000Y-125579500D03*
%TD*%
%TO.C,R10*%
X148844000Y-127384500D03*
X148844000Y-125559500D03*
%TD*%
%TO.C,R16*%
X164084000Y-127384500D03*
X164084000Y-125559500D03*
%TD*%
%TO.C,R14*%
X159004000Y-127384500D03*
X159004000Y-125559500D03*
%TD*%
%TO.C,R15*%
X161544000Y-127384500D03*
X161544000Y-125559500D03*
%TD*%
%TO.C,R11*%
X151384000Y-127384500D03*
X151384000Y-125559500D03*
%TD*%
%TO.C,R3*%
X131064000Y-127404500D03*
X131064000Y-125579500D03*
%TD*%
D12*
%TO.C,U4*%
X157607000Y-103443000D03*
X156337000Y-103443000D03*
X155067000Y-103443000D03*
X153797000Y-103443000D03*
X152527000Y-103443000D03*
X151257000Y-103443000D03*
X149987000Y-103443000D03*
X148717000Y-103443000D03*
X148717000Y-108393000D03*
X149987000Y-108393000D03*
X151257000Y-108393000D03*
X152527000Y-108393000D03*
X153797000Y-108393000D03*
X155067000Y-108393000D03*
X156337000Y-108393000D03*
X157607000Y-108393000D03*
%TD*%
D10*
%TO.C,R8*%
X143764000Y-127404500D03*
X143764000Y-125579500D03*
%TD*%
%TO.C,R13*%
X156464000Y-127384500D03*
X156464000Y-125559500D03*
%TD*%
%TO.C,R6*%
X138684000Y-127404500D03*
X138684000Y-125579500D03*
%TD*%
D13*
%TO.C,U2*%
X122174000Y-123190000D03*
X122174000Y-121920000D03*
X122174000Y-120650000D03*
X122174000Y-119380000D03*
X122174000Y-118110000D03*
X122174000Y-116840000D03*
X122174000Y-115570000D03*
X122174000Y-114300000D03*
X117224000Y-114300000D03*
X117224000Y-115570000D03*
X117224000Y-116840000D03*
X117224000Y-118110000D03*
X117224000Y-119380000D03*
X117224000Y-120650000D03*
X117224000Y-121920000D03*
X117224000Y-123190000D03*
%TD*%
D10*
%TO.C,R12*%
X153924000Y-127384500D03*
X153924000Y-125559500D03*
%TD*%
M02*
